<?xml version="1.0" encoding="UTF-8" standalone="no"?>
<!-- Created with Inkscape (http://www.inkscape.org/) -->

<svg
   width="1800"
   height="1800"
   viewBox="0 0 476.25 476.25001"
   version="1.1"
   id="svg8"
   inkscape:export-filename="C:\Users\厂永刄先生\Documents\GXI3CW2\,pjóŭ\Ghana.png"
   inkscape:export-xdpi="96"
   inkscape:export-ydpi="96"
   inkscape:version="1.3 (0e150ed6c4, 2023-07-21)"
   sodipodi:docname="ar_1945_000-001_roundel_v.svg"
   xmlns:inkscape="http://www.inkscape.org/namespaces/inkscape"
   xmlns:sodipodi="http://sodipodi.sourceforge.net/DTD/sodipodi-0.dtd"
   xmlns="http://www.w3.org/2000/svg"
   xmlns:svg="http://www.w3.org/2000/svg"
   xmlns:rdf="http://www.w3.org/1999/02/22-rdf-syntax-ns#"
   xmlns:cc="http://creativecommons.org/ns#"
   xmlns:dc="http://purl.org/dc/elements/1.1/">
  <defs
     id="defs2" />
  <sodipodi:namedview
     id="base"
     pagecolor="#ffffff"
     bordercolor="#666666"
     borderopacity="1.0"
     inkscape:pageopacity="0.0"
     inkscape:pageshadow="2"
     inkscape:zoom="0.31937655"
     inkscape:cx="1435.6095"
     inkscape:cy="1009.7798"
     inkscape:document-units="px"
     inkscape:current-layer="layer1"
     showgrid="false"
     units="px"
     fit-margin-top="0"
     fit-margin-left="0"
     fit-margin-right="0"
     fit-margin-bottom="0"
     inkscape:showpageshadow="false"
     inkscape:snap-intersection-paths="true"
     inkscape:object-paths="false"
     inkscape:pagecheckerboard="true"
     inkscape:snap-smooth-nodes="false"
     inkscape:window-width="1920"
     inkscape:window-height="1009"
     inkscape:window-x="-8"
     inkscape:window-y="-8"
     inkscape:window-maximized="1"
     inkscape:object-nodes="true"
     inkscape:snap-nodes="true"
     inkscape:deskcolor="#505050" />
  <metadata
     id="metadata5">
    <rdf:RDF>
      <cc:Work
         rdf:about="">
        <dc:format>image/svg+xml</dc:format>
        <dc:type
           rdf:resource="http://purl.org/dc/dcmitype/StillImage" />
      </cc:Work>
    </rdf:RDF>
  </metadata>
  <g
     inkscape:label="レイヤー 1"
     inkscape:groupmode="layer"
     id="layer1"
     transform="translate(-444.87799,-608.83038)">
    <path
       id="circle7"
       style="fill:#74acdf;fill-opacity:1;stroke-width:13.0235;stroke-linecap:round;stroke-linejoin:round;stroke-miterlimit:155;paint-order:stroke fill markers"
       d="m 921.12799,846.95538 c 0,131.5128 -106.6122,238.12502 -238.125,238.12502 -131.5128,0 -238.125,-106.61222 -238.125,-238.12502 0,-131.5128 106.6122,-238.125 238.125,-238.125 131.5128,0 238.125,106.6122 238.125,238.125 z"
       sodipodi:nodetypes="zzzzz" />
    <path
       id="path2"
       style="fill:#ffffff;fill-opacity:1;stroke-width:6.14997;stroke-linecap:round;stroke-linejoin:round;stroke-miterlimit:155;paint-order:stroke fill markers"
       d="m 907.89881,846.95533 c 0,124.20652 -100.68931,224.89597 -224.89582,224.89597 -124.20654,0 -224.89583,-100.68945 -224.89583,-224.89597 0,-124.20653 100.6893,-224.89583 224.89583,-224.89583 124.20651,0 224.89582,100.6893 224.89582,224.89583 z"
       sodipodi:nodetypes="zzzzz" />
    <path
       id="path1"
       style="fill:#74acdf;fill-opacity:1;stroke-width:5.78821;stroke-linecap:round;stroke-linejoin:round;stroke-miterlimit:155;paint-order:stroke fill markers"
       d="m 471.33634,846.95535 c 0,116.90025 94.7664,211.66675 211.66665,211.66675 116.90025,0 211.66665,-94.7665 211.66665,-211.66674 0,-116.90025 -94.7664,-211.66665 -211.66665,-211.66665 -116.90025,0 -211.66665,94.7664 -211.66665,211.66664 z"
       sodipodi:nodetypes="zzzzz" />
    <path
       id="path3"
       style="fill:#ffffff;fill-opacity:1;stroke-width:5.78821;stroke-linecap:round;stroke-linejoin:round;stroke-miterlimit:155;paint-order:stroke fill markers"
       d="m 881.44048,846.95541 c 0,-109.59399 -88.8435,-198.43753 -198.43749,-198.43753 -109.59399,0 -198.43749,88.84354 -198.43749,198.43753 0,109.59399 88.8435,198.43749 198.43749,198.43749 109.59399,0 198.43749,-88.8435 198.43749,-198.43749 z"
       sodipodi:nodetypes="zzzzz" />
    <g
       id="g6"
       transform="matrix(0.82890637,0,0,0.82890637,623.94615,450.61773)"
       style="fill:#85340a;fill-opacity:1;stroke:none" />
    <g
       id="g7"
       transform="matrix(1,0,0,-1,0,1694.6365)">
      <g
         id="g5"
         style="fill:#85340a;fill-opacity:1;stroke:none"
         transform="matrix(0,-0.82890636,0.82890636,0,270.29335,761.93458)">
        <path
           id="path5"
           style="fill:#800000;stroke-width:2.98092;stroke-linecap:round;stroke-linejoin:round;stroke-miterlimit:155"
           d="m -103.44531,340.92654 c 27.708054,0 46.48191,5.3881 50.169866,19.15174 2e-6,8.24914 -22.461812,14.93639 -50.169866,14.93639 -27.70806,0 -50.16987,-6.68725 -50.16987,-14.93639 0,-10.57721 22.46181,-19.15174 50.16987,-19.15174 z"
           sodipodi:nodetypes="scsss" />
        <path
           style="color:#000000;fill:#a05a2c;stroke:none;stroke-width:2.87272;stroke-linejoin:round;stroke-miterlimit:155;stroke-dasharray:none;stroke-opacity:1"
           d="m -93.869442,317.51422 h -19.151738 v 394.24407 c 1e-5,5.33644 4.24168,9.57525 9.57588,9.57525 5.334194,0 9.575867,-4.23882 9.575863,-9.57525 z"
           id="path6"
           sodipodi:nodetypes="ccczcc" />
        <path
           id="ellipse5"
           style="fill:#e00000;fill-opacity:1;stroke-width:2.6325;stroke-linecap:round;stroke-linejoin:round;stroke-miterlimit:155"
           d="m -103.44531,345.14189 c 27.708054,0 48.116115,6.54722 50.169866,14.93639 -5.724383,-25.44128 -28.442396,-85.61867 -47.034246,-85.61867 -20.15298,0 -53.30549,37.62821 -53.30549,85.61867 0,-8.24914 22.46181,-14.93639 50.16987,-14.93639 z"
           sodipodi:nodetypes="scscs" />
        <path
           style="fill:#e00000;fill-opacity:1;stroke:none;stroke-width:2.6325;stroke-linecap:round;stroke-linejoin:round;stroke-miterlimit:155;stroke-dasharray:none;stroke-opacity:1"
           d="m -100.30969,274.45961 c 49.854593,0 87.263015,92.81016 8.203696,46.80471"
           id="path3-3"
           sodipodi:nodetypes="cc" />
      </g>
    </g>
    <path
       id="path13"
       style="color:#000000;fill:#000000;fill-opacity:1;stroke:none;stroke-width:0.824336;stroke-dasharray:none;stroke-opacity:1"
       d="m 705.08888,690.33072 c 1.1e-4,9.70974 -6.09649,17.83815 -14.713,20.83594 l -0.38443,-6.97672 h -13.9769 l -0.38443,6.97672 c -8.61651,-2.99779 -14.71311,-11.1262 -14.713,-20.83594 1.4e-4,-12.30303 9.7831,-22.07708 22.08588,-22.07708 12.30278,0 22.08574,9.77405 22.08588,22.07708 z m -50.66919,0 c 3e-5,13.02832 8.8564,24.10754 20.84011,27.50903 l -0.59582,10.45582 h -65.19205 v 20.88225 l 64.05174,10e-6 -11.70312,214.31537 c -0.41682,11.33486 -10.67201,23.42376 -24.38629,23.42376 -19.72686,0 -45.2671,-3.82577 -70.77393,-26.62504 -11.24087,-10.04764 -19.20512,-19.37538 -23.75848,-29.97809 0,13.76687 -2.89389,34.50723 8.00965,46.46436 -0.16265,-3.01406 0.59314,-8.74256 3.5358,-10.51714 12.80596,16.35753 50.2612,39.64825 70.52144,43.18145 28.58177,4.9845 51.29349,10.281 58.03426,22.7212 6.74077,-12.4402 29.45249,-17.7367 58.03426,-22.7212 20.26024,-3.5332 57.71548,-26.82392 70.52144,-43.18145 2.94266,1.77458 3.69845,7.50308 3.5358,10.51714 10.90354,-11.95713 8.00965,-32.69749 8.00965,-46.46436 -4.55336,10.60271 -12.51761,19.93045 -23.75848,29.97809 -25.50683,22.79927 -51.04707,26.62504 -70.77393,26.62504 -13.71428,0 -23.96947,-12.0889 -24.38629,-23.42376 l -11.70312,-214.31537 64.05174,-10e-6 v -20.88225 h -65.19205 l -0.59582,-10.45582 c 11.98371,-3.40149 20.84008,-14.48071 20.84011,-27.50903 2e-5,-15.70857 -12.87507,-28.58366 -28.58331,-28.58366 -15.70824,0 -28.58333,12.87509 -28.58331,28.58366 z"
       sodipodi:nodetypes="sccccszsscccccssscccscscccssscccccszs" />
    <g
       id="g988"
       transform="matrix(1.1999997,0,0,1.1999997,361.8745,202.08412)">
      <path
         sodipodi:nodetypes="czczccczczccczczccczczccczczccczczccczczccczczccczczccczczccczczccczczccczczccczczccczczccczczccc"
         inkscape:connector-curvature="0"
         id="path867-8"
         d="m 270.20053,511.06192 c 1.1932,-9.06324 4.08912,-12.22112 4.95302,-18.78307 0.86389,-6.56197 5.3746,-14.30839 5.35802,-19.76087 1.8276,4.41221 -3.25554,12.86259 -2.40948,19.28903 0.84606,6.42644 -2.74511,10.63263 -2.81448,20.2668 l 17.63246,-35.79174 -12.84054,37.77662 c 4.57072,-7.91672 8.45468,-9.726 11.76397,-15.45786 3.30929,-5.73187 10.44106,-11.16246 12.51232,-16.20623 0,4.77573 -7.93002,10.63764 -9.60766,16.89867 -1.67764,6.26103 -6.60508,8.77276 -10.35601,17.64702 l 29.98718,-26.3196 -26.3196,29.98718 c 7.25239,-5.56496 11.53308,-5.75019 16.78395,-9.77932 5.25087,-4.02915 13.91797,-6.31714 17.76173,-10.18435 -1.82759,4.41222 -11.39724,6.79321 -15.34316,11.93564 -3.94593,5.14243 -9.45949,5.57732 -16.32093,12.34065 l 37.77661,-12.84055 -35.79173,17.63248 c 8.82996,-2.36598 12.85568,-0.89896 19.24874,-2.61198 6.39307,-1.71302 15.276,-0.5101 20.30708,-2.61198 -3.37695,3.37695 -13.12932,1.91457 -18.7428,5.15552 -5.61349,3.24095 -10.87378,1.53278 -19.80114,5.15552 l 39.81491,2.59337 -39.81491,2.59338 c 9.06324,1.1932 12.22112,4.08912 18.78307,4.95302 6.56197,0.86389 14.30839,5.3746 19.76088,5.35802 -4.41222,1.8276 -12.8626,-3.25554 -19.28904,-2.40948 -6.42644,0.84606 -10.63263,-2.74511 -20.2668,-2.81448 l 35.79174,17.63246 -37.77661,-12.84054 c 7.91672,4.57072 9.726,8.45468 15.45786,11.76397 5.73187,3.30929 11.16246,10.44106 16.20623,12.51232 -4.77574,0 -10.63764,-7.93002 -16.89867,-9.60766 -6.26103,-1.67764 -8.77276,-6.60508 -17.64702,-10.35601 l 26.3196,29.98718 -29.98719,-26.3196 c 5.56496,7.25239 5.75019,11.53308 9.77932,16.78395 4.02915,5.25086 6.31714,13.91797 10.18435,17.76172 -4.41221,-1.82759 -6.79321,-11.39724 -11.93564,-15.34316 -5.14243,-3.94593 -5.57732,-9.45948 -12.34064,-16.32093 l 12.84055,37.77661 -17.63248,-35.79173 c 2.36598,8.82996 0.89896,12.85568 2.61197,19.24874 1.71302,6.39307 0.5101,15.276 2.61198,20.30709 -3.37695,-3.37695 -1.91457,-13.12933 -5.15552,-18.7428 -3.24095,-5.61349 -1.53278,-10.87378 -5.15552,-19.80115 l -2.59337,39.81492 -2.59337,-39.81492 c -1.1932,9.06324 -4.08912,12.22113 -4.95302,18.78307 -0.86389,6.56197 -5.3746,14.30839 -5.35802,19.76087 -1.8276,-4.41221 3.25554,-12.86259 2.40948,-19.28903 -0.84606,-6.42644 2.74511,-10.63263 2.81448,-20.2668 l -17.63246,35.79174 12.84054,-37.77662 c -4.57072,7.91672 -8.45468,9.726 -11.76397,15.45786 -3.30929,5.73187 -10.44106,11.16246 -12.51232,16.20623 0,-4.77573 7.93002,-10.63764 9.60766,-16.89867 1.67764,-6.26103 6.60508,-8.77276 10.35601,-17.64702 l -29.98718,26.3196 26.3196,-29.98718 c -7.25239,5.56496 -11.53308,5.75019 -16.78395,9.77932 -5.25087,4.02915 -13.91797,6.31714 -17.76173,10.18435 1.82759,-4.41221 11.39724,-6.79321 15.34316,-11.93564 3.94593,-5.14243 9.45949,-5.57732 16.32093,-12.34065 l -37.77661,12.84055 35.79173,-17.63248 c -8.82996,2.36598 -12.85568,0.89896 -19.24874,2.61198 -6.39307,1.71302 -15.276,0.5101 -20.30707,2.61198 3.37694,-3.37695 13.12932,-1.91457 18.74279,-5.15552 5.6135,-3.24095 10.87379,-1.53278 19.80114,-5.15552 l -39.81491,-2.59337 39.81491,-2.59337 c -9.06324,-1.1932 -12.22112,-4.08912 -18.78307,-4.95302 -6.56197,-0.86389 -14.30839,-5.3746 -19.76087,-5.35802 4.41221,-1.8276 12.86259,3.25554 19.28903,2.40948 6.42644,-0.84606 10.63263,2.74511 20.2668,2.81448 l -35.79174,-17.63246 37.77662,12.84054 c -7.91672,-4.57072 -9.726,-8.45468 -15.45786,-11.76397 -5.73187,-3.30929 -11.16246,-10.44106 -16.20623,-12.51232 4.77573,0 10.63764,7.93002 16.89867,9.60766 6.26103,1.67764 8.77276,6.60508 17.64702,10.35601 l -26.3196,-29.98718 29.98718,26.3196 c -5.56496,-7.25239 -5.75019,-11.53308 -9.77932,-16.78395 -4.02915,-5.25087 -6.31714,-13.91797 -10.18435,-17.76173 4.41221,1.82759 6.79321,11.39724 11.93564,15.34316 5.14243,3.94593 5.57732,9.45949 12.34065,16.32093 l -12.84055,-37.77661 17.63248,35.79173 c -2.36598,-8.82996 -0.89896,-12.85568 -2.61198,-19.24874 -1.71302,-6.39307 -0.5101,-15.276 -2.61198,-20.30708 3.37695,3.37695 1.91457,13.12932 5.15552,18.7428 3.24095,5.61349 1.53278,10.87378 5.15552,19.80114 l 2.59337,-39.81491 z"
         style="color:#000000;font-style:normal;font-variant:normal;font-weight:normal;font-stretch:normal;font-size:medium;line-height:normal;font-family:sans-serif;font-variant-ligatures:normal;font-variant-position:normal;font-variant-caps:normal;font-variant-numeric:normal;font-variant-alternates:normal;font-feature-settings:normal;text-indent:0;text-align:start;text-decoration:none;text-decoration-line:none;text-decoration-style:solid;text-decoration-color:#000000;letter-spacing:normal;word-spacing:normal;text-transform:none;writing-mode:lr-tb;direction:ltr;text-orientation:mixed;dominant-baseline:auto;baseline-shift:baseline;text-anchor:start;white-space:normal;shape-padding:0;clip-rule:nonzero;display:inline;overflow:visible;visibility:visible;opacity:1;isolation:auto;mix-blend-mode:normal;color-interpolation:sRGB;color-interpolation-filters:linearRGB;solid-color:#000000;solid-opacity:1;fill:#85340a;fill-opacity:1;fill-rule:evenodd;stroke:none;stroke-width:0.95250025;stroke-linecap:round;stroke-linejoin:round;stroke-miterlimit:4;stroke-dasharray:none;stroke-dashoffset:0;stroke-opacity:1;color-rendering:auto;image-rendering:auto;shape-rendering:auto;text-rendering:auto;enable-background:accumulate;paint-order:stroke fill markers" />
      <path
         inkscape:connector-curvature="0"
         id="path894"
         d="m 242.33944,537.39285 c 0,13.95498 11.31274,25.26772 25.26772,25.26772 13.95497,-10e-6 25.2677,-11.31275 25.2677,-25.26772 0,-13.95497 -11.31273,-25.2677 -25.2677,-25.26771 -13.95497,-10e-6 -25.26772,11.31274 -25.26772,25.26771 z"
         style="opacity:1;fill:#f6b40e;fill-opacity:1;fill-rule:evenodd;stroke:none;stroke-width:0.909638;stroke-linecap:round;stroke-linejoin:miter;stroke-miterlimit:4;stroke-dasharray:none;stroke-dashoffset:0;stroke-opacity:1"
         sodipodi:nodetypes="ssszs" />
      <path
         sodipodi:nodetypes="cccccccccccccccccccsscccccsscccsscccccccccsccccccccccccccccccccccccscccccccsccccscccccsccccccccccccsccccsccccccsccccccccccccccccscccccscccscccccccccccccsccccccccccsccccccscsccsscccccccccsccccccccccscccccccccccccscccccccccccccccccscccccccccccccccccccccccscccccccscccccccscccccccccccccscscccccccccccccccscccccccscccccscscccc"
         inkscape:connector-curvature="0"
         id="path867"
         d="m 265.48828,511.09375 c -0.0356,0.50261 -0.72541,0.61291 -0.91601,0.14648 -1.83344,-4.51804 -2.32116,-8.12409 -2.75196,-11.25585 -0.43079,-3.13177 -0.80485,-5.76675 -2.375,-8.48633 -1.69569,-2.93703 -2.12489,-6.82945 -2.58593,-10.38672 -0.14514,-1.11983 -0.35208,-2.07709 -0.53907,-3.08399 0.12934,1.33564 0.24195,2.68969 0.31055,4.11133 0.17637,3.65368 0.30951,7.44615 1.14453,10.5625 0.87178,3.2535 0.93341,5.90849 1.07617,8.81055 0.14277,2.90206 0.36322,6.06572 1.53516,10.43945 0.14563,0.55391 -0.63074,0.84633 -0.88672,0.33399 l -14.40039,-29.23047 10.48628,30.85156 c 0.16214,0.47933 -0.43642,0.84741 -0.79102,0.48633 -3.42285,-3.47251 -5.25313,-6.61914 -6.84961,-9.34766 -1.59648,-2.72851 -2.95004,-5.01799 -5.4414,-6.92969 -2.69057,-2.06454 -4.57798,-5.49541 -6.36524,-8.60546 -0.56199,-0.97795 -1.11833,-1.78271 -1.67578,-2.64063 0.62993,1.18344 1.2506,2.38992 1.85742,3.67578 1.56115,3.30807 3.13557,6.76269 5.09961,9.32227 2.05047,2.67222 3.12472,5.10004 4.36719,7.72656 1.24247,2.62652 2.65562,5.46432 5.41211,9.05664 0.3498,0.45629 -0.25847,1.02676 -0.69141,0.64844 l -24.49219,-21.49805 21.4961,24.49219 c 0.33607,0.3801 -0.076,0.9522 -0.54297,0.75391 -4.49117,-1.89831 -7.38714,-4.10575 -9.90625,-6.01563 -2.51911,-1.90988 -4.64444,-3.50754 -7.67773,-4.32031 -3.27583,-0.87776 -6.33246,-3.32627 -9.17383,-5.51563 -0.89161,-0.687 -1.71299,-1.21455 -2.55469,-1.79297 1.03329,0.85124 2.0661,1.72736 3.11719,2.68164 2.70825,2.45883 5.48525,5.04702 8.27929,6.66016 2.91701,1.68414 4.83917,3.51763 6.99219,5.46875 2.15302,1.95112 4.54542,4.03091 8.4668,6.29492 0.50104,0.28769 0.15356,1.0518 -0.39258,0.86328 l -30.84961,-10.48632 29.22852,14.40039 c 0.45576,0.22252 0.29428,0.90829 -0.21289,0.90429 -4.87576,-0.0351 -8.3949,-0.9671 -11.45313,-1.76757 -3.05823,-0.80048 -5.63461,-1.46263 -8.74805,-1.05274 -3.36237,0.44267 -7.12301,-0.64862 -10.58593,-1.58398 -1.08582,-0.29329 -2.04662,-0.46748 -3.04493,-0.67969 1.2796,0.39086 2.5689,0.8041 3.9043,1.2832 3.44306,1.23526 6.99859,2.56522 10.19727,2.98633 3.33945,0.43965 5.81694,1.39828 8.55273,2.37695 2.73579,0.97868 5.74119,1.98515 10.23047,2.57617 0.56911,0.0764 0.5417,0.90847 -0.0312,0.94727 l -32.52734,2.11719 32.52734,2.11914 c 0.50348,0.0339 0.61544,0.72482 0.14844,0.91601 -4.51804,1.83344 -8.12605,2.32116 -11.25781,2.75196 -3.13177,0.43079 -5.76479,0.80485 -8.48438,2.375 -2.93702,1.69569 -6.82945,2.12489 -10.38672,2.58593 -1.11914,0.14505 -2.07565,0.35223 -3.08203,0.53907 1.33449,-0.12911 2.68713,-0.24195 4.10742,-0.31055 3.65368,-0.17637 7.44811,-0.30951 10.56446,-1.14453 3.2535,-0.87178 5.90848,-0.93341 8.81054,-1.07617 2.90206,-0.14277 6.06377,-0.36322 10.4375,-1.53516 0.55391,-0.14563 0.84633,0.63074 0.33399,0.88672 l -29.22852,14.40039 30.84961,-10.48633 c 0.48028,-0.16615 0.85226,0.43577 0.48828,0.79102 -3.4725,3.42285 -6.61914,5.25313 -9.34765,6.84961 -2.72852,1.59648 -5.018,2.95004 -6.92969,5.4414 -2.06454,2.69057 -5.49737,4.57798 -8.60742,6.36524 -0.97692,0.5614 -1.77953,1.11697 -2.63672,1.67383 1.18245,-0.62927 2.3892,-1.24923 3.67383,-1.85547 3.30806,-1.56115 6.76073,-3.13557 9.32031,-5.09961 2.67222,-2.05047 5.10199,-3.12472 7.72851,-4.36719 2.62653,-1.24247 5.46433,-2.65562 9.05664,-5.41211 0.4553,-0.3385 1.01477,0.25984 0.64649,0.69141 l -21.49805,24.49414 24.49414,-21.49805 c 0.3801,-0.33607 0.9522,0.076 0.75391,0.54297 -1.89831,4.49117 -4.10575,7.38714 -6.01563,9.90625 -1.90987,2.51911 -3.50754,4.64444 -4.32031,7.67773 -0.87776,3.27583 -3.32626,6.33246 -5.51562,9.17383 -0.68865,0.89374 -1.21942,1.71698 -1.79883,2.56055 0.85256,-1.03527 1.72941,-2.06992 2.68555,-3.12305 2.45882,-2.70825 5.04897,-5.48525 6.6621,-8.27929 1.68414,-2.91701 3.51763,-4.83917 5.46875,-6.99219 1.95112,-2.15302 4.03092,-4.54542 6.29493,-8.4668 0.28769,-0.50104 1.0518,-0.15356 0.86328,0.39258 L 245.09961,591.73047 259.5,562.50195 c 0.22472,-0.4496 0.90233,-0.28969 0.90234,0.21294 -0.0351,4.87576 -0.96515,8.3949 -1.76562,11.45313 -0.80047,3.05823 -1.46263,5.63461 -1.05274,8.74805 0.44267,3.36237 -0.64862,7.12301 -1.58398,10.58593 -0.29329,1.08582 -0.46748,2.04662 -0.67969,3.04493 0.39087,-1.2796 0.80411,-2.5689 1.28321,-3.9043 1.23525,-3.44306 2.56326,-6.99859 2.98437,-10.19727 0.43965,-3.33944 1.39828,-5.81694 2.37695,-8.55273 0.97868,-2.73579 1.98515,-5.74119 2.57618,-10.23047 0.0765,-0.56904 0.90836,-0.54164 0.94726,0.0312 l 2.11914,32.52734 2.11719,-32.52734 c 0.0298,-0.50852 0.72947,-0.62167 0.91797,-0.14844 1.83343,4.51805 2.3192,8.12605 2.75,11.25781 0.43079,3.13177 0.80485,5.7648 2.375,8.48438 1.69569,2.93702 2.12685,6.82945 2.58789,10.38672 0.1443,1.1134 0.34964,2.06441 0.53515,3.0664 -0.12819,-1.32987 -0.23834,-2.67693 -0.30664,-4.09179 -0.17637,-3.65368 -0.3095,-7.44811 -1.14453,-10.56446 -0.87177,-3.2535 -0.93341,-5.90848 -1.07617,-8.81054 -0.14276,-2.90206 -0.36322,-6.06377 -1.53516,-10.4375 -0.14563,-0.55391 0.63074,-0.84633 0.88672,-0.33399 l 14.40039,29.22852 -10.48632,-30.84961 c -0.16159,-0.47798 0.43344,-0.84615 0.78906,-0.48828 3.42285,3.47251 5.25509,6.61914 6.85156,9.34765 1.59648,2.72852 2.95004,5.018 5.44141,6.92969 2.69057,2.06454 4.57602,5.49737 6.36328,8.60742 0.56002,0.97451 1.11445,1.77537 1.66992,2.63086 -0.62808,-1.18066 -1.24443,-2.38559 -1.84961,-3.66797 -1.56115,-3.30806 -3.13752,-6.76074 -5.10156,-9.32031 -2.05047,-2.67222 -3.12277,-5.10199 -4.36524,-7.72851 -1.24246,-2.62653 -2.65757,-5.46433 -5.41406,-9.05664 -0.34927,-0.45742 0.26147,-1.02687 0.69336,-0.64649 l 24.49219,21.4961 -21.49805,-24.49219 c -0.33941,-0.38096 0.0767,-0.95669 0.54492,-0.75391 4.49118,1.89831 7.38519,4.10575 9.9043,6.01563 2.51911,1.90987 4.64639,3.50754 7.67969,4.32031 3.27583,0.87776 6.33245,3.32626 9.17383,5.51562 0.89295,0.68805 1.71571,1.21783 2.55859,1.79688 -1.03466,-0.85216 -2.07053,-1.72802 -3.12305,-2.6836 -2.70825,-2.45882 -5.48525,-5.04897 -8.27929,-6.6621 -2.91701,-1.68414 -4.83722,-3.51763 -6.99024,-5.46875 -2.15302,-1.95112 -4.54542,-4.03092 -8.4668,-6.29493 -0.49482,-0.28855 -0.15275,-1.04451 0.39063,-0.86328 L 321.94531,559.90039 292.71484,545.5 c -0.45072,-0.22514 -0.28891,-0.90439 0.2149,-0.90239 4.87575,0.0351 8.39489,0.96515 11.45312,1.76562 3.05824,0.80047 5.63461,1.46263 8.74805,1.05274 3.36237,-0.44267 7.12301,0.64862 10.58594,1.58398 1.08556,0.29322 2.04486,0.4675 3.04297,0.67969 -1.27948,-0.39084 -2.56708,-0.80416 -3.90235,-1.28321 -3.44305,-1.23525 -7.00054,-2.56326 -10.19922,-2.98437 -3.33945,-0.43965 -5.81499,-1.39828 -8.55078,-2.37695 -2.73579,-0.97868 -5.74314,-1.98515 -10.23242,-2.57618 -0.56904,-0.0765 -0.54164,-0.90836 0.0312,-0.94726 l 32.52734,-2.11914 -32.52734,-2.11719 c -0.50763,-0.0315 -0.61909,-0.73003 -0.14648,-0.91797 4.51804,-1.83343 8.12409,-2.3192 11.25585,-2.75 3.13177,-0.43079 5.76675,-0.80485 8.48633,-2.375 2.93703,-1.69569 6.82945,-2.12685 10.38672,-2.58789 1.11409,-0.14439 2.06584,-0.34948 3.06836,-0.53515 -1.33102,0.12842 -2.6795,0.23824 -4.0957,0.30664 -3.65368,0.17637 -7.44615,0.3095 -10.5625,1.14453 -3.2535,0.87177 -5.90849,0.93341 -8.81055,1.07617 -2.90206,0.14276 -6.06572,0.36322 -10.43945,1.53516 -0.55391,0.14563 -0.84633,-0.63074 -0.33399,-0.88672 l 29.23047,-14.40039 -30.85156,10.48632 c -0.47633,0.15772 -0.84144,-0.43411 -0.48633,-0.78906 3.47251,-3.42285 6.61914,-5.25508 9.34766,-6.85156 2.72851,-1.59648 5.01799,-2.95004 6.92969,-5.44141 2.06454,-2.69057 5.49541,-4.57603 8.60546,-6.36328 0.97554,-0.56061 1.77855,-1.11581 2.63477,-1.67187 -1.18165,0.62873 -2.3863,1.24579 -3.66992,1.85156 -3.30807,1.56115 -6.76269,3.13752 -9.32227,5.10156 -2.67222,2.05047 -5.10004,3.12277 -7.72656,4.36524 -2.62652,1.24246 -5.46432,2.65757 -9.05664,5.41406 -0.45849,0.36255 -1.04084,-0.26015 -0.64844,-0.69336 l 21.4961,-24.49024 -24.49024,21.4961 c -0.38096,0.33941 -0.95669,-0.0767 -0.75391,-0.54492 1.89831,-4.49118 4.10575,-7.38519 6.01563,-9.9043 1.90988,-2.51911 3.50754,-4.64639 4.32031,-7.67969 0.87776,-3.27583 3.32627,-6.33245 5.51563,-9.17383 0.6864,-0.89082 1.21297,-1.71172 1.79101,-2.55273 -0.85083,1.03268 -1.72596,2.06671 -2.67968,3.11719 -2.45883,2.70825 -5.04702,5.48525 -6.66016,8.27929 -1.68414,2.91701 -3.51763,4.83722 -5.46875,6.99024 -1.95112,2.15302 -4.03091,4.54542 -6.29492,8.4668 -0.28855,0.49482 -1.04451,0.15275 -0.86328,-0.39063 l 10.48632,-30.85156 -14.40039,29.23047 c -0.22297,0.45679 -0.91029,0.29341 -0.90429,-0.21485 0.0351,-4.87575 0.9671,-8.39489 1.76757,-11.45312 0.80048,-3.05824 1.46263,-5.63461 1.05274,-8.74805 -0.44267,-3.36237 0.64862,-7.12302 1.58398,-10.58594 0.29322,-1.08556 0.4675,-2.04487 0.67969,-3.04297 -0.39084,1.27948 -0.80415,2.56709 -1.2832,3.90235 -1.23526,3.44305 -2.56522,7.00054 -2.98633,10.19922 -0.43965,3.33945 -1.39828,5.81499 -2.37695,8.55078 -0.97868,2.73579 -1.98515,5.74314 -2.57617,10.23242 -0.0764,0.56911 -0.90847,0.5417 -0.94727,-0.0312 l -2.11719,-32.52734 z m 3.12891,0.0723 3.1582,0.10351 c 0.57802,-4.3905 1.54656,-7.2821 2.51953,-10.00195 0.86585,-2.42038 1.69938,-4.82224 2.20703,-7.75196 0.0366,2.23594 -0.34674,4.32453 -1,6.82032 -0.79993,3.05615 -1.76664,6.71391 -1.80273,11.72656 l 3.01172,0.71289 6.86328,-13.93164 -4.99805,14.70313 2.87891,1.30468 c 2.21419,-3.83509 4.2165,-6.13491 6.15625,-8.27539 1.72596,-1.90456 3.4139,-3.80445 5.0039,-6.3164 -0.82184,2.07973 -1.97457,3.86215 -3.5332,5.91796 -1.90858,2.5174 -4.20074,5.52726 -6.15234,10.14454 l 2.50976,1.81054 11.67188,-10.24414 -10.24414,11.67188 2.1582,2.30664 c 3.51327,-2.69583 6.24425,-4.05384 8.85547,-5.28907 2.32269,-1.09874 4.60969,-2.20863 7.03906,-3.91992 -1.5548,1.60598 -3.30141,2.81087 -5.52734,4.11328 -2.72666,1.5954 -5.9964,3.49862 -9.56641,7.01758 l 1.62695,2.63477 14.70313,-4.99805 -13.93164,6.86328 1.11328,2.95703 c 4.27749,-1.14615 7.31992,-1.35611 10.20508,-1.49804 2.56687,-0.12628 5.10381,-0.27602 8.00391,-0.92774 -2.05144,0.88916 -4.12622,1.33404 -6.68165,1.68555 -3.12963,0.4305 -6.87853,0.93735 -11.52343,2.82226 l 0.49218,3.05469 15.5,1.00977 -15.5,1.00976 -0.10351,3.15821 c 4.3905,0.57802 7.2821,1.54656 10.00195,2.51953 2.42095,0.86604 4.82321,1.70139 7.75391,2.20898 -2.2367,0.0369 -4.32575,-0.34655 -6.82227,-1 -3.05615,-0.79993 -6.71391,-1.76664 -11.72656,-1.80273 l -0.71289,3.01172 13.92383,6.85937 -14.69532,-4.99609 -1.30468,2.8789 c 3.83509,2.21419 6.13491,4.2165 8.27539,6.15625 1.90456,1.72597 3.80445,3.41391 6.3164,5.00391 -2.07973,-0.82185 -3.86215,-1.97262 -5.91796,-3.53125 -2.5174,-1.90858 -5.52726,-4.20269 -10.14454,-6.1543 l -1.81054,2.50977 10.24414,11.67187 -11.67188,-10.24414 -2.30664,2.16016 c 2.69583,3.51327 4.05384,6.2423 5.28907,8.85352 1.09946,2.32422 2.20852,4.61372 3.92187,7.04492 -1.60764,-1.55545 -2.81201,-3.30394 -4.11523,-5.53125 -1.5954,-2.72666 -3.49863,-5.9964 -7.01758,-9.56641 l -2.63477,1.625 5,14.70508 -6.86523,-13.93359 -2.95703,1.11328 c 1.14615,4.27749 1.35611,7.31992 1.49804,10.20507 0.12628,2.56688 0.27603,5.10382 0.92774,8.00391 -0.88895,-2.05124 -1.33407,-4.12647 -1.68555,-6.68164 -0.4305,-3.12964 -0.93735,-6.87853 -2.82226,-11.52344 l -3.05469,0.49414 -1.00977,15.5 -1.00976,-15.5 -3.15821,-0.10547 c -0.57802,4.3905 -1.54656,7.28406 -2.51953,10.00391 -0.86604,2.42095 -1.70139,4.82126 -2.20898,7.75195 -0.0369,-2.23669 0.3485,-4.32574 1.00195,-6.82226 0.79993,-3.05616 1.76469,-6.71391 1.80078,-11.72656 l -3.01172,-0.71289 -6.85937,13.92578 4.99609,-14.69727 -2.8789,-1.30469 c -2.21419,3.83509 -4.2165,6.13492 -6.15625,8.27539 -1.72612,1.90474 -3.41574,3.8041 -5.00586,6.31641 0.82184,-2.08007 1.97439,-3.86191 3.5332,-5.91797 1.90858,-2.5174 4.20269,-5.52726 6.1543,-10.14453 l -2.50977,-1.81055 -11.67187,10.24414 10.24414,-11.67187 -2.16016,-2.30664 c -3.51327,2.69583 -6.2423,4.05579 -8.85352,5.29101 -2.32422,1.09947 -4.61372,2.20658 -7.04492,3.91993 1.55545,-1.60764 3.30394,-2.81202 5.53125,-4.11524 2.72666,-1.59539 5.9964,-3.49862 9.56641,-7.01758 l -1.625,-2.63476 -14.69727,4.99609 13.92578,-6.85937 -1.11328,-2.95899 c -4.27749,1.14615 -7.31992,1.35807 -10.20507,1.5 -2.56862,0.12636 -5.10714,0.27479 -8.00977,0.92774 2.05299,-0.89078 4.13007,-1.33571 6.6875,-1.6875 3.12964,-0.4305 6.87854,-0.93736 11.52344,-2.82227 l -0.49414,-3.05469 -15.5,-1.00976 15.5,-1.00977 0.10547,-3.1582 c -4.3905,-0.57802 -7.28406,-1.54656 -10.00391,-2.51953 -2.42038,-0.86585 -4.82029,-1.69938 -7.75,-2.20703 2.23593,-0.0366 4.32452,0.34674 6.82031,1 3.05616,0.79993 6.71391,1.76664 11.72656,1.80273 l 0.71289,-3.01172 -13.93359,-6.86523 14.70508,5 1.30469,-2.87891 c -3.83509,-2.21419 -6.13492,-4.2165 -8.27539,-6.15625 -1.90474,-1.72612 -3.8041,-3.41574 -6.31641,-5.00586 2.08007,0.82184 3.86191,1.97635 5.91797,3.53516 2.5174,1.90858 5.52726,4.20074 10.14453,6.15234 l 1.81055,-2.50976 -10.24414,-11.67188 11.67187,10.24414 2.30664,-2.1582 c -2.69583,-3.51327 -4.05579,-6.24425 -5.29101,-8.85547 -1.09875,-2.32269 -2.20669,-4.60969 -3.91797,-7.03906 1.60598,1.5548 2.81087,3.30141 4.11328,5.52734 1.59539,2.72666 3.49862,5.9964 7.01758,9.56641 l 2.63476,-1.62695 -4.99609,-14.69532 6.85937,13.92383 2.95899,-1.11328 c -1.14615,-4.27749 -1.35807,-7.31992 -1.5,-10.20508 -0.12633,-2.56803 -0.2752,-5.10603 -0.92774,-8.00781 0.89042,2.05264 1.33577,4.12856 1.6875,6.68555 0.4305,3.12963 0.93736,6.87853 2.82227,11.52343 l 3.05469,-0.49218 1.00976,-15.5 z"
         style="color:#000000;font-style:normal;font-variant:normal;font-weight:normal;font-stretch:normal;font-size:medium;line-height:normal;font-family:sans-serif;font-variant-ligatures:normal;font-variant-position:normal;font-variant-caps:normal;font-variant-numeric:normal;font-variant-alternates:normal;font-feature-settings:normal;text-indent:0;text-align:start;text-decoration:none;text-decoration-line:none;text-decoration-style:solid;text-decoration-color:#000000;letter-spacing:normal;word-spacing:normal;text-transform:none;writing-mode:lr-tb;direction:ltr;text-orientation:mixed;dominant-baseline:auto;baseline-shift:baseline;text-anchor:start;white-space:normal;shape-padding:0;clip-rule:nonzero;display:inline;overflow:visible;visibility:visible;opacity:1;isolation:auto;mix-blend-mode:normal;color-interpolation:sRGB;color-interpolation-filters:linearRGB;solid-color:#000000;solid-opacity:1;vector-effect:none;fill:#f6b40e;fill-opacity:1;fill-rule:evenodd;stroke:none;stroke-width:0.9525;stroke-linecap:round;stroke-linejoin:round;stroke-miterlimit:4;stroke-dasharray:none;stroke-dashoffset:0;stroke-opacity:1;color-rendering:auto;image-rendering:auto;shape-rendering:auto;text-rendering:auto;enable-background:accumulate" />
      <path
         sodipodi:nodetypes="ssszsssszs"
         style="opacity:1;fill:#85340a;fill-opacity:1;fill-rule:evenodd;stroke:none;stroke-width:0.909638;stroke-linecap:round;stroke-linejoin:miter;stroke-miterlimit:4;stroke-dasharray:none;stroke-dashoffset:0;stroke-opacity:1"
         d="m 242.33944,537.39285 c 0,13.95498 11.31274,25.26772 25.26772,25.26772 13.95497,-10e-6 25.2677,-11.31275 25.2677,-25.26772 0,-13.95497 -11.31273,-25.2677 -25.2677,-25.26771 -13.95497,-10e-6 -25.26772,11.31274 -25.26772,25.26771 z m 51.72604,0 c 0,14.61253 -11.84579,26.45833 -26.45832,26.45834 -14.61254,0 -26.45834,-11.8458 -26.45834,-26.45834 0,-14.61254 11.84581,-26.45834 26.45834,-26.45833 14.61253,10e-6 26.45832,11.8458 26.45832,26.45833 z"
         id="path892"
         inkscape:connector-curvature="0" />
    </g>
  </g>
</svg>
