<?xml version="1.0" encoding="UTF-8" standalone="no"?>
<!-- Created with Inkscape (http://www.inkscape.org/) -->

<svg
   width="1800"
   height="1800"
   viewBox="0 0 476.25 476.25001"
   version="1.1"
   id="svg8"
   inkscape:export-filename="C:\Users\厂永刄先生\Documents\GXI3CW2\,pjóŭ\Ghana.png"
   inkscape:export-xdpi="96"
   inkscape:export-ydpi="96"
   inkscape:version="1.3 (0e150ed6c4, 2023-07-21)"
   sodipodi:docname="ar_1945_000-001_roundel-lv.svg"
   xmlns:inkscape="http://www.inkscape.org/namespaces/inkscape"
   xmlns:sodipodi="http://sodipodi.sourceforge.net/DTD/sodipodi-0.dtd"
   xmlns="http://www.w3.org/2000/svg"
   xmlns:svg="http://www.w3.org/2000/svg"
   xmlns:rdf="http://www.w3.org/1999/02/22-rdf-syntax-ns#"
   xmlns:cc="http://creativecommons.org/ns#"
   xmlns:dc="http://purl.org/dc/elements/1.1/">
  <defs
     id="defs2" />
  <sodipodi:namedview
     id="base"
     pagecolor="#ffffff"
     bordercolor="#666666"
     borderopacity="1.0"
     inkscape:pageopacity="0.0"
     inkscape:pageshadow="2"
     inkscape:zoom="0.30222223"
     inkscape:cx="554.22793"
     inkscape:cy="335.84558"
     inkscape:document-units="px"
     inkscape:current-layer="layer1"
     showgrid="false"
     units="px"
     fit-margin-top="0"
     fit-margin-left="0"
     fit-margin-right="0"
     fit-margin-bottom="0"
     inkscape:showpageshadow="false"
     inkscape:snap-intersection-paths="true"
     inkscape:object-paths="false"
     inkscape:pagecheckerboard="true"
     inkscape:snap-smooth-nodes="false"
     inkscape:window-width="1920"
     inkscape:window-height="1009"
     inkscape:window-x="-8"
     inkscape:window-y="-8"
     inkscape:window-maximized="1"
     inkscape:object-nodes="true"
     inkscape:snap-nodes="true"
     inkscape:deskcolor="#505050" />
  <metadata
     id="metadata5">
    <rdf:RDF>
      <cc:Work
         rdf:about="">
        <dc:format>image/svg+xml</dc:format>
        <dc:type
           rdf:resource="http://purl.org/dc/dcmitype/StillImage" />
      </cc:Work>
    </rdf:RDF>
  </metadata>
  <g
     inkscape:label="レイヤー 1"
     inkscape:groupmode="layer"
     id="layer1"
     transform="translate(-444.87799,-608.83038)">
    <path
       id="path216"
       style="color:#000000;fill:#808080;fill-opacity:1;stroke:none;stroke-width:1.05986;stroke-dasharray:none;stroke-opacity:1"
       d="m 662.97709,645.58066 c 0,11.1549 8.87055,20.0154 20.02591,20.0154 11.15535,0 20.0259,-8.8605 20.0259,-20.0154 0,-11.15549 -8.87055,-20.01795 -20.0259,-20.01795 -11.15536,0 -20.02591,8.86246 -20.02591,20.01795 z m 56.7759,0 c 0,14.69325 -8.76749,27.45029 -21.31965,33.31559 l 0.61165,15.4965 h 78.49795 v 26.84863 h -77.43822 l 10.13282,256.71927 c 0.57516,14.57188 15.85144,25.32315 36.94578,25.32315 76.36603,0 120.48506,-115.54245 125.19762,-141.60315 6.3732,15.4986 13.28069,43.25486 8.82675,63.57807 -1.75652,-3.46059 -6.28066,-9.3532 -10.698,-9.4374 0,0 -26.34322,82.93382 -62.60714,105.07878 -52.33971,31.9618 -114.32531,45.8652 -124.89955,64.1803 -10.57426,-18.3151 -72.55985,-32.2185 -124.89957,-64.1803 -36.26391,-22.14496 -62.60714,-105.07878 -62.60714,-105.07878 -4.41734,0.0842 -8.94149,5.97681 -10.69799,9.4374 -4.45395,-20.32321 2.45355,-48.07947 8.82675,-63.57807 4.71254,26.0607 48.83159,141.60315 125.19762,141.60315 21.09433,0 36.37061,-10.75126 36.94576,-25.32315 l 10.13282,-256.71927 -77.4382,-1e-5 V 694.39274 H 666.961 l 0.61163,-15.49649 c -12.55213,-5.86531 -21.31962,-18.62234 -21.31962,-33.3156 0,-20.19659 16.55369,-36.75028 36.74999,-36.75028 20.19628,0 36.74999,16.5537 36.74999,36.75029 z"
       sodipodi:nodetypes="szszsscccccsscccscscccsscccccszs" />
  </g>
</svg>
