<?xml version="1.0" encoding="UTF-8" standalone="no"?>
<!-- Created with Inkscape (http://www.inkscape.org/) -->

<svg
   width="2736"
   height="1800"
   viewBox="0 0 723.9 476.25001"
   version="1.1"
   id="svg8"
   inkscape:export-filename="C:\Users\厂永刄先生\Documents\GXI3CW2\,pjóŭ\Maroc.png"
   inkscape:export-xdpi="96"
   inkscape:export-ydpi="96"
   inkscape:version="1.3 (0e150ed6c4, 2023-07-21)"
   sodipodi:docname="ma_1915.svg"
   xmlns:inkscape="http://www.inkscape.org/namespaces/inkscape"
   xmlns:sodipodi="http://sodipodi.sourceforge.net/DTD/sodipodi-0.dtd"
   xmlns="http://www.w3.org/2000/svg"
   xmlns:svg="http://www.w3.org/2000/svg"
   xmlns:rdf="http://www.w3.org/1999/02/22-rdf-syntax-ns#"
   xmlns:cc="http://creativecommons.org/ns#"
   xmlns:dc="http://purl.org/dc/elements/1.1/">
  <defs
     id="defs2" />
  <sodipodi:namedview
     id="base"
     pagecolor="#ffffff"
     bordercolor="#666666"
     borderopacity="1.0"
     inkscape:pageopacity="0.0"
     inkscape:pageshadow="2"
     inkscape:zoom="0.30222223"
     inkscape:cx="1717.2794"
     inkscape:cy="987.6838"
     inkscape:document-units="px"
     inkscape:current-layer="layer1"
     showgrid="false"
     units="px"
     fit-margin-top="0"
     fit-margin-left="0"
     fit-margin-right="0"
     fit-margin-bottom="0"
     inkscape:showpageshadow="false"
     inkscape:snap-intersection-paths="false"
     inkscape:object-paths="false"
     inkscape:pagecheckerboard="true"
     inkscape:snap-smooth-nodes="false"
     inkscape:window-width="1920"
     inkscape:window-height="1009"
     inkscape:window-x="-8"
     inkscape:window-y="-8"
     inkscape:window-maximized="1"
     inkscape:object-nodes="true"
     inkscape:snap-nodes="true"
     inkscape:deskcolor="#505050" />
  <metadata
     id="metadata5">
    <rdf:RDF>
      <cc:Work
         rdf:about="">
        <dc:format>image/svg+xml</dc:format>
        <dc:type
           rdf:resource="http://purl.org/dc/dcmitype/StillImage" />
      </cc:Work>
    </rdf:RDF>
  </metadata>
  <g
     inkscape:label="レイヤー 1"
     inkscape:groupmode="layer"
     id="layer1"
     transform="translate(-6.7279798,-418.33036)">
    <path
       sodipodi:nodetypes="ccccc"
       inkscape:connector-curvature="0"
       id="path884"
       d="m 730.62798,894.58036 v -476.25 h -714.375 v 476.25 z"
       style="fill:#c1272d;fill-opacity:1;stroke:none;stroke-width:1.27916932px;stroke-linecap:butt;stroke-linejoin:miter;stroke-opacity:1" />
    <path
       style="fill:#ffc000;fill-opacity:1;stroke:none;stroke-width:0.264583px;stroke-linecap:butt;stroke-linejoin:miter;stroke-opacity:1"
       d="m 373.44049,528.74075 -28.67365,88.2486 -92.78953,-1.8e-4 75.06838,54.54038 -28.67382,88.24912 75.06916,-54.54094 75.06849,54.54046 -28.67374,-88.24822 75.0683,-54.54032 -92.78969,-1.8e-4 z m 0,53.94385 11.14632,34.30483 -22.29262,-4e-5 z m -70.15954,50.97414 h 36.06969 l -6.88871,21.20131 z m 53.59704,0 h 33.125 l 10.23626,31.50395 -26.7986,19.47027 -26.79882,-19.47056 z m 50.65261,0 36.07025,0 -29.18143,21.20149 z m -66.305,48.17311 18.03519,13.10334 -29.18153,21.20156 z m 64.42999,6.3e-4 11.14613,34.30427 -29.18089,-21.20125 z"
       id="path833"
       sodipodi:nodetypes="ccccccccccccccccccccccccccccccccccccc" />
    <g
       id="g22">
      <path
         style="fill:#006233;fill-opacity:1;stroke:none;stroke-width:1px;stroke-linecap:butt;stroke-linejoin:miter;stroke-opacity:1"
         d="m 1558.0681,946.87031 255.9065,-185.92695 -473.3854,-0.002 -13.9043,42.79303 355.5885,-10e-6 -138.1095,100.34291 z"
         transform="matrix(0.26458334,0,0,0.26458334,6.7279798,418.33036)"
         id="path13"
         sodipodi:nodetypes="ccccccccc" />
      <path
         style="fill:#006233;fill-opacity:1;stroke:none;stroke-width:0.264583px;stroke-linecap:butt;stroke-linejoin:miter;stroke-opacity:1"
         d="m 375.71435,703.58511 67.7086,49.19317 -38.70384,-119.11988 h -11.905 l 29.07319,89.47805 -36.5416,-26.5489 z"
         id="path14"
         sodipodi:nodetypes="ccccccccc" />
      <path
         style="fill:#006233;fill-opacity:1;stroke:none;stroke-width:0.264583px;stroke-linecap:butt;stroke-linejoin:miter;stroke-opacity:1"
         d="m 399.30319,616.98963 -25.86238,-79.59623 -38.70485,119.11956 9.63135,6.99758 29.07318,-89.47805 13.95772,42.95711 z"
         id="path15"
         sodipodi:nodetypes="ccccccccc" />
      <path
         style="fill:#006233;fill-opacity:1;stroke:none;stroke-width:0.264583px;stroke-linecap:butt;stroke-linejoin:miter;stroke-opacity:1"
         d="m 343.89899,619.66269 -83.69243,-10e-6 101.32898,73.62047 9.63134,-6.99759 -76.11457,-55.30047 45.16781,-10e-5 z"
         id="path16"
         sodipodi:nodetypes="ccccccccc" />
      <path
         style="fill:#006233;fill-opacity:1;stroke:none;stroke-width:0.264583px;stroke-linecap:butt;stroke-linejoin:miter;stroke-opacity:1"
         d="m 329.3199,673.18169 -25.8624,79.59622 101.32961,-73.61961 -3.67886,-11.32232 -76.11457,55.30047 13.95753,-42.95717 z"
         id="path17"
         sodipodi:nodetypes="ccccccccc" />
    </g>
    <path
       style="fill:#ffffff;fill-opacity:1;stroke:none;stroke-width:0.51166773px;stroke-linecap:butt;stroke-linejoin:miter;stroke-opacity:1"
       d="M 16.25298,418.33036 H 6.7279798 v 476.25 H 16.25298 Z"
       id="path1079"
       inkscape:connector-curvature="0"
       sodipodi:nodetypes="ccccc" />
  </g>
</svg>
