<?xml version="1.0" encoding="UTF-8" standalone="no"?>
<!-- Created with Inkscape (http://www.inkscape.org/) -->

<svg
   width="2736"
   height="1800"
   viewBox="0 0 723.9 476.25001"
   version="1.1"
   id="svg8"
   inkscape:export-filename="C:\Users\厂永刄先生\Documents\GXI3CW2\JáÈŭcèŭ\Èŭmen\Í\意軍.png"
   inkscape:export-xdpi="96"
   inkscape:export-ydpi="96"
   inkscape:version="1.3 (0e150ed6c4, 2023-07-21)"
   sodipodi:docname="bv_1975.svg"
   xmlns:inkscape="http://www.inkscape.org/namespaces/inkscape"
   xmlns:sodipodi="http://sodipodi.sourceforge.net/DTD/sodipodi-0.dtd"
   xmlns="http://www.w3.org/2000/svg"
   xmlns:svg="http://www.w3.org/2000/svg"
   xmlns:rdf="http://www.w3.org/1999/02/22-rdf-syntax-ns#"
   xmlns:cc="http://creativecommons.org/ns#"
   xmlns:dc="http://purl.org/dc/elements/1.1/">
  <defs
     id="defs2" />
  <sodipodi:namedview
     id="base"
     pagecolor="#ffffff"
     bordercolor="#666666"
     borderopacity="1.0"
     inkscape:pageopacity="0.0"
     inkscape:pageshadow="2"
     inkscape:zoom="0.31937657"
     inkscape:cx="1841.0868"
     inkscape:cy="843.83146"
     inkscape:document-units="px"
     inkscape:current-layer="g832"
     showgrid="false"
     units="px"
     fit-margin-top="0"
     fit-margin-left="0"
     fit-margin-right="0"
     fit-margin-bottom="0"
     inkscape:showpageshadow="false"
     inkscape:snap-intersection-paths="true"
     inkscape:object-paths="false"
     inkscape:pagecheckerboard="true"
     inkscape:snap-smooth-nodes="false"
     inkscape:window-width="1920"
     inkscape:window-height="1009"
     inkscape:window-x="-8"
     inkscape:window-y="-8"
     inkscape:window-maximized="1"
     inkscape:object-nodes="true"
     inkscape:snap-nodes="true"
     showguides="false"
     inkscape:deskcolor="#505050" />
  <metadata
     id="metadata5">
    <rdf:RDF>
      <cc:Work
         rdf:about="">
        <dc:format>image/svg+xml</dc:format>
        <dc:type
           rdf:resource="http://purl.org/dc/dcmitype/StillImage" />
      </cc:Work>
    </rdf:RDF>
  </metadata>
  <g
     inkscape:label="レイヤー 1"
     inkscape:groupmode="layer"
     id="layer1"
     transform="translate(112.33452,-299.26786)">
    <g
       id="g832"
       style="fill:#da291c;fill-opacity:1">
      <path
         sodipodi:nodetypes="ccccc"
         inkscape:connector-curvature="0"
         id="path1079"
         d="m -102.80952,299.26786 h -9.525 v 476.25 h 9.525 z"
         style="fill:#ffffff;fill-opacity:1;stroke:none;stroke-width:0.511668px;stroke-linecap:butt;stroke-linejoin:miter;stroke-opacity:1" />
      <path
         sodipodi:nodetypes="ccccc"
         inkscape:connector-curvature="0"
         id="path817"
         d="m 611.56549,299.26786 h -714.37501 v 476.25 h 714.37501 z"
         style="fill:#0000a8;fill-opacity:1;stroke:none;stroke-width:1.1078px;stroke-linecap:butt;stroke-linejoin:miter;stroke-opacity:1" />
      <circle
         style="fill:#ffffff;stroke-width:0.463327;stroke-linejoin:round;stroke-miterlimit:5.2"
         id="path1"
         cx="254.37799"
         cy="537.39288"
         r="198.4375" />
      <circle
         style="fill:#00a800;stroke-width:0.438307;stroke-linejoin:round;stroke-miterlimit:5.2;fill-opacity:1"
         id="circle1"
         cx="254.37799"
         cy="537.39288"
         r="187.72188" />
      <path
         id="path20"
         style="fill:#ffffff;stroke-width:0.0148993;stroke-linejoin:round;stroke-miterlimit:5.2"
         inkscape:transform-center-x="-3.8599507e-06"
         inkscape:transform-center-y="-7.9025487e-06"
         d="M 66.656117,537.39291 101.5136,517.26793 73.05258,488.80691 111.93105,478.38945 91.806068,443.53197 h 40.249952 l -10.41746,-38.87847 38.87848,10.41745 v -40.24997 l 34.8575,20.12499 10.41745,-38.87848 28.461,28.461 20.12499,-34.85748 20.12498,34.85748 28.46102,-28.46102 10.41746,38.87847 34.85747,-20.12498 v 40.24995 l 38.87847,-10.41745 -10.41745,38.87847 h 40.24997 l -20.12498,34.8575 38.87847,10.41745 -28.461,28.461 34.85748,20.12499 -34.85748,20.12498 28.46102,28.46102 -38.87847,10.41745 20.12498,34.85748 h -40.24995 l 10.41746,38.87847 -38.87848,-10.41745 v 40.24997 l -34.85749,-20.12498 -10.41746,38.87847 -28.461,-28.461 -20.12498,34.85748 -20.12498,-34.85748 -28.46101,28.46102 -10.41746,-38.87847 -34.85747,20.12498 v -40.24995 l -38.87848,10.41746 10.41746,-38.87848 -40.249974,0 20.124984,-34.85749 -38.878472,-10.41746 28.460992,-28.46101 z"
         sodipodi:nodetypes="ccccccccccccccccccccccccccccccccccccccccccccccccc" />
      <circle
         style="fill:#000000;stroke-width:0.359999;stroke-linejoin:round;stroke-miterlimit:5.2"
         id="circle2"
         cx="254.37799"
         cy="537.39288"
         r="154.18343" />
      <g
         id="g32"
         transform="matrix(0.55306123,0,0,0.55306123,-268.92526,233.05417)">
        <path
           style="fill:#ffffff;stroke-width:0.264999;stroke-linejoin:round;stroke-miterlimit:5.2"
           d="M 999.19761,751.85367 C 1009.9483,733.23291 1033.1725,663.91185 1110.6423,619.1846 L 1052.2011,360.49172 946.19408,335.00126 840.18702,360.49172 781.74582,619.1846 c 77.46987,44.72725 100.69403,114.04831 111.44473,132.66907 6.415,11.1111 35.01209,13.70571 53.00353,13.70571 17.99144,0 46.58853,-2.59461 53.00353,-13.70571 z"
           id="path29"
           sodipodi:nodetypes="scccccszs" />
        <path
           style="fill:#ff0000;stroke-width:0.241282;stroke-linejoin:round;stroke-miterlimit:5.2"
           d="M 902.25332,751.85367 C 893.34083,733.23291 874.08764,663.91185 809.8639,619.1846 l 48.44867,-258.69288 87.88151,-25.49046 87.88152,25.49046 48.4487,258.69288 c -64.2238,44.72725 -83.47697,114.04831 -92.38946,132.66907 -5.31814,11.1111 -29.02557,13.70571 -43.94076,13.70571 -14.91519,0 -38.62262,-2.59461 -43.94076,-13.70571 z"
           id="path26"
           sodipodi:nodetypes="scccccszs" />
        <path
           style="fill:#ffffff;stroke-width:0.206052;stroke-linejoin:round;stroke-miterlimit:5.2"
           d="M 914.14822,751.85367 C 907.64835,733.23291 893.60706,663.91185 846.76889,619.1846 l 35.33347,-258.69288 64.09172,-25.49046 64.09172,25.49046 35.3335,258.69288 c -46.8382,44.72725 -60.87949,114.04831 -67.37936,132.66907 -3.87851,11.1111 -21.16826,13.70571 -32.04586,13.70571 -10.8776,0 -28.16735,-2.59461 -32.04586,-13.70571 z"
           id="path27"
           sodipodi:nodetypes="scccccszs" />
        <path
           style="fill:#ff0000;stroke-width:0.14644;stroke-linejoin:round;stroke-miterlimit:5.2"
           d="m 930.00807,751.85367 c -3.283,-18.62076 -10.3751,-87.94182 -34.03255,-132.66907 l 17.84655,-258.69288 32.37201,-25.49046 32.37201,25.49046 17.84655,258.69288 c -23.65745,44.72725 -30.74955,114.04831 -34.03255,132.66907 -1.95899,11.1111 -10.69186,13.70571 -16.18601,13.70571 -5.49415,0 -14.22702,-2.59461 -16.18601,-13.70571 z"
           id="path28"
           sodipodi:nodetypes="scccccszs" />
      </g>
    </g>
  </g>
</svg>
