<?xml version="1.0" encoding="UTF-8" standalone="no"?>
<!-- Created with Inkscape (http://www.inkscape.org/) -->

<svg
   width="2436"
   height="1800"
   viewBox="0 0 644.525 476.25001"
   version="1.1"
   id="svg8"
   inkscape:export-filename="C:\Users\厂永刄先生\Documents\GXI3CW2\JáÈŭcèŭ\Èŭmen\Í\意軍.png"
   inkscape:export-xdpi="96"
   inkscape:export-ydpi="96"
   inkscape:version="1.3 (0e150ed6c4, 2023-07-21)"
   sodipodi:docname="pg_1971_000-001.svg"
   xmlns:inkscape="http://www.inkscape.org/namespaces/inkscape"
   xmlns:sodipodi="http://sodipodi.sourceforge.net/DTD/sodipodi-0.dtd"
   xmlns="http://www.w3.org/2000/svg"
   xmlns:svg="http://www.w3.org/2000/svg"
   xmlns:rdf="http://www.w3.org/1999/02/22-rdf-syntax-ns#"
   xmlns:cc="http://creativecommons.org/ns#"
   xmlns:dc="http://purl.org/dc/elements/1.1/">
  <defs
     id="defs2" />
  <sodipodi:namedview
     id="base"
     pagecolor="#ffffff"
     bordercolor="#666666"
     borderopacity="1.0"
     inkscape:pageopacity="0.0"
     inkscape:pageshadow="2"
     inkscape:zoom="0.31937657"
     inkscape:cx="1042.6563"
     inkscape:cy="893.92906"
     inkscape:document-units="px"
     inkscape:current-layer="g832"
     showgrid="false"
     units="px"
     fit-margin-top="0"
     fit-margin-left="0"
     fit-margin-right="0"
     fit-margin-bottom="0"
     inkscape:showpageshadow="false"
     inkscape:snap-intersection-paths="true"
     inkscape:object-paths="false"
     inkscape:pagecheckerboard="true"
     inkscape:snap-smooth-nodes="false"
     inkscape:window-width="2880"
     inkscape:window-height="1514"
     inkscape:window-x="-11"
     inkscape:window-y="-11"
     inkscape:window-maximized="1"
     inkscape:object-nodes="true"
     inkscape:snap-nodes="true"
     showguides="false"
     inkscape:deskcolor="#505050" />
  <metadata
     id="metadata5">
    <rdf:RDF>
      <cc:Work
         rdf:about="">
        <dc:format>image/svg+xml</dc:format>
        <dc:type
           rdf:resource="http://purl.org/dc/dcmitype/StillImage" />
      </cc:Work>
    </rdf:RDF>
  </metadata>
  <g
     inkscape:label="レイヤー 1"
     inkscape:groupmode="layer"
     id="layer1"
     transform="translate(112.33452,-299.26786)">
    <g
       id="g832"
       style="fill:#da291c;fill-opacity:1">
      <path
         sodipodi:nodetypes="ccccccc"
         inkscape:connector-curvature="0"
         id="path2"
         d="m 532.19049,299.26786 h -317.5 l 0,238.125 -317.50001,0 v 238.125 h 635.00001 z"
         style="fill:#ffffff;fill-opacity:1;stroke:none;stroke-width:1.04444px;stroke-linecap:butt;stroke-linejoin:miter;stroke-opacity:1" />
      <path
         sodipodi:nodetypes="ccccc"
         inkscape:connector-curvature="0"
         id="path1079"
         d="m -102.80952,299.26786 h -9.525 v 476.25 h 9.525 z"
         style="fill:#ffffff;fill-opacity:1;stroke:none;stroke-width:0.511668px;stroke-linecap:butt;stroke-linejoin:miter;stroke-opacity:1" />
      <path
         sodipodi:nodetypes="cccc"
         inkscape:connector-curvature="0"
         id="path817"
         d="m 214.69049,299.26786 h -317.50001 l 317.50001,238.125 z"
         style="fill:#e4002b;fill-opacity:1;stroke:none;stroke-width:0.52222px;stroke-linecap:butt;stroke-linejoin:miter;stroke-opacity:1" />
      <path
         sodipodi:nodetypes="cccc"
         inkscape:connector-curvature="0"
         id="path1"
         d="m -102.80952,537.39286 v -238.125 l 317.50001,238.125 z"
         style="fill:#000000;fill-opacity:1;stroke:none;stroke-width:0.52222px;stroke-linecap:butt;stroke-linejoin:miter;stroke-opacity:1" />
      <path
         id="path9"
         style="fill:#ffc000;fill-opacity:1;stroke-width:0.10051;stroke-linejoin:round;stroke-miterlimit:5.2"
         d="m 154.25381,400.93803 c 0.45517,0.007 0.87884,-0.0401 1.26467,-0.14344 -0.0652,-1.27896 -1.03773,-2.82726 -2.05091,-3.84043 2.09679,2.09679 5.39261,3.451 8.22596,3.71223 8.2944,6.16121 13.47476,12.08068 15.2427,17.68721 -5.61286,-5.27076 -13.0607,-11.09147 -22.68242,-17.41557 z m 20.39215,30.02554 c -6.18479,8.29742 -18.74745,10.11699 -32.99809,6.29854 5.80435,2.85731 12.24809,4.41135 19.29808,3.22674 9.54915,-1.60454 18.48074,-7.08092 19.68658,-15.31116 7.18012,8.13808 10.79315,16.01168 6.31045,21.56632 -3.77483,4.67752 -11.89024,4.59933 -23.94431,1.09018 10.05915,5.61267 20.78308,5.53033 25.73564,0.72831 4.81845,-4.67198 4.02832,-13.75393 -8.01807,-26.45688 -0.5552,-6.6149 -5.87852,-14.6852 -18.91239,-23.74959 -0.2954,-0.64023 -0.66112,-1.25338 -1.16723,-1.77788 3.04731,2.42649 6.36605,3.63842 8.39588,3.94286 -0.16934,-1.49306 -0.5422,-2.97584 -1.73243,-4.58604 2.49024,1.70546 5.12985,4.41845 8.47474,4.03909 0.12361,-1.71621 0.0228,-3.33986 -0.84335,-4.64778 2.69404,1.55781 5.96335,2.93152 9.33046,2.54964 -1.71196,-4.35262 -3.95512,-8.33181 -7.72946,-11.33722 2.15911,1.71925 4.96777,1.78025 6.87515,2.06631 -2.89988,-5.30462 -6.61093,-9.89996 -11.27364,-13.6632 1.59319,0.14453 2.93713,-0.37737 4.23096,-1.03326 -4.15392,-2.48578 -8.31073,-4.95789 -12.80002,-5.86107 1.41581,0.0779 2.92184,-1.17262 4.01931,-2.55087 -13.64612,-5.94184 -23.05194,-4.23613 -31.48906,-5.5015 2.86719,0.1079 5.70798,0.27706 9.71618,-2.26465 -1.30308,-1.78799 -3.01952,-2.89955 -4.92131,-3.7078 2.67809,0.36447 6.47447,-2.51864 8.33378,-4.2974 -1.2648,-1.52134 -2.79433,-2.701 -4.87823,-3.16515 3.15719,-0.57663 6.31761,-1.55375 9.4956,-4.69215 -1.34321,-1.46687 -3.35548,-2.5444 -5.39212,-2.92681 3.31313,-1.22432 6.59596,-2.99661 8.38538,-5.92487 -1.855,-1.54767 -3.80816,-2.4619 -5.95728,-2.11162 2.75512,-1.29533 4.02171,-4.22569 5.56452,-6.75039 -2.00111,-0.31058 -4.04958,-0.37458 -6.28736,0.54705 2.11801,-2.7439 4.21532,-5.49428 4.6248,-8.77334 -1.72598,0.096 -3.44696,0.31864 -5.13137,1.46726 2.23583,-2.63034 4.04745,-5.29676 3.51513,-8.16263 0,0 -23.89643,10.15797 -32.00181,28.86744 -3.13584,7.23839 -3.43182,16.98649 -3.43182,18.44758 0,2.32427 -2.85601,2.65488 -4.17464,1.33625 -1.91485,-1.91485 -2.58481,-5.14552 -4.5293,-7.21484 -4.99895,-5.31985 -6.7609,-5.09478 -11.553523,-2.22183 -2.10667,-1.2163 -5.12096,-1.65213 -7.8026,-1.65213 -0.630265,0 -1.01628,0.66374 -0.36263,1.04112 7.51777,4.34039 12.968353,9.95564 18.654223,15.64151 1.31863,1.31863 0.98801,4.17465 -1.33625,4.17465 -1.4611,0 -11.209198,0.29598 -18.447583,3.43181 -18.709475,8.10538 -28.86744,32.00181 -28.86744,32.00181 2.86587,0.53232 5.53229,-1.27929 8.162625,-3.51512 -1.14862,1.68441 -1.371205,3.40538 -1.46726,5.13136 3.27906,-0.40948 6.029445,-2.50679 8.773345,-4.6248 -0.92163,2.23778 -0.857625,4.28626 -0.54705,6.28737 2.5247,-1.54281 5.455065,-2.8094 6.75039,-5.56452 -0.35028,2.14911 0.563945,4.10227 2.11162,5.95727 2.92826,-1.78942 4.700545,-5.07225 5.92487,-8.38537 0.382405,2.03663 1.459935,4.0489 2.92681,5.39211 3.138395,-3.17798 4.115525,-6.33841 4.692145,-9.4956 0.464155,2.08391 1.643815,3.61343 3.16515,4.87823 1.778758,-1.8593 4.661878,-5.65568 4.297408,-8.33378 0.80824,1.9018 1.91981,3.61823 3.7078,4.92131 2.54171,-4.00819 2.37254,-6.84899 2.26465,-9.71618 1.26537,8.43713 -0.44034,17.84294 5.5015,31.48906 1.37825,-1.09746 2.62872,-2.6035 2.55087,-4.0193 0.90317,4.48928 3.37529,8.64609 5.86107,12.80002 0.65589,-1.29383 1.17779,-2.63777 1.03326,-4.23097 3.76323,4.66272 8.35858,8.37377 13.6632,11.27365 -0.28606,-1.90739 -0.34707,-4.71605 -2.06631,-6.87515 3.00541,3.77433 6.9846,6.01749 11.33722,7.72946 0.38188,-3.36712 -0.99183,-6.63642 -2.54964,-9.33047 1.30792,0.86619 2.93157,0.96697 4.64778,0.84336 0.37936,-3.3449 -2.33363,-5.98451 -4.03907,-8.47474 1.61024,1.19023 3.09298,1.56319 4.58604,1.73252 -0.30443,-2.02982 -1.51632,-5.34869 -3.94282,-8.396 1.16293,1.12216 2.75275,1.57463 4.13782,2.03037 0,-3.018 -1.41996,-6.85758 -3.76183,-9.19948 1.01322,1.01318 2.56137,1.98583 3.84033,2.05106 0.37847,-1.4125 0.0436,-3.31111 -1.24181,-5.54515 9.37561,6.06267 20.09138,14.03585 27.97366,22.03824 0.16191,3.1208 -0.80049,6.13526 -2.95732,9.02883 z"
         sodipodi:nodetypes="ccccccscscscsccccccccccccccccccccccccccccsssscssssscccccccccccccccccccccccccccccccs" />
      <g
         id="g13"
         transform="matrix(0.50000001,0,0,0.50000001,-51.404759,147.87655)">
        <path
           style="fill:#ffffff;fill-opacity:1;stroke:none;stroke-width:0.264583px;stroke-linecap:butt;stroke-linejoin:miter;stroke-opacity:1"
           d="m 53.043182,517.12404 -6.55888,-20.18611 17.171357,-12.47571 H 42.430692 l -6.55888,-20.18613 -6.55887,20.18613 H 8.0879956 l 17.1713424,12.4757 -6.558867,20.18613 17.171351,-12.47571 z"
           id="path887"
           inkscape:connector-curvature="0"
           sodipodi:nodetypes="ccccccccccc" />
        <path
           style="fill:#ffffff;fill-opacity:1;stroke:none;stroke-width:0.264583px;stroke-linecap:butt;stroke-linejoin:miter;stroke-opacity:1"
           d="m 53.043182,742.65448 -6.55888,-20.18611 17.171357,-12.47571 H 42.430692 l -6.55888,-20.18613 -6.55887,20.18613 H 8.0879956 l 17.1713424,12.4757 -6.558867,20.18613 17.171351,-12.47571 z"
           id="path11"
           inkscape:connector-curvature="0"
           sodipodi:nodetypes="ccccccccccc" />
        <path
           style="fill:#ffffff;fill-opacity:1;stroke:none;stroke-width:0.264583px;stroke-linecap:butt;stroke-linejoin:miter;stroke-opacity:1"
           d="m -28.967888,618.46629 -6.55888,-20.18611 17.171357,-12.47571 h -21.224967 l -6.55888,-20.18613 -6.55887,20.18613 h -21.224946 l 17.171342,12.4757 -6.558867,20.18613 17.171351,-12.47571 z"
           id="path12"
           inkscape:connector-curvature="0"
           sodipodi:nodetypes="ccccccccccc" />
        <path
           style="fill:#ffffff;fill-opacity:1;stroke:none;stroke-width:0.264583px;stroke-linecap:butt;stroke-linejoin:miter;stroke-opacity:1"
           d="m 137.79945,587.9418 -6.55888,-20.18611 17.17135,-12.47571 h -21.22496 l -6.55888,-20.18613 -6.55887,20.18613 H 92.844265 l 17.171335,12.4757 -6.55887,20.18613 17.17136,-12.47571 z"
           id="path13"
           inkscape:connector-curvature="0"
           sodipodi:nodetypes="ccccccccccc" />
        <path
           sodipodi:nodetypes="ccccccccccc"
           inkscape:connector-curvature="0"
           id="path896"
           d="m 81.971068,611.95829 -11.07203,2e-5 8.95747,6.50798 -3.42147,10.53012 8.95747,-6.50797 8.95745,6.50799 -3.42145,-10.53014 8.95747,-6.50798 -11.07203,10e-6 -3.42144,-10.53014 z"
           style="fill:#ffffff;fill-opacity:1;stroke:none;stroke-width:0.275154px;stroke-linecap:butt;stroke-linejoin:miter;stroke-opacity:1" />
      </g>
    </g>
  </g>
</svg>
