<?xml version="1.0" encoding="UTF-8" standalone="no"?>
<!-- Created with Inkscape (http://www.inkscape.org/) -->

<svg
   width="2436"
   height="1800"
   viewBox="0 0 644.525 476.25001"
   version="1.1"
   id="svg8"
   inkscape:export-filename="C:\Users\厂永刄先生\Documents\GXI3CW2\JáÈŭcèŭ\Èŭmen\Í\意軍.png"
   inkscape:export-xdpi="96"
   inkscape:export-ydpi="96"
   inkscape:version="1.3 (0e150ed6c4, 2023-07-21)"
   sodipodi:docname="pg_1971.svg"
   xmlns:inkscape="http://www.inkscape.org/namespaces/inkscape"
   xmlns:sodipodi="http://sodipodi.sourceforge.net/DTD/sodipodi-0.dtd"
   xmlns="http://www.w3.org/2000/svg"
   xmlns:svg="http://www.w3.org/2000/svg"
   xmlns:rdf="http://www.w3.org/1999/02/22-rdf-syntax-ns#"
   xmlns:cc="http://creativecommons.org/ns#"
   xmlns:dc="http://purl.org/dc/elements/1.1/">
  <defs
     id="defs2" />
  <sodipodi:namedview
     id="base"
     pagecolor="#ffffff"
     bordercolor="#666666"
     borderopacity="1.0"
     inkscape:pageopacity="0.0"
     inkscape:pageshadow="2"
     inkscape:zoom="0.22583334"
     inkscape:cx="816.97415"
     inkscape:cy="1357.1955"
     inkscape:document-units="px"
     inkscape:current-layer="g832"
     showgrid="false"
     units="px"
     fit-margin-top="0"
     fit-margin-left="0"
     fit-margin-right="0"
     fit-margin-bottom="0"
     inkscape:showpageshadow="false"
     inkscape:snap-intersection-paths="true"
     inkscape:object-paths="false"
     inkscape:pagecheckerboard="true"
     inkscape:snap-smooth-nodes="false"
     inkscape:window-width="1920"
     inkscape:window-height="1009"
     inkscape:window-x="-8"
     inkscape:window-y="-8"
     inkscape:window-maximized="1"
     inkscape:object-nodes="true"
     inkscape:snap-nodes="true"
     showguides="false"
     inkscape:deskcolor="#505050" />
  <metadata
     id="metadata5">
    <rdf:RDF>
      <cc:Work
         rdf:about="">
        <dc:format>image/svg+xml</dc:format>
        <dc:type
           rdf:resource="http://purl.org/dc/dcmitype/StillImage" />
      </cc:Work>
    </rdf:RDF>
  </metadata>
  <g
     inkscape:label="レイヤー 1"
     inkscape:groupmode="layer"
     id="layer1"
     transform="translate(112.33452,-299.26786)">
    <g
       id="g832"
       style="fill:#da291c;fill-opacity:1">
      <path
         sodipodi:nodetypes="ccccc"
         inkscape:connector-curvature="0"
         id="path1079"
         d="m -102.80952,299.26786 h -9.525 v 476.25 h 9.525 z"
         style="fill:#ffffff;fill-opacity:1;stroke:none;stroke-width:0.511668px;stroke-linecap:butt;stroke-linejoin:miter;stroke-opacity:1" />
      <path
         sodipodi:nodetypes="cccc"
         inkscape:connector-curvature="0"
         id="path817"
         d="m 532.19049,299.26786 h -635.00001 l 635.00001,476.25 z"
         style="fill:#e4002b;fill-opacity:1;stroke:none;stroke-width:1.04444px;stroke-linecap:butt;stroke-linejoin:miter;stroke-opacity:1" />
      <path
         sodipodi:nodetypes="cccc"
         inkscape:connector-curvature="0"
         id="path1"
         d="m -102.80952,775.51786 v -476.25 l 635.00001,476.25 z"
         style="fill:#000000;fill-opacity:1;stroke:none;stroke-width:1.04444px;stroke-linecap:butt;stroke-linejoin:miter;stroke-opacity:1" />
      <path
         id="path9"
         style="fill:#ffc000;stroke-width:0.20102;stroke-linejoin:round;stroke-miterlimit:5.2;fill-opacity:1"
         d="m 411.31714,502.6082 c 0.91034,0.015 1.75767,-0.0801 2.52934,-0.28688 -0.13045,-2.55792 -2.07546,-5.65452 -4.10182,-7.68087 4.19358,4.19358 10.78521,6.902 16.45192,7.42446 16.5888,12.32243 26.94952,24.16136 30.48539,35.37443 -11.22572,-10.54153 -26.1214,-22.18295 -45.36483,-34.83114 z m 40.7843,60.05108 c -12.36958,16.59483 -37.4949,20.23397 -65.99619,12.59707 11.6087,5.71462 24.49619,8.8227 38.59617,6.45349 19.09829,-3.20908 36.96148,-14.16184 39.37316,-30.62232 14.36024,16.27616 21.58629,32.02335 12.6209,43.13263 -7.54966,9.35504 -23.78048,9.19866 -47.88862,2.18037 20.1183,11.22534 41.56615,11.06065 51.47127,1.45661 9.63691,-9.34396 8.05664,-27.50785 -16.03614,-52.91376 -1.11039,-13.22979 -11.75703,-29.37039 -37.82477,-47.49917 -0.5908,-1.28046 -1.32224,-2.50677 -2.33447,-3.55577 6.09462,4.85299 12.73211,7.27685 16.79176,7.88572 -0.33867,-2.98611 -1.0844,-5.95168 -3.46485,-9.17208 4.98048,3.41093 10.25969,8.8369 16.94948,8.07819 0.24722,-3.43243 0.0456,-6.67972 -1.68671,-9.29556 5.38809,3.11562 11.9267,5.86304 18.66093,5.09927 -3.42392,-8.70523 -7.91025,-16.66361 -15.45892,-22.67443 4.31821,3.43849 9.93553,3.56049 13.7503,4.13262 -5.79976,-10.60924 -13.22186,-19.79993 -22.54729,-27.3264 3.18639,0.28906 5.87427,-0.75474 8.46193,-2.06652 -8.30784,-4.97156 -16.62147,-9.91579 -25.60004,-11.72215 2.83161,0.15571 5.84368,-2.34523 8.03862,-5.10173 -27.29225,-11.88368 -46.10388,-8.47226 -62.97813,-11.003 5.73438,0.21579 11.41597,0.55412 19.43237,-4.5293 -2.60617,-3.57598 -6.03904,-5.79911 -9.84263,-7.41561 5.35619,0.72895 12.94895,-5.03728 16.66756,-8.5948 -2.5296,-3.04267 -5.58865,-5.402 -9.75645,-6.3303 6.31438,-1.15325 12.63522,-3.1075 18.99119,-9.38429 -2.68642,-2.93375 -6.71096,-5.08881 -10.78423,-5.85363 6.62625,-2.44864 13.19191,-5.99321 16.77075,-11.84974 -3.71,-3.09534 -7.61632,-4.9238 -11.91455,-4.22324 5.51024,-2.59065 8.04342,-8.45138 11.12904,-13.50078 -4.00222,-0.62115 -8.09916,-0.74915 -12.57473,1.09411 4.23602,-5.4878 8.43064,-10.98857 9.2496,-17.54669 -3.45196,0.19211 -6.89391,0.63728 -10.26273,2.93452 4.47166,-5.26067 8.09489,-10.59351 7.03025,-16.32525 0,0 -47.79286,20.31593 -64.00362,57.73488 -6.27167,14.47677 -6.86363,33.97297 -6.86363,36.89516 0,4.64853 -5.71203,5.30976 -8.34929,2.6725 -3.82969,-3.8297 -5.16961,-10.29104 -9.0586,-14.42968 -9.99789,-10.63971 -13.52179,-10.18956 -23.10704,-4.44367 -4.21334,-2.43259 -10.24192,-3.30425 -15.6052,-3.30425 -1.26053,0 -2.03256,1.32747 -0.72526,2.08224 15.03554,8.68077 25.9367,19.91128 37.30844,31.28302 2.63726,2.63726 1.97603,8.34929 -2.6725,8.34929 -2.92219,0 -22.41839,0.59196 -36.89516,6.86363 -37.41895,16.21075 -57.73488,64.00362 -57.73488,64.00362 5.73174,1.06464 11.06458,-2.55859 16.32525,-7.03025 -2.29724,3.36882 -2.74241,6.81076 -2.93452,10.26273 6.55812,-0.81896 12.05889,-5.01358 17.54669,-9.2496 -1.84326,4.47556 -1.71525,8.57251 -1.0941,12.57473 5.0494,-3.08562 10.91013,-5.6188 13.50078,-11.12904 -0.70056,4.29822 1.12789,8.20455 4.22324,11.91455 5.85652,-3.57885 9.40109,-10.14451 11.84974,-16.77075 0.76481,4.07326 2.91987,8.09781 5.85362,10.78422 6.27679,-6.35596 8.23105,-12.67681 9.38429,-18.99119 0.92831,4.16781 3.28763,7.22686 6.3303,9.75645 3.55752,-3.7186 9.32375,-11.31136 8.59481,-16.66755 1.61649,3.80359 3.83962,7.23646 7.41561,9.84262 5.08342,-8.01639 4.74508,-13.69798 4.5293,-19.43236 2.53073,16.87425 -0.88069,35.68588 11.003,62.97812 2.7565,-2.19493 5.25743,-5.20701 5.10173,-8.03861 1.80635,8.97856 6.75058,17.29219 11.72215,25.60004 1.31177,-2.58766 2.35557,-5.27554 2.06651,-8.46194 7.52647,9.32544 16.71717,16.74754 27.3264,22.5473 -0.57212,-3.81478 -0.69413,-9.43209 -4.13261,-13.7503 6.01081,7.54867 13.9692,12.03499 22.67443,15.45892 0.76377,-6.73424 -1.98365,-13.27284 -5.09928,-18.66093 2.61584,1.73238 5.86314,1.93393 9.29556,1.68671 0.75872,-6.68979 -4.66725,-11.96901 -8.07813,-16.94947 3.22047,2.38045 6.18596,3.12637 9.17207,3.46504 -0.60886,-4.05965 -3.03264,-10.69738 -7.88563,-16.79201 2.32585,2.24433 5.5055,3.14926 8.27563,4.06074 0,-6.03599 -2.83992,-13.71516 -7.52366,-18.39896 2.02644,2.02637 5.12275,3.97167 7.68066,4.10212 0.75695,-2.825 0.0873,-6.62221 -2.48361,-11.09029 18.75121,12.12534 40.18275,28.07169 55.94731,44.07647 0.32383,6.2416 -1.60097,12.27053 -5.91463,18.05767 z"
         sodipodi:nodetypes="ccccccscscscsccccccccccccccccccccccccccccsssscssssscccccccccccccccccccccccccccccccs" />
      <g
         id="g13"
         transform="translate(0,-3.5147601)">
        <path
           style="fill:#ffffff;fill-opacity:1;stroke:none;stroke-width:0.264583px;stroke-linecap:butt;stroke-linejoin:miter;stroke-opacity:1"
           d="m 53.043182,517.12404 -6.55888,-20.18611 17.171357,-12.47571 H 42.430692 l -6.55888,-20.18613 -6.55887,20.18613 H 8.0879956 l 17.1713424,12.4757 -6.558867,20.18613 17.171351,-12.47571 z"
           id="path887"
           inkscape:connector-curvature="0"
           sodipodi:nodetypes="ccccccccccc" />
        <path
           style="fill:#ffffff;fill-opacity:1;stroke:none;stroke-width:0.264583px;stroke-linecap:butt;stroke-linejoin:miter;stroke-opacity:1"
           d="m 53.043182,742.65448 -6.55888,-20.18611 17.171357,-12.47571 H 42.430692 l -6.55888,-20.18613 -6.55887,20.18613 H 8.0879956 l 17.1713424,12.4757 -6.558867,20.18613 17.171351,-12.47571 z"
           id="path11"
           inkscape:connector-curvature="0"
           sodipodi:nodetypes="ccccccccccc" />
        <path
           style="fill:#ffffff;fill-opacity:1;stroke:none;stroke-width:0.264583px;stroke-linecap:butt;stroke-linejoin:miter;stroke-opacity:1"
           d="m -28.967888,618.46629 -6.55888,-20.18611 17.171357,-12.47571 h -21.224967 l -6.55888,-20.18613 -6.55887,20.18613 h -21.224946 l 17.171342,12.4757 -6.558867,20.18613 17.171351,-12.47571 z"
           id="path12"
           inkscape:connector-curvature="0"
           sodipodi:nodetypes="ccccccccccc" />
        <path
           style="fill:#ffffff;fill-opacity:1;stroke:none;stroke-width:0.264583px;stroke-linecap:butt;stroke-linejoin:miter;stroke-opacity:1"
           d="m 137.79945,587.9418 -6.55888,-20.18611 17.17135,-12.47571 h -21.22496 l -6.55888,-20.18613 -6.55887,20.18613 H 92.844265 l 17.171335,12.4757 -6.55887,20.18613 17.17136,-12.47571 z"
           id="path13"
           inkscape:connector-curvature="0"
           sodipodi:nodetypes="ccccccccccc" />
        <path
           sodipodi:nodetypes="ccccccccccc"
           inkscape:connector-curvature="0"
           id="path896"
           d="m 81.971068,611.95829 -11.07203,2e-5 8.95747,6.50798 -3.42147,10.53012 8.95747,-6.50797 8.95745,6.50799 -3.42145,-10.53014 8.95747,-6.50798 -11.07203,10e-6 -3.42144,-10.53014 z"
           style="fill:#ffffff;fill-opacity:1;stroke:none;stroke-width:0.275154px;stroke-linecap:butt;stroke-linejoin:miter;stroke-opacity:1" />
      </g>
    </g>
  </g>
</svg>
