<?xml version="1.0" encoding="UTF-8" standalone="no"?>
<!-- Created with Inkscape (http://www.inkscape.org/) -->

<svg
   width="1800"
   height="1799.9998"
   viewBox="0 0 476.25 476.24995"
   version="1.1"
   id="svg8"
   inkscape:export-filename="C:\Users\厂永刄先生\Documents\GXI3CW2\JáÈŭcèŭ\Èŭmen\Í\意軍.png"
   inkscape:export-xdpi="96"
   inkscape:export-ydpi="96"
   inkscape:version="1.3 (0e150ed6c4, 2023-07-21)"
   sodipodi:docname="pg_1971_roundel.svg"
   xmlns:inkscape="http://www.inkscape.org/namespaces/inkscape"
   xmlns:sodipodi="http://sodipodi.sourceforge.net/DTD/sodipodi-0.dtd"
   xmlns="http://www.w3.org/2000/svg"
   xmlns:svg="http://www.w3.org/2000/svg"
   xmlns:rdf="http://www.w3.org/1999/02/22-rdf-syntax-ns#"
   xmlns:cc="http://creativecommons.org/ns#"
   xmlns:dc="http://purl.org/dc/elements/1.1/">
  <defs
     id="defs2" />
  <sodipodi:namedview
     id="base"
     pagecolor="#ffffff"
     bordercolor="#666666"
     borderopacity="1.0"
     inkscape:pageopacity="0.0"
     inkscape:pageshadow="2"
     inkscape:zoom="0.31937657"
     inkscape:cx="-117.41625"
     inkscape:cy="377.29756"
     inkscape:document-units="px"
     inkscape:current-layer="g832"
     showgrid="false"
     units="px"
     fit-margin-top="0"
     fit-margin-left="0"
     fit-margin-right="0"
     fit-margin-bottom="0"
     inkscape:showpageshadow="false"
     inkscape:snap-intersection-paths="true"
     inkscape:object-paths="false"
     inkscape:pagecheckerboard="true"
     inkscape:snap-smooth-nodes="false"
     inkscape:window-width="2880"
     inkscape:window-height="1514"
     inkscape:window-x="-11"
     inkscape:window-y="-11"
     inkscape:window-maximized="1"
     inkscape:object-nodes="true"
     inkscape:snap-nodes="true"
     showguides="false"
     inkscape:deskcolor="#505050" />
  <metadata
     id="metadata5">
    <rdf:RDF>
      <cc:Work
         rdf:about="">
        <dc:format>image/svg+xml</dc:format>
        <dc:type
           rdf:resource="http://purl.org/dc/dcmitype/StillImage" />
      </cc:Work>
    </rdf:RDF>
  </metadata>
  <g
     inkscape:label="レイヤー 1"
     inkscape:groupmode="layer"
     id="layer1"
     transform="translate(-137.34262,-239.45163)">
    <g
       id="g832"
       style="fill:#da291c;fill-opacity:1">
      <ellipse
         style="fill:#000000;fill-opacity:1;stroke:none;stroke-width:0.0378366;stroke-linejoin:round;stroke-miterlimit:3.9"
         id="ellipse1"
         cx="375.46762"
         cy="477.5766"
         rx="238.125"
         ry="238.12497" />
      <ellipse
         style="fill:#e4002b;fill-opacity:1;stroke:none;stroke-width:0.0283775;stroke-linejoin:round;stroke-miterlimit:3.9"
         id="ellipse2"
         cx="375.46762"
         cy="477.5766"
         rx="178.59377"
         ry="178.59375" />
      <ellipse
         style="fill:#00a800;fill-opacity:1;stroke:none;stroke-width:0.0189183;stroke-linejoin:round;stroke-miterlimit:3.9"
         id="path1"
         cx="375.46762"
         cy="477.5766"
         rx="119.06252"
         ry="119.0625" />
      <path
         id="path9"
         style="fill:#ffc000;fill-opacity:1;stroke:none;stroke-width:0.143597;stroke-linejoin:round;stroke-miterlimit:5.2"
         d="m 401.07645,495.45773 c 0.65029,0.0107 1.25558,-0.0573 1.80681,-0.20493 -0.0932,-1.82723 -1.48258,-4.03927 -2.9301,-5.48677 2.99565,2.99564 7.70433,4.93039 11.7523,5.3036 11.85009,8.80244 19.25119,17.25949 21.77701,25.26946 -8.019,-7.53026 -18.65963,-15.84622 -32.40602,-24.88136 z m 29.13396,42.89704 c -8.83612,11.85439 -26.78421,14.45398 -47.14388,8.99862 8.29258,4.0822 17.49866,6.30243 27.57088,4.61 13.64272,-2.29238 26.40315,-10.1164 28.12592,-21.87482 10.25813,11.62675 15.42001,22.87564 9.01565,30.81147 -5.39305,6.68271 -16.98741,6.571 -34.20889,1.55753 14.37136,8.01874 29.69248,7.9011 36.76812,1.04052 6.88406,-6.67479 5.7552,-19.65002 -11.45529,-37.79855 -0.7932,-9.4506 -8.39855,-20.98052 -27.01984,-33.93068 -0.42204,-0.91469 -0.94454,-1.79069 -1.66761,-2.54003 4.35364,3.46669 9.09508,5.19816 11.99506,5.6331 -0.24192,-2.13311 -0.77463,-4.25153 -2.47509,-6.55201 3.55778,2.43658 7.32894,6.31258 12.10774,5.7706 0.1766,-2.45194 0.0326,-4.77161 -1.20489,-6.64022 3.84894,2.22563 8.51975,4.18823 13.3303,3.64263 -2.44586,-6.21852 -5.65064,-11.90353 -11.04296,-16.19731 3.08467,2.45626 7.09736,2.54341 9.82242,2.95211 -4.14302,-7.57864 -9.44494,-14.14394 -16.10649,-19.52041 2.27617,0.20649 4.19624,-0.53915 6.04471,-1.4762 -5.93464,-3.5514 -11.87342,-7.08328 -18.28719,-8.37364 2.02274,0.11124 4.17439,-1.6753 5.74233,-3.64438 -19.49602,-8.48902 -32.93397,-6.0521 -44.98796,-7.85991 4.09631,0.15415 8.15491,0.39583 13.88137,-3.23547 -1.8617,-2.55447 -4.31395,-4.14255 -7.03101,-5.29729 3.82615,0.52072 9.24998,-3.59834 11.90634,-6.13963 -1.807,-2.17351 -3.99221,-3.85887 -6.96944,-4.522 4.51063,-0.82382 9.02587,-2.21982 13.56621,-6.70359 -1.91902,-2.09571 -4.79392,-3.63516 -7.70363,-4.1815 4.73341,-1.74917 9.42354,-4.28121 11.98006,-8.46478 -2.65021,-2.21113 -5.44066,-3.51728 -8.51108,-3.01684 3.93621,-1.85061 5.74576,-6.03718 7.94995,-9.64418 -2.85895,-0.44371 -5.78557,-0.53514 -8.98266,0.78157 3.02597,-3.92017 6.02236,-7.8496 6.60738,-12.53435 -2.46588,0.13724 -4.92461,0.45524 -7.33111,2.09626 3.19431,-3.75792 5.78253,-7.56739 5.02201,-11.66182 0,0 -34.14046,14.51253 -45.7205,41.24247 -4.48013,10.34138 -4.90298,24.26834 -4.90298,26.35579 0,3.32064 -4.08035,3.79299 -5.96425,1.90908 -2.73572,-2.73572 -3.69288,-7.35133 -6.47095,-10.30774 -7.14192,-7.60039 -9.65919,-7.27883 -16.50634,-3.1743 -3.00977,-1.7377 -7.31624,-2.36036 -11.14746,-2.36036 -0.90045,0 -1.45194,0.94827 -0.51809,1.48742 10.74053,6.20105 18.5277,14.22348 26.65101,22.3468 1.88391,1.88391 1.41156,5.96425 -1.90908,5.96425 -2.08744,0 -16.01441,0.42287 -26.35578,4.90298 -26.72994,11.58003 -41.24248,45.72052 -41.24248,45.72052 4.09442,0.76051 7.9039,-1.82772 11.66182,-5.02201 -1.64102,2.40649 -1.95902,4.86521 -2.09625,7.3311 4.68475,-0.58502 8.61417,-3.58141 12.53435,-6.60738 -1.31673,3.19708 -1.22529,6.12371 -0.78157,8.98266 3.60701,-2.20419 7.79357,-4.01375 9.64419,-7.94994 -0.50044,3.0704 0.80569,5.86086 3.01684,8.51107 4.18356,-2.55653 6.71559,-7.24666 8.46476,-11.98007 0.54635,2.90971 2.08579,5.78461 4.18149,7.70363 4.48379,-4.54033 5.8798,-9.05558 6.7036,-13.56621 0.66313,2.97724 2.3485,5.16245 4.52201,6.96945 2.54128,-2.65636 6.66035,-8.08019 6.13963,-11.90634 1.15473,2.71706 2.74281,5.16931 5.29729,7.031 3.6313,-5.72645 3.38961,-9.78505 3.23547,-13.88136 1.80781,12.05399 -0.62911,25.49194 7.85992,44.98794 1.96908,-1.56793 3.75559,-3.71958 3.64438,-5.74231 1.29035,6.41376 4.82222,12.35254 8.37362,18.2872 0.93706,-1.84849 1.68269,-3.76855 1.4762,-6.04474 5.37648,6.66157 11.94179,11.96349 19.52041,16.1065 -0.40869,-2.72506 -0.49584,-6.73774 -2.9521,-9.82242 4.29378,5.39234 9.9788,8.5971 16.19731,11.04296 0.54559,-4.81055 -1.41701,-9.48135 -3.64263,-13.33029 1.8686,1.23751 4.18829,1.38148 6.64021,1.20488 0.54198,-4.77879 -3.33402,-8.54997 -5.77055,-12.10772 2.30052,1.70045 4.41889,2.2333 6.552,2.47522 -0.43493,-2.89998 -2.16634,-7.64159 -5.63304,-11.99524 1.66145,1.60322 3.93281,2.24964 5.91163,2.90075 0,-4.31176 -2.02868,-9.79732 -5.37447,-13.14315 1.44758,1.44752 3.6594,2.83713 5.48662,2.93032 0.54073,-2.01802 0.0623,-4.73053 -1.77415,-7.92227 13.39479,8.66164 28.70425,20.0528 39.96555,31.4857 0.23133,4.45864 -1.14364,8.76536 -4.22507,12.89936 z"
         sodipodi:nodetypes="ccccccscscscsccccccccccccccccccccccccccccsssscssssscccccccccccccccccccccccccccccccs" />
    </g>
  </g>
</svg>
