<?xml version="1.0" encoding="UTF-8" standalone="no"?>
<!-- Created with Inkscape (http://www.inkscape.org/) -->

<svg
   xmlns:dc="http://purl.org/dc/elements/1.1/"
   xmlns:cc="http://creativecommons.org/ns#"
   xmlns:rdf="http://www.w3.org/1999/02/22-rdf-syntax-ns#"
   xmlns:svg="http://www.w3.org/2000/svg"
   xmlns="http://www.w3.org/2000/svg"
   xmlns:sodipodi="http://sodipodi.sourceforge.net/DTD/sodipodi-0.dtd"
   xmlns:inkscape="http://www.inkscape.org/namespaces/inkscape"
   width="2736"
   height="1800"
   viewBox="0 0 723.9 476.25001"
   version="1.1"
   id="svg8"
   inkscape:export-filename="C:\Users\厂永刄先生\Documents\GXI3CW2\JáÈŭcèŭ\Èŭmen\Í\意軍.png"
   inkscape:export-xdpi="96"
   inkscape:export-ydpi="96"
   inkscape:version="0.92.4 (5da689c313, 2019-01-14)"
   sodipodi:docname="広島県.svg">
  <defs
     id="defs2" />
  <sodipodi:namedview
     id="base"
     pagecolor="#ffffff"
     bordercolor="#666666"
     borderopacity="1.0"
     inkscape:pageopacity="0.0"
     inkscape:pageshadow="2"
     inkscape:zoom="0.17808615"
     inkscape:cx="1386"
     inkscape:cy="1012.3052"
     inkscape:document-units="px"
     inkscape:current-layer="layer1"
     showgrid="false"
     units="px"
     fit-margin-top="0"
     fit-margin-left="0"
     fit-margin-right="0"
     fit-margin-bottom="0"
     inkscape:showpageshadow="false"
     inkscape:snap-intersection-paths="false"
     inkscape:object-paths="false"
     inkscape:pagecheckerboard="true"
     inkscape:snap-smooth-nodes="true"
     inkscape:window-width="1366"
     inkscape:window-height="745"
     inkscape:window-x="-8"
     inkscape:window-y="-8"
     inkscape:window-maximized="1"
     inkscape:object-nodes="true"
     inkscape:snap-nodes="true" />
  <metadata
     id="metadata5">
    <rdf:RDF>
      <cc:Work
         rdf:about="">
        <dc:format>image/svg+xml</dc:format>
        <dc:type
           rdf:resource="http://purl.org/dc/dcmitype/StillImage" />
        <dc:title />
      </cc:Work>
    </rdf:RDF>
  </metadata>
  <g
     inkscape:label="レイヤー 1"
     inkscape:groupmode="layer"
     id="layer1"
     transform="translate(112.33452,-299.26786)">
    <path
       style="fill:#ffffff;fill-opacity:1;stroke:none;stroke-width:0.51166773px;stroke-linecap:butt;stroke-linejoin:miter;stroke-opacity:1"
       d="m -102.80952,299.26786 h -9.525 v 476.25 h 9.525 z"
       id="path1079"
       inkscape:connector-curvature="0"
       sodipodi:nodetypes="ccccc" />
    <path
       style="opacity:1;fill:#b3424a;fill-opacity:1;fill-rule:evenodd;stroke:none;stroke-width:0.22373059;stroke-linecap:round;stroke-linejoin:round;stroke-miterlimit:4;stroke-dasharray:none;stroke-dashoffset:0;stroke-opacity:0.50196078"
       d="m 397.25298,537.39285 c 0,78.90769 -63.96731,142.87501 -142.87499,142.87501 -78.90769,0 -142.87501,-63.96732 -142.87501,-142.87501 0,-78.90768 63.96732,-142.875 142.87501,-142.875 78.90769,0 142.87499,63.96732 142.87499,142.875 z m -500.0625,-238.12499 v 476.25 h 714.375 v -476.25 z"
       id="path814"
       inkscape:connector-curvature="0"
       sodipodi:nodetypes="zzzzzccccc" />
    <g
       id="g891"
       style="stroke:none;fill:#b3424a;fill-opacity:1">
      <path
         style="opacity:1;fill:#b3424a;fill-opacity:1;fill-rule:evenodd;stroke:none;stroke-width:0.22373059;stroke-linecap:round;stroke-linejoin:round;stroke-miterlimit:4;stroke-dasharray:none;stroke-dashoffset:0;stroke-opacity:0.50196078"
         d="m 397.25298,537.39285 c 0,78.90769 -63.96731,142.87501 -142.87499,142.87501 -78.90769,0 -142.87501,-63.96732 -142.87501,-142.87501 0,-78.90768 63.96732,-142.875 142.87501,-142.875 78.90769,0 142.87499,63.96732 142.87499,142.875 z"
         id="path847"
         inkscape:connector-curvature="0"
         sodipodi:nodetypes="zzzzz" />
      <path
         sodipodi:nodetypes="scssscsscscscs"
         inkscape:connector-curvature="0"
         id="path887"
         d="m 254.37799,394.51786 c 7.89834,0 15.64621,0.64271 23.19599,1.87534 -32.54319,7.6115 -56.78051,36.81164 -56.78051,71.6747 0,40.65347 32.956,73.60946 73.60947,73.60946 40.65347,0 73.60947,-32.95599 73.60947,-73.60946 0,-7.37738 -1.09027,-14.4994 -3.15744,-21.27726 3.16672,10.54658 4.8953,21.79748 4.8953,33.45222 0,63.71823 -51.65402,115.37228 -115.37228,115.37228 -22.94223,0 -44.31996,-6.69729 -62.28612,-18.24228 21.92938,28.7028 56.51421,47.22038 95.42465,47.22038 47.95523,0 89.339,-28.12735 108.55929,-68.78341 -9.03555,70.20824 -69.03085,124.45804 -141.69782,124.45804 -78.9077,0 -142.875,-63.96731 -142.875,-142.87501 -1e-5,-78.90769 63.96731,-142.87501 142.875,-142.875 z"
         style="opacity:1;fill:#ffffff;fill-opacity:1;fill-rule:evenodd;stroke:none;stroke-width:0.22373059;stroke-linecap:round;stroke-linejoin:round;stroke-miterlimit:4;stroke-dasharray:none;stroke-dashoffset:0;stroke-opacity:0.50196078" />
    </g>
  </g>
</svg>
