<?xml version="1.0" encoding="UTF-8" standalone="no"?>
<!-- Created with Inkscape (http://www.inkscape.org/) -->

<svg
   width="4945.0908"
   height="1800"
   viewBox="0 0 1308.3886 476.25001"
   version="1.1"
   id="svg8"
   inkscape:export-filename="C:\Users\厂永刄先生\Documents\GXI3CW2\,pjóŭ\Qatar.png"
   inkscape:export-xdpi="96"
   inkscape:export-ydpi="96"
   inkscape:version="1.3 (0e150ed6c4, 2023-07-21)"
   sodipodi:docname="qa_1936.svg"
   xmlns:inkscape="http://www.inkscape.org/namespaces/inkscape"
   xmlns:sodipodi="http://sodipodi.sourceforge.net/DTD/sodipodi-0.dtd"
   xmlns="http://www.w3.org/2000/svg"
   xmlns:svg="http://www.w3.org/2000/svg"
   xmlns:rdf="http://www.w3.org/1999/02/22-rdf-syntax-ns#"
   xmlns:cc="http://creativecommons.org/ns#"
   xmlns:dc="http://purl.org/dc/elements/1.1/">
  <defs
     id="defs2" />
  <sodipodi:namedview
     id="base"
     pagecolor="#ffffff"
     bordercolor="#666666"
     borderopacity="1.0"
     inkscape:pageopacity="0.0"
     inkscape:pageshadow="2"
     inkscape:zoom="0.09658241"
     inkscape:cx="2231.2552"
     inkscape:cy="3121.6864"
     inkscape:document-units="px"
     inkscape:current-layer="layer1"
     showgrid="false"
     units="px"
     fit-margin-top="0"
     fit-margin-left="0"
     fit-margin-right="0"
     fit-margin-bottom="0"
     inkscape:showpageshadow="false"
     inkscape:snap-intersection-paths="false"
     inkscape:object-paths="false"
     inkscape:pagecheckerboard="true"
     inkscape:snap-smooth-nodes="false"
     inkscape:window-width="1920"
     inkscape:window-height="1009"
     inkscape:window-x="-8"
     inkscape:window-y="-8"
     inkscape:window-maximized="1"
     inkscape:object-nodes="true"
     inkscape:snap-nodes="true"
     inkscape:deskcolor="#505050" />
  <metadata
     id="metadata5">
    <rdf:RDF>
      <cc:Work
         rdf:about="">
        <dc:format>image/svg+xml</dc:format>
        <dc:type
           rdf:resource="http://purl.org/dc/dcmitype/StillImage" />
      </cc:Work>
    </rdf:RDF>
  </metadata>
  <g
     inkscape:label="レイヤー 1"
     inkscape:groupmode="layer"
     id="layer1"
     transform="translate(198.92542,-299.26786)">
    <path
       style="fill:#ffffff;fill-opacity:1;stroke:none;stroke-width:0.511668px;stroke-linecap:butt;stroke-linejoin:miter;stroke-opacity:1"
       d="m 1099.9382,299.26786 h 9.525 v 476.25 h -9.525 z"
       id="path1079"
       inkscape:connector-curvature="0"
       sodipodi:nodetypes="ccccc" />
    <path
       style="fill:#ffffff;fill-opacity:1;stroke:none;stroke-width:3.08547px;stroke-linecap:butt;stroke-linejoin:miter;stroke-opacity:1"
       d="m 1099.9382,775.51786 v -476.25 H 753.57457 l -86.59091,26.45833 86.59091,26.45834 -86.59091,26.45833 86.59091,26.45833 -86.59091,26.45834 86.59091,26.45833 -86.59091,26.45833 86.59091,26.45834 -86.59091,26.45833 86.59091,26.45833 -86.59091,26.45834 86.59091,26.45833 -86.59091,26.45833 86.59091,26.45834 -86.59091,26.45833 86.59091,26.45833 -86.59091,26.45834 86.59091,26.45833 z"
       id="path882"
       inkscape:connector-curvature="0"
       sodipodi:nodetypes="cccccccccccccccccccccc" />
    <path
       sodipodi:nodetypes="cccccccccccccccccccccc"
       inkscape:connector-curvature="0"
       id="path880"
       d="m -198.92542,775.51786 v -476.25 h 952.49999 l -86.59091,26.45833 86.59091,26.45834 -86.59091,26.45833 86.59091,26.45833 -86.59091,26.45834 86.59091,26.45833 -86.59091,26.45833 86.59091,26.45834 -86.59091,26.45833 86.59091,26.45833 -86.59091,26.45834 86.59091,26.45833 -86.59091,26.45833 86.59091,26.45834 -86.59091,26.45833 86.59091,26.45833 -86.59091,26.45834 86.59091,26.45833 z"
       style="fill:#8a1538;fill-opacity:1;stroke:none;stroke-width:5.77239px;stroke-linecap:butt;stroke-linejoin:miter;stroke-opacity:1" />
    <path
       sodipodi:nodetypes="ccccc"
       inkscape:connector-curvature="0"
       id="path1"
       d="m 753.57457,325.72619 43.29547,-13.22916 43.29547,13.22916 -43.29547,13.22917 z"
       style="fill:#8a1538;fill-opacity:1;stroke:none;stroke-width:5.77239px;stroke-linecap:butt;stroke-linejoin:miter;stroke-opacity:1" />
    <path
       sodipodi:nodetypes="ccccc"
       inkscape:connector-curvature="0"
       id="path2"
       d="m 753.57457,378.64286 43.29547,-13.22916 43.29547,13.22916 -43.29547,13.22917 z"
       style="fill:#8a1538;fill-opacity:1;stroke:none;stroke-width:5.77239px;stroke-linecap:butt;stroke-linejoin:miter;stroke-opacity:1" />
    <path
       sodipodi:nodetypes="ccccc"
       inkscape:connector-curvature="0"
       id="path3"
       d="m 753.57457,431.55953 43.29547,-13.22916 43.29547,13.22916 -43.29547,13.22917 z"
       style="fill:#8a1538;fill-opacity:1;stroke:none;stroke-width:5.77239px;stroke-linecap:butt;stroke-linejoin:miter;stroke-opacity:1" />
    <path
       sodipodi:nodetypes="ccccc"
       inkscape:connector-curvature="0"
       id="path4"
       d="m 753.57457,484.47619 43.29547,-13.22916 43.29547,13.22916 -43.29547,13.22917 z"
       style="fill:#8a1538;fill-opacity:1;stroke:none;stroke-width:5.77239px;stroke-linecap:butt;stroke-linejoin:miter;stroke-opacity:1" />
    <path
       sodipodi:nodetypes="ccccc"
       inkscape:connector-curvature="0"
       id="path5"
       d="m 753.57457,537.39286 43.29547,-13.22916 43.29547,13.22916 -43.29547,13.22917 z"
       style="fill:#8a1538;fill-opacity:1;stroke:none;stroke-width:5.77239px;stroke-linecap:butt;stroke-linejoin:miter;stroke-opacity:1" />
    <path
       sodipodi:nodetypes="ccccc"
       inkscape:connector-curvature="0"
       id="path6"
       d="m 753.57457,590.30953 43.29547,-13.22916 43.29547,13.22916 -43.29547,13.22917 z"
       style="fill:#8a1538;fill-opacity:1;stroke:none;stroke-width:5.77239px;stroke-linecap:butt;stroke-linejoin:miter;stroke-opacity:1" />
    <path
       sodipodi:nodetypes="ccccc"
       inkscape:connector-curvature="0"
       id="path7"
       d="m 753.57457,643.2262 43.29547,-13.22916 43.29547,13.22916 -43.29547,13.22917 z"
       style="fill:#8a1538;fill-opacity:1;stroke:none;stroke-width:5.77239px;stroke-linecap:butt;stroke-linejoin:miter;stroke-opacity:1" />
    <path
       sodipodi:nodetypes="ccccc"
       inkscape:connector-curvature="0"
       id="path8"
       d="m 753.57457,696.14286 43.29547,-13.22916 43.29547,13.22916 -43.29547,13.22917 z"
       style="fill:#8a1538;fill-opacity:1;stroke:none;stroke-width:5.77239px;stroke-linecap:butt;stroke-linejoin:miter;stroke-opacity:1" />
    <path
       sodipodi:nodetypes="ccccc"
       inkscape:connector-curvature="0"
       id="path9"
       d="m 753.57457,749.05953 43.29547,-13.22916 43.29547,13.22916 -43.29547,13.22917 z"
       style="fill:#8a1538;fill-opacity:1;stroke:none;stroke-width:5.77239px;stroke-linecap:butt;stroke-linejoin:miter;stroke-opacity:1" />
    <path
       id="path10"
       style="fill:#ffffff;fill-opacity:1;stroke:none;stroke-width:3.90793px;stroke-linecap:butt;stroke-linejoin:miter;stroke-opacity:1"
       d="m 291.66508,598.36586 c -21.10692,-11.04382 -30.01984,-31.5849 -36.98327,-43.64592 l -36.70629,14.92829 c 7.59306,13.15156 28.26151,28.05943 57.09419,37.05097 -23.72378,10.33546 -54.72999,16.88631 -112.4784,16.88631 -65.268259,0 -79.394382,-27.41635 -93.169511,-35.36942 -0.438149,-0.25297 -0.846033,0.0391 -0.695648,0.50821 8.172613,25.27519 46.656279,61.50342 66.919509,64.62993 48.20984,7.43852 129.21522,-18.96643 160.50545,-41.47654 5.35495,0.96816 10.88952,1.74097 16.61191,2.25051 143.42123,12.77062 337.20978,1.58548 227.552,-70.51818 l -19.31458,-12.7 c -0.29477,-0.19382 -0.76357,-0.19382 -1.05834,0 l -19.31458,12.7 c -0.29477,0.19382 -0.29713,0.86817 0,1.05834 0.29713,0.19017 13.22917,8.46667 19.84375,12.7 68.68814,43.96039 -3.52672,56.17771 -94.94149,54.84781 23.08676,-10.09683 48.99577,-30.15861 36.86596,-55.74647 -11.99578,-25.30514 -60.82729,-17.94527 -109.45585,5.87406 V 454.68574 c 0,-1.24031 2.09168,-2.39255 3.21686,-1.87069 l 17.60719,8.16643 c 2.1605,1.00203 3.93877,-1.38523 2.18747,-4.01423 l -23.01152,-34.54414 c -0.86677,-1.30117 -1.80783,-2.20182 -3.02255,-2.26912 -0.40491,-0.0224 -0.84003,0.0475 -1.3131,0.22635 l -18.01286,6.81147 c -1.62371,0.61399 -2.94794,2.15729 -2.86494,4.34857 V 570.8833 c 0,4.60179 0.22434,4.98875 -8.80825,10.67454 -9.54191,6.00639 -18.2478,11.70956 -27.25311,16.80802 z m 207.90411,-99.20584 -19.31459,12.7 c -0.29477,0.19382 -0.29477,0.86452 0,1.05834 l 19.31459,12.7 c 0.29477,0.19382 0.76356,0.19382 1.05833,0 l 19.31458,-12.7 c 0.29477,-0.19382 0.76357,-0.19382 1.05834,0 l 19.31458,12.7 c 0.29477,0.19382 0.76356,0.19382 1.05833,0 l 19.31459,-12.7 c 0.29477,-0.19382 0.29477,-0.86452 0,-1.05834 l -19.31459,-12.7 c -0.29477,-0.19382 -0.76356,-0.19382 -1.05833,0 l -19.31458,12.7 c -0.29477,0.19382 -0.76357,0.19382 -1.05834,0 l -19.31458,-12.7 c -0.29416,-0.19342 -0.76416,-0.19343 -1.05833,0 z M 452.33072,567.622 c 1.11326,23.7496 -18.28735,35.21646 -41.14477,44.33682 -31.90117,-0.92569 -65.31117,-3.32243 -95.37144,-6.50089 -3.42574,-0.36222 -6.57952,-0.98789 -9.6144,-1.72289 47.2239,-37.27555 145.21742,-55.59519 146.13061,-36.11304 z"
       sodipodi:nodetypes="ccccsssscssssssscscsccssssscsscsssssssssssssssssscscs" />
  </g>
</svg>
