<?xml version="1.0" encoding="UTF-8" standalone="no"?>
<!-- Created with Inkscape (http://www.inkscape.org/) -->

<svg
   width="3036"
   height="1800"
   viewBox="0 0 803.275 476.25001"
   version="1.1"
   id="svg8"
   inkscape:export-filename="C:\Users\厂永刄先生\Documents\GXI3CW2\,pjóŭ\Bahrein.png"
   inkscape:export-xdpi="96"
   inkscape:export-ydpi="96"
   inkscape:version="1.3 (0e150ed6c4, 2023-07-21)"
   sodipodi:docname="qa_1860.svg"
   xmlns:inkscape="http://www.inkscape.org/namespaces/inkscape"
   xmlns:sodipodi="http://sodipodi.sourceforge.net/DTD/sodipodi-0.dtd"
   xmlns="http://www.w3.org/2000/svg"
   xmlns:svg="http://www.w3.org/2000/svg"
   xmlns:rdf="http://www.w3.org/1999/02/22-rdf-syntax-ns#"
   xmlns:cc="http://creativecommons.org/ns#"
   xmlns:dc="http://purl.org/dc/elements/1.1/">
  <defs
     id="defs2" />
  <sodipodi:namedview
     id="base"
     pagecolor="#ffffff"
     bordercolor="#666666"
     borderopacity="1.0"
     inkscape:pageopacity="0.0"
     inkscape:pageshadow="2"
     inkscape:zoom="0.20775337"
     inkscape:cx="1253.8906"
     inkscape:cy="1691.9099"
     inkscape:document-units="px"
     inkscape:current-layer="layer1"
     showgrid="false"
     units="px"
     fit-margin-top="0"
     fit-margin-left="0"
     fit-margin-right="0"
     fit-margin-bottom="0"
     inkscape:showpageshadow="false"
     inkscape:snap-intersection-paths="false"
     inkscape:object-paths="false"
     inkscape:pagecheckerboard="true"
     inkscape:snap-smooth-nodes="false"
     inkscape:window-width="1920"
     inkscape:window-height="1009"
     inkscape:window-x="-8"
     inkscape:window-y="-8"
     inkscape:window-maximized="1"
     inkscape:object-nodes="true"
     inkscape:snap-nodes="true"
     inkscape:deskcolor="#505050" />
  <metadata
     id="metadata5">
    <rdf:RDF>
      <cc:Work
         rdf:about="">
        <dc:format>image/svg+xml</dc:format>
        <dc:type
           rdf:resource="http://purl.org/dc/dcmitype/StillImage" />
      </cc:Work>
    </rdf:RDF>
  </metadata>
  <g
     inkscape:label="レイヤー 1"
     inkscape:groupmode="layer"
     id="layer1"
     transform="translate(112.33452,-299.26786)">
    <path
       sodipodi:nodetypes="cccccccccccccccccccccccc"
       inkscape:connector-curvature="0"
       id="path1"
       d="M -112.33452,775.51787 V 299.26786 h 595.31251 l -59.53124,23.8126 59.53124,23.81231 -59.53124,23.8126 59.53124,23.8126 -59.53124,23.8123 59.53124,23.8126 -59.53124,23.8126 59.53124,23.8123 -59.53124,23.8126 59.53124,23.8123 -59.53124,23.8126 59.53124,23.8127 -59.53124,23.8123 59.53124,23.8126 -59.53124,23.8126 59.53124,23.8123 -59.53124,23.8126 59.53124,23.8126 -59.53124,23.8123 59.53124,23.8126 z"
       style="fill:#f21731;fill-opacity:1;stroke:none;stroke-width:1.27917px;stroke-linecap:butt;stroke-linejoin:miter;stroke-opacity:1" />
    <path
       style="fill:#ffffff;fill-opacity:1;stroke:none;stroke-width:0.511668px;stroke-linecap:butt;stroke-linejoin:miter;stroke-opacity:1"
       d="m 681.41549,299.26786 h 9.525 v 476.25 h -9.525 z"
       id="path1079"
       inkscape:connector-curvature="0"
       sodipodi:nodetypes="ccccc" />
    <path
       sodipodi:nodetypes="cccccccccccccccccccccccc"
       inkscape:connector-curvature="0"
       id="path2"
       d="M 681.41549,775.51787 V 299.26786 h -198.4375 l -59.53124,23.8126 59.53124,23.81231 -59.53124,23.8126 59.53124,23.8126 -59.53124,23.8123 59.53124,23.8126 -59.53124,23.8126 59.53124,23.8123 -59.53124,23.8126 59.53124,23.8123 -59.53124,23.8126 59.53124,23.8127 -59.53124,23.8123 59.53124,23.8126 -59.53124,23.8126 59.53124,23.8123 -59.53124,23.8126 59.53124,23.8126 -59.53124,23.8123 59.53124,23.8126 z"
       style="fill:#ffffff;fill-opacity:1;stroke:none;stroke-width:1.27917px;stroke-linecap:butt;stroke-linejoin:miter;stroke-opacity:1" />
  </g>
</svg>
