<?xml version="1.0" encoding="UTF-8" standalone="no"?>
<!-- Created with Inkscape (http://www.inkscape.org/) -->

<svg
   width="1800"
   height="1800"
   viewBox="0 0 476.25 476.25001"
   version="1.1"
   id="svg8"
   inkscape:export-filename="C:\Users\厂永刄先生\Documents\GXI3CW2\,pjóŭ\Việt-Nam.png"
   inkscape:export-xdpi="96"
   inkscape:export-ydpi="96"
   inkscape:version="1.3 (0e150ed6c4, 2023-07-21)"
   sodipodi:docname="gt_1939_roundel.svg"
   xmlns:inkscape="http://www.inkscape.org/namespaces/inkscape"
   xmlns:sodipodi="http://sodipodi.sourceforge.net/DTD/sodipodi-0.dtd"
   xmlns="http://www.w3.org/2000/svg"
   xmlns:svg="http://www.w3.org/2000/svg"
   xmlns:rdf="http://www.w3.org/1999/02/22-rdf-syntax-ns#"
   xmlns:cc="http://creativecommons.org/ns#"
   xmlns:dc="http://purl.org/dc/elements/1.1/">
  <defs
     id="defs2" />
  <sodipodi:namedview
     id="base"
     pagecolor="#ffffff"
     bordercolor="#666666"
     borderopacity="1.0"
     inkscape:pageopacity="0.0"
     inkscape:pageshadow="2"
     inkscape:zoom="0.21370339"
     inkscape:cx="811.87295"
     inkscape:cy="905.46061"
     inkscape:document-units="px"
     inkscape:current-layer="layer1"
     showgrid="false"
     units="px"
     fit-margin-top="0"
     fit-margin-left="0"
     fit-margin-right="0"
     fit-margin-bottom="0"
     inkscape:showpageshadow="false"
     inkscape:snap-intersection-paths="true"
     inkscape:object-paths="false"
     inkscape:pagecheckerboard="true"
     inkscape:snap-smooth-nodes="false"
     inkscape:window-width="1920"
     inkscape:window-height="1009"
     inkscape:window-x="-8"
     inkscape:window-y="-8"
     inkscape:window-maximized="1"
     inkscape:object-nodes="true"
     inkscape:snap-nodes="true"
     inkscape:deskcolor="#505050" />
  <metadata
     id="metadata5">
    <rdf:RDF>
      <cc:Work
         rdf:about="">
        <dc:format>image/svg+xml</dc:format>
        <dc:type
           rdf:resource="http://purl.org/dc/dcmitype/StillImage" />
      </cc:Work>
    </rdf:RDF>
  </metadata>
  <g
     inkscape:label="レイヤー 1"
     inkscape:groupmode="layer"
     id="layer1"
     transform="translate(-111.50298,-394.51786)">
    <path
       id="path1"
       style="fill:#00abff;fill-opacity:1;stroke:none;stroke-width:10.5589;stroke-linecap:round;stroke-miterlimit:15.4"
       d="m 587.753,632.64289 a 238.125,238.125 0 0 0 -238.125,-238.125 238.125,238.125 0 0 0 -238.125,238.125 238.125,238.125 0 0 0 238.125,238.125 238.125,238.125 0 0 0 238.125,-238.125 z" />
    <path
       id="path4"
       style="fill:#ffffff;stroke-width:9.525;stroke-linecap:round;stroke-miterlimit:15.4"
       inkscape:transform-center-x="-8.4548648e-06"
       inkscape:transform-center-y="-1.1584543e-05"
       transform="matrix(0.31198577,0,0,0.31198577,2.1715514,1070.6132)"
       d="m 1113.6933,-2167.0709 220.2985,381.6803 440.7005,-0.052 -220.3352,381.8482 220.3352,381.4078 -440.6368,0.058 -220.3623,381.57024 -220.29874,-381.68054 -440.7003,0.053 220.33501,-381.8483 -220.33499,-381.4076 440.63676,-0.058 z"
       sodipodi:nodetypes="ccccccccccccc" />
    <path
       id="path3"
       style="fill:#00abff;fill-opacity:1;stroke:none;stroke-width:5.27945;stroke-linecap:round;stroke-miterlimit:15.4"
       d="M 468.6905,632.6429 A 119.0625,119.0625 0 0 0 349.62801,513.58039 119.0625,119.0625 0 0 0 230.5655,632.6429 119.0625,119.0625 0 0 0 349.62801,751.70539 119.0625,119.0625 0 0 0 468.6905,632.6429 Z" />
  </g>
</svg>
