<?xml version="1.0" encoding="UTF-8" standalone="no"?>
<!-- Created with Inkscape (http://www.inkscape.org/) -->

<svg
   xmlns:dc="http://purl.org/dc/elements/1.1/"
   xmlns:cc="http://creativecommons.org/ns#"
   xmlns:rdf="http://www.w3.org/1999/02/22-rdf-syntax-ns#"
   xmlns:svg="http://www.w3.org/2000/svg"
   xmlns="http://www.w3.org/2000/svg"
   xmlns:sodipodi="http://sodipodi.sourceforge.net/DTD/sodipodi-0.dtd"
   xmlns:inkscape="http://www.inkscape.org/namespaces/inkscape"
   width="3456.0115"
   height="1800.0002"
   viewBox="0 0 914.40303 476.25007"
   version="1.1"
   id="svg8"
   inkscape:export-filename="C:\Users\厂永刄先生\Documents\GXI3CW2\poM̕écèŭ\M̕é\1774 Hopkinson.png"
   inkscape:export-xdpi="96"
   inkscape:export-ydpi="96"
   inkscape:version="0.92.4 (5da689c313, 2019-01-14)"
   sodipodi:docname="1777_(2).svg">
  <defs
     id="defs2" />
  <sodipodi:namedview
     id="base"
     pagecolor="#ffffff"
     bordercolor="#666666"
     borderopacity="1.0"
     inkscape:pageopacity="0.0"
     inkscape:pageshadow="2"
     inkscape:zoom="0.258101"
     inkscape:cx="1728.0057"
     inkscape:cy="900.00019"
     inkscape:document-units="px"
     inkscape:current-layer="layer1"
     showgrid="false"
     units="px"
     fit-margin-top="0"
     fit-margin-left="0"
     fit-margin-right="0"
     fit-margin-bottom="0"
     inkscape:showpageshadow="false"
     inkscape:snap-intersection-paths="true"
     inkscape:object-paths="false"
     inkscape:pagecheckerboard="true"
     inkscape:snap-smooth-nodes="false"
     inkscape:window-width="1366"
     inkscape:window-height="745"
     inkscape:window-x="-8"
     inkscape:window-y="-8"
     inkscape:window-maximized="1"
     inkscape:object-nodes="true"
     inkscape:snap-nodes="true" />
  <metadata
     id="metadata5">
    <rdf:RDF>
      <cc:Work
         rdf:about="">
        <dc:format>image/svg+xml</dc:format>
        <dc:type
           rdf:resource="http://purl.org/dc/dcmitype/StillImage" />
        <dc:title />
      </cc:Work>
    </rdf:RDF>
  </metadata>
  <g
     inkscape:label="レイヤー 1"
     inkscape:groupmode="layer"
     id="layer1"
     transform="translate(112.33452,-299.2678)">
    <path
       sodipodi:nodetypes="ccccc"
       inkscape:connector-curvature="0"
       id="path868"
       d="M 153.63285,519.07549 V 299.26777 l -256.44237,6e-5 v 219.80766 z"
       style="fill:#0a3161;fill-opacity:1;stroke:none;stroke-width:1.9110297px;stroke-linecap:butt;stroke-linejoin:miter;stroke-opacity:1" />
    <path
       style="fill:#ffffff;fill-opacity:1;stroke:none;stroke-width:0.51166773px;stroke-linecap:butt;stroke-linejoin:miter;stroke-opacity:1"
       d="m -102.80952,299.26786 h -9.525 v 476.25 h 9.525 z"
       id="path1079"
       inkscape:connector-curvature="0"
       sodipodi:nodetypes="ccccc" />
    <path
       sodipodi:nodetypes="ccccc"
       inkscape:connector-curvature="0"
       id="path824"
       d="m -102.80952,702.24859 v 36.63462 H 802.0685 v -36.63462 z"
       style="fill:#b31942;fill-opacity:1;stroke:none;stroke-width:2.28030705px;stroke-linecap:butt;stroke-linejoin:miter;stroke-opacity:1" />
    <path
       style="fill:#ffffff;fill-opacity:1;stroke:none;stroke-width:2.28030705px;stroke-linecap:butt;stroke-linejoin:miter;stroke-opacity:1"
       d="m -102.80952,665.61397 v 36.63462 H 802.0685 v -36.63462 z"
       id="path828"
       inkscape:connector-curvature="0"
       sodipodi:nodetypes="ccccc" />
    <path
       style="fill:#b31942;fill-opacity:1;stroke:none;stroke-width:2.28030705px;stroke-linecap:butt;stroke-linejoin:miter;stroke-opacity:1"
       d="m -102.80952,628.97935 v 36.63462 H 802.0685 v -36.63462 z"
       id="path830"
       inkscape:connector-curvature="0"
       sodipodi:nodetypes="ccccc" />
    <path
       sodipodi:nodetypes="ccccc"
       inkscape:connector-curvature="0"
       id="path832"
       d="m -102.80952,592.34473 v 36.63462 H 802.0685 v -36.63462 z"
       style="fill:#ffffff;fill-opacity:1;stroke:none;stroke-width:2.28030705px;stroke-linecap:butt;stroke-linejoin:miter;stroke-opacity:1" />
    <path
       sodipodi:nodetypes="ccccc"
       inkscape:connector-curvature="0"
       id="path834"
       d="m -102.80952,555.71011 v 36.63462 H 802.0685 v -36.63462 z"
       style="fill:#b31942;fill-opacity:1;stroke:none;stroke-width:2.28030705px;stroke-linecap:butt;stroke-linejoin:miter;stroke-opacity:1" />
    <path
       style="fill:#ffffff;fill-opacity:1;stroke:none;stroke-width:2.28030705px;stroke-linecap:butt;stroke-linejoin:miter;stroke-opacity:1"
       d="m -102.80952,519.07549 v 36.63462 H 802.0685 v -36.63462 z"
       id="path836"
       inkscape:connector-curvature="0"
       sodipodi:nodetypes="ccccc" />
    <path
       style="fill:#b31942;fill-opacity:1;stroke:none;stroke-width:2.28030705px;stroke-linecap:butt;stroke-linejoin:miter;stroke-opacity:1"
       d="m 153.63285,482.44087 v 36.63462 H 802.0685 v -36.63462 z"
       id="path838"
       inkscape:connector-curvature="0"
       sodipodi:nodetypes="ccccc" />
    <path
       sodipodi:nodetypes="ccccc"
       inkscape:connector-curvature="0"
       id="path840"
       d="m 153.63285,445.80625 v 36.63462 H 802.0685 v -36.63462 z"
       style="fill:#ffffff;fill-opacity:1;stroke:none;stroke-width:2.28030705px;stroke-linecap:butt;stroke-linejoin:miter;stroke-opacity:1" />
    <path
       sodipodi:nodetypes="ccccc"
       inkscape:connector-curvature="0"
       id="path842"
       d="m 153.63285,409.17163 v 36.63462 H 802.0685 v -36.63462 z"
       style="fill:#b31942;fill-opacity:1;stroke:none;stroke-width:2.28030705px;stroke-linecap:butt;stroke-linejoin:miter;stroke-opacity:1" />
    <path
       sodipodi:nodetypes="ccccc"
       inkscape:connector-curvature="0"
       id="path844"
       d="m 153.63285,372.53701 v 36.63462 H 802.0685 v -36.63462 z"
       style="fill:#ffffff;fill-opacity:1;stroke:none;stroke-width:2.28030705px;stroke-linecap:butt;stroke-linejoin:miter;stroke-opacity:1" />
    <path
       sodipodi:nodetypes="ccccc"
       inkscape:connector-curvature="0"
       id="path846"
       d="m 153.63285,335.90239 v 36.63462 H 802.0685 v -36.63462 z"
       style="fill:#b31942;fill-opacity:1;stroke:none;stroke-width:2.28030705px;stroke-linecap:butt;stroke-linejoin:miter;stroke-opacity:1" />
    <path
       style="fill:#ffffff;fill-opacity:1;stroke:none;stroke-width:2.28030705px;stroke-linecap:butt;stroke-linejoin:miter;stroke-opacity:1"
       d="m 153.63285,299.26777 v 36.63462 H 802.0685 v -36.63462 z"
       id="path848"
       inkscape:connector-curvature="0"
       sodipodi:nodetypes="ccccc" />
    <path
       sodipodi:nodetypes="ccccc"
       inkscape:connector-curvature="0"
       id="path843"
       d="m -102.80952,738.88321 v 36.63462 H 802.0685 v -36.63462 z"
       style="fill:#ffffff;fill-opacity:1;stroke:none;stroke-width:2.28030705px;stroke-linecap:butt;stroke-linejoin:miter;stroke-opacity:1" />
    <path
       style="fill:#ffffff;stroke:none;stroke-width:0.26458332px;stroke-linecap:butt;stroke-linejoin:miter;stroke-opacity:1;fill-opacity:1"
       d="m 22.378889,403.91879 -11.318414,-3.03276 8.285657,8.28566 -8.285657,8.28566 11.318417,-3.03276 3.032765,11.31842 3.032758,-11.31842 11.318424,3.03276 -8.285664,-8.28566 8.285665,-8.28566 -11.318425,3.03276 -3.032757,-11.31842 z"
       id="path863"
       inkscape:connector-curvature="0"
       sodipodi:nodetypes="ccccccccccccc" />
    <path
       sodipodi:nodetypes="ccccccccccccc"
       inkscape:connector-curvature="0"
       id="path865"
       d="m 65.119293,367.28421 -11.318414,-3.03276 8.285657,8.28566 -8.285657,8.28566 11.318417,-3.03276 3.032765,11.31842 3.032758,-11.31842 11.318424,3.03276 -8.285664,-8.28566 8.285665,-8.28566 -11.318425,3.03276 -3.032757,-11.31842 z"
       style="fill:#ffffff;fill-opacity:1;stroke:none;stroke-width:0.26458332px;stroke-linecap:butt;stroke-linejoin:miter;stroke-opacity:1" />
    <path
       style="fill:#ffffff;fill-opacity:1;stroke:none;stroke-width:0.26458332px;stroke-linecap:butt;stroke-linejoin:miter;stroke-opacity:1"
       d="m 107.85968,330.64957 -11.318414,-3.03276 8.285654,8.28566 -8.285654,8.28566 11.318414,-3.03276 3.03277,11.31842 3.03276,-11.31842 11.31842,3.03276 -8.28566,-8.28566 8.28566,-8.28566 -11.31842,3.03276 -3.03276,-11.31842 z"
       id="path867"
       inkscape:connector-curvature="0"
       sodipodi:nodetypes="ccccccccccccc" />
    <path
       sodipodi:nodetypes="ccccccccccccc"
       inkscape:connector-curvature="0"
       id="path869"
       d="m -20.361498,440.5534 -11.318414,-3.03276 8.285657,8.28566 -8.285657,8.28566 11.318417,-3.03276 3.032765,11.31842 3.032758,-11.31842 11.3184239,3.03276 -8.2856639,-8.28566 8.2856649,-8.28566 -11.3184249,3.03276 -3.032757,-11.31842 z"
       style="fill:#ffffff;fill-opacity:1;stroke:none;stroke-width:0.26458332px;stroke-linecap:butt;stroke-linejoin:miter;stroke-opacity:1" />
    <path
       style="fill:#ffffff;fill-opacity:1;stroke:none;stroke-width:0.26458332px;stroke-linecap:butt;stroke-linejoin:miter;stroke-opacity:1"
       d="m -63.101887,477.18799 -11.318414,-3.03276 8.285657,8.28566 -8.285657,8.28566 11.318417,-3.03276 3.032765,11.31842 3.032758,-11.31842 11.318424,3.03276 -8.285664,-8.28566 8.285665,-8.28566 -11.318425,3.03276 -3.032757,-11.31842 z"
       id="path871"
       inkscape:connector-curvature="0"
       sodipodi:nodetypes="ccccccccccccc" />
    <path
       sodipodi:nodetypes="ccccccccccccc"
       inkscape:connector-curvature="0"
       id="path873"
       d="m 22.378889,330.64957 -11.318414,-3.03276 8.285657,8.28566 -8.285657,8.28566 11.318417,-3.03276 3.032765,11.31842 3.032758,-11.31842 11.318424,3.03276 -8.285664,-8.28566 8.285665,-8.28566 -11.318425,3.03276 -3.032757,-11.31842 z"
       style="fill:#ffffff;fill-opacity:1;stroke:none;stroke-width:0.26458332px;stroke-linecap:butt;stroke-linejoin:miter;stroke-opacity:1" />
    <path
       sodipodi:nodetypes="ccccccccccccc"
       inkscape:connector-curvature="0"
       id="path875"
       d="m -63.101887,330.64957 -11.318414,-3.03276 8.285657,8.28566 -8.285657,8.28566 11.318417,-3.03276 3.032765,11.31842 3.032758,-11.31842 11.318424,3.03276 -8.285664,-8.28566 8.285665,-8.28566 -11.318425,3.03276 -3.032757,-11.31842 z"
       style="fill:#ffffff;fill-opacity:1;stroke:none;stroke-width:0.26458332px;stroke-linecap:butt;stroke-linejoin:miter;stroke-opacity:1" />
    <path
       sodipodi:nodetypes="ccccccccccccc"
       inkscape:connector-curvature="0"
       id="path877"
       d="m 107.85968,403.91879 -11.318414,-3.03276 8.285654,8.28566 -8.285654,8.28566 11.318414,-3.03276 3.03277,11.31842 3.03276,-11.31842 11.31842,3.03276 -8.28566,-8.28566 8.28566,-8.28566 -11.31842,3.03276 -3.03276,-11.31842 z"
       style="fill:#ffffff;fill-opacity:1;stroke:none;stroke-width:0.26458332px;stroke-linecap:butt;stroke-linejoin:miter;stroke-opacity:1" />
    <path
       style="fill:#ffffff;fill-opacity:1;stroke:none;stroke-width:0.26458332px;stroke-linecap:butt;stroke-linejoin:miter;stroke-opacity:1"
       d="m -63.101887,403.91879 -11.318414,-3.03276 8.285657,8.28566 -8.285657,8.28566 11.318417,-3.03276 3.032765,11.31842 3.032758,-11.31842 11.318424,3.03276 -8.285664,-8.28566 8.285665,-8.28566 -11.318425,3.03276 -3.032757,-11.31842 z"
       id="path879"
       inkscape:connector-curvature="0"
       sodipodi:nodetypes="ccccccccccccc" />
    <path
       sodipodi:nodetypes="ccccccccccccc"
       inkscape:connector-curvature="0"
       id="path881"
       d="m 22.378889,477.18799 -11.318414,-3.03276 8.285657,8.28566 -8.285657,8.28566 11.318417,-3.03276 3.032765,11.31842 3.032758,-11.31842 11.318424,3.03276 -8.285664,-8.28566 8.285665,-8.28566 -11.318425,3.03276 -3.032757,-11.31842 z"
       style="fill:#ffffff;fill-opacity:1;stroke:none;stroke-width:0.26458332px;stroke-linecap:butt;stroke-linejoin:miter;stroke-opacity:1" />
    <path
       style="fill:#ffffff;fill-opacity:1;stroke:none;stroke-width:0.26458332px;stroke-linecap:butt;stroke-linejoin:miter;stroke-opacity:1"
       d="m 107.85968,477.18799 -11.318414,-3.03276 8.285654,8.28566 -8.285654,8.28566 11.318414,-3.03276 3.03277,11.31842 3.03276,-11.31842 11.31842,3.03276 -8.28566,-8.28566 8.28566,-8.28566 -11.31842,3.03276 -3.03276,-11.31842 z"
       id="path883"
       inkscape:connector-curvature="0"
       sodipodi:nodetypes="ccccccccccccc" />
    <path
       style="fill:#ffffff;fill-opacity:1;stroke:none;stroke-width:0.26458332px;stroke-linecap:butt;stroke-linejoin:miter;stroke-opacity:1"
       d="m -20.361498,367.28421 -11.318414,-3.03276 8.285657,8.28566 -8.285657,8.28566 11.318417,-3.03276 3.032765,11.31842 3.032758,-11.31842 11.3184239,3.03276 -8.2856639,-8.28566 8.2856649,-8.28566 -11.3184249,3.03276 -3.032757,-11.31842 z"
       id="path885"
       inkscape:connector-curvature="0"
       sodipodi:nodetypes="ccccccccccccc" />
    <path
       style="fill:#ffffff;fill-opacity:1;stroke:none;stroke-width:0.26458332px;stroke-linecap:butt;stroke-linejoin:miter;stroke-opacity:1"
       d="m 65.119293,440.5534 -11.318414,-3.03276 8.285657,8.28566 -8.285657,8.28566 11.318417,-3.03276 3.032765,11.31842 3.032758,-11.31842 11.318424,3.03276 -8.285664,-8.28566 8.285665,-8.28566 -11.318425,3.03276 -3.032757,-11.31842 z"
       id="path887"
       inkscape:connector-curvature="0"
       sodipodi:nodetypes="ccccccccccccc" />
  </g>
</svg>
