<?xml version="1.0" encoding="UTF-8" standalone="no"?>
<!-- Created with Inkscape (http://www.inkscape.org/) -->

<svg
   width="3456.0115"
   height="1800.0002"
   viewBox="0 0 914.40302 476.25007"
   version="1.1"
   id="svg8"
   inkscape:export-filename="C:\Users\厂永刄先生\Documents\GXI3CW2\poM̕écèŭ\M̕é\11960年㋆㏣以來.png"
   inkscape:export-xdpi="96"
   inkscape:export-ydpi="96"
   inkscape:version="1.3 (0e150ed6c4, 2023-07-21)"
   sodipodi:docname="1819.svg"
   xmlns:inkscape="http://www.inkscape.org/namespaces/inkscape"
   xmlns:sodipodi="http://sodipodi.sourceforge.net/DTD/sodipodi-0.dtd"
   xmlns="http://www.w3.org/2000/svg"
   xmlns:svg="http://www.w3.org/2000/svg"
   xmlns:rdf="http://www.w3.org/1999/02/22-rdf-syntax-ns#"
   xmlns:cc="http://creativecommons.org/ns#"
   xmlns:dc="http://purl.org/dc/elements/1.1/">
  <defs
     id="defs2" />
  <sodipodi:namedview
     id="base"
     pagecolor="#ffffff"
     bordercolor="#666666"
     borderopacity="1.0"
     inkscape:pageopacity="0.0"
     inkscape:pageshadow="2"
     inkscape:zoom="0.19843882"
     inkscape:cx="1340.4635"
     inkscape:cy="1312.7472"
     inkscape:document-units="px"
     inkscape:current-layer="layer1"
     showgrid="false"
     units="px"
     fit-margin-top="0"
     fit-margin-left="0"
     fit-margin-right="0"
     fit-margin-bottom="0"
     inkscape:showpageshadow="false"
     inkscape:snap-intersection-paths="true"
     inkscape:object-paths="false"
     inkscape:pagecheckerboard="true"
     inkscape:snap-smooth-nodes="false"
     inkscape:window-width="1920"
     inkscape:window-height="1051"
     inkscape:window-x="-9"
     inkscape:window-y="-9"
     inkscape:window-maximized="1"
     inkscape:object-nodes="true"
     inkscape:snap-nodes="true"
     inkscape:deskcolor="#505050" />
  <metadata
     id="metadata5">
    <rdf:RDF>
      <cc:Work
         rdf:about="">
        <dc:format>image/svg+xml</dc:format>
        <dc:type
           rdf:resource="http://purl.org/dc/dcmitype/StillImage" />
      </cc:Work>
    </rdf:RDF>
  </metadata>
  <g
     inkscape:label="レイヤー 1"
     inkscape:groupmode="layer"
     id="layer1"
     transform="translate(112.33452,-299.2678)">
    <path
       sodipodi:nodetypes="ccccc"
       inkscape:connector-curvature="0"
       id="path868"
       d="M 153.63285,519.07552 V 299.2678 l -256.44237,6e-5 v 219.80766 z"
       style="fill:#0a3161;fill-opacity:1;stroke:none;stroke-width:1.91103px;stroke-linecap:butt;stroke-linejoin:miter;stroke-opacity:1" />
    <path
       sodipodi:nodetypes="ccccc"
       inkscape:connector-curvature="0"
       id="path824"
       d="m -102.80952,702.24862 v 36.63462 H 802.0685 v -36.63462 z"
       style="fill:#b31942;fill-opacity:1;stroke:none;stroke-width:2.28031px;stroke-linecap:butt;stroke-linejoin:miter;stroke-opacity:1" />
    <path
       style="fill:#ffffff;fill-opacity:1;stroke:none;stroke-width:2.28031px;stroke-linecap:butt;stroke-linejoin:miter;stroke-opacity:1"
       d="m -102.80952,665.614 v 36.63462 H 802.0685 V 665.614 Z"
       id="path828"
       inkscape:connector-curvature="0"
       sodipodi:nodetypes="ccccc" />
    <path
       style="fill:#b31942;fill-opacity:1;stroke:none;stroke-width:2.28031px;stroke-linecap:butt;stroke-linejoin:miter;stroke-opacity:1"
       d="M -102.80952,628.97938 V 665.614 H 802.0685 v -36.63462 z"
       id="path830"
       inkscape:connector-curvature="0"
       sodipodi:nodetypes="ccccc" />
    <path
       sodipodi:nodetypes="ccccc"
       inkscape:connector-curvature="0"
       id="path832"
       d="m -102.80952,592.34476 v 36.63462 H 802.0685 v -36.63462 z"
       style="fill:#ffffff;fill-opacity:1;stroke:none;stroke-width:2.28031px;stroke-linecap:butt;stroke-linejoin:miter;stroke-opacity:1" />
    <path
       sodipodi:nodetypes="ccccc"
       inkscape:connector-curvature="0"
       id="path834"
       d="m -102.80952,555.71014 v 36.63462 H 802.0685 v -36.63462 z"
       style="fill:#b31942;fill-opacity:1;stroke:none;stroke-width:2.28031px;stroke-linecap:butt;stroke-linejoin:miter;stroke-opacity:1" />
    <path
       style="fill:#ffffff;fill-opacity:1;stroke:none;stroke-width:2.28031px;stroke-linecap:butt;stroke-linejoin:miter;stroke-opacity:1"
       d="m -102.80952,519.07552 v 36.63462 H 802.0685 v -36.63462 z"
       id="path836"
       inkscape:connector-curvature="0"
       sodipodi:nodetypes="ccccc" />
    <path
       style="fill:#b31942;fill-opacity:1;stroke:none;stroke-width:2.28031px;stroke-linecap:butt;stroke-linejoin:miter;stroke-opacity:1"
       d="m 153.63285,482.4409 v 36.63462 H 802.0685 V 482.4409 Z"
       id="path838"
       inkscape:connector-curvature="0"
       sodipodi:nodetypes="ccccc" />
    <path
       sodipodi:nodetypes="ccccc"
       inkscape:connector-curvature="0"
       id="path840"
       d="M 153.63285,445.80628 V 482.4409 H 802.0685 v -36.63462 z"
       style="fill:#ffffff;fill-opacity:1;stroke:none;stroke-width:2.28031px;stroke-linecap:butt;stroke-linejoin:miter;stroke-opacity:1" />
    <path
       sodipodi:nodetypes="ccccc"
       inkscape:connector-curvature="0"
       id="path842"
       d="m 153.63285,409.17166 v 36.63462 H 802.0685 v -36.63462 z"
       style="fill:#b31942;fill-opacity:1;stroke:none;stroke-width:2.28031px;stroke-linecap:butt;stroke-linejoin:miter;stroke-opacity:1" />
    <path
       sodipodi:nodetypes="ccccc"
       inkscape:connector-curvature="0"
       id="path844"
       d="m 153.63285,372.53704 v 36.63462 H 802.0685 v -36.63462 z"
       style="fill:#ffffff;fill-opacity:1;stroke:none;stroke-width:2.28031px;stroke-linecap:butt;stroke-linejoin:miter;stroke-opacity:1" />
    <path
       sodipodi:nodetypes="ccccc"
       inkscape:connector-curvature="0"
       id="path846"
       d="m 153.63285,335.90242 v 36.63462 H 802.0685 v -36.63462 z"
       style="fill:#b31942;fill-opacity:1;stroke:none;stroke-width:2.28031px;stroke-linecap:butt;stroke-linejoin:miter;stroke-opacity:1" />
    <path
       style="fill:#ffffff;fill-opacity:1;stroke:none;stroke-width:2.28031px;stroke-linecap:butt;stroke-linejoin:miter;stroke-opacity:1"
       d="m 153.63285,299.2678 v 36.63462 H 802.0685 V 299.2678 Z"
       id="path848"
       inkscape:connector-curvature="0"
       sodipodi:nodetypes="ccccc" />
    <path
       sodipodi:nodetypes="ccccc"
       inkscape:connector-curvature="0"
       id="path843"
       d="m -102.80952,738.88324 v 36.63462 H 802.0685 v -36.63462 z"
       style="fill:#ffffff;fill-opacity:1;stroke:none;stroke-width:2.28031px;stroke-linecap:butt;stroke-linejoin:miter;stroke-opacity:1" />
    <path
       style="fill:#ffffff;fill-opacity:1;stroke:none;stroke-width:0.511668px;stroke-linecap:butt;stroke-linejoin:miter;stroke-opacity:1"
       d="m -102.80952,299.26786 h -9.525 v 476.25 h 9.525 z"
       id="path1079"
       inkscape:connector-curvature="0"
       sodipodi:nodetypes="ccccc" />
    <g
       id="g31"
       transform="translate(18.317371)">
      <path
         sodipodi:nodetypes="ccccccccccc"
         inkscape:connector-curvature="0"
         id="path1015"
         d="m 7.094298,329.70934 -6.269712,4.55521 2.394819,-7.37049 -6.269714,-4.5552 h 7.749788 l 2.394798,-7.37049 2.394827,7.37049 h 7.74978 l -6.269714,4.55521 2.394821,7.37048 z"
         style="fill:#ffffff;fill-opacity:1;stroke:none;stroke-width:0.192592px;stroke-linecap:butt;stroke-linejoin:miter;stroke-opacity:1" />
      <path
         style="fill:#ffffff;fill-opacity:1;stroke:none;stroke-width:0.192592px;stroke-linecap:butt;stroke-linejoin:miter;stroke-opacity:1"
         d="m 0.674592,357.93226 4.55521,-6.26971 -7.3705,2.39482 -4.5552,-6.26972 v 7.74979 l -7.37048,2.3948 7.37048,2.39483 v 7.74978 l 4.55521,-6.26972 7.37049,2.39482 z"
         id="path1059"
         inkscape:connector-curvature="0"
         sodipodi:nodetypes="ccccccccccc" />
      <path
         sodipodi:nodetypes="ccccccccccc"
         inkscape:connector-curvature="0"
         id="path1061-6"
         d="m 7.094292,423.19127 6.269717,4.55521 -2.394823,-7.3705 6.269717,-4.5552 H 9.489114 l -2.394797,-7.37048 -2.394831,7.37048 h -7.749779 l 6.269716,4.55521 -2.394823,7.37049 z"
         style="fill:#ffffff;fill-opacity:1;stroke:none;stroke-width:0.192592px;stroke-linecap:butt;stroke-linejoin:miter;stroke-opacity:1" />
      <path
         sodipodi:nodetypes="ccccccccccc"
         inkscape:connector-curvature="0"
         id="path3"
         d="m -13.893722,386.15515 6.269714,-4.55521 -2.394819,7.37049 6.269714,4.5552 h -7.749788 l -2.394798,7.37049 -2.394827,-7.37049 h -7.749781 l 6.269713,-4.55521 -2.394819,-7.37048 z"
         style="fill:#ffffff;fill-opacity:1;stroke:none;stroke-width:0.192592px;stroke-linecap:butt;stroke-linejoin:miter;stroke-opacity:1" />
      <path
         sodipodi:nodetypes="ccccccccccc"
         inkscape:connector-curvature="0"
         id="path8"
         d="m -77.937399,391.48849 2.394815,7.37049 -6.269713,-4.55522 -6.269701,4.55522 2.394816,-7.37049 -6.269719,-4.55519 7.749795,-10e-6 2.394814,-7.37048 2.394814,7.37049 7.749783,-10e-6 z"
         style="fill:#ffffff;fill-opacity:1;stroke:none;stroke-width:0.192592px;stroke-linecap:butt;stroke-linejoin:miter;stroke-opacity:1" />
      <path
         style="fill:#ffffff;fill-opacity:1;stroke:none;stroke-width:0.192592px;stroke-linecap:butt;stroke-linejoin:miter;stroke-opacity:1"
         d="m -53.079605,406.31535 -4.555211,-6.26971 -10e-7,7.74981 -7.370492,2.3948 7.370488,2.39482 -1.3e-5,7.74977 4.555222,-6.2697 7.370479,2.39482 -4.555221,-6.26972 4.555216,-6.26971 z"
         id="path9"
         inkscape:connector-curvature="0"
         sodipodi:nodetypes="ccccccccccc" />
      <path
         sodipodi:nodetypes="ccccccccccc"
         inkscape:connector-curvature="0"
         id="path11"
         d="m -30.739898,428.892 -2.394814,-7.37049 6.269712,4.55521 6.269701,-4.55522 -2.394816,7.37049 6.269719,4.55519 -7.749794,10e-6 -2.394814,7.37048 -2.394815,-7.37048 h -7.749783 z"
         style="fill:#ffffff;fill-opacity:1;stroke:none;stroke-width:0.192592px;stroke-linecap:butt;stroke-linejoin:miter;stroke-opacity:1" />
      <path
         style="fill:#ffffff;fill-opacity:1;stroke:none;stroke-width:0.192592px;stroke-linecap:butt;stroke-linejoin:miter;stroke-opacity:1"
         d="m -49.112013,394.10436 -7.370486,2.39482 4.555219,-6.26973 -4.555223,-6.2697 7.370488,2.39482 4.555194,-6.26971 1.5e-5,7.74978 7.370478,2.39482 -7.370495,2.39481 3e-6,7.74979 z"
         id="path12"
         inkscape:connector-curvature="0"
         sodipodi:nodetypes="ccccccccccc" />
      <path
         sodipodi:nodetypes="ccccccccccc"
         inkscape:connector-curvature="0"
         id="path17"
         d="m -45.458186,491.44926 h 7.749791 l -6.26972,4.55521 2.394828,7.37048 -6.269714,-4.55521 -6.269693,4.55522 2.394809,-7.37049 -6.269705,-4.55521 h 7.749791 l 2.394805,-7.37048 z"
         style="fill:#ffffff;fill-opacity:1;stroke:none;stroke-width:0.192592px;stroke-linecap:butt;stroke-linejoin:miter;stroke-opacity:1" />
      <path
         style="fill:#ffffff;fill-opacity:1;stroke:none;stroke-width:0.192592px;stroke-linecap:butt;stroke-linejoin:miter;stroke-opacity:1"
         d="m -23.675524,472.38984 -7.370486,2.39482 7.370507,2.39482 -1.7e-5,7.74979 4.555215,-6.26971 7.370465,2.39482 -4.555198,-6.26972 4.555213,-6.2697 -7.370499,2.39482 -4.555209,-6.26971 z"
         id="path18"
         inkscape:connector-curvature="0"
         sodipodi:nodetypes="ccccccccccc" />
      <path
         sodipodi:nodetypes="ccccccccccc"
         inkscape:connector-curvature="0"
         id="path20"
         d="m 4.699495,458.12009 -7.74979,-1e-5 6.269709,-4.55521 -2.394827,-7.37048 6.269714,4.55521 6.269693,-4.55523 -2.394809,7.3705 6.269705,4.55521 H 9.489108 l -2.394814,7.37048 z"
         style="fill:#ffffff;fill-opacity:1;stroke:none;stroke-width:0.192592px;stroke-linecap:butt;stroke-linejoin:miter;stroke-opacity:1" />
      <path
         style="fill:#ffffff;fill-opacity:1;stroke:none;stroke-width:0.192592px;stroke-linecap:butt;stroke-linejoin:miter;stroke-opacity:1"
         d="m -34.062812,464.84303 4e-6,7.74979 -4.555228,-6.26972 -7.37048,2.39483 4.555215,-6.26971 -4.555216,-6.2697 7.370483,2.3948 4.555212,-6.2697 -8e-6,7.7498 7.370489,2.39481 z"
         id="path21"
         inkscape:connector-curvature="0"
         sodipodi:nodetypes="ccccccccccc" />
      <path
         style="fill:#ffffff;fill-opacity:1;stroke:none;stroke-width:0.192592px;stroke-linecap:butt;stroke-linejoin:miter;stroke-opacity:1"
         d="m 13.513998,357.93226 -4.55521,-6.26971 7.3705,2.39482 4.5552,-6.26972 v 7.74979 l 7.37048,2.3948 -7.37048,2.39483 v 7.74978 l -4.55521,-6.26972 -7.37049,2.39482 z"
         id="path22"
         inkscape:connector-curvature="0"
         sodipodi:nodetypes="ccccccccccc" />
      <path
         sodipodi:nodetypes="ccccccccccc"
         inkscape:connector-curvature="0"
         id="path23"
         d="m 7.094298,423.19127 -6.269717,4.55521 2.394823,-7.3705 -6.269717,-4.5552 h 7.749789 l 2.394797,-7.37048 2.394831,7.37048 h 7.749779 l -6.269716,4.55521 2.394823,7.37049 z"
         style="fill:#ffffff;fill-opacity:1;stroke:none;stroke-width:0.192592px;stroke-linecap:butt;stroke-linejoin:miter;stroke-opacity:1" />
      <path
         sodipodi:nodetypes="ccccccccccc"
         inkscape:connector-curvature="0"
         id="path24"
         d="m 28.082312,386.15515 -6.269714,-4.55521 2.394819,7.37049 -6.269714,4.5552 h 7.749788 l 2.394798,7.37049 2.394827,-7.37049 h 7.749781 l -6.269713,-4.55521 2.394819,-7.37048 z"
         style="fill:#ffffff;fill-opacity:1;stroke:none;stroke-width:0.192592px;stroke-linecap:butt;stroke-linejoin:miter;stroke-opacity:1" />
      <path
         sodipodi:nodetypes="ccccccccccc"
         inkscape:connector-curvature="0"
         id="path25"
         d="m 92.125989,391.48849 -2.394815,7.37049 6.269713,-4.55522 6.269703,4.55522 -2.394818,-7.37049 6.269718,-4.55519 -7.749794,-10e-6 -2.394814,-7.37048 -2.394814,7.37049 -7.749783,-10e-6 z"
         style="fill:#ffffff;fill-opacity:1;stroke:none;stroke-width:0.192592px;stroke-linecap:butt;stroke-linejoin:miter;stroke-opacity:1" />
      <path
         style="fill:#ffffff;fill-opacity:1;stroke:none;stroke-width:0.192592px;stroke-linecap:butt;stroke-linejoin:miter;stroke-opacity:1"
         d="m 67.268195,406.31535 4.555211,-6.26971 10e-7,7.74981 7.370492,2.3948 -7.370488,2.39482 1.3e-5,7.74977 -4.555222,-6.2697 -7.370479,2.39482 4.555221,-6.26972 -4.555216,-6.26971 z"
         id="path26"
         inkscape:connector-curvature="0"
         sodipodi:nodetypes="ccccccccccc" />
      <path
         sodipodi:nodetypes="ccccccccccc"
         inkscape:connector-curvature="0"
         id="path27"
         d="m 44.928488,428.892 2.394814,-7.37049 -6.269712,4.55521 -6.269701,-4.55522 2.394816,7.37049 -6.269719,4.55519 7.749794,10e-6 2.394814,7.37048 2.394815,-7.37048 h 7.749783 z"
         style="fill:#ffffff;fill-opacity:1;stroke:none;stroke-width:0.192592px;stroke-linecap:butt;stroke-linejoin:miter;stroke-opacity:1" />
      <path
         style="fill:#ffffff;fill-opacity:1;stroke:none;stroke-width:0.192592px;stroke-linecap:butt;stroke-linejoin:miter;stroke-opacity:1"
         d="m 63.300603,394.10436 7.370486,2.39482 -4.555219,-6.26973 4.555223,-6.2697 -7.370488,2.39482 -4.555194,-6.26971 -1.5e-5,7.74978 -7.370478,2.39482 7.370495,2.39481 -3e-6,7.74979 z"
         id="path28"
         inkscape:connector-curvature="0"
         sodipodi:nodetypes="ccccccccccc" />
      <path
         sodipodi:nodetypes="ccccccccccc"
         inkscape:connector-curvature="0"
         id="path29"
         d="m 59.646776,491.44926 h -7.749791 l 6.26972,4.55521 -2.394828,7.37048 6.269714,-4.55521 6.269693,4.55522 -2.394809,-7.37049 6.269705,-4.55521 h -7.749791 l -2.394805,-7.37048 z"
         style="fill:#ffffff;fill-opacity:1;stroke:none;stroke-width:0.192592px;stroke-linecap:butt;stroke-linejoin:miter;stroke-opacity:1" />
      <path
         style="fill:#ffffff;fill-opacity:1;stroke:none;stroke-width:0.192592px;stroke-linecap:butt;stroke-linejoin:miter;stroke-opacity:1"
         d="m 37.864114,472.38984 7.370486,2.39482 -7.370507,2.39482 1.7e-5,7.74979 -4.555215,-6.26971 -7.370465,2.39482 4.555198,-6.26972 -4.555213,-6.2697 7.370499,2.39482 4.555209,-6.26971 z"
         id="path30"
         inkscape:connector-curvature="0"
         sodipodi:nodetypes="ccccccccccc" />
      <path
         style="fill:#ffffff;fill-opacity:1;stroke:none;stroke-width:0.192592px;stroke-linecap:butt;stroke-linejoin:miter;stroke-opacity:1"
         d="m 48.251402,464.84303 -4e-6,7.74979 4.555228,-6.26972 7.37048,2.39483 -4.555215,-6.26971 4.555216,-6.2697 -7.370483,2.3948 -4.555212,-6.2697 8e-6,7.7498 -7.370489,2.39481 z"
         id="path31"
         inkscape:connector-curvature="0"
         sodipodi:nodetypes="ccccccccccc" />
    </g>
  </g>
</svg>
