<?xml version="1.0" encoding="UTF-8" standalone="no"?>
<!-- Created with Inkscape (http://www.inkscape.org/) -->

<svg
   xmlns:dc="http://purl.org/dc/elements/1.1/"
   xmlns:cc="http://creativecommons.org/ns#"
   xmlns:rdf="http://www.w3.org/1999/02/22-rdf-syntax-ns#"
   xmlns:svg="http://www.w3.org/2000/svg"
   xmlns="http://www.w3.org/2000/svg"
   xmlns:sodipodi="http://sodipodi.sourceforge.net/DTD/sodipodi-0.dtd"
   xmlns:inkscape="http://www.inkscape.org/namespaces/inkscape"
   width="3456.0115"
   height="1800.0002"
   viewBox="0 0 914.40303 476.25007"
   version="1.1"
   id="svg8"
   inkscape:export-filename="C:\Users\厂永刄先生\Documents\GXI3CW2\poM̕écèŭ\M̕é\1820.png"
   inkscape:export-xdpi="96"
   inkscape:export-ydpi="96"
   inkscape:version="0.92.4 (5da689c313, 2019-01-14)"
   sodipodi:docname="1820_(2).svg">
  <defs
     id="defs2" />
  <sodipodi:namedview
     id="base"
     pagecolor="#ffffff"
     bordercolor="#666666"
     borderopacity="1.0"
     inkscape:pageopacity="0.0"
     inkscape:pageshadow="2"
     inkscape:zoom="0.56126973"
     inkscape:cx="520.61548"
     inkscape:cy="1315.3848"
     inkscape:document-units="px"
     inkscape:current-layer="layer1"
     showgrid="false"
     units="px"
     fit-margin-top="0"
     fit-margin-left="0"
     fit-margin-right="0"
     fit-margin-bottom="0"
     inkscape:showpageshadow="false"
     inkscape:snap-intersection-paths="true"
     inkscape:object-paths="false"
     inkscape:pagecheckerboard="true"
     inkscape:snap-smooth-nodes="true"
     inkscape:window-width="1366"
     inkscape:window-height="745"
     inkscape:window-x="-8"
     inkscape:window-y="-8"
     inkscape:window-maximized="1"
     inkscape:object-nodes="true"
     inkscape:snap-nodes="true" />
  <metadata
     id="metadata5">
    <rdf:RDF>
      <cc:Work
         rdf:about="">
        <dc:format>image/svg+xml</dc:format>
        <dc:type
           rdf:resource="http://purl.org/dc/dcmitype/StillImage" />
        <dc:title />
      </cc:Work>
    </rdf:RDF>
  </metadata>
  <g
     inkscape:label="レイヤー 1"
     inkscape:groupmode="layer"
     id="layer1"
     transform="translate(112.33452,-299.2678)">
    <path
       sodipodi:nodetypes="ccccc"
       inkscape:connector-curvature="0"
       id="path868"
       d="m 153.63284,299.26778 v 256.44236 l -256.44236,-8e-5 V 299.26778 Z"
       style="fill:#0a3161;fill-opacity:1;stroke:none;stroke-width:2.69729114px;stroke-linecap:butt;stroke-linejoin:miter;stroke-opacity:1" />
    <path
       style="fill:#ffffff;fill-opacity:1;stroke:none;stroke-width:0.26458332px;stroke-linecap:butt;stroke-linejoin:miter;stroke-opacity:1"
       d="m 25.411645,389.50203 8.61335,6.25796 -3.29001,-10.1256 8.613349,-6.25795 H 28.701655 l -3.28998,-10.12559 -3.29002,10.12559 h -10.64667 l 8.61335,6.25796 -3.29001,10.12559 z"
       id="path1001"
       inkscape:connector-curvature="0"
       sodipodi:nodetypes="ccccccccccc" />
    <path
       style="fill:#ffffff;fill-opacity:1;stroke:none;stroke-width:0.51166773px;stroke-linecap:butt;stroke-linejoin:miter;stroke-opacity:1"
       d="m -102.80952,299.26786 h -9.525 v 476.25 h 9.525 z"
       id="path1079"
       inkscape:connector-curvature="0"
       sodipodi:nodetypes="ccccc" />
    <path
       sodipodi:nodetypes="ccccc"
       inkscape:connector-curvature="0"
       id="path824"
       d="m -102.80952,738.88324 v 36.63462 H 802.0685 v -36.63462 z"
       style="fill:#b31942;fill-opacity:1;stroke:none;stroke-width:2.28030705px;stroke-linecap:butt;stroke-linejoin:miter;stroke-opacity:1" />
    <path
       style="fill:#ffffff;fill-opacity:1;stroke:none;stroke-width:2.28030705px;stroke-linecap:butt;stroke-linejoin:miter;stroke-opacity:1"
       d="m -102.80952,702.24862 v 36.63462 H 802.0685 v -36.63462 z"
       id="path828"
       inkscape:connector-curvature="0"
       sodipodi:nodetypes="ccccc" />
    <path
       style="fill:#b31942;fill-opacity:1;stroke:none;stroke-width:2.28030705px;stroke-linecap:butt;stroke-linejoin:miter;stroke-opacity:1"
       d="m -102.80952,665.614 v 36.63462 H 802.0685 V 665.614 Z"
       id="path830"
       inkscape:connector-curvature="0"
       sodipodi:nodetypes="ccccc" />
    <path
       sodipodi:nodetypes="ccccc"
       inkscape:connector-curvature="0"
       id="path832"
       d="M -102.80952,628.97938 V 665.614 H 802.0685 v -36.63462 z"
       style="fill:#ffffff;fill-opacity:1;stroke:none;stroke-width:2.28030705px;stroke-linecap:butt;stroke-linejoin:miter;stroke-opacity:1" />
    <path
       sodipodi:nodetypes="ccccc"
       inkscape:connector-curvature="0"
       id="path834"
       d="m -102.80952,592.34476 v 36.63462 H 802.0685 v -36.63462 z"
       style="fill:#b31942;fill-opacity:1;stroke:none;stroke-width:2.28030705px;stroke-linecap:butt;stroke-linejoin:miter;stroke-opacity:1" />
    <path
       style="fill:#ffffff;fill-opacity:1;stroke:none;stroke-width:2.28030705px;stroke-linecap:butt;stroke-linejoin:miter;stroke-opacity:1"
       d="m -102.80952,555.71014 v 36.63462 H 802.0685 v -36.63462 z"
       id="path836"
       inkscape:connector-curvature="0"
       sodipodi:nodetypes="ccccc" />
    <path
       style="fill:#b31942;fill-opacity:1;stroke:none;stroke-width:2.28030705px;stroke-linecap:butt;stroke-linejoin:miter;stroke-opacity:1"
       d="m 153.63284,519.07552 v 36.63462 H 802.0685 v -36.63462 z"
       id="path838"
       inkscape:connector-curvature="0"
       sodipodi:nodetypes="ccccc" />
    <path
       sodipodi:nodetypes="ccccc"
       inkscape:connector-curvature="0"
       id="path840"
       d="m 153.63284,482.4409 v 36.63462 H 802.0685 V 482.4409 Z"
       style="fill:#ffffff;fill-opacity:1;stroke:none;stroke-width:2.28030705px;stroke-linecap:butt;stroke-linejoin:miter;stroke-opacity:1" />
    <path
       sodipodi:nodetypes="ccccc"
       inkscape:connector-curvature="0"
       id="path842"
       d="M 153.63284,445.80628 V 482.4409 H 802.0685 v -36.63462 z"
       style="fill:#b31942;fill-opacity:1;stroke:none;stroke-width:2.28030705px;stroke-linecap:butt;stroke-linejoin:miter;stroke-opacity:1" />
    <path
       sodipodi:nodetypes="ccccc"
       inkscape:connector-curvature="0"
       id="path844"
       d="m 153.63284,409.17166 v 36.63462 H 802.0685 v -36.63462 z"
       style="fill:#ffffff;fill-opacity:1;stroke:none;stroke-width:2.28030705px;stroke-linecap:butt;stroke-linejoin:miter;stroke-opacity:1" />
    <path
       sodipodi:nodetypes="ccccc"
       inkscape:connector-curvature="0"
       id="path846"
       d="m 153.63284,372.53704 v 36.63462 H 802.0685 v -36.63462 z"
       style="fill:#b31942;fill-opacity:1;stroke:none;stroke-width:2.28030705px;stroke-linecap:butt;stroke-linejoin:miter;stroke-opacity:1" />
    <path
       style="fill:#ffffff;fill-opacity:1;stroke:none;stroke-width:2.28030705px;stroke-linecap:butt;stroke-linejoin:miter;stroke-opacity:1"
       d="m 153.63284,335.90242 v 36.63462 H 802.0685 v -36.63462 z"
       id="path848"
       inkscape:connector-curvature="0"
       sodipodi:nodetypes="ccccc" />
    <path
       style="fill:#b31942;fill-opacity:1;stroke:none;stroke-width:2.28030705px;stroke-linecap:butt;stroke-linejoin:miter;stroke-opacity:1"
       d="m 153.63284,299.2678 v 36.63462 H 802.0685 V 299.2678 Z"
       id="path850"
       inkscape:connector-curvature="0"
       sodipodi:nodetypes="ccccc" />
    <path
       sodipodi:nodetypes="ccccccccccc"
       inkscape:connector-curvature="0"
       id="path942"
       d="m 25.41165,343.33145 8.61335,6.25796 -3.29001,-10.1256 8.61335,-6.25795 H 28.70166 l -3.28998,-10.12559 -3.29002,10.12559 H 11.47499 l 8.61335,6.25797 -3.29001,10.12558 z"
       style="fill:#ffffff;fill-opacity:1;stroke:none;stroke-width:0.26458332px;stroke-linecap:butt;stroke-linejoin:miter;stroke-opacity:1" />
    <path
       style="fill:#ffffff;fill-opacity:1;stroke:none;stroke-width:0.26458332px;stroke-linecap:butt;stroke-linejoin:miter;stroke-opacity:1"
       d="m -13.6983,352.9712 10.53496,1.53832 -7.61876,-7.43683 4.71853,-9.54396 -9.42717,4.94776 -7.61873,-7.43684 1.79243,10.49472 -9.42716,4.94775 10.53497,1.53832 1.79243,10.49471 z"
       id="path946"
       inkscape:connector-curvature="0"
       sodipodi:nodetypes="ccccccccccc" />
    <path
       sodipodi:nodetypes="ccccccccccc"
       inkscape:connector-curvature="0"
       id="path948"
       d="m -43.84863,379.68207 10.04314,-3.53372 -10.20215,-3.04438 -0.25725,-10.64356 -6.048,8.76204 -10.20212,-3.04439 6.46425,8.45963 -6.048,8.76203 10.04314,-3.53372 6.46426,8.45961 z"
       style="fill:#ffffff;fill-opacity:1;stroke:none;stroke-width:0.26458332px;stroke-linecap:butt;stroke-linejoin:miter;stroke-opacity:1" />
    <path
       style="fill:#ffffff;fill-opacity:1;stroke:none;stroke-width:0.26458332px;stroke-linecap:butt;stroke-linejoin:miter;stroke-opacity:1"
       d="m -58.13226,417.34493 7.25055,-7.79623 -10.44834,2.04551 -5.17409,-9.30486 -1.28332,10.56905 -10.44833,2.04549 9.6552,4.48654 -1.28332,10.56904 7.25056,-7.79623 9.65519,4.48652 z"
       id="path950"
       inkscape:connector-curvature="0"
       sodipodi:nodetypes="ccccccccccc" />
    <path
       sodipodi:nodetypes="ccccccccccc"
       inkscape:connector-curvature="0"
       id="path952"
       d="m -53.27699,457.33167 2.79696,-10.27272 -8.30095,6.6668 -8.90562,-5.83452 3.77536,9.95481 -8.30095,6.66678 10.63426,-0.51437 3.77535,9.95481 2.79696,-10.27272 10.63424,-0.51438 z"
       style="fill:#ffffff;fill-opacity:1;stroke:none;stroke-width:0.26458332px;stroke-linecap:butt;stroke-linejoin:miter;stroke-opacity:1" />
    <path
       style="fill:#ffffff;fill-opacity:1;stroke:none;stroke-width:0.26458332px;stroke-linecap:butt;stroke-linejoin:miter;stroke-opacity:1"
       d="m -30.39509,490.48181 -2.29739,-10.39586 -4.25191,9.76081 -10.59697,-1.02758 7.96915,7.06006 -4.25193,9.76078 9.17713,-5.39743 7.96915,7.06005 -2.29739,-10.39585 9.17711,-5.39744 z"
       id="path954"
       inkscape:connector-curvature="0"
       sodipodi:nodetypes="ccccccccccc" />
    <path
       sodipodi:nodetypes="ccccccccccc"
       inkscape:connector-curvature="0"
       id="path956"
       d="m 5.27146,509.20106 -6.86543,-8.13743 0.7712,10.61873 -9.8607,4.01478 10.33731,2.54792 0.77117,10.61871 5.61763,-9.04401 10.3373,2.54792 -6.86543,-8.13742 5.61761,-9.04401 z"
       style="fill:#ffffff;fill-opacity:1;stroke:none;stroke-width:0.26458332px;stroke-linecap:butt;stroke-linejoin:miter;stroke-opacity:1" />
    <path
       sodipodi:nodetypes="ccccccccccc"
       inkscape:connector-curvature="0"
       id="path960"
       d="m 64.52164,352.9712 -10.53497,1.53832 7.61876,-7.43683 -4.71852,-9.54396 9.42716,4.94776 7.61873,-7.43684 -1.79243,10.49472 9.42716,4.94775 -10.53496,1.53832 -1.79244,10.49471 z"
       style="fill:#ffffff;fill-opacity:1;stroke:none;stroke-width:0.26458332px;stroke-linecap:butt;stroke-linejoin:miter;stroke-opacity:1" />
    <path
       style="fill:#ffffff;fill-opacity:1;stroke:none;stroke-width:0.26458332px;stroke-linecap:butt;stroke-linejoin:miter;stroke-opacity:1"
       d="m 94.67197,379.68207 -10.04314,-3.53372 10.20214,-3.04438 0.25725,-10.64356 6.048,8.76204 10.20213,-3.04439 -6.46426,8.45963 6.048,8.76203 -10.04314,-3.53372 -6.46425,8.45961 z"
       id="path962"
       inkscape:connector-curvature="0"
       sodipodi:nodetypes="ccccccccccc" />
    <path
       sodipodi:nodetypes="ccccccccccc"
       inkscape:connector-curvature="0"
       id="path964"
       d="m 108.9556,417.34493 -7.25056,-7.79623 10.44834,2.04551 5.1741,-9.30486 1.28331,10.56905 10.44833,2.04549 -9.6552,4.48654 1.28332,10.56904 -7.25055,-7.79623 -9.6552,4.48652 z"
       style="fill:#ffffff;fill-opacity:1;stroke:none;stroke-width:0.26458332px;stroke-linecap:butt;stroke-linejoin:miter;stroke-opacity:1" />
    <path
       style="fill:#ffffff;fill-opacity:1;stroke:none;stroke-width:0.26458332px;stroke-linecap:butt;stroke-linejoin:miter;stroke-opacity:1"
       d="m 104.10032,457.33167 -2.79696,-10.27272 8.30096,6.6668 8.90561,-5.83452 -3.77536,9.95481 8.30095,6.66678 -10.63425,-0.51437 -3.77536,9.95481 -2.79696,-10.27272 -10.63424,-0.51438 z"
       id="path966"
       inkscape:connector-curvature="0"
       sodipodi:nodetypes="ccccccccccc" />
    <path
       sodipodi:nodetypes="ccccccccccc"
       inkscape:connector-curvature="0"
       id="path968"
       d="m 81.21843,490.48181 2.29739,-10.39586 4.25191,9.76081 10.59697,-1.02758 -7.96915,7.06006 4.25192,9.76078 -9.17713,-5.39743 -7.96914,7.06005 2.29739,-10.39585 -9.17711,-5.39744 z"
       style="fill:#ffffff;fill-opacity:1;stroke:none;stroke-width:0.26458332px;stroke-linecap:butt;stroke-linejoin:miter;stroke-opacity:1" />
    <path
       style="fill:#ffffff;fill-opacity:1;stroke:none;stroke-width:0.26458332px;stroke-linecap:butt;stroke-linejoin:miter;stroke-opacity:1"
       d="m 45.55187,509.20106 6.86543,-8.13743 -0.77119,10.61873 9.86069,4.01478 -10.3373,2.54792 -0.77117,10.61871 -5.61764,-9.04401 -10.33729,2.54792 6.86543,-8.13742 -5.61761,-9.04401 z"
       id="path970"
       inkscape:connector-curvature="0"
       sodipodi:nodetypes="ccccccccccc" />
    <path
       sodipodi:nodetypes="ccccccccccc"
       inkscape:connector-curvature="0"
       id="path904"
       d="m 25.411645,465.47589 8.61335,-6.25796 -3.29001,10.1256 8.613349,6.25795 H 28.701655 l -3.28998,10.12559 -3.29002,-10.12559 h -10.64667 l 8.61335,-6.25796 -3.29001,-10.12559 z"
       style="fill:#ffffff;fill-opacity:1;stroke:none;stroke-width:0.26458332px;stroke-linecap:butt;stroke-linejoin:miter;stroke-opacity:1" />
    <path
       sodipodi:nodetypes="ccccccccccc"
       inkscape:connector-curvature="0"
       id="path906"
       d="m 61.539372,415.75034 -3.290002,10.1256 8.613349,-6.25797 8.613335,6.25797 -3.290004,-10.12559 8.613348,-6.25794 -10.64668,-2e-5 -3.290002,-10.12558 -3.290002,10.1256 -10.646678,-1e-5 z"
       style="fill:#ffffff;fill-opacity:1;stroke:none;stroke-width:0.26458332px;stroke-linecap:butt;stroke-linejoin:miter;stroke-opacity:1" />
    <path
       style="fill:#ffffff;fill-opacity:1;stroke:none;stroke-width:0.26458332px;stroke-linecap:butt;stroke-linejoin:miter;stroke-opacity:1"
       d="m -10.716062,439.22755 8.6133449,6.25797 -10.6466869,0 -3.289993,10.12559 -3.290005,-10.12559 -10.646668,2e-5 8.613337,-6.25797 -3.290002,-10.12559 8.613345,6.25797 8.6133391,-6.25797 z"
       id="path908"
       inkscape:connector-curvature="0"
       sodipodi:nodetypes="ccccccccccc" />
    <path
       style="fill:#ffffff;fill-opacity:1;stroke:none;stroke-width:0.26458332px;stroke-linecap:butt;stroke-linejoin:miter;stroke-opacity:1"
       d="m 47.739831,458.22102 -10.646685,0 8.613355,6.25797 -3.290016,10.12558 8.613341,-6.25796 8.613325,6.25798 -3.289986,-10.12561 8.613333,-6.25795 -10.646685,1e-5 -3.289995,-10.1256 z"
       id="path910"
       inkscape:connector-curvature="0"
       sodipodi:nodetypes="ccccccccccc" />
    <path
       sodipodi:nodetypes="ccccccccccc"
       inkscape:connector-curvature="0"
       id="path912"
       d="m 3.0835202,396.75687 -3.29001321,10.1256 -3.29000719,-10.1256 -10.6466718,1e-5 8.6133406,-6.25796 -3.2900204,-10.12558 8.61335069,6.25795 8.61334181,-6.25795 -3.2900131,10.12559 8.6133514,6.25796 z"
       style="fill:#ffffff;fill-opacity:1;stroke:none;stroke-width:0.26458332px;stroke-linecap:butt;stroke-linejoin:miter;stroke-opacity:1" />
    <path
       sodipodi:nodetypes="ccccccccccc"
       inkscape:connector-curvature="0"
       id="path914"
       d="m 3.0835252,458.22104 -3.2900066,-10.1256 -3.2900101,10.12561 -10.6466695,-2e-5 8.6133422,6.25796 -3.2900288,10.12558 8.61336575,-6.25794 8.61333035,6.25795 -3.2900161,-10.1256 8.6133536,-6.25795 z"
       style="fill:#ffffff;fill-opacity:1;stroke:none;stroke-width:0.26458332px;stroke-linecap:butt;stroke-linejoin:miter;stroke-opacity:1" />
    <path
       style="fill:#ffffff;fill-opacity:1;stroke:none;stroke-width:0.26458332px;stroke-linecap:butt;stroke-linejoin:miter;stroke-opacity:1"
       d="m 47.739847,396.7569 -10.646688,-10e-6 8.61335,-6.25796 -3.290013,-10.12559 8.613343,6.25796 8.613326,-6.25797 -3.289992,10.1256 8.613333,6.25796 -10.646678,-10e-6 -3.290002,10.1256 z"
       id="path916"
       inkscape:connector-curvature="0"
       sodipodi:nodetypes="ccccccccccc" />
    <path
       style="fill:#ffffff;fill-opacity:1;stroke:none;stroke-width:0.26458332px;stroke-linecap:butt;stroke-linejoin:miter;stroke-opacity:1"
       d="m -10.716054,415.75036 8.6133497,-6.25796 -10.6466967,0 -3.289982,-10.12559 -3.290005,10.12559 -10.646674,-3e-5 8.613331,6.25799 -3.289998,10.12558 8.613347,-6.25798 8.6133365,6.25797 z"
       id="path918"
       inkscape:connector-curvature="0"
       sodipodi:nodetypes="ccccccccccc" />
    <path
       sodipodi:nodetypes="ccccccccccc"
       inkscape:connector-curvature="0"
       id="path920"
       d="m 61.539379,439.22758 -3.289998,-10.1256 8.613345,6.25797 8.613339,-6.25797 -3.290005,10.12559 8.613348,6.25794 -10.646682,1e-5 -3.290007,10.12559 -3.289995,-10.1256 -10.646684,1e-5 z"
       style="fill:#ffffff;fill-opacity:1;stroke:none;stroke-width:0.26458332px;stroke-linecap:butt;stroke-linejoin:miter;stroke-opacity:1" />
  </g>
</svg>
