<?xml version="1.0" encoding="UTF-8" standalone="no"?>
<!-- Created with Inkscape (http://www.inkscape.org/) -->

<svg
   xmlns:dc="http://purl.org/dc/elements/1.1/"
   xmlns:cc="http://creativecommons.org/ns#"
   xmlns:rdf="http://www.w3.org/1999/02/22-rdf-syntax-ns#"
   xmlns:svg="http://www.w3.org/2000/svg"
   xmlns="http://www.w3.org/2000/svg"
   xmlns:sodipodi="http://sodipodi.sourceforge.net/DTD/sodipodi-0.dtd"
   xmlns:inkscape="http://www.inkscape.org/namespaces/inkscape"
   width="3456.0115"
   height="1800.0002"
   viewBox="0 0 914.40303 476.25007"
   version="1.1"
   id="svg8"
   inkscape:export-filename="C:\Users\厂永刄先生\Documents\GXI3CW2\poM̕écèŭ\M̕é\11960年㋆㏣以來.png"
   inkscape:export-xdpi="96"
   inkscape:export-ydpi="96"
   inkscape:version="0.92.4 (5da689c313, 2019-01-14)"
   sodipodi:docname="1847.svg">
  <defs
     id="defs2" />
  <sodipodi:namedview
     id="base"
     pagecolor="#ffffff"
     bordercolor="#666666"
     borderopacity="1.0"
     inkscape:pageopacity="0.0"
     inkscape:pageshadow="2"
     inkscape:zoom="0.258101"
     inkscape:cx="1728.0057"
     inkscape:cy="900.00013"
     inkscape:document-units="px"
     inkscape:current-layer="layer1"
     showgrid="false"
     units="px"
     fit-margin-top="0"
     fit-margin-left="0"
     fit-margin-right="0"
     fit-margin-bottom="0"
     inkscape:showpageshadow="false"
     inkscape:snap-intersection-paths="true"
     inkscape:object-paths="false"
     inkscape:pagecheckerboard="true"
     inkscape:snap-smooth-nodes="false"
     inkscape:window-width="1366"
     inkscape:window-height="745"
     inkscape:window-x="-8"
     inkscape:window-y="-8"
     inkscape:window-maximized="1"
     inkscape:object-nodes="true"
     inkscape:snap-nodes="true"
     showguides="true"
     inkscape:guide-bbox="true" />
  <metadata
     id="metadata5">
    <rdf:RDF>
      <cc:Work
         rdf:about="">
        <dc:format>image/svg+xml</dc:format>
        <dc:type
           rdf:resource="http://purl.org/dc/dcmitype/StillImage" />
        <dc:title />
      </cc:Work>
    </rdf:RDF>
  </metadata>
  <g
     inkscape:label="レイヤー 1"
     inkscape:groupmode="layer"
     id="layer1"
     transform="translate(112.33452,-299.2678)">
    <path
       style="fill:#ffffff;fill-opacity:1;stroke:none;stroke-width:0.51166773px;stroke-linecap:butt;stroke-linejoin:miter;stroke-opacity:1"
       d="m -102.80952,299.26786 h -9.525 v 476.25 h 9.525 z"
       id="path1079"
       inkscape:connector-curvature="0"
       sodipodi:nodetypes="ccccc" />
    <path
       sodipodi:nodetypes="ccccc"
       inkscape:connector-curvature="0"
       id="path824"
       d="m -102.80952,738.88324 v 36.63462 H 802.0685 v -36.63462 z"
       style="fill:#b31942;fill-opacity:1;stroke:none;stroke-width:2.28030705px;stroke-linecap:butt;stroke-linejoin:miter;stroke-opacity:1" />
    <path
       style="fill:#ffffff;fill-opacity:1;stroke:none;stroke-width:2.28030705px;stroke-linecap:butt;stroke-linejoin:miter;stroke-opacity:1"
       d="m -102.80952,702.24862 v 36.63462 H 802.0685 v -36.63462 z"
       id="path828"
       inkscape:connector-curvature="0"
       sodipodi:nodetypes="ccccc" />
    <path
       style="fill:#b31942;fill-opacity:1;stroke:none;stroke-width:2.28030705px;stroke-linecap:butt;stroke-linejoin:miter;stroke-opacity:1"
       d="m -102.80952,665.614 v 36.63462 H 802.0685 V 665.614 Z"
       id="path830"
       inkscape:connector-curvature="0"
       sodipodi:nodetypes="ccccc" />
    <path
       sodipodi:nodetypes="ccccc"
       inkscape:connector-curvature="0"
       id="path832"
       d="M -102.80952,628.97938 V 665.614 H 802.0685 v -36.63462 z"
       style="fill:#ffffff;fill-opacity:1;stroke:none;stroke-width:2.28030705px;stroke-linecap:butt;stroke-linejoin:miter;stroke-opacity:1" />
    <path
       sodipodi:nodetypes="ccccc"
       inkscape:connector-curvature="0"
       id="path834"
       d="m -102.80952,592.34476 v 36.63462 H 802.0685 v -36.63462 z"
       style="fill:#b31942;fill-opacity:1;stroke:none;stroke-width:2.28030705px;stroke-linecap:butt;stroke-linejoin:miter;stroke-opacity:1" />
    <path
       style="fill:#ffffff;fill-opacity:1;stroke:none;stroke-width:2.28030705px;stroke-linecap:butt;stroke-linejoin:miter;stroke-opacity:1"
       d="m -102.80952,555.71014 v 36.63462 H 802.0685 v -36.63462 z"
       id="path836"
       inkscape:connector-curvature="0"
       sodipodi:nodetypes="ccccc" />
    <path
       style="fill:#b31942;fill-opacity:1;stroke:none;stroke-width:2.28030705px;stroke-linecap:butt;stroke-linejoin:miter;stroke-opacity:1"
       d="m 259.14169,519.07552 v 36.63462 H 802.0685 v -36.63462 z"
       id="path838"
       inkscape:connector-curvature="0"
       sodipodi:nodetypes="ccccc" />
    <path
       sodipodi:nodetypes="ccccc"
       inkscape:connector-curvature="0"
       id="path840"
       d="m 259.14169,482.4409 v 36.63462 H 802.0685 V 482.4409 Z"
       style="fill:#ffffff;fill-opacity:1;stroke:none;stroke-width:2.28030705px;stroke-linecap:butt;stroke-linejoin:miter;stroke-opacity:1" />
    <path
       sodipodi:nodetypes="ccccc"
       inkscape:connector-curvature="0"
       id="path842"
       d="M 259.14169,445.80628 V 482.4409 H 802.0685 v -36.63462 z"
       style="fill:#b31942;fill-opacity:1;stroke:none;stroke-width:2.28030705px;stroke-linecap:butt;stroke-linejoin:miter;stroke-opacity:1" />
    <path
       sodipodi:nodetypes="ccccc"
       inkscape:connector-curvature="0"
       id="path844"
       d="m 259.14169,409.17166 v 36.63462 H 802.0685 v -36.63462 z"
       style="fill:#ffffff;fill-opacity:1;stroke:none;stroke-width:2.28030705px;stroke-linecap:butt;stroke-linejoin:miter;stroke-opacity:1" />
    <path
       sodipodi:nodetypes="ccccc"
       inkscape:connector-curvature="0"
       id="path846"
       d="m 259.14169,372.53704 v 36.63462 H 802.0685 v -36.63462 z"
       style="fill:#b31942;fill-opacity:1;stroke:none;stroke-width:2.28030705px;stroke-linecap:butt;stroke-linejoin:miter;stroke-opacity:1" />
    <path
       style="fill:#ffffff;fill-opacity:1;stroke:none;stroke-width:2.28030705px;stroke-linecap:butt;stroke-linejoin:miter;stroke-opacity:1"
       d="m 259.14169,335.90242 v 36.63462 H 802.0685 v -36.63462 z"
       id="path848"
       inkscape:connector-curvature="0"
       sodipodi:nodetypes="ccccc" />
    <path
       style="fill:#b31942;fill-opacity:1;stroke:none;stroke-width:2.28030705px;stroke-linecap:butt;stroke-linejoin:miter;stroke-opacity:1"
       d="m 259.14169,299.2678 v 36.63462 H 802.0685 V 299.2678 Z"
       id="path850"
       inkscape:connector-curvature="0"
       sodipodi:nodetypes="ccccc" />
    <path
       sodipodi:nodetypes="ccccc"
       inkscape:connector-curvature="0"
       id="path868"
       d="M 259.14169,555.71014 V 299.2678 l -361.95121,6e-5 v 256.44228 z"
       style="fill:#0a3161;fill-opacity:1;stroke:none;stroke-width:2.27037477px;stroke-linecap:butt;stroke-linejoin:miter;stroke-opacity:1" />
    <path
       style="fill:#ffffff;fill-opacity:1;stroke:none;stroke-width:0.26458332px;stroke-linecap:butt;stroke-linejoin:miter;stroke-opacity:1"
       d="m 78.166045,433.08627 8.61335,6.25796 -3.29001,-10.1256 8.61335,-6.25795 h -10.64668 l -3.28998,-10.12559 -3.29002,10.12559 h -10.64667 l 8.61335,6.25796 -3.29001,10.12559 z"
       id="path912"
       inkscape:connector-curvature="0"
       sodipodi:nodetypes="ccccccccccc" />
    <path
       sodipodi:nodetypes="ccccccccccc"
       inkscape:connector-curvature="0"
       id="path890"
       d="m 32.922152,401.031 8.61335,6.25796 -3.29001,-10.1256 8.61335,-6.25795 h -10.64668 l -3.28998,-10.12559 -3.29002,10.12559 h -10.64667 l 8.61335,6.25796 -3.29001,10.12559 z"
       style="fill:#ffffff;fill-opacity:1;stroke:none;stroke-width:0.26458332px;stroke-linecap:butt;stroke-linejoin:miter;stroke-opacity:1" />
    <path
       style="fill:#ffffff;fill-opacity:1;stroke:none;stroke-width:0.26458332px;stroke-linecap:butt;stroke-linejoin:miter;stroke-opacity:1"
       d="m -12.321749,401.031 8.61335,6.25796 -3.29001,-10.1256 8.61335,-6.25795 h -10.64668 l -3.28998,-10.12559 -3.29002,10.12559 h -10.64667 l 8.61335,6.25796 -3.29001,10.12559 z"
       id="path892"
       inkscape:connector-curvature="0"
       sodipodi:nodetypes="ccccccccccc" />
    <path
       sodipodi:nodetypes="ccccccccccc"
       inkscape:connector-curvature="0"
       id="path894"
       d="m -57.565651,433.08627 8.61335,6.25796 -3.29001,-10.1256 8.61335,-6.25795 h -10.64668 l -3.28998,-10.12559 -3.29002,10.12559 h -10.64667 l 8.61335,6.25796 -3.29001,10.12559 z"
       style="fill:#ffffff;fill-opacity:1;stroke:none;stroke-width:0.26458332px;stroke-linecap:butt;stroke-linejoin:miter;stroke-opacity:1" />
    <path
       style="fill:#ffffff;fill-opacity:1;stroke:none;stroke-width:0.26458332px;stroke-linecap:butt;stroke-linejoin:miter;stroke-opacity:1"
       d="m 123.40994,465.14159 8.61335,6.25796 -3.29001,-10.1256 8.61335,-6.25795 h -10.64668 l -3.28998,-10.12559 -3.29002,10.12559 h -10.64667 l 8.61335,6.25796 -3.29001,10.12559 z"
       id="path896"
       inkscape:connector-curvature="0"
       sodipodi:nodetypes="ccccccccccc" />
    <path
       sodipodi:nodetypes="ccccccccccc"
       inkscape:connector-curvature="0"
       id="path898"
       d="m 123.40994,497.19686 8.61335,6.25796 -3.29001,-10.1256 8.61335,-6.25795 h -10.64668 l -3.28998,-10.12559 -3.29002,10.12559 h -10.64667 l 8.61335,6.25796 -3.29001,10.12559 z"
       style="fill:#ffffff;fill-opacity:1;stroke:none;stroke-width:0.26458332px;stroke-linecap:butt;stroke-linejoin:miter;stroke-opacity:1" />
    <path
       style="fill:#ffffff;fill-opacity:1;stroke:none;stroke-width:0.26458332px;stroke-linecap:butt;stroke-linejoin:miter;stroke-opacity:1"
       d="m 213.89775,433.08627 8.61335,6.25796 -3.29001,-10.1256 8.61335,-6.25795 h -10.64668 l -3.28998,-10.12559 -3.29002,10.12559 h -10.64667 l 8.61335,6.25796 -3.29001,10.12559 z"
       id="path900"
       inkscape:connector-curvature="0"
       sodipodi:nodetypes="ccccccccccc" />
    <path
       sodipodi:nodetypes="ccccccccccc"
       inkscape:connector-curvature="0"
       id="path902"
       d="m 78.166045,336.92043 8.61335,6.25796 -3.29001,-10.1256 8.61335,-6.25795 h -10.64668 l -3.28998,-10.12559 -3.29002,10.12559 h -10.64667 l 8.61335,6.25796 -3.29001,10.12559 z"
       style="fill:#ffffff;fill-opacity:1;stroke:none;stroke-width:0.26458332px;stroke-linecap:butt;stroke-linejoin:miter;stroke-opacity:1" />
    <path
       sodipodi:nodetypes="ccccccccccc"
       inkscape:connector-curvature="0"
       id="path904"
       d="m 78.166045,529.25215 8.61335,6.25796 -3.29001,-10.1256 8.61335,-6.25795 h -10.64668 l -3.28998,-10.12559 -3.29002,10.12559 h -10.64667 l 8.61335,6.25796 -3.29001,10.12559 z"
       style="fill:#ffffff;fill-opacity:1;stroke:none;stroke-width:0.26458332px;stroke-linecap:butt;stroke-linejoin:miter;stroke-opacity:1" />
    <path
       style="fill:#ffffff;fill-opacity:1;stroke:none;stroke-width:0.26458332px;stroke-linecap:butt;stroke-linejoin:miter;stroke-opacity:1"
       d="m 32.922152,368.9757 8.61335,6.25796 -3.29001,-10.1256 8.61335,-6.25795 h -10.64668 l -3.28998,-10.12559 -3.29002,10.12559 h -10.64667 l 8.61335,6.25796 -3.29001,10.12559 z"
       id="path906"
       inkscape:connector-curvature="0"
       sodipodi:nodetypes="ccccccccccc" />
    <path
       sodipodi:nodetypes="ccccccccccc"
       inkscape:connector-curvature="0"
       id="path908"
       d="m 123.40994,368.9757 8.61335,6.25796 -3.29001,-10.1256 8.61335,-6.25795 h -10.64668 l -3.28998,-10.12559 -3.29002,10.12559 h -10.64667 l 8.61335,6.25796 -3.29001,10.12559 z"
       style="fill:#ffffff;fill-opacity:1;stroke:none;stroke-width:0.26458332px;stroke-linecap:butt;stroke-linejoin:miter;stroke-opacity:1" />
    <path
       sodipodi:nodetypes="ccccccccccc"
       inkscape:connector-curvature="0"
       id="path910"
       d="m 78.166045,401.031 8.61335,6.25796 -3.29001,-10.1256 8.61335,-6.25795 h -10.64668 l -3.28998,-10.12559 -3.29002,10.12559 h -10.64667 l 8.61335,6.25796 -3.29001,10.12559 z"
       style="fill:#ffffff;fill-opacity:1;stroke:none;stroke-width:0.26458332px;stroke-linecap:butt;stroke-linejoin:miter;stroke-opacity:1" />
    <path
       sodipodi:nodetypes="ccccccccccc"
       inkscape:connector-curvature="0"
       id="path913"
       d="m 123.40994,401.031 8.61335,6.25796 -3.29001,-10.1256 8.61335,-6.25795 h -10.64668 l -3.28998,-10.12559 -3.29002,10.12559 h -10.64667 l 8.61335,6.25796 -3.29001,10.12559 z"
       style="fill:#ffffff;fill-opacity:1;stroke:none;stroke-width:0.26458332px;stroke-linecap:butt;stroke-linejoin:miter;stroke-opacity:1" />
    <path
       style="fill:#ffffff;fill-opacity:1;stroke:none;stroke-width:0.26458332px;stroke-linecap:butt;stroke-linejoin:miter;stroke-opacity:1"
       d="m 168.65387,401.031 8.61335,6.25796 -3.29001,-10.1256 8.61335,-6.25795 h -10.64668 l -3.28998,-10.12559 -3.29002,10.12559 h -10.64667 l 8.61335,6.25796 -3.29001,10.12559 z"
       id="path915"
       inkscape:connector-curvature="0"
       sodipodi:nodetypes="ccccccccccc" />
    <path
       style="fill:#ffffff;fill-opacity:1;stroke:none;stroke-width:0.26458332px;stroke-linecap:butt;stroke-linejoin:miter;stroke-opacity:1"
       d="m 78.166045,368.9757 8.61335,6.25796 -3.29001,-10.1256 8.61335,-6.25795 h -10.64668 l -3.28998,-10.12559 -3.29002,10.12559 h -10.64667 l 8.61335,6.25796 -3.29001,10.12559 z"
       id="path917"
       inkscape:connector-curvature="0"
       sodipodi:nodetypes="ccccccccccc" />
    <path
       style="fill:#ffffff;fill-opacity:1;stroke:none;stroke-width:0.26458332px;stroke-linecap:butt;stroke-linejoin:miter;stroke-opacity:1"
       d="m 32.922152,433.08627 8.61335,6.25796 -3.29001,-10.1256 8.61335,-6.25795 h -10.64668 l -3.28998,-10.12559 -3.29002,10.12559 h -10.64667 l 8.61335,6.25796 -3.29001,10.12559 z"
       id="path919"
       inkscape:connector-curvature="0"
       sodipodi:nodetypes="ccccccccccc" />
    <path
       sodipodi:nodetypes="ccccccccccc"
       inkscape:connector-curvature="0"
       id="path921"
       d="m -12.321749,433.08627 8.61335,6.25796 -3.29001,-10.1256 8.61335,-6.25795 h -10.64668 l -3.28998,-10.12559 -3.29002,10.12559 h -10.64667 l 8.61335,6.25796 -3.29001,10.12559 z"
       style="fill:#ffffff;fill-opacity:1;stroke:none;stroke-width:0.26458332px;stroke-linecap:butt;stroke-linejoin:miter;stroke-opacity:1" />
    <path
       style="fill:#ffffff;fill-opacity:1;stroke:none;stroke-width:0.26458332px;stroke-linecap:butt;stroke-linejoin:miter;stroke-opacity:1"
       d="m 123.40994,433.08627 8.61335,6.25796 -3.29001,-10.1256 8.61335,-6.25795 h -10.64668 l -3.28998,-10.12559 -3.29002,10.12559 h -10.64667 l 8.61335,6.25796 -3.29001,10.12559 z"
       id="path923"
       inkscape:connector-curvature="0"
       sodipodi:nodetypes="ccccccccccc" />
    <path
       sodipodi:nodetypes="ccccccccccc"
       inkscape:connector-curvature="0"
       id="path925"
       d="m 168.65387,433.08627 8.61335,6.25796 -3.29001,-10.1256 8.61335,-6.25795 h -10.64668 l -3.28998,-10.12559 -3.29002,10.12559 h -10.64667 l 8.61335,6.25796 -3.29001,10.12559 z"
       style="fill:#ffffff;fill-opacity:1;stroke:none;stroke-width:0.26458332px;stroke-linecap:butt;stroke-linejoin:miter;stroke-opacity:1" />
    <path
       sodipodi:nodetypes="ccccccccccc"
       inkscape:connector-curvature="0"
       id="path927"
       d="m 78.166045,465.14159 8.61335,6.25796 -3.29001,-10.1256 8.61335,-6.25795 h -10.64668 l -3.28998,-10.12559 -3.29002,10.12559 h -10.64667 l 8.61335,6.25796 -3.29001,10.12559 z"
       style="fill:#ffffff;fill-opacity:1;stroke:none;stroke-width:0.26458332px;stroke-linecap:butt;stroke-linejoin:miter;stroke-opacity:1" />
    <path
       sodipodi:nodetypes="ccccccccccc"
       inkscape:connector-curvature="0"
       id="path929"
       d="m 32.922152,465.14159 8.61335,6.25796 -3.29001,-10.1256 8.61335,-6.25795 h -10.64668 l -3.28998,-10.12559 -3.29002,10.12559 h -10.64667 l 8.61335,6.25796 -3.29001,10.12559 z"
       style="fill:#ffffff;fill-opacity:1;stroke:none;stroke-width:0.26458332px;stroke-linecap:butt;stroke-linejoin:miter;stroke-opacity:1" />
    <path
       style="fill:#ffffff;fill-opacity:1;stroke:none;stroke-width:0.26458332px;stroke-linecap:butt;stroke-linejoin:miter;stroke-opacity:1"
       d="m -12.321749,465.14159 8.61335,6.25796 -3.29001,-10.1256 8.61335,-6.25795 h -10.64668 l -3.28998,-10.12559 -3.29002,10.12559 h -10.64667 l 8.61335,6.25796 -3.29001,10.12559 z"
       id="path931"
       inkscape:connector-curvature="0"
       sodipodi:nodetypes="ccccccccccc" />
    <path
       style="fill:#ffffff;fill-opacity:1;stroke:none;stroke-width:0.26458332px;stroke-linecap:butt;stroke-linejoin:miter;stroke-opacity:1"
       d="m 168.65387,465.14159 8.61335,6.25796 -3.29001,-10.1256 8.61335,-6.25795 h -10.64668 l -3.28998,-10.12559 -3.29002,10.12559 h -10.64667 l 8.61335,6.25796 -3.29001,10.12559 z"
       id="path933"
       inkscape:connector-curvature="0"
       sodipodi:nodetypes="ccccccccccc" />
    <path
       style="fill:#ffffff;fill-opacity:1;stroke:none;stroke-width:0.26458332px;stroke-linecap:butt;stroke-linejoin:miter;stroke-opacity:1"
       d="m 78.166045,497.19686 8.61335,6.25796 -3.29001,-10.1256 8.61335,-6.25795 h -10.64668 l -3.28998,-10.12559 -3.29002,10.12559 h -10.64667 l 8.61335,6.25796 -3.29001,10.12559 z"
       id="path935"
       inkscape:connector-curvature="0"
       sodipodi:nodetypes="ccccccccccc" />
    <path
       style="fill:#ffffff;fill-opacity:1;stroke:none;stroke-width:0.26458332px;stroke-linecap:butt;stroke-linejoin:miter;stroke-opacity:1"
       d="m 32.922152,497.19686 8.61335,6.25796 -3.29001,-10.1256 8.61335,-6.25795 h -10.64668 l -3.28998,-10.12559 -3.29002,10.12559 h -10.64667 l 8.61335,6.25796 -3.29001,10.12559 z"
       id="path937"
       inkscape:connector-curvature="0"
       sodipodi:nodetypes="ccccccccccc" />
    <path
       style="fill:#ffffff;fill-opacity:1;stroke:none;stroke-width:0.26458332px;stroke-linecap:butt;stroke-linejoin:miter;stroke-opacity:1"
       d="m -57.565651,352.94806 8.61335,6.25796 -3.29001,-10.1256 8.61335,-6.25795 h -10.64668 l -3.28998,-10.12559 -3.29002,10.12559 h -10.64667 l 8.61335,6.25796 -3.29001,10.12559 z"
       id="path939"
       inkscape:connector-curvature="0"
       sodipodi:nodetypes="ccccccccccc" />
    <path
       sodipodi:nodetypes="ccccccccccc"
       inkscape:connector-curvature="0"
       id="path941"
       d="m 213.89775,352.94806 8.61335,6.25796 -3.29001,-10.1256 8.61335,-6.25795 h -10.64668 l -3.28998,-10.12559 -3.29002,10.12559 h -10.64667 l 8.61335,6.25796 -3.29001,10.12559 z"
       style="fill:#ffffff;fill-opacity:1;stroke:none;stroke-width:0.26458332px;stroke-linecap:butt;stroke-linejoin:miter;stroke-opacity:1" />
    <path
       sodipodi:nodetypes="ccccccccccc"
       inkscape:connector-curvature="0"
       id="path943"
       d="m -57.565651,513.22451 8.61335,6.25796 -3.29001,-10.1256 8.61335,-6.25795 h -10.64668 l -3.28998,-10.12559 -3.29002,10.12559 h -10.64667 l 8.61335,6.25796 -3.29001,10.12559 z"
       style="fill:#ffffff;fill-opacity:1;stroke:none;stroke-width:0.26458332px;stroke-linecap:butt;stroke-linejoin:miter;stroke-opacity:1" />
    <path
       style="fill:#ffffff;fill-opacity:1;stroke:none;stroke-width:0.26458332px;stroke-linecap:butt;stroke-linejoin:miter;stroke-opacity:1"
       d="m 213.89775,513.22451 8.61335,6.25796 -3.29001,-10.1256 8.61335,-6.25795 h -10.64668 l -3.28998,-10.12559 -3.29002,10.12559 h -10.64667 l 8.61335,6.25796 -3.29001,10.12559 z"
       id="path945"
       inkscape:connector-curvature="0"
       sodipodi:nodetypes="ccccccccccc" />
  </g>
</svg>
