<?xml version="1.0" encoding="UTF-8" standalone="no"?>
<!-- Created with Inkscape (http://www.inkscape.org/) -->

<svg
   xmlns:dc="http://purl.org/dc/elements/1.1/"
   xmlns:cc="http://creativecommons.org/ns#"
   xmlns:rdf="http://www.w3.org/1999/02/22-rdf-syntax-ns#"
   xmlns:svg="http://www.w3.org/2000/svg"
   xmlns="http://www.w3.org/2000/svg"
   xmlns:sodipodi="http://sodipodi.sourceforge.net/DTD/sodipodi-0.dtd"
   xmlns:inkscape="http://www.inkscape.org/namespaces/inkscape"
   width="3456.0115"
   height="1800.0002"
   viewBox="0 0 914.40303 476.25007"
   version="1.1"
   id="svg8"
   inkscape:export-filename="C:\Users\厂永刄先生\Documents\GXI3CW2\poM̕écèŭ\M̕é\1858.png"
   inkscape:export-xdpi="96"
   inkscape:export-ydpi="96"
   inkscape:version="0.92.4 (5da689c313, 2019-01-14)"
   sodipodi:docname="1858.svg">
  <defs
     id="defs2" />
  <sodipodi:namedview
     id="base"
     pagecolor="#ffffff"
     bordercolor="#666666"
     borderopacity="1.0"
     inkscape:pageopacity="0.0"
     inkscape:pageshadow="2"
     inkscape:zoom="0.39687763"
     inkscape:cx="720.00249"
     inkscape:cy="1315.3848"
     inkscape:document-units="px"
     inkscape:current-layer="layer1"
     showgrid="false"
     units="px"
     fit-margin-top="0"
     fit-margin-left="0"
     fit-margin-right="0"
     fit-margin-bottom="0"
     inkscape:showpageshadow="false"
     inkscape:snap-intersection-paths="false"
     inkscape:object-paths="false"
     inkscape:pagecheckerboard="true"
     inkscape:snap-smooth-nodes="false"
     inkscape:window-width="1366"
     inkscape:window-height="745"
     inkscape:window-x="-8"
     inkscape:window-y="-8"
     inkscape:window-maximized="1"
     inkscape:object-nodes="true"
     inkscape:snap-nodes="true" />
  <metadata
     id="metadata5">
    <rdf:RDF>
      <cc:Work
         rdf:about="">
        <dc:format>image/svg+xml</dc:format>
        <dc:type
           rdf:resource="http://purl.org/dc/dcmitype/StillImage" />
        <dc:title />
      </cc:Work>
    </rdf:RDF>
  </metadata>
  <g
     inkscape:label="レイヤー 1"
     inkscape:groupmode="layer"
     id="layer1"
     transform="translate(112.33452,-299.2678)">
    <path
       sodipodi:nodetypes="ccccc"
       inkscape:connector-curvature="0"
       id="path868"
       d="M 259.1418,555.71014 V 299.26778 l -361.95132,8e-5 v 256.44228 z"
       style="fill:#0a3161;fill-opacity:1;stroke:none;stroke-width:2.69729114px;stroke-linecap:butt;stroke-linejoin:miter;stroke-opacity:1" />
    <path
       style="fill:#ffffff;fill-opacity:1;stroke:none;stroke-width:0.51166773px;stroke-linecap:butt;stroke-linejoin:miter;stroke-opacity:1"
       d="m -102.80952,299.26786 h -9.525 v 476.25 h 9.525 z"
       id="path1079"
       inkscape:connector-curvature="0"
       sodipodi:nodetypes="ccccc" />
    <path
       sodipodi:nodetypes="ccccc"
       inkscape:connector-curvature="0"
       id="path824"
       d="m -102.80952,738.88324 v 36.63462 H 802.0685 v -36.63462 z"
       style="fill:#b31942;fill-opacity:1;stroke:none;stroke-width:2.28030705px;stroke-linecap:butt;stroke-linejoin:miter;stroke-opacity:1" />
    <path
       style="fill:#ffffff;fill-opacity:1;stroke:none;stroke-width:2.28030705px;stroke-linecap:butt;stroke-linejoin:miter;stroke-opacity:1"
       d="m -102.80952,702.24862 v 36.63462 H 802.0685 v -36.63462 z"
       id="path828"
       inkscape:connector-curvature="0"
       sodipodi:nodetypes="ccccc" />
    <path
       style="fill:#b31942;fill-opacity:1;stroke:none;stroke-width:2.28030705px;stroke-linecap:butt;stroke-linejoin:miter;stroke-opacity:1"
       d="m -102.80952,665.614 v 36.63462 H 802.0685 V 665.614 Z"
       id="path830"
       inkscape:connector-curvature="0"
       sodipodi:nodetypes="ccccc" />
    <path
       sodipodi:nodetypes="ccccc"
       inkscape:connector-curvature="0"
       id="path832"
       d="M -102.80952,628.97938 V 665.614 H 802.0685 v -36.63462 z"
       style="fill:#ffffff;fill-opacity:1;stroke:none;stroke-width:2.28030705px;stroke-linecap:butt;stroke-linejoin:miter;stroke-opacity:1" />
    <path
       sodipodi:nodetypes="ccccc"
       inkscape:connector-curvature="0"
       id="path834"
       d="m -102.80952,592.34476 v 36.63462 H 802.0685 v -36.63462 z"
       style="fill:#b31942;fill-opacity:1;stroke:none;stroke-width:2.28030705px;stroke-linecap:butt;stroke-linejoin:miter;stroke-opacity:1" />
    <path
       style="fill:#ffffff;fill-opacity:1;stroke:none;stroke-width:2.28030705px;stroke-linecap:butt;stroke-linejoin:miter;stroke-opacity:1"
       d="m -102.80952,555.71014 v 36.63462 H 802.0685 v -36.63462 z"
       id="path836"
       inkscape:connector-curvature="0"
       sodipodi:nodetypes="ccccc" />
    <path
       style="fill:#b31942;fill-opacity:1;stroke:none;stroke-width:2.28030705px;stroke-linecap:butt;stroke-linejoin:miter;stroke-opacity:1"
       d="m 259.1418,519.07552 v 36.63462 h 542.9267 v -36.63462 z"
       id="path838"
       inkscape:connector-curvature="0"
       sodipodi:nodetypes="ccccc" />
    <path
       sodipodi:nodetypes="ccccc"
       inkscape:connector-curvature="0"
       id="path840"
       d="m 259.1418,482.4409 v 36.63462 H 802.0685 V 482.4409 Z"
       style="fill:#ffffff;fill-opacity:1;stroke:none;stroke-width:2.28030705px;stroke-linecap:butt;stroke-linejoin:miter;stroke-opacity:1" />
    <path
       sodipodi:nodetypes="ccccc"
       inkscape:connector-curvature="0"
       id="path842"
       d="M 259.1418,445.80628 V 482.4409 H 802.0685 V 445.80628 Z"
       style="fill:#b31942;fill-opacity:1;stroke:none;stroke-width:2.28030705px;stroke-linecap:butt;stroke-linejoin:miter;stroke-opacity:1" />
    <path
       sodipodi:nodetypes="ccccc"
       inkscape:connector-curvature="0"
       id="path844"
       d="m 259.1418,409.17166 v 36.63462 h 542.9267 v -36.63462 z"
       style="fill:#ffffff;fill-opacity:1;stroke:none;stroke-width:2.28030705px;stroke-linecap:butt;stroke-linejoin:miter;stroke-opacity:1" />
    <path
       sodipodi:nodetypes="ccccc"
       inkscape:connector-curvature="0"
       id="path846"
       d="m 259.1418,372.53704 v 36.63462 h 542.9267 v -36.63462 z"
       style="fill:#b31942;fill-opacity:1;stroke:none;stroke-width:2.28030705px;stroke-linecap:butt;stroke-linejoin:miter;stroke-opacity:1" />
    <path
       style="fill:#ffffff;fill-opacity:1;stroke:none;stroke-width:2.28030705px;stroke-linecap:butt;stroke-linejoin:miter;stroke-opacity:1"
       d="m 259.1418,335.90242 v 36.63462 h 542.9267 v -36.63462 z"
       id="path848"
       inkscape:connector-curvature="0"
       sodipodi:nodetypes="ccccc" />
    <path
       style="fill:#b31942;fill-opacity:1;stroke:none;stroke-width:2.28030705px;stroke-linecap:butt;stroke-linejoin:miter;stroke-opacity:1"
       d="M 259.1418,335.90242 V 299.2678 h 542.9267 v 36.63462 z"
       id="path850"
       inkscape:connector-curvature="0"
       sodipodi:nodetypes="ccccc" />
    <path
       style="fill:#ffffff;fill-opacity:1;stroke:none;stroke-width:0.26458332px;stroke-linecap:butt;stroke-linejoin:miter;stroke-opacity:1"
       d="m 222.9467,529.25214 8.61334,6.25796 -3.29001,-10.1256 8.61335,-6.25795 H 226.2367 l -3.28997,-10.12559 -3.29002,10.12559 h -10.64668 l 8.61336,6.25796 -3.29002,10.12559 z"
       id="path974"
       inkscape:connector-curvature="0"
       sodipodi:nodetypes="ccccccccccc" />
    <path
       sodipodi:nodetypes="ccccccccccc"
       inkscape:connector-curvature="0"
       id="path900"
       d="m 186.75154,357.78108 8.61334,-6.25796 -3.29001,10.1256 8.61335,6.25795 h -10.64668 l -3.28997,10.12559 -3.29002,-10.12559 h -10.64668 l 8.61336,-6.25796 -3.29002,-10.12559 z"
       style="fill:#ffffff;fill-opacity:1;stroke:none;stroke-width:0.26458332px;stroke-linecap:butt;stroke-linejoin:miter;stroke-opacity:1" />
    <path
       style="fill:#ffffff;fill-opacity:1;stroke:none;stroke-width:0.26458332px;stroke-linecap:butt;stroke-linejoin:miter;stroke-opacity:1"
       d="m 150.55642,465.14157 8.61334,6.25796 -3.29001,-10.1256 8.61335,-6.25795 h -10.64668 l -3.28997,-10.12559 -3.29002,10.12559 h -10.64668 l 8.61336,6.25796 -3.29002,10.12559 z"
       id="path902"
       inkscape:connector-curvature="0"
       sodipodi:nodetypes="ccccccccccc" />
    <path
       sodipodi:nodetypes="ccccccccccc"
       inkscape:connector-curvature="0"
       id="path904"
       d="m 114.3613,421.89166 8.61334,-6.25796 -3.29001,10.1256 8.61335,6.25795 H 117.6513 l -3.28997,10.12559 -3.29002,-10.12559 h -10.64668 l 8.61336,-6.25796 -3.29002,-10.12559 z"
       style="fill:#ffffff;fill-opacity:1;stroke:none;stroke-width:0.26458332px;stroke-linecap:butt;stroke-linejoin:miter;stroke-opacity:1" />
    <path
       style="fill:#ffffff;fill-opacity:1;stroke:none;stroke-width:0.26458332px;stroke-linecap:butt;stroke-linejoin:miter;stroke-opacity:1"
       d="m 78.166155,401.03097 8.61334,6.25796 -3.29001,-10.1256 8.61335,-6.25795 h -10.64668 l -3.28997,-10.12559 -3.29002,10.12559 h -10.64668 l 8.61336,6.25796 -3.29002,10.12559 z"
       id="path906"
       inkscape:connector-curvature="0"
       sodipodi:nodetypes="ccccccccccc" />
    <path
       sodipodi:nodetypes="ccccccccccc"
       inkscape:connector-curvature="0"
       id="path908"
       d="m 41.971015,486.00223 8.61334,-6.25796 -3.29001,10.1256 8.61335,6.25795 h -10.64668 l -3.28997,10.12559 -3.29002,-10.12559 h -10.64668 l 8.61336,-6.25796 -3.29002,-10.12559 z"
       style="fill:#ffffff;fill-opacity:1;stroke:none;stroke-width:0.26458332px;stroke-linecap:butt;stroke-linejoin:miter;stroke-opacity:1" />
    <path
       style="fill:#ffffff;fill-opacity:1;stroke:none;stroke-width:0.26458332px;stroke-linecap:butt;stroke-linejoin:miter;stroke-opacity:1"
       d="m 5.7758879,336.9204 8.6133401,6.25796 -3.29001,-10.1256 8.61335,-6.25795 H 9.0658879 l -3.28997,-10.12559 -3.29002,10.12559 h -10.64668 l 8.61336002,6.25796 -3.29002002,10.12559 z"
       id="path910"
       inkscape:connector-curvature="0"
       sodipodi:nodetypes="ccccccccccc" />
    <path
       sodipodi:nodetypes="ccccccccccc"
       inkscape:connector-curvature="0"
       id="path912"
       d="m -30.419257,486.00223 8.61334,-6.25796 -3.29001,10.1256 8.61335,6.25795 h -10.64668 l -3.28997,10.12559 -3.29002,-10.12559 h -10.64668 l 8.61336,-6.25796 -3.29002,-10.12559 z"
       style="fill:#ffffff;fill-opacity:1;stroke:none;stroke-width:0.26458332px;stroke-linecap:butt;stroke-linejoin:miter;stroke-opacity:1" />
    <path
       style="fill:#ffffff;fill-opacity:1;stroke:none;stroke-width:0.26458332px;stroke-linecap:butt;stroke-linejoin:miter;stroke-opacity:1"
       d="m -66.614388,336.9204 8.61334,6.25796 -3.29001,-10.1256 8.61335,-6.25795 h -10.64668 l -3.28997,-10.12559 -3.29002,10.12559 h -10.64668 l 8.61336,6.25796 -3.29002,10.12559 z"
       id="path914"
       inkscape:connector-curvature="0"
       sodipodi:nodetypes="ccccccccccc" />
    <path
       sodipodi:nodetypes="ccccccccccc"
       inkscape:connector-curvature="0"
       id="path916"
       d="m 222.9467,336.9204 8.61334,6.25796 -3.29001,-10.1256 8.61335,-6.25795 H 226.2367 l -3.28997,-10.12559 -3.29002,10.12559 h -10.64668 l 8.61336,6.25796 -3.29002,10.12559 z"
       style="fill:#ffffff;fill-opacity:1;stroke:none;stroke-width:0.26458332px;stroke-linecap:butt;stroke-linejoin:miter;stroke-opacity:1" />
    <path
       sodipodi:nodetypes="ccccccccccc"
       inkscape:connector-curvature="0"
       id="path918"
       d="m 150.55642,336.9204 8.61334,6.25796 -3.29001,-10.1256 8.61335,-6.25795 h -10.64668 l -3.28997,-10.12559 -3.29002,10.12559 h -10.64668 l 8.61336,6.25796 -3.29002,10.12559 z"
       style="fill:#ffffff;fill-opacity:1;stroke:none;stroke-width:0.26458332px;stroke-linecap:butt;stroke-linejoin:miter;stroke-opacity:1" />
    <path
       sodipodi:nodetypes="ccccccccccc"
       inkscape:connector-curvature="0"
       id="path920"
       d="m 78.166155,336.9204 8.61334,6.25796 -3.29001,-10.1256 8.61335,-6.25795 h -10.64668 l -3.28997,-10.12559 -3.29002,10.12559 h -10.64668 l 8.61336,6.25796 -3.29002,10.12559 z"
       style="fill:#ffffff;fill-opacity:1;stroke:none;stroke-width:0.26458332px;stroke-linecap:butt;stroke-linejoin:miter;stroke-opacity:1" />
    <path
       sodipodi:nodetypes="ccccccccccc"
       inkscape:connector-curvature="0"
       id="path922"
       d="m 5.7758879,401.03097 8.6133401,6.25796 -3.29001,-10.1256 8.61335,-6.25795 H 9.0658879 l -3.28997,-10.12559 -3.29002,10.12559 h -10.64668 l 8.61336002,6.25796 -3.29002002,10.12559 z"
       style="fill:#ffffff;fill-opacity:1;stroke:none;stroke-width:0.26458332px;stroke-linecap:butt;stroke-linejoin:miter;stroke-opacity:1" />
    <path
       sodipodi:nodetypes="ccccccccccc"
       inkscape:connector-curvature="0"
       id="path924"
       d="m -66.614388,401.03097 8.61334,6.25796 -3.29001,-10.1256 8.61335,-6.25795 h -10.64668 l -3.28997,-10.12559 -3.29002,10.12559 h -10.64668 l 8.61336,6.25796 -3.29002,10.12559 z"
       style="fill:#ffffff;fill-opacity:1;stroke:none;stroke-width:0.26458332px;stroke-linecap:butt;stroke-linejoin:miter;stroke-opacity:1" />
    <path
       style="fill:#ffffff;fill-opacity:1;stroke:none;stroke-width:0.26458332px;stroke-linecap:butt;stroke-linejoin:miter;stroke-opacity:1"
       d="m 222.9467,401.03097 8.61334,6.25796 -3.29001,-10.1256 8.61335,-6.25795 H 226.2367 l -3.28997,-10.12559 -3.29002,10.12559 h -10.64668 l 8.61336,6.25796 -3.29002,10.12559 z"
       id="path926"
       inkscape:connector-curvature="0"
       sodipodi:nodetypes="ccccccccccc" />
    <path
       style="fill:#ffffff;fill-opacity:1;stroke:none;stroke-width:0.26458332px;stroke-linecap:butt;stroke-linejoin:miter;stroke-opacity:1"
       d="m 150.55642,401.03097 8.61334,6.25796 -3.29001,-10.1256 8.61335,-6.25795 h -10.64668 l -3.28997,-10.12559 -3.29002,10.12559 h -10.64668 l 8.61336,6.25796 -3.29002,10.12559 z"
       id="path928"
       inkscape:connector-curvature="0"
       sodipodi:nodetypes="ccccccccccc" />
    <path
       sodipodi:nodetypes="ccccccccccc"
       inkscape:connector-curvature="0"
       id="path930"
       d="m 78.166155,465.14157 8.61334,6.25796 -3.29001,-10.1256 8.61335,-6.25795 h -10.64668 l -3.28997,-10.12559 -3.29002,10.12559 h -10.64668 l 8.61336,6.25796 -3.29002,10.12559 z"
       style="fill:#ffffff;fill-opacity:1;stroke:none;stroke-width:0.26458332px;stroke-linecap:butt;stroke-linejoin:miter;stroke-opacity:1" />
    <path
       style="fill:#ffffff;fill-opacity:1;stroke:none;stroke-width:0.26458332px;stroke-linecap:butt;stroke-linejoin:miter;stroke-opacity:1"
       d="m 5.7758879,465.14157 8.6133401,6.25796 -3.29001,-10.1256 8.61335,-6.25795 H 9.0658879 l -3.28997,-10.12559 -3.29002,10.12559 h -10.64668 l 8.61336002,6.25796 -3.29002002,10.12559 z"
       id="path932"
       inkscape:connector-curvature="0"
       sodipodi:nodetypes="ccccccccccc" />
    <path
       style="fill:#ffffff;fill-opacity:1;stroke:none;stroke-width:0.26458332px;stroke-linecap:butt;stroke-linejoin:miter;stroke-opacity:1"
       d="m -66.614388,465.14157 8.61334,6.25796 -3.29001,-10.1256 8.61335,-6.25795 h -10.64668 l -3.28997,-10.12559 -3.29002,10.12559 h -10.64668 l 8.61336,6.25796 -3.29002,10.12559 z"
       id="path934"
       inkscape:connector-curvature="0"
       sodipodi:nodetypes="ccccccccccc" />
    <path
       sodipodi:nodetypes="ccccccccccc"
       inkscape:connector-curvature="0"
       id="path936"
       d="m 222.9467,465.14157 8.61334,6.25796 -3.29001,-10.1256 8.61335,-6.25795 H 226.2367 l -3.28997,-10.12559 -3.29002,10.12559 h -10.64668 l 8.61336,6.25796 -3.29002,10.12559 z"
       style="fill:#ffffff;fill-opacity:1;stroke:none;stroke-width:0.26458332px;stroke-linecap:butt;stroke-linejoin:miter;stroke-opacity:1" />
    <path
       sodipodi:nodetypes="ccccccccccc"
       inkscape:connector-curvature="0"
       id="path938"
       d="m 150.55642,529.25214 8.61334,6.25796 -3.29001,-10.1256 8.61335,-6.25795 h -10.64668 l -3.28997,-10.12559 -3.29002,10.12559 h -10.64668 l 8.61336,6.25796 -3.29002,10.12559 z"
       style="fill:#ffffff;fill-opacity:1;stroke:none;stroke-width:0.26458332px;stroke-linecap:butt;stroke-linejoin:miter;stroke-opacity:1" />
    <path
       style="fill:#ffffff;fill-opacity:1;stroke:none;stroke-width:0.26458332px;stroke-linecap:butt;stroke-linejoin:miter;stroke-opacity:1"
       d="m 78.166155,529.25214 8.61334,6.25796 -3.29001,-10.1256 8.61335,-6.25795 h -10.64668 l -3.28997,-10.12559 -3.29002,10.12559 h -10.64668 l 8.61336,6.25796 -3.29002,10.12559 z"
       id="path940"
       inkscape:connector-curvature="0"
       sodipodi:nodetypes="ccccccccccc" />
    <path
       sodipodi:nodetypes="ccccccccccc"
       inkscape:connector-curvature="0"
       id="path942"
       d="m 5.7758879,529.25214 8.6133401,6.25796 -3.29001,-10.1256 8.61335,-6.25795 H 9.0658879 l -3.28997,-10.12559 -3.29002,10.12559 h -10.64668 l 8.61336002,6.25796 -3.29002002,10.12559 z"
       style="fill:#ffffff;fill-opacity:1;stroke:none;stroke-width:0.26458332px;stroke-linecap:butt;stroke-linejoin:miter;stroke-opacity:1" />
    <path
       sodipodi:nodetypes="ccccccccccc"
       inkscape:connector-curvature="0"
       id="path944"
       d="m -66.614388,529.25214 8.61334,6.25796 -3.29001,-10.1256 8.61335,-6.25795 h -10.64668 l -3.28997,-10.12559 -3.29002,10.12559 h -10.64668 l 8.61336,6.25796 -3.29002,10.12559 z"
       style="fill:#ffffff;fill-opacity:1;stroke:none;stroke-width:0.26458332px;stroke-linecap:butt;stroke-linejoin:miter;stroke-opacity:1" />
    <path
       style="fill:#ffffff;fill-opacity:1;stroke:none;stroke-width:0.26458332px;stroke-linecap:butt;stroke-linejoin:miter;stroke-opacity:1"
       d="m 114.3613,357.78108 8.61334,-6.25796 -3.29001,10.1256 8.61335,6.25795 H 117.6513 l -3.28997,10.12559 -3.29002,-10.12559 h -10.64668 l 8.61336,-6.25796 -3.29002,-10.12559 z"
       id="path946"
       inkscape:connector-curvature="0"
       sodipodi:nodetypes="ccccccccccc" />
    <path
       style="fill:#ffffff;fill-opacity:1;stroke:none;stroke-width:0.26458332px;stroke-linecap:butt;stroke-linejoin:miter;stroke-opacity:1"
       d="m 41.971015,357.78108 8.61334,-6.25796 -3.29001,10.1256 8.61335,6.25795 h -10.64668 l -3.28997,10.12559 -3.29002,-10.12559 h -10.64668 l 8.61336,-6.25796 -3.29002,-10.12559 z"
       id="path948"
       inkscape:connector-curvature="0"
       sodipodi:nodetypes="ccccccccccc" />
    <path
       style="fill:#ffffff;fill-opacity:1;stroke:none;stroke-width:0.26458332px;stroke-linecap:butt;stroke-linejoin:miter;stroke-opacity:1"
       d="m -30.419257,357.78108 8.61334,-6.25796 -3.29001,10.1256 8.61335,6.25795 h -10.64668 l -3.28997,10.12559 -3.29002,-10.12559 h -10.64668 l 8.61336,-6.25796 -3.29002,-10.12559 z"
       id="path950"
       inkscape:connector-curvature="0"
       sodipodi:nodetypes="ccccccccccc" />
    <path
       style="fill:#ffffff;fill-opacity:1;stroke:none;stroke-width:0.26458332px;stroke-linecap:butt;stroke-linejoin:miter;stroke-opacity:1"
       d="m 186.75154,421.89166 8.61334,-6.25796 -3.29001,10.1256 8.61335,6.25795 h -10.64668 l -3.28997,10.12559 -3.29002,-10.12559 h -10.64668 l 8.61336,-6.25796 -3.29002,-10.12559 z"
       id="path952"
       inkscape:connector-curvature="0"
       sodipodi:nodetypes="ccccccccccc" />
    <path
       sodipodi:nodetypes="ccccccccccc"
       inkscape:connector-curvature="0"
       id="path954"
       d="m 41.971015,421.89166 8.61334,-6.25796 -3.29001,10.1256 8.61335,6.25795 h -10.64668 l -3.28997,10.12559 -3.29002,-10.12559 h -10.64668 l 8.61336,-6.25796 -3.29002,-10.12559 z"
       style="fill:#ffffff;fill-opacity:1;stroke:none;stroke-width:0.26458332px;stroke-linecap:butt;stroke-linejoin:miter;stroke-opacity:1" />
    <path
       sodipodi:nodetypes="ccccccccccc"
       inkscape:connector-curvature="0"
       id="path956"
       d="m -30.419257,421.89166 8.61334,-6.25796 -3.29001,10.1256 8.61335,6.25795 h -10.64668 l -3.28997,10.12559 -3.29002,-10.12559 h -10.64668 l 8.61336,-6.25796 -3.29002,-10.12559 z"
       style="fill:#ffffff;fill-opacity:1;stroke:none;stroke-width:0.26458332px;stroke-linecap:butt;stroke-linejoin:miter;stroke-opacity:1" />
    <path
       style="fill:#ffffff;fill-opacity:1;stroke:none;stroke-width:0.26458332px;stroke-linecap:butt;stroke-linejoin:miter;stroke-opacity:1"
       d="m 114.3613,486.00223 8.61334,-6.25796 -3.29001,10.1256 8.61335,6.25795 H 117.6513 l -3.28997,10.12559 -3.29002,-10.12559 h -10.64668 l 8.61336,-6.25796 -3.29002,-10.12559 z"
       id="path958"
       inkscape:connector-curvature="0"
       sodipodi:nodetypes="ccccccccccc" />
    <path
       sodipodi:nodetypes="ccccccccccc"
       inkscape:connector-curvature="0"
       id="path960"
       d="m 186.75154,486.00223 8.61334,-6.25796 -3.29001,10.1256 8.61335,6.25795 h -10.64668 l -3.28997,10.12559 -3.29002,-10.12559 h -10.64668 l 8.61336,-6.25796 -3.29002,-10.12559 z"
       style="fill:#ffffff;fill-opacity:1;stroke:none;stroke-width:0.26458332px;stroke-linecap:butt;stroke-linejoin:miter;stroke-opacity:1" />
  </g>
</svg>
