<?xml version="1.0" encoding="UTF-8" standalone="no"?>
<!-- Created with Inkscape (http://www.inkscape.org/) -->

<svg
   xmlns:dc="http://purl.org/dc/elements/1.1/"
   xmlns:cc="http://creativecommons.org/ns#"
   xmlns:rdf="http://www.w3.org/1999/02/22-rdf-syntax-ns#"
   xmlns:svg="http://www.w3.org/2000/svg"
   xmlns="http://www.w3.org/2000/svg"
   xmlns:sodipodi="http://sodipodi.sourceforge.net/DTD/sodipodi-0.dtd"
   xmlns:inkscape="http://www.inkscape.org/namespaces/inkscape"
   width="3456.0115"
   height="1800.0002"
   viewBox="0 0 914.40303 476.25007"
   version="1.1"
   id="svg8"
   inkscape:export-filename="C:\Users\厂永刄先生\Documents\GXI3CW2\poM̕écèŭ\M̕é\1861.png"
   inkscape:export-xdpi="96"
   inkscape:export-ydpi="96"
   inkscape:version="0.92.4 (5da689c313, 2019-01-14)"
   sodipodi:docname="1861.svg">
  <defs
     id="defs2" />
  <sodipodi:namedview
     id="base"
     pagecolor="#ffffff"
     bordercolor="#666666"
     borderopacity="1.0"
     inkscape:pageopacity="0.0"
     inkscape:pageshadow="2"
     inkscape:zoom="0.258101"
     inkscape:cx="1728.0057"
     inkscape:cy="900.00013"
     inkscape:document-units="px"
     inkscape:current-layer="layer1"
     showgrid="false"
     units="px"
     fit-margin-top="0"
     fit-margin-left="0"
     fit-margin-right="0"
     fit-margin-bottom="0"
     inkscape:showpageshadow="false"
     inkscape:snap-intersection-paths="false"
     inkscape:object-paths="false"
     inkscape:pagecheckerboard="true"
     inkscape:snap-smooth-nodes="false"
     inkscape:window-width="1366"
     inkscape:window-height="745"
     inkscape:window-x="-8"
     inkscape:window-y="-8"
     inkscape:window-maximized="1"
     inkscape:object-nodes="true"
     inkscape:snap-nodes="true"
     showguides="true"
     inkscape:guide-bbox="true" />
  <metadata
     id="metadata5">
    <rdf:RDF>
      <cc:Work
         rdf:about="">
        <dc:format>image/svg+xml</dc:format>
        <dc:type
           rdf:resource="http://purl.org/dc/dcmitype/StillImage" />
        <dc:title />
      </cc:Work>
    </rdf:RDF>
  </metadata>
  <g
     inkscape:label="レイヤー 1"
     inkscape:groupmode="layer"
     id="layer1"
     transform="translate(112.33452,-299.2678)">
    <path
       style="fill:#ffffff;fill-opacity:1;stroke:none;stroke-width:0.51166773px;stroke-linecap:butt;stroke-linejoin:miter;stroke-opacity:1"
       d="m -102.80952,299.26786 h -9.525 v 476.25 h 9.525 z"
       id="path1079"
       inkscape:connector-curvature="0"
       sodipodi:nodetypes="ccccc" />
    <path
       sodipodi:nodetypes="ccccc"
       inkscape:connector-curvature="0"
       id="path824"
       d="m -102.80952,738.88324 v 36.63462 H 802.0685 v -36.63462 z"
       style="fill:#b31942;fill-opacity:1;stroke:none;stroke-width:2.28030705px;stroke-linecap:butt;stroke-linejoin:miter;stroke-opacity:1" />
    <path
       style="fill:#ffffff;fill-opacity:1;stroke:none;stroke-width:2.28030705px;stroke-linecap:butt;stroke-linejoin:miter;stroke-opacity:1"
       d="m -102.80952,702.24862 v 36.63462 H 802.0685 v -36.63462 z"
       id="path828"
       inkscape:connector-curvature="0"
       sodipodi:nodetypes="ccccc" />
    <path
       style="fill:#b31942;fill-opacity:1;stroke:none;stroke-width:2.28030705px;stroke-linecap:butt;stroke-linejoin:miter;stroke-opacity:1"
       d="m -102.80952,665.614 v 36.63462 H 802.0685 V 665.614 Z"
       id="path830"
       inkscape:connector-curvature="0"
       sodipodi:nodetypes="ccccc" />
    <path
       sodipodi:nodetypes="ccccc"
       inkscape:connector-curvature="0"
       id="path832"
       d="M -102.80952,628.97938 V 665.614 H 802.0685 v -36.63462 z"
       style="fill:#ffffff;fill-opacity:1;stroke:none;stroke-width:2.28030705px;stroke-linecap:butt;stroke-linejoin:miter;stroke-opacity:1" />
    <path
       sodipodi:nodetypes="ccccc"
       inkscape:connector-curvature="0"
       id="path834"
       d="m -102.80952,592.34476 v 36.63462 H 802.0685 v -36.63462 z"
       style="fill:#b31942;fill-opacity:1;stroke:none;stroke-width:2.28030705px;stroke-linecap:butt;stroke-linejoin:miter;stroke-opacity:1" />
    <path
       style="fill:#ffffff;fill-opacity:1;stroke:none;stroke-width:2.28030705px;stroke-linecap:butt;stroke-linejoin:miter;stroke-opacity:1"
       d="m -102.80952,555.71014 v 36.63462 H 802.0685 v -36.63462 z"
       id="path836"
       inkscape:connector-curvature="0"
       sodipodi:nodetypes="ccccc" />
    <path
       style="fill:#b31942;fill-opacity:1;stroke:none;stroke-width:2.28030705px;stroke-linecap:butt;stroke-linejoin:miter;stroke-opacity:1"
       d="m 259.14169,519.07552 v 36.63462 H 802.0685 v -36.63462 z"
       id="path838"
       inkscape:connector-curvature="0"
       sodipodi:nodetypes="ccccc" />
    <path
       sodipodi:nodetypes="ccccc"
       inkscape:connector-curvature="0"
       id="path840"
       d="m 259.14169,482.4409 v 36.63462 H 802.0685 V 482.4409 Z"
       style="fill:#ffffff;fill-opacity:1;stroke:none;stroke-width:2.28030705px;stroke-linecap:butt;stroke-linejoin:miter;stroke-opacity:1" />
    <path
       sodipodi:nodetypes="ccccc"
       inkscape:connector-curvature="0"
       id="path842"
       d="M 259.14169,445.80628 V 482.4409 H 802.0685 v -36.63462 z"
       style="fill:#b31942;fill-opacity:1;stroke:none;stroke-width:2.28030705px;stroke-linecap:butt;stroke-linejoin:miter;stroke-opacity:1" />
    <path
       sodipodi:nodetypes="ccccc"
       inkscape:connector-curvature="0"
       id="path844"
       d="m 259.14169,409.17166 v 36.63462 H 802.0685 v -36.63462 z"
       style="fill:#ffffff;fill-opacity:1;stroke:none;stroke-width:2.28030705px;stroke-linecap:butt;stroke-linejoin:miter;stroke-opacity:1" />
    <path
       sodipodi:nodetypes="ccccc"
       inkscape:connector-curvature="0"
       id="path846"
       d="m 259.14169,372.53704 v 36.63462 H 802.0685 v -36.63462 z"
       style="fill:#b31942;fill-opacity:1;stroke:none;stroke-width:2.28030705px;stroke-linecap:butt;stroke-linejoin:miter;stroke-opacity:1" />
    <path
       style="fill:#ffffff;fill-opacity:1;stroke:none;stroke-width:2.28030705px;stroke-linecap:butt;stroke-linejoin:miter;stroke-opacity:1"
       d="m 259.14169,335.90242 v 36.63462 H 802.0685 v -36.63462 z"
       id="path848"
       inkscape:connector-curvature="0"
       sodipodi:nodetypes="ccccc" />
    <path
       style="fill:#b31942;fill-opacity:1;stroke:none;stroke-width:2.28030705px;stroke-linecap:butt;stroke-linejoin:miter;stroke-opacity:1"
       d="m 259.14169,299.2678 v 36.63462 H 802.0685 V 299.2678 Z"
       id="path850"
       inkscape:connector-curvature="0"
       sodipodi:nodetypes="ccccc" />
    <path
       sodipodi:nodetypes="ccccc"
       inkscape:connector-curvature="0"
       id="path868"
       d="M 259.14169,555.71014 V 299.2678 l -361.95121,6e-5 v 256.44228 z"
       style="fill:#0a3161;fill-opacity:1;stroke:none;stroke-width:2.27037477px;stroke-linecap:butt;stroke-linejoin:miter;stroke-opacity:1" />
    <path
       sodipodi:nodetypes="ccccccccccc"
       inkscape:connector-curvature="0"
       id="path885"
       d="m -51.968342,331.32314 6.25796,-8.61335 -10.1256,3.29001 -6.25795,-8.61335 v 10.64668 l -10.12559,3.28998 10.12559,3.29002 v 10.64667 l 6.25796,-8.61335 10.12559,3.29001 z"
       style="fill:#ffffff;fill-opacity:1;stroke:none;stroke-width:0.26458332px;stroke-linecap:butt;stroke-linejoin:miter;stroke-opacity:1" />
    <path
       sodipodi:nodetypes="ccccccccccc"
       inkscape:connector-curvature="0"
       id="path889"
       d="m 38.519474,395.43371 6.25796,-8.61335 -10.1256,3.29001 -6.25795,-8.61335 v 10.64668 l -10.12559,3.28998 10.12559,3.29002 v 10.64667 l 6.25796,-8.61335 10.12559,3.29001 z"
       style="fill:#ffffff;fill-opacity:1;stroke:none;stroke-width:0.26458332px;stroke-linecap:butt;stroke-linejoin:miter;stroke-opacity:1" />
    <path
       style="fill:#ffffff;fill-opacity:1;stroke:none;stroke-width:0.26458332px;stroke-linecap:butt;stroke-linejoin:miter;stroke-opacity:1"
       d="m 83.763375,427.48904 6.25796,-8.61335 -10.1256,3.29001 -6.25795,-8.61335 v 10.64668 l -10.12559,3.28998 10.12559,3.29002 v 10.64667 l 6.25796,-8.61335 10.12559,3.29001 z"
       id="path891"
       inkscape:connector-curvature="0"
       sodipodi:nodetypes="ccccccccccc" />
    <path
       sodipodi:nodetypes="ccccccccccc"
       inkscape:connector-curvature="0"
       id="path893"
       d="m 129.00727,459.54429 6.25796,-8.61335 -10.1256,3.29001 -6.25795,-8.61335 v 10.64668 l -10.12559,3.28998 10.12559,3.29002 v 10.64667 l 6.25796,-8.61335 10.12559,3.29001 z"
       style="fill:#ffffff;fill-opacity:1;stroke:none;stroke-width:0.26458332px;stroke-linecap:butt;stroke-linejoin:miter;stroke-opacity:1" />
    <path
       style="fill:#ffffff;fill-opacity:1;stroke:none;stroke-width:0.26458332px;stroke-linecap:butt;stroke-linejoin:miter;stroke-opacity:1"
       d="m 174.25119,459.54429 6.25796,-8.61335 -10.1256,3.29001 -6.25795,-8.61335 v 10.64668 l -10.12559,3.28998 10.12559,3.29002 v 10.64667 l 6.25796,-8.61335 10.12559,3.29001 z"
       id="path895"
       inkscape:connector-curvature="0"
       sodipodi:nodetypes="ccccccccccc" />
    <path
       sodipodi:nodetypes="ccccccccccc"
       inkscape:connector-curvature="0"
       id="path897"
       d="m 219.49506,523.65487 6.25796,-8.61335 -10.1256,3.29001 -6.25795,-8.61335 v 10.64668 l -10.12559,3.28998 10.12559,3.29002 v 10.64667 l 6.25796,-8.61335 10.12559,3.29001 z"
       style="fill:#ffffff;fill-opacity:1;stroke:none;stroke-width:0.26458332px;stroke-linecap:butt;stroke-linejoin:miter;stroke-opacity:1" />
    <path
       sodipodi:nodetypes="ccccccccccc"
       inkscape:connector-curvature="0"
       id="path899"
       d="m 83.763375,523.65487 6.25796,-8.61335 -10.1256,3.29001 -6.25795,-8.61335 v 10.64668 l -10.12559,3.28998 10.12559,3.29002 v 10.64667 l 6.25796,-8.61335 10.12559,3.29001 z"
       style="fill:#ffffff;fill-opacity:1;stroke:none;stroke-width:0.26458332px;stroke-linecap:butt;stroke-linejoin:miter;stroke-opacity:1" />
    <path
       style="fill:#ffffff;fill-opacity:1;stroke:none;stroke-width:0.26458332px;stroke-linecap:butt;stroke-linejoin:miter;stroke-opacity:1"
       d="m -51.968342,523.65487 6.25796,-8.61335 -10.1256,3.29001 -6.25795,-8.61335 v 10.64668 l -10.12559,3.28998 10.12559,3.29002 v 10.64667 l 6.25796,-8.61335 10.12559,3.29001 z"
       id="path901"
       inkscape:connector-curvature="0"
       sodipodi:nodetypes="ccccccccccc" />
    <path
       sodipodi:nodetypes="ccccccccccc"
       inkscape:connector-curvature="0"
       id="path903"
       d="m 174.25119,427.48904 6.25796,-8.61335 -10.1256,3.29001 -6.25795,-8.61335 v 10.64668 l -10.12559,3.28998 10.12559,3.29002 v 10.64667 l 6.25796,-8.61335 10.12559,3.29001 z"
       style="fill:#ffffff;fill-opacity:1;stroke:none;stroke-width:0.26458332px;stroke-linecap:butt;stroke-linejoin:miter;stroke-opacity:1" />
    <path
       style="fill:#ffffff;fill-opacity:1;stroke:none;stroke-width:0.26458332px;stroke-linecap:butt;stroke-linejoin:miter;stroke-opacity:1"
       d="m 38.519474,491.59959 6.25796,-8.61335 -10.1256,3.29001 -6.25795,-8.61335 v 10.64668 l -10.12559,3.28998 10.12559,3.29002 v 10.64667 l 6.25796,-8.61335 10.12559,3.29001 z"
       id="path905"
       inkscape:connector-curvature="0"
       sodipodi:nodetypes="ccccccccccc" />
    <path
       style="fill:#ffffff;fill-opacity:1;stroke:none;stroke-width:0.26458332px;stroke-linecap:butt;stroke-linejoin:miter;stroke-opacity:1"
       d="m 129.00727,491.59959 6.25796,-8.61335 -10.1256,3.29001 -6.25795,-8.61335 v 10.64668 l -10.12559,3.28998 10.12559,3.29002 v 10.64667 l 6.25796,-8.61335 10.12559,3.29001 z"
       id="path907"
       inkscape:connector-curvature="0"
       sodipodi:nodetypes="ccccccccccc" />
    <path
       style="fill:#ffffff;fill-opacity:1;stroke:none;stroke-width:0.26458332px;stroke-linecap:butt;stroke-linejoin:miter;stroke-opacity:1"
       d="m 219.49506,491.59959 6.25796,-8.61335 -10.1256,3.29001 -6.25795,-8.61335 v 10.64668 l -10.12559,3.28998 10.12559,3.29002 v 10.64667 l 6.25796,-8.61335 10.12559,3.29001 z"
       id="path909"
       inkscape:connector-curvature="0"
       sodipodi:nodetypes="ccccccccccc" />
    <path
       style="fill:#ffffff;fill-opacity:1;stroke:none;stroke-width:0.26458332px;stroke-linecap:butt;stroke-linejoin:miter;stroke-opacity:1"
       d="m 83.763375,491.59959 6.25796,-8.61335 -10.1256,3.29001 -6.25795,-8.61335 v 10.64668 l -10.12559,3.28998 10.12559,3.29002 v 10.64667 l 6.25796,-8.61335 10.12559,3.29001 z"
       id="path911"
       inkscape:connector-curvature="0"
       sodipodi:nodetypes="ccccccccccc" />
    <path
       sodipodi:nodetypes="ccccccccccc"
       inkscape:connector-curvature="0"
       id="path913"
       d="m -51.968342,491.59959 6.25796,-8.61335 -10.1256,3.29001 -6.25795,-8.61335 v 10.64668 l -10.12559,3.28998 10.12559,3.29002 v 10.64667 l 6.25796,-8.61335 10.12559,3.29001 z"
       style="fill:#ffffff;fill-opacity:1;stroke:none;stroke-width:0.26458332px;stroke-linecap:butt;stroke-linejoin:miter;stroke-opacity:1" />
    <path
       sodipodi:nodetypes="ccccccccccc"
       inkscape:connector-curvature="0"
       id="path915"
       d="m -6.724433,459.54429 6.25796,-8.61335 -10.1256,3.29001 -6.25795,-8.61335 v 10.64668 l -10.12559,3.28998 10.12559,3.29002 v 10.64667 l 6.25796,-8.61335 10.12559,3.29001 z"
       style="fill:#ffffff;fill-opacity:1;stroke:none;stroke-width:0.26458332px;stroke-linecap:butt;stroke-linejoin:miter;stroke-opacity:1" />
    <path
       style="fill:#ffffff;fill-opacity:1;stroke:none;stroke-width:0.26458332px;stroke-linecap:butt;stroke-linejoin:miter;stroke-opacity:1"
       d="m 38.519474,459.54429 6.25796,-8.61335 -10.1256,3.29001 -6.25795,-8.61335 v 10.64668 l -10.12559,3.28998 10.12559,3.29002 v 10.64667 l 6.25796,-8.61335 10.12559,3.29001 z"
       id="path917"
       inkscape:connector-curvature="0"
       sodipodi:nodetypes="ccccccccccc" />
    <path
       sodipodi:nodetypes="ccccccccccc"
       inkscape:connector-curvature="0"
       id="path919"
       d="m 83.763375,459.54429 6.25796,-8.61335 -10.1256,3.29001 -6.25795,-8.61335 v 10.64668 l -10.12559,3.28998 10.12559,3.29002 v 10.64667 l 6.25796,-8.61335 10.12559,3.29001 z"
       style="fill:#ffffff;fill-opacity:1;stroke:none;stroke-width:0.26458332px;stroke-linecap:butt;stroke-linejoin:miter;stroke-opacity:1" />
    <path
       style="fill:#ffffff;fill-opacity:1;stroke:none;stroke-width:0.26458332px;stroke-linecap:butt;stroke-linejoin:miter;stroke-opacity:1"
       d="m 129.00727,427.48904 6.25796,-8.61335 -10.1256,3.29001 -6.25795,-8.61335 v 10.64668 l -10.12559,3.28998 10.12559,3.29002 v 10.64667 l 6.25796,-8.61335 10.12559,3.29001 z"
       id="path921"
       inkscape:connector-curvature="0"
       sodipodi:nodetypes="ccccccccccc" />
    <path
       sodipodi:nodetypes="ccccccccccc"
       inkscape:connector-curvature="0"
       id="path923"
       d="m 219.49506,427.48904 6.25796,-8.61335 -10.1256,3.29001 -6.25795,-8.61335 v 10.64668 l -10.12559,3.28998 10.12559,3.29002 v 10.64667 l 6.25796,-8.61335 10.12559,3.29001 z"
       style="fill:#ffffff;fill-opacity:1;stroke:none;stroke-width:0.26458332px;stroke-linecap:butt;stroke-linejoin:miter;stroke-opacity:1" />
    <path
       style="fill:#ffffff;fill-opacity:1;stroke:none;stroke-width:0.26458332px;stroke-linecap:butt;stroke-linejoin:miter;stroke-opacity:1"
       d="m -51.968342,427.48904 6.25796,-8.61335 -10.1256,3.29001 -6.25795,-8.61335 v 10.64668 l -10.12559,3.28998 10.12559,3.29002 v 10.64667 l 6.25796,-8.61335 10.12559,3.29001 z"
       id="path925"
       inkscape:connector-curvature="0"
       sodipodi:nodetypes="ccccccccccc" />
    <path
       style="fill:#ffffff;fill-opacity:1;stroke:none;stroke-width:0.26458332px;stroke-linecap:butt;stroke-linejoin:miter;stroke-opacity:1"
       d="m -6.724433,427.48904 6.25796,-8.61335 -10.1256,3.29001 -6.25795,-8.61335 v 10.64668 l -10.12559,3.28998 10.12559,3.29002 v 10.64667 l 6.25796,-8.61335 10.12559,3.29001 z"
       id="path927"
       inkscape:connector-curvature="0"
       sodipodi:nodetypes="ccccccccccc" />
    <path
       sodipodi:nodetypes="ccccccccccc"
       inkscape:connector-curvature="0"
       id="path929"
       d="m 38.519474,427.48904 6.25796,-8.61335 -10.1256,3.29001 -6.25795,-8.61335 v 10.64668 l -10.12559,3.28998 10.12559,3.29002 v 10.64667 l 6.25796,-8.61335 10.12559,3.29001 z"
       style="fill:#ffffff;fill-opacity:1;stroke:none;stroke-width:0.26458332px;stroke-linecap:butt;stroke-linejoin:miter;stroke-opacity:1" />
    <path
       sodipodi:nodetypes="ccccccccccc"
       inkscape:connector-curvature="0"
       id="path931"
       d="m 83.763375,363.37842 6.25796,-8.61335 -10.1256,3.29001 -6.25795,-8.61335 v 10.64668 l -10.12559,3.28998 10.12559,3.29002 v 10.64667 l 6.25796,-8.61335 10.12559,3.29001 z"
       style="fill:#ffffff;fill-opacity:1;stroke:none;stroke-width:0.26458332px;stroke-linecap:butt;stroke-linejoin:miter;stroke-opacity:1" />
    <path
       sodipodi:nodetypes="ccccccccccc"
       inkscape:connector-curvature="0"
       id="path933"
       d="m 129.00727,363.37842 6.25796,-8.61335 -10.1256,3.29001 -6.25795,-8.61335 v 10.64668 l -10.12559,3.28998 10.12559,3.29002 v 10.64667 l 6.25796,-8.61335 10.12559,3.29001 z"
       style="fill:#ffffff;fill-opacity:1;stroke:none;stroke-width:0.26458332px;stroke-linecap:butt;stroke-linejoin:miter;stroke-opacity:1" />
    <path
       style="fill:#ffffff;fill-opacity:1;stroke:none;stroke-width:0.26458332px;stroke-linecap:butt;stroke-linejoin:miter;stroke-opacity:1"
       d="m 219.49506,363.37842 6.25796,-8.61335 -10.1256,3.29001 -6.25795,-8.61335 v 10.64668 l -10.12559,3.28998 10.12559,3.29002 v 10.64667 l 6.25796,-8.61335 10.12559,3.29001 z"
       id="path935"
       inkscape:connector-curvature="0"
       sodipodi:nodetypes="ccccccccccc" />
    <path
       sodipodi:nodetypes="ccccccccccc"
       inkscape:connector-curvature="0"
       id="path937"
       d="m -51.968342,363.37842 6.25796,-8.61335 -10.1256,3.29001 -6.25795,-8.61335 v 10.64668 l -10.12559,3.28998 10.12559,3.29002 v 10.64667 l 6.25796,-8.61335 10.12559,3.29001 z"
       style="fill:#ffffff;fill-opacity:1;stroke:none;stroke-width:0.26458332px;stroke-linecap:butt;stroke-linejoin:miter;stroke-opacity:1" />
    <path
       style="fill:#ffffff;fill-opacity:1;stroke:none;stroke-width:0.26458332px;stroke-linecap:butt;stroke-linejoin:miter;stroke-opacity:1"
       d="m 38.519474,363.37842 6.25796,-8.61335 -10.1256,3.29001 -6.25795,-8.61335 v 10.64668 l -10.12559,3.28998 10.12559,3.29002 v 10.64667 l 6.25796,-8.61335 10.12559,3.29001 z"
       id="path939"
       inkscape:connector-curvature="0"
       sodipodi:nodetypes="ccccccccccc" />
    <path
       sodipodi:nodetypes="ccccccccccc"
       inkscape:connector-curvature="0"
       id="path941"
       d="m 83.763375,395.43371 6.25796,-8.61335 -10.1256,3.29001 -6.25795,-8.61335 v 10.64668 l -10.12559,3.28998 10.12559,3.29002 v 10.64667 l 6.25796,-8.61335 10.12559,3.29001 z"
       style="fill:#ffffff;fill-opacity:1;stroke:none;stroke-width:0.26458332px;stroke-linecap:butt;stroke-linejoin:miter;stroke-opacity:1" />
    <path
       style="fill:#ffffff;fill-opacity:1;stroke:none;stroke-width:0.26458332px;stroke-linecap:butt;stroke-linejoin:miter;stroke-opacity:1"
       d="m 174.25119,395.43371 6.25796,-8.61335 -10.1256,3.29001 -6.25795,-8.61335 v 10.64668 l -10.12559,3.28998 10.12559,3.29002 v 10.64667 l 6.25796,-8.61335 10.12559,3.29001 z"
       id="path943"
       inkscape:connector-curvature="0"
       sodipodi:nodetypes="ccccccccccc" />
    <path
       sodipodi:nodetypes="ccccccccccc"
       inkscape:connector-curvature="0"
       id="path945"
       d="m 129.00727,395.43371 6.25796,-8.61335 -10.1256,3.29001 -6.25795,-8.61335 v 10.64668 l -10.12559,3.28998 10.12559,3.29002 v 10.64667 l 6.25796,-8.61335 10.12559,3.29001 z"
       style="fill:#ffffff;fill-opacity:1;stroke:none;stroke-width:0.26458332px;stroke-linecap:butt;stroke-linejoin:miter;stroke-opacity:1" />
    <path
       sodipodi:nodetypes="ccccccccccc"
       inkscape:connector-curvature="0"
       id="path947"
       d="m -6.724433,395.43371 6.25796,-8.61335 -10.1256,3.29001 -6.25795,-8.61335 v 10.64668 l -10.12559,3.28998 10.12559,3.29002 v 10.64667 l 6.25796,-8.61335 10.12559,3.29001 z"
       style="fill:#ffffff;fill-opacity:1;stroke:none;stroke-width:0.26458332px;stroke-linecap:butt;stroke-linejoin:miter;stroke-opacity:1" />
    <path
       style="fill:#ffffff;fill-opacity:1;stroke:none;stroke-width:0.26458332px;stroke-linecap:butt;stroke-linejoin:miter;stroke-opacity:1"
       d="m 83.763375,331.32314 6.25796,-8.61335 -10.1256,3.29001 -6.25795,-8.61335 v 10.64668 l -10.12559,3.28998 10.12559,3.29002 v 10.64667 l 6.25796,-8.61335 10.12559,3.29001 z"
       id="path949"
       inkscape:connector-curvature="0"
       sodipodi:nodetypes="ccccccccccc" />
    <path
       sodipodi:nodetypes="ccccccccccc"
       inkscape:connector-curvature="0"
       id="path951"
       d="m 219.49506,331.32314 6.25796,-8.61335 -10.1256,3.29001 -6.25795,-8.61335 v 10.64668 l -10.12559,3.28998 10.12559,3.29002 v 10.64667 l 6.25796,-8.61335 10.12559,3.29001 z"
       style="fill:#ffffff;fill-opacity:1;stroke:none;stroke-width:0.26458332px;stroke-linecap:butt;stroke-linejoin:miter;stroke-opacity:1" />
  </g>
</svg>
