<?xml version="1.0" encoding="UTF-8" standalone="no"?>
<!-- Created with Inkscape (http://www.inkscape.org/) -->

<svg
   xmlns:dc="http://purl.org/dc/elements/1.1/"
   xmlns:cc="http://creativecommons.org/ns#"
   xmlns:rdf="http://www.w3.org/1999/02/22-rdf-syntax-ns#"
   xmlns:svg="http://www.w3.org/2000/svg"
   xmlns="http://www.w3.org/2000/svg"
   xmlns:sodipodi="http://sodipodi.sourceforge.net/DTD/sodipodi-0.dtd"
   xmlns:inkscape="http://www.inkscape.org/namespaces/inkscape"
   width="3456.0115"
   height="1800.0002"
   viewBox="0 0 914.40303 476.25007"
   version="1.1"
   id="svg8"
   inkscape:export-filename="C:\Users\厂永刄先生\Documents\GXI3CW2\poM̕écèŭ\M̕é\1912.png"
   inkscape:export-xdpi="96"
   inkscape:export-ydpi="96"
   inkscape:version="0.92.4 (5da689c313, 2019-01-14)"
   sodipodi:docname="1912.svg">
  <defs
     id="defs2" />
  <sodipodi:namedview
     id="base"
     pagecolor="#ffffff"
     bordercolor="#666666"
     borderopacity="1.0"
     inkscape:pageopacity="0.0"
     inkscape:pageshadow="2"
     inkscape:zoom="0.258101"
     inkscape:cx="1728.0057"
     inkscape:cy="900.00013"
     inkscape:document-units="px"
     inkscape:current-layer="layer1"
     showgrid="false"
     units="px"
     fit-margin-top="0"
     fit-margin-left="0"
     fit-margin-right="0"
     fit-margin-bottom="0"
     inkscape:showpageshadow="false"
     inkscape:snap-intersection-paths="true"
     inkscape:object-paths="false"
     inkscape:pagecheckerboard="true"
     inkscape:snap-smooth-nodes="false"
     inkscape:window-width="1366"
     inkscape:window-height="745"
     inkscape:window-x="-8"
     inkscape:window-y="-8"
     inkscape:window-maximized="1"
     inkscape:object-nodes="true"
     inkscape:snap-nodes="true"
     showguides="false" />
  <metadata
     id="metadata5">
    <rdf:RDF>
      <cc:Work
         rdf:about="">
        <dc:format>image/svg+xml</dc:format>
        <dc:type
           rdf:resource="http://purl.org/dc/dcmitype/StillImage" />
        <dc:title />
      </cc:Work>
    </rdf:RDF>
  </metadata>
  <g
     inkscape:label="レイヤー 1"
     inkscape:groupmode="layer"
     id="layer1"
     transform="translate(112.33452,-299.2678)">
    <path
       style="fill:#ffffff;fill-opacity:1;stroke:none;stroke-width:0.51166773px;stroke-linecap:butt;stroke-linejoin:miter;stroke-opacity:1"
       d="m -102.80952,299.26786 h -9.525 v 476.25 h 9.525 z"
       id="path1079"
       inkscape:connector-curvature="0"
       sodipodi:nodetypes="ccccc" />
    <path
       sodipodi:nodetypes="ccccc"
       inkscape:connector-curvature="0"
       id="path824"
       d="m -102.80952,738.88324 v 36.63462 H 802.0685 v -36.63462 z"
       style="fill:#b31942;fill-opacity:1;stroke:none;stroke-width:2.28030705px;stroke-linecap:butt;stroke-linejoin:miter;stroke-opacity:1" />
    <path
       style="fill:#ffffff;fill-opacity:1;stroke:none;stroke-width:2.28030705px;stroke-linecap:butt;stroke-linejoin:miter;stroke-opacity:1"
       d="m -102.80952,702.24862 v 36.63462 H 802.0685 v -36.63462 z"
       id="path828"
       inkscape:connector-curvature="0"
       sodipodi:nodetypes="ccccc" />
    <path
       style="fill:#b31942;fill-opacity:1;stroke:none;stroke-width:2.28030705px;stroke-linecap:butt;stroke-linejoin:miter;stroke-opacity:1"
       d="m -102.80952,665.614 v 36.63462 H 802.0685 V 665.614 Z"
       id="path830"
       inkscape:connector-curvature="0"
       sodipodi:nodetypes="ccccc" />
    <path
       sodipodi:nodetypes="ccccc"
       inkscape:connector-curvature="0"
       id="path832"
       d="M -102.80952,628.97938 V 665.614 H 802.0685 v -36.63462 z"
       style="fill:#ffffff;fill-opacity:1;stroke:none;stroke-width:2.28030705px;stroke-linecap:butt;stroke-linejoin:miter;stroke-opacity:1" />
    <path
       sodipodi:nodetypes="ccccc"
       inkscape:connector-curvature="0"
       id="path834"
       d="m -102.80952,592.34476 v 36.63462 H 802.0685 v -36.63462 z"
       style="fill:#b31942;fill-opacity:1;stroke:none;stroke-width:2.28030705px;stroke-linecap:butt;stroke-linejoin:miter;stroke-opacity:1" />
    <path
       style="fill:#ffffff;fill-opacity:1;stroke:none;stroke-width:2.28030705px;stroke-linecap:butt;stroke-linejoin:miter;stroke-opacity:1"
       d="m -102.80952,555.71014 v 36.63462 H 802.0685 v -36.63462 z"
       id="path836"
       inkscape:connector-curvature="0"
       sodipodi:nodetypes="ccccc" />
    <path
       style="fill:#b31942;fill-opacity:1;stroke:none;stroke-width:2.28030705px;stroke-linecap:butt;stroke-linejoin:miter;stroke-opacity:1"
       d="m 259.14169,519.07552 v 36.63462 H 802.0685 v -36.63462 z"
       id="path838"
       inkscape:connector-curvature="0"
       sodipodi:nodetypes="ccccc" />
    <path
       sodipodi:nodetypes="ccccc"
       inkscape:connector-curvature="0"
       id="path840"
       d="m 259.14169,482.4409 v 36.63462 H 802.0685 V 482.4409 Z"
       style="fill:#ffffff;fill-opacity:1;stroke:none;stroke-width:2.28030705px;stroke-linecap:butt;stroke-linejoin:miter;stroke-opacity:1" />
    <path
       sodipodi:nodetypes="ccccc"
       inkscape:connector-curvature="0"
       id="path842"
       d="M 259.14169,445.80628 V 482.4409 H 802.0685 v -36.63462 z"
       style="fill:#b31942;fill-opacity:1;stroke:none;stroke-width:2.28030705px;stroke-linecap:butt;stroke-linejoin:miter;stroke-opacity:1" />
    <path
       sodipodi:nodetypes="ccccc"
       inkscape:connector-curvature="0"
       id="path844"
       d="m 259.14169,409.17166 v 36.63462 H 802.0685 v -36.63462 z"
       style="fill:#ffffff;fill-opacity:1;stroke:none;stroke-width:2.28030705px;stroke-linecap:butt;stroke-linejoin:miter;stroke-opacity:1" />
    <path
       sodipodi:nodetypes="ccccc"
       inkscape:connector-curvature="0"
       id="path846"
       d="m 259.14169,372.53704 v 36.63462 H 802.0685 v -36.63462 z"
       style="fill:#b31942;fill-opacity:1;stroke:none;stroke-width:2.28030705px;stroke-linecap:butt;stroke-linejoin:miter;stroke-opacity:1" />
    <path
       style="fill:#ffffff;fill-opacity:1;stroke:none;stroke-width:2.28030705px;stroke-linecap:butt;stroke-linejoin:miter;stroke-opacity:1"
       d="m 259.14169,335.90242 v 36.63462 H 802.0685 v -36.63462 z"
       id="path848"
       inkscape:connector-curvature="0"
       sodipodi:nodetypes="ccccc" />
    <path
       style="fill:#b31942;fill-opacity:1;stroke:none;stroke-width:2.28030705px;stroke-linecap:butt;stroke-linejoin:miter;stroke-opacity:1"
       d="m 259.14169,299.2678 v 36.63462 H 802.0685 V 299.2678 Z"
       id="path850"
       inkscape:connector-curvature="0"
       sodipodi:nodetypes="ccccc" />
    <path
       sodipodi:nodetypes="ccccc"
       inkscape:connector-curvature="0"
       id="path868"
       d="M 259.14169,555.71014 V 299.2678 l -361.95121,6e-5 v 256.44228 z"
       style="fill:#0a3161;fill-opacity:1;stroke:none;stroke-width:2.27037477px;stroke-linecap:butt;stroke-linejoin:miter;stroke-opacity:1" />
    <path
       style="fill:#ffffff;fill-opacity:1;stroke:none;stroke-width:0.26458332px;stroke-linecap:butt;stroke-linejoin:miter;stroke-opacity:1"
       d="m -62.592713,341.49977 8.61334,6.25796 -3.29001,-10.1256 8.61335,-6.25795 h -10.64668 l -3.28997,-10.12559 -3.29002,10.12559 h -10.64668 l 8.61336,6.25796 -3.29002,10.12559 z"
       id="path929"
       inkscape:connector-curvature="0"
       sodipodi:nodetypes="ccccccccccc" />
    <path
       sodipodi:nodetypes="ccccccccccc"
       inkscape:connector-curvature="0"
       id="path910"
       d="m -22.375919,378.13437 8.61334,6.25796 -3.29001,-10.1256 8.6133499,-6.25795 H -19.085919 l -3.28997,-10.12559 -3.29002,10.12559 h -10.64668 l 8.61336,6.25796 -3.29002,10.12559 z"
       style="fill:#ffffff;fill-opacity:1;stroke:none;stroke-width:0.26458332px;stroke-linecap:butt;stroke-linejoin:miter;stroke-opacity:1" />
    <path
       style="fill:#ffffff;fill-opacity:1;stroke:none;stroke-width:0.26458332px;stroke-linecap:butt;stroke-linejoin:miter;stroke-opacity:1"
       d="m 58.057675,341.49977 8.61334,6.25796 -3.29001,-10.1256 8.61335,-6.25795 h -10.64668 l -3.28997,-10.12559 -3.29002,10.12559 h -10.64668 l 8.61336,6.25796 -3.29002,10.12559 z"
       id="path912"
       inkscape:connector-curvature="0"
       sodipodi:nodetypes="ccccccccccc" />
    <path
       sodipodi:nodetypes="ccccccccccc"
       inkscape:connector-curvature="0"
       id="path914"
       d="m 138.49127,341.49977 8.61334,6.25796 -3.29001,-10.1256 8.61335,-6.25795 h -10.64668 l -3.28997,-10.12559 -3.29002,10.12559 H 124.5546 l 8.61336,6.25796 -3.29002,10.12559 z"
       style="fill:#ffffff;fill-opacity:1;stroke:none;stroke-width:0.26458332px;stroke-linecap:butt;stroke-linejoin:miter;stroke-opacity:1" />
    <path
       style="fill:#ffffff;fill-opacity:1;stroke:none;stroke-width:0.26458332px;stroke-linecap:butt;stroke-linejoin:miter;stroke-opacity:1"
       d="m 178.70804,488.03821 8.61334,6.25796 -3.29001,-10.1256 8.61335,-6.25795 h -10.64668 l -3.28997,-10.12559 -3.29002,10.12559 h -10.64668 l 8.61336,6.25796 -3.29002,10.12559 z"
       id="path916"
       inkscape:connector-curvature="0"
       sodipodi:nodetypes="ccccccccccc" />
    <path
       sodipodi:nodetypes="ccccccccccc"
       inkscape:connector-curvature="0"
       id="path918"
       d="m 218.92486,524.67282 8.61334,6.25796 -3.29001,-10.1256 8.61335,-6.25795 h -10.64668 l -3.28997,-10.12559 -3.29002,10.12559 h -10.64668 l 8.61336,6.25796 -3.29002,10.12559 z"
       style="fill:#ffffff;fill-opacity:1;stroke:none;stroke-width:0.26458332px;stroke-linecap:butt;stroke-linejoin:miter;stroke-opacity:1" />
    <path
       sodipodi:nodetypes="ccccccccccc"
       inkscape:connector-curvature="0"
       id="path920"
       d="m 17.840879,414.76898 8.61334,6.25796 -3.29001,-10.1256 8.61335,-6.25795 h -10.64668 l -3.28997,-10.12559 -3.29002,10.12559 H 3.9042089 l 8.6133601,6.25796 -3.2900201,10.12559 z"
       style="fill:#ffffff;fill-opacity:1;stroke:none;stroke-width:0.26458332px;stroke-linecap:butt;stroke-linejoin:miter;stroke-opacity:1" />
    <path
       style="fill:#ffffff;fill-opacity:1;stroke:none;stroke-width:0.26458332px;stroke-linecap:butt;stroke-linejoin:miter;stroke-opacity:1"
       d="m 98.274472,451.40358 8.613338,6.25796 -3.29001,-10.1256 8.61335,-6.25795 h -10.64668 l -3.289968,-10.12559 -3.29002,10.12559 h -10.64668 l 8.61336,6.25796 -3.29002,10.12559 z"
       id="path922"
       inkscape:connector-curvature="0"
       sodipodi:nodetypes="ccccccccccc" />
    <path
       style="fill:#ffffff;fill-opacity:1;stroke:none;stroke-width:0.26458332px;stroke-linecap:butt;stroke-linejoin:miter;stroke-opacity:1"
       d="m -22.375919,341.49977 8.61334,6.25796 -3.29001,-10.1256 8.6133499,-6.25795 H -19.085919 l -3.28997,-10.12559 -3.29002,10.12559 h -10.64668 l 8.61336,6.25796 -3.29002,10.12559 z"
       id="path924"
       inkscape:connector-curvature="0"
       sodipodi:nodetypes="ccccccccccc" />
    <path
       sodipodi:nodetypes="ccccccccccc"
       inkscape:connector-curvature="0"
       id="path926"
       d="m 178.70804,341.49977 8.61334,6.25796 -3.29001,-10.1256 8.61335,-6.25795 h -10.64668 l -3.28997,-10.12559 -3.29002,10.12559 h -10.64668 l 8.61336,6.25796 -3.29002,10.12559 z"
       style="fill:#ffffff;fill-opacity:1;stroke:none;stroke-width:0.26458332px;stroke-linecap:butt;stroke-linejoin:miter;stroke-opacity:1" />
    <path
       style="fill:#ffffff;fill-opacity:1;stroke:none;stroke-width:0.26458332px;stroke-linecap:butt;stroke-linejoin:miter;stroke-opacity:1"
       d="m 218.92486,341.49977 8.61334,6.25796 -3.29001,-10.1256 8.61335,-6.25795 h -10.64668 l -3.28997,-10.12559 -3.29002,10.12559 h -10.64668 l 8.61336,6.25796 -3.29002,10.12559 z"
       id="path928"
       inkscape:connector-curvature="0"
       sodipodi:nodetypes="ccccccccccc" />
    <path
       style="fill:#ffffff;fill-opacity:1;stroke:none;stroke-width:0.26458332px;stroke-linecap:butt;stroke-linejoin:miter;stroke-opacity:1"
       d="m 17.840879,341.49977 8.61334,6.25796 -3.29001,-10.1256 8.61335,-6.25795 h -10.64668 l -3.28997,-10.12559 -3.29002,10.12559 H 3.9042089 l 8.6133601,6.25796 -3.2900201,10.12559 z"
       id="path930"
       inkscape:connector-curvature="0"
       sodipodi:nodetypes="ccccccccccc" />
    <path
       sodipodi:nodetypes="ccccccccccc"
       inkscape:connector-curvature="0"
       id="path932"
       d="m 98.274472,341.49977 8.613338,6.25796 -3.29001,-10.1256 8.61335,-6.25795 h -10.64668 l -3.289968,-10.12559 -3.29002,10.12559 h -10.64668 l 8.61336,6.25796 -3.29002,10.12559 z"
       style="fill:#ffffff;fill-opacity:1;stroke:none;stroke-width:0.26458332px;stroke-linecap:butt;stroke-linejoin:miter;stroke-opacity:1" />
    <path
       sodipodi:nodetypes="ccccccccccc"
       inkscape:connector-curvature="0"
       id="path934"
       d="m -62.592713,378.13437 8.61334,6.25796 -3.29001,-10.1256 8.61335,-6.25795 h -10.64668 l -3.28997,-10.12559 -3.29002,10.12559 h -10.64668 l 8.61336,6.25796 -3.29002,10.12559 z"
       style="fill:#ffffff;fill-opacity:1;stroke:none;stroke-width:0.26458332px;stroke-linecap:butt;stroke-linejoin:miter;stroke-opacity:1" />
    <path
       sodipodi:nodetypes="ccccccccccc"
       inkscape:connector-curvature="0"
       id="path936"
       d="m 58.057675,378.13437 8.61334,6.25796 -3.29001,-10.1256 8.61335,-6.25795 h -10.64668 l -3.28997,-10.12559 -3.29002,10.12559 h -10.64668 l 8.61336,6.25796 -3.29002,10.12559 z"
       style="fill:#ffffff;fill-opacity:1;stroke:none;stroke-width:0.26458332px;stroke-linecap:butt;stroke-linejoin:miter;stroke-opacity:1" />
    <path
       style="fill:#ffffff;fill-opacity:1;stroke:none;stroke-width:0.26458332px;stroke-linecap:butt;stroke-linejoin:miter;stroke-opacity:1"
       d="m 138.49127,378.13437 8.61334,6.25796 -3.29001,-10.1256 8.61335,-6.25795 h -10.64668 l -3.28997,-10.12559 -3.29002,10.12559 H 124.5546 l 8.61336,6.25796 -3.29002,10.12559 z"
       id="path938"
       inkscape:connector-curvature="0"
       sodipodi:nodetypes="ccccccccccc" />
    <path
       style="fill:#ffffff;fill-opacity:1;stroke:none;stroke-width:0.26458332px;stroke-linecap:butt;stroke-linejoin:miter;stroke-opacity:1"
       d="m 178.70804,378.13437 8.61334,6.25796 -3.29001,-10.1256 8.61335,-6.25795 h -10.64668 l -3.28997,-10.12559 -3.29002,10.12559 h -10.64668 l 8.61336,6.25796 -3.29002,10.12559 z"
       id="path940"
       inkscape:connector-curvature="0"
       sodipodi:nodetypes="ccccccccccc" />
    <path
       sodipodi:nodetypes="ccccccccccc"
       inkscape:connector-curvature="0"
       id="path942"
       d="m 218.92486,378.13437 8.61334,6.25796 -3.29001,-10.1256 8.61335,-6.25795 h -10.64668 l -3.28997,-10.12559 -3.29002,10.12559 h -10.64668 l 8.61336,6.25796 -3.29002,10.12559 z"
       style="fill:#ffffff;fill-opacity:1;stroke:none;stroke-width:0.26458332px;stroke-linecap:butt;stroke-linejoin:miter;stroke-opacity:1" />
    <path
       sodipodi:nodetypes="ccccccccccc"
       inkscape:connector-curvature="0"
       id="path944"
       d="m 17.840879,378.13437 8.61334,6.25796 -3.29001,-10.1256 8.61335,-6.25795 h -10.64668 l -3.28997,-10.12559 -3.29002,10.12559 H 3.9042089 l 8.6133601,6.25796 -3.2900201,10.12559 z"
       style="fill:#ffffff;fill-opacity:1;stroke:none;stroke-width:0.26458332px;stroke-linecap:butt;stroke-linejoin:miter;stroke-opacity:1" />
    <path
       style="fill:#ffffff;fill-opacity:1;stroke:none;stroke-width:0.26458332px;stroke-linecap:butt;stroke-linejoin:miter;stroke-opacity:1"
       d="m 98.274472,378.13437 8.613338,6.25796 -3.29001,-10.1256 8.61335,-6.25795 h -10.64668 l -3.289968,-10.12559 -3.29002,10.12559 h -10.64668 l 8.61336,6.25796 -3.29002,10.12559 z"
       id="path946"
       inkscape:connector-curvature="0"
       sodipodi:nodetypes="ccccccccccc" />
    <path
       style="fill:#ffffff;fill-opacity:1;stroke:none;stroke-width:0.26458332px;stroke-linecap:butt;stroke-linejoin:miter;stroke-opacity:1"
       d="m -22.375919,414.76898 8.61334,6.25796 -3.29001,-10.1256 8.6133499,-6.25795 H -19.085919 l -3.28997,-10.12559 -3.29002,10.12559 h -10.64668 l 8.61336,6.25796 -3.29002,10.12559 z"
       id="path948"
       inkscape:connector-curvature="0"
       sodipodi:nodetypes="ccccccccccc" />
    <path
       style="fill:#ffffff;fill-opacity:1;stroke:none;stroke-width:0.26458332px;stroke-linecap:butt;stroke-linejoin:miter;stroke-opacity:1"
       d="m -62.592713,414.76898 8.61334,6.25796 -3.29001,-10.1256 8.61335,-6.25795 h -10.64668 l -3.28997,-10.12559 -3.29002,10.12559 h -10.64668 l 8.61336,6.25796 -3.29002,10.12559 z"
       id="path950"
       inkscape:connector-curvature="0"
       sodipodi:nodetypes="ccccccccccc" />
    <path
       style="fill:#ffffff;fill-opacity:1;stroke:none;stroke-width:0.26458332px;stroke-linecap:butt;stroke-linejoin:miter;stroke-opacity:1"
       d="m 58.057675,414.76898 8.61334,6.25796 -3.29001,-10.1256 8.61335,-6.25795 h -10.64668 l -3.28997,-10.12559 -3.29002,10.12559 h -10.64668 l 8.61336,6.25796 -3.29002,10.12559 z"
       id="path952"
       inkscape:connector-curvature="0"
       sodipodi:nodetypes="ccccccccccc" />
    <path
       sodipodi:nodetypes="ccccccccccc"
       inkscape:connector-curvature="0"
       id="path954"
       d="m 138.49127,414.76898 8.61334,6.25796 -3.29001,-10.1256 8.61335,-6.25795 h -10.64668 l -3.28997,-10.12559 -3.29002,10.12559 H 124.5546 l 8.61336,6.25796 -3.29002,10.12559 z"
       style="fill:#ffffff;fill-opacity:1;stroke:none;stroke-width:0.26458332px;stroke-linecap:butt;stroke-linejoin:miter;stroke-opacity:1" />
    <path
       sodipodi:nodetypes="ccccccccccc"
       inkscape:connector-curvature="0"
       id="path956"
       d="m 178.70804,414.76898 8.61334,6.25796 -3.29001,-10.1256 8.61335,-6.25795 h -10.64668 l -3.28997,-10.12559 -3.29002,10.12559 h -10.64668 l 8.61336,6.25796 -3.29002,10.12559 z"
       style="fill:#ffffff;fill-opacity:1;stroke:none;stroke-width:0.26458332px;stroke-linecap:butt;stroke-linejoin:miter;stroke-opacity:1" />
    <path
       style="fill:#ffffff;fill-opacity:1;stroke:none;stroke-width:0.26458332px;stroke-linecap:butt;stroke-linejoin:miter;stroke-opacity:1"
       d="m 218.92486,414.76898 8.61334,6.25796 -3.29001,-10.1256 8.61335,-6.25795 h -10.64668 l -3.28997,-10.12559 -3.29002,10.12559 h -10.64668 l 8.61336,6.25796 -3.29002,10.12559 z"
       id="path958"
       inkscape:connector-curvature="0"
       sodipodi:nodetypes="ccccccccccc" />
    <path
       sodipodi:nodetypes="ccccccccccc"
       inkscape:connector-curvature="0"
       id="path960"
       d="m 98.274472,414.76898 8.613338,6.25796 -3.29001,-10.1256 8.61335,-6.25795 h -10.64668 l -3.289968,-10.12559 -3.29002,10.12559 h -10.64668 l 8.61336,6.25796 -3.29002,10.12559 z"
       style="fill:#ffffff;fill-opacity:1;stroke:none;stroke-width:0.26458332px;stroke-linecap:butt;stroke-linejoin:miter;stroke-opacity:1" />
    <path
       style="fill:#ffffff;fill-opacity:1;stroke:none;stroke-width:0.26458332px;stroke-linecap:butt;stroke-linejoin:miter;stroke-opacity:1"
       d="m 17.840879,451.40358 8.61334,6.25796 -3.29001,-10.1256 8.61335,-6.25795 h -10.64668 l -3.28997,-10.12559 -3.29002,10.12559 H 3.9042089 l 8.6133601,6.25796 -3.2900201,10.12559 z"
       id="path962"
       inkscape:connector-curvature="0"
       sodipodi:nodetypes="ccccccccccc" />
    <path
       sodipodi:nodetypes="ccccccccccc"
       inkscape:connector-curvature="0"
       id="path964"
       d="m -22.375919,451.40358 8.61334,6.25796 -3.29001,-10.1256 8.6133499,-6.25795 H -19.085919 l -3.28997,-10.12559 -3.29002,10.12559 h -10.64668 l 8.61336,6.25796 -3.29002,10.12559 z"
       style="fill:#ffffff;fill-opacity:1;stroke:none;stroke-width:0.26458332px;stroke-linecap:butt;stroke-linejoin:miter;stroke-opacity:1" />
    <path
       sodipodi:nodetypes="ccccccccccc"
       inkscape:connector-curvature="0"
       id="path966"
       d="m -62.592713,451.40358 8.61334,6.25796 -3.29001,-10.1256 8.61335,-6.25795 h -10.64668 l -3.28997,-10.12559 -3.29002,10.12559 h -10.64668 l 8.61336,6.25796 -3.29002,10.12559 z"
       style="fill:#ffffff;fill-opacity:1;stroke:none;stroke-width:0.26458332px;stroke-linecap:butt;stroke-linejoin:miter;stroke-opacity:1" />
    <path
       sodipodi:nodetypes="ccccccccccc"
       inkscape:connector-curvature="0"
       id="path968"
       d="m 58.057675,451.40358 8.61334,6.25796 -3.29001,-10.1256 8.61335,-6.25795 h -10.64668 l -3.28997,-10.12559 -3.29002,10.12559 h -10.64668 l 8.61336,6.25796 -3.29002,10.12559 z"
       style="fill:#ffffff;fill-opacity:1;stroke:none;stroke-width:0.26458332px;stroke-linecap:butt;stroke-linejoin:miter;stroke-opacity:1" />
    <path
       style="fill:#ffffff;fill-opacity:1;stroke:none;stroke-width:0.26458332px;stroke-linecap:butt;stroke-linejoin:miter;stroke-opacity:1"
       d="m 138.49127,451.40358 8.61334,6.25796 -3.29001,-10.1256 8.61335,-6.25795 h -10.64668 l -3.28997,-10.12559 -3.29002,10.12559 H 124.5546 l 8.61336,6.25796 -3.29002,10.12559 z"
       id="path970"
       inkscape:connector-curvature="0"
       sodipodi:nodetypes="ccccccccccc" />
    <path
       style="fill:#ffffff;fill-opacity:1;stroke:none;stroke-width:0.26458332px;stroke-linecap:butt;stroke-linejoin:miter;stroke-opacity:1"
       d="m 178.70804,451.40358 8.61334,6.25796 -3.29001,-10.1256 8.61335,-6.25795 h -10.64668 l -3.28997,-10.12559 -3.29002,10.12559 h -10.64668 l 8.61336,6.25796 -3.29002,10.12559 z"
       id="path972"
       inkscape:connector-curvature="0"
       sodipodi:nodetypes="ccccccccccc" />
    <path
       sodipodi:nodetypes="ccccccccccc"
       inkscape:connector-curvature="0"
       id="path974"
       d="m 218.92486,451.40358 8.61334,6.25796 -3.29001,-10.1256 8.61335,-6.25795 h -10.64668 l -3.28997,-10.12559 -3.29002,10.12559 h -10.64668 l 8.61336,6.25796 -3.29002,10.12559 z"
       style="fill:#ffffff;fill-opacity:1;stroke:none;stroke-width:0.26458332px;stroke-linecap:butt;stroke-linejoin:miter;stroke-opacity:1" />
    <path
       sodipodi:nodetypes="ccccccccccc"
       inkscape:connector-curvature="0"
       id="path976"
       d="m 98.274472,488.03821 8.613338,6.25796 -3.29001,-10.1256 8.61335,-6.25795 h -10.64668 l -3.289968,-10.12559 -3.29002,10.12559 h -10.64668 l 8.61336,6.25796 -3.29002,10.12559 z"
       style="fill:#ffffff;fill-opacity:1;stroke:none;stroke-width:0.26458332px;stroke-linecap:butt;stroke-linejoin:miter;stroke-opacity:1" />
    <path
       sodipodi:nodetypes="ccccccccccc"
       inkscape:connector-curvature="0"
       id="path978"
       d="m 17.840879,488.03821 8.61334,6.25796 -3.29001,-10.1256 8.61335,-6.25795 h -10.64668 l -3.28997,-10.12559 -3.29002,10.12559 H 3.9042089 l 8.6133601,6.25796 -3.2900201,10.12559 z"
       style="fill:#ffffff;fill-opacity:1;stroke:none;stroke-width:0.26458332px;stroke-linecap:butt;stroke-linejoin:miter;stroke-opacity:1" />
    <path
       style="fill:#ffffff;fill-opacity:1;stroke:none;stroke-width:0.26458332px;stroke-linecap:butt;stroke-linejoin:miter;stroke-opacity:1"
       d="m -22.375919,488.03821 8.61334,6.25796 -3.29001,-10.1256 8.6133499,-6.25795 H -19.085919 l -3.28997,-10.12559 -3.29002,10.12559 h -10.64668 l 8.61336,6.25796 -3.29002,10.12559 z"
       id="path980"
       inkscape:connector-curvature="0"
       sodipodi:nodetypes="ccccccccccc" />
    <path
       style="fill:#ffffff;fill-opacity:1;stroke:none;stroke-width:0.26458332px;stroke-linecap:butt;stroke-linejoin:miter;stroke-opacity:1"
       d="m -62.592713,488.03821 8.61334,6.25796 -3.29001,-10.1256 8.61335,-6.25795 h -10.64668 l -3.28997,-10.12559 -3.29002,10.12559 h -10.64668 l 8.61336,6.25796 -3.29002,10.12559 z"
       id="path982"
       inkscape:connector-curvature="0"
       sodipodi:nodetypes="ccccccccccc" />
    <path
       style="fill:#ffffff;fill-opacity:1;stroke:none;stroke-width:0.26458332px;stroke-linecap:butt;stroke-linejoin:miter;stroke-opacity:1"
       d="m 58.057675,488.03821 8.61334,6.25796 -3.29001,-10.1256 8.61335,-6.25795 h -10.64668 l -3.28997,-10.12559 -3.29002,10.12559 h -10.64668 l 8.61336,6.25796 -3.29002,10.12559 z"
       id="path984"
       inkscape:connector-curvature="0"
       sodipodi:nodetypes="ccccccccccc" />
    <path
       sodipodi:nodetypes="ccccccccccc"
       inkscape:connector-curvature="0"
       id="path986"
       d="m 138.49127,488.03821 8.61334,6.25796 -3.29001,-10.1256 8.61335,-6.25795 h -10.64668 l -3.28997,-10.12559 -3.29002,10.12559 H 124.5546 l 8.61336,6.25796 -3.29002,10.12559 z"
       style="fill:#ffffff;fill-opacity:1;stroke:none;stroke-width:0.26458332px;stroke-linecap:butt;stroke-linejoin:miter;stroke-opacity:1" />
    <path
       style="fill:#ffffff;fill-opacity:1;stroke:none;stroke-width:0.26458332px;stroke-linecap:butt;stroke-linejoin:miter;stroke-opacity:1"
       d="m 218.92486,488.03821 8.61334,6.25796 -3.29001,-10.1256 8.61335,-6.25795 h -10.64668 l -3.28997,-10.12559 -3.29002,10.12559 h -10.64668 l 8.61336,6.25796 -3.29002,10.12559 z"
       id="path988"
       inkscape:connector-curvature="0"
       sodipodi:nodetypes="ccccccccccc" />
    <path
       sodipodi:nodetypes="ccccccccccc"
       inkscape:connector-curvature="0"
       id="path990"
       d="m 178.70804,524.67282 8.61334,6.25796 -3.29001,-10.1256 8.61335,-6.25795 h -10.64668 l -3.28997,-10.12559 -3.29002,10.12559 h -10.64668 l 8.61336,6.25796 -3.29002,10.12559 z"
       style="fill:#ffffff;fill-opacity:1;stroke:none;stroke-width:0.26458332px;stroke-linecap:butt;stroke-linejoin:miter;stroke-opacity:1" />
    <path
       style="fill:#ffffff;fill-opacity:1;stroke:none;stroke-width:0.26458332px;stroke-linecap:butt;stroke-linejoin:miter;stroke-opacity:1"
       d="m 98.274472,524.67282 8.613338,6.25796 -3.29001,-10.1256 8.61335,-6.25795 h -10.64668 l -3.289968,-10.12559 -3.29002,10.12559 h -10.64668 l 8.61336,6.25796 -3.29002,10.12559 z"
       id="path992"
       inkscape:connector-curvature="0"
       sodipodi:nodetypes="ccccccccccc" />
    <path
       style="fill:#ffffff;fill-opacity:1;stroke:none;stroke-width:0.26458332px;stroke-linecap:butt;stroke-linejoin:miter;stroke-opacity:1"
       d="m 17.840879,524.67282 8.61334,6.25796 -3.29001,-10.1256 8.61335,-6.25795 h -10.64668 l -3.28997,-10.12559 -3.29002,10.12559 H 3.9042089 l 8.6133601,6.25796 -3.2900201,10.12559 z"
       id="path994"
       inkscape:connector-curvature="0"
       sodipodi:nodetypes="ccccccccccc" />
    <path
       sodipodi:nodetypes="ccccccccccc"
       inkscape:connector-curvature="0"
       id="path996"
       d="m -22.375919,524.67282 8.61334,6.25796 -3.29001,-10.1256 8.6133499,-6.25795 H -19.085919 l -3.28997,-10.12559 -3.29002,10.12559 h -10.64668 l 8.61336,6.25796 -3.29002,10.12559 z"
       style="fill:#ffffff;fill-opacity:1;stroke:none;stroke-width:0.26458332px;stroke-linecap:butt;stroke-linejoin:miter;stroke-opacity:1" />
    <path
       sodipodi:nodetypes="ccccccccccc"
       inkscape:connector-curvature="0"
       id="path998"
       d="m -62.592713,524.67282 8.61334,6.25796 -3.29001,-10.1256 8.61335,-6.25795 h -10.64668 l -3.28997,-10.12559 -3.29002,10.12559 h -10.64668 l 8.61336,6.25796 -3.29002,10.12559 z"
       style="fill:#ffffff;fill-opacity:1;stroke:none;stroke-width:0.26458332px;stroke-linecap:butt;stroke-linejoin:miter;stroke-opacity:1" />
    <path
       sodipodi:nodetypes="ccccccccccc"
       inkscape:connector-curvature="0"
       id="path1000"
       d="m 58.057675,524.67282 8.61334,6.25796 -3.29001,-10.1256 8.61335,-6.25795 h -10.64668 l -3.28997,-10.12559 -3.29002,10.12559 h -10.64668 l 8.61336,6.25796 -3.29002,10.12559 z"
       style="fill:#ffffff;fill-opacity:1;stroke:none;stroke-width:0.26458332px;stroke-linecap:butt;stroke-linejoin:miter;stroke-opacity:1" />
    <path
       style="fill:#ffffff;fill-opacity:1;stroke:none;stroke-width:0.26458332px;stroke-linecap:butt;stroke-linejoin:miter;stroke-opacity:1"
       d="m 138.49127,524.67282 8.61334,6.25796 -3.29001,-10.1256 8.61335,-6.25795 h -10.64668 l -3.28997,-10.12559 -3.29002,10.12559 H 124.5546 l 8.61336,6.25796 -3.29002,10.12559 z"
       id="path1002"
       inkscape:connector-curvature="0"
       sodipodi:nodetypes="ccccccccccc" />
  </g>
</svg>
