<?xml version="1.0" encoding="UTF-8" standalone="no"?>
<!-- Created with Inkscape (http://www.inkscape.org/) -->

<svg
   xmlns:dc="http://purl.org/dc/elements/1.1/"
   xmlns:cc="http://creativecommons.org/ns#"
   xmlns:rdf="http://www.w3.org/1999/02/22-rdf-syntax-ns#"
   xmlns:svg="http://www.w3.org/2000/svg"
   xmlns="http://www.w3.org/2000/svg"
   xmlns:sodipodi="http://sodipodi.sourceforge.net/DTD/sodipodi-0.dtd"
   xmlns:inkscape="http://www.inkscape.org/namespaces/inkscape"
   width="3456.0115"
   height="1800.0002"
   viewBox="0 0 914.40303 476.25007"
   version="1.1"
   id="svg8"
   inkscape:export-filename="C:\Users\厂永刄先生\Documents\GXI3CW2\poM̕écèŭ\M̕é\11960年㋆㏣以來.png"
   inkscape:export-xdpi="96"
   inkscape:export-ydpi="96"
   inkscape:version="0.92.4 (5da689c313, 2019-01-14)"
   sodipodi:docname="M'E2.svg">
  <defs
     id="defs2" />
  <sodipodi:namedview
     id="base"
     pagecolor="#ffffff"
     bordercolor="#666666"
     borderopacity="1.0"
     inkscape:pageopacity="0.0"
     inkscape:pageshadow="2"
     inkscape:zoom="0.56862877"
     inkscape:cx="1421.1271"
     inkscape:cy="900.00011"
     inkscape:document-units="px"
     inkscape:current-layer="layer1"
     showgrid="false"
     units="px"
     fit-margin-top="0"
     fit-margin-left="0"
     fit-margin-right="0"
     fit-margin-bottom="0"
     inkscape:showpageshadow="false"
     inkscape:snap-intersection-paths="true"
     inkscape:object-paths="false"
     inkscape:pagecheckerboard="true"
     inkscape:snap-smooth-nodes="false"
     inkscape:window-width="1366"
     inkscape:window-height="745"
     inkscape:window-x="-8"
     inkscape:window-y="-8"
     inkscape:window-maximized="1"
     inkscape:object-nodes="true"
     inkscape:snap-nodes="true"
     showguides="false" />
  <metadata
     id="metadata5">
    <rdf:RDF>
      <cc:Work
         rdf:about="">
        <dc:format>image/svg+xml</dc:format>
        <dc:type
           rdf:resource="http://purl.org/dc/dcmitype/StillImage" />
        <dc:title />
      </cc:Work>
    </rdf:RDF>
  </metadata>
  <g
     inkscape:label="レイヤー 1"
     inkscape:groupmode="layer"
     id="layer1"
     transform="translate(112.33452,-299.2678)">
    <path
       style="fill:#ffffff;fill-opacity:1;stroke:none;stroke-width:0.51166773px;stroke-linecap:butt;stroke-linejoin:miter;stroke-opacity:1"
       d="m -102.80952,299.26786 h -9.525 v 476.25 h 9.525 z"
       id="path1079"
       inkscape:connector-curvature="0"
       sodipodi:nodetypes="ccccc" />
    <path
       sodipodi:nodetypes="ccccc"
       inkscape:connector-curvature="0"
       id="path824"
       d="m -102.80952,738.88324 v 36.63462 H 802.0685 v -36.63462 z"
       style="fill:#b31942;fill-opacity:1;stroke:none;stroke-width:2.28030705px;stroke-linecap:butt;stroke-linejoin:miter;stroke-opacity:1" />
    <path
       style="fill:#ffffff;fill-opacity:1;stroke:none;stroke-width:2.28030705px;stroke-linecap:butt;stroke-linejoin:miter;stroke-opacity:1"
       d="m -102.80952,702.24862 v 36.63462 H 802.0685 v -36.63462 z"
       id="path828"
       inkscape:connector-curvature="0"
       sodipodi:nodetypes="ccccc" />
    <path
       style="fill:#b31942;fill-opacity:1;stroke:none;stroke-width:2.28030705px;stroke-linecap:butt;stroke-linejoin:miter;stroke-opacity:1"
       d="m -102.80952,665.614 v 36.63462 H 802.0685 V 665.614 Z"
       id="path830"
       inkscape:connector-curvature="0"
       sodipodi:nodetypes="ccccc" />
    <path
       sodipodi:nodetypes="ccccc"
       inkscape:connector-curvature="0"
       id="path832"
       d="M -102.80952,628.97938 V 665.614 H 802.0685 v -36.63462 z"
       style="fill:#ffffff;fill-opacity:1;stroke:none;stroke-width:2.28030705px;stroke-linecap:butt;stroke-linejoin:miter;stroke-opacity:1" />
    <path
       sodipodi:nodetypes="ccccc"
       inkscape:connector-curvature="0"
       id="path834"
       d="m -102.80952,592.34476 v 36.63462 H 802.0685 v -36.63462 z"
       style="fill:#b31942;fill-opacity:1;stroke:none;stroke-width:2.28030705px;stroke-linecap:butt;stroke-linejoin:miter;stroke-opacity:1" />
    <path
       style="fill:#ffffff;fill-opacity:1;stroke:none;stroke-width:2.28030705px;stroke-linecap:butt;stroke-linejoin:miter;stroke-opacity:1"
       d="m -102.80952,555.71014 v 36.63462 H 802.0685 v -36.63462 z"
       id="path836"
       inkscape:connector-curvature="0"
       sodipodi:nodetypes="ccccc" />
    <path
       style="fill:#b31942;fill-opacity:1;stroke:none;stroke-width:2.28030705px;stroke-linecap:butt;stroke-linejoin:miter;stroke-opacity:1"
       d="m 259.14169,519.07552 v 36.63462 H 802.0685 v -36.63462 z"
       id="path838"
       inkscape:connector-curvature="0"
       sodipodi:nodetypes="ccccc" />
    <path
       sodipodi:nodetypes="ccccc"
       inkscape:connector-curvature="0"
       id="path840"
       d="m 259.14169,482.4409 v 36.63462 H 802.0685 V 482.4409 Z"
       style="fill:#ffffff;fill-opacity:1;stroke:none;stroke-width:2.28030705px;stroke-linecap:butt;stroke-linejoin:miter;stroke-opacity:1" />
    <path
       sodipodi:nodetypes="ccccc"
       inkscape:connector-curvature="0"
       id="path842"
       d="M 259.14169,445.80628 V 482.4409 H 802.0685 v -36.63462 z"
       style="fill:#b31942;fill-opacity:1;stroke:none;stroke-width:2.28030705px;stroke-linecap:butt;stroke-linejoin:miter;stroke-opacity:1" />
    <path
       sodipodi:nodetypes="ccccc"
       inkscape:connector-curvature="0"
       id="path844"
       d="m 259.14169,409.17166 v 36.63462 H 802.0685 v -36.63462 z"
       style="fill:#ffffff;fill-opacity:1;stroke:none;stroke-width:2.28030705px;stroke-linecap:butt;stroke-linejoin:miter;stroke-opacity:1" />
    <path
       sodipodi:nodetypes="ccccc"
       inkscape:connector-curvature="0"
       id="path846"
       d="m 259.14169,372.53704 v 36.63462 H 802.0685 v -36.63462 z"
       style="fill:#b31942;fill-opacity:1;stroke:none;stroke-width:2.28030705px;stroke-linecap:butt;stroke-linejoin:miter;stroke-opacity:1" />
    <path
       style="fill:#ffffff;fill-opacity:1;stroke:none;stroke-width:2.28030705px;stroke-linecap:butt;stroke-linejoin:miter;stroke-opacity:1"
       d="m 259.14169,335.90242 v 36.63462 H 802.0685 v -36.63462 z"
       id="path848"
       inkscape:connector-curvature="0"
       sodipodi:nodetypes="ccccc" />
    <path
       style="fill:#b31942;fill-opacity:1;stroke:none;stroke-width:2.28030705px;stroke-linecap:butt;stroke-linejoin:miter;stroke-opacity:1"
       d="m 259.14169,299.2678 v 36.63462 H 802.0685 V 299.2678 Z"
       id="path850"
       inkscape:connector-curvature="0"
       sodipodi:nodetypes="ccccc" />
    <path
       sodipodi:nodetypes="ccccc"
       inkscape:connector-curvature="0"
       id="path868"
       d="M 259.14169,555.71014 V 299.2678 l -361.95121,6e-5 v 256.44228 z"
       style="fill:#0a3161;fill-opacity:1;stroke:none;stroke-width:2.27037477px;stroke-linecap:butt;stroke-linejoin:miter;stroke-opacity:1" />
    <path
       style="fill:#ffffff;fill-opacity:1;stroke:none;stroke-width:0.26458332px;stroke-linecap:butt;stroke-linejoin:miter;stroke-opacity:1"
       d="m 228.97906,535.6632 8.61335,6.25796 -3.29001,-10.1256 8.61335,-6.25795 h -10.64668 l -3.28998,-10.12559 -3.29002,10.12559 H 215.0424 l 8.61335,6.25796 -3.29001,10.12559 z"
       id="path898"
       inkscape:connector-curvature="0"
       sodipodi:nodetypes="ccccccccccc" />
    <path
       sodipodi:nodetypes="ccccccccccc"
       inkscape:connector-curvature="0"
       id="path911"
       d="m 198.81645,510.01895 8.61335,6.25796 -3.29001,-10.1256 8.61335,-6.25795 h -10.64668 l -3.28998,-10.12559 -3.29002,10.12559 h -10.64667 l 8.61335,6.25796 -3.29001,10.12559 z"
       style="fill:#ffffff;fill-opacity:1;stroke:none;stroke-width:0.26458332px;stroke-linecap:butt;stroke-linejoin:miter;stroke-opacity:1" />
    <path
       style="fill:#ffffff;fill-opacity:1;stroke:none;stroke-width:0.26458332px;stroke-linecap:butt;stroke-linejoin:miter;stroke-opacity:1"
       d="m 168.65386,535.6632 8.61335,6.25796 -3.29001,-10.1256 8.61335,-6.25795 h -10.64668 l -3.28998,-10.12559 -3.29002,10.12559 H 154.7172 l 8.61335,6.25796 -3.29001,10.12559 z"
       id="path913"
       inkscape:connector-curvature="0"
       sodipodi:nodetypes="ccccccccccc" />
    <path
       sodipodi:nodetypes="ccccccccccc"
       inkscape:connector-curvature="0"
       id="path915"
       d="m 138.49126,510.01895 8.61335,6.25796 -3.29001,-10.1256 8.61335,-6.25795 h -10.64668 l -3.28998,-10.12559 -3.29002,10.12559 H 124.5546 l 8.61335,6.25796 -3.29001,10.12559 z"
       style="fill:#ffffff;fill-opacity:1;stroke:none;stroke-width:0.26458332px;stroke-linecap:butt;stroke-linejoin:miter;stroke-opacity:1" />
    <path
       style="fill:#ffffff;fill-opacity:1;stroke:none;stroke-width:0.26458332px;stroke-linecap:butt;stroke-linejoin:miter;stroke-opacity:1"
       d="m 108.32866,484.37472 8.61335,6.25796 -3.29001,-10.1256 8.61335,-6.25795 h -10.64668 l -3.28998,-10.12559 -3.29002,10.12559 H 94.392 l 8.61335,6.25796 -3.29001,10.12559 z"
       id="path917"
       inkscape:connector-curvature="0"
       sodipodi:nodetypes="ccccccccccc" />
    <path
       sodipodi:nodetypes="ccccccccccc"
       inkscape:connector-curvature="0"
       id="path919"
       d="m 78.166047,458.73049 8.61335,6.25796 -3.29001,-10.1256 8.61335,-6.25795 h -10.64668 l -3.28998,-10.12559 -3.29002,10.12559 h -10.64667 l 8.61335,6.25796 -3.29001,10.12559 z"
       style="fill:#ffffff;fill-opacity:1;stroke:none;stroke-width:0.26458332px;stroke-linecap:butt;stroke-linejoin:miter;stroke-opacity:1" />
    <path
       style="fill:#ffffff;fill-opacity:1;stroke:none;stroke-width:0.26458332px;stroke-linecap:butt;stroke-linejoin:miter;stroke-opacity:1"
       d="m 48.003446,433.08627 8.61335,6.25796 -3.29001,-10.1256 8.61335,-6.25795 h -10.64668 l -3.28998,-10.12559 -3.29002,10.12559 h -10.64667 l 8.61335,6.25796 -3.29001,10.12559 z"
       id="path921"
       inkscape:connector-curvature="0"
       sodipodi:nodetypes="ccccccccccc" />
    <path
       sodipodi:nodetypes="ccccccccccc"
       inkscape:connector-curvature="0"
       id="path923"
       d="m 17.840856,407.44204 8.61335,6.25796 -3.29001,-10.1256 8.61335,-6.25795 h -10.64668 l -3.28998,-10.12559 -3.29002,10.12559 H 3.9041956 L 12.517546,403.57441 9.2275356,413.7 Z"
       style="fill:#ffffff;fill-opacity:1;stroke:none;stroke-width:0.26458332px;stroke-linecap:butt;stroke-linejoin:miter;stroke-opacity:1" />
    <path
       style="fill:#ffffff;fill-opacity:1;stroke:none;stroke-width:0.26458332px;stroke-linecap:butt;stroke-linejoin:miter;stroke-opacity:1"
       d="m -12.321738,381.79779 8.6133497,6.25796 -3.29001,-10.1256 8.61335,-6.25795 h -10.64668 l -3.2899797,-10.12559 -3.29002,10.12559 h -10.646671 l 8.613351,6.25796 -3.290011,10.12559 z"
       id="path925"
       inkscape:connector-curvature="0"
       sodipodi:nodetypes="ccccccccccc" />
    <path
       sodipodi:nodetypes="ccccccccccc"
       inkscape:connector-curvature="0"
       id="path927"
       d="m -42.484351,356.15356 8.613349,6.25796 -3.29001,-10.1256 8.61335,-6.25795 h -10.64668 l -3.289979,-10.12559 -3.29002,10.12559 h -10.646671 l 8.613351,6.25796 -3.290011,10.12559 z"
       style="fill:#ffffff;fill-opacity:1;stroke:none;stroke-width:0.26458332px;stroke-linecap:butt;stroke-linejoin:miter;stroke-opacity:1" />
    <path
       style="fill:#ffffff;fill-opacity:1;stroke:none;stroke-width:0.26458332px;stroke-linecap:butt;stroke-linejoin:miter;stroke-opacity:1"
       d="m -72.646949,330.5093 8.613349,6.25796 -3.29001,-10.1256 8.61335,-6.25795 h -10.64668 l -3.289979,-10.12559 -3.29002,10.12559 H -86.58361 l 8.613351,6.25796 -3.290011,10.12559 z"
       id="path929"
       inkscape:connector-curvature="0"
       sodipodi:nodetypes="ccccccccccc" />
    <path
       sodipodi:nodetypes="ccccccccccc"
       inkscape:connector-curvature="0"
       id="path931"
       d="m 228.97906,330.5093 8.61335,6.25796 -3.29001,-10.1256 8.61335,-6.25795 h -10.64668 l -3.28998,-10.12559 -3.29002,10.12559 H 215.0424 l 8.61335,6.25796 -3.29001,10.12559 z"
       style="fill:#ffffff;fill-opacity:1;stroke:none;stroke-width:0.26458332px;stroke-linecap:butt;stroke-linejoin:miter;stroke-opacity:1" />
    <path
       sodipodi:nodetypes="ccccccccccc"
       inkscape:connector-curvature="0"
       id="path933"
       d="m 168.65386,330.5093 8.61335,6.25796 -3.29001,-10.1256 8.61335,-6.25795 h -10.64668 l -3.28998,-10.12559 -3.29002,10.12559 H 154.7172 l 8.61335,6.25796 -3.29001,10.12559 z"
       style="fill:#ffffff;fill-opacity:1;stroke:none;stroke-width:0.26458332px;stroke-linecap:butt;stroke-linejoin:miter;stroke-opacity:1" />
    <path
       sodipodi:nodetypes="ccccccccccc"
       inkscape:connector-curvature="0"
       id="path935"
       d="m 108.32866,330.5093 8.61335,6.25796 -3.29001,-10.1256 8.61335,-6.25795 h -10.64668 l -3.28998,-10.12559 -3.29002,10.12559 H 94.392 l 8.61335,6.25796 -3.29001,10.12559 z"
       style="fill:#ffffff;fill-opacity:1;stroke:none;stroke-width:0.26458332px;stroke-linecap:butt;stroke-linejoin:miter;stroke-opacity:1" />
    <path
       sodipodi:nodetypes="ccccccccccc"
       inkscape:connector-curvature="0"
       id="path937"
       d="m 48.003446,330.5093 8.61335,6.25796 -3.29001,-10.1256 8.61335,-6.25795 h -10.64668 l -3.28998,-10.12559 -3.29002,10.12559 h -10.64667 l 8.61335,6.25796 -3.29001,10.12559 z"
       style="fill:#ffffff;fill-opacity:1;stroke:none;stroke-width:0.26458332px;stroke-linecap:butt;stroke-linejoin:miter;stroke-opacity:1" />
    <path
       sodipodi:nodetypes="ccccccccccc"
       inkscape:connector-curvature="0"
       id="path939"
       d="m -12.321738,330.5093 8.6133497,6.25796 -3.29001,-10.1256 8.61335,-6.25795 h -10.64668 l -3.2899797,-10.12559 -3.29002,10.12559 h -10.646671 l 8.613351,6.25796 -3.290011,10.12559 z"
       style="fill:#ffffff;fill-opacity:1;stroke:none;stroke-width:0.26458332px;stroke-linecap:butt;stroke-linejoin:miter;stroke-opacity:1" />
    <path
       sodipodi:nodetypes="ccccccccccc"
       inkscape:connector-curvature="0"
       id="path941"
       d="m -72.646949,381.79779 8.613349,6.25796 -3.29001,-10.1256 8.61335,-6.25795 h -10.64668 l -3.289979,-10.12559 -3.29002,10.12559 H -86.58361 l 8.613351,6.25796 -3.290011,10.12559 z"
       style="fill:#ffffff;fill-opacity:1;stroke:none;stroke-width:0.26458332px;stroke-linecap:butt;stroke-linejoin:miter;stroke-opacity:1" />
    <path
       style="fill:#ffffff;fill-opacity:1;stroke:none;stroke-width:0.26458332px;stroke-linecap:butt;stroke-linejoin:miter;stroke-opacity:1"
       d="m 228.97906,381.79779 8.61335,6.25796 -3.29001,-10.1256 8.61335,-6.25795 h -10.64668 l -3.28998,-10.12559 -3.29002,10.12559 H 215.0424 l 8.61335,6.25796 -3.29001,10.12559 z"
       id="path943"
       inkscape:connector-curvature="0"
       sodipodi:nodetypes="ccccccccccc" />
    <path
       style="fill:#ffffff;fill-opacity:1;stroke:none;stroke-width:0.26458332px;stroke-linecap:butt;stroke-linejoin:miter;stroke-opacity:1"
       d="m 168.65386,381.79779 8.61335,6.25796 -3.29001,-10.1256 8.61335,-6.25795 h -10.64668 l -3.28998,-10.12559 -3.29002,10.12559 H 154.7172 l 8.61335,6.25796 -3.29001,10.12559 z"
       id="path945"
       inkscape:connector-curvature="0"
       sodipodi:nodetypes="ccccccccccc" />
    <path
       style="fill:#ffffff;fill-opacity:1;stroke:none;stroke-width:0.26458332px;stroke-linecap:butt;stroke-linejoin:miter;stroke-opacity:1"
       d="m 108.32866,381.79779 8.61335,6.25796 -3.29001,-10.1256 8.61335,-6.25795 h -10.64668 l -3.28998,-10.12559 -3.29002,10.12559 H 94.392 l 8.61335,6.25796 -3.29001,10.12559 z"
       id="path947"
       inkscape:connector-curvature="0"
       sodipodi:nodetypes="ccccccccccc" />
    <path
       style="fill:#ffffff;fill-opacity:1;stroke:none;stroke-width:0.26458332px;stroke-linecap:butt;stroke-linejoin:miter;stroke-opacity:1"
       d="m 48.003446,381.79779 8.61335,6.25796 -3.29001,-10.1256 8.61335,-6.25795 h -10.64668 l -3.28998,-10.12559 -3.29002,10.12559 h -10.64667 l 8.61335,6.25796 -3.29001,10.12559 z"
       id="path949"
       inkscape:connector-curvature="0"
       sodipodi:nodetypes="ccccccccccc" />
    <path
       sodipodi:nodetypes="ccccccccccc"
       inkscape:connector-curvature="0"
       id="path951"
       d="m -12.321738,433.08627 8.6133497,6.25796 -3.29001,-10.1256 8.61335,-6.25795 h -10.64668 l -3.2899797,-10.12559 -3.29002,10.12559 h -10.646671 l 8.613351,6.25796 -3.290011,10.12559 z"
       style="fill:#ffffff;fill-opacity:1;stroke:none;stroke-width:0.26458332px;stroke-linecap:butt;stroke-linejoin:miter;stroke-opacity:1" />
    <path
       style="fill:#ffffff;fill-opacity:1;stroke:none;stroke-width:0.26458332px;stroke-linecap:butt;stroke-linejoin:miter;stroke-opacity:1"
       d="m -72.646949,433.08627 8.613349,6.25796 -3.29001,-10.1256 8.61335,-6.25795 h -10.64668 l -3.289979,-10.12559 -3.29002,10.12559 H -86.58361 l 8.613351,6.25796 -3.290011,10.12559 z"
       id="path953"
       inkscape:connector-curvature="0"
       sodipodi:nodetypes="ccccccccccc" />
    <path
       sodipodi:nodetypes="ccccccccccc"
       inkscape:connector-curvature="0"
       id="path955"
       d="m 228.97906,433.08627 8.61335,6.25796 -3.29001,-10.1256 8.61335,-6.25795 h -10.64668 l -3.28998,-10.12559 -3.29002,10.12559 H 215.0424 l 8.61335,6.25796 -3.29001,10.12559 z"
       style="fill:#ffffff;fill-opacity:1;stroke:none;stroke-width:0.26458332px;stroke-linecap:butt;stroke-linejoin:miter;stroke-opacity:1" />
    <path
       sodipodi:nodetypes="ccccccccccc"
       inkscape:connector-curvature="0"
       id="path957"
       d="m 168.65386,433.08627 8.61335,6.25796 -3.29001,-10.1256 8.61335,-6.25795 h -10.64668 l -3.28998,-10.12559 -3.29002,10.12559 H 154.7172 l 8.61335,6.25796 -3.29001,10.12559 z"
       style="fill:#ffffff;fill-opacity:1;stroke:none;stroke-width:0.26458332px;stroke-linecap:butt;stroke-linejoin:miter;stroke-opacity:1" />
    <path
       sodipodi:nodetypes="ccccccccccc"
       inkscape:connector-curvature="0"
       id="path959"
       d="m 108.32866,433.08627 8.61335,6.25796 -3.29001,-10.1256 8.61335,-6.25795 h -10.64668 l -3.28998,-10.12559 -3.29002,10.12559 H 94.392 l 8.61335,6.25796 -3.29001,10.12559 z"
       style="fill:#ffffff;fill-opacity:1;stroke:none;stroke-width:0.26458332px;stroke-linecap:butt;stroke-linejoin:miter;stroke-opacity:1" />
    <path
       sodipodi:nodetypes="ccccccccccc"
       inkscape:connector-curvature="0"
       id="path961"
       d="m 48.003446,484.37472 8.61335,6.25796 -3.29001,-10.1256 8.61335,-6.25795 h -10.64668 l -3.28998,-10.12559 -3.29002,10.12559 h -10.64667 l 8.61335,6.25796 -3.29001,10.12559 z"
       style="fill:#ffffff;fill-opacity:1;stroke:none;stroke-width:0.26458332px;stroke-linecap:butt;stroke-linejoin:miter;stroke-opacity:1" />
    <path
       style="fill:#ffffff;fill-opacity:1;stroke:none;stroke-width:0.26458332px;stroke-linecap:butt;stroke-linejoin:miter;stroke-opacity:1"
       d="m -12.321738,484.37472 8.6133497,6.25796 -3.29001,-10.1256 8.61335,-6.25795 h -10.64668 l -3.2899797,-10.12559 -3.29002,10.12559 h -10.646671 l 8.613351,6.25796 -3.290011,10.12559 z"
       id="path963"
       inkscape:connector-curvature="0"
       sodipodi:nodetypes="ccccccccccc" />
    <path
       sodipodi:nodetypes="ccccccccccc"
       inkscape:connector-curvature="0"
       id="path965"
       d="m -72.646949,484.37472 8.613349,6.25796 -3.29001,-10.1256 8.61335,-6.25795 h -10.64668 l -3.289979,-10.12559 -3.29002,10.12559 H -86.58361 l 8.613351,6.25796 -3.290011,10.12559 z"
       style="fill:#ffffff;fill-opacity:1;stroke:none;stroke-width:0.26458332px;stroke-linecap:butt;stroke-linejoin:miter;stroke-opacity:1" />
    <path
       style="fill:#ffffff;fill-opacity:1;stroke:none;stroke-width:0.26458332px;stroke-linecap:butt;stroke-linejoin:miter;stroke-opacity:1"
       d="m 228.97906,484.37472 8.61335,6.25796 -3.29001,-10.1256 8.61335,-6.25795 h -10.64668 l -3.28998,-10.12559 -3.29002,10.12559 H 215.0424 l 8.61335,6.25796 -3.29001,10.12559 z"
       id="path967"
       inkscape:connector-curvature="0"
       sodipodi:nodetypes="ccccccccccc" />
    <path
       style="fill:#ffffff;fill-opacity:1;stroke:none;stroke-width:0.26458332px;stroke-linecap:butt;stroke-linejoin:miter;stroke-opacity:1"
       d="m 168.65386,484.37472 8.61335,6.25796 -3.29001,-10.1256 8.61335,-6.25795 h -10.64668 l -3.28998,-10.12559 -3.29002,10.12559 H 154.7172 l 8.61335,6.25796 -3.29001,10.12559 z"
       id="path969"
       inkscape:connector-curvature="0"
       sodipodi:nodetypes="ccccccccccc" />
    <path
       sodipodi:nodetypes="ccccccccccc"
       inkscape:connector-curvature="0"
       id="path971"
       d="m 108.32866,535.6632 8.61335,6.25796 -3.29001,-10.1256 8.61335,-6.25795 h -10.64668 l -3.28998,-10.12559 -3.29002,10.12559 H 94.392 l 8.61335,6.25796 -3.29001,10.12559 z"
       style="fill:#ffffff;fill-opacity:1;stroke:none;stroke-width:0.26458332px;stroke-linecap:butt;stroke-linejoin:miter;stroke-opacity:1" />
    <path
       style="fill:#ffffff;fill-opacity:1;stroke:none;stroke-width:0.26458332px;stroke-linecap:butt;stroke-linejoin:miter;stroke-opacity:1"
       d="m 48.003446,535.6632 8.61335,6.25796 -3.29001,-10.1256 8.61335,-6.25795 h -10.64668 l -3.28998,-10.12559 -3.29002,10.12559 h -10.64667 l 8.61335,6.25796 -3.29001,10.12559 z"
       id="path973"
       inkscape:connector-curvature="0"
       sodipodi:nodetypes="ccccccccccc" />
    <path
       sodipodi:nodetypes="ccccccccccc"
       inkscape:connector-curvature="0"
       id="path975"
       d="m -12.321738,535.6632 8.6133497,6.25796 -3.29001,-10.1256 8.61335,-6.25795 h -10.64668 l -3.2899797,-10.12559 -3.29002,10.12559 h -10.646671 l 8.613351,6.25796 -3.290011,10.12559 z"
       style="fill:#ffffff;fill-opacity:1;stroke:none;stroke-width:0.26458332px;stroke-linecap:butt;stroke-linejoin:miter;stroke-opacity:1" />
    <path
       style="fill:#ffffff;fill-opacity:1;stroke:none;stroke-width:0.26458332px;stroke-linecap:butt;stroke-linejoin:miter;stroke-opacity:1"
       d="m -72.646949,535.6632 8.613349,6.25796 -3.29001,-10.1256 8.61335,-6.25795 h -10.64668 l -3.289979,-10.12559 -3.29002,10.12559 H -86.58361 l 8.613351,6.25796 -3.290011,10.12559 z"
       id="path977"
       inkscape:connector-curvature="0"
       sodipodi:nodetypes="ccccccccccc" />
    <path
       style="fill:#ffffff;fill-opacity:1;stroke:none;stroke-width:0.26458332px;stroke-linecap:butt;stroke-linejoin:miter;stroke-opacity:1"
       d="m 198.81645,356.15356 8.61335,6.25796 -3.29001,-10.1256 8.61335,-6.25795 h -10.64668 l -3.28998,-10.12559 -3.29002,10.12559 h -10.64667 l 8.61335,6.25796 -3.29001,10.12559 z"
       id="path979"
       inkscape:connector-curvature="0"
       sodipodi:nodetypes="ccccccccccc" />
    <path
       style="fill:#ffffff;fill-opacity:1;stroke:none;stroke-width:0.26458332px;stroke-linecap:butt;stroke-linejoin:miter;stroke-opacity:1"
       d="m 138.49126,356.15356 8.61335,6.25796 -3.29001,-10.1256 8.61335,-6.25795 h -10.64668 l -3.28998,-10.12559 -3.29002,10.12559 H 124.5546 l 8.61335,6.25796 -3.29001,10.12559 z"
       id="path981"
       inkscape:connector-curvature="0"
       sodipodi:nodetypes="ccccccccccc" />
    <path
       style="fill:#ffffff;fill-opacity:1;stroke:none;stroke-width:0.26458332px;stroke-linecap:butt;stroke-linejoin:miter;stroke-opacity:1"
       d="m 78.166047,356.15356 8.61335,6.25796 -3.29001,-10.1256 8.61335,-6.25795 h -10.64668 l -3.28998,-10.12559 -3.29002,10.12559 h -10.64667 l 8.61335,6.25796 -3.29001,10.12559 z"
       id="path983"
       inkscape:connector-curvature="0"
       sodipodi:nodetypes="ccccccccccc" />
    <path
       style="fill:#ffffff;fill-opacity:1;stroke:none;stroke-width:0.26458332px;stroke-linecap:butt;stroke-linejoin:miter;stroke-opacity:1"
       d="m 17.840856,356.15356 8.61335,6.25796 -3.29001,-10.1256 8.61335,-6.25795 h -10.64668 l -3.28998,-10.12559 -3.29002,10.12559 H 3.9041956 l 8.6133504,6.25796 -3.2900104,10.12559 z"
       id="path985"
       inkscape:connector-curvature="0"
       sodipodi:nodetypes="ccccccccccc" />
    <path
       style="fill:#ffffff;fill-opacity:1;stroke:none;stroke-width:0.26458332px;stroke-linecap:butt;stroke-linejoin:miter;stroke-opacity:1"
       d="m -42.484351,407.44204 8.613349,6.25796 -3.29001,-10.1256 8.61335,-6.25795 h -10.64668 l -3.289979,-10.12559 -3.29002,10.12559 h -10.646671 l 8.613351,6.25796 -3.290011,10.12559 z"
       id="path987"
       inkscape:connector-curvature="0"
       sodipodi:nodetypes="ccccccccccc" />
    <path
       sodipodi:nodetypes="ccccccccccc"
       inkscape:connector-curvature="0"
       id="path989"
       d="m 198.81645,407.44204 8.61335,6.25796 -3.29001,-10.1256 8.61335,-6.25795 h -10.64668 l -3.28998,-10.12559 -3.29002,10.12559 h -10.64667 l 8.61335,6.25796 -3.29001,10.12559 z"
       style="fill:#ffffff;fill-opacity:1;stroke:none;stroke-width:0.26458332px;stroke-linecap:butt;stroke-linejoin:miter;stroke-opacity:1" />
    <path
       sodipodi:nodetypes="ccccccccccc"
       inkscape:connector-curvature="0"
       id="path991"
       d="m 138.49126,407.44204 8.61335,6.25796 -3.29001,-10.1256 8.61335,-6.25795 h -10.64668 l -3.28998,-10.12559 -3.29002,10.12559 H 124.5546 l 8.61335,6.25796 -3.29001,10.12559 z"
       style="fill:#ffffff;fill-opacity:1;stroke:none;stroke-width:0.26458332px;stroke-linecap:butt;stroke-linejoin:miter;stroke-opacity:1" />
    <path
       sodipodi:nodetypes="ccccccccccc"
       inkscape:connector-curvature="0"
       id="path993"
       d="m 78.166047,407.44204 8.61335,6.25796 -3.29001,-10.1256 8.61335,-6.25795 h -10.64668 l -3.28998,-10.12559 -3.29002,10.12559 h -10.64667 l 8.61335,6.25796 -3.29001,10.12559 z"
       style="fill:#ffffff;fill-opacity:1;stroke:none;stroke-width:0.26458332px;stroke-linecap:butt;stroke-linejoin:miter;stroke-opacity:1" />
    <path
       style="fill:#ffffff;fill-opacity:1;stroke:none;stroke-width:0.26458332px;stroke-linecap:butt;stroke-linejoin:miter;stroke-opacity:1"
       d="m 17.840856,458.73049 8.61335,6.25796 -3.29001,-10.1256 8.61335,-6.25795 h -10.64668 l -3.28998,-10.12559 -3.29002,10.12559 H 3.9041956 l 8.6133504,6.25796 -3.2900104,10.12559 z"
       id="path995"
       inkscape:connector-curvature="0"
       sodipodi:nodetypes="ccccccccccc" />
    <path
       sodipodi:nodetypes="ccccccccccc"
       inkscape:connector-curvature="0"
       id="path997"
       d="m -42.484351,458.73049 8.613349,6.25796 -3.29001,-10.1256 8.61335,-6.25795 h -10.64668 l -3.289979,-10.12559 -3.29002,10.12559 h -10.646671 l 8.613351,6.25796 -3.290011,10.12559 z"
       style="fill:#ffffff;fill-opacity:1;stroke:none;stroke-width:0.26458332px;stroke-linecap:butt;stroke-linejoin:miter;stroke-opacity:1" />
    <path
       style="fill:#ffffff;fill-opacity:1;stroke:none;stroke-width:0.26458332px;stroke-linecap:butt;stroke-linejoin:miter;stroke-opacity:1"
       d="m 198.81645,458.73049 8.61335,6.25796 -3.29001,-10.1256 8.61335,-6.25795 h -10.64668 l -3.28998,-10.12559 -3.29002,10.12559 h -10.64667 l 8.61335,6.25796 -3.29001,10.12559 z"
       id="path999"
       inkscape:connector-curvature="0"
       sodipodi:nodetypes="ccccccccccc" />
    <path
       style="fill:#ffffff;fill-opacity:1;stroke:none;stroke-width:0.26458332px;stroke-linecap:butt;stroke-linejoin:miter;stroke-opacity:1"
       d="m 138.49126,458.73049 8.61335,6.25796 -3.29001,-10.1256 8.61335,-6.25795 h -10.64668 l -3.28998,-10.12559 -3.29002,10.12559 H 124.5546 l 8.61335,6.25796 -3.29001,10.12559 z"
       id="path1001"
       inkscape:connector-curvature="0"
       sodipodi:nodetypes="ccccccccccc" />
    <path
       style="fill:#ffffff;fill-opacity:1;stroke:none;stroke-width:0.26458332px;stroke-linecap:butt;stroke-linejoin:miter;stroke-opacity:1"
       d="m 78.166047,510.01895 8.61335,6.25796 -3.29001,-10.1256 8.61335,-6.25795 h -10.64668 l -3.28998,-10.12559 -3.29002,10.12559 h -10.64667 l 8.61335,6.25796 -3.29001,10.12559 z"
       id="path1003"
       inkscape:connector-curvature="0"
       sodipodi:nodetypes="ccccccccccc" />
    <path
       sodipodi:nodetypes="ccccccccccc"
       inkscape:connector-curvature="0"
       id="path1005"
       d="m 17.840856,510.01895 8.61335,6.25796 -3.29001,-10.1256 8.61335,-6.25795 h -10.64668 l -3.28998,-10.12559 -3.29002,10.12559 H 3.9041956 l 8.6133504,6.25796 -3.2900104,10.12559 z"
       style="fill:#ffffff;fill-opacity:1;stroke:none;stroke-width:0.26458332px;stroke-linecap:butt;stroke-linejoin:miter;stroke-opacity:1" />
    <path
       style="fill:#ffffff;fill-opacity:1;stroke:none;stroke-width:0.26458332px;stroke-linecap:butt;stroke-linejoin:miter;stroke-opacity:1"
       d="m -42.484351,510.01895 8.613349,6.25796 -3.29001,-10.1256 8.61335,-6.25795 h -10.64668 l -3.289979,-10.12559 -3.29002,10.12559 h -10.646671 l 8.613351,6.25796 -3.290011,10.12559 z"
       id="path1007"
       inkscape:connector-curvature="0"
       sodipodi:nodetypes="ccccccccccc" />
  </g>
</svg>
