<?xml version="1.0" encoding="UTF-8" standalone="no"?>
<!-- Created with Inkscape (http://www.inkscape.org/) -->

<svg
   xmlns:dc="http://purl.org/dc/elements/1.1/"
   xmlns:cc="http://creativecommons.org/ns#"
   xmlns:rdf="http://www.w3.org/1999/02/22-rdf-syntax-ns#"
   xmlns:svg="http://www.w3.org/2000/svg"
   xmlns="http://www.w3.org/2000/svg"
   xmlns:sodipodi="http://sodipodi.sourceforge.net/DTD/sodipodi-0.dtd"
   xmlns:inkscape="http://www.inkscape.org/namespaces/inkscape"
   width="3456.0115"
   height="1800.0002"
   viewBox="0 0 914.40303 476.25007"
   version="1.1"
   id="svg8"
   inkscape:export-filename="C:\Users\drk22\Documents\GXI3CW2\poM̕écèŭ\M̕é\Minnesota提案.png"
   inkscape:export-xdpi="96"
   inkscape:export-ydpi="96"
   inkscape:version="0.92.4 (5da689c313, 2019-01-14)"
   sodipodi:docname="Minnesota提案.svg">
  <defs
     id="defs2" />
  <sodipodi:namedview
     id="base"
     pagecolor="#ffffff"
     bordercolor="#666666"
     borderopacity="1.0"
     inkscape:pageopacity="0.0"
     inkscape:pageshadow="2"
     inkscape:zoom="0.27723568"
     inkscape:cx="1261.2034"
     inkscape:cy="890.93763"
     inkscape:document-units="px"
     inkscape:current-layer="layer1"
     showgrid="false"
     units="px"
     fit-margin-top="0"
     fit-margin-left="0"
     fit-margin-right="0"
     fit-margin-bottom="0"
     inkscape:showpageshadow="false"
     inkscape:snap-intersection-paths="false"
     inkscape:object-paths="false"
     inkscape:pagecheckerboard="true"
     inkscape:snap-smooth-nodes="true"
     inkscape:window-width="1920"
     inkscape:window-height="1051"
     inkscape:window-x="-9"
     inkscape:window-y="-9"
     inkscape:window-maximized="1"
     inkscape:object-nodes="true"
     inkscape:snap-nodes="true" />
  <metadata
     id="metadata5">
    <rdf:RDF>
      <cc:Work
         rdf:about="">
        <dc:format>image/svg+xml</dc:format>
        <dc:type
           rdf:resource="http://purl.org/dc/dcmitype/StillImage" />
        <dc:title />
      </cc:Work>
    </rdf:RDF>
  </metadata>
  <g
     inkscape:label="レイヤー 1"
     inkscape:groupmode="layer"
     id="layer1"
     transform="translate(112.33452,-299.2678)">
    <path
       style="fill:#ffffff;fill-opacity:1;stroke:none;stroke-width:0.51166773px;stroke-linecap:butt;stroke-linejoin:miter;stroke-opacity:1"
       d="m -102.80952,299.26786 h -9.525 v 476.25 h 9.525 z"
       id="path1079"
       inkscape:connector-curvature="0"
       sodipodi:nodetypes="ccccc" />
    <path
       sodipodi:nodetypes="szzzzzzzzzzzccccs"
       inkscape:connector-curvature="0"
       id="path887"
       d="m 613.47227,600.89286 c -38.9719,0 -20.71823,31.74996 -59.69014,31.74996 -38.97192,0 -20.71825,-31.74996 -59.69017,-31.74996 -38.9719,0 -20.71824,31.74996 -59.69014,31.74996 -38.9719,0 -20.71825,-31.74996 -59.69015,-31.74996 -38.97191,0 -20.71825,31.74996 -59.69015,31.74996 -38.9719,0 -20.71824,-31.74996 -59.69015,-31.74996 -38.97191,0 -20.71829,31.74996 -59.69019,31.74996 -38.9719,0 -20.7182,-31.74996 -59.69011,-31.74996 -38.971903,0 -20.71826,31.74996 -59.690176,31.74996 -38.971913,0 -20.71824,-31.74996 -59.690132,-31.74996 -38.971903,0 -20.7182301,31.74996 -59.690133,31.74996 -38.971903,0 -20.71824,-31.74996 -59.690149,-31.74996 V 299.26778 l 904.87802,2e-5 -158.75003,317.50004 c -5.17994,-7.93805 -10.35888,-15.87498 -29.8462,-15.87498 z"
       style="fill:#0a3161;fill-opacity:1;stroke:none;stroke-width:0.1401521px;stroke-linecap:butt;stroke-linejoin:miter;stroke-opacity:1" />
    <path
       style="fill:#c7ddf9;fill-opacity:1;stroke:none;stroke-width:0.1401521px;stroke-linecap:butt;stroke-linejoin:miter;stroke-opacity:1"
       d="m 613.47227,600.89286 c -38.9719,0 -20.71823,31.74996 -59.69014,31.74996 -38.97192,0 -20.71825,-31.74996 -59.69017,-31.74996 -38.9719,0 -20.71824,31.74996 -59.69014,31.74996 -38.9719,0 -20.71825,-31.74996 -59.69015,-31.74996 -38.97191,0 -20.71825,31.74996 -59.69015,31.74996 -38.9719,0 -20.71824,-31.74996 -59.69015,-31.74996 -38.97191,0 -20.71829,31.74996 -59.69019,31.74996 -38.9719,0 -20.7182,-31.74996 -59.69011,-31.74996 -38.971903,0 -20.71826,31.74996 -59.690176,31.74996 -38.971913,0 -20.71824,-31.74996 -59.690132,-31.74996 -38.971903,0 -20.7182301,31.74996 -59.690133,31.74996 -38.971903,0 -20.71824,-31.74996 -59.690149,-31.74996 l 0,174.625 904.87802,0 -158.75003,-158.75002 c -5.17994,-7.93805 -10.35888,-15.87498 -29.8462,-15.87498 z"
       id="path891"
       inkscape:connector-curvature="0"
       sodipodi:nodetypes="szzzzzzzzzzzccccs" />
    <path
       style="opacity:1;fill:#ffc000;fill-opacity:1;stroke:none;stroke-width:0.26901653;stroke-linecap:butt;stroke-linejoin:round;stroke-miterlimit:4;stroke-dasharray:none;stroke-dashoffset:0;stroke-opacity:1;paint-order:stroke fill markers"
       inkscape:transform-center-x="3.329735e-06"
       inkscape:transform-center-y="1.6175058e-06"
       d="m 135.95107,378.64282 17.82079,54.84678 h 57.66931 l -46.65545,33.89717 17.82079,54.84678 -46.65545,-33.89718 -46.655451,33.89717 17.820801,-54.84677 -46.655456,-33.89717 h 57.669306 z"
       id="path897"
       inkscape:connector-curvature="0"
       sodipodi:nodetypes="ccccccccccc" />
    <path
       sodipodi:nodetypes="cszzzzzzzzzzzcccc"
       inkscape:connector-curvature="0"
       id="path819"
       d="m 643.31847,616.76784 c -5.17994,-7.93805 -10.35888,-15.87498 -29.8462,-15.87498 -38.9719,0 -20.71823,31.74996 -59.69014,31.74996 -38.97192,0 -20.71825,-31.74996 -59.69017,-31.74996 -38.9719,0 -20.71824,31.74996 -59.69014,31.74996 -38.9719,0 -20.71825,-31.74996 -59.69015,-31.74996 -38.97191,0 -20.71825,31.74996 -59.69015,31.74996 -38.9719,0 -20.71824,-31.74996 -59.69015,-31.74996 -38.97191,0 -20.71829,31.74996 -59.69019,31.74996 -38.9719,0 -20.7182,-31.74996 -59.69011,-31.74996 -38.971903,0 -20.71826,31.74996 -59.690176,31.74996 -38.971913,0 -20.71824,-31.74996 -59.690132,-31.74996 -38.971903,0 -20.7182301,31.74996 -59.690133,31.74996 -38.971903,0 -20.71824,-31.74996 -59.690149,-31.74996 l 0,95.24999 825.503,0 z"
       style="fill:#c7ddf9;fill-opacity:1;stroke:none;stroke-width:0.1401521px;stroke-linecap:butt;stroke-linejoin:miter;stroke-opacity:1" />
    <path
       style="fill:#109a34;fill-opacity:1;stroke:none;stroke-width:0.1401521px;stroke-linecap:butt;stroke-linejoin:miter;stroke-opacity:1"
       d="m -102.80952,696.14285 v 79.37501 H 802.0685 l -79.37502,-79.37501 z"
       id="path821"
       inkscape:connector-curvature="0"
       sodipodi:nodetypes="ccccc" />
  </g>
</svg>
