<?xml version="1.0" encoding="UTF-8" standalone="no"?>
<!-- Created with Inkscape (http://www.inkscape.org/) -->

<svg
   xmlns:dc="http://purl.org/dc/elements/1.1/"
   xmlns:cc="http://creativecommons.org/ns#"
   xmlns:rdf="http://www.w3.org/1999/02/22-rdf-syntax-ns#"
   xmlns:svg="http://www.w3.org/2000/svg"
   xmlns="http://www.w3.org/2000/svg"
   xmlns:sodipodi="http://sodipodi.sourceforge.net/DTD/sodipodi-0.dtd"
   xmlns:inkscape="http://www.inkscape.org/namespaces/inkscape"
   width="3456.0115"
   height="1800.0002"
   viewBox="0 0 914.40303 476.25007"
   version="1.1"
   id="svg8"
   inkscape:export-filename="C:\Users\drk22\Documents\GXI3CW2\poM̕écèŭ\M̕é\Nebraska proposal.png"
   inkscape:export-xdpi="96"
   inkscape:export-ydpi="96"
   inkscape:version="0.92.4 (5da689c313, 2019-01-14)"
   sodipodi:docname="Nebraska提案.svg">
  <defs
     id="defs2" />
  <sodipodi:namedview
     id="base"
     pagecolor="#ffffff"
     bordercolor="#666666"
     borderopacity="1.0"
     inkscape:pageopacity="0.0"
     inkscape:pageshadow="2"
     inkscape:zoom="0.40208126"
     inkscape:cx="1238.5943"
     inkscape:cy="1029.6334"
     inkscape:document-units="px"
     inkscape:current-layer="layer1"
     showgrid="false"
     units="px"
     fit-margin-top="0"
     fit-margin-left="0"
     fit-margin-right="0"
     fit-margin-bottom="0"
     inkscape:showpageshadow="false"
     inkscape:snap-intersection-paths="true"
     inkscape:object-paths="false"
     inkscape:pagecheckerboard="true"
     inkscape:snap-smooth-nodes="false"
     inkscape:window-width="1920"
     inkscape:window-height="1051"
     inkscape:window-x="-9"
     inkscape:window-y="-9"
     inkscape:window-maximized="1"
     inkscape:object-nodes="true"
     inkscape:snap-nodes="true"
     showguides="false" />
  <metadata
     id="metadata5">
    <rdf:RDF>
      <cc:Work
         rdf:about="">
        <dc:format>image/svg+xml</dc:format>
        <dc:type
           rdf:resource="http://purl.org/dc/dcmitype/StillImage" />
        <dc:title></dc:title>
      </cc:Work>
    </rdf:RDF>
  </metadata>
  <g
     inkscape:label="レイヤー 1"
     inkscape:groupmode="layer"
     id="layer1"
     transform="translate(112.33452,-299.2678)">
    <path
       sodipodi:nodetypes="ccccc"
       inkscape:connector-curvature="0"
       id="path840"
       d="M -102.80952,299.2678 V 537.39283 H 802.0685 V 299.2678 Z"
       style="fill:#77aef1;fill-opacity:1;stroke:none;stroke-width:2.28030705px;stroke-linecap:butt;stroke-linejoin:miter;stroke-opacity:1" />
    <path
       style="fill:#ffffff;fill-opacity:1;stroke:none;stroke-width:0.51166773px;stroke-linecap:butt;stroke-linejoin:miter;stroke-opacity:1"
       d="m -102.80952,299.26786 h -9.525 v 476.25 h 9.525 z"
       id="path1079"
       inkscape:connector-curvature="0"
       sodipodi:nodetypes="ccccc" />
    <path
       sodipodi:nodetypes="ccccc"
       inkscape:connector-curvature="0"
       id="path824"
       d="M -102.80952,537.39283 V 775.51786 H 802.0685 V 537.39283 Z"
       style="fill:#21a011;fill-opacity:1;stroke:none;stroke-width:2.28030705px;stroke-linecap:butt;stroke-linejoin:miter;stroke-opacity:1" />
    <path
       style="fill:#ffffff;fill-opacity:1;stroke:none;stroke-width:0.21497387px;stroke-linecap:butt;stroke-linejoin:miter;stroke-opacity:1"
       d="m 207.33357,537.39283 5.08459,6.99833 -8.22705,-2.67312 -5.08458,6.99834 v -8.65042 l -8.22704,-2.67311 8.22704,-2.67314 v -8.65042 l 5.08459,6.99835 8.22704,-2.67314 z"
       id="path886"
       inkscape:connector-curvature="0"
       sodipodi:nodetypes="ccccccccccc" />
    <path
       style="fill:#ffffff;fill-opacity:1;stroke:none;stroke-width:0.21497387px;stroke-linecap:butt;stroke-linejoin:miter;stroke-opacity:1"
       d="m 349.62948,395.09691 6.99834,5.08459 -2.67313,-8.22705 6.99834,-5.08458 h -8.65042 l -2.67311,-8.22704 -2.67314,8.22704 h -8.65041 l 6.99834,5.08459 -2.67313,8.22704 z"
       id="path880"
       inkscape:connector-curvature="0"
       sodipodi:nodetypes="ccccccccccc" />
    <path
       sodipodi:nodetypes="ccccccccccc"
       inkscape:connector-curvature="0"
       id="path882"
       d="m 349.62948,679.68876 6.99834,-5.08459 -2.67313,8.22704 6.99834,5.08459 h -8.65042 l -2.67311,8.22704 -2.67314,-8.22704 h -8.65041 l 6.99834,-5.08459 -2.67313,-8.22704 z"
       style="fill:#ffffff;fill-opacity:1;stroke:none;stroke-width:0.21497387px;stroke-linecap:butt;stroke-linejoin:miter;stroke-opacity:1" />
    <path
       sodipodi:nodetypes="ccccccccccc"
       inkscape:connector-curvature="0"
       id="path884"
       d="m 491.92541,537.39282 -5.08459,6.99834 8.22705,-2.67313 5.08458,6.99834 v -8.65042 l 8.22704,-2.67311 -8.22704,-2.67314 v -8.65042 l -5.08459,6.99835 -8.22704,-2.67313 z"
       style="fill:#ffffff;fill-opacity:1;stroke:none;stroke-width:0.21497387px;stroke-linecap:butt;stroke-linejoin:miter;stroke-opacity:1" />
    <path
       sodipodi:nodetypes="ccccccccccc"
       inkscape:connector-curvature="0"
       id="path888"
       d="m 374.33891,397.2587 6.00909,6.2226 -1.20391,-8.56624 7.77496,-3.7921 -8.51901,-1.50213 -1.20388,-8.56622 -4.06115,7.63786 -8.519,-1.50213 6.00909,6.22259 -4.06112,7.63787 z"
       style="fill:#ffffff;fill-opacity:1;stroke:none;stroke-width:0.21497387px;stroke-linecap:butt;stroke-linejoin:miter;stroke-opacity:1" />
    <path
       style="fill:#ffffff;fill-opacity:1;stroke:none;stroke-width:0.21497387px;stroke-linecap:butt;stroke-linejoin:miter;stroke-opacity:1"
       d="m 324.92005,677.52696 7.77495,-3.79209 -4.06113,7.63787 6.0091,6.22259 -8.51901,-1.50213 -4.06111,7.63787 -1.20391,-8.56624 -8.51901,-1.50213 7.77496,-3.79209 -1.20391,-8.56624 z"
       id="path890"
       inkscape:connector-curvature="0"
       sodipodi:nodetypes="ccccccccccc" />
    <path
       style="fill:#ffffff;fill-opacity:1;stroke:none;stroke-width:0.21497387px;stroke-linecap:butt;stroke-linejoin:miter;stroke-opacity:1"
       d="m 489.76362,562.10224 -6.2226,6.0091 8.56625,-1.20391 3.79209,7.77496 1.50213,-8.51902 8.56623,-1.20388 -7.63787,-4.06114 1.50213,-8.519 -6.22259,6.00909 -7.63787,-4.06112 z"
       id="path892"
       inkscape:connector-curvature="0"
       sodipodi:nodetypes="ccccccccccc" />
    <path
       sodipodi:nodetypes="ccccccccccc"
       inkscape:connector-curvature="0"
       id="path894"
       d="m 209.49536,512.6834 3.7921,7.77494 -7.63788,-4.06112 -6.22258,6.0091 1.50213,-8.51901 -7.63787,-4.06111 8.56623,-1.20392 1.50213,-8.519 3.7921,7.77496 8.56623,-1.20392 z"
       style="fill:#ffffff;fill-opacity:1;stroke:none;stroke-width:0.21497387px;stroke-linecap:butt;stroke-linejoin:miter;stroke-opacity:1" />
    <path
       style="fill:#ffffff;fill-opacity:1;stroke:none;stroke-width:0.21497387px;stroke-linecap:butt;stroke-linejoin:miter;stroke-opacity:1"
       d="m 398.29755,403.6784 4.83727,7.17153 0.30188,-8.64516 8.31533,-2.38437 -8.12875,-2.95863 0.30192,-8.64513 -5.32574,6.81662 -8.12873,-2.95863 4.83725,7.17153 -5.32573,6.81663 z"
       id="path896"
       inkscape:connector-curvature="0"
       sodipodi:nodetypes="ccccccccccc" />
    <path
       sodipodi:nodetypes="ccccccccccc"
       inkscape:connector-curvature="0"
       id="path898"
       d="m 300.96141,671.10727 8.31532,-2.38439 -5.32574,6.81664 4.83727,7.17152 -8.12875,-2.95863 -5.32571,6.81664 0.30189,-8.64516 -8.12874,-2.95862 8.31533,-2.38437 0.30188,-8.64516 z"
       style="fill:#ffffff;fill-opacity:1;stroke:none;stroke-width:0.21497387px;stroke-linecap:butt;stroke-linejoin:miter;stroke-opacity:1" />
    <path
       sodipodi:nodetypes="ccccccccccc"
       inkscape:connector-curvature="0"
       id="path900"
       d="m 483.34392,586.06088 -7.17153,4.83728 8.64517,0.30188 2.38437,8.31533 2.95862,-8.12875 8.64514,0.30191 -6.81662,-5.32573 2.95862,-8.12874 -7.17153,4.83726 -6.81663,-5.32573 z"
       style="fill:#ffffff;fill-opacity:1;stroke:none;stroke-width:0.21497387px;stroke-linecap:butt;stroke-linejoin:miter;stroke-opacity:1" />
    <path
       style="fill:#ffffff;fill-opacity:1;stroke:none;stroke-width:0.21497387px;stroke-linecap:butt;stroke-linejoin:miter;stroke-opacity:1"
       d="m 215.91506,488.72476 2.38438,8.31531 -6.81663,-5.32573 -7.17152,4.83727 2.95862,-8.12875 -6.81663,-5.32571 8.64516,0.30188 2.95861,-8.12873 2.38438,8.31533 8.64516,0.30187 z"
       id="path902"
       inkscape:connector-curvature="0"
       sodipodi:nodetypes="ccccccccccc" />
    <path
       sodipodi:nodetypes="ccccccccccc"
       inkscape:connector-curvature="0"
       id="path904"
       d="m 420.77744,414.16095 3.51846,7.90256 1.79851,-8.4614 8.60304,-0.90421 -7.49149,-4.32522 1.79854,-8.46137 -6.42852,5.78826 -7.49149,-4.32522 3.51845,7.90256 -6.42851,5.78826 z"
       style="fill:#ffffff;fill-opacity:1;stroke:none;stroke-width:0.21497387px;stroke-linecap:butt;stroke-linejoin:miter;stroke-opacity:1" />
    <path
       style="fill:#ffffff;fill-opacity:1;stroke:none;stroke-width:0.21497387px;stroke-linecap:butt;stroke-linejoin:miter;stroke-opacity:1"
       d="m 278.48152,660.62472 8.60304,-0.90422 -6.42853,5.78827 3.51846,7.90255 -7.49149,-4.32522 -6.4285,5.78828 1.79851,-8.4614 -7.49148,-4.32521 8.60304,-0.90421 1.79852,-8.4614 z"
       id="path906"
       inkscape:connector-curvature="0"
       sodipodi:nodetypes="ccccccccccc" />
    <path
       style="fill:#ffffff;fill-opacity:1;stroke:none;stroke-width:0.21497387px;stroke-linecap:butt;stroke-linejoin:miter;stroke-opacity:1"
       d="m 472.86138,608.54078 -7.90256,3.51845 8.46141,1.79852 0.9042,8.60304 4.32522,-7.49149 8.46138,1.79854 -5.78827,-6.42852 4.32522,-7.49149 -7.90256,3.51845 -5.78827,-6.42851 z"
       id="path908"
       inkscape:connector-curvature="0"
       sodipodi:nodetypes="ccccccccccc" />
    <path
       sodipodi:nodetypes="ccccccccccc"
       inkscape:connector-curvature="0"
       id="path910"
       d="m 226.39761,466.24487 0.90422,8.60303 -5.78827,-6.42852 -7.90255,3.51846 4.32521,-7.4915 -5.78827,-6.4285 8.46139,1.79852 4.32521,-7.49148 0.90422,8.60304 8.46139,1.79851 z"
       style="fill:#ffffff;fill-opacity:1;stroke:none;stroke-width:0.21497387px;stroke-linecap:butt;stroke-linejoin:miter;stroke-opacity:1" />
    <path
       style="fill:#ffffff;fill-opacity:1;stroke:none;stroke-width:0.21497387px;stroke-linecap:butt;stroke-linejoin:miter;stroke-opacity:1"
       d="m 441.09554,428.38783 2.09274,8.39347 3.2405,-8.02054 8.62934,0.60344 -6.62661,-5.5604 3.24052,-8.02051 -7.33598,4.58402 -6.6266,-5.56039 2.09273,8.39347 -7.33597,4.58402 z"
       id="path912"
       inkscape:connector-curvature="0"
       sodipodi:nodetypes="ccccccccccc" />
    <path
       sodipodi:nodetypes="ccccccccccc"
       inkscape:connector-curvature="0"
       id="path914"
       d="m 258.16343,646.39783 8.62936,0.60342 -7.336,4.58404 2.09276,8.39346 -6.62663,-5.56039 -7.33595,4.58404 3.2405,-8.02053 -6.62661,-5.56039 8.62935,0.60343 3.2405,-8.02055 z"
       style="fill:#ffffff;fill-opacity:1;stroke:none;stroke-width:0.21497387px;stroke-linecap:butt;stroke-linejoin:miter;stroke-opacity:1" />
    <path
       sodipodi:nodetypes="ccccccccccc"
       inkscape:connector-curvature="0"
       id="path916"
       d="m 458.6345,628.85887 -8.39347,2.09274 8.02054,3.2405 -0.60342,8.62935 5.56038,-6.62661 8.02052,3.24052 -4.58403,-7.33598 5.5604,-6.62661 -8.39348,2.09274 -4.58403,-7.33598 z"
       style="fill:#ffffff;fill-opacity:1;stroke:none;stroke-width:0.21497387px;stroke-linecap:butt;stroke-linejoin:miter;stroke-opacity:1" />
    <path
       style="fill:#ffffff;fill-opacity:1;stroke:none;stroke-width:0.21497387px;stroke-linecap:butt;stroke-linejoin:miter;stroke-opacity:1"
       d="m 240.62449,445.92678 -0.60341,8.62934 -4.58404,-7.33598 -8.39346,2.09275 5.56039,-6.62662 -4.58404,-7.33596 8.02053,3.2405 5.56039,-6.62661 -0.60343,8.62936 8.02054,3.24049 z"
       id="path918"
       inkscape:connector-curvature="0"
       sodipodi:nodetypes="ccccccccccc" />
    <path
       sodipodi:nodetypes="ccccccccccc"
       inkscape:connector-curvature="0"
       id="path920"
       d="m 458.63449,445.92678 0.60343,8.62935 4.58402,-7.33598 8.39346,2.09274 -5.56038,-6.62663 4.58403,-7.33595 -8.02054,3.2405 -5.56037,-6.62661 0.60343,8.62935 -8.02053,3.2405 z"
       style="fill:#ffffff;fill-opacity:1;stroke:none;stroke-width:0.21497387px;stroke-linecap:butt;stroke-linejoin:miter;stroke-opacity:1" />
    <path
       style="fill:#ffffff;fill-opacity:1;stroke:none;stroke-width:0.21497387px;stroke-linecap:butt;stroke-linejoin:miter;stroke-opacity:1"
       d="m 240.62449,628.85889 8.39347,2.09272 -8.02055,3.24051 0.60345,8.62935 -5.5604,-6.62662 -8.02052,3.24053 4.58402,-7.33598 -5.56038,-6.62661 8.39347,2.09274 4.58403,-7.336 z"
       id="path922"
       inkscape:connector-curvature="0"
       sodipodi:nodetypes="ccccccccccc" />
    <path
       style="fill:#ffffff;fill-opacity:1;stroke:none;stroke-width:0.21497387px;stroke-linecap:butt;stroke-linejoin:miter;stroke-opacity:1"
       d="m 441.09556,646.39782 -8.62936,0.60343 7.33599,4.58403 -2.09273,8.39346 6.62661,-5.56038 7.33595,4.58403 -3.2405,-8.02054 6.62662,-5.56038 -8.62936,0.60343 -3.24051,-8.02053 z"
       id="path924"
       inkscape:connector-curvature="0"
       sodipodi:nodetypes="ccccccccccc" />
    <path
       sodipodi:nodetypes="ccccccccccc"
       inkscape:connector-curvature="0"
       id="path926"
       d="m 258.16344,428.38783 -2.09273,8.39347 -3.2405,-8.02055 -8.62936,0.60345 6.62663,-5.56039 -3.24053,-8.02052 7.33598,4.58401 6.62661,-5.56038 -2.09273,8.39348 7.33598,4.58401 z"
       style="fill:#ffffff;fill-opacity:1;stroke:none;stroke-width:0.21497387px;stroke-linecap:butt;stroke-linejoin:miter;stroke-opacity:1" />
    <path
       style="fill:#ffffff;fill-opacity:1;stroke:none;stroke-width:0.21497387px;stroke-linecap:butt;stroke-linejoin:miter;stroke-opacity:1"
       d="m 472.86137,466.24487 -0.9042,8.60304 5.78825,-6.42853 7.90255,3.51846 -4.32521,-7.49151 5.78827,-6.42849 -8.4614,1.79852 -4.3252,-7.49149 -0.90421,8.60304 -8.46138,1.79852 z"
       id="path928"
       inkscape:connector-curvature="0"
       sodipodi:nodetypes="ccccccccccc" />
    <path
       sodipodi:nodetypes="ccccccccccc"
       inkscape:connector-curvature="0"
       id="path930"
       d="m 226.3976,608.54079 7.90256,3.51844 -8.46141,1.79853 -0.90418,8.60304 -4.32523,-7.4915 -8.46138,1.79855 5.78826,-6.42853 -4.32521,-7.49149 7.90255,3.51846 5.78827,-6.42853 z"
       style="fill:#ffffff;fill-opacity:1;stroke:none;stroke-width:0.21497387px;stroke-linecap:butt;stroke-linejoin:miter;stroke-opacity:1" />
    <path
       sodipodi:nodetypes="ccccccccccc"
       inkscape:connector-curvature="0"
       id="path932"
       d="m 420.77747,660.6247 -8.60305,-0.9042 6.42853,5.78826 -3.51845,7.90255 7.49149,-4.32521 6.4285,5.78827 -1.79852,-8.4614 7.4915,-4.32521 -8.60305,-0.9042 -1.79853,-8.46139 z"
       style="fill:#ffffff;fill-opacity:1;stroke:none;stroke-width:0.21497387px;stroke-linecap:butt;stroke-linejoin:miter;stroke-opacity:1" />
    <path
       style="fill:#ffffff;fill-opacity:1;stroke:none;stroke-width:0.21497387px;stroke-linecap:butt;stroke-linejoin:miter;stroke-opacity:1"
       d="m 278.48153,414.16095 -3.51843,7.90255 -1.79853,-8.4614 -8.60305,-0.9042 7.49151,-4.32521 -1.79855,-8.46138 6.42852,5.78825 7.49149,-4.32521 -3.51845,7.90256 6.42853,5.78826 z"
       id="path934"
       inkscape:connector-curvature="0"
       sodipodi:nodetypes="ccccccccccc" />
    <path
       sodipodi:nodetypes="ccccccccccc"
       inkscape:connector-curvature="0"
       id="path936"
       d="m 483.34392,488.72475 -2.38437,8.31534 6.81662,-5.32575 7.17152,4.83727 -2.95862,-8.12876 6.81664,-5.3257 -8.64517,0.30188 -2.9586,-8.12874 -2.38438,8.31533 -8.64515,0.3019 z"
       style="fill:#ffffff;fill-opacity:1;stroke:none;stroke-width:0.21497387px;stroke-linecap:butt;stroke-linejoin:miter;stroke-opacity:1" />
    <path
       style="fill:#ffffff;fill-opacity:1;stroke:none;stroke-width:0.21497387px;stroke-linecap:butt;stroke-linejoin:miter;stroke-opacity:1"
       d="m 215.91506,586.0609 7.17153,4.83725 -8.64517,0.3019 -2.38435,8.31532 -2.95863,-8.12875 -8.64515,0.30192 6.81662,-5.32573 -2.95861,-8.12875 7.17152,4.83727 6.81663,-5.32575 z"
       id="path938"
       inkscape:connector-curvature="0"
       sodipodi:nodetypes="ccccccccccc" />
    <path
       style="fill:#ffffff;fill-opacity:1;stroke:none;stroke-width:0.21497387px;stroke-linecap:butt;stroke-linejoin:miter;stroke-opacity:1"
       d="m 398.29758,671.10725 -8.31533,-2.38437 5.32574,6.81663 -4.83726,7.17152 8.12875,-2.95862 5.32571,6.81663 -0.30189,-8.64516 8.12874,-2.95861 -8.31533,-2.38438 -0.3019,-8.64515 z"
       id="path940"
       inkscape:connector-curvature="0"
       sodipodi:nodetypes="ccccccccccc" />
    <path
       sodipodi:nodetypes="ccccccccccc"
       inkscape:connector-curvature="0"
       id="path942"
       d="m 300.96142,403.6784 -4.83724,7.17152 -0.3019,-8.64516 -8.31533,-2.38436 8.12875,-2.95861 -0.30192,-8.64515 5.32574,6.81661 8.12874,-2.95861 -4.83726,7.17153 5.32575,6.81662 z"
       style="fill:#ffffff;fill-opacity:1;stroke:none;stroke-width:0.21497387px;stroke-linecap:butt;stroke-linejoin:miter;stroke-opacity:1" />
    <path
       style="fill:#ffffff;fill-opacity:1;stroke:none;stroke-width:0.21497387px;stroke-linecap:butt;stroke-linejoin:miter;stroke-opacity:1"
       d="m 489.76362,512.68339 -3.79209,7.77498 7.63787,-4.06115 6.22258,6.0091 -1.50212,-8.51902 7.63787,-4.0611 -8.56625,-1.20392 -1.50211,-8.51901 -3.7921,7.77496 -8.56622,-1.2039 z"
       id="path944"
       inkscape:connector-curvature="0"
       sodipodi:nodetypes="ccccccccccc" />
    <path
       sodipodi:nodetypes="ccccccccccc"
       inkscape:connector-curvature="0"
       id="path946"
       d="m 209.49536,562.10226 6.2226,6.00907 -8.56625,-1.2039 -3.79207,7.77496 -1.50214,-8.51902 -8.56624,-1.20388 7.63787,-4.06113 -1.50213,-8.519 6.22259,6.00909 7.63788,-4.06114 z"
       style="fill:#ffffff;fill-opacity:1;stroke:none;stroke-width:0.21497387px;stroke-linecap:butt;stroke-linejoin:miter;stroke-opacity:1" />
    <path
       sodipodi:nodetypes="ccccccccccc"
       inkscape:connector-curvature="0"
       id="path948"
       d="m 374.33894,677.52695 -7.77496,-3.79208 4.06113,7.63787 -6.00908,6.22258 8.519,-1.50212 4.06112,7.63787 1.2039,-8.56625 8.51901,-1.50212 -7.77496,-3.7921 1.2039,-8.56624 z"
       style="fill:#ffffff;fill-opacity:1;stroke:none;stroke-width:0.21497387px;stroke-linecap:butt;stroke-linejoin:miter;stroke-opacity:1" />
    <path
       style="fill:#ffffff;fill-opacity:1;stroke:none;stroke-width:0.21497387px;stroke-linecap:butt;stroke-linejoin:miter;stroke-opacity:1"
       d="m 324.92006,397.2587 -6.00907,6.22259 1.2039,-8.56624 -7.77496,-3.79209 8.51902,-1.50211 1.20388,-8.56624 4.06114,7.63785 8.519,-1.50212 -6.00909,6.2226 4.06114,7.63786 z"
       id="path950"
       inkscape:connector-curvature="0"
       sodipodi:nodetypes="ccccccccccc" />
    <path
       style="fill:#ffffff;fill-opacity:1;stroke:none;stroke-width:1.50193298px;stroke-linecap:butt;stroke-linejoin:miter;stroke-opacity:1"
       d="m 349.6294,569.16647 48.89453,35.52391 -18.67607,-57.47896 48.89452,-35.52385 h -60.43691 l -18.67589,-57.47891 -18.67612,57.47891 H 270.5166 l 48.89453,35.52392 -18.67607,57.47889 z"
       id="path1164"
       inkscape:connector-curvature="0"
       sodipodi:nodetypes="ccccccccccc" />
    <g
       id="g1259"
       transform="translate(203.90438,381.50965)"
       style="fill:#c09100;fill-opacity:1">
      <path
         d="m 119.23923,161.18036 h 3.74827 V 150.5419 l -3.84749,0.79375 v -2.88836 l 3.82544,-0.79375 h 4.03489 v 13.52682 h 3.74827 v 2.93246 h -11.50938 z"
         style="font-style:normal;font-variant:normal;font-weight:bold;font-stretch:normal;font-size:22.57777786px;line-height:1.25;font-family:sans-serif;-inkscape-font-specification:'sans-serif Bold';letter-spacing:0px;word-spacing:0px;fill:#c09100;fill-opacity:1;stroke:none;stroke-width:0.26458332"
         id="path1242"
         inkscape:connector-curvature="0" />
      <path
         d="m 140.15234,156.73757 q -1.19062,0 -1.83003,0.65043 -0.63941,0.65044 -0.63941,1.86311 0,1.21267 0.63941,1.86311 0.63941,0.63941 1.83003,0.63941 1.1796,0 1.80799,-0.63941 0.62838,-0.65044 0.62838,-1.86311 0,-1.2237 -0.62838,-1.86311 -0.62839,-0.65043 -1.80799,-0.65043 z m -3.09783,-1.40009 q -1.49931,-0.452 -2.25998,-1.38906 -0.76068,-0.93707 -0.76068,-2.33715 0,-2.0836 1.55443,-3.175 1.55442,-1.09141 4.56406,-1.09141 2.98759,0 4.54201,1.09141 1.55443,1.08038 1.55443,3.175 0,1.40008 -0.7717,2.33715 -0.76068,0.93706 -2.25998,1.38906 1.67569,0.46302 2.52456,1.51033 0.8599,1.03629 0.8599,2.62379 0,2.44739 -1.6316,3.70416 -1.62057,1.24575 -4.81762,1.24575 -3.20807,0 -4.85069,-1.24575 -1.6316,-1.25677 -1.6316,-3.70416 0,-1.5875 0.84887,-2.62379 0.8599,-1.04731 2.53559,-1.51033 z m 0.99219,-3.29627 q 0,0.98117 0.54019,1.51033 0.55121,0.52917 1.56545,0.52917 0.99219,0 1.53238,-0.52917 0.54019,-0.52916 0.54019,-1.51033 0,-0.98116 -0.54019,-1.4993 -0.54019,-0.52917 -1.53238,-0.52917 -1.01424,0 -1.56545,0.52917 -0.54019,0.52916 -0.54019,1.4993 z"
         style="font-style:normal;font-variant:normal;font-weight:bold;font-stretch:normal;font-size:22.57777786px;line-height:1.25;font-family:sans-serif;-inkscape-font-specification:'sans-serif Bold';letter-spacing:0px;word-spacing:0px;fill:#c09100;fill-opacity:1;stroke:none;stroke-width:0.26458332"
         id="path1244"
         inkscape:connector-curvature="0" />
      <path
         d="m 156.15963,155.96586 q -1.11345,0 -1.67569,0.7276 -0.55122,0.71658 -0.55122,2.16077 0,1.44418 0.55122,2.17179 0.56224,0.71658 1.67569,0.71658 1.12448,0 1.6757,-0.71658 0.56224,-0.72761 0.56224,-2.17179 0,-1.44419 -0.56224,-2.16077 -0.55122,-0.7276 -1.6757,-0.7276 z m 5.24757,-7.90443 v 3.04271 q -1.04731,-0.49609 -1.97335,-0.7276 -0.92604,-0.24254 -1.80799,-0.24254 -1.89618,0 -2.95451,1.05834 -1.05833,1.0473 -1.23472,3.11987 0.7276,-0.54019 1.57647,-0.80477 0.84888,-0.27561 1.85209,-0.27561 2.52456,0 4.06797,1.47726 1.55442,1.47726 1.55442,3.86953 0,2.64583 -1.73081,4.24436 -1.73082,1.5875 -4.64124,1.5875 -3.20807,0 -4.97196,-2.16077 -1.75286,-2.17178 -1.75286,-6.15156 0,-4.07899 2.05052,-6.40512 2.06154,-2.33715 5.64444,-2.33715 1.13551,0 2.20486,0.17639 1.06936,0.17639 2.11667,0.52916 z"
         style="font-style:normal;font-variant:normal;font-weight:bold;font-stretch:normal;font-size:22.57777786px;line-height:1.25;font-family:sans-serif;-inkscape-font-specification:'sans-serif Bold';letter-spacing:0px;word-spacing:0px;fill:#c09100;fill-opacity:1;stroke:none;stroke-width:0.26458332"
         id="path1246"
         inkscape:connector-curvature="0" />
      <path
         d="m 165.19956,147.65354 h 12.40235 v 2.39227 l -6.41615,14.06701 h -4.13411 l 6.07439,-13.33941 h -7.92648 z"
         style="font-style:normal;font-variant:normal;font-weight:bold;font-stretch:normal;font-size:22.57777786px;line-height:1.25;font-family:sans-serif;-inkscape-font-specification:'sans-serif Bold';letter-spacing:0px;word-spacing:0px;fill:#c09100;fill-opacity:1;stroke:none;stroke-width:0.26458332"
         id="path1248"
         inkscape:connector-curvature="0" />
    </g>
  </g>
</svg>
