<?xml version="1.0" encoding="UTF-8" standalone="no"?>
<!-- Created with Inkscape (http://www.inkscape.org/) -->

<svg
   xmlns:dc="http://purl.org/dc/elements/1.1/"
   xmlns:cc="http://creativecommons.org/ns#"
   xmlns:rdf="http://www.w3.org/1999/02/22-rdf-syntax-ns#"
   xmlns:svg="http://www.w3.org/2000/svg"
   xmlns="http://www.w3.org/2000/svg"
   xmlns:sodipodi="http://sodipodi.sourceforge.net/DTD/sodipodi-0.dtd"
   xmlns:inkscape="http://www.inkscape.org/namespaces/inkscape"
   width="2736"
   height="1800"
   viewBox="0 0 723.9 476.25001"
   version="1.1"
   id="svg8"
   inkscape:export-filename="C:\Users\厂永刄先生\Documents\GXI3CW2\poM̕écèŭ\M̕é\illinois提案.png"
   inkscape:export-xdpi="96"
   inkscape:export-ydpi="96"
   inkscape:version="0.92.4 (5da689c313, 2019-01-14)"
   sodipodi:docname="Nuevo Mexico.svg">
  <defs
     id="defs2" />
  <sodipodi:namedview
     id="base"
     pagecolor="#ffffff"
     bordercolor="#666666"
     borderopacity="1.0"
     inkscape:pageopacity="0.0"
     inkscape:pageshadow="2"
     inkscape:zoom="0.42021268"
     inkscape:cx="1608.5378"
     inkscape:cy="868.08884"
     inkscape:document-units="px"
     inkscape:current-layer="layer1"
     showgrid="false"
     units="px"
     fit-margin-top="0"
     fit-margin-left="0"
     fit-margin-right="0"
     fit-margin-bottom="0"
     inkscape:showpageshadow="false"
     inkscape:snap-intersection-paths="true"
     inkscape:object-paths="false"
     inkscape:pagecheckerboard="true"
     inkscape:snap-smooth-nodes="true"
     inkscape:window-width="1920"
     inkscape:window-height="1051"
     inkscape:window-x="-9"
     inkscape:window-y="-9"
     inkscape:window-maximized="1"
     inkscape:object-nodes="true"
     inkscape:snap-nodes="true"
     showguides="true" />
  <metadata
     id="metadata5">
    <rdf:RDF>
      <cc:Work
         rdf:about="">
        <dc:format>image/svg+xml</dc:format>
        <dc:type
           rdf:resource="http://purl.org/dc/dcmitype/StillImage" />
        <dc:title></dc:title>
      </cc:Work>
    </rdf:RDF>
  </metadata>
  <g
     inkscape:label="レイヤー 1"
     inkscape:groupmode="layer"
     id="layer1"
     transform="translate(112.33452,-299.26786)">
    <path
       sodipodi:nodetypes="ccccc"
       inkscape:connector-curvature="0"
       id="path847"
       d="m -102.80952,775.51786 h 714.37501 v -476.25 h -714.37501 z"
       style="fill:#edcf2a;fill-opacity:1;stroke:none;stroke-width:0.5020116;stroke-linecap:butt;stroke-linejoin:miter;stroke-miterlimit:4;stroke-dasharray:none;stroke-opacity:1" />
    <path
       style="fill:#ffffff;fill-opacity:1;stroke:none;stroke-width:0.5291667;stroke-linecap:butt;stroke-linejoin:miter;stroke-miterlimit:4;stroke-dasharray:none;stroke-opacity:1"
       d="m -112.33452,775.51786 h 9.525 v -476.25 h -9.525 z"
       id="path902"
       inkscape:connector-curvature="0"
       sodipodi:nodetypes="ccccc" />
    <path
       sodipodi:nodetypes="sssccsssccsssccsssccsssccsssccsssccsssccsssccsssccsssccsssccsssccsssccsssccsssccsszszs"
       inkscape:connector-curvature="0"
       id="path990"
       d="m 256.23007,423.8816 c 0,-3.06863 2.48762,-5.55625 5.55624,-5.55625 3.06865,0 5.55625,2.48762 5.55625,5.55625 v 75.9964 c 1.25902,0.43567 2.49532,0.93447 3.70417,1.49448 v -62.67421 c 0,-3.06864 2.48761,-5.55625 5.55625,-5.55625 3.06864,0 5.55625,2.48761 5.55625,5.55625 v 70.41586 c 0.16645,0.1627 0.3315,0.32687 0.49506,0.49248 h 70.41328 c 3.06863,0 5.55625,2.48761 5.55625,5.55625 0,3.06863 -2.48762,5.55625 -5.55625,5.55625 H 290.3856 c 0.55915,1.2089 1.05709,2.44519 1.49191,3.70416 h 76.00672 c 3.06864,0 5.55625,2.48762 5.55625,5.55625 0,3.06863 -2.48761,5.55625 -5.55625,5.55625 h -73.87766 c 0.0544,1.2342 0.0511,2.47027 -0.01,3.70417 h 73.88746 c 3.06864,0 5.55625,2.48762 5.55625,5.55625 0,3.06863 -2.48761,5.55625 -5.55625,5.55625 h -75.9964 c -0.43566,1.25902 -0.93446,2.49531 -1.49447,3.70417 h 62.67442 c 3.06863,0 5.55625,2.48762 5.55625,5.55625 0,3.06864 -2.48762,5.55625 -5.55625,5.55625 h -70.41534 c -0.16288,0.16663 -0.32721,0.33181 -0.493,0.49556 v 70.41277 c 0,3.06864 -2.48761,5.55625 -5.55625,5.55625 -3.06864,0 -5.55625,-2.48761 -5.55625,-5.55625 v -62.68196 c -1.20891,0.5593 -2.44517,1.05741 -3.70417,1.49241 v 76.00622 c 0,3.06864 -2.48761,5.55625 -5.55625,5.55625 -3.06863,0 -5.55625,-2.48761 -5.55625,-5.55625 v -73.87768 c -1.23388,0.0611 -2.46996,0.0644 -3.70416,0.01 v 73.87768 c 0,3.06864 -2.48762,5.55625 -5.55625,5.55625 -3.06864,0 -5.55625,-2.48761 -5.55625,-5.55625 v -76.00622 c -1.259,-0.435 -2.49526,-0.93311 -3.70417,-1.49241 v 62.68196 c 0,3.06864 -2.48761,5.55625 -5.55625,5.55625 -3.06864,0 -5.55625,-2.48761 -5.55625,-5.55625 v -70.41277 c -0.16579,-0.16375 -0.33012,-0.32893 -0.493,-0.49556 H 155.6884 c -3.06864,0 -5.55626,-2.48761 -5.55626,-5.55625 0,-3.06863 2.48762,-5.55625 5.55626,-5.55625 h 62.67441 c -0.56001,-1.20886 -1.0588,-2.44515 -1.49447,-3.70417 h -75.9964 c -3.06863,0 -5.55625,-2.48762 -5.55625,-5.55625 0,-3.06862 2.48761,-5.55624 5.55625,-5.55624 h 73.88747 c -0.0611,-1.2339 -0.0644,-2.46998 -0.01,-3.70417 h -73.87768 c -3.06863,0 -5.55624,-2.48763 -5.55624,-5.55626 0,-3.06863 2.4876,-5.55625 5.55624,-5.55625 h 76.00673 c 0.43482,-1.25897 0.93275,-2.49526 1.4919,-3.70416 H 155.6884 c -3.06864,0 -5.55626,-2.48762 -5.55626,-5.55625 0,-3.06863 2.48762,-5.55624 5.55626,-5.55624 h 70.41327 c 0.16356,-0.16561 0.32861,-0.32978 0.49506,-0.49248 v -70.41586 c 0,-3.06865 2.48761,-5.55625 5.55625,-5.55625 3.06864,0 5.55625,2.48761 5.55625,5.55625 v 62.67421 c 1.20886,-0.56001 2.44515,-1.05881 3.70417,-1.49448 v -75.9964 c 0,-3.06863 2.48761,-5.55625 5.55625,-5.55625 3.06864,0 5.55626,2.48762 5.55626,5.55625 v 73.88748 c 1.23388,-0.0611 2.46995,-0.0644 3.70416,-0.01 z m -37.57085,113.51609 c 0,19.72691 15.99183,35.71875 35.71877,35.71375 19.72692,-0.005 35.71876,-15.99684 35.71876,-35.72375 0,-19.72692 -15.99183,-35.71875 -35.71876,-35.71375 -19.72693,0.005 -35.71876,15.99683 -35.71877,35.72375 z"
       style="opacity:1;fill:#b31942;fill-opacity:1;stroke:none;stroke-width:16.12146759;stroke-linecap:butt;stroke-linejoin:round;stroke-miterlimit:4;stroke-dasharray:none;stroke-dashoffset:0;stroke-opacity:1" />
  </g>
</svg>
