<?xml version="1.0" encoding="UTF-8" standalone="no"?>
<!-- Created with Inkscape (http://www.inkscape.org/) -->

<svg
   width="3036"
   height="1800"
   viewBox="0 0 803.275 476.25001"
   version="1.1"
   id="svg8"
   inkscape:export-filename="C:\Users\厂永刄先生\Documents\GXI3CW2\JáÈŭcèŭ\Èŭmen\Fa\民.png"
   inkscape:export-xdpi="96"
   inkscape:export-ydpi="96"
   inkscape:version="1.3 (0e150ed6c4, 2023-07-21)"
   sodipodi:docname="Tennessee.svg"
   xmlns:inkscape="http://www.inkscape.org/namespaces/inkscape"
   xmlns:sodipodi="http://sodipodi.sourceforge.net/DTD/sodipodi-0.dtd"
   xmlns="http://www.w3.org/2000/svg"
   xmlns:svg="http://www.w3.org/2000/svg"
   xmlns:rdf="http://www.w3.org/1999/02/22-rdf-syntax-ns#"
   xmlns:cc="http://creativecommons.org/ns#"
   xmlns:dc="http://purl.org/dc/elements/1.1/">
  <defs
     id="defs2" />
  <sodipodi:namedview
     id="base"
     pagecolor="#ffffff"
     bordercolor="#666666"
     borderopacity="1.0"
     inkscape:pageopacity="0.0"
     inkscape:pageshadow="2"
     inkscape:zoom="0.29380764"
     inkscape:cx="1461.8408"
     inkscape:cy="1060.2175"
     inkscape:document-units="px"
     inkscape:current-layer="layer1"
     showgrid="false"
     units="px"
     fit-margin-top="0"
     fit-margin-left="0"
     fit-margin-right="0"
     fit-margin-bottom="0"
     inkscape:showpageshadow="false"
     inkscape:snap-intersection-paths="false"
     inkscape:object-paths="false"
     inkscape:pagecheckerboard="true"
     inkscape:snap-smooth-nodes="true"
     inkscape:window-width="1920"
     inkscape:window-height="1051"
     inkscape:window-x="-9"
     inkscape:window-y="-9"
     inkscape:window-maximized="1"
     inkscape:object-nodes="true"
     inkscape:snap-nodes="true"
     inkscape:deskcolor="#505050" />
  <metadata
     id="metadata5">
    <rdf:RDF>
      <cc:Work
         rdf:about="">
        <dc:format>image/svg+xml</dc:format>
        <dc:type
           rdf:resource="http://purl.org/dc/dcmitype/StillImage" />
      </cc:Work>
    </rdf:RDF>
  </metadata>
  <g
     inkscape:label="レイヤー 1"
     inkscape:groupmode="layer"
     id="layer1"
     transform="translate(112.33452,-299.26786)">
    <g
       id="circle1">
      <path
         style="color:#000000;fill:#000080;-inkscape-stroke:none"
         d="m 383.36237,537.39288 a 119.0625,119.0625 0 0 1 -119.0625,119.0625 119.0625,119.0625 0 0 1 -119.0625,-119.0625 119.0625,119.0625 0 0 1 119.0625,-119.0625 119.0625,119.0625 0 0 1 119.0625,119.0625 z"
         id="path4" />
    </g>
    <path
       style="fill:#ffffff;fill-opacity:1;stroke:none;stroke-width:0.51166773px;stroke-linecap:butt;stroke-linejoin:miter;stroke-opacity:1"
       d="m -102.80952,299.26786 h -9.525 v 476.25 h 9.525 z"
       id="path1079"
       inkscape:connector-curvature="0"
       sodipodi:nodetypes="ccccc" />
    <path
       sodipodi:nodetypes="ccccczzzzz"
       inkscape:connector-curvature="0"
       id="path884"
       d="m 631.40924,299.26786 v 476.25002 l -734.21876,-2e-5 v -476.25 z M 135.31641,537.39258 c 0,71.11851 57.86586,128.98437 128.98437,128.98437 71.11851,0 128.98438,-57.86586 128.98438,-128.98437 0,-71.11851 -57.86587,-128.98438 -128.98438,-128.98438 -71.11851,0 -128.98437,57.86587 -128.98437,128.98438 z"
       style="fill:#d40000;fill-opacity:1;stroke:none;stroke-width:2.69673px;stroke-linecap:butt;stroke-linejoin:miter;stroke-opacity:1" />
    <path
       sodipodi:nodetypes="ccccc"
       inkscape:connector-curvature="0"
       id="path2"
       d="m 690.94049,299.26786 h -49.60938 v 476.25002 h 49.60938 z"
       style="fill:#000080;fill-opacity:1;stroke:none;stroke-width:0.738531px;stroke-linecap:butt;stroke-linejoin:miter;stroke-opacity:1" />
    <path
       sodipodi:nodetypes="ccccc"
       inkscape:connector-curvature="0"
       id="path3"
       d="m 631.40924,299.26786 h 9.92187 v 476.25002 l -9.92187,0 z"
       style="fill:#ffffff;fill-opacity:1;stroke:none;stroke-width:0.738531px;stroke-linecap:butt;stroke-linejoin:miter;stroke-opacity:1" />
    <g
       id="g6"
       style="fill:#ffffff">
      <path
         style="color:#000000;fill:#ffffff;-inkscape-stroke:none"
         d="m 383.36237,537.39288 c 0,65.7564 -53.3061,119.0625 -119.0625,119.0625 -65.7564,0 -119.0625,-53.3061 -119.0625,-119.0625 0,-65.7564 53.3061,-119.0625 119.0625,-119.0625 65.7564,0 119.0625,53.3061 119.0625,119.0625 z m -247.78138,-3e-4 c 0,70.97263 57.74716,128.71979 128.71979,128.71979 70.97263,0 128.7198,-57.74716 128.7198,-128.71979 0,-70.97263 -57.74717,-128.7198 -128.7198,-128.7198 -70.97263,0 -128.71979,57.74717 -128.71979,128.7198 z"
         id="path6"
         sodipodi:nodetypes="zzzzzzzzzz" />
    </g>
    <path
       id="path9"
       style="fill:#ffffff;stroke-width:7.65123"
       inkscape:transform-center-x="6.3227119"
       inkscape:transform-center-y="-6.322737"
       d="m 257.28406,530.37708 -17.99966,-35.32633 28.03512,-28.03511 -39.15951,6.20225 -17.99965,-35.32632 -6.20228,39.15953 -39.15951,6.20226 35.3263,17.99968 -6.20225,39.1595 28.03511,-28.03511 z"
       sodipodi:nodetypes="ccccccccccc" />
    <path
       id="path10"
       style="fill:#ffffff;stroke-width:7.65123"
       inkscape:transform-center-x="-3.0157824"
       inkscape:transform-center-y="4.1508997"
       d="m 261.73192,546.97669 -21.59367,33.25131 -38.29668,-10.26157 24.95106,30.81201 -21.59367,33.25132 37.01429,-14.20843 24.95107,30.812 -2.07497,-39.59332 37.01424,-14.20844 L 263.80692,586.57 Z"
       sodipodi:nodetypes="ccccccccccc" />
    <path
       id="path11"
       style="fill:#ffffff;stroke-width:7.65123"
       inkscape:transform-center-x="-4.150904"
       inkscape:transform-center-y="3.0158027"
       d="m 273.8837,534.82492 39.59332,2.075 10.26156,38.29669 14.20845,-37.01427 39.59332,2.07502 -30.81201,-24.9511 14.20845,-37.01425 -33.25134,21.59363 -30.81199,-24.95106 10.26155,38.29667 z"
       sodipodi:nodetypes="ccccccccccc" />
  </g>
</svg>
