<?xml version="1.0" encoding="UTF-8" standalone="no"?>
<!-- Created with Inkscape (http://www.inkscape.org/) -->

<svg
   xmlns:dc="http://purl.org/dc/elements/1.1/"
   xmlns:cc="http://creativecommons.org/ns#"
   xmlns:rdf="http://www.w3.org/1999/02/22-rdf-syntax-ns#"
   xmlns:svg="http://www.w3.org/2000/svg"
   xmlns="http://www.w3.org/2000/svg"
   xmlns:sodipodi="http://sodipodi.sourceforge.net/DTD/sodipodi-0.dtd"
   xmlns:inkscape="http://www.inkscape.org/namespaces/inkscape"
   width="3456.0115"
   height="1800.0002"
   viewBox="0 0 914.40303 476.25007"
   version="1.1"
   id="svg8"
   inkscape:export-filename="C:\Users\厂永刄先生\Documents\GXI3CW2\poM̕écèŭ\M̕é\1851.png"
   inkscape:export-xdpi="96"
   inkscape:export-ydpi="96"
   inkscape:version="0.92.4 (5da689c313, 2019-01-14)"
   sodipodi:docname="1851_(2).svg">
  <defs
     id="defs2" />
  <sodipodi:namedview
     id="base"
     pagecolor="#ffffff"
     bordercolor="#666666"
     borderopacity="1.0"
     inkscape:pageopacity="0.0"
     inkscape:pageshadow="2"
     inkscape:zoom="0.258101"
     inkscape:cx="1728.0057"
     inkscape:cy="900.00013"
     inkscape:document-units="px"
     inkscape:current-layer="layer1"
     showgrid="false"
     units="px"
     fit-margin-top="0"
     fit-margin-left="0"
     fit-margin-right="0"
     fit-margin-bottom="0"
     inkscape:showpageshadow="false"
     inkscape:snap-intersection-paths="true"
     inkscape:object-paths="false"
     inkscape:pagecheckerboard="true"
     inkscape:snap-smooth-nodes="true"
     inkscape:window-width="1366"
     inkscape:window-height="745"
     inkscape:window-x="-8"
     inkscape:window-y="-8"
     inkscape:window-maximized="1"
     inkscape:object-nodes="true"
     inkscape:snap-nodes="true" />
  <metadata
     id="metadata5">
    <rdf:RDF>
      <cc:Work
         rdf:about="">
        <dc:format>image/svg+xml</dc:format>
        <dc:type
           rdf:resource="http://purl.org/dc/dcmitype/StillImage" />
        <dc:title />
      </cc:Work>
    </rdf:RDF>
  </metadata>
  <g
     inkscape:label="レイヤー 1"
     inkscape:groupmode="layer"
     id="layer1"
     transform="translate(112.33452,-299.2678)">
    <path
       style="fill:#0a3161;fill-opacity:1;stroke:none;stroke-width:2.69729114px;stroke-linecap:butt;stroke-linejoin:miter;stroke-opacity:1"
       d="M -102.80952,299.26786 H 153.63284 V 555.71014 H -102.80952 Z"
       id="path892"
       inkscape:connector-curvature="0"
       sodipodi:nodetypes="ccccc" />
    <path
       style="fill:#ffffff;fill-opacity:1;stroke:none;stroke-width:0.51166773px;stroke-linecap:butt;stroke-linejoin:miter;stroke-opacity:1"
       d="m -102.80952,299.26786 h -9.525 v 476.25 h 9.525 z"
       id="path1079"
       inkscape:connector-curvature="0"
       sodipodi:nodetypes="ccccc" />
    <path
       sodipodi:nodetypes="ccccc"
       inkscape:connector-curvature="0"
       id="path824"
       d="m -102.80952,738.88324 v 36.63462 H 802.0685 v -36.63462 z"
       style="fill:#b31942;fill-opacity:1;stroke:none;stroke-width:2.28030705px;stroke-linecap:butt;stroke-linejoin:miter;stroke-opacity:1" />
    <path
       style="fill:#ffffff;fill-opacity:1;stroke:none;stroke-width:2.28030705px;stroke-linecap:butt;stroke-linejoin:miter;stroke-opacity:1"
       d="m -102.80952,702.24862 v 36.63462 H 802.0685 v -36.63462 z"
       id="path828"
       inkscape:connector-curvature="0"
       sodipodi:nodetypes="ccccc" />
    <path
       style="fill:#b31942;fill-opacity:1;stroke:none;stroke-width:2.28030705px;stroke-linecap:butt;stroke-linejoin:miter;stroke-opacity:1"
       d="m -102.80952,665.614 v 36.63462 H 802.0685 V 665.614 Z"
       id="path830"
       inkscape:connector-curvature="0"
       sodipodi:nodetypes="ccccc" />
    <path
       sodipodi:nodetypes="ccccc"
       inkscape:connector-curvature="0"
       id="path832"
       d="M -102.80952,628.97938 V 665.614 H 802.0685 v -36.63462 z"
       style="fill:#ffffff;fill-opacity:1;stroke:none;stroke-width:2.28030705px;stroke-linecap:butt;stroke-linejoin:miter;stroke-opacity:1" />
    <path
       sodipodi:nodetypes="ccccc"
       inkscape:connector-curvature="0"
       id="path834"
       d="m -102.80952,592.34476 v 36.63462 H 802.0685 v -36.63462 z"
       style="fill:#b31942;fill-opacity:1;stroke:none;stroke-width:2.28030705px;stroke-linecap:butt;stroke-linejoin:miter;stroke-opacity:1" />
    <path
       style="fill:#ffffff;fill-opacity:1;stroke:none;stroke-width:2.28030705px;stroke-linecap:butt;stroke-linejoin:miter;stroke-opacity:1"
       d="m -102.80952,555.71014 v 36.63462 H 802.0685 v -36.63462 z"
       id="path836"
       inkscape:connector-curvature="0"
       sodipodi:nodetypes="ccccc" />
    <path
       style="fill:#b31942;fill-opacity:1;stroke:none;stroke-width:2.28030705px;stroke-linecap:butt;stroke-linejoin:miter;stroke-opacity:1"
       d="m 153.63284,519.07552 v 36.63462 H 802.0685 v -36.63462 z"
       id="path838"
       inkscape:connector-curvature="0"
       sodipodi:nodetypes="ccccc" />
    <path
       sodipodi:nodetypes="ccccc"
       inkscape:connector-curvature="0"
       id="path840"
       d="m 153.63284,482.4409 v 36.63462 H 802.0685 V 482.4409 Z"
       style="fill:#ffffff;fill-opacity:1;stroke:none;stroke-width:2.28030705px;stroke-linecap:butt;stroke-linejoin:miter;stroke-opacity:1" />
    <path
       sodipodi:nodetypes="ccccc"
       inkscape:connector-curvature="0"
       id="path842"
       d="M 153.63284,445.80628 V 482.4409 H 802.0685 v -36.63462 z"
       style="fill:#b31942;fill-opacity:1;stroke:none;stroke-width:2.28030705px;stroke-linecap:butt;stroke-linejoin:miter;stroke-opacity:1" />
    <path
       sodipodi:nodetypes="ccccc"
       inkscape:connector-curvature="0"
       id="path844"
       d="m 153.63284,409.17166 v 36.63462 H 802.0685 v -36.63462 z"
       style="fill:#ffffff;fill-opacity:1;stroke:none;stroke-width:2.28030705px;stroke-linecap:butt;stroke-linejoin:miter;stroke-opacity:1" />
    <path
       sodipodi:nodetypes="ccccc"
       inkscape:connector-curvature="0"
       id="path846"
       d="m 153.63284,372.53704 v 36.63462 H 802.0685 v -36.63462 z"
       style="fill:#b31942;fill-opacity:1;stroke:none;stroke-width:2.28030705px;stroke-linecap:butt;stroke-linejoin:miter;stroke-opacity:1" />
    <path
       style="fill:#ffffff;fill-opacity:1;stroke:none;stroke-width:2.28030705px;stroke-linecap:butt;stroke-linejoin:miter;stroke-opacity:1"
       d="m 153.63284,335.90242 v 36.63462 H 802.0685 v -36.63462 z"
       id="path848"
       inkscape:connector-curvature="0"
       sodipodi:nodetypes="ccccc" />
    <path
       style="fill:#b31942;fill-opacity:1;stroke:none;stroke-width:2.28030705px;stroke-linecap:butt;stroke-linejoin:miter;stroke-opacity:1"
       d="m 153.63284,299.2678 v 36.63462 H 802.0685 V 299.2678 Z"
       id="path850"
       inkscape:connector-curvature="0"
       sodipodi:nodetypes="ccccc" />
    <path
       sodipodi:nodetypes="ccccccccccc"
       inkscape:connector-curvature="0"
       id="path911"
       d="m 25.411646,433.08629 8.61335,6.25796 -3.29001,-10.1256 8.613349,-6.25795 H 28.701656 l -3.28998,-10.12559 -3.29002,10.12559 h -10.64667 l 8.61335,6.25796 -3.29001,10.12559 z"
       style="fill:#ffffff;fill-opacity:1;stroke:none;stroke-width:0.26458332px;stroke-linecap:butt;stroke-linejoin:miter;stroke-opacity:1" />
    <path
       sodipodi:nodetypes="ccccccccccc"
       inkscape:connector-curvature="0"
       id="path901"
       d="m 25.411646,336.92043 8.61335,6.25796 -3.29001,-10.1256 8.613349,-6.25795 H 28.701656 l -3.28998,-10.12559 -3.29002,10.12559 h -10.64667 l 8.61335,6.25796 -3.29001,10.12559 z"
       style="fill:#ffffff;fill-opacity:1;stroke:none;stroke-width:0.26458332px;stroke-linecap:butt;stroke-linejoin:miter;stroke-opacity:1" />
    <path
       style="fill:#ffffff;fill-opacity:1;stroke:none;stroke-width:0.26458332px;stroke-linecap:butt;stroke-linejoin:miter;stroke-opacity:1"
       d="m 25.411646,401.03099 8.61335,6.25796 -3.29001,-10.1256 8.613349,-6.25795 H 28.701656 l -3.28998,-10.12559 -3.29002,10.12559 h -10.64667 l 8.61335,6.25796 -3.29001,10.12559 z"
       id="path919"
       inkscape:connector-curvature="0"
       sodipodi:nodetypes="ccccccccccc" />
    <path
       style="fill:#ffffff;fill-opacity:1;stroke:none;stroke-width:0.26458332px;stroke-linecap:butt;stroke-linejoin:miter;stroke-opacity:1"
       d="m 25.411646,368.97571 8.61335,6.25796 -3.29001,-10.1256 8.613349,-6.25795 H 28.701656 l -3.28998,-10.12559 -3.29002,10.12559 h -10.64667 l 8.61335,6.25796 -3.29001,10.12559 z"
       id="path925"
       inkscape:connector-curvature="0"
       sodipodi:nodetypes="ccccccccccc" />
    <path
       style="fill:#ffffff;fill-opacity:1;stroke:none;stroke-width:0.26458332px;stroke-linecap:butt;stroke-linejoin:miter;stroke-opacity:1"
       d="m 62.249212,344.75049 5.323345,9.22029 1.112879,-10.58836 10.414023,-2.21356 -9.726225,-4.33039 1.112902,-10.58835 -7.124031,7.91202 -9.726217,-4.33039 5.323345,9.2203 -7.124022,7.91201 z"
       id="path949"
       inkscape:connector-curvature="0"
       sodipodi:nodetypes="ccccccccccc" />
    <path
       sodipodi:nodetypes="ccccccccccc"
       inkscape:connector-curvature="0"
       id="path951"
       d="m 59.804908,380.15075 3.290009,10.12559 3.290005,-10.1256 10.646676,1e-5 -8.613344,-6.25796 3.290023,-10.12557 -8.613355,6.25794 -8.613337,-6.25795 3.29001,10.1256 -8.613346,6.25795 z"
       style="fill:#ffffff;fill-opacity:1;stroke:none;stroke-width:0.26458332px;stroke-linecap:butt;stroke-linejoin:miter;stroke-opacity:1" />
    <path
       sodipodi:nodetypes="ccccccccccc"
       inkscape:connector-curvature="0"
       id="path953"
       d="m 62.249212,344.75049 5.323345,9.22029 1.112879,-10.58836 10.414023,-2.21356 -9.726225,-4.33039 1.112902,-10.58835 -7.124031,7.91202 -9.726217,-4.33039 5.323345,9.2203 -7.124022,7.91201 z"
       style="fill:#ffffff;fill-opacity:1;stroke:none;stroke-width:0.26458332px;stroke-linecap:butt;stroke-linejoin:miter;stroke-opacity:1" />
    <path
       style="fill:#ffffff;fill-opacity:1;stroke:none;stroke-width:0.26458332px;stroke-linecap:butt;stroke-linejoin:miter;stroke-opacity:1"
       d="m 92.717234,366.88679 1.112885,10.58836 5.323341,-9.2203 10.41402,2.21358 -7.12402,-7.91203 5.32335,-9.22027 -9.726229,4.33038 -7.124013,-7.91202 1.112886,10.58836 -9.726227,4.33039 z"
       id="path979"
       inkscape:connector-curvature="0"
       sodipodi:nodetypes="ccccccccccc" />
    <path
       style="fill:#ffffff;fill-opacity:1;stroke:none;stroke-width:0.26458332px;stroke-linecap:butt;stroke-linejoin:miter;stroke-opacity:1"
       d="m 111.54751,399.50176 -3.29,10.1256 8.61335,-6.25797 8.61334,6.25797 -3.29001,-10.12559 8.61335,-6.25794 -10.64668,-10e-6 -3.29,-10.12559 -3.29,10.1256 -10.64668,-10e-6 z"
       id="path981"
       inkscape:connector-curvature="0"
       sodipodi:nodetypes="ccccccccccc" />
    <path
       sodipodi:nodetypes="ccccccccccc"
       inkscape:connector-curvature="0"
       id="path983"
       d="m 50.574748,419.31301 -3.290002,10.1256 8.613349,-6.25797 8.613336,6.25797 -3.290005,-10.12559 8.613348,-6.25794 -10.64668,-10e-6 -3.290002,-10.12559 -3.290002,10.1256 -10.646677,0 z"
       style="fill:#ffffff;fill-opacity:1;stroke:none;stroke-width:0.26458332px;stroke-linecap:butt;stroke-linejoin:miter;stroke-opacity:1" />
    <path
       sodipodi:nodetypes="ccccccccccc"
       inkscape:connector-curvature="0"
       id="path985"
       d="m 81.061131,409.40739 -3.290002,10.1256 8.613349,-6.25797 8.613335,6.25797 -3.290004,-10.1256 8.613351,-6.25793 -10.646683,-2e-5 -3.290002,-10.12558 -3.290002,10.1256 -10.646678,-10e-6 z"
       style="fill:#ffffff;fill-opacity:1;stroke:none;stroke-width:0.26458332px;stroke-linecap:butt;stroke-linejoin:miter;stroke-opacity:1" />
    <path
       sodipodi:nodetypes="ccccccccccc"
       inkscape:connector-curvature="0"
       id="path987"
       d="m 115.48412,436.95599 -7.12401,7.91203 10.41402,-2.21357 5.32333,9.22029 1.11288,-10.58835 10.41403,-2.21355 -9.72623,-4.33041 1.11288,-10.58834 -7.12402,7.91203 -9.72621,-4.3304 z"
       style="fill:#ffffff;fill-opacity:1;stroke:none;stroke-width:0.26458332px;stroke-linecap:butt;stroke-linejoin:miter;stroke-opacity:1" />
    <path
       style="fill:#ffffff;fill-opacity:1;stroke:none;stroke-width:0.26458332px;stroke-linecap:butt;stroke-linejoin:miter;stroke-opacity:1"
       d="m 81.061139,445.5706 -8.613339,6.25796 10.646685,0 3.289994,10.1256 3.290004,-10.1256 10.646667,3e-5 -8.613332,-6.25798 3.289996,-10.12558 -8.613348,6.25797 -8.613335,-6.25797 z"
       id="path989"
       inkscape:connector-curvature="0"
       sodipodi:nodetypes="ccccccccccc" />
    <path
       style="fill:#ffffff;fill-opacity:1;stroke:none;stroke-width:0.26458332px;stroke-linecap:butt;stroke-linejoin:miter;stroke-opacity:1"
       d="m 115.48412,436.95599 -7.12401,7.91203 10.41402,-2.21357 5.32333,9.22029 1.11288,-10.58835 10.41403,-2.21355 -9.72623,-4.33041 1.11288,-10.58834 -7.12402,7.91203 -9.72621,-4.3304 z"
       id="path991"
       inkscape:connector-curvature="0"
       sodipodi:nodetypes="ccccccccccc" />
    <path
       sodipodi:nodetypes="ccccccccccc"
       inkscape:connector-curvature="0"
       id="path993"
       d="m 103.84638,472.77329 -9.726226,4.3304 10.414026,2.21357 1.11287,10.58836 5.32335,-9.2203 10.414,2.21359 -7.12401,-7.91204 5.32334,-9.22028 -9.72623,4.3304 -7.12401,-7.91203 z"
       style="fill:#ffffff;fill-opacity:1;stroke:none;stroke-width:0.26458332px;stroke-linecap:butt;stroke-linejoin:miter;stroke-opacity:1" />
    <path
       sodipodi:nodetypes="ccccccccccc"
       inkscape:connector-curvature="0"
       id="path995"
       d="m 78.646573,500.76053 -10.646684,10e-6 8.613355,6.25796 -3.290015,10.12559 8.61334,-6.25796 8.613326,6.25797 -3.289996,-10.1256 8.613343,-6.25795 -10.646684,10e-6 -3.289996,-10.1256 z"
       style="fill:#ffffff;fill-opacity:1;stroke:none;stroke-width:0.26458332px;stroke-linecap:butt;stroke-linejoin:miter;stroke-opacity:1" />
    <path
       style="fill:#ffffff;fill-opacity:1;stroke:none;stroke-width:0.26458332px;stroke-linecap:butt;stroke-linejoin:miter;stroke-opacity:1"
       d="m 40.963335,448.894 -10.646684,10e-6 8.613354,6.25796 -3.290016,10.12559 8.613341,-6.25796 8.613326,6.25797 -3.289996,-10.1256 8.613342,-6.25796 -10.646685,1e-5 -3.290004,-10.12559 z"
       id="path997"
       inkscape:connector-curvature="0"
       sodipodi:nodetypes="ccccccccccc" />
    <path
       style="fill:#ffffff;fill-opacity:1;stroke:none;stroke-width:0.26458332px;stroke-linecap:butt;stroke-linejoin:miter;stroke-opacity:1"
       d="m 59.80495,474.82727 -10.646684,10e-6 8.613354,6.25796 -3.290016,10.12559 8.61335,-6.25797 8.613317,6.25798 -3.289987,-10.1256 8.613333,-6.25796 -10.646685,1e-5 -3.289995,-10.1256 z"
       id="path999"
       inkscape:connector-curvature="0"
       sodipodi:nodetypes="ccccccccccc" />
    <path
       style="fill:#ffffff;fill-opacity:1;stroke:none;stroke-width:0.26458332px;stroke-linecap:butt;stroke-linejoin:miter;stroke-opacity:1"
       d="m 44.241963,516.07846 -9.726228,-4.33038 5.323339,9.22029 -7.124017,7.91201 10.414018,-2.21356 5.323324,9.2203 1.112894,-10.58836 10.414008,-2.21357 -9.726231,-4.33039 1.112891,-10.58834 z"
       id="path1001"
       inkscape:connector-curvature="0"
       sodipodi:nodetypes="ccccccccccc" />
    <path
       sodipodi:nodetypes="ccccccccccc"
       inkscape:connector-curvature="0"
       id="path1003"
       d="m 25.411676,486.00232 -8.613342,-6.25795 3.290007,10.1256 -8.613354,6.25795 h 10.646685 l 3.289972,10.12559 3.290027,-10.12559 h 10.646664 l -8.613354,-6.25796 3.290016,-10.12559 z"
       style="fill:#ffffff;fill-opacity:1;stroke:none;stroke-width:0.26458332px;stroke-linecap:butt;stroke-linejoin:miter;stroke-opacity:1" />
    <path
       sodipodi:nodetypes="ccccccccccc"
       inkscape:connector-curvature="0"
       id="path1005"
       d="m 44.241963,516.07846 -9.726228,-4.33038 5.323339,9.22029 -7.124017,7.91201 10.414018,-2.21356 5.323324,9.2203 1.112894,-10.58836 10.414008,-2.21357 -9.726231,-4.33039 1.112891,-10.58834 z"
       style="fill:#ffffff;fill-opacity:1;stroke:none;stroke-width:0.26458332px;stroke-linecap:butt;stroke-linejoin:miter;stroke-opacity:1" />
    <path
       sodipodi:nodetypes="ccccccccccc"
       inkscape:connector-curvature="0"
       id="path1009"
       d="m -11.425892,344.75049 -5.323345,9.22029 -1.112879,-10.58836 -10.414023,-2.21356 9.726225,-4.33039 -1.112902,-10.58835 7.124031,7.91202 9.726217,-4.33039 -5.323345,9.2203 7.124022,7.91201 z"
       style="fill:#ffffff;fill-opacity:1;stroke:none;stroke-width:0.26458332px;stroke-linecap:butt;stroke-linejoin:miter;stroke-opacity:1" />
    <path
       style="fill:#ffffff;fill-opacity:1;stroke:none;stroke-width:0.26458332px;stroke-linecap:butt;stroke-linejoin:miter;stroke-opacity:1"
       d="m -8.981588,380.15075 -3.290009,10.12559 -3.290005,-10.1256 -10.646676,1e-5 8.613344,-6.25796 -3.290023,-10.12557 8.613355,6.25794 8.613337,-6.25795 -3.29001,10.1256 8.613346,6.25795 z"
       id="path1011"
       inkscape:connector-curvature="0"
       sodipodi:nodetypes="ccccccccccc" />
    <path
       style="fill:#ffffff;fill-opacity:1;stroke:none;stroke-width:0.26458332px;stroke-linecap:butt;stroke-linejoin:miter;stroke-opacity:1"
       d="m -11.425892,344.75049 -5.323345,9.22029 -1.112879,-10.58836 -10.414023,-2.21356 9.726225,-4.33039 -1.112902,-10.58835 7.124031,7.91202 9.726217,-4.33039 -5.323345,9.2203 7.124022,7.91201 z"
       id="path1013"
       inkscape:connector-curvature="0"
       sodipodi:nodetypes="ccccccccccc" />
    <path
       sodipodi:nodetypes="ccccccccccc"
       inkscape:connector-curvature="0"
       id="path1015"
       d="m -41.893914,366.88679 -1.112885,10.58836 -5.323341,-9.2203 -10.41402,2.21358 7.12402,-7.91203 -5.32335,-9.22027 9.726229,4.33038 7.124013,-7.91202 -1.112886,10.58836 9.726227,4.33039 z"
       style="fill:#ffffff;fill-opacity:1;stroke:none;stroke-width:0.26458332px;stroke-linecap:butt;stroke-linejoin:miter;stroke-opacity:1" />
    <path
       sodipodi:nodetypes="ccccccccccc"
       inkscape:connector-curvature="0"
       id="path1017"
       d="m -60.72419,399.50176 3.29,10.1256 -8.61335,-6.25797 -8.61334,6.25797 3.29001,-10.12559 -8.61335,-6.25794 10.64668,-10e-6 3.29,-10.12559 3.29,10.1256 10.64668,-10e-6 z"
       style="fill:#ffffff;fill-opacity:1;stroke:none;stroke-width:0.26458332px;stroke-linecap:butt;stroke-linejoin:miter;stroke-opacity:1" />
    <path
       style="fill:#ffffff;fill-opacity:1;stroke:none;stroke-width:0.26458332px;stroke-linecap:butt;stroke-linejoin:miter;stroke-opacity:1"
       d="m 0.248572,419.31301 3.290002,10.1256 -8.613349,-6.25797 -8.613336,6.25797 3.290005,-10.12559 -8.613348,-6.25794 10.64668,-10e-6 3.290002,-10.12559 3.290002,10.1256 H 8.861907 Z"
       id="path1019"
       inkscape:connector-curvature="0"
       sodipodi:nodetypes="ccccccccccc" />
    <path
       style="fill:#ffffff;fill-opacity:1;stroke:none;stroke-width:0.26458332px;stroke-linecap:butt;stroke-linejoin:miter;stroke-opacity:1"
       d="m -30.237811,409.40739 3.290002,10.1256 -8.613349,-6.25797 -8.613335,6.25797 3.290004,-10.1256 -8.613351,-6.25793 10.646683,-2e-5 3.290002,-10.12558 3.290002,10.1256 10.646678,-10e-6 z"
       id="path1021"
       inkscape:connector-curvature="0"
       sodipodi:nodetypes="ccccccccccc" />
    <path
       style="fill:#ffffff;fill-opacity:1;stroke:none;stroke-width:0.26458332px;stroke-linecap:butt;stroke-linejoin:miter;stroke-opacity:1"
       d="m -64.6608,436.95599 7.12401,7.91203 -10.41402,-2.21357 -5.32333,9.22029 -1.11288,-10.58835 -10.41403,-2.21355 9.72623,-4.33041 -1.11288,-10.58834 7.12402,7.91203 9.72621,-4.3304 z"
       id="path1023"
       inkscape:connector-curvature="0"
       sodipodi:nodetypes="ccccccccccc" />
    <path
       sodipodi:nodetypes="ccccccccccc"
       inkscape:connector-curvature="0"
       id="path1025"
       d="m -30.237819,445.5706 8.613339,6.25796 h -10.646685 l -3.289994,10.1256 -3.290004,-10.1256 -10.646667,3e-5 8.613332,-6.25798 -3.289996,-10.12558 8.613348,6.25797 8.613335,-6.25797 z"
       style="fill:#ffffff;fill-opacity:1;stroke:none;stroke-width:0.26458332px;stroke-linecap:butt;stroke-linejoin:miter;stroke-opacity:1" />
    <path
       sodipodi:nodetypes="ccccccccccc"
       inkscape:connector-curvature="0"
       id="path1027"
       d="m -64.6608,436.95599 7.12401,7.91203 -10.41402,-2.21357 -5.32333,9.22029 -1.11288,-10.58835 -10.41403,-2.21355 9.72623,-4.33041 -1.11288,-10.58834 7.12402,7.91203 9.72621,-4.3304 z"
       style="fill:#ffffff;fill-opacity:1;stroke:none;stroke-width:0.26458332px;stroke-linecap:butt;stroke-linejoin:miter;stroke-opacity:1" />
    <path
       style="fill:#ffffff;fill-opacity:1;stroke:none;stroke-width:0.26458332px;stroke-linecap:butt;stroke-linejoin:miter;stroke-opacity:1"
       d="m -53.02306,472.77329 9.726226,4.3304 -10.414026,2.21357 -1.11287,10.58836 -5.32335,-9.2203 -10.414,2.21359 7.12401,-7.91204 -5.32334,-9.22028 9.72623,4.3304 7.12401,-7.91203 z"
       id="path1029"
       inkscape:connector-curvature="0"
       sodipodi:nodetypes="ccccccccccc" />
    <path
       style="fill:#ffffff;fill-opacity:1;stroke:none;stroke-width:0.26458332px;stroke-linecap:butt;stroke-linejoin:miter;stroke-opacity:1"
       d="m -27.823253,500.76053 10.646684,10e-6 -8.613355,6.25796 3.290015,10.12559 -8.61334,-6.25796 -8.613326,6.25797 3.289996,-10.1256 -8.613343,-6.25795 10.646684,10e-6 3.289996,-10.1256 z"
       id="path1031"
       inkscape:connector-curvature="0"
       sodipodi:nodetypes="ccccccccccc" />
    <path
       sodipodi:nodetypes="ccccccccccc"
       inkscape:connector-curvature="0"
       id="path1033"
       d="m 9.859985,448.894 10.646684,10e-6 -8.613354,6.25796 3.290016,10.12559 -8.613341,-6.25796 -8.613326,6.25797 3.289996,-10.1256 -8.613342,-6.25796 10.646685,1e-5 3.290004,-10.12559 z"
       style="fill:#ffffff;fill-opacity:1;stroke:none;stroke-width:0.26458332px;stroke-linecap:butt;stroke-linejoin:miter;stroke-opacity:1" />
    <path
       sodipodi:nodetypes="ccccccccccc"
       inkscape:connector-curvature="0"
       id="path1035"
       d="m -8.98163,474.82727 10.646684,10e-6 -8.613354,6.25796 3.290016,10.12559 -8.61335,-6.25797 -8.613317,6.25798 3.289987,-10.1256 -8.613333,-6.25796 10.646685,1e-5 3.289995,-10.1256 z"
       style="fill:#ffffff;fill-opacity:1;stroke:none;stroke-width:0.26458332px;stroke-linecap:butt;stroke-linejoin:miter;stroke-opacity:1" />
    <path
       sodipodi:nodetypes="ccccccccccc"
       inkscape:connector-curvature="0"
       id="path1037"
       d="m 6.581357,516.07846 9.726228,-4.33038 -5.323339,9.22029 7.124017,7.91201 -10.414018,-2.21356 -5.323324,9.2203 -1.112894,-10.58836 -10.414008,-2.21357 9.726231,-4.33039 -1.112891,-10.58834 z"
       style="fill:#ffffff;fill-opacity:1;stroke:none;stroke-width:0.26458332px;stroke-linecap:butt;stroke-linejoin:miter;stroke-opacity:1" />
    <path
       style="fill:#ffffff;fill-opacity:1;stroke:none;stroke-width:0.26458332px;stroke-linecap:butt;stroke-linejoin:miter;stroke-opacity:1"
       d="m 6.581357,516.07846 9.726228,-4.33038 -5.323339,9.22029 7.124017,7.91201 -10.414018,-2.21356 -5.323324,9.2203 -1.112894,-10.58836 -10.414008,-2.21357 9.726231,-4.33039 -1.112891,-10.58834 z"
       id="path1039"
       inkscape:connector-curvature="0"
       sodipodi:nodetypes="ccccccccccc" />
  </g>
</svg>
