<?xml version="1.0" encoding="UTF-8" standalone="no"?>
<!-- Created with Inkscape (http://www.inkscape.org/) -->

<svg
   xmlns:dc="http://purl.org/dc/elements/1.1/"
   xmlns:cc="http://creativecommons.org/ns#"
   xmlns:rdf="http://www.w3.org/1999/02/22-rdf-syntax-ns#"
   xmlns:svg="http://www.w3.org/2000/svg"
   xmlns="http://www.w3.org/2000/svg"
   xmlns:sodipodi="http://sodipodi.sourceforge.net/DTD/sodipodi-0.dtd"
   xmlns:inkscape="http://www.inkscape.org/namespaces/inkscape"
   width="3456.0115"
   height="1800.0002"
   viewBox="0 0 914.40303 476.25007"
   version="1.1"
   id="svg8"
   inkscape:export-filename="C:\Users\厂永刄先生\Documents\GXI3CW2\poM̕écèŭ\M̕é\1861.png"
   inkscape:export-xdpi="96"
   inkscape:export-ydpi="96"
   inkscape:version="0.92.4 (5da689c313, 2019-01-14)"
   sodipodi:docname="1861.svg">
  <defs
     id="defs2" />
  <sodipodi:namedview
     id="base"
     pagecolor="#ffffff"
     bordercolor="#666666"
     borderopacity="1.0"
     inkscape:pageopacity="0.0"
     inkscape:pageshadow="2"
     inkscape:zoom="0.5612699"
     inkscape:cx="520.6155"
     inkscape:cy="1315.3847"
     inkscape:document-units="px"
     inkscape:current-layer="layer1"
     showgrid="false"
     units="px"
     fit-margin-top="0"
     fit-margin-left="0"
     fit-margin-right="0"
     fit-margin-bottom="0"
     inkscape:showpageshadow="false"
     inkscape:snap-intersection-paths="true"
     inkscape:object-paths="false"
     inkscape:pagecheckerboard="true"
     inkscape:snap-smooth-nodes="false"
     inkscape:window-width="1366"
     inkscape:window-height="745"
     inkscape:window-x="-8"
     inkscape:window-y="-8"
     inkscape:window-maximized="1"
     inkscape:object-nodes="true"
     inkscape:snap-nodes="true" />
  <metadata
     id="metadata5">
    <rdf:RDF>
      <cc:Work
         rdf:about="">
        <dc:format>image/svg+xml</dc:format>
        <dc:type
           rdf:resource="http://purl.org/dc/dcmitype/StillImage" />
        <dc:title />
      </cc:Work>
    </rdf:RDF>
  </metadata>
  <g
     inkscape:label="レイヤー 1"
     inkscape:groupmode="layer"
     id="layer1"
     transform="translate(112.33452,-299.2678)">
    <path
       style="fill:#ffffff;fill-opacity:1;stroke:none;stroke-width:0.51166773px;stroke-linecap:butt;stroke-linejoin:miter;stroke-opacity:1"
       d="m -102.80952,299.26786 h -9.525 v 476.25 h 9.525 z"
       id="path1079"
       inkscape:connector-curvature="0"
       sodipodi:nodetypes="ccccc" />
    <path
       sodipodi:nodetypes="ccccc"
       inkscape:connector-curvature="0"
       id="path824"
       d="m -102.80952,738.88324 v 36.63462 H 802.0685 v -36.63462 z"
       style="fill:#b31942;fill-opacity:1;stroke:none;stroke-width:2.28030705px;stroke-linecap:butt;stroke-linejoin:miter;stroke-opacity:1" />
    <path
       style="fill:#ffffff;fill-opacity:1;stroke:none;stroke-width:2.28030705px;stroke-linecap:butt;stroke-linejoin:miter;stroke-opacity:1"
       d="m -102.80952,702.24862 v 36.63462 H 802.0685 v -36.63462 z"
       id="path828"
       inkscape:connector-curvature="0"
       sodipodi:nodetypes="ccccc" />
    <path
       style="fill:#b31942;fill-opacity:1;stroke:none;stroke-width:2.28030705px;stroke-linecap:butt;stroke-linejoin:miter;stroke-opacity:1"
       d="m -102.80952,665.614 v 36.63462 H 802.0685 V 665.614 Z"
       id="path830"
       inkscape:connector-curvature="0"
       sodipodi:nodetypes="ccccc" />
    <path
       sodipodi:nodetypes="ccccc"
       inkscape:connector-curvature="0"
       id="path832"
       d="M -102.80952,628.97938 V 665.614 H 802.0685 v -36.63462 z"
       style="fill:#ffffff;fill-opacity:1;stroke:none;stroke-width:2.28030705px;stroke-linecap:butt;stroke-linejoin:miter;stroke-opacity:1" />
    <path
       sodipodi:nodetypes="ccccc"
       inkscape:connector-curvature="0"
       id="path834"
       d="m -102.80952,592.34476 v 36.63462 H 802.0685 v -36.63462 z"
       style="fill:#b31942;fill-opacity:1;stroke:none;stroke-width:2.28030705px;stroke-linecap:butt;stroke-linejoin:miter;stroke-opacity:1" />
    <path
       style="fill:#ffffff;fill-opacity:1;stroke:none;stroke-width:2.28030705px;stroke-linecap:butt;stroke-linejoin:miter;stroke-opacity:1"
       d="m -102.80952,555.71014 v 36.63462 H 802.0685 v -36.63462 z"
       id="path836"
       inkscape:connector-curvature="0"
       sodipodi:nodetypes="ccccc" />
    <path
       style="fill:#b31942;fill-opacity:1;stroke:none;stroke-width:2.28030705px;stroke-linecap:butt;stroke-linejoin:miter;stroke-opacity:1"
       d="m 153.63284,519.07552 v 36.63462 H 802.0685 v -36.63462 z"
       id="path838"
       inkscape:connector-curvature="0"
       sodipodi:nodetypes="ccccc" />
    <path
       sodipodi:nodetypes="ccccc"
       inkscape:connector-curvature="0"
       id="path840"
       d="m 153.63284,482.4409 v 36.63462 H 802.0685 V 482.4409 Z"
       style="fill:#ffffff;fill-opacity:1;stroke:none;stroke-width:2.28030705px;stroke-linecap:butt;stroke-linejoin:miter;stroke-opacity:1" />
    <path
       sodipodi:nodetypes="ccccc"
       inkscape:connector-curvature="0"
       id="path842"
       d="M 153.63284,445.80628 V 482.4409 H 802.0685 v -36.63462 z"
       style="fill:#b31942;fill-opacity:1;stroke:none;stroke-width:2.28030705px;stroke-linecap:butt;stroke-linejoin:miter;stroke-opacity:1" />
    <path
       sodipodi:nodetypes="ccccc"
       inkscape:connector-curvature="0"
       id="path844"
       d="m 153.63284,409.17166 v 36.63462 H 802.0685 v -36.63462 z"
       style="fill:#ffffff;fill-opacity:1;stroke:none;stroke-width:2.28030705px;stroke-linecap:butt;stroke-linejoin:miter;stroke-opacity:1" />
    <path
       sodipodi:nodetypes="ccccc"
       inkscape:connector-curvature="0"
       id="path846"
       d="m 153.63284,372.53704 v 36.63462 H 802.0685 v -36.63462 z"
       style="fill:#b31942;fill-opacity:1;stroke:none;stroke-width:2.28030705px;stroke-linecap:butt;stroke-linejoin:miter;stroke-opacity:1" />
    <path
       style="fill:#ffffff;fill-opacity:1;stroke:none;stroke-width:2.28030705px;stroke-linecap:butt;stroke-linejoin:miter;stroke-opacity:1"
       d="m 153.63284,335.90242 v 36.63462 H 802.0685 v -36.63462 z"
       id="path848"
       inkscape:connector-curvature="0"
       sodipodi:nodetypes="ccccc" />
    <path
       style="fill:#b31942;fill-opacity:1;stroke:none;stroke-width:2.28030705px;stroke-linecap:butt;stroke-linejoin:miter;stroke-opacity:1"
       d="m 153.63284,299.2678 v 36.63462 H 802.0685 V 299.2678 Z"
       id="path850"
       inkscape:connector-curvature="0"
       sodipodi:nodetypes="ccccc" />
    <path
       style="fill:#0a3161;fill-opacity:1;stroke:none;stroke-width:2.69729114px;stroke-linecap:butt;stroke-linejoin:miter;stroke-opacity:1"
       d="m 153.63285,299.26786 h -256.44237 l 8e-5,256.44228 h 256.44229 z"
       id="path996"
       inkscape:connector-curvature="0"
       sodipodi:nodetypes="ccccc" />
    <path
       sodipodi:nodetypes="ccccccccccc"
       inkscape:connector-curvature="0"
       id="path863"
       d="m 25.411646,333.35876 8.61335,6.25796 -3.29001,-10.1256 8.613349,-6.25795 H 28.701656 l -3.28998,-10.12559 -3.29002,10.12559 h -10.64667 l 8.61335,6.25796 -3.29001,10.12559 z"
       style="fill:#ffffff;fill-opacity:1;stroke:none;stroke-width:0.26458332px;stroke-linecap:butt;stroke-linejoin:miter;stroke-opacity:1" />
    <path
       sodipodi:nodetypes="ccccccccccc"
       inkscape:connector-curvature="0"
       id="path871"
       d="m 25.411646,521.61925 8.61335,-6.25796 -3.29001,10.1256 8.613349,6.25795 H 28.701656 l -3.28998,10.12559 -3.29002,-10.12559 h -10.64667 l 8.61335,-6.25796 -3.29001,-10.12559 z"
       style="fill:#ffffff;fill-opacity:1;stroke:none;stroke-width:0.26458332px;stroke-linecap:butt;stroke-linejoin:miter;stroke-opacity:1" />
    <path
       style="fill:#ffffff;fill-opacity:1;stroke:none;stroke-width:0.26458332px;stroke-linecap:butt;stroke-linejoin:miter;stroke-opacity:1"
       d="m 25.411646,390.34594 8.61335,6.25796 -3.29001,-10.1256 8.613349,-6.25795 H 28.701656 l -3.28998,-10.12559 -3.29002,10.12559 h -10.64667 l 8.61335,6.25796 -3.29001,10.12559 z"
       id="path875"
       inkscape:connector-curvature="0"
       sodipodi:nodetypes="ccccccccccc" />
    <path
       style="fill:#ffffff;fill-opacity:1;stroke:none;stroke-width:0.26458332px;stroke-linecap:butt;stroke-linejoin:miter;stroke-opacity:1"
       d="m 25.411646,464.63208 8.61335,-6.25796 -3.29001,10.1256 8.613349,6.25795 H 28.701656 l -3.28998,10.12559 -3.29002,-10.12559 h -10.64667 l 8.61335,-6.25796 -3.29001,-10.12559 z"
       id="path889"
       inkscape:connector-curvature="0"
       sodipodi:nodetypes="ccccccccccc" />
    <path
       style="fill:#ffffff;fill-opacity:1;stroke:none;stroke-width:0.26458332px;stroke-linecap:butt;stroke-linejoin:miter;stroke-opacity:1"
       d="m 54.499493,337.96582 6.25797,8.61334 -1e-5,-10.64668 10.1256,-3.29 -10.1256,-3.29 3e-5,-10.64667 -6.25798,8.61334 -10.125583,-3.29001 6.257963,8.61335 -6.257961,8.61334 z"
       id="path944"
       inkscape:connector-curvature="0"
       sodipodi:nodetypes="ccccccccccc" />
    <path
       style="fill:#ffffff;fill-opacity:1;stroke:none;stroke-width:0.26458332px;stroke-linecap:butt;stroke-linejoin:miter;stroke-opacity:1"
       d="m -3.6761987,517.01218 10.1255987,-3.29 -6.2579677,8.61335 6.2579687,8.61334 -10.1255937,-3.29001 -6.257936,8.61335 -1.5e-5,-10.64668 -10.1255853,-3.29 10.1255983,-3.29001 -6e-6,-10.64667 z"
       id="path946"
       inkscape:connector-curvature="0"
       sodipodi:nodetypes="ccccccccccc" />
    <path
       style="fill:#ffffff;fill-opacity:1;stroke:none;stroke-width:0.26458332px;stroke-linecap:butt;stroke-linejoin:miter;stroke-opacity:1"
       d="m 80.740023,351.33603 3.29001,10.12559 3.29,-10.1256 10.646683,10e-6 -8.613353,-6.25796 3.29003,-10.12557 -8.61336,6.25795 -8.61334,-6.25796 3.29001,10.1256 -8.61334,6.25795 z"
       id="path948"
       inkscape:connector-curvature="0"
       sodipodi:nodetypes="ccccccccccc" />
    <path
       style="fill:#ffffff;fill-opacity:1;stroke:none;stroke-width:0.26458332px;stroke-linecap:butt;stroke-linejoin:miter;stroke-opacity:1"
       d="m -29.916721,503.64196 10.646683,1e-5 -8.613352,6.25796 3.290015,10.12559 -8.613344,-6.25796 -8.613322,6.25797 3.28999,-10.1256 -8.613337,-6.25796 10.646683,10e-6 3.289999,-10.12559 z"
       id="path950"
       inkscape:connector-curvature="0"
       sodipodi:nodetypes="ccccccccccc" />
    <path
       sodipodi:nodetypes="ccccccccccc"
       inkscape:connector-curvature="0"
       id="path952"
       d="m 47.243795,397.43962 3.290008,10.1256 3.29001,-10.1256 10.64667,1e-5 -8.61334,-6.25796 3.29002,-10.12558 -8.61335,6.25795 -8.61334,-6.25795 3.29001,10.12559 -8.613347,6.25796 z"
       style="fill:#ffffff;fill-opacity:1;stroke:none;stroke-width:0.26458332px;stroke-linecap:butt;stroke-linejoin:miter;stroke-opacity:1" />
    <path
       sodipodi:nodetypes="ccccccccccc"
       inkscape:connector-curvature="0"
       id="path954"
       d="m 3.5794973,457.53837 10.6466827,1e-5 -8.613352,6.25796 3.290015,10.12559 -8.6133437,-6.25796 -8.613322,6.25797 3.28999,-10.1256 -8.6133373,-6.25795 h 10.6466833 l 3.289999,-10.12559 z"
       style="fill:#ffffff;fill-opacity:1;stroke:none;stroke-width:0.26458332px;stroke-linecap:butt;stroke-linejoin:miter;stroke-opacity:1" />
    <path
       sodipodi:nodetypes="ccccccccccc"
       inkscape:connector-curvature="0"
       id="path956"
       d="m 101.56463,372.16063 1e-5,10.64668 6.25795,-8.61335 10.1256,3.29001 -6.25797,-8.61335 6.25798,-8.61332 -10.12561,3.28999 -6.25795,-8.61334 v 10.64669 l -10.125597,3.29 z"
       style="fill:#ffffff;fill-opacity:1;stroke:none;stroke-width:0.26458332px;stroke-linecap:butt;stroke-linejoin:miter;stroke-opacity:1" />
    <path
       sodipodi:nodetypes="ccccccccccc"
       inkscape:connector-curvature="0"
       id="path958"
       d="m -50.741314,482.81736 10.125595,3.29001 -10.125602,3.29001 9e-6,10.64668 -6.257958,-8.61335 -10.125577,3.29002 6.25795,-8.61335 -6.257958,-8.61334 10.125601,3.29001 6.257951,-8.61334 z"
       style="fill:#ffffff;fill-opacity:1;stroke:none;stroke-width:0.26458332px;stroke-linecap:butt;stroke-linejoin:miter;stroke-opacity:1" />
    <path
       sodipodi:nodetypes="ccccccccccc"
       inkscape:connector-curvature="0"
       id="path960"
       d="m 114.93485,398.40115 -3.29,10.12559 8.61335,-6.25797 8.61334,6.25797 -3.29001,-10.1256 8.61335,-6.25792 -10.64669,-2e-5 -3.29,-10.12559 -3.29,10.1256 -10.64667,-1e-5 z"
       style="fill:#ffffff;fill-opacity:1;stroke:none;stroke-width:0.26458332px;stroke-linecap:butt;stroke-linejoin:miter;stroke-opacity:1" />
    <path
       sodipodi:nodetypes="ccccccccccc"
       inkscape:connector-curvature="0"
       id="path962"
       d="m -64.11152,456.57683 8.613342,6.25797 h -10.646685 l -3.289994,10.12559 -3.290005,-10.12559 -10.646667,2e-5 8.613336,-6.25798 -3.289999,-10.12558 8.613342,6.25797 8.613338,-6.25796 z"
       style="fill:#ffffff;fill-opacity:1;stroke:none;stroke-width:0.26458332px;stroke-linecap:butt;stroke-linejoin:miter;stroke-opacity:1" />
    <path
       style="fill:#ffffff;fill-opacity:1;stroke:none;stroke-width:0.26458332px;stroke-linecap:butt;stroke-linejoin:miter;stroke-opacity:1"
       d="m 60.736823,416.01114 -3.29001,10.12561 8.61335,-6.25797 8.61333,6.25797 -3.29,-10.12559 8.61335,-6.25795 -10.64668,-1e-5 -3.29001,-10.12558 -3.28999,10.12559 h -10.64668 z"
       id="path964"
       inkscape:connector-curvature="0"
       sodipodi:nodetypes="ccccccccccc" />
    <path
       style="fill:#ffffff;fill-opacity:1;stroke:none;stroke-width:0.26458332px;stroke-linecap:butt;stroke-linejoin:miter;stroke-opacity:1"
       d="m -9.9134997,438.96682 8.613342,6.25798 -10.6466853,-1e-5 -3.289994,10.1256 -3.290005,-10.1256 -10.646667,2e-5 8.613336,-6.25797 -3.290005,-10.12558 8.613348,6.25796 8.6133373,-6.25796 z"
       id="path966"
       inkscape:connector-curvature="0"
       sodipodi:nodetypes="ccccccccccc" />
    <path
       style="fill:#ffffff;fill-opacity:1;stroke:none;stroke-width:0.26458332px;stroke-linecap:butt;stroke-linejoin:miter;stroke-opacity:1"
       d="m 119.54192,427.48899 -6.25796,8.61335 10.12559,-3.29001 6.25796,8.61335 v -10.64669 l 10.12559,-3.28997 -10.12559,-3.29003 v -10.64667 l -6.25797,8.61336 -10.12558,-3.29001 z"
       id="path968"
       inkscape:connector-curvature="0"
       sodipodi:nodetypes="ccccccccccc" />
    <path
       style="fill:#ffffff;fill-opacity:1;stroke:none;stroke-width:0.26458332px;stroke-linecap:butt;stroke-linejoin:miter;stroke-opacity:1"
       d="m -68.718577,427.48899 6.25796,8.61334 -10.125604,-3.29 -6.257954,8.61335 5e-6,-10.64668 -10.125589,-3.28999 10.125588,-3.29001 v -10.64668 l 6.257964,8.61336 10.125583,-3.29001 z"
       id="path970"
       inkscape:connector-curvature="0"
       sodipodi:nodetypes="ccccccccccc" />
    <path
       style="fill:#ffffff;fill-opacity:1;stroke:none;stroke-width:0.26458332px;stroke-linecap:butt;stroke-linejoin:miter;stroke-opacity:1"
       d="m 114.93485,456.57684 -8.61333,6.25796 10.64668,-10e-6 3.29,10.1256 3.29,-10.1256 10.64666,4e-5 -8.61334,-6.25799 3.29001,-10.12558 -8.61334,6.25797 -8.61334,-6.25797 z"
       id="path972"
       inkscape:connector-curvature="0"
       sodipodi:nodetypes="ccccccccccc" />
    <path
       style="fill:#ffffff;fill-opacity:1;stroke:none;stroke-width:0.26458332px;stroke-linecap:butt;stroke-linejoin:miter;stroke-opacity:1"
       d="m -64.11151,398.40114 3.289998,10.1256 -8.61335,-6.25797 -8.613333,6.25797 3.290002,-10.12559 -8.613346,-6.25794 10.646684,-2e-5 3.290001,-10.12558 3.289998,10.1256 h 10.646673 z"
       id="path974"
       inkscape:connector-curvature="0"
       sodipodi:nodetypes="ccccccccccc" />
    <path
       sodipodi:nodetypes="ccccccccccc"
       inkscape:connector-curvature="0"
       id="path976"
       d="m 60.736833,438.96682 -8.61336,6.25797 h 10.64669 l 3.28999,10.12559 3.29001,-10.12559 10.64667,2e-5 -8.61333,-6.25797 3.28999,-10.12559 -8.61333,6.25797 -8.61335,-6.25796 z"
       style="fill:#ffffff;fill-opacity:1;stroke:none;stroke-width:0.26458332px;stroke-linecap:butt;stroke-linejoin:miter;stroke-opacity:1" />
    <path
       sodipodi:nodetypes="ccccccccccc"
       inkscape:connector-curvature="0"
       id="path978"
       d="m -9.9134867,416.01114 3.289992,10.12561 -8.6133433,-6.25798 -8.61334,6.25798 3.290009,-10.1256 -8.613347,-6.25794 10.646678,-1e-5 3.289997,-10.12558 3.290008,10.12559 h 10.6466733 z"
       style="fill:#ffffff;fill-opacity:1;stroke:none;stroke-width:0.26458332px;stroke-linecap:butt;stroke-linejoin:miter;stroke-opacity:1" />
    <path
       sodipodi:nodetypes="ccccccccccc"
       inkscape:connector-curvature="0"
       id="path980"
       d="m 101.56465,482.81736 -10.125607,3.29001 10.125607,3.29 -1e-5,10.64668 6.25797,-8.61335 10.12557,3.29003 -6.25794,-8.61336 6.25795,-8.61334 -10.12561,3.29001 -6.25794,-8.61334 z"
       style="fill:#ffffff;fill-opacity:1;stroke:none;stroke-width:0.26458332px;stroke-linecap:butt;stroke-linejoin:miter;stroke-opacity:1" />
    <path
       sodipodi:nodetypes="ccccccccccc"
       inkscape:connector-curvature="0"
       id="path982"
       d="m -50.741294,372.16062 2e-6,10.64668 -6.257972,-8.61335 -10.125592,3.29001 6.257966,-8.61334 -6.257966,-8.61333 10.125592,3.29 6.257962,-8.61335 -7e-6,10.6467 10.125587,3.28999 z"
       style="fill:#ffffff;fill-opacity:1;stroke:none;stroke-width:0.26458332px;stroke-linecap:butt;stroke-linejoin:miter;stroke-opacity:1" />
    <path
       sodipodi:nodetypes="ccccccccccc"
       inkscape:connector-curvature="0"
       id="path984"
       d="m 80.740033,503.64196 -10.64667,1e-5 8.61335,6.25796 -3.29001,10.12559 8.61334,-6.25797 8.61331,6.25798 -3.28999,-10.12561 8.613343,-6.25795 -10.646683,10e-6 -3.28999,-10.1256 z"
       style="fill:#ffffff;fill-opacity:1;stroke:none;stroke-width:0.26458332px;stroke-linecap:butt;stroke-linejoin:miter;stroke-opacity:1" />
    <path
       sodipodi:nodetypes="ccccccccccc"
       inkscape:connector-curvature="0"
       id="path986"
       d="m -29.916694,351.33603 -3.290015,10.12559 -3.290003,-10.1256 -10.646675,10e-6 8.613339,-6.25796 -3.290018,-10.12557 8.61336,6.25794 8.613333,-6.25795 -3.290014,10.1256 8.613339,6.25795 z"
       style="fill:#ffffff;fill-opacity:1;stroke:none;stroke-width:0.26458332px;stroke-linecap:butt;stroke-linejoin:miter;stroke-opacity:1" />
    <path
       style="fill:#ffffff;fill-opacity:1;stroke:none;stroke-width:0.26458332px;stroke-linecap:butt;stroke-linejoin:miter;stroke-opacity:1"
       d="M 47.243828,457.53837 H 36.597131 l 8.613353,6.25796 -3.290014,10.12559 8.613343,-6.25796 8.61333,6.25797 -3.28999,-10.12559 8.61333,-6.25797 -10.64667,2e-5 -3.29001,-10.1256 z"
       id="path988"
       inkscape:connector-curvature="0"
       sodipodi:nodetypes="ccccccccccc" />
    <path
       style="fill:#ffffff;fill-opacity:1;stroke:none;stroke-width:0.26458332px;stroke-linecap:butt;stroke-linejoin:miter;stroke-opacity:1"
       d="m 3.5795293,397.43962 -3.290025,10.1256 -3.289992,-10.12561 -10.6466873,2e-5 8.6133523,-6.25797 -3.29002,-10.12558 8.61335,6.25796 8.6133297,-6.25796 -3.29,10.12559 8.613339,6.25796 z"
       id="path990"
       inkscape:connector-curvature="0"
       sodipodi:nodetypes="ccccccccccc" />
    <path
       style="fill:#ffffff;fill-opacity:1;stroke:none;stroke-width:0.26458332px;stroke-linecap:butt;stroke-linejoin:miter;stroke-opacity:1"
       d="m 54.499523,517.01218 -10.125605,-3.29 6.257965,8.61334 -6.257966,8.61334 10.125606,-3.29 6.25793,8.61335 2e-5,-10.64668 10.12558,-3.29001 -10.12561,-3.29001 2e-5,-10.64666 z"
       id="path992"
       inkscape:connector-curvature="0"
       sodipodi:nodetypes="ccccccccccc" />
    <path
       style="fill:#ffffff;fill-opacity:1;stroke:none;stroke-width:0.26458332px;stroke-linecap:butt;stroke-linejoin:miter;stroke-opacity:1"
       d="m -3.6761717,337.96582 -6.25796,8.61334 -6e-6,-10.64669 -10.1255953,-3.29 10.1255953,-3.28999 -1.2e-5,-10.64667 6.257962,8.61333 10.1255977,-3.29 -6.2579787,8.61335 6.2579647,8.61333 z"
       id="path994"
       inkscape:connector-curvature="0"
       sodipodi:nodetypes="ccccccccccc" />
    <path
       style="fill:#ffffff;fill-opacity:1;stroke:none;stroke-width:0.26458332px;stroke-linecap:butt;stroke-linejoin:miter;stroke-opacity:1"
       d="m -70.357998,331.71936 10.515603,-1.66551 -9.486268,-4.83349 1.665518,-10.5156 -7.528339,7.52834 -9.48624,-4.83351 4.833478,9.48627 -7.528332,7.52833 10.515604,-1.66551 4.833485,9.48626 z"
       id="path1001"
       inkscape:connector-curvature="0"
       sodipodi:nodetypes="ccccccccccc" />
    <path
       sodipodi:nodetypes="ccccccccccc"
       inkscape:connector-curvature="0"
       id="path1137"
       d="m 121.18133,523.25864 -10.51561,1.66551 9.48627,4.83349 -1.66552,10.5156 7.52834,-7.52834 9.48624,4.83351 -4.83347,-9.48627 7.52833,-7.52833 -10.51561,1.66551 -4.83348,-9.48626 z"
       style="fill:#ffffff;fill-opacity:1;stroke:none;stroke-width:0.26458332px;stroke-linecap:butt;stroke-linejoin:miter;stroke-opacity:1" />
    <path
       sodipodi:nodetypes="ccccccccccc"
       inkscape:connector-curvature="0"
       id="path1139"
       d="m -70.357998,523.25864 10.515603,1.66551 -9.486268,4.83349 1.665518,10.5156 -7.528339,-7.52834 -9.48624,4.83351 4.833478,-9.48627 -7.528332,-7.52833 10.515604,1.66551 4.833485,-9.48626 z"
       style="fill:#ffffff;fill-opacity:1;stroke:none;stroke-width:0.26458332px;stroke-linecap:butt;stroke-linejoin:miter;stroke-opacity:1" />
    <path
       style="fill:#ffffff;fill-opacity:1;stroke:none;stroke-width:0.26458332px;stroke-linecap:butt;stroke-linejoin:miter;stroke-opacity:1"
       d="m 121.18133,331.71936 -10.51561,-1.66551 9.48627,-4.83349 -1.66552,-10.5156 7.52834,7.52834 9.48624,-4.83351 -4.83347,9.48627 7.52833,7.52833 -10.51561,-1.66551 -4.83348,9.48626 z"
       id="path1141"
       inkscape:connector-curvature="0"
       sodipodi:nodetypes="ccccccccccc" />
  </g>
</svg>
