<?xml version="1.0" encoding="UTF-8" standalone="no"?>
<!-- Created with Inkscape (http://www.inkscape.org/) -->

<svg
   xmlns:dc="http://purl.org/dc/elements/1.1/"
   xmlns:cc="http://creativecommons.org/ns#"
   xmlns:rdf="http://www.w3.org/1999/02/22-rdf-syntax-ns#"
   xmlns:svg="http://www.w3.org/2000/svg"
   xmlns="http://www.w3.org/2000/svg"
   xmlns:sodipodi="http://sodipodi.sourceforge.net/DTD/sodipodi-0.dtd"
   xmlns:inkscape="http://www.inkscape.org/namespaces/inkscape"
   width="3456.0115"
   height="1800.0002"
   viewBox="0 0 914.40303 476.25007"
   version="1.1"
   id="svg8"
   inkscape:export-filename="C:\Users\厂永刄先生\Documents\GXI3CW2\poM̕écèŭ\M̕é\1959.png"
   inkscape:export-xdpi="96"
   inkscape:export-ydpi="96"
   inkscape:version="0.92.4 (5da689c313, 2019-01-14)"
   sodipodi:docname="1959.svg">
  <defs
     id="defs2" />
  <sodipodi:namedview
     id="base"
     pagecolor="#ffffff"
     bordercolor="#666666"
     borderopacity="1.0"
     inkscape:pageopacity="0.0"
     inkscape:pageshadow="2"
     inkscape:zoom="0.39687766"
     inkscape:cx="720.00228"
     inkscape:cy="1315.3848"
     inkscape:document-units="px"
     inkscape:current-layer="layer1"
     showgrid="false"
     units="px"
     fit-margin-top="0"
     fit-margin-left="0"
     fit-margin-right="0"
     fit-margin-bottom="0"
     inkscape:showpageshadow="false"
     inkscape:snap-intersection-paths="true"
     inkscape:object-paths="false"
     inkscape:pagecheckerboard="true"
     inkscape:snap-smooth-nodes="false"
     inkscape:window-width="1366"
     inkscape:window-height="745"
     inkscape:window-x="-8"
     inkscape:window-y="-8"
     inkscape:window-maximized="1"
     inkscape:object-nodes="true"
     inkscape:snap-nodes="true"
     showguides="false" />
  <metadata
     id="metadata5">
    <rdf:RDF>
      <cc:Work
         rdf:about="">
        <dc:format>image/svg+xml</dc:format>
        <dc:type
           rdf:resource="http://purl.org/dc/dcmitype/StillImage" />
        <dc:title />
      </cc:Work>
    </rdf:RDF>
  </metadata>
  <g
     inkscape:label="レイヤー 1"
     inkscape:groupmode="layer"
     id="layer1"
     transform="translate(112.33452,-299.2678)">
    <path
       style="fill:#ffffff;fill-opacity:1;stroke:none;stroke-width:0.51166773px;stroke-linecap:butt;stroke-linejoin:miter;stroke-opacity:1"
       d="m -102.80952,299.26786 h -9.525 v 476.25 h 9.525 z"
       id="path1079"
       inkscape:connector-curvature="0"
       sodipodi:nodetypes="ccccc" />
    <path
       sodipodi:nodetypes="ccccc"
       inkscape:connector-curvature="0"
       id="path824"
       d="m -102.80952,738.88324 v 36.63462 H 802.0685 v -36.63462 z"
       style="fill:#b31942;fill-opacity:1;stroke:none;stroke-width:2.28030705px;stroke-linecap:butt;stroke-linejoin:miter;stroke-opacity:1" />
    <path
       style="fill:#ffffff;fill-opacity:1;stroke:none;stroke-width:2.28030705px;stroke-linecap:butt;stroke-linejoin:miter;stroke-opacity:1"
       d="m -102.80952,702.24862 v 36.63462 H 802.0685 v -36.63462 z"
       id="path828"
       inkscape:connector-curvature="0"
       sodipodi:nodetypes="ccccc" />
    <path
       style="fill:#b31942;fill-opacity:1;stroke:none;stroke-width:2.28030705px;stroke-linecap:butt;stroke-linejoin:miter;stroke-opacity:1"
       d="m -102.80952,665.614 v 36.63462 H 802.0685 V 665.614 Z"
       id="path830"
       inkscape:connector-curvature="0"
       sodipodi:nodetypes="ccccc" />
    <path
       sodipodi:nodetypes="ccccc"
       inkscape:connector-curvature="0"
       id="path832"
       d="M -102.80952,628.97938 V 665.614 H 802.0685 v -36.63462 z"
       style="fill:#ffffff;fill-opacity:1;stroke:none;stroke-width:2.28030705px;stroke-linecap:butt;stroke-linejoin:miter;stroke-opacity:1" />
    <path
       sodipodi:nodetypes="ccccc"
       inkscape:connector-curvature="0"
       id="path834"
       d="m -102.80952,592.34476 v 36.63462 H 802.0685 v -36.63462 z"
       style="fill:#b31942;fill-opacity:1;stroke:none;stroke-width:2.28030705px;stroke-linecap:butt;stroke-linejoin:miter;stroke-opacity:1" />
    <path
       style="fill:#ffffff;fill-opacity:1;stroke:none;stroke-width:2.28030705px;stroke-linecap:butt;stroke-linejoin:miter;stroke-opacity:1"
       d="m -102.80952,555.71014 v 36.63462 H 802.0685 v -36.63462 z"
       id="path836"
       inkscape:connector-curvature="0"
       sodipodi:nodetypes="ccccc" />
    <path
       style="fill:#b31942;fill-opacity:1;stroke:none;stroke-width:2.28030705px;stroke-linecap:butt;stroke-linejoin:miter;stroke-opacity:1"
       d="m 259.14169,519.07552 v 36.63462 H 802.0685 v -36.63462 z"
       id="path838"
       inkscape:connector-curvature="0"
       sodipodi:nodetypes="ccccc" />
    <path
       sodipodi:nodetypes="ccccc"
       inkscape:connector-curvature="0"
       id="path840"
       d="m 259.14169,482.4409 v 36.63462 H 802.0685 V 482.4409 Z"
       style="fill:#ffffff;fill-opacity:1;stroke:none;stroke-width:2.28030705px;stroke-linecap:butt;stroke-linejoin:miter;stroke-opacity:1" />
    <path
       sodipodi:nodetypes="ccccc"
       inkscape:connector-curvature="0"
       id="path842"
       d="M 259.14169,445.80628 V 482.4409 H 802.0685 v -36.63462 z"
       style="fill:#b31942;fill-opacity:1;stroke:none;stroke-width:2.28030705px;stroke-linecap:butt;stroke-linejoin:miter;stroke-opacity:1" />
    <path
       sodipodi:nodetypes="ccccc"
       inkscape:connector-curvature="0"
       id="path844"
       d="m 259.14169,409.17166 v 36.63462 H 802.0685 v -36.63462 z"
       style="fill:#ffffff;fill-opacity:1;stroke:none;stroke-width:2.28030705px;stroke-linecap:butt;stroke-linejoin:miter;stroke-opacity:1" />
    <path
       sodipodi:nodetypes="ccccc"
       inkscape:connector-curvature="0"
       id="path846"
       d="m 259.14169,372.53704 v 36.63462 H 802.0685 v -36.63462 z"
       style="fill:#b31942;fill-opacity:1;stroke:none;stroke-width:2.28030705px;stroke-linecap:butt;stroke-linejoin:miter;stroke-opacity:1" />
    <path
       style="fill:#ffffff;fill-opacity:1;stroke:none;stroke-width:2.28030705px;stroke-linecap:butt;stroke-linejoin:miter;stroke-opacity:1"
       d="m 259.14169,335.90242 v 36.63462 H 802.0685 v -36.63462 z"
       id="path848"
       inkscape:connector-curvature="0"
       sodipodi:nodetypes="ccccc" />
    <path
       style="fill:#b31942;fill-opacity:1;stroke:none;stroke-width:2.28030705px;stroke-linecap:butt;stroke-linejoin:miter;stroke-opacity:1"
       d="m 259.14169,299.2678 v 36.63462 H 802.0685 V 299.2678 Z"
       id="path850"
       inkscape:connector-curvature="0"
       sodipodi:nodetypes="ccccc" />
    <path
       sodipodi:nodetypes="ccccc"
       inkscape:connector-curvature="0"
       id="path868"
       d="M 259.14169,555.71014 V 299.2678 l -361.95121,6e-5 v 256.44228 z"
       style="fill:#0a3161;fill-opacity:1;stroke:none;stroke-width:2.27037477px;stroke-linecap:butt;stroke-linejoin:miter;stroke-opacity:1" />
    <path
       style="fill:#ffffff;fill-opacity:1;stroke:none;stroke-width:0.26458332px;stroke-linecap:butt;stroke-linejoin:miter;stroke-opacity:1"
       d="m 17.84089,336.92041 8.61334,6.25796 -3.29001,-10.1256 8.61335,-6.25795 H 21.13089 L 17.84092,316.66923 14.5509,326.79482 H 3.9042201 l 8.6133599,6.25796 -3.2900199,10.12559 z"
       id="path929"
       inkscape:connector-curvature="0"
       sodipodi:nodetypes="ccccccccccc" />
    <path
       sodipodi:nodetypes="ccccccccccc"
       inkscape:connector-curvature="0"
       id="path932"
       d="m 90.23113,368.97569 8.61334,6.25796 -3.29001,-10.1256 8.61335,-6.25795 H 93.52113 L 90.23116,348.72451 86.94114,358.8501 H 76.29446 l 8.61336,6.25796 -3.29002,10.12559 z"
       style="fill:#ffffff;fill-opacity:1;stroke:none;stroke-width:0.26458332px;stroke-linecap:butt;stroke-linejoin:miter;stroke-opacity:1" />
    <path
       sodipodi:nodetypes="ccccccccccc"
       inkscape:connector-curvature="0"
       id="path934"
       d="m 210.88152,336.92041 8.61334,6.25796 -3.29001,-10.1256 8.61335,-6.25795 h -10.64668 l -3.28997,-10.12559 -3.29002,10.12559 h -10.64668 l 8.61336,6.25796 -3.29002,10.12559 z"
       style="fill:#ffffff;fill-opacity:1;stroke:none;stroke-width:0.26458332px;stroke-linecap:butt;stroke-linejoin:miter;stroke-opacity:1" />
    <path
       style="fill:#ffffff;fill-opacity:1;stroke:none;stroke-width:0.26458332px;stroke-linecap:butt;stroke-linejoin:miter;stroke-opacity:1"
       d="m 235.01161,368.97569 8.61334,6.25796 -3.29001,-10.1256 8.61335,-6.25795 h -10.64668 l -3.28997,-10.12559 -3.29002,10.12559 h -10.64668 l 8.61336,6.25796 -3.29002,10.12559 z"
       id="path936"
       inkscape:connector-curvature="0"
       sodipodi:nodetypes="ccccccccccc" />
    <path
       sodipodi:nodetypes="ccccccccccc"
       inkscape:connector-curvature="0"
       id="path938"
       d="m -78.679438,529.25214 8.61334,6.25796 -3.29001,-10.1256 8.61335,-6.25795 h -10.64668 l -3.28997,-10.12559 -3.29002,10.12559 h -10.64668 l 8.61336,6.25796 -3.29002,10.12559 z"
       style="fill:#ffffff;fill-opacity:1;stroke:none;stroke-width:0.26458332px;stroke-linecap:butt;stroke-linejoin:miter;stroke-opacity:1" />
    <path
       sodipodi:nodetypes="ccccccccccc"
       inkscape:connector-curvature="0"
       id="path940"
       d="m -30.41927,336.92041 8.61334,6.25796 -3.29001,-10.1256 8.61335,-6.25795 h -10.64668 l -3.28997,-10.12559 -3.29002,10.12559 h -10.64668 l 8.61336,6.25796 -3.29002,10.12559 z"
       style="fill:#ffffff;fill-opacity:1;stroke:none;stroke-width:0.26458332px;stroke-linecap:butt;stroke-linejoin:miter;stroke-opacity:1" />
    <path
       style="fill:#ffffff;fill-opacity:1;stroke:none;stroke-width:0.26458332px;stroke-linecap:butt;stroke-linejoin:miter;stroke-opacity:1"
       d="m 162.62138,336.92041 8.61334,6.25796 -3.29001,-10.1256 8.61335,-6.25795 h -10.64668 l -3.28997,-10.12559 -3.29002,10.12559 h -10.64668 l 8.61336,6.25796 -3.29002,10.12559 z"
       id="path942"
       inkscape:connector-curvature="0"
       sodipodi:nodetypes="ccccccccccc" />
    <path
       style="fill:#ffffff;fill-opacity:1;stroke:none;stroke-width:0.26458332px;stroke-linecap:butt;stroke-linejoin:miter;stroke-opacity:1"
       d="m -78.679438,336.92041 8.61334,6.25796 -3.29001,-10.1256 8.61335,-6.25795 h -10.64668 l -3.28997,-10.12559 -3.29002,10.12559 h -10.64668 l 8.61336,6.25796 -3.29002,10.12559 z"
       id="path944"
       inkscape:connector-curvature="0"
       sodipodi:nodetypes="ccccccccccc" />
    <path
       sodipodi:nodetypes="ccccccccccc"
       inkscape:connector-curvature="0"
       id="path946"
       d="m 114.3612,336.92041 8.61334,6.25796 -3.29001,-10.1256 8.61335,-6.25795 H 117.6512 l -3.28997,-10.12559 -3.29002,10.12559 h -10.64668 l 8.61336,6.25796 -3.29002,10.12559 z"
       style="fill:#ffffff;fill-opacity:1;stroke:none;stroke-width:0.26458332px;stroke-linecap:butt;stroke-linejoin:miter;stroke-opacity:1" />
    <path
       style="fill:#ffffff;fill-opacity:1;stroke:none;stroke-width:0.26458332px;stroke-linecap:butt;stroke-linejoin:miter;stroke-opacity:1"
       d="m 66.101032,336.92041 8.61334,6.25796 -3.29001,-10.1256 8.61335,-6.25795 h -10.64668 l -3.28997,-10.12559 -3.29002,10.12559 h -10.64668 l 8.61336,6.25796 -3.29002,10.12559 z"
       id="path948"
       inkscape:connector-curvature="0"
       sodipodi:nodetypes="ccccccccccc" />
    <path
       style="fill:#ffffff;fill-opacity:1;stroke:none;stroke-width:0.26458332px;stroke-linecap:butt;stroke-linejoin:miter;stroke-opacity:1"
       d="m -6.28919,368.97569 8.6133398,6.25796 -3.29000975,-10.1256 8.61334975,-6.25795 H -2.99919 L -6.28916,348.72451 -9.5791799,358.8501 H -20.22586 l 8.61336,6.25796 -3.29002,10.12559 z"
       id="path950"
       inkscape:connector-curvature="0"
       sodipodi:nodetypes="ccccccccccc" />
    <path
       sodipodi:nodetypes="ccccccccccc"
       inkscape:connector-curvature="0"
       id="path952"
       d="m 186.75147,368.97569 8.61334,6.25796 -3.29001,-10.1256 8.61335,-6.25795 h -10.64668 l -3.28997,-10.12559 -3.29002,10.12559 H 172.8148 l 8.61336,6.25796 -3.29002,10.12559 z"
       style="fill:#ffffff;fill-opacity:1;stroke:none;stroke-width:0.26458332px;stroke-linecap:butt;stroke-linejoin:miter;stroke-opacity:1" />
    <path
       sodipodi:nodetypes="ccccccccccc"
       inkscape:connector-curvature="0"
       id="path954"
       d="m -54.549358,368.97569 8.61334,6.25796 -3.29001,-10.1256 8.61335,-6.25795 h -10.64668 l -3.28997,-10.12559 -3.29002,10.12559 h -10.64668 l 8.61336,6.25796 -3.29002,10.12559 z"
       style="fill:#ffffff;fill-opacity:1;stroke:none;stroke-width:0.26458332px;stroke-linecap:butt;stroke-linejoin:miter;stroke-opacity:1" />
    <path
       style="fill:#ffffff;fill-opacity:1;stroke:none;stroke-width:0.26458332px;stroke-linecap:butt;stroke-linejoin:miter;stroke-opacity:1"
       d="m 138.49129,368.97569 8.61334,6.25796 -3.29001,-10.1256 8.61335,-6.25795 h -10.64668 l -3.28997,-10.12559 -3.29002,10.12559 h -10.64668 l 8.61336,6.25796 -3.29002,10.12559 z"
       id="path956"
       inkscape:connector-curvature="0"
       sodipodi:nodetypes="ccccccccccc" />
    <path
       style="fill:#ffffff;fill-opacity:1;stroke:none;stroke-width:0.26458332px;stroke-linecap:butt;stroke-linejoin:miter;stroke-opacity:1"
       d="m 41.970978,368.97569 8.61334,6.25796 -3.29001,-10.1256 8.61335,-6.25795 h -10.64668 l -3.28997,-10.12559 -3.29002,10.12559 h -10.64668 l 8.61336,6.25796 -3.29002,10.12559 z"
       id="path960"
       inkscape:connector-curvature="0"
       sodipodi:nodetypes="ccccccccccc" />
    <path
       sodipodi:nodetypes="ccccccccccc"
       inkscape:connector-curvature="0"
       id="path962"
       d="m -78.679438,401.03096 8.61334,6.25796 -3.29001,-10.1256 8.61335,-6.25795 h -10.64668 l -3.28997,-10.12559 -3.29002,10.12559 h -10.64668 l 8.61336,6.25796 -3.29002,10.12559 z"
       style="fill:#ffffff;fill-opacity:1;stroke:none;stroke-width:0.26458332px;stroke-linecap:butt;stroke-linejoin:miter;stroke-opacity:1" />
    <path
       style="fill:#ffffff;fill-opacity:1;stroke:none;stroke-width:0.26458332px;stroke-linecap:butt;stroke-linejoin:miter;stroke-opacity:1"
       d="m -78.679438,465.14157 8.61334,6.25796 -3.29001,-10.1256 8.61335,-6.25795 h -10.64668 l -3.28997,-10.12559 -3.29002,10.12559 h -10.64668 l 8.61336,6.25796 -3.29002,10.12559 z"
       id="path964"
       inkscape:connector-curvature="0"
       sodipodi:nodetypes="ccccccccccc" />
    <path
       style="fill:#ffffff;fill-opacity:1;stroke:none;stroke-width:0.26458332px;stroke-linecap:butt;stroke-linejoin:miter;stroke-opacity:1"
       d="m -54.549358,433.08629 8.61334,6.25796 -3.29001,-10.1256 8.61335,-6.25795 h -10.64668 l -3.28997,-10.12559 -3.29002,10.12559 h -10.64668 l 8.61336,6.25796 -3.29002,10.12559 z"
       id="path966"
       inkscape:connector-curvature="0"
       sodipodi:nodetypes="ccccccccccc" />
    <path
       sodipodi:nodetypes="ccccccccccc"
       inkscape:connector-curvature="0"
       id="path968"
       d="m -54.549358,497.19684 8.61334,6.25796 -3.29001,-10.1256 8.61335,-6.25795 h -10.64668 l -3.28997,-10.12559 -3.29002,10.12559 h -10.64668 l 8.61336,6.25796 -3.29002,10.12559 z"
       style="fill:#ffffff;fill-opacity:1;stroke:none;stroke-width:0.26458332px;stroke-linecap:butt;stroke-linejoin:miter;stroke-opacity:1" />
    <path
       sodipodi:nodetypes="ccccccccccc"
       inkscape:connector-curvature="0"
       id="path970"
       d="m 17.84089,401.03096 8.61334,6.25796 -3.29001,-10.1256 8.61335,-6.25795 H 21.13089 L 17.84092,380.77978 14.5509,390.90537 H 3.9042201 l 8.6133599,6.25796 -3.2900199,10.12559 z"
       style="fill:#ffffff;fill-opacity:1;stroke:none;stroke-width:0.26458332px;stroke-linecap:butt;stroke-linejoin:miter;stroke-opacity:1" />
    <path
       style="fill:#ffffff;fill-opacity:1;stroke:none;stroke-width:0.26458332px;stroke-linecap:butt;stroke-linejoin:miter;stroke-opacity:1"
       d="m 210.88152,401.03096 8.61334,6.25796 -3.29001,-10.1256 8.61335,-6.25795 h -10.64668 l -3.28997,-10.12559 -3.29002,10.12559 h -10.64668 l 8.61336,6.25796 -3.29002,10.12559 z"
       id="path972"
       inkscape:connector-curvature="0"
       sodipodi:nodetypes="ccccccccccc" />
    <path
       style="fill:#ffffff;fill-opacity:1;stroke:none;stroke-width:0.26458332px;stroke-linecap:butt;stroke-linejoin:miter;stroke-opacity:1"
       d="m -30.41927,401.03096 8.61334,6.25796 -3.29001,-10.1256 8.61335,-6.25795 h -10.64668 l -3.28997,-10.12559 -3.29002,10.12559 h -10.64668 l 8.61336,6.25796 -3.29002,10.12559 z"
       id="path974"
       inkscape:connector-curvature="0"
       sodipodi:nodetypes="ccccccccccc" />
    <path
       sodipodi:nodetypes="ccccccccccc"
       inkscape:connector-curvature="0"
       id="path976"
       d="m 162.62138,401.03096 8.61334,6.25796 -3.29001,-10.1256 8.61335,-6.25795 h -10.64668 l -3.28997,-10.12559 -3.29002,10.12559 h -10.64668 l 8.61336,6.25796 -3.29002,10.12559 z"
       style="fill:#ffffff;fill-opacity:1;stroke:none;stroke-width:0.26458332px;stroke-linecap:butt;stroke-linejoin:miter;stroke-opacity:1" />
    <path
       style="fill:#ffffff;fill-opacity:1;stroke:none;stroke-width:0.26458332px;stroke-linecap:butt;stroke-linejoin:miter;stroke-opacity:1"
       d="m 114.3612,401.03096 8.61334,6.25796 -3.29001,-10.1256 8.61335,-6.25795 H 117.6512 l -3.28997,-10.12559 -3.29002,10.12559 h -10.64668 l 8.61336,6.25796 -3.29002,10.12559 z"
       id="path978"
       inkscape:connector-curvature="0"
       sodipodi:nodetypes="ccccccccccc" />
    <path
       sodipodi:nodetypes="ccccccccccc"
       inkscape:connector-curvature="0"
       id="path980"
       d="m 66.101032,401.03096 8.61334,6.25796 -3.29001,-10.1256 8.61335,-6.25795 h -10.64668 l -3.28997,-10.12559 -3.29002,10.12559 h -10.64668 l 8.61336,6.25796 -3.29002,10.12559 z"
       style="fill:#ffffff;fill-opacity:1;stroke:none;stroke-width:0.26458332px;stroke-linecap:butt;stroke-linejoin:miter;stroke-opacity:1" />
    <path
       style="fill:#ffffff;fill-opacity:1;stroke:none;stroke-width:0.26458332px;stroke-linecap:butt;stroke-linejoin:miter;stroke-opacity:1"
       d="m 17.84089,465.14157 8.61334,6.25796 -3.29001,-10.1256 8.61335,-6.25795 H 21.13089 L 17.84092,444.89039 14.5509,455.01598 H 3.9042201 l 8.6133599,6.25796 -3.2900199,10.12559 z"
       id="path982"
       inkscape:connector-curvature="0"
       sodipodi:nodetypes="ccccccccccc" />
    <path
       sodipodi:nodetypes="ccccccccccc"
       inkscape:connector-curvature="0"
       id="path984"
       d="m 210.88152,465.14157 8.61334,6.25796 -3.29001,-10.1256 8.61335,-6.25795 h -10.64668 l -3.28997,-10.12559 -3.29002,10.12559 h -10.64668 l 8.61336,6.25796 -3.29002,10.12559 z"
       style="fill:#ffffff;fill-opacity:1;stroke:none;stroke-width:0.26458332px;stroke-linecap:butt;stroke-linejoin:miter;stroke-opacity:1" />
    <path
       sodipodi:nodetypes="ccccccccccc"
       inkscape:connector-curvature="0"
       id="path986"
       d="m -30.41927,465.14157 8.61334,6.25796 -3.29001,-10.1256 8.61335,-6.25795 h -10.64668 l -3.28997,-10.12559 -3.29002,10.12559 h -10.64668 l 8.61336,6.25796 -3.29002,10.12559 z"
       style="fill:#ffffff;fill-opacity:1;stroke:none;stroke-width:0.26458332px;stroke-linecap:butt;stroke-linejoin:miter;stroke-opacity:1" />
    <path
       style="fill:#ffffff;fill-opacity:1;stroke:none;stroke-width:0.26458332px;stroke-linecap:butt;stroke-linejoin:miter;stroke-opacity:1"
       d="m 162.62138,465.14157 8.61334,6.25796 -3.29001,-10.1256 8.61335,-6.25795 h -10.64668 l -3.28997,-10.12559 -3.29002,10.12559 h -10.64668 l 8.61336,6.25796 -3.29002,10.12559 z"
       id="path988"
       inkscape:connector-curvature="0"
       sodipodi:nodetypes="ccccccccccc" />
    <path
       sodipodi:nodetypes="ccccccccccc"
       inkscape:connector-curvature="0"
       id="path990"
       d="m 114.3612,465.14157 8.61334,6.25796 -3.29001,-10.1256 8.61335,-6.25795 H 117.6512 l -3.28997,-10.12559 -3.29002,10.12559 h -10.64668 l 8.61336,6.25796 -3.29002,10.12559 z"
       style="fill:#ffffff;fill-opacity:1;stroke:none;stroke-width:0.26458332px;stroke-linecap:butt;stroke-linejoin:miter;stroke-opacity:1" />
    <path
       style="fill:#ffffff;fill-opacity:1;stroke:none;stroke-width:0.26458332px;stroke-linecap:butt;stroke-linejoin:miter;stroke-opacity:1"
       d="m 66.101032,465.14157 8.61334,6.25796 -3.29001,-10.1256 8.61335,-6.25795 h -10.64668 l -3.28997,-10.12559 -3.29002,10.12559 h -10.64668 l 8.61336,6.25796 -3.29002,10.12559 z"
       id="path992"
       inkscape:connector-curvature="0"
       sodipodi:nodetypes="ccccccccccc" />
    <path
       sodipodi:nodetypes="ccccccccccc"
       inkscape:connector-curvature="0"
       id="path994"
       d="m 17.84089,529.25214 8.61334,6.25796 -3.29001,-10.1256 8.61335,-6.25795 H 21.13089 L 17.84092,509.00096 14.5509,519.12655 H 3.9042201 l 8.6133599,6.25796 -3.2900199,10.12559 z"
       style="fill:#ffffff;fill-opacity:1;stroke:none;stroke-width:0.26458332px;stroke-linecap:butt;stroke-linejoin:miter;stroke-opacity:1" />
    <path
       style="fill:#ffffff;fill-opacity:1;stroke:none;stroke-width:0.26458332px;stroke-linecap:butt;stroke-linejoin:miter;stroke-opacity:1"
       d="m 210.88152,529.25214 8.61334,6.25796 -3.29001,-10.1256 8.61335,-6.25795 h -10.64668 l -3.28997,-10.12559 -3.29002,10.12559 h -10.64668 l 8.61336,6.25796 -3.29002,10.12559 z"
       id="path996"
       inkscape:connector-curvature="0"
       sodipodi:nodetypes="ccccccccccc" />
    <path
       style="fill:#ffffff;fill-opacity:1;stroke:none;stroke-width:0.26458332px;stroke-linecap:butt;stroke-linejoin:miter;stroke-opacity:1"
       d="m -30.41927,529.25214 8.61334,6.25796 -3.29001,-10.1256 8.61335,-6.25795 h -10.64668 l -3.28997,-10.12559 -3.29002,10.12559 h -10.64668 l 8.61336,6.25796 -3.29002,10.12559 z"
       id="path998"
       inkscape:connector-curvature="0"
       sodipodi:nodetypes="ccccccccccc" />
    <path
       sodipodi:nodetypes="ccccccccccc"
       inkscape:connector-curvature="0"
       id="path1000"
       d="m 162.62138,529.25214 8.61334,6.25796 -3.29001,-10.1256 8.61335,-6.25795 h -10.64668 l -3.28997,-10.12559 -3.29002,10.12559 h -10.64668 l 8.61336,6.25796 -3.29002,10.12559 z"
       style="fill:#ffffff;fill-opacity:1;stroke:none;stroke-width:0.26458332px;stroke-linecap:butt;stroke-linejoin:miter;stroke-opacity:1" />
    <path
       style="fill:#ffffff;fill-opacity:1;stroke:none;stroke-width:0.26458332px;stroke-linecap:butt;stroke-linejoin:miter;stroke-opacity:1"
       d="m 114.3612,529.25214 8.61334,6.25796 -3.29001,-10.1256 8.61335,-6.25795 H 117.6512 l -3.28997,-10.12559 -3.29002,10.12559 h -10.64668 l 8.61336,6.25796 -3.29002,10.12559 z"
       id="path1002"
       inkscape:connector-curvature="0"
       sodipodi:nodetypes="ccccccccccc" />
    <path
       sodipodi:nodetypes="ccccccccccc"
       inkscape:connector-curvature="0"
       id="path1004"
       d="m 66.101032,529.25214 8.61334,6.25796 -3.29001,-10.1256 8.61335,-6.25795 h -10.64668 l -3.28997,-10.12559 -3.29002,10.12559 h -10.64668 l 8.61336,6.25796 -3.29002,10.12559 z"
       style="fill:#ffffff;fill-opacity:1;stroke:none;stroke-width:0.26458332px;stroke-linecap:butt;stroke-linejoin:miter;stroke-opacity:1" />
    <path
       style="fill:#ffffff;fill-opacity:1;stroke:none;stroke-width:0.26458332px;stroke-linecap:butt;stroke-linejoin:miter;stroke-opacity:1"
       d="m 90.23113,433.08629 8.61334,6.25796 -3.29001,-10.1256 8.61335,-6.25795 H 93.52113 L 90.23116,412.83511 86.94114,422.9607 H 76.29446 l 8.61336,6.25796 -3.29002,10.12559 z"
       id="path1006"
       inkscape:connector-curvature="0"
       sodipodi:nodetypes="ccccccccccc" />
    <path
       sodipodi:nodetypes="ccccccccccc"
       inkscape:connector-curvature="0"
       id="path1008"
       d="m 235.01161,433.08629 8.61334,6.25796 -3.29001,-10.1256 8.61335,-6.25795 h -10.64668 l -3.28997,-10.12559 -3.29002,10.12559 h -10.64668 l 8.61336,6.25796 -3.29002,10.12559 z"
       style="fill:#ffffff;fill-opacity:1;stroke:none;stroke-width:0.26458332px;stroke-linecap:butt;stroke-linejoin:miter;stroke-opacity:1" />
    <path
       sodipodi:nodetypes="ccccccccccc"
       inkscape:connector-curvature="0"
       id="path1010"
       d="m -6.28919,433.08629 8.6133398,6.25796 -3.29000975,-10.1256 8.61334975,-6.25795 H -2.99919 L -6.28916,412.83511 -9.5791799,422.9607 H -20.22586 l 8.61336,6.25796 -3.29002,10.12559 z"
       style="fill:#ffffff;fill-opacity:1;stroke:none;stroke-width:0.26458332px;stroke-linecap:butt;stroke-linejoin:miter;stroke-opacity:1" />
    <path
       style="fill:#ffffff;fill-opacity:1;stroke:none;stroke-width:0.26458332px;stroke-linecap:butt;stroke-linejoin:miter;stroke-opacity:1"
       d="m 186.75147,433.08629 8.61334,6.25796 -3.29001,-10.1256 8.61335,-6.25795 h -10.64668 l -3.28997,-10.12559 -3.29002,10.12559 H 172.8148 l 8.61336,6.25796 -3.29002,10.12559 z"
       id="path1012"
       inkscape:connector-curvature="0"
       sodipodi:nodetypes="ccccccccccc" />
    <path
       sodipodi:nodetypes="ccccccccccc"
       inkscape:connector-curvature="0"
       id="path1014"
       d="m 138.49129,433.08629 8.61334,6.25796 -3.29001,-10.1256 8.61335,-6.25795 h -10.64668 l -3.28997,-10.12559 -3.29002,10.12559 h -10.64668 l 8.61336,6.25796 -3.29002,10.12559 z"
       style="fill:#ffffff;fill-opacity:1;stroke:none;stroke-width:0.26458332px;stroke-linecap:butt;stroke-linejoin:miter;stroke-opacity:1" />
    <path
       sodipodi:nodetypes="ccccccccccc"
       inkscape:connector-curvature="0"
       id="path1016"
       d="m 41.970978,433.08629 8.61334,6.25796 -3.29001,-10.1256 8.61335,-6.25795 h -10.64668 l -3.28997,-10.12559 -3.29002,10.12559 h -10.64668 l 8.61336,6.25796 -3.29002,10.12559 z"
       style="fill:#ffffff;fill-opacity:1;stroke:none;stroke-width:0.26458332px;stroke-linecap:butt;stroke-linejoin:miter;stroke-opacity:1" />
    <path
       sodipodi:nodetypes="ccccccccccc"
       inkscape:connector-curvature="0"
       id="path1018"
       d="m 90.23113,497.19684 8.61334,6.25796 -3.29001,-10.1256 8.61335,-6.25795 H 93.52113 l -3.28997,-10.12559 -3.29002,10.12559 H 76.29446 l 8.61336,6.25796 -3.29002,10.12559 z"
       style="fill:#ffffff;fill-opacity:1;stroke:none;stroke-width:0.26458332px;stroke-linecap:butt;stroke-linejoin:miter;stroke-opacity:1" />
    <path
       style="fill:#ffffff;fill-opacity:1;stroke:none;stroke-width:0.26458332px;stroke-linecap:butt;stroke-linejoin:miter;stroke-opacity:1"
       d="m 235.01161,497.19684 8.61334,6.25796 -3.29001,-10.1256 8.61335,-6.25795 h -10.64668 l -3.28997,-10.12559 -3.29002,10.12559 h -10.64668 l 8.61336,6.25796 -3.29002,10.12559 z"
       id="path1020"
       inkscape:connector-curvature="0"
       sodipodi:nodetypes="ccccccccccc" />
    <path
       style="fill:#ffffff;fill-opacity:1;stroke:none;stroke-width:0.26458332px;stroke-linecap:butt;stroke-linejoin:miter;stroke-opacity:1"
       d="m -6.28919,497.19684 8.6133398,6.25796 -3.29000975,-10.1256 8.61334975,-6.25795 H -2.99919 l -3.28997,-10.12559 -3.2900199,10.12559 H -20.22586 l 8.61336,6.25796 -3.29002,10.12559 z"
       id="path1022"
       inkscape:connector-curvature="0"
       sodipodi:nodetypes="ccccccccccc" />
    <path
       sodipodi:nodetypes="ccccccccccc"
       inkscape:connector-curvature="0"
       id="path1024"
       d="m 186.75147,497.19684 8.61334,6.25796 -3.29001,-10.1256 8.61335,-6.25795 h -10.64668 l -3.28997,-10.12559 -3.29002,10.12559 H 172.8148 l 8.61336,6.25796 -3.29002,10.12559 z"
       style="fill:#ffffff;fill-opacity:1;stroke:none;stroke-width:0.26458332px;stroke-linecap:butt;stroke-linejoin:miter;stroke-opacity:1" />
    <path
       style="fill:#ffffff;fill-opacity:1;stroke:none;stroke-width:0.26458332px;stroke-linecap:butt;stroke-linejoin:miter;stroke-opacity:1"
       d="m 138.49129,497.19684 8.61334,6.25796 -3.29001,-10.1256 8.61335,-6.25795 h -10.64668 l -3.28997,-10.12559 -3.29002,10.12559 h -10.64668 l 8.61336,6.25796 -3.29002,10.12559 z"
       id="path1026"
       inkscape:connector-curvature="0"
       sodipodi:nodetypes="ccccccccccc" />
    <path
       style="fill:#ffffff;fill-opacity:1;stroke:none;stroke-width:0.26458332px;stroke-linecap:butt;stroke-linejoin:miter;stroke-opacity:1"
       d="m 41.970978,497.19684 8.61334,6.25796 -3.29001,-10.1256 8.61335,-6.25795 h -10.64668 l -3.28997,-10.12559 -3.29002,10.12559 h -10.64668 l 8.61336,6.25796 -3.29002,10.12559 z"
       id="path1028"
       inkscape:connector-curvature="0"
       sodipodi:nodetypes="ccccccccccc" />
  </g>
</svg>
