<?xml version="1.0" encoding="UTF-8" standalone="no"?>
<!-- Created with Inkscape (http://www.inkscape.org/) -->

<svg
   xmlns:dc="http://purl.org/dc/elements/1.1/"
   xmlns:cc="http://creativecommons.org/ns#"
   xmlns:rdf="http://www.w3.org/1999/02/22-rdf-syntax-ns#"
   xmlns:svg="http://www.w3.org/2000/svg"
   xmlns="http://www.w3.org/2000/svg"
   xmlns:sodipodi="http://sodipodi.sourceforge.net/DTD/sodipodi-0.dtd"
   xmlns:inkscape="http://www.inkscape.org/namespaces/inkscape"
   width="3012.0093"
   height="1800.0002"
   viewBox="0 0 796.92745 476.25007"
   version="1.1"
   id="svg8"
   inkscape:export-filename="C:\Users\厂永刄先生\Documents\GXI3CW2\poM̕écèŭ\M̕é\1795.png"
   inkscape:export-xdpi="95.999702"
   inkscape:export-ydpi="95.999702"
   inkscape:version="0.92.4 (5da689c313, 2019-01-14)"
   sodipodi:docname="1795.svg">
  <defs
     id="defs2" />
  <sodipodi:namedview
     id="base"
     pagecolor="#ffffff"
     bordercolor="#666666"
     borderopacity="1.0"
     inkscape:pageopacity="0.0"
     inkscape:pageshadow="2"
     inkscape:zoom="0.29614783"
     inkscape:cx="1506.0046"
     inkscape:cy="900.00013"
     inkscape:document-units="px"
     inkscape:current-layer="layer1"
     showgrid="false"
     units="px"
     fit-margin-top="0"
     fit-margin-left="0"
     fit-margin-right="0"
     fit-margin-bottom="0"
     inkscape:showpageshadow="false"
     inkscape:snap-intersection-paths="false"
     inkscape:object-paths="false"
     inkscape:pagecheckerboard="true"
     inkscape:snap-smooth-nodes="false"
     inkscape:window-width="1366"
     inkscape:window-height="745"
     inkscape:window-x="-8"
     inkscape:window-y="-8"
     inkscape:window-maximized="1"
     inkscape:object-nodes="true"
     inkscape:snap-nodes="true"
     showguides="false" />
  <metadata
     id="metadata5">
    <rdf:RDF>
      <cc:Work
         rdf:about="">
        <dc:format>image/svg+xml</dc:format>
        <dc:type
           rdf:resource="http://purl.org/dc/dcmitype/StillImage" />
        <dc:title></dc:title>
      </cc:Work>
    </rdf:RDF>
  </metadata>
  <g
     inkscape:label="レイヤー 1"
     inkscape:groupmode="layer"
     id="layer1"
     transform="translate(112.33452,-299.2678)">
    <path
       sodipodi:nodetypes="ccccc"
       inkscape:connector-curvature="0"
       id="path868"
       d="M 259.14169,553.26783 V 299.2678 l -361.95121,1.2e-4 v 253.99991 z"
       style="fill:#0a3161;fill-opacity:1;stroke:none;stroke-width:2.24875164px;stroke-linecap:butt;stroke-linejoin:miter;stroke-opacity:1" />
    <path
       style="fill:#ffffff;fill-opacity:1;stroke:none;stroke-width:0.51166773px;stroke-linecap:butt;stroke-linejoin:miter;stroke-opacity:1"
       d="m -102.80952,299.26786 h -9.525 v 476.25 h 9.525 z"
       id="path1079"
       inkscape:connector-curvature="0"
       sodipodi:nodetypes="ccccc" />
    <path
       sodipodi:nodetypes="ccccc"
       inkscape:connector-curvature="0"
       id="path824"
       d="m -102.80952,680.26785 v 31.75 h 787.40245 v -31.75 z"
       style="fill:#b31942;fill-opacity:1;stroke:none;stroke-width:2.28030705px;stroke-linecap:butt;stroke-linejoin:miter;stroke-opacity:1" />
    <path
       style="fill:#b31942;fill-opacity:1;stroke:none;stroke-width:2.28030705px;stroke-linecap:butt;stroke-linejoin:miter;stroke-opacity:1"
       d="m -102.80952,616.76786 v 31.75 h 787.40245 v -31.75 z"
       id="path830"
       inkscape:connector-curvature="0"
       sodipodi:nodetypes="ccccc" />
    <path
       sodipodi:nodetypes="ccccc"
       inkscape:connector-curvature="0"
       id="path834"
       d="m -102.80952,553.26783 v 31.75001 h 787.40245 v -31.75001 z"
       style="fill:#b31942;fill-opacity:1;stroke:none;stroke-width:2.28030705px;stroke-linecap:butt;stroke-linejoin:miter;stroke-opacity:1" />
    <path
       style="fill:#b31942;fill-opacity:1;stroke:none;stroke-width:2.28030705px;stroke-linecap:butt;stroke-linejoin:miter;stroke-opacity:1"
       d="m 259.14169,489.76782 v 31.75001 h 425.45124 v -31.75001 z"
       id="path838"
       inkscape:connector-curvature="0"
       sodipodi:nodetypes="ccccc" />
    <path
       sodipodi:nodetypes="ccccc"
       inkscape:connector-curvature="0"
       id="path842"
       d="m 259.14169,426.26784 v 31.75001 h 425.45124 v -31.75001 z"
       style="fill:#b31942;fill-opacity:1;stroke:none;stroke-width:2.28030705px;stroke-linecap:butt;stroke-linejoin:miter;stroke-opacity:1" />
    <path
       sodipodi:nodetypes="ccccc"
       inkscape:connector-curvature="0"
       id="path846"
       d="m 259.14169,362.76781 v 31.75 h 425.45124 v -31.75 z"
       style="fill:#b31942;fill-opacity:1;stroke:none;stroke-width:2.28030705px;stroke-linecap:butt;stroke-linejoin:miter;stroke-opacity:1" />
    <path
       style="fill:#b31942;fill-opacity:1;stroke:none;stroke-width:2.28030705px;stroke-linecap:butt;stroke-linejoin:miter;stroke-opacity:1"
       d="m 259.14169,299.2678 v 31.75 h 425.45124 v -31.75 z"
       id="path850"
       inkscape:connector-curvature="0"
       sodipodi:nodetypes="ccccc" />
    <path
       style="fill:#b31942;fill-opacity:1;stroke:none;stroke-width:2.28030705px;stroke-linecap:butt;stroke-linejoin:miter;stroke-opacity:1"
       d="m -102.80952,743.76786 v 31.75 h 787.40245 v -31.75 z"
       id="path880"
       inkscape:connector-curvature="0"
       sodipodi:nodetypes="ccccc" />
    <path
       style="fill:#ffffff;fill-opacity:1;stroke:none;stroke-width:2.28030705px;stroke-linecap:butt;stroke-linejoin:miter;stroke-opacity:1"
       d="m -102.80952,712.01786 v 31.75 h 787.40245 v -31.75 z"
       id="path882"
       inkscape:connector-curvature="0"
       sodipodi:nodetypes="ccccc" />
    <path
       sodipodi:nodetypes="ccccc"
       inkscape:connector-curvature="0"
       id="path884"
       d="m -102.80952,648.51784 v 31.75 h 787.40245 v -31.75 z"
       style="fill:#ffffff;fill-opacity:1;stroke:none;stroke-width:2.28030705px;stroke-linecap:butt;stroke-linejoin:miter;stroke-opacity:1" />
    <path
       style="fill:#ffffff;fill-opacity:1;stroke:none;stroke-width:2.28030705px;stroke-linecap:butt;stroke-linejoin:miter;stroke-opacity:1"
       d="m -102.80952,585.01785 v 31.75001 h 787.40245 v -31.75001 z"
       id="path886"
       inkscape:connector-curvature="0"
       sodipodi:nodetypes="ccccc" />
    <path
       sodipodi:nodetypes="ccccc"
       inkscape:connector-curvature="0"
       id="path888"
       d="m 259.14169,521.51782 v 31.75001 h 425.45124 v -31.75001 z"
       style="fill:#ffffff;fill-opacity:1;stroke:none;stroke-width:2.28030705px;stroke-linecap:butt;stroke-linejoin:miter;stroke-opacity:1" />
    <path
       style="fill:#ffffff;fill-opacity:1;stroke:none;stroke-width:2.28030705px;stroke-linecap:butt;stroke-linejoin:miter;stroke-opacity:1"
       d="m 259.14169,458.01784 v 31.75001 h 425.45124 v -31.75001 z"
       id="path890"
       inkscape:connector-curvature="0"
       sodipodi:nodetypes="ccccc" />
    <path
       style="fill:#ffffff;fill-opacity:1;stroke:none;stroke-width:2.28030705px;stroke-linecap:butt;stroke-linejoin:miter;stroke-opacity:1"
       d="m 259.14169,394.51784 v 31.75 h 425.45124 v -31.75 z"
       id="path892"
       inkscape:connector-curvature="0"
       sodipodi:nodetypes="ccccc" />
    <path
       sodipodi:nodetypes="ccccc"
       inkscape:connector-curvature="0"
       id="path894"
       d="m 259.14169,331.0178 v 31.75 h 425.45124 v -31.75 z"
       style="fill:#ffffff;fill-opacity:1;stroke:none;stroke-width:2.28030705px;stroke-linecap:butt;stroke-linejoin:miter;stroke-opacity:1" />
    <path
       style="fill:#ffffff;fill-opacity:1;stroke:none;stroke-width:0.26458332px;stroke-linecap:butt;stroke-linejoin:miter;stroke-opacity:1"
       d="m -56.699513,341.60128 -6.25796,-8.61335 10.1256,3.29001 6.25795,-8.61335 v 10.64668 l 10.12559,3.28998 -10.12559,3.29002 v 10.64667 l -6.25797,-8.61335 -10.12558,3.29001 z"
       id="path929"
       inkscape:connector-curvature="0"
       sodipodi:nodetypes="ccccccccccc" />
    <path
       sodipodi:nodetypes="ccccccccccc"
       inkscape:connector-curvature="0"
       id="path984"
       d="m 6.202376,383.93456 6.25796,-8.61335 -10.1256,3.29001 -6.25795,-8.61335 v 10.64668 l -10.12559,3.28998 10.12559,3.29002 v 10.64667 l 6.25797,-8.61335 10.12558,3.29001 z"
       style="fill:#ffffff;fill-opacity:1;stroke:none;stroke-width:0.26458332px;stroke-linecap:butt;stroke-linejoin:miter;stroke-opacity:1" />
    <path
       style="fill:#ffffff;fill-opacity:1;stroke:none;stroke-width:0.26458332px;stroke-linecap:butt;stroke-linejoin:miter;stroke-opacity:1"
       d="m 46.715103,426.26788 -6.25796,-8.61335 10.1256,3.29001 6.25795,-8.61335 v 10.64668 l 10.12559,3.28998 -10.12559,3.29002 v 10.64667 l -6.25797,-8.61335 -10.12558,3.29001 z"
       id="path986"
       inkscape:connector-curvature="0"
       sodipodi:nodetypes="ccccccccccc" />
    <path
       sodipodi:nodetypes="ccccccccccc"
       inkscape:connector-curvature="0"
       id="path988"
       d="m 109.617,468.60121 6.25796,-8.61335 -10.1256,3.29001 -6.257949,-8.61335 v 10.64668 l -10.12559,3.28998 10.12559,3.29002 v 10.64667 l 6.257969,-8.61335 10.12558,3.29001 z"
       style="fill:#ffffff;fill-opacity:1;stroke:none;stroke-width:0.26458332px;stroke-linecap:butt;stroke-linejoin:miter;stroke-opacity:1" />
    <path
       style="fill:#ffffff;fill-opacity:1;stroke:none;stroke-width:0.26458332px;stroke-linecap:butt;stroke-linejoin:miter;stroke-opacity:1"
       d="m 150.12973,510.93454 -6.25796,-8.61335 10.1256,3.29001 6.25795,-8.61335 v 10.64668 l 10.12559,3.28998 -10.12559,3.29002 v 10.64667 l -6.25797,-8.61335 -10.12558,3.29001 z"
       id="path990"
       inkscape:connector-curvature="0"
       sodipodi:nodetypes="ccccccccccc" />
    <path
       sodipodi:nodetypes="ccccccccccc"
       inkscape:connector-curvature="0"
       id="path992"
       d="m 213.03162,468.60122 6.25796,-8.61335 -10.1256,3.29001 -6.25795,-8.61335 v 10.64668 l -10.12559,3.28998 10.12559,3.29002 v 10.64667 l 6.25797,-8.61335 10.12558,3.29001 z"
       style="fill:#ffffff;fill-opacity:1;stroke:none;stroke-width:0.26458332px;stroke-linecap:butt;stroke-linejoin:miter;stroke-opacity:1" />
    <path
       style="fill:#ffffff;fill-opacity:1;stroke:none;stroke-width:0.26458332px;stroke-linecap:butt;stroke-linejoin:miter;stroke-opacity:1"
       d="m 213.03163,383.93457 6.25796,-8.61335 -10.1256,3.29001 -6.25795,-8.61335 v 10.64668 l -10.12559,3.28998 10.12559,3.29002 v 10.64667 l 6.25797,-8.61335 10.12558,3.29001 z"
       id="path994"
       inkscape:connector-curvature="0"
       sodipodi:nodetypes="ccccccccccc" />
    <path
       sodipodi:nodetypes="ccccccccccc"
       inkscape:connector-curvature="0"
       id="path1002"
       d="m 46.715103,341.60128 -6.25796,-8.61335 10.1256,3.29001 6.25795,-8.61335 v 10.64668 l 10.12559,3.28998 -10.12559,3.29002 v 10.64667 l -6.25797,-8.61335 -10.12558,3.29001 z"
       style="fill:#ffffff;fill-opacity:1;stroke:none;stroke-width:0.26458332px;stroke-linecap:butt;stroke-linejoin:miter;stroke-opacity:1" />
    <path
       sodipodi:nodetypes="ccccccccccc"
       inkscape:connector-curvature="0"
       id="path1004"
       d="m 150.12973,341.60128 -6.25796,-8.61335 10.1256,3.29001 6.25795,-8.61335 v 10.64668 l 10.12559,3.28998 -10.12559,3.29002 v 10.64667 l -6.25797,-8.61335 -10.12558,3.29001 z"
       style="fill:#ffffff;fill-opacity:1;stroke:none;stroke-width:0.26458332px;stroke-linecap:butt;stroke-linejoin:miter;stroke-opacity:1" />
    <path
       sodipodi:nodetypes="ccccccccccc"
       inkscape:connector-curvature="0"
       id="path1006"
       d="m -56.699513,426.26788 -6.25796,-8.61335 10.1256,3.29001 6.25795,-8.61335 v 10.64668 l 10.12559,3.28998 -10.12559,3.29002 v 10.64667 l -6.25797,-8.61335 -10.12558,3.29001 z"
       style="fill:#ffffff;fill-opacity:1;stroke:none;stroke-width:0.26458332px;stroke-linecap:butt;stroke-linejoin:miter;stroke-opacity:1" />
    <path
       style="fill:#ffffff;fill-opacity:1;stroke:none;stroke-width:0.26458332px;stroke-linecap:butt;stroke-linejoin:miter;stroke-opacity:1"
       d="m 150.12973,426.26788 -6.25796,-8.61335 10.1256,3.29001 6.25795,-8.61335 v 10.64668 l 10.12559,3.28998 -10.12559,3.29002 v 10.64667 l -6.25797,-8.61335 -10.12558,3.29001 z"
       id="path1008"
       inkscape:connector-curvature="0"
       sodipodi:nodetypes="ccccccccccc" />
    <path
       sodipodi:nodetypes="ccccccccccc"
       inkscape:connector-curvature="0"
       id="path1010"
       d="m 46.715103,510.93454 -6.25796,-8.61335 10.1256,3.29001 6.25795,-8.61335 v 10.64668 l 10.12559,3.28998 -10.12559,3.29002 v 10.64667 l -6.25797,-8.61335 -10.12558,3.29001 z"
       style="fill:#ffffff;fill-opacity:1;stroke:none;stroke-width:0.26458332px;stroke-linecap:butt;stroke-linejoin:miter;stroke-opacity:1" />
    <path
       style="fill:#ffffff;fill-opacity:1;stroke:none;stroke-width:0.26458332px;stroke-linecap:butt;stroke-linejoin:miter;stroke-opacity:1"
       d="m -56.699513,510.93454 -6.25796,-8.61335 10.1256,3.29001 6.25795,-8.61335 v 10.64668 l 10.12559,3.28998 -10.12559,3.29002 v 10.64667 l -6.25797,-8.61335 -10.12558,3.29001 z"
       id="path1012"
       inkscape:connector-curvature="0"
       sodipodi:nodetypes="ccccccccccc" />
    <path
       sodipodi:nodetypes="ccccccccccc"
       inkscape:connector-curvature="0"
       id="path1014"
       d="m 109.617,383.93457 6.25796,-8.61335 -10.1256,3.29001 -6.25795,-8.61335 v 10.64668 l -10.12559,3.28998 10.12559,3.29002 v 10.64667 l 6.25797,-8.61335 10.12558,3.29001 z"
       style="fill:#ffffff;fill-opacity:1;stroke:none;stroke-width:0.26458332px;stroke-linecap:butt;stroke-linejoin:miter;stroke-opacity:1" />
    <path
       style="fill:#ffffff;fill-opacity:1;stroke:none;stroke-width:0.26458332px;stroke-linecap:butt;stroke-linejoin:miter;stroke-opacity:1"
       d="m 6.2023755,468.60121 6.2579595,-8.61335 -10.1255995,3.29001 -6.257949,-8.61335 v 10.64668 l -10.1255905,3.28998 10.1255905,3.29002 v 10.64667 l 6.257969,-8.61335 10.1255795,3.29001 z"
       id="path1016"
       inkscape:connector-curvature="0"
       sodipodi:nodetypes="ccccccccccc" />
  </g>
</svg>
