<?xml version="1.0" encoding="UTF-8" standalone="no"?>
<!-- Created with Inkscape (http://www.inkscape.org/) -->

<svg
   width="12036"
   height="600"
   viewBox="0 0 3184.5253 158.75"
   version="1.1"
   id="svg8"
   inkscape:export-filename="C:\Users\drk22\Documents\GXI3CW2\JáÈŭcèŭ\Èŭmen\Fa\flamme2.png"
   inkscape:export-xdpi="96"
   inkscape:export-ydpi="96"
   inkscape:version="1.3 (0e150ed6c4, 2023-07-21)"
   sodipodi:docname="us_1794_000-001_pennant.svg"
   xmlns:inkscape="http://www.inkscape.org/namespaces/inkscape"
   xmlns:sodipodi="http://sodipodi.sourceforge.net/DTD/sodipodi-0.dtd"
   xmlns="http://www.w3.org/2000/svg"
   xmlns:svg="http://www.w3.org/2000/svg"
   xmlns:rdf="http://www.w3.org/1999/02/22-rdf-syntax-ns#"
   xmlns:cc="http://creativecommons.org/ns#"
   xmlns:dc="http://purl.org/dc/elements/1.1/">
  <defs
     id="defs2" />
  <sodipodi:namedview
     id="base"
     pagecolor="#ffffff"
     bordercolor="#666666"
     borderopacity="1.0"
     inkscape:pageopacity="0.0"
     inkscape:pageshadow="2"
     inkscape:zoom="0.24825524"
     inkscape:cx="815.69275"
     inkscape:cy="505.5281"
     inkscape:document-units="px"
     inkscape:current-layer="layer1"
     showgrid="false"
     units="px"
     fit-margin-top="0"
     fit-margin-left="0"
     fit-margin-right="0"
     fit-margin-bottom="0"
     inkscape:showpageshadow="false"
     inkscape:snap-intersection-paths="true"
     inkscape:object-paths="false"
     inkscape:pagecheckerboard="true"
     inkscape:snap-smooth-nodes="false"
     inkscape:window-width="1920"
     inkscape:window-height="1009"
     inkscape:window-x="-8"
     inkscape:window-y="-8"
     inkscape:window-maximized="1"
     inkscape:object-nodes="true"
     inkscape:snap-nodes="true"
     inkscape:deskcolor="#505050" />
  <metadata
     id="metadata5">
    <rdf:RDF>
      <cc:Work
         rdf:about="">
        <dc:format>image/svg+xml</dc:format>
        <dc:type
           rdf:resource="http://purl.org/dc/dcmitype/StillImage" />
      </cc:Work>
    </rdf:RDF>
  </metadata>
  <g
     inkscape:label="レイヤー 1"
     inkscape:groupmode="layer"
     id="layer1"
     transform="translate(112.33452,-531.94293)">
    <path
       sodipodi:nodetypes="ccccc"
       inkscape:connector-curvature="0"
       id="path834"
       d="m -102.80952,531.94293 v 158.75 L 940.74522,670.67921 V 551.95665 Z"
       style="fill:#0a3161;fill-opacity:1;stroke:none;stroke-width:0.28576px;stroke-linecap:butt;stroke-linejoin:miter;stroke-opacity:1" />
    <path
       sodipodi:nodetypes="ccccc"
       inkscape:connector-curvature="0"
       id="path1"
       d="m -112.33452,531.94293 v 158.75 h 9.525 v -158.75 z"
       style="fill:#ffffff;fill-opacity:1;stroke:none;stroke-width:0.0156517px;stroke-linecap:butt;stroke-linejoin:miter;stroke-opacity:1" />
    <path
       sodipodi:nodetypes="ccccc"
       inkscape:connector-curvature="0"
       id="path3"
       d="m 940.74522,551.95665 2131.44538,40.87772 -739.3423,18.48356 H 940.74522 Z"
       style="fill:#b31942;fill-opacity:1;stroke:none;stroke-width:0.28576px;stroke-linecap:butt;stroke-linejoin:miter;stroke-opacity:1" />
    <path
       sodipodi:nodetypes="ccccccccccc"
       inkscape:connector-curvature="0"
       id="path5"
       d="m 28.982095,600.28023 8.019346,-24.68105 8.019375,24.68105 h 25.951177 l -20.994951,15.25373 8.019351,24.68105 -20.994952,-15.25372 -20.994962,15.25372 8.01936,-24.68105 -20.9949524,-15.25373 z"
       style="fill:#ffffff;fill-opacity:1;stroke:none;stroke-width:0.0661457px;stroke-linecap:butt;stroke-linejoin:miter;stroke-opacity:1" />
    <path
       sodipodi:nodetypes="ccccccccccc"
       inkscape:connector-curvature="0"
       id="path5-9"
       d="m 105.37536,600.28023 8.01934,-24.68105 8.01939,24.68105 h 25.95118 l -20.99496,15.25373 8.01936,24.68105 -20.99497,-15.25372 -20.994954,15.25372 8.019364,-24.68105 -20.994944,-15.25373 z"
       style="fill:#ffffff;fill-opacity:1;stroke:none;stroke-width:0.0661457px;stroke-linecap:butt;stroke-linejoin:miter;stroke-opacity:1" />
    <path
       sodipodi:nodetypes="ccccccccccc"
       inkscape:connector-curvature="0"
       id="path5-4"
       d="m 258.16193,600.28023 8.01934,-24.68105 8.01938,24.68105 h 25.95118 l -20.99496,15.25373 8.01936,24.68105 -20.99496,-15.25373 -20.99496,15.25373 8.01936,-24.68105 -20.99495,-15.25373 z"
       style="fill:#ffffff;fill-opacity:1;stroke:none;stroke-width:0.0661457px;stroke-linecap:butt;stroke-linejoin:miter;stroke-opacity:1" />
    <path
       sodipodi:nodetypes="ccccccccccc"
       inkscape:connector-curvature="0"
       id="path5-9-3"
       d="m 410.9485,600.28023 8.01935,-24.68105 8.01937,24.68105 h 25.95118 l -20.99495,15.25373 8.01935,24.68105 -20.99495,-15.25373 -20.99496,15.25373 8.01936,-24.68105 -20.99496,-15.25373 z"
       style="fill:#ffffff;fill-opacity:1;stroke:none;stroke-width:0.0661457px;stroke-linecap:butt;stroke-linejoin:miter;stroke-opacity:1" />
    <path
       sodipodi:nodetypes="ccccccccccc"
       inkscape:connector-curvature="0"
       id="path5-6"
       d="m 563.73506,600.28023 8.01935,-24.68105 8.01937,24.68105 h 25.95118 l -20.99495,15.25373 8.01935,24.68105 -20.99495,-15.25372 -20.99496,15.25372 8.01936,-24.68105 -20.99496,-15.25373 z"
       style="fill:#ffffff;fill-opacity:1;stroke:none;stroke-width:0.0661457px;stroke-linecap:butt;stroke-linejoin:miter;stroke-opacity:1" />
    <path
       sodipodi:nodetypes="ccccccccccc"
       inkscape:connector-curvature="0"
       id="path5-4-0"
       d="m 716.52163,600.28023 8.01934,-24.68105 8.01938,24.68105 h 25.95118 l -20.99496,15.25373 8.01936,24.68105 -20.99496,-15.25373 -20.99496,15.25373 8.01936,-24.68105 -20.99495,-15.25373 z"
       style="fill:#ffffff;fill-opacity:1;stroke:none;stroke-width:0.0661457px;stroke-linecap:butt;stroke-linejoin:miter;stroke-opacity:1" />
    <path
       sodipodi:nodetypes="ccccc"
       inkscape:connector-curvature="0"
       id="path9"
       d="m 940.74522,670.67921 2131.44538,-40.87772 -739.3423,-18.48356 -1392.10308,0 z"
       style="fill:#ffffff;fill-opacity:1;stroke:none;stroke-width:0.28576px;stroke-linecap:butt;stroke-linejoin:miter;stroke-opacity:1" />
    <path
       sodipodi:nodetypes="ccccccccccc"
       inkscape:connector-curvature="0"
       id="path7"
       d="m 869.3082,600.28023 8.01934,-24.68105 8.01938,24.68105 h 25.95118 l -20.99496,15.25373 8.01936,24.68105 -20.99496,-15.25373 -20.99496,15.25373 8.01936,-24.68105 -20.99495,-15.25373 z"
       style="fill:#ffffff;fill-opacity:1;stroke:none;stroke-width:0.0661457px;stroke-linecap:butt;stroke-linejoin:miter;stroke-opacity:1" />
    <path
       sodipodi:nodetypes="ccccccccccc"
       inkscape:connector-curvature="0"
       id="path8"
       d="m 181.76865,600.28023 8.01934,-24.68105 8.01938,24.68105 h 25.95118 l -20.99496,15.25373 8.01936,24.68105 -20.99496,-15.25372 -20.99496,15.25372 8.01936,-24.68105 -20.99494,-15.25373 z"
       style="fill:#ffffff;fill-opacity:1;stroke:none;stroke-width:0.0661457px;stroke-linecap:butt;stroke-linejoin:miter;stroke-opacity:1" />
    <path
       sodipodi:nodetypes="ccccccccccc"
       inkscape:connector-curvature="0"
       id="path10"
       d="m 334.55521,600.28023 8.01934,-24.68105 8.01938,24.68105 h 25.95118 l -20.99496,15.25373 8.01936,24.68105 -20.99496,-15.25373 -20.99496,15.25373 8.01936,-24.68105 -20.99495,-15.25373 z"
       style="fill:#ffffff;fill-opacity:1;stroke:none;stroke-width:0.0661457px;stroke-linecap:butt;stroke-linejoin:miter;stroke-opacity:1" />
    <path
       sodipodi:nodetypes="ccccccccccc"
       inkscape:connector-curvature="0"
       id="path11"
       d="m 487.34178,600.28023 8.01935,-24.68105 8.01937,24.68105 h 25.95118 l -20.99495,15.25373 8.01935,24.68105 -20.99495,-15.25373 -20.99496,15.25373 8.01936,-24.68105 -20.99496,-15.25373 z"
       style="fill:#ffffff;fill-opacity:1;stroke:none;stroke-width:0.0661457px;stroke-linecap:butt;stroke-linejoin:miter;stroke-opacity:1" />
    <path
       sodipodi:nodetypes="ccccccccccc"
       inkscape:connector-curvature="0"
       id="path12"
       d="m 640.12835,600.28023 8.01935,-24.68105 8.01937,24.68105 h 25.95118 l -20.99495,15.25373 8.01935,24.68105 -20.99495,-15.25372 -20.99496,15.25372 8.01936,-24.68105 -20.99496,-15.25373 z"
       style="fill:#ffffff;fill-opacity:1;stroke:none;stroke-width:0.0661457px;stroke-linecap:butt;stroke-linejoin:miter;stroke-opacity:1" />
    <path
       sodipodi:nodetypes="ccccccccccc"
       inkscape:connector-curvature="0"
       id="path13"
       d="m 792.91491,600.28023 8.01934,-24.68105 8.01938,24.68105 h 25.95118 l -20.99496,15.25373 8.01936,24.68105 -20.99496,-15.25373 -20.99496,15.25373 8.01936,-24.68105 -20.99495,-15.25373 z"
       style="fill:#ffffff;fill-opacity:1;stroke:none;stroke-width:0.0661457px;stroke-linecap:butt;stroke-linejoin:miter;stroke-opacity:1" />
    <path
       sodipodi:nodetypes="ccccccccccc"
       inkscape:connector-curvature="0"
       id="path14"
       d="m -31.372497,600.28023 -8.01934,-24.68105 -8.01938,24.68105 h -25.95118 l 20.99496,15.25373 -8.01936,24.68105 20.99496,-15.25373 20.99496,15.25373 -8.01936,-24.68105 20.9949503,-15.25373 z"
       style="fill:#ffffff;fill-opacity:1;stroke:none;stroke-width:0.0661457px;stroke-linecap:butt;stroke-linejoin:miter;stroke-opacity:1" />
  </g>
</svg>
