<?xml version="1.0" encoding="UTF-8" standalone="no"?>
<!-- Created with Inkscape (http://www.inkscape.org/) -->

<svg
   width="3456.0115"
   height="1800.0002"
   viewBox="0 0 914.40303 476.25007"
   version="1.1"
   id="svg8"
   inkscape:export-filename="C:\Users\厂永刄先生\Documents\GXI3CW2\poM̕écèŭ\M̕é\11960年㋆㏣以來.png"
   inkscape:export-xdpi="96"
   inkscape:export-ydpi="96"
   inkscape:version="1.3 (0e150ed6c4, 2023-07-21)"
   sodipodi:docname="1836.svg"
   xmlns:inkscape="http://www.inkscape.org/namespaces/inkscape"
   xmlns:sodipodi="http://sodipodi.sourceforge.net/DTD/sodipodi-0.dtd"
   xmlns="http://www.w3.org/2000/svg"
   xmlns:svg="http://www.w3.org/2000/svg"
   xmlns:rdf="http://www.w3.org/1999/02/22-rdf-syntax-ns#"
   xmlns:cc="http://creativecommons.org/ns#"
   xmlns:dc="http://purl.org/dc/elements/1.1/">
  <defs
     id="defs2" />
  <sodipodi:namedview
     id="base"
     pagecolor="#ffffff"
     bordercolor="#666666"
     borderopacity="1.0"
     inkscape:pageopacity="0.0"
     inkscape:pageshadow="2"
     inkscape:zoom="0.52083824"
     inkscape:cx="477.11551"
     inkscape:cy="701.75339"
     inkscape:document-units="px"
     inkscape:current-layer="layer1"
     showgrid="false"
     units="px"
     fit-margin-top="0"
     fit-margin-left="0"
     fit-margin-right="0"
     fit-margin-bottom="0"
     inkscape:showpageshadow="false"
     inkscape:snap-intersection-paths="true"
     inkscape:object-paths="false"
     inkscape:pagecheckerboard="true"
     inkscape:snap-smooth-nodes="false"
     inkscape:window-width="1920"
     inkscape:window-height="1051"
     inkscape:window-x="-9"
     inkscape:window-y="-9"
     inkscape:window-maximized="1"
     inkscape:object-nodes="true"
     inkscape:snap-nodes="true"
     inkscape:deskcolor="#505050" />
  <metadata
     id="metadata5">
    <rdf:RDF>
      <cc:Work
         rdf:about="">
        <dc:format>image/svg+xml</dc:format>
        <dc:type
           rdf:resource="http://purl.org/dc/dcmitype/StillImage" />
      </cc:Work>
    </rdf:RDF>
  </metadata>
  <g
     inkscape:label="レイヤー 1"
     inkscape:groupmode="layer"
     id="layer1"
     transform="translate(112.33452,-299.2678)">
    <path
       sodipodi:nodetypes="ccccc"
       inkscape:connector-curvature="0"
       id="path868"
       d="M 259.1418,555.71014 V 299.26778 l -361.95132,8e-5 0,256.44228 z"
       style="fill:#0a3161;fill-opacity:1;stroke:none;stroke-width:2.69729114px;stroke-linecap:butt;stroke-linejoin:miter;stroke-opacity:1" />
    <path
       style="fill:#ffffff;fill-opacity:1;stroke:none;stroke-width:0.22469057px;stroke-linecap:butt;stroke-linejoin:miter;stroke-opacity:1"
       d="m 65.923126,372.46299 7.314665,5.31441 -2.793955,-8.59891 7.314666,-5.3144 h -9.041419 l -2.793931,-8.5989 -2.793965,8.5989 h -9.04141 l 7.314665,5.31441 -2.793957,8.5989 z"
       id="path1059"
       inkscape:connector-curvature="0"
       sodipodi:nodetypes="ccccccccccc" />
    <path
       sodipodi:nodetypes="ccccccccccc"
       inkscape:connector-curvature="0"
       id="path1061"
       d="m 53.680122,410.14306 7.314666,5.31441 -2.793956,-8.59891 7.314666,-5.3144 h -9.041419 l -2.793931,-8.5989 -2.793965,8.5989 h -9.04141 l 7.314665,5.31441 -2.793956,8.5989 z"
       style="fill:#ffffff;fill-opacity:1;stroke:none;stroke-width:0.22469057px;stroke-linecap:butt;stroke-linejoin:miter;stroke-opacity:1" />
    <path
       style="fill:#ffffff;fill-opacity:1;stroke:none;stroke-width:0.22469057px;stroke-linecap:butt;stroke-linejoin:miter;stroke-opacity:1"
       d="m 73.645454,414.81457 -7.314662,-5.31442 h 9.041426 l 2.793941,-8.59889 2.793952,8.59889 9.041409,-1e-5 -7.314654,5.31442 2.79395,8.59889 -7.314662,-5.31442 -7.314657,5.31442 z"
       id="path855"
       inkscape:connector-curvature="0"
       sodipodi:nodetypes="ccccccccccc" />
    <path
       style="fill:#ffffff;fill-opacity:1;stroke:none;stroke-width:0.22469057px;stroke-linecap:butt;stroke-linejoin:miter;stroke-opacity:1"
       d="m -21.037519,406.85857 2.793956,8.59891 -7.314666,-5.31442 -7.314657,5.31442 2.793956,-8.5989 -7.314666,-5.31439 9.041419,-2e-5 2.793948,-8.59889 2.793948,8.59891 9.041418,-1e-5 z"
       id="path883"
       inkscape:connector-curvature="0"
       sodipodi:nodetypes="ccccccccccc" />
    <path
       sodipodi:nodetypes="ccccccccccc"
       inkscape:connector-curvature="0"
       id="path885"
       d="m 11.015055,430.14617 7.314662,-5.31441 H 9.2882924 l -2.7939419,-8.5989 -2.7939521,8.5989 -9.0414089,-2e-5 7.314654,5.31442 -2.79394956,8.5989 7.31466166,-5.31442 7.3146574,5.31441 z"
       style="fill:#ffffff;fill-opacity:1;stroke:none;stroke-width:0.22469057px;stroke-linecap:butt;stroke-linejoin:miter;stroke-opacity:1" />
    <path
       style="fill:#ffffff;fill-opacity:1;stroke:none;stroke-width:0.22469057px;stroke-linecap:butt;stroke-linejoin:miter;stroke-opacity:1"
       d="m 43.067637,453.43374 7.314661,-5.31441 h -9.041424 l -2.793942,-8.5989 -2.793952,8.5989 -9.041408,-2e-5 7.314653,5.31442 -2.793949,8.59889 7.314661,-5.31441 7.314658,5.31441 z"
       id="path887"
       inkscape:connector-curvature="0"
       sodipodi:nodetypes="ccccccccccc" />
    <path
       style="fill:#ffffff;fill-opacity:1;stroke:none;stroke-width:0.22469057px;stroke-linecap:butt;stroke-linejoin:miter;stroke-opacity:1"
       d="m 18.581658,406.85856 2.793949,8.59891 -7.314665,-5.31442 -7.314653,5.31442 2.7939521,-8.5989 -7.314665,-5.31439 9.0414199,-10e-6 2.79395,-8.5989 2.79395,8.59891 9.041415,-10e-6 z"
       id="path889"
       inkscape:connector-curvature="0"
       sodipodi:nodetypes="ccccccccccc" />
    <path
       sodipodi:nodetypes="ccccccccccc"
       inkscape:connector-curvature="0"
       id="path891"
       d="m 53.680139,435.88916 -7.314669,5.31441 2.793954,-8.5989 -7.314662,-5.31441 h 9.041416 l 2.793933,-8.59889 2.793961,8.59889 h 9.041415 l -7.314669,5.31441 2.79396,8.59891 z"
       style="fill:#ffffff;fill-opacity:1;stroke:none;stroke-width:0.22469057px;stroke-linecap:butt;stroke-linejoin:miter;stroke-opacity:1" />
    <path
       sodipodi:nodetypes="ccccccccccc"
       inkscape:connector-curvature="0"
       id="path908"
       d="m 16.854883,523.47948 h 9.041429 l -7.31467,5.31442 2.793961,8.5989 -7.31466,-5.31442 -7.3146415,5.31442 2.793933,-8.5989 -7.314653,-5.31441 9.0414265,10e-6 2.793944,-8.5989 z"
       style="fill:#ffffff;fill-opacity:1;stroke:none;stroke-width:0.22469057px;stroke-linecap:butt;stroke-linejoin:miter;stroke-opacity:1" />
    <path
       style="fill:#ffffff;fill-opacity:1;stroke:none;stroke-width:0.22469057px;stroke-linecap:butt;stroke-linejoin:miter;stroke-opacity:1"
       d="m 48.907497,500.19194 -2.793949,-8.5989 -2.793954,8.5989 -9.041415,-10e-6 7.314661,5.31442 -2.793968,8.59888 7.314666,-5.3144 7.314662,5.31441 -2.793959,-8.5989 7.314658,-5.31441 z"
       id="path910"
       inkscape:connector-curvature="0"
       sodipodi:nodetypes="ccccccccccc" />
    <path
       sodipodi:nodetypes="ccccccccccc"
       inkscape:connector-curvature="0"
       id="path912"
       d="m 80.960085,476.90438 -2.79395,-8.5989 -2.793954,8.5989 -9.041415,-1e-5 7.314661,5.31442 -2.793968,8.59888 7.314666,-5.3144 7.314653,5.3144 -2.793949,-8.5989 7.314657,-5.31441 z"
       style="fill:#ffffff;fill-opacity:1;stroke:none;stroke-width:0.22469057px;stroke-linecap:butt;stroke-linejoin:miter;stroke-opacity:1" />
    <path
       sodipodi:nodetypes="ccccccccccc"
       inkscape:connector-curvature="0"
       id="path914"
       d="m 29.097872,485.7994 9.041428,1e-5 -7.314669,5.31441 2.793961,8.5989 -7.314661,-5.31441 -7.314641,5.31442 2.793942,-8.59891 -7.314662,-5.31441 9.041428,10e-6 2.793941,-8.5989 z"
       style="fill:#ffffff;fill-opacity:1;stroke:none;stroke-width:0.22469057px;stroke-linecap:butt;stroke-linejoin:miter;stroke-opacity:1" />
    <path
       style="fill:#ffffff;fill-opacity:1;stroke:none;stroke-width:0.22469057px;stroke-linecap:butt;stroke-linejoin:miter;stroke-opacity:1"
       d="m 67.553641,461.38971 2.793947,8.59891 -7.31466,-5.31441 -7.314659,5.31441 2.793951,-8.5989 -7.314658,-5.31439 9.041412,-1e-5 2.793951,-8.5989 2.793947,8.59891 9.041431,-1e-5 z"
       id="path916"
       inkscape:connector-curvature="0"
       sodipodi:nodetypes="ccccccccccc" />
    <path
       style="fill:#ffffff;fill-opacity:1;stroke:none;stroke-width:0.22469057px;stroke-linecap:butt;stroke-linejoin:miter;stroke-opacity:1"
       d="m 78.166111,334.78291 7.314666,5.31441 -2.793956,-8.5989 7.314666,-5.3144 h -9.041419 l -2.793931,-8.5989 -2.793965,8.5989 h -9.041411 l 7.314666,5.31441 -2.793956,8.59889 z"
       id="path918"
       inkscape:connector-curvature="0"
       sodipodi:nodetypes="ccccccccccc" />
    <path
       sodipodi:nodetypes="ccccccccccc"
       inkscape:connector-curvature="0"
       id="path920"
       d="m 90.409146,372.46299 -7.314665,5.31441 2.793956,-8.59891 -7.314666,-5.3144 h 9.041419 l 2.793931,-8.5989 2.793962,8.5989 h 9.041417 l -7.314667,5.31441 2.79395,8.5989 z"
       style="fill:#ffffff;fill-opacity:1;stroke:none;stroke-width:0.22469057px;stroke-linecap:butt;stroke-linejoin:miter;stroke-opacity:1" />
    <path
       style="fill:#ffffff;fill-opacity:1;stroke:none;stroke-width:0.22469057px;stroke-linecap:butt;stroke-linejoin:miter;stroke-opacity:1"
       d="m 102.65216,410.14306 -7.314676,5.31441 2.79396,-8.59891 -7.314671,-5.3144 h 9.04142 l 2.793937,-8.5989 2.79397,8.5989 h 9.04141 l -7.31467,5.31441 2.79396,8.5989 z"
       id="path922"
       inkscape:connector-curvature="0"
       sodipodi:nodetypes="ccccccccccc" />
    <path
       sodipodi:nodetypes="ccccccccccc"
       inkscape:connector-curvature="0"
       id="path924"
       d="m 177.3698,406.85857 -2.79396,8.59891 7.31467,-5.31442 7.31466,5.31442 -2.79396,-8.5989 7.31467,-5.31439 -9.04142,-2e-5 -2.79395,-8.59889 -2.79395,8.59891 -9.04142,-1e-5 z"
       style="fill:#ffffff;fill-opacity:1;stroke:none;stroke-width:0.22469057px;stroke-linecap:butt;stroke-linejoin:miter;stroke-opacity:1" />
    <path
       style="fill:#ffffff;fill-opacity:1;stroke:none;stroke-width:0.22469057px;stroke-linecap:butt;stroke-linejoin:miter;stroke-opacity:1"
       d="m 145.31722,430.14617 -7.31466,-5.31441 h 9.04143 l 2.79394,-8.5989 2.79395,8.5989 9.04141,-2e-5 -7.31465,5.31442 2.79395,8.5989 -7.31467,-5.31442 -7.31465,5.31441 z"
       id="path926"
       inkscape:connector-curvature="0"
       sodipodi:nodetypes="ccccccccccc" />
    <path
       sodipodi:nodetypes="ccccccccccc"
       inkscape:connector-curvature="0"
       id="path928"
       d="m 113.26464,453.43374 -7.31466,-5.31441 h 9.04142 l 2.79395,-8.5989 2.79395,8.5989 9.04141,-2e-5 -7.31466,5.31442 2.79395,8.59889 -7.31466,-5.31441 -7.31466,5.31441 z"
       style="fill:#ffffff;fill-opacity:1;stroke:none;stroke-width:0.22469057px;stroke-linecap:butt;stroke-linejoin:miter;stroke-opacity:1" />
    <path
       sodipodi:nodetypes="ccccccccccc"
       inkscape:connector-curvature="0"
       id="path930"
       d="m 137.75062,406.85856 -2.79395,8.59891 7.31467,-5.31442 7.31465,5.31442 -2.79395,-8.5989 7.31466,-5.31439 -9.04142,-10e-6 -2.79395,-8.5989 -2.79395,8.59891 -9.04141,-10e-6 z"
       style="fill:#ffffff;fill-opacity:1;stroke:none;stroke-width:0.22469057px;stroke-linecap:butt;stroke-linejoin:miter;stroke-opacity:1" />
    <path
       style="fill:#ffffff;fill-opacity:1;stroke:none;stroke-width:0.22469057px;stroke-linecap:butt;stroke-linejoin:miter;stroke-opacity:1"
       d="m 102.65214,435.88916 7.31467,5.31441 -2.79396,-8.5989 7.31467,-5.31441 h -9.04142 l -2.79393,-8.59889 -2.793966,8.59889 h -9.041421 l 7.314671,5.31441 -2.79396,8.59891 z"
       id="path932"
       inkscape:connector-curvature="0"
       sodipodi:nodetypes="ccccccccccc" />
    <path
       style="fill:#ffffff;fill-opacity:1;stroke:none;stroke-width:0.22469057px;stroke-linecap:butt;stroke-linejoin:miter;stroke-opacity:1"
       d="m 139.4774,523.47948 h -9.04143 l 7.31467,5.31442 -2.79396,8.5989 7.31466,-5.31442 7.31464,5.31442 -2.79394,-8.5989 7.31466,-5.31441 -9.04143,10e-6 -2.79394,-8.5989 z"
       id="path934"
       inkscape:connector-curvature="0"
       sodipodi:nodetypes="ccccccccccc" />
    <path
       sodipodi:nodetypes="ccccccccccc"
       inkscape:connector-curvature="0"
       id="path936"
       d="m 107.42478,500.19194 2.79395,-8.5989 2.79395,8.5989 9.04142,-10e-6 -7.31466,5.31442 2.79397,8.59888 -7.31467,-5.3144 -7.31466,5.31441 2.79396,-8.5989 -7.314667,-5.31441 z"
       style="fill:#ffffff;fill-opacity:1;stroke:none;stroke-width:0.22469057px;stroke-linecap:butt;stroke-linejoin:miter;stroke-opacity:1" />
    <path
       style="fill:#ffffff;fill-opacity:1;stroke:none;stroke-width:0.22469057px;stroke-linecap:butt;stroke-linejoin:miter;stroke-opacity:1"
       d="m 127.23441,485.7994 -9.04143,1e-5 7.31467,5.31441 -2.79396,8.5989 7.31466,-5.31441 7.31464,5.31442 -2.79394,-8.59891 7.31466,-5.31441 -9.04143,10e-6 -2.79394,-8.5989 z"
       id="path938"
       inkscape:connector-curvature="0"
       sodipodi:nodetypes="ccccccccccc" />
    <path
       sodipodi:nodetypes="ccccccccccc"
       inkscape:connector-curvature="0"
       id="path940"
       d="m 88.778632,461.38971 -2.793948,8.59891 7.31466,-5.31441 7.314666,5.31441 -2.793957,-8.5989 7.314667,-5.31439 -9.041426,-1e-5 -2.79395,-8.5989 -2.793943,8.59891 -9.041431,-1e-5 z"
       style="fill:#ffffff;fill-opacity:1;stroke:none;stroke-width:0.22469057px;stroke-linecap:butt;stroke-linejoin:miter;stroke-opacity:1" />
    <path
       style="fill:#ffffff;fill-opacity:1;stroke:none;stroke-width:0.51166773px;stroke-linecap:butt;stroke-linejoin:miter;stroke-opacity:1"
       d="m -102.80952,299.26786 h -9.525 v 476.25 h 9.525 z"
       id="path1079"
       inkscape:connector-curvature="0"
       sodipodi:nodetypes="ccccc" />
    <path
       sodipodi:nodetypes="ccccc"
       inkscape:connector-curvature="0"
       id="path824"
       d="m -102.80952,738.88324 v 36.63462 H 802.0685 v -36.63462 z"
       style="fill:#b31942;fill-opacity:1;stroke:none;stroke-width:2.28030705px;stroke-linecap:butt;stroke-linejoin:miter;stroke-opacity:1" />
    <path
       style="fill:#ffffff;fill-opacity:1;stroke:none;stroke-width:2.28030705px;stroke-linecap:butt;stroke-linejoin:miter;stroke-opacity:1"
       d="m -102.80952,702.24862 v 36.63462 H 802.0685 v -36.63462 z"
       id="path828"
       inkscape:connector-curvature="0"
       sodipodi:nodetypes="ccccc" />
    <path
       style="fill:#b31942;fill-opacity:1;stroke:none;stroke-width:2.28030705px;stroke-linecap:butt;stroke-linejoin:miter;stroke-opacity:1"
       d="m -102.80952,665.614 v 36.63462 H 802.0685 V 665.614 Z"
       id="path830"
       inkscape:connector-curvature="0"
       sodipodi:nodetypes="ccccc" />
    <path
       sodipodi:nodetypes="ccccc"
       inkscape:connector-curvature="0"
       id="path832"
       d="M -102.80952,628.97938 V 665.614 H 802.0685 v -36.63462 z"
       style="fill:#ffffff;fill-opacity:1;stroke:none;stroke-width:2.28030705px;stroke-linecap:butt;stroke-linejoin:miter;stroke-opacity:1" />
    <path
       sodipodi:nodetypes="ccccc"
       inkscape:connector-curvature="0"
       id="path834"
       d="m -102.80952,592.34476 v 36.63462 H 802.0685 v -36.63462 z"
       style="fill:#b31942;fill-opacity:1;stroke:none;stroke-width:2.28030705px;stroke-linecap:butt;stroke-linejoin:miter;stroke-opacity:1" />
    <path
       style="fill:#ffffff;fill-opacity:1;stroke:none;stroke-width:2.28030705px;stroke-linecap:butt;stroke-linejoin:miter;stroke-opacity:1"
       d="m -102.80952,555.71014 v 36.63462 H 802.0685 v -36.63462 z"
       id="path836"
       inkscape:connector-curvature="0"
       sodipodi:nodetypes="ccccc" />
    <path
       style="fill:#b31942;fill-opacity:1;stroke:none;stroke-width:2.28030705px;stroke-linecap:butt;stroke-linejoin:miter;stroke-opacity:1"
       d="m 259.1418,519.07552 v 36.63462 h 542.9267 v -36.63462 z"
       id="path838"
       inkscape:connector-curvature="0"
       sodipodi:nodetypes="ccccc" />
    <path
       sodipodi:nodetypes="ccccc"
       inkscape:connector-curvature="0"
       id="path840"
       d="m 259.1418,482.4409 v 36.63462 H 802.0685 V 482.4409 Z"
       style="fill:#ffffff;fill-opacity:1;stroke:none;stroke-width:2.28030705px;stroke-linecap:butt;stroke-linejoin:miter;stroke-opacity:1" />
    <path
       sodipodi:nodetypes="ccccc"
       inkscape:connector-curvature="0"
       id="path842"
       d="M 259.1418,445.80628 V 482.4409 H 802.0685 V 445.80628 Z"
       style="fill:#b31942;fill-opacity:1;stroke:none;stroke-width:2.28030705px;stroke-linecap:butt;stroke-linejoin:miter;stroke-opacity:1" />
    <path
       sodipodi:nodetypes="ccccc"
       inkscape:connector-curvature="0"
       id="path844"
       d="m 259.1418,409.17166 v 36.63462 h 542.9267 v -36.63462 z"
       style="fill:#ffffff;fill-opacity:1;stroke:none;stroke-width:2.28030705px;stroke-linecap:butt;stroke-linejoin:miter;stroke-opacity:1" />
    <path
       sodipodi:nodetypes="ccccc"
       inkscape:connector-curvature="0"
       id="path846"
       d="m 259.1418,372.53704 v 36.63462 h 542.9267 v -36.63462 z"
       style="fill:#b31942;fill-opacity:1;stroke:none;stroke-width:2.28030705px;stroke-linecap:butt;stroke-linejoin:miter;stroke-opacity:1" />
    <path
       style="fill:#ffffff;fill-opacity:1;stroke:none;stroke-width:2.28030705px;stroke-linecap:butt;stroke-linejoin:miter;stroke-opacity:1"
       d="m 259.1418,335.90242 v 36.63462 h 542.9267 v -36.63462 z"
       id="path848"
       inkscape:connector-curvature="0"
       sodipodi:nodetypes="ccccc" />
    <path
       style="fill:#b31942;fill-opacity:1;stroke:none;stroke-width:2.28030705px;stroke-linecap:butt;stroke-linejoin:miter;stroke-opacity:1"
       d="m 259.1418,299.2678 v 36.63462 H 802.0685 V 299.2678 Z"
       id="path850"
       inkscape:connector-curvature="0"
       sodipodi:nodetypes="ccccc" />
  </g>
</svg>
