<?xml version="1.0" encoding="UTF-8" standalone="no"?>
<!-- Created with Inkscape (http://www.inkscape.org/) -->

<svg
   width="3456.0115"
   height="1800.0002"
   viewBox="0 0 914.40303 476.25007"
   version="1.1"
   id="svg8"
   inkscape:export-filename="C:\Users\厂永刄先生\Documents\GXI3CW2\poM̕écèŭ\M̕é\11960年㋆㏣以來.png"
   inkscape:export-xdpi="96"
   inkscape:export-ydpi="96"
   inkscape:version="1.3 (0e150ed6c4, 2023-07-21)"
   sodipodi:docname="1845.svg"
   xmlns:inkscape="http://www.inkscape.org/namespaces/inkscape"
   xmlns:sodipodi="http://sodipodi.sourceforge.net/DTD/sodipodi-0.dtd"
   xmlns="http://www.w3.org/2000/svg"
   xmlns:svg="http://www.w3.org/2000/svg"
   xmlns:rdf="http://www.w3.org/1999/02/22-rdf-syntax-ns#"
   xmlns:cc="http://creativecommons.org/ns#"
   xmlns:dc="http://purl.org/dc/elements/1.1/">
  <defs
     id="defs2" />
  <sodipodi:namedview
     id="base"
     pagecolor="#ffffff"
     bordercolor="#666666"
     borderopacity="1.0"
     inkscape:pageopacity="0.0"
     inkscape:pageshadow="2"
     inkscape:zoom="0.19843883"
     inkscape:cx="723.14475"
     inkscape:cy="163.77843"
     inkscape:document-units="px"
     inkscape:current-layer="layer1"
     showgrid="false"
     units="px"
     fit-margin-top="0"
     fit-margin-left="0"
     fit-margin-right="0"
     fit-margin-bottom="0"
     inkscape:showpageshadow="false"
     inkscape:snap-intersection-paths="true"
     inkscape:object-paths="false"
     inkscape:pagecheckerboard="true"
     inkscape:snap-smooth-nodes="false"
     inkscape:window-width="1920"
     inkscape:window-height="1051"
     inkscape:window-x="-9"
     inkscape:window-y="-9"
     inkscape:window-maximized="1"
     inkscape:object-nodes="true"
     inkscape:snap-nodes="true"
     showguides="true"
     inkscape:guide-bbox="true"
     inkscape:deskcolor="#505050" />
  <metadata
     id="metadata5">
    <rdf:RDF>
      <cc:Work
         rdf:about="">
        <dc:format>image/svg+xml</dc:format>
        <dc:type
           rdf:resource="http://purl.org/dc/dcmitype/StillImage" />
      </cc:Work>
    </rdf:RDF>
  </metadata>
  <g
     inkscape:label="レイヤー 1"
     inkscape:groupmode="layer"
     id="layer1"
     transform="translate(112.33452,-299.2678)">
    <path
       style="fill:#ffffff;fill-opacity:1;stroke:none;stroke-width:0.51166773px;stroke-linecap:butt;stroke-linejoin:miter;stroke-opacity:1"
       d="m -102.80952,299.26786 h -9.525 v 476.25 h 9.525 z"
       id="path1079"
       inkscape:connector-curvature="0"
       sodipodi:nodetypes="ccccc" />
    <path
       sodipodi:nodetypes="ccccc"
       inkscape:connector-curvature="0"
       id="path824"
       d="m -102.80952,738.88324 v 36.63462 H 802.0685 v -36.63462 z"
       style="fill:#b31942;fill-opacity:1;stroke:none;stroke-width:2.28030705px;stroke-linecap:butt;stroke-linejoin:miter;stroke-opacity:1" />
    <path
       style="fill:#ffffff;fill-opacity:1;stroke:none;stroke-width:2.28030705px;stroke-linecap:butt;stroke-linejoin:miter;stroke-opacity:1"
       d="m -102.80952,702.24862 v 36.63462 H 802.0685 v -36.63462 z"
       id="path828"
       inkscape:connector-curvature="0"
       sodipodi:nodetypes="ccccc" />
    <path
       style="fill:#b31942;fill-opacity:1;stroke:none;stroke-width:2.28030705px;stroke-linecap:butt;stroke-linejoin:miter;stroke-opacity:1"
       d="m -102.80952,665.614 v 36.63462 H 802.0685 V 665.614 Z"
       id="path830"
       inkscape:connector-curvature="0"
       sodipodi:nodetypes="ccccc" />
    <path
       sodipodi:nodetypes="ccccc"
       inkscape:connector-curvature="0"
       id="path832"
       d="M -102.80952,628.97938 V 665.614 H 802.0685 v -36.63462 z"
       style="fill:#ffffff;fill-opacity:1;stroke:none;stroke-width:2.28030705px;stroke-linecap:butt;stroke-linejoin:miter;stroke-opacity:1" />
    <path
       sodipodi:nodetypes="ccccc"
       inkscape:connector-curvature="0"
       id="path834"
       d="m -102.80952,592.34476 v 36.63462 H 802.0685 v -36.63462 z"
       style="fill:#b31942;fill-opacity:1;stroke:none;stroke-width:2.28030705px;stroke-linecap:butt;stroke-linejoin:miter;stroke-opacity:1" />
    <path
       style="fill:#ffffff;fill-opacity:1;stroke:none;stroke-width:2.28030705px;stroke-linecap:butt;stroke-linejoin:miter;stroke-opacity:1"
       d="m -102.80952,555.71014 v 36.63462 H 802.0685 v -36.63462 z"
       id="path836"
       inkscape:connector-curvature="0"
       sodipodi:nodetypes="ccccc" />
    <path
       style="fill:#b31942;fill-opacity:1;stroke:none;stroke-width:2.28030705px;stroke-linecap:butt;stroke-linejoin:miter;stroke-opacity:1"
       d="m 259.14169,519.07552 v 36.63462 H 802.0685 v -36.63462 z"
       id="path838"
       inkscape:connector-curvature="0"
       sodipodi:nodetypes="ccccc" />
    <path
       sodipodi:nodetypes="ccccc"
       inkscape:connector-curvature="0"
       id="path840"
       d="m 259.14169,482.4409 v 36.63462 H 802.0685 V 482.4409 Z"
       style="fill:#ffffff;fill-opacity:1;stroke:none;stroke-width:2.28030705px;stroke-linecap:butt;stroke-linejoin:miter;stroke-opacity:1" />
    <path
       sodipodi:nodetypes="ccccc"
       inkscape:connector-curvature="0"
       id="path842"
       d="M 259.14169,445.80628 V 482.4409 H 802.0685 v -36.63462 z"
       style="fill:#b31942;fill-opacity:1;stroke:none;stroke-width:2.28030705px;stroke-linecap:butt;stroke-linejoin:miter;stroke-opacity:1" />
    <path
       sodipodi:nodetypes="ccccc"
       inkscape:connector-curvature="0"
       id="path844"
       d="m 259.14169,409.17166 v 36.63462 H 802.0685 v -36.63462 z"
       style="fill:#ffffff;fill-opacity:1;stroke:none;stroke-width:2.28030705px;stroke-linecap:butt;stroke-linejoin:miter;stroke-opacity:1" />
    <path
       sodipodi:nodetypes="ccccc"
       inkscape:connector-curvature="0"
       id="path846"
       d="m 259.14169,372.53704 v 36.63462 H 802.0685 v -36.63462 z"
       style="fill:#b31942;fill-opacity:1;stroke:none;stroke-width:2.28030705px;stroke-linecap:butt;stroke-linejoin:miter;stroke-opacity:1" />
    <path
       style="fill:#ffffff;fill-opacity:1;stroke:none;stroke-width:2.28030705px;stroke-linecap:butt;stroke-linejoin:miter;stroke-opacity:1"
       d="m 259.14169,335.90242 v 36.63462 H 802.0685 v -36.63462 z"
       id="path848"
       inkscape:connector-curvature="0"
       sodipodi:nodetypes="ccccc" />
    <path
       style="fill:#b31942;fill-opacity:1;stroke:none;stroke-width:2.28030705px;stroke-linecap:butt;stroke-linejoin:miter;stroke-opacity:1"
       d="m 259.14169,299.2678 v 36.63462 H 802.0685 V 299.2678 Z"
       id="path850"
       inkscape:connector-curvature="0"
       sodipodi:nodetypes="ccccc" />
    <path
       sodipodi:nodetypes="ccccc"
       inkscape:connector-curvature="0"
       id="path868"
       d="M 259.14169,555.71014 V 299.2678 l -361.95121,6e-5 v 256.44228 z"
       style="fill:#0a3161;fill-opacity:1;stroke:none;stroke-width:2.27037477px;stroke-linecap:butt;stroke-linejoin:miter;stroke-opacity:1" />
    <path
       sodipodi:nodetypes="ccccccccccc"
       inkscape:connector-curvature="0"
       id="path933"
       d="m 146.0319,407.44197 8.61335,6.25796 -3.29001,-10.1256 8.61335,-6.25795 h -10.64668 l -3.28998,-10.12559 -3.29002,10.12559 h -10.64667 l 8.61335,6.25796 -3.29001,10.12559 z"
       style="fill:#ffffff;fill-opacity:1;stroke:none;stroke-width:0.264583px;stroke-linecap:butt;stroke-linejoin:miter;stroke-opacity:1" />
    <path
       sodipodi:nodetypes="ccccccccccc"
       inkscape:connector-curvature="0"
       id="path935"
       d="m 100.78801,407.44197 8.61335,6.25796 -3.29001,-10.1256 8.61335,-6.25795 h -10.64668 l -3.28998,-10.12559 -3.290022,10.12559 H 86.851351 l 8.613347,6.25796 -3.29001,10.12559 z"
       style="fill:#ffffff;fill-opacity:1;stroke:none;stroke-width:0.264583px;stroke-linecap:butt;stroke-linejoin:miter;stroke-opacity:1" />
    <path
       sodipodi:nodetypes="ccccccccccc"
       inkscape:connector-curvature="0"
       id="path937"
       d="m 55.544114,407.44197 8.61335,6.25796 -3.29001,-10.1256 8.61335,-6.25795 h -10.64668 l -3.28998,-10.12559 -3.29002,10.12559 h -10.64667 l 8.61335,6.25796 -3.29001,10.12559 z"
       style="fill:#ffffff;fill-opacity:1;stroke:none;stroke-width:0.264583px;stroke-linecap:butt;stroke-linejoin:miter;stroke-opacity:1" />
    <path
       sodipodi:nodetypes="ccccccccccc"
       inkscape:connector-curvature="0"
       id="path939"
       d="m -34.943682,407.44197 8.61335,6.25796 -3.29001,-10.1256 8.613351,-6.25795 h -10.646681 l -3.28998,-10.12559 -3.29002,10.12559 h -10.646671 l 8.613351,6.25796 -3.290011,10.12559 z"
       style="fill:#ffffff;fill-opacity:1;stroke:none;stroke-width:0.264583px;stroke-linecap:butt;stroke-linejoin:miter;stroke-opacity:1" />
    <path
       style="fill:#ffffff;fill-opacity:1;stroke:none;stroke-width:0.264583px;stroke-linecap:butt;stroke-linejoin:miter;stroke-opacity:1"
       d="m 10.300217,407.44197 8.61335,6.25796 -3.29001,-10.1256 8.61335,-6.25795 h -10.64668 l -3.28998,-10.12559 -3.2900204,10.12559 H -3.6364431 l 8.6133497,6.25796 -3.29001,10.12559 z"
       id="path898"
       inkscape:connector-curvature="0"
       sodipodi:nodetypes="ccccccccccc" />
    <path
       sodipodi:nodetypes="ccccccccccc"
       inkscape:connector-curvature="0"
       id="path27"
       d="m 213.89775,356.1535 8.61335,6.25796 -3.29001,-10.1256 8.61335,-6.25795 h -10.64668 l -3.28998,-10.12559 -3.29002,10.12559 h -10.64667 l 8.61335,6.25796 -3.29001,10.12559 z"
       style="fill:#ffffff;fill-opacity:1;stroke:none;stroke-width:0.264583px;stroke-linecap:butt;stroke-linejoin:miter;stroke-opacity:1" />
    <path
       style="fill:#ffffff;fill-opacity:1;stroke:none;stroke-width:0.264583px;stroke-linecap:butt;stroke-linejoin:miter;stroke-opacity:1"
       d="m -57.56563,356.1535 8.613349,6.25796 -3.29001,-10.1256 8.61335,-6.25795 h -10.64668 l -3.289979,-10.12559 -3.29002,10.12559 h -10.646671 l 8.613351,6.25796 -3.290011,10.12559 z"
       id="path29"
       inkscape:connector-curvature="0"
       sodipodi:nodetypes="ccccccccccc" />
    <path
       sodipodi:nodetypes="ccccccccccc"
       inkscape:connector-curvature="0"
       id="path30"
       d="m 168.65385,356.1535 8.61335,6.25796 -3.29001,-10.1256 8.61335,-6.25795 h -10.64668 l -3.28998,-10.12559 -3.29002,10.12559 h -10.64667 l 8.61335,6.25796 -3.29001,10.12559 z"
       style="fill:#ffffff;fill-opacity:1;stroke:none;stroke-width:0.264583px;stroke-linecap:butt;stroke-linejoin:miter;stroke-opacity:1" />
    <path
       sodipodi:nodetypes="ccccccccccc"
       inkscape:connector-curvature="0"
       id="path31"
       d="m 123.40996,356.1535 8.61335,6.25796 -3.29001,-10.1256 8.61335,-6.25795 h -10.64668 l -3.28998,-10.12559 -3.29002,10.12559 H 109.4733 l 8.61335,6.25796 -3.29001,10.12559 z"
       style="fill:#ffffff;fill-opacity:1;stroke:none;stroke-width:0.264583px;stroke-linecap:butt;stroke-linejoin:miter;stroke-opacity:1" />
    <path
       sodipodi:nodetypes="ccccccccccc"
       inkscape:connector-curvature="0"
       id="path32"
       d="m 78.166062,356.1535 8.61335,6.25796 -3.29001,-10.1256 8.61335,-6.25795 h -10.64668 l -3.28998,-10.12559 -3.29002,10.12559 h -10.64667 l 8.61335,6.25796 -3.29001,10.12559 z"
       style="fill:#ffffff;fill-opacity:1;stroke:none;stroke-width:0.264583px;stroke-linecap:butt;stroke-linejoin:miter;stroke-opacity:1" />
    <path
       sodipodi:nodetypes="ccccccccccc"
       inkscape:connector-curvature="0"
       id="path33"
       d="m -12.321732,356.1535 8.6133502,6.25796 -3.29001,-10.1256 8.6133502,-6.25795 H -9.0317218 l -3.2899802,-10.12559 -3.29002,10.12559 h -10.646671 l 8.613351,6.25796 -3.290011,10.12559 z"
       style="fill:#ffffff;fill-opacity:1;stroke:none;stroke-width:0.264583px;stroke-linecap:butt;stroke-linejoin:miter;stroke-opacity:1" />
    <path
       style="fill:#ffffff;fill-opacity:1;stroke:none;stroke-width:0.264583px;stroke-linecap:butt;stroke-linejoin:miter;stroke-opacity:1"
       d="m 32.922165,356.1535 8.61335,6.25796 -3.29001,-10.1256 8.61335,-6.25795 h -10.64668 l -3.28998,-10.12559 -3.29002,10.12559 h -10.64667 l 8.61335,6.25796 -3.29001,10.12559 z"
       id="path34"
       inkscape:connector-curvature="0"
       sodipodi:nodetypes="ccccccccccc" />
    <path
       sodipodi:nodetypes="ccccccccccc"
       inkscape:connector-curvature="0"
       id="path35"
       d="m 213.89775,510.01889 8.61335,6.25796 -3.29001,-10.1256 8.61335,-6.25795 h -10.64668 l -3.28998,-10.12559 -3.29002,10.12559 h -10.64667 l 8.61335,6.25796 -3.29001,10.12559 z"
       style="fill:#ffffff;fill-opacity:1;stroke:none;stroke-width:0.264583px;stroke-linecap:butt;stroke-linejoin:miter;stroke-opacity:1" />
    <path
       style="fill:#ffffff;fill-opacity:1;stroke:none;stroke-width:0.264583px;stroke-linecap:butt;stroke-linejoin:miter;stroke-opacity:1"
       d="m -57.56563,510.01889 8.613349,6.25796 -3.29001,-10.1256 8.61335,-6.25795 h -10.64668 l -3.289979,-10.12559 -3.29002,10.12559 h -10.646671 l 8.613351,6.25796 -3.290011,10.12559 z"
       id="path37"
       inkscape:connector-curvature="0"
       sodipodi:nodetypes="ccccccccccc" />
    <path
       sodipodi:nodetypes="ccccccccccc"
       inkscape:connector-curvature="0"
       id="path38"
       d="m 168.65385,510.01889 8.61335,6.25796 -3.29001,-10.1256 8.61335,-6.25795 h -10.64668 l -3.28998,-10.12559 -3.29002,10.12559 h -10.64667 l 8.61335,6.25796 -3.29001,10.12559 z"
       style="fill:#ffffff;fill-opacity:1;stroke:none;stroke-width:0.264583px;stroke-linecap:butt;stroke-linejoin:miter;stroke-opacity:1" />
    <path
       sodipodi:nodetypes="ccccccccccc"
       inkscape:connector-curvature="0"
       id="path39"
       d="m 123.40996,510.01889 8.61335,6.25796 -3.29001,-10.1256 8.61335,-6.25795 h -10.64668 l -3.28998,-10.12559 -3.29002,10.12559 H 109.4733 l 8.61335,6.25796 -3.29001,10.12559 z"
       style="fill:#ffffff;fill-opacity:1;stroke:none;stroke-width:0.264583px;stroke-linecap:butt;stroke-linejoin:miter;stroke-opacity:1" />
    <path
       sodipodi:nodetypes="ccccccccccc"
       inkscape:connector-curvature="0"
       id="path40"
       d="m 78.166043,510.01889 8.61335,6.25796 -3.29001,-10.1256 8.61335,-6.25795 h -10.64668 l -3.28998,-10.12559 -3.29002,10.12559 h -10.64667 l 8.61335,6.25796 -3.29001,10.12559 z"
       style="fill:#ffffff;fill-opacity:1;stroke:none;stroke-width:0.264583px;stroke-linecap:butt;stroke-linejoin:miter;stroke-opacity:1" />
    <path
       sodipodi:nodetypes="ccccccccccc"
       inkscape:connector-curvature="0"
       id="path41"
       d="m -12.321738,510.01889 8.6133497,6.25796 -3.29001,-10.1256 8.6133502,-6.25795 H -9.0317283 l -3.2899797,-10.12559 -3.29002,10.12559 h -10.646671 l 8.613351,6.25796 -3.290011,10.12559 z"
       style="fill:#ffffff;fill-opacity:1;stroke:none;stroke-width:0.264583px;stroke-linecap:butt;stroke-linejoin:miter;stroke-opacity:1" />
    <path
       style="fill:#ffffff;fill-opacity:1;stroke:none;stroke-width:0.264583px;stroke-linecap:butt;stroke-linejoin:miter;stroke-opacity:1"
       d="m 32.922163,510.01889 8.61335,6.25796 -3.29001,-10.1256 8.61335,-6.25795 h -10.64668 l -3.28998,-10.12559 -3.29002,10.12559 h -10.64667 l 8.61335,6.25796 -3.29001,10.12559 z"
       id="path42"
       inkscape:connector-curvature="0"
       sodipodi:nodetypes="ccccccccccc" />
    <path
       sodipodi:nodetypes="ccccccccccc"
       inkscape:connector-curvature="0"
       id="path43"
       d="m 213.89775,458.73043 8.61335,6.25796 -3.29001,-10.1256 8.61335,-6.25795 h -10.64668 l -3.28998,-10.12559 -3.29002,10.12559 h -10.64667 l 8.61335,6.25796 -3.29001,10.12559 z"
       style="fill:#ffffff;fill-opacity:1;stroke:none;stroke-width:0.264583px;stroke-linecap:butt;stroke-linejoin:miter;stroke-opacity:1" />
    <path
       sodipodi:nodetypes="ccccccccccc"
       inkscape:connector-curvature="0"
       id="path45"
       d="m 191.2758,407.44197 8.61335,6.25796 -3.29001,-10.1256 8.61335,-6.25795 h -10.64668 l -3.28998,-10.12559 -3.29002,10.12559 h -10.64667 l 8.61335,6.25796 -3.29001,10.12559 z"
       style="fill:#ffffff;fill-opacity:1;stroke:none;stroke-width:0.264583px;stroke-linecap:butt;stroke-linejoin:miter;stroke-opacity:1" />
    <path
       style="fill:#ffffff;fill-opacity:1;stroke:none;stroke-width:0.264583px;stroke-linecap:butt;stroke-linejoin:miter;stroke-opacity:1"
       d="m -57.56563,458.73043 8.613349,6.25796 -3.29001,-10.1256 8.61335,-6.25795 h -10.64668 l -3.289979,-10.12559 -3.29002,10.12559 h -10.646671 l 8.613351,6.25796 -3.290011,10.12559 z"
       id="path46"
       inkscape:connector-curvature="0"
       sodipodi:nodetypes="ccccccccccc" />
    <path
       sodipodi:nodetypes="ccccccccccc"
       inkscape:connector-curvature="0"
       id="path47"
       d="m 168.65385,458.73043 8.61335,6.25796 -3.29001,-10.1256 8.61335,-6.25795 h -10.64668 l -3.28998,-10.12559 -3.29002,10.12559 h -10.64667 l 8.61335,6.25796 -3.29001,10.12559 z"
       style="fill:#ffffff;fill-opacity:1;stroke:none;stroke-width:0.264583px;stroke-linecap:butt;stroke-linejoin:miter;stroke-opacity:1" />
    <path
       sodipodi:nodetypes="ccccccccccc"
       inkscape:connector-curvature="0"
       id="path48"
       d="m 123.40996,458.73043 8.61335,6.25796 -3.29001,-10.1256 8.61335,-6.25795 h -10.64668 l -3.28998,-10.12559 -3.29002,10.12559 H 109.4733 l 8.61335,6.25796 -3.29001,10.12559 z"
       style="fill:#ffffff;fill-opacity:1;stroke:none;stroke-width:0.264583px;stroke-linecap:butt;stroke-linejoin:miter;stroke-opacity:1" />
    <path
       sodipodi:nodetypes="ccccccccccc"
       inkscape:connector-curvature="0"
       id="path49"
       d="m 78.166043,458.73043 8.61335,6.25796 -3.29001,-10.1256 8.61335,-6.25795 h -10.64668 l -3.28998,-10.12559 -3.29002,10.12559 h -10.64667 l 8.61335,6.25796 -3.29001,10.12559 z"
       style="fill:#ffffff;fill-opacity:1;stroke:none;stroke-width:0.264583px;stroke-linecap:butt;stroke-linejoin:miter;stroke-opacity:1" />
    <path
       sodipodi:nodetypes="ccccccccccc"
       inkscape:connector-curvature="0"
       id="path50"
       d="m -12.321738,458.73043 8.6133497,6.25796 -3.29001,-10.1256 8.6133502,-6.25795 H -9.0317283 l -3.2899797,-10.12559 -3.29002,10.12559 h -10.646671 l 8.613351,6.25796 -3.290011,10.12559 z"
       style="fill:#ffffff;fill-opacity:1;stroke:none;stroke-width:0.264583px;stroke-linecap:butt;stroke-linejoin:miter;stroke-opacity:1" />
    <path
       style="fill:#ffffff;fill-opacity:1;stroke:none;stroke-width:0.264583px;stroke-linecap:butt;stroke-linejoin:miter;stroke-opacity:1"
       d="m 32.922163,458.73043 8.61335,6.25796 -3.29001,-10.1256 8.61335,-6.25795 h -10.64668 l -3.28998,-10.12559 -3.29002,10.12559 h -10.64667 l 8.61335,6.25796 -3.29001,10.12559 z"
       id="path51"
       inkscape:connector-curvature="0"
       sodipodi:nodetypes="ccccccccccc" />
  </g>
</svg>
