<?xml version="1.0" encoding="UTF-8" standalone="no"?>
<!-- Created with Inkscape (http://www.inkscape.org/) -->

<svg
   xmlns:dc="http://purl.org/dc/elements/1.1/"
   xmlns:cc="http://creativecommons.org/ns#"
   xmlns:rdf="http://www.w3.org/1999/02/22-rdf-syntax-ns#"
   xmlns:svg="http://www.w3.org/2000/svg"
   xmlns="http://www.w3.org/2000/svg"
   xmlns:sodipodi="http://sodipodi.sourceforge.net/DTD/sodipodi-0.dtd"
   xmlns:inkscape="http://www.inkscape.org/namespaces/inkscape"
   width="3456.0115"
   height="1800.0002"
   viewBox="0 0 914.40303 476.25007"
   version="1.1"
   id="svg8"
   inkscape:export-filename="C:\Users\厂永刄先生\Documents\GXI3CW2\poM̕écèŭ\M̕é\11960年㋆㏣以來.png"
   inkscape:export-xdpi="96"
   inkscape:export-ydpi="96"
   inkscape:version="0.92.4 (5da689c313, 2019-01-14)"
   sodipodi:docname="1777 - コピー.svg">
  <defs
     id="defs2" />
  <sodipodi:namedview
     id="base"
     pagecolor="#ffffff"
     bordercolor="#666666"
     borderopacity="1.0"
     inkscape:pageopacity="0.0"
     inkscape:pageshadow="2"
     inkscape:zoom="0.258101"
     inkscape:cx="1728.0057"
     inkscape:cy="900.00017"
     inkscape:document-units="px"
     inkscape:current-layer="layer1"
     showgrid="false"
     units="px"
     fit-margin-top="0"
     fit-margin-left="0"
     fit-margin-right="0"
     fit-margin-bottom="0"
     inkscape:showpageshadow="false"
     inkscape:snap-intersection-paths="false"
     inkscape:object-paths="false"
     inkscape:pagecheckerboard="true"
     inkscape:snap-smooth-nodes="false"
     inkscape:window-width="1366"
     inkscape:window-height="745"
     inkscape:window-x="-8"
     inkscape:window-y="-8"
     inkscape:window-maximized="1"
     inkscape:object-nodes="true"
     inkscape:snap-nodes="true" />
  <metadata
     id="metadata5">
    <rdf:RDF>
      <cc:Work
         rdf:about="">
        <dc:format>image/svg+xml</dc:format>
        <dc:type
           rdf:resource="http://purl.org/dc/dcmitype/StillImage" />
        <dc:title />
      </cc:Work>
    </rdf:RDF>
  </metadata>
  <g
     inkscape:label="レイヤー 1"
     inkscape:groupmode="layer"
     id="layer1"
     transform="translate(112.33452,-299.2678)">
    <path
       sodipodi:nodetypes="ccccc"
       inkscape:connector-curvature="0"
       id="path868"
       d="M 259.1418,555.71014 V 299.26778 l -361.95132,8e-5 0,256.44228 z"
       style="fill:#0a3161;fill-opacity:1;stroke:none;stroke-width:2.69729114px;stroke-linecap:butt;stroke-linejoin:miter;stroke-opacity:1" />
    <path
       style="fill:#ffffff;fill-opacity:1;stroke:none;stroke-width:0.51166773px;stroke-linecap:butt;stroke-linejoin:miter;stroke-opacity:1"
       d="m -102.80952,299.26786 h -9.525 v 476.25 h 9.525 z"
       id="path1079"
       inkscape:connector-curvature="0"
       sodipodi:nodetypes="ccccc" />
    <path
       sodipodi:nodetypes="ccccc"
       inkscape:connector-curvature="0"
       id="path824"
       d="m -102.80952,738.88324 v 36.63462 H 802.0685 v -36.63462 z"
       style="fill:#b31942;fill-opacity:1;stroke:none;stroke-width:2.28030705px;stroke-linecap:butt;stroke-linejoin:miter;stroke-opacity:1" />
    <path
       style="fill:#ffffff;fill-opacity:1;stroke:none;stroke-width:2.28030705px;stroke-linecap:butt;stroke-linejoin:miter;stroke-opacity:1"
       d="m -102.80952,702.24862 v 36.63462 H 802.0685 v -36.63462 z"
       id="path828"
       inkscape:connector-curvature="0"
       sodipodi:nodetypes="ccccc" />
    <path
       style="fill:#b31942;fill-opacity:1;stroke:none;stroke-width:2.28030705px;stroke-linecap:butt;stroke-linejoin:miter;stroke-opacity:1"
       d="m -102.80952,665.614 v 36.63462 H 802.0685 V 665.614 Z"
       id="path830"
       inkscape:connector-curvature="0"
       sodipodi:nodetypes="ccccc" />
    <path
       sodipodi:nodetypes="ccccc"
       inkscape:connector-curvature="0"
       id="path832"
       d="M -102.80952,628.97938 V 665.614 H 802.0685 v -36.63462 z"
       style="fill:#ffffff;fill-opacity:1;stroke:none;stroke-width:2.28030705px;stroke-linecap:butt;stroke-linejoin:miter;stroke-opacity:1" />
    <path
       sodipodi:nodetypes="ccccc"
       inkscape:connector-curvature="0"
       id="path834"
       d="m -102.80952,592.34476 v 36.63462 H 802.0685 v -36.63462 z"
       style="fill:#b31942;fill-opacity:1;stroke:none;stroke-width:2.28030705px;stroke-linecap:butt;stroke-linejoin:miter;stroke-opacity:1" />
    <path
       style="fill:#ffffff;fill-opacity:1;stroke:none;stroke-width:2.28030705px;stroke-linecap:butt;stroke-linejoin:miter;stroke-opacity:1"
       d="m -102.80952,555.71014 v 36.63462 H 802.0685 v -36.63462 z"
       id="path836"
       inkscape:connector-curvature="0"
       sodipodi:nodetypes="ccccc" />
    <path
       style="fill:#b31942;fill-opacity:1;stroke:none;stroke-width:2.28030705px;stroke-linecap:butt;stroke-linejoin:miter;stroke-opacity:1"
       d="m 259.1418,519.07552 v 36.63462 h 542.9267 v -36.63462 z"
       id="path838"
       inkscape:connector-curvature="0"
       sodipodi:nodetypes="ccccc" />
    <path
       sodipodi:nodetypes="ccccc"
       inkscape:connector-curvature="0"
       id="path840"
       d="m 259.1418,482.4409 v 36.63462 H 802.0685 V 482.4409 Z"
       style="fill:#ffffff;fill-opacity:1;stroke:none;stroke-width:2.28030705px;stroke-linecap:butt;stroke-linejoin:miter;stroke-opacity:1" />
    <path
       sodipodi:nodetypes="ccccc"
       inkscape:connector-curvature="0"
       id="path842"
       d="M 259.1418,445.80628 V 482.4409 H 802.0685 V 445.80628 Z"
       style="fill:#b31942;fill-opacity:1;stroke:none;stroke-width:2.28030705px;stroke-linecap:butt;stroke-linejoin:miter;stroke-opacity:1" />
    <path
       sodipodi:nodetypes="ccccc"
       inkscape:connector-curvature="0"
       id="path844"
       d="m 259.1418,409.17166 v 36.63462 h 542.9267 v -36.63462 z"
       style="fill:#ffffff;fill-opacity:1;stroke:none;stroke-width:2.28030705px;stroke-linecap:butt;stroke-linejoin:miter;stroke-opacity:1" />
    <path
       sodipodi:nodetypes="ccccc"
       inkscape:connector-curvature="0"
       id="path846"
       d="m 259.1418,372.53704 v 36.63462 h 542.9267 v -36.63462 z"
       style="fill:#b31942;fill-opacity:1;stroke:none;stroke-width:2.28030705px;stroke-linecap:butt;stroke-linejoin:miter;stroke-opacity:1" />
    <path
       style="fill:#ffffff;fill-opacity:1;stroke:none;stroke-width:2.28030705px;stroke-linecap:butt;stroke-linejoin:miter;stroke-opacity:1"
       d="m 259.1418,335.90242 v 36.63462 h 542.9267 v -36.63462 z"
       id="path848"
       inkscape:connector-curvature="0"
       sodipodi:nodetypes="ccccc" />
    <path
       style="fill:#b31942;fill-opacity:1;stroke:none;stroke-width:2.28030705px;stroke-linecap:butt;stroke-linejoin:miter;stroke-opacity:1"
       d="m 259.1418,299.2678 v 36.63462 H 802.0685 V 299.2678 Z"
       id="path850"
       inkscape:connector-curvature="0"
       sodipodi:nodetypes="ccccc" />
    <g
       id="g1124"
       transform="matrix(0.84922427,0,0,0.84922427,79.707316,81.877041)">
      <path
         style="fill:#ffffff;fill-opacity:1;stroke:none;stroke-width:0.26458332px;stroke-linecap:butt;stroke-linejoin:miter;stroke-opacity:1"
         d="m -1.8148052,297.80813 -8.6133498,6.25796 3.2900098,-10.1256 -8.6133498,-6.25795 h 10.6466798 l 3.28998,-10.12559 3.29002,10.12559 H 12.121855 l -8.6133502,6.25796 3.29001,10.12559 z"
         id="path1015"
         inkscape:connector-curvature="0"
         sodipodi:nodetypes="ccccccccccc" />
      <path
         sodipodi:nodetypes="ccccccccccc"
         inkscape:connector-curvature="0"
         id="path1059"
         d="m -16.231515,342.17812 8.6133498,6.25796 -3.2900098,-10.1256 8.6133498,-6.25795 H -12.941505 l -3.28998,-10.12559 -3.29002,10.12559 h -10.64667 l 8.61335,6.25796 -3.29001,10.12559 z"
         style="fill:#ffffff;fill-opacity:1;stroke:none;stroke-width:0.26458332px;stroke-linecap:butt;stroke-linejoin:miter;stroke-opacity:1" />
      <path
         style="fill:#ffffff;fill-opacity:1;stroke:none;stroke-width:0.26458332px;stroke-linecap:butt;stroke-linejoin:miter;stroke-opacity:1"
         d="m -30.648205,386.54811 8.61335,6.25796 -3.29001,-10.1256 8.61335,-6.25795 h -10.64668 l -3.28998,-10.12559 -3.29002,10.12559 h -10.64667 l 8.61335,6.25796 -3.29001,10.12559 z"
         id="path1061"
         inkscape:connector-curvature="0"
         sodipodi:nodetypes="ccccccccccc" />
      <path
         sodipodi:nodetypes="ccccccccccc"
         inkscape:connector-curvature="0"
         id="path1063"
         d="m -118.63159,382.68046 3.29,10.1256 -8.61335,-6.25797 -8.61334,6.25797 3.29001,-10.12559 -8.61335,-6.25794 10.64668,-10e-6 3.29,-10.12559 3.29,10.1256 10.64668,-10e-6 z"
         style="fill:#ffffff;fill-opacity:1;stroke:none;stroke-width:0.26458332px;stroke-linecap:butt;stroke-linejoin:miter;stroke-opacity:1" />
      <path
         sodipodi:nodetypes="ccccccccccc"
         inkscape:connector-curvature="0"
         id="path1065"
         d="m -71.978224,382.68045 3.290002,10.1256 -8.613349,-6.25796 -8.613336,6.25797 3.290005,-10.1256 -8.613348,-6.25794 10.64668,-1e-5 3.290002,-10.12559 3.290002,10.1256 h 10.646678 z"
         style="fill:#ffffff;fill-opacity:1;stroke:none;stroke-width:0.26458332px;stroke-linecap:butt;stroke-linejoin:miter;stroke-opacity:1" />
      <path
         style="fill:#ffffff;fill-opacity:1;stroke:none;stroke-width:0.26458332px;stroke-linecap:butt;stroke-linejoin:miter;stroke-opacity:1"
         d="m -80.888235,410.10265 8.613345,-6.25797 h -10.646686 l -3.289993,-10.12559 -3.290005,10.12559 -10.646666,-2e-5 8.613334,6.25797 -3.290002,10.12559 8.613345,-6.25797 8.61334,6.25797 z"
         id="path1069"
         inkscape:connector-curvature="0"
         sodipodi:nodetypes="ccccccccccc" />
      <path
         sodipodi:nodetypes="ccccccccccc"
         inkscape:connector-curvature="0"
         id="path1071"
         d="m -43.144869,437.52482 8.613345,-6.25797 h -10.646687 l -3.289992,-10.12559 -3.290005,10.12559 -10.646668,-2e-5 8.613336,6.25797 -3.290002,10.12559 8.613345,-6.25797 8.61334,6.25797 z"
         style="fill:#ffffff;fill-opacity:1;stroke:none;stroke-width:0.26458332px;stroke-linecap:butt;stroke-linejoin:miter;stroke-opacity:1" />
      <path
         style="fill:#ffffff;fill-opacity:1;stroke:none;stroke-width:0.26458332px;stroke-linecap:butt;stroke-linejoin:miter;stroke-opacity:1"
         d="m -74.011586,520.00681 10.64669,10e-6 -8.61336,6.25796 3.29002,10.12559 -8.61334,-6.25796 -8.61333,6.25797 3.29,-10.1256 -8.61335,-6.25795 10.64669,10e-6 3.28999,-10.1256 z"
         id="path1075"
         inkscape:connector-curvature="0"
         sodipodi:nodetypes="ccccccccccc" />
      <path
         style="fill:#ffffff;fill-opacity:1;stroke:none;stroke-width:0.26458332px;stroke-linecap:butt;stroke-linejoin:miter;stroke-opacity:1"
         d="m -59.594911,475.63682 10.646685,10e-6 -8.613345,6.25796 3.290016,10.12559 -8.613351,-6.25796 -8.61333,6.25797 3.29,-10.1256 -8.61334,-6.25796 10.64668,1e-5 3.29001,-10.12559 z"
         id="path1077"
         inkscape:connector-curvature="0"
         sodipodi:nodetypes="ccccccccccc" />
      <path
         sodipodi:nodetypes="ccccccccccc"
         inkscape:connector-curvature="0"
         id="path1080"
         d="m -36.268194,492.58467 -3.290013,-10.1256 -3.290007,10.1256 -10.646672,-1e-5 8.613341,6.25796 -3.29002,10.12558 8.61335,-6.25795 8.613342,6.25796 -3.290013,-10.1256 8.613351,-6.25795 z"
         style="fill:#ffffff;fill-opacity:1;stroke:none;stroke-width:0.26458332px;stroke-linecap:butt;stroke-linejoin:miter;stroke-opacity:1" />
      <path
         style="fill:#ffffff;fill-opacity:1;stroke:none;stroke-width:0.26458332px;stroke-linecap:butt;stroke-linejoin:miter;stroke-opacity:1"
         d="m 1.475181,465.16251 -3.290013,-10.12559 -3.290007,10.1256 -10.646672,-10e-6 8.613341,6.25796 -3.29002,10.12557 8.61335,-6.25795 8.613342,6.25796 -3.290013,-10.1256 8.613351,-6.25795 z"
         id="path1082"
         inkscape:connector-curvature="0"
         sodipodi:nodetypes="ccccccccccc" />
      <path
         style="fill:#ffffff;fill-opacity:1;stroke:none;stroke-width:0.26458332px;stroke-linecap:butt;stroke-linejoin:miter;stroke-opacity:1"
         d="m 12.601905,342.17812 -8.6133502,6.25796 3.29001,-10.1256 -8.61335,-6.25795 h 10.64668 l 3.2899802,-10.12559 3.29002,10.12559 h 10.64667 l -8.61335,6.25796 3.29001,10.12559 z"
         id="path1086"
         inkscape:connector-curvature="0"
         sodipodi:nodetypes="ccccccccccc" />
      <path
         sodipodi:nodetypes="ccccccccccc"
         inkscape:connector-curvature="0"
         id="path1088"
         d="m 27.018595,386.54811 -8.61335,6.25796 3.29001,-10.1256 -8.61335,-6.25795 h 10.64668 l 3.28998,-10.12559 3.29002,10.12559 h 10.64667 l -8.61335,6.25796 3.29001,10.12559 z"
         style="fill:#ffffff;fill-opacity:1;stroke:none;stroke-width:0.26458332px;stroke-linecap:butt;stroke-linejoin:miter;stroke-opacity:1" />
      <path
         style="fill:#ffffff;fill-opacity:1;stroke:none;stroke-width:0.26458332px;stroke-linecap:butt;stroke-linejoin:miter;stroke-opacity:1"
         d="m 115.00198,382.68046 -3.29,10.1256 8.61335,-6.25797 8.61334,6.25797 -3.29001,-10.12559 8.61335,-6.25794 -10.64668,-10e-6 -3.29,-10.12559 -3.29,10.1256 -10.64668,-10e-6 z"
         id="path1090"
         inkscape:connector-curvature="0"
         sodipodi:nodetypes="ccccccccccc" />
      <path
         style="fill:#ffffff;fill-opacity:1;stroke:none;stroke-width:0.26458332px;stroke-linecap:butt;stroke-linejoin:miter;stroke-opacity:1"
         d="m 68.348614,382.68045 -3.290002,10.1256 8.613349,-6.25796 8.613336,6.25797 -3.290005,-10.1256 8.613348,-6.25794 -10.64668,-1e-5 -3.290002,-10.12559 -3.290002,10.1256 H 59.735278 Z"
         id="path1092"
         inkscape:connector-curvature="0"
         sodipodi:nodetypes="ccccccccccc" />
      <path
         sodipodi:nodetypes="ccccccccccc"
         inkscape:connector-curvature="0"
         id="path1094"
         d="m 77.258625,410.10265 -8.613345,-6.25797 h 10.646686 l 3.289993,-10.12559 3.290005,10.12559 10.646666,-2e-5 -8.613334,6.25797 3.290002,10.12559 -8.613345,-6.25797 -8.61334,6.25797 z"
         style="fill:#ffffff;fill-opacity:1;stroke:none;stroke-width:0.26458332px;stroke-linecap:butt;stroke-linejoin:miter;stroke-opacity:1" />
      <path
         style="fill:#ffffff;fill-opacity:1;stroke:none;stroke-width:0.26458332px;stroke-linecap:butt;stroke-linejoin:miter;stroke-opacity:1"
         d="m 39.515259,437.52482 -8.613345,-6.25797 h 10.646687 l 3.289992,-10.12559 3.290005,10.12559 10.646668,-2e-5 -8.613336,6.25797 3.290002,10.12559 -8.613345,-6.25797 -8.61334,6.25797 z"
         id="path1096"
         inkscape:connector-curvature="0"
         sodipodi:nodetypes="ccccccccccc" />
      <path
         sodipodi:nodetypes="ccccccccccc"
         inkscape:connector-curvature="0"
         id="path1098"
         d="m 70.381976,520.00681 -10.64669,10e-6 8.61336,6.25796 -3.29002,10.12559 8.61334,-6.25796 8.61333,6.25797 -3.29,-10.1256 8.61335,-6.25795 -10.64669,10e-6 -3.28999,-10.1256 z"
         style="fill:#ffffff;fill-opacity:1;stroke:none;stroke-width:0.26458332px;stroke-linecap:butt;stroke-linejoin:miter;stroke-opacity:1" />
      <path
         sodipodi:nodetypes="ccccccccccc"
         inkscape:connector-curvature="0"
         id="path1100"
         d="m 55.965301,475.63682 -10.646685,10e-6 8.613345,6.25796 -3.290016,10.12559 8.613351,-6.25796 8.61333,6.25797 -3.29,-10.1256 8.61334,-6.25796 -10.64668,1e-5 -3.29001,-10.12559 z"
         style="fill:#ffffff;fill-opacity:1;stroke:none;stroke-width:0.26458332px;stroke-linecap:butt;stroke-linejoin:miter;stroke-opacity:1" />
      <path
         style="fill:#ffffff;fill-opacity:1;stroke:none;stroke-width:0.26458332px;stroke-linecap:butt;stroke-linejoin:miter;stroke-opacity:1"
         d="m 32.638584,492.58467 3.290013,-10.1256 3.290007,10.1256 10.646672,-1e-5 -8.613341,6.25796 3.29002,10.12558 -8.61335,-6.25795 -8.613342,6.25796 3.290013,-10.1256 -8.613351,-6.25795 z"
         id="path1102"
         inkscape:connector-curvature="0"
         sodipodi:nodetypes="ccccccccccc" />
    </g>
  </g>
</svg>
