<?xml version="1.0" encoding="UTF-8" standalone="no"?>
<!-- Created with Inkscape (http://www.inkscape.org/) -->

<svg
   width="3636"
   height="1800"
   viewBox="0 0 962.02499 476.25001"
   version="1.1"
   id="svg8"
   inkscape:export-filename="C:\Users\厂永刄先生\Documents\GXI3CW2\JáÈŭcèŭ\Maqkàla\Maqkàla.png"
   inkscape:export-xdpi="96"
   inkscape:export-ydpi="96"
   inkscape:version="1.3 (0e150ed6c4, 2023-07-21)"
   sodipodi:docname="gd_1974 - コピー.svg"
   xmlns:inkscape="http://www.inkscape.org/namespaces/inkscape"
   xmlns:sodipodi="http://sodipodi.sourceforge.net/DTD/sodipodi-0.dtd"
   xmlns="http://www.w3.org/2000/svg"
   xmlns:svg="http://www.w3.org/2000/svg"
   xmlns:rdf="http://www.w3.org/1999/02/22-rdf-syntax-ns#"
   xmlns:cc="http://creativecommons.org/ns#"
   xmlns:dc="http://purl.org/dc/elements/1.1/">
  <defs
     id="defs2" />
  <sodipodi:namedview
     id="base"
     pagecolor="#ffffff"
     bordercolor="#666666"
     borderopacity="1.0"
     inkscape:pageopacity="0.0"
     inkscape:pageshadow="2"
     inkscape:zoom="0.15111111"
     inkscape:cx="1651.103"
     inkscape:cy="1915.8088"
     inkscape:document-units="px"
     inkscape:current-layer="g1364"
     showgrid="false"
     units="px"
     fit-margin-top="0"
     fit-margin-left="0"
     fit-margin-right="0"
     fit-margin-bottom="0"
     inkscape:showpageshadow="false"
     inkscape:snap-intersection-paths="false"
     inkscape:object-paths="false"
     inkscape:pagecheckerboard="true"
     inkscape:snap-smooth-nodes="true"
     inkscape:window-width="1920"
     inkscape:window-height="1009"
     inkscape:window-x="-8"
     inkscape:window-y="-8"
     inkscape:window-maximized="1"
     inkscape:object-nodes="true"
     inkscape:snap-nodes="true"
     inkscape:deskcolor="#505050" />
  <metadata
     id="metadata5">
    <rdf:RDF>
      <cc:Work
         rdf:about="">
        <dc:format>image/svg+xml</dc:format>
        <dc:type
           rdf:resource="http://purl.org/dc/dcmitype/StillImage" />
      </cc:Work>
    </rdf:RDF>
  </metadata>
  <g
     inkscape:label="レイヤー 1"
     inkscape:groupmode="layer"
     id="layer1"
     transform="translate(112.33452,-299.26786)">
    <g
       id="g1364"
       inkscape:export-xdpi="96"
       inkscape:export-ydpi="96">
      <path
         style="fill:#ff0000;fill-opacity:1;stroke:none;stroke-width:2.1357px;stroke-linecap:butt;stroke-linejoin:miter;stroke-opacity:1"
         d="m 770.31547,378.64286 79.37501,-79.375 h -952.5 l 79.375005,79.375 z"
         id="path7"
         inkscape:connector-curvature="0"
         sodipodi:nodetypes="ccccc" />
      <path
         id="path21"
         style="fill:#ffc000;fill-opacity:1;stroke-width:0.326006;stroke-linecap:round;stroke-linejoin:round;stroke-miterlimit:155;paint-order:stroke fill markers"
         d="m 373.44048,311.17411 6.23727,19.19637 h 20.18427 l -16.32942,11.86401 6.23729,19.19637 -16.32941,-11.86401 -16.32941,11.86401 6.23728,-19.19638 -16.32941,-11.864 20.18425,-10e-6 z"
         sodipodi:nodetypes="ccccccccccc" />
      <path
         sodipodi:nodetypes="ccccc"
         inkscape:connector-curvature="0"
         id="path1079"
         d="m -102.80952,299.26786 h -9.525 v 476.25 h 9.525 z"
         style="fill:#ffffff;fill-opacity:1;stroke:none;stroke-width:0.511668px;stroke-linecap:butt;stroke-linejoin:miter;stroke-opacity:1" />
      <path
         style="fill:#ff0000;fill-opacity:1;stroke:none;stroke-width:2.1357px;stroke-linecap:butt;stroke-linejoin:miter;stroke-opacity:1"
         d="m 770.31547,378.64286 79.37501,-79.375 v 476.25 l -79.37501,-79.37501 z"
         id="path824"
         inkscape:connector-curvature="0"
         sodipodi:nodetypes="ccccc" />
      <path
         style="fill:#00a800;fill-opacity:1;stroke:none;stroke-width:1.74379px;stroke-linecap:butt;stroke-linejoin:miter;stroke-opacity:1"
         d="M -23.434515,696.14285 V 378.64286 L 373.44048,537.39285 Z"
         id="path5"
         inkscape:connector-curvature="0"
         sodipodi:nodetypes="cccc" />
      <path
         style="fill:#ff0000;fill-opacity:1;stroke:none;stroke-width:2.1357px;stroke-linecap:butt;stroke-linejoin:miter;stroke-opacity:1"
         d="m -23.434515,696.14285 -79.375005,79.37501 v -476.25 l 79.375005,79.375 z"
         id="path6"
         inkscape:connector-curvature="0"
         sodipodi:nodetypes="ccccc" />
      <path
         style="fill:#ff0000;fill-opacity:1;stroke:none;stroke-width:2.1357px;stroke-linecap:butt;stroke-linejoin:miter;stroke-opacity:1"
         d="m -23.434515,696.14285 -79.375005,79.37501 h 952.5 l -79.37501,-79.37501 z"
         id="path8"
         inkscape:connector-curvature="0"
         sodipodi:nodetypes="ccccc" />
      <path
         style="fill:#00a800;fill-opacity:1;stroke:none;stroke-width:1.74379px;stroke-linecap:butt;stroke-linejoin:miter;stroke-opacity:1"
         d="M 770.31547,696.14285 V 378.64286 L 373.44048,537.39285 Z"
         id="path9"
         inkscape:connector-curvature="0"
         sodipodi:nodetypes="cccc" />
      <path
         style="fill:#ffd42a;fill-opacity:1;stroke:none;stroke-width:1.74379px;stroke-linecap:butt;stroke-linejoin:miter;stroke-opacity:1"
         d="M -23.434515,378.64286 H 770.31547 L 373.44048,537.39285 Z"
         id="path10"
         inkscape:connector-curvature="0"
         sodipodi:nodetypes="cccc" />
      <path
         style="fill:#ffd42a;fill-opacity:1;stroke:none;stroke-width:1.74379px;stroke-linecap:butt;stroke-linejoin:miter;stroke-opacity:1"
         d="M 770.31547,696.14285 H -23.434515 l 396.874995,-158.75 z"
         id="path11"
         inkscape:connector-curvature="0"
         sodipodi:nodetypes="cccc" />
      <circle
         style="fill:#ff0000;fill-opacity:1;stroke:none;stroke-width:9.41082;stroke-linecap:round;stroke-linejoin:round;stroke-miterlimit:155;paint-order:stroke fill markers"
         id="path12"
         cx="373.44049"
         cy="537.39288"
         r="59.53125" />
      <path
         id="path20"
         style="fill:#ffc000;fill-opacity:1;stroke-width:0.558867;stroke-linecap:round;stroke-linejoin:round;stroke-miterlimit:155;paint-order:stroke fill markers"
         d="m 373.44048,489.76788 10.69247,32.90806 34.6016,10e-6 -27.99328,20.33829 10.69248,32.90808 -27.99327,-20.33832 -27.99327,20.33831 10.69247,-32.90808 -27.99327,-20.33829 h 34.60158 z"
         sodipodi:nodetypes="ccccccccccc" />
      <path
         id="path28"
         style="fill:#ffc000;fill-opacity:1;stroke-width:0.326006;stroke-linecap:round;stroke-linejoin:round;stroke-miterlimit:155;paint-order:stroke fill markers"
         d="m 159.12798,311.17411 6.23727,19.19637 h 20.18427 l -16.32941,11.86401 6.23728,19.19637 -16.3294,-11.86401 -16.32941,11.86401 6.23727,-19.19638 -16.3294,-11.864 20.18424,-10e-6 z"
         sodipodi:nodetypes="ccccccccccc" />
      <path
         id="path29"
         style="fill:#ffc000;fill-opacity:1;stroke-width:0.326006;stroke-linecap:round;stroke-linejoin:round;stroke-miterlimit:155;paint-order:stroke fill markers"
         d="m 159.12798,708.04911 6.23727,19.19637 h 20.18427 l -16.32941,11.86401 6.23728,19.19637 -16.3294,-11.86401 -16.32941,11.86401 6.23727,-19.19638 -16.3294,-11.864 20.18424,-1e-5 z"
         sodipodi:nodetypes="ccccccccccc" />
      <path
         id="path30"
         style="fill:#ffc000;fill-opacity:1;stroke-width:0.326006;stroke-linecap:round;stroke-linejoin:round;stroke-miterlimit:155;paint-order:stroke fill markers"
         d="m 373.44048,708.04911 6.23727,19.19637 h 20.18427 l -16.32941,11.86401 6.23728,19.19637 -16.3294,-11.86401 -16.32942,11.86401 6.23728,-19.19638 -16.32941,-11.864 20.18425,-1e-5 z"
         sodipodi:nodetypes="ccccccccccc" />
      <path
         id="path31"
         style="fill:#ffc000;fill-opacity:1;stroke-width:0.326006;stroke-linecap:round;stroke-linejoin:round;stroke-miterlimit:155;paint-order:stroke fill markers"
         d="m 587.753,708.04911 6.23727,19.19637 h 20.18427 l -16.32941,11.86401 6.23728,19.19637 -16.3294,-11.86401 -16.32942,11.86401 6.23728,-19.19638 -16.32941,-11.864 20.18425,-1e-5 z"
         sodipodi:nodetypes="ccccccccccc" />
      <path
         id="path32"
         style="fill:#ffc000;fill-opacity:1;stroke-width:0.326006;stroke-linecap:round;stroke-linejoin:round;stroke-miterlimit:155;paint-order:stroke fill markers"
         d="m 587.753,311.17411 6.23727,19.19637 h 20.18427 l -16.32942,11.86401 6.23729,19.19637 -16.32941,-11.86401 -16.32941,11.86401 6.23728,-19.19638 -16.32941,-11.864 20.18425,-10e-6 z"
         sodipodi:nodetypes="ccccccccccc" />
      <g
         id="g35"
         transform="matrix(0.44644375,-0.44644375,0.44644375,0.44644375,-24.627504,558.25743)">
        <path
           style="fill:#ff0000;fill-opacity:1;stroke:none;stroke-width:5.8019;stroke-linecap:round;stroke-linejoin:round;stroke-miterlimit:155;paint-order:stroke fill markers"
           d="m 126.61623,142.07427 c 49.16659,-51.930956 9.98365,-65.932456 0,-103.191926 -9.98365,37.25947 -49.166593,51.26097 0,103.191926 z"
           id="path34"
           sodipodi:nodetypes="ccc" />
        <path
           style="fill:#ffc000;fill-opacity:1;stroke:none;stroke-width:5.8019;stroke-linecap:round;stroke-linejoin:round;stroke-miterlimit:155;paint-order:stroke fill markers"
           d="M 153.32017,142.07427 C 217.41581,77.978626 126.61623,43.376512 126.61623,-9.0157461 c 0,52.3922581 -90.799581,86.9943721 -26.70394,151.0900161 3.47462,-19.65927 14.28529,-37.02817 26.70394,-47.89809 12.41865,10.86992 23.22932,28.23882 26.70394,47.89809 z"
           id="path33"
           sodipodi:nodetypes="ccccc" />
      </g>
    </g>
  </g>
</svg>
