<?xml version="1.0" encoding="UTF-8" standalone="no"?>
<!-- Created with Inkscape (http://www.inkscape.org/) -->

<svg
   width="3036"
   height="1800"
   viewBox="0 0 803.27499 476.25001"
   version="1.1"
   id="svg8"
   inkscape:export-filename="C:\Users\厂永刄先生\Documents\GXI3CW2\JáÈŭcèŭ\Maqkàla\Maqkàla.png"
   inkscape:export-xdpi="96"
   inkscape:export-ydpi="96"
   inkscape:version="1.3 (0e150ed6c4, 2023-07-21)"
   sodipodi:docname="gd_1974.svg"
   xmlns:inkscape="http://www.inkscape.org/namespaces/inkscape"
   xmlns:sodipodi="http://sodipodi.sourceforge.net/DTD/sodipodi-0.dtd"
   xmlns="http://www.w3.org/2000/svg"
   xmlns:svg="http://www.w3.org/2000/svg"
   xmlns:rdf="http://www.w3.org/1999/02/22-rdf-syntax-ns#"
   xmlns:cc="http://creativecommons.org/ns#"
   xmlns:dc="http://purl.org/dc/elements/1.1/">
  <defs
     id="defs2" />
  <sodipodi:namedview
     id="base"
     pagecolor="#ffffff"
     bordercolor="#666666"
     borderopacity="1.0"
     inkscape:pageopacity="0.0"
     inkscape:pageshadow="2"
     inkscape:zoom="0.30222222"
     inkscape:cx="1149.8162"
     inkscape:cy="928.12501"
     inkscape:document-units="px"
     inkscape:current-layer="g1364"
     showgrid="false"
     units="px"
     fit-margin-top="0"
     fit-margin-left="0"
     fit-margin-right="0"
     fit-margin-bottom="0"
     inkscape:showpageshadow="false"
     inkscape:snap-intersection-paths="false"
     inkscape:object-paths="false"
     inkscape:pagecheckerboard="true"
     inkscape:snap-smooth-nodes="true"
     inkscape:window-width="1920"
     inkscape:window-height="1009"
     inkscape:window-x="-8"
     inkscape:window-y="-8"
     inkscape:window-maximized="1"
     inkscape:object-nodes="true"
     inkscape:snap-nodes="true"
     inkscape:deskcolor="#505050" />
  <metadata
     id="metadata5">
    <rdf:RDF>
      <cc:Work
         rdf:about="">
        <dc:format>image/svg+xml</dc:format>
        <dc:type
           rdf:resource="http://purl.org/dc/dcmitype/StillImage" />
      </cc:Work>
    </rdf:RDF>
  </metadata>
  <g
     inkscape:label="レイヤー 1"
     inkscape:groupmode="layer"
     id="layer1"
     transform="translate(112.33452,-299.26786)">
    <g
       id="g1364"
       inkscape:export-xdpi="96"
       inkscape:export-ydpi="96">
      <path
         style="fill:#ff0000;fill-opacity:1;stroke:none;stroke-width:2.1357px;stroke-linecap:butt;stroke-linejoin:miter;stroke-opacity:1"
         d="m 611.56547,378.64286 79.37501,-79.375 -793.75,0 79.375005,79.375 z"
         id="path7"
         inkscape:connector-curvature="0"
         sodipodi:nodetypes="ccccc" />
      <path
         id="path21"
         style="fill:#ffc000;stroke-width:7.14375;stroke-linecap:round;stroke-linejoin:round;stroke-miterlimit:155;paint-order:stroke fill markers;fill-opacity:1"
         transform="matrix(0.04563508,0,0,0.04563508,266.51831,371.62759)"
         d="m 603.64046,-1324.7152 136.67699,420.64943 442.29725,2e-5 -357.82587,259.97581 136.67739,420.64928 L 603.6405,-483.4163 245.81464,-223.44068 382.49183,-644.09025 24.666159,-904.06578 l 442.296761,-4e-5 z"
         sodipodi:nodetypes="ccccccccccc" />
      <path
         sodipodi:nodetypes="ccccc"
         inkscape:connector-curvature="0"
         id="path1079"
         d="m -102.80952,299.26786 h -9.525 v 476.25 h 9.525 z"
         style="fill:#ffffff;fill-opacity:1;stroke:none;stroke-width:0.511668px;stroke-linecap:butt;stroke-linejoin:miter;stroke-opacity:1" />
      <path
         style="fill:#ff0000;fill-opacity:1;stroke:none;stroke-width:2.1357px;stroke-linecap:butt;stroke-linejoin:miter;stroke-opacity:1"
         d="m 611.56547,378.64286 79.37501,-79.375 v 476.25 l -79.37501,-79.37501 z"
         id="path824"
         inkscape:connector-curvature="0"
         sodipodi:nodetypes="ccccc" />
      <path
         style="fill:#00a800;fill-opacity:1;stroke:none;stroke-width:1.55969px;stroke-linecap:butt;stroke-linejoin:miter;stroke-opacity:1"
         d="M -23.434515,696.14285 V 378.64286 L 294.06548,537.39285 Z"
         id="path5"
         inkscape:connector-curvature="0"
         sodipodi:nodetypes="cccc" />
      <path
         style="fill:#ff0000;fill-opacity:1;stroke:none;stroke-width:2.1357px;stroke-linecap:butt;stroke-linejoin:miter;stroke-opacity:1"
         d="m -23.434515,696.14285 -79.375005,79.37501 v -476.25 l 79.375005,79.375 z"
         id="path6"
         inkscape:connector-curvature="0"
         sodipodi:nodetypes="ccccc" />
      <path
         style="fill:#ff0000;fill-opacity:1;stroke:none;stroke-width:2.1357px;stroke-linecap:butt;stroke-linejoin:miter;stroke-opacity:1"
         d="m -23.434515,696.14285 -79.375005,79.37501 h 793.75 l -79.37501,-79.37501 z"
         id="path8"
         inkscape:connector-curvature="0"
         sodipodi:nodetypes="ccccc" />
      <path
         style="fill:#00a800;fill-opacity:1;stroke:none;stroke-width:1.55969px;stroke-linecap:butt;stroke-linejoin:miter;stroke-opacity:1"
         d="M 611.56547,696.14285 V 378.64286 L 294.06548,537.39285 Z"
         id="path9"
         inkscape:connector-curvature="0"
         sodipodi:nodetypes="cccc" />
      <path
         style="fill:#ffd42a;fill-opacity:1;stroke:none;stroke-width:1.55969px;stroke-linecap:butt;stroke-linejoin:miter;stroke-opacity:1"
         d="M -23.434515,378.64286 H 611.56547 L 294.06548,537.39285 Z"
         id="path10"
         inkscape:connector-curvature="0"
         sodipodi:nodetypes="cccc" />
      <path
         style="fill:#ffd42a;fill-opacity:1;stroke:none;stroke-width:1.55969px;stroke-linecap:butt;stroke-linejoin:miter;stroke-opacity:1"
         d="M 611.56547,696.14285 H -23.434515 l 317.499995,-158.75 z"
         id="path11"
         inkscape:connector-curvature="0"
         sodipodi:nodetypes="cccc" />
      <circle
         style="fill:#ff0000;stroke:none;stroke-width:9.41082;stroke-linecap:round;stroke-linejoin:round;stroke-miterlimit:155;paint-order:stroke fill markers;fill-opacity:1"
         id="path12"
         cx="294.06549"
         cy="537.39288"
         r="59.53125" />
      <path
         id="path20"
         style="fill:#ffc000;stroke-width:7.14375;stroke-linecap:round;stroke-linejoin:round;stroke-miterlimit:155;paint-order:stroke fill markers;fill-opacity:1"
         transform="matrix(0.07823157,0,0,0.07823157,246.84175,593.40243)"
         d="m 603.64046,-1324.7152 136.6771,420.64936 442.29714,9e-5 -357.82587,259.97553 136.67739,420.64956 -357.82581,-259.97585 -357.82577,259.97583 136.6772,-420.64967 -357.825681,-259.97543 442.296811,-6e-5 z"
         sodipodi:nodetypes="ccccccccccc" />
      <path
         id="path28"
         style="fill:#ffc000;stroke-width:0.326006;stroke-linecap:round;stroke-linejoin:round;stroke-miterlimit:155;paint-order:stroke fill markers;fill-opacity:1"
         d="m 115.47173,311.17411 6.23727,19.19637 h 20.18427 l -16.32941,11.86401 6.23728,19.19637 -16.3294,-11.86401 -16.329416,11.86401 6.237276,-19.19638 -16.329405,-11.864 20.184245,-10e-6 z"
         sodipodi:nodetypes="ccccccccccc" />
      <path
         id="path29"
         style="fill:#ffc000;stroke-width:0.326006;stroke-linecap:round;stroke-linejoin:round;stroke-miterlimit:155;paint-order:stroke fill markers;fill-opacity:1"
         d="m 115.47173,708.04911 6.23727,19.19637 h 20.18427 l -16.32941,11.86401 6.23728,19.19637 -16.3294,-11.86401 -16.329412,11.86401 6.237272,-19.19638 -16.329401,-11.864 20.184241,-1e-5 z"
         sodipodi:nodetypes="ccccccccccc" />
      <path
         id="path30"
         style="fill:#ffc000;stroke-width:0.326006;stroke-linecap:round;stroke-linejoin:round;stroke-miterlimit:155;paint-order:stroke fill markers;fill-opacity:1"
         d="m 294.06549,708.04911 6.23727,19.19637 h 20.18427 l -16.32941,11.86401 6.23728,19.19637 -16.3294,-11.86401 -16.32942,11.86401 6.23728,-19.19638 -16.32941,-11.864 20.18425,-1e-5 z"
         sodipodi:nodetypes="ccccccccccc" />
      <path
         id="path31"
         style="fill:#ffc000;stroke-width:0.326006;stroke-linecap:round;stroke-linejoin:round;stroke-miterlimit:155;paint-order:stroke fill markers;fill-opacity:1"
         d="m 472.65924,708.04911 6.23727,19.19637 h 20.18427 l -16.32941,11.86401 6.23728,19.19637 -16.3294,-11.86401 -16.32942,11.86401 6.23728,-19.19638 -16.32941,-11.864 20.18425,-1e-5 z"
         sodipodi:nodetypes="ccccccccccc" />
      <path
         id="path32"
         style="fill:#ffc000;stroke-width:0.326006;stroke-linecap:round;stroke-linejoin:round;stroke-miterlimit:155;paint-order:stroke fill markers;fill-opacity:1"
         d="m 472.65924,311.17411 6.23727,19.19637 h 20.18427 l -16.32942,11.86401 6.23729,19.19637 -16.32941,-11.86401 -16.32941,11.86401 6.23728,-19.19638 -16.32941,-11.864 20.18425,-10e-6 z"
         sodipodi:nodetypes="ccccccccccc" />
      <g
         id="g35"
         transform="matrix(0.44644375,-0.44644375,0.44644375,0.44644375,-42.826807,558.25743)">
        <path
           style="fill:#ff0000;fill-opacity:1;stroke:none;stroke-width:5.8019;stroke-linecap:round;stroke-linejoin:round;stroke-miterlimit:155;paint-order:stroke fill markers"
           d="m 126.61623,142.07427 c 49.16659,-51.930956 9.98365,-65.932456 0,-103.191926 -9.98365,37.25947 -49.166593,51.26097 0,103.191926 z"
           id="path34"
           sodipodi:nodetypes="ccc" />
        <path
           style="fill:#ffc000;fill-opacity:1;stroke:none;stroke-width:5.8019;stroke-linecap:round;stroke-linejoin:round;stroke-miterlimit:155;paint-order:stroke fill markers"
           d="M 153.32017,142.07427 C 217.41581,77.978626 126.61623,43.376512 126.61623,-9.0157461 c 0,52.3922581 -90.799581,86.9943721 -26.70394,151.0900161 3.47462,-19.65927 14.28529,-37.02817 26.70394,-47.89809 12.41865,10.86992 23.22932,28.23882 26.70394,47.89809 z"
           id="path33"
           sodipodi:nodetypes="ccccc" />
      </g>
    </g>
  </g>
</svg>
