<?xml version="1.0" encoding="UTF-8" standalone="no"?>
<!-- Created with Inkscape (http://www.inkscape.org/) -->

<svg
   xmlns:dc="http://purl.org/dc/elements/1.1/"
   xmlns:cc="http://creativecommons.org/ns#"
   xmlns:rdf="http://www.w3.org/1999/02/22-rdf-syntax-ns#"
   xmlns:svg="http://www.w3.org/2000/svg"
   xmlns="http://www.w3.org/2000/svg"
   xmlns:sodipodi="http://sodipodi.sourceforge.net/DTD/sodipodi-0.dtd"
   xmlns:inkscape="http://www.inkscape.org/namespaces/inkscape"
   width="2736"
   height="1800"
   viewBox="0 0 723.9 476.25001"
   version="1.1"
   id="svg8"
   inkscape:export-filename="C:\Users\厂永刄先生\Documents\GXI3CW2\JáÈŭcèŭ\N̂i\大阪府\作法.png"
   inkscape:export-xdpi="96"
   inkscape:export-ydpi="96"
   inkscape:version="0.92.4 (5da689c313, 2019-01-14)"
   sodipodi:docname="描き方.svg">
  <defs
     id="defs2" />
  <sodipodi:namedview
     id="base"
     pagecolor="#ffffff"
     bordercolor="#666666"
     borderopacity="1.0"
     inkscape:pageopacity="0.0"
     inkscape:pageshadow="2"
     inkscape:zoom="0.21370339"
     inkscape:cx="1368.2535"
     inkscape:cy="900.00001"
     inkscape:document-units="px"
     inkscape:current-layer="layer1"
     showgrid="false"
     units="px"
     fit-margin-top="0"
     fit-margin-left="0"
     fit-margin-right="0"
     fit-margin-bottom="0"
     inkscape:showpageshadow="false"
     inkscape:snap-intersection-paths="true"
     inkscape:object-paths="false"
     inkscape:pagecheckerboard="true"
     inkscape:snap-smooth-nodes="true"
     inkscape:window-width="1366"
     inkscape:window-height="745"
     inkscape:window-x="-8"
     inkscape:window-y="-8"
     inkscape:window-maximized="1"
     inkscape:object-nodes="true"
     inkscape:snap-nodes="true"
     showguides="true" />
  <metadata
     id="metadata5">
    <rdf:RDF>
      <cc:Work
         rdf:about="">
        <dc:format>image/svg+xml</dc:format>
        <dc:type
           rdf:resource="http://purl.org/dc/dcmitype/StillImage" />
        <dc:title />
      </cc:Work>
    </rdf:RDF>
  </metadata>
  <g
     inkscape:label="レイヤー 1"
     inkscape:groupmode="layer"
     id="layer1"
     transform="translate(112.33452,-299.26786)">
    <path
       style="opacity:1;fill:#94adea;fill-opacity:1;fill-rule:evenodd;stroke:none;stroke-width:0.08456222;stroke-linecap:round;stroke-linejoin:round;stroke-miterlimit:4;stroke-dasharray:none;stroke-dashoffset:0;stroke-opacity:0.50196078"
       d="m 611.56548,299.26786 v 476.25 h -714.375 v -476.25 z"
       id="path822"
       inkscape:connector-curvature="0"
       sodipodi:nodetypes="ccccc" />
    <path
       style="opacity:1;fill:#ffffff;fill-opacity:1;fill-rule:evenodd;stroke:none;stroke-width:0.26458335;stroke-linecap:butt;stroke-linejoin:bevel;stroke-miterlimit:4;stroke-dasharray:none;stroke-dashoffset:0;stroke-opacity:1"
       d="m 325.81548,619.9001 c 0,-13.15127 10.66123,-23.81249 23.8125,-23.81249 4.32224,0 8.37909,1.14532 11.86937,3.16436 10.51915,6.08511 22.72837,9.57839 35.75563,9.57839 39.45382,0 71.4375,-31.98367 71.4375,-71.4375 0,-39.45384 -31.98368,-71.4375 -71.4375,-71.4375 -39.45384,0 -71.4375,31.98366 -71.4375,71.4375 0,13.15128 -10.66122,23.8125 -23.8125,23.8125 -13.15128,0 -23.8125,-10.66122 -23.8125,-23.8125 0,-8.81766 4.79446,-16.51285 11.91522,-20.632 21.3496,-12.35012 35.70978,-35.43702 35.70978,-61.87524 0,-39.45384 -31.98367,-71.4375 -71.4375,-71.4375 -39.45383,0 -71.4375,31.98366 -71.4375,71.4375 0,26.43822 14.36019,49.52512 35.70978,61.87524 7.12076,4.11915 11.91522,11.81434 11.91522,20.632 0,13.15128 -10.66122,23.8125 -23.8125,23.8125 -13.15128,0 -23.8125,-10.66122 -23.8125,-23.8125 0,-39.45384 -31.98366,-71.4375 -71.4375,-71.4375 -39.453832,0 -71.437502,31.98366 -71.437502,71.4375 0,39.45383 31.98367,71.4375 71.437502,71.4375 13.02727,0 25.23648,-3.49328 35.75564,-9.57839 3.49027,-2.01904 7.54713,-3.16436 11.86936,-3.16436 13.15128,0 23.8125,10.66122 23.8125,23.81249 0,39.45383 31.98367,71.43751 71.4375,71.43751 39.45383,0 71.4375,-31.98368 71.4375,-71.43751 z m 71.4375,-58.69474 c -13.15127,0 -23.8125,-10.66122 -23.8125,-23.8125 0,-13.15128 10.66123,-23.8125 23.8125,-23.8125 13.15128,0 23.8125,10.66122 23.8125,23.8125 0,13.15128 -10.66122,23.8125 -23.8125,23.8125 z M 278.19048,454.88562 c 0,13.15128 -10.66122,23.8125 -23.8125,23.8125 -13.15128,0 -23.8125,-10.66122 -23.8125,-23.8125 0,-13.15128 10.66122,-23.8125 23.8125,-23.8125 13.15128,0 23.8125,10.66122 23.8125,23.8125 z m -166.6875,58.69475 c 13.15128,0 23.8125,10.66121 23.8125,23.8125 0,13.15127 -10.66122,23.8125 -23.8125,23.8125 -13.151283,0 -23.812501,-10.66123 -23.812501,-23.8125 0,-13.15129 10.661218,-23.8125 23.812501,-23.8125 z m 119.0625,106.31973 c 0,-13.15128 10.66122,-23.8125 23.8125,-23.8125 13.15128,0 23.8125,10.66122 23.8125,23.8125 0,13.15128 -10.66122,23.8125 -23.8125,23.8125 -13.15128,0 -23.8125,-10.66122 -23.8125,-23.8125 z"
       id="path1012"
       inkscape:connector-curvature="0"
       sodipodi:nodetypes="sssszzszssszssszszzsssszszzzzzzzzzzzzzzzzzzzz" />
    <path
       sodipodi:nodetypes="cc"
       inkscape:connector-curvature="0"
       id="path854"
       d="m 611.56548,323.08025 h -714.375"
       style="opacity:1;fill:#7094ea;fill-opacity:1;fill-rule:evenodd;stroke:#000000;stroke-width:0.26458335;stroke-linecap:round;stroke-linejoin:round;stroke-miterlimit:4;stroke-dasharray:none;stroke-dashoffset:0;stroke-opacity:1" />
    <path
       style="fill:#ffffff;fill-opacity:1;stroke:none;stroke-width:0.51166773px;stroke-linecap:butt;stroke-linejoin:miter;stroke-opacity:1"
       d="m -102.80952,299.26786 h -9.525 v 476.25 h 9.525 z"
       id="path1079"
       inkscape:connector-curvature="0"
       sodipodi:nodetypes="ccccc" />
    <path
       style="fill:none;stroke:#000000;stroke-width:0.26458335px;stroke-linecap:butt;stroke-linejoin:miter;stroke-opacity:1"
       d="m 40.065482,299.26786 v 476.25"
       id="path889"
       inkscape:connector-curvature="0"
       sodipodi:nodetypes="cc" />
    <path
       inkscape:connector-curvature="0"
       id="path891"
       d="m 468.69049,299.26786 v 476.25"
       style="fill:none;stroke:#000000;stroke-width:0.26458335px;stroke-linecap:butt;stroke-linejoin:miter;stroke-opacity:1"
       sodipodi:nodetypes="cc" />
    <path
       style="opacity:1;fill:#7094ea;fill-opacity:1;fill-rule:evenodd;stroke:#000000;stroke-width:0.26458335;stroke-linecap:round;stroke-linejoin:round;stroke-miterlimit:4;stroke-dasharray:none;stroke-dashoffset:0;stroke-opacity:1"
       d="m 611.56548,751.70537 h -714.375"
       id="path893"
       inkscape:connector-curvature="0"
       sodipodi:nodetypes="cc" />
    <path
       style="opacity:1;fill:#7094ea;fill-opacity:1;fill-rule:evenodd;stroke:#000000;stroke-width:0.26458335;stroke-linecap:round;stroke-linejoin:round;stroke-miterlimit:4;stroke-dasharray:none;stroke-dashoffset:0;stroke-opacity:1"
       d="m 611.56548,370.70525 h -714.375"
       id="path895"
       inkscape:connector-curvature="0"
       sodipodi:nodetypes="cc" />
    <path
       sodipodi:nodetypes="cc"
       inkscape:connector-curvature="0"
       id="path897"
       d="m 611.56548,561.2053 h -714.375"
       style="opacity:1;fill:#7094ea;fill-opacity:1;fill-rule:evenodd;stroke:#000000;stroke-width:0.26458335;stroke-linecap:round;stroke-linejoin:round;stroke-miterlimit:4;stroke-dasharray:none;stroke-dashoffset:0;stroke-opacity:1" />
    <path
       sodipodi:nodetypes="cc"
       inkscape:connector-curvature="0"
       id="path899"
       d="m 611.56548,418.33025 h -714.375"
       style="opacity:1;fill:#7094ea;fill-opacity:1;fill-rule:evenodd;stroke:#000000;stroke-width:0.26458335;stroke-linecap:round;stroke-linejoin:round;stroke-miterlimit:4;stroke-dasharray:none;stroke-dashoffset:0;stroke-opacity:1" />
    <path
       sodipodi:nodetypes="cc"
       inkscape:connector-curvature="0"
       id="path901"
       d="m 611.56548,465.95525 h -714.375"
       style="opacity:1;fill:#7094ea;fill-opacity:1;fill-rule:evenodd;stroke:#000000;stroke-width:0.26458335;stroke-linecap:round;stroke-linejoin:round;stroke-miterlimit:4;stroke-dasharray:none;stroke-dashoffset:0;stroke-opacity:1" />
    <path
       style="opacity:1;fill:#7094ea;fill-opacity:1;fill-rule:evenodd;stroke:#000000;stroke-width:0.26458335;stroke-linecap:round;stroke-linejoin:round;stroke-miterlimit:4;stroke-dasharray:none;stroke-dashoffset:0;stroke-opacity:1"
       d="m 611.56548,537.39278 h -714.375"
       id="path903"
       inkscape:connector-curvature="0"
       sodipodi:nodetypes="cc" />
    <path
       style="opacity:1;fill:#7094ea;fill-opacity:1;fill-rule:evenodd;stroke:#000000;stroke-width:0.26458335;stroke-linecap:round;stroke-linejoin:round;stroke-miterlimit:4;stroke-dasharray:none;stroke-dashoffset:0;stroke-opacity:1"
       d="m 611.56548,608.83033 h -714.375"
       id="path905"
       inkscape:connector-curvature="0"
       sodipodi:nodetypes="cc" />
    <path
       style="opacity:1;fill:#7094ea;fill-opacity:1;fill-rule:evenodd;stroke:#000000;stroke-width:0.26458335;stroke-linecap:round;stroke-linejoin:round;stroke-miterlimit:4;stroke-dasharray:none;stroke-dashoffset:0;stroke-opacity:1"
       d="m 611.56548,656.45535 h -714.375"
       id="path907"
       inkscape:connector-curvature="0"
       sodipodi:nodetypes="cc" />
    <path
       sodipodi:nodetypes="cc"
       inkscape:connector-curvature="0"
       id="path909"
       d="m 611.56548,727.89286 h -714.375"
       style="opacity:1;fill:#7094ea;fill-opacity:1;fill-rule:evenodd;stroke:#000000;stroke-width:0.26458335;stroke-linecap:round;stroke-linejoin:round;stroke-miterlimit:4;stroke-dasharray:none;stroke-dashoffset:0;stroke-opacity:1" />
    <path
       sodipodi:nodetypes="cc"
       inkscape:connector-curvature="0"
       id="path911"
       d="m 611.56548,394.51775 h -714.375"
       style="opacity:1;fill:#7094ea;fill-opacity:1;fill-rule:evenodd;stroke:#000000;stroke-width:0.26458335;stroke-linecap:round;stroke-linejoin:round;stroke-miterlimit:4;stroke-dasharray:none;stroke-dashoffset:0;stroke-opacity:1" />
    <path
       style="opacity:1;fill:#7094ea;fill-opacity:1;fill-rule:evenodd;stroke:#000000;stroke-width:0.26458335;stroke-linecap:round;stroke-linejoin:round;stroke-miterlimit:4;stroke-dasharray:none;stroke-dashoffset:0;stroke-opacity:1"
       d="m 611.56548,585.01782 h -714.375"
       id="path913"
       inkscape:connector-curvature="0"
       sodipodi:nodetypes="cc" />
    <path
       style="opacity:1;fill:#7094ea;fill-opacity:1;fill-rule:evenodd;stroke:#000000;stroke-width:0.26458335;stroke-linecap:round;stroke-linejoin:round;stroke-miterlimit:4;stroke-dasharray:none;stroke-dashoffset:0;stroke-opacity:1"
       d="m 611.56548,442.14275 h -714.375"
       id="path915"
       inkscape:connector-curvature="0"
       sodipodi:nodetypes="cc" />
    <path
       style="opacity:1;fill:#7094ea;fill-opacity:1;fill-rule:evenodd;stroke:#000000;stroke-width:0.26458335;stroke-linecap:round;stroke-linejoin:round;stroke-miterlimit:4;stroke-dasharray:none;stroke-dashoffset:0;stroke-opacity:1"
       d="m 611.56548,489.76775 h -714.375"
       id="path917"
       inkscape:connector-curvature="0"
       sodipodi:nodetypes="cc" />
    <path
       sodipodi:nodetypes="cc"
       inkscape:connector-curvature="0"
       id="path919"
       d="m 611.56548,513.58027 h -714.375"
       style="opacity:1;fill:#7094ea;fill-opacity:1;fill-rule:evenodd;stroke:#000000;stroke-width:0.26458335;stroke-linecap:round;stroke-linejoin:round;stroke-miterlimit:4;stroke-dasharray:none;stroke-dashoffset:0;stroke-opacity:1" />
    <path
       sodipodi:nodetypes="cc"
       inkscape:connector-curvature="0"
       id="path921"
       d="m 611.56548,632.64285 h -714.375"
       style="opacity:1;fill:#7094ea;fill-opacity:1;fill-rule:evenodd;stroke:#000000;stroke-width:0.26458335;stroke-linecap:round;stroke-linejoin:round;stroke-miterlimit:4;stroke-dasharray:none;stroke-dashoffset:0;stroke-opacity:1" />
    <path
       sodipodi:nodetypes="cc"
       inkscape:connector-curvature="0"
       id="path923"
       d="m 611.56548,680.26785 h -714.375"
       style="opacity:1;fill:#7094ea;fill-opacity:1;fill-rule:evenodd;stroke:#000000;stroke-width:0.26458335;stroke-linecap:round;stroke-linejoin:round;stroke-miterlimit:4;stroke-dasharray:none;stroke-dashoffset:0;stroke-opacity:1" />
    <path
       style="opacity:1;fill:#7094ea;fill-opacity:1;fill-rule:evenodd;stroke:#000000;stroke-width:0.26458335;stroke-linecap:round;stroke-linejoin:round;stroke-miterlimit:4;stroke-dasharray:none;stroke-dashoffset:0;stroke-opacity:1"
       d="m 611.56548,704.08035 h -714.375"
       id="path925"
       inkscape:connector-curvature="0"
       sodipodi:nodetypes="cc" />
    <path
       sodipodi:nodetypes="cc"
       inkscape:connector-curvature="0"
       id="path927"
       d="m 611.56548,346.89275 h -714.375"
       style="opacity:1;fill:#7094ea;fill-opacity:1;fill-rule:evenodd;stroke:#000000;stroke-width:0.26458335;stroke-linecap:round;stroke-linejoin:round;stroke-miterlimit:4;stroke-dasharray:none;stroke-dashoffset:0;stroke-opacity:1" />
    <path
       inkscape:connector-curvature="0"
       id="path929"
       d="m 87.690482,299.26786 v 476.25"
       style="fill:none;stroke:#000000;stroke-width:0.26458335px;stroke-linecap:butt;stroke-linejoin:miter;stroke-opacity:1"
       sodipodi:nodetypes="cc" />
    <path
       style="fill:none;stroke:#000000;stroke-width:0.26458335px;stroke-linecap:butt;stroke-linejoin:miter;stroke-opacity:1"
       d="m 111.50298,299.26786 v 476.25"
       id="path931"
       inkscape:connector-curvature="0"
       sodipodi:nodetypes="cc" />
    <path
       inkscape:connector-curvature="0"
       id="path933"
       d="m 135.31548,299.26786 v 476.25"
       style="fill:none;stroke:#000000;stroke-width:0.26458335px;stroke-linecap:butt;stroke-linejoin:miter;stroke-opacity:1"
       sodipodi:nodetypes="cc" />
    <path
       style="fill:none;stroke:#000000;stroke-width:0.26458335px;stroke-linecap:butt;stroke-linejoin:miter;stroke-opacity:1"
       d="m 159.12798,299.26786 v 476.25"
       id="path935"
       inkscape:connector-curvature="0"
       sodipodi:nodetypes="cc" />
    <path
       inkscape:connector-curvature="0"
       id="path937"
       d="m 182.94048,299.26786 v 476.25"
       style="fill:none;stroke:#000000;stroke-width:0.26458335px;stroke-linecap:butt;stroke-linejoin:miter;stroke-opacity:1"
       sodipodi:nodetypes="cc" />
    <path
       style="fill:none;stroke:#000000;stroke-width:0.26458335px;stroke-linecap:butt;stroke-linejoin:miter;stroke-opacity:1"
       d="m 230.56548,299.26786 v 476.25"
       id="path939"
       inkscape:connector-curvature="0"
       sodipodi:nodetypes="cc" />
    <path
       inkscape:connector-curvature="0"
       id="path941"
       d="m 254.37798,299.26786 v 476.25"
       style="fill:none;stroke:#000000;stroke-width:0.26458335px;stroke-linecap:butt;stroke-linejoin:miter;stroke-opacity:1"
       sodipodi:nodetypes="cc" />
    <path
       style="fill:none;stroke:#000000;stroke-width:0.26458335px;stroke-linecap:butt;stroke-linejoin:miter;stroke-opacity:1"
       d="m 63.877982,299.26786 v 476.25"
       id="path943"
       inkscape:connector-curvature="0"
       sodipodi:nodetypes="cc" />
    <path
       inkscape:connector-curvature="0"
       id="path945"
       d="m 302.00298,299.26786 v 476.25"
       style="fill:none;stroke:#000000;stroke-width:0.26458335px;stroke-linecap:butt;stroke-linejoin:miter;stroke-opacity:1"
       sodipodi:nodetypes="cc" />
    <path
       style="fill:none;stroke:#000000;stroke-width:0.26458335px;stroke-linecap:butt;stroke-linejoin:miter;stroke-opacity:1"
       d="m 325.81548,299.26786 v 476.25"
       id="path947"
       inkscape:connector-curvature="0"
       sodipodi:nodetypes="cc" />
    <path
       inkscape:connector-curvature="0"
       id="path949"
       d="m 349.62798,299.26786 v 476.25"
       style="fill:none;stroke:#000000;stroke-width:0.26458335px;stroke-linecap:butt;stroke-linejoin:miter;stroke-opacity:1"
       sodipodi:nodetypes="cc" />
    <path
       style="fill:none;stroke:#000000;stroke-width:0.26458335px;stroke-linecap:butt;stroke-linejoin:miter;stroke-opacity:1"
       d="m 373.44049,299.26786 v 476.25"
       id="path951"
       inkscape:connector-curvature="0"
       sodipodi:nodetypes="cc" />
    <path
       inkscape:connector-curvature="0"
       id="path953"
       d="m 397.25299,299.26786 v 476.25"
       style="fill:none;stroke:#000000;stroke-width:0.26458335px;stroke-linecap:butt;stroke-linejoin:miter;stroke-opacity:1"
       sodipodi:nodetypes="cc" />
    <path
       style="fill:none;stroke:#000000;stroke-width:0.26458335px;stroke-linecap:butt;stroke-linejoin:miter;stroke-opacity:1"
       d="m 421.06549,299.26786 v 476.25"
       id="path955"
       inkscape:connector-curvature="0"
       sodipodi:nodetypes="cc" />
    <path
       inkscape:connector-curvature="0"
       id="path957"
       d="m 444.87799,299.26786 v 476.25"
       style="fill:none;stroke:#000000;stroke-width:0.26458335px;stroke-linecap:butt;stroke-linejoin:miter;stroke-opacity:1"
       sodipodi:nodetypes="cc" />
    <path
       inkscape:connector-curvature="0"
       id="path959"
       d="m 206.75298,299.26786 v 476.25"
       style="fill:none;stroke:#000000;stroke-width:0.26458335px;stroke-linecap:butt;stroke-linejoin:miter;stroke-opacity:1"
       sodipodi:nodetypes="cc" />
    <path
       style="fill:none;stroke:#000000;stroke-width:0.26458335px;stroke-linecap:butt;stroke-linejoin:miter;stroke-opacity:1"
       d="m 278.19048,299.26786 v 476.25"
       id="path961"
       inkscape:connector-curvature="0"
       sodipodi:nodetypes="cc" />
    <path
       inkscape:connector-curvature="0"
       id="path963"
       d="m -31.372016,299.26786 v 476.25"
       style="fill:none;stroke:#000000;stroke-width:0.26458335px;stroke-linecap:butt;stroke-linejoin:miter;stroke-opacity:1"
       sodipodi:nodetypes="cc" />
    <path
       style="fill:none;stroke:#000000;stroke-width:0.26458335px;stroke-linecap:butt;stroke-linejoin:miter;stroke-opacity:1"
       d="m 16.252984,299.26786 v 476.25"
       id="path965"
       inkscape:connector-curvature="0"
       sodipodi:nodetypes="cc" />
    <path
       inkscape:connector-curvature="0"
       id="path969"
       d="m -7.559516,299.26786 v 476.25"
       style="fill:none;stroke:#000000;stroke-width:0.26458335px;stroke-linecap:butt;stroke-linejoin:miter;stroke-opacity:1"
       sodipodi:nodetypes="cc" />
    <path
       style="fill:none;stroke:#000000;stroke-width:0.26458335px;stroke-linecap:butt;stroke-linejoin:miter;stroke-opacity:1"
       d="m -78.997016,299.26786 v 476.25"
       id="path971"
       inkscape:connector-curvature="0"
       sodipodi:nodetypes="cc" />
    <path
       style="fill:none;stroke:#000000;stroke-width:0.26458335px;stroke-linecap:butt;stroke-linejoin:miter;stroke-opacity:1"
       d="m -55.184516,299.26786 v 476.25"
       id="path975"
       inkscape:connector-curvature="0"
       sodipodi:nodetypes="cc" />
    <path
       sodipodi:nodetypes="cc"
       style="fill:none;stroke:#000000;stroke-width:0.26458335px;stroke-linecap:butt;stroke-linejoin:miter;stroke-opacity:1"
       d="m 540.12798,299.26786 v 476.25"
       id="path977"
       inkscape:connector-curvature="0" />
    <path
       sodipodi:nodetypes="cc"
       inkscape:connector-curvature="0"
       id="path979"
       d="m 492.50298,299.26786 v 476.25"
       style="fill:none;stroke:#000000;stroke-width:0.26458335px;stroke-linecap:butt;stroke-linejoin:miter;stroke-opacity:1" />
    <path
       sodipodi:nodetypes="cc"
       style="fill:none;stroke:#000000;stroke-width:0.26458335px;stroke-linecap:butt;stroke-linejoin:miter;stroke-opacity:1"
       d="m 516.31548,299.26786 v 476.25"
       id="path981"
       inkscape:connector-curvature="0" />
    <path
       sodipodi:nodetypes="cc"
       inkscape:connector-curvature="0"
       id="path983"
       d="m 587.75298,299.26786 v 476.25"
       style="fill:none;stroke:#000000;stroke-width:0.26458335px;stroke-linecap:butt;stroke-linejoin:miter;stroke-opacity:1" />
    <path
       sodipodi:nodetypes="cc"
       inkscape:connector-curvature="0"
       id="path985"
       d="m 563.94048,299.26786 v 476.25"
       style="fill:none;stroke:#000000;stroke-width:0.26458335px;stroke-linecap:butt;stroke-linejoin:miter;stroke-opacity:1" />
    <path
       style="opacity:1;fill:none;fill-opacity:0.25098041;fill-rule:evenodd;stroke:#000000;stroke-width:0.26458334;stroke-linecap:butt;stroke-linejoin:bevel;stroke-miterlimit:4;stroke-dasharray:none;stroke-dashoffset:0;stroke-opacity:1"
       d="m 325.81548,454.88562 c 0,-39.45384 -31.98366,-71.4375 -71.4375,-71.4375 -39.45383,0 -71.4375,31.98366 -71.4375,71.4375 0,39.45383 31.98367,71.4375 71.4375,71.4375 39.45384,0 71.4375,-31.98367 71.4375,-71.4375 z"
       id="path881"
       inkscape:connector-curvature="0"
       sodipodi:nodetypes="zzzzz" />
    <path
       style="opacity:1;fill:none;fill-opacity:0.25098041;fill-rule:evenodd;stroke:#000000;stroke-width:0.26458334;stroke-linecap:butt;stroke-linejoin:bevel;stroke-miterlimit:4;stroke-dasharray:none;stroke-dashoffset:0;stroke-opacity:1"
       d="m 278.19048,454.88562 c 0,-13.15128 -10.66122,-23.8125 -23.8125,-23.8125 -13.15128,0 -23.8125,10.66122 -23.8125,23.8125 0,13.15128 10.66122,23.8125 23.8125,23.8125 13.15128,0 23.8125,-10.66122 23.8125,-23.8125 z"
       id="path883"
       inkscape:connector-curvature="0"
       sodipodi:nodetypes="zzzzz" />
    <path
       sodipodi:nodetypes="zzzzz"
       inkscape:connector-curvature="0"
       id="path858"
       d="m 182.94048,537.39286 c 0,-39.45384 -31.98366,-71.4375 -71.4375,-71.4375 -39.45383,0 -71.4375,31.98366 -71.4375,71.4375 0,39.45383 31.98367,71.4375 71.4375,71.4375 39.45384,0 71.4375,-31.98367 71.4375,-71.4375 z"
       style="opacity:1;fill:none;fill-opacity:0.25098041;fill-rule:evenodd;stroke:#000000;stroke-width:0.26458334;stroke-linecap:butt;stroke-linejoin:bevel;stroke-miterlimit:4;stroke-dasharray:none;stroke-dashoffset:0;stroke-opacity:1" />
    <path
       sodipodi:nodetypes="zzzzz"
       inkscape:connector-curvature="0"
       id="path856"
       d="m 135.31548,537.39286 c 0,-13.15128 -10.66122,-23.8125 -23.8125,-23.8125 -13.15128,0 -23.8125,10.66122 -23.8125,23.8125 0,13.15128 10.66122,23.8125 23.8125,23.8125 13.15128,0 23.8125,-10.66122 23.8125,-23.8125 z"
       style="opacity:1;fill:none;fill-opacity:0.25098041;fill-rule:evenodd;stroke:#000000;stroke-width:0.26458334;stroke-linecap:butt;stroke-linejoin:bevel;stroke-miterlimit:4;stroke-dasharray:none;stroke-dashoffset:0;stroke-opacity:1" />
    <path
       style="opacity:1;fill:none;fill-opacity:0.25098041;fill-rule:evenodd;stroke:#000000;stroke-width:0.26458334;stroke-linecap:butt;stroke-linejoin:bevel;stroke-miterlimit:4;stroke-dasharray:none;stroke-dashoffset:0;stroke-opacity:1"
       d="m 325.81548,537.39286 c 0,-39.45384 31.98366,-71.4375 71.4375,-71.4375 39.45383,0 71.4375,31.98366 71.4375,71.4375 0,39.45383 -31.98367,71.4375 -71.4375,71.4375 -39.45384,0 -71.4375,-31.98367 -71.4375,-71.4375 z"
       id="path869"
       inkscape:connector-curvature="0"
       sodipodi:nodetypes="zzzzz" />
    <path
       style="opacity:1;fill:none;fill-opacity:0.25098041;fill-rule:evenodd;stroke:#000000;stroke-width:0.26458334;stroke-linecap:butt;stroke-linejoin:bevel;stroke-miterlimit:4;stroke-dasharray:none;stroke-dashoffset:0;stroke-opacity:1"
       d="m 373.44048,537.39286 c 0,-13.15128 10.66122,-23.8125 23.8125,-23.8125 13.15128,0 23.8125,10.66122 23.8125,23.8125 0,13.15128 -10.66122,23.8125 -23.8125,23.8125 -13.15128,0 -23.8125,-10.66122 -23.8125,-23.8125 z"
       id="path871"
       inkscape:connector-curvature="0"
       sodipodi:nodetypes="zzzzz" />
    <path
       sodipodi:nodetypes="zzzzz"
       inkscape:connector-curvature="0"
       id="path885"
       d="m 325.81548,619.9001 c 0,39.45384 -31.98366,71.4375 -71.4375,71.4375 -39.45383,0 -71.4375,-31.98366 -71.4375,-71.4375 0,-39.45383 31.98367,-71.4375 71.4375,-71.4375 39.45384,0 71.4375,31.98367 71.4375,71.4375 z"
       style="opacity:1;fill:none;fill-opacity:0.25098041;fill-rule:evenodd;stroke:#000000;stroke-width:0.26458334;stroke-linecap:butt;stroke-linejoin:bevel;stroke-miterlimit:4;stroke-dasharray:none;stroke-dashoffset:0;stroke-opacity:1" />
    <path
       sodipodi:nodetypes="zzzzz"
       inkscape:connector-curvature="0"
       id="path887"
       d="m 278.19048,619.9001 c 0,13.15128 -10.66122,23.8125 -23.8125,23.8125 -13.15128,0 -23.8125,-10.66122 -23.8125,-23.8125 0,-13.15128 10.66122,-23.8125 23.8125,-23.8125 13.15128,0 23.8125,10.66122 23.8125,23.8125 z"
       style="opacity:1;fill:none;fill-opacity:0.25098041;fill-rule:evenodd;stroke:#000000;stroke-width:0.26458334;stroke-linecap:butt;stroke-linejoin:bevel;stroke-miterlimit:4;stroke-dasharray:none;stroke-dashoffset:0;stroke-opacity:1" />
    <path
       style="opacity:1;fill:none;fill-opacity:0.25098041;fill-rule:evenodd;stroke:#000000;stroke-width:0.26458334;stroke-linecap:butt;stroke-linejoin:bevel;stroke-miterlimit:4;stroke-dasharray:none;stroke-dashoffset:0;stroke-opacity:1"
       d="m 302.00298,537.39286 c 0,-52.60512 -42.64489,-95.25 -95.25,-95.25 -52.60511,0 -95.25,42.64488 -95.25,95.25 0,52.60511 42.64489,95.25 95.25,95.25 52.60511,0 95.25,-42.64489 95.25,-95.25 z"
       id="path1034"
       inkscape:connector-curvature="0"
       sodipodi:nodetypes="zzzzz" />
    <path
       sodipodi:nodetypes="zzzzz"
       inkscape:connector-curvature="0"
       id="path877"
       d="m 206.75298,537.39286 c 0,-52.60512 42.64489,-95.25 95.25,-95.25 52.60511,0 95.25,42.64488 95.25,95.25 0,52.60511 -42.64489,95.25 -95.25,95.25 -52.60511,0 -95.25,-42.64489 -95.25,-95.25 z"
       style="opacity:1;fill:none;fill-opacity:0.25098041;fill-rule:evenodd;stroke:#000000;stroke-width:0.26458334;stroke-linecap:butt;stroke-linejoin:bevel;stroke-miterlimit:4;stroke-dasharray:none;stroke-dashoffset:0;stroke-opacity:1" />
    <path
       style="fill:none;stroke:#000000;stroke-width:0.26458334;stroke-linecap:butt;stroke-linejoin:miter;stroke-opacity:1;stroke-miterlimit:4;stroke-dasharray:none;fill-opacity:0.25098041"
       d="M 164.41965,619.90011 H 153.83632"
       id="path987"
       inkscape:connector-curvature="0"
       sodipodi:nodetypes="cc" />
    <path
       style="opacity:1;fill:none;fill-opacity:0.25098041;fill-rule:evenodd;stroke:#000000;stroke-width:0.26458334;stroke-linecap:butt;stroke-linejoin:bevel;stroke-miterlimit:4;stroke-dasharray:none;stroke-dashoffset:0;stroke-opacity:1"
       d="m 182.94048,619.90011 c 0,-13.15128 -10.66122,-23.8125 -23.8125,-23.8125 -13.15128,0 -23.8125,10.66122 -23.8125,23.8125 0,13.15128 10.66122,23.8125 23.8125,23.8125 13.15128,0 23.8125,-10.66122 23.8125,-23.8125 z"
       id="path989"
       inkscape:connector-curvature="0"
       sodipodi:nodetypes="zzzzz" />
    <path
       sodipodi:nodetypes="zzzzz"
       inkscape:connector-curvature="0"
       id="path991"
       d="m 230.56548,537.39286 c 0,-13.15128 -10.66122,-23.8125 -23.8125,-23.8125 -13.15128,0 -23.8125,10.66122 -23.8125,23.8125 0,13.15128 10.66122,23.8125 23.8125,23.8125 13.15128,0 23.8125,-10.66122 23.8125,-23.8125 z"
       style="opacity:1;fill:none;fill-opacity:0.25098041;fill-rule:evenodd;stroke:#000000;stroke-width:0.26458334;stroke-linecap:butt;stroke-linejoin:bevel;stroke-miterlimit:4;stroke-dasharray:none;stroke-dashoffset:0;stroke-opacity:1" />
    <path
       style="opacity:1;fill:none;fill-opacity:0.25098041;fill-rule:evenodd;stroke:#000000;stroke-width:0.26458334;stroke-linecap:butt;stroke-linejoin:bevel;stroke-miterlimit:4;stroke-dasharray:none;stroke-dashoffset:0;stroke-opacity:1"
       d="m 278.19048,537.39286 c 0,-13.15128 10.66122,-23.8125 23.8125,-23.8125 13.15128,0 23.8125,10.66122 23.8125,23.8125 0,13.15128 -10.66122,23.8125 -23.8125,23.8125 -13.15128,0 -23.8125,-10.66122 -23.8125,-23.8125 z"
       id="path993"
       inkscape:connector-curvature="0"
       sodipodi:nodetypes="zzzzz" />
    <path
       sodipodi:nodetypes="zzzzz"
       inkscape:connector-curvature="0"
       id="path995"
       d="m 325.81548,619.90011 c 0,-13.15128 10.66122,-23.8125 23.8125,-23.8125 13.15128,0 23.8125,10.66122 23.8125,23.8125 0,13.15128 -10.66122,23.8125 -23.8125,23.8125 -13.15128,0 -23.8125,-10.66122 -23.8125,-23.8125 z"
       style="opacity:1;fill:none;fill-opacity:0.25098041;fill-rule:evenodd;stroke:#000000;stroke-width:0.26458334;stroke-linecap:butt;stroke-linejoin:bevel;stroke-miterlimit:4;stroke-dasharray:none;stroke-dashoffset:0;stroke-opacity:1" />
  </g>
</svg>
