<?xml version="1.0" encoding="UTF-8" standalone="no"?>
<!-- Created with Inkscape (http://www.inkscape.org/) -->

<svg
   xmlns:dc="http://purl.org/dc/elements/1.1/"
   xmlns:cc="http://creativecommons.org/ns#"
   xmlns:rdf="http://www.w3.org/1999/02/22-rdf-syntax-ns#"
   xmlns:svg="http://www.w3.org/2000/svg"
   xmlns="http://www.w3.org/2000/svg"
   xmlns:sodipodi="http://sodipodi.sourceforge.net/DTD/sodipodi-0.dtd"
   xmlns:inkscape="http://www.inkscape.org/namespaces/inkscape"
   width="1797.0205"
   height="1340.6974"
   viewBox="0 0 475.46168 354.72619"
   version="1.1"
   id="svg8"
   inkscape:export-filename="C:\Users\厂永刄先生\Documents\GXI3CW2\JáÈŭcèŭ\N̂i\大阪府\章ﾈｵﾝ.png"
   inkscape:export-xdpi="96"
   inkscape:export-ydpi="96"
   inkscape:version="0.92.4 (5da689c313, 2019-01-14)"
   sodipodi:docname="章ﾈｵﾝ.svg">
  <defs
     id="defs2">
    <filter
       inkscape:collect="always"
       style="color-interpolation-filters:sRGB"
       id="filter824"
       x="-0.025774784"
       width="1.0515496"
       y="-0.035882086"
       height="1.0717642">
      <feGaussianBlur
         inkscape:collect="always"
         stdDeviation="4.6032155"
         id="feGaussianBlur826" />
    </filter>
    <filter
       inkscape:collect="always"
       style="color-interpolation-filters:sRGB"
       id="filter834"
       x="-0.0360847"
       width="1.0721694"
       y="-0.050234921"
       height="1.1004698">
      <feGaussianBlur
         inkscape:collect="always"
         stdDeviation="6.4445017"
         id="feGaussianBlur836" />
    </filter>
    <filter
       inkscape:collect="always"
       style="color-interpolation-filters:sRGB"
       id="filter840"
       x="-0.051549569"
       width="1.1030991"
       y="-0.071764179"
       height="1.1435283">
      <feGaussianBlur
         inkscape:collect="always"
         stdDeviation="9.206431"
         id="feGaussianBlur842" />
    </filter>
  </defs>
  <sodipodi:namedview
     id="base"
     pagecolor="#000000"
     bordercolor="#666666"
     borderopacity="1.0"
     inkscape:pageopacity="1"
     inkscape:pageshadow="2"
     inkscape:zoom="0.32497562"
     inkscape:cx="898.51029"
     inkscape:cy="670.34867"
     inkscape:document-units="px"
     inkscape:current-layer="layer1"
     showgrid="false"
     units="px"
     fit-margin-top="5"
     fit-margin-left="5"
     fit-margin-right="5"
     fit-margin-bottom="5"
     inkscape:showpageshadow="false"
     inkscape:snap-intersection-paths="true"
     inkscape:object-paths="false"
     inkscape:pagecheckerboard="true"
     inkscape:snap-smooth-nodes="true"
     inkscape:window-width="1366"
     inkscape:window-height="745"
     inkscape:window-x="-8"
     inkscape:window-y="-8"
     inkscape:window-maximized="1"
     inkscape:object-nodes="true"
     inkscape:snap-nodes="true"
     showguides="true" />
  <metadata
     id="metadata5">
    <rdf:RDF>
      <cc:Work
         rdf:about="">
        <dc:format>image/svg+xml</dc:format>
        <dc:type
           rdf:resource="http://purl.org/dc/dcmitype/StillImage" />
        <dc:title></dc:title>
      </cc:Work>
    </rdf:RDF>
  </metadata>
  <g
     inkscape:label="レイヤー 1"
     inkscape:groupmode="layer"
     id="layer1"
     transform="translate(-16.647129,-360.02977)">
    <path
       sodipodi:nodetypes="czszcczssszszzccsccscczzcczzcczzcczzc"
       inkscape:connector-curvature="0"
       id="path838"
       d="m 468.69048,537.39286 c 0,-39.45384 -31.98367,-71.4375 -71.4375,-71.4375 -39.45384,0 -71.4375,31.98366 -71.4375,71.4375 0,13.15128 -10.66122,23.8125 -23.8125,23.8125 -13.15128,0 -23.8125,-10.66122 -23.8125,-23.8125 m 47.625,-82.50724 c 0,-39.45384 -31.98367,-71.4375 -71.4375,-71.4375 -39.45383,0 -71.4375,31.98366 -71.4375,71.4375 0,26.43822 14.36019,49.52512 35.70978,61.87524 7.12076,4.11915 11.91522,11.81434 11.91522,20.632 0,13.15128 -10.66122,23.8125 -23.8125,23.8125 -13.15128,0 -23.8125,-10.66122 -23.8125,-23.8125 0,-39.45384 -31.98366,-71.4375 -71.4375,-71.4375 -39.45383,0 -71.4375,31.98366 -71.4375,71.4375 0,39.45383 31.98367,71.4375 71.4375,71.4375 m 47.625,-12.74275 c 13.15128,0 23.8125,10.66122 23.8125,23.81249 0,39.45384 31.98367,71.4375 71.4375,71.4375 m 95.25,-95.24999 c 4.32223,0 8.37909,1.14532 11.86936,3.16436 10.51916,6.08511 22.72837,9.57839 35.75564,9.57839 m 0,-95.25 c 13.15128,0 23.8125,10.66122 23.8125,23.8125 0,13.15128 -10.66122,23.8125 -23.8125,23.8125 -13.15128,0 -23.8125,-10.66122 -23.8125,-23.8125 M 254.37798,431.07312 c 13.15128,0 23.8125,10.66122 23.8125,23.8125 0,13.15128 -10.66122,23.8125 -23.8125,23.8125 -13.15128,0 -23.8125,-10.66122 -23.8125,-23.8125 m -119.0625,58.69474 c 13.15128,0 23.8125,10.66122 23.8125,23.8125 0,13.15128 -10.66122,23.8125 -23.8125,23.8125 -13.15128,0 -23.8125,-10.66122 -23.8125,-23.8125 m 166.6875,58.69474 c 13.15128,0 23.8125,10.66122 23.8125,23.8125 0,13.15128 -10.66122,23.8125 -23.8125,23.8125 -13.15128,0 -23.8125,-10.66122 -23.8125,-23.8125"
       style="opacity:1;fill:none;fill-opacity:1;fill-rule:evenodd;stroke:#0075c0;stroke-width:10.58333302;stroke-linecap:round;stroke-linejoin:round;stroke-miterlimit:4;stroke-dasharray:none;stroke-dashoffset:0;stroke-opacity:1;filter:url(#filter840)" />
    <path
       style="opacity:1;fill:none;fill-opacity:1;fill-rule:evenodd;stroke:#0075c0;stroke-width:10.58333302;stroke-linecap:round;stroke-linejoin:round;stroke-miterlimit:4;stroke-dasharray:none;stroke-dashoffset:0;stroke-opacity:1;filter:url(#filter834)"
       d="m 468.69048,537.39286 c 0,-39.45384 -31.98367,-71.4375 -71.4375,-71.4375 -39.45384,0 -71.4375,31.98366 -71.4375,71.4375 0,13.15128 -10.66122,23.8125 -23.8125,23.8125 -13.15128,0 -23.8125,-10.66122 -23.8125,-23.8125 m 47.625,-82.50724 c 0,-39.45384 -31.98367,-71.4375 -71.4375,-71.4375 -39.45383,0 -71.4375,31.98366 -71.4375,71.4375 0,26.43822 14.36019,49.52512 35.70978,61.87524 7.12076,4.11915 11.91522,11.81434 11.91522,20.632 0,13.15128 -10.66122,23.8125 -23.8125,23.8125 -13.15128,0 -23.8125,-10.66122 -23.8125,-23.8125 0,-39.45384 -31.98366,-71.4375 -71.4375,-71.4375 -39.45383,0 -71.4375,31.98366 -71.4375,71.4375 0,39.45383 31.98367,71.4375 71.4375,71.4375 m 47.625,-12.74275 c 13.15128,0 23.8125,10.66122 23.8125,23.81249 0,39.45384 31.98367,71.4375 71.4375,71.4375 m 95.25,-95.24999 c 4.32223,0 8.37909,1.14532 11.86936,3.16436 10.51916,6.08511 22.72837,9.57839 35.75564,9.57839 m 0,-95.25 c 13.15128,0 23.8125,10.66122 23.8125,23.8125 0,13.15128 -10.66122,23.8125 -23.8125,23.8125 -13.15128,0 -23.8125,-10.66122 -23.8125,-23.8125 M 254.37798,431.07312 c 13.15128,0 23.8125,10.66122 23.8125,23.8125 0,13.15128 -10.66122,23.8125 -23.8125,23.8125 -13.15128,0 -23.8125,-10.66122 -23.8125,-23.8125 m -119.0625,58.69474 c 13.15128,0 23.8125,10.66122 23.8125,23.8125 0,13.15128 -10.66122,23.8125 -23.8125,23.8125 -13.15128,0 -23.8125,-10.66122 -23.8125,-23.8125 m 166.6875,58.69474 c 13.15128,0 23.8125,10.66122 23.8125,23.8125 0,13.15128 -10.66122,23.8125 -23.8125,23.8125 -13.15128,0 -23.8125,-10.66122 -23.8125,-23.8125"
       id="path828"
       inkscape:connector-curvature="0"
       sodipodi:nodetypes="czszcczssszszzccsccscczzcczzcczzcczzc" />
    <path
       sodipodi:nodetypes="czszcczssszszzccsccscczzcczzcczzcczzc"
       inkscape:connector-curvature="0"
       id="path822"
       d="m 468.69048,537.39286 c 0,-39.45384 -31.98367,-71.4375 -71.4375,-71.4375 -39.45384,0 -71.4375,31.98366 -71.4375,71.4375 0,13.15128 -10.66122,23.8125 -23.8125,23.8125 -13.15128,0 -23.8125,-10.66122 -23.8125,-23.8125 m 47.625,-82.50724 c 0,-39.45384 -31.98367,-71.4375 -71.4375,-71.4375 -39.45383,0 -71.4375,31.98366 -71.4375,71.4375 0,26.43822 14.36019,49.52512 35.70978,61.87524 7.12076,4.11915 11.91522,11.81434 11.91522,20.632 0,13.15128 -10.66122,23.8125 -23.8125,23.8125 -13.15128,0 -23.8125,-10.66122 -23.8125,-23.8125 0,-39.45384 -31.98366,-71.4375 -71.4375,-71.4375 -39.45383,0 -71.4375,31.98366 -71.4375,71.4375 0,39.45383 31.98367,71.4375 71.4375,71.4375 m 47.625,-12.74275 c 13.15128,0 23.8125,10.66122 23.8125,23.81249 0,39.45384 31.98367,71.4375 71.4375,71.4375 m 95.25,-95.24999 c 4.32223,0 8.37909,1.14532 11.86936,3.16436 10.51916,6.08511 22.72837,9.57839 35.75564,9.57839 m 0,-95.25 c 13.15128,0 23.8125,10.66122 23.8125,23.8125 0,13.15128 -10.66122,23.8125 -23.8125,23.8125 -13.15128,0 -23.8125,-10.66122 -23.8125,-23.8125 M 254.37798,431.07312 c 13.15128,0 23.8125,10.66122 23.8125,23.8125 0,13.15128 -10.66122,23.8125 -23.8125,23.8125 -13.15128,0 -23.8125,-10.66122 -23.8125,-23.8125 m -119.0625,58.69474 c 13.15128,0 23.8125,10.66122 23.8125,23.8125 0,13.15128 -10.66122,23.8125 -23.8125,23.8125 -13.15128,0 -23.8125,-10.66122 -23.8125,-23.8125 m 166.6875,58.69474 c 13.15128,0 23.8125,10.66122 23.8125,23.8125 0,13.15128 -10.66122,23.8125 -23.8125,23.8125 -13.15128,0 -23.8125,-10.66122 -23.8125,-23.8125"
       style="opacity:1;fill:none;fill-opacity:1;fill-rule:evenodd;stroke:#0075c0;stroke-width:10.58333302;stroke-linecap:round;stroke-linejoin:round;stroke-miterlimit:4;stroke-dasharray:none;stroke-dashoffset:0;stroke-opacity:1;filter:url(#filter824)" />
    <path
       style="opacity:1;fill:none;fill-opacity:1;fill-rule:evenodd;stroke:#81ceff;stroke-width:5.29166651;stroke-linecap:round;stroke-linejoin:round;stroke-miterlimit:4;stroke-dasharray:none;stroke-dashoffset:0;stroke-opacity:1"
       d="m 468.69048,537.39286 c 0,-39.45384 -31.98367,-71.4375 -71.4375,-71.4375 -39.45384,0 -71.4375,31.98366 -71.4375,71.4375 0,13.15128 -10.66122,23.8125 -23.8125,23.8125 -13.15128,0 -23.8125,-10.66122 -23.8125,-23.8125 m 47.625,-82.50724 c 0,-39.45384 -31.98367,-71.4375 -71.4375,-71.4375 -39.45383,0 -71.4375,31.98366 -71.4375,71.4375 0,26.43822 14.36019,49.52512 35.70978,61.87524 7.12076,4.11915 11.91522,11.81434 11.91522,20.632 0,13.15128 -10.66122,23.8125 -23.8125,23.8125 -13.15128,0 -23.8125,-10.66122 -23.8125,-23.8125 0,-39.45384 -31.98366,-71.4375 -71.4375,-71.4375 -39.45383,0 -71.4375,31.98366 -71.4375,71.4375 0,39.45383 31.98367,71.4375 71.4375,71.4375 m 47.625,-12.74275 c 13.15128,0 23.8125,10.66122 23.8125,23.81249 0,39.45384 31.98367,71.4375 71.4375,71.4375 m 95.25,-95.24999 c 4.32223,0 8.37909,1.14532 11.86936,3.16436 10.51916,6.08511 22.72837,9.57839 35.75564,9.57839 m 0,-95.25 c 13.15128,0 23.8125,10.66122 23.8125,23.8125 0,13.15128 -10.66122,23.8125 -23.8125,23.8125 -13.15128,0 -23.8125,-10.66122 -23.8125,-23.8125 M 254.37798,431.07312 c 13.15128,0 23.8125,10.66122 23.8125,23.8125 0,13.15128 -10.66122,23.8125 -23.8125,23.8125 -13.15128,0 -23.8125,-10.66122 -23.8125,-23.8125 m -119.0625,58.69474 c 13.15128,0 23.8125,10.66122 23.8125,23.8125 0,13.15128 -10.66122,23.8125 -23.8125,23.8125 -13.15128,0 -23.8125,-10.66122 -23.8125,-23.8125 m 166.6875,58.69474 c 13.15128,0 23.8125,10.66122 23.8125,23.8125 0,13.15128 -10.66122,23.8125 -23.8125,23.8125 -13.15128,0 -23.8125,-10.66122 -23.8125,-23.8125"
       id="path1012"
       inkscape:connector-curvature="0"
       sodipodi:nodetypes="czszcczssszszzccsccscczzcczzcczzcczzc" />
  </g>
</svg>
