<?xml version="1.0" encoding="UTF-8" standalone="no"?>
<!-- Created with Inkscape (http://www.inkscape.org/) -->

<svg
   width="2196"
   height="1800.0001"
   viewBox="0 0 581.02499 476.25004"
   version="1.1"
   id="svg8"
   inkscape:export-filename="C:\Users\厂永刄先生\Documents\GXI3CW2\,pjóŭ\Syrie.png"
   inkscape:export-xdpi="96"
   inkscape:export-ydpi="96"
   inkscape:version="1.3 (0e150ed6c4, 2023-07-21)"
   sodipodi:docname="sy_1980_air-force.svg"
   xmlns:inkscape="http://www.inkscape.org/namespaces/inkscape"
   xmlns:sodipodi="http://sodipodi.sourceforge.net/DTD/sodipodi-0.dtd"
   xmlns="http://www.w3.org/2000/svg"
   xmlns:svg="http://www.w3.org/2000/svg"
   xmlns:rdf="http://www.w3.org/1999/02/22-rdf-syntax-ns#"
   xmlns:cc="http://creativecommons.org/ns#"
   xmlns:dc="http://purl.org/dc/elements/1.1/">
  <defs
     id="defs2" />
  <sodipodi:namedview
     id="base"
     pagecolor="#ffffff"
     bordercolor="#666666"
     borderopacity="1.0"
     inkscape:pageopacity="0.0"
     inkscape:pageshadow="2"
     inkscape:zoom="0.27302632"
     inkscape:cx="1096.9638"
     inkscape:cy="434.02409"
     inkscape:document-units="px"
     inkscape:current-layer="layer1"
     showgrid="false"
     units="px"
     fit-margin-top="0"
     fit-margin-left="0"
     fit-margin-right="0"
     fit-margin-bottom="0"
     inkscape:showpageshadow="false"
     inkscape:snap-intersection-paths="true"
     inkscape:object-paths="false"
     inkscape:pagecheckerboard="true"
     inkscape:snap-smooth-nodes="false"
     inkscape:window-width="1920"
     inkscape:window-height="1009"
     inkscape:window-x="-8"
     inkscape:window-y="-8"
     inkscape:window-maximized="1"
     inkscape:object-nodes="true"
     inkscape:deskcolor="#505050" />
  <metadata
     id="metadata5">
    <rdf:RDF>
      <cc:Work
         rdf:about="">
        <dc:format>image/svg+xml</dc:format>
        <dc:type
           rdf:resource="http://purl.org/dc/dcmitype/StillImage" />
      </cc:Work>
    </rdf:RDF>
  </metadata>
  <g
     inkscape:label="レイヤー 1"
     inkscape:groupmode="layer"
     id="layer1"
     transform="translate(112.33452,-299.26786)">
    <path
       style="fill:#57c7ff;fill-opacity:1;stroke:none;stroke-width:3.13883px;stroke-linecap:butt;stroke-linejoin:miter;stroke-opacity:1"
       d="M 468.69048,299.26786 V 775.5179 h -571.5 V 458.01786 H 55.940481 v -158.75 z"
       id="path4"
       inkscape:connector-curvature="0"
       sodipodi:nodetypes="ccccccc" />
    <path
       sodipodi:nodetypes="ccccc"
       inkscape:connector-curvature="0"
       id="path824"
       d="m 55.940481,352.18453 v 52.91666 H -102.80952 v -52.91666 z"
       style="fill:#ffffff;fill-opacity:1;stroke:none;stroke-width:0.551437px;stroke-linecap:butt;stroke-linejoin:miter;stroke-opacity:1" />
    <path
       style="fill:#ff0000;fill-opacity:1;stroke:none;stroke-width:0.477557px;stroke-linecap:butt;stroke-linejoin:miter;stroke-opacity:1"
       d="M -102.80952,352.18453 V 299.26786 H 55.940481 v 52.91667 z"
       id="path849"
       inkscape:connector-curvature="0"
       sodipodi:nodetypes="ccccc" />
    <path
       style="fill:#ffffff;fill-opacity:1;stroke:none;stroke-width:0.511668px;stroke-linecap:butt;stroke-linejoin:miter;stroke-opacity:1"
       d="m -102.80952,299.26786 h -9.525 v 476.25 h 9.525 z"
       id="path819"
       inkscape:connector-curvature="0"
       sodipodi:nodetypes="ccccc" />
    <path
       style="fill:#000000;fill-opacity:1;stroke:none;stroke-width:0.551437px;stroke-linecap:butt;stroke-linejoin:miter;stroke-opacity:1"
       d="m 55.940481,405.10119 v 52.91667 H -102.80952 v -52.91667 z"
       id="path847"
       inkscape:connector-curvature="0"
       sodipodi:nodetypes="ccccc" />
    <path
       sodipodi:nodetypes="ccccccccccc"
       inkscape:connector-curvature="0"
       id="path831"
       d="m -35.982884,373.95839 -12.895257,9.36894 4.925554,15.15928 -12.895251,-9.36895 -12.89525,9.36895 4.92555,-15.15928 -12.895253,-9.36894 h 15.939407 l 4.92555,-15.15928 4.92554,15.15928 z"
       style="fill:#00a800;fill-opacity:1;stroke:none;stroke-width:0.440973;stroke-linecap:butt;stroke-linejoin:miter;stroke-miterlimit:4;stroke-dasharray:none;stroke-opacity:1" />
    <path
       sodipodi:nodetypes="ccccccccccc"
       inkscape:connector-curvature="0"
       id="path2"
       d="m 30.84375,373.95839 -12.895256,9.36894 4.925553,15.15928 -12.8952499,-9.36895 -12.8952501,9.36895 4.92555,-15.15928 -12.895253,-9.36894 H 5.0532504 l 4.92555,-15.15928 4.9255396,15.15928 z"
       style="fill:#00a800;fill-opacity:1;stroke:none;stroke-width:0.440973;stroke-linecap:butt;stroke-linejoin:miter;stroke-miterlimit:4;stroke-dasharray:none;stroke-opacity:1" />
    <path
       id="circle7-5"
       style="fill:#ff0000;fill-opacity:1;stroke-width:4.34117;stroke-linecap:round;stroke-linejoin:round;stroke-miterlimit:155;paint-order:stroke fill markers"
       d="m 103.56548,537.39288 c 0,43.8376 35.5374,79.375 79.375,79.375 43.8376,0 79.375,-35.5374 79.375,-79.375 0,-43.8376 -35.5374,-79.375 -79.375,-79.375 -43.8376,0 -79.375,35.5374 -79.375,79.375 z"
       sodipodi:nodetypes="zzzzz" />
    <path
       id="circle8"
       style="fill:#ffffff;fill-opacity:1;stroke-width:2.89411;stroke-linecap:round;stroke-linejoin:round;stroke-miterlimit:155;paint-order:stroke fill markers"
       d="m 130.02382,537.39288 c 0,29.22507 23.69159,52.91667 52.91666,52.91667 29.22507,0 52.91666,-23.6916 52.91666,-52.91667 0,-29.22507 -23.69159,-52.91666 -52.91666,-52.91666 -29.22507,0 -52.91666,23.69159 -52.91666,52.91666 z"
       sodipodi:nodetypes="zzzzz" />
    <path
       id="circle9"
       style="fill:#000000;fill-opacity:1;stroke-width:1.44705;stroke-linecap:round;stroke-linejoin:round;stroke-miterlimit:155;paint-order:stroke fill markers"
       d="m 156.48215,537.39288 c 0,14.61253 11.8458,26.45833 26.45833,26.45833 14.61253,0 26.45833,-11.8458 26.45833,-26.45833 0,-14.61253 -11.8458,-26.45833 -26.45833,-26.45833 -14.61253,0 -26.45833,11.8458 -26.45833,26.45833 z"
       sodipodi:nodetypes="zzzzz" />
    <path
       style="color:#000000;fill:#00a800;fill-opacity:1;stroke-width:0.333333;-inkscape-stroke:none"
       d="m 143.25331,526.69887 2.65429,8.16927 h 8.58985 l -6.94987,5.04883 2.65494,8.16992 -6.94921,-5.04948 -6.94987,5.04948 2.65495,-8.16992 -6.94987,-5.04883 h 8.58984 z"
       id="path13-7"
       sodipodi:nodetypes="ccccccccccc" />
    <path
       style="color:#000000;fill:#00a800;fill-opacity:1;stroke-width:0.333333;-inkscape-stroke:none"
       d="m 222.62765,526.69887 -2.65429,8.16927 h -8.58985 l 6.94987,5.04883 -2.65494,8.16992 6.94921,-5.04948 6.94987,5.04948 -2.65495,-8.16992 6.94987,-5.04883 h -8.58984 z"
       id="path1"
       sodipodi:nodetypes="ccccccccccc" />
  </g>
</svg>
