<?xml version="1.0" encoding="UTF-8" standalone="no"?>
<!-- Created with Inkscape (http://www.inkscape.org/) -->

<svg
   width="2196"
   height="1800.0001"
   viewBox="0 0 581.02499 476.25004"
   version="1.1"
   id="svg8"
   inkscape:export-filename="C:\Users\厂永刄先生\Documents\GXI3CW2\,pjóŭ\Syrie.png"
   inkscape:export-xdpi="96"
   inkscape:export-ydpi="96"
   inkscape:version="1.3 (0e150ed6c4, 2023-07-21)"
   sodipodi:docname="sy_1980_air-force.svg"
   xmlns:inkscape="http://www.inkscape.org/namespaces/inkscape"
   xmlns:sodipodi="http://sodipodi.sourceforge.net/DTD/sodipodi-0.dtd"
   xmlns="http://www.w3.org/2000/svg"
   xmlns:svg="http://www.w3.org/2000/svg"
   xmlns:rdf="http://www.w3.org/1999/02/22-rdf-syntax-ns#"
   xmlns:cc="http://creativecommons.org/ns#"
   xmlns:dc="http://purl.org/dc/elements/1.1/">
  <defs
     id="defs2" />
  <sodipodi:namedview
     id="base"
     pagecolor="#ffffff"
     bordercolor="#666666"
     borderopacity="1.0"
     inkscape:pageopacity="0.0"
     inkscape:pageshadow="2"
     inkscape:zoom="0.27302632"
     inkscape:cx="1074.9879"
     inkscape:cy="628.14457"
     inkscape:document-units="px"
     inkscape:current-layer="layer1"
     showgrid="false"
     units="px"
     fit-margin-top="0"
     fit-margin-left="0"
     fit-margin-right="0"
     fit-margin-bottom="0"
     inkscape:showpageshadow="false"
     inkscape:snap-intersection-paths="true"
     inkscape:object-paths="false"
     inkscape:pagecheckerboard="true"
     inkscape:snap-smooth-nodes="false"
     inkscape:window-width="1920"
     inkscape:window-height="1009"
     inkscape:window-x="-8"
     inkscape:window-y="-8"
     inkscape:window-maximized="1"
     inkscape:object-nodes="true"
     inkscape:deskcolor="#505050" />
  <metadata
     id="metadata5">
    <rdf:RDF>
      <cc:Work
         rdf:about="">
        <dc:format>image/svg+xml</dc:format>
        <dc:type
           rdf:resource="http://purl.org/dc/dcmitype/StillImage" />
      </cc:Work>
    </rdf:RDF>
  </metadata>
  <g
     inkscape:label="レイヤー 1"
     inkscape:groupmode="layer"
     id="layer1"
     transform="translate(112.33452,-299.26786)">
    <path
       style="fill:#57c7ff;fill-opacity:1;stroke:none;stroke-width:3.13883px;stroke-linecap:butt;stroke-linejoin:miter;stroke-opacity:1"
       d="M 468.69048,299.26786 V 775.5179 h -571.5 V 458.01786 H 55.940481 v -158.75 z"
       id="path4"
       inkscape:connector-curvature="0"
       sodipodi:nodetypes="ccccccc" />
    <path
       sodipodi:nodetypes="ccccc"
       inkscape:connector-curvature="0"
       id="path824"
       d="m 55.940481,352.18453 v 52.91666 H -102.80952 v -52.91666 z"
       style="fill:#ffffff;fill-opacity:1;stroke:none;stroke-width:0.551437px;stroke-linecap:butt;stroke-linejoin:miter;stroke-opacity:1" />
    <path
       style="fill:#ff0000;fill-opacity:1;stroke:none;stroke-width:0.477557px;stroke-linecap:butt;stroke-linejoin:miter;stroke-opacity:1"
       d="M -102.80952,352.18453 V 299.26786 H 55.940481 v 52.91667 z"
       id="path849"
       inkscape:connector-curvature="0"
       sodipodi:nodetypes="ccccc" />
    <path
       style="fill:#ffffff;fill-opacity:1;stroke:none;stroke-width:0.511668px;stroke-linecap:butt;stroke-linejoin:miter;stroke-opacity:1"
       d="m -102.80952,299.26786 h -9.525 v 476.25 h 9.525 z"
       id="path819"
       inkscape:connector-curvature="0"
       sodipodi:nodetypes="ccccc" />
    <path
       style="fill:#000000;fill-opacity:1;stroke:none;stroke-width:0.551437px;stroke-linecap:butt;stroke-linejoin:miter;stroke-opacity:1"
       d="m 55.940481,405.10119 v 52.91667 H -102.80952 v -52.91667 z"
       id="path847"
       inkscape:connector-curvature="0"
       sodipodi:nodetypes="ccccc" />
    <path
       sodipodi:nodetypes="ccccccccccc"
       inkscape:connector-curvature="0"
       id="path831"
       d="m -35.982884,373.95839 -12.895257,9.36894 4.925554,15.15928 -12.895251,-9.36895 -12.89525,9.36895 4.92555,-15.15928 -12.895253,-9.36894 h 15.939407 l 4.92555,-15.15928 4.92554,15.15928 z"
       style="fill:#00a800;fill-opacity:1;stroke:none;stroke-width:0.440973;stroke-linecap:butt;stroke-linejoin:miter;stroke-miterlimit:4;stroke-dasharray:none;stroke-opacity:1" />
    <path
       sodipodi:nodetypes="ccccccccccc"
       inkscape:connector-curvature="0"
       id="path2"
       d="m 30.84375,373.95839 -12.895256,9.36894 4.925553,15.15928 -12.8952499,-9.36895 -12.8952501,9.36895 4.92555,-15.15928 -12.895253,-9.36894 H 5.0532504 l 4.92555,-15.15928 4.9255396,15.15928 z"
       style="fill:#00a800;fill-opacity:1;stroke:none;stroke-width:0.440973;stroke-linecap:butt;stroke-linejoin:miter;stroke-miterlimit:4;stroke-dasharray:none;stroke-opacity:1" />
    <g
       id="g4"
       transform="matrix(0.33333333,0,0,0.33333333,132.80824,431.81609)">
      <path
         id="circle7"
         style="fill:#ff0000;fill-opacity:1;stroke-width:13.0235;stroke-linecap:round;stroke-linejoin:round;stroke-miterlimit:155;paint-order:stroke fill markers"
         d="m 388.52173,316.73036 c 0,131.5128 -106.6122,238.12502 -238.125,238.12502 -131.5128,0 -238.125,-106.61222 -238.125,-238.12502 0,-131.5128 106.6122,-238.125 238.125,-238.125 131.5128,0 238.125,106.6122 238.125,238.125 z"
         sodipodi:nodetypes="zzzzz" />
      <path
         id="circle8"
         style="fill:#ffffff;fill-opacity:1;stroke-width:8.68233;stroke-linecap:round;stroke-linejoin:round;stroke-miterlimit:155;paint-order:stroke fill markers"
         d="m 309.14673,316.73036 c 0,87.6752 -71.0748,158.75002 -158.75,158.75002 -87.6752,0 -158.75,-71.07482 -158.75,-158.75002 0,-87.6752 71.0748,-158.75 158.75,-158.75 87.6752,0 158.75,71.0748 158.75,158.75 z"
         sodipodi:nodetypes="zzzzz" />
      <path
         id="circle9"
         style="fill:#000000;fill-opacity:1;stroke-width:4.34116;stroke-linecap:round;stroke-linejoin:round;stroke-miterlimit:155;paint-order:stroke fill markers"
         d="m 71.02173,316.73036 c 0,43.8376 35.5374,79.375 79.375,79.375 43.8376,0 79.375,-35.5374 79.375,-79.375 0,-43.8376 -35.5374,-79.375 -79.375,-79.375 -43.8376,0 -79.375,35.5374 -79.375,79.375 z"
         sodipodi:nodetypes="zzzzz" />
      <path
         sodipodi:nodetypes="ccccccccccc"
         inkscape:connector-curvature="0"
         id="path1"
         d="M 71.01069,304.18258 47.14337,321.52319 56.25988,349.5809 32.39257,332.24028 8.52526,349.5809 17.64177,321.52318 -6.22555,304.18257 h 29.50162 l 9.1165,-28.05771 9.1165,28.05771 z"
         style="fill:#00a800;fill-opacity:1;stroke:none;stroke-width:0.816181;stroke-linecap:butt;stroke-linejoin:miter;stroke-miterlimit:4;stroke-dasharray:none;stroke-opacity:1" />
      <path
         sodipodi:nodetypes="ccccccccccc"
         inkscape:connector-curvature="0"
         id="path13"
         d="m 229.78277,304.18258 23.86732,17.34061 -9.11651,28.05771 23.86731,-17.34062 23.86731,17.34062 -9.11651,-28.05772 23.86732,-17.34061 h -29.50162 l -9.1165,-28.05771 -9.1165,28.05771 z"
         style="fill:#00a800;fill-opacity:1;stroke:none;stroke-width:0.816181;stroke-linecap:butt;stroke-linejoin:miter;stroke-miterlimit:4;stroke-dasharray:none;stroke-opacity:1" />
    </g>
  </g>
</svg>
