<?xml version="1.0" encoding="UTF-8" standalone="no"?>
<!-- Created with Inkscape (http://www.inkscape.org/) -->

<svg
   width="2736"
   height="1800"
   viewBox="0 0 723.9 476.25001"
   version="1.1"
   id="svg8"
   inkscape:export-filename="C:\Users\厂永刄先生\Documents\GXI3CW2\JáÈŭcèŭ\Èŭmen\1996.png"
   inkscape:export-xdpi="96"
   inkscape:export-ydpi="96"
   inkscape:version="1.3 (0e150ed6c4, 2023-07-21)"
   sodipodi:docname="sy_2024_alt.svg"
   xmlns:inkscape="http://www.inkscape.org/namespaces/inkscape"
   xmlns:sodipodi="http://sodipodi.sourceforge.net/DTD/sodipodi-0.dtd"
   xmlns="http://www.w3.org/2000/svg"
   xmlns:svg="http://www.w3.org/2000/svg"
   xmlns:rdf="http://www.w3.org/1999/02/22-rdf-syntax-ns#"
   xmlns:cc="http://creativecommons.org/ns#"
   xmlns:dc="http://purl.org/dc/elements/1.1/">
  <defs
     id="defs2" />
  <sodipodi:namedview
     id="base"
     pagecolor="#ffffff"
     bordercolor="#666666"
     borderopacity="1.0"
     inkscape:pageopacity="0.0"
     inkscape:pageshadow="2"
     inkscape:zoom="0.17347065"
     inkscape:cx="1236.5204"
     inkscape:cy="1640.0469"
     inkscape:document-units="px"
     inkscape:current-layer="layer1"
     showgrid="false"
     units="px"
     fit-margin-top="0"
     fit-margin-left="0"
     fit-margin-right="0"
     fit-margin-bottom="0"
     inkscape:showpageshadow="false"
     inkscape:snap-intersection-paths="true"
     inkscape:object-paths="false"
     inkscape:pagecheckerboard="true"
     inkscape:snap-smooth-nodes="true"
     inkscape:window-width="1920"
     inkscape:window-height="1009"
     inkscape:window-x="-8"
     inkscape:window-y="-8"
     inkscape:window-maximized="1"
     inkscape:object-nodes="true"
     inkscape:snap-nodes="true"
     inkscape:deskcolor="#505050" />
  <metadata
     id="metadata5">
    <rdf:RDF>
      <cc:Work
         rdf:about="">
        <dc:format>image/svg+xml</dc:format>
        <dc:type
           rdf:resource="http://purl.org/dc/dcmitype/StillImage" />
      </cc:Work>
    </rdf:RDF>
  </metadata>
  <g
     inkscape:label="レイヤー 1"
     inkscape:groupmode="layer"
     id="layer1"
     transform="translate(1074.3595,-299.26786)">
    <path
       sodipodi:nodetypes="ccccc"
       inkscape:connector-curvature="0"
       id="path882"
       d="m -350.45949,299.26786 h -714.37501 v 476.25 h 714.37501 z"
       style="fill:#ffffff;fill-opacity:1;stroke:none;stroke-width:2.21559px;stroke-linecap:butt;stroke-linejoin:miter;stroke-opacity:1" />
    <g
       id="g1">
      <path
         inkscape:connector-curvature="0"
         id="path898"
         style="font-style:normal;font-variant:normal;font-weight:normal;font-stretch:normal;font-size:16.9333px;line-height:1.25;font-family:Amiri;-inkscape-font-specification:Amiri;text-align:center;letter-spacing:0px;word-spacing:0px;text-anchor:middle;fill:#000000;fill-opacity:1;stroke:none;stroke-width:2.10006;stroke-miterlimit:4;stroke-dasharray:none;stroke-opacity:1"
         d="m -443.50876,419.6804 c 0.30327,-0.89839 0.82538,-1.35004 1.57657,-1.35004 0.75091,0 1.23705,0.62782 1.57656,1.8322 1.76298,6.25418 3.89489,11.03607 6.30646,14.36821 0.89166,1.23232 0.80812,2.81375 -0.22518,4.82155 -1.01843,1.97826 -1.82683,3.47152 -2.4775,4.43584 -0.65104,0.96428 -0.97583,2.31582 -0.90074,4.05011 0.37591,8.68062 2.31096,51.77524 3.81234,67.01131 1.5014,15.23613 3.35164,58.65489 3.81227,67.01134 0.74093,13.43697 -0.64832,25.47783 -4.12916,36.16162 -2.17457,6.67389 -11.07414,18.81513 -18.90711,24.26964 -15.23499,10.60893 -41.69045,15.5591 -50.86366,13.82271 -2.19864,-0.41613 -2.15079,-2.93671 0,-2.67844 13.63051,1.6367 31.85271,-9.37637 45.39785,-20.39014 8.96263,-7.28766 18.12521,-16.42712 22.34526,-29.10268 2.52089,-7.57178 -3.34236,-55.37806 -5.01355,-83.0671 -1.67118,-27.68903 -2.91524,-55.42607 -5.01355,-83.06709 -0.16616,-2.19043 -0.60019,-6.55731 -0.60019,-6.55731 -0.10532,-1.14925 0.11623,-2.1262 0.37501,-2.89293 z"
         sodipodi:nodetypes="ssssssssssssssssssss" />
      <path
         sodipodi:nodetypes="cccccccc"
         d="m -451.57316,472.71152 c 0.49183,-1.15109 0.9833,-0.90779 1.47457,0.72974 3.57823,10.54734 3.36095,22.03579 -0.65161,34.46542 -0.24833,0.74342 -0.58936,1.06874 -1.02377,0.97576 -0.52018,-0.0863 -0.72059,-0.61145 -0.60112,-1.57678 0.817,-8.6658 0.0734,-16.89223 -2.23079,-24.6793 -0.30298,-0.9689 -0.27323,-1.90738 0.0899,-2.81539 z"
         style="font-style:normal;font-variant:normal;font-weight:normal;font-stretch:normal;font-size:16.9333px;line-height:1.25;font-family:Amiri;-inkscape-font-specification:Amiri;text-align:center;letter-spacing:0px;word-spacing:0px;text-anchor:middle;fill:#000000;fill-opacity:1;stroke:none;stroke-width:2.10006;stroke-miterlimit:4;stroke-dasharray:none;stroke-opacity:1"
         id="path833"
         inkscape:connector-curvature="0" />
      <path
         sodipodi:nodetypes="sssssssssss"
         d="m -518.64382,424.4292 c -0.26267,-7.05588 0.97054,-8.02855 3.48155,-2.71405 l 19.69159,41.67678 c 17.72863,37.52217 53.30137,113.83775 53.04957,127.01546 -0.0327,1.66921 -0.41369,2.36718 -1.09111,1.97057 -0.68405,-0.40056 -1.19463,-1.32687 -1.65621,-2.61367 -3.60562,-10.05258 -8.43802,-20.8763 -14.3969,-32.53671 -0.24816,-0.4865 -31.43203,-62.83836 -41.80069,-83.60084 l -15.15404,-30.34561 c -1.03322,-2.06908 -1.57799,-4.20853 -1.6585,-6.36925 z"
         style="font-style:normal;font-variant:normal;font-weight:normal;font-stretch:normal;font-size:16.9333px;line-height:1.25;font-family:Amiri;-inkscape-font-specification:Amiri;text-align:center;letter-spacing:0px;word-spacing:0px;text-anchor:middle;fill:#000000;fill-opacity:1;stroke:none;stroke-width:2.10006;stroke-miterlimit:4;stroke-dasharray:none;stroke-opacity:1"
         id="path823"
         inkscape:connector-curvature="0" />
      <path
         sodipodi:nodetypes="sssssssssss"
         d="m -471.48107,423.33364 c 2.16415,-6.49291 3.65463,-6.67946 4.05415,-0.48261 l 3.5286,54.73034 c 2.8209,43.753 5.76047,108.36945 1.05157,120.07851 -0.59657,1.48284 -1.17778,1.89593 -1.65167,1.15834 -0.47852,-0.74413 -0.62288,-1.86502 -0.60019,-3.2819 0.17797,-11.06765 -0.48487,-23.51858 -1.87693,-37.35561 -0.0544,-0.57765 -3.77503,-50.16294 -5.70627,-74.71125 l -3.30332,-41.98887 c -0.19249,-2.44637 0.009,-4.67197 0.67555,-6.6603 z"
         style="font-style:normal;font-variant:normal;font-weight:normal;font-stretch:normal;font-size:16.9333px;line-height:1.25;font-family:Amiri;-inkscape-font-specification:Amiri;text-align:center;letter-spacing:0px;word-spacing:0px;text-anchor:middle;fill:#000000;fill-opacity:1;stroke:none;stroke-width:2.10006;stroke-miterlimit:4;stroke-dasharray:none;stroke-opacity:1"
         id="path825"
         inkscape:connector-curvature="0" />
      <path
         d="m -464.32131,623.69853 c -2.6752,0.69268 -4.57333,1.2261 -5.67924,1.67431 -1.11283,0.45101 -3.1887,1.58524 -6.25802,3.30213 -0.64471,0.36063 -1.11955,0.23098 -1.41076,-0.32557 -0.60108,-1.14877 0.36173,-2.72851 2.89388,-4.74389 -1.83279,-1.17822 -2.85397,-2.51238 -3.07475,-3.99976 -0.38212,-2.5744 0.4325,-5.70227 2.49597,-9.34826 2.06036,-3.64047 4.2804,-5.31538 6.61975,-5.06946 1.49505,0.15716 2.14522,1.22296 1.98954,3.2091 -0.15784,2.01375 -0.57876,3.6742 -1.30224,4.97645 -0.72347,1.30224 -1.33842,1.44177 -1.84485,0.41858 -0.50642,-1.0232 -1.25413,-1.59529 -2.24276,-1.72083 -0.96474,-0.12251 -1.72426,0.23255 -2.27893,1.0697 -0.55465,0.83716 -0.51152,1.66567 0.14469,2.46497 1.63481,1.99127 4.039,3.0557 7.19853,3.1626 0.50626,0.0171 1.26608,-0.15504 2.27894,-0.4651 1.01286,-0.31005 1.71238,-0.48011 2.09806,-0.46508 0.41049,0.016 0.6958,0.23526 0.86816,0.60461 0.1894,0.40584 0.23315,0.77757 0.10853,1.11622 -0.93649,2.54494 -1.80698,3.93278 -2.6045,4.13928 z"
         style="font-style:normal;font-variant:normal;font-weight:normal;font-stretch:normal;font-size:105.833px;line-height:1.25;font-family:'Amiri Quran';-inkscape-font-specification:'Amiri Quran';text-align:center;letter-spacing:0px;word-spacing:0px;text-anchor:middle;fill:#000000;fill-opacity:1;stroke:none;stroke-width:2.10006;stroke-miterlimit:4;stroke-dasharray:none;stroke-opacity:1"
         id="path838"
         inkscape:connector-curvature="0"
         sodipodi:nodetypes="sssscsssssssssssssss" />
      <path
         sodipodi:nodetypes="aaasssssssaaassssssssssssssaa"
         d="m -508.47178,645.22993 c -12.27542,1.69389 -19.51163,-20.36093 -31.08282,-25.8954 -6.78774,-3.24656 -14.70361,-6.96301 -21.52202,-3.82452 -13.05813,6.01063 -18.40786,26.99038 -28.23644,39.2939 -1.02927,1.28845 -3.0351,2.27046 -4.19589,1.18555 -8.21336,-7.67619 -8.93177,-30.14129 -7.82737,-42.81781 0.2951,-3.38951 2.80338,-2.73724 2.66599,-0.50881 -0.35566,5.76979 0.43893,10.93332 1.48282,16.20064 0.78189,3.94547 1.90784,7.85896 3.53909,11.32796 0.53509,1.13792 2.32443,1.19853 3.07814,0.29174 10.64901,-12.81214 13.83611,-28.59547 25.24043,-34.35196 8.90299,-4.4939 19.65065,-1.80989 28.63179,2.41911 9.49953,4.47308 14.38671,24.98894 24.40645,23.19381 11.63369,-2.08429 21.83937,-17.40385 21.53207,-35.86441 -0.45929,-27.59121 -3.34236,-46.24054 -5.01355,-74.15784 -1.67118,-27.91729 -2.91523,-55.88299 -5.01354,-83.75187 -0.16617,-2.20849 -0.60019,-6.61137 -0.60019,-6.61137 -0.10533,-1.15874 0.11622,-2.14373 0.375,-2.91679 l 2.92832,-8.75034 c 0.30328,-0.90579 0.82537,-1.36116 1.57657,-1.36116 0.75092,0 1.23706,0.63299 1.57657,1.84729 1.76297,6.30574 3.89488,11.12705 6.30645,14.48667 0.89166,1.24248 0.80812,2.83694 -0.22518,4.86129 -1.01843,1.99457 -1.82682,3.50015 -2.47749,4.47241 -0.65105,0.97222 -0.97584,2.33491 -0.90075,4.08349 0.37591,8.75219 2.31097,52.20208 3.81235,67.56374 1.50139,15.36173 3.35163,59.13843 3.81226,67.56377 0.74093,13.54775 0.86142,24.51715 -3.10778,35.14654 -4.2503,11.38218 -10.9971,25.52701 -20.76128,26.87437 z"
         style="font-style:normal;font-variant:normal;font-weight:normal;font-stretch:normal;font-size:16.9333px;line-height:1.25;font-family:Amiri;-inkscape-font-specification:Amiri;text-align:center;letter-spacing:0px;word-spacing:0px;text-anchor:middle;fill:#000000;fill-opacity:1;stroke:none;stroke-width:2.10006;stroke-miterlimit:4;stroke-dasharray:none;stroke-opacity:1"
         id="path852"
         inkscape:connector-curvature="0" />
      <path
         sodipodi:nodetypes="cccccccc"
         d="m -510.38159,555.83459 c 0.6456,-1.51098 1.29073,-1.1916 1.9356,0.95788 4.69692,13.84491 4.41172,28.92515 -0.85535,45.24084 -0.32596,0.97585 -0.77361,1.40287 -1.34384,1.2808 -0.68282,-0.11323 -0.94587,-0.80261 -0.78906,-2.06973 1.07245,-11.37511 0.0962,-22.17348 -2.92822,-32.39513 -0.3977,-1.27183 -0.35866,-2.50372 0.11804,-3.69561 z"
         style="font-style:normal;font-variant:normal;font-weight:normal;font-stretch:normal;font-size:16.9333px;line-height:1.25;font-family:Amiri;-inkscape-font-specification:Amiri;text-align:center;letter-spacing:0px;word-spacing:0px;text-anchor:middle;fill:#000000;fill-opacity:1;stroke:none;stroke-width:2.10006;stroke-miterlimit:4;stroke-dasharray:none;stroke-opacity:1"
         id="path866"
         inkscape:connector-curvature="0" />
      <path
         inkscape:connector-curvature="0"
         id="path970"
         style="font-style:normal;font-variant:normal;font-weight:normal;font-stretch:normal;font-size:16.9333px;line-height:1.25;font-family:Amiri;-inkscape-font-specification:Amiri;text-align:center;letter-spacing:0px;word-spacing:0px;text-anchor:middle;fill:#000000;fill-opacity:1;stroke:none;stroke-width:2.10006;stroke-miterlimit:4;stroke-dasharray:none;stroke-opacity:1"
         d="m -521.35493,509.40587 c 2.21067,-8.97954 5.75589,-16.53817 10.47388,-24.84051 0.18502,-0.32565 0.56152,-0.554 0.81698,-0.32003 0.31071,0.28443 0.0145,0.78026 -0.17026,1.2092 -3.41395,7.91919 -6.5091,15.61744 -8.01659,24.15386 -0.51713,2.92838 -1.07911,6.16826 -0.30258,9.00034 0.53745,1.96009 1.61951,4.25614 3.2015,4.68316 1.33412,0.3601 2.90085,-0.80682 3.70722,-2.21998 0.57283,-1.00387 0.44808,-2.42339 0.37945,-3.7032 -0.0807,-1.50506 1.00089,-1.59072 1.35144,0.30891 1.21698,6.59431 0.0603,9.31135 -2.26323,12.26711 -1.24129,1.57905 -3.48737,2.31515 -5.10969,1.48469 -2.87416,-1.47123 -4.4422,-6.04406 -5.16915,-9.91015 -0.74299,-3.95145 0.14686,-8.23765 1.10103,-12.1134 z"
         sodipodi:nodetypes="ssssssssssssss" />
      <path
         inkscape:connector-curvature="0"
         id="path976"
         style="font-style:normal;font-variant:normal;font-weight:normal;font-stretch:normal;font-size:16.9333px;line-height:1.25;font-family:Amiri;-inkscape-font-specification:Amiri;text-align:center;letter-spacing:0px;word-spacing:0px;text-anchor:middle;fill:#000000;fill-opacity:1;stroke:none;stroke-width:2.10006;stroke-miterlimit:4;stroke-dasharray:none;stroke-opacity:1"
         d="m -539.34822,423.10379 c 2.6057,-6.35412 4.10319,-6.36942 4.07141,-0.0167 l -0.28058,56.11038 c -0.22427,44.85624 -1.77714,164.4844 -7.27929,175.84878 -0.69735,1.43916 -1.30453,1.79148 -1.72539,0.98537 -0.42494,-0.81325 -0.49123,-1.97091 -0.37047,-3.41014 0.94469,-11.24232 1.1479,-23.99082 0.72096,-38.2353 -0.0181,-0.59425 -0.28148,-105.01717 -0.50304,-130.2253 l -0.37864,-43.11746 c -0.0181,-2.51211 0.33324,-4.75342 1.13474,-6.69883 z"
         sodipodi:nodetypes="sssssssssss" />
      <path
         inkscape:connector-curvature="0"
         id="path1064"
         style="font-style:normal;font-variant:normal;font-weight:normal;font-stretch:normal;font-size:16.9333px;line-height:1.25;font-family:Amiri;-inkscape-font-specification:Amiri;text-align:center;letter-spacing:0px;word-spacing:0px;text-anchor:middle;fill:#000000;fill-opacity:1;stroke:none;stroke-width:2.10006;stroke-miterlimit:4;stroke-dasharray:none;stroke-opacity:1"
         d="m -566.86509,647.49324 c 0.0946,-2.46263 0.92989,-4.86556 1.93329,-6.96675 2.57504,-5.39223 5.97168,-9.44512 10.15604,-13.77791 0.16411,-0.16996 0.43931,-0.23397 0.57344,-0.025 0.16316,0.25404 -0.0961,0.50958 -0.27401,0.74661 -3.28635,4.37568 -6.33593,8.67926 -8.4686,13.88169 -0.73161,1.78466 -1.53444,3.76144 -1.41353,5.77282 0.0837,1.39209 0.47533,3.12394 1.44417,3.75469 0.81702,0.53193 1.99151,0.12494 2.70589,-0.61181 0.50748,-0.52338 0.6185,-1.47241 0.74704,-2.31824 0.15116,-0.9947 0.86462,-0.80848 0.8352,0.50258 -0.10209,4.55122 -1.22013,6.05576 -3.12763,7.45437 -1.01903,0.74717 -2.6067,0.77322 -3.51654,-0.17885 -1.70629,-1.78547 -1.70324,-5.40908 -1.59476,-8.23418 z"
         sodipodi:nodetypes="ssssssssssssss" />
      <path
         sodipodi:nodetypes="ssssssssssssss"
         d="m -565.80496,485.59335 c 2.21067,-8.97953 5.75589,-16.53816 10.47388,-24.8405 0.18502,-0.32566 0.56152,-0.554 0.81698,-0.32003 0.31071,0.28443 0.0145,0.78025 -0.17026,1.20919 -3.41396,7.91919 -6.5091,15.61744 -8.01658,24.15387 -0.51713,2.92838 -1.07911,6.16826 -0.30258,9.00033 0.53744,1.9601 1.6195,4.25615 3.2015,4.68316 1.33411,0.3601 2.90084,-0.80681 3.70721,-2.21997 0.57283,-1.00387 0.44808,-2.4234 0.37946,-3.70321 -0.0807,-1.50506 1.00088,-1.59071 1.35143,0.30892 1.21698,6.59431 0.0603,9.31135 -2.26323,12.26711 -1.24129,1.57905 -3.48736,2.31515 -5.10969,1.48469 -2.87415,-1.47124 -4.44221,-6.04407 -5.16915,-9.91015 -0.743,-3.95145 0.14685,-8.23766 1.10103,-12.11341 z"
         style="font-style:normal;font-variant:normal;font-weight:normal;font-stretch:normal;font-size:16.9333px;line-height:1.25;font-family:Amiri;-inkscape-font-specification:Amiri;text-align:center;letter-spacing:0px;word-spacing:0px;text-anchor:middle;fill:#000000;fill-opacity:1;stroke:none;stroke-width:2.10006;stroke-miterlimit:4;stroke-dasharray:none;stroke-opacity:1"
         id="path874"
         inkscape:connector-curvature="0" />
      <path
         inkscape:connector-curvature="0"
         id="path886"
         style="font-style:normal;font-variant:normal;font-weight:normal;font-stretch:normal;font-size:16.9333px;line-height:1.25;font-family:Amiri;-inkscape-font-specification:Amiri;text-align:center;letter-spacing:0px;word-spacing:0px;text-anchor:middle;fill:#000000;fill-opacity:1;stroke:none;stroke-width:2.10006;stroke-miterlimit:4;stroke-dasharray:none;stroke-opacity:1"
         d="m -549.15876,429.39234 c -1.50563,1.52709 -3.46316,2.29718 -5.35432,2.70608 -4.85325,1.04933 -9.46149,0.4222 -14.75158,-0.7842 -0.20748,-0.0472 -0.4259,-0.27187 -0.39158,-0.53919 0.0417,-0.32506 0.36183,-0.24187 0.61772,-0.22524 4.72496,0.30808 9.25202,0.43415 13.70324,-0.91904 1.52697,-0.4642 3.21336,-0.98566 4.31286,-2.42492 0.76097,-0.99611 1.51865,-2.51396 1.25154,-3.86731 -0.22526,-1.14129 -1.23581,-2.01178 -2.13723,-2.2197 -0.64035,-0.14769 -1.2696,0.36855 -1.84987,0.79997 -0.68241,0.50736 -1.04222,-0.30633 -0.25439,-1.1396 2.73478,-2.89266 4.35157,-2.7983 6.42518,-1.86937 1.10778,0.49627 2.16664,2.01748 2.20664,3.52488 0.075,2.8269 -2.05097,5.20578 -3.77821,6.95764 z"
         sodipodi:nodetypes="ssssssssssssss" />
      <path
         inkscape:connector-curvature="0"
         id="path972"
         style="font-style:normal;font-variant:normal;font-weight:normal;font-stretch:normal;font-size:16.9333px;line-height:1.25;font-family:Amiri;-inkscape-font-specification:Amiri;text-align:center;letter-spacing:0px;word-spacing:0px;text-anchor:middle;fill:#000000;fill-opacity:1;stroke:none;stroke-width:2.10006;stroke-miterlimit:4;stroke-dasharray:none;stroke-opacity:1"
         d="m -562.47121,558.45965 c 2.21067,-8.97953 5.75589,-16.53816 10.47388,-24.8405 0.18502,-0.32565 0.56152,-0.554 0.81698,-0.32003 0.31071,0.28443 0.0145,0.78026 -0.17026,1.2092 -3.41396,7.91919 -6.5091,15.61743 -8.01658,24.15386 -0.51713,2.92838 -1.07911,6.16826 -0.30258,9.00033 0.53744,1.9601 1.6195,4.25615 3.2015,4.68316 1.33411,0.3601 2.90084,-0.80681 3.70721,-2.21997 0.57283,-1.00387 0.44808,-2.4234 0.37946,-3.70321 -0.0807,-1.50506 1.00088,-1.59071 1.35143,0.30892 1.21698,6.59431 0.0603,9.31135 -2.26323,12.26711 -1.24129,1.57905 -3.48736,2.31515 -5.10969,1.48469 -2.87416,-1.47124 -4.44221,-6.04407 -5.16915,-9.91015 -0.743,-3.95145 0.14685,-8.23765 1.10103,-12.11341 z"
         sodipodi:nodetypes="ssssssssssssss" />
      <path
         inkscape:connector-curvature="0"
         id="path872"
         style="font-style:normal;font-variant:normal;font-weight:normal;font-stretch:normal;font-size:16.9333px;line-height:1.25;font-family:Amiri;-inkscape-font-specification:Amiri;text-align:center;letter-spacing:0px;word-spacing:0px;text-anchor:middle;fill:#000000;fill-opacity:1;stroke:none;stroke-width:2.10006;stroke-miterlimit:4;stroke-dasharray:none;stroke-opacity:1"
         d="m -584.26719,419.6804 c 0.30328,-0.89839 0.82538,-1.35004 1.57657,-1.35004 0.75092,0 1.23707,0.62782 1.57657,1.8322 1.76298,6.25418 3.89488,11.03607 6.30645,14.36821 0.89166,1.23232 0.80813,2.81375 -0.22518,4.82155 -1.01842,1.97826 -1.82681,3.47152 -2.47749,4.43584 -0.65104,0.96428 -0.97584,2.31582 -0.90074,4.05011 0.37591,8.68062 2.31096,47.96524 3.81235,63.20131 1.50138,15.23613 3.35162,55.79739 3.81226,64.15385 0.74093,13.43697 -0.14546,25.10749 -4.12915,36.16162 -4.00902,11.12438 -10.72288,21.31091 -18.90712,27.60339 -14.94173,11.48801 -41.69046,16.98784 -50.86367,15.25145 -2.19864,-0.41613 -2.15078,-2.9367 0,-2.67843 13.63052,1.63669 32.08098,-10.05931 45.39786,-21.81889 9.26003,-8.17715 18.12522,-19.76088 22.34525,-32.43644 2.5209,-7.57178 -3.34236,-52.52056 -5.01355,-80.2096 -1.67118,-27.68903 -2.91522,-51.61607 -5.01354,-79.25709 -0.16617,-2.19043 -0.60018,-6.55731 -0.60018,-6.55731 -0.10534,-1.14925 0.11621,-2.1262 0.37499,-2.89293 z"
         sodipodi:nodetypes="sssssssssaassassssss" />
      <path
         d="m -598.13783,458.46313 c 0.15078,-1.22681 0.64504,-1.80618 1.46394,-1.75646 0.97573,0.0595 1.40787,0.63879 1.32225,1.75646 -0.22903,2.99438 -0.8755,8.34991 -1.93616,10.37346 -1.23749,2.36083 -3.0224,3.63279 -5.38343,3.79883 -1.51123,0.10625 -2.94352,-0.55823 -4.29729,-2.00153 -0.91296,1.38881 -2.10887,2.4251 -3.58892,3.10442 -1.60518,0.73674 -3.19539,0.83058 -4.7695,0.28594 -3.77785,-1.30713 -4.21642,-8.09608 -1.27506,-14.62164 0.45861,-1.01782 1.16637,-1.35474 2.07785,-1.02119 0.72557,0.26553 0.92832,0.89844 0.61385,1.879 -1.03924,3.24039 -0.78713,7.82728 1.41671,8.08599 2.20385,0.25872 4.33864,-4.83467 5.76118,-9.59736 0.27757,-0.9288 0.78754,-1.32511 1.51116,-1.18458 0.81902,0.15906 1.12242,0.56227 0.99167,1.22544 -0.56199,2.8508 0.25188,7.16009 2.36115,7.18734 2.10926,0.0273 3.34622,-4.38363 3.7306,-7.51412 z"
         style="font-style:normal;font-variant:normal;font-weight:normal;font-stretch:normal;font-size:16.9333px;line-height:1.25;font-family:Amiri;-inkscape-font-specification:Amiri;text-align:center;letter-spacing:0px;word-spacing:0px;text-anchor:middle;fill:#000000;fill-opacity:1;stroke:none;stroke-width:2.10006;stroke-miterlimit:4;stroke-dasharray:none;stroke-opacity:1"
         id="path966"
         inkscape:connector-curvature="0"
         sodipodi:nodetypes="ssssscssssszssszs" />
      <path
         sodipodi:nodetypes="ssssssssssssss"
         d="m -602.86925,429.39234 c -1.50563,1.52709 -3.46316,2.29718 -5.35432,2.70608 -4.85325,1.04933 -9.46149,0.4222 -14.75157,-0.7842 -0.20749,-0.0472 -0.42591,-0.27187 -0.39159,-0.53919 0.0416,-0.32506 0.36183,-0.24187 0.61772,-0.22524 4.72496,0.30808 9.25202,0.43415 13.70324,-0.91904 1.52697,-0.4642 3.21336,-0.98566 4.31286,-2.42492 0.76097,-0.99611 1.51865,-2.51396 1.25154,-3.86731 -0.22525,-1.14129 -1.23581,-2.01178 -2.13723,-2.2197 -0.64035,-0.14769 -1.2696,0.36855 -1.84987,0.79997 -0.68241,0.50736 -1.04222,-0.30633 -0.25439,-1.1396 2.73478,-2.89266 4.35157,-2.7983 6.42518,-1.86937 1.10778,0.49627 2.16664,2.01748 2.20664,3.52488 0.075,2.8269 -2.05097,5.20578 -3.77821,6.95764 z"
         style="font-style:normal;font-variant:normal;font-weight:normal;font-stretch:normal;font-size:16.9333px;line-height:1.25;font-family:Amiri;-inkscape-font-specification:Amiri;text-align:center;letter-spacing:0px;word-spacing:0px;text-anchor:middle;fill:#000000;fill-opacity:1;stroke:none;stroke-width:2.10006;stroke-miterlimit:4;stroke-dasharray:none;stroke-opacity:1"
         id="path910"
         inkscape:connector-curvature="0" />
      <path
         inkscape:connector-curvature="0"
         id="path974"
         style="font-style:normal;font-variant:normal;font-weight:normal;font-stretch:normal;font-size:16.9333px;line-height:1.25;font-family:Amiri;-inkscape-font-specification:Amiri;text-align:center;letter-spacing:0px;word-spacing:0px;text-anchor:middle;fill:#000000;fill-opacity:1;stroke:none;stroke-width:2.10006;stroke-miterlimit:4;stroke-dasharray:none;stroke-opacity:1"
         d="m -610.25499,509.40587 c 2.21067,-8.97954 5.7559,-16.53817 10.47388,-24.84051 0.18503,-0.32565 0.56152,-0.554 0.81699,-0.32003 0.3107,0.28443 0.0145,0.78026 -0.17027,1.2092 -3.41395,7.91919 -6.5091,15.61744 -8.01658,24.15386 -0.51713,2.92838 -1.07911,6.16826 -0.30258,9.00034 0.53744,1.96009 1.6195,4.25614 3.2015,4.68316 1.33412,0.3601 2.90084,-0.80682 3.70721,-2.21998 0.57283,-1.00387 0.44808,-2.42339 0.37946,-3.7032 -0.0807,-1.50506 1.00088,-1.59072 1.35143,0.30891 1.21698,6.59431 0.0603,9.31135 -2.26323,12.26711 -1.24129,1.57905 -3.48736,2.31515 -5.10968,1.48469 -2.87417,-1.47123 -4.44221,-6.04406 -5.16916,-9.91015 -0.74299,-3.95145 0.14686,-8.23765 1.10103,-12.1134 z"
         sodipodi:nodetypes="ssssssssssssss" />
      <path
         sodipodi:nodetypes="ssssssssssssss"
         d="m -649.32826,553.0027 c 0.0946,-2.46263 0.92989,-4.86556 1.9333,-6.96674 2.57504,-5.39224 5.97167,-9.44513 10.15604,-13.77791 0.1641,-0.16997 0.4393,-0.23398 0.57344,-0.025 0.16315,0.25403 -0.0961,0.50958 -0.27402,0.7466 -3.28634,4.37568 -6.33593,8.67927 -8.4686,13.88169 -0.7316,1.78466 -1.53443,3.76144 -1.41353,5.77282 0.0837,1.3921 0.47534,3.12394 1.44417,3.7547 0.81703,0.53192 1.99151,0.12493 2.70589,-0.61182 0.50748,-0.52337 0.6185,-1.4724 0.74705,-2.31823 0.15115,-0.99471 0.86461,-0.80849 0.83519,0.50257 -0.10208,4.55122 -1.22012,6.05576 -3.12762,7.45437 -1.01904,0.74717 -2.60671,0.77323 -3.51655,-0.17885 -1.70628,-1.78547 -1.70324,-5.40908 -1.59476,-8.23418 z"
         style="font-style:normal;font-variant:normal;font-weight:normal;font-stretch:normal;font-size:16.9333px;line-height:1.25;font-family:Amiri;-inkscape-font-specification:Amiri;text-align:center;letter-spacing:0px;word-spacing:0px;text-anchor:middle;fill:#000000;fill-opacity:1;stroke:none;stroke-width:2.10006;stroke-miterlimit:4;stroke-dasharray:none;stroke-opacity:1"
         id="path964"
         inkscape:connector-curvature="0" />
      <path
         inkscape:connector-curvature="0"
         id="path918"
         style="font-style:normal;font-variant:normal;font-weight:normal;font-stretch:normal;font-size:16.9333px;line-height:1.25;font-family:Amiri;-inkscape-font-specification:Amiri;text-align:center;letter-spacing:0px;word-spacing:0px;text-anchor:middle;fill:#000000;fill-opacity:1;stroke:none;stroke-width:2.10006;stroke-miterlimit:4;stroke-dasharray:none;stroke-opacity:1"
         d="m -656.57966,429.39234 c -1.50563,1.52709 -3.46316,2.29718 -5.35433,2.70608 -4.85324,1.04933 -9.46148,0.4222 -14.75157,-0.7842 -0.20749,-0.0472 -0.4259,-0.27187 -0.39159,-0.53919 0.0416,-0.32506 0.36183,-0.24187 0.61773,-0.22524 4.72495,0.30808 9.25202,0.43415 13.70323,-0.91904 1.52698,-0.4642 3.21337,-0.98566 4.31287,-2.42492 0.76097,-0.99611 1.51865,-2.51396 1.25154,-3.86731 -0.22526,-1.14129 -1.23582,-2.01178 -2.13723,-2.2197 -0.64035,-0.14769 -1.2696,0.36855 -1.84987,0.79997 -0.68241,0.50736 -1.04222,-0.30633 -0.2544,-1.1396 2.73479,-2.89266 4.35157,-2.7983 6.42518,-1.86937 1.10779,0.49627 2.16664,2.01748 2.20665,3.52488 0.075,2.8269 -2.05097,5.20578 -3.77821,6.95764 z"
         sodipodi:nodetypes="ssssssssssssss" />
      <path
         sodipodi:nodetypes="sssssssssss"
         d="m -682.97009,460.80246 c -1.64298,-6.74076 -0.60566,-8.12944 2.83408,-3.75838 l 30.3797,38.60488 c 24.28644,30.86186 59.2225,77.46616 61.57325,90.29667 0.2975,1.62505 0.0653,2.42498 -0.66786,2.26141 -0.73996,-0.16467 -1.41689,-0.89497 -2.11678,-1.98982 -5.46648,-8.55264 -12.27152,-17.45215 -20.33179,-26.79403 -0.33371,-0.39304 -28.25515,-34.93066 -42.14607,-51.95458 l -23.75986,-29.11869 c -1.38435,-1.6965 -2.3577,-3.55508 -2.858,-5.62243 z"
         style="font-style:normal;font-variant:normal;font-weight:normal;font-stretch:normal;font-size:16.9333px;line-height:1.25;font-family:Amiri;-inkscape-font-specification:Amiri;text-align:center;letter-spacing:0px;word-spacing:0px;text-anchor:middle;fill:#000000;fill-opacity:1;stroke:none;stroke-width:2.10006;stroke-miterlimit:4;stroke-dasharray:none;stroke-opacity:1"
         id="path916"
         inkscape:connector-curvature="0" />
      <path
         inkscape:connector-curvature="0"
         id="path870"
         style="font-style:normal;font-variant:normal;font-weight:normal;font-stretch:normal;font-size:16.9333px;line-height:1.25;font-family:Amiri;-inkscape-font-specification:Amiri;text-align:center;letter-spacing:0px;word-spacing:0px;text-anchor:middle;fill:#000000;fill-opacity:1;stroke:none;stroke-width:2.10006;stroke-miterlimit:4;stroke-dasharray:none;stroke-opacity:1"
         d="m -683.63027,495.75946 q 1.67808,-0.29175 2.82879,1.92562 2.44526,4.60985 -0.0454,12.48743 1.58229,1.10871 2.30143,1.51716 1.34248,0.64185 0.57477,2.39244 l -1.10277,2.56752 q -0.52665,1.28375 -1.48631,0.87534 -0.91101,-0.46686 -2.63704,-1.63387 -6.76046,10.91189 -15.39077,16.16361 -1.91789,1.2254 -2.58908,-0.29174 -0.76727,-1.75057 1.39042,-3.20938 8.87012,-6.30206 14.04829,-14.41306 -2.78086,-1.75056 -4.12342,-3.38444 -2.39723,-2.74256 -1.29455,-5.83524 2.8288,-8.28604 7.52763,-9.16132 z m -1.00689,7.76087 q -2.20554,-2.45081 -3.54803,0.29174 -0.38318,0.64185 0.47942,1.80893 0.91091,1.10871 4.0754,2.97597 0.4313,-3.5595 -1.00688,-5.07665 z" />
      <path
         inkscape:connector-curvature="0"
         id="path914"
         style="font-style:normal;font-variant:normal;font-weight:normal;font-stretch:normal;font-size:16.9333px;line-height:1.25;font-family:Amiri;-inkscape-font-specification:Amiri;text-align:center;letter-spacing:0px;word-spacing:0px;text-anchor:middle;fill:#000000;fill-opacity:1;stroke:none;stroke-width:2.10006;stroke-miterlimit:4;stroke-dasharray:none;stroke-opacity:1"
         d="m -788.04975,487.01059 c 2.86941,-10.41017 5.08628,-22.76169 11.9946,-29.32597 2.82598,-2.68524 8.07942,-5.94727 10.35964,-2.50967 4.91701,7.41273 2.95339,16.24219 3.47996,24.52425 0.48645,7.65112 -3.23314,16.33248 -0.31036,23.02645 2.12545,4.86787 6.94522,8.39675 11.23612,8.47205 3.69308,0.0653 8.40728,-8.70149 9.80817,-11.58261 1.41518,-2.91063 2.94017,-6.78402 2.64896,-11.67967 l -3.07756,-51.73804 c -0.1955,-3.28695 -0.009,-5.68805 0.64422,-7.23946 l 3.5796,-8.4943 c 0.57041,-1.35366 1.14538,-1.89838 1.71825,-1.64095 0.57232,0.25731 0.85897,0.90337 0.93064,1.93052 0.069,1.03306 0.52818,7.91475 1.28874,20.6566 2.34238,39.25358 2.43338,38.77134 4.86751,47.97349 2.43415,9.20217 6.11476,15.19806 11.59863,18.34259 3.61764,2.0744 8.93369,2.70461 11.77203,-0.96266 6.61792,-8.55068 4.7384,-12.61751 2.83176,-36.8781 -1.91168,-24.32424 -1.93203,-27.22038 -2.36159,-33.39805 -1.06155,-15.26547 -0.70479,-5.31376 -0.35757,-7.9152 0.40696,-3.048 2.7921,-8.4943 2.7921,-8.4943 0.4096,-1.24668 0.83209,-1.83122 1.50341,-1.73748 0.71351,0.0992 1.23396,0.74365 1.57501,2.02705 1.71123,6.43849 3.64958,11.16708 5.79902,14.18935 1.19153,1.67534 0.3108,4.79488 -2.64888,9.36303 -0.66756,1.03039 -0.99965,2.12552 -0.93072,3.2819 0.98354,16.5097 0.68754,15.7516 1.86032,32.5293 1.19189,17.05313 0.24508,17.08638 -0.57322,24.80722 -1.52082,14.35147 -5.05954,17.49916 -10.61605,22.03811 -3.17192,2.59105 -7.49454,2.71518 -11.07619,1.41779 -6.8238,-2.47181 -17.2571,-16.59634 -17.2571,-16.59634 -3.79714,6.91453 -13.24234,17.35969 -20.70163,16.42676 -5.58502,-0.69848 -10.4214,-6.73537 -14.03083,-12.52402 -2.58221,-4.14125 -4.14317,-9.57243 -4.82203,-14.87182 -1.11214,-8.68179 6.2639,-20.13797 1.40526,-26.33439 -0.69668,-0.8885 -2.12528,-0.42266 -2.93522,0.28965 -4.30239,3.78379 -5.0422,11.80141 -6.76736,18.12567 -2.22161,8.1442 -0.84093,18.01991 -4.53397,25.22695 -2.38116,4.64687 -9.36351,10.94977 -10.47045,9.87267 -7.83224,-7.62094 -8.51733,-29.92434 -7.46417,-42.50962 0.28139,-3.36511 2.6733,-2.71754 2.5423,-0.50515 -0.33913,5.72826 -0.13347,10.60248 0.73821,15.71961 0.84853,4.9814 1.14857,9.67935 4.30573,14.19187 0.72587,1.0375 3.40165,0.19321 6.08363,-4.49446 2.682,-4.68769 1.5399,-15.63154 3.57108,-23.00062 z"
         sodipodi:nodetypes="sssssssssssssssssssssssssssssscssssssssssssss" />
      <path
         sodipodi:nodetypes="ssssscssssszssszs"
         inkscape:connector-curvature="0"
         id="path920"
         style="font-style:normal;font-variant:normal;font-weight:normal;font-stretch:normal;font-size:16.9333px;line-height:1.25;font-family:Amiri;-inkscape-font-specification:Amiri;text-align:center;letter-spacing:0px;word-spacing:0px;text-anchor:middle;fill:#000000;fill-opacity:1;stroke:none;stroke-width:2.10006;stroke-miterlimit:4;stroke-dasharray:none;stroke-opacity:1"
         d="m -709.2629,420.08976 c 0.15078,-1.2268 0.64505,-1.80617 1.46394,-1.75645 0.97573,0.0595 1.40786,0.63879 1.32224,1.75645 -0.22902,2.99438 -0.87549,8.34992 -1.93615,10.37347 -1.23748,2.36083 -3.0224,3.63279 -5.38343,3.79882 -1.51123,0.10626 -2.94352,-0.55822 -4.29729,-2.00152 -0.91297,1.38881 -2.10887,2.4251 -3.58892,3.10442 -1.60518,0.73674 -3.19539,0.83057 -4.7695,0.28594 -3.77786,-1.30713 -4.21642,-8.09608 -1.27507,-14.62164 0.45862,-1.01782 1.16638,-1.35475 2.07786,-1.02119 0.72556,0.26553 0.92832,0.89844 0.61385,1.87899 -1.03924,3.2404 -0.78713,7.82729 1.41671,8.086 2.20385,0.25871 4.33865,-4.83467 5.76118,-9.59736 0.27757,-0.92881 0.78753,-1.32511 1.51117,-1.18459 0.81901,0.15907 1.1224,0.56228 0.99166,1.22544 -0.56199,2.85081 0.25188,7.1601 2.36114,7.18735 2.10927,0.0273 3.34624,-4.38363 3.73061,-7.51413 z" />
      <path
         inkscape:connector-curvature="0"
         id="path1086"
         style="font-style:normal;font-variant:normal;font-weight:normal;font-stretch:normal;font-size:16.9333px;line-height:1.25;font-family:Amiri;-inkscape-font-specification:Amiri;text-align:center;letter-spacing:0px;word-spacing:0px;text-anchor:middle;fill:#000000;fill-opacity:1;stroke:none;stroke-width:2.10006;stroke-miterlimit:4;stroke-dasharray:none;stroke-opacity:1"
         d="m -754.95468,419.26588 c 0.64559,-1.51098 1.29073,-1.1916 1.9356,0.95788 4.69692,13.84491 4.41172,28.92515 -0.85535,45.24083 -0.32596,0.97586 -0.77361,1.40288 -1.34384,1.28081 -0.68282,-0.11324 -0.94587,-0.80261 -0.78906,-2.06973 1.07244,-11.37512 0.0963,-22.17349 -2.92822,-32.39514 -0.39771,-1.27182 -0.35867,-2.50372 0.11803,-3.6956 z"
         sodipodi:nodetypes="cccccccc" />
      <path
         d="m -803.59586,429.3742 c -0.23002,0.45112 -0.11145,1.0507 0.47942,1.80893 0.59189,0.7595 1.96574,1.73113 4.0754,2.97597 0.28754,-2.373 -0.0481,-4.06522 -1.26262,-5.38786 -1.21454,-1.32265 -2.37099,-1.20375 -3.2922,0.60296 z m 10.95718,13.44765 c -1.33431,0.95396 -4.93061,-0.82512 -5.96868,-1.36863 -4.50698,7.27461 -9.64681,12.63654 -15.39077,16.16362 -1.28837,0.79112 -2.14331,0.72092 -2.58908,-0.29174 -0.5132,-1.16582 -0.0352,-2.2061 1.39042,-3.20938 5.92649,-4.1708 10.59618,-9.00572 14.04829,-14.41306 -1.85391,-1.16704 -3.21201,-2.31787 -4.12343,-3.38444 -1.58205,-1.85137 -2.01071,-3.76246 -1.29454,-5.83524 1.90488,-5.51323 4.39507,-8.57781 6.51966,-8.96685 2.12458,-0.38904 3.05964,0.25964 3.83467,1.73108 1.62232,3.08009 1.61502,7.23571 -0.0454,12.48742 0,0 1.88359,1.49904 2.7447,1.44593 2.43666,-0.1503 3.11668,-1.13737 4.25453,-2.51599 0.37114,-0.44967 0.31472,-1.40333 0.0527,-1.96585 -1.43577,-3.08247 -4.61212,-7.10196 -7.15351,-10.56696 -0.12057,-0.16439 -0.14981,-1.29992 0,-1.90501 0.16176,-0.65335 0.45497,-1.35415 0.92484,-1.67847 0.50029,-0.34532 1.56559,-0.21097 1.70268,-0.0678 3.39805,3.54978 5.8182,7.05829 7.59226,10.50715 0.33987,0.66072 0.32592,1.01357 0.27167,1.80264 -0.33147,4.82186 -3.87149,9.89886 -6.771,12.03155 z"
         style="font-style:normal;font-variant:normal;font-weight:normal;font-stretch:normal;font-size:16.9333px;line-height:1.25;font-family:Amiri;-inkscape-font-specification:Amiri;text-align:center;letter-spacing:0px;word-spacing:0px;text-anchor:middle;fill:#000000;fill-opacity:1;stroke:none;stroke-width:2.10006;stroke-miterlimit:4;stroke-dasharray:none;stroke-opacity:1"
         id="path922"
         inkscape:connector-curvature="0"
         sodipodi:nodetypes="sscssccssscsssscsssssssssc" />
      <path
         d="m -634.82511,630.00147 c -2.39563,-2.08584 -6.5719,-0.95272 -9.71245,0.0584 -1.62658,0.52369 -3.15028,1.65574 -4.4478,3.02133 -5.12587,5.39476 -9.82843,12.40304 -12.5717,19.78813 -0.61533,1.65647 -0.56072,2.75568 0.2269,3.32882 0.90676,0.65982 1.71585,0.0453 2.49619,-1.78769 3.24395,-7.61978 7.00446,-13.62365 11.21016,-18.06208 0.9077,2.38358 1.80279,4.12972 2.63234,5.30155 1.43996,2.03407 2.92637,2.5852 4.53853,1.66441 4.28808,-2.44913 6.67163,-5.65081 6.97422,-8.38251 0.30259,-2.7317 -0.20195,-3.93392 -1.34639,-4.93037 z m -4.76545,9.49334 c -0.35087,0.29574 -0.81721,0.1433 -1.40693,-0.6164 -0.59073,-0.76098 -1.34645,-2.52738 -2.31465,-5.2398 1.84566,-0.36968 3.16183,0.0618 4.19056,1.62338 1.02873,1.56154 0.93624,3.04841 -0.46898,4.23282 z"
         style="font-style:normal;font-variant:normal;font-weight:normal;font-stretch:normal;font-size:16.9333px;line-height:1.25;font-family:Amiri;-inkscape-font-specification:Amiri;text-align:center;letter-spacing:0px;word-spacing:0px;text-anchor:middle;fill:#000000;fill-opacity:1;stroke:none;stroke-width:2.10006;stroke-miterlimit:4;stroke-dasharray:none;stroke-opacity:1"
         id="path977"
         inkscape:connector-curvature="0"
         sodipodi:nodetypes="sssssscsssssscss" />
      <path
         sodipodi:nodetypes="ssssscssssccssssssssssssssscssssssssssssssssscscssssscssssccscs"
         d="m -671.9475,544.98696 c -0.0399,-0.7002 -3.59468,-4.05281 -5.83674,-4.52932 -2.21333,-0.4704 -4.64316,0.38216 -6.57459,1.84937 -0.33451,0.25411 -0.7081,0.76098 -0.76758,1.12777 -0.066,0.4064 0.41892,0.9169 0.69801,1.30362 2.00546,2.77878 3.61759,5.67372 4.77228,8.49592 3.86964,-3.12855 7.74995,-7.52187 7.70862,-8.24736 z m -4.95348,23.82009 c -0.28536,1.04561 -1.82142,2.35941 -1.82142,2.35941 -0.42899,0.28041 -0.87841,-0.42167 -0.9935,-0.87482 -0.25974,-1.02273 -0.54947,-2.16468 -0.89842,-3.17097 -4.64567,3.629 -23.70994,3.81339 -24.85948,12.80276 3.62022,-0.53503 7.76753,-0.68879 13.22664,-0.50258 5.4591,0.18621 14.34359,-1.5838 21.34784,-3.5945 6.64329,-1.90707 8.36667,-1.79489 19.45268,-7.98744 2.39411,-1.33733 3.58259,-0.004 3.15459,2.41762 l -2.60526,14.7381 c -0.14459,0.81796 -1.18831,0.51121 -2.28099,1.58281 -12.32633,12.08852 -19.10757,17.66724 -33.78312,29.2388 -0.63353,0.49952 -2.43123,2.08677 -2.46169,2.67332 -0.0431,0.83057 1.42845,1.83156 2.3029,2.44203 5.94309,4.14898 14.51921,7.82666 19.35035,7.83835 0.68893,0.002 1.74469,0.33284 1.84005,1.21007 l 1.07107,9.85337 c 0.10554,0.97086 -0.97356,1.56321 -1.62845,2.06525 -6.91447,5.30083 -16.16132,10.18244 -23.09515,9.08093 -14.94376,-2.37398 -19.6169,-9.15871 -27.23559,-17.86174 -6.67258,-7.62227 -14.43649,-28.88769 -14.89021,-28.61424 0.70825,14.43084 -0.4854,24.06461 -4.52902,28.68442 -9.80336,11.20034 -34.38107,21.77235 -51.86946,23.19467 -7.42843,0.60414 -12.14437,-2.40123 -13.16391,-14.91701 -0.87994,-10.8021 -0.8527,-22.54099 -0.35358,-33.08897 0.0318,-0.67571 0.45137,-1.49537 0.97143,-1.60151 0.49923,-0.10156 1.21242,0.44328 1.25699,1.09062 0.2528,3.67058 -0.72576,25.23864 7.34994,29.00042 11.56466,5.38697 48.04697,-11.07766 53.12952,-22.29321 2.17096,-4.79068 4.12834,-8.47834 4.08348,-13.93306 -0.0635,-7.73337 -1.62293,-6.0302 -5.59837,-14.3945 -5.46257,-11.49317 -5.85627,-12.92576 -6.93861,-15.48566 -1.10596,-2.61612 -1.6444,-4.77668 -1.57312,-6.47294 0.21247,-5.05842 0.3296,-8.72682 0.30963,-11.0091 -0.009,-1.03971 0.35775,-1.67871 1.0896,-1.92895 0.77998,-0.26663 1.44846,0.0643 1.81937,1.1288 10.46166,30.01736 18.20161,41.03801 26.3759,54.45425 1.52087,2.49617 7.568,14.59867 13.06622,19.42825 4.09332,3.59553 9.44987,6.33301 14.01649,6.39255 -3.82808,-6.46655 -9.96628,-11.09899 -8.98357,-18.16119 1.67203,-12.01608 16.5478,-14.8731 22.67001,-22.1701 -6.89956,1.72118 -18.33529,4.45274 -23.51174,5.23621 -5.17653,0.78312 -10.87226,2.90552 -17.19561,6.01012 -0.79995,0.39272 -1.10785,0.21433 -1.11512,-0.94831 -0.0545,-9.29995 1.1291,-15.07768 1.8842,-17.22734 2.05217,-5.84225 6.82554,-16.16313 14.44832,-21.4187 6.00187,-4.13802 14.68321,-3.44028 18.95701,-6.52611 -1.83657,-3.3263 -3.80025,-6.48802 -5.48239,-9.42911 -1.94358,-3.39825 -1.00538,-9.09324 0.80367,-12.61213 2.1771,-4.23475 6.53843,-6.84047 10.48177,-7.09196 4.62283,-0.29482 8.60372,4.39438 12.86754,6.70972 2.59822,1.41088 8.0203,3.23923 10.3396,4.37575 l 0.8074,10.53342 c -1.19834,0.74958 -7.89578,1.91048 -10.31994,3.53568 -4.04705,2.71321 -7.49799,6.67648 -11.15868,10.19984 0.23597,1.63842 0.28721,3.51788 -0.12781,5.03861 z"
         style="font-style:normal;font-variant:normal;font-weight:normal;font-stretch:normal;font-size:16.9333px;line-height:1.25;font-family:Amiri;-inkscape-font-specification:Amiri;text-align:center;letter-spacing:0px;word-spacing:0px;text-anchor:middle;fill:#000000;fill-opacity:1;stroke:none;stroke-width:2.10006;stroke-miterlimit:4;stroke-dasharray:none;stroke-opacity:1"
         id="path881"
         inkscape:connector-curvature="0" />
      <path
         sodipodi:nodetypes="ssssscsssssssssss"
         inkscape:connector-curvature="0"
         id="path868"
         style="font-style:normal;font-variant:normal;font-weight:normal;font-stretch:normal;font-size:16.9333px;line-height:1.25;font-family:Amiri;-inkscape-font-specification:Amiri;text-align:center;letter-spacing:0px;word-spacing:0px;text-anchor:middle;fill:#000000;fill-opacity:1;stroke:none;stroke-width:2.10006;stroke-miterlimit:4;stroke-dasharray:none;stroke-opacity:1"
         d="m -706.63277,540.3333 c 0.23971,-1.9504 1.0255,-2.87147 2.32739,-2.79244 1.55124,0.0946 2.23823,1.01555 2.10212,2.79244 -0.36411,4.76054 -1.39188,8.73194 -3.07813,11.94902 -1.96737,3.75329 -4.80507,5.77548 -8.55867,6.03945 -2.40258,0.16893 -4.67968,-0.88748 -6.83192,-3.18207 -1.45144,2.20797 -3.35271,3.85547 -5.70572,4.93545 -2.55195,1.17129 -5.08011,1.32047 -7.58265,0.4546 -6.0061,-2.07809 -6.70335,-8.32838 -2.02712,-18.70283 0.72912,-1.61815 1.85432,-2.1538 3.3034,-1.6235 1.15353,0.42214 1.47588,1.42835 0.97593,2.98725 -1.65221,5.15165 -0.90256,7.94202 2.25231,8.31236 3.85257,0.45227 6.89765,-3.14335 9.15922,-10.71515 0.44129,-1.47663 1.25204,-2.10668 2.40249,-1.88327 1.30208,0.25286 1.78441,0.89391 1.57657,1.94821 -0.89347,4.53227 0.40042,6.84023 3.75378,6.88368 3.35335,0.0432 5.31991,-2.42627 5.931,-7.4032 z" />
      <path
         sodipodi:nodetypes="sssssssssssssssss"
         d="m -768.88321,544.38484 c 0.3303,-1.59906 1.38371,-1.19218 2.60596,1.0403 3.30036,6.02836 4.89458,7.50483 5.75573,16.68422 0.85543,9.11806 1.01104,14.90862 -0.61869,21.9099 -4.66171,20.02655 -13.07394,39.83638 -25.29951,53.61724 -8.75379,9.86742 -20.54233,15.23076 -31.97284,18.06873 -4.26966,1.06007 -8.8827,1.09846 -13.03868,-0.54683 -7.95176,-3.14796 -16.13919,-9.50224 -21.0842,-17.17683 -0.25542,-0.39646 0.29474,-0.91596 0.68918,-1.22378 0.39443,-0.30786 0.82783,-0.31801 1.29592,-0.0199 6.5662,4.18916 11.45989,6.53863 17.56176,6.64939 10.61481,0.19267 21.74905,-3.30477 30.79221,-10.45383 14.6243,-11.56122 25.87277,-30.20577 34.20699,-49.50296 0.39179,-0.90715 0.73106,-1.94917 0.68627,-2.98519 -0.25165,-5.82062 -0.2063,-4.5081 -5.27762,-16.11882 -0.26514,-0.60694 -0.19473,-1.09807 -0.1135,-1.49134 z"
         style="font-style:normal;font-variant:normal;font-weight:normal;font-stretch:normal;font-size:16.9333px;line-height:1.25;font-family:Amiri;-inkscape-font-specification:Amiri;text-align:center;letter-spacing:0px;word-spacing:0px;text-anchor:middle;fill:#000000;fill-opacity:1;stroke:none;stroke-width:2.10006;stroke-miterlimit:4;stroke-dasharray:none;stroke-opacity:1"
         id="path885"
         inkscape:connector-curvature="0" />
      <path
         inkscape:connector-curvature="0"
         id="path943"
         style="font-style:normal;font-variant:normal;font-weight:normal;font-stretch:normal;font-size:16.9333px;line-height:1.25;font-family:Amiri;-inkscape-font-specification:Amiri;text-align:center;letter-spacing:0px;word-spacing:0px;text-anchor:middle;fill:#000000;fill-opacity:1;stroke:none;stroke-width:2.10006;stroke-miterlimit:4;stroke-dasharray:none;stroke-opacity:1"
         d="m -829.92555,619.4513 c 0.0946,-2.46263 0.92989,-4.86556 1.93329,-6.96674 2.57504,-5.39224 5.97168,-9.44513 10.15604,-13.77792 0.16411,-0.16996 0.4393,-0.23397 0.57344,-0.025 0.16315,0.25404 -0.0961,0.50958 -0.27401,0.74661 -3.28636,4.37568 -6.33594,8.67927 -8.4686,13.88169 -0.73161,1.78466 -1.53444,3.76144 -1.41354,5.77282 0.0837,1.3921 0.47534,3.12394 1.44417,3.75469 0.81703,0.53193 1.99152,0.12494 2.70589,-0.61181 0.50749,-0.52337 0.61851,-1.47241 0.74705,-2.31823 0.15116,-0.99471 0.86462,-0.80849 0.83519,0.50257 -0.10208,4.55122 -1.22012,6.05576 -3.12762,7.45437 -1.01904,0.74717 -2.6067,0.77323 -3.51654,-0.17885 -1.70629,-1.78547 -1.70325,-5.40908 -1.59476,-8.23418 z"
         sodipodi:nodetypes="ssssssssssssss" />
      <path
         sodipodi:nodetypes="ssssssssssssss"
         d="m -863.6414,615.87848 c 0.0946,-2.46263 0.92989,-4.86556 1.9333,-6.96674 2.57502,-5.39224 5.97167,-9.44513 10.15602,-13.77792 0.16412,-0.16996 0.43932,-0.23397 0.57344,-0.025 0.16317,0.25404 -0.096,0.50958 -0.27401,0.74661 -3.28634,4.37568 -6.33593,8.67927 -8.4686,13.88169 -0.73161,1.78466 -1.53444,3.76144 -1.41353,5.77282 0.0837,1.3921 0.47534,3.12394 1.44417,3.75469 0.81702,0.53193 1.99152,0.12494 2.7059,-0.61181 0.50747,-0.52337 0.61849,-1.47241 0.74704,-2.31823 0.15116,-0.99471 0.86461,-0.80849 0.83519,0.50257 -0.10208,4.55122 -1.22012,6.05576 -3.12762,7.45437 -1.01904,0.74717 -2.6067,0.77323 -3.51655,-0.17885 -1.70629,-1.78547 -1.70324,-5.40908 -1.59475,-8.23418 z"
         style="font-style:normal;font-variant:normal;font-weight:normal;font-stretch:normal;font-size:16.9333px;line-height:1.25;font-family:Amiri;-inkscape-font-specification:Amiri;text-align:center;letter-spacing:0px;word-spacing:0px;text-anchor:middle;fill:#000000;fill-opacity:1;stroke:none;stroke-width:2.10006;stroke-miterlimit:4;stroke-dasharray:none;stroke-opacity:1"
         id="path945"
         inkscape:connector-curvature="0" />
      <path
         inkscape:connector-curvature="0"
         id="path947"
         style="font-style:normal;font-variant:normal;font-weight:normal;font-stretch:normal;font-size:16.9333px;line-height:1.25;font-family:Amiri;-inkscape-font-specification:Amiri;text-align:center;letter-spacing:0px;word-spacing:0px;text-anchor:middle;fill:#000000;fill-opacity:1;stroke:none;stroke-width:2.10006;stroke-miterlimit:4;stroke-dasharray:none;stroke-opacity:1"
         d="m -878.64724,647.49324 c 0.0946,-2.46263 0.92989,-4.86556 1.9333,-6.96675 2.57503,-5.39223 5.97167,-9.44512 10.15603,-13.77791 0.16411,-0.16996 0.43931,-0.23397 0.57344,-0.025 0.16316,0.25404 -0.0961,0.50958 -0.27401,0.74661 -3.28635,4.37568 -6.33594,8.67926 -8.46861,13.88169 -0.7316,1.78466 -1.53443,3.76144 -1.41353,5.77282 0.0837,1.39209 0.47534,3.12394 1.44417,3.75469 0.81703,0.53193 1.99152,0.12494 2.7059,-0.61181 0.50748,-0.52338 0.6185,-1.47241 0.74705,-2.31824 0.15115,-0.9947 0.86461,-0.80848 0.83518,0.50258 -0.10207,4.55122 -1.22011,6.05576 -3.12761,7.45437 -1.01905,0.74717 -2.60671,0.77322 -3.51656,-0.17885 -1.70628,-1.78547 -1.70324,-5.40908 -1.59475,-8.23418 z"
         sodipodi:nodetypes="ssssssssssssss" />
      <path
         inkscape:connector-curvature="0"
         id="path924"
         style="font-style:normal;font-variant:normal;font-weight:normal;font-stretch:normal;font-size:16.9333px;line-height:1.25;font-family:Amiri;-inkscape-font-specification:Amiri;text-align:center;letter-spacing:0px;word-spacing:0px;text-anchor:middle;fill:#000000;fill-opacity:1;stroke:none;stroke-width:2.10006;stroke-miterlimit:4;stroke-dasharray:none;stroke-opacity:1"
         d="m -863.31743,567.44931 c 3.08889,-2.93193 7.25535,-10.81324 7.88056,-10.80073 0.72873,0.0146 1.32172,0.24442 1.76857,0.80402 0.83031,1.0398 -0.19104,4.27119 -3.0524,9.68322 2.58081,4.33629 8.30115,6.81724 12.73204,5.57617 8.75527,-2.4523 11.42636,-2.8821 17.12311,-22.86102 0.23422,-0.80521 0.77762,-1.19532 1.50017,-1.32134 0.73035,-0.1278 1.73873,-0.13926 1.87546,0.69426 0.86063,5.24715 -1.84194,8.67544 -1.48103,11.45242 0.60124,4.62616 6.20494,6.19431 10.09731,7.53264 3.05032,1.04872 8.71214,2.21085 9.59767,0.11753 0.91027,-2.15128 0.17304,-6.4535 -2.27104,-12.84118 -0.27534,-0.71867 1.76326,-4.75681 6.27593,-12.11936 0.54191,-0.88416 1.37454,-0.46494 2.43451,1.21195 1.06032,1.67679 1.79984,5.31799 2.22562,10.92277 0.42094,5.53422 0.11123,11.07261 -1.14053,16.56212 -2.71327,11.8985 -6.0112,12.63264 -11.66838,14.35112 -7.77086,2.36055 -15.27877,-0.29216 -23.11082,-7.8239 -2.73789,8.29655 -6.48682,13.36031 -12.50313,14.7339 -7.11688,1.62485 -16.50451,-5.83656 -19.01131,-12.51926 l -20.62423,-1.06702 c -3.90522,10.41051 -8.9591,24.41614 -22.43054,31.50427 -10.46093,5.50412 -25.52359,9.77754 -38.64704,9.66444 -4.34845,-0.0374 -9.39915,0.10768 -12.77111,-3.42271 -8.46226,-8.85986 -14.22145,-23.31719 -13.03444,-38.61349 0.0564,-0.72755 2.08429,0.51331 2.14631,1.56832 0.36476,6.20515 4.24368,20.38934 10.94877,25.10954 11.7659,8.28286 30.17365,1.15671 40.22359,-1.5803 16.13832,-4.39515 22.43643,-14.32489 27.79969,-24.67178 -6.77336,0.11948 -10.70162,-0.18706 -13.88241,-2.17928 -3.18079,-1.99223 -4.4469,-6.08783 -3.80249,-12.2178 0.14732,-1.40371 0.49382,-3.09942 1.04303,-5.08248 1.8374,-6.63836 4.60903,-11.18515 8.27514,-13.70824 3.68207,-2.53405 6.85793,-1.81124 9.53535,2.2489 2.73618,4.14924 4.57903,10.99709 5.07999,18.12564 0,0 12.27659,1.67203 18.41489,2.50805 0.90509,0.12327 1.72096,-0.84636 2.45319,-1.54139 z m -34.67929,-9.91679 c -2.12865,0.25146 -3.37062,1.2505 -4.29271,2.66982 -0.38412,0.59128 -0.26637,1.32992 0.3811,2.2397 1.47636,2.07518 11.13955,3.86834 13.68069,3.33576 -0.18249,-5.10512 -7.64044,-8.49675 -9.76908,-8.24528 z"
         sodipodi:nodetypes="sssssssssssssssssssccssssssscssssscssssscs" />
      <path
         inkscape:connector-curvature="0"
         id="path1025"
         style="font-style:normal;font-variant:normal;font-weight:normal;font-stretch:normal;font-size:16.9333px;line-height:1.25;font-family:Amiri;-inkscape-font-specification:Amiri;text-align:center;letter-spacing:0px;word-spacing:0px;text-anchor:middle;fill:#000000;fill-opacity:1;stroke:none;stroke-width:2.10006;stroke-miterlimit:4;stroke-dasharray:none;stroke-opacity:1"
         d="m -923.45992,655.83192 c -12.99703,2.1595 -26.56736,-1.54613 -38.91564,-7.18916 -4.09158,-1.86982 -8.63469,-4.08438 -11.17132,-8.61578 -10.76381,-19.2283 -11.92075,-45.71529 -11.91257,-69.40221 7.7e-4,-2.31417 0.60405,-3.70098 1.06451,-3.72336 0.46043,-0.0222 1.04157,1.50956 1.13731,3.87725 0.93841,23.20709 1.79328,43.75582 12.81396,58.01709 8.56634,11.08525 22.85875,12.76783 35.01002,13.0971 9.70937,0.26312 19.68746,-3.15249 28.29261,-8.94038 10.10044,-6.79363 21.26974,-15.55522 25.64247,-29.08996 8.27274,-25.60632 1.00346,-54.09283 -3.90727,-83.0308 -4.67267,-27.53509 -10.30888,-55.40185 -12.40421,-83.03079 -0.16593,-2.18947 -0.59934,-6.55444 -0.59934,-6.55444 -0.10518,-1.14876 0.11613,-2.12524 0.37447,-2.89167 l 2.92416,-8.67501 c 0.30271,-0.89807 0.8242,-1.34944 1.57432,-1.34944 0.74985,0 1.2353,0.62754 1.57433,1.83139 1.76047,6.25144 3.88935,11.03124 6.29749,14.36193 0.89039,1.23179 0.80697,2.81252 -0.22488,4.81944 -1.01696,1.9774 -1.82421,3.47001 -2.47396,4.4339 -0.65011,0.96386 -0.97445,2.31481 -0.89946,4.04834 0.37537,8.67684 5.92457,45.17647 11.20472,66.98203 5.36654,22.16228 10.5749,44.42176 8.96251,66.98206 -0.91406,12.78946 -4.9903,25.33075 -10.37811,36.14582 -4.79887,9.63291 -11.49898,17.87165 -18.88021,24.25903 -7.5368,6.52199 -16.09595,12.14059 -25.10591,13.63762 z"
         sodipodi:nodetypes="ssssssssssssssssssssssssss" />
      <path
         style="font-style:normal;font-variant:normal;font-weight:normal;font-stretch:normal;font-size:16.9333px;line-height:1.25;font-family:Amiri;-inkscape-font-specification:Amiri;text-align:center;letter-spacing:0px;word-spacing:0px;text-anchor:middle;fill:#000000;fill-opacity:1;stroke:none;stroke-width:2.10006;stroke-miterlimit:4;stroke-dasharray:none;stroke-opacity:1"
         d="m -953.20862,565.42527 c -0.74983,0.005 -1.58682,0.0335 -2.20351,0.58196 -1.40646,1.25082 -2.72965,3.37904 -2.73874,5.57775 -0.017,4.11562 0.64534,7.02704 5.03984,10.51007 1.26591,1.00335 1.96873,-0.0189 1.1022,-0.98934 -0.73684,-0.82515 -1.58778,-1.69734 -1.73178,-2.90262 -0.20269,-1.69648 0.32784,-3.76748 1.37143,-4.83783 1.24478,-1.2767 3.19391,-1.26086 4.73946,-0.76827 1.83258,0.58408 3.41148,2.33482 4.63805,4.18029 3.67622,5.53116 5.55696,11.08392 7.4582,19.60754 0.10297,0.46165 0.15963,0.98897 0.53317,0.98897 0.37354,0 0.43049,-0.52732 0.53346,-0.98897 1.90126,-8.52361 3.78199,-14.07638 7.45821,-19.60754 1.22657,-1.84546 2.80546,-3.59621 4.63805,-4.18029 1.54554,-0.49259 3.49467,-0.50844 4.73947,0.76827 1.04356,1.07035 1.57409,3.14135 1.37141,4.83783 -0.144,1.20528 -0.99494,2.07746 -1.73177,2.90262 -0.86654,0.97038 -0.16373,1.99269 1.10219,0.98934 4.39449,-3.48303 5.05685,-6.39444 5.03985,-10.51007 -0.009,-2.19871 -1.20337,-4.60945 -2.73874,-5.57775 -2.68092,-1.69074 -6.20056,-0.49385 -8.91724,1.09968 -2.41169,1.41465 -4.29074,4.21193 -5.76199,7.04702 -2.9605,5.70486 -4.56438,10.57542 -5.7326,19.20887 -1.16823,-8.63348 -2.77234,-13.50401 -5.7329,-19.20887 -1.47127,-2.83508 -3.40634,-5.48405 -5.762,-7.04702 -2.0261,-1.34431 -4.43377,-1.69658 -6.71372,-1.68164 z"
         id="path959"
         inkscape:connector-curvature="0"
         sodipodi:nodetypes="aaassaaaasssaaaassaaaacaaa" />
      <path
         d="m -946.59066,525.14919 q 1.67809,-0.29174 2.8288,1.92562 2.44526,4.60985 -0.0454,12.48743 1.58229,1.10872 2.30143,1.51716 1.34247,0.64186 0.57477,2.39245 l -1.10278,2.56751 q -0.52664,1.28375 -1.48631,0.87534 -0.911,-0.46686 -2.63703,-1.63387 -6.76046,10.9119 -15.39076,16.16361 -1.9179,1.22541 -2.5891,-0.29173 -0.76726,-1.75058 1.39043,-3.20939 8.87012,-6.30206 14.04829,-14.41305 -2.78086,-1.75057 -4.12343,-3.38444 -2.39722,-2.74257 -1.29454,-5.83524 2.8288,-8.28605 7.52763,-9.16133 z m -1.00688,7.76087 q -2.20555,-2.45081 -3.54803,0.29174 -0.38318,0.64186 0.47942,1.80893 0.91091,1.10871 4.0754,2.97598 0.4313,-3.5595 -1.00688,-5.07666 z"
         style="font-style:normal;font-variant:normal;font-weight:normal;font-stretch:normal;font-size:16.9333px;line-height:1.25;font-family:Amiri;-inkscape-font-specification:Amiri;text-align:center;letter-spacing:0px;word-spacing:0px;text-anchor:middle;fill:#000000;fill-opacity:1;stroke:none;stroke-width:2.10006;stroke-miterlimit:4;stroke-dasharray:none;stroke-opacity:1"
         id="path955"
         inkscape:connector-curvature="0" />
      <path
         sodipodi:nodetypes="ssssssssssssss"
         d="m -964.95843,547.46517 c -1.50563,1.52708 -3.46316,2.29717 -5.35432,2.70607 -4.85325,1.04933 -9.46149,0.4222 -14.75157,-0.7842 -0.20749,-0.0472 -0.42591,-0.27187 -0.39159,-0.53919 0.0416,-0.32506 0.36183,-0.24187 0.61772,-0.22524 4.72496,0.30808 9.25202,0.43415 13.70323,-0.91903 1.52698,-0.46421 3.21337,-0.98567 4.31287,-2.42493 0.76097,-0.99611 1.51865,-2.51396 1.25154,-3.86731 -0.22526,-1.14129 -1.23582,-2.01178 -2.13723,-2.21969 -0.64034,-0.14769 -1.2696,0.36855 -1.84987,0.79996 -0.68241,0.50737 -1.04222,-0.30633 -0.25439,-1.1396 2.73478,-2.89266 4.35156,-2.7983 6.42517,-1.86937 1.10779,0.49627 2.16665,2.01749 2.20665,3.52489 0.075,2.82689 -2.05097,5.20578 -3.77821,6.95764 z"
         style="font-style:normal;font-variant:normal;font-weight:normal;font-stretch:normal;font-size:16.9333px;line-height:1.25;font-family:Amiri;-inkscape-font-specification:Amiri;text-align:center;letter-spacing:0px;word-spacing:0px;text-anchor:middle;fill:#000000;fill-opacity:1;stroke:none;stroke-width:2.10006;stroke-miterlimit:4;stroke-dasharray:none;stroke-opacity:1"
         id="path957"
         inkscape:connector-curvature="0" />
      <path
         sodipodi:nodetypes="cccccccc"
         d="m -935.14236,419.26588 c 0.64559,-1.51098 1.29073,-1.1916 1.93559,0.95788 4.69692,13.84491 4.41173,28.92515 -0.85534,45.24083 -0.32597,0.97586 -0.77362,1.40288 -1.34385,1.28081 -0.68281,-0.11324 -0.94586,-0.80261 -0.78905,-2.06973 1.07244,-11.37512 0.0963,-22.17349 -2.92823,-32.39514 -0.3977,-1.27182 -0.35865,-2.50372 0.11805,-3.6956 z"
         style="font-style:normal;font-variant:normal;font-weight:normal;font-stretch:normal;font-size:16.9333px;line-height:1.25;font-family:Amiri;-inkscape-font-specification:Amiri;text-align:center;letter-spacing:0px;word-spacing:0px;text-anchor:middle;fill:#000000;fill-opacity:1;stroke:none;stroke-width:2.10006;stroke-miterlimit:4;stroke-dasharray:none;stroke-opacity:1"
         id="path931"
         inkscape:connector-curvature="0" />
      <path
         sodipodi:nodetypes="sscssccsssssssscsssscsssssssssc"
         inkscape:connector-curvature="0"
         id="path979"
         style="font-style:normal;font-variant:normal;font-weight:normal;font-stretch:normal;font-size:16.9333px;line-height:1.25;font-family:Amiri;-inkscape-font-specification:Amiri;text-align:center;letter-spacing:0px;word-spacing:0px;text-anchor:middle;fill:#000000;fill-opacity:1;stroke:none;stroke-width:2.10006;stroke-miterlimit:4;stroke-dasharray:none;stroke-opacity:1"
         d="m -978.34956,429.3742 c -0.23002,0.45112 -0.11145,1.0507 0.47942,1.80893 0.59188,0.7595 1.96574,1.73113 4.0754,2.97597 0.28754,-2.373 -0.0481,-4.06522 -1.26262,-5.38786 -1.21454,-1.32265 -2.37099,-1.20375 -3.2922,0.60296 z m 10.95718,13.44765 c -1.33431,0.95396 -4.93062,-0.82512 -5.96868,-1.36863 -2.65108,4.27905 -8.4308,5.70323 -8.60431,10.86765 -0.0274,0.81377 0.60555,1.77492 1.2359,1.85638 7.88935,1.01969 19.94795,-11.17742 25.65805,-9.8189 0.98642,0.23469 2.63006,0.54173 2.65111,1.83123 0.0118,0.72541 -0.89224,1.09475 -1.45646,1.10975 -1.98803,0.0528 -8.85376,3.947 -15.60482,6.7464 -7.3997,3.06836 -10.27389,3.3143 -15.49633,-0.75603 -0.62721,-0.48885 -0.54647,-1.91932 -0.29245,-2.80399 1.45155,-5.05529 7.24185,-7.45243 9.36817,-10.78305 -1.85391,-1.16704 -3.21201,-2.31787 -4.12343,-3.38444 -1.58205,-1.85137 -2.01071,-3.76246 -1.29454,-5.83524 1.90488,-5.51323 4.39507,-8.57781 6.51966,-8.96685 2.12458,-0.38904 3.05964,0.25964 3.83467,1.73108 1.62232,3.08009 1.61502,7.23571 -0.0454,12.48742 0,0 1.8836,1.49904 2.74471,1.44593 2.43666,-0.1503 3.11667,-1.13737 4.25453,-2.51599 0.37114,-0.44967 0.31472,-1.40333 0.0527,-1.96585 -1.43577,-3.08247 -4.61213,-7.10196 -7.15351,-10.56696 -0.12058,-0.16439 -0.14981,-1.29992 0,-1.90501 0.16176,-0.65335 0.45497,-1.35415 0.92484,-1.67847 0.50029,-0.34532 1.56559,-0.21097 1.70268,-0.0678 3.39805,3.54978 5.81819,7.05829 7.59226,10.50715 0.33986,0.66072 0.32592,1.01357 0.27168,1.80264 -0.33148,4.82186 -3.8715,9.89886 -6.77101,12.03155 z" />
      <path
         sodipodi:nodetypes="sssssssssss"
         d="m -835.80146,422.9952 c 2.61442,-6.21298 4.11192,-6.22448 4.07148,-0.006 l -0.35715,54.91612 c -0.28549,43.90154 -1.92849,122.88145 -7.44608,133.99141 -0.69897,1.40695 -1.30699,1.75037 -1.72674,0.96043 -0.42391,-0.797 -0.4884,-1.93012 -0.36558,-3.33848 0.96007,-11.00098 1.18064,-23.47782 0.77305,-37.42028 -0.0134,-0.58162 -0.21132,-64.68397 -0.39822,-89.35636 l -0.31972,-42.20112 c -0.0187,-2.45874 0.33951,-4.65155 1.14385,-6.55372 z"
         style="font-style:normal;font-variant:normal;font-weight:normal;font-stretch:normal;font-size:16.9333px;line-height:1.25;font-family:Amiri;-inkscape-font-specification:Amiri;text-align:center;letter-spacing:0px;word-spacing:0px;text-anchor:middle;fill:#000000;fill-opacity:1;stroke:none;stroke-width:2.10006;stroke-miterlimit:4;stroke-dasharray:none;stroke-opacity:1"
         id="path941"
         inkscape:connector-curvature="0" />
      <path
         sodipodi:nodetypes="sssssssssssssssaasssssssssssaacssssssssssssss"
         d="m -967.83327,487.01059 c 2.86941,-10.41017 5.08627,-22.76169 11.9946,-29.32597 2.82598,-2.68524 8.07942,-5.94727 10.35964,-2.50967 4.917,7.41273 2.95339,16.24219 3.47996,24.52425 0.48645,7.65112 -3.23314,16.33248 -0.31037,23.02645 2.12546,4.86787 6.94523,8.39675 11.23612,8.47205 3.69309,0.0653 8.40728,-8.70149 9.80817,-11.58261 1.41519,-2.91063 2.94018,-6.78402 2.64897,-11.67967 l -3.07757,-51.73804 c -0.1955,-3.28695 -0.009,-5.68805 0.64423,-7.23946 l 3.5796,-8.4943 c 0.57041,-1.35366 1.14537,-1.89838 1.71824,-1.64095 0.57232,0.25731 0.85898,0.90337 0.93065,1.93052 0.069,1.03306 0.52818,7.91475 1.28874,20.6566 2.34237,39.25358 2.43337,38.77134 4.86751,47.97349 2.43415,9.20217 6.02199,15.07392 11.59863,18.34259 6.94464,4.07051 17.31336,5.74446 22.88453,-0.96266 7.01296,-8.44292 4.7384,-12.61751 2.83176,-36.8781 -1.91168,-24.32424 -1.93204,-27.22038 -2.36159,-33.39805 -1.06156,-15.26547 -0.7048,-5.31376 -0.35757,-7.9152 0.40696,-3.048 2.7921,-8.4943 2.7921,-8.4943 0.4096,-1.24668 0.83209,-1.83122 1.50341,-1.73748 0.71351,0.0992 1.23396,0.74365 1.57501,2.02705 1.71123,6.43849 3.64958,11.16708 5.79901,14.18935 1.19154,1.67534 0.31081,4.79488 -2.64887,9.36303 -0.66756,1.03039 -0.99965,2.12552 -0.93072,3.2819 0.98354,16.5097 0.68754,15.7516 1.86032,32.5293 1.19189,17.05313 0.24507,17.08638 -0.57322,24.80722 -1.52082,14.35147 -4.82751,17.64778 -10.61605,22.03811 -6.37827,4.83761 -15.10599,4.19764 -22.1887,1.41779 -6.87055,-2.69659 -17.25709,-16.59634 -17.25709,-16.59634 -3.79715,6.91453 -13.24234,17.35969 -20.70164,16.42676 -5.58502,-0.69848 -10.42139,-6.73537 -14.03082,-12.52402 -2.58221,-4.14125 -4.14318,-9.57243 -4.82203,-14.87182 -1.11214,-8.68179 6.2639,-20.13797 1.40526,-26.33439 -0.69668,-0.8885 -2.12529,-0.42266 -2.93522,0.28965 -4.30239,3.78379 -5.0422,11.80141 -6.76736,18.12567 -2.22162,8.1442 -0.84094,18.01991 -4.53397,25.22695 -2.38116,4.64687 -9.36351,10.94977 -10.47045,9.87267 -7.83225,-7.62094 -8.51733,-29.92434 -7.46417,-42.50962 0.28139,-3.36511 2.6733,-2.71754 2.54229,-0.50515 -0.33913,5.72826 -0.13347,10.60248 0.73821,15.71961 0.84854,4.9814 1.14857,9.67935 4.30574,14.19187 0.72586,1.0375 3.40165,0.19321 6.08363,-4.49446 2.682,-4.68769 1.53989,-15.63154 3.57108,-23.00062 z"
         style="font-style:normal;font-variant:normal;font-weight:normal;font-stretch:normal;font-size:16.9333px;line-height:1.25;font-family:Amiri;-inkscape-font-specification:Amiri;text-align:center;letter-spacing:0px;word-spacing:0px;text-anchor:middle;fill:#000000;fill-opacity:1;stroke:none;stroke-width:2.10006;stroke-miterlimit:4;stroke-dasharray:none;stroke-opacity:1"
         id="path933"
         inkscape:connector-curvature="0" />
      <path
         sodipodi:nodetypes="sssssssssss"
         d="m -642.21805,423.61803 c 1.8735,-6.76729 3.35395,-7.05729 4.02784,-0.76384 l 5.95236,55.5872 c 4.75852,44.43798 14.91775,148.98475 10.73378,161.24262 -0.53042,1.55241 -1.09227,2.01256 -1.59832,1.29196 -0.51088,-0.72693 -0.70503,-1.86056 -0.74531,-3.30722 -0.31324,-11.30057 -1.52761,-23.95579 -3.53177,-37.97602 -0.0839,-0.58484 -10.35252,-89.74875 -13.37071,-114.65802 l -5.16219,-42.60636 c -0.29687,-2.48306 -0.19796,-4.7659 0.37932,-6.8385 z"
         style="font-style:normal;font-variant:normal;font-weight:normal;font-stretch:normal;font-size:16.9333px;line-height:1.25;font-family:Amiri;-inkscape-font-specification:Amiri;text-align:center;letter-spacing:0px;word-spacing:0px;text-anchor:middle;fill:#000000;fill-opacity:1;stroke:none;stroke-width:2.10006;stroke-miterlimit:4;stroke-dasharray:none;stroke-opacity:1"
         id="path912"
         inkscape:connector-curvature="0" />
    </g>
    <path
       sodipodi:nodetypes="ccccc"
       inkscape:connector-curvature="0"
       id="path1079"
       d="m -1064.8345,299.26786 h -9.525 v 476.25 h 9.525 z"
       style="fill:#ffffff;fill-opacity:1;stroke:none;stroke-width:0.511668px;stroke-linecap:butt;stroke-linejoin:miter;stroke-opacity:1" />
  </g>
</svg>
