<?xml version="1.0" encoding="UTF-8" standalone="no"?>
<!-- Created with Inkscape (http://www.inkscape.org/) -->

<svg
   width="1800"
   height="1800"
   viewBox="0 0 476.24999 476.25001"
   version="1.1"
   id="svg8"
   inkscape:export-filename="C:\Users\厂永刄先生\Documents\GXI3CW2\JáÈŭcèŭ\Maqkàla\Maqkàla.png"
   inkscape:export-xdpi="96"
   inkscape:export-ydpi="96"
   inkscape:version="1.3 (0e150ed6c4, 2023-07-21)"
   sodipodi:docname="tr_1936 - コピー.svg"
   xmlns:inkscape="http://www.inkscape.org/namespaces/inkscape"
   xmlns:sodipodi="http://sodipodi.sourceforge.net/DTD/sodipodi-0.dtd"
   xmlns="http://www.w3.org/2000/svg"
   xmlns:svg="http://www.w3.org/2000/svg"
   xmlns:rdf="http://www.w3.org/1999/02/22-rdf-syntax-ns#"
   xmlns:cc="http://creativecommons.org/ns#"
   xmlns:dc="http://purl.org/dc/elements/1.1/">
  <defs
     id="defs2" />
  <sodipodi:namedview
     id="base"
     pagecolor="#ffffff"
     bordercolor="#666666"
     borderopacity="1.0"
     inkscape:pageopacity="0.0"
     inkscape:pageshadow="2"
     inkscape:zoom="0.23540763"
     inkscape:cx="957.91287"
     inkscape:cy="1323.2366"
     inkscape:document-units="px"
     inkscape:current-layer="g1364"
     showgrid="false"
     units="px"
     fit-margin-top="0"
     fit-margin-left="0"
     fit-margin-right="0"
     fit-margin-bottom="0"
     inkscape:showpageshadow="false"
     inkscape:snap-intersection-paths="true"
     inkscape:object-paths="false"
     inkscape:pagecheckerboard="true"
     inkscape:snap-smooth-nodes="true"
     inkscape:window-width="1920"
     inkscape:window-height="1009"
     inkscape:window-x="-8"
     inkscape:window-y="-8"
     inkscape:window-maximized="1"
     inkscape:object-nodes="true"
     inkscape:snap-nodes="true"
     inkscape:deskcolor="#505050" />
  <metadata
     id="metadata5">
    <rdf:RDF>
      <cc:Work
         rdf:about="">
        <dc:format>image/svg+xml</dc:format>
        <dc:type
           rdf:resource="http://purl.org/dc/dcmitype/StillImage" />
      </cc:Work>
    </rdf:RDF>
  </metadata>
  <g
     inkscape:label="レイヤー 1"
     inkscape:groupmode="layer"
     id="layer1"
     transform="translate(61.861435,-299.26788)">
    <g
       id="g1364"
       inkscape:export-xdpi="96"
       inkscape:export-ydpi="96">
      <g
         id="g1"
         style="fill:#999999">
        <path
           id="path1"
           style="fill:#999999;stroke-width:3.71774;stroke-linecap:square;stroke-linejoin:round;stroke-miterlimit:3.9"
           d="m -61.861435,537.39288 c 0,131.51281 106.612197,238.125 238.125005,238.125 131.51281,0 238.125,-106.61219 238.125,-238.125 0,-131.51281 -106.61219,-238.125 -238.125,-238.125 -131.512807,0 -238.125005,106.61219 -238.125005,238.125 z m 416.718755,0 c 0,98.6346 -79.95915,178.59375 -178.59375,178.59375 -98.634606,0 -178.5937549,-79.95914 -178.5937549,-178.59375 0,-98.63461 79.9591499,-178.59375 178.5937549,-178.59375 98.63461,0 178.59375,79.95915 178.59375,178.59375 z"
           sodipodi:nodetypes="ssszsssszs" />
        <path
           style="fill:#999999;fill-opacity:1;fill-rule:evenodd;stroke:none;stroke-width:24.6837;stroke-linecap:square;stroke-linejoin:round;stroke-miterlimit:4;stroke-dasharray:none;stroke-dashoffset:0;stroke-opacity:1"
           d="m 135.31548,418.33036 c -65.756406,0 -119.062502,53.3061 -119.062502,119.0625 0,65.75639 53.306096,119.0625 119.062502,119.0625 42.5614,0 79.90583,-22.33269 100.95663,-55.91855 -18.05056,20.38556 -43.96247,32.09425 -71.19101,32.10605 -52.60512,0.0227 -95.249997,-42.64488 -95.249997,-95.25 0,-52.60512 42.644887,-95.27995 95.249997,-95.25 27.28394,0.0155 53.23843,11.78899 71.28351,32.25333 C 215.33077,440.72843 177.939,418.33036 135.31548,418.33036 Z"
           id="circle824"
           inkscape:connector-curvature="0"
           sodipodi:nodetypes="ssscssscs" />
        <path
           style="fill:#999999;fill-opacity:1;fill-rule:evenodd;stroke:none;stroke-width:0.714375;stroke-linecap:square;stroke-linejoin:round;stroke-miterlimit:4;stroke-dasharray:none;stroke-dashoffset:0;stroke-opacity:1"
           inkscape:transform-center-x="8.8376837e-06"
           inkscape:transform-center-y="-2.8391114e-06"
           d="m 295.13907,559.01887 -25.42287,34.9916 -1e-5,-43.25199 -41.13507,-13.3656 41.13507,-13.3656 1e-5,-43.25198 25.42287,34.99158 41.13509,-13.36559 -25.42288,34.99159 25.42288,34.9916 z"
           id="path830"
           inkscape:connector-curvature="0"
           sodipodi:nodetypes="ccccccccccc" />
      </g>
    </g>
  </g>
</svg>
