<?xml version="1.0" encoding="UTF-8" standalone="no"?>
<!-- Created with Inkscape (http://www.inkscape.org/) -->

<svg
   width="1892.6265"
   height="1800"
   viewBox="0 0 500.75742 476.25001"
   version="1.1"
   id="svg8"
   inkscape:export-filename="C:\Users\厂永刄先生\Documents\GXI3CW2\,pjóŭ\Australie.png"
   inkscape:export-xdpi="96"
   inkscape:export-ydpi="96"
   inkscape:version="1.3 (0e150ed6c4, 2023-07-21)"
   sodipodi:docname="bg_1946_roundel.svg"
   xmlns:inkscape="http://www.inkscape.org/namespaces/inkscape"
   xmlns:sodipodi="http://sodipodi.sourceforge.net/DTD/sodipodi-0.dtd"
   xmlns="http://www.w3.org/2000/svg"
   xmlns:svg="http://www.w3.org/2000/svg"
   xmlns:rdf="http://www.w3.org/1999/02/22-rdf-syntax-ns#"
   xmlns:cc="http://creativecommons.org/ns#"
   xmlns:dc="http://purl.org/dc/elements/1.1/">
  <defs
     id="defs2" />
  <sodipodi:namedview
     id="base"
     pagecolor="#ffffff"
     bordercolor="#666666"
     borderopacity="1.0"
     inkscape:pageopacity="0.0"
     inkscape:pageshadow="2"
     inkscape:zoom="0.31937654"
     inkscape:cx="897.06025"
     inkscape:cy="1019.1732"
     inkscape:document-units="px"
     inkscape:current-layer="g863"
     showgrid="false"
     units="px"
     fit-margin-top="0"
     fit-margin-left="0"
     fit-margin-right="0"
     fit-margin-bottom="0"
     inkscape:showpageshadow="false"
     inkscape:snap-intersection-paths="false"
     inkscape:object-paths="false"
     inkscape:pagecheckerboard="true"
     inkscape:snap-smooth-nodes="true"
     inkscape:window-width="1920"
     inkscape:window-height="1009"
     inkscape:window-x="-8"
     inkscape:window-y="-8"
     inkscape:window-maximized="1"
     inkscape:object-nodes="true"
     inkscape:deskcolor="#505050" />
  <metadata
     id="metadata5">
    <rdf:RDF>
      <cc:Work
         rdf:about="">
        <dc:format>image/svg+xml</dc:format>
        <dc:type
           rdf:resource="http://purl.org/dc/dcmitype/StillImage" />
      </cc:Work>
    </rdf:RDF>
  </metadata>
  <g
     inkscape:label="レイヤー 1"
     inkscape:groupmode="layer"
     id="layer1"
     transform="translate(-1031.5496,-590.2685)">
    <g
       id="g863"
       transform="matrix(0.49999994,0,0,0.49999994,-51.404766,149.63395)">
      <path
         style="color:#000000;fill:#ffffff;fill-opacity:1;stroke-width:3.02321;stroke-linecap:round;stroke-miterlimit:155;-inkscape-stroke:none"
         d="m 2666.6635,881.2692 -118.2123,363.8244 h -382.5423 l 309.4834,224.8513 -118.2123,363.8244 309.4835,-224.8571 309.4893,224.8571 -118.2122,-363.8244 309.4833,-224.8513 h -382.5423 z"
         id="path1"
         sodipodi:nodetypes="ccccccccccc" />
      <path
         style="color:#000000;fill:#d01c1f;stroke-linecap:round;stroke-miterlimit:155;-inkscape-stroke:none;fill-opacity:1"
         d="m 2666.6621,942.91406 104.3769,321.23044 h 337.752 l -273.2461,198.5235 104.3711,321.2285 -273.2539,-198.5313 -273.25,198.5293 104.373,-321.2265 -273.2461,-198.5235 h 337.75 z"
         id="path4"
         sodipodi:nodetypes="ccccccccccc" />
      <circle
         style="fill:#ffffff;fill-opacity:1;stroke:none;stroke-width:0.558528;stroke-linejoin:bevel;stroke-miterlimit:155;paint-order:markers fill stroke"
         id="circle3"
         cx="-2666.6636"
         cy="-1407.8055"
         r="201.10664"
         transform="scale(-1)" />
      <path
         id="circle6"
         style="fill:#009b75;fill-opacity:1;stroke-width:0.168539;stroke-linejoin:bevel;stroke-miterlimit:155;paint-order:markers fill stroke"
         d="m 2605.978,1407.8056 c 0,33.5157 27.1699,60.6855 60.6856,60.6855 33.5157,0 60.6855,-27.1698 60.6855,-60.6855 0,-33.5157 -27.1698,-60.6856 -60.6855,-60.6856 -33.5157,0 -60.6856,27.1699 -60.6856,60.6856 z m 182.0566,0 c 0,67.0314 -54.3396,121.371 -121.371,121.371 -67.0315,0 -121.3711,-54.3396 -121.3711,-121.371 0,-67.0315 54.3396,-121.3711 121.3711,-121.3711 67.0314,0 121.371,54.3396 121.371,121.3711 z"
         sodipodi:nodetypes="ssszsssszs" />
      <path
         id="circle8"
         style="fill:#d01c1f;fill-opacity:1;stroke-width:0.33708;stroke-linejoin:bevel;stroke-miterlimit:155;paint-order:markers fill stroke"
         d="m 2545.2924,1407.8056 c 0,67.0314 54.3397,121.371 121.3711,121.371 67.0314,0 121.371,-54.3396 121.371,-121.371 0,-67.0315 -54.3396,-121.3712 -121.371,-121.3712 -67.0314,0 -121.3711,54.3397 -121.3711,121.3712 z m 303.4278,0 c 0,100.5471 -81.5095,182.0566 -182.0567,182.0566 -100.5472,0 -182.0566,-81.5095 -182.0566,-182.0566 0,-100.5472 81.5094,-182.0567 182.0566,-182.0567 100.5472,0 182.0567,81.5095 182.0567,182.0567 z"
         sodipodi:nodetypes="ssszsssszs" />
    </g>
  </g>
</svg>
