<?xml version="1.0" encoding="UTF-8" standalone="no"?>
<!-- Created with Inkscape (http://www.inkscape.org/) -->

<svg
   xmlns:dc="http://purl.org/dc/elements/1.1/"
   xmlns:cc="http://creativecommons.org/ns#"
   xmlns:rdf="http://www.w3.org/1999/02/22-rdf-syntax-ns#"
   xmlns:svg="http://www.w3.org/2000/svg"
   xmlns="http://www.w3.org/2000/svg"
   xmlns:sodipodi="http://sodipodi.sourceforge.net/DTD/sodipodi-0.dtd"
   xmlns:inkscape="http://www.inkscape.org/namespaces/inkscape"
   width="2511"
   height="1800"
   viewBox="0 0 664.36874 476.25001"
   version="1.1"
   id="svg8"
   inkscape:export-filename="C:\Users\厂永刄先生\Documents\GXI3CW2\JáÈŭcèŭ\Maqkàla\Maqkàla.png"
   inkscape:export-xdpi="96"
   inkscape:export-ydpi="96"
   inkscape:version="0.92.4 (5da689c313, 2019-01-14)"
   sodipodi:docname="I1SELI.svg">
  <defs
     id="defs2" />
  <sodipodi:namedview
     id="base"
     pagecolor="#ffffff"
     bordercolor="#666666"
     borderopacity="1.0"
     inkscape:pageopacity="0.0"
     inkscape:pageshadow="2"
     inkscape:zoom="0.23360713"
     inkscape:cx="1386"
     inkscape:cy="1142.1525"
     inkscape:document-units="px"
     inkscape:current-layer="layer1"
     showgrid="false"
     units="px"
     fit-margin-top="0"
     fit-margin-left="0"
     fit-margin-right="0"
     fit-margin-bottom="0"
     inkscape:showpageshadow="false"
     inkscape:snap-intersection-paths="true"
     inkscape:object-paths="false"
     inkscape:pagecheckerboard="true"
     inkscape:snap-smooth-nodes="true"
     inkscape:window-width="1366"
     inkscape:window-height="745"
     inkscape:window-x="-8"
     inkscape:window-y="-8"
     inkscape:window-maximized="1"
     inkscape:object-nodes="true" />
  <metadata
     id="metadata5">
    <rdf:RDF>
      <cc:Work
         rdf:about="">
        <dc:format>image/svg+xml</dc:format>
        <dc:type
           rdf:resource="http://purl.org/dc/dcmitype/StillImage" />
        <dc:title></dc:title>
      </cc:Work>
    </rdf:RDF>
  </metadata>
  <g
     inkscape:label="レイヤー 1"
     inkscape:groupmode="layer"
     id="layer1"
     transform="translate(112.33452,-299.26786)">
    <path
       style="fill:#ffffff;fill-opacity:1;stroke:none;stroke-width:1.67995548px;stroke-linecap:butt;stroke-linejoin:miter;stroke-opacity:1"
       d="M -102.80952,343.9163 V 299.26786 H 552.03423 V 343.9163 Z"
       id="path849"
       inkscape:connector-curvature="0"
       sodipodi:nodetypes="ccccc" />
    <path
       style="fill:#ffffff;fill-opacity:1;stroke:none;stroke-width:0.51166773px;stroke-linecap:butt;stroke-linejoin:miter;stroke-opacity:1"
       d="m -102.80952,299.26786 h -9.525 v 476.25 h 9.525 z"
       id="path819"
       inkscape:connector-curvature="0"
       sodipodi:nodetypes="ccccc" />
    <path
       style="fill:#0031c0;fill-opacity:1;stroke:none;stroke-width:2.02610254px;stroke-linecap:butt;stroke-linejoin:miter;stroke-opacity:1"
       d="m 552.03423,656.45536 v 74.41406 h -654.84375 v -74.41406 z"
       id="path847"
       inkscape:connector-curvature="0"
       sodipodi:nodetypes="ccccc" />
    <path
       sodipodi:nodetypes="ccccccccccccccccccccccccccccccccccccccccccccccccc"
       inkscape:connector-curvature="0"
       id="path831"
       d="m 552.03423,418.33036 v 238.125 h -654.84375 v -238.125 z m -327.42188,20.83596 -28.35556,49.11328 h -56.71113 l 28.35555,49.11322 -28.35555,49.11329 h 56.71113 l 28.35556,49.11326 28.35555,-49.11326 h 56.71113 L 281.32346,537.39282 309.67903,488.2796 H 252.9679 Z m 37.8074,65.48437 h 18.9037 l -9.45183,16.37109 z m -47.25926,-16.37109 9.45186,-16.37109 9.45184,16.37109 z m 56.71113,65.48431 9.45184,16.37111 h -18.90371 z m -28.35558,16.37111 h -37.8074 l -18.90371,-32.7422 18.90371,-32.74213 h 37.8074 l 18.90371,32.74213 z m -56.71111,0 h -18.90371 l 9.45187,-16.37111 z m 47.25927,16.37109 -9.45184,16.37107 -9.45187,-16.37107 z m -56.71111,-65.48433 -9.45187,-16.37109 h 18.90371 z"
       style="fill:#ffffff;fill-opacity:1;stroke:none;stroke-width:2.02610254px;stroke-linecap:butt;stroke-linejoin:miter;stroke-opacity:1" />
    <path
       sodipodi:nodetypes="ccccc"
       inkscape:connector-curvature="0"
       id="path833"
       d="m -102.80952,775.51786 v -44.64844 h 654.84375 v 44.64844 z"
       style="fill:#ffffff;fill-opacity:1;stroke:none;stroke-width:1.75465631px;stroke-linecap:butt;stroke-linejoin:miter;stroke-opacity:1" />
    <path
       sodipodi:nodetypes="ccccc"
       inkscape:connector-curvature="0"
       id="path835"
       d="m -102.80952,343.9163 v 74.41406 H 552.03423 V 343.9163 Z"
       style="fill:#0031c0;fill-opacity:1;stroke:none;stroke-width:1.75465631px;stroke-linecap:butt;stroke-linejoin:miter;stroke-opacity:1" />
    <path
       style="fill:#0031c0;fill-opacity:1;stroke:none;stroke-width:2.02610254px;stroke-linecap:butt;stroke-linejoin:miter;stroke-opacity:1"
       d="m 224.61235,439.16632 -28.35556,49.11328 h -56.71113 l 28.35555,49.11322 -28.35555,49.11329 h 56.71113 l 28.35556,49.11326 28.35555,-49.11326 h 56.71113 L 281.32345,537.39282 309.67903,488.2796 H 252.9679 Z m 37.80739,65.48437 h 18.90371 l -9.45184,16.37109 z m -47.25926,-16.37109 9.45187,-16.37109 9.45184,16.37109 z m 56.71113,65.48431 9.45184,16.37111 h -18.90371 z m -28.35558,16.37111 h -37.8074 l -18.90371,-32.7422 18.90371,-32.74213 h 37.8074 l 18.90371,32.74213 z m -56.71111,0 h -18.90371 l 9.45187,-16.37111 z m 47.25927,16.37109 -9.45184,16.37107 -9.45187,-16.37107 z m -56.71111,-65.48433 -9.45187,-16.37109 h 18.90371 z"
       id="path882"
       inkscape:connector-curvature="0"
       sodipodi:nodetypes="cccccccccccccccccccccccccccccccccccccccccccc" />
  </g>
</svg>
