<?xml version="1.0" encoding="UTF-8" standalone="no"?>
<!-- Created with Inkscape (http://www.inkscape.org/) -->

<svg
   xmlns:dc="http://purl.org/dc/elements/1.1/"
   xmlns:cc="http://creativecommons.org/ns#"
   xmlns:rdf="http://www.w3.org/1999/02/22-rdf-syntax-ns#"
   xmlns:svg="http://www.w3.org/2000/svg"
   xmlns="http://www.w3.org/2000/svg"
   xmlns:sodipodi="http://sodipodi.sourceforge.net/DTD/sodipodi-0.dtd"
   xmlns:inkscape="http://www.inkscape.org/namespaces/inkscape"
   width="3636"
   height="1800"
   viewBox="0 0 962.02499 476.25001"
   version="1.1"
   id="svg8"
   inkscape:export-filename="C:\Users\厂永刄先生\Documents\GXI3CW2\JáÈŭcèŭ\Maqkàla\Maqkàla.png"
   inkscape:export-xdpi="96"
   inkscape:export-ydpi="96"
   inkscape:version="0.92.4 (5da689c313, 2019-01-14)"
   sodipodi:docname="BA-QU 1995.svg">
  <defs
     id="defs2" />
  <sodipodi:namedview
     id="base"
     pagecolor="#ffffff"
     bordercolor="#666666"
     borderopacity="1.0"
     inkscape:pageopacity="0.0"
     inkscape:pageshadow="2"
     inkscape:zoom="0.24532453"
     inkscape:cx="1818"
     inkscape:cy="900"
     inkscape:document-units="px"
     inkscape:current-layer="g845"
     showgrid="false"
     units="px"
     fit-margin-top="0"
     fit-margin-left="0"
     fit-margin-right="0"
     fit-margin-bottom="0"
     inkscape:showpageshadow="false"
     inkscape:snap-intersection-paths="false"
     inkscape:object-paths="false"
     inkscape:pagecheckerboard="true"
     inkscape:snap-smooth-nodes="false"
     inkscape:window-width="1366"
     inkscape:window-height="745"
     inkscape:window-x="-8"
     inkscape:window-y="-8"
     inkscape:window-maximized="1"
     inkscape:object-nodes="true"
     showguides="false"
     inkscape:guide-bbox="true" />
  <metadata
     id="metadata5">
    <rdf:RDF>
      <cc:Work
         rdf:about="">
        <dc:format>image/svg+xml</dc:format>
        <dc:type
           rdf:resource="http://purl.org/dc/dcmitype/StillImage" />
        <dc:title />
      </cc:Work>
    </rdf:RDF>
  </metadata>
  <g
     inkscape:label="レイヤー 1"
     inkscape:groupmode="layer"
     id="layer1"
     transform="translate(112.33452,-299.26786)">
    <path
       style="fill:#ffffff;fill-opacity:1;stroke:none;stroke-width:0.51166773px;stroke-linecap:butt;stroke-linejoin:miter;stroke-opacity:1"
       d="m -102.80952,299.26786 h -9.525 v 476.25 h 9.525 z"
       id="path819"
       inkscape:connector-curvature="0"
       sodipodi:nodetypes="ccccc" />
    <path
       style="fill:#cd0000;fill-opacity:1;stroke:none;stroke-width:2.02610254px;stroke-linecap:butt;stroke-linejoin:miter;stroke-opacity:1"
       d="m -7.5595195,616.76786 v -317.5 H 849.69048 v 317.5 z"
       id="path849"
       inkscape:connector-curvature="0"
       sodipodi:nodetypes="ccccc" />
    <path
       style="fill:#009933;fill-opacity:1;stroke:none;stroke-width:2.02610254px;stroke-linecap:butt;stroke-linejoin:miter;stroke-opacity:1"
       d="m 849.69048,616.76786 v 158.75 H -7.5595195 v -158.75 z"
       id="path847"
       inkscape:connector-curvature="0"
       sodipodi:nodetypes="ccccc" />
    <g
       id="g845">
      <path
         style="fill:#ffffff;fill-opacity:1;stroke:none;stroke-width:0.10130513px;stroke-linecap:butt;stroke-linejoin:miter;stroke-opacity:1"
         d="m -102.80952,775.51786 v -476.25 h 95.2500005 v 476.25 z"
         id="path827"
         inkscape:connector-curvature="0"
         sodipodi:nodetypes="ccccc" />
      <path
         inkscape:connector-curvature="0"
         id="path870"
         d="m -75.141729,299.26786 v 8.072 h -3.62856 v 8.0721 h -3.62856 v 8.0721 H -86.0274 v 8.0721 h -3.62856 v 8.072 h -3.62856 v 8.0721 h 3.62856 v 8.0721 h 3.62856 v 8.0721 h 3.628551 v 8.0721 h 3.62856 v 8.072 h 3.62856 v 8.0721 h 3.62856 v -8.0721 h 3.62865 v -8.072 h 3.62856 v -8.0721 h 3.62856 v -8.0721 h 3.62855 v -8.0721 h 3.62856 v 8.0721 h 3.628561 v 8.0721 h 3.628648 v 8.0721 h 3.62856 v 8.072 h 3.62856 v 8.0721 h 3.628561 v -8.0721 h 3.62855 v -8.072 h 3.62856 v -8.0721 h 3.62856 v -8.0721 h 3.628649 v -8.0721 h 3.62856 v -8.0721 h -3.62856 v -8.072 h -3.628649 v -8.0721 h -3.62856 v -8.0721 h -3.62856 v -8.0721 h -3.62855 v -8.072 h -3.628561 v 8.072 h -3.62856 v 8.0721 h -3.62856 v 8.0721 h -3.628648 v 8.0721 h -3.628561 v 8.072 h -3.62856 v -8.072 h -3.62855 v -8.0721 h -3.62856 v -8.0721 h -3.62856 v -8.0721 h -3.62865 v -8.072 z m -18.142791,8.072 v 16.1442 h 3.62856 v -16.1442 z m 36.285671,0 v 16.1442 h 3.62856 v -16.1442 z m 36.285769,0 v 16.1442 h 3.62856 v -16.1442 z m -54.428649,16.1442 h 3.62856 v 8.0721 h 3.628649 v 8.072 h 3.62856 v 8.0721 h -3.62856 v 8.0721 h -3.628649 v 8.0721 h -3.62856 v -8.0721 h -3.62856 v -8.0721 h -3.62856 v -8.0721 h 3.62856 v -8.072 h 3.62856 z m 36.285769,0 h 3.62856 v 8.0721 h 3.628551 v 8.072 h 3.62856 v 8.0721 h -3.62856 v 8.0721 H -35.2274 v 8.0721 h -3.62856 v -8.0721 h -3.62856 v -8.0721 h -3.62856 v -8.0721 h 3.62856 v -8.072 h 3.62856 z m -36.285769,16.1441 v 8.0721 h 3.62856 v -8.0721 z m 36.285769,0 v 8.0721 h 3.62856 v -8.0721 z m -54.42856,24.2163 v 16.1441 h 3.62856 v -16.1441 z m 36.285671,0 v 16.1441 h 3.62856 v -16.1441 z m 36.285769,0 v 16.1441 h 3.62856 v -16.1441 z m -65.31432,16.1441 v 8.0721 h -3.62856 v 8.0721 h -3.62856 v 8.0721 h 3.62856 v 8.072 h 3.62856 v 8.0721 h 3.628551 v -8.0721 h 3.62856 v -8.072 h 3.62856 v -8.0721 h -3.62856 v -8.0721 h -3.62856 v -8.0721 z m 21.77144,0 v 8.0721 h -3.62856 v 8.0721 h -3.628649 v 8.072 h 3.628649 v 8.0721 h 3.62856 v 8.0721 h 3.62856 v -8.0721 h 3.628551 v -8.0721 h 3.62856 v 8.0721 h 3.62856 v 8.0721 h 3.628649 v -8.0721 h 3.62856 v -8.0721 h 3.62856 v -8.072 h -3.62856 v -8.0721 h -3.62856 v -8.0721 h -3.628649 v 8.0721 h -3.62856 v 8.0721 h -3.62856 v -8.0721 H -60.6274 v -8.0721 z m 36.285671,0 v 8.0721 h -3.62856 v 8.0721 H -35.2274 v 8.0721 h 3.628551 v 8.072 h 3.62856 v 8.0721 h 3.62856 v -8.0721 h 3.628649 v -8.072 h 3.62856 v -8.0721 h -3.62856 v -8.0721 h -3.628649 v -8.0721 z m -58.057111,16.1442 h 3.628551 v 8.072 H -86.0274 Z m 21.77144,0 h 3.62856 v 8.072 h -3.62856 z m 14.514231,0 h 3.628649 v 8.072 h -3.628649 z m 21.77144,0 h 3.62856 v 8.072 h -3.62856 z m -47.17144,16.1441 v 8.0721 h -3.62856 v 8.072 h -3.62856 v 8.0721 H -86.0274 v 8.0721 h -3.62856 v 8.072 h -3.62856 v 8.072 h 3.62856 v 8.072 h 3.62856 v 8.072 h 3.628551 v 8.0719 h 3.62856 v -8.0719 h 3.62856 v -8.072 h 3.62856 v -8.072 h -3.62856 v -8.072 h 7.257209 v 8.072 h 3.62856 v 8.072 h 3.62856 v 8.072 h -3.62856 v 8.0719 h -3.62856 v 8.0721 h -3.628649 v 8.0719 h -3.62856 v 8.072 h -3.62856 v 8.072 h -3.62856 v -8.072 H -86.0274 v -8.072 h -3.62856 v -8.0719 h -3.62856 v 24.2159 h 3.62856 v 8.072 h 3.62856 v 8.072 h 3.628551 v 8.072 H -86.0274 v 8.072 h -3.62856 v 8.072 h -3.62856 v 24.2161 h 3.62856 v -8.072 h 3.62856 v -8.072 h 3.628551 v -8.0721 h 3.62856 v 8.0721 h 3.62856 v 8.072 h 3.62856 v 8.072 h 3.628649 v 8.0721 h 3.62856 v 8.072 h 3.62856 v 8.072 h -3.62856 v 8.072 h -3.62856 v 8.0721 h -7.257209 v -8.0721 h 3.62856 v -8.072 h -3.62856 v -8.072 h -3.62856 v -8.072 h -3.62856 v 8.072 H -86.0274 v 8.072 h -3.62856 v 8.072 h -3.62856 v 8.0721 h 3.62856 v 8.072 h 3.62856 v 8.072 h 3.628551 v 8.0721 h 3.62856 v 8.072 h 3.62856 v 8.072 h 3.62856 v -8.072 h 3.628649 v -8.072 h 3.62856 v -8.0721 h 3.62856 v -8.072 h 3.628551 v -8.072 h 3.62856 v 8.072 h 3.62856 v 8.072 h 3.628649 v 8.0721 h 3.62856 v 8.072 h 3.62856 v 8.072 h 3.62856 v -8.072 h 3.628551 v -8.072 h 3.62856 v -8.0721 h 3.62856 v -8.072 h 3.628649 v -8.072 h 3.62856 v -8.0721 h -3.62856 v -8.072 h -3.628649 v -8.072 h -3.62856 v -8.072 h -3.62856 v 8.072 H -35.2274 v 8.072 h -3.62856 v 8.072 h 3.62856 v 8.0721 h -7.25712 v -8.0721 h -3.62856 v -8.072 h -3.628649 v -8.072 h 3.628649 v -8.072 h 3.62856 v -8.0721 h 3.62856 v -8.072 h 3.62856 v -8.072 h 3.628551 v -8.0721 h 3.62856 v 8.0721 h 3.62856 v 8.072 h 3.628649 v 8.072 h 3.62856 v -24.2161 h -3.62856 v -8.072 h -3.628649 v -8.072 h -3.62856 v -8.072 h 3.62856 v -8.072 h 3.628649 v -8.072 h 3.62856 v -24.2159 h -3.62856 v 8.0719 h -3.628649 v 8.072 h -3.62856 v 8.072 h -3.62856 v -8.072 H -35.2274 v -8.072 h -3.62856 v -8.0719 h -3.62856 v -8.0721 h -3.62856 v -8.0719 h -3.628649 v -8.072 h 3.628649 v -8.072 h 3.62856 v -8.072 h 7.25712 v 8.072 h -3.62856 v 8.072 h 3.62856 v 8.072 h 3.628551 v 8.0719 h 3.62856 v -8.0719 h 3.62856 v -8.072 h 3.628649 v -8.072 h 3.62856 v -8.072 h -3.62856 v -8.072 h -3.628649 v -8.0721 h -3.62856 v -8.0721 h -3.62856 v -8.072 H -35.2274 v -8.0721 h -3.62856 v 8.0721 h -3.62856 v 8.072 h -3.62856 v 8.0721 h -3.628649 v 8.0721 h -3.62856 v 8.072 h -3.62856 v -8.072 H -60.6274 v -8.0721 h -3.62856 v -8.0721 h -3.62856 v -8.072 h -3.628649 v -8.0721 z m -18.142791,8.0721 v 16.1441 h 3.62856 v -16.1441 z m 36.285671,0 v 16.1441 h 3.62856 v -16.1441 z m 36.285769,0 v 16.1441 h 3.62856 v -16.1441 z m -72.57144,56.5042 v 8.0719 h 3.62856 v -8.0719 z m 72.57144,0 v 8.0719 h 3.62856 v -8.0719 z m -36.285769,8.0719 h 3.62856 v 8.0721 h 3.62856 v 8.0719 h 3.628649 v 8.072 h 3.62856 v 8.072 h 3.62856 v 8.072 h 3.62856 v 8.072 h 3.628551 v 8.072 H -35.2274 v 8.072 h -3.62856 v 8.072 h -3.62856 v 8.0721 h -3.62856 v 8.072 h -3.628649 v 8.072 h -3.62856 v 8.0721 h -3.62856 v -8.0721 H -60.6274 v -8.072 h -3.62856 v -8.072 h -3.62856 v -8.0721 h -3.628649 v -8.072 h -3.62856 v -8.072 h -3.62856 v -8.072 h 3.62856 v -8.072 h 3.62856 v -8.072 h 3.628649 v -8.072 h 3.62856 v -8.072 h 3.62856 v -8.0719 h 3.628551 z m 0,16.144 v 8.072 h 3.62856 v -8.072 z m -7.257111,12.108 v 12.108 h 3.62856 v 8.072 h 3.628551 v 8.072 H -60.6274 v 8.072 h -3.62856 v 12.1081 h 3.62856 v -8.0384 h 3.628551 v -8.1057 h 3.62856 v 8.1057 h 3.62856 v 8.0384 h 3.628649 v -12.1081 h -3.628649 v -8.072 h -3.62856 v -8.072 h 3.62856 v -8.072 h 3.628649 v -12.108 h -3.628649 v 8.0383 h -3.62856 v 8.1057 h -3.62856 v -8.1057 H -60.6274 v -8.0383 z m -7.257209,20.18 v 8.072 h 3.628649 v -8.072 z m 29.028649,0 v 8.072 h 3.62856 v -8.072 z m -14.514329,32.2881 v 8.072 h 3.62856 v -8.072 z m -36.285671,24.2161 v 8.072 h 3.62856 v -8.072 z m 72.57144,0 v 8.072 h 3.62856 v -8.072 z m -72.57144,48.4321 v 16.1441 h 3.62856 v -16.1441 z m 36.285671,0 v 16.1441 h 3.62856 v -16.1441 z m 36.285769,0 v 16.1441 h 3.62856 v -16.1441 z m -65.31432,16.1441 v 8.072 h -3.62856 v 8.072 h -3.62856 v 8.0721 h 3.62856 v 8.072 h 3.62856 v 8.072 h 3.628551 v -8.072 h 3.62856 v -8.072 h 3.62856 v -8.0721 h -3.62856 v -8.072 h -3.62856 v -8.072 z m 21.77144,0 v 8.072 h -3.62856 v 8.072 h -3.628649 v 8.0721 h 3.628649 v 8.072 h 3.62856 v 8.072 h 3.62856 v -8.072 h 3.628551 v -8.072 h 3.62856 v 8.072 h 3.62856 v 8.072 h 3.628649 v -8.072 h 3.62856 v -8.072 h 3.62856 v -8.0721 h -3.62856 v -8.072 h -3.62856 v -8.072 h -3.628649 v 8.072 h -3.62856 v 8.072 h -3.62856 v -8.072 H -60.6274 v -8.072 z m 36.285671,0 v 8.072 h -3.62856 v 8.072 H -35.2274 v 8.0721 h 3.628551 v 8.072 h 3.62856 v 8.072 h 3.62856 v -8.072 h 3.628649 v -8.072 h 3.62856 v -8.0721 h -3.62856 v -8.072 h -3.628649 v -8.072 z m -58.057111,16.144 h 3.628551 v 8.0721 H -86.0274 Z m 21.77144,0 h 3.62856 v 8.0721 h -3.62856 z m 14.514231,0 h 3.628649 v 8.0721 h -3.628649 z m 21.77144,0 h 3.62856 v 8.0721 h -3.62856 z m -47.17144,16.1441 v 8.072 h -3.62856 v 8.0721 h -3.62856 v 8.072 H -86.0274 v 8.072 h -3.62856 v 8.072 h -3.62856 v 8.0721 h 3.62856 v 8.072 h 3.62856 v 8.072 h 3.628551 v 8.0721 h 3.62856 v 8.072 h 3.62856 v 8.072 h 3.62856 v -8.072 h 3.628649 v -8.072 h 3.62856 v -8.0721 h 3.62856 v -8.072 h 3.628551 v -8.072 h 3.62856 v 8.072 h 3.62856 v 8.072 h 3.628649 v 8.0721 h 3.62856 v 8.072 h 3.62856 v 8.072 h 3.62856 v -8.072 h 3.628551 v -8.072 h 3.62856 v -8.0721 h 3.62856 v -8.072 h 3.628649 v -8.072 h 3.62856 v -8.0721 h -3.62856 v -8.072 h -3.628649 v -8.072 h -3.62856 v -8.072 h -3.62856 v -8.0721 H -35.2274 v -8.072 h -3.62856 v 8.072 h -3.62856 v 8.0721 h -3.62856 v 8.072 h -3.628649 v 8.072 h -3.62856 v 8.072 h -3.62856 v -8.072 H -60.6274 v -8.072 h -3.62856 v -8.072 h -3.62856 v -8.0721 h -3.628649 v -8.072 z m -18.142791,8.072 v 16.1441 h 3.62856 v -16.1441 z m 36.285671,0 v 16.1441 h 3.62856 v -16.1441 z m 36.285769,0 v 16.1441 h 3.62856 v -16.1441 z m -54.428649,16.1441 h 3.62856 v 8.072 h 3.628649 v 8.072 h 3.62856 v 8.0721 h -3.62856 v 8.072 h -3.628649 v 8.072 h -3.62856 v -8.072 h -3.62856 v -8.072 h -3.62856 v -8.0721 h 3.62856 v -8.072 h 3.62856 z m 36.285769,0 h 3.62856 v 8.072 h 3.628551 v 8.072 h 3.62856 v 8.0721 h -3.62856 v 8.072 H -35.2274 v 8.072 h -3.62856 v -8.072 h -3.62856 v -8.072 h -3.62856 v -8.0721 h 3.62856 v -8.072 h 3.62856 z m -36.285769,16.144 v 8.0721 h 3.62856 v -8.0721 z m 36.285769,0 v 8.0721 h 3.62856 v -8.0721 z m -54.42856,24.2161 v 16.1441 h 3.62856 v -16.1441 z m 36.285671,0 v 16.1441 h 3.62856 v -16.1441 z m 36.285769,0 v 16.1441 h 3.62856 v -16.1441 z"
         style="fill:#cd0000;fill-opacity:1;stroke:none;stroke-width:0.01486209px;stroke-linecap:butt;stroke-linejoin:miter;stroke-opacity:1" />
    </g>
  </g>
</svg>
