<?xml version="1.0" encoding="UTF-8" standalone="no"?>
<!-- Created with Inkscape (http://www.inkscape.org/) -->

<svg
   xmlns:dc="http://purl.org/dc/elements/1.1/"
   xmlns:cc="http://creativecommons.org/ns#"
   xmlns:rdf="http://www.w3.org/1999/02/22-rdf-syntax-ns#"
   xmlns:svg="http://www.w3.org/2000/svg"
   xmlns="http://www.w3.org/2000/svg"
   xmlns:sodipodi="http://sodipodi.sourceforge.net/DTD/sodipodi-0.dtd"
   xmlns:inkscape="http://www.inkscape.org/namespaces/inkscape"
   width="2736"
   height="1800"
   viewBox="0 0 723.9 476.25001"
   version="1.1"
   id="svg8"
   inkscape:export-filename="C:\Users\厂永刄先生\Documents\GXI3CW2\Àl̕àpa-pŏ́tóŭ\Sò\al-Arabiya am-Masihiya.png"
   inkscape:export-xdpi="96"
   inkscape:export-ydpi="96"
   inkscape:version="0.92.4 (5da689c313, 2019-01-14)"
   sodipodi:docname="𬂛.svg">
  <defs
     id="defs2" />
  <sodipodi:namedview
     id="base"
     pagecolor="#ffffff"
     bordercolor="#666666"
     borderopacity="1.0"
     inkscape:pageopacity="0.0"
     inkscape:pageshadow="2"
     inkscape:zoom="0.15111111"
     inkscape:cx="970.94117"
     inkscape:cy="1239.9625"
     inkscape:document-units="px"
     inkscape:current-layer="layer1"
     showgrid="false"
     units="px"
     fit-margin-top="0"
     fit-margin-left="0"
     fit-margin-right="0"
     fit-margin-bottom="0"
     inkscape:showpageshadow="false"
     inkscape:snap-intersection-paths="false"
     inkscape:object-paths="false"
     inkscape:pagecheckerboard="true"
     inkscape:snap-smooth-nodes="true"
     inkscape:window-width="1366"
     inkscape:window-height="745"
     inkscape:window-x="-8"
     inkscape:window-y="-8"
     inkscape:window-maximized="1"
     inkscape:object-nodes="true"
     inkscape:snap-nodes="true" />
  <metadata
     id="metadata5">
    <rdf:RDF>
      <cc:Work
         rdf:about="">
        <dc:format>image/svg+xml</dc:format>
        <dc:type
           rdf:resource="http://purl.org/dc/dcmitype/StillImage" />
        <dc:title></dc:title>
      </cc:Work>
    </rdf:RDF>
  </metadata>
  <g
     inkscape:label="レイヤー 1"
     inkscape:groupmode="layer"
     id="layer1"
     transform="translate(1064.8345,-299.26791)">
    <path
       sodipodi:nodetypes="ccccc"
       inkscape:connector-curvature="0"
       id="path1139"
       d="m -350.4595,299.26791 h -714.375 v 476.25 h 714.375 z"
       style="fill:#008000;fill-opacity:1;stroke:none;stroke-width:0.33332425px;stroke-linecap:butt;stroke-linejoin:miter;stroke-opacity:1" />
    <path
       sodipodi:nodetypes="ccccc"
       inkscape:connector-curvature="0"
       id="path1079"
       d="m -340.9345,299.26791 h -9.525 v 476.25 h 9.525 z"
       style="fill:#ffffff;fill-opacity:1;stroke:none;stroke-width:0.51166773px;stroke-linecap:butt;stroke-linejoin:miter;stroke-opacity:1" />
    <flowRoot
       xml:space="preserve"
       id="flowRoot2203"
       style="font-style:normal;font-variant:normal;font-weight:normal;font-stretch:normal;font-size:6.66666651px;line-height:1.25;font-family:Impact;-inkscape-font-specification:Impact;text-align:center;letter-spacing:0px;word-spacing:0px;text-anchor:middle;fill:#000000;fill-opacity:1;stroke:none"><flowRegion
         id="flowRegion2205"><rect
           id="rect2207"
           width="58.524784"
           height="46.819828"
           x="1163.4727"
           y="1444.1693" /></flowRegion><flowPara
         id="flowPara2209" /></flowRoot>    <g
       aria-label="يَسُوعُ الْمَسِيحُ اِبْنُ اللّٰه المُخَلِّص"
       style="font-style:normal;font-variant:normal;font-weight:normal;font-stretch:normal;font-size:1.76388884px;line-height:1.25;font-family:Impact;-inkscape-font-specification:Impact;text-align:center;letter-spacing:0px;word-spacing:0px;text-anchor:middle;fill:#ffffff;fill-opacity:1;stroke:none;stroke-width:0.26458335"
       id="text1225"
       transform="matrix(1.560487,0,0,1.543606,190.08163,-243.66605)">
      <g
         id="g1363"
         transform="translate(254.0001,4.3437063)"
         style="fill:#ffffff">
        <path
           id="path1295"
           style="font-style:normal;font-variant:normal;font-weight:normal;font-stretch:normal;font-size:50.79999924px;font-family:'Amiri Quran';-inkscape-font-specification:'Amiri Quran';fill:#ffffff;stroke-width:0.26458335"
           d="m -843.70658,423.38275 q 1.0666,-2.50528 1.33946,-0.12403 0,0 1.16582,12.47676 1.88515,16.81758 -0.44649,21.33203 -0.29765,0.57051 -0.5457,0.29766 -0.22324,-0.29766 -0.19844,-0.84336 0.0744,-4.26641 -0.62012,-9.59941 -0.0248,-0.22325 -1.0914,-9.67383 l -1.09141,-9.20254 q -0.0992,-0.94258 0.22324,-1.71152 z"
           inkscape:connector-curvature="0" />
        <path
           id="path1297"
           style="font-style:normal;font-variant:normal;font-weight:normal;font-stretch:normal;font-size:50.79999924px;font-family:'Amiri Quran';-inkscape-font-specification:'Amiri Quran';fill:#ffffff;stroke-width:0.26458335"
           d="m -847.51824,461.72255 q 0.12402,-0.32246 0.49609,-0.27285 0.34726,0.0248 0.44648,0.29766 0.96739,2.40605 2.35645,3.6959 0.5209,0.44648 0.24805,0.86816 -0.24805,0.42168 -0.76895,1.16582 -0.49609,0.74414 -0.5209,0.89297 -0.0248,0.12402 0.5209,4.73769 0.57051,4.58887 1.01699,5.33301 0.47129,0.74414 0.86817,0.79375 0.66972,0.0744 -0.17364,1.26504 -0.84336,1.19063 -1.78593,0.91777 -0.94258,-0.29765 -1.11621,-2.43085 -0.0496,-0.74415 -0.84336,-5.53145 -1.16582,-7.16855 -1.48829,-8.01191 -0.32246,-0.84336 -0.0992,-1.46348 z"
           inkscape:connector-curvature="0" />
        <path
           id="path1299"
           style="font-style:normal;font-variant:normal;font-weight:normal;font-stretch:normal;font-size:50.79999924px;font-family:'Amiri Quran';-inkscape-font-specification:'Amiri Quran';fill:#ffffff;stroke-width:0.26458335"
           d="m -842.5077,479.28427 q 1.95958,0.39688 4.01836,1.90996 0.29766,0.22324 0.24805,0.66973 -0.24805,2.53008 -0.91777,4.44004 -0.12403,0.34726 -0.34727,0.17363 -4.11758,-3.05098 -7.63984,-3.24941 -4.2168,-0.22325 -12.94805,5.06015 -2.48047,0.39688 -1.21543,-1.81074 13.64258,-8.25996 18.80195,-7.19336 z"
           inkscape:connector-curvature="0" />
        <path
           id="path1301"
           style="font-style:normal;font-variant:normal;font-weight:normal;font-stretch:normal;font-size:50.79999924px;font-family:'Amiri Quran';-inkscape-font-specification:'Amiri Quran';fill:#ffffff;stroke-width:0.26458335"
           d="m -854.8439,453.85121 q 0.79375,-0.0992 1.31465,0.71933 1.14102,1.76113 -0.0248,4.78731 0.74414,0.42168 1.0666,0.5705 0.62011,0.24805 0.27285,0.91778 l -0.5209,0.99219 q -0.24805,0.49609 -0.69453,0.32246 -0.42168,-0.17364 -1.21543,-0.62012 -3.1502,4.16719 -7.16856,6.17637 -0.89296,0.47128 -1.21542,-0.0992 -0.34727,-0.66973 0.64492,-1.24024 4.11758,-2.40605 6.54843,-5.50664 -1.28984,-0.66972 -1.90996,-1.28984 -1.11621,-1.0418 -0.62011,-2.23242 1.33945,-3.1502 3.52226,-3.49746 z m -0.47129,2.95175 q -1.01699,-0.94257 -1.66191,0.12403 -0.17363,0.24804 0.22324,0.69453 0.42168,0.42168 1.90996,1.14101 0.19844,-1.38906 -0.47129,-1.95957 z"
           inkscape:connector-curvature="0" />
        <path
           id="path1303"
           style="font-style:normal;font-variant:normal;font-weight:normal;font-stretch:normal;font-size:50.79999924px;font-family:'Amiri Quran';-inkscape-font-specification:'Amiri Quran';fill:#ffffff;stroke-width:0.26458335"
           d="m -855.7038,487.02333 q 4.81211,1.88516 11.06289,2.70371 6.27559,0.81856 9.79786,0.44649 0.49609,-0.0496 0.62011,0.34726 0.12403,0.39688 -0.0496,0.71934 l -1.51308,2.72852 q -0.24805,0.44648 -0.84336,0.39687 -8.38399,-0.44648 -15.23008,1.61231 -0.49609,0.14882 -5.48184,1.95957 -4.98574,1.81074 -6.84609,1.81074 -0.64492,0 -0.99219,-1.71152 -0.5705,-2.80293 1.0418,-2.87735 1.63711,-0.0744 6.54844,-1.31465 4.91133,-1.24023 5.10976,-1.31465 0.22325,-0.0744 0.27285,-0.0744 0.39688,-0.14883 0.0496,-0.32246 -2.23242,-1.09141 -5.45703,-1.5875 -3.22461,-0.49609 -5.92832,-0.34727 -0.42168,0.0248 -0.32246,-0.34726 0.27285,-1.0418 1.14102,-2.15801 0.86816,-1.11621 1.76113,-1.36426 2.05879,-0.5457 5.25859,0.69453 z m -3.02617,-15.05644 q 0.12403,-0.19844 0.42168,-0.0992 2.00918,0.69453 3.59668,2.1084 0.22324,0.19844 0.0744,0.44648 l -2.43086,3.84473 q -0.14883,0.22324 -0.5209,-0.0744 -0.34727,-0.29766 -3.54707,-2.23243 -0.19844,-0.12402 -0.0744,-0.29765 z"
           inkscape:connector-curvature="0" />
        <path
           id="path1305"
           style="font-style:normal;font-variant:normal;font-weight:normal;font-stretch:normal;font-size:50.79999924px;font-family:'Amiri Quran';-inkscape-font-specification:'Amiri Quran';fill:#ffffff;stroke-width:0.26458335"
           d="m -857.10939,466.9646 q 1.16582,-0.69453 0.81855,0.47129 l -0.44648,1.48828 q -0.14883,0.54571 -0.96738,1.06661 l -8.90489,5.13457 q -0.79375,0.44648 -0.81855,-0.42168 l 0.0248,-0.74414 q 0.0248,-0.44649 0.79375,-1.06661 z"
           inkscape:connector-curvature="0" />
        <path
           id="path1307"
           style="font-style:normal;font-variant:normal;font-weight:normal;font-stretch:normal;font-size:50.79999924px;font-family:'Amiri Quran';-inkscape-font-specification:'Amiri Quran';fill:#ffffff;stroke-width:0.26458335"
           d="m -864.1622,495.15927 q 0.66973,0.14883 0.64493,1.48828 -0.0744,3.1502 -0.64493,3.10059 -2.87734,-0.34727 -5.03535,-5.85391 -0.44648,-1.11621 -0.62012,0.17364 -0.86816,5.63066 -4.39042,5.68027 -0.37208,0 -0.57051,-0.57051 -1.24024,-3.49746 0.57051,-4.01836 1.76113,-0.5209 2.6789,-1.81074 0.79375,-1.09141 0.74414,-2.85254 l -0.89297,-22.99394 q -0.0248,-0.64493 0.22325,-0.89297 l 1.46347,-1.71153 q 0.5209,-0.62011 0.57051,0.27285 0.22324,2.45567 0.37207,6.69727 0.5209,15.47812 0.99219,17.53691 1.19062,5.15938 3.89433,5.75469 z"
           inkscape:connector-curvature="0" />
        <path
           id="path1309"
           style="font-style:normal;font-variant:normal;font-weight:normal;font-stretch:normal;font-size:50.79999924px;font-family:'Amiri Quran';-inkscape-font-specification:'Amiri Quran';fill:#ffffff;stroke-width:0.26458335"
           d="m -868.4782,504.61918 q 1.16582,-0.69453 0.81856,0.47129 l -0.44649,1.48828 q -0.14882,0.5457 -0.96738,1.0666 l -8.90488,5.13457 q -0.79375,0.44649 -0.81856,-0.42168 l 0.0248,-0.74414 q 0.0248,-0.44648 0.79375,-1.0666 z"
           inkscape:connector-curvature="0" />
        <path
           id="path1311"
           style="font-style:normal;font-variant:normal;font-weight:normal;font-stretch:normal;font-size:50.79999924px;font-family:'Amiri Quran';-inkscape-font-specification:'Amiri Quran';fill:#ffffff;stroke-width:0.26458335"
           d="m -874.72074,467.52686 q 0.0992,-0.89297 0.62012,-0.86816 0.62012,0.0496 0.5457,0.86816 -0.14883,2.18281 -0.81855,3.64629 -0.76895,1.73633 -2.25723,1.83555 -0.94258,0.0744 -1.81074,-0.96739 -0.57051,1.017 -1.51309,1.51309 -1.01699,0.5457 -1.98437,0.12402 -2.38125,-0.94258 -0.54571,-5.70508 0.29766,-0.74414 0.86817,-0.49609 0.44648,0.19844 0.27285,0.91777 -0.64492,2.35645 0.59531,2.53008 1.53789,0.19844 2.40606,-3.27422 0.17363,-0.66972 0.64492,-0.5705 0.5209,0.12402 0.42168,0.59531 -0.34727,2.08359 0.96738,2.1084 1.33945,0.0248 1.5875,-2.25723 z"
           inkscape:connector-curvature="0" />
        <path
           id="path1313"
           style="font-style:normal;font-variant:normal;font-weight:normal;font-stretch:normal;font-size:50.79999924px;font-family:'Amiri Quran';-inkscape-font-specification:'Amiri Quran';fill:#ffffff;stroke-width:0.26458335"
           d="m -884.50204,487.86669 q -4.29121,0 -7.46621,2.55489 l -3.27422,2.90214 q 3.49747,0.12403 8.06153,-0.76894 4.56406,-0.91777 6.47402,-2.6541 -1.68672,-2.05879 -3.79512,-2.03399 z m -7.51582,10.49239 q -5.92832,0.39687 -10.81484,-0.76895 -1.11621,8.70645 -2.95176,10.46758 -5.38261,5.15937 -13.54336,5.75469 -5.97793,0.44648 -9.07851,-3.175 -3.07578,-3.59668 -2.53008,-8.01192 0.71934,-5.8291 4.01836,-9.5498 0.39687,-0.44649 0.71933,-0.39688 0.32247,0.0496 0.32247,0.39688 0.0248,0.34726 -0.22325,0.66972 -5.70507,7.41661 -0.5457,12.52637 2.60449,2.55488 6.79648,2.55488 7.04454,0 12.52637,-3.59668 1.68672,-1.11621 2.6293,-3.175 0.12402,-0.27285 0.0744,-0.71933 -0.49609,-4.48965 -2.57968,-7.49102 -0.39688,-0.5705 -0.27286,-0.91777 l 1.5875,-4.16719 q 0.47129,-0.89297 0.91778,-0.12402 l 1.86035,3.1998 q 1.53789,0.96739 5.53144,1.31465 3.72071,-4.16719 8.4584,-7.71426 4.7625,-3.54707 7.31738,-3.57187 1.90997,-0.0248 3.37344,1.46348 1.46348,1.46347 2.18281,3.44785 0.14883,0.42168 0.0744,0.84336 -0.32246,2.38125 -2.97656,5.75468 -0.29766,0.27286 -0.59532,0.5209 3.12539,1.16582 5.48184,1.26504 0.47129,0.0248 0.57051,1.26504 0.29765,3.24941 -0.57051,3.32383 -4.16719,0.42168 -10.46758,-2.90215 -3.1998,1.21543 -7.29258,1.51309 z"
           inkscape:connector-curvature="0" />
        <path
           id="path1281-3"
           style="font-style:normal;font-variant:normal;font-weight:normal;font-stretch:normal;font-size:50.79999924px;line-height:1.25;font-family:'Amiri Quran';-inkscape-font-specification:'Amiri Quran';text-align:center;letter-spacing:0px;word-spacing:0px;text-anchor:middle;fill:#ffffff;fill-opacity:1;stroke:none;stroke-width:0.26458335"
           d="m -915.70838,475.38196 q 0.7937,-0.0992 1.3146,0.71933 1.141,1.76113 -0.025,4.78731 0.7442,0.42168 1.0666,0.5705 0.6201,0.24805 0.2729,0.91778 l -0.5209,0.99219 q -0.2481,0.49609 -0.6946,0.32246 -0.4216,-0.17364 -1.2154,-0.62012 -3.1502,4.16719 -7.1685,6.17637 -0.893,0.47128 -1.2155,-0.0992 -0.3472,-0.66973 0.645,-1.24024 4.1175,-2.40605 6.5484,-5.50664 -1.2899,-0.66972 -1.91,-1.28984 -1.1162,-1.0418 -0.6201,-2.23242 1.3395,-3.1502 3.5223,-3.49746 z m -0.4713,2.95175 q -1.017,-0.94257 -1.6619,0.12403 -0.1737,0.24804 0.2232,0.69453 0.4217,0.42168 1.91,1.14101 0.1984,-1.38906 -0.4713,-1.95957 z"
           inkscape:connector-curvature="0" />
        <path
           inkscape:connector-curvature="0"
           id="path878-6"
           style="font-style:normal;font-variant:normal;font-weight:normal;font-stretch:normal;font-size:50.80000305px;line-height:1.25;font-family:Impact;-inkscape-font-specification:Impact;text-align:center;letter-spacing:0px;word-spacing:0px;text-anchor:middle;fill:#ffffff;fill-opacity:1;stroke:none;stroke-width:0.07000434"
           d="m -846.40675,447.97701 q -0.1984,0.0496 -0.6201,0.29766 -0.3969,0.22324 -1.017,0.69453 -0.6697,0.4961 -1.3146,0.96738 -0.6449,0.44649 -0.9426,0.64493 -1.3146,0.84336 -2.282,0.84336 -0.9426,0 -1.5875,-0.22325 -0.6698,-0.24804 -1.0914,-0.5705 0.5705,-0.12403 1.2898,-0.19844 0.7194,-0.0744 1.5131,-0.42168 0.6449,-0.27285 1.5627,-0.94258 0.9178,-0.69453 2.1084,-1.5875 -1.3395,-0.27285 -2.6789,-0.34727 -1.3643,-0.0992 -2.7037,-0.0992 -0.645,0 -1.017,0.24804 -0.3969,0.22325 -0.9674,0.59532 0.3225,-1.19063 0.6201,-1.86036 0.2729,-0.69453 0.5705,-1.04179 0.2729,-0.34727 0.5457,-0.44649 0.2481,-0.0992 0.5209,-0.0992 0.8682,0 1.8852,0.0992 1.017,0.0744 2.1084,0.22324 1.0914,0.14883 2.1828,0.37207 1.0914,0.19844 2.1084,0.44649 z" />
      </g>
      <g
         id="g1323"
         style="fill:#ffffff">
        <path
           id="path1237"
           style="font-style:normal;font-variant:normal;font-weight:normal;font-stretch:normal;font-size:50.79999924px;font-family:'Amiri Quran';-inkscape-font-specification:'Amiri Quran';fill:#ffffff;stroke-width:0.26458335"
           d="m -482.06251,474.49697 q 4.51445,10.26914 3.44785,18.35547 -0.12403,1.16582 -0.66973,2.40605 -0.5457,1.24023 -1.38906,1.24023 -2.57969,-0.0248 -5.85391,-4.48964 -0.42168,-0.54571 -0.59531,-1.68672 -0.19844,-1.14102 -0.0744,-2.13321 0.0992,-1.01699 0.5209,-1.01699 0.22325,0 0.44649,0.47129 1.63711,3.57188 5.87871,4.93613 0.34726,0.0992 0.34726,-0.49609 -0.0248,-4.83691 -3.59668,-11.93105 -0.17363,-0.29766 0.0744,-2.05879 0.27285,-1.76114 0.81855,-3.62149 0.0744,-0.27285 0.27285,-0.27285 0.22325,0 0.37208,0.29766 z m 4.7873,28.87265 q 0.0992,-0.17363 0.37207,-0.0992 1.81074,0.62012 3.22461,1.90996 0.19844,0.17364 0.0744,0.39688 l -2.18281,3.47266 q -0.12402,0.19843 -0.44648,-0.0744 -0.29766,-0.24804 -2.57969,-1.63711 l -1.73633,2.72852 q -0.12402,0.19844 -0.44648,-0.0744 -0.32246,-0.27285 -3.19981,-2.00918 -0.17363,-0.0992 -0.0744,-0.27285 l 2.23242,-3.32383 q 0.0992,-0.17363 0.37207,-0.0744 1.48828,0.5209 2.75332,1.48828 z"
           inkscape:connector-curvature="0" />
        <path
           inkscape:connector-curvature="0"
           id="path1239"
           style="font-style:normal;font-variant:normal;font-weight:normal;font-stretch:normal;font-size:50.79999924px;font-family:'Amiri Quran';-inkscape-font-specification:'Amiri Quran';fill:#ffffff;stroke-width:0.26458335"
           d="m -482.53382,464.84795 q 1.16582,-0.69453 0.81856,0.47129 l -0.44649,1.48828 q -0.14882,0.54571 -0.96738,1.06661 l -8.90488,5.13457 q -0.79375,0.44648 -0.81856,-0.42168 l 0.0248,-0.74414 q 0.0248,-0.44649 0.79375,-1.06661 z" />
        <path
           id="path1241"
           style="font-style:normal;font-variant:normal;font-weight:normal;font-stretch:normal;font-size:50.79999924px;font-family:'Amiri Quran';-inkscape-font-specification:'Amiri Quran';fill:#ffffff;stroke-width:0.26458335"
           d="m -485.88242,489.23095 q 0.14882,2.82774 -0.64493,2.77813 -0.24804,-0.34727 -0.42168,0.0992 -1.6123,3.96875 -2.97656,5.45704 -0.71933,0.74414 -2.48047,0.32246 -1.73633,-0.42168 -4.41523,-2.25723 -2.55488,3.22461 -5.15938,3.12539 -2.60449,-0.0992 -4.06797,-2.77812 -0.0992,-0.22325 -0.24804,0 -2.75332,3.77031 -5.23379,3.77031 -0.24805,0 -0.5209,-0.4961 -1.98437,-3.91914 0.5209,-4.09277 4.51445,-0.32246 6.92051,-5.53144 0.17363,-0.32246 0.44648,-0.34727 0.29766,-0.0248 0.47129,0.17363 0.17363,0.17364 0.0992,0.42168 -0.64492,1.73633 -0.59531,1.98438 0.14882,0.84336 1.24023,1.46347 1.09141,0.59532 2.33164,0.57051 3.91914,-0.0992 6.20117,-5.20898 0.32246,-0.76895 0.76895,-0.47129 0.47129,0.27285 0.29765,0.79375 -0.76894,2.33164 -0.39687,2.53008 2.53008,1.24023 4.11758,1.41386 0.71933,0.0744 1.0666,-0.84336 0.0744,-0.19843 1.46348,-4.44003 1.14101,-0.22325 1.21543,1.56269 z"
           inkscape:connector-curvature="0" />
        <path
           inkscape:connector-curvature="0"
           id="path1243"
           style="font-style:normal;font-variant:normal;font-weight:normal;font-stretch:normal;font-size:50.79999924px;font-family:'Amiri Quran';-inkscape-font-specification:'Amiri Quran';fill:#ffffff;stroke-width:0.26458335"
           d="m -504.72576,467.08038 q 0.79375,-0.0992 1.31465,0.71933 1.14102,1.76113 -0.0248,4.78731 0.74414,0.42168 1.0666,0.5705 0.62011,0.24805 0.27285,0.91778 l -0.5209,0.99219 q -0.24805,0.49609 -0.69453,0.32246 -0.42168,-0.17364 -1.21543,-0.62012 -3.1502,4.16719 -7.16856,6.17637 -0.89296,0.47128 -1.21543,-0.0992 -0.34726,-0.66973 0.64493,-1.24024 4.11757,-2.40605 6.54843,-5.50664 -1.28984,-0.66972 -1.90996,-1.28984 -1.11621,-1.0418 -0.62011,-2.23242 1.33945,-3.1502 3.52226,-3.49746 z m -0.47129,2.95175 q -1.01699,-0.94257 -1.66191,0.12403 -0.17363,0.24804 0.22324,0.69453 0.42168,0.42168 1.90996,1.14101 0.19844,-1.38906 -0.47129,-1.95957 z" />
        <path
           id="path1245"
           style="font-style:normal;font-variant:normal;font-weight:normal;font-stretch:normal;font-size:50.79999924px;font-family:'Amiri Quran';-inkscape-font-specification:'Amiri Quran';fill:#ffffff;stroke-width:0.26458335"
           d="m -515.02795,494.63837 q -0.96738,-2.1332 -2.43086,-2.08359 -0.89297,0.12402 -1.41387,0.79375 -0.22324,0.27285 0.12403,0.71934 0.79375,1.01699 3.49746,0.96738 0.32246,0 0.22324,-0.39688 z m 2.43086,5.65547 q -1.5875,9.07852 -9.59942,12.6752 -2.08359,0.94257 -3.84472,1.04179 -1.76113,0.12403 -6.49883,-3.10058 -0.5457,-0.37207 -0.32246,-0.74414 0.22324,-0.37207 0.69453,-0.12403 4.2416,2.20762 10.61641,-1.43867 5.45703,-3.10058 7.4166,-8.58242 0,-0.17363 -0.12403,-0.24805 -3.7455,-0.0496 -5.48183,-1.04179 -1.73633,-1.017 -1.31465,-3.94395 0.0992,-0.66973 0.42168,-1.6123 1.09141,-3.1502 3.1502,-4.29121 2.05878,-1.16582 3.49746,0.81855 1.46347,2.03398 1.66191,5.45703 0.37207,-0.0248 0.79375,-0.0496 0.74414,-0.0248 0.89297,1.16582 0.14883,1.14102 -0.17363,2.30684 -0.29766,1.16582 -0.71934,1.16582 -0.37207,0.0248 -0.99219,0.0248 -0.0248,0.24805 -0.0744,0.5209 z"
           inkscape:connector-curvature="0" />
        <path
           inkscape:connector-curvature="0"
           id="path1247"
           style="font-style:normal;font-variant:normal;font-weight:normal;font-stretch:normal;font-size:50.79999924px;font-family:'Amiri Quran';-inkscape-font-specification:'Amiri Quran';fill:#ffffff;stroke-width:0.26458335"
           d="m -529.66269,476.43173 q 1.48828,-0.71933 3.57187,0.5209 2.1084,1.21543 2.97656,2.45566 0.54571,0.76895 -0.66972,0.5209 -6.35,-1.26504 -10.81485,4.39043 -0.22324,0.29766 0.12403,0.64492 3.54707,3.27422 8.35918,2.75333 0.81855,-0.0992 2.38125,-1.0418 5.92832,-3.6711 6.69726,-4.04317 0.94258,-0.44648 0.47129,0.86817 -1.14101,3.22461 -1.78594,3.52226 -4.11757,1.83555 -10.0707,6.20118 -6.59805,4.83691 -7.51582,13.17128 -0.47129,4.36563 2.15801,7.71426 4.16719,5.2834 18.85156,4.78731 3.96875,-0.12403 10.39316,-1.28985 0.54571,-0.0992 0.64493,0.19844 0.24804,0.76895 -5.50664,3.64629 -3.22461,1.6123 -5.01055,1.78594 -7.46621,0.76894 -12.25352,-0.32246 -11.16211,-2.53008 -10.79004,-13.76661 0.37207,-11.23652 6.79649,-17.5121 -3.99356,-1.5875 -5.2586,-3.34864 -0.52089,-0.71933 -0.44648,-1.6123 0.19844,-2.38125 1.26504,-4.34082 2.33164,-4.39043 5.43223,-5.90352 z" />
        <path
           inkscape:connector-curvature="0"
           id="path1249"
           style="font-style:normal;font-variant:normal;font-weight:normal;font-stretch:normal;font-size:50.79999924px;font-family:'Amiri Quran';-inkscape-font-specification:'Amiri Quran';fill:#ffffff;stroke-width:0.26458335"
           d="m -535.80601,466.5512 q 0.79375,-0.0992 1.31465,0.71933 1.14101,1.76113 -0.0248,4.78731 0.74414,0.42168 1.06661,0.5705 0.62011,0.24805 0.27285,0.91778 l -0.5209,0.99219 q -0.24805,0.49609 -0.69453,0.32246 -0.42168,-0.17364 -1.21543,-0.62012 -3.1502,4.16719 -7.16856,6.17637 -0.89297,0.47128 -1.21543,-0.0992 -0.34726,-0.66973 0.64493,-1.24024 4.11757,-2.40605 6.54843,-5.50664 -1.28984,-0.66972 -1.90996,-1.28984 -1.11621,-1.0418 -0.62012,-2.23242 1.33946,-3.1502 3.52227,-3.49746 z m -0.47129,2.95175 q -1.01699,-0.94257 -1.66191,0.12403 -0.17364,0.24804 0.22324,0.69453 0.42168,0.42168 1.90996,1.14101 0.19844,-1.38906 -0.47129,-1.95957 z" />
        <path
           sodipodi:nodetypes="cssscsssc"
           inkscape:connector-curvature="0"
           id="path950-6"
           d="m -564.93602,463.32035 c 0,0 1.6839,-2.32712 2.9582,-2.44933 1.4681,-0.14079 3.4729,0.70562 3.8821,2.12254 0.6184,2.14153 -1.3209,4.73231 -3.2541,5.84192 -4.3789,2.51336 -15.1436,-0.30986 -15.1436,-0.30986 0,0 9.1107,0.20681 12.8826,-1.9458 0.9351,-0.53367 2.1757,-1.43638 2.0398,-2.50446 -0.078,-0.61603 -0.8953,-0.96564 -1.5006,-1.10396 -0.6164,-0.14082 -1.8644,0.34895 -1.8644,0.34895 z"
           style="font-style:normal;font-variant:normal;font-weight:normal;font-stretch:normal;font-size:1.76388884px;line-height:1.25;font-family:Impact;-inkscape-font-specification:Impact;text-align:center;letter-spacing:0px;word-spacing:0px;text-anchor:middle;fill:#ffffff;fill-opacity:1;stroke:none;stroke-width:0.26458335px;stroke-linecap:butt;stroke-linejoin:miter;stroke-opacity:1" />
        <path
           sodipodi:nodetypes="cssscsssc"
           inkscape:connector-curvature="0"
           id="path950-5"
           d="m -498.01783,504.63507 c 0,0 1.6839,-2.32712 2.9582,-2.44933 1.4681,-0.14079 3.4729,0.70562 3.8821,2.12254 0.6184,2.14153 -1.3209,4.73231 -3.2541,5.84192 -4.3789,2.51336 -15.1436,-0.30986 -15.1436,-0.30986 0,0 9.1107,0.20681 12.8826,-1.9458 0.9351,-0.53367 2.1757,-1.43638 2.0398,-2.50446 -0.078,-0.61603 -0.8953,-0.96564 -1.5006,-1.10396 -0.6164,-0.14082 -1.8644,0.34895 -1.8644,0.34895 z"
           style="font-style:normal;font-variant:normal;font-weight:normal;font-stretch:normal;font-size:1.76388884px;line-height:1.25;font-family:Impact;-inkscape-font-specification:Impact;text-align:center;letter-spacing:0px;word-spacing:0px;text-anchor:middle;fill:#ffffff;fill-opacity:1;stroke:none;stroke-width:0.26458335px;stroke-linecap:butt;stroke-linejoin:miter;stroke-opacity:1" />
      </g>
      <g
         id="g1335"
         transform="translate(101.12739,-42.333335)"
         style="fill:#ffffff">
        <path
           id="path1251"
           style="font-style:normal;font-variant:normal;font-weight:normal;font-stretch:normal;font-size:50.79999924px;font-family:'Amiri Quran';-inkscape-font-specification:'Amiri Quran';fill:#ffffff;stroke-width:0.26458335"
           d="m -578.03186,465.71611 q 1.0666,-2.50528 1.33945,-0.12403 0,0 1.16582,12.47676 1.88516,16.81758 -0.44648,21.33203 -0.29766,0.57051 -0.54571,0.29766 -0.22324,-0.29766 -0.19843,-0.84336 0.0744,-4.26641 -0.62012,-9.59941 -0.0248,-0.22325 -1.09141,-9.67383 l -1.0914,-9.20254 q -0.0992,-0.94258 0.22324,-1.71152 z"
           inkscape:connector-curvature="0" />
        <path
           id="path1253"
           style="font-style:normal;font-variant:normal;font-weight:normal;font-stretch:normal;font-size:50.79999924px;font-family:'Amiri Quran';-inkscape-font-specification:'Amiri Quran';fill:#ffffff;stroke-width:0.26458335"
           d="m -590.70706,466.2122 q 0.76895,-1.86035 0.91778,-2.28203 0.14882,-0.44648 0.52089,-0.44648 0.37207,0 0.54571,0.52089 0.76894,2.25723 2.20761,3.6959 0.4961,0.4961 -0.0744,1.16582 l -1.11621,1.5627 q 0.32246,2.85254 0.64492,5.3082 1.71152,12.55117 1.16582,15.3293 -1.5875,8.03672 -5.60586,8.68164 -0.89297,0.12402 -0.76894,-3.34863 0.0248,-1.16582 0.76894,-1.24024 2.75332,-0.32246 3.84473,-2.28203 -0.14883,-3.99355 -1.26504,-12.47676 -1.09141,-8.4832 -1.31465,-10.39316 l -0.49609,-2.85254 q -0.0992,-0.59531 0.0248,-0.94258 z"
           inkscape:connector-curvature="0" />
        <path
           id="path1257"
           style="font-style:normal;font-variant:normal;font-weight:normal;font-stretch:normal;font-size:50.79999924px;font-family:'Amiri Quran';-inkscape-font-specification:'Amiri Quran';fill:#ffffff;stroke-width:0.26458335"
           d="m -603.80395,487.07294 q 0.32247,-0.12402 0.47129,0.0992 1.86035,2.72852 4.88653,5.18418 3.02617,2.43086 6.8957,2.80293 0.99219,0.0992 0.99219,1.26504 -0.0248,3.32383 -0.99219,3.32383 -3.52227,0 -7.14375,-2.53008 -0.19844,2.72852 -0.64492,3.175 -0.44649,0.44648 -0.91778,0.42168 -5.68027,-0.42168 -9.525,-5.03535 -0.17363,-0.22324 -0.37207,0.0496 -2.50527,3.81992 -4.96093,3.91914 -0.5209,0.0248 -0.74414,-0.81856 -0.62012,-2.28203 0.0496,-3.24941 0.34726,-0.49609 0.69453,-0.5209 4.7873,-0.14883 5.8539,-2.40605 2.23243,-4.51446 5.45703,-5.68028 z m -0.19843,3.74551 q -0.0744,-0.14883 -0.34727,-0.0992 -1.56269,0.39688 -2.18281,1.26504 -0.22324,0.32246 0.0496,0.57051 1.81074,1.51309 4.36562,2.30684 0.69453,0.19843 0.32246,-0.27286 -1.0914,-1.38906 -2.20761,-3.77031 z"
           inkscape:connector-curvature="0" />
        <path
           id="path1259"
           style="font-style:normal;font-variant:normal;font-weight:normal;font-stretch:normal;font-size:50.79999924px;font-family:'Amiri Quran';-inkscape-font-specification:'Amiri Quran';fill:#ffffff;stroke-width:0.26458335"
           d="m -601.44748,475.43129 q 1.16582,-0.69453 0.81855,0.47129 l -0.44648,1.48828 q -0.14883,0.54571 -0.96738,1.06661 l -8.90489,5.13457 q -0.79375,0.44648 -0.81855,-0.42168 l 0.0248,-0.74414 q 0.0248,-0.44649 0.79375,-1.06661 z"
           inkscape:connector-curvature="0" />
        <path
           id="path1261"
           style="font-style:normal;font-variant:normal;font-weight:normal;font-stretch:normal;font-size:50.79999924px;font-family:'Amiri Quran';-inkscape-font-specification:'Amiri Quran';fill:#ffffff;stroke-width:0.26458335"
           d="m -637.4639,491.53779 q 0.29766,-0.64492 0.69453,-0.76895 0.39688,-0.14883 0.69453,0.24805 0.32246,0.39687 -0.0496,1.16582 -0.34726,0.74414 -0.81855,1.5875 6.15156,2.53008 8.60722,-3.29902 0.27286,-0.64493 0.66973,-0.76895 0.39688,-0.14883 0.66973,0.22324 0.29765,0.34727 0.0992,0.96739 -0.59532,1.71152 -0.5209,2.30683 0.12402,1.14102 1.86035,1.5627 1.76113,0.39687 2.6293,-0.4961 0.89297,-0.91777 1.63711,-4.11758 0.0992,-0.42168 0.62011,-0.42168 0.54571,0 0.71934,0.42168 1.83555,4.68809 4.86172,5.01055 0.62011,0.0744 0.86816,1.46348 0.24805,1.24023 -0.0496,2.18281 -0.27285,0.94258 -0.81855,0.94258 -4.16719,0 -6.07715,-5.03535 -0.12402,-0.34727 -0.24805,0.0248 -0.89297,3.07578 -1.76113,4.19199 -0.86816,1.11621 -1.98438,1.16582 -3.59668,0.14883 -5.40742,-2.70371 -1.95957,2.35645 -4.88652,2.35645 -2.90215,0 -4.34082,-1.98438 -2.00918,1.98438 -4.19199,1.98438 -0.96739,0 -1.19063,-3.42305 -0.0744,-1.0418 1.19063,-1.16582 5.06015,-0.39687 6.52363,-3.62148 z"
           inkscape:connector-curvature="0" />
        <path
           id="path1263"
           style="font-style:normal;font-variant:normal;font-weight:normal;font-stretch:normal;font-size:50.79999924px;font-family:'Amiri Quran';-inkscape-font-specification:'Amiri Quran';fill:#ffffff;stroke-width:0.26458335"
           d="m -619.12496,505.15555 q 1.16582,-0.69453 0.81856,0.47129 l -0.44649,1.48828 q -0.14883,0.5457 -0.96738,1.0666 l -8.90488,5.13457 q -0.79375,0.44649 -0.81856,-0.42168 l 0.0248,-0.74414 q 0.0248,-0.44648 0.79375,-1.0666 z"
           inkscape:connector-curvature="0" />
        <path
           id="path1265"
           style="font-style:normal;font-variant:normal;font-weight:normal;font-stretch:normal;font-size:50.79999924px;font-family:'Amiri Quran';-inkscape-font-specification:'Amiri Quran';fill:#ffffff;stroke-width:0.26458335"
           d="m -643.98753,495.15927 q 0.84336,0.19844 0.94257,0.59531 0.0992,0.39688 0,1.19063 -0.37207,2.80293 -0.94257,2.80293 -2.72852,0.0248 -5.50664,-3.07578 -2.25723,2.75332 -6.89571,3.07578 -0.47129,0.0248 -0.64492,-0.76895 l -0.44648,-2.1084 q -0.12403,-0.52089 0.22324,-1.0914 0.32246,-0.57051 0.86816,-0.62012 5.65547,-0.42168 7.54063,-3.32383 0.27285,-0.42168 0.69453,-0.42168 0.42168,0 0.44648,0.47129 0.0496,0.47129 0.12403,0.62012 1.66191,2.28203 3.59668,2.6541 z m -4.04317,8.21035 q 0.0992,-0.17363 0.37207,-0.0992 1.81075,0.62012 3.22461,1.90996 0.19844,0.17364 0.0744,0.39688 l -2.18282,3.47266 q -0.12402,0.19843 -0.44648,-0.0744 -0.29766,-0.24804 -2.57969,-1.63711 l -1.73633,2.72852 q -0.12402,0.19844 -0.44648,-0.0744 -0.32246,-0.27285 -3.1998,-2.00918 -0.17364,-0.0992 -0.0744,-0.27285 l 2.23242,-3.32383 q 0.0992,-0.17363 0.37207,-0.0744 1.48828,0.5209 2.75332,1.48828 z"
           inkscape:connector-curvature="0" />
        <path
           id="path1267"
           style="font-style:normal;font-variant:normal;font-weight:normal;font-stretch:normal;font-size:50.79999924px;font-family:'Amiri Quran';-inkscape-font-specification:'Amiri Quran';fill:#ffffff;stroke-width:0.26458335"
           d="m -678.31722,486.52724 q 1.95957,-0.0248 6.00274,0.66973 7.61504,1.28984 14.41152,0.0248 1.48828,-0.27285 0.89297,1.01699 l -1.16582,2.6293 q -0.19844,0.42168 -0.57051,0.47129 -3.64629,0.47129 -6.20117,0.99219 0.32246,1.16582 1.33945,1.81074 2.30684,1.46348 7.16856,1.01699 0.94257,-0.0744 1.19062,1.11621 0.24805,1.19063 -0.17363,2.30684 -0.39688,1.11621 -1.01699,1.16582 -9.35137,0.5209 -10.41797,-3.52227 -0.44649,-1.73633 -0.14883,-3.47265 -5.38262,1.26504 -8.63203,3.37343 -4.04317,2.6293 -6.05235,6.74688 -2.00917,4.11758 -1.41386,7.9623 0.94258,6.05235 7.09414,9.07852 4.09277,2.00918 17.61133,0.86816 6.54843,-0.5457 6.64765,-0.5705 1.11621,-0.0744 1.11621,0.47128 0,0.54571 -1.36425,0.99219 -2.18282,0.69453 -4.16719,2.00918 -1.98438,1.33945 -2.43086,1.53789 -0.42168,0.22324 -0.86817,0.27285 -15.52773,1.76114 -21.58007,-2.82773 -5.15938,-3.91914 -4.63848,-11.48457 0.96738,-13.79141 12.7,-19.44688 -6.3748,-1.53789 -10.81484,0.69454 -0.29766,0.14882 -0.62012,0.0248 -0.29766,-0.12402 -0.29766,-0.39687 0.17364,-5.45704 6.39961,-5.53145 z"
           inkscape:connector-curvature="0" />
        <path
           id="path1269"
           style="font-style:normal;font-variant:normal;font-weight:normal;font-stretch:normal;font-size:50.79999924px;font-family:'Amiri Quran';-inkscape-font-specification:'Amiri Quran';fill:#ffffff;stroke-width:0.26458335"
           d="m -670.08207,469.72622 q 0.79375,-0.0992 1.31465,0.71933 1.14101,1.76113 -0.0248,4.78731 0.74414,0.42168 1.0666,0.5705 0.62012,0.24805 0.27286,0.91778 l -0.5209,0.99219 q -0.24805,0.49609 -0.69453,0.32246 -0.42168,-0.17364 -1.21543,-0.62012 -3.1502,4.16719 -7.16856,6.17637 -0.89297,0.47128 -1.21543,-0.0992 -0.34726,-0.66973 0.64492,-1.24024 4.11758,-2.40605 6.54844,-5.50664 -1.28984,-0.66972 -1.90996,-1.28984 -1.11621,-1.0418 -0.62012,-2.23242 1.33946,-3.1502 3.52227,-3.49746 z m -0.47129,2.95175 q -1.01699,-0.94257 -1.66191,0.12403 -0.17364,0.24804 0.22324,0.69453 0.42168,0.42168 1.90996,1.14101 0.19844,-1.38906 -0.47129,-1.95957 z"
           inkscape:connector-curvature="0" />
        <path
           inkscape:connector-curvature="0"
           id="path878"
           style="font-style:normal;font-variant:normal;font-weight:normal;font-stretch:normal;font-size:50.80000305px;line-height:1.25;font-family:Impact;-inkscape-font-specification:Impact;text-align:center;letter-spacing:0px;word-spacing:0px;text-anchor:middle;fill:#ffffff;fill-opacity:1;stroke:none;stroke-width:0.07000434"
           d="m -595.10294,469.44363 q -0.1984,0.0496 -0.6201,0.29766 -0.3968,0.22324 -1.017,0.69454 -0.6697,0.49609 -1.3146,0.96737 -0.6449,0.44649 -0.9426,0.64494 -1.3146,0.84335 -2.282,0.84335 -0.9426,0 -1.5875,-0.22325 -0.6697,-0.24804 -1.0914,-0.5705 0.5705,-0.12403 1.2898,-0.19843 0.7194,-0.0744 1.5131,-0.42169 0.6449,-0.27285 1.5627,-0.94258 0.9178,-0.69453 2.1084,-1.5875 -1.3395,-0.27285 -2.6789,-0.34726 -1.3643,-0.0992 -2.7037,-0.0992 -0.6449,0 -1.017,0.24805 -0.3969,0.22324 -0.9674,0.59531 0.3225,-1.19063 0.6201,-1.86036 0.2729,-0.69452 0.5705,-1.04178 0.2729,-0.34728 0.5457,-0.44649 0.2481,-0.0992 0.5209,-0.0992 0.8682,0 1.8852,0.0992 1.017,0.0744 2.1084,0.22323 1.0914,0.14883 2.1828,0.37207 1.0914,0.19845 2.1084,0.4465 z" />
      </g>
      <g
         id="g1343"
         transform="translate(164.04171,8.5269973)"
         style="fill:#ffffff">
        <path
           id="path1271"
           style="font-style:normal;font-variant:normal;font-weight:normal;font-stretch:normal;font-size:50.79999924px;font-family:'Amiri Quran';-inkscape-font-specification:'Amiri Quran';fill:#ffffff;stroke-width:0.26458335"
           d="m -713.03553,473.02083 q 1.0666,-2.50528 1.33945,-0.12403 0,0 1.16582,12.47676 1.88516,16.81758 -0.44648,21.33203 -0.29766,0.57051 -0.54571,0.29766 -0.22324,-0.29766 -0.19843,-0.84336 0.0744,-4.26641 -0.62012,-9.59941 -0.0248,-0.22325 -1.09141,-9.67383 l -1.0914,-9.20254 q -0.0992,-0.94258 0.22324,-1.71152 z"
           inkscape:connector-curvature="0" />
        <path
           id="path1273"
           style="font-style:normal;font-variant:normal;font-weight:normal;font-stretch:normal;font-size:50.79999924px;font-family:'Amiri Quran';-inkscape-font-specification:'Amiri Quran';fill:#ffffff;stroke-width:0.26458335"
           d="m -704.53577,506.71663 q 1.16582,-0.69453 0.81856,0.47129 l -0.44649,1.48828 q -0.14883,0.5457 -0.96738,1.0666 l -8.90488,5.13457 q -0.79375,0.44649 -0.81856,-0.42168 l 0.0248,-0.74414 q 0.0248,-0.44648 0.79375,-1.0666 z"
           inkscape:connector-curvature="0" />
        <path
           id="path1275"
           style="font-style:normal;font-variant:normal;font-weight:normal;font-stretch:normal;font-size:50.79999924px;font-family:'Amiri Quran';-inkscape-font-specification:'Amiri Quran';fill:#ffffff;stroke-width:0.26458335"
           d="m -719.26974,488.11474 c -0.0165,-0.41341 0.14883,-0.62839 0.49609,-0.64492 0.3638,-0.0165 0.57051,0.1819 0.62012,0.59531 0.26458,2.48047 0.008,4.51445 -0.76895,6.10195 -0.77721,1.5875 -2.1332,2.53835 -4.06797,2.85254 -1.37253,0.23151 -2.53008,0.10749 -3.47265,-0.37207 -0.41341,-0.21497 -0.54571,-0.75241 -0.39688,-1.6123 l 0.76895,-3.86953 c 0.16536,-0.84336 0.47128,-0.94258 0.91777,-0.29766 0.44649,0.64492 1.16582,1.02526 2.15801,1.14102 1.00872,0.0992 1.89342,-0.19018 2.6541,-0.86817 0.76067,-0.67799 1.12448,-1.68672 1.09141,-3.02617 z m -0.64493,11.02155 c 0.0827,-0.13229 0.22325,-0.16536 0.42168,-0.0992 1.33945,0.46302 2.53835,1.16582 3.59668,2.1084 0.14883,0.13229 0.17363,0.28112 0.0744,0.44649 l -2.43086,3.84472 c -0.0992,0.14883 -0.27285,0.12403 -0.5209,-0.0744 -0.23151,-0.19844 -1.41387,-0.94258 -3.54707,-2.23242 -0.13229,-0.0827 -0.15709,-0.18191 -0.0744,-0.29766 z"
           inkscape:connector-curvature="0"
           sodipodi:nodetypes="cccsccccscccccccccccc" />
        <path
           id="path1279"
           style="font-style:normal;font-variant:normal;font-weight:normal;font-stretch:normal;font-size:50.79999924px;font-family:'Amiri Quran';-inkscape-font-specification:'Amiri Quran';fill:#ffffff;stroke-width:0.26458335"
           d="m -723.68498,498.63193 c -0.23151,3.85299 -1.13274,7.06933 -2.70371,9.64902 -1.15755,1.85209 -2.91042,3.43959 -5.25859,4.7625 -2.38125,1.35599 -5.10977,2.01745 -8.18555,1.98438 -6.5319,-0.0661 -9.79785,-3.00962 -9.79785,-8.83047 0,-1.27331 0.43822,-3.12539 1.31465,-5.55625 0.72761,-2.06706 1.48002,-3.81166 2.25723,-5.23379 0.11575,-0.1819 0.27285,-0.27285 0.47129,-0.27285 0.19843,0 0.34726,0.0827 0.44648,0.24804 0.0992,0.16537 0.091,0.36381 -0.0248,0.59532 -1.53789,3.24114 -2.3151,5.46529 -2.33164,6.67246 -0.0496,4.43177 2.70372,6.70553 8.25997,6.82129 6.16809,0.13229 10.50064,-1.67846 12.99765,-5.43223 0.13229,-0.19844 0.21498,-0.42168 0.24805,-0.66973 0.39687,-2.81119 -0.17364,-5.81256 -1.71153,-9.0041 -0.1819,-0.38034 -0.19017,-0.75241 -0.0248,-1.11621 l 1.53789,-3.27422 c 0.16537,-0.34727 0.34727,-0.40514 0.5457,-0.17363 1.50482,2.00091 2.15801,4.9444 1.95957,8.83047 z m -13.69218,-3.72071 c 0.0827,-0.13228 0.22324,-0.16535 0.42168,-0.0992 1.33945,0.46302 2.53835,1.16582 3.59668,2.10839 0.14883,0.1323 0.17363,0.28113 0.0744,0.44649 l -2.43086,3.84473 c -0.0992,0.14883 -0.27285,0.12403 -0.5209,-0.0744 -0.23151,-0.19844 -1.41386,-0.94258 -3.54707,-2.23242 -0.13229,-0.0827 -0.15709,-0.1819 -0.0744,-0.29766 z"
           inkscape:connector-curvature="0"
           sodipodi:nodetypes="ccccsccsccccccccccccccccccccc" />
        <path
           id="path1281"
           style="font-style:normal;font-variant:normal;font-weight:normal;font-stretch:normal;font-size:50.79999924px;font-family:'Amiri Quran';-inkscape-font-specification:'Amiri Quran';fill:#ffffff;stroke-width:0.26458335"
           d="m -735.07034,482.42621 q 0.79375,-0.0992 1.31465,0.71933 1.14102,1.76113 -0.0248,4.78731 0.74414,0.42168 1.0666,0.5705 0.62012,0.24805 0.27285,0.91778 l -0.5209,0.99219 q -0.24805,0.49609 -0.69453,0.32246 -0.42168,-0.17364 -1.21543,-0.62012 -3.15019,4.16719 -7.16855,6.17637 -0.89297,0.47128 -1.21543,-0.0992 -0.34727,-0.66973 0.64492,-1.24024 4.11758,-2.40605 6.54844,-5.50664 -1.28985,-0.66972 -1.90997,-1.28984 -1.11621,-1.0418 -0.62011,-2.23242 1.33945,-3.1502 3.52226,-3.49746 z m -0.47129,2.95175 q -1.01699,-0.94257 -1.66191,0.12403 -0.17363,0.24804 0.22324,0.69453 0.42168,0.42168 1.90996,1.14101 0.19844,-1.38906 -0.47129,-1.95957 z"
           inkscape:connector-curvature="0" />
        <path
           inkscape:connector-curvature="0"
           id="path878-2"
           style="font-style:normal;font-variant:normal;font-weight:normal;font-stretch:normal;font-size:50.80000305px;line-height:1.25;font-family:Impact;-inkscape-font-specification:Impact;text-align:center;letter-spacing:0px;word-spacing:0px;text-anchor:middle;fill:#ffffff;fill-opacity:1;stroke:none;stroke-width:0.07000434"
           d="m -719.82782,481.52702 q -0.1984,0.0496 -0.6201,0.29766 -0.3969,0.22324 -1.017,0.69453 -0.6697,0.4961 -1.3146,0.96738 -0.645,0.44649 -0.9426,0.64493 -1.3147,0.84336 -2.282,0.84336 -0.9426,0 -1.5875,-0.22325 -0.6698,-0.24804 -1.0914,-0.5705 0.5705,-0.12403 1.2898,-0.19844 0.7193,-0.0744 1.5131,-0.42168 0.6449,-0.27285 1.5627,-0.94258 0.9178,-0.69453 2.1084,-1.5875 -1.3395,-0.27285 -2.6789,-0.34727 -1.3643,-0.0992 -2.7037,-0.0992 -0.645,0 -1.017,0.24804 -0.3969,0.22325 -0.9674,0.59532 0.3224,-1.19063 0.6201,-1.86036 0.2729,-0.69453 0.5705,-1.04179 0.2729,-0.34727 0.5457,-0.44649 0.2481,-0.0992 0.5209,-0.0992 0.8682,0 1.8852,0.0992 1.017,0.0744 2.1084,0.22324 1.0914,0.14883 2.1828,0.37207 1.0914,0.19844 2.1084,0.44649 z" />
      </g>
      <g
         id="g1351"
         transform="translate(138.8413,-31.693077)"
         style="fill:#ffffff">
        <path
           id="path1283"
           style="font-style:normal;font-variant:normal;font-weight:normal;font-stretch:normal;font-size:50.79999924px;font-family:'Amiri Quran';-inkscape-font-specification:'Amiri Quran';fill:#ffffff;stroke-width:0.31170437"
           d="m -753.72463,459.64828 q 1.25657,-2.95145 1.57801,-0.14611 0,0 1.37345,14.69881 2.22088,19.81271 -0.52601,25.13116 -0.35066,0.67211 -0.64289,0.35067 -0.263,-0.35067 -0.23378,-0.99356 0.0877,-5.02624 -0.73055,-11.30902 -0.0292,-0.26301 -1.28578,-11.39669 l -1.28579,-10.84147 q -0.11686,-1.11045 0.26301,-2.01633 z"
           inkscape:connector-curvature="0" />
        <path
           id="path1285"
           style="font-style:normal;font-variant:normal;font-weight:normal;font-stretch:normal;font-size:50.79999924px;font-family:'Amiri Quran';-inkscape-font-specification:'Amiri Quran';fill:#ffffff;stroke-width:0.31170437"
           d="m -764.51715,471.19108 3.03912,14.05592 q 0.64288,3.15601 0.75977,4.38335 0.11687,1.22732 -0.0584,2.893 -0.70133,7.15946 -4.14956,7.15946 -1.92867,-0.0292 -3.06833,-2.51311 -1.13968,-2.4839 -0.17534,-3.59435 0.93511,-1.11045 2.33778,-0.75978 1.40267,0.32145 2.42545,-0.11686 -0.0584,-1.46112 -1.51956,-7.5978 -1.46112,-6.13667 -2.19167,-10.19858 -0.26301,-1.578 1.60722,-4.29566 0.67212,-0.96435 0.99356,0.58444 z"
           inkscape:connector-curvature="0" />
        <path
           id="path1287"
           style="font-style:normal;font-variant:normal;font-weight:normal;font-stretch:normal;font-size:50.79999924px;font-family:'Amiri Quran';-inkscape-font-specification:'Amiri Quran';fill:#ffffff;stroke-width:0.31170437"
           d="m -765.48148,492.87402 q 1.08123,0.14611 1.43189,1.841 0.35067,1.66567 0.0292,3.30212 -0.32146,1.63644 -0.87667,1.66567 -2.54234,0.0584 -4.26646,-1.49034 -1.69489,-1.54878 -3.27289,-4.5879 -1.75335,4.20801 -3.18523,5.05546 -1.46112,0.84744 -3.7989,0.96433 -1.34423,0.0584 -2.07479,-1.54878 -0.75977,-1.60723 -0.29221,-3.12678 0.46755,-1.54878 2.30856,-1.54878 4.32489,0.0292 5.66912,-2.98068 0,-0.0292 -0.46756,-2.65922 l -1.28579,-6.77957 q -0.81822,-4.17879 -1.05199,-5.66913 -0.20456,-1.51955 0.23377,-2.13322 l 1.78257,-2.74689 q 0.58444,-0.87667 0.96433,0.73055 0.14611,0.73056 0.70134,4.35412 1.841,12.09802 3.36056,14.58192 1.51956,2.45468 4.09112,2.77612 z"
           inkscape:connector-curvature="0" />
        <path
           id="path1289"
           style="font-style:normal;font-variant:normal;font-weight:normal;font-stretch:normal;font-size:50.79999924px;font-family:'Amiri Quran';-inkscape-font-specification:'Amiri Quran';fill:#ffffff;stroke-width:0.26458335"
           d="m -773.18688,459.00393 q 0.0992,-0.89297 0.62011,-0.86816 0.62012,0.0496 0.54571,0.86816 -0.14883,2.18281 -0.81856,3.64629 -0.76894,1.73633 -2.25722,1.83555 -0.94258,0.0744 -1.81075,-0.96738 -0.5705,1.01699 -1.51308,1.51308 -1.01699,0.5457 -1.98438,0.12402 -2.38125,-0.94257 -0.5457,-5.70507 0.29766,-0.74414 0.86816,-0.4961 0.44649,0.19844 0.27286,0.91778 -0.64493,2.35644 0.59531,2.53007 1.53789,0.19844 2.40605,-3.27421 0.17364,-0.66973 0.64492,-0.57051 0.5209,0.12402 0.42168,0.59531 -0.34726,2.08359 0.96739,2.1084 1.33945,0.0248 1.5875,-2.25723 z"
           inkscape:connector-curvature="0" />
        <path
           id="path1291"
           style="font-style:normal;font-variant:normal;font-weight:normal;font-stretch:normal;font-size:50.79999924px;font-family:'Amiri Quran';-inkscape-font-specification:'Amiri Quran';fill:#ffffff;stroke-width:0.26458335"
           d="m -783.26583,467.98162 q 0.24804,-0.79375 0.94257,0.0496 4.83692,5.333 3.29903,13.59296 -0.0992,0.4961 -0.4961,0.54571 -0.47129,0.0744 -0.5209,-0.5209 -0.66972,-5.2834 -3.94394,-9.30176 -0.42168,-0.49609 -0.24805,-1.11621 z"
           inkscape:connector-curvature="0" />
        <path
           id="path1293"
           style="font-style:normal;font-variant:normal;font-weight:normal;font-stretch:normal;font-size:50.79999924px;font-family:'Amiri Quran';-inkscape-font-specification:'Amiri Quran';fill:#ffffff;stroke-width:0.31170437"
           d="m -779.50819,493.40002 q 0.81822,0.0292 1.16888,1.578 0.37989,1.51956 0.0584,3.06834 -0.32145,1.54877 -1.16889,1.60722 -5.17234,0.52601 -6.34124,-5.66911 -0.0584,-0.23378 -0.0584,-0.35067 -1.95789,2.92223 -3.00989,3.12678 -5.31846,0.96434 -7.97768,-0.96433 -0.96435,-0.70134 -0.46757,-2.2209 1.11045,-3.47745 4.03268,-5.93212 2.95145,-2.45468 6.39969,-3.2729 l -0.0877,-2.95145 q -0.0292,-0.49678 0.99355,-2.60078 1.05201,-2.10401 1.22734,-2.39623 0.67212,-0.99355 0.73055,0.73056 0.0292,0.73055 0.11687,4.38334 0.0877,3.65278 0.46756,6.9549 0.37989,3.30212 1.89944,4.35412 0.75978,0.52601 2.01635,0.55523 z m -7.21791,-6.16591 q -1.19811,0.23378 -3.36056,1.315 -2.13322,1.05201 -2.77612,2.2209 0.96434,0.70133 4.23723,0.58444 1.51956,-0.0584 2.2209,-0.84744 -0.11687,-0.67211 -0.32145,-3.2729 z"
           inkscape:connector-curvature="0" />
        <path
           id="path1273-8"
           style="font-style:normal;font-variant:normal;font-weight:normal;font-stretch:normal;font-size:50.79999924px;line-height:1.25;font-family:'Amiri Quran';-inkscape-font-specification:'Amiri Quran';text-align:center;letter-spacing:0px;word-spacing:0px;text-anchor:middle;fill:#ffffff;fill-opacity:1;stroke:none;stroke-width:0.26458335"
           d="m -789.66603,499.15581 q 1.1658,-0.69453 0.8185,0.47129 l -0.4465,1.48828 q -0.1488,0.5457 -0.9674,1.0666 l -8.9048,5.13457 q -0.7938,0.44649 -0.8186,-0.42168 l 0.025,-0.74414 q 0.025,-0.44648 0.7938,-1.0666 z"
           inkscape:connector-curvature="0" />
      </g>
      <path
         style="fill:#ffffff;stroke:none;stroke-width:0.26458335px;stroke-linecap:butt;stroke-linejoin:miter;stroke-opacity:1"
         d="m -520.53616,427.30916 c 0,0 1.68389,-2.32712 2.95826,-2.44933 1.46807,-0.14079 3.47291,0.70562 3.88206,2.12254 0.61839,2.14153 -1.32085,4.73231 -3.25407,5.84192 -4.37889,2.51336 -15.14362,-0.30986 -15.14362,-0.30986 0,0 9.1107,0.20681 12.88257,-1.9458 0.93512,-0.53367 2.17569,-1.43638 2.03983,-2.50446 -0.0784,-0.61603 -0.89525,-0.96564 -1.50064,-1.10396 -0.61637,-0.14082 -1.86439,0.34895 -1.86439,0.34895 z"
         id="path948"
         inkscape:connector-curvature="0"
         sodipodi:nodetypes="cssscsssc" />
      <path
         sodipodi:nodetypes="cssscsssc"
         inkscape:connector-curvature="0"
         id="path950"
         d="m -546.99451,427.30916 c 0,0 1.68389,-2.32712 2.95826,-2.44933 1.46807,-0.14079 3.47291,0.70562 3.88206,2.12254 0.61839,2.14153 -1.32085,4.73231 -3.25407,5.84192 -4.37889,2.51336 -15.14362,-0.30986 -15.14362,-0.30986 0,0 9.1107,0.20681 12.88257,-1.9458 0.93512,-0.53367 2.17569,-1.43638 2.03983,-2.50446 -0.0784,-0.61603 -0.89525,-0.96564 -1.50064,-1.10396 -0.61637,-0.14082 -1.86439,0.34895 -1.86439,0.34895 z"
         style="fill:#ffffff;stroke:none;stroke-width:0.26458335px;stroke-linecap:butt;stroke-linejoin:miter;stroke-opacity:1" />
      <path
         sodipodi:nodetypes="cssscsssc"
         inkscape:connector-curvature="0"
         id="path950-9"
         d="m -483.17945,516.99887 c 0,0 1.6839,-2.32712 2.9582,-2.44933 1.4681,-0.14079 3.4729,0.70562 3.8821,2.12254 0.6184,2.14153 -1.3209,4.73231 -3.2541,5.84192 -4.3789,2.51336 -15.1436,-0.30986 -15.1436,-0.30986 0,0 9.1107,0.20681 12.8826,-1.9458 0.9351,-0.53367 2.1757,-1.43638 2.0398,-2.50446 -0.078,-0.61603 -0.8953,-0.96564 -1.5006,-1.10396 -0.6164,-0.14082 -1.8644,0.34895 -1.8644,0.34895 z"
         style="font-style:normal;font-variant:normal;font-weight:normal;font-stretch:normal;font-size:1.76388884px;line-height:1.25;font-family:Impact;-inkscape-font-specification:Impact;text-align:center;letter-spacing:0px;word-spacing:0px;text-anchor:middle;fill:#ffffff;fill-opacity:1;stroke:none;stroke-width:0.26458335px;stroke-linecap:butt;stroke-linejoin:miter;stroke-opacity:1" />
      <path
         sodipodi:nodetypes="cssscsssc"
         inkscape:connector-curvature="0"
         id="path950-66"
         d="m -598.87338,513.73266 c 0,0 1.6839,-2.32712 2.9582,-2.44933 1.4681,-0.14079 3.4729,0.70562 3.8821,2.12254 0.6184,2.14153 -1.3209,4.73231 -3.2541,5.84192 -4.3789,2.51336 -15.1436,-0.30986 -15.1436,-0.30986 0,0 9.1107,0.20681 12.8826,-1.9458 0.9351,-0.53367 2.1757,-1.43638 2.0398,-2.50446 -0.078,-0.61603 -0.8953,-0.96564 -1.5006,-1.10396 -0.6164,-0.14082 -1.8644,0.34895 -1.8644,0.34895 z"
         style="font-style:normal;font-variant:normal;font-weight:normal;font-stretch:normal;font-size:1.76388884px;line-height:1.25;font-family:Impact;-inkscape-font-specification:Impact;text-align:center;letter-spacing:0px;word-spacing:0px;text-anchor:middle;fill:#ffffff;fill-opacity:1;stroke:none;stroke-width:0.26458335px;stroke-linecap:butt;stroke-linejoin:miter;stroke-opacity:1" />
      <path
         sodipodi:nodetypes="cssscsssc"
         inkscape:connector-curvature="0"
         id="path950-39"
         d="m -641.51011,517.43682 c 0,0 1.6839,-2.32712 2.9582,-2.44933 1.4681,-0.14079 3.4729,0.70562 3.8821,2.12254 0.6184,2.14153 -1.3209,4.73231 -3.2541,5.84192 -4.3789,2.51336 -15.1436,-0.30986 -15.1436,-0.30986 0,0 9.1107,0.20681 12.8826,-1.9458 0.9351,-0.53367 2.1757,-1.43638 2.0398,-2.50446 -0.078,-0.61603 -0.8953,-0.96564 -1.5006,-1.10396 -0.6164,-0.14082 -1.8644,0.34895 -1.8644,0.34895 z"
         style="font-style:normal;font-variant:normal;font-weight:normal;font-stretch:normal;font-size:1.76388884px;line-height:1.25;font-family:Impact;-inkscape-font-specification:Impact;text-align:center;letter-spacing:0px;word-spacing:0px;text-anchor:middle;fill:#ffffff;fill-opacity:1;stroke:none;stroke-width:0.26458335px;stroke-linecap:butt;stroke-linejoin:miter;stroke-opacity:1" />
      <path
         sodipodi:nodetypes="cssscsssc"
         inkscape:connector-curvature="0"
         id="path950-7"
         d="m -641.74646,476.99494 c 0,0 1.6839,-2.32712 2.9582,-2.44933 1.4681,-0.14079 3.4729,0.70562 3.8821,2.12254 0.6184,2.14153 -1.3209,4.73231 -3.2541,5.84192 -4.3789,2.51336 -15.1436,-0.30986 -15.1436,-0.30986 0,0 9.1107,0.20681 12.8826,-1.9458 0.9351,-0.53367 2.1757,-1.43638 2.0398,-2.50446 -0.078,-0.61603 -0.8953,-0.96564 -1.5006,-1.10396 -0.6164,-0.14082 -1.8644,0.34895 -1.8644,0.34895 z"
         style="font-style:normal;font-variant:normal;font-weight:normal;font-stretch:normal;font-size:1.76388884px;line-height:1.25;font-family:Impact;-inkscape-font-specification:Impact;text-align:center;letter-spacing:0px;word-spacing:0px;text-anchor:middle;fill:#ffffff;fill-opacity:1;stroke:none;stroke-width:0.26458335px;stroke-linecap:butt;stroke-linejoin:miter;stroke-opacity:1" />
      <path
         sodipodi:nodetypes="cssscsssc"
         inkscape:connector-curvature="0"
         id="path950-2"
         d="m -660.16947,428.90657 c 0,0 1.6839,-2.32712 2.9582,-2.44933 1.4681,-0.14079 3.4729,0.70562 3.8821,2.12254 0.6184,2.14153 -1.3209,4.73231 -3.2541,5.84192 -4.3789,2.51336 -15.1436,-0.30986 -15.1436,-0.30986 0,0 9.1107,0.20681 12.8826,-1.9458 0.9351,-0.53367 2.1757,-1.43638 2.0398,-2.50446 -0.078,-0.61603 -0.8953,-0.96564 -1.5006,-1.10396 -0.6164,-0.14082 -1.8644,0.34895 -1.8644,0.34895 z"
         style="font-style:normal;font-variant:normal;font-weight:normal;font-stretch:normal;font-size:1.76388884px;line-height:1.25;font-family:Impact;-inkscape-font-specification:Impact;text-align:center;letter-spacing:0px;word-spacing:0px;text-anchor:middle;fill:#ffffff;fill-opacity:1;stroke:none;stroke-width:0.26458335px;stroke-linecap:butt;stroke-linejoin:miter;stroke-opacity:1" />
      <path
         style="font-style:normal;font-variant:normal;font-weight:normal;font-stretch:normal;font-size:1.76388884px;line-height:1.25;font-family:Impact;-inkscape-font-specification:Impact;text-align:center;letter-spacing:0px;word-spacing:0px;text-anchor:middle;fill:#ffffff;fill-opacity:1;stroke:none;stroke-width:0.26458335px;stroke-linecap:butt;stroke-linejoin:miter;stroke-opacity:1"
         d="m -665.46114,444.78158 c 0,0 1.6839,-2.32712 2.9582,-2.44933 1.4681,-0.14079 3.4729,0.70562 3.8821,2.12254 0.6184,2.14153 -1.3209,4.73231 -3.2541,5.84192 -4.3789,2.51336 -15.1436,-0.30986 -15.1436,-0.30986 0,0 9.1107,0.20681 12.8826,-1.9458 0.9351,-0.53367 2.1757,-1.43638 2.0398,-2.50446 -0.078,-0.61603 -0.8953,-0.96564 -1.5006,-1.10396 -0.6164,-0.14082 -1.8644,0.34895 -1.8644,0.34895 z"
         id="path1018"
         inkscape:connector-curvature="0"
         sodipodi:nodetypes="cssscsssc" />
      <path
         sodipodi:nodetypes="cssscsssc"
         inkscape:connector-curvature="0"
         id="path1020"
         d="m -670.44917,471.00955 c 0,0 1.17339,2.62186 0.64208,3.78654 -0.61212,1.34181 -2.34754,2.65481 -3.77922,2.30073 -2.16382,-0.53522 -3.43786,-3.51009 -3.43221,-5.73909 0.0128,-5.04892 7.84015,-12.95982 7.84015,-12.95982 0,0 -4.73445,7.7867 -4.75619,12.12956 -0.005,1.07666 0.15609,2.6024 1.14903,3.01875 0.5725,0.24047 1.28392,-0.29253 1.70636,-0.74758 0.43015,-0.46341 0.63,-1.78909 0.63,-1.78909 z"
         style="font-style:normal;font-variant:normal;font-weight:normal;font-stretch:normal;font-size:1.76388884px;line-height:1.25;font-family:Impact;-inkscape-font-specification:Impact;text-align:center;letter-spacing:0px;word-spacing:0px;text-anchor:middle;fill:#ffffff;fill-opacity:1;stroke:none;stroke-width:0.26458335px;stroke-linecap:butt;stroke-linejoin:miter;stroke-opacity:1" />
      <path
         style="font-style:normal;font-variant:normal;font-weight:normal;font-stretch:normal;font-size:1.76388884px;line-height:1.25;font-family:Impact;-inkscape-font-specification:Impact;text-align:center;letter-spacing:0px;word-spacing:0px;text-anchor:middle;fill:#ffffff;fill-opacity:1;stroke:none;stroke-width:0.26458335px;stroke-linecap:butt;stroke-linejoin:miter;stroke-opacity:1"
         d="m -597.42413,438.73036 c 0,0 1.17339,2.62186 0.64208,3.78654 -0.61212,1.34181 -2.34754,2.65481 -3.77922,2.30073 -2.16382,-0.53522 -3.43786,-3.51009 -3.43221,-5.73909 0.0128,-5.04892 7.84015,-12.95982 7.84015,-12.95982 0,0 -4.73445,7.7867 -4.75619,12.12956 -0.005,1.07666 0.15609,2.6024 1.14903,3.01875 0.5725,0.24047 1.28392,-0.29253 1.70636,-0.74758 0.43015,-0.46341 0.63,-1.78909 0.63,-1.78909 z"
         id="path1022"
         inkscape:connector-curvature="0"
         sodipodi:nodetypes="cssscsssc" />
    </g>
    <g
       id="g899"
       transform="translate(2.1449e-7,11.906243)">
      <path
         sodipodi:nodetypes="cscscc"
         inkscape:connector-curvature="0"
         id="path879"
         d="m -628.272,624.70541 h -206.375 c -11.303,0 -31.75,7.9375 -31.75,7.9375 0,0 20.447,7.9375 31.75,7.9375 h 206.375 z"
         style="fill:#ffffff;fill-opacity:1;stroke:none;stroke-width:0.08989087px;stroke-linecap:butt;stroke-linejoin:miter;stroke-opacity:1" />
      <path
         style="fill:#ffffff;fill-opacity:1;stroke:none;stroke-width:0.03178122px;stroke-linecap:butt;stroke-linejoin:miter;stroke-opacity:1"
         d="m -612.397,638.59604 h 47.625 v -11.90625 h -47.625 z"
         id="path881"
         inkscape:connector-curvature="0"
         sodipodi:nodetypes="ccccc" />
      <path
         sodipodi:nodetypes="sssssssss"
         inkscape:connector-curvature="0"
         id="path883"
         d="m -563.1845,640.58041 h 12.7 c 0.74835,0 1.5875,-0.83915 1.5875,-1.5875 v -12.7 c 0,-0.74835 -0.83915,-1.5875 -1.5875,-1.5875 h -12.7 c -0.74835,0 -1.5875,0.83915 -1.5875,1.5875 v 12.7 c 0,0.74835 0.83915,1.5875 1.5875,1.5875 z"
         style="fill:#ffffff;fill-opacity:1;stroke:none;stroke-width:0.02118748px;stroke-linecap:butt;stroke-linejoin:miter;stroke-opacity:1" />
      <path
         style="fill:#ffffff;fill-opacity:1;stroke:none;stroke-width:0.03669779px;stroke-linecap:butt;stroke-linejoin:miter;stroke-opacity:1"
         d="m -628.272,656.45541 h 15.875 v -47.625 h -15.875 z"
         id="path885"
         inkscape:connector-curvature="0"
         sodipodi:nodetypes="ccccc" />
    </g>
  </g>
</svg>
