<?xml version="1.0" encoding="UTF-8" standalone="no"?>
<!-- Created with Inkscape (http://www.inkscape.org/) -->

<svg
   xmlns:dc="http://purl.org/dc/elements/1.1/"
   xmlns:cc="http://creativecommons.org/ns#"
   xmlns:rdf="http://www.w3.org/1999/02/22-rdf-syntax-ns#"
   xmlns:svg="http://www.w3.org/2000/svg"
   xmlns="http://www.w3.org/2000/svg"
   xmlns:sodipodi="http://sodipodi.sourceforge.net/DTD/sodipodi-0.dtd"
   xmlns:inkscape="http://www.inkscape.org/namespaces/inkscape"
   width="3636"
   height="1800"
   viewBox="0 0 962.025 476.25001"
   version="1.1"
   id="svg8"
   inkscape:export-filename="C:\Users\厂永刄先生\Documents\GXI3CW2\,pjóŭ\Seyçhelles.png"
   inkscape:export-xdpi="96"
   inkscape:export-ydpi="96"
   inkscape:version="0.92.4 (5da689c313, 2019-01-14)"
   sodipodi:docname="1977.svg">
  <defs
     id="defs2" />
  <sodipodi:namedview
     id="base"
     pagecolor="#ffffff"
     bordercolor="#666666"
     borderopacity="1.0"
     inkscape:pageopacity="0.0"
     inkscape:pageshadow="2"
     inkscape:zoom="0.17347065"
     inkscape:cx="1717.6973"
     inkscape:cy="558.5859"
     inkscape:document-units="px"
     inkscape:current-layer="layer1"
     showgrid="false"
     units="px"
     fit-margin-top="0"
     fit-margin-left="0"
     fit-margin-right="0"
     fit-margin-bottom="0"
     inkscape:showpageshadow="false"
     inkscape:snap-intersection-paths="true"
     inkscape:object-paths="false"
     inkscape:pagecheckerboard="true"
     inkscape:snap-smooth-nodes="true"
     inkscape:window-width="1920"
     inkscape:window-height="1051"
     inkscape:window-x="-9"
     inkscape:window-y="-9"
     inkscape:window-maximized="1"
     inkscape:object-nodes="true"
     inkscape:snap-nodes="true" />
  <metadata
     id="metadata5">
    <rdf:RDF>
      <cc:Work
         rdf:about="">
        <dc:format>image/svg+xml</dc:format>
        <dc:type
           rdf:resource="http://purl.org/dc/dcmitype/StillImage" />
        <dc:title />
      </cc:Work>
    </rdf:RDF>
  </metadata>
  <g
     inkscape:label="レイヤー 1"
     inkscape:groupmode="layer"
     id="layer1"
     transform="translate(102.80952,-299.26786)">
    <path
       sodipodi:nodetypes="ccccc"
       inkscape:connector-curvature="0"
       id="path1079"
       d="m -102.80952,299.26786 h 9.525 v 476.25 h -9.525 z"
       style="fill:#ffffff;fill-opacity:1;stroke:none;stroke-width:0.51166773px;stroke-linecap:butt;stroke-linejoin:miter;stroke-opacity:1" />
    <path
       sodipodi:nodetypes="czzzzzcczzzzzcc"
       inkscape:connector-curvature="0"
       id="path838"
       d="m 859.21551,537.39286 c -54.54525,0 -104.20475,39.6875 -158.75,39.6875 -54.54525,0 -104.20474,-39.6875 -158.75,-39.6875 -54.54526,0 -104.20478,39.6875 -158.75004,39.6875 -54.54526,0 -104.20475,-39.6875 -158.75,-39.6875 -54.54525,0 -104.20474,39.6875 -158.74999,39.6875 -54.54525,0 -104.204748,-39.6875 -158.75,-39.6875 l 2e-5,79.375 c 54.545252,0 104.20475,39.6875 158.75,39.6875 54.54525,0 104.20474,-39.6875 158.74999,-39.6875 54.54525,0 104.20474,39.6875 158.75,39.6875 54.54526,0 104.20478,-39.6875 158.75004,-39.6875 54.54526,0 104.20475,39.6875 158.75,39.6875 54.54525,0 104.20475,-39.6875 158.75,-39.6875 z"
       style="fill:#ffffff;fill-opacity:1;stroke:none;stroke-width:1.80901849px;stroke-linecap:butt;stroke-linejoin:miter;stroke-opacity:1" />
    <path
       style="fill:#109031;fill-opacity:1;stroke:none;stroke-width:1.80901849px;stroke-linecap:butt;stroke-linejoin:miter;stroke-opacity:1"
       d="m -93.28452,775.51786 2e-5,-158.75 c 54.545252,0 104.20475,39.6875 158.75,39.6875 54.54525,0 104.20474,-39.6875 158.74999,-39.6875 54.54525,0 104.20474,39.6875 158.75,39.6875 54.54526,0 104.20478,-39.6875 158.75004,-39.6875 54.54526,0 104.20475,39.6875 158.75,39.6875 54.54525,0 104.20475,-39.6875 158.75,-39.6875 l -2e-5,158.75 z"
       id="path840"
       inkscape:connector-curvature="0"
       sodipodi:nodetypes="cczzzzzccc" />
    <path
       style="fill:#d60d37;fill-opacity:1;stroke:none;stroke-width:1.80901849px;stroke-linecap:butt;stroke-linejoin:miter;stroke-opacity:1"
       d="m 859.21551,299.26786 v 238.125 c -54.54525,0 -104.20475,39.6875 -158.75,39.6875 -54.54525,0 -104.20474,-39.6875 -158.75,-39.6875 -54.54526,0 -104.20478,39.6875 -158.75004,39.6875 -54.54526,0 -104.20475,-39.6875 -158.75,-39.6875 -54.54525,0 -104.20474,39.6875 -158.74999,39.6875 -54.54525,0 -104.204748,-39.6875 -158.75,-39.6875 v -238.125 z"
       id="path842"
       inkscape:connector-curvature="0"
       sodipodi:nodetypes="cczzzzzccc" />
  </g>
</svg>
