<?xml version="1.0" encoding="UTF-8" standalone="no"?>
<!-- Created with Inkscape (http://www.inkscape.org/) -->

<svg
   width="1799.9999"
   height="1800"
   viewBox="0 0 476.24997 476.25001"
   version="1.1"
   id="svg8"
   inkscape:export-filename="C:\Users\厂永刄先生\Documents\GXI3CW2\JáÈŭcèŭ\Èŭmen\Í\意軍.png"
   inkscape:export-xdpi="96"
   inkscape:export-ydpi="96"
   inkscape:version="1.3 (0e150ed6c4, 2023-07-21)"
   sodipodi:docname="xs_1993_roundel.svg"
   xmlns:inkscape="http://www.inkscape.org/namespaces/inkscape"
   xmlns:sodipodi="http://sodipodi.sourceforge.net/DTD/sodipodi-0.dtd"
   xmlns="http://www.w3.org/2000/svg"
   xmlns:svg="http://www.w3.org/2000/svg"
   xmlns:rdf="http://www.w3.org/1999/02/22-rdf-syntax-ns#"
   xmlns:cc="http://creativecommons.org/ns#"
   xmlns:dc="http://purl.org/dc/elements/1.1/">
  <defs
     id="defs2" />
  <sodipodi:namedview
     id="base"
     pagecolor="#ffffff"
     bordercolor="#666666"
     borderopacity="1.0"
     inkscape:pageopacity="0.0"
     inkscape:pageshadow="2"
     inkscape:zoom="0.24532454"
     inkscape:cx="474.88115"
     inkscape:cy="1310.5089"
     inkscape:document-units="px"
     inkscape:current-layer="layer1"
     showgrid="false"
     units="px"
     fit-margin-top="0"
     fit-margin-left="0"
     fit-margin-right="0"
     fit-margin-bottom="0"
     inkscape:showpageshadow="false"
     inkscape:snap-intersection-paths="true"
     inkscape:object-paths="false"
     inkscape:pagecheckerboard="true"
     inkscape:snap-smooth-nodes="true"
     inkscape:window-width="1920"
     inkscape:window-height="1009"
     inkscape:window-x="-8"
     inkscape:window-y="-8"
     inkscape:window-maximized="1"
     inkscape:object-nodes="true"
     inkscape:snap-nodes="true"
     inkscape:deskcolor="#505050" />
  <metadata
     id="metadata5">
    <rdf:RDF>
      <cc:Work
         rdf:about="">
        <dc:format>image/svg+xml</dc:format>
        <dc:type
           rdf:resource="http://purl.org/dc/dcmitype/StillImage" />
      </cc:Work>
    </rdf:RDF>
  </metadata>
  <g
     inkscape:label="レイヤー 1"
     inkscape:groupmode="layer"
     id="layer1"
     transform="translate(-135.31547,-299.26788)">
    <path
       style="opacity:1;fill:#ffffff;fill-opacity:1;fill-rule:evenodd;stroke:none;stroke-width:0.309979;stroke-linecap:square;stroke-linejoin:round;stroke-miterlimit:4;stroke-dasharray:none;stroke-dashoffset:0;stroke-opacity:1"
       d="m 611.56544,537.39288 c 0,131.51281 -106.6122,238.125 -238.125,238.125 -131.51277,0 -238.12497,-106.61219 -238.12497,-238.125 0,-131.5128 106.61221,-238.125 238.12497,-238.125 131.5128,0 238.125,106.6122 238.125,238.125 z"
       id="path5"
       inkscape:connector-curvature="0"
       sodipodi:nodetypes="zzzzz" />
    <path
       style="opacity:1;fill:#00a800;fill-opacity:1;fill-rule:evenodd;stroke:none;stroke-width:31.6342;stroke-linecap:square;stroke-linejoin:round;stroke-miterlimit:4;stroke-dasharray:none;stroke-dashoffset:0;stroke-opacity:1"
       d="m 492.50296,537.39288 c 0,65.7564 -53.3061,119.0625 -119.0625,119.0625 -65.7564,0 -119.0625,-53.3061 -119.0625,-119.0625 0,-65.7564 53.3061,-119.0625 119.0625,-119.0625 65.7564,0 119.0625,53.3061 119.0625,119.0625 z"
       id="path860"
       inkscape:connector-curvature="0"
       sodipodi:nodetypes="zzzzz" />
    <path
       style="font-size:70.5556px;line-height:1;font-family:Alef;-inkscape-font-specification:Alef;text-align:center;letter-spacing:0px;word-spacing:-13.2292px;text-orientation:sideways;text-anchor:middle;stroke:#000000;stroke-width:4.7625;stroke-linecap:round;stroke-linejoin:round;stroke-miterlimit:2.4"
       d="m 264.05575,396.92573 q 6.92681,7.67056 8.40627,16.45393 0.55633,3.44324 0.22689,7.03649 -1.08546,9.33566 -5.12529,12.98378 -2.71027,2.44748 -5.36677,3.36099 l -4.24844,-4.70462 q 3.19344,-1.39838 5.36676,-3.36098 2.88925,-2.6091 2.85699,-9.63567 l -37.78837,-16.6582 4.57677,-4.133 33.03491,14.68416 q -0.25135,-1.76904 -1.0099,-3.63709 -2.2172,-4.3572 -6.46565,-9.06181 l -15.83931,-17.54003 4.70461,-4.24844 z m -62.33634,33.18572 3.4455,-5.32083 44.99569,29.13693 -3.4455,5.32083 z m 26.91285,35.3388 q 5.55779,2.59147 7.44475,6.77836 1.70787,3.8373 -0.53419,8.64573 l -1.89265,4.05906 -5.74513,-2.67882 1.09191,-2.34177 q 1.44132,-3.09113 0.70807,-5.10556 -0.81657,-2.24333 -4.12627,-3.78657 l -36.62523,-17.0775 2.67882,-5.74513 z m -8.33741,30.55029 q -1.52761,0.16457 -3.27362,0.20583 -1.77951,0.0332 -5.25939,-0.37739 -0.56347,4.11635 1.02121,7.40226 2.08832,4.43436 4.18131,4.86617 1.38148,0.29636 2.94302,-2.51736 1.56154,-2.81372 0.38747,-9.57951 z m -13.46942,-0.86111 q -1.33861,-0.17978 -2.80318,-0.42523 l 1.48034,-6.16371 q 5.63578,1.31812 11.75413,1.51207 3.55229,0.10912 6.6492,-1.13121 1.72334,-0.68445 2.62442,-4.43627 l 0.6034,-2.51238 6.16371,1.48035 -1.0459,4.35479 q -0.72408,3.01485 -3.01981,5.04992 -1.40049,1.25802 -3.68262,2.05629 1.33512,5.21008 0.08,10.43583 -0.45054,1.87591 -1.41965,3.69814 -3.1285,5.94502 -8.28725,4.70603 -5.79522,-1.39184 -8.40826,-9.24728 -1.40095,-4.19841 -0.68858,-9.37734 z m -11.3959,44.89985 q 10.29631,-0.89681 18.19382,3.22213 3.0817,1.63356 5.74868,4.06404 6.7906,6.49772 7.26292,11.92045 0.31687,3.63803 -0.5572,6.30777 l -6.31507,0.55004 q 0.8113,-3.39048 0.5572,-6.30777 -0.3378,-3.87828 -5.96115,-8.09155 l -36.08242,20.08767 -0.5351,-6.14346 31.6404,-17.48757 q -1.56249,-0.86677 -3.50994,-1.38877 -4.81258,-0.86034 -11.12766,-0.31029 l -23.54423,2.0507 -0.55004,-6.31507 z m -11.07575,69.82397 -2.17651,-5.95361 50.34684,-18.40568 2.17651,5.95361 z m 44.42813,-0.22862 q 5.41278,-2.88211 9.89275,-1.87189 4.09295,0.94308 6.58647,5.62605 l 2.10491,3.95315 -5.59524,2.97926 -1.21437,-2.28066 q -1.60297,-3.01048 -3.6534,-3.63604 -2.28342,-0.69665 -5.50676,1.01967 l -35.66963,18.9928 -2.97926,-5.59524 z m 22.82283,18.30844 q 3.96059,0.35886 7.08733,4.55945 l 2.67418,3.59261 -5.08493,3.78499 -1.5428,-2.07266 q -2.03649,-2.73591 -4.15756,-3.04676 -2.36209,-0.34618 -5.29146,1.83431 l -32.41641,24.12933 -3.78499,-5.08492 32.41641,-24.12934 q 2.92936,-2.18049 3.27554,-4.54259 0.31085,-2.12106 -1.72564,-4.85698 l -1.5428,-2.07266 5.08493,-3.78499 2.67418,3.59261 q 3.0856,4.14532 2.33402,8.0976 z m 13.29383,25.0953 q -0.57477,1.4249 -1.36122,2.9843 -0.80934,1.58516 -2.81144,4.46088 3.36504,2.43687 7.00998,2.58775 4.89522,0.2479 6.26244,-1.39459 0.91243,-1.07879 -0.83334,-3.78207 -1.74576,-2.70328 -8.26642,-4.85627 z m -7.10721,11.47407 q -0.78941,1.09593 -1.6961,2.27198 l -4.73869,-4.21041 q 3.81854,-4.3495 6.87299,-9.65442 1.77032,-3.08166 2.13584,-6.39764 0.20847,-1.84252 -2.67594,-4.40538 l -1.93153,-1.7162 4.21041,-4.73868 3.34798,2.97474 q 2.31784,2.05944 3.03084,5.04332 0.44956,1.82808 0.0781,4.21709 5.22445,1.27779 9.24202,4.84748 1.44221,1.28143 2.59269,2.99493 3.76908,5.56101 0.24515,9.52708 -3.9587,4.45539 -12.11856,3.05805 -4.36317,-0.74296 -8.59522,-3.81194 z"
       id="text2"
       transform="rotate(90,373.44046,537.39288)"
       aria-label="لا اله لا الله" />
    <path
       style="font-size:70.5556px;line-height:1;font-family:Alef;-inkscape-font-specification:Alef;text-align:center;letter-spacing:0px;word-spacing:13.2292px;text-orientation:sideways;text-anchor:middle;stroke:#000000;stroke-width:4.7625;stroke-linecap:round;stroke-linejoin:round;stroke-miterlimit:2.4"
       d="m 379.39321,330.61643 q 3.61545,-3.23172 8.6631,-2.82144 7.07357,0.57495 10.5772,4.24706 2.33158,-1.46958 5.90271,-1.17931 l 5.49404,0.44656 -0.51355,6.31814 -3.98318,-0.32376 q -1.78556,-0.14513 -3.35977,0.93668 -1.61134,1.11335 -1.91979,2.78194 -1.19193,6.15931 -6.0508,8.52955 -3.38405,1.66055 -6.1654,1.43448 -6.04344,-0.49122 -8.93373,-3.62957 -3.08236,-3.32679 -2.56881,-9.64494 0.39911,-4.91029 2.85798,-7.09539 z m 15.45376,6.3371 q -1.93636,-2.54234 -7.39606,-2.98612 -1.61388,-0.13118 -2.31653,0.43387 -1.93349,1.67477 -2.12607,4.04407 -0.20932,2.57534 1.05813,3.99181 1.32775,1.52507 4.34947,1.77068 1.57954,0.12839 3.2428,-0.77336 1.62893,-0.90453 2.41473,-4.19343 0.34363,-1.25096 0.77353,-2.28752 z m 29.87769,26.28981 q -8.04081,-4.19016 -14.38377,-9.53901 l 1.47389,-5.09661 q 2.34258,-0.0398 5.1509,-0.69804 -0.90823,-3.05994 -1.57568,-4.47228 -2.30296,-4.93365 -6.07578,-6.0247 l -2.18426,-0.63166 1.761,-6.08947 2.84616,0.82308 q 6.91684,2.00027 9.47892,8.76612 0.80698,2.16995 1.83123,5.94482 2.7238,-0.86199 4.4348,-1.6941 6.03338,-2.8815 8.7739,-3.05726 8.07963,-0.53248 13.4741,1.02754 l 4.23615,1.22504 -1.76101,6.08947 -3.30949,-0.95707 q -7.51254,-2.17254 -12.47087,-1.02432 -3.99697,0.92415 -8.85046,3.32202 -3.934,1.94651 -7.61156,2.1382 2.52675,1.55555 5.7154,3.30251 2.63123,1.44231 8.43518,3.69454 2.64678,1.01646 8.03249,2.35877 l -1.761,6.08946 q -2.44983,-0.45742 -4.94152,-1.14213 -5.36137,-1.55044 -10.71872,-4.35492 z m 37.39245,-12.7123 q 4.60212,-1.52838 8.82762,0.72478 6.50543,3.46889 8.26079,8.23109 2.72362,-0.42174 5.88514,1.26408 l 4.86388,2.59356 -2.9826,5.59346 -3.52631,-1.88033 q -1.58076,-0.84291 -3.50188,-0.46177 -1.87451,0.36695 -2.82078,1.77547 -3.54195,5.17806 -8.94263,5.42168 -3.76528,0.17864 -6.5924,-1.32886 -2.18875,-1.16711 -3.72502,-3.11853 -4.52164,-5.65162 -2.33139,-11.00386 0.64228,-1.57061 0.0969,-4.28206 -0.38114,-1.92112 -3.63386,-3.65556 l -2.27994,-1.21574 2.9826,-5.59345 3.9519,2.10726 q 5.35026,2.85292 5.46796,4.82878 z m 11.66161,11.9576 q -0.76628,-3.10255 -5.59976,-5.67991 -1.42876,-0.76186 -2.29812,-0.52266 -2.43988,0.76826 -3.55835,2.8658 -0.30799,0.57759 -0.44777,1.20582 -0.75767,3.03175 0.72992,4.4887 0.99105,0.99698 2.17662,1.62916 1.61116,0.85911 3.29519,0.70294 2.05488,-0.19269 4.08322,-2.89827 0.81256,-1.0113 1.61905,-1.79158 z m 17.37344,27.60159 q -1.09974,4.50689 0.49019,12.5424 l -6.09852,-4.89554 q -0.92381,-4.18745 -0.17222,-9.63648 0.71375,-5.34688 3.237,-8.49017 1.57434,-1.96119 1.13448,-5.98105 -0.23318,-2.131 -2.89289,-4.26606 l -2.01492,-1.61747 3.96818,-4.94329 3.49255,2.80361 q 3.94926,3.17024 3.75162,8.75471 5.25899,-1.43316 11.53189,2.14449 1.38678,0.80398 2.59574,1.77447 2.7403,2.19975 4.68796,5.44197 l -3.96819,4.9433 q -2.18378,-3.60848 -4.4405,-5.42005 -0.88657,-0.71168 -1.9941,-1.20314 -5.67765,-2.39298 -9.03337,-0.13883 -0.79721,0.55284 -1.703,1.6812 -1.4665,1.82687 -2.5719,6.50593 z m 79.44633,98.69995 q -2.02606,0.0798 -4.45199,0.59715 -4.24536,0.90534 -8.44684,3.66828 l -1.32208,-6.19958 q 3.61655,-2.53252 8.06407,-3.48098 2.76286,-0.58919 4.90933,-0.76513 12.12319,-0.96494 19.43657,7.72611 7.12831,8.48394 9.44196,19.3332 l -6.19957,1.32208 q -2.18432,-10.24278 -7.95568,-16.16281 -6.21607,-6.35359 -13.47577,-6.03832 z m 6.22798,67.49021 q 2.01401,1.50659 3.12677,3.44986 1.55202,2.6378 1.50954,6.04819 l -0.0558,4.47828 -6.33849,-0.0789 0.0322,-2.58362 q 0.0425,-3.41039 -1.45437,-4.94499 -2.72154,-2.79019 -6.16637,-2.83309 l -6.61407,-0.0824 0.0789,-6.33849 5.37394,0.0669 q 2.20469,0.0275 5.6684,-1.44536 3.42883,-1.4388 3.47345,-5.02142 0.0468,-3.75487 -4.13705,-5.32294 -3.5323,-1.31878 -10.21527,-1.40202 l 0.0789,-6.33848 q 7.0619,0.0879 8.79247,-0.54511 5.88367,-2.13176 5.89642,-5.9215 -0.008,-4.89252 -9.5846,-5.01179 l -10.1278,-0.12614 0.0789,-6.33849 11.78132,0.14673 q 6.85521,0.0854 10.7084,3.30311 3.13707,2.6231 3.92006,6.14712 0.29416,1.27845 0.27914,2.48414 -0.027,2.17025 -0.91183,4.05418 -2.16013,4.69324 -6.71503,5.25668 5.35334,1.72045 6.44895,5.04164 0.79758,2.35279 0.76969,4.59193 -0.042,3.37593 -1.7609,5.83518 -1.40368,2.04974 -3.936,3.4308 z m -6.1799,25.36877 q -2.54253,-0.62525 -4.58105,-0.55891 -2.87379,0.14475 -4.25585,1.43684 -1.86524,1.66995 -1.48905,3.89111 0.41898,2.48002 2.18546,3.37563 2.36922,1.18574 4.70227,-0.51108 1.72483,-1.24328 3.43822,-7.63359 z m 1.47261,-5.98832 2.02382,-8.22975 6.15558,1.51375 -1.59602,6.49013 -0.60933,2.33357 q 5.01319,2.11976 8.26752,7.49663 2.09387,3.45953 2.8024,7.35889 1.2975,7.13074 -1.70531,19.34155 l -6.15559,-1.51375 q 2.96991,-12.07699 1.51334,-17.1182 -1.79604,-6.40187 -6.23721,-9.69362 -1.07113,3.92292 -1.67552,5.37078 -1.94644,4.4527 -3.80455,5.80511 -3.84948,2.81396 -8.44807,2.03787 -1.05354,-0.18813 -2.87816,-0.9916 -4.96329,-2.17844 -6.02443,-8.68341 -0.35097,-2.17947 0.21724,-4.34577 0.78264,-2.89407 2.98956,-4.79929 4.17197,-3.69255 9.07001,-3.26855 2.88366,0.24793 6.09472,0.89566 z m -8.99737,42.48185 q -2.72721,-4.31578 -9.75904,-7.73801 l -35.00425,-17.03575 2.77397,-5.69981 35.00424,17.03576 q 9.81978,4.77905 12.80306,9.98575 3.65878,6.41667 1.76847,15.49673 -0.96694,4.66353 -2.24839,7.29659 -1.43221,2.94283 -3.21425,4.8725 -7.25206,7.65836 -15.72391,3.57362 -4.28994,-2.04949 -6.17498,-5.41901 l 2.77396,-5.69981 q 2.58245,3.74725 6.14483,5.48097 4.02703,1.95987 8.45022,-2.24764 1.09867,-0.99788 2.19921,-3.25921 1.20607,-2.47818 1.79612,-6.36728 0.98141,-6.18905 -1.58926,-10.2754 z m -127.31888,60.97461 5.74664,-2.67558 22.62611,48.59663 -5.74665,2.67558 z m 6.10461,41.58435 q 2.02466,5.7884 0.34432,10.06241 -1.55507,3.90171 -6.56301,5.65339 l -4.22748,1.47868 -2.09291,-5.98351 2.43893,-0.85309 q 3.21939,-1.12607 4.14976,-3.05739 1.03608,-2.15079 -0.16961,-5.59781 l -13.34228,-38.14488 5.98351,-2.09291 z m -21.8493,16.77529 q -1.91426,3.48578 -7.01524,4.66959 l -4.36268,1.01247 -1.43304,-6.17487 2.51693,-0.58412 q 3.32235,-0.77104 4.45627,-2.59032 1.26277,-2.02602 0.43722,-5.58329 l -9.1356,-39.36482 6.17487,-1.43304 9.1356,39.36483 q 0.82556,3.55726 2.85158,4.82004 1.81928,1.13391 5.14163,0.36288 l 2.51693,-0.58412 1.43304,6.17488 -4.36268,1.01247 q -5.03387,1.16823 -8.35483,-1.10258 z m -25.95885,-2.45318 q -0.6324,-1.40027 -1.21569,-3.04648 -0.58608,-1.68056 -1.28031,-5.11512 -4.08697,0.74731 -6.71546,3.27702 -3.56281,3.36616 -3.32091,5.48949 0.14888,1.40505 3.3091,2.01204 3.16022,0.60699 9.22327,-2.61695 z m -3.37904,-13.06709 q -0.24631,-1.32798 -0.46945,-2.79612 l 6.3181,-0.51406 q 0.5037,5.7659 2.22598,11.64005 1.00327,3.40942 3.14688,5.96562 1.18739,1.42425 5.0332,1.11133 l 2.57531,-0.20953 0.51407,6.3181 -4.46388,0.3632 q -3.09037,0.25144 -5.7395,-1.29582 -1.6318,-0.93874 -3.10146,-2.85848 -4.53462,2.89219 -9.89127,3.32803 -1.9229,0.15645 -3.95639,-0.19657 -6.62389,-1.12016 -7.05414,-6.40814 -0.48334,-5.94038 6.16669,-10.87119 3.55281,-2.63948 8.69586,-3.57642 z"
       id="text3"
       transform="rotate(90,373.44046,537.39288)"
       aria-label="محمد   رسول   الله" />
  </g>
</svg>
