<?xml version="1.0" encoding="UTF-8" standalone="no"?>
<!-- Created with Inkscape (http://www.inkscape.org/) -->

<svg
   width="3672"
   height="1872"
   viewBox="0 0 971.54999 495.30001"
   version="1.1"
   id="svg8"
   inkscape:export-filename="C:\Users\厂永刄先生\Documents\GXI3CW2\JáÈŭcèŭ\Maqkàla\Maqkàla.png"
   inkscape:export-xdpi="96"
   inkscape:export-ydpi="96"
   inkscape:version="1.3 (0e150ed6c4, 2023-07-21)"
   sodipodi:docname="su_1954_const.svg"
   xmlns:inkscape="http://www.inkscape.org/namespaces/inkscape"
   xmlns:sodipodi="http://sodipodi.sourceforge.net/DTD/sodipodi-0.dtd"
   xmlns="http://www.w3.org/2000/svg"
   xmlns:svg="http://www.w3.org/2000/svg"
   xmlns:rdf="http://www.w3.org/1999/02/22-rdf-syntax-ns#"
   xmlns:cc="http://creativecommons.org/ns#"
   xmlns:dc="http://purl.org/dc/elements/1.1/">
  <defs
     id="defs2" />
  <sodipodi:namedview
     id="base"
     pagecolor="#ffffff"
     bordercolor="#666666"
     borderopacity="1.0"
     inkscape:pageopacity="0.0"
     inkscape:pageshadow="2"
     inkscape:zoom="1.4048212"
     inkscape:cx="582.99234"
     inkscape:cy="618.93997"
     inkscape:document-units="px"
     inkscape:current-layer="layer1"
     showgrid="false"
     units="px"
     fit-margin-top="0"
     fit-margin-left="0"
     fit-margin-right="0"
     fit-margin-bottom="0"
     inkscape:showpageshadow="false"
     inkscape:snap-intersection-paths="true"
     inkscape:object-paths="false"
     inkscape:pagecheckerboard="true"
     inkscape:snap-smooth-nodes="false"
     inkscape:window-width="1920"
     inkscape:window-height="1009"
     inkscape:window-x="-8"
     inkscape:window-y="-8"
     inkscape:window-maximized="1"
     inkscape:object-nodes="true"
     inkscape:snap-nodes="true"
     inkscape:deskcolor="#505050" />
  <metadata
     id="metadata5">
    <rdf:RDF>
      <cc:Work
         rdf:about="">
        <dc:format>image/svg+xml</dc:format>
        <dc:type
           rdf:resource="http://purl.org/dc/dcmitype/StillImage" />
      </cc:Work>
    </rdf:RDF>
  </metadata>
  <g
     inkscape:label="レイヤー 1"
     inkscape:groupmode="layer"
     id="layer1"
     transform="translate(112.33452,-289.74286)">
    <path
       sodipodi:nodetypes="ccccc"
       inkscape:connector-curvature="0"
       id="path3800"
       d="m 373.44048,299.26784 -476.25,2e-5 v 476.25 l 476.25,-2e-5 z"
       style="fill:#ffb3b3;fill-opacity:1;stroke:#000000;stroke-width:0.47625;stroke-linecap:butt;stroke-linejoin:miter;stroke-opacity:1;stroke-dasharray:none" />
    <path
       sodipodi:nodetypes="cc"
       inkscape:connector-curvature="0"
       id="path5732"
       d="M -3.59077,519.53348 V 299.26786"
       style="fill:#ff4141;fill-opacity:1;stroke:#000000;stroke-width:0.3175;stroke-linecap:butt;stroke-linejoin:miter;stroke-dasharray:0.9525, 0.9525;stroke-dashoffset:0;stroke-opacity:1" />
    <g
       id="g1330"
       transform="translate(-4.4355158e-6,-1.4887373e-5)"
       style="stroke:#000000;stroke-width:0.47625;stroke-dasharray:none;stroke-opacity:1;stroke-linejoin:miter">
      <path
         sodipodi:nodetypes="cccccccccccccccccccccc"
         inkscape:connector-curvature="0"
         id="path830"
         d="m 55.940484,329.03349 -6.682801,20.56754 H 27.631694 l 17.495791,12.71144 -6.682801,20.56754 17.495797,-12.71144 17.495793,12.71144 -6.682797,-20.56754 17.495797,-12.71144 H 62.623281 Z m -4.520562,23.54463 4.521484,-13.9121 4.519532,13.9121 h 14.626953 l -11.833985,8.59766 4.521485,13.91211 -11.833985,-8.59766 -11.835937,8.59766 4.521484,-13.91211 -11.833984,-8.59766 z"
         style="color:#000000;font-style:normal;font-variant:normal;font-weight:normal;font-stretch:normal;font-size:medium;line-height:normal;font-family:sans-serif;font-variant-ligatures:normal;font-variant-position:normal;font-variant-caps:normal;font-variant-numeric:normal;font-variant-alternates:normal;font-feature-settings:normal;text-indent:0;text-align:start;text-decoration:none;text-decoration-line:none;text-decoration-style:solid;text-decoration-color:#000000;letter-spacing:normal;word-spacing:normal;text-transform:none;writing-mode:lr-tb;direction:ltr;text-orientation:mixed;dominant-baseline:auto;baseline-shift:baseline;text-anchor:start;white-space:normal;shape-padding:0;clip-rule:nonzero;display:inline;overflow:visible;visibility:visible;opacity:1;isolation:auto;mix-blend-mode:normal;color-interpolation:sRGB;color-interpolation-filters:linearRGB;solid-color:#000000;solid-opacity:1;fill:#ffecb3;fill-opacity:1;fill-rule:evenodd;stroke:none;stroke-width:0.47625;stroke-linecap:round;stroke-linejoin:miter;stroke-miterlimit:4;stroke-dasharray:none;stroke-dashoffset:0;stroke-opacity:1;color-rendering:auto;image-rendering:auto;shape-rendering:auto;text-rendering:auto;enable-background:accumulate" />
      <path
         style="opacity:1;fill:#ffecb3;fill-opacity:1;fill-rule:evenodd;stroke:none;stroke-width:1.80000003;stroke-linecap:round;stroke-linejoin:miter;stroke-miterlimit:4;stroke-dasharray:none;stroke-dashoffset:0;stroke-opacity:1"
         d="m 636,337.5 c 84.1167,50.10221 129.23495,149.27596 129.27148,216.04688 0.0364,66.44938 -53.86897,120.35365 -120.31836,120.3164 -34.48632,-0.0193 -67.29034,-14.90914 -90.08593,-40.78711 l -9.4043,9.08008 c -1.96047,-0.71732 -4.06868,-1.12781 -6.27734,-1.12695 -5.24791,0.002 -10.43715,2.48046 -13.70313,6.21289 -12.70051,0.80688 -18.90353,7.8914 -23.05859,17.33398 -8.22414,18.68977 -25.3627,32.31851 -45.01367,38.74219 -9.18611,3.00284 -17.81432,8.17565 -25.11524,15.47656 C 421.17748,729.91236 411,742.72712 411,761.1875 c 0,2.70418 0.41033,5.31217 1.16797,7.76758 -0.7656,1.69355 -1.16701,3.5301 -1.16797,5.38867 -0.004,7.26617 5.89008,13.16138 13.15625,13.15625 1.85608,-10e-4 3.68985,-0.40473 5.38086,-1.16992 2.457,0.7588 5.06729,1.16993 7.77344,1.16992 18.45933,-4e-5 31.27711,-10.17747 42.39453,-21.29492 7.30093,-7.30094 12.47177,-15.92913 15.47461,-25.11524 6.42369,-19.65097 20.05437,-36.78952 38.74414,-45.01367 8.6782,-3.81871 15.74538,-10.95252 17.0957,-20.49023 28.90622,34.80518 72.06721,55.58283 118.25781,55.60742 85.07276,0.0453 154.04511,-68.96628 154.03711,-154.03906 -5.1e-4,-5.47703 -0.30596,-10.91282 -0.88476,-16.28907 C 808.09621,427.72743 715.32296,363.05837 636,337.5 Z"
         transform="matrix(0.26458333,0,0,0.26458333,-112.33452,299.26787)"
         id="circle2045"
         inkscape:connector-curvature="0"
         sodipodi:nodetypes="cssccscsssscssccssscsssc" />
      <path
         sodipodi:nodetypes="sssccccccs"
         style="opacity:1;fill:#ffecb3;fill-opacity:1;fill-rule:evenodd;stroke:none;stroke-width:0.47625;stroke-linecap:round;stroke-linejoin:miter;stroke-miterlimit:4;stroke-dasharray:none;stroke-dashoffset:0;stroke-opacity:1"
         d="m 112.85628,492.3833 c 3.59414,3.377 3.48726,9.14122 0,12.62848 -3.48726,3.48726 -9.25148,3.59413 -12.62848,0 L 36.783121,437.48773 23.198294,451.07256 8.3154786,436.18974 37.822271,406.68295 63.705423,410.56542 45.33222,428.93863 Z"
         id="path891"
         inkscape:connector-curvature="0" />
      <path
         sodipodi:nodetypes="cccc"
         inkscape:connector-curvature="0"
         id="path889"
         d="M -3.5907713,394.51787 100.2278,505.01178 M 112.85628,492.3833 2.362359,388.56474"
         style="fill:none;stroke:#000000;stroke-width:0.47625;stroke-linecap:butt;stroke-linejoin:miter;stroke-miterlimit:4;stroke-dasharray:none;stroke-opacity:1" />
      <path
         style="fill:none;fill-opacity:1;stroke:#000000;stroke-width:0.3175;stroke-linecap:butt;stroke-linejoin:miter;stroke-miterlimit:4;stroke-dasharray:0.9525, 0.9525;stroke-dashoffset:0;stroke-opacity:1"
         d="m 103.56548,519.53349 v -11.90625 l -5.953129,-5.95313 -5.953123,5.95313 2e-6,11.90625"
         id="path969"
         inkscape:connector-curvature="0"
         sodipodi:nodetypes="ccccc" />
      <path
         sodipodi:nodetypes="cccc"
         inkscape:connector-curvature="0"
         id="path975"
         d="m 79.75298,507.62724 v 11.90625 m -11.90625,0 0,-11.90625"
         style="fill:none;fill-opacity:1;stroke:#000000;stroke-width:0.3175;stroke-linecap:butt;stroke-linejoin:miter;stroke-miterlimit:4;stroke-dasharray:0.9525, 0.9525;stroke-dashoffset:0;stroke-opacity:1" />
      <path
         style="fill:none;fill-opacity:1;stroke:#000000;stroke-width:0.3175;stroke-linecap:butt;stroke-linejoin:miter;stroke-miterlimit:4;stroke-dasharray:0.95249999,0.95249999;stroke-opacity:1;stroke-dashoffset:0"
         d="m 55.94048,507.62724 v 11.90625 m -11.90625,0 v -11.90625"
         id="path979"
         inkscape:connector-curvature="0"
         sodipodi:nodetypes="cccc" />
      <path
         sodipodi:nodetypes="cccc"
         inkscape:connector-curvature="0"
         id="path983"
         d="m 32.12798,507.62724 v 11.90625 m -11.90625,0 v -11.90625"
         style="fill:none;fill-opacity:1;stroke:#000000;stroke-width:0.3175;stroke-linecap:butt;stroke-linejoin:miter;stroke-miterlimit:4;stroke-dasharray:0.95249999,0.95249999;stroke-opacity:1;stroke-dashoffset:0" />
      <path
         style="fill:none;fill-opacity:1;stroke:#000000;stroke-width:0.3175;stroke-linecap:butt;stroke-linejoin:miter;stroke-miterlimit:4;stroke-dasharray:0.9525, 0.9525;stroke-dashoffset:0;stroke-opacity:1"
         d="m 8.315481,507.62724 v 11.90625"
         id="path987"
         inkscape:connector-curvature="0"
         sodipodi:nodetypes="cc" />
      <path
         sodipodi:nodetypes="cc"
         inkscape:connector-curvature="0"
         id="path860"
         d="m 55.94048,388.56474 0,-29.76564"
         style="fill:none;fill-opacity:1;stroke:#000000;stroke-width:0.3175;stroke-linecap:butt;stroke-linejoin:miter;stroke-miterlimit:4;stroke-dasharray:0.9525, 0.9525;stroke-dashoffset:0;stroke-opacity:1" />
      <path
         style="fill:none;fill-opacity:1;stroke:#000000;stroke-width:0.3175;stroke-linecap:butt;stroke-linejoin:miter;stroke-miterlimit:4;stroke-dasharray:0.95250004,0.95250004;stroke-opacity:1;stroke-dashoffset:0"
         d="m 44.03423,376.65849 v 11.90625 m -11.90625,0 v -11.90625"
         id="path866"
         inkscape:connector-curvature="0"
         sodipodi:nodetypes="cccc" />
      <path
         sodipodi:nodetypes="cc"
         inkscape:connector-curvature="0"
         id="path870"
         d="m 20.22173,376.65849 v 11.90625"
         style="fill:none;fill-opacity:1;stroke:#000000;stroke-width:0.3175;stroke-linecap:butt;stroke-linejoin:miter;stroke-miterlimit:4;stroke-dasharray:0.9525, 0.9525;stroke-dashoffset:0;stroke-opacity:1" />
      <path
         sodipodi:nodetypes="cccc"
         inkscape:connector-curvature="0"
         id="path951"
         d="m -15.497019,400.47099 h 11.90625 L 8.31548,388.56474 v -11.90625"
         style="fill:none;fill-opacity:1;stroke:#000000;stroke-width:0.3175;stroke-linecap:butt;stroke-linejoin:miter;stroke-miterlimit:4;stroke-dasharray:0.9525, 0.9525;stroke-dashoffset:0;stroke-opacity:1" />
      <path
         style="fill:none;fill-opacity:1;stroke:#000000;stroke-width:0.3175;stroke-linecap:butt;stroke-linejoin:miter;stroke-miterlimit:4;stroke-dasharray:0.9525, 0.9525;stroke-dashoffset:0;stroke-opacity:1"
         d="m -3.590769,436.18974 h -11.90625"
         id="path955"
         inkscape:connector-curvature="0"
         sodipodi:nodetypes="cc" />
      <path
         style="fill:none;fill-opacity:1;stroke:#000000;stroke-width:0.3175;stroke-linecap:butt;stroke-linejoin:miter;stroke-miterlimit:4;stroke-dasharray:0.9525, 0.9525;stroke-dashoffset:0;stroke-opacity:1"
         d="m -15.497019,471.90849 h 11.90625 l 5.953125,-5.95312 -5.953125,-5.95313 -11.90625,0"
         id="path963"
         inkscape:connector-curvature="0"
         sodipodi:nodetypes="ccccc" />
      <path
         style="fill:none;fill-opacity:1;stroke:#000000;stroke-width:0.3175;stroke-linecap:butt;stroke-linejoin:miter;stroke-miterlimit:4;stroke-dasharray:0.9525, 0.9525;stroke-dashoffset:0;stroke-opacity:1"
         d="m -15.497019,424.28349 h 11.90625 l 5.953125,-5.95312 -5.953125,-5.95313 h -11.90625"
         id="path963-8"
         inkscape:connector-curvature="0"
         sodipodi:nodetypes="ccccc" />
      <path
         sodipodi:nodetypes="cccc"
         inkscape:connector-curvature="0"
         id="path967"
         d="m -15.497019,495.72099 h 11.90625 m 119.062499,11.90625 -130.968749,0"
         style="fill:none;fill-opacity:1;stroke:#000000;stroke-width:0.3175;stroke-linecap:butt;stroke-linejoin:miter;stroke-miterlimit:4;stroke-dasharray:0.95249999,0.95249999;stroke-opacity:1;stroke-dashoffset:0" />
      <path
         sodipodi:nodetypes="zzzzzzzzzzzzzzzzzzzzz"
         inkscape:connector-curvature="0"
         id="path823"
         d="m 55.940484,329.03349 c 3.104247,0 6.245767,0.49757 9.19808,1.45684 2.952313,0.95927 5.786322,2.40326 8.29771,4.22789 2.511388,1.82463 4.760469,4.07371 6.5851,6.5851 1.824631,2.51139 3.268634,5.3454 4.2279,8.29771 0.959266,2.95231 1.456833,6.09384 1.456833,9.19809 0,3.10425 -0.497567,6.24577 -1.456833,9.19808 -0.959266,2.95231 -2.403269,5.78632 -4.2279,8.29771 -1.824631,2.51139 -4.073712,4.76047 -6.5851,6.5851 -2.511388,1.82463 -5.345397,3.26863 -8.29771,4.2279 -2.952313,0.95927 -6.093833,1.45683 -9.19808,1.45683 -3.104247,0 -6.245775,-0.49756 -9.19809,-1.45683 -2.952315,-0.95927 -5.786322,-2.40327 -8.29771,-4.2279 -2.511388,-1.82463 -4.760471,-4.07371 -6.5851,-6.5851 -1.824629,-2.51139 -3.268625,-5.3454 -4.22789,-8.29771 -0.959265,-2.95231 -1.45684,-6.09383 -1.45684,-9.19808 0,-3.10425 0.497575,-6.24578 1.45684,-9.19809 0.959265,-2.95231 2.403261,-5.78632 4.22789,-8.29771 1.824629,-2.51139 4.073712,-4.76047 6.5851,-6.5851 2.511388,-1.82463 5.345395,-3.26863 8.29771,-4.2279 2.952315,-0.95927 6.093843,-1.45683 9.19809,-1.45683 z"
         inkscape:transform-center-y="-1.6785845e-05"
         inkscape:transform-center-x="2.4289775e-06"
         style="opacity:1;fill:none;fill-opacity:1;fill-rule:evenodd;stroke:#000000;stroke-width:0.3175;stroke-linecap:round;stroke-linejoin:miter;stroke-miterlimit:4;stroke-dasharray:0.95250004,0.95250004;stroke-dashoffset:0;stroke-opacity:1" />
      <path
         sodipodi:nodetypes="cc"
         inkscape:connector-curvature="0"
         id="path874"
         d="m -3.590769,448.09599 59.53125,-59.53125"
         style="fill:none;fill-opacity:1;stroke:#000000;stroke-width:0.47625;stroke-linecap:butt;stroke-linejoin:miter;stroke-miterlimit:4;stroke-dasharray:none;stroke-opacity:1" />
      <path
         sodipodi:nodetypes="cc"
         inkscape:connector-curvature="0"
         id="path876"
         d="M 115.47173,418.33037 -3.590769,400.47099"
         style="fill:none;stroke:#000000;stroke-width:0.47625;stroke-linecap:butt;stroke-linejoin:miter;stroke-miterlimit:4;stroke-dasharray:none;stroke-opacity:1" />
      <path
         inkscape:connector-curvature="0"
         id="path886"
         d="m 112.85628,492.3833 a 8.9296875,8.9296875 0 0 1 0,12.62848 8.9296875,8.9296875 0 0 1 -12.62848,0 8.9296875,8.9296875 0 0 1 0,-12.62848 8.9296875,8.9296875 0 0 1 12.62848,0 z"
         style="opacity:1;fill:none;fill-opacity:1;fill-rule:evenodd;stroke:#000000;stroke-width:0.47625;stroke-linecap:round;stroke-linejoin:miter;stroke-miterlimit:4;stroke-dasharray:none;stroke-dashoffset:0;stroke-opacity:1" />
      <path
         style="fill:none;fill-opacity:1;stroke:#000000;stroke-width:0.3175;stroke-linecap:butt;stroke-linejoin:miter;stroke-miterlimit:4;stroke-dasharray:0.95250004,0.95250004;stroke-opacity:1;stroke-dashoffset:0"
         d="M 115.47173,489.76787 H 97.612355 v 17.85937"
         id="path895"
         inkscape:connector-curvature="0"
         sodipodi:nodetypes="ccc" />
      <path
         style="fill:none;fill-opacity:1;stroke:#000000;stroke-width:0.3175;stroke-linecap:butt;stroke-linejoin:miter;stroke-miterlimit:4;stroke-dasharray:0.95250004,0.95250004;stroke-opacity:1;stroke-dashoffset:0"
         d="M 8.315481,507.62724 -3.590769,495.72099 115.47173,388.56474 Z"
         id="path897"
         inkscape:connector-curvature="0"
         sodipodi:nodetypes="cccc" />
      <path
         sodipodi:nodetypes="cccc"
         inkscape:connector-curvature="0"
         id="path899"
         d="m 115.47173,388.56474 -95.25,119.0625 -23.812499,-23.8125 h -11.90625"
         style="fill:none;fill-opacity:1;stroke:#000000;stroke-width:0.3175;stroke-linecap:butt;stroke-linejoin:miter;stroke-miterlimit:4;stroke-dasharray:0.9525, 0.9525;stroke-dashoffset:0;stroke-opacity:1" />
      <path
         sodipodi:nodetypes="ccc"
         inkscape:connector-curvature="0"
         id="path903"
         d="m 32.12798,507.62724 5.953125,-5.95312 5.953125,5.95312"
         style="fill:none;fill-opacity:1;stroke:#000000;stroke-width:0.3175;stroke-linecap:butt;stroke-linejoin:miter;stroke-miterlimit:4;stroke-dasharray:0.95250004,0.95250004;stroke-opacity:1;stroke-dashoffset:0" />
      <path
         style="fill:none;fill-opacity:1;stroke:#000000;stroke-width:0.47625;stroke-linecap:butt;stroke-linejoin:miter;stroke-miterlimit:4;stroke-dasharray:none;stroke-opacity:1"
         d="M 85.706105,388.56474 -3.590769,477.86162"
         id="path907"
         inkscape:connector-curvature="0"
         sodipodi:nodetypes="cc" />
      <path
         sodipodi:nodetypes="cc"
         inkscape:connector-curvature="0"
         id="path911"
         d="M 79.75298,507.62724 -3.590769,424.28349"
         style="fill:none;stroke:#000000;stroke-width:0.47625;stroke-linecap:butt;stroke-linejoin:miter;stroke-miterlimit:4;stroke-dasharray:none;stroke-opacity:1" />
      <path
         inkscape:connector-curvature="0"
         id="path913"
         d="M -3.5907713,388.56474 115.47173,507.62724"
         style="fill:none;stroke:#000000;stroke-width:0.3175;stroke-linecap:butt;stroke-linejoin:miter;stroke-miterlimit:4;stroke-dasharray:0.9525, 0.9525;stroke-dashoffset:0;stroke-opacity:1"
         sodipodi:nodetypes="cc" />
      <path
         inkscape:connector-curvature="0"
         id="path915"
         d="M -3.5907713,507.62724 115.47173,388.56474"
         style="fill:none;stroke:#000000;stroke-width:0.3175;stroke-linecap:butt;stroke-linejoin:miter;stroke-miterlimit:4;stroke-dasharray:0.95250004,0.95250004;stroke-opacity:1;stroke-dashoffset:0" />
      <path
         sodipodi:nodetypes="cc"
         inkscape:connector-curvature="0"
         id="path917"
         d="m 26.174851,358.79912 v 29.76562"
         style="fill:none;stroke:#000000;stroke-width:0.3175;stroke-linecap:butt;stroke-linejoin:miter;stroke-miterlimit:4;stroke-dasharray:0.95249999,0.95249999;stroke-opacity:1;stroke-dashoffset:0" />
      <path
         sodipodi:nodetypes="cc"
         inkscape:connector-curvature="0"
         id="path919"
         d="m 85.706103,358.79912 v 29.76562"
         style="fill:none;stroke:#000000;stroke-width:0.3175;stroke-linecap:butt;stroke-linejoin:miter;stroke-miterlimit:4;stroke-dasharray:0.95249999,0.95249999;stroke-opacity:1;stroke-dashoffset:0" />
      <path
         sodipodi:nodetypes="cccc"
         inkscape:connector-curvature="0"
         id="path923"
         d="m 64.060928,452.65725 1.367906,-1.36791 m 0,1.36791 -1.367906,-1.36791"
         style="fill:none;stroke:#000000;stroke-width:0.635;stroke-linecap:round;stroke-linejoin:miter;stroke-miterlimit:4;stroke-dasharray:none;stroke-opacity:1" />
      <circle
         r="40.756042"
         cy="451.9733"
         cx="64.744881"
         id="path929"
         style="opacity:1;fill:none;fill-opacity:1;fill-rule:evenodd;stroke:#000000;stroke-width:0.47625;stroke-linecap:round;stroke-linejoin:miter;stroke-miterlimit:4;stroke-dasharray:none;stroke-dashoffset:0;stroke-opacity:1" />
      <path
         style="fill:none;stroke:#000000;stroke-width:0.47625;stroke-linecap:butt;stroke-linejoin:miter;stroke-miterlimit:4;stroke-dasharray:none;stroke-opacity:1"
         d="m 58.993487,446.41088 -1.367906,-1.3679"
         id="path933"
         inkscape:connector-curvature="0"
         sodipodi:nodetypes="cc" />
      <circle
         r="31.834036"
         cy="445.72693"
         cx="58.309536"
         id="path939"
         style="opacity:1;fill:none;fill-opacity:1;fill-rule:evenodd;stroke:#000000;stroke-width:0.47625;stroke-linecap:round;stroke-linejoin:miter;stroke-miterlimit:4;stroke-dasharray:none;stroke-dashoffset:0;stroke-opacity:1" />
      <path
         inkscape:connector-curvature="0"
         id="path941"
         d="M 115.47173,448.09599 H 88.704218"
         style="fill:none;stroke:#000000;stroke-width:0.47625;stroke-linecap:butt;stroke-linejoin:miter;stroke-miterlimit:4;stroke-dasharray:none;stroke-opacity:1" />
      <path
         inkscape:connector-curvature="0"
         id="path943"
         d="m 20.22173,507.62724 -2e-6,-59.53125 H -3.5907656"
         style="fill:none;stroke:#000000;stroke-width:0.3175;stroke-linecap:butt;stroke-linejoin:miter;stroke-miterlimit:4;stroke-dasharray:0.9525, 0.9525;stroke-dashoffset:0;stroke-opacity:1"
         sodipodi:nodetypes="ccc" />
      <circle
         r="69.285164"
         cy="448.09598"
         cx="20.221729"
         id="path947"
         style="opacity:1;fill:none;fill-opacity:1;fill-rule:evenodd;stroke:#000000;stroke-width:0.3175;stroke-linecap:round;stroke-linejoin:miter;stroke-miterlimit:4;stroke-dasharray:0.95250004,0.95250004;stroke-dashoffset:0;stroke-opacity:1" />
      <path
         sodipodi:nodetypes="ccccc"
         inkscape:connector-curvature="0"
         id="path989"
         d="m 38.081105,507.62724 v -53.57812 h 67.505275 m -67.505275,0 -35.7187505,0"
         style="fill:none;stroke:#000000;stroke-width:0.3175;stroke-linecap:butt;stroke-linejoin:miter;stroke-dasharray:0.9525, 0.9525;stroke-dashoffset:0;stroke-opacity:1" />
      <ellipse
         ry="67.660378"
         rx="67.505272"
         cy="454.04913"
         cx="38.081104"
         id="path993"
         style="opacity:1;fill:none;fill-opacity:0.501961;fill-rule:evenodd;stroke:#000000;stroke-width:0.47625;stroke-linecap:round;stroke-linejoin:miter;stroke-miterlimit:4;stroke-dasharray:none;stroke-dashoffset:0;stroke-opacity:1" />
      <path
         sodipodi:nodetypes="cc"
         inkscape:connector-curvature="0"
         id="path995"
         d="M 115.47173,388.56474 -3.5907713,503.65849"
         style="fill:none;stroke:#000000;stroke-width:0.47625;stroke-linecap:butt;stroke-linejoin:miter;stroke-dasharray:none;stroke-opacity:1" />
      <circle
         r="16.845686"
         cy="490.08118"
         cx="2.6756744"
         id="path1013"
         style="opacity:1;fill:none;fill-opacity:0.501961;fill-rule:evenodd;stroke:#000000;stroke-width:0.47625;stroke-linecap:round;stroke-linejoin:miter;stroke-miterlimit:4;stroke-dasharray:none;stroke-dashoffset:0;stroke-opacity:1" />
      <path
         sodipodi:nodetypes="cccc"
         inkscape:connector-curvature="0"
         id="path923-8"
         d="m 1.9917252,490.76514 1.367906,-1.36791 m 0,1.36791 -1.367906,-1.36791"
         style="fill:none;stroke:#000000;stroke-width:0.635;stroke-linecap:round;stroke-linejoin:miter;stroke-miterlimit:4;stroke-dasharray:none;stroke-opacity:1" />
      <path
         sodipodi:nodetypes="cccc"
         inkscape:connector-curvature="0"
         id="path923-8-8"
         d="m 13.271329,502.04475 1.367906,-1.36791 m 0,1.36791 -1.367906,-1.36791"
         style="fill:none;stroke:#000000;stroke-width:0.635;stroke-linecap:round;stroke-linejoin:miter;stroke-miterlimit:4;stroke-dasharray:none;stroke-opacity:1" />
      <path
         sodipodi:nodetypes="cccc"
         inkscape:connector-curvature="0"
         id="path923-8-8-3"
         d="m 37.397152,502.35807 1.367906,-1.36791 m 0,1.36791 -1.367906,-1.36791"
         style="fill:none;stroke:#000000;stroke-width:0.635;stroke-linecap:round;stroke-linejoin:miter;stroke-miterlimit:4;stroke-dasharray:none;stroke-opacity:1" />
      <circle
         r="3.480726"
         cy="504.14651"
         cx="-0.11004561"
         id="circle1028"
         style="opacity:1;fill:none;fill-opacity:0.501961;fill-rule:evenodd;stroke:#000000;stroke-width:0.47625;stroke-linecap:round;stroke-linejoin:miter;stroke-miterlimit:4;stroke-dasharray:none;stroke-dashoffset:0;stroke-opacity:1" />
      <circle
         r="4.8377366"
         cy="473.71124"
         cx="30.325214"
         id="path1039"
         style="opacity:1;fill:none;fill-opacity:0.501961;fill-rule:evenodd;stroke:#000000;stroke-width:0.47625;stroke-linecap:round;stroke-linejoin:miter;stroke-miterlimit:4;stroke-dasharray:none;stroke-dashoffset:0;stroke-opacity:1" />
      <circle
         r="20.398308"
         cy="501.67413"
         cx="38.081104"
         id="path1045"
         style="opacity:1;fill:none;fill-opacity:0.501961;fill-rule:evenodd;stroke:#000000;stroke-width:0.47625;stroke-linecap:round;stroke-linejoin:miter;stroke-miterlimit:4;stroke-dasharray:none;stroke-dashoffset:0;stroke-opacity:1" />
      <circle
         r="20.31056"
         cy="465.95538"
         cx="2.3623536"
         id="path1047"
         style="opacity:1;fill:none;fill-opacity:0.501961;fill-rule:evenodd;stroke:#000000;stroke-width:0.47625;stroke-linecap:round;stroke-linejoin:miter;stroke-miterlimit:4;stroke-dasharray:none;stroke-dashoffset:0;stroke-opacity:1" />
      <circle
         r="6.6242905"
         cy="477.13205"
         cx="26.904419"
         id="path1049"
         style="opacity:1;fill:none;fill-opacity:0.501961;fill-rule:evenodd;stroke:#000000;stroke-width:0.47625;stroke-linecap:round;stroke-linejoin:miter;stroke-miterlimit:4;stroke-dasharray:none;stroke-dashoffset:0;stroke-opacity:1" />
      <circle
         style="opacity:1;fill:none;fill-opacity:0.501961;fill-rule:evenodd;stroke:#000000;stroke-width:0.47625;stroke-linecap:round;stroke-linejoin:miter;stroke-miterlimit:4;stroke-dasharray:none;stroke-dashoffset:0;stroke-opacity:1"
         id="circle1051"
         cx="3.3706806"
         cy="500.6658"
         r="6.961452" />
      <path
         sodipodi:nodetypes="zzzzzzzzzzzzzzzzzzzzz"
         inkscape:connector-curvature="0"
         id="path1"
         d="m 55.940486,338.95535 c 2.069498,0 4.163845,0.33171 6.132054,0.97123 1.968208,0.63951 3.857548,1.60217 5.531806,2.81859 1.674259,1.21642 3.173646,2.71581 4.390067,4.39007 1.216421,1.67426 2.179089,3.5636 2.8186,5.5318 0.639511,1.96821 0.971222,4.06256 0.971222,6.13206 0,2.0695 -0.331711,4.16385 -0.971222,6.13206 -0.639511,1.9682 -1.602179,3.85754 -2.8186,5.5318 -1.216421,1.67426 -2.715808,3.17365 -4.390067,4.39007 -1.674258,1.21642 -3.563598,2.17909 -5.531806,2.8186 -1.968209,0.63951 -4.062556,0.97122 -6.132054,0.97122 -2.069498,0 -4.16385,-0.33171 -6.13206,-0.97122 -1.96821,-0.63951 -3.857548,-1.60218 -5.531806,-2.8186 -1.674259,-1.21642 -3.173648,-2.71581 -4.390067,-4.39007 -1.216419,-1.67426 -2.179083,-3.5636 -2.818593,-5.5318 -0.63951,-1.96821 -0.971227,-4.06256 -0.971227,-6.13206 0,-2.0695 0.331717,-4.16385 0.971227,-6.13206 0.63951,-1.9682 1.602174,-3.85754 2.818593,-5.5318 1.216419,-1.67426 2.715808,-3.17365 4.390067,-4.39007 1.674258,-1.21642 3.563596,-2.17909 5.531806,-2.8186 1.96821,-0.63951 4.062562,-0.97122 6.13206,-0.97122 z"
         inkscape:transform-center-y="-1.1200021e-05"
         inkscape:transform-center-x="1.6287759e-06"
         style="opacity:1;fill:none;fill-opacity:0.501961;fill-rule:evenodd;stroke:#000000;stroke-width:0.3175;stroke-linecap:round;stroke-linejoin:miter;stroke-miterlimit:4;stroke-dasharray:0.95250004,0.95250004;stroke-dashoffset:0;stroke-opacity:1" />
      <path
         sodipodi:nodetypes="cc"
         inkscape:connector-curvature="0"
         id="path7"
         d="M 100.2278,505.01178 112.85628,492.3833"
         style="fill:none;stroke:#000000;stroke-width:0.3175;stroke-linecap:butt;stroke-linejoin:miter;stroke-miterlimit:4;stroke-dasharray:0.95250004,0.95250004;stroke-opacity:1;stroke-dashoffset:0" />
      <path
         style="opacity:1;fill:none;fill-opacity:1;stroke:#000000;stroke-width:0.3175;stroke-linecap:butt;stroke-linejoin:miter;stroke-miterlimit:2.4;stroke-dasharray:0.9525, 0.9525;stroke-dashoffset:0;stroke-opacity:1"
         d="m -3.5907767,394.51786 h 5.953125 l 1.59e-5,-5.95312"
         id="path9" />
      <path
         style="opacity:1;fill:none;fill-opacity:1;stroke:#000000;stroke-width:0.3175;stroke-linecap:butt;stroke-linejoin:miter;stroke-miterlimit:2.4;stroke-dasharray:0.9525, 0.9525;stroke-dashoffset:0;stroke-opacity:1"
         d="M 2.3623483,418.33036 H 115.47172"
         id="path10" />
    </g>
    <circle
       r="16.845686"
       cy="501.36078"
       cx="13.955277"
       id="path1013-6"
       style="fill:none;fill-opacity:0.501961;fill-rule:evenodd;stroke:#000000;stroke-width:0.47625;stroke-linecap:round;stroke-linejoin:miter;stroke-miterlimit:4;stroke-dasharray:none;stroke-dashoffset:0;stroke-opacity:1" />
    <path
       sodipodi:nodetypes="cccc"
       inkscape:connector-curvature="0"
       id="path923-0"
       d="m 37.397147,454.73307 1.367906,-1.36791 m 0,1.36791 -1.367906,-1.36791"
       style="fill:none;stroke:#000000;stroke-width:0.635;stroke-linecap:round;stroke-linejoin:miter;stroke-miterlimit:4;stroke-dasharray:none;stroke-opacity:1" />
    <path
       sodipodi:nodetypes="cccc"
       inkscape:connector-curvature="0"
       id="path923-0-7"
       d="m 19.537771,448.77993 1.367906,-1.36791 m 0,1.36791 -1.367906,-1.36791"
       style="fill:none;stroke:#000000;stroke-width:0.635;stroke-linecap:round;stroke-linejoin:miter;stroke-miterlimit:4;stroke-dasharray:none;stroke-opacity:1" />
    <path
       sodipodi:nodetypes="cccc"
       inkscape:connector-curvature="0"
       id="path923-2"
       d="m 1.6783986,466.63931 1.367906,-1.36791 m 0,1.36791 -1.367906,-1.36791"
       style="fill:none;stroke:#000000;stroke-width:0.635;stroke-linecap:round;stroke-linejoin:miter;stroke-miterlimit:4;stroke-dasharray:none;stroke-opacity:1" />
    <path
       sodipodi:nodetypes="cc"
       inkscape:connector-curvature="0"
       id="path2"
       d="m 115.47173,388.56473 -218.28125,0"
       style="fill:#ff4141;fill-opacity:1;stroke:#000000;stroke-width:0.3175;stroke-linecap:butt;stroke-linejoin:miter;stroke-dasharray:0.9525, 0.9525;stroke-dashoffset:0;stroke-opacity:1" />
    <path
       sodipodi:nodetypes="cc"
       inkscape:connector-curvature="0"
       id="path3"
       d="m -102.80952,358.79912 158.75,-3e-5"
       style="fill:#ff4141;fill-opacity:1;stroke:#000000;stroke-width:0.3175;stroke-linecap:butt;stroke-linejoin:miter;stroke-dasharray:0.95250004,0.95250004;stroke-opacity:1;stroke-dashoffset:0" />
    <path
       sodipodi:nodetypes="cc"
       inkscape:connector-curvature="0"
       id="path4"
       d="m -102.80952,329.03351 158.749999,-3e-5"
       style="fill:#ff4141;fill-opacity:1;stroke:#000000;stroke-width:0.3175;stroke-linecap:butt;stroke-linejoin:miter;stroke-dasharray:0.95250004,0.95250004;stroke-opacity:1;stroke-dashoffset:0" />
    <path
       sodipodi:nodetypes="cc"
       inkscape:connector-curvature="0"
       id="path5"
       d="m 115.47173,519.53348 0,-220.26562"
       style="fill:#ff4141;fill-opacity:1;stroke:#000000;stroke-width:0.3175;stroke-linecap:butt;stroke-linejoin:miter;stroke-dasharray:0.9525, 0.9525;stroke-dashoffset:0;stroke-opacity:1" />
    <path
       sodipodi:nodetypes="ccccc"
       inkscape:connector-curvature="0"
       id="path6"
       d="m 849.69048,299.26782 -476.25,2e-5 v 476.25 l 476.25,-2e-5 z"
       style="fill:#ffb3b3;fill-opacity:1;stroke:#000000;stroke-width:0.47625;stroke-linecap:butt;stroke-linejoin:miter;stroke-opacity:1;stroke-dasharray:none" />
    <path
       style="fill:none;fill-opacity:1;stroke:#000000;stroke-width:0.3175;stroke-linecap:butt;stroke-linejoin:miter;stroke-miterlimit:4;stroke-dasharray:0.9525, 0.9525;stroke-dashoffset:0;stroke-opacity:1"
       d="m -3.59077,460.00223 5.953125,-5.95312 -5.953125,-5.95313 h -11.90625"
       id="path963-4"
       inkscape:connector-curvature="0"
       sodipodi:nodetypes="cccc" />
  </g>
</svg>
