<?xml version="1.0" encoding="UTF-8" standalone="no"?>
<!-- Created with Inkscape (http://www.inkscape.org/) -->

<svg
   width="3036"
   height="1800"
   viewBox="0 0 803.27499 476.25001"
   version="1.1"
   id="svg8"
   inkscape:export-filename="C:\Users\厂永刄先生\Documents\GXI3CW2\JáÈŭcèŭ\Maqkàla\Maqkàla.png"
   inkscape:export-xdpi="96"
   inkscape:export-ydpi="96"
   inkscape:version="1.3 (0e150ed6c4, 2023-07-21)"
   sodipodi:docname="su_1950_000-001.svg"
   xmlns:inkscape="http://www.inkscape.org/namespaces/inkscape"
   xmlns:sodipodi="http://sodipodi.sourceforge.net/DTD/sodipodi-0.dtd"
   xmlns="http://www.w3.org/2000/svg"
   xmlns:svg="http://www.w3.org/2000/svg"
   xmlns:rdf="http://www.w3.org/1999/02/22-rdf-syntax-ns#"
   xmlns:cc="http://creativecommons.org/ns#"
   xmlns:dc="http://purl.org/dc/elements/1.1/">
  <defs
     id="defs2" />
  <sodipodi:namedview
     id="base"
     pagecolor="#ffffff"
     bordercolor="#666666"
     borderopacity="1.0"
     inkscape:pageopacity="0.0"
     inkscape:pageshadow="2"
     inkscape:zoom="0.24532453"
     inkscape:cx="1169.8789"
     inkscape:cy="589.0157"
     inkscape:document-units="px"
     inkscape:current-layer="layer1"
     showgrid="false"
     units="px"
     fit-margin-top="0"
     fit-margin-left="0"
     fit-margin-right="0"
     fit-margin-bottom="0"
     inkscape:showpageshadow="false"
     inkscape:snap-intersection-paths="true"
     inkscape:object-paths="false"
     inkscape:pagecheckerboard="true"
     inkscape:snap-smooth-nodes="false"
     inkscape:window-width="1920"
     inkscape:window-height="1009"
     inkscape:window-x="-8"
     inkscape:window-y="-8"
     inkscape:window-maximized="1"
     inkscape:object-nodes="true"
     inkscape:snap-nodes="true"
     inkscape:deskcolor="#505050" />
  <metadata
     id="metadata5">
    <rdf:RDF>
      <cc:Work
         rdf:about="">
        <dc:format>image/svg+xml</dc:format>
        <dc:type
           rdf:resource="http://purl.org/dc/dcmitype/StillImage" />
      </cc:Work>
    </rdf:RDF>
  </metadata>
  <g
     inkscape:label="レイヤー 1"
     inkscape:groupmode="layer"
     id="layer1"
     transform="translate(112.33452,-299.26786)">
    <path
       style="fill:#ffffff;fill-opacity:1;stroke:none;stroke-width:1.41263258px;stroke-linecap:butt;stroke-linejoin:miter;stroke-opacity:1"
       d="m 690.94048,656.45536 h -793.75 v -357.1875 h 793.75 z"
       id="path823"
       inkscape:connector-curvature="0"
       sodipodi:nodetypes="ccccc" />
    <path
       style="fill:#ffffff;fill-opacity:1;stroke:none;stroke-width:0.51166773px;stroke-linecap:butt;stroke-linejoin:miter;stroke-opacity:1"
       d="m -102.80952,299.26786 h -9.525 v 476.25 h 9.525 z"
       id="path1079"
       inkscape:connector-curvature="0"
       sodipodi:nodetypes="ccccc" />
    <path
       sodipodi:nodetypes="ccccc"
       inkscape:connector-curvature="0"
       id="path822"
       d="m 690.94048,775.51786 h -793.75 v -119.0625 h 793.75 z"
       style="fill:#00aaff;fill-opacity:1;stroke:none;stroke-width:1.54746151px;stroke-linecap:butt;stroke-linejoin:miter;stroke-opacity:1" />
    <g
       id="g7866"
       style="fill:#ff0000;fill-opacity:1"
       transform="matrix(2,0,0,2,354.1637,-418.33033)">
      <path
         style="opacity:1;fill:#ff0000;fill-opacity:1;fill-rule:evenodd;stroke:none;stroke-width:0.26458332;stroke-linecap:round;stroke-linejoin:round;stroke-miterlimit:4;stroke-dasharray:none;stroke-dashoffset:0;stroke-opacity:1"
         d="m 55.940478,388.56472 c 22.255877,13.25621 34.193414,39.49593 34.203079,57.1624 0.0096,17.5814 -14.252832,31.84357 -31.834233,31.83372 -9.124505,-0.005 -17.803902,-3.94471 -23.835235,-10.79159 l -2.488221,2.40244 c -0.518708,-0.18979 -1.076505,-0.2984 -1.66088,-0.29818 -1.388509,5.3e-4 -2.295373,1.2458 -3.62562,1.64383 -2.747146,0.82198 -5.001558,2.08793 -6.100918,4.58628 -2.17597,4.94501 -6.710547,8.55094 -11.909862,10.25054 -2.4305,0.7945 -4.71338,2.16314 -6.64508,4.09484 -2.94149,2.94149 -5.63428,6.33206 -5.63428,11.21637 0,0.71548 0.10857,1.40551 0.30903,2.05517 -0.20257,0.44809 -0.30878,0.93401 -0.30903,1.42576 -0.001,1.9225 1.55842,3.48228 3.48093,3.48092 0.49108,-2.6e-4 0.97627,-0.10708 1.42368,-0.30954 0.65008,0.20076 1.34072,0.30954 2.05672,0.30954 4.88403,-1e-5 8.275406,-2.69279 11.21689,-5.63428 1.931704,-1.93171 3.299822,-4.21458 4.094324,-6.64507 1.699601,-5.19932 5.306051,-9.7339 10.251053,-11.90987 2.296107,-1.01037 4.165965,-2.89786 4.523237,-5.42137 7.648104,9.20887 19.067783,14.70629 31.289046,14.71279 22.508834,0.012 40.757772,-18.24733 40.755652,-40.75617 -1.3e-4,-1.44913 -0.081,-2.88735 -0.23409,-4.30981 -3.7924,-35.22605 -28.338659,-52.3364 -49.326192,-59.09872 z"
         id="circle2045"
         inkscape:connector-curvature="0"
         sodipodi:nodetypes="cssccsssssscsscsssscsssc" />
      <path
         inkscape:connector-curvature="0"
         id="path891"
         d="m 112.81605,492.34307 c 3.59414,3.377 3.48726,9.14122 0,12.62848 -3.48726,3.48726 -9.25148,3.59413 -12.62848,0 L 36.742891,437.4475 23.158064,451.03233 8.2752487,436.14951 37.782041,406.64272 63.665193,410.52519 45.29199,428.8984 Z"
         style="opacity:1;fill:#ff0000;fill-opacity:1;fill-rule:evenodd;stroke:none;stroke-width:0.26458332;stroke-linecap:round;stroke-linejoin:round;stroke-miterlimit:4;stroke-dasharray:none;stroke-dashoffset:0;stroke-opacity:1"
         sodipodi:nodetypes="szsccccccs" />
    </g>
    <path
       style="color:#000000;font-style:normal;font-variant:normal;font-weight:normal;font-stretch:normal;font-size:medium;line-height:normal;font-family:sans-serif;font-variant-ligatures:normal;font-variant-position:normal;font-variant-caps:normal;font-variant-numeric:normal;font-variant-alternates:normal;font-feature-settings:normal;text-indent:0;text-align:start;text-decoration:none;text-decoration-line:none;text-decoration-style:solid;text-decoration-color:#000000;letter-spacing:normal;word-spacing:normal;text-transform:none;writing-mode:lr-tb;direction:ltr;text-orientation:mixed;dominant-baseline:auto;baseline-shift:baseline;text-anchor:start;white-space:normal;shape-padding:0;clip-rule:nonzero;display:inline;overflow:visible;visibility:visible;opacity:1;isolation:auto;mix-blend-mode:normal;color-interpolation:sRGB;color-interpolation-filters:linearRGB;solid-color:#000000;solid-opacity:1;vector-effect:none;fill:#ff0000;fill-opacity:1;fill-rule:evenodd;stroke:none;stroke-width:1.05833316;stroke-linecap:round;stroke-linejoin:round;stroke-miterlimit:4;stroke-dasharray:none;stroke-dashoffset:0;stroke-opacity:1;color-rendering:auto;image-rendering:auto;shape-rendering:auto;text-rendering:auto;enable-background:accumulate"
       d="M 122.08632,358.7991 95.355124,441.06925 H 8.851174 l 69.98315,50.84575 -26.7312,82.27014 69.983196,-50.84575 69.98315,50.84575 -26.7312,-82.27014 69.98319,-50.84575 h -86.50394 z"
       id="path830"
       inkscape:connector-curvature="0"
       sodipodi:nodetypes="ccccccccccc" />
  </g>
</svg>
