<?xml version="1.0" encoding="UTF-8" standalone="no"?>
<!-- Created with Inkscape (http://www.inkscape.org/) -->

<svg
   width="2700"
   height="1200"
   viewBox="0 0 714.37499 317.50001"
   version="1.1"
   id="svg8"
   inkscape:export-filename="C:\Users\厂永刄先生\Documents\GXI3CW2\JáÈŭcèŭ\Maqkàla\Maqkàla.png"
   inkscape:export-xdpi="96"
   inkscape:export-ydpi="96"
   inkscape:version="1.3 (0e150ed6c4, 2023-07-21)"
   sodipodi:docname="cd_1971_roundel.svg"
   xmlns:inkscape="http://www.inkscape.org/namespaces/inkscape"
   xmlns:sodipodi="http://sodipodi.sourceforge.net/DTD/sodipodi-0.dtd"
   xmlns="http://www.w3.org/2000/svg"
   xmlns:svg="http://www.w3.org/2000/svg"
   xmlns:rdf="http://www.w3.org/1999/02/22-rdf-syntax-ns#"
   xmlns:cc="http://creativecommons.org/ns#"
   xmlns:dc="http://purl.org/dc/elements/1.1/">
  <defs
     id="defs2" />
  <sodipodi:namedview
     id="base"
     pagecolor="#ffffff"
     bordercolor="#666666"
     borderopacity="1.0"
     inkscape:pageopacity="0.0"
     inkscape:pageshadow="2"
     inkscape:zoom="0.30222222"
     inkscape:cx="1348.3456"
     inkscape:cy="1070.4044"
     inkscape:document-units="px"
     inkscape:current-layer="g1364"
     showgrid="false"
     units="px"
     fit-margin-top="0"
     fit-margin-left="0"
     fit-margin-right="0"
     fit-margin-bottom="0"
     inkscape:showpageshadow="false"
     inkscape:snap-intersection-paths="false"
     inkscape:object-paths="false"
     inkscape:pagecheckerboard="true"
     inkscape:snap-smooth-nodes="true"
     inkscape:window-width="1920"
     inkscape:window-height="1009"
     inkscape:window-x="-8"
     inkscape:window-y="-8"
     inkscape:window-maximized="1"
     inkscape:object-nodes="true"
     inkscape:snap-nodes="true"
     inkscape:deskcolor="#505050" />
  <metadata
     id="metadata5">
    <rdf:RDF>
      <cc:Work
         rdf:about="">
        <dc:format>image/svg+xml</dc:format>
        <dc:type
           rdf:resource="http://purl.org/dc/dcmitype/StillImage" />
      </cc:Work>
    </rdf:RDF>
  </metadata>
  <g
     inkscape:label="レイヤー 1"
     inkscape:groupmode="layer"
     id="layer1"
     transform="translate(3.5639383,-418.41901)">
    <g
       id="g1364"
       inkscape:export-xdpi="96"
       inkscape:export-ydpi="96">
      <path
         style="fill:#00a800;fill-opacity:1;stroke:none;stroke-width:0.366617px;stroke-linecap:butt;stroke-linejoin:miter;stroke-opacity:1"
         d="M -3.5639183,505.73151 H 710.81107 l -3e-5,142.875 H -3.5639383 Z"
         id="path9"
         inkscape:connector-curvature="0"
         sodipodi:nodetypes="ccccc" />
      <path
         id="path1"
         style="fill:#00a800;stroke-width:0.213367;stroke-linecap:round;stroke-linejoin:round;stroke-miterlimit:3.9"
         d="m 512.37357,577.16901 a 158.75,158.75 0 0 1 -158.75,158.75 158.75,158.75 0 0 1 -158.75,-158.75 158.75,158.75 0 0 1 158.75,-158.75 158.75,158.75 0 0 1 158.75,158.75 z" />
      <g
         id="g1"
         transform="matrix(1.0909092,0,0,1.0909092,-32.147624,-52.469977)">
        <path
           sodipodi:nodetypes="zzzzz"
           inkscape:connector-curvature="0"
           id="path4"
           d="m 440.93605,577.16901 c 0,48.22136 -39.09113,87.3125 -87.31248,87.3125 -48.22136,0 -87.31251,-39.09114 -87.31251,-87.3125 0,-48.22136 39.09114,-87.3125 87.31251,-87.3125 48.22136,0 87.31248,39.09114 87.31248,87.3125 z"
           style="fill:#ffc000;fill-opacity:1;fill-rule:evenodd;stroke:none;stroke-width:0.136724;stroke-linecap:round;stroke-linejoin:round;stroke-miterlimit:4;stroke-dasharray:none;stroke-dashoffset:0;stroke-opacity:0.501961" />
        <path
           id="path5"
           style="fill:#662a00;fill-opacity:1;stroke:none;stroke-width:0.529167;stroke-linecap:square;stroke-linejoin:round;stroke-miterlimit:3.9;stroke-dasharray:none;stroke-opacity:1"
           d="m 307.3375,594.70534 c -0.49657,-2.08488 -1.12475,-3.88133 -1.82023,-5.47672 l 2.47821,0.66404 c 0.62681,1.57698 1.18712,3.35525 1.61917,5.42284 z m 3.36327,0.90118 c -0.40126,-2.05934 -0.92921,-3.82893 -1.52326,-5.39714 l 2.36405,0.63345 c 0.52855,1.55065 0.99176,3.3029 1.33146,5.34575 z m 3.62041,0.97009 c -0.29865,-2.03185 -0.71872,-3.77253 -1.20358,-5.31149 l 18.96809,5.08249 c -1.39998,1.03392 -2.84228,2.27555 -4.31474,3.83285 z m 20.08742,-1.79828 c 2.23817,-1.37725 4.32642,-2.33973 6.19988,-3.32773 l -26.42969,-7.08182 c 0.6703,1.66963 1.47622,3.4076 2.19363,5.57678 z m -19.93961,-5.34279 c -0.80128,-2.19166 -1.68933,-3.95163 -2.4318,-5.6406 l -2.49961,-0.66977 c 0.82672,1.71155 1.81061,3.4972 2.70977,5.71508 z m -3.87167,-1.03742 c -0.97186,-2.23736 -2.02693,-4.04208 -2.91622,-5.77039 l -2.78473,-0.74617 c 0.98314,1.75346 2.145,3.5868 3.2259,5.85338 z m -3.71257,-0.99478 c -1.13543,-2.28118 -2.35067,-4.12883 -3.38074,-5.89486 l -2.9192,-0.7822 c 1.12847,1.7924 2.45564,3.67004 3.70538,5.98186 z m -7.75953,-9.2602 c -0.76638,-1.609 -1.25643,-3.29718 -1.25643,-5.32601 l 3.2149,0.86143 c -0.0332,2.01992 0.39917,3.69266 1.09232,5.28204 z m 4.50591,1.20736 c -0.65822,-1.58002 -1.06312,-3.2454 -1.01403,-5.26106 l 3.06681,0.82174 c -0.0808,2.00718 0.26913,3.65782 0.85748,5.21912 z m 4.85044,1.29967 c -0.54178,-1.54883 -0.85507,-3.18965 -0.75311,-5.19115 l 2.75281,0.73761 c -0.13042,1.99388 0.13352,3.62148 0.61258,5.1535 z m 4.85042,1.29967 c -0.42534,-1.51763 -0.64698,-3.1339 -0.49218,-5.12124 l 3.40758,0.91306 c -0.19006,1.9779 -0.0295,3.5778 0.31823,5.07462 z m 5.65884,1.51628 c -0.2895,-1.48123 -0.40424,-3.06885 -0.18776,-5.03967 l 28.11255,7.53238 c -1.01446,1.75709 -2.28293,2.9743 -3.75119,3.98459 z m -11.17674,13.55898 c 1.38031,8.01382 0.886,19.83164 -4.20922,38.84723 l -2.87943,10.74615 c 0.32548,0.2483 0.66401,0.47957 0.99324,0.72303 l 9.82302,-36.66001 1.53307,0.41079 -9.98101,37.24968 c 0.45901,0.32536 0.92095,0.64653 1.38648,0.9632 l 10.12894,-37.80175 1.53309,0.4108 -10.26717,38.31754 c 0.33755,0.22061 0.66675,0.45265 1.00736,0.66902 l 3.53797,-13.20258 c 5.09563,-19.01522 10.576,-29.49691 15.77824,-35.74697 z"
           sodipodi:nodetypes="cccccccccccccccccccccccccccccccccccccccccccccccccccccccccccccsccccccccccscc" />
        <path
           style="fill:#ff0000;fill-opacity:1;stroke-width:2.11667;stroke-linecap:square;stroke-linejoin:round;stroke-miterlimit:3.9"
           d="m 297.86882,572.81717 c -2.29481,-3.97472 -3.05073,-8.46393 -2.94875,-12.74147 0.15178,-6.36653 1.79129,-11.02607 3.91139,-15.2987 -0.14503,3.47708 1.46355,4.76416 1.31318,9.33824 6.60842,-27.46927 16.84179,-27.27148 26.16795,-36.10879 -0.75396,4.56216 -6.55145,10.93744 -6.05526,17.3268 7.92819,-10.6047 14.39078,-10.04493 20.80168,-16.94156 7.10453,-7.64283 18.47004,-10.02605 27.07966,-7.6117 -6.68826,1.45881 -8.86325,5.68594 -12.98599,8.31686 9.78267,-4.13608 16.11339,-3.21592 23.43611,-3.98296 5.98792,-0.62722 13.60534,-2.31631 18.14822,-0.83206 -2.558,0.0796 -5.02162,1.92623 -7.54431,2.80765 -3.47466,1.21403 -6.63968,3.21679 -8.79761,5.65512 3.73008,-1.25584 7.25313,-1.00546 8.75461,0.29182 -2.91018,-0.30555 -6.79689,1.88504 -10.18959,2.82907 -5.44876,1.51614 -10.22209,3.21002 -11.11327,5.92552 6.57323,-3.3236 10.4556,-2.03174 12.79306,-1.22038 -6.63459,0.233 -10.44549,5.85006 -22.71493,11.7259 10.44632,-3.5462 19.44441,-1.03248 29.91153,-0.58364 -6.69334,2.83722 -11.33195,1.87084 -14.29916,4.96094 10.06304,1.81221 20.22071,3.37209 28.01471,11.23507 -5.77075,-0.98494 -11.39739,-1.24934 -16.77965,-0.29182 12.17101,3.71271 14.05303,11.86615 22.47014,16.48782 -14.39645,0.48188 -19.30876,-10.97946 -35.16431,-7.87914 10.2894,3.38642 8.12076,10.13839 18.09284,16.77964 -12.90538,-0.16861 -18.78462,-8.3098 -28.74426,-3.64774 7.17486,1.78352 9.91968,5.72888 14.00736,10.21369 -9.03335,-2.41269 -22.22496,-8.05343 -28.51855,-3.61252 z"
           id="path6"
           sodipodi:nodetypes="csccccsccscsccscccccccccccccc" />
        <g
           id="g9"
           style="stroke:#ffc000;stroke-width:0.9525;stroke-linecap:round;stroke-dasharray:none;stroke-opacity:1"
           transform="matrix(0.66666667,0,0,0.66666667,184.03824,218.9071)">
          <path
             id="path7"
             style="fill:#662a00;fill-opacity:1;stroke:none;stroke-width:0.9525;stroke-linecap:round;stroke-linejoin:round;stroke-miterlimit:4;stroke-dasharray:none;stroke-opacity:1;paint-order:normal"
             d="m 211.13257,608.6221 -10.6035,28.83855 c 0,0 6.31114,-2.31684 9.41804,-1.61488 15.95882,3.60538 30.2833,12.00288 45.01431,15.7019 8.79978,2.20968 23.9897,6.87392 38.07882,11.00654 13.98674,-4.31562 26.95976,-10.92634 38.51185,-19.36779 -6.48202,-0.30494 -11.79084,-0.48983 -15.75098,-1.33224 -11.74201,-2.49778 -31.73724,-10.18361 -38.91649,-12.08763 -19.45512,-5.156 -40.89475,-8.49511 -60.47176,-15.64711 -2.38652,-0.8719 -5.28029,-5.49734 -5.28029,-5.49734 z" />
          <path
             style="fill:none;fill-opacity:1;stroke:#ffc000;stroke-width:0.9525;stroke-linecap:round;stroke-linejoin:round;stroke-miterlimit:3.9;stroke-dasharray:none;stroke-opacity:1"
             d="m 214.43075,629.09724 c 9.39741,6.0993 16.56078,13.86143 27.24869,20.79215"
             id="path8"
             sodipodi:nodetypes="cc" />
          <path
             style="fill:none;fill-opacity:1;stroke:#ffc000;stroke-width:0.9525;stroke-linecap:round;stroke-linejoin:round;stroke-miterlimit:3.9;stroke-dasharray:none;stroke-opacity:1"
             d="m 237.10089,619.8651 c 28.09229,10.82713 32.9945,13.53649 46.60061,22.47347"
             id="path9-9"
             sodipodi:nodetypes="cc" />
        </g>
        <g
           id="g35"
           style="fill:#662a00;fill-opacity:1;stroke:#ffc000;stroke-width:0.9525;stroke-linecap:round;stroke-dasharray:none;stroke-opacity:1;paint-order:normal"
           transform="matrix(0.66666667,0,0,0.66666667,184.03824,218.9071)">
          <g
             id="g12"
             style="fill:#662a00;fill-opacity:1;stroke:#ffc000;stroke-width:0.9525;stroke-linecap:round;stroke-dasharray:none;stroke-opacity:1;paint-order:normal">
            <path
               style="fill:#662a00;fill-opacity:1;stroke:#ffc000;stroke-width:0.9525;stroke-linecap:round;stroke-linejoin:round;stroke-miterlimit:4;stroke-dasharray:none;stroke-opacity:1;paint-order:normal"
               d="m 203.71683,607.2655 c -2.93828,-0.27509 -6.13867,-0.69759 -8.4506,-1.33703 -6.31501,-1.74665 -12.43466,-2.3694 -18.72026,-4.05362 -1.95133,1.03597 -2.80078,4.33252 -2.0719,6.48497 -2.52387,1.45671 -3.37829,4.77254 -1.89595,7.31085 -1.90011,1.85722 -2.74906,5.15181 -1.51631,7.35133 -1.27391,1.63302 -2.01641,4.51592 -0.005,6.0354 5.72076,1.67132 9.30321,3.83837 15.03696,5.46461 4.8985,1.38933 9.83562,3.35477 14.92618,3.24637 1.44303,-0.0307 2.9672,-0.32976 4.18815,-1.09955 1.27691,-0.80507 2.3708,-2.05268 2.92592,-3.45643 0.64304,-1.62609 0.26584,-5.23913 0.26584,-5.23913 0,0 4.47157,-5.44963 5.39145,-8.74959 0.67817,-2.4328 0.62557,-5.147 -0.0647,-7.57638 -0.41582,-1.46339 -2.36669,-3.90238 -2.36669,-3.90238"
               id="path10"
               inkscape:connector-curvature="0"
               sodipodi:nodetypes="cscccccsssscssc" />
            <path
               style="fill:#662a00;fill-opacity:1;stroke:#ffc000;stroke-width:0.9525;stroke-linecap:round;stroke-linejoin:round;stroke-miterlimit:4;stroke-dasharray:none;stroke-opacity:1;paint-order:normal"
               d="m 178.09282,614.00422 0.78019,6.62941 -1.93375,10.21031"
               id="path11"
               inkscape:connector-curvature="0" />
            <path
               sodipodi:nodetypes="ccccsscssc"
               inkscape:connector-curvature="0"
               id="path12"
               d="m 183.86609,629.60529 -0.35263,-7.58971 v 0 c 3.49069,6.49116 17.86737,13.02452 17.86737,13.02452 0,0 -14.37668,-6.53336 -17.86737,-13.02452 -1.75613,-3.26564 -0.87404,-7.42193 -0.51036,-11.11194 0.24862,-2.52254 1.82512,-7.382 1.82512,-7.382 0,0 -0.79023,2.15123 -0.80996,3.2759 -0.0732,4.17857 0.17881,8.84917 2.58083,12.26912 3.81192,5.42737 16.92581,10.45945 16.92581,10.45945"
               style="fill:none;fill-opacity:1;stroke:#ffc000;stroke-width:0.9525;stroke-linecap:round;stroke-linejoin:round;stroke-miterlimit:4;stroke-dasharray:none;stroke-opacity:1;paint-order:normal" />
          </g>
          <g
             transform="matrix(-0.3476263,1.3630533,-1.3630533,-0.3476263,1768.7754,-8208.7605)"
             id="g15"
             style="fill:#662a00;fill-opacity:1;stroke:#ffc000;stroke-width:0.677125;stroke-linecap:round;stroke-linejoin:round;stroke-miterlimit:4;stroke-dasharray:none;stroke-opacity:1;paint-order:normal">
            <path
               sodipodi:nodetypes="sszsssss"
               style="fill:#662a00;fill-opacity:1;stroke:#ffc000;stroke-width:0.677125;stroke-linecap:round;stroke-linejoin:round;stroke-miterlimit:4;stroke-dasharray:none;stroke-opacity:1;paint-order:normal"
               d="m 6364.2555,-450.82771 -0.1989,-6.42128 c -0.086,-2.77168 0.4959,-8.00147 -2.1313,-8.00847 -2.6273,-0.007 -2.0646,5.22666 -2.1719,7.9976 l -0.2491,6.43381 c -0.02,0.52878 0.6434,1.06887 1.1726,1.07018 l 2.4186,0.006 c 0.5278,10e-4 1.1763,-0.55027 1.16,-1.07784 z"
               id="path13"
               inkscape:connector-curvature="0" />
            <path
               style="fill:#662a00;fill-opacity:1;stroke:#ffc000;stroke-width:0.677125;stroke-linecap:round;stroke-linejoin:round;stroke-miterlimit:4;stroke-dasharray:none;stroke-opacity:1;paint-order:normal"
               d="m 6363.1143,-457.19367 -2.4186,-0.006"
               id="path14"
               inkscape:connector-curvature="0"
               sodipodi:nodetypes="cc" />
            <path
               sodipodi:nodetypes="sczcsss"
               inkscape:connector-curvature="0"
               id="path15"
               d="m 6360.4718,-464.59609 -0.01,2.60408 c 0,0 0.9471,0.42097 1.4508,0.42223 0.5037,10e-4 1.4529,-0.41489 1.4529,-0.41489 l 0.01,-2.60409 c 0,-0.58154 -0.8679,-0.96952 -1.4494,-0.971 -0.5816,-0.001 -1.4529,0.38212 -1.4544,0.96367 z"
               style="fill:#662a00;fill-opacity:1;stroke:#ffc000;stroke-width:0.677125;stroke-linecap:round;stroke-linejoin:round;stroke-miterlimit:4;stroke-dasharray:none;stroke-opacity:1;paint-order:normal" />
          </g>
          <g
             transform="matrix(-0.3476263,1.3630533,-1.3630533,-0.3476263,1773.0956,-8207.7433)"
             id="g18"
             style="fill:#662a00;fill-opacity:1;stroke:#ffc000;stroke-width:0.677125;stroke-linecap:round;stroke-linejoin:round;stroke-miterlimit:4;stroke-dasharray:none;stroke-opacity:1;paint-order:normal">
            <path
               inkscape:connector-curvature="0"
               id="path16"
               d="m 6368.6925,-448.20537 0.013,-4.81309 c 0.01,-2.23681 0.4199,-5.91622 -1.8169,-5.92222 -2.2368,-0.006 -1.744,3.67854 -1.8468,5.91296 l -0.2249,4.88742 c -0.02,0.44409 0.5395,0.89908 0.9841,0.90013 l 2.1163,0.005 c 0.414,9.8e-4 0.7741,-0.55625 0.7752,-0.9702 z"
               style="fill:#662a00;fill-opacity:1;stroke:#ffc000;stroke-width:0.677125;stroke-linecap:round;stroke-linejoin:round;stroke-miterlimit:4;stroke-dasharray:none;stroke-opacity:1;paint-order:normal"
               sodipodi:nodetypes="sszsssss" />
            <path
               style="fill:#662a00;fill-opacity:1;stroke:#ffc000;stroke-width:0.677125;stroke-linecap:round;stroke-linejoin:round;stroke-miterlimit:4;stroke-dasharray:none;stroke-opacity:1;paint-order:normal"
               d="m 6365.8155,-452.97366 2.1163,0.005"
               id="path17"
               inkscape:connector-curvature="0"
               sodipodi:nodetypes="cc" />
            <path
               sodipodi:nodetypes="sczcsss"
               inkscape:connector-curvature="0"
               id="path18"
               d="m 6365.6426,-458.27887 -0.01,2.23207 c 0,0 0.8118,0.36083 1.2435,0.36193 0.4317,10e-4 1.2454,-0.35564 1.2454,-0.35564 l 0.01,-2.23207 c 0,-0.49846 -0.744,-0.83102 -1.2424,-0.83227 -0.4985,-10e-4 -1.2453,0.32752 -1.2466,0.82598 z"
               style="fill:#662a00;fill-opacity:1;stroke:#ffc000;stroke-width:0.677125;stroke-linecap:round;stroke-linejoin:round;stroke-miterlimit:4;stroke-dasharray:none;stroke-opacity:1;paint-order:normal" />
          </g>
          <g
             transform="matrix(-0.34986694,1.3718389,-1.3718389,-0.34986694,1781.7339,-8272.9908)"
             id="g29"
             style="fill:#662a00;fill-opacity:1;stroke:#ffc000;stroke-width:0.672788;stroke-linecap:round;stroke-linejoin:round;stroke-miterlimit:4;stroke-dasharray:none;stroke-opacity:1;paint-order:normal">
            <path
               sodipodi:nodetypes="sszsssss"
               style="fill:#662a00;fill-opacity:1;stroke:#ffc000;stroke-width:0.672788;stroke-linecap:round;stroke-linejoin:round;stroke-miterlimit:4;stroke-dasharray:none;stroke-opacity:1;paint-order:normal"
               d="m 6364.2433,-449.81444 -0.1928,-6.92785 c -0.077,-2.77195 0.502,-8.50817 -2.1252,-8.51517 -2.6273,-0.007 -2.0761,5.73315 -2.178,8.5043 l -0.2552,6.94038 c -0.02,0.5288 0.6434,1.06887 1.1726,1.07018 l 2.4186,0.006 c 0.5278,0.001 1.1746,-0.55022 1.16,-1.07784 z"
               id="path25"
               inkscape:connector-curvature="0" />
            <path
               style="fill:#662a00;fill-opacity:1;stroke:#ffc000;stroke-width:0.672788;stroke-linecap:round;stroke-linejoin:round;stroke-miterlimit:4;stroke-dasharray:none;stroke-opacity:1;paint-order:normal"
               d="m 6363.1085,-456.71253 -2.4183,-0.0292"
               id="path26"
               inkscape:connector-curvature="0"
               sodipodi:nodetypes="cc" />
            <path
               sodipodi:nodetypes="sczcsss"
               inkscape:connector-curvature="0"
               id="path29"
               d="m 6360.4718,-464.59609 -0.01,2.60408 c 0,0 0.9471,0.42097 1.4508,0.42223 0.5037,10e-4 1.4529,-0.41489 1.4529,-0.41489 l 0.01,-2.60409 c 0,-0.58154 -0.8679,-0.96952 -1.4494,-0.971 -0.5816,-0.001 -1.4529,0.38212 -1.4544,0.96367 z"
               style="fill:#662a00;fill-opacity:1;stroke:#ffc000;stroke-width:0.672788;stroke-linecap:round;stroke-linejoin:round;stroke-miterlimit:4;stroke-dasharray:none;stroke-opacity:1;paint-order:normal" />
          </g>
          <g
             transform="matrix(-0.3476263,1.3630533,-1.3630533,-0.3476263,1772.692,-8223.3776)"
             id="g32"
             style="fill:#662a00;fill-opacity:1;stroke:#ffc000;stroke-width:0.677125;stroke-linecap:round;stroke-linejoin:round;stroke-miterlimit:4;stroke-dasharray:none;stroke-opacity:1;paint-order:normal">
            <path
               sodipodi:nodetypes="sszsssss"
               style="fill:#662a00;fill-opacity:1;stroke:#ffc000;stroke-width:0.677125;stroke-linecap:round;stroke-linejoin:round;stroke-miterlimit:4;stroke-dasharray:none;stroke-opacity:1;paint-order:normal"
               d="m 6364.2555,-450.82771 -0.1989,-6.42128 c -0.086,-2.77168 0.4959,-8.00147 -2.1313,-8.00847 -2.6273,-0.007 -2.0646,5.22666 -2.1719,7.9976 l -0.2491,6.43381 c -0.02,0.52878 0.6434,1.06887 1.1726,1.07018 l 2.4186,0.006 c 0.5278,10e-4 1.1763,-0.55027 1.16,-1.07784 z"
               id="path30"
               inkscape:connector-curvature="0" />
            <path
               style="fill:#662a00;fill-opacity:1;stroke:#ffc000;stroke-width:0.677125;stroke-linecap:round;stroke-linejoin:round;stroke-miterlimit:4;stroke-dasharray:none;stroke-opacity:1;paint-order:normal"
               d="m 6363.1143,-457.19367 -2.4186,-0.006"
               id="path31"
               inkscape:connector-curvature="0"
               sodipodi:nodetypes="cc" />
            <path
               sodipodi:nodetypes="sczcsss"
               inkscape:connector-curvature="0"
               id="path32"
               d="m 6360.4718,-464.59609 -0.01,2.60408 c 0,0 0.9471,0.42097 1.4508,0.42223 0.5037,10e-4 1.4529,-0.41489 1.4529,-0.41489 l 0.01,-2.60409 c 0,-0.58154 -0.8679,-0.96952 -1.4494,-0.971 -0.5816,-0.001 -1.4529,0.38212 -1.4544,0.96367 z"
               style="fill:#662a00;fill-opacity:1;stroke:#ffc000;stroke-width:0.677125;stroke-linecap:round;stroke-linejoin:round;stroke-miterlimit:4;stroke-dasharray:none;stroke-opacity:1;paint-order:normal" />
          </g>
          <g
             id="g34"
             style="fill:#662a00;fill-opacity:1;stroke:#ffc000;stroke-width:0.9525;stroke-linecap:round;stroke-dasharray:none;stroke-opacity:1;paint-order:normal">
            <path
               style="fill:#662a00;fill-opacity:1;stroke:#ffc000;stroke-width:0.9525;stroke-linecap:round;stroke-linejoin:round;stroke-miterlimit:4;stroke-dasharray:none;stroke-opacity:1;paint-order:normal"
               d="m 211.3602,607.74492 c 0,0 -8.69504,-8.26495 -14.27359,-9.54824 -3.47385,-0.79913 -6.7536,-1.65547 -9.58544,-2.64385 -1.91647,-0.66889 -4.06815,-0.0547 -6.08149,-0.313 -2.02538,-0.25986 -5.99916,-1.23974 -5.99916,-1.23974 -0.41045,1.35385 -0.16322,3.51345 0.81126,4.79287 1.06712,1.40105 6.2097,3.45332 8.64765,3.82279 0,0 1.04295,-0.43878 1.43861,-0.82477 0.38282,-0.37343 0.83221,-1.37166 0.83221,-1.37166 0,0 -0.4494,0.99822 -0.83221,1.37166 -0.2157,0.21043 -0.62378,0.43654 -0.95036,0.59871 l -0.0906,0.41952 c 3.01821,1.43432 6.50028,2.33697 9.94759,3.27948 0,0 -0.10396,0.98444 0.0454,1.44131 0.1301,0.39789 0.70965,1.03615 0.70965,1.03615"
               id="path33"
               inkscape:connector-curvature="0"
               sodipodi:nodetypes="cccscscscssscac" />
            <path
               style="fill:#662a00;fill-opacity:1;stroke:#ffc000;stroke-width:0.9525;stroke-linecap:round;stroke-linejoin:round;stroke-miterlimit:4;stroke-dasharray:none;stroke-opacity:1;paint-order:normal"
               d="m 181.41971,595.23984 c 0,0 -0.96301,0.90345 -1.57848,1.00775 -1.33498,0.22622 -3.4851,-0.44797 -3.95277,-0.93582 -0.4875,-0.50854 -0.71729,-1.07198 -0.96021,-1.63262 0,0 2.89027,0.42954 4.29973,0.80263 0.74738,0.19751 2.19173,0.75806 2.19173,0.75806 z"
               id="path34"
               inkscape:connector-curvature="0"
               sodipodi:nodetypes="csscsc" />
          </g>
        </g>
      </g>
    </g>
  </g>
</svg>
