<?xml version="1.0" encoding="UTF-8" standalone="no"?>
<!-- Created with Inkscape (http://www.inkscape.org/) -->

<svg
   xmlns:dc="http://purl.org/dc/elements/1.1/"
   xmlns:cc="http://creativecommons.org/ns#"
   xmlns:rdf="http://www.w3.org/1999/02/22-rdf-syntax-ns#"
   xmlns:svg="http://www.w3.org/2000/svg"
   xmlns="http://www.w3.org/2000/svg"
   xmlns:sodipodi="http://sodipodi.sourceforge.net/DTD/sodipodi-0.dtd"
   xmlns:inkscape="http://www.inkscape.org/namespaces/inkscape"
   width="2436"
   height="1800"
   viewBox="0 0 644.525 476.25001"
   version="1.1"
   id="svg8"
   inkscape:export-filename="C:\Users\厂永刄先生\Documents\GXI3CW2\,pjóŭ\Congo (Kinshasa).png"
   inkscape:export-xdpi="96"
   inkscape:export-ydpi="96"
   inkscape:version="0.92.4 (5da689c313, 2019-01-14)"
   sodipodi:docname="katanqa.svg">
  <defs
     id="defs2" />
  <sodipodi:namedview
     id="base"
     pagecolor="#ffffff"
     bordercolor="#666666"
     borderopacity="1.0"
     inkscape:pageopacity="0.0"
     inkscape:pageshadow="2"
     inkscape:zoom="0.21370339"
     inkscape:cx="1982.6401"
     inkscape:cy="957.7152"
     inkscape:document-units="px"
     inkscape:current-layer="layer1"
     showgrid="false"
     units="px"
     fit-margin-top="0"
     fit-margin-left="0"
     fit-margin-right="0"
     fit-margin-bottom="0"
     inkscape:showpageshadow="false"
     inkscape:snap-intersection-paths="false"
     inkscape:object-paths="false"
     inkscape:pagecheckerboard="true"
     inkscape:snap-smooth-nodes="true"
     inkscape:window-width="1920"
     inkscape:window-height="1051"
     inkscape:window-x="-9"
     inkscape:window-y="-9"
     inkscape:window-maximized="1"
     inkscape:object-nodes="true"
     inkscape:snap-nodes="true" />
  <metadata
     id="metadata5">
    <rdf:RDF>
      <cc:Work
         rdf:about="">
        <dc:format>image/svg+xml</dc:format>
        <dc:type
           rdf:resource="http://purl.org/dc/dcmitype/StillImage" />
        <dc:title />
      </cc:Work>
    </rdf:RDF>
  </metadata>
  <g
     inkscape:label="レイヤー 1"
     inkscape:groupmode="layer"
     id="layer1"
     transform="translate(-6.7279798,-418.33036)">
    <path
       style="fill:#ffffff;fill-opacity:1;stroke:none;stroke-width:0.51166773px;stroke-linecap:butt;stroke-linejoin:miter;stroke-opacity:1"
       d="M 16.25298,418.33036 H 6.7279798 v 476.25 H 16.25298 Z"
       id="path1079"
       inkscape:connector-curvature="0"
       sodipodi:nodetypes="ccccc" />
    <path
       sodipodi:nodetypes="cccc"
       inkscape:connector-curvature="0"
       id="path832"
       d="m 651.25299,894.58036 v -412.75 l -571.500009,412.75 z"
       style="fill:#ffffff;fill-opacity:1;stroke:none;stroke-width:1.20601237px;stroke-linecap:butt;stroke-linejoin:miter;stroke-opacity:1" />
    <path
       style="fill:#00c032;fill-opacity:1;stroke:none;stroke-width:0.3813746px;stroke-linecap:butt;stroke-linejoin:miter;stroke-opacity:1"
       d="m 79.752981,894.58036 571.500009,-412.75 v -63.5 h -63.5 l -571.50001,412.74999 0,63.50001 z"
       id="path822"
       inkscape:connector-curvature="0"
       sodipodi:nodetypes="ccccccc" />
    <path
       style="fill:#ff0000;fill-opacity:1;stroke:none;stroke-width:1.20601237px;stroke-linecap:butt;stroke-linejoin:miter;stroke-opacity:1"
       d="m 16.25298,418.33036 571.50001,0 -571.50001,412.74999 z"
       id="path826"
       inkscape:connector-curvature="0"
       sodipodi:nodetypes="cccc" />
    <g
       transform="translate(-144.44186,-133.85849)"
       id="g910">
      <path
         sodipodi:nodetypes="sssszsssszsssszsssszs"
         inkscape:connector-curvature="0"
         id="path904"
         d="m 711.02819,982.6866 -6.0751,-28.33109 c -0.60044,-2.80017 3.27493,-6.67551 6.0751,-6.07507 l 28.33105,6.07507 c 4.5938,0.98505 7.14375,-7.45192 7.14375,-12.15016 0,-4.69823 -2.54994,-13.13525 -7.14375,-12.15019 l -28.33105,6.0751 c -2.80018,0.60044 -6.67554,-3.27492 -6.0751,-6.0751 l 6.0751,-28.33105 c 0.98506,-4.59381 -7.45196,-7.14375 -12.1502,-7.14375 -4.69824,0 -13.13525,2.54994 -12.15019,7.14375 l 6.07509,28.33105 c 0.60044,2.80018 -3.27491,6.67554 -6.07509,6.0751 l -28.33106,-6.0751 c -4.59381,-0.98506 -7.14375,7.45196 -7.14375,12.15019 0,4.69824 2.54995,13.13521 7.14375,12.15016 l 28.33106,-6.07507 c 2.80018,-0.60044 6.67554,3.2749 6.07509,6.07507 l -6.07509,28.33109 c -0.98506,4.59378 7.45195,7.14375 12.15019,7.14375 4.69824,0 13.13526,-2.54997 12.1502,-7.14375 z"
         style="fill:#ff0000;fill-opacity:1;stroke:none;stroke-width:0.133129px;stroke-linecap:butt;stroke-linejoin:miter;stroke-opacity:1" />
      <path
         style="fill:#ff0000;fill-opacity:1;stroke:none;stroke-width:0.133129px;stroke-linecap:butt;stroke-linejoin:miter;stroke-opacity:1"
         d="m 639.59069,882.14494 -6.0751,-28.33109 c -0.60044,-2.80017 3.27493,-6.67551 6.0751,-6.07507 l 28.33105,6.07507 c 4.5938,0.98505 7.14375,-7.45192 7.14375,-12.15016 0,-4.69823 -2.54994,-13.13525 -7.14375,-12.15019 l -28.33105,6.0751 c -2.80018,0.60044 -6.67554,-3.27492 -6.0751,-6.0751 l 6.0751,-28.33105 c 0.98506,-4.59381 -7.45196,-7.14375 -12.1502,-7.14375 -4.69824,0 -13.13525,2.54994 -12.15019,7.14375 l 6.07509,28.33105 c 0.60044,2.80018 -3.27491,6.67554 -6.07509,6.0751 l -28.33106,-6.0751 c -4.59381,-0.98506 -7.14375,7.45196 -7.14375,12.15019 0,4.69824 2.54995,13.13521 7.14375,12.15016 l 28.33106,-6.07507 c 2.80018,-0.60044 6.67554,3.2749 6.07509,6.07507 l -6.07509,28.33109 c -0.98506,4.59378 7.45195,7.14375 12.15019,7.14375 4.69824,0 13.13526,-2.54997 12.1502,-7.14375 z"
         id="path906"
         inkscape:connector-curvature="0"
         sodipodi:nodetypes="sssszsssszsssszsssszs" />
      <path
         sodipodi:nodetypes="sssszsssszsssszsssszs"
         inkscape:connector-curvature="0"
         id="path908"
         d="m 568.15316,982.6866 -6.0751,-28.33109 c -0.60044,-2.80017 3.27493,-6.67551 6.0751,-6.07507 l 28.33105,6.07507 c 4.5938,0.98505 7.14375,-7.45192 7.14375,-12.15016 0,-4.69823 -2.54994,-13.13525 -7.14375,-12.15019 l -28.33105,6.0751 c -2.80018,0.60044 -6.67554,-3.27492 -6.0751,-6.0751 l 6.0751,-28.33105 c 0.98506,-4.59381 -7.45196,-7.14375 -12.1502,-7.14375 -4.69824,0 -13.13525,2.54994 -12.15019,7.14375 l 6.07509,28.33105 c 0.60044,2.80018 -3.27491,6.67554 -6.07509,6.0751 l -28.33106,-6.0751 c -4.59381,-0.98506 -7.14375,7.45196 -7.14375,12.15019 0,4.69824 2.54995,13.13521 7.14375,12.15016 l 28.33106,-6.07507 c 2.80018,-0.60044 6.67554,3.2749 6.07509,6.07507 l -6.07509,28.33109 c -0.98506,4.59378 7.45195,7.14375 12.15019,7.14375 4.69824,0 13.13526,-2.54997 12.1502,-7.14375 z"
         style="fill:#ff0000;fill-opacity:1;stroke:none;stroke-width:0.133129px;stroke-linecap:butt;stroke-linejoin:miter;stroke-opacity:1" />
    </g>
  </g>
</svg>
