<?xml version="1.0" encoding="UTF-8" standalone="no"?>
<!-- Created with Inkscape (http://www.inkscape.org/) -->

<svg
   width="2736"
   height="1800"
   viewBox="0 0 723.89999 476.25001"
   version="1.1"
   id="svg8"
   inkscape:export-filename="C:\Users\厂永刄先生\Documents\GXI3CW2\JáÈŭcèŭ\Maqkàla\Maqkàla.png"
   inkscape:export-xdpi="96"
   inkscape:export-ydpi="96"
   inkscape:version="1.3 (0e150ed6c4, 2023-07-21)"
   sodipodi:docname="in_1947_000-010.svg"
   xmlns:inkscape="http://www.inkscape.org/namespaces/inkscape"
   xmlns:sodipodi="http://sodipodi.sourceforge.net/DTD/sodipodi-0.dtd"
   xmlns="http://www.w3.org/2000/svg"
   xmlns:svg="http://www.w3.org/2000/svg"
   xmlns:rdf="http://www.w3.org/1999/02/22-rdf-syntax-ns#"
   xmlns:cc="http://creativecommons.org/ns#"
   xmlns:dc="http://purl.org/dc/elements/1.1/">
  <defs
     id="defs2" />
  <sodipodi:namedview
     id="base"
     pagecolor="#ffffff"
     bordercolor="#666666"
     borderopacity="1.0"
     inkscape:pageopacity="0.0"
     inkscape:pageshadow="2"
     inkscape:zoom="0.30222222"
     inkscape:cx="1622.978"
     inkscape:cy="1040.625"
     inkscape:document-units="px"
     inkscape:current-layer="layer1"
     showgrid="false"
     units="px"
     fit-margin-top="0"
     fit-margin-left="0"
     fit-margin-right="0"
     fit-margin-bottom="0"
     inkscape:showpageshadow="false"
     inkscape:snap-intersection-paths="false"
     inkscape:object-paths="false"
     inkscape:pagecheckerboard="true"
     inkscape:snap-smooth-nodes="true"
     inkscape:window-width="1920"
     inkscape:window-height="1009"
     inkscape:window-x="-8"
     inkscape:window-y="-8"
     inkscape:window-maximized="1"
     inkscape:object-nodes="true"
     inkscape:deskcolor="#505050" />
  <metadata
     id="metadata5">
    <rdf:RDF>
      <cc:Work
         rdf:about="">
        <dc:format>image/svg+xml</dc:format>
        <dc:type
           rdf:resource="http://purl.org/dc/dcmitype/StillImage" />
      </cc:Work>
    </rdf:RDF>
  </metadata>
  <g
     inkscape:label="レイヤー 1"
     inkscape:groupmode="layer"
     id="layer1"
     transform="translate(-616.85715,-299.26786)">
    <g
       id="g829"
       inkscape:export-xdpi="96"
       inkscape:export-ydpi="96" />
    <path
       style="fill:#ffffff;fill-opacity:1;stroke:none;stroke-width:0.511668px;stroke-linecap:butt;stroke-linejoin:miter;stroke-opacity:1"
       d="m 626.38215,299.26786 h -9.525 v 476.25 h 9.525 z"
       id="path1366"
       inkscape:connector-curvature="0"
       sodipodi:nodetypes="ccccc" />
    <path
       style="fill:#06038d;fill-opacity:1;stroke:none;stroke-width:2.0261px;stroke-linecap:butt;stroke-linejoin:miter;stroke-opacity:1"
       d="m 983.56965,537.39286 h -357.1875 v 238.125 h 714.37505 v -476.25 H 983.56965 Z"
       id="path1368"
       inkscape:connector-curvature="0"
       sodipodi:nodetypes="ccccccc" />
    <path
       style="fill:#046a38;fill-opacity:1;stroke:none;stroke-width:0.506526px;stroke-linecap:butt;stroke-linejoin:miter;stroke-opacity:1"
       d="m 626.38215,458.01786 v 79.375 h 357.1875 v -79.375 z"
       id="path1370"
       inkscape:connector-curvature="0"
       sodipodi:nodetypes="ccccc" />
    <path
       sodipodi:nodetypes="ccccc"
       inkscape:connector-curvature="0"
       id="path1372"
       d="m 626.38215,378.64286 v 79.375 h 357.1875 v -79.375 z"
       style="fill:#ffffff;fill-opacity:1;stroke:none;stroke-width:0.506526px;stroke-linecap:butt;stroke-linejoin:miter;stroke-opacity:1" />
    <path
       style="fill:#ff671f;fill-opacity:1;stroke:none;stroke-width:0.506526px;stroke-linecap:butt;stroke-linejoin:miter;stroke-opacity:1"
       d="m 626.38215,299.26786 v 79.375 h 357.1875 v -79.375 z"
       id="path1374"
       inkscape:connector-curvature="0"
       sodipodi:nodetypes="ccccc" />
    <g
       transform="matrix(0.5,0,0,0.5,677.78691,393.0506)"
       id="g1476"
       style="fill:#06038d;fill-opacity:1">
      <path
         style="opacity:1;fill:#06038d;fill-opacity:1;fill-rule:evenodd;stroke:none;stroke-width:0.222391;stroke-linecap:round;stroke-linejoin:round;stroke-miterlimit:4;stroke-dasharray:none;stroke-dashoffset:0;stroke-opacity:1"
         d="m 180.9561,50.559521 c 0,40.549785 32.8721,73.421879 73.42188,73.421879 40.54978,0 73.42187,-32.872098 73.42187,-73.421879 0,-40.549781 -32.87209,-73.421872 -73.42187,-73.421875 -40.54978,-3e-6 -73.42188,32.87209 -73.42188,73.421875 z m 139.56771,0 c 0,36.531335 -29.61449,66.145839 -66.14583,66.145839 -36.53134,0 -66.14584,-29.6145 -66.14584,-66.145839 0,-36.531339 29.6145,-66.145839 66.14584,-66.145836 36.53134,3e-6 66.14583,29.614501 66.14583,66.145836 z"
         id="path1376"
         inkscape:connector-curvature="0"
         sodipodi:nodetypes="zzzzzzzzzz" />
      <path
         sodipodi:nodetypes="zzzzz"
         inkscape:connector-curvature="0"
         id="path1378"
         d="m 239.6936,50.559523 c 0,8.109965 6.57443,14.684375 14.68438,14.684375 8.10998,0 14.68437,-6.574431 14.68437,-14.684375 0,-8.109965 -6.57439,-14.684375 -14.68437,-14.684375 -8.10995,0 -14.68438,6.57441 -14.68438,14.684375 z"
         style="opacity:1;fill:#06038d;fill-opacity:1;fill-rule:evenodd;stroke:none;stroke-width:0.0444782;stroke-linecap:round;stroke-linejoin:round;stroke-miterlimit:4;stroke-dasharray:none;stroke-dashoffset:0;stroke-opacity:1" />
      <path
         style="fill:#06038d;fill-opacity:1;stroke:none;stroke-width:0.259238px;stroke-linecap:butt;stroke-linejoin:miter;stroke-opacity:1"
         d="m 251.20298,18.809521 3.175,31.75 3.175,-31.749996 -3.175,-31.750004 z"
         id="path1380"
         inkscape:connector-curvature="0"
         sodipodi:nodetypes="ccccc" />
      <path
         style="opacity:1;fill:#06038d;fill-opacity:1;fill-rule:evenodd;stroke:none;stroke-width:0.0100176;stroke-linecap:round;stroke-linejoin:round;stroke-miterlimit:4;stroke-dasharray:none;stroke-dashoffset:0;stroke-opacity:1"
         d="m 242.46522,-14.588741 c 0.23842,1.810943 1.89975,3.085724 3.71067,2.847311 1.81095,-0.238415 3.08574,-1.899749 2.84732,-3.710687 -0.23841,-1.810941 -1.89975,-3.085722 -3.71069,-2.847307 -1.81093,0.238412 -3.08572,1.899742 -2.8473,3.710683 z"
         id="path1382"
         inkscape:connector-curvature="0"
         sodipodi:nodetypes="zzzzz" />
      <path
         sodipodi:nodetypes="ccccc"
         inkscape:connector-curvature="0"
         id="path1384"
         d="m 243.09366,20.713126 11.28432,29.846395 -5.15069,-31.489892 -11.28432,-29.846398 z"
         style="fill:#06038d;fill-opacity:1;stroke:none;stroke-width:0.259238px;stroke-linecap:butt;stroke-linejoin:miter;stroke-opacity:1" />
      <path
         sodipodi:nodetypes="zzzzz"
         inkscape:connector-curvature="0"
         id="path1386"
         d="m 226.00953,-9.2856198 c 0.699,1.687529 2.63366,2.488889 4.32117,1.7898992 1.68753,-0.6989996 2.4889,-2.6336654 1.7899,-4.3211894 -0.69899,-1.687529 -2.63366,-2.488887 -4.32119,-1.78989 -1.68752,0.698992 -2.48889,2.633653 -1.78988,4.3211802 z"
         style="opacity:1;fill:#06038d;fill-opacity:1;fill-rule:evenodd;stroke:none;stroke-width:0.0100176;stroke-linecap:round;stroke-linejoin:round;stroke-miterlimit:4;stroke-dasharray:none;stroke-dashoffset:0;stroke-opacity:1" />
      <path
         sodipodi:nodetypes="ccccc"
         inkscape:connector-curvature="0"
         id="path1388"
         d="M 235.75335,24.650714 254.37798,50.559521 241.25261,21.475718 222.62798,-4.4330919 Z"
         style="fill:#06038d;fill-opacity:1;stroke:none;stroke-width:0.259238px;stroke-linecap:butt;stroke-linejoin:miter;stroke-opacity:1" />
      <path
         sodipodi:nodetypes="zzzzz"
         inkscape:connector-curvature="0"
         id="path1390"
         d="m 211.4871,0.09584912 c 1.11194,1.44911268 3.18809,1.72244038 4.63719,0.61050866 1.44912,-1.11194844 1.72245,-3.18810088 0.6105,-4.63720918 -1.11194,-1.4491159 -3.18809,-1.7224387 -4.6372,-0.6104952 -1.44911,1.1119358 -1.72244,3.1880848 -0.61049,4.63719572 z"
         style="opacity:1;fill:#06038d;fill-opacity:1;fill-rule:evenodd;stroke:none;stroke-width:0.0100176;stroke-linecap:round;stroke-linejoin:round;stroke-miterlimit:4;stroke-dasharray:none;stroke-dashoffset:0;stroke-opacity:1" />
      <path
         sodipodi:nodetypes="ccccc"
         inkscape:connector-curvature="0"
         id="path1392"
         d="M 229.68227,30.353941 254.37798,50.559517 234.1724,25.863815 209.4767,5.6582363 Z"
         style="fill:#06038d;fill-opacity:1;stroke:none;stroke-width:0.259238px;stroke-linecap:butt;stroke-linejoin:miter;stroke-opacity:1" />
      <path
         sodipodi:nodetypes="zzzzz"
         inkscape:connector-curvature="0"
         id="path1394"
         d="m 199.88761,12.916332 c 1.44911,1.111942 3.52526,0.838611 4.63719,-0.610487 1.11195,-1.449119 0.83862,-3.5252726 -0.61049,-4.6372108 -1.44911,-1.1119473 -3.52527,-0.8386088 -4.63721,0.610504 -1.11194,1.4491036 -0.83861,3.5252538 0.61051,4.6371938 z"
         style="opacity:1;fill:#06038d;fill-opacity:1;fill-rule:evenodd;stroke:none;stroke-width:0.0100176;stroke-linecap:round;stroke-linejoin:round;stroke-miterlimit:4;stroke-dasharray:none;stroke-dashoffset:0;stroke-opacity:1" />
      <path
         style="fill:#06038d;fill-opacity:1;stroke:none;stroke-width:0.259238px;stroke-linecap:butt;stroke-linejoin:miter;stroke-opacity:1"
         d="M 225.29417,37.434148 254.37798,50.559517 228.46917,31.934889 199.38536,18.809517 Z"
         id="path1396"
         inkscape:connector-curvature="0"
         sodipodi:nodetypes="ccccc" />
      <path
         style="opacity:1;fill:#06038d;fill-opacity:1;fill-rule:evenodd;stroke:none;stroke-width:0.0100176;stroke-linecap:round;stroke-linejoin:round;stroke-miterlimit:4;stroke-dasharray:none;stroke-dashoffset:0;stroke-opacity:1"
         d="m 192.00155,28.302135 c 1.68753,0.698996 3.62219,-0.102368 4.32118,-1.789878 0.69899,-1.687532 -0.10237,-3.622201 -1.78989,-4.321193 -1.68753,-0.699003 -3.62219,0.10237 -4.32119,1.789899 -0.699,1.687519 0.10236,3.622185 1.7899,4.321172 z"
         id="path1398"
         inkscape:connector-curvature="0"
         sodipodi:nodetypes="zzzzz" />
      <path
         style="fill:#06038d;fill-opacity:1;stroke:none;stroke-width:0.259238px;stroke-linecap:butt;stroke-linejoin:miter;stroke-opacity:1"
         d="m 222.88808,45.408826 31.4899,5.150691 -29.8464,-11.284316 -31.48989,-5.150693 z"
         id="path1400"
         inkscape:connector-curvature="0"
         sodipodi:nodetypes="ccccc" />
      <path
         style="opacity:1;fill:#06038d;fill-opacity:1;fill-rule:evenodd;stroke:none;stroke-width:0.0100176;stroke-linecap:round;stroke-linejoin:round;stroke-miterlimit:4;stroke-dasharray:none;stroke-dashoffset:0;stroke-opacity:1"
         d="m 188.36634,45.204744 c 1.81094,0.238417 3.47227,-1.03637 3.71068,-2.847293 0.23842,-1.810949 -1.03637,-3.472284 -2.84731,-3.710691 -1.81094,-0.238419 -3.47227,1.036372 -3.71068,2.84731 -0.23842,1.810933 1.03637,3.472266 2.84731,3.710674 z"
         id="path1402"
         inkscape:connector-curvature="0"
         sodipodi:nodetypes="zzzzz" />
      <path
         sodipodi:nodetypes="ccccc"
         inkscape:connector-curvature="0"
         id="path1404"
         d="m 222.62798,53.734517 31.75,-3.175 -31.75,-3.175 -31.75,3.175 z"
         style="fill:#06038d;fill-opacity:1;stroke:none;stroke-width:0.259238px;stroke-linecap:butt;stroke-linejoin:miter;stroke-opacity:1" />
      <path
         sodipodi:nodetypes="zzzzz"
         inkscape:connector-curvature="0"
         id="path1406"
         d="m 189.22971,62.472277 c 1.81095,-0.23842 3.08573,-1.89975 2.84732,-3.71067 -0.23842,-1.81095 -1.89975,-3.08574 -3.71069,-2.84732 -1.81094,0.23841 -3.08572,1.89975 -2.84731,3.71069 0.23841,1.81093 1.89974,3.08572 3.71068,2.8473 z"
         style="opacity:1;fill:#06038d;fill-opacity:1;fill-rule:evenodd;stroke:none;stroke-width:0.0100176;stroke-linecap:round;stroke-linejoin:round;stroke-miterlimit:4;stroke-dasharray:none;stroke-dashoffset:0;stroke-opacity:1" />
      <path
         style="fill:#06038d;fill-opacity:1;stroke:none;stroke-width:0.259238px;stroke-linecap:butt;stroke-linejoin:miter;stroke-opacity:1"
         d="m 224.53158,61.843837 29.8464,-11.28432 -31.4899,5.15069 -29.84639,11.28432 z"
         id="path1408"
         inkscape:connector-curvature="0"
         sodipodi:nodetypes="ccccc" />
      <path
         style="opacity:1;fill:#06038d;fill-opacity:1;fill-rule:evenodd;stroke:none;stroke-width:0.0100176;stroke-linecap:round;stroke-linejoin:round;stroke-miterlimit:4;stroke-dasharray:none;stroke-dashoffset:0;stroke-opacity:1"
         d="m 194.53284,78.927967 c 1.68752,-0.699 2.48888,-2.63366 1.78989,-4.32117 -0.69899,-1.68753 -2.63366,-2.4889 -4.32118,-1.7899 -1.68753,0.69899 -2.48889,2.63366 -1.78989,4.32119 0.69899,1.68752 2.63365,2.48889 4.32118,1.78988 z"
         id="path1410"
         inkscape:connector-curvature="0"
         sodipodi:nodetypes="zzzzz" />
      <path
         style="fill:#06038d;fill-opacity:1;stroke:none;stroke-width:0.259238px;stroke-linecap:butt;stroke-linejoin:miter;stroke-opacity:1"
         d="m 228.46917,69.184147 25.90881,-18.62463 -29.08381,13.12537 -25.90881,18.62463 z"
         id="path1412"
         inkscape:connector-curvature="0"
         sodipodi:nodetypes="ccccc" />
      <path
         style="opacity:1;fill:#06038d;fill-opacity:1;fill-rule:evenodd;stroke:none;stroke-width:0.0100176;stroke-linecap:round;stroke-linejoin:round;stroke-miterlimit:4;stroke-dasharray:none;stroke-dashoffset:0;stroke-opacity:1"
         d="m 203.9143,93.450397 c 1.44912,-1.11194 1.72244,-3.18809 0.61051,-4.63719 -1.11195,-1.44912 -3.1881,-1.72245 -4.63721,-0.6105 -1.44911,1.11194 -1.72243,3.18809 -0.61049,4.6372 1.11193,1.44911 3.18808,1.72244 4.63719,0.61049 z"
         id="path1414"
         inkscape:connector-curvature="0"
         sodipodi:nodetypes="zzzzz" />
      <path
         style="fill:#06038d;fill-opacity:1;stroke:none;stroke-width:0.259238px;stroke-linecap:butt;stroke-linejoin:miter;stroke-opacity:1"
         d="m 234.1724,75.255227 20.20557,-24.69571 -24.6957,20.20558 -20.20558,24.6957 z"
         id="path1416"
         inkscape:connector-curvature="0"
         sodipodi:nodetypes="ccccc" />
      <path
         style="opacity:1;fill:#06038d;fill-opacity:1;fill-rule:evenodd;stroke:none;stroke-width:0.0100176;stroke-linecap:round;stroke-linejoin:round;stroke-miterlimit:4;stroke-dasharray:none;stroke-dashoffset:0;stroke-opacity:1"
         d="m 216.73479,105.04989 c 1.11194,-1.44911 0.83861,-3.52526 -0.61049,-4.63719 -1.44912,-1.111953 -3.52527,-0.838623 -4.63721,0.61049 -1.11195,1.44911 -0.83861,3.52527 0.6105,4.63721 1.44911,1.11194 3.52526,0.83861 4.6372,-0.61051 z"
         id="path1418"
         inkscape:connector-curvature="0"
         sodipodi:nodetypes="zzzzz" />
      <path
         sodipodi:nodetypes="ccccc"
         inkscape:connector-curvature="0"
         id="path1420"
         d="m 241.2526,79.643327 13.12537,-29.08381 -18.62463,25.90881 -13.12537,29.083813 z"
         style="fill:#06038d;fill-opacity:1;stroke:none;stroke-width:0.259238px;stroke-linecap:butt;stroke-linejoin:miter;stroke-opacity:1" />
      <path
         sodipodi:nodetypes="zzzzz"
         inkscape:connector-curvature="0"
         id="path1422"
         d="m 232.12059,112.93595 c 0.699,-1.68753 -0.10237,-3.62219 -1.78988,-4.32118 -1.68753,-0.69899 -3.6222,0.10237 -4.32119,1.78989 -0.699,1.68753 0.10237,3.62219 1.7899,4.32119 1.68752,0.699 3.62218,-0.10236 4.32117,-1.7899 z"
         style="opacity:1;fill:#06038d;fill-opacity:1;fill-rule:evenodd;stroke:none;stroke-width:0.0100176;stroke-linecap:round;stroke-linejoin:round;stroke-miterlimit:4;stroke-dasharray:none;stroke-dashoffset:0;stroke-opacity:1" />
      <path
         sodipodi:nodetypes="ccccc"
         inkscape:connector-curvature="0"
         id="path1424"
         d="m 249.22728,82.049417 5.15069,-31.4899 -11.28431,29.8464 -5.1507,31.489893 z"
         style="fill:#06038d;fill-opacity:1;stroke:none;stroke-width:0.259238px;stroke-linecap:butt;stroke-linejoin:miter;stroke-opacity:1" />
      <path
         sodipodi:nodetypes="zzzzz"
         inkscape:connector-curvature="0"
         id="path1426"
         d="m 249.0232,116.57116 c 0.23842,-1.81094 -1.03637,-3.47227 -2.84729,-3.71068 -1.81095,-0.23842 -3.47229,1.03637 -3.71069,2.84731 -0.23842,1.81094 1.03637,3.47227 2.84731,3.71068 1.81093,0.23842 3.47226,-1.03637 3.71067,-2.84731 z"
         style="opacity:1;fill:#06038d;fill-opacity:1;fill-rule:evenodd;stroke:none;stroke-width:0.0100176;stroke-linecap:round;stroke-linejoin:round;stroke-miterlimit:4;stroke-dasharray:none;stroke-dashoffset:0;stroke-opacity:1" />
      <path
         style="fill:#06038d;fill-opacity:1;stroke:none;stroke-width:0.259238px;stroke-linecap:butt;stroke-linejoin:miter;stroke-opacity:1"
         d="m 257.55297,82.309522 -3.175,-31.75 -3.175,31.75 3.175,31.749998 z"
         id="path1428"
         inkscape:connector-curvature="0"
         sodipodi:nodetypes="ccccc" />
      <path
         style="opacity:1;fill:#06038d;fill-opacity:1;fill-rule:evenodd;stroke:none;stroke-width:0.0100176;stroke-linecap:round;stroke-linejoin:round;stroke-miterlimit:4;stroke-dasharray:none;stroke-dashoffset:0;stroke-opacity:1"
         d="m 266.29073,115.70779 c -0.23842,-1.81095 -1.89975,-3.08573 -3.71067,-2.84732 -1.81095,0.23842 -3.08574,1.89975 -2.84732,3.71069 0.23841,1.81094 1.89975,3.08572 3.71069,2.84731 1.81093,-0.23841 3.08572,-1.89974 2.8473,-3.71068 z"
         id="path1430"
         inkscape:connector-curvature="0"
         sodipodi:nodetypes="zzzzz" />
      <path
         sodipodi:nodetypes="ccccc"
         inkscape:connector-curvature="0"
         id="path1432"
         d="m 265.66229,80.405922 -11.28432,-29.8464 5.15069,31.4899 11.28432,29.846388 z"
         style="fill:#06038d;fill-opacity:1;stroke:none;stroke-width:0.259238px;stroke-linecap:butt;stroke-linejoin:miter;stroke-opacity:1" />
      <path
         sodipodi:nodetypes="zzzzz"
         inkscape:connector-curvature="0"
         id="path1434"
         d="m 282.74642,110.40466 c -0.699,-1.68752 -2.63366,-2.48888 -4.32117,-1.78989 -1.68753,0.69899 -2.4889,2.63366 -1.7899,4.32118 0.69899,1.68753 2.63366,2.48889 4.32119,1.78989 1.68752,-0.69899 2.48889,-2.63365 1.78988,-4.32118 z"
         style="opacity:1;fill:#06038d;fill-opacity:1;fill-rule:evenodd;stroke:none;stroke-width:0.0100176;stroke-linecap:round;stroke-linejoin:round;stroke-miterlimit:4;stroke-dasharray:none;stroke-dashoffset:0;stroke-opacity:1" />
      <path
         sodipodi:nodetypes="ccccc"
         inkscape:connector-curvature="0"
         id="path1436"
         d="m 273.0026,76.468332 -18.62463,-25.90881 13.12537,29.08381 18.62463,25.908808 z"
         style="fill:#06038d;fill-opacity:1;stroke:none;stroke-width:0.259238px;stroke-linecap:butt;stroke-linejoin:miter;stroke-opacity:1" />
      <path
         sodipodi:nodetypes="zzzzz"
         inkscape:connector-curvature="0"
         id="path1438"
         d="m 297.26885,101.0232 c -1.11194,-1.449118 -3.18809,-1.722438 -4.63719,-0.61051 -1.44912,1.11195 -1.72245,3.1881 -0.6105,4.63721 1.11194,1.44911 3.18809,1.72243 4.6372,0.61049 1.44911,-1.11193 1.72244,-3.18808 0.61049,-4.63719 z"
         style="opacity:1;fill:#06038d;fill-opacity:1;fill-rule:evenodd;stroke:none;stroke-width:0.0100176;stroke-linecap:round;stroke-linejoin:round;stroke-miterlimit:4;stroke-dasharray:none;stroke-dashoffset:0;stroke-opacity:1" />
      <path
         sodipodi:nodetypes="ccccc"
         inkscape:connector-curvature="0"
         id="path1440"
         d="m 279.07368,70.765102 -24.69571,-20.20557 20.20558,24.6957 24.6957,20.20558 z"
         style="fill:#06038d;fill-opacity:1;stroke:none;stroke-width:0.259238px;stroke-linecap:butt;stroke-linejoin:miter;stroke-opacity:1" />
      <path
         sodipodi:nodetypes="zzzzz"
         inkscape:connector-curvature="0"
         id="path1442"
         d="m 308.86835,88.202712 c -1.44911,-1.11194 -3.52526,-0.83861 -4.63719,0.61049 -1.11196,1.44912 -0.83863,3.52527 0.61049,4.63721 1.44911,1.11195 3.52527,0.83861 4.63721,-0.6105 1.11194,-1.44911 0.83861,-3.52526 -0.61051,-4.6372 z"
         style="opacity:1;fill:#06038d;fill-opacity:1;fill-rule:evenodd;stroke:none;stroke-width:0.0100176;stroke-linecap:round;stroke-linejoin:round;stroke-miterlimit:4;stroke-dasharray:none;stroke-dashoffset:0;stroke-opacity:1" />
      <path
         style="fill:#06038d;fill-opacity:1;stroke:none;stroke-width:0.259238px;stroke-linecap:butt;stroke-linejoin:miter;stroke-opacity:1"
         d="m 283.46178,63.684902 -29.08381,-13.12537 25.90881,18.62463 29.08382,13.12537 z"
         id="path1444"
         inkscape:connector-curvature="0"
         sodipodi:nodetypes="ccccc" />
      <path
         style="opacity:1;fill:#06038d;fill-opacity:1;fill-rule:evenodd;stroke:none;stroke-width:0.0100176;stroke-linecap:round;stroke-linejoin:round;stroke-miterlimit:4;stroke-dasharray:none;stroke-dashoffset:0;stroke-opacity:1"
         d="m 316.75441,72.816912 c -1.68753,-0.699 -3.62219,0.10237 -4.32118,1.78988 -0.69899,1.68753 0.10237,3.6222 1.78989,4.32119 1.68753,0.699 3.62219,-0.10237 4.32119,-1.7899 0.699,-1.68752 -0.10236,-3.62218 -1.7899,-4.32117 z"
         id="path1446"
         inkscape:connector-curvature="0"
         sodipodi:nodetypes="zzzzz" />
      <path
         style="fill:#06038d;fill-opacity:1;stroke:none;stroke-width:0.259238px;stroke-linecap:butt;stroke-linejoin:miter;stroke-opacity:1"
         d="m 285.86787,55.710222 -31.4899,-5.15069 29.8464,11.28431 31.4899,5.1507 z"
         id="path1448"
         inkscape:connector-curvature="0"
         sodipodi:nodetypes="ccccc" />
      <path
         style="opacity:1;fill:#06038d;fill-opacity:1;fill-rule:evenodd;stroke:none;stroke-width:0.0100176;stroke-linecap:round;stroke-linejoin:round;stroke-miterlimit:4;stroke-dasharray:none;stroke-dashoffset:0;stroke-opacity:1"
         d="m 320.38962,55.914302 c -1.81094,-0.23842 -3.47227,1.03637 -3.71068,2.84729 -0.23842,1.81095 1.03637,3.47229 2.84731,3.71069 1.81094,0.23842 3.47227,-1.03637 3.71068,-2.84731 0.23842,-1.81093 -1.03637,-3.47226 -2.84731,-3.71067 z"
         id="path1450"
         inkscape:connector-curvature="0"
         sodipodi:nodetypes="zzzzz" />
      <path
         sodipodi:nodetypes="ccccc"
         inkscape:connector-curvature="0"
         id="path1452"
         d="m 286.12798,47.38453 -31.75,3.175 31.75,3.175 31.75,-3.175 z"
         style="fill:#06038d;fill-opacity:1;stroke:none;stroke-width:0.259238px;stroke-linecap:butt;stroke-linejoin:miter;stroke-opacity:1" />
      <path
         sodipodi:nodetypes="zzzzz"
         inkscape:connector-curvature="0"
         id="path1454"
         d="m 319.52625,38.64677 c -1.81095,0.23842 -3.08573,1.89975 -2.84732,3.71067 0.23842,1.81095 1.89975,3.08574 3.71069,2.84732 1.81094,-0.23841 3.08572,-1.89975 2.84731,-3.71069 -0.23841,-1.81093 -1.89974,-3.08572 -3.71068,-2.8473 z"
         style="opacity:1;fill:#06038d;fill-opacity:1;fill-rule:evenodd;stroke:none;stroke-width:0.0100176;stroke-linecap:round;stroke-linejoin:round;stroke-miterlimit:4;stroke-dasharray:none;stroke-dashoffset:0;stroke-opacity:1" />
      <path
         style="fill:#06038d;fill-opacity:1;stroke:none;stroke-width:0.259238px;stroke-linecap:butt;stroke-linejoin:miter;stroke-opacity:1"
         d="m 284.22438,39.27521 -29.8464,11.28432 31.4899,-5.15069 29.84639,-11.28432 z"
         id="path1456"
         inkscape:connector-curvature="0"
         sodipodi:nodetypes="ccccc" />
      <path
         style="opacity:1;fill:#06038d;fill-opacity:1;fill-rule:evenodd;stroke:none;stroke-width:0.0100176;stroke-linecap:round;stroke-linejoin:round;stroke-miterlimit:4;stroke-dasharray:none;stroke-dashoffset:0;stroke-opacity:1"
         d="m 314.22312,22.19108 c -1.68752,0.699 -2.48888,2.63366 -1.78989,4.32117 0.69899,1.68753 2.63366,2.4889 4.32118,1.7899 1.68753,-0.69899 2.48889,-2.63366 1.78989,-4.32119 -0.69899,-1.68752 -2.63365,-2.48889 -4.32118,-1.78988 z"
         id="path1458"
         inkscape:connector-curvature="0"
         sodipodi:nodetypes="zzzzz" />
      <path
         style="fill:#06038d;fill-opacity:1;stroke:none;stroke-width:0.259238px;stroke-linecap:butt;stroke-linejoin:miter;stroke-opacity:1"
         d="M 280.28679,31.9349 254.37798,50.55953 283.46179,37.43416 309.3706,18.80953 Z"
         id="path1460"
         inkscape:connector-curvature="0"
         sodipodi:nodetypes="ccccc" />
      <path
         style="opacity:1;fill:#06038d;fill-opacity:1;fill-rule:evenodd;stroke:none;stroke-width:0.0100176;stroke-linecap:round;stroke-linejoin:round;stroke-miterlimit:4;stroke-dasharray:none;stroke-dashoffset:0;stroke-opacity:1"
         d="m 304.84166,7.6686501 c -1.44912,1.11194 -1.72244,3.1880899 -0.61051,4.6371899 1.11195,1.44912 3.1881,1.72245 4.63721,0.6105 1.44911,-1.11194 1.72243,-3.1880899 0.61049,-4.6371999 -1.11193,-1.44911 -3.18808,-1.72244 -4.63719,-0.61049 z"
         id="path1462"
         inkscape:connector-curvature="0"
         sodipodi:nodetypes="zzzzz" />
      <path
         style="fill:#06038d;fill-opacity:1;stroke:none;stroke-width:0.259238px;stroke-linecap:butt;stroke-linejoin:miter;stroke-opacity:1"
         d="M 274.58356,25.86382 254.37799,50.55953 279.07369,30.35395 299.27927,5.6582501 Z"
         id="path1464"
         inkscape:connector-curvature="0"
         sodipodi:nodetypes="ccccc" />
      <path
         style="opacity:1;fill:#06038d;fill-opacity:1;fill-rule:evenodd;stroke:none;stroke-width:0.0100176;stroke-linecap:round;stroke-linejoin:round;stroke-miterlimit:4;stroke-dasharray:none;stroke-dashoffset:0;stroke-opacity:1"
         d="m 292.02117,-3.9308499 c -1.11194,1.44911 -0.83861,3.52525997 0.61049,4.63718997 1.44912,1.11196003 3.52527,0.83863003 4.63721,-0.61049 1.11195,-1.44910997 0.83861,-3.52526997 -0.6105,-4.63720997 -1.44911,-1.11194 -3.52526,-0.83861 -4.6372,0.61051 z"
         id="path1466"
         inkscape:connector-curvature="0"
         sodipodi:nodetypes="zzzzz" />
      <path
         sodipodi:nodetypes="ccccc"
         inkscape:connector-curvature="0"
         id="path1468"
         d="M 267.50336,21.47572 254.37799,50.55953 273.00262,24.65072 286.12799,-4.4330999 Z"
         style="fill:#06038d;fill-opacity:1;stroke:none;stroke-width:0.259238px;stroke-linecap:butt;stroke-linejoin:miter;stroke-opacity:1" />
      <path
         sodipodi:nodetypes="zzzzz"
         inkscape:connector-curvature="0"
         id="path1470"
         d="m 276.63537,-11.81691 c -0.699,1.68753 0.10237,3.6221901 1.78988,4.3211801 1.68753,0.69899 3.6222,-0.10237 4.32119,-1.78989 0.699,-1.6875301 -0.10237,-3.6221901 -1.7899,-4.3211901 -1.68752,-0.699 -3.62218,0.10236 -4.32117,1.7899 z"
         style="opacity:1;fill:#06038d;fill-opacity:1;fill-rule:evenodd;stroke:none;stroke-width:0.0100176;stroke-linecap:round;stroke-linejoin:round;stroke-miterlimit:4;stroke-dasharray:none;stroke-dashoffset:0;stroke-opacity:1" />
      <path
         sodipodi:nodetypes="ccccc"
         inkscape:connector-curvature="0"
         id="path1472"
         d="m 259.52868,19.06963 -5.15069,31.4899 11.28431,-29.8464 5.1507,-31.4899 z"
         style="fill:#06038d;fill-opacity:1;stroke:none;stroke-width:0.259238px;stroke-linecap:butt;stroke-linejoin:miter;stroke-opacity:1" />
      <path
         sodipodi:nodetypes="zzzzz"
         inkscape:connector-curvature="0"
         id="path1474"
         d="m 259.73276,-15.45212 c -0.23842,1.81094 1.03637,3.47227 2.84729,3.71068 1.81095,0.23842 3.47229,-1.03637 3.71069,-2.84731 0.23842,-1.81094 -1.03637,-3.47227 -2.84731,-3.71068 -1.81093,-0.23842 -3.47226,1.03637 -3.71067,2.84731 z"
         style="opacity:1;fill:#06038d;fill-opacity:1;fill-rule:evenodd;stroke:none;stroke-width:0.0100176;stroke-linecap:round;stroke-linejoin:round;stroke-miterlimit:4;stroke-dasharray:none;stroke-dashoffset:0;stroke-opacity:1" />
    </g>
    <path
       id="path2-5"
       style="color:#000000;fill:#ffc000;fill-opacity:1;stroke:none;stroke-width:0.421434;stroke-dasharray:none;stroke-opacity:1"
       d="m 1035.5241,537.39286 c 0,-8.03062 6.5822,-14.61278 14.6127,-14.61278 5.8427,0 10.9151,3.4862 13.2472,8.47727 h 6.1619 v -31.85914 h 10.6758 l 5.3388,31.85914 h 157.207 c 6.9836,0 13.5106,-7.14671 13.5106,-19.38438 0,-30.36522 -45.9429,-47.9082 -56.3052,-49.78206 6.1625,-2.53414 17.1992,-5.28074 25.2803,-3.50976 -1.376,0.69847 -3.7191,2.49739 -3.7526,4.25386 0,0 32.9768,10.47478 41.7823,24.89433 12.7089,20.81176 18.2372,45.45891 25.5199,49.66352 -7.2827,4.20458 -12.811,28.85175 -25.5199,49.66352 -8.8055,14.41952 -41.7823,24.89432 -41.7823,24.89432 0.033,1.75648 2.3766,3.5554 3.7526,4.25387 -8.0811,1.77098 -19.1178,-0.97564 -25.2803,-3.50978 10.3623,-1.87386 56.3052,-19.41683 56.3052,-49.78205 0,-12.23767 -6.527,-19.38357 -13.5106,-19.38357 h -157.207 l -5.3388,31.85832 h -10.6758 v -31.85832 h -6.1619 c -2.3323,4.98943 -7.4049,8.47234 -13.2472,8.47234 -8.0305,0 -14.6127,-6.57803 -14.6127,-14.60865 z m 6.6532,0 c 0,4.43562 3.5239,7.9587 7.9595,7.9587 4.4357,0 7.9587,-3.52308 7.9587,-7.9587 0,-4.43564 -3.523,-7.96283 -7.9587,-7.96283 -4.4356,0 -7.9595,3.52719 -7.9595,7.96283 z"
       sodipodi:nodetypes="sscccccsscccscscccsscccccsssssss" />
  </g>
</svg>
