<?xml version="1.0" encoding="UTF-8" standalone="no"?>
<!-- Created with Inkscape (http://www.inkscape.org/) -->

<svg
   width="1800"
   height="1800"
   viewBox="0 0 476.25 476.25001"
   version="1.1"
   id="svg8"
   inkscape:export-filename="C:\Users\厂永刄先生\Documents\GXI3CW2\,pjóŭ\Tunisie.png"
   inkscape:export-xdpi="96"
   inkscape:export-ydpi="96"
   inkscape:version="1.3 (0e150ed6c4, 2023-07-21)"
   sodipodi:docname="tn_1959_roundel.svg"
   xmlns:inkscape="http://www.inkscape.org/namespaces/inkscape"
   xmlns:sodipodi="http://sodipodi.sourceforge.net/DTD/sodipodi-0.dtd"
   xmlns="http://www.w3.org/2000/svg"
   xmlns:svg="http://www.w3.org/2000/svg"
   xmlns:rdf="http://www.w3.org/1999/02/22-rdf-syntax-ns#"
   xmlns:cc="http://creativecommons.org/ns#"
   xmlns:dc="http://purl.org/dc/elements/1.1/">
  <defs
     id="defs2" />
  <sodipodi:namedview
     id="base"
     pagecolor="#ffffff"
     bordercolor="#666666"
     borderopacity="1.0"
     inkscape:pageopacity="0.0"
     inkscape:pageshadow="2"
     inkscape:zoom="0.23540764"
     inkscape:cx="826.22638"
     inkscape:cy="1442.1792"
     inkscape:document-units="px"
     inkscape:current-layer="layer1"
     showgrid="false"
     units="px"
     fit-margin-top="0"
     fit-margin-left="0"
     fit-margin-right="0"
     fit-margin-bottom="0"
     inkscape:showpageshadow="false"
     inkscape:snap-intersection-paths="true"
     inkscape:object-paths="false"
     inkscape:pagecheckerboard="true"
     inkscape:snap-smooth-nodes="false"
     inkscape:window-width="1920"
     inkscape:window-height="1009"
     inkscape:window-x="-8"
     inkscape:window-y="-8"
     inkscape:window-maximized="1"
     inkscape:object-nodes="true"
     inkscape:snap-nodes="true"
     inkscape:deskcolor="#505050" />
  <metadata
     id="metadata5">
    <rdf:RDF>
      <cc:Work
         rdf:about="">
        <dc:format>image/svg+xml</dc:format>
        <dc:type
           rdf:resource="http://purl.org/dc/dcmitype/StillImage" />
      </cc:Work>
    </rdf:RDF>
  </metadata>
  <g
     inkscape:label="レイヤー 1"
     inkscape:groupmode="layer"
     id="layer1"
     transform="translate(-132.64309,-419.02979)">
    <g
       id="g3">
      <path
         style="fill:#e70013;fill-opacity:1;fill-rule:evenodd;stroke:none;stroke-width:0.749652;stroke-linecap:round;stroke-linejoin:round;stroke-miterlimit:4;stroke-dasharray:none;stroke-dashoffset:0;stroke-opacity:1"
         d="m 608.89309,657.15481 c 0,131.5128 -106.6122,238.12498 -238.12502,238.12498 -131.51282,0 -238.12498,-106.61218 -238.12498,-238.12498 0,-131.51282 106.61216,-238.12502 238.12498,-238.12502 131.51282,0 238.12502,106.6122 238.12502,238.12502 z"
         id="path1"
         inkscape:connector-curvature="0"
         sodipodi:nodetypes="zzzzz" />
      <path
         style="fill:#ffffff;fill-opacity:1;fill-rule:evenodd;stroke:none;stroke-width:0.674687;stroke-linecap:round;stroke-linejoin:round;stroke-miterlimit:4;stroke-dasharray:none;stroke-dashoffset:0;stroke-opacity:1"
         d="m 585.08059,657.15481 c 0,118.36152 -95.95098,214.31248 -214.31251,214.31248 -118.36154,0 -214.31249,-95.95096 -214.31249,-214.31248 0,-118.36154 95.95095,-214.31252 214.31249,-214.31252 118.36153,0 214.31251,95.95098 214.31251,214.31252 z"
         id="path815"
         inkscape:connector-curvature="0"
         sodipodi:nodetypes="zzzzz" />
      <path
         style="fill:#e70013;fill-opacity:1;fill-rule:evenodd;stroke:none;stroke-width:0.506016;stroke-linecap:round;stroke-linejoin:round;stroke-miterlimit:4;stroke-dasharray:none;stroke-dashoffset:0;stroke-opacity:1"
         d="m 370.7681,496.42042 c -88.77114,0 -160.73437,71.96322 -160.73437,160.73438 0,88.77114 71.96323,160.73438 160.73437,160.73438 53.40439,0 100.71621,-26.05202 129.94558,-66.1327 -22.90605,21.09654 -53.48716,33.98582 -87.08308,33.98582 -71.01692,0 -128.5875,-57.57058 -128.5875,-128.5875 0,-71.01693 57.57058,-128.5875 128.5875,-128.5875 33.59592,0 64.17703,12.8893 87.08308,33.98583 -29.22932,-40.08071 -76.54119,-66.13271 -129.94558,-66.13271 z"
         id="path818"
         inkscape:connector-curvature="0"
         sodipodi:nodetypes="szscszscs" />
      <path
         style="fill:#e70013;fill-opacity:1;fill-rule:evenodd;stroke:none;stroke-width:11.9062;stroke-linecap:round;stroke-linejoin:round;stroke-miterlimit:4;stroke-dasharray:none;stroke-dashoffset:0;stroke-opacity:1"
         inkscape:transform-center-y="1.6826825e-05"
         d="m 425.01388,692.18894 66.63881,21.65228 -41.18504,-56.68638 41.18504,-56.68639 -66.63881,21.65227 -41.18508,-56.68637 -10e-6,70.0682 -66.63883,21.65227 66.63883,21.65229 10e-6,70.06821 z"
         id="path824"
         inkscape:connector-curvature="0"
         sodipodi:nodetypes="ccccccccccc" />
    </g>
  </g>
</svg>
