<?xml version="1.0" encoding="UTF-8" standalone="no"?>
<!-- Created with Inkscape (http://www.inkscape.org/) -->

<svg
   xmlns:dc="http://purl.org/dc/elements/1.1/"
   xmlns:cc="http://creativecommons.org/ns#"
   xmlns:rdf="http://www.w3.org/1999/02/22-rdf-syntax-ns#"
   xmlns:svg="http://www.w3.org/2000/svg"
   xmlns="http://www.w3.org/2000/svg"
   xmlns:sodipodi="http://sodipodi.sourceforge.net/DTD/sodipodi-0.dtd"
   xmlns:inkscape="http://www.inkscape.org/namespaces/inkscape"
   width="3636"
   height="1800"
   viewBox="0 0 962.02499 476.25001"
   version="1.1"
   id="svg8"
   inkscape:export-filename="C:\Users\厂永刄先生\Documents\GXI3CW2\JáÈŭcèŭ\Maqkàla\Maqkàla.png"
   inkscape:export-xdpi="96"
   inkscape:export-ydpi="96"
   inkscape:version="0.92.4 (5da689c313, 2019-01-14)"
   sodipodi:docname="1914.svg">
  <defs
     id="defs2" />
  <sodipodi:namedview
     id="base"
     pagecolor="#ffffff"
     bordercolor="#666666"
     borderopacity="1.0"
     inkscape:pageopacity="0.0"
     inkscape:pageshadow="2"
     inkscape:zoom="0.24532453"
     inkscape:cx="1818"
     inkscape:cy="900"
     inkscape:document-units="px"
     inkscape:current-layer="layer1"
     showgrid="false"
     units="px"
     fit-margin-top="0"
     fit-margin-left="0"
     fit-margin-right="0"
     fit-margin-bottom="0"
     inkscape:showpageshadow="false"
     inkscape:snap-intersection-paths="false"
     inkscape:object-paths="false"
     inkscape:pagecheckerboard="true"
     inkscape:snap-smooth-nodes="false"
     inkscape:window-width="1366"
     inkscape:window-height="745"
     inkscape:window-x="-8"
     inkscape:window-y="-8"
     inkscape:window-maximized="1"
     inkscape:object-nodes="true" />
  <metadata
     id="metadata5">
    <rdf:RDF>
      <cc:Work
         rdf:about="">
        <dc:format>image/svg+xml</dc:format>
        <dc:type
           rdf:resource="http://purl.org/dc/dcmitype/StillImage" />
        <dc:title />
      </cc:Work>
    </rdf:RDF>
  </metadata>
  <g
     inkscape:label="レイヤー 1"
     inkscape:groupmode="layer"
     id="layer1"
     transform="translate(102.80952,-299.26786)">
    <path
       style="fill:#ff0101;fill-opacity:1;stroke:none;stroke-width:0.26458332px;stroke-linecap:butt;stroke-linejoin:miter;stroke-opacity:1"
       d="M -102.80952,775.51785 V 299.26786 h 952.5 v 476.25 z"
       id="path818"
       inkscape:connector-curvature="0"
       sodipodi:nodetypes="ccccc" />
    <path
       style="fill:#ffffff;fill-opacity:1;stroke:none;stroke-width:0.51166773px;stroke-linecap:butt;stroke-linejoin:miter;stroke-opacity:1"
       d="m 859.21548,299.26786 h -9.525 v 476.25 h 9.525 z"
       id="path819"
       inkscape:connector-curvature="0"
       sodipodi:nodetypes="ccccc" />
    <g
       aria-label="كويت"
       style="font-style:normal;font-variant:normal;font-weight:normal;font-stretch:normal;font-size:16.93333244px;line-height:1.25;font-family:Impact;-inkscape-font-specification:Impact;text-align:center;letter-spacing:0px;word-spacing:0px;text-anchor:middle;fill:#ffffff;fill-opacity:1;stroke:none;stroke-width:0.26458332"
       id="text819"
       transform="translate(-5.5632176,-3.76284)">
      <path
         d="m 547.46889,458.83514 -5.68441,12.7124 q -17.77669,5.89112 -32.03939,10.95541 -14.26269,5.06429 -25.52815,9.71517 -25.63152,10.43864 -25.63152,14.26269 0,1.86035 14.15935,9.30176 5.58105,2.89388 9.92187,6.71794 4.34082,3.7207 7.64812,8.68164 6.61458,9.40511 6.61458,20.36051 0,5.271 -2.06706,9.09506 -2.06706,3.7207 -5.68441,6.20117 -3.51399,2.48047 -8.47493,4.03076 -4.85759,1.44694 -10.54199,2.17041 -5.68441,0.72347 -11.98894,0.93017 -6.30452,0.20671 -12.60905,0.20671 l 4.13412,-12.5057 q 2.89388,0 7.2347,0 4.34082,-0.10335 9.09505,-0.41341 4.85759,-0.31006 9.61182,-0.93017 4.85758,-0.62012 8.68164,-1.757 3.92741,-1.24024 6.30452,-3.10059 2.48047,-1.86035 2.48047,-4.54752 0,-4.96094 -9.09505,-13.43588 -8.57829,-7.85482 -16.53646,-11.57552 -8.68164,-4.13411 -10.85205,-6.30452 -1.86035,-2.27377 -1.86035,-8.68164 0,-7.95817 1.9637,-11.47217 0.82683,-1.65365 5.271,-4.44418 4.44417,-2.89388 12.5057,-7.2347 12.9191,-6.82129 31.00586,-13.95263 18.1901,-7.2347 41.96126,-14.98617 z"
         style="font-style:normal;font-variant:normal;font-weight:normal;font-stretch:normal;font-size:211.66667175px;font-family:'Traditional Arabic';-inkscape-font-specification:'Traditional Arabic';fill:#ffffff;fill-opacity:1;stroke-width:0.26458332"
         id="path825"
         inkscape:connector-curvature="0" />
      <path
         d="m 456.72506,569.11265 q 0,1.44694 -1.03352,2.48047 -0.93018,0.93017 -2.58383,1.55029 -1.55029,0.51677 -3.61735,0.82682 -1.9637,0.20671 -4.13411,0.20671 h -5.16764 q -5.16765,20.05046 -11.67888,30.28239 -12.09228,19.01693 -28.31868,19.01693 -8.88835,0 -24.18457,-8.68164 l 1.75699,-1.86035 q 6.82129,2.89388 12.299,2.89388 15.39957,0 28.9388,-12.299 13.64258,-12.40234 16.84652,-29.35221 h -3.61735 q -4.75424,0 -8.37159,-0.41341 -3.51399,-0.41341 -6.51123,-1.757 -4.13411,-1.757 -6.40788,-4.23747 -2.17041,-2.48047 -2.17041,-5.4777 0,-1.757 0.51677,-4.03076 0.51676,-2.27376 1.34359,-4.75423 0.93017,-2.48047 2.06705,-5.06429 1.24024,-2.58382 2.58383,-4.96094 2.58382,-4.65088 4.75423,-6.71794 2.27376,-2.06705 4.85758,-2.06705 5.99447,0 10.64535,8.06152 4.54752,7.95817 5.06429,18.91357 h 8.88834 q 2.89388,0 5.06429,0.93018 2.17041,0.93018 2.17041,3.30729 z m -23.56445,-7.44141 q -1.55029,-6.40787 -4.54752,-9.40511 -2.99724,-2.99723 -5.58106,-2.99723 -0.93018,0 -2.06706,0.41341 -1.13688,0.31006 -2.06705,1.03353 -0.93018,0.62012 -1.5503,1.55029 -0.62011,0.82683 -0.62011,1.86035 0,3.3073 5.06429,5.58106 2.48046,1.13688 4.75423,1.55029 2.27376,0.41341 6.61458,0.41341 z"
         style="font-style:normal;font-variant:normal;font-weight:normal;font-stretch:normal;font-size:211.66667175px;font-family:'Traditional Arabic';-inkscape-font-specification:'Traditional Arabic';fill:#ffffff;fill-opacity:1;stroke-width:0.26458332"
         id="path827"
         inkscape:connector-curvature="0" />
      <path
         d="m 383.34452,589.88658 -6.82129,10.9554 -10.9554,-7.02799 -6.20118,9.61181 -10.74869,-6.61458 6.30452,-11.16211 11.47217,6.92464 5.68441,-9.50846 z m -6.20117,-43.40821 q 0,8.88835 -2.37712,14.36605 -2.27376,5.4777 -6.30452,8.47494 -4.03076,2.89388 -9.61182,3.9274 -5.58105,0.93018 -12.09229,0.93018 l 4.13412,-12.5057 q 4.44417,0 8.88835,-0.41341 4.54752,-0.41341 7.4414,-1.757 5.271,-2.48047 5.271,-5.6844 0,-1.65365 -1.03353,-3.3073 l -4.44417,-7.2347 q -1.44694,-2.37711 -1.44694,-4.44417 0,-2.17041 1.24023,-4.03076 l 5.37435,-8.26823 h 0.51676 q 4.44418,9.81852 4.44418,19.9471 z"
         style="font-style:normal;font-variant:normal;font-weight:normal;font-stretch:normal;font-size:211.66667175px;font-family:'Traditional Arabic';-inkscape-font-specification:'Traditional Arabic';fill:#ffffff;fill-opacity:1;stroke-width:0.26458332"
         id="path829"
         inkscape:connector-curvature="0" />
      <path
         d="m 290.94706,516.60939 -6.71794,11.05876 -10.85205,-7.02799 -6.30453,9.92187 -11.47216,-6.92464 7.02799,-11.47217 11.26546,7.028 6.30453,-9.50847 z m 66.97265,52.1932 q 0,1.24024 -1.34358,2.27376 -1.24024,0.93018 -3.10059,1.65365 -1.757,0.62012 -3.7207,1.03353 -1.96371,0.41341 -3.20394,0.41341 -2.89388,0 -5.68441,-0.41341 -2.79053,-0.51677 -5.06429,-1.757 -2.17041,-1.24023 -3.82406,-3.30729 -1.55029,-2.17041 -2.06705,-5.58106 h -0.62012 q -5.271,3.92741 -12.29899,7.44141 -6.92464,3.41064 -15.39958,5.99447 -8.47493,2.48047 -18.29346,4.03076 -9.81852,1.44694 -20.67057,1.44694 -52.08984,0 -52.08984,-28.62875 0,-8.88834 8.06152,-24.28792 l 2.37712,1.03353 q -4.23747,8.78499 -4.23747,14.15934 0,10.54199 13.84928,17.25993 13.74593,6.51123 36.89698,6.51123 5.89111,0 12.40234,-0.51676 6.51123,-0.51677 12.91911,-1.5503 6.40788,-1.13688 12.5057,-2.89388 6.09781,-1.75699 11.26546,-4.23746 5.27099,-2.58383 9.30176,-5.78776 4.13411,-3.3073 6.51123,-7.54476 l 1.24023,0.41341 q 0.51677,4.34082 1.65365,7.33805 1.13688,2.99723 3.10058,4.85759 1.96371,1.86035 4.96094,2.68717 2.99723,0.82682 7.33805,0.82682 0.93018,0 2.17041,0.31006 1.24024,0.31006 2.37712,0.93018 1.13688,0.51676 1.86035,1.34359 0.82682,0.82682 0.82682,1.86035 z"
         style="font-style:normal;font-variant:normal;font-weight:normal;font-stretch:normal;font-size:211.66667175px;font-family:'Traditional Arabic';-inkscape-font-specification:'Traditional Arabic';fill:#ffffff;fill-opacity:1;stroke-width:0.26458332"
         id="path831"
         inkscape:connector-curvature="0" />
    </g>
  </g>
</svg>
