<?xml version="1.0" encoding="UTF-8" standalone="no"?>
<!-- Created with Inkscape (http://www.inkscape.org/) -->

<svg
   xmlns:dc="http://purl.org/dc/elements/1.1/"
   xmlns:cc="http://creativecommons.org/ns#"
   xmlns:rdf="http://www.w3.org/1999/02/22-rdf-syntax-ns#"
   xmlns:svg="http://www.w3.org/2000/svg"
   xmlns="http://www.w3.org/2000/svg"
   xmlns:sodipodi="http://sodipodi.sourceforge.net/DTD/sodipodi-0.dtd"
   xmlns:inkscape="http://www.inkscape.org/namespaces/inkscape"
   width="3636"
   height="1800"
   viewBox="0 0 962.02499 476.25001"
   version="1.1"
   id="svg8"
   inkscape:export-filename="C:\Users\厂永刄先生\Documents\GXI3CW2\JáÈŭcèŭ\Maqkàla\Maqkàla.png"
   inkscape:export-xdpi="96"
   inkscape:export-ydpi="96"
   inkscape:version="0.92.4 (5da689c313, 2019-01-14)"
   sodipodi:docname="1940.svg">
  <defs
     id="defs2" />
  <sodipodi:namedview
     id="base"
     pagecolor="#ffffff"
     bordercolor="#666666"
     borderopacity="1.0"
     inkscape:pageopacity="0.0"
     inkscape:pageshadow="2"
     inkscape:zoom="0.24532453"
     inkscape:cx="1818"
     inkscape:cy="900"
     inkscape:document-units="px"
     inkscape:current-layer="layer1"
     showgrid="false"
     units="px"
     fit-margin-top="0"
     fit-margin-left="0"
     fit-margin-right="0"
     fit-margin-bottom="0"
     inkscape:showpageshadow="false"
     inkscape:snap-intersection-paths="false"
     inkscape:object-paths="false"
     inkscape:pagecheckerboard="true"
     inkscape:snap-smooth-nodes="false"
     inkscape:window-width="1366"
     inkscape:window-height="745"
     inkscape:window-x="-8"
     inkscape:window-y="-8"
     inkscape:window-maximized="1"
     inkscape:object-nodes="true" />
  <metadata
     id="metadata5">
    <rdf:RDF>
      <cc:Work
         rdf:about="">
        <dc:format>image/svg+xml</dc:format>
        <dc:type
           rdf:resource="http://purl.org/dc/dcmitype/StillImage" />
        <dc:title></dc:title>
      </cc:Work>
    </rdf:RDF>
  </metadata>
  <g
     inkscape:label="レイヤー 1"
     inkscape:groupmode="layer"
     id="layer1"
     transform="translate(102.80952,-299.26786)">
    <path
       style="fill:#ff0101;fill-opacity:1;stroke:none;stroke-width:0.26458332px;stroke-linecap:butt;stroke-linejoin:miter;stroke-opacity:1"
       d="M -102.80952,775.51785 V 299.26786 h 952.5 v 476.25 z"
       id="path818"
       inkscape:connector-curvature="0"
       sodipodi:nodetypes="ccccc" />
    <path
       style="fill:#ffffff;fill-opacity:1;stroke:none;stroke-width:0.51166773px;stroke-linecap:butt;stroke-linejoin:miter;stroke-opacity:1"
       d="m 859.21548,299.26786 h -9.525 v 476.25 h 9.525 z"
       id="path819"
       inkscape:connector-curvature="0"
       sodipodi:nodetypes="ccccc" />
    <g
       aria-label="كويت"
       style="font-style:normal;font-variant:normal;font-weight:normal;font-stretch:normal;font-size:16.93333244px;line-height:1.25;font-family:Impact;-inkscape-font-specification:Impact;text-align:center;letter-spacing:0px;word-spacing:0px;text-anchor:middle;fill:#ffffff;fill-opacity:1;stroke:none;stroke-width:0.26458332"
       id="text819"
       transform="translate(-5.5632176,-3.76284)">
      <path
         d="m 547.46889,458.83514 -5.68441,12.7124 q -17.77669,5.89112 -32.03939,10.95541 -14.26269,5.06429 -25.52815,9.71517 -25.63152,10.43864 -25.63152,14.26269 0,1.86035 14.15935,9.30176 5.58105,2.89388 9.92187,6.71794 4.34082,3.7207 7.64812,8.68164 6.61458,9.40511 6.61458,20.36051 0,5.271 -2.06706,9.09506 -2.06706,3.7207 -5.68441,6.20117 -3.51399,2.48047 -8.47493,4.03076 -4.85759,1.44694 -10.54199,2.17041 -5.68441,0.72347 -11.98894,0.93017 -6.30452,0.20671 -12.60905,0.20671 l 4.13412,-12.5057 q 2.89388,0 7.2347,0 4.34082,-0.10335 9.09505,-0.41341 4.85759,-0.31006 9.61182,-0.93017 4.85758,-0.62012 8.68164,-1.757 3.92741,-1.24024 6.30452,-3.10059 2.48047,-1.86035 2.48047,-4.54752 0,-4.96094 -9.09505,-13.43588 -8.57829,-7.85482 -16.53646,-11.57552 -8.68164,-4.13411 -10.85205,-6.30452 -1.86035,-2.27377 -1.86035,-8.68164 0,-7.95817 1.9637,-11.47217 0.82683,-1.65365 5.271,-4.44418 4.44417,-2.89388 12.5057,-7.2347 12.9191,-6.82129 31.00586,-13.95263 18.1901,-7.2347 41.96126,-14.98617 z"
         style="font-style:normal;font-variant:normal;font-weight:normal;font-stretch:normal;font-size:211.66667175px;font-family:'Traditional Arabic';-inkscape-font-specification:'Traditional Arabic';fill:#ffffff;fill-opacity:1;stroke-width:0.26458332"
         id="path825"
         inkscape:connector-curvature="0" />
      <path
         d="m 456.72506,569.11265 q 0,1.44694 -1.03352,2.48047 -0.93018,0.93017 -2.58383,1.55029 -1.55029,0.51677 -3.61735,0.82682 -1.9637,0.20671 -4.13411,0.20671 h -5.16764 q -5.16765,20.05046 -11.67888,30.28239 -12.09228,19.01693 -28.31868,19.01693 -8.88835,0 -24.18457,-8.68164 l 1.75699,-1.86035 q 6.82129,2.89388 12.299,2.89388 15.39957,0 28.9388,-12.299 13.64258,-12.40234 16.84652,-29.35221 h -3.61735 q -4.75424,0 -8.37159,-0.41341 -3.51399,-0.41341 -6.51123,-1.757 -4.13411,-1.757 -6.40788,-4.23747 -2.17041,-2.48047 -2.17041,-5.4777 0,-1.757 0.51677,-4.03076 0.51676,-2.27376 1.34359,-4.75423 0.93017,-2.48047 2.06705,-5.06429 1.24024,-2.58382 2.58383,-4.96094 2.58382,-4.65088 4.75423,-6.71794 2.27376,-2.06705 4.85758,-2.06705 5.99447,0 10.64535,8.06152 4.54752,7.95817 5.06429,18.91357 h 8.88834 q 2.89388,0 5.06429,0.93018 2.17041,0.93018 2.17041,3.30729 z m -23.56445,-7.44141 q -1.55029,-6.40787 -4.54752,-9.40511 -2.99724,-2.99723 -5.58106,-2.99723 -0.93018,0 -2.06706,0.41341 -1.13688,0.31006 -2.06705,1.03353 -0.93018,0.62012 -1.5503,1.55029 -0.62011,0.82683 -0.62011,1.86035 0,3.3073 5.06429,5.58106 2.48046,1.13688 4.75423,1.55029 2.27376,0.41341 6.61458,0.41341 z"
         style="font-style:normal;font-variant:normal;font-weight:normal;font-stretch:normal;font-size:211.66667175px;font-family:'Traditional Arabic';-inkscape-font-specification:'Traditional Arabic';fill:#ffffff;fill-opacity:1;stroke-width:0.26458332"
         id="path827"
         inkscape:connector-curvature="0" />
      <path
         d="m 383.34452,589.88658 -6.82129,10.9554 -10.9554,-7.02799 -6.20118,9.61181 -10.74869,-6.61458 6.30452,-11.16211 11.47217,6.92464 5.68441,-9.50846 z m -6.20117,-43.40821 q 0,8.88835 -2.37712,14.36605 -2.27376,5.4777 -6.30452,8.47494 -4.03076,2.89388 -9.61182,3.9274 -5.58105,0.93018 -12.09229,0.93018 l 4.13412,-12.5057 q 4.44417,0 8.88835,-0.41341 4.54752,-0.41341 7.4414,-1.757 5.271,-2.48047 5.271,-5.6844 0,-1.65365 -1.03353,-3.3073 l -4.44417,-7.2347 q -1.44694,-2.37711 -1.44694,-4.44417 0,-2.17041 1.24023,-4.03076 l 5.37435,-8.26823 h 0.51676 q 4.44418,9.81852 4.44418,19.9471 z"
         style="font-style:normal;font-variant:normal;font-weight:normal;font-stretch:normal;font-size:211.66667175px;font-family:'Traditional Arabic';-inkscape-font-specification:'Traditional Arabic';fill:#ffffff;fill-opacity:1;stroke-width:0.26458332"
         id="path829"
         inkscape:connector-curvature="0" />
      <path
         d="m 290.94706,516.60939 -6.71794,11.05876 -10.85205,-7.02799 -6.30453,9.92187 -11.47216,-6.92464 7.02799,-11.47217 11.26546,7.028 6.30453,-9.50847 z m 66.97265,52.1932 q 0,1.24024 -1.34358,2.27376 -1.24024,0.93018 -3.10059,1.65365 -1.757,0.62012 -3.7207,1.03353 -1.96371,0.41341 -3.20394,0.41341 -2.89388,0 -5.68441,-0.41341 -2.79053,-0.51677 -5.06429,-1.757 -2.17041,-1.24023 -3.82406,-3.30729 -1.55029,-2.17041 -2.06705,-5.58106 h -0.62012 q -5.271,3.92741 -12.29899,7.44141 -6.92464,3.41064 -15.39958,5.99447 -8.47493,2.48047 -18.29346,4.03076 -9.81852,1.44694 -20.67057,1.44694 -52.08984,0 -52.08984,-28.62875 0,-8.88834 8.06152,-24.28792 l 2.37712,1.03353 q -4.23747,8.78499 -4.23747,14.15934 0,10.54199 13.84928,17.25993 13.74593,6.51123 36.89698,6.51123 5.89111,0 12.40234,-0.51676 6.51123,-0.51677 12.91911,-1.5503 6.40788,-1.13688 12.5057,-2.89388 6.09781,-1.75699 11.26546,-4.23746 5.27099,-2.58383 9.30176,-5.78776 4.13411,-3.3073 6.51123,-7.54476 l 1.24023,0.41341 q 0.51677,4.34082 1.65365,7.33805 1.13688,2.99723 3.10058,4.85759 1.96371,1.86035 4.96094,2.68717 2.99723,0.82682 7.33805,0.82682 0.93018,0 2.17041,0.31006 1.24024,0.31006 2.37712,0.93018 1.13688,0.51676 1.86035,1.34359 0.82682,0.82682 0.82682,1.86035 z"
         style="font-style:normal;font-variant:normal;font-weight:normal;font-stretch:normal;font-size:211.66667175px;font-family:'Traditional Arabic';-inkscape-font-specification:'Traditional Arabic';fill:#ffffff;fill-opacity:1;stroke-width:0.26458332"
         id="path831"
         inkscape:connector-curvature="0" />
    </g>
    <g
       aria-label="لا اله الا الله محمد رسول الله"
       transform="rotate(90,-0.01509651,0.01502417)"
       style="font-style:normal;font-variant:normal;font-weight:normal;font-stretch:normal;font-size:16.93333244px;line-height:1.25;font-family:Impact;-inkscape-font-specification:Impact;text-align:center;letter-spacing:0px;word-spacing:0px;text-anchor:middle;fill:#ffffff;fill-opacity:1;stroke:none;stroke-width:0.26458332"
       id="text823">
      <path
         d="m 733.67193,-787.5457 q -1.36598,1.34359 -3.2694,1.41076 -1.20923,0.0224 -1.18683,-0.47025 0.0224,-0.49265 1.11965,-1.09726 7.41213,-4.12034 8.44221,-15.09297 0.53743,-5.66546 0.11196,-11.21895 -0.13435,-1.76906 0.15676,-2.26171 0.9629,-1.72427 1.14205,-2.01538 0.17914,-0.29111 0.44786,-0.22393 0.29111,0.0448 0.35829,0.31351 0.69418,2.66478 1.36598,3.44854 0.67179,0.76136 0.0672,1.36598 l -1.27641,1.32119 q 0.17914,5.15042 -1.14205,11.91314 -1.54512,7.90477 -6.33725,12.60733 z"
         style="font-style:normal;font-variant:normal;font-weight:normal;font-stretch:normal;font-size:45.86111069px;font-family:'Amiri Quran';-inkscape-font-specification:'Amiri Quran';fill:#ffffff;fill-opacity:1;stroke-width:0.26458332"
         id="path834"
         inkscape:connector-curvature="0" />
      <path
         d="m 728.1632,-787.83681 q 6.60597,0.67179 8.50939,-0.0448 -0.47026,-4.45623 -6.47161,-12.85365 -4.32188,-6.06854 -6.44922,-8.08392 l -0.6494,1.18684 q -0.62701,0.40308 -1.11966,-0.17915 l -3.15743,-3.40375 q -0.67179,-0.78376 -0.53743,-1.79145 l 0.60461,-4.00837 q 0.0896,-0.60461 0.42547,-0.62701 0.94051,-0.0672 5.15042,4.99367 4.2099,5.03845 7.25537,9.65144 6.494,9.85297 6.91947,15.98868 0.15676,2.59761 -1.36598,2.97829 -4.25469,1.09726 -9.31554,0.29111 -0.53743,-0.0896 -0.67179,-0.3359 -0.80615,-1.99299 0.24633,-3.35897 0.33589,-0.44786 0.627,-0.40307 z"
         style="font-style:normal;font-variant:normal;font-weight:normal;font-stretch:normal;font-size:45.86111069px;font-family:'Amiri Quran';-inkscape-font-specification:'Amiri Quran';fill:#ffffff;fill-opacity:1;stroke-width:0.26458332"
         id="path836"
         inkscape:connector-curvature="0" />
      <path
         d="m 696.00669,-815.80582 q 0.9629,-2.2617 1.20922,-0.11197 0,0 1.05248,11.26374 1.70188,15.18254 -0.40308,19.25809 -0.26871,0.51504 -0.49264,0.26872 -0.20154,-0.26872 -0.17915,-0.76137 0.0672,-3.85162 -0.55983,-8.66614 -0.0224,-0.20154 -0.98529,-8.73332 l -0.9853,-8.30784 q -0.0896,-0.85094 0.20154,-1.54513 z"
         style="font-style:normal;font-variant:normal;font-weight:normal;font-stretch:normal;font-size:45.86111069px;font-family:'Amiri Quran';-inkscape-font-specification:'Amiri Quran';fill:#ffffff;fill-opacity:1;stroke-width:0.26458332"
         id="path838"
         inkscape:connector-curvature="0" />
      <path
         d="m 683.06346,-814.66377 q 0.3359,-1.05248 0.49265,-1.56752 0.13436,-0.53743 0.49265,-0.51504 0.3359,0.0224 0.51504,0.44786 0.76137,1.9706 2.10495,3.06786 0.53744,0.44786 0.0672,1.23162 -0.47025,0.76137 -0.9629,1.47795 -0.11197,0.0896 1.25401,6.56118 1.38838,6.47161 1.74667,9.7634 0.38068,3.2694 0.22393,6.62837 -0.31351,6.47161 -3.17982,6.85229 -1.34359,0.17914 -1.70188,-1.11966 -0.38068,-1.2988 0.15675,-2.70956 0.51504,-1.41077 1.36598,-1.2988 1.20923,0.15675 1.61231,-0.0224 0.53743,-1.03008 -0.0224,-4.8593 -0.55983,-3.85162 -2.30649,-12.62972 -1.74666,-8.77811 -1.97059,-9.51708 -0.24633,-0.73897 0.11196,-1.79145 z"
         style="font-style:normal;font-variant:normal;font-weight:normal;font-stretch:normal;font-size:45.86111069px;font-family:'Amiri Quran';-inkscape-font-specification:'Amiri Quran';fill:#ffffff;fill-opacity:1;stroke-width:0.26458332"
         id="path840"
         inkscape:connector-curvature="0" />
      <path
         d="m 681.36158,-789.96416 q 1.36598,3.80683 4.32188,4.12034 0.82854,0.0896 1.03008,1.34358 0.22393,1.27641 -0.0896,2.50803 -0.31351,1.25402 -0.82855,1.2988 -1.56752,0.15675 -2.86632,-0.80615 -2.75435,-2.10495 -4.2323,-8.57656 -0.82854,3.91879 -2.21692,4.2099 -1.36598,0.29111 -3.42614,0.20154 -2.06017,-0.0896 -2.46325,-0.49265 -1.09726,-0.9629 -0.76136,-1.99299 1.25401,-3.60529 1.85863,-4.29948 1.81384,-2.12734 5.48631,-3.874 l -0.26872,-1.83624 q -0.15675,-0.87333 0.0224,-1.2988 l 0.91811,-2.12735 q 0.40308,-0.94051 0.78376,0.62701 1.05248,6.42682 2.73196,10.99502 z m -3.69486,-3.98597 q -1.2988,0.3135 -2.91111,1.2764 -1.6123,0.94051 -2.32888,2.35128 1.92581,1.20923 5.17281,0.13436 0.55983,-0.20154 0.55983,-1.32119 z"
         style="font-style:normal;font-variant:normal;font-weight:normal;font-stretch:normal;font-size:45.86111069px;font-family:'Amiri Quran';-inkscape-font-specification:'Amiri Quran';fill:#ffffff;fill-opacity:1;stroke-width:0.26458332"
         id="path842"
         inkscape:connector-curvature="0" />
      <path
         d="m 647.54798,-815.80582 q 0.9629,-2.2617 1.20922,-0.11197 0,0 1.05248,11.26374 1.70188,15.18254 -0.40308,19.25809 -0.26871,0.51504 -0.49264,0.26872 -0.20154,-0.26872 -0.17915,-0.76137 0.0672,-3.85162 -0.55983,-8.66614 -0.0224,-0.20154 -0.98529,-8.73332 l -0.9853,-8.30784 q -0.0896,-0.85094 0.20154,-1.54513 z"
         style="font-style:normal;font-variant:normal;font-weight:normal;font-stretch:normal;font-size:45.86111069px;font-family:'Amiri Quran';-inkscape-font-specification:'Amiri Quran';fill:#ffffff;fill-opacity:1;stroke-width:0.26458332"
         id="path844"
         inkscape:connector-curvature="0" />
      <path
         d="m 632.1863,-787.5457 q -1.36598,1.34359 -3.26939,1.41076 -1.20923,0.0224 -1.18684,-0.47025 0.0224,-0.49265 1.11966,-1.09726 7.41212,-4.12034 8.4422,-15.09297 0.53744,-5.66546 0.11197,-11.21895 -0.13436,-1.76906 0.15675,-2.26171 0.9629,-1.72427 1.14205,-2.01538 0.17914,-0.29111 0.44786,-0.22393 0.29111,0.0448 0.35829,0.31351 0.69419,2.66478 1.36598,3.44854 0.6718,0.76136 0.0672,1.36598 l -1.27641,1.32119 q 0.17915,5.15042 -1.14205,11.91314 -1.54512,7.90477 -6.33725,12.60733 z"
         style="font-style:normal;font-variant:normal;font-weight:normal;font-stretch:normal;font-size:45.86111069px;font-family:'Amiri Quran';-inkscape-font-specification:'Amiri Quran';fill:#ffffff;fill-opacity:1;stroke-width:0.26458332"
         id="path846"
         inkscape:connector-curvature="0" />
      <path
         d="m 626.67758,-787.83681 q 6.60597,0.67179 8.50938,-0.0448 -0.47025,-4.45623 -6.47161,-12.85365 -4.32187,-6.06854 -6.44922,-8.08392 l -0.6494,1.18684 q -0.62701,0.40308 -1.11965,-0.17915 l -3.15743,-3.40375 q -0.6718,-0.78376 -0.53744,-1.79145 l 0.60461,-4.00837 q 0.0896,-0.60461 0.42547,-0.62701 0.94052,-0.0672 5.15042,4.99367 4.20991,5.03845 7.25537,9.65144 6.49401,9.85297 6.91948,15.98868 0.15675,2.59761 -1.36598,2.97829 -4.2547,1.09726 -9.31554,0.29111 -0.53744,-0.0896 -0.67179,-0.3359 -0.80616,-1.99299 0.24632,-3.35897 0.3359,-0.44786 0.62701,-0.40307 z"
         style="font-style:normal;font-variant:normal;font-weight:normal;font-stretch:normal;font-size:45.86111069px;font-family:'Amiri Quran';-inkscape-font-specification:'Amiri Quran';fill:#ffffff;fill-opacity:1;stroke-width:0.26458332"
         id="path848"
         inkscape:connector-curvature="0" />
      <path
         d="m 594.52106,-815.80582 q 0.9629,-2.2617 1.20923,-0.11197 0,0 1.05247,11.26374 1.70188,15.18254 -0.40307,19.25809 -0.26872,0.51504 -0.49265,0.26872 -0.20154,-0.26872 -0.17915,-0.76137 0.0672,-3.85162 -0.55982,-8.66614 -0.0224,-0.20154 -0.9853,-8.73332 l -0.9853,-8.30784 q -0.0896,-0.85094 0.20154,-1.54513 z"
         style="font-style:normal;font-variant:normal;font-weight:normal;font-stretch:normal;font-size:45.86111069px;font-family:'Amiri Quran';-inkscape-font-specification:'Amiri Quran';fill:#ffffff;fill-opacity:1;stroke-width:0.26458332"
         id="path850"
         inkscape:connector-curvature="0" />
      <path
         d="m 584.6009,-806.96054 2.32889,10.77109 q 0.49265,2.41846 0.58222,3.35897 0.0896,0.94051 -0.0448,2.21692 -0.53743,5.48632 -3.17982,5.48632 -1.47795,-0.0224 -2.35128,-1.92581 -0.87333,-1.90342 -0.13436,-2.75436 0.71658,-0.85094 1.79145,-0.58222 1.07487,0.24633 1.85863,-0.0896 -0.0448,-1.11966 -1.16444,-5.82221 -1.11966,-4.70256 -1.67948,-7.8152 -0.20154,-1.20923 1.23162,-3.29179 0.51504,-0.73897 0.76136,0.44786 z"
         style="font-style:normal;font-variant:normal;font-weight:normal;font-stretch:normal;font-size:45.86111069px;font-family:'Amiri Quran';-inkscape-font-specification:'Amiri Quran';fill:#ffffff;fill-opacity:1;stroke-width:0.26458332"
         id="path852"
         inkscape:connector-curvature="0" />
      <path
         d="m 583.86193,-790.34484 q 0.82855,0.11196 1.09727,1.41076 0.26871,1.27641 0.0224,2.53043 -0.24632,1.25401 -0.67179,1.27641 -1.94821,0.0448 -3.2694,-1.14205 -1.2988,-1.18684 -2.50803,-3.51572 -1.34359,3.22461 -2.44085,3.87401 -1.11966,0.6494 -2.9111,0.73897 -1.03009,0.0448 -1.58992,-1.18684 -0.58222,-1.23162 -0.22393,-2.39606 0.35829,-1.18684 1.76906,-1.18684 3.31418,0.0224 4.34426,-2.28409 0,-0.0224 -0.35829,-2.03778 l -0.98529,-5.1952 q -0.62701,-3.20222 -0.80616,-4.34427 -0.15675,-1.16444 0.17915,-1.63469 l 1.36598,-2.10496 q 0.44786,-0.67179 0.73897,0.55983 0.11197,0.55983 0.53744,3.33657 1.41076,9.27076 2.57521,11.17417 1.16444,1.88102 3.13503,2.12735 z"
         style="font-style:normal;font-variant:normal;font-weight:normal;font-stretch:normal;font-size:45.86111069px;font-family:'Amiri Quran';-inkscape-font-specification:'Amiri Quran';fill:#ffffff;fill-opacity:1;stroke-width:0.26458332"
         id="path854"
         inkscape:connector-curvature="0" />
      <path
         d="m 573.11324,-789.94177 q 0.627,0.0224 0.89572,1.20923 0.29111,1.16445 0.0448,2.35128 -0.24633,1.18684 -0.89573,1.23162 -3.96358,0.40308 -4.85931,-4.34426 -0.0448,-0.17915 -0.0448,-0.26872 -1.50034,2.23931 -2.30649,2.39606 -4.07555,0.73898 -6.11332,-0.73897 -0.73898,-0.53743 -0.35829,-1.70188 0.85093,-2.66478 3.09025,-4.5458 2.2617,-1.88102 4.90409,-2.50803 l -0.0672,-2.26171 q -0.0224,-0.38068 0.76137,-1.99298 0.80615,-1.61231 0.94051,-1.83624 0.51504,-0.76136 0.55982,0.55983 0.0224,0.55983 0.0896,3.35897 0.0672,2.79914 0.35829,5.32956 0.29111,2.53042 1.45555,3.33658 0.58222,0.40307 1.54513,0.42546 z m -5.53111,-4.72494 q -0.91811,0.17914 -2.5752,1.00769 -1.6347,0.80615 -2.12735,1.70187 0.73897,0.53744 3.247,0.44787 1.16444,-0.0448 1.70188,-0.6494 -0.0896,-0.51505 -0.24633,-2.50803 z"
         style="font-style:normal;font-variant:normal;font-weight:normal;font-stretch:normal;font-size:45.86111069px;font-family:'Amiri Quran';-inkscape-font-specification:'Amiri Quran';fill:#ffffff;fill-opacity:1;stroke-width:0.26458332"
         id="path856"
         inkscape:connector-curvature="0" />
      <path
         d="m 532.40255,-806.69182 q -7.52408,0.22393 -14.33159,4.32187 -2.46325,1.47795 -1.9482,-1.03008 0.0448,-0.17915 0.20153,-0.29111 4.72495,-3.38136 12.85365,-5.48632 l -0.87333,-1.2764 q -0.42547,-0.62701 -0.13436,-1.25402 1.20923,-2.61999 2.14974,-3.62768 0.55983,-0.62701 1.14205,-0.31351 3.44854,1.83624 4.8817,3.29179 0.47026,0.47026 0.17915,1.34359 -0.40308,1.20923 -2.30649,3.65008 -0.47026,0.627 -1.81385,0.67179 z"
         style="font-style:normal;font-variant:normal;font-weight:normal;font-stretch:normal;font-size:45.86111069px;font-family:'Amiri Quran';-inkscape-font-specification:'Amiri Quran';fill:#ffffff;fill-opacity:1;stroke-width:0.26458332"
         id="path858"
         inkscape:connector-curvature="0" />
      <path
         d="m 514.60001,-800.10824 q 1.09726,-3.11265 1.85863,-3.65008 0.73897,-0.55983 2.82153,-0.22393 2.08256,0.33589 4.74735,1.2988 2.66478,0.9629 4.81452,1.6347 4.5458,1.45555 11.7116,2.06016 1.16444,0.0896 0.71658,0.82855 l -1.81384,3.00068 q -0.15676,0.24632 -0.76137,0.13436 -10.45759,-1.67949 -16.50373,0.0896 -5.08324,1.47794 -6.02375,-0.42547 2.41846,-1.58991 9.09161,-2.37367 -2.82154,-1.2988 -5.10563,-1.76906 -2.2841,-0.47025 -5.30717,-0.29111 -0.35829,0.0224 -0.24633,-0.3135 z"
         style="font-style:normal;font-variant:normal;font-weight:normal;font-stretch:normal;font-size:45.86111069px;font-family:'Amiri Quran';-inkscape-font-specification:'Amiri Quran';fill:#ffffff;fill-opacity:1;stroke-width:0.26458332"
         id="path860"
         inkscape:connector-curvature="0" />
      <path
         d="m 519.61607,-792.78569 q -2.64239,-1.6347 -3.76205,0 3.06786,1.79145 5.71025,1.99299 -0.42547,-1.03009 -1.9482,-1.99299 z m -5.15042,-0.3359 q 0.78376,-1.50034 1.88102,-2.35128 0.38068,-0.29111 1.56752,-0.40307 2.57521,-0.31351 4.16512,1.70187 1.92581,2.44085 1.58991,3.96359 -0.42547,1.90341 -1.34359,3.06785 -0.22393,0.29111 -0.35829,0.29111 -4.32187,-0.26871 -8.1287,-2.77674 -2.06017,4.5458 -4.29948,4.5458 -0.62701,0.0224 -0.91812,-1.00769 -0.91811,-3.13504 0.91812,-3.13504 2.46324,0 3.76205,-1.45555 0.33589,-0.82854 1.16444,-2.44085 z"
         style="font-style:normal;font-variant:normal;font-weight:normal;font-stretch:normal;font-size:45.86111069px;font-family:'Amiri Quran';-inkscape-font-specification:'Amiri Quran';fill:#ffffff;fill-opacity:1;stroke-width:0.26458332"
         id="path862"
         inkscape:connector-curvature="0" />
      <path
         d="m 509.56155,-789.22519 q 0.69418,0.17915 0.91812,1.23163 0.22393,1.03008 -0.0672,1.99298 -0.26872,0.94051 -0.85094,0.91812 -3.02307,-0.17914 -4.09794,-5.01606 -0.3359,-1.52273 -0.35829,-1.54512 -0.13436,-0.35829 -0.26872,0.0448 -1.43316,3.87401 -3.67247,4.79213 -2.84393,1.14205 -7.72563,0.82855 -3.80683,-0.24633 -1.9482,-6.04615 0.20154,-0.627 0.67179,-0.71658 0.47026,-0.0896 0.6494,0.60462 0.38069,1.32119 1.25402,1.52273 4.38905,0.94051 7.99434,-0.49265 1.79145,-0.71658 2.35128,-2.53042 0.0896,-0.3135 -0.62701,-4.94888 -0.69418,-4.63538 -0.80615,-5.64307 -0.11197,-1.03008 0.13436,-1.56751 0.76136,-1.58992 1.05248,-2.32889 0.13435,-0.3359 0.47025,-0.29111 0.35829,0.0448 0.40308,0.44786 1.11965,9.62904 2.44085,15.33929 0.69418,3.04546 2.08256,3.40375 z"
         style="font-style:normal;font-variant:normal;font-weight:normal;font-stretch:normal;font-size:45.86111069px;font-family:'Amiri Quran';-inkscape-font-specification:'Amiri Quran';fill:#ffffff;fill-opacity:1;stroke-width:0.26458332"
         id="path864"
         inkscape:connector-curvature="0" />
      <path
         d="m 467.44009,-797.86893 q 0.13436,-0.55983 0.80616,0.11197 1.79145,1.83623 2.68717,4.92648 0.89572,3.06786 0.62701,6.15811 -0.53744,3.98598 -3.20222,7.38973 -2.66478,3.42615 -6.96426,4.5458 -1.16444,0.31351 -2.19453,-0.0448 -5.37434,-1.81385 -6.67314,-2.62 -0.17915,-0.11196 -0.17915,-0.29111 0,-0.17914 0.15675,-0.3135 0.15675,-0.13436 0.38068,-0.0672 3.13504,0.9629 5.41914,0.67179 2.2841,-0.29111 5.23999,-2.19452 4.38905,-2.84393 6.35965,-6.60597 0.17914,-0.3359 0.0896,-0.71658 -0.67179,-2.41846 -3.5829,-6.02375 -0.13436,-0.20154 -0.0896,-0.3359 z"
         style="font-style:normal;font-variant:normal;font-weight:normal;font-stretch:normal;font-size:45.86111069px;font-family:'Amiri Quran';-inkscape-font-specification:'Amiri Quran';fill:#ffffff;fill-opacity:1;stroke-width:0.26458332"
         id="path866"
         inkscape:connector-curvature="0" />
      <path
         d="m 452.34714,-798.16004 q 0.17914,-0.26872 0.49265,0.26872 0.3135,0.53743 0.40307,2.30649 0.0896,1.74666 -0.3135,3.47093 -0.94051,3.71726 -2.39606,3.76205 -3.35897,0.13435 -5.71025,-2.3065 -1.6123,3.78444 -4.43384,4.52341 -2.82153,0.73898 -5.73264,-2.37367 -2.41845,3.42615 -4.56819,3.42615 -0.47026,0.0224 -0.80615,-1.99299 -0.35829,-2.03777 0.80615,-2.14974 4.43384,-0.44786 6.87469,-4.63537 0.11196,-0.24633 0.33589,-0.22393 0.22393,0 0.35829,0.17914 0.24633,0.3359 -0.67179,2.01538 0.76137,1.38838 3.71726,1.43316 3.53811,0.0448 5.41913,-6.20289 0.0896,-0.24633 0.31351,-0.26872 0.22393,-0.0448 0.38068,0.15675 0.15675,0.17915 0.11196,0.44787 l -0.47025,1.9482 q 0.9629,1.00769 2.79914,1.54512 1.85863,0.53744 2.14974,-0.11196 0.29111,-0.6718 -0.40308,-2.70957 -0.0896,-0.22393 1.34359,-2.50803 z"
         style="font-style:normal;font-variant:normal;font-weight:normal;font-stretch:normal;font-size:45.86111069px;font-family:'Amiri Quran';-inkscape-font-specification:'Amiri Quran';fill:#ffffff;fill-opacity:1;stroke-width:0.26458332"
         id="path868"
         inkscape:connector-curvature="0" />
      <path
         d="m 426.93095,-789.69544 q -0.87334,-1.92581 -2.19453,-1.88102 -0.80615,0.11196 -1.27641,0.71658 -0.20154,0.24632 0.11197,0.6494 0.71658,0.91811 3.15743,0.87333 0.29111,0 0.20154,-0.35829 z m 2.19452,5.10563 q -1.43316,8.19588 -8.66614,11.44288 -1.88102,0.85094 -3.47093,0.94052 -1.58991,0.11196 -5.867,-2.79914 -0.49265,-0.3359 -0.29111,-0.6718 0.20154,-0.33589 0.62701,-0.11196 3.82922,1.99298 9.58425,-1.2988 4.92649,-2.79914 6.69555,-7.74802 0,-0.15676 -0.11197,-0.22394 -3.38136,-0.0448 -4.94888,-0.94051 -1.56752,-0.91811 -1.18683,-3.5605 0.0896,-0.60462 0.38068,-1.45556 0.9853,-2.84392 2.84393,-3.87401 1.85863,-1.05247 3.15743,0.73898 1.32119,1.83623 1.50034,4.92648 0.33589,-0.0224 0.71658,-0.0448 0.67179,-0.0224 0.80615,1.05247 0.13436,1.03009 -0.15675,2.08256 -0.26872,1.05248 -0.6494,1.05248 -0.3359,0.0224 -0.89573,0.0224 -0.0224,0.22394 -0.0672,0.47026 z"
         style="font-style:normal;font-variant:normal;font-weight:normal;font-stretch:normal;font-size:45.86111069px;font-family:'Amiri Quran';-inkscape-font-specification:'Amiri Quran';fill:#ffffff;fill-opacity:1;stroke-width:0.26458332"
         id="path870"
         inkscape:connector-curvature="0" />
      <path
         d="m 407.78483,-819.20957 q 0.13435,-0.31351 0.47025,-0.31351 0.3359,0 0.47026,0.42547 0.80615,2.17213 1.88102,3.33658 0.40308,0.42547 -0.0672,1.11965 -0.44786,0.69419 -0.73897,1.03009 -0.29111,0.33589 -0.26872,0.94051 0.17914,3.02307 0.85094,8.33024 0.67179,5.30717 0.87333,8.21827 0.3359,4.68017 -1.23162,8.39742 -0.96291,2.32889 -4.81452,3.98598 -3.82923,1.65709 -6.87469,1.6123 -8.7781,-0.13436 -8.86768,-7.72562 -0.0672,-5.01606 3.44854,-9.58426 0.22394,-0.29111 0.51505,-0.24632 0.29111,0.0448 0.35829,0.33589 0.0896,0.26872 -0.0896,0.58222 -2.44085,4.34427 -2.21692,6.40444 0.6494,5.64306 8.35264,5.37435 6.62836,-0.22393 9.58425,-4.00837 -0.11196,-2.86632 -1.05247,-10.21127 -0.94051,-7.34494 -1.38838,-13.79416 l -0.17914,-1.52273 q 0,-0.40308 0.11196,-0.67179 z"
         style="font-style:normal;font-variant:normal;font-weight:normal;font-stretch:normal;font-size:45.86111069px;font-family:'Amiri Quran';-inkscape-font-specification:'Amiri Quran';fill:#ffffff;fill-opacity:1;stroke-width:0.26458332"
         id="path872"
         inkscape:connector-curvature="0" />
      <path
         d="m 367.1861,-815.80582 q 0.9629,-2.2617 1.20923,-0.11197 0,0 1.05247,11.26374 1.70188,15.18254 -0.40307,19.25809 -0.26872,0.51504 -0.49265,0.26872 -0.20154,-0.26872 -0.17915,-0.76137 0.0672,-3.85162 -0.55982,-8.66614 -0.0224,-0.20154 -0.9853,-8.73332 l -0.9853,-8.30784 q -0.0896,-0.85094 0.20154,-1.54513 z"
         style="font-style:normal;font-variant:normal;font-weight:normal;font-stretch:normal;font-size:45.86111069px;font-family:'Amiri Quran';-inkscape-font-specification:'Amiri Quran';fill:#ffffff;fill-opacity:1;stroke-width:0.26458332"
         id="path874"
         inkscape:connector-curvature="0" />
      <path
         d="m 357.26595,-806.96054 2.32888,10.77109 q 0.49265,2.41846 0.58223,3.35897 0.0896,0.94051 -0.0448,2.21692 -0.53744,5.48632 -3.17982,5.48632 -1.47795,-0.0224 -2.35128,-1.92581 -0.87333,-1.90342 -0.13436,-2.75436 0.71658,-0.85094 1.79145,-0.58222 1.07487,0.24633 1.85863,-0.0896 -0.0448,-1.11966 -1.16444,-5.82221 -1.11966,-4.70256 -1.67949,-7.8152 -0.20154,-1.20923 1.23162,-3.29179 0.51505,-0.73897 0.76137,0.44786 z"
         style="font-style:normal;font-variant:normal;font-weight:normal;font-stretch:normal;font-size:45.86111069px;font-family:'Amiri Quran';-inkscape-font-specification:'Amiri Quran';fill:#ffffff;fill-opacity:1;stroke-width:0.26458332"
         id="path876"
         inkscape:connector-curvature="0" />
      <path
         d="m 356.52698,-790.34484 q 0.82854,0.11196 1.09726,1.41076 0.26872,1.27641 0.0224,2.53043 -0.24632,1.25401 -0.67179,1.27641 -1.9482,0.0448 -3.2694,-1.14205 -1.2988,-1.18684 -2.50803,-3.51572 -1.34358,3.22461 -2.44085,3.87401 -1.11965,0.6494 -2.9111,0.73897 -1.03009,0.0448 -1.58991,-1.18684 -0.58222,-1.23162 -0.22393,-2.39606 0.35829,-1.18684 1.76905,-1.18684 3.31418,0.0224 4.34427,-2.28409 0,-0.0224 -0.35829,-2.03778 l -0.9853,-5.1952 q -0.62701,-3.20222 -0.80615,-4.34427 -0.15675,-1.16444 0.17914,-1.63469 l 1.36598,-2.10496 q 0.44787,-0.67179 0.73898,0.55983 0.11196,0.55983 0.53743,3.33657 1.41077,9.27076 2.57521,11.17417 1.16444,1.88102 3.13504,2.12735 z"
         style="font-style:normal;font-variant:normal;font-weight:normal;font-stretch:normal;font-size:45.86111069px;font-family:'Amiri Quran';-inkscape-font-specification:'Amiri Quran';fill:#ffffff;fill-opacity:1;stroke-width:0.26458332"
         id="path878"
         inkscape:connector-curvature="0" />
      <path
         d="m 345.77828,-789.94177 q 0.62701,0.0224 0.89572,1.20923 0.29111,1.16445 0.0448,2.35128 -0.24632,1.18684 -0.89573,1.23162 -3.96358,0.40308 -4.8593,-4.34426 -0.0448,-0.17915 -0.0448,-0.26872 -1.50034,2.23931 -2.30649,2.39606 -4.07555,0.73898 -6.11332,-0.73897 -0.73897,-0.53743 -0.35829,-1.70188 0.85094,-2.66478 3.09025,-4.5458 2.2617,-1.88102 4.90409,-2.50803 l -0.0672,-2.26171 q -0.0224,-0.38068 0.76137,-1.99298 0.80615,-1.61231 0.94051,-1.83624 0.51504,-0.76136 0.55983,0.55983 0.0224,0.55983 0.0896,3.35897 0.0672,2.79914 0.35829,5.32956 0.29111,2.53042 1.45555,3.33658 0.58222,0.40307 1.54513,0.42546 z m -5.5311,-4.72494 q -0.91812,0.17914 -2.57521,1.00769 -1.6347,0.80615 -2.12735,1.70187 0.73898,0.53744 3.247,0.44787 1.16445,-0.0448 1.70188,-0.6494 -0.0896,-0.51505 -0.24632,-2.50803 z"
         style="font-style:normal;font-variant:normal;font-weight:normal;font-stretch:normal;font-size:45.86111069px;font-family:'Amiri Quran';-inkscape-font-specification:'Amiri Quran';fill:#ffffff;fill-opacity:1;stroke-width:0.26458332"
         id="path880"
         inkscape:connector-curvature="0" />
    </g>
    <g
       id="g901"
       transform="translate(-32.068578,-20.4752)">
      <path
         sodipodi:nodetypes="cc"
         inkscape:connector-curvature="0"
         id="path883"
         d="m 678.0269,645.01895 v 49.61116"
         style="fill:none;stroke:#f6f6f6;stroke-width:9.52499962;stroke-linecap:round;stroke-linejoin:miter;stroke-miterlimit:4;stroke-dasharray:none;stroke-opacity:1" />
      <path
         sodipodi:nodetypes="cc"
         style="fill:none;stroke:#f6f6f6;stroke-width:9.52499962;stroke-linecap:round;stroke-linejoin:miter;stroke-miterlimit:4;stroke-dasharray:none;stroke-opacity:1"
         d="M 578.80458,669.82453 H 678.0269"
         id="path885"
         inkscape:connector-curvature="0" />
      <path
         sodipodi:nodetypes="ccc"
         style="fill:none;stroke:#f6f6f6;stroke-width:9.52499962;stroke-linecap:round;stroke-linejoin:miter;stroke-miterlimit:4;stroke-dasharray:none;stroke-opacity:1"
         d="m 578.80458,645.01895 99.22232,24.80558 -99.22232,24.80558"
         id="path896"
         inkscape:connector-curvature="0" />
    </g>
  </g>
</svg>
