<?xml version="1.0" encoding="UTF-8" standalone="no"?>
<!-- Created with Inkscape (http://www.inkscape.org/) -->

<svg
   width="3036"
   height="1800"
   viewBox="0 0 803.275 476.25001"
   version="1.1"
   id="svg8"
   inkscape:export-filename="民舟2.png"
   inkscape:export-xdpi="96"
   inkscape:export-ydpi="96"
   inkscape:version="1.3 (0e150ed6c4, 2023-07-21)"
   sodipodi:docname="FA (MINHE2).svg"
   xml:space="preserve"
   xmlns:inkscape="http://www.inkscape.org/namespaces/inkscape"
   xmlns:sodipodi="http://sodipodi.sourceforge.net/DTD/sodipodi-0.dtd"
   xmlns="http://www.w3.org/2000/svg"
   xmlns:svg="http://www.w3.org/2000/svg"
   xmlns:rdf="http://www.w3.org/1999/02/22-rdf-syntax-ns#"
   xmlns:cc="http://creativecommons.org/ns#"
   xmlns:dc="http://purl.org/dc/elements/1.1/"><defs
     id="defs2" /><sodipodi:namedview
     id="base"
     pagecolor="#ffffff"
     bordercolor="#666666"
     borderopacity="1.0"
     inkscape:pageopacity="0.0"
     inkscape:pageshadow="2"
     inkscape:zoom="0.29380764"
     inkscape:cx="1516.2982"
     inkscape:cy="896.8453"
     inkscape:document-units="px"
     inkscape:current-layer="layer1"
     showgrid="false"
     units="px"
     fit-margin-top="0"
     fit-margin-left="0"
     fit-margin-right="0"
     fit-margin-bottom="0"
     inkscape:showpageshadow="false"
     inkscape:snap-intersection-paths="false"
     inkscape:object-paths="false"
     inkscape:pagecheckerboard="true"
     inkscape:snap-smooth-nodes="true"
     inkscape:window-width="1920"
     inkscape:window-height="1051"
     inkscape:window-x="-9"
     inkscape:window-y="-9"
     inkscape:window-maximized="1"
     inkscape:object-nodes="true"
     inkscape:snap-nodes="true"
     inkscape:deskcolor="#505050" /><metadata
     id="metadata5"><rdf:RDF><cc:Work
         rdf:about=""><dc:format>image/svg+xml</dc:format><dc:type
           rdf:resource="http://purl.org/dc/dcmitype/StillImage" /></cc:Work></rdf:RDF></metadata><g
     inkscape:label="レイヤー 1"
     inkscape:groupmode="layer"
     id="layer1"
     transform="translate(112.33452,-299.26786)"><path
       style="fill:#ffffff;fill-opacity:1;stroke:none;stroke-width:0.51166773px;stroke-linecap:butt;stroke-linejoin:miter;stroke-opacity:1"
       d="m -102.80952,299.26786 h -9.525 v 476.25 h 9.525 z"
       id="path1079"
       inkscape:connector-curvature="0"
       sodipodi:nodetypes="ccccc" /><path
       sodipodi:nodetypes="ccccc"
       inkscape:connector-curvature="0"
       id="path884"
       d="m 690.94049,585.01786 h -349.25 v 190.5 l 349.25,0 z"
       style="fill:#002dc0;fill-opacity:1;stroke:none;stroke-width:2.69672561px;stroke-linecap:butt;stroke-linejoin:miter;stroke-opacity:1" /><path
       style="fill:#ffffff;fill-opacity:1;stroke:none;stroke-width:1.20601237px;stroke-linecap:butt;stroke-linejoin:miter;stroke-opacity:1"
       d="m 690.94049,489.76786 h -349.25 v -190.5 h -95.25001 v 190.5 h -349.25 v 95.25 h 349.25 v 190.5 h 95.25001 v -190.5 h 349.25 z"
       id="path814"
       inkscape:connector-curvature="0"
       sodipodi:nodetypes="ccccccccccccc" /><path
       style="fill:#002dc0;fill-opacity:1;stroke:none;stroke-width:2.69672561px;stroke-linecap:butt;stroke-linejoin:miter;stroke-opacity:1"
       d="m 690.94049,299.26786 h -349.25 v 190.5 h 349.25 z"
       id="path818"
       inkscape:connector-curvature="0"
       sodipodi:nodetypes="ccccc" /><path
       style="fill:#002dc0;fill-opacity:1;stroke:none;stroke-width:2.69672561px;stroke-linecap:butt;stroke-linejoin:miter;stroke-opacity:1"
       d="m -102.80952,585.01786 h 349.25 v 190.5 h -349.25 z"
       id="path820"
       inkscape:connector-curvature="0"
       sodipodi:nodetypes="ccccc" /><path
       sodipodi:nodetypes="ccccc"
       inkscape:connector-curvature="0"
       id="path822"
       d="m -102.80952,299.26786 h 349.25 v 190.5 h -349.25 z"
       style="fill:#002dc0;fill-opacity:1;stroke:none;stroke-width:2.69672561px;stroke-linecap:butt;stroke-linejoin:miter;stroke-opacity:1" /><path
       style="fill:#002dc0;fill-opacity:1;stroke:#ffffff;stroke-width:8.46667;stroke-linecap:round;stroke-linejoin:miter;stroke-miterlimit:4;stroke-dasharray:none;stroke-opacity:1;paint-order:stroke fill markers"
       d="m 210.37473,448.0287 v 130.12392 c 0,20.32705 13.72353,32.81761 32.24027,39.36157 14.92694,5.2753 34.13194,7.81404 51.45048,19.58563 17.31854,-11.77159 36.52355,-14.31033 51.45048,-19.58563 18.51671,-6.54396 32.24027,-19.03452 32.24027,-39.36157 V 448.0287 Z"
       id="path2414"
       inkscape:connector-curvature="0"
       sodipodi:nodetypes="csscsscc" /><g
       style="stroke:none;stroke-width:1.41604;stroke-linecap:round;stroke-linejoin:round;stroke-miterlimit:4;stroke-dasharray:none;stroke-opacity:1"
       id="g2677"
       transform="matrix(0.33636341,0,0,0.33628563,-1066.6799,750.20605)"><g
         style="stroke:none;stroke-width:1.41604;stroke-linecap:round;stroke-linejoin:round;stroke-miterlimit:4;stroke-dasharray:none;stroke-opacity:1"
         transform="translate(2992.773,-968.59561)"
         id="g2465"><path
           sodipodi:nodetypes="sscsssscs"
           inkscape:connector-curvature="0"
           id="path2444"
           d="m 992.31592,242.82274 c -11.0902,-3.58413 -29.17447,3.29232 -32.63039,26.31234 -4.66036,31.04424 23.33837,53.99098 34.91343,31.48604 4.88817,15.41808 -3.22774,29.1733 -17.26254,28.50083 -20.00049,-0.95831 -29.27896,-35.74888 -27.3518,-60.41304 1.80805,-23.14073 13.8199,-57.8272 41.32184,-63.32806 16.99054,-3.39838 37.15064,7.20227 44.08674,26.70241 11.1832,31.44167 -15.6011,57.23393 -28.6939,49.96014 8.0447,-21.47736 -4.9872,-36.18395 -14.38338,-39.22066 z"
           style="fill:#ffc001;fill-opacity:1;stroke:none;stroke-width:1.41604;stroke-linecap:round;stroke-linejoin:round;stroke-miterlimit:4;stroke-dasharray:none;stroke-opacity:1" /><path
           style="fill:#ffc001;fill-opacity:1;stroke:none;stroke-width:1.41604;stroke-linecap:round;stroke-linejoin:round;stroke-miterlimit:4;stroke-dasharray:none;stroke-opacity:1"
           d="m 951.81793,333.59813 c 2.40323,-15.91259 -10.47699,-31.60069 -9.90334,-53.53104 2.00124,-76.50154 41.25977,-75.89719 33.22261,-111.82922 -5.00172,-22.36135 -25.75201,-16.95272 -39.53837,-49.04658 -13.78635,32.09386 -34.53664,26.68523 -39.53836,49.04658 -8.03716,35.93203 31.22137,35.32768 33.22261,111.82922 0.57365,21.93035 -12.30657,37.61845 -9.90334,53.53104 2.76406,18.30179 8.36238,12.45811 16.21909,35.59316 7.85672,-23.13505 13.45504,-17.29137 16.2191,-35.59316 z"
           id="path2450"
           inkscape:connector-curvature="0"
           sodipodi:nodetypes="ssscssscs" /><path
           style="fill:#ffc001;fill-opacity:1;stroke:none;stroke-width:1.41604;stroke-linecap:round;stroke-linejoin:round;stroke-miterlimit:4;stroke-dasharray:none;stroke-opacity:1"
           d="m 878.88188,242.82274 c 11.0902,-3.58413 29.17447,3.29232 32.63039,26.31234 4.66036,31.04424 -23.33837,53.99098 -34.91343,31.48604 -4.88817,15.41808 3.22774,29.1733 17.26254,28.50083 20.00049,-0.95831 29.27896,-35.74888 27.3518,-60.41304 -1.80805,-23.14073 -13.8199,-57.8272 -41.32184,-63.32806 -16.99051,-3.39838 -37.15065,7.20227 -44.0867,26.70241 -11.18329,31.44167 15.60104,57.23393 28.69383,49.96014 -8.0447,-21.47736 4.98718,-36.18395 14.38341,-39.22066 z"
           id="path2456"
           inkscape:connector-curvature="0"
           sodipodi:nodetypes="sscsssscs" /><path
           style="opacity:1;fill:#ffc001;fill-opacity:1;fill-rule:nonzero;stroke:none;stroke-width:1.41604;stroke-linecap:round;stroke-linejoin:round;stroke-miterlimit:4;stroke-dasharray:none;stroke-dashoffset:0;stroke-opacity:1;paint-order:markers fill stroke"
           d="m 960.07752,283.11634 c 3.71503,0 6.72671,-3.01164 6.72671,-6.72671 0,-3.71506 -3.01168,-6.72671 -6.72671,-6.72671 h -48.95746 c -3.71503,0 -6.72671,3.01165 -6.72671,6.72671 0,3.71507 3.01168,6.72671 6.72671,6.72671 z"
           id="path2463"
           inkscape:connector-curvature="0"
           sodipodi:nodetypes="czsszcc" /></g><g
         style="stroke:none;stroke-width:1.41604;stroke-linecap:round;stroke-linejoin:round;stroke-miterlimit:4;stroke-dasharray:none;stroke-opacity:1"
         id="g2487"
         transform="translate(3226.9531,-968.59561)"><path
           style="fill:#ffc001;fill-opacity:1;stroke:none;stroke-width:1.41604;stroke-linecap:round;stroke-linejoin:round;stroke-miterlimit:4;stroke-dasharray:none;stroke-opacity:1"
           d="m 992.31592,242.82274 c -11.0902,-3.58413 -29.17447,3.29232 -32.63039,26.31234 -4.66036,31.04424 23.33837,53.99098 34.91343,31.48604 4.88817,15.41808 -3.22774,29.1733 -17.26254,28.50083 -20.00049,-0.95831 -29.27896,-35.74888 -27.3518,-60.41304 1.80805,-23.14073 13.8199,-57.8272 41.32184,-63.32806 16.99054,-3.39838 37.15064,7.20227 44.08674,26.70241 11.1832,31.44167 -15.6011,57.23393 -28.6939,49.96014 8.0447,-21.47736 -4.9872,-36.18395 -14.38338,-39.22066 z"
           id="path2467"
           inkscape:connector-curvature="0"
           sodipodi:nodetypes="sscsssscs" /><path
           sodipodi:nodetypes="ssscssscs"
           inkscape:connector-curvature="0"
           id="path2473"
           d="m 951.81793,333.59813 c 2.40323,-15.91259 -10.47699,-31.60069 -9.90334,-53.53104 2.00124,-76.50154 41.25977,-75.89719 33.22261,-111.82922 -5.00172,-22.36135 -25.75201,-16.95272 -39.53837,-49.04658 -13.78635,32.09386 -34.53664,26.68523 -39.53836,49.04658 -8.03716,35.93203 31.22137,35.32768 33.22261,111.82922 0.57365,21.93035 -12.30657,37.61845 -9.90334,53.53104 2.76406,18.30179 8.36238,12.45811 16.21909,35.59316 7.85672,-23.13505 13.45504,-17.29137 16.2191,-35.59316 z"
           style="fill:#ffc001;fill-opacity:1;stroke:none;stroke-width:1.41604;stroke-linecap:round;stroke-linejoin:round;stroke-miterlimit:4;stroke-dasharray:none;stroke-opacity:1" /><path
           sodipodi:nodetypes="sscsssscs"
           inkscape:connector-curvature="0"
           id="path2479"
           d="m 878.88188,242.82274 c 11.0902,-3.58413 29.17447,3.29232 32.63039,26.31234 4.66036,31.04424 -23.33837,53.99098 -34.91343,31.48604 -4.88817,15.41808 3.22774,29.1733 17.26254,28.50083 20.00049,-0.95831 29.27896,-35.74888 27.3518,-60.41304 -1.80805,-23.14073 -13.8199,-57.8272 -41.32184,-63.32806 -16.99051,-3.39838 -37.15065,7.20227 -44.0867,26.70241 -11.18329,31.44167 15.60104,57.23393 28.69383,49.96014 -8.0447,-21.47736 4.98718,-36.18395 14.38341,-39.22066 z"
           style="fill:#ffc001;fill-opacity:1;stroke:none;stroke-width:1.41604;stroke-linecap:round;stroke-linejoin:round;stroke-miterlimit:4;stroke-dasharray:none;stroke-opacity:1" /><path
           sodipodi:nodetypes="czsszcc"
           inkscape:connector-curvature="0"
           id="path2485"
           d="m 960.07752,283.11634 c 3.71503,0 6.72671,-3.01164 6.72671,-6.72671 0,-3.71506 -3.01168,-6.72671 -6.72671,-6.72671 h -48.95746 c -3.71503,0 -6.72671,3.01165 -6.72671,6.72671 0,3.71507 3.01168,6.72671 6.72671,6.72671 z"
           style="opacity:1;fill:#ffc001;fill-opacity:1;fill-rule:nonzero;stroke:none;stroke-width:1.41604;stroke-linecap:round;stroke-linejoin:round;stroke-miterlimit:4;stroke-dasharray:none;stroke-dashoffset:0;stroke-opacity:1;paint-order:markers fill stroke" /></g><g
         transform="translate(3109.863,-748.59561)"
         id="g2642"
         style="stroke:none;stroke-width:1.41604;stroke-linecap:round;stroke-linejoin:round;stroke-miterlimit:4;stroke-dasharray:none;stroke-opacity:1"><path
           sodipodi:nodetypes="sscsssscs"
           inkscape:connector-curvature="0"
           id="path2622"
           d="m 992.31592,242.82274 c -11.0902,-3.58413 -29.17447,3.29232 -32.63039,26.31234 -4.66036,31.04424 23.33837,53.99098 34.91343,31.48604 4.88817,15.41808 -3.22774,29.1733 -17.26254,28.50083 -20.00049,-0.95831 -29.27896,-35.74888 -27.3518,-60.41304 1.80805,-23.14073 13.8199,-57.8272 41.32184,-63.32806 16.99054,-3.39838 37.15064,7.20227 44.08674,26.70241 11.1832,31.44167 -15.6011,57.23393 -28.6939,49.96014 8.0447,-21.47736 -4.9872,-36.18395 -14.38338,-39.22066 z"
           style="fill:#ffc001;fill-opacity:1;stroke:none;stroke-width:1.41604;stroke-linecap:round;stroke-linejoin:round;stroke-miterlimit:4;stroke-dasharray:none;stroke-opacity:1" /><path
           style="fill:#ffc001;fill-opacity:1;stroke:none;stroke-width:1.41604;stroke-linecap:round;stroke-linejoin:round;stroke-miterlimit:4;stroke-dasharray:none;stroke-opacity:1"
           d="m 951.81793,333.59813 c 2.40323,-15.91259 -10.47699,-31.60069 -9.90334,-53.53104 2.00124,-76.50154 41.25977,-75.89719 33.22261,-111.82922 -5.00172,-22.36135 -25.75201,-16.95272 -39.53837,-49.04658 -13.78635,32.09386 -34.53664,26.68523 -39.53836,49.04658 -8.03716,35.93203 31.22137,35.32768 33.22261,111.82922 0.57365,21.93035 -12.30657,37.61845 -9.90334,53.53104 2.76406,18.30179 8.36238,12.45811 16.21909,35.59316 7.85672,-23.13505 13.45504,-17.29137 16.2191,-35.59316 z"
           id="path2628"
           inkscape:connector-curvature="0"
           sodipodi:nodetypes="ssscssscs" /><path
           style="fill:#ffc001;fill-opacity:1;stroke:none;stroke-width:1.41604;stroke-linecap:round;stroke-linejoin:round;stroke-miterlimit:4;stroke-dasharray:none;stroke-opacity:1"
           d="m 878.88188,242.82274 c 11.0902,-3.58413 29.17447,3.29232 32.63039,26.31234 4.66036,31.04424 -23.33837,53.99098 -34.91343,31.48604 -4.88817,15.41808 3.22774,29.1733 17.26254,28.50083 20.00049,-0.95831 29.27896,-35.74888 27.3518,-60.41304 -1.80805,-23.14073 -13.8199,-57.8272 -41.32184,-63.32806 -16.99051,-3.39838 -37.15065,7.20227 -44.0867,26.70241 -11.18329,31.44167 15.60104,57.23393 28.69383,49.96014 -8.0447,-21.47736 4.98718,-36.18395 14.38341,-39.22066 z"
           id="path2634"
           inkscape:connector-curvature="0"
           sodipodi:nodetypes="sscsssscs" /><path
           style="opacity:1;fill:#ffc001;fill-opacity:1;fill-rule:nonzero;stroke:none;stroke-width:1.41604;stroke-linecap:round;stroke-linejoin:round;stroke-miterlimit:4;stroke-dasharray:none;stroke-dashoffset:0;stroke-opacity:1;paint-order:markers fill stroke"
           d="m 960.07752,283.11634 c 3.71503,0 6.72671,-3.01164 6.72671,-6.72671 0,-3.71506 -3.01168,-6.72671 -6.72671,-6.72671 h -48.95746 c -3.71503,0 -6.72671,3.01165 -6.72671,6.72671 0,3.71507 3.01168,6.72671 6.72671,6.72671 z"
           id="path2640"
           inkscape:connector-curvature="0"
           sodipodi:nodetypes="czsszcc" /></g></g></g></svg>
