<?xml version="1.0" encoding="UTF-8" standalone="no"?>
<!-- Created with Inkscape (http://www.inkscape.org/) -->

<svg
   width="2700"
   height="1200"
   viewBox="0 0 714.37499 317.50001"
   version="1.1"
   id="svg8"
   inkscape:export-filename="C:\Users\厂永刄先生\Documents\GXI3CW2\JáÈŭcèŭ\Maqkàla\Maqkàla.png"
   inkscape:export-xdpi="96"
   inkscape:export-ydpi="96"
   inkscape:version="1.3 (0e150ed6c4, 2023-07-21)"
   sodipodi:docname="fr_1939_roundel_v.svg"
   xmlns:inkscape="http://www.inkscape.org/namespaces/inkscape"
   xmlns:sodipodi="http://sodipodi.sourceforge.net/DTD/sodipodi-0.dtd"
   xmlns="http://www.w3.org/2000/svg"
   xmlns:svg="http://www.w3.org/2000/svg"
   xmlns:rdf="http://www.w3.org/1999/02/22-rdf-syntax-ns#"
   xmlns:cc="http://creativecommons.org/ns#"
   xmlns:dc="http://purl.org/dc/elements/1.1/">
  <defs
     id="defs2" />
  <sodipodi:namedview
     id="base"
     pagecolor="#ffffff"
     bordercolor="#666666"
     borderopacity="1.0"
     inkscape:pageopacity="0.0"
     inkscape:pageshadow="2"
     inkscape:zoom="0.20983334"
     inkscape:cx="1241.4614"
     inkscape:cy="945.98885"
     inkscape:document-units="px"
     inkscape:current-layer="g1364"
     showgrid="false"
     units="px"
     fit-margin-top="0"
     fit-margin-left="0"
     fit-margin-right="0"
     fit-margin-bottom="0"
     inkscape:showpageshadow="false"
     inkscape:snap-intersection-paths="false"
     inkscape:object-paths="false"
     inkscape:pagecheckerboard="true"
     inkscape:snap-smooth-nodes="true"
     inkscape:window-width="1920"
     inkscape:window-height="1009"
     inkscape:window-x="-8"
     inkscape:window-y="-8"
     inkscape:window-maximized="1"
     inkscape:object-nodes="true"
     inkscape:snap-nodes="true"
     inkscape:deskcolor="#505050" />
  <metadata
     id="metadata5">
    <rdf:RDF>
      <cc:Work
         rdf:about="">
        <dc:format>image/svg+xml</dc:format>
        <dc:type
           rdf:resource="http://purl.org/dc/dcmitype/StillImage" />
      </cc:Work>
    </rdf:RDF>
  </metadata>
  <g
     inkscape:label="レイヤー 1"
     inkscape:groupmode="layer"
     id="layer1"
     transform="translate(3.5639393,-418.41901)">
    <g
       id="g1364"
       inkscape:export-xdpi="96"
       inkscape:export-ydpi="96">
      <path
         id="path1"
         style="fill:#000000;fill-opacity:1;stroke-width:0.213367;stroke-linecap:round;stroke-linejoin:round;stroke-miterlimit:3.9"
         d="m 512.37357,577.16901 a 158.75,158.75 0 0 1 -158.75,158.75 158.75,158.75 0 0 1 -158.75,-158.75 158.75,158.75 0 0 1 158.75,-158.75 158.75,158.75 0 0 1 158.75,158.75 z" />
      <path
         style="fill:#000000;fill-opacity:1;stroke:none;stroke-width:0.43057px;stroke-linecap:butt;stroke-linejoin:miter;stroke-opacity:1"
         d="m -3.5639347,497.79401 v 158.75 H 710.81107 v -158.75 z"
         id="path3"
         inkscape:connector-curvature="0"
         sodipodi:nodetypes="ccccc" />
      <path
         style="fill:#ffffff;fill-opacity:1;stroke:none;stroke-width:0.571216px;stroke-linecap:butt;stroke-linejoin:miter;stroke-opacity:1"
         d="m 4.3735646,505.73151 v 142.875 H 702.87357 v -142.875 z"
         id="path2"
         inkscape:connector-curvature="0"
         sodipodi:nodetypes="ccccc" />
      <path
         id="path4"
         style="fill:#ffc000;fill-opacity:1;stroke-width:0.202699;stroke-linecap:round;stroke-linejoin:round;stroke-miterlimit:3.9"
         d="m 504.43607,577.16901 a 150.8125,150.8125 0 0 1 -150.8125,150.8125 150.8125,150.8125 0 0 1 -150.8125,-150.8125 150.8125,150.8125 0 0 1 150.8125,-150.8125 150.8125,150.8125 0 0 1 150.8125,150.8125 z" />
      <path
         id="circle7"
         style="fill:#ff0000;fill-opacity:1;stroke-width:7.8141;stroke-linecap:round;stroke-linejoin:round;stroke-miterlimit:155;paint-order:stroke fill markers"
         d="m 210.74857,577.169 c 0,78.90768 63.96732,142.87501 142.875,142.87501 78.90768,0 142.875,-63.96733 142.875,-142.87501 0,-78.90768 -63.96732,-142.875 -142.875,-142.875 -78.90768,0 -142.875,63.96732 -142.875,142.875 z"
         sodipodi:nodetypes="zzzzz" />
      <path
         id="circle8-5"
         style="fill:#ffffff;fill-opacity:1;stroke-width:5.2094;stroke-linecap:round;stroke-linejoin:round;stroke-miterlimit:155;paint-order:stroke fill markers"
         d="m 258.37357,577.169 c 0,52.60513 42.64488,95.25001 95.25,95.25001 52.60512,0 95.25,-42.64488 95.25,-95.25001 0,-52.60511 -42.64488,-95.25 -95.25,-95.25 -52.60512,0 -95.25,42.64489 -95.25,95.25 z"
         sodipodi:nodetypes="zzzzz" />
      <path
         id="circle9"
         style="fill:#0000a8;fill-opacity:1;stroke-width:2.6047;stroke-linecap:round;stroke-linejoin:round;stroke-miterlimit:155;paint-order:stroke fill markers"
         d="m 305.99857,577.16901 c 0,26.30256 21.32244,47.625 47.625,47.625 26.30256,0 47.625,-21.32244 47.625,-47.625 0,-26.30256 -21.32244,-47.625 -47.625,-47.625 -26.30256,0 -47.625,21.32244 -47.625,47.625 z"
         sodipodi:nodetypes="zzzzz" />
    </g>
  </g>
</svg>
