<?xml version="1.0" encoding="UTF-8" standalone="no"?>
<!-- Created with Inkscape (http://www.inkscape.org/) -->

<svg
   xmlns:dc="http://purl.org/dc/elements/1.1/"
   xmlns:cc="http://creativecommons.org/ns#"
   xmlns:rdf="http://www.w3.org/1999/02/22-rdf-syntax-ns#"
   xmlns:svg="http://www.w3.org/2000/svg"
   xmlns="http://www.w3.org/2000/svg"
   xmlns:sodipodi="http://sodipodi.sourceforge.net/DTD/sodipodi-0.dtd"
   xmlns:inkscape="http://www.inkscape.org/namespaces/inkscape"
   width="1447.8948"
   height="1415.7278"
   viewBox="0 0 383.08883 374.57798"
   version="1.1"
   id="svg8"
   inkscape:export-filename="C:\Users\厂永刄先生\Documents\GXI3CW2\JáÈŭcèŭ\N̂i\01-北海道\章ﾈｵﾝ.png"
   inkscape:export-xdpi="96"
   inkscape:export-ydpi="96"
   inkscape:version="0.92.4 (5da689c313, 2019-01-14)"
   sodipodi:docname="道章ﾈｵﾝ.svg">
  <defs
     id="defs2">
    <filter
       inkscape:collect="always"
       style="color-interpolation-filters:sRGB"
       id="filter852"
       x="-0.023699738"
       width="1.0473995"
       y="-0.024307966"
       height="1.0486159">
      <feGaussianBlur
         inkscape:collect="always"
         stdDeviation="3.3588177"
         id="feGaussianBlur854" />
    </filter>
    <filter
       inkscape:collect="always"
       style="color-interpolation-filters:sRGB"
       id="filter870"
       x="-0.041474544"
       width="1.082949"
       y="-0.042538945"
       height="1.0850779">
      <feGaussianBlur
         inkscape:collect="always"
         stdDeviation="5.877931"
         id="feGaussianBlur872" />
    </filter>
    <filter
       inkscape:collect="always"
       style="color-interpolation-filters:sRGB"
       id="filter876"
       x="-0.059249345"
       width="1.1184987"
       y="-0.060769919"
       height="1.1215398">
      <feGaussianBlur
         inkscape:collect="always"
         stdDeviation="8.3970442"
         id="feGaussianBlur878" />
    </filter>
    <filter
       inkscape:collect="always"
       style="color-interpolation-filters:sRGB"
       id="filter886"
       x="-0.023699945"
       width="1.0473999"
       y="-0.024307752"
       height="1.0486155">
      <feGaussianBlur
         inkscape:collect="always"
         stdDeviation="2.8939112"
         id="feGaussianBlur888" />
    </filter>
    <filter
       inkscape:collect="always"
       style="color-interpolation-filters:sRGB"
       id="filter896"
       x="-0.041474901"
       width="1.0829498"
       y="-0.042538565"
       height="1.085077">
      <feGaussianBlur
         inkscape:collect="always"
         stdDeviation="5.0643445"
         id="feGaussianBlur898" />
    </filter>
    <filter
       inkscape:collect="always"
       style="color-interpolation-filters:sRGB"
       id="filter902"
       x="-0.059249859"
       width="1.1184998"
       y="-0.060769379"
       height="1.1215388">
      <feGaussianBlur
         inkscape:collect="always"
         stdDeviation="7.2347779"
         id="feGaussianBlur904" />
    </filter>
  </defs>
  <sodipodi:namedview
     id="base"
     pagecolor="#000000"
     bordercolor="#666666"
     borderopacity="1.0"
     inkscape:pageopacity="1"
     inkscape:pageshadow="2"
     inkscape:zoom="0.38698814"
     inkscape:cx="723.94739"
     inkscape:cy="707.86388"
     inkscape:document-units="px"
     inkscape:current-layer="layer1"
     showgrid="false"
     units="px"
     fit-margin-top="5"
     fit-margin-left="5"
     fit-margin-right="5"
     fit-margin-bottom="5"
     inkscape:showpageshadow="false"
     inkscape:snap-intersection-paths="false"
     inkscape:object-paths="false"
     inkscape:pagecheckerboard="true"
     inkscape:snap-smooth-nodes="true"
     inkscape:window-width="1366"
     inkscape:window-height="745"
     inkscape:window-x="-8"
     inkscape:window-y="-8"
     inkscape:window-maximized="1"
     inkscape:object-nodes="true"
     inkscape:snap-nodes="true" />
  <metadata
     id="metadata5">
    <rdf:RDF>
      <cc:Work
         rdf:about="">
        <dc:format>image/svg+xml</dc:format>
        <dc:type
           rdf:resource="http://purl.org/dc/dcmitype/StillImage" />
        <dc:title />
      </cc:Work>
    </rdf:RDF>
  </metadata>
  <g
     inkscape:label="レイヤー 1"
     inkscape:groupmode="layer"
     id="layer1"
     transform="translate(-62.842329,-349.23018)">
    <path
       style="fill:none;fill-opacity:1;stroke:#013aff;stroke-width:10.58333302;stroke-linecap:round;stroke-linejoin:round;stroke-miterlimit:4;stroke-dasharray:none;stroke-opacity:1;filter:url(#filter876)"
       d="m 405.90884,460.06156 -34.01831,-16.38389 -8.40131,-36.8086 -75.09335,59.88494 m 0,-96.04801 -34.00913,16.37948 -34.00911,-16.37948 v 96.04801 l -75.09336,-59.88494 -8.40132,36.8086 -34.01829,16.38389 75.09335,59.88495 -93.639859,21.37269 23.541089,29.5196 -8.401718,36.81036 m 93.639898,-21.3727 -41.67367,86.53627 m 37.75698,-10e-6 23.54113,29.51963 m 41.66489,-86.51807 41.66489,86.51807 m 23.54111,-29.51963 37.75697,10e-6 -41.67364,-86.53627 93.63988,21.3727 -8.40173,-36.81036 m 23.54111,-29.5196 -93.63986,-21.37269"
       id="path874"
       inkscape:connector-curvature="0"
       sodipodi:nodetypes="cccccccccccccccccccccccccccc" />
    <path
       sodipodi:nodetypes="cccccccccccccccccccccccccccc"
       inkscape:connector-curvature="0"
       id="path856"
       d="m 405.90884,460.06156 -34.01831,-16.38389 -8.40131,-36.8086 -75.09335,59.88494 m 0,-96.04801 -34.00913,16.37948 -34.00911,-16.37948 v 96.04801 l -75.09336,-59.88494 -8.40132,36.8086 -34.01829,16.38389 75.09335,59.88495 -93.639859,21.37269 23.541089,29.5196 -8.401718,36.81036 m 93.639898,-21.3727 -41.67367,86.53627 m 37.75698,-10e-6 23.54113,29.51963 m 41.66489,-86.51807 41.66489,86.51807 m 23.54111,-29.51963 37.75697,10e-6 -41.67364,-86.53627 93.63988,21.3727 -8.40173,-36.81036 m 23.54111,-29.5196 -93.63986,-21.37269"
       style="fill:none;fill-opacity:1;stroke:#013aff;stroke-width:10.58333302;stroke-linecap:round;stroke-linejoin:round;stroke-miterlimit:4;stroke-dasharray:none;stroke-opacity:1;filter:url(#filter870)" />
    <path
       style="fill:none;fill-opacity:1;stroke:#013aff;stroke-width:10.58333302;stroke-linecap:round;stroke-linejoin:round;stroke-miterlimit:4;stroke-dasharray:none;stroke-opacity:1;filter:url(#filter852)"
       d="m 405.90884,460.06156 -34.01831,-16.38389 -8.40131,-36.8086 -75.09335,59.88494 m 0,-96.04801 -34.00913,16.37948 -34.00911,-16.37948 v 96.04801 l -75.09336,-59.88494 -8.40132,36.8086 -34.01829,16.38389 75.09335,59.88495 -93.639859,21.37269 23.541089,29.5196 -8.401718,36.81036 m 93.639898,-21.3727 -41.67367,86.53627 m 37.75698,-10e-6 23.54113,29.51963 m 41.66489,-86.51807 41.66489,86.51807 m 23.54111,-29.51963 37.75697,10e-6 -41.67364,-86.53627 93.63988,21.3727 -8.40173,-36.81036 m 23.54111,-29.5196 -93.63986,-21.37269"
       id="path850"
       inkscape:connector-curvature="0"
       sodipodi:nodetypes="cccccccccccccccccccccccccccc" />
    <path
       sodipodi:nodetypes="cccccccccccccccccccccccccccc"
       inkscape:connector-curvature="0"
       id="path848"
       d="m 405.90884,460.06156 -34.01831,-16.38389 -8.40131,-36.8086 -75.09335,59.88494 m 0,-96.04801 -34.00913,16.37948 -34.00911,-16.37948 v 96.04801 l -75.09336,-59.88494 -8.40132,36.8086 -34.01829,16.38389 75.09335,59.88495 -93.639859,21.37269 23.541089,29.5196 -8.401718,36.81036 m 93.639898,-21.3727 -41.67367,86.53627 m 37.75698,-10e-6 23.54113,29.51963 m 41.66489,-86.51807 41.66489,86.51807 m 23.54111,-29.51963 37.75697,10e-6 -41.67364,-86.53627 93.63988,21.3727 -8.40173,-36.81036 m 23.54111,-29.5196 -93.63986,-21.37269"
       style="fill:none;fill-opacity:1;stroke:#c1cfff;stroke-width:5.29166651;stroke-linecap:round;stroke-linejoin:round;stroke-miterlimit:4;stroke-dasharray:none;stroke-opacity:1" />
    <path
       sodipodi:nodetypes="cccccccccccccc"
       inkscape:connector-curvature="0"
       id="path900"
       d="M 287.54295,529.82313 400.91423,570.8388 280.97422,558.60262 319.59275,672.81272 254.37797,571.4107 m -65.19724,101.40202 38.601,-114.2101 M 107.85924,570.8388 221.213,529.82313 l -84.33005,-86.14546 102.73522,63.0661 14.76857,-119.65829 14.75104,119.6583 102.75275,-63.06611"
       style="fill:none;fill-opacity:1;stroke:#ff0000;stroke-width:10.58333302;stroke-linecap:round;stroke-linejoin:round;stroke-miterlimit:4;stroke-dasharray:none;stroke-opacity:1;filter:url(#filter902)" />
    <path
       style="fill:none;fill-opacity:1;stroke:#ff0000;stroke-width:10.58333302;stroke-linecap:round;stroke-linejoin:round;stroke-miterlimit:4;stroke-dasharray:none;stroke-opacity:1;filter:url(#filter896)"
       d="M 287.54295,529.82313 400.91423,570.8388 280.97422,558.60262 319.59275,672.81272 254.37797,571.4107 m -65.19724,101.40202 38.601,-114.2101 M 107.85924,570.8388 221.213,529.82313 l -84.33005,-86.14546 102.73522,63.0661 14.76857,-119.65829 14.75104,119.6583 102.75275,-63.06611"
       id="path890"
       inkscape:connector-curvature="0"
       sodipodi:nodetypes="cccccccccccccc" />
    <path
       sodipodi:nodetypes="cccccccccccccc"
       inkscape:connector-curvature="0"
       id="path880"
       d="M 287.54295,529.82313 400.91423,570.8388 280.97422,558.60262 319.59275,672.81272 254.37797,571.4107 m -65.19724,101.40202 38.601,-114.2101 M 107.85924,570.8388 221.213,529.82313 l -84.33005,-86.14546 102.73522,63.0661 14.76857,-119.65829 14.75104,119.6583 102.75275,-63.06611"
       style="fill:none;fill-opacity:1;stroke:#ff0000;stroke-width:10.58333302;stroke-linecap:round;stroke-linejoin:round;stroke-miterlimit:4;stroke-dasharray:none;stroke-opacity:1;filter:url(#filter886)" />
    <path
       style="fill:none;fill-opacity:1;stroke:#ffc1c1;stroke-width:5.29166651;stroke-linecap:round;stroke-linejoin:round;stroke-miterlimit:4;stroke-dasharray:none;stroke-opacity:1"
       d="M 287.54295,529.82313 400.91423,570.8388 280.97422,558.60262 319.59275,672.81272 254.37797,571.4107 m -65.19724,101.40202 38.601,-114.2101 M 107.85924,570.8388 221.213,529.82313 l -84.33005,-86.14546 102.73522,63.0661 14.76857,-119.65829 14.75104,119.6583 102.75275,-63.06611"
       id="path873"
       inkscape:connector-curvature="0"
       sodipodi:nodetypes="cccccccccccccc" />
  </g>
</svg>
