<?xml version="1.0" encoding="UTF-8" standalone="no"?>
<!-- Created with Inkscape (http://www.inkscape.org/) -->

<svg
   xmlns:dc="http://purl.org/dc/elements/1.1/"
   xmlns:cc="http://creativecommons.org/ns#"
   xmlns:rdf="http://www.w3.org/1999/02/22-rdf-syntax-ns#"
   xmlns:svg="http://www.w3.org/2000/svg"
   xmlns="http://www.w3.org/2000/svg"
   xmlns:sodipodi="http://sodipodi.sourceforge.net/DTD/sodipodi-0.dtd"
   xmlns:inkscape="http://www.inkscape.org/namespaces/inkscape"
   width="1289.3141"
   height="1289.314"
   viewBox="0 0 341.13102 341.13099"
   version="1.1"
   id="svg8"
   inkscape:export-filename="C:\Users\厂永刄先生\Documents\GXI3CW2\JáÈŭcèŭ\N̂i\01-北海道\章.png"
   inkscape:export-xdpi="96"
   inkscape:export-ydpi="96"
   inkscape:version="0.92.4 (5da689c313, 2019-01-14)"
   sodipodi:docname="道章.svg">
  <defs
     id="defs2" />
  <sodipodi:namedview
     id="base"
     pagecolor="#ffffff"
     bordercolor="#666666"
     borderopacity="1.0"
     inkscape:pageopacity="0.0"
     inkscape:pageshadow="2"
     inkscape:zoom="0.30222223"
     inkscape:cx="626.5908"
     inkscape:cy="644.657"
     inkscape:document-units="px"
     inkscape:current-layer="layer1"
     showgrid="false"
     units="px"
     fit-margin-top="0"
     fit-margin-left="0"
     fit-margin-right="0"
     fit-margin-bottom="0"
     inkscape:showpageshadow="false"
     inkscape:snap-intersection-paths="false"
     inkscape:object-paths="false"
     inkscape:pagecheckerboard="true"
     inkscape:snap-smooth-nodes="true"
     inkscape:window-width="1366"
     inkscape:window-height="745"
     inkscape:window-x="-8"
     inkscape:window-y="-8"
     inkscape:window-maximized="1"
     inkscape:object-nodes="true"
     inkscape:snap-nodes="true" />
  <metadata
     id="metadata5">
    <rdf:RDF>
      <cc:Work
         rdf:about="">
        <dc:format>image/svg+xml</dc:format>
        <dc:type
           rdf:resource="http://purl.org/dc/dcmitype/StillImage" />
        <dc:title></dc:title>
      </cc:Work>
    </rdf:RDF>
  </metadata>
  <g
     inkscape:label="レイヤー 1"
     inkscape:groupmode="layer"
     id="layer1"
     transform="translate(-83.829995,-366.82736)">
    <path
       style="fill:#000000;fill-opacity:1;stroke:none;stroke-width:0.26458335px;stroke-linecap:butt;stroke-linejoin:miter;stroke-opacity:1"
       d="m 220.37763,370.706 v 96.04801 l -75.09336,-59.88494 -8.40132,36.8086 -34.01829,16.38389 75.09335,59.88495 -93.639859,21.37269 23.541089,29.5196 -8.401718,36.81036 93.639898,-21.3727 -41.67367,86.53627 37.75698,-10e-6 23.54113,29.51963 41.66489,-86.51807 41.66489,86.51807 23.54111,-29.51963 37.75697,10e-6 -41.67364,-86.53627 93.63988,21.3727 -8.40173,-36.81036 23.54111,-29.5196 -93.63986,-21.37269 75.09336,-59.88495 -34.01831,-16.38389 -8.40131,-36.8086 -75.09335,59.88494 V 370.706 l -34.00913,16.37948 z m 48.76015,136.03778 102.75275,-63.06611 -84.34758,86.14546 113.37128,41.01567 -119.94001,-12.23618 38.61853,114.2101 -65.21478,-101.40202 -65.19724,101.40202 38.601,-114.2101 -119.92249,12.23618 113.35376,-41.01567 -84.33005,-86.14546 102.73522,63.0661 14.76857,-119.65829 z"
       id="path873"
       inkscape:connector-curvature="0"
       sodipodi:nodetypes="cccccccccccccccccccccccccccccccccccccccccccc" />
  </g>
</svg>
