<?xml version="1.0" encoding="UTF-8" standalone="no"?>
<!-- Created with Inkscape (http://www.inkscape.org/) -->

<svg
   width="1800"
   height="1800"
   viewBox="0 0 476.25 476.25001"
   version="1.1"
   id="svg8"
   inkscape:export-filename="C:\Users\厂永刄先生\Documents\GXI3CW2\,pjóŭ\Ghana.png"
   inkscape:export-xdpi="96"
   inkscape:export-ydpi="96"
   inkscape:version="1.3 (0e150ed6c4, 2023-07-21)"
   sodipodi:docname="td_1961_roundel.svg"
   xmlns:inkscape="http://www.inkscape.org/namespaces/inkscape"
   xmlns:sodipodi="http://sodipodi.sourceforge.net/DTD/sodipodi-0.dtd"
   xmlns="http://www.w3.org/2000/svg"
   xmlns:svg="http://www.w3.org/2000/svg"
   xmlns:rdf="http://www.w3.org/1999/02/22-rdf-syntax-ns#"
   xmlns:cc="http://creativecommons.org/ns#"
   xmlns:dc="http://purl.org/dc/elements/1.1/">
  <defs
     id="defs2" />
  <sodipodi:namedview
     id="base"
     pagecolor="#ffffff"
     bordercolor="#666666"
     borderopacity="1.0"
     inkscape:pageopacity="0.0"
     inkscape:pageshadow="2"
     inkscape:zoom="0.42740678"
     inkscape:cx="759.22989"
     inkscape:cy="806.02372"
     inkscape:document-units="px"
     inkscape:current-layer="g1"
     showgrid="false"
     units="px"
     fit-margin-top="0"
     fit-margin-left="0"
     fit-margin-right="0"
     fit-margin-bottom="0"
     inkscape:showpageshadow="false"
     inkscape:snap-intersection-paths="true"
     inkscape:object-paths="false"
     inkscape:pagecheckerboard="true"
     inkscape:snap-smooth-nodes="false"
     inkscape:window-width="1920"
     inkscape:window-height="1009"
     inkscape:window-x="-8"
     inkscape:window-y="-8"
     inkscape:window-maximized="1"
     inkscape:object-nodes="true"
     inkscape:snap-nodes="true"
     inkscape:deskcolor="#505050" />
  <metadata
     id="metadata5">
    <rdf:RDF>
      <cc:Work
         rdf:about="">
        <dc:format>image/svg+xml</dc:format>
        <dc:type
           rdf:resource="http://purl.org/dc/dcmitype/StillImage" />
      </cc:Work>
    </rdf:RDF>
  </metadata>
  <g
     inkscape:label="レイヤー 1"
     inkscape:groupmode="layer"
     id="layer1"
     transform="translate(-444.87799,-608.83038)">
    <g
       id="g1">
      <path
         id="circle7"
         style="fill:#ffff00;stroke-width:13.0235;stroke-linecap:round;stroke-linejoin:round;stroke-miterlimit:155;paint-order:stroke fill markers;fill-opacity:1"
         d="m 444.87799,846.95538 c 0,131.5128 106.6122,238.12502 238.125,238.12502 131.5128,0 238.125,-106.61222 238.125,-238.12502 0,-131.5128 -106.6122,-238.125 -238.125,-238.125 -131.5128,0 -238.125,106.6122 -238.125,238.125 z"
         sodipodi:nodetypes="zzzzz" />
      <path
         id="path4"
         style="fill:#da251d;fill-opacity:1;stroke-width:6.94586;stroke-linecap:round;stroke-linejoin:round;stroke-miterlimit:155;paint-order:stroke fill markers"
         d="m 762.37799,846.95538 c 0,43.8376 -35.5374,79.375 -79.375,79.375 -43.8376,0 -79.375,-35.5374 -79.375,-79.375 0,-43.8376 35.5374,-79.375 79.375,-79.375 43.8376,0 79.375,35.5374 79.375,79.375 z m -174.625,10e-6 c 0,52.60512 42.64488,95.25001 95.25,95.25001 52.60512,0 95.25,-42.64489 95.25,-95.25001 0,-52.60512 -42.64489,-95.25 -95.25,-95.25 -52.60512,0 -95.25,42.64488 -95.25,95.25 z m 206.37499,-10e-6 c 0,61.37263 -49.75235,111.12501 -111.12499,111.12501 -61.37264,0 -111.125,-49.75237 -111.125,-111.12501 0,-61.37264 49.75236,-111.12499 111.125,-111.12499 61.37263,0 111.12499,49.75236 111.12499,111.12499 z m -238.12499,0 c 0,70.14016 56.85984,127.00001 127,127.00001 70.14015,0 126.99999,-56.85986 126.99999,-127.00001 0,-70.14016 -56.85984,-126.99999 -126.99999,-126.99999 -70.14015,0 -127,56.85983 -127,126.99999 z m 269.87499,0 c 0,78.90768 -63.96732,142.87501 -142.87499,142.87501 -78.90768,0 -142.875,-63.96733 -142.875,-142.87501 0,-78.90768 63.96732,-142.87499 142.875,-142.87499 78.90767,0 142.87499,63.96731 142.87499,142.87499 z m -301.62499,0 c 0,87.6752 71.0748,158.75002 158.75,158.75002 87.6752,0 158.75,-71.07482 158.75,-158.75002 0,-87.6752 -71.0748,-158.75 -158.75,-158.75 -87.6752,0 -158.75,71.0748 -158.75,158.75 z"
         sodipodi:nodetypes="zzzzzzzzzzzzzzzzzzzzzzzzzzzzzz" />
    </g>
  </g>
</svg>
