<?xml version="1.0" encoding="UTF-8" standalone="no"?>
<!-- Created with Inkscape (http://www.inkscape.org/) -->

<svg
   xmlns:dc="http://purl.org/dc/elements/1.1/"
   xmlns:cc="http://creativecommons.org/ns#"
   xmlns:rdf="http://www.w3.org/1999/02/22-rdf-syntax-ns#"
   xmlns:svg="http://www.w3.org/2000/svg"
   xmlns="http://www.w3.org/2000/svg"
   xmlns:sodipodi="http://sodipodi.sourceforge.net/DTD/sodipodi-0.dtd"
   xmlns:inkscape="http://www.inkscape.org/namespaces/inkscape"
   width="1219.5964"
   height="1219.538"
   viewBox="0 0 322.68489 322.66943"
   version="1.1"
   id="svg8"
   inkscape:export-filename="C:\Users\厂永刄先生\Documents\GXI3CW2\JáÈŭcèŭ\N̂i\福井県\章ﾈｵﾝ.png"
   inkscape:export-xdpi="96"
   inkscape:export-ydpi="96"
   inkscape:version="0.92.4 (5da689c313, 2019-01-14)"
   sodipodi:docname="章ﾈｵﾝ.svg">
  <defs
     id="defs2">
    <filter
       inkscape:collect="always"
       style="color-interpolation-filters:sRGB"
       id="filter834"
       x="-0.029999187"
       width="1.0599984"
       y="-0.030000813"
       height="1.0600016">
      <feGaussianBlur
         inkscape:collect="always"
         stdDeviation="3.5717782"
         id="feGaussianBlur836" />
    </filter>
    <filter
       inkscape:collect="always"
       style="color-interpolation-filters:sRGB"
       id="filter848"
       x="-0.041998863"
       width="1.0839977"
       y="-0.042001139"
       height="1.0840023">
      <feGaussianBlur
         inkscape:collect="always"
         stdDeviation="5.0004895"
         id="feGaussianBlur850" />
    </filter>
    <filter
       inkscape:collect="always"
       style="color-interpolation-filters:sRGB"
       id="filter858"
       x="-0.059998374"
       width="1.1199967"
       y="-0.060001627"
       height="1.1200033">
      <feGaussianBlur
         inkscape:collect="always"
         stdDeviation="7.1435564"
         id="feGaussianBlur860" />
    </filter>
  </defs>
  <sodipodi:namedview
     id="base"
     pagecolor="#000000"
     bordercolor="#666666"
     borderopacity="1.0"
     inkscape:pageopacity="1"
     inkscape:pageshadow="2"
     inkscape:zoom="0.44607057"
     inkscape:cx="609.79822"
     inkscape:cy="609.76898"
     inkscape:document-units="px"
     inkscape:current-layer="layer1"
     showgrid="false"
     units="px"
     fit-margin-top="5"
     fit-margin-left="5"
     fit-margin-right="5"
     fit-margin-bottom="5"
     inkscape:showpageshadow="false"
     inkscape:snap-intersection-paths="true"
     inkscape:object-paths="false"
     inkscape:pagecheckerboard="true"
     inkscape:snap-smooth-nodes="true"
     inkscape:window-width="1366"
     inkscape:window-height="745"
     inkscape:window-x="-8"
     inkscape:window-y="-8"
     inkscape:window-maximized="1"
     inkscape:object-nodes="true"
     inkscape:snap-nodes="true" />
  <metadata
     id="metadata5">
    <rdf:RDF>
      <cc:Work
         rdf:about="">
        <dc:format>image/svg+xml</dc:format>
        <dc:type
           rdf:resource="http://purl.org/dc/dcmitype/StillImage" />
        <dc:title></dc:title>
      </cc:Work>
    </rdf:RDF>
  </metadata>
  <g
     inkscape:label="レイヤー 1"
     inkscape:groupmode="layer"
     id="layer1"
     transform="translate(-93.035528,-376.05041)">
    <path
       sodipodi:nodetypes="ccccscsccccczcccccccsccccsc"
       inkscape:connector-curvature="0"
       id="path852"
       d="m 152.32428,537.39287 c 0,55.6805 44.59227,100.94399 100.0125,102.03151 m 0,40.82799 C 174.37032,679.1603 111.50299,615.61886 111.50299,537.39287 h -1e-5 c 0,-28.63132 8.42173,-55.29585 22.92503,-77.65156 68.94079,26.31086 117.90871,93.05619 117.90871,171.2386 0,1.45812 -0.0188,2.91155 -0.0527,4.3615 -14.64418,-0.30639 -28.49213,-3.81672 -40.87291,-9.85986 C 209.725,581.07047 187.70082,541.86792 154.38067,516.926 m 18.95729,-41.56966 c -11.37594,-7.63667 -23.63445,-14.05824 -36.58897,-19.08101 25.77813,-37.31019 68.84806,-61.75747 117.629,-61.75747 48.78094,0 91.85087,24.44728 117.62899,61.75747 m -36.58897,19.08101 C 320.7135,456.17642 299.35234,442.36996 274.78864,437.38346 m -20.41065,165.88447 c -3.24747,-21.87292 -10.27983,-42.51567 -20.41065,-61.24072 V 437.38346 m 22.5046,197.95793 c -0.0339,-1.44995 -0.0527,-2.90338 -0.0527,-4.3615 0,-78.18241 48.96792,-144.92774 117.90871,-171.2386 14.5033,22.35571 22.92503,49.02024 22.92503,77.65156 m -140.83379,142.8595 v -40.82799 c 55.42023,-1.08752 100.0125,-46.35101 100.0125,-102.03151 0,-7.00777 -0.7067,-13.85077 -2.0564,-20.46687"
       style="opacity:1;fill:none;fill-opacity:1;fill-rule:evenodd;stroke:#003dff;stroke-width:10.58333397;stroke-linecap:round;stroke-linejoin:round;stroke-miterlimit:4;stroke-dasharray:none;stroke-dashoffset:0;stroke-opacity:1;filter:url(#filter858)" />
    <path
       style="opacity:1;fill:none;fill-opacity:1;fill-rule:evenodd;stroke:#003dff;stroke-width:10.58333397;stroke-linecap:round;stroke-linejoin:round;stroke-miterlimit:4;stroke-dasharray:none;stroke-dashoffset:0;stroke-opacity:1;filter:url(#filter848)"
       d="m 152.32428,537.39287 c 0,55.6805 44.59227,100.94399 100.0125,102.03151 m 0,40.82799 C 174.37032,679.1603 111.50299,615.61886 111.50299,537.39287 h -1e-5 c 0,-28.63132 8.42173,-55.29585 22.92503,-77.65156 68.94079,26.31086 117.90871,93.05619 117.90871,171.2386 0,1.45812 -0.0188,2.91155 -0.0527,4.3615 -14.64418,-0.30639 -28.49213,-3.81672 -40.87291,-9.85986 C 209.725,581.07047 187.70082,541.86792 154.38067,516.926 m 18.95729,-41.56966 c -11.37594,-7.63667 -23.63445,-14.05824 -36.58897,-19.08101 25.77813,-37.31019 68.84806,-61.75747 117.629,-61.75747 48.78094,0 91.85087,24.44728 117.62899,61.75747 m -36.58897,19.08101 C 320.7135,456.17642 299.35234,442.36996 274.78864,437.38346 m -20.41065,165.88447 c -3.24747,-21.87292 -10.27983,-42.51567 -20.41065,-61.24072 V 437.38346 m 22.5046,197.95793 c -0.0339,-1.44995 -0.0527,-2.90338 -0.0527,-4.3615 0,-78.18241 48.96792,-144.92774 117.90871,-171.2386 14.5033,22.35571 22.92503,49.02024 22.92503,77.65156 m -140.83379,142.8595 v -40.82799 c 55.42023,-1.08752 100.0125,-46.35101 100.0125,-102.03151 0,-7.00777 -0.7067,-13.85077 -2.0564,-20.46687"
       id="path838"
       inkscape:connector-curvature="0"
       sodipodi:nodetypes="ccccscsccccczcccccccsccccsc" />
    <path
       sodipodi:nodetypes="ccccscsccccczcccccccsccccsc"
       inkscape:connector-curvature="0"
       id="path828"
       d="m 152.32428,537.39287 c 0,55.6805 44.59227,100.94399 100.0125,102.03151 m 0,40.82799 C 174.37032,679.1603 111.50299,615.61886 111.50299,537.39287 h -1e-5 c 0,-28.63132 8.42173,-55.29585 22.92503,-77.65156 68.94079,26.31086 117.90871,93.05619 117.90871,171.2386 0,1.45812 -0.0188,2.91155 -0.0527,4.3615 -14.64418,-0.30639 -28.49213,-3.81672 -40.87291,-9.85986 C 209.725,581.07047 187.70082,541.86792 154.38067,516.926 m 18.95729,-41.56966 c -11.37594,-7.63667 -23.63445,-14.05824 -36.58897,-19.08101 25.77813,-37.31019 68.84806,-61.75747 117.629,-61.75747 48.78094,0 91.85087,24.44728 117.62899,61.75747 m -36.58897,19.08101 C 320.7135,456.17642 299.35234,442.36996 274.78864,437.38346 m -20.41065,165.88447 c -3.24747,-21.87292 -10.27983,-42.51567 -20.41065,-61.24072 V 437.38346 m 22.5046,197.95793 c -0.0339,-1.44995 -0.0527,-2.90338 -0.0527,-4.3615 0,-78.18241 48.96792,-144.92774 117.90871,-171.2386 14.5033,22.35571 22.92503,49.02024 22.92503,77.65156 m -140.83379,142.8595 v -40.82799 c 55.42023,-1.08752 100.0125,-46.35101 100.0125,-102.03151 0,-7.00777 -0.7067,-13.85077 -2.0564,-20.46687"
       style="opacity:1;fill:none;fill-opacity:1;fill-rule:evenodd;stroke:#003dff;stroke-width:10.58333397;stroke-linecap:round;stroke-linejoin:round;stroke-miterlimit:4;stroke-dasharray:none;stroke-dashoffset:0;stroke-opacity:1;filter:url(#filter834)" />
    <path
       style="opacity:1;fill:none;fill-opacity:1;fill-rule:evenodd;stroke:#c0cfff;stroke-width:5.29166698;stroke-linecap:round;stroke-linejoin:round;stroke-miterlimit:4;stroke-dasharray:none;stroke-dashoffset:0;stroke-opacity:1"
       d="m 152.32428,537.39287 c 0,55.6805 44.59227,100.94399 100.0125,102.03151 m 0,40.82799 C 174.37032,679.1603 111.50299,615.61886 111.50299,537.39287 h -1e-5 c 0,-28.63132 8.42173,-55.29585 22.92503,-77.65156 68.94079,26.31086 117.90871,93.05619 117.90871,171.2386 0,1.45812 -0.0188,2.91155 -0.0527,4.3615 -14.64418,-0.30639 -28.49213,-3.81672 -40.87291,-9.85986 C 209.725,581.07047 187.70082,541.86792 154.38067,516.926 m 18.95729,-41.56966 c -11.37594,-7.63667 -23.63445,-14.05824 -36.58897,-19.08101 25.77813,-37.31019 68.84806,-61.75747 117.629,-61.75747 48.78094,0 91.85087,24.44728 117.62899,61.75747 m -36.58897,19.08101 C 320.7135,456.17642 299.35234,442.36996 274.78864,437.38346 m -20.41065,165.88447 c -3.24747,-21.87292 -10.27983,-42.51567 -20.41065,-61.24072 V 437.38346 m 22.5046,197.95793 c -0.0339,-1.44995 -0.0527,-2.90338 -0.0527,-4.3615 0,-78.18241 48.96792,-144.92774 117.90871,-171.2386 14.5033,22.35571 22.92503,49.02024 22.92503,77.65156 m -140.83379,142.8595 v -40.82799 c 55.42023,-1.08752 100.0125,-46.35101 100.0125,-102.03151 0,-7.00777 -0.7067,-13.85077 -2.0564,-20.46687"
       id="path816-3"
       inkscape:connector-curvature="0"
       sodipodi:nodetypes="ccccscsccccczcccccccsccccsc" />
  </g>
</svg>
