<?xml version="1.0" encoding="UTF-8" standalone="no"?>
<!-- Created with Inkscape (http://www.inkscape.org/) -->

<svg
   xmlns:dc="http://purl.org/dc/elements/1.1/"
   xmlns:cc="http://creativecommons.org/ns#"
   xmlns:rdf="http://www.w3.org/1999/02/22-rdf-syntax-ns#"
   xmlns:svg="http://www.w3.org/2000/svg"
   xmlns="http://www.w3.org/2000/svg"
   xmlns:sodipodi="http://sodipodi.sourceforge.net/DTD/sodipodi-0.dtd"
   xmlns:inkscape="http://www.inkscape.org/namespaces/inkscape"
   width="2736"
   height="1800"
   viewBox="0 0 723.9 476.25001"
   version="1.1"
   id="svg8"
   inkscape:export-filename="C:\Users\厂永刄先生\Documents\GXI3CW2\JáÈŭcèŭ\N̂i\都道府県\京都府.png"
   inkscape:export-xdpi="96"
   inkscape:export-ydpi="96"
   inkscape:version="0.92.4 (5da689c313, 2019-01-14)"
   sodipodi:docname="京都府.svg">
  <defs
     id="defs2" />
  <sodipodi:namedview
     id="base"
     pagecolor="#ffffff"
     bordercolor="#666666"
     borderopacity="1.0"
     inkscape:pageopacity="0.0"
     inkscape:pageshadow="2"
     inkscape:zoom="0.30222223"
     inkscape:cx="1368"
     inkscape:cy="900.00001"
     inkscape:document-units="px"
     inkscape:current-layer="layer1"
     showgrid="false"
     units="px"
     fit-margin-top="0"
     fit-margin-left="0"
     fit-margin-right="0"
     fit-margin-bottom="0"
     inkscape:showpageshadow="false"
     inkscape:snap-intersection-paths="false"
     inkscape:object-paths="false"
     inkscape:pagecheckerboard="true"
     inkscape:snap-smooth-nodes="true"
     inkscape:window-width="1366"
     inkscape:window-height="745"
     inkscape:window-x="-8"
     inkscape:window-y="-8"
     inkscape:window-maximized="1"
     inkscape:object-nodes="true"
     inkscape:snap-nodes="true"
     showguides="false" />
  <metadata
     id="metadata5">
    <rdf:RDF>
      <cc:Work
         rdf:about="">
        <dc:format>image/svg+xml</dc:format>
        <dc:type
           rdf:resource="http://purl.org/dc/dcmitype/StillImage" />
        <dc:title />
      </cc:Work>
    </rdf:RDF>
  </metadata>
  <g
     inkscape:label="レイヤー 1"
     inkscape:groupmode="layer"
     id="layer1"
     transform="translate(112.33452,-299.26786)">
    <path
       style="opacity:1;fill:#ffffff;fill-opacity:1;fill-rule:evenodd;stroke:none;stroke-width:0.02079037;stroke-linecap:round;stroke-linejoin:round;stroke-miterlimit:4;stroke-dasharray:none;stroke-dashoffset:0;stroke-opacity:1;paint-order:normal"
       d="m 223.42178,625.49918 c 8e-4,-3.75479 0.74466,-7.45749 2.02726,-10.98641 l 8.14782,-22.41776 c 1.5634,-4.30149 -0.25832,-9.10677 -4.22206,-11.39525 -3.96374,-2.28846 -9.0361,-1.4635 -11.9796,2.0412 l -15.34044,18.26509 c -2.41483,2.87523 -5.2495,5.37087 -8.50088,7.24886 -14.80464,8.55094 -33.73869,3.47538 -42.28702,-11.33077 -8.54833,-14.80614 -3.47687,-33.74129 11.33077,-42.28702 3.25209,-1.87678 6.83072,-3.08385 10.52814,-3.73755 l 23.48826,-4.15266 c 4.5069,-0.7968 7.75753,-4.77711 7.75752,-9.35404 0,-4.57693 -3.25063,-8.55723 -7.75753,-9.35403 l -23.48826,-4.15266 c -3.69744,-0.6537 -7.27604,-1.86078 -10.52814,-3.73755 -14.80764,-8.54573 -19.87911,-27.48088 -11.33078,-42.28702 8.54833,-14.80615 27.48252,-19.88193 42.28702,-11.33077 3.25139,1.878 6.08605,4.37364 8.50089,7.24886 l 15.34044,18.2651 c 2.9435,3.50469 8.01585,4.32967 11.97958,2.04121 3.96373,-2.28846 5.78545,-7.09374 4.22205,-11.39523 L 225.449,460.27302 c -1.28259,-3.52892 -2.02655,-7.23163 -2.02725,-10.98641 -0.003,-17.09666 13.85958,-30.95625 30.95624,-30.95625 17.09666,0 30.95924,13.85959 30.95624,30.95625 -7.9e-4,3.75478 -0.74466,7.45749 -2.02725,10.98641 l -8.14782,22.41776 c -1.5634,4.30149 0.25832,9.10677 4.22205,11.39523 3.96373,2.28846 9.03608,1.46348 11.97958,-2.04121 l 15.34044,-18.2651 c 2.41484,-2.87522 5.2495,-5.37086 8.50089,-7.24886 14.8045,-8.55116 33.73869,-3.47538 42.28702,11.33077 8.54833,14.80614 3.47686,33.74129 -11.33077,42.28702 -3.2521,1.87677 -6.8307,3.08385 -10.52815,3.73755 l -23.48826,4.15266 c -4.5069,0.7968 -7.75753,4.7771 -7.75753,9.35403 -1e-5,4.57693 3.25062,8.55724 7.75752,9.35404 l 23.48826,4.15266 c 3.69742,0.6537 7.27606,1.86077 10.52814,3.73755 14.80764,8.54573 19.87911,27.48088 11.33078,42.28702 -8.54833,14.80615 -27.48239,19.88171 -42.28703,11.33077 -3.25138,-1.87799 -6.08605,-4.37363 -8.50088,-7.24886 l -15.34044,-18.26509 c -2.9435,-3.5047 -8.01586,-4.32966 -11.9796,-2.0412 -3.96374,2.28848 -5.78546,7.09376 -4.22206,11.39525 l 8.14782,22.41776 c 1.2826,3.52892 2.02654,7.23162 2.02726,10.98641 0.003,17.09666 -13.85959,30.95623 -30.95621,30.95623 -17.09662,0 -30.95921,-13.85957 -30.95621,-30.95623 z m 6.44147,-219.20113 -9.48055,7.97161 c -10.04827,8.44896 -16.36561,20.40071 -17.89767,33.24191 -11.88684,-5.0938 -25.39603,-5.59869 -37.73718,-1.12112 l -11.64389,4.2246 c -11.24168,4.07867 -22.83782,7.10386 -34.79516,8.1317 5.08854,10.8693 8.26672,22.42444 10.35533,34.19936 l 2.16335,12.19621 c 2.29288,12.92653 9.48472,24.37339 19.80201,32.1857 -10.39223,7.8123 -17.58407,19.25916 -19.87695,32.18569 l -2.16334,12.19621 c -2.08861,11.77492 -5.2668,23.33007 -10.31788,34.26422 11.99479,1.0927 23.59094,4.11789 34.83262,8.19657 l 11.6439,4.2246 c 12.34114,4.47757 25.85033,3.97267 37.8121,-1.12112 1.60701,12.8412 7.92436,24.79295 17.97263,33.24192 l 9.48055,7.9716 c 9.15307,7.69625 17.57103,16.22621 24.36487,26.06768 6.79384,-9.84147 15.2118,-18.37143 24.36487,-26.06768 l 9.48055,-7.9716 c 10.04827,-8.44897 16.36562,-20.40072 17.97263,-33.24192 11.96177,5.09379 25.47096,5.59869 37.8121,1.12112 l 11.6439,-4.2246 c 11.24168,-4.07868 22.83784,-7.10387 34.83262,-8.19657 -5.05108,-10.93415 -8.22926,-22.4893 -10.31787,-34.26422 l -2.16334,-12.19621 c -2.29289,-12.92653 -9.48472,-24.37339 -19.87695,-32.18569 10.31729,-7.81231 17.50913,-19.25917 19.80201,-32.1857 l 2.16335,-12.19621 c 2.08861,-11.77492 5.26679,-23.33006 10.35533,-34.19936 -11.95734,-1.02784 -23.55348,-4.05303 -34.79516,-8.1317 l -11.6439,-4.2246 c -12.34114,-4.47757 -25.85034,-3.97268 -37.73718,1.12112 -1.53206,-12.8412 -7.8494,-24.79295 -17.89767,-33.24191 l -9.48055,-7.97161 c -9.15307,-7.69624 -17.57103,-16.2262 -24.51474,-26.06764 -6.94371,9.84144 -15.36167,18.3714 -24.51474,26.06764 z"
       id="path824"
       inkscape:connector-curvature="0"
       sodipodi:nodetypes="ssszssszssszssszssszssszssszssszssszssszssszssszssscsscsscsscsscsscsscsscsscsscsscsscs" />
    <path
       sodipodi:nodetypes="ssszssszssszssszssszssszssszssszssszssszssszssszssszsszsszsszsszsszsszsszsszsszsszsszs"
       inkscape:connector-curvature="0"
       id="path828"
       d="m 223.42178,625.49918 c 8e-4,-3.75479 0.74466,-7.45749 2.02726,-10.98641 l 8.14782,-22.41776 c 1.5634,-4.30149 -0.25832,-9.10677 -4.22206,-11.39525 -3.96374,-2.28846 -9.0361,-1.4635 -11.9796,2.0412 l -15.34044,18.26509 c -2.41483,2.87523 -5.2495,5.37087 -8.50088,7.24886 -14.80464,8.55094 -33.73869,3.47538 -42.28702,-11.33077 -8.54833,-14.80614 -3.47687,-33.74129 11.33077,-42.28702 3.25209,-1.87678 6.83072,-3.08385 10.52814,-3.73755 l 23.48826,-4.15266 c 4.5069,-0.7968 7.75753,-4.77711 7.75752,-9.35404 0,-4.57693 -3.25063,-8.55723 -7.75753,-9.35403 l -23.48826,-4.15266 c -3.69744,-0.6537 -7.27604,-1.86078 -10.52814,-3.73755 -14.80764,-8.54573 -19.87911,-27.48088 -11.33078,-42.28702 8.54833,-14.80615 27.48252,-19.88193 42.28702,-11.33077 3.25139,1.878 6.08605,4.37364 8.50089,7.24886 l 15.34044,18.2651 c 2.9435,3.50469 8.01585,4.32967 11.97958,2.04121 3.96373,-2.28846 5.78545,-7.09374 4.22205,-11.39523 L 225.449,460.27302 c -1.28259,-3.52892 -2.02655,-7.23163 -2.02725,-10.98641 -0.003,-17.09666 13.85958,-30.95625 30.95624,-30.95625 17.09666,0 30.95924,13.85959 30.95624,30.95625 -7.9e-4,3.75478 -0.74466,7.45749 -2.02725,10.98641 l -8.14782,22.41776 c -1.5634,4.30149 0.25832,9.10677 4.22205,11.39523 3.96373,2.28846 9.03608,1.46348 11.97958,-2.04121 l 15.34044,-18.2651 c 2.41484,-2.87522 5.2495,-5.37086 8.50089,-7.24886 14.8045,-8.55116 33.73869,-3.47538 42.28702,11.33077 8.54833,14.80614 3.47686,33.74129 -11.33077,42.28702 -3.2521,1.87677 -6.8307,3.08385 -10.52815,3.73755 l -23.48826,4.15266 c -4.5069,0.7968 -7.75753,4.7771 -7.75753,9.35403 -1e-5,4.57693 3.25062,8.55724 7.75752,9.35404 l 23.48826,4.15266 c 3.69742,0.6537 7.27606,1.86077 10.52814,3.73755 14.80764,8.54573 19.87911,27.48088 11.33078,42.28702 -8.54833,14.80615 -27.48239,19.88171 -42.28703,11.33077 -3.25138,-1.87799 -6.08605,-4.37363 -8.50088,-7.24886 l -15.34044,-18.26509 c -2.9435,-3.5047 -8.01586,-4.32966 -11.9796,-2.0412 -3.96374,2.28848 -5.78546,7.09376 -4.22206,11.39525 l 8.14782,22.41776 c 1.2826,3.52892 2.02654,7.23162 2.02726,10.98641 0.003,17.09666 -13.85959,30.95623 -30.95621,30.95623 -17.09662,0 -30.95921,-13.85957 -30.95621,-30.95623 z m 45.24368,-9.28733 -4.7532,-35.86501 c -0.73878,-5.57441 1.84417,-11.30279 7.01568,-14.28856 5.1715,-2.98577 11.4239,-2.35848 15.8821,1.06852 l 28.6834,22.04889 c 4.44662,3.41811 14.99192,2.60826 19.5171,-5.22958 4.52516,-7.83782 -0.0461,-17.37525 -5.2296,-19.51709 l -33.4366,-13.81611 c -5.19698,-2.14741 -8.86643,-7.2485 -8.86643,-13.22002 0,-5.97152 3.66945,-11.07261 8.86643,-13.22002 l 33.4366,-13.81611 c 5.18348,-2.14183 9.75476,-11.67926 5.2296,-19.51709 -4.52518,-7.83783 -15.07048,-8.64769 -19.5171,-5.22958 l -28.6834,22.04889 c -4.4582,3.42701 -10.7106,4.0543 -15.8821,1.06853 -5.17151,-2.98577 -7.75446,-8.71415 -7.01568,-14.28857 l 4.7532,-35.865 c 0.73686,-5.55994 -5.23716,-14.2875 -14.28747,-14.2875 -9.05031,0 -15.02433,8.72756 -14.28747,14.2875 l 4.7532,35.865 c 0.73878,5.57442 -1.84417,11.3028 -7.01568,14.28857 -5.1715,2.98577 -11.4239,2.35848 -15.8821,-1.06853 l -28.6834,-22.04889 c -4.44662,-3.41811 -14.99192,-2.60825 -19.51709,5.22958 -4.52517,7.83783 0.0461,17.37526 5.22959,19.51709 l 33.4366,13.81611 c 5.19698,2.14741 8.86643,7.2485 8.86643,13.22002 0,5.97152 -3.66945,11.07261 -8.86643,13.22002 l -33.4366,13.81611 c -5.18349,2.14184 -9.75476,11.67927 -5.22959,19.51709 4.52517,7.83784 15.07047,8.64769 19.51709,5.22958 l 28.6834,-22.04889 c 4.4582,-3.427 10.7106,-4.05429 15.8821,-1.06852 5.17151,2.98577 7.75446,8.71415 7.01568,14.28856 l -4.7532,35.86501 c -0.73686,5.55993 5.23716,14.2875 14.28747,14.2875 9.05031,0 15.02433,-8.72757 14.28747,-14.2875 z"
       style="opacity:1;fill:#ffcc00;fill-opacity:1;fill-rule:evenodd;stroke:none;stroke-width:0.02079037;stroke-linecap:round;stroke-linejoin:round;stroke-miterlimit:4;stroke-dasharray:none;stroke-dashoffset:0;stroke-opacity:1;paint-order:normal" />
    <path
       style="fill:#ffffff;fill-opacity:1;stroke:none;stroke-width:0.51166773px;stroke-linecap:butt;stroke-linejoin:miter;stroke-opacity:1"
       d="m -102.80952,299.26786 h -9.525 v 476.25 h 9.525 z"
       id="path1079"
       inkscape:connector-curvature="0"
       sodipodi:nodetypes="ccccc" />
    <path
       style="opacity:1;fill:#ffffff;fill-opacity:1;fill-rule:evenodd;stroke:none;stroke-width:0.02079037;stroke-linecap:round;stroke-linejoin:round;stroke-miterlimit:4;stroke-dasharray:none;stroke-dashoffset:0;stroke-opacity:1;paint-order:normal"
       d="m 230.5655,537.39287 c 0,-13.15128 10.66122,-23.8125 23.81249,-23.8125 13.15127,0 23.81249,10.66122 23.81249,23.8125 0,13.15128 -10.66122,23.8125 -23.81249,23.8125 -13.15127,0 -23.81249,-10.66122 -23.81249,-23.8125 z m 38.09996,78.81898 -4.7532,-35.86501 c -0.73878,-5.57441 1.84417,-11.30279 7.01568,-14.28856 5.1715,-2.98577 11.4239,-2.35848 15.8821,1.06852 l 28.6834,22.04889 c 4.44662,3.41811 14.99192,2.60826 19.5171,-5.22958 4.52516,-7.83782 -0.0461,-17.37525 -5.2296,-19.51709 l -33.4366,-13.81611 c -5.19698,-2.14741 -8.86643,-7.2485 -8.86643,-13.22002 0,-5.97152 3.66945,-11.07261 8.86643,-13.22002 l 33.4366,-13.81611 c 5.18348,-2.14183 9.75476,-11.67926 5.2296,-19.51709 -4.52518,-7.83783 -15.07048,-8.64769 -19.5171,-5.22958 l -28.6834,22.04889 c -4.4582,3.42701 -10.7106,4.0543 -15.8821,1.06853 -5.17151,-2.98577 -7.75446,-8.71415 -7.01568,-14.28857 l 4.7532,-35.865 c 0.73686,-5.55994 -5.23716,-14.2875 -14.28747,-14.2875 -9.05031,0 -15.02433,8.72756 -14.28747,14.2875 l 4.7532,35.865 c 0.73878,5.57442 -1.84417,11.3028 -7.01568,14.28857 -5.1715,2.98577 -11.4239,2.35848 -15.8821,-1.06853 l -28.6834,-22.04889 c -4.44662,-3.41811 -14.99192,-2.60825 -19.51709,5.22958 -4.52517,7.83783 0.0461,17.37526 5.22959,19.51709 l 33.4366,13.81611 c 5.19698,2.14741 8.86643,7.2485 8.86643,13.22002 0,5.97152 -3.66945,11.07261 -8.86643,13.22002 l -33.4366,13.81611 c -5.18349,2.14184 -9.75476,11.67927 -5.22959,19.51709 4.52517,7.83784 15.07047,8.64769 19.51709,5.22958 l 28.6834,-22.04889 c 4.4582,-3.427 10.7106,-4.05429 15.8821,-1.06852 5.17151,2.98577 7.75446,8.71415 7.01568,14.28856 l -4.7532,35.86501 c -0.73686,5.55993 5.23716,14.2875 14.28747,14.2875 9.05031,0 15.02433,-8.72757 14.28747,-14.2875 z"
       id="path826"
       inkscape:connector-curvature="0"
       sodipodi:nodetypes="zzzzzsszsszsszsszsszsszsszsszsszsszsszsszs" />
    <path
       style="opacity:1;fill:#ffcc00;fill-opacity:1;fill-rule:evenodd;stroke:none;stroke-width:0.02079037;stroke-linecap:round;stroke-linejoin:round;stroke-miterlimit:4;stroke-dasharray:none;stroke-dashoffset:0;stroke-opacity:1;paint-order:normal"
       d="m 230.5655,537.39287 c 0,-13.15128 10.66122,-23.8125 23.81249,-23.8125 13.15127,0 23.81249,10.66122 23.81249,23.8125 0,13.15128 -10.66122,23.8125 -23.81249,23.8125 -13.15127,0 -23.81249,-10.66122 -23.81249,-23.8125 z"
       id="path829"
       inkscape:connector-curvature="0"
       sodipodi:nodetypes="zzzzz" />
    <path
       style="opacity:1;fill:#c0008b;fill-opacity:1;fill-rule:evenodd;stroke:none;stroke-width:0.08456222;stroke-linecap:round;stroke-linejoin:round;stroke-miterlimit:4;stroke-dasharray:none;stroke-dashoffset:0;stroke-opacity:0.50196078"
       d="m -102.80952,299.26786 v 476.25 h 714.375 v -476.25 z m 381.55242,107.03018 9.48055,7.97161 c 10.04826,8.44897 16.36562,20.40071 18.01008,33.30679 11.99923,-5.0289 25.50842,-5.53378 37.84957,-1.05621 l 11.6439,4.22459 c 11.24168,4.07867 22.83782,7.10385 34.79518,8.1317 -5.08853,10.86928 -8.26671,22.42443 -10.35532,34.19934 l -2.16334,12.19621 c -2.29288,12.92653 -9.48473,24.37339 -19.8395,32.12079 10.35477,7.7474 17.54662,19.19426 19.8395,32.12079 l 2.16334,12.19621 c 2.08861,11.77491 5.26679,23.33006 10.35532,34.19934 -11.95736,1.02785 -23.5535,4.05303 -34.79518,8.1317 l -11.6439,4.22459 c -12.34115,4.47757 -25.85034,3.97269 -37.84957,-1.05621 -1.64446,12.90608 -7.96182,24.85782 -18.01008,33.30679 l -9.48055,7.97161 c -9.15307,7.69625 -17.57103,16.22621 -24.43985,26.06767 -6.86881,-9.84144 -15.28677,-18.3714 -24.43984,-26.06765 l -9.48056,-7.97161 c -10.04826,-8.44896 -16.36561,-20.40071 -17.93515,-33.3068 -11.9243,5.02889 -25.43349,5.53377 -37.77464,1.0562 l -11.6439,-4.22459 c -11.24168,-4.07867 -22.83782,-7.10385 -34.79518,-8.1317 5.08853,-10.86928 8.26671,-22.42443 10.35532,-34.19934 l 2.16334,-12.19621 c 2.29288,-12.92653 9.48473,-24.37339 19.8395,-32.12079 -10.35477,-7.7474 -17.54662,-19.19426 -19.8395,-32.12079 l -2.16334,-12.19621 c -2.08861,-11.77491 -5.26679,-23.33006 -10.35532,-34.19934 11.95736,-1.02785 23.5535,-4.05303 34.79518,-8.1317 l 11.6439,-4.22459 c 12.34115,-4.47757 25.85034,-3.97269 37.77464,1.0562 1.56954,-12.90609 7.88689,-24.85784 17.93515,-33.3068 l 9.48056,-7.97161 c 9.15307,-7.69625 17.57103,-16.22621 24.43984,-26.06765 6.86882,9.84146 15.28678,18.37142 24.43985,26.06767 z"
       id="path822"
       inkscape:connector-curvature="0"
       sodipodi:nodetypes="cccccsscsscsscsscsscsscsscsscsscsscsscsscs" />
  </g>
</svg>
