<?xml version="1.0" encoding="UTF-8" standalone="no"?>
<!-- Created with Inkscape (http://www.inkscape.org/) -->

<svg
   xmlns:dc="http://purl.org/dc/elements/1.1/"
   xmlns:cc="http://creativecommons.org/ns#"
   xmlns:rdf="http://www.w3.org/1999/02/22-rdf-syntax-ns#"
   xmlns:svg="http://www.w3.org/2000/svg"
   xmlns="http://www.w3.org/2000/svg"
   xmlns:sodipodi="http://sodipodi.sourceforge.net/DTD/sodipodi-0.dtd"
   xmlns:inkscape="http://www.inkscape.org/namespaces/inkscape"
   width="1171.848"
   height="1331.01"
   viewBox="0 0 310.05146 352.16307"
   version="1.1"
   id="svg8"
   inkscape:export-filename="C:\Users\厂永刄先生\Documents\GXI3CW2\JáÈŭcèŭ\N̂i\京都府\章ﾈｵﾝ.png"
   inkscape:export-xdpi="96"
   inkscape:export-ydpi="96"
   inkscape:version="0.92.4 (5da689c313, 2019-01-14)"
   sodipodi:docname="県章ﾈｵﾝ.svg">
  <defs
     id="defs2">
    <filter
       inkscape:collect="always"
       style="color-interpolation-filters:sRGB"
       id="filter882"
       x="-0.032320511"
       width="1.064641"
       y="-0.027990378"
       height="1.0559808">
      <feGaussianBlur
         inkscape:collect="always"
         stdDeviation="3.6658644"
         id="feGaussianBlur884" />
    </filter>
    <filter
       inkscape:collect="always"
       style="color-interpolation-filters:sRGB"
       id="filter932"
       x="-0.045248717"
       width="1.0904974"
       y="-0.03918653"
       height="1.0783731">
      <feGaussianBlur
         inkscape:collect="always"
         stdDeviation="5.1322101"
         id="feGaussianBlur934" />
    </filter>
    <filter
       inkscape:collect="always"
       style="color-interpolation-filters:sRGB"
       id="filter938"
       x="-0.064641021"
       width="1.129282"
       y="-0.055980757"
       height="1.1119615">
      <feGaussianBlur
         inkscape:collect="always"
         stdDeviation="7.3317288"
         id="feGaussianBlur940" />
    </filter>
  </defs>
  <sodipodi:namedview
     id="base"
     pagecolor="#000000"
     bordercolor="#666666"
     borderopacity="1.0"
     inkscape:pageopacity="1"
     inkscape:pageshadow="2"
     inkscape:zoom="0.4118061"
     inkscape:cx="585.92401"
     inkscape:cy="665.50497"
     inkscape:document-units="px"
     inkscape:current-layer="layer1"
     showgrid="false"
     units="px"
     fit-margin-top="5"
     fit-margin-left="5"
     fit-margin-right="5"
     fit-margin-bottom="5"
     inkscape:showpageshadow="false"
     inkscape:snap-intersection-paths="false"
     inkscape:object-paths="false"
     inkscape:pagecheckerboard="true"
     inkscape:snap-smooth-nodes="true"
     inkscape:window-width="1366"
     inkscape:window-height="745"
     inkscape:window-x="-8"
     inkscape:window-y="-8"
     inkscape:window-maximized="1"
     inkscape:object-nodes="true"
     inkscape:snap-nodes="true"
     showguides="false" />
  <metadata
     id="metadata5">
    <rdf:RDF>
      <cc:Work
         rdf:about="">
        <dc:format>image/svg+xml</dc:format>
        <dc:type
           rdf:resource="http://purl.org/dc/dcmitype/StillImage" />
        <dc:title></dc:title>
      </cc:Work>
    </rdf:RDF>
  </metadata>
  <g
     inkscape:label="レイヤー 1"
     inkscape:groupmode="layer"
     id="layer1"
     transform="translate(-99.352215,-361.31131)">
    <path
       style="opacity:1;fill:none;fill-opacity:1;fill-rule:evenodd;stroke:#ff00b9;stroke-width:10.58333302;stroke-linecap:round;stroke-linejoin:round;stroke-miterlimit:4;stroke-dasharray:none;stroke-dashoffset:0;stroke-opacity:1;paint-order:normal;filter:url(#filter938)"
       d="m 254.37795,513.58034 c 13.15127,0 23.81249,10.66122 23.81249,23.8125 0,13.15128 -10.66122,23.8125 -23.81249,23.8125 -13.15127,0 -23.81249,-10.66122 -23.81249,-23.8125 m -54.15729,-74.96923 c 5.79501,-0.3182 11.7451,0.98781 17.14565,4.1072 3.25138,1.87802 6.08605,4.37364 8.50089,7.24886 l 15.34044,18.2651 c 2.9435,3.50469 8.01585,4.32967 11.97958,2.04121 3.96373,-2.28846 5.78545,-7.09374 4.22205,-11.39523 l -8.14782,-22.41776 c -1.28259,-3.52892 -2.02655,-7.23163 -2.02725,-10.98641 m 30.95624,-30.95625 c 17.09666,0 30.95924,13.85959 30.95624,30.95625 -7e-4,3.75478 -0.74466,7.45749 -2.02725,10.98641 l -8.14782,22.41776 c -1.5634,4.30149 0.25832,9.10677 4.22205,11.39523 3.96373,2.28846 9.03608,1.46348 11.97958,-2.04121 l 15.34044,-18.2651 c 2.41484,-2.87522 5.2495,-5.37086 8.50089,-7.24886 14.8045,-8.55116 33.73869,-3.47538 42.28702,11.33077 8.54833,14.80614 3.47686,33.74129 -11.33078,42.28702 -3.2521,1.87677 -6.8307,3.08385 -10.52814,3.73755 l -23.48826,4.15266 c -4.5069,0.7968 -7.75753,4.7771 -7.75753,9.35403 -10e-6,4.57693 3.25062,8.55724 7.75752,9.35404 l 23.48826,4.15266 c 3.69742,0.6537 7.27605,1.86077 10.52814,3.73755 14.80764,8.54573 19.8791,27.48088 11.33077,42.28702 -8.54833,14.80614 -27.48238,19.8817 -42.28702,11.33077 -3.25138,-1.878 -6.08605,-4.37364 -8.50088,-7.24886 l -15.34044,-18.2651 c -2.9435,-3.50469 -8.01586,-4.32966 -11.9796,-2.04119 -3.96374,2.28847 -5.78546,7.09375 -4.22206,11.39524 l 8.14782,22.41776 c 1.2826,3.52892 2.02654,7.23162 2.02726,10.98641 0.003,17.09666 -13.85959,30.95625 -30.95621,30.95625 -17.09662,0 -30.95921,-13.85959 -30.95621,-30.95625 m 10.73299,-36.56157 c 0.002,-3.31529 -1.77207,-6.50123 -4.77997,-8.23784 -3.96374,-2.28847 -9.0361,-1.4635 -11.9796,2.04119 l -15.34044,18.2651 c -2.41483,2.87522 -5.2495,5.37086 -8.50088,7.24886 -14.80464,8.55093 -33.73869,3.47537 -42.28702,-11.33077 -2.74561,-4.75554 -4.08619,-9.93703 -4.15042,-15.06342 m 49.49759,-35.11381 c 4.5069,-0.7968 7.75753,-4.77711 7.75752,-9.35404 0,-4.57693 -3.25063,-8.55723 -7.75753,-9.35403 l -23.48826,-4.15266 c -3.69744,-0.6537 -7.27607,-1.86073 -10.52814,-3.73755 -9.25941,-5.34375 -14.71181,-14.74994 -15.40764,-24.6687 M 306.196,627.27416 c 6.5896,2.80611 13.6488,4.21959 20.72363,4.17464 m 63.56499,-15.47469 c -5.05108,-10.93415 -8.22927,-22.4893 -10.31788,-34.26422 l -2.16334,-12.19621 c -2.29288,-12.92653 -9.48472,-24.37339 -19.87695,-32.18569 m 32.32069,-78.58127 c -11.95734,-1.02784 -23.55348,-4.05303 -34.79516,-8.1317 l -11.64389,-4.2246 c -12.34115,-4.47757 -25.85034,-3.97268 -37.73718,1.12112 -1.53206,-12.8412 -7.8494,-24.79295 -17.89767,-33.24191 l -9.48055,-7.97161 c -9.15307,-7.69624 -17.57103,-16.2262 -24.51474,-26.06764 -6.94371,9.84144 -15.36167,18.3714 -24.51474,26.06764 l -9.48055,7.97161 c -10.04827,8.44896 -16.36561,20.40071 -17.89767,33.24191 -11.88684,-5.0938 -25.39603,-5.59869 -37.73718,-1.12112 l -11.64389,4.2246 c -11.24168,4.07867 -22.83782,7.10386 -34.79516,8.1317 5.08854,10.8693 8.26672,22.42444 10.35533,34.19936 l 2.16335,12.19621 c 2.29288,12.92653 9.48472,24.37339 19.80201,32.1857 -10.39223,7.8123 -17.58407,19.25916 -19.87695,32.18569 l -2.16334,12.19621 c -2.08861,11.77492 -5.2668,23.33007 -10.31788,34.26422 11.99479,1.0927 23.59094,4.11789 34.83262,8.19656 l 11.6439,4.2246 c 5.93195,2.15221 12.13377,3.15328 18.30389,3.04691 m 19.50821,-4.16802 c 1.60701,12.8412 7.92436,24.79294 17.97263,33.2419 l 9.48055,7.97162 c 9.15307,7.69625 17.57103,16.22621 24.36487,26.06766 m 82.47789,-117.89237 c -0.12425,-5.62112 -3.44988,-10.73609 -7.07494,-12.23398 l -33.4366,-13.81611 c -5.19698,-2.14741 -8.86643,-7.2485 -8.86643,-13.22002 m 49.38156,-39.60374 c -10e-4,-2.31323 -0.55094,-4.70127 -1.84894,-6.94948 -4.52517,-7.83783 -15.07047,-8.64769 -19.51709,-5.22958 L 286.81,507.65895 c -4.4582,3.42701 -10.7106,4.0543 -15.8821,1.06853 -5.17151,-2.98577 -7.75446,-8.71415 -7.01568,-14.28857 m 4.7532,-35.865 c 0.73686,-5.55994 -5.23716,-14.2875 -14.28747,-14.2875 -9.05031,0 -15.02433,8.72756 -14.28747,14.2875 l 4.7532,35.865 c 0.73878,5.57442 -1.84417,11.3028 -7.01568,14.28857 -5.1715,2.98577 -11.4239,2.35848 -15.8821,-1.06853 l -28.6834,-22.04889 c -4.44662,-3.41811 -14.99192,-2.60825 -19.51709,5.22958 -4.52517,7.83783 0.0461,17.37526 5.22959,19.51709 l 33.4366,13.81611 c 5.19698,2.14741 8.86643,7.2485 8.86643,13.22002 0,5.97152 -3.66945,11.07261 -8.86643,13.22002 l -33.4366,13.81611 c -5.18349,2.14183 -9.75476,11.67926 -5.22959,19.51709 2.68892,4.65736 7.50351,6.8332 11.90107,7.11499 m 45.63529,-26.90376 c 2.23233,0.0894 4.4759,0.70562 6.54623,1.90093 5.17151,2.98577 7.75446,8.71415 7.01568,14.28857 l -4.7532,35.865 c -0.73686,5.55994 5.23716,14.2875 14.28747,14.2875 9.05031,0 15.02433,-8.72756 14.28747,-14.2875 m 9.1459,-52.06401 c 3.22908,-0.0527 6.41515,0.99301 8.99868,2.97897 l 28.6834,22.04889"
       id="path936"
       inkscape:connector-curvature="0"
       sodipodi:nodetypes="czzccssszssccssszssszssszssszssszssszccssssscczsssccccssccsscsscsscsscsscsscssccssccssccssszcczsszsszsszsssccssszccsc" />
    <path
       sodipodi:nodetypes="czzccssszssccssszssszssszssszssszssszccssssscczsssccccssccsscsscsscsscsscsscssccssccssccssszcczsszsszsszsssccssszccsc"
       inkscape:connector-curvature="0"
       id="path886"
       d="m 254.37795,513.58034 c 13.15127,0 23.81249,10.66122 23.81249,23.8125 0,13.15128 -10.66122,23.8125 -23.81249,23.8125 -13.15127,0 -23.81249,-10.66122 -23.81249,-23.8125 m -54.15729,-74.96923 c 5.79501,-0.3182 11.7451,0.98781 17.14565,4.1072 3.25138,1.87802 6.08605,4.37364 8.50089,7.24886 l 15.34044,18.2651 c 2.9435,3.50469 8.01585,4.32967 11.97958,2.04121 3.96373,-2.28846 5.78545,-7.09374 4.22205,-11.39523 l -8.14782,-22.41776 c -1.28259,-3.52892 -2.02655,-7.23163 -2.02725,-10.98641 m 30.95624,-30.95625 c 17.09666,0 30.95924,13.85959 30.95624,30.95625 -7e-4,3.75478 -0.74466,7.45749 -2.02725,10.98641 l -8.14782,22.41776 c -1.5634,4.30149 0.25832,9.10677 4.22205,11.39523 3.96373,2.28846 9.03608,1.46348 11.97958,-2.04121 l 15.34044,-18.2651 c 2.41484,-2.87522 5.2495,-5.37086 8.50089,-7.24886 14.8045,-8.55116 33.73869,-3.47538 42.28702,11.33077 8.54833,14.80614 3.47686,33.74129 -11.33078,42.28702 -3.2521,1.87677 -6.8307,3.08385 -10.52814,3.73755 l -23.48826,4.15266 c -4.5069,0.7968 -7.75753,4.7771 -7.75753,9.35403 -10e-6,4.57693 3.25062,8.55724 7.75752,9.35404 l 23.48826,4.15266 c 3.69742,0.6537 7.27605,1.86077 10.52814,3.73755 14.80764,8.54573 19.8791,27.48088 11.33077,42.28702 -8.54833,14.80614 -27.48238,19.8817 -42.28702,11.33077 -3.25138,-1.878 -6.08605,-4.37364 -8.50088,-7.24886 l -15.34044,-18.2651 c -2.9435,-3.50469 -8.01586,-4.32966 -11.9796,-2.04119 -3.96374,2.28847 -5.78546,7.09375 -4.22206,11.39524 l 8.14782,22.41776 c 1.2826,3.52892 2.02654,7.23162 2.02726,10.98641 0.003,17.09666 -13.85959,30.95625 -30.95621,30.95625 -17.09662,0 -30.95921,-13.85959 -30.95621,-30.95625 m 10.73299,-36.56157 c 0.002,-3.31529 -1.77207,-6.50123 -4.77997,-8.23784 -3.96374,-2.28847 -9.0361,-1.4635 -11.9796,2.04119 l -15.34044,18.2651 c -2.41483,2.87522 -5.2495,5.37086 -8.50088,7.24886 -14.80464,8.55093 -33.73869,3.47537 -42.28702,-11.33077 -2.74561,-4.75554 -4.08619,-9.93703 -4.15042,-15.06342 m 49.49759,-35.11381 c 4.5069,-0.7968 7.75753,-4.77711 7.75752,-9.35404 0,-4.57693 -3.25063,-8.55723 -7.75753,-9.35403 l -23.48826,-4.15266 c -3.69744,-0.6537 -7.27607,-1.86073 -10.52814,-3.73755 -9.25941,-5.34375 -14.71181,-14.74994 -15.40764,-24.6687 M 306.196,627.27416 c 6.5896,2.80611 13.6488,4.21959 20.72363,4.17464 m 63.56499,-15.47469 c -5.05108,-10.93415 -8.22927,-22.4893 -10.31788,-34.26422 l -2.16334,-12.19621 c -2.29288,-12.92653 -9.48472,-24.37339 -19.87695,-32.18569 m 32.32069,-78.58127 c -11.95734,-1.02784 -23.55348,-4.05303 -34.79516,-8.1317 l -11.64389,-4.2246 c -12.34115,-4.47757 -25.85034,-3.97268 -37.73718,1.12112 -1.53206,-12.8412 -7.8494,-24.79295 -17.89767,-33.24191 l -9.48055,-7.97161 c -9.15307,-7.69624 -17.57103,-16.2262 -24.51474,-26.06764 -6.94371,9.84144 -15.36167,18.3714 -24.51474,26.06764 l -9.48055,7.97161 c -10.04827,8.44896 -16.36561,20.40071 -17.89767,33.24191 -11.88684,-5.0938 -25.39603,-5.59869 -37.73718,-1.12112 l -11.64389,4.2246 c -11.24168,4.07867 -22.83782,7.10386 -34.79516,8.1317 5.08854,10.8693 8.26672,22.42444 10.35533,34.19936 l 2.16335,12.19621 c 2.29288,12.92653 9.48472,24.37339 19.80201,32.1857 -10.39223,7.8123 -17.58407,19.25916 -19.87695,32.18569 l -2.16334,12.19621 c -2.08861,11.77492 -5.2668,23.33007 -10.31788,34.26422 11.99479,1.0927 23.59094,4.11789 34.83262,8.19656 l 11.6439,4.2246 c 5.93195,2.15221 12.13377,3.15328 18.30389,3.04691 m 19.50821,-4.16802 c 1.60701,12.8412 7.92436,24.79294 17.97263,33.2419 l 9.48055,7.97162 c 9.15307,7.69625 17.57103,16.22621 24.36487,26.06766 m 82.47789,-117.89237 c -0.12425,-5.62112 -3.44988,-10.73609 -7.07494,-12.23398 l -33.4366,-13.81611 c -5.19698,-2.14741 -8.86643,-7.2485 -8.86643,-13.22002 m 49.38156,-39.60374 c -10e-4,-2.31323 -0.55094,-4.70127 -1.84894,-6.94948 -4.52517,-7.83783 -15.07047,-8.64769 -19.51709,-5.22958 L 286.81,507.65895 c -4.4582,3.42701 -10.7106,4.0543 -15.8821,1.06853 -5.17151,-2.98577 -7.75446,-8.71415 -7.01568,-14.28857 m 4.7532,-35.865 c 0.73686,-5.55994 -5.23716,-14.2875 -14.28747,-14.2875 -9.05031,0 -15.02433,8.72756 -14.28747,14.2875 l 4.7532,35.865 c 0.73878,5.57442 -1.84417,11.3028 -7.01568,14.28857 -5.1715,2.98577 -11.4239,2.35848 -15.8821,-1.06853 l -28.6834,-22.04889 c -4.44662,-3.41811 -14.99192,-2.60825 -19.51709,5.22958 -4.52517,7.83783 0.0461,17.37526 5.22959,19.51709 l 33.4366,13.81611 c 5.19698,2.14741 8.86643,7.2485 8.86643,13.22002 0,5.97152 -3.66945,11.07261 -8.86643,13.22002 l -33.4366,13.81611 c -5.18349,2.14183 -9.75476,11.67926 -5.22959,19.51709 2.68892,4.65736 7.50351,6.8332 11.90107,7.11499 m 45.63529,-26.90376 c 2.23233,0.0894 4.4759,0.70562 6.54623,1.90093 5.17151,2.98577 7.75446,8.71415 7.01568,14.28857 l -4.7532,35.865 c -0.73686,5.55994 5.23716,14.2875 14.28747,14.2875 9.05031,0 15.02433,-8.72756 14.28747,-14.2875 m 9.1459,-52.06401 c 3.22908,-0.0527 6.41515,0.99301 8.99868,2.97897 l 28.6834,22.04889"
       style="opacity:1;fill:none;fill-opacity:1;fill-rule:evenodd;stroke:#ff00b9;stroke-width:10.58333302;stroke-linecap:round;stroke-linejoin:round;stroke-miterlimit:4;stroke-dasharray:none;stroke-dashoffset:0;stroke-opacity:1;paint-order:normal;filter:url(#filter932)" />
    <path
       style="opacity:1;fill:none;fill-opacity:1;fill-rule:evenodd;stroke:#ff00b9;stroke-width:10.58333302;stroke-linecap:round;stroke-linejoin:round;stroke-miterlimit:4;stroke-dasharray:none;stroke-dashoffset:0;stroke-opacity:1;paint-order:normal;filter:url(#filter882)"
       d="m 254.37795,513.58034 c 13.15127,0 23.81249,10.66122 23.81249,23.8125 0,13.15128 -10.66122,23.8125 -23.81249,23.8125 -13.15127,0 -23.81249,-10.66122 -23.81249,-23.8125 m -54.15729,-74.96923 c 5.79501,-0.3182 11.7451,0.98781 17.14565,4.1072 3.25138,1.87802 6.08605,4.37364 8.50089,7.24886 l 15.34044,18.2651 c 2.9435,3.50469 8.01585,4.32967 11.97958,2.04121 3.96373,-2.28846 5.78545,-7.09374 4.22205,-11.39523 l -8.14782,-22.41776 c -1.28259,-3.52892 -2.02655,-7.23163 -2.02725,-10.98641 m 30.95624,-30.95625 c 17.09666,0 30.95924,13.85959 30.95624,30.95625 -7e-4,3.75478 -0.74466,7.45749 -2.02725,10.98641 l -8.14782,22.41776 c -1.5634,4.30149 0.25832,9.10677 4.22205,11.39523 3.96373,2.28846 9.03608,1.46348 11.97958,-2.04121 l 15.34044,-18.2651 c 2.41484,-2.87522 5.2495,-5.37086 8.50089,-7.24886 14.8045,-8.55116 33.73869,-3.47538 42.28702,11.33077 8.54833,14.80614 3.47686,33.74129 -11.33078,42.28702 -3.2521,1.87677 -6.8307,3.08385 -10.52814,3.73755 l -23.48826,4.15266 c -4.5069,0.7968 -7.75753,4.7771 -7.75753,9.35403 -10e-6,4.57693 3.25062,8.55724 7.75752,9.35404 l 23.48826,4.15266 c 3.69742,0.6537 7.27605,1.86077 10.52814,3.73755 14.80764,8.54573 19.8791,27.48088 11.33077,42.28702 -8.54833,14.80614 -27.48238,19.8817 -42.28702,11.33077 -3.25138,-1.878 -6.08605,-4.37364 -8.50088,-7.24886 l -15.34044,-18.2651 c -2.9435,-3.50469 -8.01586,-4.32966 -11.9796,-2.04119 -3.96374,2.28847 -5.78546,7.09375 -4.22206,11.39524 l 8.14782,22.41776 c 1.2826,3.52892 2.02654,7.23162 2.02726,10.98641 0.003,17.09666 -13.85959,30.95625 -30.95621,30.95625 -17.09662,0 -30.95921,-13.85959 -30.95621,-30.95625 m 10.73299,-36.56157 c 0.002,-3.31529 -1.77207,-6.50123 -4.77997,-8.23784 -3.96374,-2.28847 -9.0361,-1.4635 -11.9796,2.04119 l -15.34044,18.2651 c -2.41483,2.87522 -5.2495,5.37086 -8.50088,7.24886 -14.80464,8.55093 -33.73869,3.47537 -42.28702,-11.33077 -2.74561,-4.75554 -4.08619,-9.93703 -4.15042,-15.06342 m 49.49759,-35.11381 c 4.5069,-0.7968 7.75753,-4.77711 7.75752,-9.35404 0,-4.57693 -3.25063,-8.55723 -7.75753,-9.35403 l -23.48826,-4.15266 c -3.69744,-0.6537 -7.27607,-1.86073 -10.52814,-3.73755 -9.25941,-5.34375 -14.71181,-14.74994 -15.40764,-24.6687 M 306.196,627.27416 c 6.5896,2.80611 13.6488,4.21959 20.72363,4.17464 m 63.56499,-15.47469 c -5.05108,-10.93415 -8.22927,-22.4893 -10.31788,-34.26422 l -2.16334,-12.19621 c -2.29288,-12.92653 -9.48472,-24.37339 -19.87695,-32.18569 m 32.32069,-78.58127 c -11.95734,-1.02784 -23.55348,-4.05303 -34.79516,-8.1317 l -11.64389,-4.2246 c -12.34115,-4.47757 -25.85034,-3.97268 -37.73718,1.12112 -1.53206,-12.8412 -7.8494,-24.79295 -17.89767,-33.24191 l -9.48055,-7.97161 c -9.15307,-7.69624 -17.57103,-16.2262 -24.51474,-26.06764 -6.94371,9.84144 -15.36167,18.3714 -24.51474,26.06764 l -9.48055,7.97161 c -10.04827,8.44896 -16.36561,20.40071 -17.89767,33.24191 -11.88684,-5.0938 -25.39603,-5.59869 -37.73718,-1.12112 l -11.64389,4.2246 c -11.24168,4.07867 -22.83782,7.10386 -34.79516,8.1317 5.08854,10.8693 8.26672,22.42444 10.35533,34.19936 l 2.16335,12.19621 c 2.29288,12.92653 9.48472,24.37339 19.80201,32.1857 -10.39223,7.8123 -17.58407,19.25916 -19.87695,32.18569 l -2.16334,12.19621 c -2.08861,11.77492 -5.2668,23.33007 -10.31788,34.26422 11.99479,1.0927 23.59094,4.11789 34.83262,8.19656 l 11.6439,4.2246 c 5.93195,2.15221 12.13377,3.15328 18.30389,3.04691 m 19.50821,-4.16802 c 1.60701,12.8412 7.92436,24.79294 17.97263,33.2419 l 9.48055,7.97162 c 9.15307,7.69625 17.57103,16.22621 24.36487,26.06766 m 82.47789,-117.89237 c -0.12425,-5.62112 -3.44988,-10.73609 -7.07494,-12.23398 l -33.4366,-13.81611 c -5.19698,-2.14741 -8.86643,-7.2485 -8.86643,-13.22002 m 49.38156,-39.60374 c -10e-4,-2.31323 -0.55094,-4.70127 -1.84894,-6.94948 -4.52517,-7.83783 -15.07047,-8.64769 -19.51709,-5.22958 L 286.81,507.65895 c -4.4582,3.42701 -10.7106,4.0543 -15.8821,1.06853 -5.17151,-2.98577 -7.75446,-8.71415 -7.01568,-14.28857 m 4.7532,-35.865 c 0.73686,-5.55994 -5.23716,-14.2875 -14.28747,-14.2875 -9.05031,0 -15.02433,8.72756 -14.28747,14.2875 l 4.7532,35.865 c 0.73878,5.57442 -1.84417,11.3028 -7.01568,14.28857 -5.1715,2.98577 -11.4239,2.35848 -15.8821,-1.06853 l -28.6834,-22.04889 c -4.44662,-3.41811 -14.99192,-2.60825 -19.51709,5.22958 -4.52517,7.83783 0.0461,17.37526 5.22959,19.51709 l 33.4366,13.81611 c 5.19698,2.14741 8.86643,7.2485 8.86643,13.22002 0,5.97152 -3.66945,11.07261 -8.86643,13.22002 l -33.4366,13.81611 c -5.18349,2.14183 -9.75476,11.67926 -5.22959,19.51709 2.68892,4.65736 7.50351,6.8332 11.90107,7.11499 m 45.63529,-26.90376 c 2.23233,0.0894 4.4759,0.70562 6.54623,1.90093 5.17151,2.98577 7.75446,8.71415 7.01568,14.28857 l -4.7532,35.865 c -0.73686,5.55994 5.23716,14.2875 14.28747,14.2875 9.05031,0 15.02433,-8.72756 14.28747,-14.2875 m 9.1459,-52.06401 c 3.22908,-0.0527 6.41515,0.99301 8.99868,2.97897 l 28.6834,22.04889"
       id="path880"
       inkscape:connector-curvature="0"
       sodipodi:nodetypes="czzccssszssccssszssszssszssszssszssszccssssscczsssccccssccsscsscsscsscsscsscssccssccssccssszcczsszsszsszsssccssszccsc" />
    <path
       sodipodi:nodetypes="czzccssszssccssszssszssszssszssszssszccssssscczsssccccssccsscsscsscsscsscsscssccssccssccssszcczsszsszsszsssccssszccsc"
       inkscape:connector-curvature="0"
       id="path828"
       d="m 254.37795,513.58034 c 13.15127,0 23.81249,10.66122 23.81249,23.8125 0,13.15128 -10.66122,23.8125 -23.81249,23.8125 -13.15127,0 -23.81249,-10.66122 -23.81249,-23.8125 m -54.15729,-74.96923 c 5.79501,-0.3182 11.7451,0.98781 17.14565,4.1072 3.25138,1.87802 6.08605,4.37364 8.50089,7.24886 l 15.34044,18.2651 c 2.9435,3.50469 8.01585,4.32967 11.97958,2.04121 3.96373,-2.28846 5.78545,-7.09374 4.22205,-11.39523 l -8.14782,-22.41776 c -1.28259,-3.52892 -2.02655,-7.23163 -2.02725,-10.98641 m 30.95624,-30.95625 c 17.09666,0 30.95924,13.85959 30.95624,30.95625 -7e-4,3.75478 -0.74466,7.45749 -2.02725,10.98641 l -8.14782,22.41776 c -1.5634,4.30149 0.25832,9.10677 4.22205,11.39523 3.96373,2.28846 9.03608,1.46348 11.97958,-2.04121 l 15.34044,-18.2651 c 2.41484,-2.87522 5.2495,-5.37086 8.50089,-7.24886 14.8045,-8.55116 33.73869,-3.47538 42.28702,11.33077 8.54833,14.80614 3.47686,33.74129 -11.33078,42.28702 -3.2521,1.87677 -6.8307,3.08385 -10.52814,3.73755 l -23.48826,4.15266 c -4.5069,0.7968 -7.75753,4.7771 -7.75753,9.35403 -10e-6,4.57693 3.25062,8.55724 7.75752,9.35404 l 23.48826,4.15266 c 3.69742,0.6537 7.27605,1.86077 10.52814,3.73755 14.80764,8.54573 19.8791,27.48088 11.33077,42.28702 -8.54833,14.80614 -27.48238,19.8817 -42.28702,11.33077 -3.25138,-1.878 -6.08605,-4.37364 -8.50088,-7.24886 l -15.34044,-18.2651 c -2.9435,-3.50469 -8.01586,-4.32966 -11.9796,-2.04119 -3.96374,2.28847 -5.78546,7.09375 -4.22206,11.39524 l 8.14782,22.41776 c 1.2826,3.52892 2.02654,7.23162 2.02726,10.98641 0.003,17.09666 -13.85959,30.95625 -30.95621,30.95625 -17.09662,0 -30.95921,-13.85959 -30.95621,-30.95625 m 10.73299,-36.56157 c 0.002,-3.31529 -1.77207,-6.50123 -4.77997,-8.23784 -3.96374,-2.28847 -9.0361,-1.4635 -11.9796,2.04119 l -15.34044,18.2651 c -2.41483,2.87522 -5.2495,5.37086 -8.50088,7.24886 -14.80464,8.55093 -33.73869,3.47537 -42.28702,-11.33077 -2.74561,-4.75554 -4.08619,-9.93703 -4.15042,-15.06342 m 49.49759,-35.11381 c 4.5069,-0.7968 7.75753,-4.77711 7.75752,-9.35404 0,-4.57693 -3.25063,-8.55723 -7.75753,-9.35403 l -23.48826,-4.15266 c -3.69744,-0.6537 -7.27607,-1.86073 -10.52814,-3.73755 -9.25941,-5.34375 -14.71181,-14.74994 -15.40764,-24.6687 M 306.196,627.27416 c 6.5896,2.80611 13.6488,4.21959 20.72363,4.17464 m 63.56499,-15.47469 c -5.05108,-10.93415 -8.22927,-22.4893 -10.31788,-34.26422 l -2.16334,-12.19621 c -2.29288,-12.92653 -9.48472,-24.37339 -19.87695,-32.18569 m 32.32069,-78.58127 c -11.95734,-1.02784 -23.55348,-4.05303 -34.79516,-8.1317 l -11.64389,-4.2246 c -12.34115,-4.47757 -25.85034,-3.97268 -37.73718,1.12112 -1.53206,-12.8412 -7.8494,-24.79295 -17.89767,-33.24191 l -9.48055,-7.97161 c -9.15307,-7.69624 -17.57103,-16.2262 -24.51474,-26.06764 -6.94371,9.84144 -15.36167,18.3714 -24.51474,26.06764 l -9.48055,7.97161 c -10.04827,8.44896 -16.36561,20.40071 -17.89767,33.24191 -11.88684,-5.0938 -25.39603,-5.59869 -37.73718,-1.12112 l -11.64389,4.2246 c -11.24168,4.07867 -22.83782,7.10386 -34.79516,8.1317 5.08854,10.8693 8.26672,22.42444 10.35533,34.19936 l 2.16335,12.19621 c 2.29288,12.92653 9.48472,24.37339 19.80201,32.1857 -10.39223,7.8123 -17.58407,19.25916 -19.87695,32.18569 l -2.16334,12.19621 c -2.08861,11.77492 -5.2668,23.33007 -10.31788,34.26422 11.99479,1.0927 23.59094,4.11789 34.83262,8.19656 l 11.6439,4.2246 c 5.93195,2.15221 12.13377,3.15328 18.30389,3.04691 m 19.50821,-4.16802 c 1.60701,12.8412 7.92436,24.79294 17.97263,33.2419 l 9.48055,7.97162 c 9.15307,7.69625 17.57103,16.22621 24.36487,26.06766 m 82.47789,-117.89237 c -0.12425,-5.62112 -3.44988,-10.73609 -7.07494,-12.23398 l -33.4366,-13.81611 c -5.19698,-2.14741 -8.86643,-7.2485 -8.86643,-13.22002 m 49.38156,-39.60374 c -10e-4,-2.31323 -0.55094,-4.70127 -1.84894,-6.94948 -4.52517,-7.83783 -15.07047,-8.64769 -19.51709,-5.22958 L 286.81,507.65895 c -4.4582,3.42701 -10.7106,4.0543 -15.8821,1.06853 -5.17151,-2.98577 -7.75446,-8.71415 -7.01568,-14.28857 m 4.7532,-35.865 c 0.73686,-5.55994 -5.23716,-14.2875 -14.28747,-14.2875 -9.05031,0 -15.02433,8.72756 -14.28747,14.2875 l 4.7532,35.865 c 0.73878,5.57442 -1.84417,11.3028 -7.01568,14.28857 -5.1715,2.98577 -11.4239,2.35848 -15.8821,-1.06853 l -28.6834,-22.04889 c -4.44662,-3.41811 -14.99192,-2.60825 -19.51709,5.22958 -4.52517,7.83783 0.0461,17.37526 5.22959,19.51709 l 33.4366,13.81611 c 5.19698,2.14741 8.86643,7.2485 8.86643,13.22002 0,5.97152 -3.66945,11.07261 -8.86643,13.22002 l -33.4366,13.81611 c -5.18349,2.14183 -9.75476,11.67926 -5.22959,19.51709 2.68892,4.65736 7.50351,6.8332 11.90107,7.11499 m 45.63529,-26.90376 c 2.23233,0.0894 4.4759,0.70562 6.54623,1.90093 5.17151,2.98577 7.75446,8.71415 7.01568,14.28857 l -4.7532,35.865 c -0.73686,5.55994 5.23716,14.2875 14.28747,14.2875 9.05031,0 15.02433,-8.72756 14.28747,-14.2875 m 9.1459,-52.06401 c 3.22908,-0.0527 6.41515,0.99301 8.99868,2.97897 l 28.6834,22.04889"
       style="opacity:1;fill:none;fill-opacity:1;fill-rule:evenodd;stroke:#ffc0ee;stroke-width:5.29166651;stroke-linecap:round;stroke-linejoin:round;stroke-miterlimit:4;stroke-dasharray:none;stroke-dashoffset:0;stroke-opacity:1;paint-order:normal" />
  </g>
</svg>
