<?xml version="1.0" encoding="UTF-8" standalone="no"?>
<!-- Created with Inkscape (http://www.inkscape.org/) -->

<svg
   width="1800.0001"
   height="1800"
   viewBox="0 0 476.25002 476.25001"
   version="1.1"
   id="svg8"
   inkscape:export-filename="C:\Users\厂永刄先生\Documents\GXI3CW2\,pjóŭ\Norvège.png"
   inkscape:export-xdpi="96"
   inkscape:export-ydpi="96"
   inkscape:version="1.3 (0e150ed6c4, 2023-07-21)"
   sodipodi:docname="no_1944_roundel - コピー.svg"
   xmlns:inkscape="http://www.inkscape.org/namespaces/inkscape"
   xmlns:sodipodi="http://sodipodi.sourceforge.net/DTD/sodipodi-0.dtd"
   xmlns="http://www.w3.org/2000/svg"
   xmlns:svg="http://www.w3.org/2000/svg"
   xmlns:rdf="http://www.w3.org/1999/02/22-rdf-syntax-ns#"
   xmlns:cc="http://creativecommons.org/ns#"
   xmlns:dc="http://purl.org/dc/elements/1.1/">
  <defs
     id="defs2" />
  <sodipodi:namedview
     id="base"
     pagecolor="#ffffff"
     bordercolor="#666666"
     borderopacity="1.0"
     inkscape:pageopacity="0.0"
     inkscape:pageshadow="2"
     inkscape:zoom="0.21105822"
     inkscape:cx="1729.3806"
     inkscape:cy="1760.1778"
     inkscape:document-units="px"
     inkscape:current-layer="g2"
     showgrid="false"
     units="px"
     fit-margin-top="0"
     fit-margin-left="0"
     fit-margin-right="0"
     fit-margin-bottom="0"
     inkscape:showpageshadow="false"
     inkscape:snap-intersection-paths="false"
     inkscape:object-paths="false"
     inkscape:pagecheckerboard="true"
     inkscape:snap-smooth-nodes="false"
     inkscape:window-width="1920"
     inkscape:window-height="1009"
     inkscape:window-x="-8"
     inkscape:window-y="-8"
     inkscape:window-maximized="1"
     inkscape:object-nodes="true"
     inkscape:deskcolor="#505050"
     showguides="true" />
  <metadata
     id="metadata5">
    <rdf:RDF>
      <cc:Work
         rdf:about="">
        <dc:format>image/svg+xml</dc:format>
        <dc:type
           rdf:resource="http://purl.org/dc/dcmitype/StillImage" />
      </cc:Work>
    </rdf:RDF>
  </metadata>
  <g
     inkscape:label="レイヤー 1"
     inkscape:groupmode="layer"
     id="layer1"
     transform="translate(-392.43347,283.88189)">
    <g
       id="g2"
       transform="matrix(0.71200813,0,0,0.71200813,113.01765,-81.755675)">
      <path
         id="path2"
         style="fill:#808080;fill-opacity:1;stroke-width:0.615392;stroke-linejoin:bevel;stroke-miterlimit:155"
         d="M 720.92925 -283.73165 C 679.84894 -283.01259 640.5962 -274.89451 604.40676 -260.6401 L 609.81167 -247.59268 C 644.33433 -261.159 681.76339 -268.89499 720.92925 -269.6108 L 720.92925 -283.73165 z M 732.8205 -283.73165 L 732.8205 -269.6108 C 771.98646 -268.89502 809.41533 -261.15903 843.93807 -247.59268 L 849.34299 -260.64083 C 813.1537 -274.8951 773.90059 -283.0126 732.8205 -283.73165 z M 593.4104 -256.11484 C 556.56635 -240.05716 523.20566 -217.55177 494.69357 -190.03 L 504.67819 -180.04538 C 531.88726 -206.26844 563.69737 -227.72405 598.81677 -243.06306 L 593.4104 -256.11484 z M 860.33935 -256.11484 L 854.93298 -243.06306 C 890.05238 -227.72405 921.86248 -206.26844 949.07156 -180.04538 L 959.05617 -190.03 C 930.54411 -217.5517 897.18334 -240.05719 860.33935 -256.11484 z M 720.92925 -237.57831 C 686.10497 -236.87113 652.81272 -230.00215 622.07089 -217.99519 L 627.1913 -205.63509 C 656.35374 -216.99115 687.91822 -223.49769 720.92925 -224.20065 L 720.92925 -237.57831 z M 732.8205 -237.57831 L 732.8205 -224.20065 C 765.83153 -223.49769 797.39601 -216.99115 826.55844 -205.63509 L 831.67885 -217.99519 C 800.9371 -230.00209 767.64467 -236.87113 732.8205 -237.57831 z M 842.6694 -213.45541 L 837.54754 -201.09023 C 867.12151 -188.06433 893.94434 -169.98326 916.96141 -147.93523 L 926.42056 -157.39438 C 902.16816 -180.67219 873.877 -199.74768 842.6694 -213.45541 z M 611.08107 -213.45469 C 579.87359 -199.74697 551.58151 -180.67212 527.32919 -157.39438 L 536.78834 -147.93523 C 559.80541 -169.98326 586.62824 -188.06433 616.2022 -201.09023 L 611.08107 -213.45469 z M 486.28536 -181.62179 C 458.76371 -153.10976 436.25815 -119.74889 420.20052 -82.904962 L 433.2523 -77.498594 C 448.59131 -112.61799 470.04692 -144.4281 496.26998 -171.63717 L 486.28536 -181.62179 z M 967.46511 -181.62179 L 957.47977 -171.63645 C 983.70268 -144.42746 1005.1585 -112.61782 1020.4974 -77.498594 L 1033.5492 -82.904962 C 1017.4916 -119.74879 994.98667 -153.10981 967.46511 -181.62179 z M 518.92098 -148.98617 C 495.64328 -124.73389 476.56839 -96.442432 462.86067 -65.235017 L 475.22514 -60.113157 C 488.25104 -89.68712 506.3321 -116.50996 528.38013 -139.52702 L 518.92098 -148.98617 z M 934.82949 -148.98617 L 925.37035 -139.52702 C 947.41829 -116.51001 965.49875 -89.687035 978.52461 -60.113157 L 990.8898 -65.234291 C 977.18212 -96.441899 958.10726 -124.73375 934.82949 -148.98617 z M 415.67453 -71.908604 C 401.42026 -35.719314 393.30276 3.5337977 392.58371 44.613888 L 406.70457 44.613888 C 407.42034 5.4479329 415.15633 -31.980955 428.72268 -66.503688 L 415.67453 -71.908604 z M 1038.0752 -71.908604 L 1025.0271 -66.503688 C 1038.5934 -31.980955 1046.3294 5.4479308 1047.0452 44.613888 L 1061.166 44.613888 C 1060.447 3.5337978 1052.3295 -35.719316 1038.0752 -71.908604 z M 458.32017 -54.244465 C 446.31327 -23.502717 439.44423 9.7897145 438.73706 44.613888 L 452.11471 44.613888 C 452.81767 11.602854 459.32421 -19.961624 470.68027 -49.124057 L 458.32017 -54.244465 z M 995.42958 -54.24374 L 983.06947 -49.124057 C 994.42554 -19.961624 1000.9321 11.602854 1001.635 44.613888 L 1015.0127 44.613888 C 1014.3055 9.7899521 1007.4363 -23.502166 995.42958 -54.24374 z M 392.58371 56.505138 C 393.30277 97.585444 401.42085 136.83818 415.67526 173.02763 L 428.72268 167.62271 C 415.15636 133.10006 407.42037 95.670998 406.70457 56.505138 L 392.58371 56.505138 z M 438.73706 56.505138 C 439.44423 91.329308 446.31327 124.62174 458.32017 155.36349 L 470.68027 150.24308 C 459.32421 121.08065 452.81767 89.516172 452.11471 56.505138 L 438.73706 56.505138 z M 1001.635 56.505138 C 1000.9321 89.516172 994.42554 121.08065 983.06947 150.24308 L 995.42958 155.36277 C 1007.4363 124.62119 1014.3055 91.32907 1015.0127 56.505138 L 1001.635 56.505138 z M 1047.0452 56.505138 C 1046.3294 95.671 1038.5934 133.10006 1025.0271 167.62271 L 1038.0752 173.0269 C 1052.3294 136.8377 1060.447 97.585112 1061.166 56.505138 L 1047.0452 56.505138 z M 978.52461 161.23146 C 965.49872 190.80557 947.41844 217.62887 925.37035 240.64605 L 934.82949 250.1052 C 958.10726 225.85277 977.18212 197.56092 990.8898 166.35332 L 978.52461 161.23146 z M 475.22514 161.23218 L 462.86067 166.35404 C 476.56839 197.56146 495.64328 225.85292 518.92098 250.1052 L 528.38013 240.64605 C 506.3321 217.62899 488.25104 190.80615 475.22514 161.23218 z M 433.2523 178.61762 L 420.20052 184.02399 C 436.25815 220.86792 458.76371 254.22879 486.28536 282.74081 L 496.26998 272.7562 C 470.04692 245.54713 448.59131 213.73701 433.2523 178.61762 z M 1020.4974 178.61762 C 1005.1585 213.73685 983.70268 245.54649 957.47977 272.75547 L 967.46511 282.74081 C 994.98667 254.22884 1017.4916 220.86782 1033.5492 184.02399 L 1020.4974 178.61762 z M 536.78834 249.05426 L 527.32919 258.51341 C 551.58135 281.791 579.8731 300.86601 611.08034 314.57371 L 616.2022 302.20925 C 586.62824 289.18335 559.80541 271.10228 536.78834 249.05426 z M 916.96141 249.05426 C 893.94434 271.10228 867.12151 289.18335 837.54754 302.20925 L 842.6694 314.57444 C 873.877 300.86671 902.16816 281.79121 926.42056 258.51341 L 916.96141 249.05426 z M 504.67819 281.16441 L 494.69357 291.14902 C 523.20566 318.67079 556.56635 341.17619 593.4104 357.23386 L 598.81677 344.18208 C 563.69738 328.84308 531.88726 307.38747 504.67819 281.16441 z M 949.07156 281.16441 C 921.86248 307.38747 890.05238 328.84308 854.93298 344.18208 L 860.33935 357.23386 C 897.18334 341.17621 930.54411 318.67073 959.05617 291.14902 L 949.07156 281.16441 z M 627.1913 306.75411 L 622.07089 319.11422 C 652.81272 331.12118 686.10497 337.99016 720.92925 338.69733 L 720.92925 325.31968 C 687.91821 324.61671 656.35374 318.11017 627.1913 306.75411 z M 826.55844 306.75411 C 797.39601 318.11017 765.83153 324.61671 732.8205 325.31968 L 732.8205 338.69733 C 767.64467 337.99016 800.9371 331.12112 831.67885 319.11422 L 826.55844 306.75411 z M 609.81167 348.7117 L 604.40676 361.75913 C 640.5962 376.01354 679.84894 384.13162 720.92925 384.85068 L 720.92925 370.72982 C 681.76339 370.01402 644.33433 362.27803 609.81167 348.7117 z M 843.93807 348.7117 C 809.41533 362.27806 771.98646 370.01405 732.8205 370.72982 L 732.8205 384.85068 C 773.90059 384.13163 813.15369 376.01413 849.34299 361.75985 L 843.93807 348.7117 z " />
      <path
         id="path3"
         style="fill:#808080;fill-opacity:1;stroke:none;stroke-width:1.37928px;stroke-linecap:butt;stroke-linejoin:miter;stroke-opacity:1"
         d="M 589.3402 -187.56523 L 589.3402 -8.9714924 L 611.34598 -8.9714924 L 611.34598 -20.862742 L 601.23145 -20.862742 L 601.23145 -166.96893 L 611.34598 -161.12927 L 611.34598 -174.86038 L 589.3402 -187.56523 z M 623.23796 -167.99446 L 623.23796 -154.26335 L 678.48611 -122.36585 L 678.48611 -136.09697 L 623.23796 -167.99446 z M 690.37736 -129.23177 L 690.37736 -115.50066 L 745.62551 -83.603166 L 745.62551 -97.334279 L 690.37736 -129.23177 z M 757.51676 -90.46836 L 757.51676 -76.737972 L 812.76491 -44.840478 L 812.76491 -58.570866 L 757.51676 -90.46836 z M 824.65616 -51.705672 L 824.65616 -37.974559 L 854.29502 -20.862742 L 824.65616 -20.862742 L 824.65616 -8.9714924 L 898.67382 -8.9714924 L 824.65616 -51.705672 z M 623.23796 -20.862742 L 623.23796 -8.9714924 L 678.48611 -8.9714924 L 678.48611 -20.862742 L 623.23796 -20.862742 z M 690.37736 -20.862742 L 690.37736 -8.9714924 L 745.62551 -8.9714924 L 745.62551 -20.862742 L 690.37736 -20.862742 z M 757.51676 -20.862742 L 757.51676 -8.9714924 L 812.76491 -8.9714924 L 812.76491 -20.862742 L 757.51676 -20.862742 z M 589.3402 20.793647 L 589.3402 80.325379 L 611.34598 80.325379 L 611.34598 68.434129 L 601.23145 68.434129 L 601.23145 32.684897 L 611.34598 32.684897 L 611.34598 20.793647 L 589.3402 20.793647 z M 623.23796 20.793647 L 623.23796 32.684897 L 678.48611 32.684897 L 678.48611 20.793647 L 623.23796 20.793647 z M 690.37736 20.793647 L 690.37736 32.684897 L 745.62551 32.684897 L 745.62551 20.793647 L 690.37736 20.793647 z M 757.51676 20.793647 L 757.51676 32.684897 L 812.76491 32.684897 L 812.76491 20.793647 L 757.51676 20.793647 z M 824.65616 20.793647 L 824.65616 32.684897 L 879.90432 32.684897 L 879.90432 20.793647 L 824.65616 20.793647 z M 891.79557 20.793647 L 891.79557 32.684897 L 947.04372 32.684897 L 947.04372 20.793647 L 891.79557 20.793647 z M 958.93497 25.819704 L 958.93497 39.550817 L 978.00205 50.559513 L 958.93497 61.568209 L 958.93497 75.299323 L 1001.7853 50.559513 L 958.93497 25.819704 z M 623.23796 68.434129 L 623.23796 80.325379 L 678.48611 80.325379 L 678.48611 68.434129 L 623.23796 68.434129 z M 690.37736 68.434129 L 690.37736 80.325379 L 745.62551 80.325379 L 745.62551 68.434129 L 690.37736 68.434129 z M 757.51676 68.434129 L 757.51676 80.325379 L 812.76491 80.325379 L 812.76491 68.434129 L 757.51676 68.434129 z M 824.65616 68.434129 L 824.65616 80.325379 L 879.90432 80.325379 L 879.90432 68.434129 L 824.65616 68.434129 z M 891.79557 68.434129 L 891.79557 80.325379 L 947.04372 80.325379 L 947.04372 68.434129 L 891.79557 68.434129 z M 589.3402 110.09052 L 589.3402 288.68426 L 611.34598 275.97941 L 611.34598 262.24829 L 601.23145 268.08795 L 601.23145 121.98177 L 611.34598 121.98177 L 611.34598 110.09052 L 589.3402 110.09052 z M 623.23796 110.09052 L 623.23796 121.98177 L 678.48611 121.98177 L 678.48611 110.09052 L 623.23796 110.09052 z M 690.37736 110.09052 L 690.37736 121.98177 L 745.62551 121.98177 L 745.62551 110.09052 L 690.37736 110.09052 z M 757.51676 110.09052 L 757.51676 121.98177 L 812.76491 121.98177 L 812.76491 110.09052 L 757.51676 110.09052 z M 824.65616 110.09052 L 824.65616 121.98177 L 854.29502 121.98177 L 824.65616 139.09359 L 824.65616 152.8247 L 898.67382 110.09052 L 824.65616 110.09052 z M 812.76491 145.9595 L 757.51676 177.857 L 757.51676 191.58739 L 812.76491 159.68989 L 812.76491 145.9595 z M 745.62551 184.72219 L 690.37736 216.61969 L 690.37736 230.3508 L 745.62551 198.45331 L 745.62551 184.72219 z M 678.48611 223.48488 L 623.23796 255.38237 L 623.23796 269.11349 L 678.48611 237.21599 L 678.48611 223.48488 z " />
    </g>
  </g>
</svg>
