<?xml version="1.0" encoding="UTF-8" standalone="no"?>
<!-- Created with Inkscape (http://www.inkscape.org/) -->

<svg
   width="1800.0001"
   height="1800"
   viewBox="0 0 476.25002 476.25001"
   version="1.1"
   id="svg8"
   inkscape:export-filename="C:\Users\厂永刄先生\Documents\GXI3CW2\,pjóŭ\Norvège.png"
   inkscape:export-xdpi="96"
   inkscape:export-ydpi="96"
   inkscape:version="1.3 (0e150ed6c4, 2023-07-21)"
   sodipodi:docname="NUUXE1 - コピー - コピー.svg"
   xmlns:inkscape="http://www.inkscape.org/namespaces/inkscape"
   xmlns:sodipodi="http://sodipodi.sourceforge.net/DTD/sodipodi-0.dtd"
   xmlns="http://www.w3.org/2000/svg"
   xmlns:svg="http://www.w3.org/2000/svg"
   xmlns:rdf="http://www.w3.org/1999/02/22-rdf-syntax-ns#"
   xmlns:cc="http://creativecommons.org/ns#"
   xmlns:dc="http://purl.org/dc/elements/1.1/">
  <defs
     id="defs2" />
  <sodipodi:namedview
     id="base"
     pagecolor="#ffffff"
     bordercolor="#666666"
     borderopacity="1.0"
     inkscape:pageopacity="0.0"
     inkscape:pageshadow="2"
     inkscape:zoom="0.20519885"
     inkscape:cx="1527.7863"
     inkscape:cy="1342.6001"
     inkscape:document-units="px"
     inkscape:current-layer="g2"
     showgrid="false"
     units="px"
     fit-margin-top="0"
     fit-margin-left="0"
     fit-margin-right="0"
     fit-margin-bottom="0"
     inkscape:showpageshadow="false"
     inkscape:snap-intersection-paths="false"
     inkscape:object-paths="false"
     inkscape:pagecheckerboard="true"
     inkscape:snap-smooth-nodes="false"
     inkscape:window-width="1920"
     inkscape:window-height="1009"
     inkscape:window-x="-8"
     inkscape:window-y="-8"
     inkscape:window-maximized="1"
     inkscape:object-nodes="true"
     inkscape:deskcolor="#505050" />
  <metadata
     id="metadata5">
    <rdf:RDF>
      <cc:Work
         rdf:about="">
        <dc:format>image/svg+xml</dc:format>
        <dc:type
           rdf:resource="http://purl.org/dc/dcmitype/StillImage" />
      </cc:Work>
    </rdf:RDF>
  </metadata>
  <g
     inkscape:label="レイヤー 1"
     inkscape:groupmode="layer"
     id="layer1"
     transform="translate(-392.43347,283.88189)">
    <g
       id="g2"
       transform="matrix(0.71200813,0,0,0.71200813,113.01765,-81.755675)">
      <g
         id="g4">
        <path
           id="path4"
           style="fill:#ffffff;fill-opacity:1;stroke-width:0.417831;stroke-linejoin:bevel;stroke-miterlimit:155"
           d="m 826.29679,-45.756888 c 0,108.103286 -87.63503,195.738308 -195.73832,195.738308 -108.10328,0 -195.73831,-87.635022 -195.73831,-195.738308 0,-108.103282 87.63503,-195.738312 195.73831,-195.738312 108.10329,0 195.73832,87.63503 195.73832,195.738312 z"
           sodipodi:nodetypes="ssszs"
           transform="matrix(1.4044784,0,0,1.4044784,-158.73084,114.82406)" />
        <path
           id="circle4"
           style="fill:#00205b;fill-opacity:1;stroke-width:0.417831;stroke-linejoin:bevel;stroke-miterlimit:155"
           d="m 392.43347,-45.756888 c 0,131.512804 106.6122,238.124998 238.125,238.124998 131.51281,1e-5 238.12502,-106.612187 238.12502,-238.124998 0,-131.512812 -106.61221,-238.125002 -238.12502,-238.125002 -131.5128,0 -238.125,106.6122 -238.125,238.125002 z m 433.86332,0 c 0,108.103286 -87.63503,195.738308 -195.73832,195.738308 -108.10328,0 -195.73831,-87.635022 -195.73831,-195.738308 0,-108.103282 87.63503,-195.738312 195.73831,-195.738312 108.10329,0 195.73832,87.63503 195.73832,195.738312 z"
           sodipodi:nodetypes="ssszsssszs"
           transform="matrix(1.4044784,0,0,1.4044784,-158.73084,114.82406)" />
        <path
           sodipodi:nodetypes="cccc"
           inkscape:connector-curvature="0"
           id="path837"
           d="M 589.3405,288.68452 V 110.09077 h 309.33346 z"
           style="fill:#ba0c2f;fill-opacity:1;stroke:none;stroke-width:1.5419px;stroke-linecap:butt;stroke-linejoin:miter;stroke-opacity:1" />
        <path
           sodipodi:nodetypes="cccc"
           inkscape:connector-curvature="0"
           id="path846"
           d="M 589.3405,-8.9717263 V -187.56548 L 898.67398,-8.9717263 Z"
           style="fill:#ba0c2f;fill-opacity:1;stroke:none;stroke-width:1.5419px;stroke-linecap:butt;stroke-linejoin:miter;stroke-opacity:1" />
        <path
           style="fill:#00205b;fill-opacity:1;stroke:none;stroke-width:1.66545px;stroke-linecap:butt;stroke-linejoin:miter;stroke-opacity:1"
           d="m 589.34047,80.325141 3e-5,-59.531242 360.88906,1e-6 51.55554,29.765618 -51.55555,29.765623 z"
           id="path850"
           inkscape:connector-curvature="0"
           sodipodi:nodetypes="cccccc" />
      </g>
    </g>
  </g>
</svg>
