<?xml version="1.0" encoding="UTF-8" standalone="no"?>
<!-- Created with Inkscape (http://www.inkscape.org/) -->

<svg
   width="1800"
   height="1800"
   viewBox="0 0 476.25 476.25001"
   version="1.1"
   id="svg8"
   inkscape:export-filename="C:\Users\厂永刄先生\Documents\GXI3CW2\,pjóŭ\Australie.png"
   inkscape:export-xdpi="96"
   inkscape:export-ydpi="96"
   inkscape:version="1.3 (0e150ed6c4, 2023-07-21)"
   sodipodi:docname="cf_1961_roundel.svg"
   xmlns:inkscape="http://www.inkscape.org/namespaces/inkscape"
   xmlns:sodipodi="http://sodipodi.sourceforge.net/DTD/sodipodi-0.dtd"
   xmlns="http://www.w3.org/2000/svg"
   xmlns:svg="http://www.w3.org/2000/svg"
   xmlns:rdf="http://www.w3.org/1999/02/22-rdf-syntax-ns#"
   xmlns:cc="http://creativecommons.org/ns#"
   xmlns:dc="http://purl.org/dc/elements/1.1/">
  <defs
     id="defs2" />
  <sodipodi:namedview
     id="base"
     pagecolor="#ffffff"
     bordercolor="#666666"
     borderopacity="1.0"
     inkscape:pageopacity="0.0"
     inkscape:pageshadow="2"
     inkscape:zoom="0.29344932"
     inkscape:cx="952.4643"
     inkscape:cy="1122.8515"
     inkscape:document-units="px"
     inkscape:current-layer="g863"
     showgrid="false"
     units="px"
     fit-margin-top="0"
     fit-margin-left="0"
     fit-margin-right="0"
     fit-margin-bottom="0"
     inkscape:showpageshadow="false"
     inkscape:snap-intersection-paths="false"
     inkscape:object-paths="false"
     inkscape:pagecheckerboard="true"
     inkscape:snap-smooth-nodes="true"
     inkscape:window-width="1920"
     inkscape:window-height="1009"
     inkscape:window-x="-8"
     inkscape:window-y="-8"
     inkscape:window-maximized="1"
     inkscape:object-nodes="true"
     inkscape:deskcolor="#505050" />
  <metadata
     id="metadata5">
    <rdf:RDF>
      <cc:Work
         rdf:about="">
        <dc:format>image/svg+xml</dc:format>
        <dc:type
           rdf:resource="http://purl.org/dc/dcmitype/StillImage" />
      </cc:Work>
    </rdf:RDF>
  </metadata>
  <g
     inkscape:label="レイヤー 1"
     inkscape:groupmode="layer"
     id="layer1"
     transform="translate(-432.97167,-358.79912)">
    <g
       id="g863"
       transform="matrix(0.49999994,0,0,0.49999994,-51.404766,149.63395)">
      <path
         id="path6"
         style="fill:#ffbf00;stroke-width:1.32267;stroke-linejoin:bevel;stroke-miterlimit:155;paint-order:markers fill stroke"
         d="m 1921.2531,894.58044 c 0,262.45076 -213.7993,476.25006 -476.25,476.25006 -262.4507,0 -476.25011,-213.7993 -476.25011,-476.25006 0,-262.45075 213.79941,-476.25009 476.25011,-476.25006 262.4507,3e-5 476.25,213.79935 476.25,476.25006 z"
         sodipodi:nodetypes="zzzzz" />
      <path
         id="circle2"
         style="fill:#00a800;stroke-width:0.992002;stroke-linejoin:bevel;stroke-miterlimit:155;paint-order:markers fill stroke"
         d="m 1802.1906,894.58044 c 0,197.26926 -159.9183,357.18756 -357.1875,357.18756 -197.2692,0 -357.1876,-159.9183 -357.1876,-357.18756 0,-197.26926 159.9184,-357.18759 357.1876,-357.18756 197.2692,3e-5 357.1875,159.91834 357.1875,357.18756 z"
         sodipodi:nodetypes="zzzzz" />
      <path
         id="circle7"
         style="fill:#ffffff;stroke-width:0.661333;stroke-linejoin:bevel;stroke-miterlimit:155;paint-order:markers fill stroke"
         transform="scale(-1)"
         d="m -1206.878,-894.58044 c 0,131.51286 -106.6123,238.12506 -238.1251,238.12503 -131.5128,-3e-5 -238.125,-106.61221 -238.125,-238.12503 0,-131.51286 106.6122,-238.12506 238.125,-238.12506 131.5128,0 238.1251,106.6122 238.1251,238.12506 z"
         sodipodi:nodetypes="zzzzz" />
      <path
         id="path1"
         style="fill:#ff0000;fill-opacity:1;stroke-width:4.7625;stroke-miterlimit:3.9;paint-order:stroke fill markers"
         d="M 1445.0031 418.33039 C 1424.832 418.33039 1404.9931 419.73979 1385.4718 422.19062 L 1385.4718 1366.9703 C 1404.9931 1369.4211 1424.832 1370.8305 1445.0031 1370.8305 C 1465.1741 1370.8305 1485.013 1369.4211 1504.5343 1366.9703 L 1504.5343 422.19062 C 1485.013 419.73979 1465.1741 418.33039 1445.0031 418.33039 z " />
      <path
         id="circle1"
         style="fill:#0000ff;stroke-width:0.330667;stroke-linejoin:bevel;stroke-miterlimit:155;paint-order:markers fill stroke"
         transform="scale(-1)"
         d="m -1325.9405,-894.58044 c 0,65.75645 -53.3062,119.06255 -119.0626,119.06252 -65.7564,-3e-5 -119.0625,-53.30611 -119.0625,-119.06252 0,-65.75641 53.3061,-119.06256 119.0625,-119.06256 65.7564,0 119.0626,53.30611 119.0626,119.06256 z"
         sodipodi:nodetypes="zzzzz" />
      <path
         id="path2"
         style="fill:#ffbf00;stroke-width:1.11269;stroke-miterlimit:3.9;paint-order:stroke fill markers;fill-opacity:1"
         d="m 1445.003,785.04294 24.5927,75.68856 h 79.5837 l -64.3845,46.7781 24.5927,75.68856 -64.3846,-46.77811 -64.3845,46.77811 24.5927,-75.68858 -64.3845,-46.77809 79.5836,10e-6 z"
         sodipodi:nodetypes="ccccccccccc" />
    </g>
  </g>
</svg>
