<?xml version="1.0" encoding="UTF-8" standalone="no"?>
<!-- Created with Inkscape (http://www.inkscape.org/) -->

<svg
   xmlns:dc="http://purl.org/dc/elements/1.1/"
   xmlns:cc="http://creativecommons.org/ns#"
   xmlns:rdf="http://www.w3.org/1999/02/22-rdf-syntax-ns#"
   xmlns:svg="http://www.w3.org/2000/svg"
   xmlns="http://www.w3.org/2000/svg"
   xmlns:sodipodi="http://sodipodi.sourceforge.net/DTD/sodipodi-0.dtd"
   xmlns:inkscape="http://www.inkscape.org/namespaces/inkscape"
   width="1851.9143"
   height="1350.4856"
   viewBox="0 0 489.98566 357.31599"
   version="1.1"
   id="svg8"
   inkscape:export-filename="C:\Users\厂永刄先生\Documents\GXI3CW2\JáÈŭcèŭ\N̂i\02-青森県\章ﾈｵﾝ.png"
   inkscape:export-xdpi="96"
   inkscape:export-ydpi="96"
   inkscape:version="0.92.4 (5da689c313, 2019-01-14)"
   sodipodi:docname="章ﾈｵﾝ.svg">
  <defs
     id="defs2">
    <marker
       inkscape:isstock="true"
       style="overflow:visible"
       id="marker1498"
       refX="0"
       refY="0"
       orient="auto"
       inkscape:stockid="Arrow1Lend">
      <path
         transform="matrix(-0.8,0,0,-0.8,-10,0)"
         style="fill:#000000;fill-opacity:1;fill-rule:evenodd;stroke:#000000;stroke-width:1.00000003pt;stroke-opacity:1"
         d="M 0,0 5,-5 -12.5,0 5,5 Z"
         id="path1496"
         inkscape:connector-curvature="0" />
    </marker>
    <marker
       inkscape:isstock="true"
       style="overflow:visible"
       id="marker1458"
       refX="0"
       refY="0"
       orient="auto"
       inkscape:stockid="Arrow1Lstart">
      <path
         transform="matrix(0.8,0,0,0.8,10,0)"
         style="fill:#000000;fill-opacity:1;fill-rule:evenodd;stroke:#000000;stroke-width:1.00000003pt;stroke-opacity:1"
         d="M 0,0 5,-5 -12.5,0 5,5 Z"
         id="path1456"
         inkscape:connector-curvature="0" />
    </marker>
    <marker
       inkscape:stockid="Arrow1Lend"
       orient="auto"
       refY="0"
       refX="0"
       id="Arrow1Lend"
       style="overflow:visible"
       inkscape:isstock="true">
      <path
         id="path967"
         d="M 0,0 5,-5 -12.5,0 5,5 Z"
         style="fill:#000000;fill-opacity:1;fill-rule:evenodd;stroke:#000000;stroke-width:1.00000003pt;stroke-opacity:1"
         transform="matrix(-0.8,0,0,-0.8,-10,0)"
         inkscape:connector-curvature="0" />
    </marker>
    <marker
       inkscape:stockid="Arrow1Lstart"
       orient="auto"
       refY="0"
       refX="0"
       id="Arrow1Lstart"
       style="overflow:visible"
       inkscape:isstock="true">
      <path
         id="path964"
         d="M 0,0 5,-5 -12.5,0 5,5 Z"
         style="fill:#000000;fill-opacity:1;fill-rule:evenodd;stroke:#000000;stroke-width:1.00000003pt;stroke-opacity:1"
         transform="matrix(0.8,0,0,0.8,10,0)"
         inkscape:connector-curvature="0" />
    </marker>
    <filter
       inkscape:collect="always"
       style="color-interpolation-filters:sRGB"
       id="filter892"
       x="-0.020399999"
       width="1.0408"
       y="-0.029142858"
       height="1.0582857">
      <feGaussianBlur
         inkscape:collect="always"
         stdDeviation="3.7589733"
         id="feGaussianBlur894" />
    </filter>
    <filter
       inkscape:collect="always"
       style="color-interpolation-filters:sRGB"
       id="filter898"
       x="-0.035700001"
       width="1.0714"
       y="-0.051000003"
       height="1.102">
      <feGaussianBlur
         inkscape:collect="always"
         stdDeviation="6.5782032"
         id="feGaussianBlur900" />
    </filter>
    <filter
       inkscape:collect="always"
       style="color-interpolation-filters:sRGB"
       id="filter904"
       x="-0.050999999"
       width="1.102"
       y="-0.072857149"
       height="1.1457143">
      <feGaussianBlur
         inkscape:collect="always"
         stdDeviation="9.3974332"
         id="feGaussianBlur906" />
    </filter>
  </defs>
  <sodipodi:namedview
     id="base"
     pagecolor="#000000"
     bordercolor="#666666"
     borderopacity="1.0"
     inkscape:pageopacity="1"
     inkscape:pageshadow="2"
     inkscape:zoom="0.30739623"
     inkscape:cx="951.98286"
     inkscape:cy="694.76108"
     inkscape:document-units="px"
     inkscape:current-layer="layer1"
     showgrid="false"
     units="px"
     fit-margin-top="5"
     fit-margin-left="5"
     fit-margin-right="5"
     fit-margin-bottom="5"
     inkscape:showpageshadow="false"
     inkscape:snap-intersection-paths="false"
     inkscape:object-paths="false"
     inkscape:pagecheckerboard="true"
     inkscape:snap-smooth-nodes="false"
     inkscape:window-width="1366"
     inkscape:window-height="745"
     inkscape:window-x="-8"
     inkscape:window-y="-8"
     inkscape:window-maximized="1"
     inkscape:object-nodes="true"
     inkscape:snap-nodes="true"
     showguides="true" />
  <metadata
     id="metadata5">
    <rdf:RDF>
      <cc:Work
         rdf:about="">
        <dc:format>image/svg+xml</dc:format>
        <dc:type
           rdf:resource="http://purl.org/dc/dcmitype/StillImage" />
        <dc:title></dc:title>
      </cc:Work>
    </rdf:RDF>
  </metadata>
  <g
     inkscape:label="レイヤー 1"
     inkscape:groupmode="layer"
     id="layer1"
     transform="translate(21.313139,-353.69383)">
    <path
       style="fill:none;fill-opacity:1;stroke:#00c032;stroke-width:10.58333397;stroke-linecap:round;stroke-linejoin:round;stroke-miterlimit:4;stroke-dasharray:none;stroke-opacity:1;filter:url(#filter904)"
       d="m 291.71543,486.42773 c 12.64584,0 20.4107,9.5294 20.4107,39.12054 0,27.78733 -5.2493,73.13839 -30.61608,73.13839 -14.96829,0 -27.21428,-35.71875 -27.21428,-35.71875 H 223.6797 c 0,11.30646 -9.70793,35.71875 -34.01785,35.71875 -24.30992,0 -27.2143,-112.25893 -27.2143,-112.25893 H 94.411837 c 0,62.02306 -25.17192,162.20977 -91.8482192,200.70535 m 442.2321622,0 C 387.75579,630.09309 371.565,585.03569 356.34935,525.54827 c -1.38807,-5.42682 -1.94796,-11.03147 -1.97854,-16.68149 M 383.56363,399.6822 c 0,0 -46.59363,24.14683 -71.4375,22.1116 -32.85199,-2.69126 -88.44643,-44.22321 -88.44643,-44.22321 v 147.97768"
       id="path902"
       inkscape:connector-curvature="0"
       sodipodi:nodetypes="csscczccccsccscc" />
    <path
       sodipodi:nodetypes="csscczccccsccscc"
       inkscape:connector-curvature="0"
       id="path896"
       d="m 291.71543,486.42773 c 12.64584,0 20.4107,9.5294 20.4107,39.12054 0,27.78733 -5.2493,73.13839 -30.61608,73.13839 -14.96829,0 -27.21428,-35.71875 -27.21428,-35.71875 H 223.6797 c 0,11.30646 -9.70793,35.71875 -34.01785,35.71875 -24.30992,0 -27.2143,-112.25893 -27.2143,-112.25893 H 94.411837 c 0,62.02306 -25.17192,162.20977 -91.8482192,200.70535 m 442.2321622,0 C 387.75579,630.09309 371.565,585.03569 356.34935,525.54827 c -1.38807,-5.42682 -1.94796,-11.03147 -1.97854,-16.68149 M 383.56363,399.6822 c 0,0 -46.59363,24.14683 -71.4375,22.1116 -32.85199,-2.69126 -88.44643,-44.22321 -88.44643,-44.22321 v 147.97768"
       style="fill:none;fill-opacity:1;stroke:#00c032;stroke-width:10.58333397;stroke-linecap:round;stroke-linejoin:round;stroke-miterlimit:4;stroke-dasharray:none;stroke-opacity:1;filter:url(#filter898)" />
    <path
       style="fill:none;fill-opacity:1;stroke:#00c032;stroke-width:10.58333397;stroke-linecap:round;stroke-linejoin:round;stroke-miterlimit:4;stroke-dasharray:none;stroke-opacity:1;filter:url(#filter892)"
       d="m 291.71543,486.42773 c 12.64584,0 20.4107,9.5294 20.4107,39.12054 0,27.78733 -5.2493,73.13839 -30.61608,73.13839 -14.96829,0 -27.21428,-35.71875 -27.21428,-35.71875 H 223.6797 c 0,11.30646 -9.70793,35.71875 -34.01785,35.71875 -24.30992,0 -27.2143,-112.25893 -27.2143,-112.25893 H 94.411837 c 0,62.02306 -25.17192,162.20977 -91.8482192,200.70535 m 442.2321622,0 C 387.75579,630.09309 371.565,585.03569 356.34935,525.54827 c -1.38807,-5.42682 -1.94796,-11.03147 -1.97854,-16.68149 M 383.56363,399.6822 c 0,0 -46.59363,24.14683 -71.4375,22.1116 -32.85199,-2.69126 -88.44643,-44.22321 -88.44643,-44.22321 v 147.97768"
       id="path874"
       inkscape:connector-curvature="0"
       sodipodi:nodetypes="csscczccccsccscc" />
    <text
       xml:space="preserve"
       style="font-style:normal;font-variant:normal;font-weight:normal;font-stretch:normal;font-size:4.23333359px;line-height:1.25;font-family:'Noto Sans';-inkscape-font-specification:'Noto Sans';text-align:center;letter-spacing:0px;word-spacing:0px;text-anchor:middle;fill:#000000;fill-opacity:1;stroke:none;stroke-width:0.26458335"
       x="143.02208"
       y="317.31754"
       id="text1014"><tspan
         sodipodi:role="line"
         id="tspan1012"
         x="143.02208"
         y="321.16934"
         style="stroke-width:0.26458335" /></text>
    <path
       sodipodi:nodetypes="csscczccccsccscc"
       inkscape:connector-curvature="0"
       id="path1208"
       d="m 291.71543,486.42773 c 12.64584,0 20.4107,9.5294 20.4107,39.12054 0,27.78733 -5.2493,73.13839 -30.61608,73.13839 -14.96829,0 -27.21428,-35.71875 -27.21428,-35.71875 H 223.6797 c 0,11.30646 -9.70793,35.71875 -34.01785,35.71875 -24.30992,0 -27.2143,-112.25893 -27.2143,-112.25893 H 94.411837 c 0,62.02306 -25.17192,162.20977 -91.8482192,200.70535 m 442.2321622,0 C 387.75579,630.09309 371.565,585.03569 356.34935,525.54827 c -1.38807,-5.42682 -1.94796,-11.03147 -1.97854,-16.68149 M 383.56363,399.6822 c 0,0 -46.59363,24.14683 -71.4375,22.1116 -32.85199,-2.69126 -88.44643,-44.22321 -88.44643,-44.22321 v 147.97768"
       style="fill:none;fill-opacity:1;stroke:#c1ffd1;stroke-width:5.29166698;stroke-linecap:round;stroke-linejoin:round;stroke-miterlimit:4;stroke-dasharray:none;stroke-opacity:1" />
  </g>
</svg>
