<?xml version="1.0" encoding="UTF-8" standalone="no"?>
<!-- Created with Inkscape (http://www.inkscape.org/) -->

<svg
   xmlns:dc="http://purl.org/dc/elements/1.1/"
   xmlns:cc="http://creativecommons.org/ns#"
   xmlns:rdf="http://www.w3.org/1999/02/22-rdf-syntax-ns#"
   xmlns:svg="http://www.w3.org/2000/svg"
   xmlns="http://www.w3.org/2000/svg"
   xmlns:sodipodi="http://sodipodi.sourceforge.net/DTD/sodipodi-0.dtd"
   xmlns:inkscape="http://www.inkscape.org/namespaces/inkscape"
   width="2736"
   height="1800"
   viewBox="0 0 723.9 476.25001"
   version="1.1"
   id="svg8"
   inkscape:export-filename="C:\Users\厂永刄先生\Documents\GXI3CW2\JáÈŭcèŭ\Èŭmen\Í\意軍.png"
   inkscape:export-xdpi="96"
   inkscape:export-ydpi="96"
   inkscape:version="0.92.4 (5da689c313, 2019-01-14)"
   sodipodi:docname="LUJAQDA.svg">
  <defs
     id="defs2" />
  <sodipodi:namedview
     id="base"
     pagecolor="#ffffff"
     bordercolor="#666666"
     borderopacity="1.0"
     inkscape:pageopacity="0.0"
     inkscape:pageshadow="2"
     inkscape:zoom="0.30222223"
     inkscape:cx="1368"
     inkscape:cy="900.00001"
     inkscape:document-units="px"
     inkscape:current-layer="layer1"
     showgrid="false"
     units="px"
     fit-margin-top="0"
     fit-margin-left="0"
     fit-margin-right="0"
     fit-margin-bottom="0"
     inkscape:showpageshadow="false"
     inkscape:snap-intersection-paths="false"
     inkscape:object-paths="false"
     inkscape:pagecheckerboard="true"
     inkscape:snap-smooth-nodes="false"
     inkscape:window-width="1366"
     inkscape:window-height="745"
     inkscape:window-x="-8"
     inkscape:window-y="-8"
     inkscape:window-maximized="1"
     inkscape:object-nodes="true"
     inkscape:snap-nodes="true" />
  <metadata
     id="metadata5">
    <rdf:RDF>
      <cc:Work
         rdf:about="">
        <dc:format>image/svg+xml</dc:format>
        <dc:type
           rdf:resource="http://purl.org/dc/dcmitype/StillImage" />
        <dc:title />
      </cc:Work>
    </rdf:RDF>
  </metadata>
  <g
     inkscape:label="レイヤー 1"
     inkscape:groupmode="layer"
     id="layer1"
     transform="translate(-6.7279798,-418.33036)">
    <path
       style="fill:#f7b500;fill-opacity:1;stroke:none;stroke-width:0.51166773px;stroke-linecap:butt;stroke-linejoin:miter;stroke-opacity:1"
       d="M 16.25298,418.33036 H 6.7279798 v 476.25 H 16.25298 Z"
       id="path1079"
       inkscape:connector-curvature="0"
       sodipodi:nodetypes="ccccc" />
    <path
       sodipodi:nodetypes="ccccc"
       inkscape:connector-curvature="0"
       id="path831"
       d="m 730.62798,656.45536 v -238.125 h -714.375 v 238.125 z"
       style="fill:#00a3e0;fill-opacity:1;stroke:none;stroke-width:0.90450931px;stroke-linecap:butt;stroke-linejoin:miter;stroke-opacity:1" />
    <path
       style="fill:#006f3d;fill-opacity:1;stroke:none;stroke-width:0.63958466px;stroke-linecap:butt;stroke-linejoin:miter;stroke-opacity:1"
       d="m 730.62798,894.58036 v -119.0625 h -714.375 v 119.0625 z"
       id="path817"
       inkscape:connector-curvature="0"
       sodipodi:nodetypes="ccccc" />
    <path
       sodipodi:nodetypes="ccccc"
       inkscape:connector-curvature="0"
       id="path819"
       d="m 730.62798,656.45536 v 119.0625 h -714.375 v -119.0625 z"
       style="fill:#f7b500;fill-opacity:1;stroke:none;stroke-width:0.63958466px;stroke-linecap:butt;stroke-linejoin:miter;stroke-opacity:1" />
    <path
       style="opacity:1;fill:#019cff;fill-opacity:1;fill-rule:evenodd;stroke:none;stroke-width:159.10958862;stroke-linecap:square;stroke-linejoin:round;stroke-miterlimit:4;stroke-dasharray:none;stroke-dashoffset:0;stroke-opacity:1"
       d="m 579.2558,542.88802 c 0,12.78597 10.36507,23.15104 23.15104,23.15104 12.78597,0 23.15104,-10.36507 23.15104,-23.15104 0,-12.78597 -10.36507,-23.15104 -23.15104,-23.15104 -12.78597,0 -23.15104,10.36507 -23.15104,23.15104 z m 42.99479,0 c 0,10.9594 -8.88435,19.84375 -19.84375,19.84375 -10.9594,0 -19.84375,-8.88435 -19.84375,-19.84375 0,-10.9594 8.88435,-19.84375 19.84375,-19.84375 10.9594,0 19.84375,8.88435 19.84375,19.84375 z"
       id="circle830"
       inkscape:connector-curvature="0"
       sodipodi:nodetypes="zzzzzzzzzz" />
    <path
       style="opacity:1;fill:#f9a800;fill-opacity:1;fill-rule:evenodd;stroke:none;stroke-width:53.72055435;stroke-linecap:square;stroke-linejoin:round;stroke-miterlimit:4;stroke-dasharray:none;stroke-dashoffset:0;stroke-opacity:1"
       inkscape:transform-center-x="-6.9205105e-05"
       inkscape:transform-center-y="1.042505e-05"
       d="m 565.89795,558.39931 -39.10757,5.23606 36.48619,-15.01922 -39.1302,-5.06421 39.13019,-5.06414 -36.48615,-15.01931 39.10757,5.23603 -31.35562,-23.95087 36.41984,15.17939 -24.0883,-31.25016 31.25019,24.08829 -15.17944,-36.41988 23.95082,31.3557 -5.23596,-39.10762 15.01924,36.48622 5.06419,-39.13023 5.06415,39.13021 15.01928,-36.48617 -5.23601,39.10761 23.95087,-31.35564 -15.17936,36.41986 31.25012,-24.08834 -24.08826,31.25021 36.41983,-15.17943 -31.35568,23.95081 39.10762,-5.23597 -36.4862,15.01924 39.13022,5.06419 -39.13023,5.06414 36.48617,15.01928 -39.10758,-5.23599 31.35567,23.95078 -36.41984,-15.17936 24.08831,31.25013 -31.25019,-24.08828 15.17943,36.41983 -23.95082,-31.35564 5.23605,39.10756 -15.01923,-36.48618 -5.0642,39.1302 -5.06414,-39.1302 -15.01928,36.48616 5.23602,-39.10758 -23.95086,31.35563 15.17937,-36.41986 -31.25016,24.08833 24.08835,-31.25014 -36.41981,15.17942 z"
       id="path840"
       inkscape:connector-curvature="0"
       sodipodi:nodetypes="ccccccccccccccccccccccccccccccccccccccccccccccccc" />
    <path
       style="opacity:1;fill:#00a3e0;fill-opacity:1;fill-rule:evenodd;stroke:none;stroke-width:72.03336334;stroke-linecap:square;stroke-linejoin:round;stroke-miterlimit:4;stroke-dasharray:none;stroke-dashoffset:0;stroke-opacity:1"
       d="m 601.74292,516.07592 c -15.17455,0 -27.47596,12.30141 -27.47596,27.47596 0,15.17455 12.30141,27.47596 27.47596,27.47596 v -3.66346 c -13.15128,0 -23.8125,-10.66122 -23.8125,-23.8125 0,-13.15128 10.66122,-23.8125 23.8125,-23.8125"
       id="circle846"
       inkscape:connector-curvature="0"
       sodipodi:nodetypes="csccsc" />
    <path
       sodipodi:nodetypes="csccsc"
       inkscape:connector-curvature="0"
       id="path850"
       d="m 601.74292,516.07592 c 15.17455,0 27.47596,12.30141 27.47596,27.47596 0,15.17455 -12.30141,27.47596 -27.47596,27.47596 v -3.66346 c 13.15128,0 23.8125,-10.66122 23.8125,-23.8125 0,-13.15128 -10.66122,-23.8125 -23.8125,-23.8125"
       style="opacity:1;fill:#00a3e0;fill-opacity:1;fill-rule:evenodd;stroke:none;stroke-width:72.03336334;stroke-linecap:square;stroke-linejoin:round;stroke-miterlimit:4;stroke-dasharray:none;stroke-dashoffset:0;stroke-opacity:1" />
  </g>
</svg>
