<?xml version="1.0" encoding="UTF-8" standalone="no"?>
<!-- Created with Inkscape (http://www.inkscape.org/) -->

<svg
   width="1800"
   height="1800"
   viewBox="0 0 476.25 476.25001"
   version="1.1"
   id="svg8"
   inkscape:export-filename="C:\Users\厂永刄先生\Documents\GXI3CW2\,pjóŭ\Australie.png"
   inkscape:export-xdpi="96"
   inkscape:export-ydpi="96"
   inkscape:version="1.3 (0e150ed6c4, 2023-07-21)"
   sodipodi:docname="au_1982_roundel_lv.svg"
   xmlns:inkscape="http://www.inkscape.org/namespaces/inkscape"
   xmlns:sodipodi="http://sodipodi.sourceforge.net/DTD/sodipodi-0.dtd"
   xmlns="http://www.w3.org/2000/svg"
   xmlns:svg="http://www.w3.org/2000/svg"
   xmlns:rdf="http://www.w3.org/1999/02/22-rdf-syntax-ns#"
   xmlns:cc="http://creativecommons.org/ns#"
   xmlns:dc="http://purl.org/dc/elements/1.1/">
  <defs
     id="defs2" />
  <sodipodi:namedview
     id="base"
     pagecolor="#ffffff"
     bordercolor="#666666"
     borderopacity="1.0"
     inkscape:pageopacity="0.0"
     inkscape:pageshadow="2"
     inkscape:zoom="0.31937654"
     inkscape:cx="1391.7741"
     inkscape:cy="897.06025"
     inkscape:document-units="px"
     inkscape:current-layer="g863"
     showgrid="false"
     units="px"
     fit-margin-top="0"
     fit-margin-left="0"
     fit-margin-right="0"
     fit-margin-bottom="0"
     inkscape:showpageshadow="false"
     inkscape:snap-intersection-paths="false"
     inkscape:object-paths="false"
     inkscape:pagecheckerboard="true"
     inkscape:snap-smooth-nodes="true"
     inkscape:window-width="1920"
     inkscape:window-height="1009"
     inkscape:window-x="-8"
     inkscape:window-y="-8"
     inkscape:window-maximized="1"
     inkscape:object-nodes="true"
     inkscape:deskcolor="#505050" />
  <metadata
     id="metadata5">
    <rdf:RDF>
      <cc:Work
         rdf:about="">
        <dc:format>image/svg+xml</dc:format>
        <dc:type
           rdf:resource="http://purl.org/dc/dcmitype/StillImage" />
      </cc:Work>
    </rdf:RDF>
  </metadata>
  <g
     inkscape:label="レイヤー 1"
     inkscape:groupmode="layer"
     id="layer1"
     transform="translate(-683.00288,-608.83035)">
    <g
       id="g863"
       transform="matrix(0.49999994,0,0,0.49999994,-51.404766,149.63395)">
      <path
         id="circle2"
         style="fill:#cccccc;stroke-width:1.32267;stroke-linejoin:bevel;stroke-miterlimit:155;paint-order:markers fill stroke"
         transform="scale(-1)"
         d="m -1468.8155,-1394.6429 c 0,-262.4508 -213.7994,-476.2501 -476.2501,-476.2501 -262.4507,0 -476.25,213.7994 -476.25,476.2501 0,262.4507 213.7993,476.24999 476.25,476.25002 262.4507,3e-5 476.2501,-213.79922 476.2501,-476.25002 z m -793.7501,0 c 0,-175.3504 142.1496,-317.5 317.5,-317.5 175.3504,0 317.5,142.1496 317.5,317.5 0,175.3504 -142.1496,317.5 -317.5,317.5 -175.3504,0 -317.5,-142.1496 -317.5,-317.5 z"
         sodipodi:nodetypes="zzzzzssszs" />
      <path
         style="fill:#cccccc;fill-opacity:1;stroke-width:8.56172;stroke-linecap:round;stroke-linejoin:round;stroke-miterlimit:3.9"
         d="m 1858.0069,1413.5008 c -14.2204,9.7664 -17.5588,31.4852 -17.5588,46.868 1.1568,5.156 10.6716,9.686 13.534,14.6436 0,2.4396 -1.288,5.4256 -3.2912,6.582 -11.5944,-3.1068 -23.5644,-11.0584 -28.96,-20.404 -3.5876,-13.3896 3.9492,-35.6484 3.9492,-46.3488 -18.5908,0 -40.642,-1.5008 -58.468,-6.2772 -9.3732,-9.3732 -10.796,-18.468 -23.736,-26.5288 -32.992,-8.8396 -80.844,1.2604 -98.2112,-8.7668 -1.3744,-2.38 -3.5372,-5.7572 -2.2108,-10.7076 6.6596,-3.8452 26.1372,-9.0216 26.1372,-9.0216 3.5948,-5.176 9.408,-15.612 16.2344,-19.8448 11.212,-3.0044 24.7708,-7.2072 34.9972,-7.2072 7.2496,-27.0564 37.3124,-44.4276 44.0704,-39.7636 6.758,4.6636 -11.9124,30.8036 -31.5196,42.124 0,0 33.938,11.7856 45.5792,12.0732 43.0548,-11.5364 54.7728,-54.8084 104.686,-78.0172 18.4072,-8.5584 75.3932,-25.3674 121.8916,1.478 65.246,37.67 116.0928,110.7924 187.0732,111.5964 19.88,0.224 38.136,-12.476 55.2876,-22.3784 -4.9864,18.608 -29.9944,46.0864 -53.9712,48.706 -61.5872,6.7292 -126.1612,-29.902 -170.9308,-41.898 -33.7696,19.4972 -25.9556,39.042 -65.6044,61.934 -10.1684,29.4512 -1.3164,69.69 -1.3164,99.5132 -46.4108,26.7948 -108.7348,41.5944 -165.8636,50.022 -11.704,1.726 -27.3384,2.198 -35.5424,0 2.9616,-5.1308 7.228,-12.3696 13.1636,-15.7964 48.0328,-27.7316 115.8392,-22.4496 140.8528,-60.5536 14.4984,-22.0856 12.666,-47.4004 5.2656,-75.0196 -38.272,4.4164 -42.9916,-7.0068 -55.5376,-7.0068 z"
         id="path7"
         sodipodi:nodetypes="ccccccccccccczccssscscccccsscc" />
    </g>
  </g>
</svg>
