<?xml version="1.0" encoding="UTF-8" standalone="no"?>
<!-- Created with Inkscape (http://www.inkscape.org/) -->

<svg
   width="3636"
   height="1800"
   viewBox="0 0 962.02499 476.25001"
   version="1.1"
   id="svg8"
   inkscape:export-filename="C:\Users\厂永刄先生\Documents\GXI3CW2\,pjóŭ\Australie.png"
   inkscape:export-xdpi="96"
   inkscape:export-ydpi="96"
   inkscape:version="1.3 (0e150ed6c4, 2023-07-21)"
   sodipodi:docname="au_1982_air-force.svg"
   xmlns:inkscape="http://www.inkscape.org/namespaces/inkscape"
   xmlns:sodipodi="http://sodipodi.sourceforge.net/DTD/sodipodi-0.dtd"
   xmlns="http://www.w3.org/2000/svg"
   xmlns:svg="http://www.w3.org/2000/svg"
   xmlns:rdf="http://www.w3.org/1999/02/22-rdf-syntax-ns#"
   xmlns:cc="http://creativecommons.org/ns#"
   xmlns:dc="http://purl.org/dc/elements/1.1/">
  <defs
     id="defs2" />
  <sodipodi:namedview
     id="base"
     pagecolor="#ffffff"
     bordercolor="#666666"
     borderopacity="1.0"
     inkscape:pageopacity="0.0"
     inkscape:pageshadow="2"
     inkscape:zoom="0.31937654"
     inkscape:cx="2819.5558"
     inkscape:cy="799.99613"
     inkscape:document-units="px"
     inkscape:current-layer="g863"
     showgrid="false"
     units="px"
     fit-margin-top="0"
     fit-margin-left="0"
     fit-margin-right="0"
     fit-margin-bottom="0"
     inkscape:showpageshadow="false"
     inkscape:snap-intersection-paths="false"
     inkscape:object-paths="false"
     inkscape:pagecheckerboard="true"
     inkscape:snap-smooth-nodes="true"
     inkscape:window-width="1920"
     inkscape:window-height="1009"
     inkscape:window-x="-8"
     inkscape:window-y="-8"
     inkscape:window-maximized="1"
     inkscape:object-nodes="true"
     inkscape:deskcolor="#505050" />
  <metadata
     id="metadata5">
    <rdf:RDF>
      <cc:Work
         rdf:about="">
        <dc:format>image/svg+xml</dc:format>
        <dc:type
           rdf:resource="http://purl.org/dc/dcmitype/StillImage" />
      </cc:Work>
    </rdf:RDF>
  </metadata>
  <g
     inkscape:label="レイヤー 1"
     inkscape:groupmode="layer"
     id="layer1"
     transform="translate(112.33452,-299.26786)">
    <path
       style="fill:#ffffff;fill-opacity:1;stroke:none;stroke-width:0.51166773px;stroke-linecap:butt;stroke-linejoin:miter;stroke-opacity:1"
       d="m -102.80952,299.26786 h -9.525 v 476.25 h 9.525 z"
       id="path819"
       inkscape:connector-curvature="0"
       sodipodi:nodetypes="ccccc" />
    <g
       id="g863"
       transform="matrix(0.49999994,0,0,0.49999994,-51.404766,149.63395)">
      <path
         style="fill:#7fb9ce;fill-opacity:1;stroke:none;stroke-width:0.264583;stroke-linecap:butt;stroke-linejoin:miter;stroke-miterlimit:4;stroke-dasharray:none;stroke-opacity:1"
         d="M 1802.1905,1251.768 H 849.69047 l 10e-5,-952.50014 h 952.50003 z"
         id="path868"
         inkscape:connector-curvature="0"
         sodipodi:nodetypes="ccccc" />
      <path
         style="fill:#7fb9ce;fill-opacity:1;stroke:none;stroke-width:0.264583;stroke-linecap:butt;stroke-linejoin:miter;stroke-miterlimit:4;stroke-dasharray:none;stroke-opacity:1"
         d="m 849.69057,775.51783 h -952.50009 l -10e-5,476.25017 952.50009,0 z"
         id="path1"
         inkscape:connector-curvature="0"
         sodipodi:nodetypes="ccccc" />
      <path
         style="fill:#012169;fill-opacity:1;stroke:none;stroke-width:0.264583;stroke-linecap:butt;stroke-linejoin:miter;stroke-miterlimit:4;stroke-dasharray:none;stroke-opacity:1"
         d="m 30.30627,299.26786 263.75906,131.87953 10e-6,-131.87953 z"
         id="path857"
         inkscape:connector-curvature="0"
         sodipodi:nodetypes="cccc" />
      <path
         sodipodi:nodetypes="cccc"
         inkscape:connector-curvature="0"
         id="path861"
         d="m -102.80966,365.82582 v 92.19204 H 81.57441 Z"
         style="fill:#012169;fill-opacity:1;stroke:none;stroke-width:0.264583;stroke-linecap:butt;stroke-linejoin:miter;stroke-miterlimit:4;stroke-dasharray:none;stroke-opacity:1" />
      <path
         style="fill:#012169;fill-opacity:1;stroke:none;stroke-width:0.264583;stroke-linecap:butt;stroke-linejoin:miter;stroke-miterlimit:4;stroke-dasharray:none;stroke-opacity:1"
         d="M -102.80966,708.9599 V 616.76786 H 81.57441 Z"
         id="path863"
         inkscape:connector-curvature="0"
         sodipodi:nodetypes="cccc" />
      <path
         style="fill:#012169;fill-opacity:1;stroke:none;stroke-width:0.264583;stroke-linecap:butt;stroke-linejoin:miter;stroke-miterlimit:4;stroke-dasharray:none;stroke-opacity:1"
         d="M 294.06534,775.51786 H 30.30627 L 294.06533,643.63833 Z"
         id="path869"
         inkscape:connector-curvature="0"
         sodipodi:nodetypes="cccc" />
      <path
         sodipodi:nodetypes="cccc"
         inkscape:connector-curvature="0"
         id="path879"
         d="M 452.81534,775.51786 H 716.57457 L 452.81535,643.63833 Z"
         style="fill:#012169;fill-opacity:1;stroke:none;stroke-width:0.264583;stroke-linecap:butt;stroke-linejoin:miter;stroke-miterlimit:4;stroke-dasharray:none;stroke-opacity:1" />
      <path
         sodipodi:nodetypes="cccc"
         inkscape:connector-curvature="0"
         id="path889"
         d="M 716.57437,299.26786 452.81534,431.14739 V 299.26786 Z"
         style="fill:#012169;fill-opacity:1;stroke:none;stroke-width:0.264583;stroke-linecap:butt;stroke-linejoin:miter;stroke-miterlimit:4;stroke-dasharray:none;stroke-opacity:1" />
      <path
         style="fill:#012169;fill-opacity:1;stroke:none;stroke-width:0.264583;stroke-linecap:butt;stroke-linejoin:miter;stroke-miterlimit:4;stroke-dasharray:none;stroke-opacity:1"
         d="m 849.69037,365.82582 -184.3841,92.19204 h 184.3841 z"
         id="path891"
         inkscape:connector-curvature="0"
         sodipodi:nodetypes="cccc" />
      <path
         sodipodi:nodetypes="cccc"
         inkscape:connector-curvature="0"
         id="path893"
         d="M 849.69037,616.76786 V 708.9599 L 665.30627,616.76786 Z"
         style="fill:#012169;fill-opacity:1;stroke:none;stroke-width:0.264583;stroke-linecap:butt;stroke-linejoin:miter;stroke-miterlimit:4;stroke-dasharray:none;stroke-opacity:1" />
      <path
         style="fill:#ffffff;fill-opacity:1;stroke:none;stroke-width:0.264583;stroke-linecap:butt;stroke-linejoin:miter;stroke-miterlimit:4;stroke-dasharray:none;stroke-opacity:1"
         d="M 214.69034,616.76786 H 81.57441 l -184.38407,92.19204 v 66.55796 z"
         id="path855"
         inkscape:connector-curvature="0"
         sodipodi:nodetypes="ccccc" />
      <path
         sodipodi:nodetypes="cccccc"
         inkscape:connector-curvature="0"
         id="path847"
         d="M -102.80966,299.26786 H 30.30627 l 263.75906,131.87953 10e-6,26.87047 h -79.375 z"
         style="fill:#ffffff;fill-opacity:1;stroke:none;stroke-width:0.264583;stroke-linecap:butt;stroke-linejoin:miter;stroke-miterlimit:4;stroke-dasharray:none;stroke-opacity:1" />
      <path
         style="fill:#ffffff;fill-opacity:1;stroke:none;stroke-width:0.264583;stroke-linecap:butt;stroke-linejoin:miter;stroke-miterlimit:4;stroke-dasharray:none;stroke-opacity:1"
         d="M -102.80966,365.82582 V 343.63984 L 125.94639,458.01786 H 81.57441 Z"
         id="path859"
         inkscape:connector-curvature="0"
         sodipodi:nodetypes="ccccc" />
      <path
         sodipodi:nodetypes="ccccc"
         inkscape:connector-curvature="0"
         id="path867"
         d="m -14.06571,775.51785 44.37198,1e-5 263.75906,-131.87953 v -22.186 z"
         style="fill:#ffffff;fill-opacity:1;stroke:none;stroke-width:0.264583;stroke-linecap:butt;stroke-linejoin:miter;stroke-miterlimit:4;stroke-dasharray:none;stroke-opacity:1" />
      <path
         style="fill:#ffffff;fill-opacity:1;stroke:none;stroke-width:0.264583;stroke-linecap:butt;stroke-linejoin:miter;stroke-miterlimit:4;stroke-dasharray:none;stroke-opacity:1"
         d="m 849.69047,775.51786 h -133.1159 l -263.75922,-131.87953 -1e-5,-26.87047 h 79.37503 z"
         id="path875"
         inkscape:connector-curvature="0"
         sodipodi:nodetypes="cccccc" />
      <path
         sodipodi:nodetypes="ccccc"
         inkscape:connector-curvature="0"
         id="path883"
         d="m 849.69037,708.9599 v 22.18598 l -228.756,-114.37802 h 44.3719 z"
         style="fill:#ffffff;fill-opacity:1;stroke:none;stroke-width:0.264583;stroke-linecap:butt;stroke-linejoin:miter;stroke-miterlimit:4;stroke-dasharray:none;stroke-opacity:1" />
      <path
         sodipodi:nodetypes="ccccc"
         inkscape:connector-curvature="0"
         id="path885"
         d="m 532.19037,458.01786 h 133.1159 l 184.3841,-92.19204 v -66.55796 z"
         style="fill:#ffffff;fill-opacity:1;stroke:none;stroke-width:0.264583;stroke-linecap:butt;stroke-linejoin:miter;stroke-miterlimit:4;stroke-dasharray:none;stroke-opacity:1" />
      <path
         style="fill:#ffffff;fill-opacity:1;stroke:none;stroke-width:0.264583;stroke-linecap:butt;stroke-linejoin:miter;stroke-miterlimit:4;stroke-dasharray:none;stroke-opacity:1"
         d="m 760.94637,299.26787 -44.372,-1e-5 -263.75903,131.87953 v 22.186 z"
         id="path887"
         inkscape:connector-curvature="0"
         sodipodi:nodetypes="ccccc" />
      <path
         sodipodi:nodetypes="ccccccc"
         inkscape:connector-curvature="0"
         id="path833"
         d="m 849.69037,489.76786 v -31.75 H 452.81534 v -158.75 h -31.75 v 190.5 z"
         style="fill:#ffffff;fill-opacity:1;stroke:none;stroke-width:0.264583;stroke-linecap:butt;stroke-linejoin:miter;stroke-miterlimit:4;stroke-dasharray:none;stroke-opacity:1" />
      <path
         style="fill:#ffffff;fill-opacity:1;stroke:none;stroke-width:0.264583;stroke-linecap:butt;stroke-linejoin:miter;stroke-miterlimit:4;stroke-dasharray:none;stroke-opacity:1"
         d="m -102.80966,585.01786 v 31.75 h 396.875 v 158.75 h 31.75 v -190.5 z"
         id="path865"
         inkscape:connector-curvature="0"
         sodipodi:nodetypes="ccccccc" />
      <path
         sodipodi:nodetypes="ccccccc"
         inkscape:connector-curvature="0"
         id="path871"
         d="m 849.69037,585.01786 v 31.75 H 452.81534 v 158.75 h -31.75 v -190.5 z"
         style="fill:#ffffff;fill-opacity:1;stroke:none;stroke-width:0.264583;stroke-linecap:butt;stroke-linejoin:miter;stroke-miterlimit:4;stroke-dasharray:none;stroke-opacity:1" />
      <path
         style="fill:#ffffff;fill-opacity:1;stroke:none;stroke-width:0.264583;stroke-linecap:butt;stroke-linejoin:miter;stroke-miterlimit:4;stroke-dasharray:none;stroke-opacity:1"
         d="m -102.80966,489.76786 v -31.75 h 396.875 v -158.75 h 31.75 v 190.5 z"
         id="path873"
         inkscape:connector-curvature="0"
         sodipodi:nodetypes="ccccccc" />
      <path
         sodipodi:nodetypes="cccccc"
         inkscape:connector-curvature="0"
         id="path851"
         d="m 214.69034,616.76786 h 79.37499 v 4.68447 l -308.13104,154.06552 -88.74395,1e-5 z"
         style="fill:#e4002b;fill-opacity:1;stroke:none;stroke-width:0.264583;stroke-linecap:butt;stroke-linejoin:miter;stroke-miterlimit:4;stroke-dasharray:none;stroke-opacity:1" />
      <path
         sodipodi:nodetypes="ccccc"
         inkscape:connector-curvature="0"
         id="path849"
         d="m -102.80966,299.26786 317.5,158.75 H 125.94639 L -102.80966,343.63984 Z"
         style="fill:#e4002b;fill-opacity:1;stroke:none;stroke-width:0.264583;stroke-linecap:butt;stroke-linejoin:miter;stroke-miterlimit:4;stroke-dasharray:none;stroke-opacity:1" />
      <path
         style="fill:#e4002b;fill-opacity:1;stroke:none;stroke-width:0.264583;stroke-linecap:butt;stroke-linejoin:miter;stroke-miterlimit:4;stroke-dasharray:none;stroke-opacity:1"
         d="m 532.19037,458.01786 h -79.37503 v -4.68447 l 308.13103,-154.06552 88.744,-1e-5 z"
         id="path877"
         inkscape:connector-curvature="0"
         sodipodi:nodetypes="cccccc" />
      <path
         style="fill:#e4002b;fill-opacity:1;stroke:none;stroke-width:0.264583;stroke-linecap:butt;stroke-linejoin:miter;stroke-miterlimit:4;stroke-dasharray:none;stroke-opacity:1"
         d="m 849.69037,775.51786 -317.5,-158.75 h 88.744 l 228.756,114.37802 z"
         id="path881"
         inkscape:connector-curvature="0"
         sodipodi:nodetypes="ccccc" />
      <path
         sodipodi:nodetypes="ccccccccccccc"
         inkscape:connector-curvature="0"
         id="path899"
         d="M 849.69037,489.76786 H 421.06534 v -190.5 h -95.25 v 190.5 h -428.625 v 95.25 h 428.625 v 190.5 h 95.25 v -190.5 h 428.62503 z"
         style="fill:#e4002b;fill-opacity:1;stroke:none;stroke-width:0.264583;stroke-linecap:butt;stroke-linejoin:miter;stroke-miterlimit:4;stroke-dasharray:none;stroke-opacity:1" />
      <path
         style="fill:#ffffff;fill-opacity:1;fill-rule:evenodd;stroke:none;stroke-width:105.695;stroke-linecap:square;stroke-linejoin:round;stroke-miterlimit:4;stroke-dasharray:none;stroke-dashoffset:0;stroke-opacity:1"
         inkscape:transform-center-x="2.5742918e-05"
         inkscape:transform-center-y="-3.6825149e-05"
         d="m 373.44053,870.7678 27.55161,85.6635 84.15257,-31.8696 -49.79626,74.9511 77.38491,45.9228 -89.64653,7.7989 12.34483,89.1343 -61.99114,-65.2259 -61.99115,65.2259 12.34485,-89.1343 -89.64654,-7.7989 77.38491,-45.9228 -49.79625,-74.9511 84.15256,31.8696 z"
         id="path870"
         inkscape:connector-curvature="0"
         sodipodi:nodetypes="ccccccccccccccc" />
      <circle
         style="fill:#012169;fill-opacity:1;stroke:none;stroke-width:0.330667;stroke-linejoin:bevel;stroke-miterlimit:155;paint-order:markers fill stroke"
         id="circle2"
         cx="-1587.8781"
         cy="-1037.4554"
         r="119.06252"
         transform="scale(-1)" />
      <circle
         style="fill:#ffffff;stroke:none;stroke-width:0.220446;stroke-linejoin:bevel;stroke-miterlimit:155;paint-order:markers fill stroke"
         id="circle3"
         cx="-1587.8781"
         cy="-1037.4554"
         r="79.375008"
         transform="scale(-1)" />
      <path
         style="fill:#e4002b;fill-opacity:1;stroke-width:2.14043;stroke-linecap:round;stroke-linejoin:round;stroke-miterlimit:3.9"
         d="m 1566.1134,1042.1699 c -3.5551,2.4416 -4.3897,7.8713 -4.3897,11.717 0.2892,1.289 2.6679,2.4215 3.3835,3.6609 0,0.6099 -0.322,1.3564 -0.8228,1.6455 -2.8986,-0.7767 -5.8911,-2.7646 -7.24,-5.101 -0.8969,-3.3474 0.9873,-8.9121 0.9873,-11.5872 -4.6477,0 -10.1605,-0.3752 -14.617,-1.5693 -2.3433,-2.3433 -2.699,-4.617 -5.934,-6.6322 -8.248,-2.2099 -20.211,0.3151 -24.5528,-2.1917 -0.3436,-0.595 -0.8843,-1.4393 -0.5527,-2.6769 1.6649,-0.9613 6.5343,-2.2554 6.5343,-2.2554 0.8987,-1.294 2.352,-3.903 4.0586,-4.9612 2.803,-0.7511 6.1927,-1.8018 8.7493,-1.8018 1.8124,-6.7641 9.3281,-11.1069 11.0176,-9.9409 1.6895,1.1659 -2.9781,7.7009 -7.8799,10.531 0,0 8.4845,2.9464 11.3948,3.0183 10.7637,-2.8841 13.6932,-13.7021 26.1715,-19.5043 4.6018,-2.1396 18.8483,-6.34184 30.4729,0.3695 16.3115,9.4175 29.0232,27.6981 46.7683,27.8991 4.97,0.056 9.534,-3.119 13.8219,-5.5946 -1.2466,4.652 -7.4986,11.5216 -13.4928,12.1765 -15.3968,1.6823 -31.5403,-7.4755 -42.7327,-10.4745 -8.4424,4.8743 -6.4889,9.7605 -16.4011,15.4835 -2.5421,7.3628 -0.3291,17.4225 -0.3291,24.8783 -11.6027,6.6987 -27.1837,10.3986 -41.4659,12.5055 -2.926,0.4315 -6.8346,0.5495 -8.8856,0 0.7404,-1.2827 1.807,-3.0924 3.2909,-3.9491 12.0082,-6.9329 28.9598,-5.6124 35.2132,-15.1384 3.6246,-5.5214 3.1665,-11.8501 1.3164,-18.7549 -9.568,1.1041 -10.7479,-1.7517 -13.8844,-1.7517 z"
         id="path7"
         sodipodi:nodetypes="ccccccccccccczccssscscccccsscc" />
      <path
         style="fill:#ffffff;fill-opacity:1;fill-rule:evenodd;stroke:none;stroke-width:105.501;stroke-linecap:square;stroke-linejoin:round;stroke-miterlimit:4;stroke-dasharray:none;stroke-dashoffset:0;stroke-opacity:1"
         inkscape:transform-center-x="2.5046766e-05"
         d="m 1408.1156,400.80072 -13.1199,40.79213 -40.073,-15.17595 23.713,35.69092 -36.8499,21.86801 42.6885,3.71375 -5.8785,42.44494 29.5198,-31.05999 29.5197,31.06 -5.8787,-42.44495 42.6887,-3.71376 -36.8498,-21.868 23.7123,-35.69092 -40.0723,15.17595 z"
         id="path5"
         inkscape:connector-curvature="0"
         inkscape:transform-center-y="-1.6844373"
         sodipodi:nodetypes="ccccccccccccccc" />
      <path
         style="fill:#ffffff;fill-opacity:1;fill-rule:evenodd;stroke:none;stroke-width:105.501;stroke-linecap:square;stroke-linejoin:round;stroke-miterlimit:4;stroke-dasharray:none;stroke-dashoffset:0;stroke-opacity:1"
         inkscape:transform-center-x="-2.4953229e-05"
         d="m 1561.7963,645.07432 13.1199,40.79213 40.073,-15.17595 -23.713,35.69092 36.8499,21.86801 -42.6885,3.71375 5.8785,42.44492 -29.5198,-31.05997 -29.5197,31.05997 5.8787,-42.44492 -42.6887,-3.71376 36.8498,-21.868 -23.7123,-35.69092 40.0723,15.17595 z"
         id="path5-2"
         inkscape:connector-curvature="0"
         inkscape:transform-center-y="-1.6844373"
         sodipodi:nodetypes="ccccccccccccccc" />
      <path
         style="fill:#ffffff;fill-opacity:1;fill-rule:evenodd;stroke:none;stroke-width:105.501;stroke-linecap:square;stroke-linejoin:round;stroke-miterlimit:4;stroke-dasharray:none;stroke-dashoffset:0;stroke-opacity:1"
         inkscape:transform-center-x="-2.4953229e-05"
         d="m 1111.3374,588.34819 13.1199,40.79213 40.073,-15.17595 -23.713,35.69092 36.8499,21.86801 -42.6885,3.71375 5.8785,42.44494 -29.5198,-31.05999 -29.5197,31.06 5.8787,-42.44495 -42.6887,-3.71376 36.8498,-21.868 -23.7123,-35.69092 40.0723,15.17595 z"
         id="path5-4"
         inkscape:connector-curvature="0"
         inkscape:transform-center-y="-1.6844373"
         sodipodi:nodetypes="ccccccccccccccc" />
      <path
         style="fill:#ffffff;fill-opacity:1;fill-rule:evenodd;stroke:none;stroke-width:105.501;stroke-linecap:square;stroke-linejoin:round;stroke-miterlimit:4;stroke-dasharray:none;stroke-dashoffset:0;stroke-opacity:1"
         inkscape:transform-center-x="-2.4953229e-05"
         d="m 1243.7655,1014.1637 13.1199,40.7922 40.073,-15.176 -23.713,35.6909 36.8499,21.868 -42.6885,3.7138 5.8785,42.4449 -29.5198,-31.06 -29.5197,31.06 5.8787,-42.4449 -42.6887,-3.7138 36.8498,-21.868 -23.7123,-35.6909 40.0723,15.176 z"
         id="path5-7"
         inkscape:connector-curvature="0"
         inkscape:transform-center-y="-1.6844373"
         sodipodi:nodetypes="ccccccccccccccc" />
      <path
         style="fill:#ff8080;stroke:#ffffff;stroke-width:0.529167;stroke-linejoin:round;stroke-miterlimit:3.9;stroke-dasharray:none;stroke-opacity:1"
         d="m 1421.3812,827.4051 -13.7079,11.1006"
         id="path8" />
      <path
         style="fill:#ffffff;fill-opacity:1;fill-rule:evenodd;stroke:none;stroke-width:5.91451;stroke-linecap:round;stroke-linejoin:round;stroke-miterlimit:4;stroke-dasharray:none;stroke-dashoffset:0;stroke-opacity:1"
         inkscape:transform-center-x="5.0034459e-05"
         inkscape:transform-center-y="-1.8949398"
         d="m 1407.6733,798.8182 10.3678,25.4173 27.3771,2.0061 -20.9695,17.7148 6.5523,26.6571 -23.3277,-14.4689 -23.3279,14.469 6.5522,-26.6572 -20.9694,-17.7148 27.3771,-2.0061 z"
         id="path9"
         inkscape:connector-curvature="0"
         sodipodi:nodetypes="ccccccccccc" />
    </g>
  </g>
</svg>
