<?xml version="1.0" encoding="UTF-8" standalone="no"?>
<!-- Created with Inkscape (http://www.inkscape.org/) -->

<svg
   width="2804.0815"
   height="1500"
   viewBox="0 0 741.91324 396.87501"
   version="1.1"
   id="svg8"
   inkscape:export-filename="C:\Users\厂永刄先生\Documents\GXI3CW2\,pjóŭ\Australie.png"
   inkscape:export-xdpi="96"
   inkscape:export-ydpi="96"
   inkscape:version="1.3 (0e150ed6c4, 2023-07-21)"
   sodipodi:docname="au_1982_001-000_roundel.svg"
   xmlns:inkscape="http://www.inkscape.org/namespaces/inkscape"
   xmlns:sodipodi="http://sodipodi.sourceforge.net/DTD/sodipodi-0.dtd"
   xmlns="http://www.w3.org/2000/svg"
   xmlns:svg="http://www.w3.org/2000/svg"
   xmlns:rdf="http://www.w3.org/1999/02/22-rdf-syntax-ns#"
   xmlns:cc="http://creativecommons.org/ns#"
   xmlns:dc="http://purl.org/dc/elements/1.1/">
  <defs
     id="defs2" />
  <sodipodi:namedview
     id="base"
     pagecolor="#ffffff"
     bordercolor="#666666"
     borderopacity="1.0"
     inkscape:pageopacity="0.0"
     inkscape:pageshadow="2"
     inkscape:zoom="0.31937654"
     inkscape:cx="1061.443"
     inkscape:cy="267.70908"
     inkscape:document-units="px"
     inkscape:current-layer="g863"
     showgrid="false"
     units="px"
     fit-margin-top="0"
     fit-margin-left="0"
     fit-margin-right="0"
     fit-margin-bottom="0"
     inkscape:showpageshadow="false"
     inkscape:snap-intersection-paths="false"
     inkscape:object-paths="false"
     inkscape:pagecheckerboard="true"
     inkscape:snap-smooth-nodes="true"
     inkscape:window-width="1920"
     inkscape:window-height="1009"
     inkscape:window-x="-8"
     inkscape:window-y="-8"
     inkscape:window-maximized="1"
     inkscape:object-nodes="true"
     inkscape:deskcolor="#505050" />
  <metadata
     id="metadata5">
    <rdf:RDF>
      <cc:Work
         rdf:about="">
        <dc:format>image/svg+xml</dc:format>
        <dc:type
           rdf:resource="http://purl.org/dc/dcmitype/StillImage" />
      </cc:Work>
    </rdf:RDF>
  </metadata>
  <g
     inkscape:label="レイヤー 1"
     inkscape:groupmode="layer"
     id="layer1"
     transform="translate(-769.91502,-774.53287)">
    <g
       id="g863"
       transform="matrix(0.49999994,0,0,0.49999994,-51.404766,149.63395)">
      <path
         style="fill:#000000;fill-opacity:1;stroke-width:21.0036;stroke-linecap:round;stroke-linejoin:round;stroke-miterlimit:3.9"
         d="m 2170.9802,1651.395 c -34.8857,23.9589 -43.0754,77.2398 -43.0754,114.9769 2.8379,12.6487 26.1796,23.7619 33.2016,35.9239 0,5.9848 -3.1596,13.3101 -8.074,16.1469 -28.4434,-7.6216 -57.8082,-27.1284 -71.0448,-50.0552 -8.8012,-32.8475 9.6881,-87.453 9.6881,-113.7033 -45.607,0 -99.7032,-3.6817 -143.4341,-15.3992 -22.9944,-22.9944 -26.4848,-45.3059 -58.2293,-65.0807 -80.9362,-21.6854 -198.3271,3.0921 -240.9324,-21.5068 -3.3717,-5.8386 -8.6776,-14.1236 -5.4237,-26.2679 16.3375,-9.4331 64.12,-22.132 64.12,-22.132 8.8188,-12.6977 23.0798,-38.2993 39.8263,-48.6834 27.5055,-7.3704 60.768,-17.6807 85.8554,-17.6807 17.7849,-66.375 91.5352,-108.9902 108.1139,-97.5484 16.5788,11.4408 -29.2235,75.5677 -77.3241,103.339 0,0 83.257,28.9125 111.8153,29.6181 105.6224,-28.3013 134.369,-134.4564 256.8166,-191.3925 45.1566,-20.9955 184.9551,-62.2316 299.0254,3.6259 160.062,92.4123 284.7998,271.7967 458.9294,273.7692 48.7697,0.5494 93.5556,-30.6064 135.632,-54.8989 -12.2327,45.6493 -73.5825,113.0595 -132.4025,119.486 -151.0863,16.508 -309.4997,-73.3558 -419.3289,-102.7846 -82.8438,47.8307 -63.6745,95.7782 -160.9412,151.937 -24.9451,72.2499 -3.2294,170.964 -3.2294,244.1266 -113.8554,65.7331 -266.7491,102.0397 -406.8979,122.7143 -28.7124,4.2343 -67.0668,5.3922 -87.1929,0 7.2653,-12.5868 17.7318,-30.3451 32.293,-38.7518 117.8344,-68.0314 284.1777,-55.0736 345.5413,-148.5506 35.5675,-54.1805 31.0723,-116.283 12.9176,-184.0386 -93.8892,10.8343 -105.4674,-17.1892 -136.2453,-17.1892 z"
         id="path7"
         sodipodi:nodetypes="ccccccccccccczccssscscccccsscc" />
    </g>
  </g>
</svg>
