<?xml version="1.0" encoding="UTF-8" standalone="no"?>
<!-- Created with Inkscape (http://www.inkscape.org/) -->

<svg
   xmlns:dc="http://purl.org/dc/elements/1.1/"
   xmlns:cc="http://creativecommons.org/ns#"
   xmlns:rdf="http://www.w3.org/1999/02/22-rdf-syntax-ns#"
   xmlns:svg="http://www.w3.org/2000/svg"
   xmlns="http://www.w3.org/2000/svg"
   xmlns:sodipodi="http://sodipodi.sourceforge.net/DTD/sodipodi-0.dtd"
   xmlns:inkscape="http://www.inkscape.org/namespaces/inkscape"
   width="476.25mm"
   height="476.25006mm"
   viewBox="0 0 476.25 476.25006"
   version="1.1"
   id="svg8"
   inkscape:version="0.92.4 (5da689c313, 2019-01-14)"
   sodipodi:docname="描画.svg"
   inkscape:export-filename="C:\Users\drk22\Documents\GXI3CW2\dujaqcèŭ\Oŭdālījá\AU.png"
   inkscape:export-xdpi="96"
   inkscape:export-ydpi="96">
  <defs
     id="defs2" />
  <sodipodi:namedview
     id="base"
     pagecolor="#ffffff"
     bordercolor="#666666"
     borderopacity="1.0"
     inkscape:pageopacity="0.0"
     inkscape:pageshadow="2"
     inkscape:zoom="0.24748737"
     inkscape:cx="945.81023"
     inkscape:cy="426.83152"
     inkscape:document-units="mm"
     inkscape:current-layer="layer1"
     showgrid="false"
     inkscape:snap-smooth-nodes="true"
     inkscape:pagecheckerboard="true"
     inkscape:window-width="1920"
     inkscape:window-height="1051"
     inkscape:window-x="-9"
     inkscape:window-y="-9"
     inkscape:window-maximized="1"
     fit-margin-top="0"
     fit-margin-left="0"
     fit-margin-right="0"
     fit-margin-bottom="0" />
  <metadata
     id="metadata5">
    <rdf:RDF>
      <cc:Work
         rdf:about="">
        <dc:format>image/svg+xml</dc:format>
        <dc:type
           rdf:resource="http://purl.org/dc/dcmitype/StillImage" />
        <dc:title></dc:title>
      </cc:Work>
    </rdf:RDF>
  </metadata>
  <g
     inkscape:label="レイヤー 1"
     inkscape:groupmode="layer"
     id="layer1"
     transform="translate(277.31342,-156.77079)">
    <path
       style="fill:#ffffff;fill-opacity:1;stroke:none;stroke-width:0.49999991;stroke-linecap:butt;stroke-linejoin:miter;stroke-miterlimit:4;stroke-dasharray:none;stroke-opacity:1"
       d="m -688.11328,773.61719 a 900,900 0 0 0 -60,49.53125 v 69.37109 h -69.53711 a 900,900 0 0 0 -49.07422,60 h 178.61133 z"
       transform="scale(0.26458333)"
       id="path922"
       inkscape:connector-curvature="0" />
    <path
       style="fill:#ffffff;fill-opacity:1;stroke:none;stroke-width:0.49999991px;stroke-linecap:butt;stroke-linejoin:miter;stroke-opacity:1"
       d="m -748.11328,821.70703 c -12.44574,11.13955 -24.58913,22.60866 -36.39649,34.41602 l 36.39649,36.39648 z"
       transform="scale(0.26458333)"
       id="path926"
       inkscape:connector-curvature="0" />
    <path
       style="fill:#e4002b;fill-opacity:1;stroke:none;stroke-width:0.49999991px;stroke-linecap:butt;stroke-linejoin:miter;stroke-opacity:1"
       d="m -784.11328,856.51953 a 900,900 0 0 0 -33.53711,36 h 69.53711 z"
       transform="scale(0.26458333)"
       id="path932"
       inkscape:connector-curvature="0" />
    <path
       style="fill:#ffffff;fill-opacity:1;stroke:none;stroke-width:0.49999991;stroke-linecap:butt;stroke-linejoin:miter;stroke-miterlimit:4;stroke-dasharray:none;stroke-opacity:1"
       d="m -972.46875,1132.5195 a 900,900 0 0 0 -23.02539,60 h 247.38086 v 300 h 60 v -360 z"
       transform="scale(0.26458333)"
       id="path934"
       inkscape:connector-curvature="0" />
    <path
       inkscape:connector-curvature="0"
       id="path936"
       d="m -197.93839,348.79985 v -11.09298 l -57.18899,57.18899 h 11.09299 z"
       style="fill:#ffffff;fill-opacity:1;stroke:none;stroke-width:0.13229164px;stroke-linecap:butt;stroke-linejoin:miter;stroke-opacity:1" />
    <path
       style="fill:#ffffff;fill-opacity:1;stroke:none;stroke-width:0.49999991px;stroke-linecap:butt;stroke-linejoin:miter;stroke-opacity:1"
       d="m -873.89258,1192.5195 -162.52732,162.5274 a 900,900 0 0 0 -11.6934,137.4726 l 300.00002,-300 z"
       transform="scale(0.26458333)"
       id="path938"
       inkscape:connector-curvature="0" />
    <path
       style="fill:#012169;fill-opacity:1;stroke:none;stroke-width:0.49999991px;stroke-linecap:butt;stroke-linejoin:miter;stroke-opacity:1"
       d="m -995.49414,1192.5195 a 900,900 0 0 0 -40.92576,162.5274 l 162.52732,-162.5274 z"
       transform="scale(0.26458333)"
       id="path940"
       inkscape:connector-curvature="0" />
    <path
       sodipodi:nodetypes="cccc"
       inkscape:connector-curvature="0"
       id="path942"
       d="m -197.9384,394.89585 -46.09599,1e-5 46.096,-46.09601 z"
       style="fill:#012169;fill-opacity:1;stroke:none;stroke-width:0.13229164px;stroke-linecap:butt;stroke-linejoin:miter;stroke-opacity:1" />
    <path
       sodipodi:nodetypes="ccccc"
       style="fill:#e4002b;fill-opacity:1;stroke:none;stroke-width:0.13229164px;stroke-linecap:butt;stroke-linejoin:miter;stroke-opacity:1"
       d="m -197.9384,315.52086 1e-5,22.18601 -57.18899,57.18899 h -22.18599 z"
       id="path944"
       inkscape:connector-curvature="0" />
    <path
       style="fill:#ffffff;fill-opacity:1;stroke:none;stroke-width:0.13229164;stroke-linecap:butt;stroke-linejoin:miter;stroke-miterlimit:4;stroke-dasharray:none;stroke-opacity:1"
       d="m -134.43839,394.89584 h 15.875 l -2e-5,-79.37498 h 79.374995 v -15.875 H -134.4384 Z"
       id="path946"
       inkscape:connector-curvature="0"
       sodipodi:nodetypes="ccccccc" />
    <path
       style="fill:#ffffff;fill-opacity:1;stroke:none;stroke-width:0.13229164px;stroke-linecap:butt;stroke-linejoin:miter;stroke-opacity:1"
       d="M -85.284409,315.52086 H -96.377395 L -39.1884,372.70983 V 361.61685 Z"
       id="path948"
       inkscape:connector-curvature="0" />
    <path
       style="fill:#ffffff;fill-opacity:1;stroke:none;stroke-width:0.13229164px;stroke-linecap:butt;stroke-linejoin:miter;stroke-opacity:1"
       d="m -39.1884,394.89582 h -33.278986 l -46.096004,-46.09599 -2e-5,-33.27897 z"
       id="path950"
       inkscape:connector-curvature="0"
       sodipodi:nodetypes="ccccc" />
    <path
       sodipodi:nodetypes="cccc"
       inkscape:connector-curvature="0"
       id="path952"
       d="m -118.56339,394.89584 46.096004,-2e-5 -46.096004,-46.09599 z"
       style="fill:#012169;fill-opacity:1;stroke:none;stroke-width:0.13229164px;stroke-linecap:butt;stroke-linejoin:miter;stroke-opacity:1" />
    <path
       style="fill:#012169;fill-opacity:1;stroke:none;stroke-width:0.13229164px;stroke-linecap:butt;stroke-linejoin:miter;stroke-opacity:1"
       d="m -39.188415,315.52086 1.5e-5,46.09599 -46.096009,-46.09599 z"
       id="path954"
       inkscape:connector-curvature="0"
       sodipodi:nodetypes="cccc" />
    <path
       inkscape:connector-curvature="0"
       id="path956"
       d="m -118.56341,315.52086 h 22.186015 l 57.188995,57.18897 v 22.18599 z"
       style="fill:#e4002b;fill-opacity:1;stroke:none;stroke-width:0.13229164px;stroke-linecap:butt;stroke-linejoin:miter;stroke-opacity:1"
       sodipodi:nodetypes="ccccc" />
    <path
       style="fill:#ffffff;fill-opacity:1;stroke:none;stroke-width:0.49999991;stroke-linecap:butt;stroke-linejoin:miter;stroke-miterlimit:4;stroke-dasharray:none;stroke-opacity:1"
       d="m -448.11328,645.00391 a 900,900 0 0 0 -60,23.84179 v 283.67383 h 360 v -60 h -300 z"
       transform="scale(0.26458333)"
       id="path922-6"
       inkscape:connector-curvature="0" />
    <path
       style="fill:#ffffff;fill-opacity:1;stroke:none;stroke-width:0.49999991px;stroke-linecap:butt;stroke-linejoin:miter;stroke-opacity:1"
       d="m -237.32227,597.875 a 900,900 0 0 0 -47.71875,5.79297 l -163.07226,163.07226 v 41.92774 z"
       transform="scale(0.26458333)"
       id="path924-9"
       inkscape:connector-curvature="0" />
    <path
       sodipodi:nodetypes="ccccc"
       inkscape:connector-curvature="0"
       id="path926-0"
       d="m -39.188425,156.77085 v 33.27897 l -46.096009,46.09602 -33.278956,1e-5 z"
       style="fill:#ffffff;fill-opacity:1;stroke:none;stroke-width:0.13229164px;stroke-linecap:butt;stroke-linejoin:miter;stroke-opacity:1" />
    <path
       style="fill:#012169;fill-opacity:1;stroke:none;stroke-width:0.13229164px;stroke-linecap:butt;stroke-linejoin:miter;stroke-opacity:1"
       d="m -39.188425,236.14584 v -46.09602 l -46.096009,46.09602 z"
       id="path928-3"
       inkscape:connector-curvature="0"
       sodipodi:nodetypes="cccc" />
    <path
       style="fill:#012169;fill-opacity:1;stroke:none;stroke-width:0.49999991px;stroke-linecap:butt;stroke-linejoin:miter;stroke-opacity:1"
       d="m -285.04102,603.66797 a 900,900 0 0 0 -163.07226,41.33594 v 121.73632 z"
       transform="scale(0.26458333)"
       id="path930-5"
       inkscape:connector-curvature="0" />
    <path
       style="fill:#e4002b;fill-opacity:1;stroke:none;stroke-width:0.49999991px;stroke-linecap:butt;stroke-linejoin:miter;stroke-opacity:1"
       d="m -148.11328,592.51953 a 900,900 0 0 0 -89.20899,5.35547 l -210.79101,210.79297 v 83.85156 z"
       transform="scale(0.26458333)"
       id="path932-8"
       inkscape:connector-curvature="0" />
    <path
       style="fill:#e4002b;fill-opacity:1;stroke:none;stroke-width:0.49999991px;stroke-linecap:butt;stroke-linejoin:miter;stroke-opacity:1"
       d="m -508.11328,668.8457 a 900,900 0 0 0 -180,104.77149 v 178.90234 h -178.61133 a 900,900 0 0 0 -105.74414,179.99997 h 284.35547 v 360 h 180 v -360 h 360 V 952.51953 h -360 z"
       transform="scale(0.26458333)"
       id="path941"
       inkscape:connector-curvature="0" />
    <path
       style="opacity:1;fill:#012169;fill-opacity:1;stroke:none;stroke-width:1.15434551;stroke-linecap:round;stroke-linejoin:round;stroke-miterlimit:4;stroke-dasharray:none;stroke-opacity:1"
       d="m -39.188423,156.77084 c 131.512807,0 238.125003,106.61219 238.125003,238.125 0,131.51281 -106.612196,238.125 -238.125003,238.125 -131.512807,0 -238.124997,-106.6122 -238.124997,-238.125 l 238.12502,-2e-5 z"
       id="path937"
       inkscape:connector-curvature="0"
       sodipodi:nodetypes="cssccc" />
    <g
       transform="matrix(0.49999993,0,0,0.49999993,-576.48147,7.1368833)"
       id="g853">
      <path
         sodipodi:nodetypes="ccccccccccccccc"
         inkscape:transform-center-y="-8.0751382e-06"
         inkscape:connector-curvature="0"
         id="path876"
         d="m 1321.0379,389.98216 13.1198,40.79214 40.073,-15.17595 -23.713,35.69092 36.8499,21.868 -42.6885,3.71375 5.8785,42.44494 -29.5198,-31.05998 -29.5196,31.05998 5.8786,-42.44494 -42.6887,-3.71375 36.8498,-21.868 -23.7123,-35.69092 40.0723,15.17595 z"
         inkscape:transform-center-x="7.0473442e-05"
         style="opacity:1;fill:#ffffff;fill-opacity:1;fill-rule:evenodd;stroke:none;stroke-width:105.50149536;stroke-linecap:square;stroke-linejoin:round;stroke-miterlimit:4;stroke-dasharray:none;stroke-dashoffset:0;stroke-opacity:1" />
      <path
         style="opacity:1;fill:#ffffff;fill-opacity:1;fill-rule:evenodd;stroke:none;stroke-width:105.50149536;stroke-linecap:square;stroke-linejoin:round;stroke-miterlimit:4;stroke-dasharray:none;stroke-dashoffset:0;stroke-opacity:1"
         inkscape:transform-center-x="7.0473442e-05"
         d="m 1171.1614,647.95096 13.1198,40.79214 40.073,-15.17595 -23.713,35.69092 36.8499,21.86801 -42.6885,3.7137 5.8785,42.445 -29.5198,-31.06 -29.5196,31.06 5.8786,-42.445 -42.6887,-3.7137 36.8498,-21.86801 -23.7123,-35.69092 40.0723,15.17595 z"
         id="path848"
         inkscape:connector-curvature="0"
         inkscape:transform-center-y="-8.0751382e-06"
         sodipodi:nodetypes="ccccccccccccccc" />
      <path
         style="opacity:1;fill:#ffffff;fill-opacity:1;fill-rule:evenodd;stroke:none;stroke-width:105.50149536;stroke-linecap:square;stroke-linejoin:round;stroke-miterlimit:4;stroke-dasharray:none;stroke-dashoffset:0;stroke-opacity:1"
         inkscape:transform-center-x="7.0473442e-05"
         d="m 1454.2617,586.15685 13.1198,40.79214 40.073,-15.17595 -23.713,35.69092 36.8499,21.868 -42.6885,3.71375 5.8785,42.44494 -29.5198,-31.05998 -29.5196,31.05998 5.8786,-42.44494 -42.6887,-3.71375 36.8498,-21.868 -23.7123,-35.69092 40.0723,15.17595 z"
         id="path852"
         inkscape:connector-curvature="0"
         inkscape:transform-center-y="-8.0751382e-06"
         sodipodi:nodetypes="ccccccccccccccc" />
      <path
         style="opacity:1;fill:#ffffff;fill-opacity:1;fill-rule:evenodd;stroke:none;stroke-width:105.50149536;stroke-linecap:square;stroke-linejoin:round;stroke-miterlimit:4;stroke-dasharray:none;stroke-dashoffset:0;stroke-opacity:1"
         inkscape:transform-center-x="7.0473442e-05"
         d="m 1321.0379,1024.9823 13.1198,40.7921 40.073,-15.1759 -23.713,35.6909 36.8499,21.868 -42.6885,3.7138 5.8785,42.4449 -29.5198,-31.06 -29.5196,31.06 5.8786,-42.4449 -42.6887,-3.7138 36.8498,-21.868 -23.7123,-35.6909 40.0723,15.1759 z"
         id="path854"
         inkscape:connector-curvature="0"
         inkscape:transform-center-y="-8.0751382e-06"
         sodipodi:nodetypes="ccccccccccccccc" />
      <path
         sodipodi:nodetypes="ccccccccccc"
         inkscape:connector-curvature="0"
         id="path856"
         d="m 1380.9887,775.51792 10.3678,25.41734 27.3772,2.00605 -20.9695,17.71483 6.5522,26.65715 -23.3277,-14.46897 -23.3278,14.46897 6.5522,-26.65715 -20.9695,-17.71483 27.3772,-2.00605 z"
         inkscape:transform-center-y="-1.2096203e-05"
         inkscape:transform-center-x="-2.3866175e-05"
         style="opacity:1;fill:#ffffff;fill-opacity:1;fill-rule:evenodd;stroke:none;stroke-width:5.91451454;stroke-linecap:round;stroke-linejoin:round;stroke-miterlimit:4;stroke-dasharray:none;stroke-dashoffset:0;stroke-opacity:1" />
    </g>
    <path
       style="opacity:1;fill:#ffffff;fill-opacity:1;fill-rule:evenodd;stroke:none;stroke-width:52.84763718;stroke-linecap:square;stroke-linejoin:round;stroke-miterlimit:4;stroke-dasharray:none;stroke-dashoffset:0;stroke-opacity:1"
       inkscape:transform-center-x="2.5742918e-05"
       inkscape:transform-center-y="-3.6825149e-05"
       d="m -158.25088,442.52082 13.7758,42.83174 42.07627,-15.93479 -24.89811,37.4755 38.692446,22.9614 -44.823256,3.89945 6.1724,44.56714 -30.99556,-32.61294 -30.99557,32.61294 6.17243,-44.56714 -44.82326,-3.89945 38.69245,-22.9614 -24.89813,-37.4755 42.07628,15.93479 z"
       id="path870"
       inkscape:connector-curvature="0"
       sodipodi:nodetypes="ccccccccccccccc" />
  </g>
</svg>
