<?xml version="1.0" encoding="UTF-8" standalone="no"?>
<!-- Created with Inkscape (http://www.inkscape.org/) -->

<svg
   xmlns:dc="http://purl.org/dc/elements/1.1/"
   xmlns:cc="http://creativecommons.org/ns#"
   xmlns:rdf="http://www.w3.org/1999/02/22-rdf-syntax-ns#"
   xmlns:svg="http://www.w3.org/2000/svg"
   xmlns="http://www.w3.org/2000/svg"
   xmlns:sodipodi="http://sodipodi.sourceforge.net/DTD/sodipodi-0.dtd"
   xmlns:inkscape="http://www.inkscape.org/namespaces/inkscape"
   width="2736"
   height="1800"
   viewBox="0 0 723.9 476.25001"
   version="1.1"
   id="svg8"
   inkscape:export-filename="C:\Users\厂永刄先生\Documents\GXI3CW2\JáÈŭcèŭ\N̂i\北海道\描き方.png"
   inkscape:export-xdpi="96"
   inkscape:export-ydpi="96"
   inkscape:version="0.92.4 (5da689c313, 2019-01-14)"
   sodipodi:docname="北海 作法.svg">
  <defs
     id="defs2" />
  <sodipodi:namedview
     id="base"
     pagecolor="#ffffff"
     bordercolor="#666666"
     borderopacity="1.0"
     inkscape:pageopacity="0.0"
     inkscape:pageshadow="2"
     inkscape:zoom="0.18133333"
     inkscape:cx="485.99992"
     inkscape:cy="275.99994"
     inkscape:document-units="px"
     inkscape:current-layer="layer1"
     showgrid="false"
     units="px"
     fit-margin-top="0"
     fit-margin-left="0"
     fit-margin-right="0"
     fit-margin-bottom="0"
     inkscape:showpageshadow="false"
     inkscape:snap-intersection-paths="false"
     inkscape:object-paths="false"
     inkscape:pagecheckerboard="true"
     inkscape:snap-smooth-nodes="false"
     inkscape:window-width="1366"
     inkscape:window-height="745"
     inkscape:window-x="-8"
     inkscape:window-y="-8"
     inkscape:window-maximized="1"
     inkscape:object-nodes="true"
     inkscape:snap-nodes="true" />
  <metadata
     id="metadata5">
    <rdf:RDF>
      <cc:Work
         rdf:about="">
        <dc:format>image/svg+xml</dc:format>
        <dc:type
           rdf:resource="http://purl.org/dc/dcmitype/StillImage" />
        <dc:title />
      </cc:Work>
    </rdf:RDF>
  </metadata>
  <g
     inkscape:label="レイヤー 1"
     inkscape:groupmode="layer"
     id="layer1"
     transform="translate(112.33452,-299.26786)">
    <path
       style="opacity:1;fill:#5fd38d;fill-opacity:1;fill-rule:evenodd;stroke:none;stroke-width:0.22373059;stroke-linecap:round;stroke-linejoin:round;stroke-miterlimit:4;stroke-dasharray:none;stroke-dashoffset:0;stroke-opacity:0.50196078"
       d="m -102.80952,299.26786 v 476.25 h 714.375 v -476.25 z"
       id="path814"
       inkscape:connector-curvature="0"
       sodipodi:nodetypes="ccccc" />
    <path
       style="opacity:1;fill:#87deaa;fill-opacity:1;fill-rule:evenodd;stroke:none;stroke-width:0.13615812;stroke-linecap:round;stroke-linejoin:round;stroke-miterlimit:4;stroke-dasharray:none;stroke-dashoffset:0;stroke-opacity:0.50196078"
       d="m 413.12796,384.99286 v 317.5 H 16.252958 v -317.5 z"
       id="path841"
       inkscape:connector-curvature="0"
       sodipodi:nodetypes="ccccc" />
    <path
       sodipodi:nodetypes="ccccc"
       inkscape:connector-curvature="0"
       id="path837"
       d="m 413.12796,384.99286 v 317.5 H 95.627978 v -317.5 z"
       style="opacity:1;fill:#6f916f;fill-opacity:1;fill-rule:evenodd;stroke:none;stroke-width:0.12178352;stroke-linecap:round;stroke-linejoin:round;stroke-miterlimit:4;stroke-dasharray:none;stroke-dashoffset:0;stroke-opacity:0.50196078" />
    <path
       style="opacity:1;fill:#55ff99;fill-opacity:1;fill-rule:evenodd;stroke:none;stroke-width:0.11553399;stroke-linecap:round;stroke-linejoin:round;stroke-miterlimit:4;stroke-dasharray:none;stroke-dashoffset:0;stroke-opacity:0.50196078"
       d="m 413.12798,384.99286 v 285.75 H 95.627978 v -285.75 z"
       id="path839"
       inkscape:connector-curvature="0"
       sodipodi:nodetypes="ccccc" />
    <path
       style="opacity:1;fill:#6f916f;fill-opacity:1;fill-rule:evenodd;stroke:none;stroke-width:0.12178352;stroke-linecap:round;stroke-linejoin:round;stroke-miterlimit:4;stroke-dasharray:none;stroke-dashoffset:0;stroke-opacity:0.50196078"
       d="m 413.12796,384.99286 v 317.5 H 95.627978 v -317.5 z"
       id="path863"
       inkscape:connector-curvature="0"
       sodipodi:nodetypes="ccccc" />
    <path
       style="opacity:1;fill:#16502d;fill-opacity:0.55909089;fill-rule:evenodd;stroke:none;stroke-width:0.35827145;stroke-linecap:butt;stroke-linejoin:bevel;stroke-miterlimit:4;stroke-dasharray:none;stroke-dashoffset:0;stroke-opacity:1"
       d="m 16.252959,305.61786 c 219.188011,0 396.875001,177.68699 396.875001,396.875 0,219.18801 -177.68699,396.87504 -396.875001,396.87504 -219.188009,0 -396.874999,-177.68703 -396.874999,-396.87504 0,-219.18801 177.68699,-396.875 396.874999,-396.875 l -1e-6,63.5 c 184.117932,0 333.375002,149.25707 333.375002,333.375 2e-5,184.11794 -149.25706,333.37504 -333.375002,333.37504 -184.117948,0 -333.375018,-149.2571 -333.374998,-333.37504 0,-184.11793 149.25707,-333.375 333.374998,-333.375"
       id="path843"
       inkscape:connector-curvature="0"
       sodipodi:nodetypes="czzzccsssc" />
    <path
       style="fill:#ffffff;fill-opacity:1;stroke:none;stroke-width:0.51166773px;stroke-linecap:butt;stroke-linejoin:miter;stroke-opacity:1"
       d="m -102.80952,299.26786 h -9.525 v 476.25 h 9.525 z"
       id="path1079"
       inkscape:connector-curvature="0"
       sodipodi:nodetypes="ccccc" />
    <path
       style="fill:none;stroke:#000000;stroke-width:0.26458335px;stroke-linecap:butt;stroke-linejoin:miter;stroke-opacity:1"
       d="m 16.252959,731.59897 v -58.2122"
       id="path847"
       inkscape:connector-curvature="0" />
    <path
       style="opacity:1;fill:#16502d;fill-opacity:0.55909089;fill-rule:evenodd;stroke:none;stroke-width:0.2722863;stroke-linecap:butt;stroke-linejoin:bevel;stroke-miterlimit:4;stroke-dasharray:none;stroke-dashoffset:0;stroke-opacity:1"
       d="m 16.252958,400.86786 c -166.582888,0 -301.624998,135.04211 -301.624998,301.625 -2e-5,166.5829 135.0421,301.62504 301.624998,301.62504 166.582902,0 301.625022,-135.04214 301.625002,-301.62504 0,-166.58289 -135.04211,-301.625 -301.625002,-301.625 l 0,63.5 c 131.512802,0 238.125002,106.61219 238.125002,238.125 0,131.51281 -106.6122,238.125 -238.125002,238.125 -131.512808,0 -238.124998,-106.61219 -238.124998,-238.125 0,-131.51281 106.61219,-238.125 238.124998,-238.125"
       id="circle851"
       inkscape:connector-curvature="0"
       sodipodi:nodetypes="csssccsssc" />
    <path
       sodipodi:nodetypes="czzzccsssc"
       inkscape:connector-curvature="0"
       id="path867"
       d="m 492.503,305.61786 c -219.18801,0 -396.875,177.68699 -396.875,396.875 0,219.18801 177.68699,396.87504 396.875,396.87504 219.18801,0 396.875,-177.68703 396.875,-396.87504 0,-219.18801 -177.68699,-396.875 -396.875,-396.875 v 63.5 c -184.11793,0 -333.375,149.25707 -333.375,333.375 -2e-5,184.11794 149.25706,333.37504 333.375,333.37504 184.11795,0 333.37502,-149.2571 333.375,-333.37504 0,-184.11793 -149.25707,-333.375 -333.375,-333.375"
       style="opacity:1;fill:#16502d;fill-opacity:0.55909089;fill-rule:evenodd;stroke:none;stroke-width:0.35827145;stroke-linecap:butt;stroke-linejoin:bevel;stroke-miterlimit:4;stroke-dasharray:none;stroke-dashoffset:0;stroke-opacity:1" />
  </g>
</svg>
