<?xml version="1.0" encoding="UTF-8" standalone="no"?>
<!-- Created with Inkscape (http://www.inkscape.org/) -->

<svg
   xmlns:dc="http://purl.org/dc/elements/1.1/"
   xmlns:cc="http://creativecommons.org/ns#"
   xmlns:rdf="http://www.w3.org/1999/02/22-rdf-syntax-ns#"
   xmlns:svg="http://www.w3.org/2000/svg"
   xmlns="http://www.w3.org/2000/svg"
   xmlns:sodipodi="http://sodipodi.sourceforge.net/DTD/sodipodi-0.dtd"
   xmlns:inkscape="http://www.inkscape.org/namespaces/inkscape"
   width="2736"
   height="1800"
   viewBox="0 0 723.9 476.25001"
   version="1.1"
   id="svg8"
   inkscape:export-filename="C:\Users\厂永刄先生\Documents\GXI3CW2\JáÈŭcèŭ\Èŭmen\Í\意軍.png"
   inkscape:export-xdpi="96"
   inkscape:export-ydpi="96"
   inkscape:version="0.92.4 (5da689c313, 2019-01-14)"
   sodipodi:docname="ZXO3TE.svg">
  <defs
     id="defs2" />
  <sodipodi:namedview
     id="base"
     pagecolor="#ffffff"
     bordercolor="#666666"
     borderopacity="1.0"
     inkscape:pageopacity="0.0"
     inkscape:pageshadow="2"
     inkscape:zoom="0.30222223"
     inkscape:cx="1368"
     inkscape:cy="900.00001"
     inkscape:document-units="px"
     inkscape:current-layer="layer1"
     showgrid="false"
     units="px"
     fit-margin-top="0"
     fit-margin-left="0"
     fit-margin-right="0"
     fit-margin-bottom="0"
     inkscape:showpageshadow="false"
     inkscape:snap-intersection-paths="true"
     inkscape:object-paths="false"
     inkscape:pagecheckerboard="true"
     inkscape:snap-smooth-nodes="false"
     inkscape:window-width="1366"
     inkscape:window-height="745"
     inkscape:window-x="-8"
     inkscape:window-y="-8"
     inkscape:window-maximized="1"
     inkscape:object-nodes="true"
     inkscape:snap-nodes="true" />
  <metadata
     id="metadata5">
    <rdf:RDF>
      <cc:Work
         rdf:about="">
        <dc:format>image/svg+xml</dc:format>
        <dc:type
           rdf:resource="http://purl.org/dc/dcmitype/StillImage" />
        <dc:title />
      </cc:Work>
    </rdf:RDF>
  </metadata>
  <g
     inkscape:label="レイヤー 1"
     inkscape:groupmode="layer"
     id="layer1"
     transform="translate(-6.7279798,-418.33036)">
    <path
       style="fill:#ffffff;fill-opacity:1;stroke:none;stroke-width:0.51166773px;stroke-linecap:butt;stroke-linejoin:miter;stroke-opacity:1"
       d="M 16.25298,418.33036 H 6.7279798 v 476.25 H 16.25298 Z"
       id="path1079"
       inkscape:connector-curvature="0"
       sodipodi:nodetypes="ccccc" />
    <path
       sodipodi:nodetypes="ccccc"
       inkscape:connector-curvature="0"
       id="path884"
       d="m 254.37798,894.58036 v -476.25 h -238.125 v 476.25 z"
       style="fill:#001e80;fill-opacity:1;stroke:none;stroke-width:1.27916932px;stroke-linecap:butt;stroke-linejoin:miter;stroke-opacity:1" />
    <path
       style="fill:#ffc000;fill-opacity:1;stroke:none;stroke-width:1.27916932px;stroke-linecap:butt;stroke-linejoin:miter;stroke-opacity:1"
       d="m 492.50298,894.58036 v -476.25 h -238.125 v 476.25 z"
       id="path829"
       inkscape:connector-curvature="0"
       sodipodi:nodetypes="ccccc" />
    <path
       sodipodi:nodetypes="ccccc"
       inkscape:connector-curvature="0"
       id="path831"
       d="m 730.62798,894.58036 v -476.25 h -238.125 v 476.25 z"
       style="fill:#e00000;fill-opacity:1;stroke:none;stroke-width:1.27916932px;stroke-linecap:butt;stroke-linejoin:miter;stroke-opacity:1" />
    <g
       id="g863"
       transform="translate(0,52.838401)">
      <path
         sodipodi:nodetypes="ccccccccccccccccccccccccccccccccccccccccccccccccc"
         inkscape:connector-curvature="0"
         id="path840"
         d="m 324.55178,557.64308 -53.3385,7.14142 49.76322,-20.4846 -53.36936,-6.90704 53.36934,-6.90695 -49.76315,-20.48472 53.3385,7.14138 -42.76569,-32.66642 49.67273,20.70306 -32.85384,-42.62187 42.62189,32.85385 -20.70311,-49.67281 32.66632,42.76581 -7.14129,-53.3386 20.48462,49.76329 6.90701,-53.36943 6.90697,53.36941 20.48465,-49.76322 -7.14135,53.33858 32.66639,-42.76573 -20.70299,49.67278 42.62179,-32.85391 -32.85379,42.62193 49.6727,-20.70311 -42.76576,32.66634 53.33858,-7.14132 -49.76324,20.48464 53.3694,6.90702 -53.36942,6.90694 49.7632,20.48469 -53.33852,-7.14133 42.76574,32.66629 -49.67271,-20.70301 32.85385,42.62182 -42.62188,-32.85383 20.7031,49.67274 -32.66632,-42.76573 7.14139,53.33852 -20.48459,-49.76324 -6.90703,53.3694 -6.90694,-53.3694 -20.48466,49.76321 7.14136,-53.33854 -32.66639,42.76572 20.70303,-49.67279 -42.62185,32.8539 32.85391,-42.62183 -49.67269,20.70309 z"
         inkscape:transform-center-y="1.4774205e-05"
         inkscape:transform-center-x="-9.6749263e-05"
         style="opacity:1;fill:#e00000;fill-opacity:1;fill-rule:evenodd;stroke:none;stroke-width:73.26907349;stroke-linecap:square;stroke-linejoin:round;stroke-miterlimit:4;stroke-dasharray:none;stroke-dashoffset:0;stroke-opacity:1" />
      <g
         style="stroke-width:0.26458335;stroke-miterlimit:4;stroke-dasharray:none"
         id="g851">
        <path
           style="fill:#ffc000;fill-opacity:1;stroke:#806000;stroke-width:0.26458335;stroke-linecap:butt;stroke-linejoin:miter;stroke-miterlimit:4;stroke-dasharray:none;stroke-opacity:1"
           d="m 267.60753,537.39286 c 0,110.36971 -1.0459,170.42278 105.83295,238.125 106.87885,-67.70222 105.83295,-127.75529 105.83295,-238.125 z"
           id="path819"
           inkscape:connector-curvature="0"
           sodipodi:nodetypes="cccc" />
        <path
           style="fill:#0026a0;fill-opacity:1;stroke:#806000;stroke-width:1;stroke-linecap:butt;stroke-linejoin:miter;stroke-miterlimit:4;stroke-dasharray:none;stroke-opacity:1"
           d="m 1086,522.5 -74.998,80 -24.64067,-26.2832 c 0.40154,40.39398 1.26176,78.88997 3.05859,115.76172 L 1011.002,715 1086,635 l 75,80 75,-80 75,80 75,-80 75,80 75,-80 75,80 75,-80 74.998,80 21.5801,-23.01953 c 1.7969,-36.87235 2.659,-75.36896 3.0606,-115.76367 L 1760.998,602.5 1686,522.5 l -75,80 -75,-80 -75,80 -75,-80 -75,80 -75,-80 -75,80 z m 0,225 -74.998,80 -10.4317,-11.12695 c 5.4255,38.30892 12.8692,74.88771 23.084,110.13086 L 1086,860 l 75,80 75,-80 75,80 75,-80 75,80 75,-80 75,80 75,-80 62.3457,66.50391 c 10.2148,-35.24315 17.6585,-71.82194 23.084,-110.13086 L 1760.998,827.5 1686,747.5 l -75,80 -75,-80 -75,80 -75,-80 -75,80 -75,-80 -75,80 z m 0,225 -32.7227,34.9062 c 18.7862,41.7146 42.8193,81.8394 73.5586,121.1524 L 1161,1165 l 75,-80 75,80 75,-80 75,80 75,-80 75,80 34.1641,-36.4414 c 30.7393,-39.313 54.7724,-79.4378 73.5586,-121.1524 L 1686,972.5 l -75,80 -75,-80 -75,80 -75,-80 -75,80 -75,-80 -75,80 z m 150,225 -22.2852,23.7715 c 47.045,42.7902 103.7957,85.3439 172.2852,128.7285 68.4895,-43.3846 125.2402,-85.9383 172.2852,-128.7285 L 1536,1197.5 l -75,80 -75,-80 -75,80 z"
           transform="matrix(0.26458334,0,0,0.26458334,6.7279798,418.33036)"
           id="path832"
           inkscape:connector-curvature="0" />
      </g>
    </g>
  </g>
</svg>
