<?xml version="1.0" encoding="UTF-8" standalone="no"?>
<!-- Created with Inkscape (http://www.inkscape.org/) -->

<svg
   width="1800"
   height="1800"
   viewBox="0 0 476.25 476.25001"
   version="1.1"
   id="svg8"
   inkscape:export-filename="C:\Users\厂永刄先生\Documents\GXI3CW2\,pjóŭ\Ghana.png"
   inkscape:export-xdpi="96"
   inkscape:export-ydpi="96"
   inkscape:version="1.3 (0e150ed6c4, 2023-07-21)"
   sodipodi:docname="al_1960_roundel-v.svg"
   xmlns:inkscape="http://www.inkscape.org/namespaces/inkscape"
   xmlns:sodipodi="http://sodipodi.sourceforge.net/DTD/sodipodi-0.dtd"
   xmlns="http://www.w3.org/2000/svg"
   xmlns:svg="http://www.w3.org/2000/svg"
   xmlns:rdf="http://www.w3.org/1999/02/22-rdf-syntax-ns#"
   xmlns:cc="http://creativecommons.org/ns#"
   xmlns:dc="http://purl.org/dc/elements/1.1/">
  <defs
     id="defs2" />
  <sodipodi:namedview
     id="base"
     pagecolor="#ffffff"
     bordercolor="#666666"
     borderopacity="1.0"
     inkscape:pageopacity="0.0"
     inkscape:pageshadow="2"
     inkscape:zoom="0.30222223"
     inkscape:cx="726.28675"
     inkscape:cy="779.22792"
     inkscape:document-units="px"
     inkscape:current-layer="layer1"
     showgrid="false"
     units="px"
     fit-margin-top="0"
     fit-margin-left="0"
     fit-margin-right="0"
     fit-margin-bottom="0"
     inkscape:showpageshadow="false"
     inkscape:snap-intersection-paths="true"
     inkscape:object-paths="false"
     inkscape:pagecheckerboard="true"
     inkscape:snap-smooth-nodes="false"
     inkscape:window-width="1920"
     inkscape:window-height="1009"
     inkscape:window-x="-8"
     inkscape:window-y="-8"
     inkscape:window-maximized="1"
     inkscape:object-nodes="true"
     inkscape:snap-nodes="true"
     inkscape:deskcolor="#505050" />
  <metadata
     id="metadata5">
    <rdf:RDF>
      <cc:Work
         rdf:about="">
        <dc:format>image/svg+xml</dc:format>
        <dc:type
           rdf:resource="http://purl.org/dc/dcmitype/StillImage" />
      </cc:Work>
    </rdf:RDF>
  </metadata>
  <g
     inkscape:label="レイヤー 1"
     inkscape:groupmode="layer"
     id="layer1"
     transform="translate(-444.87799,-608.83038)">
    <path
       id="path9"
       style="fill:#ff0000;fill-opacity:1;stroke-width:13.0235;stroke-linecap:round;stroke-linejoin:round;stroke-miterlimit:155;paint-order:stroke fill markers"
       d="m 451.11318,792.69212 c -9.61992,40.93465 -8.52353,84.93591 5.41947,127.848 13.94294,42.91201 38.91924,79.15424 70.76271,106.61658 l 32.44229,23.5707 c 35.95845,21.7986 78.14495,34.353 123.26534,34.353 45.12039,0 87.3069,-12.5544 123.26535,-34.353 l 32.44227,-23.5707 c 31.84347,-27.46239 56.81976,-63.70459 70.76273,-106.61665 13.94297,-42.91204 15.03937,-86.91332 5.41944,-127.84797 L 902.50093,754.55387 C 886.22283,715.78259 859.47254,680.82927 822.96933,654.30815 786.4662,627.78706 744.9573,613.14718 703.05341,609.64677 l -40.10088,2e-5 c -41.90389,3.50041 -83.41277,18.14028 -119.91597,44.66142 -36.50314,26.52107 -63.25345,61.47441 -79.53155,100.24569 z"
       sodipodi:nodetypes="csccsccsccsccscc" />
    <path
       id="path5"
       style="fill:#ffffff;stroke-width:0.143669;stroke-linecap:round;stroke-linejoin:round;stroke-miterlimit:3.9"
       d="M 463.48151 754.54397 C 458.32875 766.7693 454.23004 779.53819 451.16081 792.7034 L 683.00299 846.95538 L 463.48151 754.54397 z " />
    <path
       id="path10"
       style="fill:#ffffff;stroke-width:0.143669;stroke-linecap:round;stroke-linejoin:round;stroke-miterlimit:3.9"
       d="m 527.27864,1027.5842 c 10.03469,8.6784 20.91206,16.5223 32.48447,23.5096 L 683.00298,847.36359 Z" />
    <path
       id="path11"
       style="fill:#ffffff;stroke-width:0.143669;stroke-linecap:round;stroke-linejoin:round;stroke-miterlimit:3.9"
       d="m 703.05562,609.62143 c -13.21929,-1.12271 -26.62979,-1.075 -40.09909,0.0742 l 20.04646,237.25974 z" />
    <path
       id="path12"
       style="fill:#ffffff;stroke-width:0.143669;stroke-linecap:round;stroke-linejoin:round;stroke-miterlimit:3.9"
       d="m 902.52446,754.13575 c 5.15276,12.22533 9.25147,24.99422 12.3207,38.15943 l -231.84218,54.25198 z" />
    <path
       id="path13"
       style="fill:#ffffff;stroke-width:0.143669;stroke-linecap:round;stroke-linejoin:round;stroke-miterlimit:3.9"
       d="m 838.72733,1027.176 c -10.03469,8.6784 -20.91206,16.5223 -32.48447,23.5096 L 683.00299,846.95537 Z" />
    <path
       id="circle9"
       style="fill:#000000;fill-opacity:1;stroke-width:4.8838;stroke-linecap:round;stroke-linejoin:round;stroke-miterlimit:155;paint-order:stroke fill markers"
       d="m 861.59672,846.95536 c 0,98.63462 -79.95913,178.59374 -178.59372,178.59374 -98.6346,0 -178.59374,-79.95912 -178.59374,-178.59372 0,-98.63459 79.95914,-178.59374 178.59374,-178.59374 98.63459,0 178.59372,79.95915 178.59372,178.59372 z"
       sodipodi:nodetypes="zzzzz" />
    <path
       id="path1"
       style="fill:#ff0000;stroke-width:0.0316425;stroke-linecap:round;stroke-linejoin:round;stroke-miterlimit:3.9"
       inkscape:transform-center-x="-2.0902838e-06"
       inkscape:transform-center-y="-39.687498"
       d="m 683.003,668.36164 40.09872,123.40525 H 852.85575 L 747.884,868.03523 787.97777,991.44076 683.00355,915.17482 578.02822,991.44076 618.12267,868.03524 513.15025,791.76688 l 129.75445,10e-6 z"
       sodipodi:nodetypes="ccccccccccc" />
  </g>
</svg>
