<?xml version="1.0" encoding="UTF-8" standalone="no"?>
<!-- Created with Inkscape (http://www.inkscape.org/) -->

<svg
   width="3636"
   height="1800"
   viewBox="0 0 962.02499 476.25001"
   version="1.1"
   id="svg8"
   inkscape:export-filename="C:\Users\厂永刄先生\Documents\GXI3CW2\JáÈŭcèŭ\Maqkàla\Maqkàla.png"
   inkscape:export-xdpi="96"
   inkscape:export-ydpi="96"
   inkscape:version="1.3 (0e150ed6c4, 2023-07-21)"
   sodipodi:docname="ps_1988.svg"
   xmlns:inkscape="http://www.inkscape.org/namespaces/inkscape"
   xmlns:sodipodi="http://sodipodi.sourceforge.net/DTD/sodipodi-0.dtd"
   xmlns="http://www.w3.org/2000/svg"
   xmlns:svg="http://www.w3.org/2000/svg"
   xmlns:rdf="http://www.w3.org/1999/02/22-rdf-syntax-ns#"
   xmlns:cc="http://creativecommons.org/ns#"
   xmlns:dc="http://purl.org/dc/elements/1.1/">
  <defs
     id="defs2" />
  <sodipodi:namedview
     id="base"
     pagecolor="#ffffff"
     bordercolor="#666666"
     borderopacity="1.0"
     inkscape:pageopacity="0.0"
     inkscape:pageshadow="2"
     inkscape:zoom="0.69388256"
     inkscape:cx="1107.5361"
     inkscape:cy="221.21899"
     inkscape:document-units="px"
     inkscape:current-layer="layer1"
     showgrid="false"
     units="px"
     fit-margin-top="0"
     fit-margin-left="0"
     fit-margin-right="0"
     fit-margin-bottom="0"
     inkscape:showpageshadow="false"
     inkscape:snap-intersection-paths="false"
     inkscape:object-paths="false"
     inkscape:pagecheckerboard="true"
     inkscape:snap-smooth-nodes="false"
     inkscape:window-width="1920"
     inkscape:window-height="1009"
     inkscape:window-x="-8"
     inkscape:window-y="-8"
     inkscape:window-maximized="1"
     inkscape:object-nodes="true"
     inkscape:deskcolor="#505050" />
  <metadata
     id="metadata5">
    <rdf:RDF>
      <cc:Work
         rdf:about="">
        <dc:format>image/svg+xml</dc:format>
        <dc:type
           rdf:resource="http://purl.org/dc/dcmitype/StillImage" />
      </cc:Work>
    </rdf:RDF>
  </metadata>
  <g
     inkscape:label="レイヤー 1"
     inkscape:groupmode="layer"
     id="layer1"
     transform="translate(112.33452,-299.26786)">
    <path
       sodipodi:nodetypes="cccccc"
       inkscape:connector-curvature="0"
       id="path824"
       d="m 849.69048,458.01786 v 158.75 H 108.85713 L 214.69048,537.39285 108.85716,458.01786 Z"
       style="fill:#ffffff;fill-opacity:1;stroke:none;stroke-width:2.33954px;stroke-linecap:butt;stroke-linejoin:miter;stroke-opacity:1" />
    <path
       style="fill:#00a800;fill-opacity:1;stroke:none;stroke-width:2.0261px;stroke-linecap:butt;stroke-linejoin:miter;stroke-opacity:1"
       d="m 108.85713,616.76786 -211.66665,158.75 h 952.5 v -158.75 z"
       id="path849"
       inkscape:connector-curvature="0"
       sodipodi:nodetypes="ccccc" />
    <path
       style="fill:#ffffff;fill-opacity:1;stroke:none;stroke-width:0.51166773px;stroke-linecap:butt;stroke-linejoin:miter;stroke-opacity:1"
       d="m -102.80952,299.26786 h -9.525 v 476.25 h 9.525 z"
       id="path819"
       inkscape:connector-curvature="0"
       sodipodi:nodetypes="ccccc" />
    <path
       style="fill:#000000;fill-opacity:1;stroke:none;stroke-width:2.33954px;stroke-linecap:butt;stroke-linejoin:miter;stroke-opacity:1"
       d="m 849.69048,458.01786 v -158.75 h -952.5 l 211.66668,158.75 z"
       id="path847"
       inkscape:connector-curvature="0"
       sodipodi:nodetypes="ccccc" />
    <path
       style="fill:#ff0101;fill-opacity:1;stroke:none;stroke-width:0.232141px;stroke-linecap:butt;stroke-linejoin:miter;stroke-opacity:1"
       d="M -102.80952,775.51785 V 299.26786 l 317.5,238.12499 z"
       id="path818"
       inkscape:connector-curvature="0"
       sodipodi:nodetypes="cccc" />
    <g
       id="g4"
       style="fill:#ffffff;stroke:#000000;stroke-width:6.78657;stroke-linejoin:round;stroke-dasharray:none;stroke-opacity:1;paint-order:stroke fill markers"
       transform="matrix(-0.46783556,0,0,0.46783556,260.35296,338.39227)">
      <g
         id="g2"
         transform="matrix(0.41998464,0,0,0.41998464,115.24929,170.17102)">
        <path
           id="path4"
           style="fill:#ffffff;stroke:#000000;stroke-width:6.78657;stroke-linecap:square;stroke-linejoin:round;stroke-miterlimit:3.9;stroke-dasharray:none;stroke-opacity:1;paint-order:stroke fill markers"
           d="M -63.988201,-48.316075 C 2.7301495,-60.158427 157.12261,13.041283 228.55087,55.179904 c 3.21907,-4.430614 6.9738,-9.124757 11.90174,-14.228893 8.25726,-8.552489 30.75861,-14.159543 42.96855,-10.887896 -23.94507,12.109867 -32.88831,22.371456 -40.68486,33.679399 17.76774,10.945984 34.19114,21.917665 48.38504,32.128925 4.44739,-16.373929 26.79619,-11.831772 28.16831,3.702267 1.65009,18.681034 -25.34389,21.452394 -36.22278,13.818954 -14.31617,-10.04527 -31.76846,-22.074178 -50.76863,-34.375344 -3.13013,4.267469 -6.78904,8.788567 -11.51084,13.679182 -8.25725,8.552492 -30.75835,14.159972 -42.96828,10.888342 C 201.60058,91.55771 210.58578,81.355641 218.34528,70.139073 201.28063,59.44178 183.33206,48.832445 165.34887,39.414676 109.96163,10.408464 -8.6535936,-47.556547 -63.988201,-48.316075 Z"
           sodipodi:nodetypes="ccscccsscsccsc" />
        <path
           id="path2"
           style="fill:#ffffff;stroke:#000000;stroke-width:6.78657;stroke-linecap:square;stroke-linejoin:round;stroke-miterlimit:3.9;stroke-dasharray:none;stroke-opacity:1;paint-order:stroke fill markers"
           d="M 329.44677,-48.316074 C 262.72843,-60.158425 108.33595,13.04128 36.9077,55.179903 33.68863,50.749289 29.933894,46.055146 25.005956,40.95101 16.748694,32.398521 -5.7526592,26.791467 -17.962597,30.063114 5.9824775,42.172981 14.925716,52.43457 22.722266,63.742513 4.9545261,74.688497 -11.468878,85.660178 -25.662772,95.871438 -30.110168,79.497509 -52.45896,84.039666 -53.831079,99.573705 c -1.650093,18.681035 25.343882,21.452395 36.222771,13.818955 14.3161682,-10.04527 31.768462,-22.074179 50.768633,-34.375345 3.130134,4.267469 6.789042,8.788567 11.510839,13.679182 8.257251,8.552493 30.758354,14.159973 42.968274,10.888343 C 63.857989,91.557709 54.872786,81.35564 47.113289,70.139072 64.177936,59.441779 82.126506,48.832444 100.10969,39.414673 155.49693,10.408462 274.11217,-47.556545 329.44677,-48.316074 Z"
           sodipodi:nodetypes="ccscccsscsccsc" />
      </g>
      <g
         id="g130"
         style="stroke:#ffbf00;stroke-width:1.54944;stroke-dasharray:none;stroke-opacity:1;paint-order:normal"
         transform="matrix(-0.53414359,0,0,0.53414359,252.75279,-36.551524)">
        <path
           style="color:#000000;fill:#a87e00;fill-opacity:1;stroke:none;stroke-width:1.54944;stroke-linecap:round;stroke-linejoin:round;stroke-miterlimit:5.2;stroke-dasharray:none;stroke-opacity:1;paint-order:normal"
           d="m 53.109155,314.52293 c -4.100817,-1.10596 -6.016423,-4.21284 -6.115427,-9.49262 -7.966082,-3.3403 -3.233491,-10.50149 -7.651211,-12.9428 5.046509,-0.0946 4.20771,-8.63724 12.811544,-7.869 2.554154,-4.62192 5.715279,-6.54179 9.845671,-5.53493 3.253976,0.79322 51.353948,13.1741 91.066498,13.1741 39.71255,0 87.81252,-12.38088 91.0665,-13.1741 4.13039,-1.00686 7.29152,0.91301 9.84567,5.53493 8.60384,-0.76824 7.76504,7.7744 12.81155,7.869 -4.41772,2.44131 0.31487,9.6025 -7.65122,12.9428 -0.099,5.27978 -2.01461,8.38666 -6.11542,9.49262 -3.87462,1.04496 -49.9079,11.87679 -99.95708,11.87679 -50.04918,0 -96.082454,-10.83183 -99.957075,-11.87679 z"
           id="path127" />
        <path
           style="color:#000000;fill:#ffbf00;fill-opacity:1;stroke:none;stroke-width:1.54944;stroke-linecap:round;stroke-linejoin:round;stroke-miterlimit:5.2;stroke-dasharray:none;stroke-opacity:1;paint-order:normal"
           d="m 54.142658,310.69139 c -3.634452,-0.93781 -3.174278,-5.3304 -3.228511,-8.32032 l -2.384765,-1 c -3.365285,-1.25351 -2.702782,-4.94884 -3.412113,-7.85155 2.115296,-2.43417 3.075987,-5.5986 6.68359,-5.34765 l 2.576172,0.23047 c 1.034584,-2.72343 2.947692,-6.83986 6.683516,-5.86328 0.760287,0.19875 50.990973,13.28711 92.005863,13.28711 41.01489,0 91.24557,-13.08836 92.00586,-13.28711 3.73583,-0.97658 5.64893,3.13985 6.68352,5.86328 l 2.57617,-0.23047 c 3.6076,-0.25095 4.56829,2.91348 6.68359,5.34765 -0.70933,2.90271 -0.0468,6.59804 -3.41211,7.85155 l -2.38477,1 c -0.0542,2.98992 0.40594,7.38251 -3.22851,8.32032 -0.23685,0.0639 -47.01614,11.74023 -98.92375,11.74023 -51.90761,0 -98.686898,-11.67635 -98.923752,-11.74023 z"
           id="path128"
           sodipodi:nodetypes="scscscszscscscszs" />
        <path
           style="opacity:1;fill:#ffbf00;fill-opacity:1;stroke:#a87e00;stroke-width:1.54944;stroke-linecap:round;stroke-linejoin:round;stroke-miterlimit:5.2;stroke-dasharray:none;stroke-opacity:1;paint-order:normal"
           d="m 139.43754,202.57361 -13.67403,59.55711 7.24462,10.00205 9.91417,-7.36443 4.84461,-60.91436 1.0859,0.15031 -4.46656,60.94324 8.68016,8.78523 8.68016,-8.78523 -4.46656,-60.94324 1.0859,-0.15031 4.84461,60.91436 9.91417,7.36443 7.24462,-10.00205 -13.67403,-59.55711 z"
           id="path118"
           sodipodi:nodetypes="cccccccccccccccc" />
        <path
           style="opacity:1;fill:#ffbf00;fill-opacity:1;stroke:#a87e00;stroke-width:1.54944;stroke-linecap:round;stroke-linejoin:round;stroke-miterlimit:5.2;stroke-dasharray:none;stroke-opacity:1;paint-order:normal"
           d="m 109.62119,92.74955 -4.21149,95.07297 -16.678165,16.67817 5.37294,-121.292429 -1.51718,1e-6 -5.44326,122.879938 -16.67818,16.67817 6.80367,-153.590368 -1.51718,2e-6 -6.874,155.177876 -16.67818,16.67817 8.07931,-182.387528 -1.51718,10e-7 -8.14963,183.975037 -16.67818,16.67817 9.02441,-203.722946 -1.51718,10e-7 -9.09473,205.310455 -16.67818,16.67817 9.17214,-207.057877 c 0.23426,-5.288494 8.44948,-17.121532 16.60077,-20.222415 35.20651,-13.393121 38.3088,17.603428 111.624315,17.603428 73.31553,0 76.41781,-30.996547 111.62432,-17.603428 8.1513,3.100882 16.36651,14.933921 16.60078,20.222415 l 9.17214,207.057877 -16.67819,-16.67817 -9.09473,-205.310455 -1.51717,-10e-7 9.0244,203.722946 -16.67818,-16.67817 -8.14963,-183.975037 -1.51718,-10e-7 8.07931,182.387528 -16.67818,-16.67817 -6.874,-155.177876 -1.51718,-2e-6 6.80368,153.590368 -16.67819,-16.67817 -5.44326,-122.879938 -1.51718,-1e-6 5.37294,121.292429 -16.67817,-16.67817 -4.21149,-95.07297 z"
           id="path46"
           sodipodi:nodetypes="cccccccccccccccccccsszsscccccccccccccccccccc" />
        <g
           id="g116"
           style="stroke:#ffbf00;stroke-width:1.54944;stroke-dasharray:none;stroke-opacity:1;paint-order:normal"
           inkscape:transform-center-x="25.745173"
           inkscape:transform-center-y="-39.988195"
           transform="matrix(-0.99190544,0.12697874,0.12697874,0.99190544,-2.2161584,35.079531)">
          <path
             id="path105"
             style="opacity:1;fill:#a87e00;fill-opacity:1;stroke:#a87e00;stroke-width:1.54944;stroke-linecap:round;stroke-linejoin:round;stroke-miterlimit:5.2;stroke-dasharray:none;stroke-opacity:1;paint-order:normal"
             d="m -141.87339,271.83993 h -73.85144 l 1e-4,-10.58334 h 73.85144 z"
             sodipodi:nodetypes="ccccc" />
          <g
             id="g113"
             transform="rotate(10.448452,-169.19483,209.31887)"
             style="stroke:#ffbf00;stroke-width:1.54944;stroke-dasharray:none;stroke-opacity:1;paint-order:normal">
            <path
               style="opacity:1;fill:#ffbf00;fill-opacity:1;stroke:#a87e00;stroke-width:1.54944;stroke-linecap:round;stroke-linejoin:round;stroke-miterlimit:5.2;stroke-dasharray:none;stroke-opacity:1;paint-order:normal"
               d="m -192.6535,152.21465 -0.0917,114.20842 47.03933,-8.62232 0.0614,-76.42295 z"
               id="path106"
               sodipodi:nodetypes="ccccc" />
            <path
               style="opacity:1;fill:none;fill-opacity:1;stroke:#a87e00;stroke-width:1.54944;stroke-linecap:round;stroke-linejoin:round;stroke-miterlimit:5.2;stroke-dasharray:none;stroke-opacity:1;paint-order:normal"
               d="m -192.7288,248.66556 c 1.12537,4.19992 3.40853,7.75853 5.87118,10.22118 2.46265,-2.46265 4.74581,-6.02126 5.87118,-10.22118 1.12537,4.19992 3.40853,7.75853 5.87118,10.22118 2.46265,-2.46265 4.74581,-6.02126 5.87118,-10.22118 1.12537,4.19992 3.40853,7.75853 5.87118,10.22118 2.46265,-2.46265 4.74581,-6.02126 5.87118,-10.22118 1.12537,4.19992 3.40853,7.75853 5.87118,10.22118 2.46265,-2.46265 4.74581,-6.02126 5.87118,-10.22118"
               id="path107"
               sodipodi:nodetypes="ccccccccc" />
            <path
               style="opacity:1;fill:none;fill-opacity:1;stroke:#a87e00;stroke-width:1.54944;stroke-linecap:round;stroke-linejoin:round;stroke-miterlimit:5.2;stroke-dasharray:none;stroke-opacity:1;paint-order:normal"
               d="m -192.7288,245.99757 c 2.46265,-2.46265 4.74581,-6.02126 5.87118,-10.22118 1.12537,4.19992 3.40853,7.75853 5.87118,10.22118 2.46265,-2.46265 4.74581,-6.02126 5.87118,-10.22118 1.12537,4.19992 3.40853,7.75853 5.87118,10.22118 2.46265,-2.46265 4.74581,-6.02126 5.87118,-10.22118 1.12537,4.19992 3.40853,7.75853 5.87118,10.22118 2.46265,-2.46265 4.74581,-6.02126 5.87118,-10.22118 1.12537,4.19992 3.40853,7.75853 5.87118,10.22118"
               id="path108"
               sodipodi:nodetypes="ccccccccc" />
            <path
               style="opacity:1;fill:none;fill-opacity:1;stroke:#a87e00;stroke-width:1.54944;stroke-linecap:round;stroke-linejoin:round;stroke-miterlimit:5.2;stroke-dasharray:none;stroke-opacity:1;paint-order:normal"
               d="m -192.7288,222.88728 c 1.12537,4.19992 3.40853,7.75853 5.87118,10.22118 2.46265,-2.46265 4.74581,-6.02126 5.87118,-10.22118 1.12537,4.19992 3.40853,7.75853 5.87118,10.22118 2.46265,-2.46265 4.74581,-6.02126 5.87118,-10.22118 1.12537,4.19992 3.40853,7.75853 5.87118,10.22118 2.46265,-2.46265 4.74581,-6.02126 5.87118,-10.22118 1.12537,4.19992 3.40853,7.75853 5.87118,10.22118 2.46265,-2.46265 4.74581,-6.02126 5.87118,-10.22118"
               id="path109"
               sodipodi:nodetypes="ccccccccc" />
            <path
               style="opacity:1;fill:none;fill-opacity:1;stroke:#a87e00;stroke-width:1.54944;stroke-linecap:round;stroke-linejoin:round;stroke-miterlimit:5.2;stroke-dasharray:none;stroke-opacity:1;paint-order:normal"
               d="m -192.7288,220.21929 c 2.46265,-2.46265 4.74581,-6.02126 5.87118,-10.22118 1.12537,4.19992 3.40853,7.75853 5.87118,10.22118 2.46265,-2.46265 4.74581,-6.02126 5.87118,-10.22118 1.12537,4.19992 3.40853,7.75853 5.87118,10.22118 2.46265,-2.46265 4.74581,-6.02126 5.87118,-10.22118 1.12537,4.19992 3.40853,7.75853 5.87118,10.22118 2.46265,-2.46265 4.74581,-6.02126 5.87118,-10.22118 1.12537,4.19992 3.40853,7.75853 5.87118,10.22118"
               id="path110"
               sodipodi:nodetypes="ccccccccc" />
            <path
               style="opacity:1;fill:none;fill-opacity:1;stroke:#a87e00;stroke-width:1.54944;stroke-linecap:round;stroke-linejoin:round;stroke-miterlimit:5.2;stroke-dasharray:none;stroke-opacity:1;paint-order:normal"
               d="m -192.7288,197.109 c 1.12537,4.19992 3.40853,7.75853 5.87118,10.22118 2.46265,-2.46265 4.74581,-6.02126 5.87118,-10.22118 1.12537,4.19992 3.40853,7.75853 5.87118,10.22118 2.46265,-2.46265 4.74581,-6.02126 5.87118,-10.22118 1.12537,4.19992 3.40853,7.75853 5.87118,10.22118 2.46265,-2.46265 4.74581,-6.02126 5.87118,-10.22118 1.12537,4.19992 3.40853,7.75853 5.87118,10.22118 2.46265,-2.46265 4.74581,-6.02126 5.87118,-10.22118"
               id="path111"
               sodipodi:nodetypes="ccccccccc" />
            <path
               style="opacity:1;fill:none;fill-opacity:1;stroke:#a87e00;stroke-width:1.54944;stroke-linecap:round;stroke-linejoin:round;stroke-miterlimit:5.2;stroke-dasharray:none;stroke-opacity:1;paint-order:normal"
               d="m -192.7288,194.44101 c 2.46265,-2.46265 4.74581,-6.02126 5.87118,-10.22118 1.12537,4.19992 3.40853,7.75853 5.87118,10.22118 2.46265,-2.46265 4.74581,-6.02126 5.87118,-10.22118 1.12537,4.19992 3.40853,7.75853 5.87118,10.22118 2.46265,-2.46265 4.74581,-6.02126 5.87118,-10.22118 1.12537,4.19992 3.40853,7.75853 5.87118,10.22118 2.46265,-2.46265 4.74581,-6.02126 5.87118,-10.22118 1.12537,4.19992 3.40853,7.75853 5.87118,10.22118"
               id="path112"
               sodipodi:nodetypes="ccccccccc" />
            <path
               style="opacity:1;fill:none;fill-opacity:1;stroke:#a87e00;stroke-width:1.54944;stroke-linecap:round;stroke-linejoin:round;stroke-miterlimit:5.2;stroke-dasharray:none;stroke-opacity:1;paint-order:normal"
               d="m -192.7288,171.33072 c 1.12537,4.19992 3.40853,7.75853 5.87118,10.22118 2.46265,-2.46265 4.74581,-6.02126 5.87118,-10.22118 1.12537,4.19992 3.40853,7.75853 5.87118,10.22118 2.46265,-2.46265 4.74581,-6.02126 5.87118,-10.22118 1.12537,4.19992 3.40853,7.75853 5.87118,10.22118 2.01352,-2.01352 3.90705,-4.75969 5.14586,-7.99002 m 1.96004,1.22197 c 1.21852,2.70271 2.88194,5.01353 4.63646,6.76805 0.74925,-0.74925 1.48189,-1.59995 2.17036,-2.53929"
               id="path113"
               sodipodi:nodetypes="cccccccccc" />
          </g>
          <path
             id="path114"
             style="opacity:1;fill:#ffbf00;fill-opacity:1;stroke:#a87e00;stroke-width:1.54944;stroke-linecap:round;stroke-linejoin:round;stroke-miterlimit:5.2;stroke-dasharray:none;stroke-opacity:1;paint-order:normal"
             d="m -210.43309,266.54826 c 0,5.54831 -7.37618,8.09542 -5.29164,15.875 -5.40351,-3.11971 -5.29167,-12.9525 -5.29167,-15.875 0,-2.92251 2.36916,-5.29167 5.29167,-5.29167 2.9225,0 5.29164,2.36916 5.29164,5.29167 z"
             sodipodi:nodetypes="scszs" />
          <path
             id="path115"
             style="opacity:1;fill:#ffbf00;fill-opacity:1;stroke:#a87e00;stroke-width:1.54944;stroke-linecap:round;stroke-linejoin:round;stroke-miterlimit:5.2;stroke-dasharray:none;stroke-opacity:1;paint-order:normal"
             d="m -147.16493,266.54826 c 0,5.54831 7.37618,8.09542 5.29164,15.875 5.40351,-3.11971 5.29167,-12.9525 5.29167,-15.875 0,-2.92251 -2.36916,-5.29167 -5.29167,-5.29167 -2.9225,0 -5.29164,2.36916 -5.29164,5.29167 z"
             sodipodi:nodetypes="scszs" />
          <path
             id="path116"
             style="opacity:1;fill:#ffbf00;fill-opacity:1;stroke:#a87e00;stroke-width:1.54944;stroke-linecap:round;stroke-linejoin:round;stroke-miterlimit:5.2;stroke-dasharray:none;stroke-opacity:1;paint-order:normal"
             d="m -173.50732,266.54826 c 0,5.54831 -7.37618,8.09542 -5.29164,15.875 -5.40351,-3.11971 -5.29167,-12.9525 -5.29167,-15.875 0,-2.92251 2.36916,-5.29167 5.29167,-5.29167 2.9225,0 5.29164,2.36916 5.29164,5.29167 z"
             sodipodi:nodetypes="scszs" />
        </g>
        <g
           id="g104"
           style="stroke:#ffbf00;stroke-width:1.54944;stroke-dasharray:none;stroke-opacity:1;paint-order:normal"
           inkscape:transform-center-x="-25.745169"
           inkscape:transform-center-y="-39.988195"
           transform="rotate(7.2950398,-120.83238,2435.5141)">
          <path
             id="path103"
             style="opacity:1;fill:#a87e00;fill-opacity:1;stroke:#a87e00;stroke-width:1.54944;stroke-linecap:round;stroke-linejoin:round;stroke-miterlimit:5.2;stroke-dasharray:none;stroke-opacity:1;paint-order:normal"
             d="m -141.87339,271.83993 h -73.85144 l 1e-4,-10.58334 h 73.85144 z"
             sodipodi:nodetypes="ccccc" />
          <g
             id="g92"
             transform="rotate(10.448452,-169.19483,209.31887)"
             style="stroke:#ffbf00;stroke-width:1.54944;stroke-dasharray:none;stroke-opacity:1;paint-order:normal">
            <path
               style="opacity:1;fill:#ffbf00;fill-opacity:1;stroke:#a87e00;stroke-width:1.54944;stroke-linecap:round;stroke-linejoin:round;stroke-miterlimit:5.2;stroke-dasharray:none;stroke-opacity:1;paint-order:normal"
               d="m -192.6535,152.21465 -0.0917,114.20842 47.03933,-8.62232 0.0614,-76.42295 z"
               id="path58"
               sodipodi:nodetypes="ccccc" />
            <path
               style="opacity:1;fill:none;fill-opacity:1;stroke:#a87e00;stroke-width:1.54944;stroke-linecap:round;stroke-linejoin:round;stroke-miterlimit:5.2;stroke-dasharray:none;stroke-opacity:1;paint-order:normal"
               d="m -192.7288,248.66556 c 1.12537,4.19992 3.40853,7.75853 5.87118,10.22118 2.46265,-2.46265 4.74581,-6.02126 5.87118,-10.22118 1.12537,4.19992 3.40853,7.75853 5.87118,10.22118 2.46265,-2.46265 4.74581,-6.02126 5.87118,-10.22118 1.12537,4.19992 3.40853,7.75853 5.87118,10.22118 2.46265,-2.46265 4.74581,-6.02126 5.87118,-10.22118 1.12537,4.19992 3.40853,7.75853 5.87118,10.22118 2.46265,-2.46265 4.74581,-6.02126 5.87118,-10.22118"
               id="path81"
               sodipodi:nodetypes="ccccccccc" />
            <path
               style="opacity:1;fill:none;fill-opacity:1;stroke:#a87e00;stroke-width:1.54944;stroke-linecap:round;stroke-linejoin:round;stroke-miterlimit:5.2;stroke-dasharray:none;stroke-opacity:1;paint-order:normal"
               d="m -192.7288,245.99757 c 2.46265,-2.46265 4.74581,-6.02126 5.87118,-10.22118 1.12537,4.19992 3.40853,7.75853 5.87118,10.22118 2.46265,-2.46265 4.74581,-6.02126 5.87118,-10.22118 1.12537,4.19992 3.40853,7.75853 5.87118,10.22118 2.46265,-2.46265 4.74581,-6.02126 5.87118,-10.22118 1.12537,4.19992 3.40853,7.75853 5.87118,10.22118 2.46265,-2.46265 4.74581,-6.02126 5.87118,-10.22118 1.12537,4.19992 3.40853,7.75853 5.87118,10.22118"
               id="path83"
               sodipodi:nodetypes="ccccccccc" />
            <path
               style="opacity:1;fill:none;fill-opacity:1;stroke:#a87e00;stroke-width:1.54944;stroke-linecap:round;stroke-linejoin:round;stroke-miterlimit:5.2;stroke-dasharray:none;stroke-opacity:1;paint-order:normal"
               d="m -192.7288,222.88728 c 1.12537,4.19992 3.40853,7.75853 5.87118,10.22118 2.46265,-2.46265 4.74581,-6.02126 5.87118,-10.22118 1.12537,4.19992 3.40853,7.75853 5.87118,10.22118 2.46265,-2.46265 4.74581,-6.02126 5.87118,-10.22118 1.12537,4.19992 3.40853,7.75853 5.87118,10.22118 2.46265,-2.46265 4.74581,-6.02126 5.87118,-10.22118 1.12537,4.19992 3.40853,7.75853 5.87118,10.22118 2.46265,-2.46265 4.74581,-6.02126 5.87118,-10.22118"
               id="path86"
               sodipodi:nodetypes="ccccccccc" />
            <path
               style="opacity:1;fill:none;fill-opacity:1;stroke:#a87e00;stroke-width:1.54944;stroke-linecap:round;stroke-linejoin:round;stroke-miterlimit:5.2;stroke-dasharray:none;stroke-opacity:1;paint-order:normal"
               d="m -192.7288,220.21929 c 2.46265,-2.46265 4.74581,-6.02126 5.87118,-10.22118 1.12537,4.19992 3.40853,7.75853 5.87118,10.22118 2.46265,-2.46265 4.74581,-6.02126 5.87118,-10.22118 1.12537,4.19992 3.40853,7.75853 5.87118,10.22118 2.46265,-2.46265 4.74581,-6.02126 5.87118,-10.22118 1.12537,4.19992 3.40853,7.75853 5.87118,10.22118 2.46265,-2.46265 4.74581,-6.02126 5.87118,-10.22118 1.12537,4.19992 3.40853,7.75853 5.87118,10.22118"
               id="path88"
               sodipodi:nodetypes="ccccccccc" />
            <path
               style="opacity:1;fill:none;fill-opacity:1;stroke:#a87e00;stroke-width:1.54944;stroke-linecap:round;stroke-linejoin:round;stroke-miterlimit:5.2;stroke-dasharray:none;stroke-opacity:1;paint-order:normal"
               d="m -192.7288,197.109 c 1.12537,4.19992 3.40853,7.75853 5.87118,10.22118 2.46265,-2.46265 4.74581,-6.02126 5.87118,-10.22118 1.12537,4.19992 3.40853,7.75853 5.87118,10.22118 2.46265,-2.46265 4.74581,-6.02126 5.87118,-10.22118 1.12537,4.19992 3.40853,7.75853 5.87118,10.22118 2.46265,-2.46265 4.74581,-6.02126 5.87118,-10.22118 1.12537,4.19992 3.40853,7.75853 5.87118,10.22118 2.46265,-2.46265 4.74581,-6.02126 5.87118,-10.22118"
               id="path89"
               sodipodi:nodetypes="ccccccccc" />
            <path
               style="opacity:1;fill:none;fill-opacity:1;stroke:#a87e00;stroke-width:1.54944;stroke-linecap:round;stroke-linejoin:round;stroke-miterlimit:5.2;stroke-dasharray:none;stroke-opacity:1;paint-order:normal"
               d="m -192.7288,194.44101 c 2.46265,-2.46265 4.74581,-6.02126 5.87118,-10.22118 1.12537,4.19992 3.40853,7.75853 5.87118,10.22118 2.46265,-2.46265 4.74581,-6.02126 5.87118,-10.22118 1.12537,4.19992 3.40853,7.75853 5.87118,10.22118 2.46265,-2.46265 4.74581,-6.02126 5.87118,-10.22118 1.12537,4.19992 3.40853,7.75853 5.87118,10.22118 2.46265,-2.46265 4.74581,-6.02126 5.87118,-10.22118 1.12537,4.19992 3.40853,7.75853 5.87118,10.22118"
               id="path91"
               sodipodi:nodetypes="ccccccccc" />
            <path
               style="opacity:1;fill:none;fill-opacity:1;stroke:#a87e00;stroke-width:1.54944;stroke-linecap:round;stroke-linejoin:round;stroke-miterlimit:5.2;stroke-dasharray:none;stroke-opacity:1;paint-order:normal"
               d="m -192.7288,171.33072 c 1.12537,4.19992 3.40853,7.75853 5.87118,10.22118 2.46265,-2.46265 4.74581,-6.02126 5.87118,-10.22118 1.12537,4.19992 3.40853,7.75853 5.87118,10.22118 2.46265,-2.46265 4.74581,-6.02126 5.87118,-10.22118 1.12537,4.19992 3.40853,7.75853 5.87118,10.22118 2.01352,-2.01352 3.90705,-4.75969 5.14586,-7.99002 m 1.96004,1.22197 c 1.21852,2.70271 2.88194,5.01353 4.63646,6.76805 0.74925,-0.74925 1.48189,-1.59995 2.17036,-2.53929"
               id="path92"
               sodipodi:nodetypes="cccccccccc" />
          </g>
          <path
             id="path101"
             style="opacity:1;fill:#ffbf00;fill-opacity:1;stroke:#a87e00;stroke-width:1.54944;stroke-linecap:round;stroke-linejoin:round;stroke-miterlimit:5.2;stroke-dasharray:none;stroke-opacity:1;paint-order:normal"
             d="m -210.43309,266.54826 c 0,5.54831 -7.37618,8.09542 -5.29164,15.875 -5.40351,-3.11971 -5.29167,-12.9525 -5.29167,-15.875 0,-2.92251 2.36916,-5.29167 5.29167,-5.29167 2.9225,0 5.29164,2.36916 5.29164,5.29167 z"
             sodipodi:nodetypes="scszs" />
          <path
             id="path102"
             style="opacity:1;fill:#ffbf00;fill-opacity:1;stroke:#a87e00;stroke-width:1.54944;stroke-linecap:round;stroke-linejoin:round;stroke-miterlimit:5.2;stroke-dasharray:none;stroke-opacity:1;paint-order:normal"
             d="m -147.16493,266.54826 c 0,5.54831 7.37618,8.09542 5.29164,15.875 5.40351,-3.11971 5.29167,-12.9525 5.29167,-15.875 0,-2.92251 -2.36916,-5.29167 -5.29167,-5.29167 -2.9225,0 -5.29164,2.36916 -5.29164,5.29167 z"
             sodipodi:nodetypes="scszs" />
          <path
             id="path104"
             style="opacity:1;fill:#ffbf00;fill-opacity:1;stroke:#a87e00;stroke-width:1.54944;stroke-linecap:round;stroke-linejoin:round;stroke-miterlimit:5.2;stroke-dasharray:none;stroke-opacity:1;paint-order:normal"
             d="m -173.50732,266.54826 c 0,5.54831 -7.37618,8.09542 -5.29164,15.875 -5.40351,-3.11971 -5.29167,-12.9525 -5.29167,-15.875 0,-2.92251 2.36916,-5.29167 5.29167,-5.29167 2.9225,0 5.29164,2.36916 5.29164,5.29167 z"
             sodipodi:nodetypes="scszs" />
        </g>
        <path
           style="opacity:1;fill:#a87e00;fill-opacity:1;stroke:#a87e00;stroke-width:1.54944;stroke-linecap:round;stroke-linejoin:round;stroke-miterlimit:5.2;stroke-dasharray:none;stroke-opacity:1;paint-order:normal"
           d="m 127.02458,97.904057 c -32.094499,0 -33.00691,-17.891955 -64.692182,-35.03312 -8.517236,-4.607672 -27.752441,-9.233204 -37.49107,7.634596 1.09205,-24.65266 22.564265,-31.345366 40.756003,-27.396146 22.540526,4.893294 43.202829,19.746084 58.504749,19.746084 h 57.92868 c 15.30192,0 35.96423,-14.85279 58.50475,-19.746084 18.19174,-3.94922 39.66395,2.743486 40.756,27.396146 -9.73862,-16.8678 -28.97383,-12.242268 -37.49107,-7.634596 -31.68527,17.141165 -32.59768,35.03312 -64.69218,35.03312 z"
           id="path3"
           sodipodi:nodetypes="sscsssscsss" />
        <path
           style="opacity:1;fill:#ffbf00;fill-opacity:1;stroke:#a87e00;stroke-width:1.54944;stroke-linecap:round;stroke-linejoin:round;stroke-miterlimit:5.2;stroke-dasharray:none;stroke-opacity:1;paint-order:normal"
           d="m 104.22797,-3.4739756 c 0,-3.408096 3.18094,-6.2042976 12.11206,-5.1656101 11.30861,1.3151881 15.59441,19.7132057 15.59441,28.4963137 0,14.778116 -6.77527,38.354399 -15.50656,48.094619 l 15.50656,-4.39719 c 4.04168,-7.580729 5.84984,-14.580073 7.08794,-25.790816 -1.2381,11.210743 -3.04626,18.210087 -7.08794,25.790816 l 2.40681,4.39719 9.69857,-4.39719 c 2.03697,-5.808993 4.64483,-11.515694 4.64483,-23.232729 0,11.717035 -2.60786,17.423736 -4.64483,23.232729 l 9.0266,4.332389 9.0266,-4.332389 c -2.03697,-5.808993 -4.64483,-11.515694 -4.64483,-23.232729 0,11.717035 2.60786,17.423736 4.64483,23.232729 l 9.69858,4.39719 2.4068,-4.39719 c -4.04168,-7.580729 -5.84984,-14.580073 -7.08794,-25.790816 1.2381,11.210743 3.04626,18.210087 7.08794,25.790816 l 15.50656,4.39719 c -8.73129,-9.74022 -15.50656,-33.316503 -15.50656,-48.094619 0,-16.4491253 4.05253,-28.3426613 -7.57705,-35.057 -11.8223,-6.825611 -27.72961,-10.629577 -30.00032,-2.15517 -33.10968,-8.87171 -42.2295,4.045022 -32.39306,13.8814664 z"
           id="path31"
           sodipodi:nodetypes="csscccccccccccccccccsscc" />
        <path
           style="opacity:1;fill:#a87e00;fill-opacity:1;stroke:#a87e00;stroke-width:1.54944;stroke-linecap:round;stroke-linejoin:round;stroke-miterlimit:5.2;stroke-dasharray:none;stroke-opacity:1;paint-order:normal"
           d="m 131.05,-7.857287 c -9.64461,-9.644605 -30.90478,-6.823059 -26.82203,4.3833114 0,-3.408096 3.18094,-6.2042968 12.11206,-5.1656101 4.96969,0.5779733 8.58309,4.4550782 11.0725,9.36544856 z"
           id="path123"
           sodipodi:nodetypes="ccscc" />
        <path
           style="opacity:1;fill:#a87e00;fill-opacity:1;stroke:#a87e00;stroke-width:1.54944;stroke-linecap:round;stroke-linejoin:round;stroke-miterlimit:5.2;stroke-dasharray:none;stroke-opacity:1;paint-order:normal"
           d="m 174.59356,-3.0401315 c -0.67952,-5.0650996 -2.73675,-9.1374455 -7.97221,-12.1601405 -11.8223,-6.825607 -27.72961,-10.629577 -30.00032,-2.15517 -8.11165,-2.173509 -14.78339,-3.039239 -20.08923,-2.962882 16.21027,0 18.69137,9.346741 28.66208,12.2850371 9.53482,2.8098444 25.12785,-6.7737411 29.39968,4.9931554 z"
           id="path124"
           sodipodi:nodetypes="csccsc" />
        <circle
           style="opacity:1;fill:#ffbf00;fill-opacity:1;stroke:#a87e00;stroke-width:1.54944;stroke-linecap:round;stroke-linejoin:round;stroke-miterlimit:5.2;stroke-dasharray:none;stroke-opacity:1;paint-order:normal"
           id="path125"
           cx="147.11989"
           cy="-10.304922"
           r="2.671041" />
        <path
           style="opacity:1;fill:#ffffff;stroke:#ffbf00;stroke-width:1.54944;stroke-linecap:round;stroke-linejoin:round;stroke-miterlimit:5.2;stroke-dasharray:none;stroke-opacity:1;paint-order:normal"
           d="m 96.025579,88.254484 c 15.326341,0 44.146421,-6.039095 57.040841,-17.837579 12.89442,11.798484 41.7145,17.837579 57.04084,17.837579 0,63.748536 -20.29751,96.639296 -57.04084,119.668486 C 116.32309,184.89378 96.025579,152.00302 96.025579,88.254484 Z"
           id="path18"
           sodipodi:nodetypes="ccccc" />
        <path
           style="opacity:1;fill:#00a800;fill-opacity:1;stroke:none;stroke-width:1.54944;stroke-linecap:round;stroke-linejoin:round;stroke-miterlimit:5.2;stroke-dasharray:none;stroke-opacity:1;paint-order:normal"
           d="M 134.74122,194.31304 C 109.63575,171.96572 96.025579,140.45569 96.025579,88.254484 c 9.913921,0 25.473901,-2.526885 38.717361,-7.504951 z"
           id="path129"
           sodipodi:nodetypes="cccc" />
        <path
           style="opacity:1;fill:#000000;fill-opacity:1;stroke:none;stroke-width:1.54944;stroke-linecap:round;stroke-linejoin:round;stroke-miterlimit:5.2;stroke-dasharray:none;stroke-opacity:1;paint-order:normal"
           d="m 171.06032,194.31211 c 25.10547,-22.34732 38.71564,-53.85735 38.71564,-106.058555 -9.91392,0 -25.4739,-2.526885 -38.71736,-7.504951 z"
           id="path130"
           sodipodi:nodetypes="cccc" />
        <path
           style="opacity:1;fill:#ff0000;stroke:none;stroke-width:1.54944;stroke-linecap:round;stroke-linejoin:round;stroke-miterlimit:5.2;stroke-dasharray:none;stroke-opacity:1;paint-order:normal"
           d="m 96.025579,88.254484 c 15.326341,0 44.146421,-6.039095 57.040841,-17.837579 12.89442,11.798484 41.7145,17.837579 57.04084,17.837579 l -2.06038,1.893953 -54.98046,41.382273 -54.980483,-41.382273 z"
           id="path5"
           sodipodi:nodetypes="ccccccc" />
        <path
           style="color:#000000;fill:#ffbf00;stroke:#a87e00;stroke-width:1.54944;stroke-linecap:round;stroke-linejoin:round;stroke-miterlimit:5.2;stroke-dasharray:none;stroke-opacity:1;paint-order:normal;fill-opacity:1"
           d="m 212.16762,86.360531 c 0,65.427589 -20.54702,101.634359 -59.1012,123.893619 -38.55418,-22.25926 -59.101198,-58.46603 -59.101198,-123.893619 15.326338,0 46.754748,-6.127532 59.101198,-18.473986 12.34645,12.346454 43.77486,18.473986 59.1012,18.473986 z M 98.085937,90.148437 c 0.7822,60.879263 19.593793,94.206583 54.980473,115.443363 35.38668,-21.23678 54.19827,-54.5641 54.98047,-115.443363 -13.59353,-0.708181 -40.45407,-5.382159 -54.98047,-17.201171 -14.5264,11.819012 -41.38694,16.49299 -54.980473,17.201171 z"
           id="path50"
           sodipodi:nodetypes="cccccccccc" />
        <path
           style="font-weight:bold;font-size:22.5876px;line-height:1;font-family:'Noto Kufi Arabic';-inkscape-font-specification:'Noto Kufi Arabic Bold';text-align:center;letter-spacing:0.49863px;word-spacing:0px;text-orientation:sideways;text-anchor:middle;fill:#a87e00;fill-opacity:1;stroke:none;stroke-width:20.3375;stroke-linecap:square;stroke-miterlimit:3.9"
           d="m 243.59466,302.72581 -2.38119,-5.50582 -0.80605,0.17406 c -0.76634,0.16549 -4.3148,0.96702 -3.1062,3.76153 1.00026,2.31287 3.77353,2.11569 5.42769,1.75763 z m -7.21572,-9.77837 c -0.49086,-0.19927 -0.83815,-0.54172 -1.04494,-1.01987 -0.20984,-0.48519 -0.19516,-0.90373 0.0447,-1.25518 0.24633,-0.36093 0.69324,-0.61101 1.34006,-0.75069 0.61697,-0.13323 1.16279,-0.0987 1.64072,0.0955 0.48572,0.1974 0.83664,0.5382 1.04952,1.03042 0.20679,0.47815 0.18177,0.89859 -0.0746,1.26163 -0.24974,0.35364 -0.67292,0.59509 -1.26998,0.72401 -0.63685,0.13751 -1.19968,0.1114 -1.68548,-0.0858 z m -96.85805,19.85182 0.30317,-2.77107 c 0.23156,-2.1165 -0.99097,-3.26212 -4.00839,-3.42696 -2.86336,-0.15642 -5.49087,1.1086 -7.88253,3.79507 l -0.19248,1.75941 z m -44.700353,4.2359 c -0.643819,-0.0872 -1.113257,-0.30294 -1.415357,-0.64093 -0.299379,-0.33495 -0.385959,-0.74479 -0.252741,-1.23583 0.135177,-0.49827 0.423222,-0.87197 0.872155,-1.10592 0.451905,-0.2355 1.008801,-0.30132 1.662839,-0.21272 0.643819,0.0872 1.111476,0.29655 1.402969,0.62802 0.291492,0.33146 0.36867,0.74994 0.231533,1.25543 -0.137135,0.50549 -0.433225,0.86732 -0.884546,1.09301 -0.455775,0.22791 -0.993471,0.30339 -1.616852,0.21894 z m 5.334503,0.72262 c -0.643819,-0.0872 -1.11326,-0.30293 -1.415358,-0.64092 -0.299381,-0.33494 -0.385958,-0.74479 -0.25274,-1.23584 0.135177,-0.49827 0.423221,-0.87197 0.872156,-1.10592 0.451904,-0.2355 1.008802,-0.30131 1.662842,-0.21271 0.65404,0.0886 1.12914,0.29658 1.41829,0.63009 0.29188,0.33666 0.36671,0.75716 0.23154,1.25543 -0.13322,0.49104 -0.43475,0.84597 -0.89694,1.0801 -0.45908,0.23255 -0.99641,0.31422 -1.61979,0.22977 z m -20.48253,-8.74924 c -1.339055,-0.2426 -3.996144,-0.83554 -3.996144,-0.83554 -1.821647,3.39171 -5.551218,4.49825 -11.188715,3.31962 -0.449004,-0.0939 -0.898007,-0.18775 -1.347011,-0.28162 -1.706217,-0.35672 -3.087893,-0.91966 -4.141276,-1.69394 -1.045909,-0.76878 -1.710039,-1.68686 -1.98966,-2.75082 -0.276922,-1.05369 -0.162679,-2.17717 0.336236,-3.36872 0.342452,-0.81787 0.831322,-1.61998 1.464139,-2.4083 0.637417,-0.79405 1.34105,-1.47939 2.113374,-2.05403 l 4.041038,0.84486 c -0.644031,0.70881 -1.238825,1.47038 -1.786234,2.28345 -0.543221,0.80685 -0.969271,1.57628 -1.276297,2.30955 -0.439871,1.05054 -0.412881,1.96261 0.07303,2.74117 0.48825,0.78231 1.342035,1.30423 2.569314,1.56082 0.304324,0.0636 0.60865,0.12724 0.912974,0.19087 1.576505,0.3296 2.858571,0.2633 3.85313,-0.18357 0.99699,-0.44797 1.727705,-1.21069 2.18529,-2.30354 1.378656,-3.29263 4.135984,-9.87789 4.135984,-9.87789 l 4.564876,0.95438 -3.400894,8.12229 c 0,0 2.637109,0.58884 3.966191,0.82925 4.01045,0.72544 8.052204,1.26711 12.086011,1.84881 1.617827,0.2333 4.859304,0.65825 4.859304,0.65825 l 2.256869,-8.31887 4.675351,0.63334 -2.25686,8.31886 c 6.94943,1.16935 13.77833,1.8693 20.59623,2.34832 l 1.57604,-14.40514 4.7619,0.26014 -1.08398,9.90766 c 2.24401,-2.67241 5.27491,-3.90434 9.09272,-3.69578 6.97873,0.38126 7.50619,3.93729 7.23773,6.39101 l -0.29597,2.70509 c 0,0 2.76851,0.18686 4.15499,0.22698 4.04024,0.11691 8.08574,0.1651 12.12573,0.0398 1.32842,-0.0412 3.97869,-0.26018 3.97869,-0.26018 l -0.8745,-6.67716 4.74024,-0.30999 0.8745,6.67716 2.70426,-0.17684 c 2.03499,-0.13306 2.96507,-0.93822 2.72085,-2.803 -0.17787,-1.35813 -0.53362,-4.07438 -0.53362,-4.07438 l 4.74023,-0.30999 0.56815,4.33796 c 0.0479,0.36606 0.0609,0.70489 0.0391,1.01646 1.19664,0.93843 2.17026,1.19831 3.73312,1.0961 l 1.97378,-0.12908 -1.10461,-8.43431 4.74022,-0.30998 1.10464,8.4343 c 6.95302,-0.589 13.56891,-1.56721 20.11792,-2.61544 l -4.18597,-14.1421 4.65965,-0.68868 4.18599,14.1421 c 0,0 2.71121,-0.38731 4.06382,-0.60061 4.03391,-0.63614 8.07196,-1.25664 12.0827,-2.02544 1.4648,-0.28078 4.37357,-0.94449 4.37357,-0.94449 -1.34096,-0.60997 -2.24409,-1.45287 -2.70939,-2.52872 -2.12569,-4.91501 4.73017,-6.76474 6.65442,-7.18028 l 5.44825,-1.17654 4.62555,10.69522 c 0,0 -11.48625,2.6197 -17.27016,3.72947 -4.12246,0.79099 -8.27262,1.43185 -12.41892,2.08649 -4.20517,0.66394 -8.41481,1.30325 -12.63453,1.86733 -7.80569,1.04345 -15.454,2.14265 -23.25991,2.51629 -1.79247,0.11722 -3.52928,-0.33778 -5.21041,-1.365 -1.04387,1.20542 -2.74179,1.88503 -5.09378,2.03884 0,0 -8.31316,0.68596 -12.48002,0.81613 -4.25645,0.13297 -8.51876,0.0859 -12.77553,-0.0363 -9.74176,-0.27975 -19.48616,-0.73349 -29.19379,-1.59485 -4.19887,-0.37257 -8.37086,-1.00397 -12.55146,-1.5443 -4.75585,-0.61468 -9.509884,-1.24546 -14.256008,-1.93119 -4.156291,-0.60051 -8.32027,-1.16311 -12.452452,-1.91174 z M 69.492806,294.75743 c -0.253745,-0.35734 -0.276264,-0.77853 -0.07551,-1.25798 0.203699,-0.48649 0.542631,-0.82988 1.017056,-1.02955 0.487181,-0.20504 1.055183,-0.23945 1.703745,-0.10386 0.618628,0.12933 1.047141,0.37103 1.294044,0.71911 0.251229,0.35418 0.277748,0.77501 0.0711,1.26855 -0.200747,0.47944 -0.549799,0.8204 -1.04699,1.02329 -0.484371,0.19766 -1.025809,0.2341 -1.624491,0.10894 -0.638593,-0.13351 -1.087545,-0.37445 -1.338954,-0.7285 z"
           id="text6"
           aria-label="فــلــســطــيــن"
           sodipodi:nodetypes="ccssscssssssssscsscccssssssssssssssssssscssssssccssssssscccssccccccccsscssccccssccscsccccccccsscssccsssscsssssssssssssssss" />
      </g>
    </g>
  </g>
</svg>
