<?xml version="1.0" encoding="UTF-8" standalone="no"?>
<!-- Created with Inkscape (http://www.inkscape.org/) -->

<svg
   width="2736"
   height="1800"
   viewBox="0 0 723.9 476.25001"
   version="1.1"
   id="svg8"
   inkscape:export-filename="C:\Users\厂永刄先生\Documents\GXI3CW2\JáÈŭcèŭ\Èŭmen\Fa\民.png"
   inkscape:export-xdpi="96"
   inkscape:export-ydpi="96"
   inkscape:version="1.3 (0e150ed6c4, 2023-07-21)"
   sodipodi:docname="ke_1963.svg"
   xmlns:inkscape="http://www.inkscape.org/namespaces/inkscape"
   xmlns:sodipodi="http://sodipodi.sourceforge.net/DTD/sodipodi-0.dtd"
   xmlns="http://www.w3.org/2000/svg"
   xmlns:svg="http://www.w3.org/2000/svg"
   xmlns:rdf="http://www.w3.org/1999/02/22-rdf-syntax-ns#"
   xmlns:cc="http://creativecommons.org/ns#"
   xmlns:dc="http://purl.org/dc/elements/1.1/">
  <defs
     id="defs2" />
  <sodipodi:namedview
     id="base"
     pagecolor="#ffffff"
     bordercolor="#666666"
     borderopacity="1.0"
     inkscape:pageopacity="0.0"
     inkscape:pageshadow="2"
     inkscape:zoom="0.29380764"
     inkscape:cx="1232.0987"
     inkscape:cy="1094.2534"
     inkscape:document-units="px"
     inkscape:current-layer="layer1"
     showgrid="false"
     units="px"
     fit-margin-top="0"
     fit-margin-left="0"
     fit-margin-right="0"
     fit-margin-bottom="0"
     inkscape:showpageshadow="false"
     inkscape:snap-intersection-paths="false"
     inkscape:object-paths="false"
     inkscape:pagecheckerboard="true"
     inkscape:snap-smooth-nodes="true"
     inkscape:window-width="1920"
     inkscape:window-height="1009"
     inkscape:window-x="-8"
     inkscape:window-y="-8"
     inkscape:window-maximized="1"
     inkscape:object-nodes="true"
     inkscape:snap-nodes="true"
     inkscape:deskcolor="#505050" />
  <metadata
     id="metadata5">
    <rdf:RDF>
      <cc:Work
         rdf:about="">
        <dc:format>image/svg+xml</dc:format>
        <dc:type
           rdf:resource="http://purl.org/dc/dcmitype/StillImage" />
      </cc:Work>
    </rdf:RDF>
  </metadata>
  <g
     inkscape:label="レイヤー 1"
     inkscape:groupmode="layer"
     id="layer1"
     transform="translate(112.33452,-299.26786)">
    <path
       sodipodi:nodetypes="ccccc"
       inkscape:connector-curvature="0"
       id="path1"
       d="m -102.80952,465.95536 h 714.37501 v 142.875 h -714.37501 z"
       style="fill:#ce1127;fill-opacity:1;stroke:none;stroke-width:1.40126px;stroke-linecap:butt;stroke-linejoin:miter;stroke-opacity:1" />
    <path
       sodipodi:nodetypes="ccccc"
       inkscape:connector-curvature="0"
       id="path2"
       d="m 611.56549,299.26786 h -714.37501 v 142.875 h 714.37501 z"
       style="fill:#000000;fill-opacity:1;stroke:none;stroke-width:1.40126px;stroke-linecap:butt;stroke-linejoin:miter;stroke-opacity:1" />
    <path
       style="fill:#ffffff;fill-opacity:1;stroke:none;stroke-width:0.511668px;stroke-linecap:butt;stroke-linejoin:miter;stroke-opacity:1"
       d="m -102.80952,299.26786 h -9.525 v 476.25 h 9.525 z"
       id="path1079"
       inkscape:connector-curvature="0"
       sodipodi:nodetypes="ccccc" />
    <path
       sodipodi:nodetypes="ccccc"
       inkscape:connector-curvature="0"
       id="path884"
       d="m 611.56549,632.64286 h -714.37501 v 142.875 h 714.37501 z"
       style="fill:#008c51;fill-opacity:1;stroke:none;stroke-width:1.40126px;stroke-linecap:butt;stroke-linejoin:miter;stroke-opacity:1" />
    <path
       sodipodi:nodetypes="ccccc"
       inkscape:connector-curvature="0"
       id="path3"
       d="m 611.56549,608.83036 h -714.37501 v 23.8125 h 714.37501 z"
       style="fill:#ffffff;fill-opacity:1;stroke:none;stroke-width:0.572063px;stroke-linecap:butt;stroke-linejoin:miter;stroke-opacity:1" />
    <path
       sodipodi:nodetypes="ccccc"
       inkscape:connector-curvature="0"
       id="path4"
       d="m 611.56549,442.14286 h -714.37501 v 23.8125 h 714.37501 z"
       style="fill:#ffffff;fill-opacity:1;stroke:none;stroke-width:0.572063px;stroke-linecap:butt;stroke-linejoin:miter;stroke-opacity:1" />
    <g
       id="g14"
       style="stroke:#000000;stroke-opacity:1;stroke-width:1.90500002;stroke-dasharray:none;paint-order:stroke fill markers">
      <path
         id="path7"
         style="fill:#ffffff;fill-opacity:1;stroke:#000000;stroke-width:1.90500002;stroke-linecap:butt;stroke-linejoin:miter;stroke-opacity:1;stroke-dasharray:none;paint-order:stroke fill markers"
         d="m 350.615,370.70536 c -13.03617,9.65915 -26.76545,26.05125 -35.86602,42.38139 -6.16248,11.05801 -10.09962,21.64235 -7.50807,26.79113 l -137.92957,238.9017 2.57762,1.48828 2.57814,1.48829 137.92957,-238.9017 c 5.75474,-0.33011 12.95265,-9.03167 19.4479,-19.8975 9.59203,-16.04639 16.92344,-36.13236 18.77043,-52.25159 z" />
      <path
         id="path18"
         style="fill:#ffffff;fill-opacity:1;stroke:#000000;stroke-width:1.90500002;stroke-linecap:butt;stroke-linejoin:miter;stroke-opacity:1;stroke-dasharray:none;paint-order:stroke fill markers"
         d="m 158.14097,370.70536 c 13.03617,9.65915 26.76545,26.05125 35.86602,42.38139 6.16248,11.05801 10.09962,21.64235 7.50807,26.79113 l 137.92957,238.9017 -2.57762,1.48828 -2.57814,1.48829 -137.92957,-238.9017 c -5.75474,-0.33011 -12.95265,-9.03167 -19.4479,-19.8975 -9.59203,-16.04639 -16.92344,-36.13236 -18.77043,-52.25159 z" />
    </g>
    <path
       sodipodi:nodetypes="ccccccc"
       inkscape:connector-curvature="0"
       id="path17"
       d="M 307.37383,465.95512 V 608.8306 c -21.16764,42.70702 -52.99585,71.43726 -52.99585,71.43726 0,0 -31.82821,-28.73024 -52.99585,-71.43726 V 465.95512 c 21.16764,-42.70702 52.99585,-71.43726 52.99585,-71.43726 0,0 31.82821,28.73024 52.99585,71.43726 z"
       style="fill:#ce1127;fill-opacity:1;stroke:none;stroke-width:1.40126px;stroke-linecap:butt;stroke-linejoin:miter;stroke-opacity:1" />
    <path
       id="path21"
       style="fill:#000000;fill-opacity:1;stroke:none;stroke-width:1.40126px;stroke-linecap:butt;stroke-linejoin:miter;stroke-opacity:1"
       d="m 201.38213,608.83036 c -10.42118,-21.01936 -18.46968,-45.40285 -18.46968,-71.4375 0,-26.03465 8.0485,-50.41814 18.46968,-71.4375 10.42118,21.01936 18.46968,45.40285 18.46968,71.4375 0,26.03465 -8.0485,50.41814 -18.46968,71.4375 z"
       sodipodi:nodetypes="czczc" />
    <path
       id="path22"
       style="fill:#000000;fill-opacity:1;stroke:none;stroke-width:1.40126px;stroke-linecap:butt;stroke-linejoin:miter;stroke-opacity:1"
       d="m 307.37383,608.83036 c -10.42118,-21.01936 -18.46968,-45.40285 -18.46968,-71.4375 0,-26.03465 8.0485,-50.41814 18.46968,-71.4375 10.42118,21.01936 18.46968,45.40285 18.46968,71.4375 0,26.03465 -8.0485,50.41814 -18.46968,71.4375 z"
       sodipodi:nodetypes="czczc" />
    <ellipse
       style="opacity:1;fill:#ffffff;fill-opacity:1;stroke:none;stroke-width:0.519314;stroke-miterlimit:5.2;stroke-dasharray:none;stroke-opacity:1;paint-order:stroke fill markers"
       id="path23"
       cx="254.37798"
       cy="537.39288"
       rx="11.90625"
       ry="17.859375" />
    <path
       id="path26"
       style="fill:#ffffff;fill-opacity:1;stroke:none;stroke-width:1.0404px;stroke-linecap:butt;stroke-linejoin:miter;stroke-opacity:1"
       d="m 251.40141,519.5335 c -6.71789,-17.97494 -11.90625,-38.82674 -11.90625,-61.09056 0,-22.26381 5.18836,-43.11562 11.90625,-61.09055 z"
       sodipodi:nodetypes="czcc" />
    <path
       id="path27"
       style="fill:#ffffff;fill-opacity:1;stroke:none;stroke-width:1.0404px;stroke-linecap:butt;stroke-linejoin:miter;stroke-opacity:1"
       d="m 257.35455,519.5335 c 6.71789,-17.97494 11.90625,-38.82674 11.90625,-61.09056 0,-22.26381 -5.18836,-43.11562 -11.90625,-61.09055 z"
       sodipodi:nodetypes="czcc" />
    <path
       id="path28"
       style="fill:#ffffff;fill-opacity:1;stroke:none;stroke-width:1.0404px;stroke-linecap:butt;stroke-linejoin:miter;stroke-opacity:1"
       d="m 251.40141,555.25222 c -6.71789,17.97494 -11.90625,38.82674 -11.90625,61.09056 0,22.26381 5.18836,43.11562 11.90625,61.09055 z"
       sodipodi:nodetypes="czcc" />
    <path
       id="path29"
       style="fill:#ffffff;fill-opacity:1;stroke:none;stroke-width:1.0404px;stroke-linecap:butt;stroke-linejoin:miter;stroke-opacity:1"
       d="m 257.35455,555.25222 c 6.71789,17.97494 11.90625,38.82674 11.90625,61.09056 0,22.26381 -5.18836,43.11562 -11.90625,61.09055 z"
       sodipodi:nodetypes="czcc" />
  </g>
</svg>
