<?xml version="1.0" encoding="UTF-8" standalone="no"?>
<!-- Created with Inkscape (http://www.inkscape.org/) -->

<svg
   width="3636"
   height="1800.0002"
   viewBox="0 0 962.02499 476.25007"
   version="1.1"
   id="svg8"
   inkscape:export-filename="C:\Users\drk22\Documents\GXI3CW2\JáÈŭcèŭ\Ùk̕alē\1929.png"
   inkscape:export-xdpi="96"
   inkscape:export-ydpi="96"
   inkscape:version="1.3 (0e150ed6c4, 2023-07-21)"
   sodipodi:docname="1929.svg"
   xmlns:inkscape="http://www.inkscape.org/namespaces/inkscape"
   xmlns:sodipodi="http://sodipodi.sourceforge.net/DTD/sodipodi-0.dtd"
   xmlns="http://www.w3.org/2000/svg"
   xmlns:svg="http://www.w3.org/2000/svg"
   xmlns:rdf="http://www.w3.org/1999/02/22-rdf-syntax-ns#"
   xmlns:cc="http://creativecommons.org/ns#"
   xmlns:dc="http://purl.org/dc/elements/1.1/">
  <defs
     id="defs2" />
  <sodipodi:namedview
     id="base"
     pagecolor="#ffffff"
     bordercolor="#666666"
     borderopacity="1.0"
     inkscape:pageopacity="0.0"
     inkscape:pageshadow="2"
     inkscape:zoom="0.12266227"
     inkscape:cx="758.17938"
     inkscape:cy="-770.40808"
     inkscape:document-units="px"
     inkscape:current-layer="text828"
     showgrid="false"
     units="px"
     fit-margin-top="0"
     fit-margin-left="0"
     fit-margin-right="0"
     fit-margin-bottom="0"
     inkscape:showpageshadow="false"
     inkscape:snap-intersection-paths="false"
     inkscape:object-paths="false"
     inkscape:pagecheckerboard="true"
     inkscape:snap-smooth-nodes="false"
     inkscape:window-width="1080"
     inkscape:window-height="1849"
     inkscape:window-x="1912"
     inkscape:window-y="-8"
     inkscape:window-maximized="1"
     inkscape:object-nodes="true"
     inkscape:snap-nodes="true"
     inkscape:deskcolor="#505050" />
  <metadata
     id="metadata5">
    <rdf:RDF>
      <cc:Work
         rdf:about="">
        <dc:format>image/svg+xml</dc:format>
        <dc:type
           rdf:resource="http://purl.org/dc/dcmitype/StillImage" />
      </cc:Work>
    </rdf:RDF>
  </metadata>
  <g
     inkscape:label="レイヤー 1"
     inkscape:groupmode="layer"
     id="layer1"
     transform="translate(112.33452,-299.26786)">
    <path
       style="fill:#ffffff;fill-opacity:1;stroke:none;stroke-width:0.51166773px;stroke-linecap:butt;stroke-linejoin:miter;stroke-opacity:1"
       d="m -102.80952,299.26786 h -9.525 v 476.25 h 9.525 z"
       id="path1079"
       inkscape:connector-curvature="0"
       sodipodi:nodetypes="ccccc" />
    <path
       sodipodi:nodetypes="ccccc"
       inkscape:connector-curvature="0"
       id="path822"
       d="m 849.69048,299.26786 h -952.5 v 476.25 h 952.5 z"
       style="fill:#cd0000;fill-opacity:1;stroke:none;stroke-width:1.54746151px;stroke-linecap:butt;stroke-linejoin:miter;stroke-opacity:1" />
    <g
       aria-label="У.С.Р.Р."
       style="font-style:normal;font-variant:normal;font-weight:normal;font-stretch:normal;font-size:1.76388884px;line-height:1.25;font-family:Impact;-inkscape-font-specification:Impact;text-align:center;letter-spacing:0px;word-spacing:0px;text-anchor:middle;fill:#ffc200;fill-opacity:1;stroke:none;stroke-width:0.26458332"
       id="text828"
       transform="matrix(1.9080733,0,0,1.9080733,69.413791,-660.21548)">
      <path
         style="font-weight:bold;font-size:55.4661px;font-family:Arial;-inkscape-font-specification:'Arial Bold';fill:#ffd900;stroke-width:0.0398887"
         d="m -69.823427,492.66306 h 8.964491 l 9.262406,20.61021 7.908252,-20.61021 h 8.368664 l -13.406112,30.17053 q -2.193728,4.90203 -4.468705,7.47492 -2.274976,2.54581 -5.877023,2.54581 -3.54788,0 -5.552026,-0.46042 v -5.95827 q 1.706232,0.10833 3.087468,0.10833 2.789555,0 3.981209,-1.00207 1.218738,-1.02915 2.329143,-4.38745 z m 31.55176,39.70376 v -7.61034 h 7.610339 v 7.61034 z m 40.8683338,-14.59777 7.7728372,2.46456 q -1.7874818,6.49994 -5.9582724,9.66865 -4.14370757,3.14164 -10.5353088,3.14164 -7.9082528,0 -12.9998668,-5.38953 -5.091615,-5.41661 -5.091615,-14.78735 0,-9.9124 5.118698,-15.38317 5.118698,-5.49787 13.4602788,-5.49787 7.2853421,0 11.8352955,4.30621 2.7083056,2.54581 4.0624587,7.31243 l -7.9353357,1.89581 Q 1.6216768,502.41296 -0.62621682,500.62548 -2.8470274,498.838 -6.042828,498.838 q -4.414538,0 -7.17701,3.16872 -2.735389,3.16871 -2.735389,10.26447 0,7.52909 2.708306,10.72489 2.708306,3.1958 7.0415946,3.1958 3.1958006,0 5.49786041,-2.03122 2.30205979,-2.03123 3.30413279,-6.39161 z m 14.5977672,14.59777 v -7.61034 h 7.610338 v 7.61034 z m 40.868328,-14.59777 7.772837,2.46456 q -1.787482,6.49994 -5.958272,9.66865 -4.143708,3.14164 -10.535309,3.14164 -7.908253,0 -12.999867,-5.38953 -5.091615,-5.41661 -5.091615,-14.78735 0,-9.9124 5.118698,-15.38317 5.118698,-5.49787 13.460279,-5.49787 7.285342,0 11.835295,4.30621 2.708306,2.54581 4.062459,7.31243 l -7.935336,1.89581 q -0.704159,-3.08747 -2.952053,-4.87495 -2.22081,-1.78748 -5.416611,-1.78748 -4.414538,0 -7.17701,3.16872 -2.735389,3.16871 -2.735389,10.26447 0,7.52909 2.708306,10.72489 2.708306,3.1958 7.041595,3.1958 3.1958,0 5.49786,-2.03122 2.30206,-2.03123 3.304133,-6.39161 z m 14.597767,14.59777 v -7.61034 h 7.610338 v 7.61034 z m 15.464429,0 v -39.70376 h 12.864452 q 7.31242,0 9.53324,0.59583 3.41246,0.89374 5.71452,3.89996 2.30206,2.97913 2.30206,7.71867 0,3.65621 -1.32707,6.14785 -1.32707,2.49164 -3.38538,3.92705 -2.03123,1.40832 -4.14371,1.86873 -2.8708,0.56874 -8.3145,0.56874 h -5.227028 v 14.97693 z m 8.016584,-32.98716 v 11.26655 H 100.529 q 4.73953,0 6.33743,-0.62291 1.5979,-0.62291 2.49164,-1.94998 0.92083,-1.32707 0.92083,-3.08747 0,-2.16664 -1.27291,-3.57496 -1.2729,-1.40832 -3.22288,-1.7604 -1.4354,-0.27083 -5.76869,-0.27083 z m 20.610208,32.98716 v -7.61034 h 7.61033 v 7.61034 z"
         id="text825"
         transform="scale(0.9197729,1.0872249)"
         aria-label="У.С.С.Р." />
    </g>
  </g>
</svg>
