<?xml version="1.0" encoding="UTF-8" standalone="no"?>
<!-- Created with Inkscape (http://www.inkscape.org/) -->

<svg
   xmlns:dc="http://purl.org/dc/elements/1.1/"
   xmlns:cc="http://creativecommons.org/ns#"
   xmlns:rdf="http://www.w3.org/1999/02/22-rdf-syntax-ns#"
   xmlns:svg="http://www.w3.org/2000/svg"
   xmlns="http://www.w3.org/2000/svg"
   xmlns:sodipodi="http://sodipodi.sourceforge.net/DTD/sodipodi-0.dtd"
   xmlns:inkscape="http://www.inkscape.org/namespaces/inkscape"
   width="2736"
   height="1800"
   viewBox="0 0 723.89999 476.25001"
   version="1.1"
   id="svg8"
   inkscape:export-filename="C:\Users\厂永刄先生\Documents\GXI3CW2\,pjóŭ\Oucraïne.png"
   inkscape:export-xdpi="96"
   inkscape:export-ydpi="96"
   inkscape:version="0.92.4 (5da689c313, 2019-01-14)"
   sodipodi:docname="U1K'ALE3.svg">
  <defs
     id="defs2" />
  <sodipodi:namedview
     id="base"
     pagecolor="#ffffff"
     bordercolor="#666666"
     borderopacity="1.0"
     inkscape:pageopacity="0.0"
     inkscape:pageshadow="2"
     inkscape:zoom="0.33705423"
     inkscape:cx="1583.2331"
     inkscape:cy="701.84384"
     inkscape:document-units="px"
     inkscape:current-layer="layer1"
     showgrid="false"
     units="px"
     fit-margin-top="0"
     fit-margin-left="0"
     fit-margin-right="0"
     fit-margin-bottom="0"
     inkscape:showpageshadow="false"
     inkscape:snap-intersection-paths="true"
     inkscape:object-paths="false"
     inkscape:pagecheckerboard="true"
     inkscape:snap-smooth-nodes="true"
     inkscape:window-width="1920"
     inkscape:window-height="1051"
     inkscape:window-x="-9"
     inkscape:window-y="-9"
     inkscape:window-maximized="1"
     inkscape:object-nodes="true"
     inkscape:snap-nodes="true" />
  <metadata
     id="metadata5">
    <rdf:RDF>
      <cc:Work
         rdf:about="">
        <dc:format>image/svg+xml</dc:format>
        <dc:type
           rdf:resource="http://purl.org/dc/dcmitype/StillImage" />
        <dc:title />
      </cc:Work>
    </rdf:RDF>
  </metadata>
  <g
     inkscape:label="レイヤー 1"
     inkscape:groupmode="layer"
     id="layer1"
     transform="translate(112.33452,-299.26786)">
    <path
       sodipodi:nodetypes="ccccc"
       inkscape:connector-curvature="0"
       id="path822"
       d="m 611.56548,775.51786 h -714.375 v -238.125 h 714.375 z"
       style="fill:#ffd700;fill-opacity:1;stroke:none;stroke-width:0.94762278px;stroke-linecap:butt;stroke-linejoin:miter;stroke-opacity:1" />
    <path
       style="fill:#0057b7;fill-opacity:1;stroke:none;stroke-width:0.94762278px;stroke-linecap:butt;stroke-linejoin:miter;stroke-opacity:1"
       d="m 611.56548,537.39286 h -714.375 v -238.125 h 714.375 z"
       id="path837"
       inkscape:connector-curvature="0"
       sodipodi:nodetypes="ccccc" />
    <path
       sodipodi:nodetypes="cscscc"
       inkscape:connector-curvature="0"
       id="path823"
       d="m 367.29642,418.33036 v 183.06598 c 0,52.1283 -68.01923,32.12276 -112.91844,72.09477 C 209.47877,633.5191 141.45954,653.52464 141.45954,601.39634 V 418.33036 Z"
       style="display:inline;fill:#0057b7;fill-opacity:1;stroke:#ffd700;stroke-width:4.76249981;stroke-linecap:round;stroke-linejoin:miter;stroke-miterlimit:4;stroke-dasharray:none;stroke-opacity:1;paint-order:normal" />
    <g
       id="g881"
       transform="translate(3.05e-4,-0.89288072)">
      <path
         sodipodi:nodetypes="ssscssscs"
         inkscape:connector-curvature="0"
         id="path873"
         d="m 278.61174,598.48756 c 0,-19.67391 -17.03632,-41.41034 -21.87346,-59.46279 -5.11357,-19.08409 2.93077,-53.24372 2.93077,-76.28881 0,-6.67165 -5.29137,-19.14991 -5.29137,-19.14991 0,0 -5.29137,12.47826 -5.29137,19.14991 0,23.04509 8.04434,57.20472 2.93077,76.28881 -4.83714,18.05245 -21.87346,39.78888 -21.87346,59.46279 0,24.86106 24.23406,49.3036 24.23406,49.3036 0,0 24.23406,-24.44254 24.23406,-49.3036 z"
         style="fill:none;stroke:#ffd700;stroke-width:10.58333302;stroke-linecap:butt;stroke-linejoin:miter;stroke-miterlimit:4;stroke-dasharray:none;stroke-opacity:1" />
      <path
         sodipodi:nodetypes="cccssscssscccc"
         inkscape:connector-curvature="0"
         id="path875"
         d="M 184.37578,609.81395 V 462.73596 c 11.9825,0 32.88621,18.87655 32.88621,80.66484 -8.76752,0 -15.875,7.10748 -15.875,15.875 0,8.76752 7.10748,15.87501 15.875,15.87501 26.48342,0 37.11569,5.38888 37.11569,29.37147 v 43.26888 -43.26888 c 0,-23.98259 10.63227,-29.37147 37.11569,-29.37147 8.76752,0 15.875,-7.10749 15.875,-15.87501 0,-8.76752 -7.10748,-15.875 -15.875,-15.875 0,-61.78829 20.9037,-80.66484 32.8862,-80.66484 v 147.07799 z"
         style="fill:none;stroke:#ffd700;stroke-width:10.58333302;stroke-linecap:butt;stroke-linejoin:miter;stroke-miterlimit:4;stroke-dasharray:none;stroke-opacity:1" />
      <path
         sodipodi:nodetypes="cc"
         inkscape:connector-curvature="0"
         id="path877"
         d="M 201.38699,559.2758 H 184.37578"
         style="fill:none;stroke:#ffd700;stroke-width:10.58333302;stroke-linecap:butt;stroke-linejoin:miter;stroke-miterlimit:4;stroke-dasharray:none;stroke-opacity:1" />
      <path
         sodipodi:nodetypes="cc"
         style="fill:none;stroke:#ffd700;stroke-width:10.58333302;stroke-linecap:butt;stroke-linejoin:miter;stroke-miterlimit:4;stroke-dasharray:none;stroke-opacity:1"
         d="m 324.37957,559.2758 h -17.0112"
         id="path879"
         inkscape:connector-curvature="0" />
    </g>
    <path
       style="fill:#ffffff;fill-opacity:1;stroke:none;stroke-width:0.51166773px;stroke-linecap:butt;stroke-linejoin:miter;stroke-opacity:1"
       d="m -102.80952,299.26786 h -9.525 v 476.25 h 9.525 z"
       id="path1079"
       inkscape:connector-curvature="0"
       sodipodi:nodetypes="ccccc" />
  </g>
</svg>
