<?xml version="1.0" encoding="UTF-8" standalone="no"?>
<!-- Created with Inkscape (http://www.inkscape.org/) -->

<svg
   width="3636"
   height="1800.0002"
   viewBox="0 0 962.02499 476.25007"
   version="1.1"
   id="svg8"
   inkscape:export-filename="C:\Users\drk22\Documents\GXI3CW2\JáÈŭcèŭ\Ùk̕alē\1929.png"
   inkscape:export-xdpi="96"
   inkscape:export-ydpi="96"
   inkscape:version="1.3 (0e150ed6c4, 2023-07-21)"
   sodipodi:docname="1929.svg"
   xmlns:inkscape="http://www.inkscape.org/namespaces/inkscape"
   xmlns:sodipodi="http://sodipodi.sourceforge.net/DTD/sodipodi-0.dtd"
   xmlns="http://www.w3.org/2000/svg"
   xmlns:svg="http://www.w3.org/2000/svg"
   xmlns:rdf="http://www.w3.org/1999/02/22-rdf-syntax-ns#"
   xmlns:cc="http://creativecommons.org/ns#"
   xmlns:dc="http://purl.org/dc/elements/1.1/">
  <defs
     id="defs2" />
  <sodipodi:namedview
     id="base"
     pagecolor="#ffffff"
     bordercolor="#666666"
     borderopacity="1.0"
     inkscape:pageopacity="0.0"
     inkscape:pageshadow="2"
     inkscape:zoom="0.34694129"
     inkscape:cx="853.17028"
     inkscape:cy="177.26342"
     inkscape:document-units="px"
     inkscape:current-layer="layer1"
     showgrid="false"
     units="px"
     fit-margin-top="0"
     fit-margin-left="0"
     fit-margin-right="0"
     fit-margin-bottom="0"
     inkscape:showpageshadow="false"
     inkscape:snap-intersection-paths="false"
     inkscape:object-paths="false"
     inkscape:pagecheckerboard="true"
     inkscape:snap-smooth-nodes="false"
     inkscape:window-width="1920"
     inkscape:window-height="1051"
     inkscape:window-x="-9"
     inkscape:window-y="-9"
     inkscape:window-maximized="1"
     inkscape:object-nodes="true"
     inkscape:snap-nodes="true"
     inkscape:deskcolor="#505050" />
  <metadata
     id="metadata5">
    <rdf:RDF>
      <cc:Work
         rdf:about="">
        <dc:format>image/svg+xml</dc:format>
        <dc:type
           rdf:resource="http://purl.org/dc/dcmitype/StillImage" />
      </cc:Work>
    </rdf:RDF>
  </metadata>
  <g
     inkscape:label="レイヤー 1"
     inkscape:groupmode="layer"
     id="layer1"
     transform="translate(112.33452,-299.26786)">
    <path
       style="fill:#ffffff;fill-opacity:1;stroke:none;stroke-width:0.51166773px;stroke-linecap:butt;stroke-linejoin:miter;stroke-opacity:1"
       d="m -102.80952,299.26786 h -9.525 v 476.25 h 9.525 z"
       id="path1079"
       inkscape:connector-curvature="0"
       sodipodi:nodetypes="ccccc" />
    <path
       sodipodi:nodetypes="ccccc"
       inkscape:connector-curvature="0"
       id="path822"
       d="m 849.69048,299.26786 h -952.5 v 476.25 h 952.5 z"
       style="fill:#cd0000;fill-opacity:1;stroke:none;stroke-width:1.54746151px;stroke-linecap:butt;stroke-linejoin:miter;stroke-opacity:1" />
    <path
       style="font-style:normal;font-variant:normal;font-weight:bold;font-stretch:normal;font-size:55.4661px;line-height:1.25;font-family:Arial;-inkscape-font-specification:'Arial Bold';text-align:center;letter-spacing:0px;word-spacing:0px;text-anchor:middle;fill:#ffd900;fill-opacity:1;stroke:none;stroke-width:0.0761106"
       d="m -53.125911,361.8164 h 15.732628 l 16.255468,42.75598 13.8789359,-42.75598 H 7.4280768 l -23.5276478,62.58891 c -2.566653,6.77953 -5.180836,11.94845 -7.842551,15.50676 -2.661713,3.52086 -6.099759,5.28129 -10.31414,5.28129 -4.151006,0 -7.39893,-0.31838 -9.743773,-0.95514 v -12.36046 c 1.996285,0.14982 3.802447,0.22473 5.418488,0.22473 3.263769,0 5.592768,-0.69293 6.986998,-2.0788 1.425919,-1.42331 2.788463,-4.45724 4.087633,-9.10178 z M 2.2472412,444.18204 V 428.39436 H 15.603341 v 15.78768 z"
       id="text825"
       aria-label="У.С.С.Р."
       sodipodi:nodetypes="cccccccsccscccccccc" />
    <path
       style="font-style:normal;font-variant:normal;font-weight:bold;font-stretch:normal;font-size:55.4661px;line-height:1.25;font-family:Arial;-inkscape-font-specification:'Arial Bold';text-align:center;letter-spacing:0px;word-spacing:0px;text-anchor:middle;fill:#ffd900;fill-opacity:1;stroke:none;stroke-width:0.0761106"
       d="m 73.453491,413.8989 13.641283,5.11274 c -2.091347,8.98944 -5.576924,15.67533 -10.456733,20.05766 -4.848121,4.3449 -11.011256,6.51735 -18.489404,6.51735 -9.252625,0 -16.857521,-3.72687 -22.81469,-11.18061 -5.957169,-7.49119 -8.935754,-17.71666 -8.935754,-30.67643 0,-13.70888 2.994428,-24.34637 8.983285,-31.91246 5.988856,-7.60357 13.863092,-11.40535 23.622709,-11.40535 8.523822,0 15.447447,2.97775 20.770874,8.93325 3.168707,3.52087 5.545238,8.57742 7.129591,15.16967 l -13.926467,3.93287 c -0.823864,-4.26998 -2.550809,-7.64102 -5.180836,-10.11311 -2.598339,-2.47209 -5.767046,-3.70813 -9.50612,-3.70813 -5.164993,0 -9.36353,2.19117 -12.595611,6.57352 -3.200394,4.38233 -4.800591,11.48023 -4.800591,21.29369 0,10.41276 1.584354,17.82904 4.753061,22.24884 3.168707,4.4198 7.288026,6.6297 12.357957,6.6297 3.739074,0 6.955311,-1.40459 9.648712,-4.21377 2.693401,-2.8092 4.626313,-7.22901 5.798734,-13.25943 z m 25.618992,30.28314 v -15.78768 h 13.356097 v 15.78768 z"
       id="path1"
       aria-label="У.С.С.Р."
       sodipodi:nodetypes="cccscscsccccscsssscccccc" />
    <path
       style="font-style:normal;font-variant:normal;font-weight:bold;font-stretch:normal;font-size:55.4661px;line-height:1.25;font-family:Arial;-inkscape-font-specification:'Arial Bold';text-align:center;letter-spacing:0px;word-spacing:0px;text-anchor:middle;fill:#ffd900;fill-opacity:1;stroke:none;stroke-width:0.0761106"
       d="M 202.90589,444.18204 V 361.8164 h 22.57704 c 8.5555,0 14.13243,0.41202 16.73078,1.23605 3.99257,1.23605 7.33555,3.93288 10.02895,8.09049 2.6934,4.12015 4.0401,9.45762 4.0401,16.01242 0,5.05655 -0.77633,9.30779 -2.329,12.75374 -1.55267,3.44595 -3.53311,6.16151 -5.94132,8.14669 -2.37653,1.94771 -4.8006,3.23994 -7.27219,3.87669 -3.35883,0.78657 -8.22279,1.17985 -14.5919,1.17985 h -9.1734 v 31.06971 z m 14.06906,-68.43202 v 23.37251 h 7.69996 c 5.54523,0 9.25262,-0.43074 11.12216,-1.29223 1.86953,-0.86149 3.32714,-2.2099 4.37281,-4.04524 1.07737,-1.83534 1.61605,-3.97033 1.61605,-6.40497 0,-2.99647 -0.74465,-5.46856 -2.23395,-7.41627 -1.48929,-1.94771 -3.37467,-3.16503 -5.65614,-3.65196 -1.67941,-0.37456 -5.05408,-0.56184 -10.12401,-0.56184 z m 30.87912,68.43202 v -15.78768 h 13.35609 v 15.78768 z"
       id="path2"
       aria-label="У.С.С.Р."
       sodipodi:nodetypes="ccsccssccscccccsscsscscccccc" />
    <path
       style="font-style:normal;font-variant:normal;font-weight:bold;font-stretch:normal;font-size:55.4661px;line-height:1.25;font-family:Arial;-inkscape-font-specification:'Arial Bold';text-align:center;letter-spacing:0px;word-spacing:0px;text-anchor:middle;fill:#ffd900;fill-opacity:1;stroke:none;stroke-width:0.0761106"
       d="M 128.5151,444.18204 V 361.8164 h 22.57704 c 8.5555,0 14.13243,0.41202 16.73078,1.23605 3.99257,1.23605 7.33555,3.93288 10.02895,8.09049 2.6934,4.12015 4.0401,9.45762 4.0401,16.01242 0,5.05655 -0.77633,9.30779 -2.329,12.75374 -1.55267,3.44595 -3.53311,6.16151 -5.94132,8.14669 -2.37653,1.94771 -4.8006,3.23994 -7.27219,3.87669 -3.35883,0.78657 -8.22279,1.17985 -14.5919,1.17985 h -9.1734 v 31.06971 z m 14.06906,-68.43202 v 23.37251 h 7.69996 c 5.54523,0 9.25262,-0.43074 11.12216,-1.29223 1.86953,-0.86149 3.32714,-2.2099 4.37281,-4.04524 1.07737,-1.83534 1.61605,-3.97033 1.61605,-6.40497 0,-2.99647 -0.74465,-5.46856 -2.23395,-7.41627 -1.48929,-1.94771 -3.37467,-3.16503 -5.65614,-3.65196 -1.67941,-0.37456 -5.05408,-0.56184 -10.12401,-0.56184 z m 30.87912,68.43202 v -15.78768 h 13.35609 v 15.78768 z"
       id="path3"
       aria-label="У.С.С.Р."
       sodipodi:nodetypes="ccsccssccscccccsscsscscccccc" />
  </g>
</svg>
