<?xml version="1.0" encoding="UTF-8" standalone="no"?>
<!-- Created with Inkscape (http://www.inkscape.org/) -->

<svg
   xmlns:dc="http://purl.org/dc/elements/1.1/"
   xmlns:cc="http://creativecommons.org/ns#"
   xmlns:rdf="http://www.w3.org/1999/02/22-rdf-syntax-ns#"
   xmlns:svg="http://www.w3.org/2000/svg"
   xmlns="http://www.w3.org/2000/svg"
   xmlns:sodipodi="http://sodipodi.sourceforge.net/DTD/sodipodi-0.dtd"
   xmlns:inkscape="http://www.inkscape.org/namespaces/inkscape"
   width="1476.9659"
   height="1677.9415"
   viewBox="0 0 390.78057 443.95537"
   version="1.1"
   id="svg8"
   inkscape:export-filename="C:\Users\厂永刄先生\Documents\GXI3CW2\JáÈŭcèŭ\N̂i\03-岩手県\章ﾈｵﾝ.png"
   inkscape:export-xdpi="96"
   inkscape:export-ydpi="96"
   inkscape:version="0.92.4 (5da689c313, 2019-01-14)"
   sodipodi:docname="章ﾈｵﾝ.svg">
  <defs
     id="defs2">
    <marker
       inkscape:isstock="true"
       style="overflow:visible"
       id="marker1498"
       refX="0"
       refY="0"
       orient="auto"
       inkscape:stockid="Arrow1Lend">
      <path
         transform="matrix(-0.8,0,0,-0.8,-10,0)"
         style="fill:#000000;fill-opacity:1;fill-rule:evenodd;stroke:#000000;stroke-width:1.00000003pt;stroke-opacity:1"
         d="M 0,0 5,-5 -12.5,0 5,5 Z"
         id="path1496"
         inkscape:connector-curvature="0" />
    </marker>
    <marker
       inkscape:isstock="true"
       style="overflow:visible"
       id="marker1458"
       refX="0"
       refY="0"
       orient="auto"
       inkscape:stockid="Arrow1Lstart">
      <path
         transform="matrix(0.8,0,0,0.8,10,0)"
         style="fill:#000000;fill-opacity:1;fill-rule:evenodd;stroke:#000000;stroke-width:1.00000003pt;stroke-opacity:1"
         d="M 0,0 5,-5 -12.5,0 5,5 Z"
         id="path1456"
         inkscape:connector-curvature="0" />
    </marker>
    <marker
       inkscape:stockid="Arrow1Lend"
       orient="auto"
       refY="0"
       refX="0"
       id="Arrow1Lend"
       style="overflow:visible"
       inkscape:isstock="true">
      <path
         id="path967"
         d="M 0,0 5,-5 -12.5,0 5,5 Z"
         style="fill:#000000;fill-opacity:1;fill-rule:evenodd;stroke:#000000;stroke-width:1.00000003pt;stroke-opacity:1"
         transform="matrix(-0.8,0,0,-0.8,-10,0)"
         inkscape:connector-curvature="0" />
    </marker>
    <marker
       inkscape:stockid="Arrow1Lstart"
       orient="auto"
       refY="0"
       refX="0"
       id="Arrow1Lstart"
       style="overflow:visible"
       inkscape:isstock="true">
      <path
         id="path964"
         d="M 0,0 5,-5 -12.5,0 5,5 Z"
         style="fill:#000000;fill-opacity:1;fill-rule:evenodd;stroke:#000000;stroke-width:1.00000003pt;stroke-opacity:1"
         transform="matrix(0.8,0,0,0.8,10,0)"
         inkscape:connector-curvature="0" />
    </marker>
    <filter
       inkscape:collect="always"
       style="color-interpolation-filters:sRGB"
       id="filter880"
       x="-0.025856553"
       width="1.0517131"
       y="-0.022392195"
       height="1.0447844">
      <feGaussianBlur
         inkscape:collect="always"
         stdDeviation="3.702876"
         id="feGaussianBlur882" />
    </filter>
    <filter
       inkscape:collect="always"
       style="color-interpolation-filters:sRGB"
       id="filter886"
       x="-0.045248967"
       width="1.0904979"
       y="-0.03918634"
       height="1.0783727">
      <feGaussianBlur
         inkscape:collect="always"
         stdDeviation="6.4800329"
         id="feGaussianBlur888" />
    </filter>
    <filter
       inkscape:collect="always"
       style="color-interpolation-filters:sRGB"
       id="filter892"
       x="-0.064641386"
       width="1.1292828"
       y="-0.055980489"
       height="1.111961">
      <feGaussianBlur
         inkscape:collect="always"
         stdDeviation="9.2571899"
         id="feGaussianBlur894" />
    </filter>
  </defs>
  <sodipodi:namedview
     id="base"
     pagecolor="#000000"
     bordercolor="#666666"
     borderopacity="1.0"
     inkscape:pageopacity="1"
     inkscape:pageshadow="2"
     inkscape:zoom="0.32615053"
     inkscape:cx="738.48293"
     inkscape:cy="838.97079"
     inkscape:document-units="px"
     inkscape:current-layer="layer1"
     showgrid="false"
     units="px"
     fit-margin-top="5"
     fit-margin-left="5"
     fit-margin-right="5"
     fit-margin-bottom="5"
     inkscape:showpageshadow="false"
     inkscape:snap-intersection-paths="true"
     inkscape:object-paths="false"
     inkscape:pagecheckerboard="true"
     inkscape:snap-smooth-nodes="false"
     inkscape:window-width="1366"
     inkscape:window-height="745"
     inkscape:window-x="-8"
     inkscape:window-y="-8"
     inkscape:window-maximized="1"
     inkscape:object-nodes="true"
     inkscape:snap-nodes="true"
     showguides="true"
     inkscape:guide-bbox="true" />
  <metadata
     id="metadata5">
    <rdf:RDF>
      <cc:Work
         rdf:about="">
        <dc:format>image/svg+xml</dc:format>
        <dc:type
           rdf:resource="http://purl.org/dc/dcmitype/StillImage" />
        <dc:title></dc:title>
      </cc:Work>
    </rdf:RDF>
  </metadata>
  <g
     inkscape:label="レイヤー 1"
     inkscape:groupmode="layer"
     id="layer1"
     transform="translate(-118.35539,-246.86396)">
    <path
       sodipodi:nodetypes="ccccccccccccccccccccccccccccccc"
       inkscape:connector-curvature="0"
       id="path890"
       d="m 290.83022,389.46669 22.91358,39.68751 22.9136,-39.68751 -22.9136,-39.68749 m -22.91358,198.43738 22.91358,39.6875 22.9136,-39.6875 -22.9136,-39.68751 m 45.82721,-79.37487 h 45.82718 l 34.37028,-59.53113 45.82728,-1.4e-4 m -285.71983,98.00614 -57.98036,-98.006 h 45.82358 l 34.37028,59.53113 h 45.82722 L 245.00302,389.46669 313.7438,270.40413 382.48461,389.46669 M 313.7438,667.27913 245.00302,548.21658 267.91664,508.52907 m -126.02108,59.53113 57.98036,-98.00601 227.73574,-1e-5 57.98409,98.00616 m -45.82728,-1.4e-4 -34.37028,-59.53113 m -45.82718,0 22.9136,39.68751"
       style="fill:none;fill-opacity:1;stroke:#01ffd2;stroke-width:10.58333302;stroke-linecap:round;stroke-linejoin:round;stroke-miterlimit:4;stroke-dasharray:none;stroke-opacity:1;filter:url(#filter892)" />
    <path
       style="fill:none;fill-opacity:1;stroke:#01ffd2;stroke-width:10.58333302;stroke-linecap:round;stroke-linejoin:round;stroke-miterlimit:4;stroke-dasharray:none;stroke-opacity:1;filter:url(#filter886)"
       d="m 290.83022,389.46669 22.91358,39.68751 22.9136,-39.68751 -22.9136,-39.68749 m -22.91358,198.43738 22.91358,39.6875 22.9136,-39.6875 -22.9136,-39.68751 m 45.82721,-79.37487 h 45.82718 l 34.37028,-59.53113 45.82728,-1.4e-4 m -285.71983,98.00614 -57.98036,-98.006 h 45.82358 l 34.37028,59.53113 h 45.82722 L 245.00302,389.46669 313.7438,270.40413 382.48461,389.46669 M 313.7438,667.27913 245.00302,548.21658 267.91664,508.52907 m -126.02108,59.53113 57.98036,-98.00601 227.73574,-1e-5 57.98409,98.00616 m -45.82728,-1.4e-4 -34.37028,-59.53113 m -45.82718,0 22.9136,39.68751"
       id="path884"
       inkscape:connector-curvature="0"
       sodipodi:nodetypes="ccccccccccccccccccccccccccccccc" />
    <path
       sodipodi:nodetypes="ccccccccccccccccccccccccccccccc"
       inkscape:connector-curvature="0"
       id="path878"
       d="m 290.83022,389.46669 22.91358,39.68751 22.9136,-39.68751 -22.9136,-39.68749 m -22.91358,198.43738 22.91358,39.6875 22.9136,-39.6875 -22.9136,-39.68751 m 45.82721,-79.37487 h 45.82718 l 34.37028,-59.53113 45.82728,-1.4e-4 m -285.71983,98.00614 -57.98036,-98.006 h 45.82358 l 34.37028,59.53113 h 45.82722 L 245.00302,389.46669 313.7438,270.40413 382.48461,389.46669 M 313.7438,667.27913 245.00302,548.21658 267.91664,508.52907 m -126.02108,59.53113 57.98036,-98.00601 227.73574,-1e-5 57.98409,98.00616 m -45.82728,-1.4e-4 -34.37028,-59.53113 m -45.82718,0 22.9136,39.68751"
       style="fill:none;fill-opacity:1;stroke:#01ffd2;stroke-width:10.58333302;stroke-linecap:round;stroke-linejoin:round;stroke-miterlimit:4;stroke-dasharray:none;stroke-opacity:1;filter:url(#filter880)" />
    <path
       style="fill:none;fill-opacity:1;stroke:#c1fff4;stroke-width:5.29166651;stroke-linecap:round;stroke-linejoin:round;stroke-miterlimit:4;stroke-dasharray:none;stroke-opacity:1"
       d="m 290.83022,389.46669 22.91358,39.68751 22.9136,-39.68751 -22.9136,-39.68749 m -22.91358,198.43738 22.91358,39.6875 22.9136,-39.6875 -22.9136,-39.68751 m 45.82721,-79.37487 h 45.82718 l 34.37028,-59.53113 45.82728,-1.4e-4 m -285.71983,98.00614 -57.98036,-98.006 h 45.82358 l 34.37028,59.53113 h 45.82722 L 245.00302,389.46669 313.7438,270.40413 382.48461,389.46669 M 313.7438,667.27913 245.00302,548.21658 267.91664,508.52907 m -126.02108,59.53113 57.98036,-98.00601 227.73574,-1e-5 57.98409,98.00616 m -45.82728,-1.4e-4 -34.37028,-59.53113 m -45.82718,0 22.9136,39.68751"
       id="path943"
       inkscape:connector-curvature="0"
       sodipodi:nodetypes="ccccccccccccccccccccccccccccccc" />
  </g>
</svg>
