<?xml version="1.0" encoding="UTF-8" standalone="no"?>
<!-- Created with Inkscape (http://www.inkscape.org/) -->

<svg
   xmlns:dc="http://purl.org/dc/elements/1.1/"
   xmlns:cc="http://creativecommons.org/ns#"
   xmlns:rdf="http://www.w3.org/1999/02/22-rdf-syntax-ns#"
   xmlns:svg="http://www.w3.org/2000/svg"
   xmlns="http://www.w3.org/2000/svg"
   xmlns:sodipodi="http://sodipodi.sourceforge.net/DTD/sodipodi-0.dtd"
   xmlns:inkscape="http://www.inkscape.org/namespaces/inkscape"
   width="3636"
   height="1800"
   viewBox="0 0 962.02499 476.25001"
   version="1.1"
   id="svg8"
   inkscape:export-filename="C:\Users\厂永刄先生\Documents\GXI3CW2\JáÈŭcèŭ\Maqkàla\Maqkàla.png"
   inkscape:export-xdpi="96"
   inkscape:export-ydpi="96"
   inkscape:version="0.92.4 (5da689c313, 2019-01-14)"
   sodipodi:docname="PU1-HE - コピー.svg">
  <defs
     id="defs2" />
  <sodipodi:namedview
     id="base"
     pagecolor="#ffffff"
     bordercolor="#666666"
     borderopacity="1.0"
     inkscape:pageopacity="0.0"
     inkscape:pageshadow="2"
     inkscape:zoom="0.24532453"
     inkscape:cx="1818"
     inkscape:cy="899.99997"
     inkscape:document-units="px"
     inkscape:current-layer="layer1"
     showgrid="false"
     units="px"
     fit-margin-top="0"
     fit-margin-left="0"
     fit-margin-right="0"
     fit-margin-bottom="0"
     inkscape:showpageshadow="false"
     inkscape:snap-intersection-paths="true"
     inkscape:object-paths="false"
     inkscape:pagecheckerboard="true"
     inkscape:snap-smooth-nodes="false"
     inkscape:window-width="1366"
     inkscape:window-height="745"
     inkscape:window-x="-8"
     inkscape:window-y="-8"
     inkscape:window-maximized="1"
     inkscape:object-nodes="true" />
  <metadata
     id="metadata5">
    <rdf:RDF>
      <cc:Work
         rdf:about="">
        <dc:format>image/svg+xml</dc:format>
        <dc:type
           rdf:resource="http://purl.org/dc/dcmitype/StillImage" />
        <dc:title />
      </cc:Work>
    </rdf:RDF>
  </metadata>
  <g
     inkscape:label="レイヤー 1"
     inkscape:groupmode="layer"
     id="layer1"
     transform="translate(112.33452,-299.26786)">
    <path
       style="fill:#ffffff;fill-opacity:1;stroke:none;stroke-width:2.48040128px;stroke-linecap:butt;stroke-linejoin:miter;stroke-opacity:1"
       d="m 172.15358,458.01786 677.53692,0 v 158.75 l -677.53692,0 137.48151,-79.37498 z"
       id="path830"
       inkscape:connector-curvature="0"
       sodipodi:nodetypes="cccccc" />
    <path
       style="fill:#ffffff;fill-opacity:1;stroke:none;stroke-width:0.51166773px;stroke-linecap:butt;stroke-linejoin:miter;stroke-opacity:1"
       d="m -102.80952,299.26786 h -9.525 v 476.25 h 9.525 z"
       id="path819"
       inkscape:connector-curvature="0"
       sodipodi:nodetypes="ccccc" />
    <path
       sodipodi:nodetypes="ccccc"
       inkscape:connector-curvature="0"
       id="path842"
       d="m 849.6905,616.76786 -677.53692,0 -274.9631,158.75 H 849.6905 Z"
       style="fill:#ff0000;fill-opacity:1;stroke:none;stroke-width:2.48040128px;stroke-linecap:butt;stroke-linejoin:miter;stroke-opacity:1" />
    <path
       sodipodi:nodetypes="ccccc"
       inkscape:connector-curvature="0"
       id="path832"
       d="m 849.6905,299.26786 h -952.50002 l 274.96305,158.75 677.53697,0 z"
       style="fill:#0051c0;fill-opacity:1;stroke:none;stroke-width:2.48040128px;stroke-linecap:butt;stroke-linejoin:miter;stroke-opacity:1" />
    <path
       style="fill:#ffc101;fill-opacity:1;stroke:none;stroke-width:4.96935511;stroke-linecap:round;stroke-linejoin:round;stroke-miterlimit:4;stroke-dasharray:none;stroke-opacity:1"
       d="M 570.84375,961.13281 C 574.65918,804.60105 643.20676,823.31616 633.73438,744.71094 627.17608,690.28774 555.61523,600 555.61523,600 c 0,0 -71.56084,90.28774 -78.11914,144.71094 -9.47238,78.60522 59.0752,59.89011 62.89063,216.42187 l -20.23848,-9e-4 c -4.33924,-55.53816 -33.1677,-139.80859 -99.17235,-153.01067 -40.77734,-8.1561 -89.16185,17.28537 -105.80814,64.08583 -26.84011,75.45993 37.44255,137.36143 68.8653,119.90434 -19.3073,-51.54569 11.96855,-86.84089 34.5195,-94.12895 26.61649,-8.60194 70.0193,7.90141 78.3135,63.14945 l -16.14339,9e-4 v 32.28711 h 59.26367 c -5.69343,51.63958 -60.85492,78.14788 -83.20508,34.69338 -11.7316,37.0033 7.74809,70.0161 41.43164,68.4023 6.8569,-0.3285 13.18704,-2.3195 18.99023,-5.6543 -1.3282,7.9727 -1.70409,15.8327 -0.51367,23.7149 6.63373,43.9243 20.06968,29.8996 38.92578,85.4238 18.85611,-55.5242 32.29206,-41.4995 38.92579,-85.4238 1.19042,-7.8822 0.81648,-15.7422 -0.51172,-23.7149 5.8032,3.3348 12.13138,5.3258 18.98828,5.6543 33.68355,1.6137 53.16324,-31.399 41.43164,-68.4023 -22.35016,43.4545 -77.51166,16.9462 -83.20508,-34.69338 h 59.26367 v -32.28711 l -16.14331,-9e-4 c 8.29419,-55.24804 51.697,-71.75139 78.31349,-63.14945 22.55095,7.28806 53.82681,42.58326 34.51951,94.12895 31.42274,17.45709 95.7054,-44.44441 68.86529,-119.90434 C 779.41651,825.40661 731.032,799.96514 690.25465,808.12124 624.25,821.32332 595.42154,905.59375 591.0823,961.13191 Z"
       transform="matrix(0.26458333,0,0,0.26458333,-112.33452,299.26786)"
       id="path882"
       inkscape:connector-curvature="0"
       sodipodi:nodetypes="cscsccsscscccccscscscscccccscsscc" />
    <path
       sodipodi:nodetypes="ccscscscscccccscssccscsccsscscccccccc"
       inkscape:connector-curvature="0"
       id="path843"
       transform="matrix(0.26458333,0,0,0.26458333,-112.33452,299.26786)"
       d="m 539.98633,993.41992 c -5.69343,51.63958 -60.85492,78.14788 -83.20508,34.69338 -11.7316,37.0033 7.74809,70.0161 41.43164,68.4023 6.8569,-0.3285 13.18704,-2.3195 18.99023,-5.6543 -1.3282,7.9727 -1.70409,15.8327 -0.51367,23.7149 6.63373,43.9243 20.06968,29.8996 38.92578,85.4238 18.85611,-55.5242 32.29206,-41.4995 38.92579,-85.4238 1.19042,-7.8822 0.81648,-15.7422 -0.51172,-23.7149 5.8032,3.3348 12.13138,5.3258 18.98828,5.6543 33.68355,1.6137 53.16324,-31.399 41.43164,-68.4023 -22.35016,43.4545 -77.51166,16.9462 -83.20508,-34.69338 h 59.26367 v -32.28711 l -16.14331,-9e-4 c 8.29419,-55.24804 51.697,-71.75139 78.31349,-63.14945 22.55095,7.28806 53.82681,42.58326 34.51951,94.12895 31.42274,17.45709 95.7054,-44.44441 68.86529,-119.90434 C 779.41651,825.40661 731.032,799.96514 690.25465,808.12124 624.25,821.32332 595.42154,905.59375 591.0823,961.13191 l -20.23855,9e-4 C 574.65918,804.60105 643.20676,823.31616 633.73438,744.71094 627.17608,690.28774 555.61523,600 555.61523,600 c 0,0 -71.56084,90.28774 -78.11914,144.71094 -9.47238,78.60522 59.0752,59.89011 62.89063,216.42187 l -20.23848,-9e-4 c -4.33924,-55.53816 -33.1677,-139.80859 -99.17235,-153.01067 -40.77734,-8.1561 -89.16185,17.28537 -105.80814,64.08583 -26.84011,75.45993 37.44255,137.36143 68.8653,119.90434 -19.3073,-51.54569 11.96855,-86.84089 34.5195,-94.12895 26.61649,-8.60194 70.0193,7.90141 78.3135,63.14945 l -16.14339,9e-4 v 32.28711 z M 35.999963,1800.0001 36.000038,3.7795278e-6 1594.8458,900.00009 Z"
       style="fill:#00a029;fill-opacity:1;stroke:none;stroke-width:4.96935511;stroke-linecap:round;stroke-linejoin:round;stroke-miterlimit:4;stroke-dasharray:none;stroke-opacity:1" />
  </g>
</svg>
