<?xml version="1.0" encoding="UTF-8" standalone="no"?>
<!-- Created with Inkscape (http://www.inkscape.org/) -->

<svg
   width="3636"
   height="1800"
   viewBox="0 0 962.02499 476.25001"
   version="1.1"
   id="svg8"
   inkscape:export-filename="C:\Users\厂永刄先生\Documents\GXI3CW2\,pjóŭ\Salomon.png"
   inkscape:export-xdpi="96"
   inkscape:export-ydpi="96"
   inkscape:version="1.3 (0e150ed6c4, 2023-07-21)"
   sodipodi:docname="sb_1977_000-010_customs.svg"
   xmlns:inkscape="http://www.inkscape.org/namespaces/inkscape"
   xmlns:sodipodi="http://sodipodi.sourceforge.net/DTD/sodipodi-0.dtd"
   xmlns="http://www.w3.org/2000/svg"
   xmlns:svg="http://www.w3.org/2000/svg"
   xmlns:rdf="http://www.w3.org/1999/02/22-rdf-syntax-ns#"
   xmlns:cc="http://creativecommons.org/ns#"
   xmlns:dc="http://purl.org/dc/elements/1.1/">
  <defs
     id="defs2" />
  <sodipodi:namedview
     id="base"
     pagecolor="#ffffff"
     bordercolor="#666666"
     borderopacity="1.0"
     inkscape:pageopacity="0.0"
     inkscape:pageshadow="2"
     inkscape:zoom="0.17347066"
     inkscape:cx="1570.8708"
     inkscape:cy="625.466"
     inkscape:document-units="px"
     inkscape:current-layer="g863"
     showgrid="false"
     units="px"
     fit-margin-top="0"
     fit-margin-left="0"
     fit-margin-right="0"
     fit-margin-bottom="0"
     inkscape:showpageshadow="false"
     inkscape:snap-intersection-paths="true"
     inkscape:object-paths="false"
     inkscape:pagecheckerboard="true"
     inkscape:snap-smooth-nodes="false"
     inkscape:window-width="1920"
     inkscape:window-height="1009"
     inkscape:window-x="-8"
     inkscape:window-y="-8"
     inkscape:window-maximized="1"
     inkscape:object-nodes="true"
     inkscape:deskcolor="#505050" />
  <metadata
     id="metadata5">
    <rdf:RDF>
      <cc:Work
         rdf:about="">
        <dc:format>image/svg+xml</dc:format>
        <dc:type
           rdf:resource="http://purl.org/dc/dcmitype/StillImage" />
      </cc:Work>
    </rdf:RDF>
  </metadata>
  <g
     inkscape:label="レイヤー 1"
     inkscape:groupmode="layer"
     id="layer1"
     transform="translate(112.33452,-299.26786)">
    <path
       style="fill:#ffffff;fill-opacity:1;stroke:none;stroke-width:0.511668px;stroke-linecap:butt;stroke-linejoin:miter;stroke-opacity:1"
       d="m -102.80952,299.26786 h -9.525 v 476.25 h 9.525 z"
       id="path819"
       inkscape:connector-curvature="0"
       sodipodi:nodetypes="ccccc" />
    <g
       id="g863"
       transform="matrix(0.49999994,0,0,0.49999994,-51.404766,149.63395)">
      <path
         style="fill:#0056ff;fill-opacity:1;stroke:none;stroke-width:0.132292;stroke-linecap:butt;stroke-linejoin:miter;stroke-miterlimit:4;stroke-dasharray:none;stroke-opacity:1"
         d="M 786.19059,299.26786 H -102.80952 V 743.76798 Z"
         id="path868"
         inkscape:connector-curvature="0"
         sodipodi:nodetypes="cccc" />
      <path
         sodipodi:nodetypes="ccccccc"
         inkscape:connector-curvature="0"
         id="path848"
         d="m -102.80952,743.76798 v 31.75 h 63.500015 L 849.6906,331.01786 v -31.75 h -63.50001 z"
         style="fill:#ffc000;fill-opacity:1;stroke:none;stroke-width:0.132292;stroke-linecap:butt;stroke-linejoin:miter;stroke-miterlimit:4;stroke-dasharray:none;stroke-opacity:1" />
      <path
         sodipodi:nodetypes="ccccccc"
         inkscape:connector-curvature="0"
         id="path854"
         d="M -102.80952,1251.768 H 1802.1905 V 299.26786 l -952.4999,0 v 476.25012 h -952.50012 z"
         style="fill:#0056ff;fill-opacity:1;stroke:none;stroke-width:0.264583;stroke-linecap:butt;stroke-linejoin:miter;stroke-miterlimit:4;stroke-dasharray:none;stroke-opacity:1" />
      <path
         sodipodi:nodetypes="ccccccccccc"
         inkscape:connector-curvature="0"
         id="path894"
         d="M 119.54957,422.13422 108.85708,389.22615 98.164603,422.13422 H 63.563004 l 27.993278,20.33831 -10.692481,32.90807 27.993279,-20.33831 27.99328,20.33831 -10.69248,-32.90807 27.99328,-20.33831 z"
         inkscape:transform-center-y="-4.0098971e-06"
         inkscape:transform-center-x="1.7098855e-05"
         style="opacity:1;fill:#ffffff;fill-opacity:1;fill-rule:evenodd;stroke:none;stroke-width:0.174546;stroke-linecap:round;stroke-linejoin:round;stroke-miterlimit:4;stroke-dasharray:none;stroke-dashoffset:0;stroke-opacity:1" />
      <path
         style="opacity:1;fill:#ffffff;fill-opacity:1;fill-rule:evenodd;stroke:none;stroke-width:0.174546;stroke-linecap:round;stroke-linejoin:round;stroke-miterlimit:4;stroke-dasharray:none;stroke-dashoffset:0;stroke-opacity:1"
         inkscape:transform-center-x="1.5991387e-05"
         inkscape:transform-center-y="-5.3649139e-06"
         d="M 3.1329322,358.63423 -7.5595541,325.72615 -18.25204,358.63423 h -34.601604 l 27.99328,20.3383 -10.692483,32.90808 L -7.5595541,391.5423 20.433729,411.88061 9.7412479,378.97253 37.734531,358.63423 Z"
         id="path896"
         inkscape:connector-curvature="0"
         sodipodi:nodetypes="ccccccccccc" />
      <path
         sodipodi:nodetypes="ccccccccccc"
         inkscape:connector-curvature="0"
         id="path898"
         d="M 3.1329322,485.63426 -7.5595541,452.72618 -18.25204,485.63426 h -34.601603 l 27.993279,20.3383 -10.692482,32.90808 27.9932919,-20.33831 27.9932831,20.33831 -10.6924811,-32.90808 27.9932831,-20.3383 z"
         inkscape:transform-center-y="-5.1548826e-06"
         inkscape:transform-center-x="1.5991387e-05"
         style="opacity:1;fill:#ffffff;fill-opacity:1;fill-rule:evenodd;stroke:none;stroke-width:0.174546;stroke-linecap:round;stroke-linejoin:round;stroke-miterlimit:4;stroke-dasharray:none;stroke-dashoffset:0;stroke-opacity:1" />
      <path
         style="opacity:1;fill:#ffffff;fill-opacity:1;fill-rule:evenodd;stroke:none;stroke-width:0.174546;stroke-linecap:round;stroke-linejoin:round;stroke-miterlimit:4;stroke-dasharray:none;stroke-dashoffset:0;stroke-opacity:1"
         inkscape:transform-center-x="1.4781325e-05"
         inkscape:transform-center-y="-5.1548789e-06"
         d="m 235.96623,485.63419 -10.69248,-32.90807 -10.69248,32.90807 h -34.6016 l 27.99328,20.33831 -10.69249,32.90807 27.99329,-20.3383 27.99328,20.3383 -10.69249,-32.90807 27.99329,-20.33831 z"
         id="path900"
         inkscape:connector-curvature="0"
         sodipodi:nodetypes="ccccccccccc" />
      <path
         sodipodi:nodetypes="ccccccccccc"
         inkscape:connector-curvature="0"
         id="path902"
         d="m 235.96623,358.63427 -10.69248,-32.90807 -10.69248,32.90807 h -34.6016 l 27.99328,20.33831 -10.69249,32.90807 27.99329,-20.3383 27.99328,20.3383 -10.69249,-32.90807 27.99329,-20.33831 z"
         inkscape:transform-center-y="-5.3649164e-06"
         inkscape:transform-center-x="1.4781325e-05"
         style="opacity:1;fill:#ffffff;fill-opacity:1;fill-rule:evenodd;stroke:none;stroke-width:0.174546;stroke-linecap:round;stroke-linejoin:round;stroke-miterlimit:4;stroke-dasharray:none;stroke-dashoffset:0;stroke-opacity:1" />
      <path
         sodipodi:nodetypes="cccc"
         inkscape:connector-curvature="0"
         id="path1"
         d="M -39.309513,775.51798 H 849.6906 V 331.01786 Z"
         style="fill:#00a800;fill-opacity:1;stroke:none;stroke-width:0.132292;stroke-linecap:butt;stroke-linejoin:miter;stroke-miterlimit:4;stroke-dasharray:none;stroke-opacity:1" />
      <path
         style="font-weight:bold;font-size:172.192px;line-height:1;font-family:Arial;-inkscape-font-specification:'Arial Bold';text-align:center;letter-spacing:0.896834px;word-spacing:0.896834px;text-orientation:sideways;text-anchor:middle;fill:#ffffff;stroke-width:4.48416;stroke-linecap:round;stroke-linejoin:round;stroke-miterlimit:2.4"
         d="m 1316.5042,1082.9181 q 0,-18.8335 5.6332,-31.6134 4.2039,-9.4167 11.4346,-16.8997 7.3148,-7.4829 15.9749,-11.0983 11.5187,-4.8765 26.5687,-4.8765 27.2413,0 43.5524,16.8997 16.3953,16.8997 16.3953,46.9997 0,29.8478 -16.2271,46.7474 -16.2271,16.8156 -43.3843,16.8156 -27.4936,0 -43.7207,-16.7315 -16.227,-16.8157 -16.227,-46.243 z m 25.6438,-0.8408 q 0,20.9355 9.669,31.7815 9.669,10.762 24.5508,10.762 14.8818,0 24.3826,-10.6779 9.5849,-10.7619 9.5849,-32.2019 0,-21.1876 -9.3326,-31.6133 -9.2486,-10.4258 -24.6349,-10.4258 -15.3863,0 -24.8031,10.594 -9.4167,10.5097 -9.4167,31.7814 z"
         id="text3"
         aria-label="O" />
      <path
         style="font-weight:bold;font-size:172.192px;line-height:1;font-family:Arial;-inkscape-font-specification:'Arial Bold';text-align:center;letter-spacing:0.896834px;word-spacing:0.896834px;text-orientation:sideways;text-anchor:middle;fill:#ffffff;stroke-width:4.48416;stroke-linecap:round;stroke-linejoin:round;stroke-miterlimit:2.4"
         d="m 932.92796,1098.4726 24.13043,7.6512 q -5.54916,20.1787 -18.49719,30.0157 -12.86395,9.7531 -32.70639,9.7531 -24.55082,0 -40.3575,-16.7314 -15.80669,-16.8158 -15.80669,-45.9067 0,-30.7727 15.89077,-47.7565 15.89076,-17.0678 41.78682,-17.0678 22.61702,0 36.74214,13.3684 8.40782,7.9033 12.61172,22.7012 l -24.63489,5.8854 q -2.18603,-9.5848 -9.16451,-15.134 -6.89441,-5.5492 -16.81563,-5.5492 -13.70473,0 -22.2807,9.8372 -8.49189,9.837 -8.49189,31.8656 0,23.3737 8.40781,33.2949 8.40781,9.9212 21.86031,9.9212 9.92122,0 17.06786,-6.3058 7.14664,-6.306 10.25753,-19.8425 z"
         id="text4"
         aria-label="C" />
      <path
         style="font-weight:bold;font-size:172.192px;line-height:1;font-family:Arial;-inkscape-font-specification:'Arial Bold';text-align:center;letter-spacing:0.896834px;word-spacing:0.896834px;text-orientation:sideways;text-anchor:middle;fill:#ffffff;stroke-width:4.48416;stroke-linecap:round;stroke-linejoin:round;stroke-miterlimit:2.4"
         d="m 1596.1363,1103.6434 24.2145,-2.3542 q 2.186,12.1913 8.8282,17.9086 6.7262,5.7174 18.0768,5.7174 12.0231,0 18.0768,-5.0447 6.1377,-5.1288 6.1377,-11.9391 0,-4.3721 -2.6065,-7.3989 -2.5223,-3.1109 -8.9122,-5.381 -4.3721,-1.5134 -19.9266,-5.381 -20.0105,-4.9606 -28.082,-12.1913 -11.3506,-10.1735 -11.3506,-24.8031 0,-9.4167 5.2969,-17.5723 5.381,-8.2397 15.3863,-12.5276 10.0894,-4.288 24.2986,-4.288 23.2056,0 34.8924,10.1734 11.771,10.1735 12.3595,27.1573 l -24.8871,1.093 q -1.5975,-9.5009 -6.8944,-13.6207 -5.2129,-4.2039 -15.7226,-4.2039 -10.8461,0 -16.9838,4.4562 -3.9517,2.8586 -3.9517,7.6511 0,4.372 3.6995,7.4829 4.7083,3.9517 22.8692,8.2397 18.1609,4.288 26.8209,8.9123 8.7442,4.5402 13.6207,12.5276 4.9606,7.9033 4.9606,19.5902 0,10.5938 -5.8855,19.8424 -5.8854,9.2486 -16.6474,13.7888 -10.762,4.4562 -26.821,4.4562 -23.3737,0 -35.9013,-10.762 -12.5277,-10.8461 -14.9659,-31.5293 z"
         id="text5"
         aria-label="S" />
      <path
         style="font-weight:bold;font-size:172.192px;line-height:1;font-family:Arial;-inkscape-font-specification:'Arial Bold';text-align:center;letter-spacing:0.896834px;word-spacing:0.896834px;text-orientation:sideways;text-anchor:middle;fill:#ffffff;stroke-width:4.48416;stroke-linecap:round;stroke-linejoin:round;stroke-miterlimit:2.4"
         d="m 977.03824,1019.4812 h 24.88716 v 66.7581 q 0,15.8907 0.9248,20.5991 1.5975,7.567 7.5671,12.1913 6.0536,4.5402 16.4793,4.5402 10.5938,0 15.9748,-4.2879 5.381,-4.3721 6.474,-10.678 1.0931,-6.3058 1.0931,-20.9354 v -68.1874 h 24.8871 v 64.7402 q 0,22.1966 -2.0179,31.3611 -2.0179,9.1645 -7.4829,15.4704 -5.381,6.3059 -14.4615,10.0894 -9.0804,3.6994 -23.71,3.6994 -17.6564,0 -26.8209,-4.0357 -9.08057,-4.1199 -14.37746,-10.5939 -5.2969,-6.5581 -6.9785,-13.7047 -2.43821,-10.5939 -2.43821,-31.2771 z"
         id="text6"
         aria-label="U" />
      <path
         style="font-weight:bold;font-size:172.192px;line-height:1;font-family:Arial;-inkscape-font-specification:'Arial Bold';text-align:center;letter-spacing:0.896834px;word-spacing:0.896834px;text-orientation:sideways;text-anchor:middle;fill:#ffffff;stroke-width:4.48416;stroke-linecap:round;stroke-linejoin:round;stroke-miterlimit:2.4"
         d="m 1244.1431,1143.7907 v -102.4072 h -36.5739 v -20.8514 h 97.951 v 20.8514 h -36.4899 v 102.4072 z"
         id="text7"
         aria-label="T" />
      <path
         style="font-weight:bold;font-size:172.192px;line-height:1;font-family:Arial;-inkscape-font-specification:'Arial Bold';text-align:center;letter-spacing:0.896834px;word-spacing:0.896834px;text-orientation:sideways;text-anchor:middle;fill:#ffffff;stroke-width:4.48416;stroke-linecap:round;stroke-linejoin:round;stroke-miterlimit:2.4"
         d="m 1456.5724,1143.7907 v -123.2586 h 37.2466 l 22.3648,84.0783 22.1126,-84.0783 h 37.3307 v 123.2586 h -23.1215 v -97.0262 l -24.4668,97.0262 h -23.9622 l -24.3827,-97.0262 v 97.0262 z"
         id="text8"
         aria-label="M" />
      <path
         style="font-weight:bold;font-size:172.192px;line-height:1;font-family:Arial;-inkscape-font-specification:'Arial Bold';text-align:center;letter-spacing:0.896834px;word-spacing:0.896834px;text-orientation:sideways;text-anchor:middle;fill:#ffffff;stroke-width:4.48416;stroke-linecap:round;stroke-linejoin:round;stroke-miterlimit:2.4"
         d="m 1095.3054,1103.6434 24.2145,-2.3542 q 2.1861,12.1913 8.8282,17.9086 6.7263,5.7174 18.0768,5.7174 12.0232,0 18.0768,-5.0447 6.1377,-5.1288 6.1377,-11.9391 0,-4.3721 -2.6064,-7.3989 -2.5223,-3.1109 -8.9123,-5.381 -4.372,-1.5134 -19.9265,-5.381 -20.0106,-4.9606 -28.0821,-12.1913 -11.3505,-10.1735 -11.3505,-24.8031 0,-9.4167 5.2969,-17.5723 5.381,-8.2397 15.3863,-12.5276 10.0894,-4.288 24.2986,-4.288 23.2055,0 34.8924,10.1734 11.7709,10.1735 12.3595,27.1573 l -24.8872,1.093 q -1.5974,-9.5009 -6.8944,-13.6207 -5.2128,-4.2039 -15.7226,-4.2039 -10.846,0 -16.9837,4.4562 -3.9517,2.8586 -3.9517,7.6511 0,4.372 3.6994,7.4829 4.7084,3.9517 22.8693,8.2397 18.1608,4.288 26.8209,8.9123 8.7441,4.5402 13.6206,12.5276 4.9607,7.9033 4.9607,19.5902 0,10.5938 -5.8855,19.8424 -5.8855,9.2486 -16.6475,13.7888 -10.762,4.4562 -26.8209,4.4562 -23.3737,0 -35.9014,-10.762 -12.5276,-10.8461 -14.9659,-31.5293 z"
         id="text9"
         aria-label="S" />
    </g>
  </g>
</svg>
