<?xml version="1.0" encoding="UTF-8" standalone="no"?>
<!-- Created with Inkscape (http://www.inkscape.org/) -->

<svg
   width="2736"
   height="1800"
   viewBox="0 0 723.89999 476.25001"
   version="1.1"
   id="svg8"
   inkscape:export-filename="C:\Users\厂永刄先生\Documents\GXI3CW2\JáÈŭcèŭ\Maqkàla\Maqkàla.png"
   inkscape:export-xdpi="96"
   inkscape:export-ydpi="96"
   inkscape:version="1.3 (0e150ed6c4, 2023-07-21)"
   sodipodi:docname="kr_1945_12.svg"
   xmlns:inkscape="http://www.inkscape.org/namespaces/inkscape"
   xmlns:sodipodi="http://sodipodi.sourceforge.net/DTD/sodipodi-0.dtd"
   xmlns="http://www.w3.org/2000/svg"
   xmlns:svg="http://www.w3.org/2000/svg"
   xmlns:rdf="http://www.w3.org/1999/02/22-rdf-syntax-ns#"
   xmlns:cc="http://creativecommons.org/ns#"
   xmlns:dc="http://purl.org/dc/elements/1.1/">
  <defs
     id="defs2" />
  <sodipodi:namedview
     id="base"
     pagecolor="#ffffff"
     bordercolor="#666666"
     borderopacity="1.0"
     inkscape:pageopacity="0.0"
     inkscape:pageshadow="2"
     inkscape:zoom="0.30222222"
     inkscape:cx="1568.3824"
     inkscape:cy="1358.2721"
     inkscape:document-units="px"
     inkscape:current-layer="g1364"
     showgrid="false"
     units="px"
     fit-margin-top="0"
     fit-margin-left="0"
     fit-margin-right="0"
     fit-margin-bottom="0"
     inkscape:showpageshadow="false"
     inkscape:snap-intersection-paths="false"
     inkscape:object-paths="false"
     inkscape:pagecheckerboard="true"
     inkscape:snap-smooth-nodes="true"
     inkscape:window-width="2880"
     inkscape:window-height="1514"
     inkscape:window-x="-11"
     inkscape:window-y="-11"
     inkscape:window-maximized="1"
     inkscape:object-nodes="true"
     inkscape:snap-nodes="true"
     inkscape:deskcolor="#505050" />
  <metadata
     id="metadata5">
    <rdf:RDF>
      <cc:Work
         rdf:about="">
        <dc:format>image/svg+xml</dc:format>
        <dc:type
           rdf:resource="http://purl.org/dc/dcmitype/StillImage" />
      </cc:Work>
    </rdf:RDF>
  </metadata>
  <g
     inkscape:label="レイヤー 1"
     inkscape:groupmode="layer"
     id="layer1"
     transform="translate(112.33452,-299.26786)">
    <g
       id="g1364"
       inkscape:export-xdpi="96"
       inkscape:export-ydpi="96">
      <path
         sodipodi:nodetypes="ccccc"
         inkscape:connector-curvature="0"
         id="path1079"
         d="m -102.80952,299.26786 h -9.525 v 476.25 h 9.525 z"
         style="fill:#ffffff;fill-opacity:1;stroke:none;stroke-width:0.51166773px;stroke-linecap:butt;stroke-linejoin:miter;stroke-opacity:1" />
      <path
         style="fill:#ffffff;fill-opacity:1;stroke:none;stroke-width:2.0261px;stroke-linecap:butt;stroke-linejoin:miter;stroke-opacity:1"
         d="m -102.80952,775.51786 v -476.25 h 714.375 v 476.25 z"
         id="path824"
         inkscape:connector-curvature="0"
         sodipodi:nodetypes="ccccc" />
      <g
         id="g870"
         transform="matrix(0.79999994,0,0,0.79999994,50.885724,107.46846)">
        <path
           sodipodi:nodetypes="zzzszcz"
           inkscape:connector-curvature="0"
           id="circle819"
           d="m 336.91154,520.89619 c -27.35344,-18.23558 -64.31062,-10.84408 -82.5462,16.50935 -18.23558,27.35343 -55.19278,34.74491 -82.54621,16.50933 -27.35343,-18.23558 -34.74492,-55.19276 -16.50934,-82.5462 36.47115,-54.70686 110.38555,-69.48983 165.09241,-33.01868 54.70686,36.47115 69.48982,110.38554 33.01869,165.0924 18.23557,-27.35342 10.84409,-64.31062 -16.50935,-82.5462 z"
           style="opacity:1;fill:#cd2e3a;fill-opacity:1;fill-rule:evenodd;stroke:none;stroke-width:0.116063;stroke-linecap:round;stroke-linejoin:round;stroke-miterlimit:4;stroke-dasharray:none;stroke-dashoffset:0;stroke-opacity:1" />
        <path
           style="opacity:1;fill:#0047a0;fill-opacity:1;fill-rule:evenodd;stroke:none;stroke-width:0.116063;stroke-linecap:round;stroke-linejoin:round;stroke-miterlimit:4;stroke-dasharray:none;stroke-dashoffset:0;stroke-opacity:1"
           d="m 171.81913,553.91487 c 27.35343,18.23557 64.31062,10.84409 82.5462,-16.50934 18.23558,-27.35343 55.19278,-34.74492 82.54621,-16.50934 27.35343,18.23558 34.74492,55.19278 16.50935,82.54621 -36.47115,54.70686 -110.38554,69.48984 -165.0924,33.01869 -54.70686,-36.47115 -69.48984,-110.38555 -33.0187,-165.09242 -18.23557,27.35344 -10.84409,64.31063 16.50934,82.5462 z"
           id="path826"
           inkscape:connector-curvature="0"
           sodipodi:nodetypes="zzzszcz" />
      </g>
      <path
         style="fill:#000000;fill-opacity:1;stroke:none;stroke-width:0.23665px;stroke-linecap:butt;stroke-linejoin:miter;stroke-opacity:1"
         d="m 107.83597,395.26497 -56.126583,56.12658 -14.031639,-14.03164 56.126579,-56.1266 z m -21.047472,-21.04747 -56.12659,56.12658 -14.03164,-14.03165 56.12658,-56.12658 z m 42.094952,42.09495 -56.126602,56.12658 -14.03164,-14.03164 56.126602,-56.1266 z"
         id="path840-5"
         inkscape:connector-curvature="0"
         sodipodi:nodetypes="ccccccccccccccc" />
      <path
         style="fill:#000000;fill-opacity:1;stroke:none;stroke-width:0.23665px;stroke-linecap:butt;stroke-linejoin:miter;stroke-opacity:1"
         d="m 107.83597,679.52075 -56.126583,-56.12658 -14.031639,14.03164 56.126579,56.1266 z m -52.618672,-10.52373 -24.55539,-24.55538 -14.03164,14.03165 24.55538,24.55538 z m -7.01583,21.04747 24.55538,24.55538 14.03165,-14.03165 -24.55538,-24.55538 z m 49.11077,-63.14242 -24.55539,-24.55538 -14.03164,14.03164 24.55539,24.55539 z m -7.01582,21.04747 24.555392,24.55539 14.03164,-14.03166 -24.55538,-24.55538 z"
         id="path2"
         inkscape:connector-curvature="0"
         sodipodi:nodetypes="ccccccccccccccccccccccccc" />
      <path
         style="fill:#000000;fill-opacity:1;stroke:none;stroke-width:0.23665px;stroke-linecap:butt;stroke-linejoin:miter;stroke-opacity:1"
         d="m 432.49119,426.83618 24.55538,24.55537 14.03164,-14.03164 -24.55537,-24.55538 z m 7.01582,-21.04748 -24.55538,-24.55539 -14.03164,14.03166 24.55538,24.55538 z m -17.53955,-31.5712 56.12659,56.12658 14.03164,-14.03165 -56.12658,-56.12658 z m -42.09495,42.09495 56.1266,56.12658 14.03164,-14.03164 -56.1266,-56.1266 z"
         id="path3"
         inkscape:connector-curvature="0"
         sodipodi:nodetypes="cccccccccccccccccccc" />
      <path
         style="fill:#000000;fill-opacity:1;stroke:none;stroke-width:0.529167;stroke-linecap:butt;stroke-linejoin:miter;stroke-dasharray:none;stroke-opacity:1"
         d="m 432.49119,647.94954 24.55538,-24.55537 14.03164,14.03164 -24.55537,24.55538 z m 7.01582,21.04748 -24.55538,24.55539 -14.03164,-14.03166 24.55538,-24.55538 z m 14.03165,0 24.55539,-24.55538 14.03164,14.03165 -24.55538,24.55538 z m 7.01583,21.04747 -24.55538,24.55538 -14.03165,-14.03165 24.55538,-24.55538 z m -49.11077,-63.14242 24.55539,-24.55538 14.03164,14.03164 -24.55539,24.55539 z m 7.01582,21.04747 -24.55539,24.55539 -14.03164,-14.03166 24.55538,-24.55538 z"
         id="path4"
         inkscape:connector-curvature="0"
         sodipodi:nodetypes="cccccccccccccccccccccccccccccc" />
    </g>
  </g>
</svg>
