<?xml version="1.0" encoding="UTF-8" standalone="no"?>
<!-- Created with Inkscape (http://www.inkscape.org/) -->

<svg
   width="3456.0115"
   height="1800.0002"
   viewBox="0 0 914.40303 476.25007"
   version="1.1"
   id="svg8"
   inkscape:export-filename="C:\Users\厂永刄先生\Documents\GXI3CW2\poM̕écèŭ\M̕é\11960年㋆㏣以來.png"
   inkscape:export-xdpi="96"
   inkscape:export-ydpi="96"
   inkscape:version="1.3 (0e150ed6c4, 2023-07-21)"
   sodipodi:docname="描方.svg"
   xmlns:inkscape="http://www.inkscape.org/namespaces/inkscape"
   xmlns:sodipodi="http://sodipodi.sourceforge.net/DTD/sodipodi-0.dtd"
   xmlns="http://www.w3.org/2000/svg"
   xmlns:svg="http://www.w3.org/2000/svg"
   xmlns:rdf="http://www.w3.org/1999/02/22-rdf-syntax-ns#"
   xmlns:cc="http://creativecommons.org/ns#"
   xmlns:dc="http://purl.org/dc/elements/1.1/">
  <defs
     id="defs2" />
  <sodipodi:namedview
     id="base"
     pagecolor="#ffffff"
     bordercolor="#666666"
     borderopacity="1.0"
     inkscape:pageopacity="0.0"
     inkscape:pageshadow="2"
     inkscape:zoom="0.34713068"
     inkscape:cx="1728.4557"
     inkscape:cy="900.23735"
     inkscape:document-units="px"
     inkscape:current-layer="layer1"
     showgrid="false"
     units="px"
     fit-margin-top="0"
     fit-margin-left="0"
     fit-margin-right="0"
     fit-margin-bottom="0"
     inkscape:showpageshadow="false"
     inkscape:snap-intersection-paths="false"
     inkscape:object-paths="false"
     inkscape:pagecheckerboard="true"
     inkscape:snap-smooth-nodes="false"
     inkscape:window-width="1920"
     inkscape:window-height="1009"
     inkscape:window-x="-8"
     inkscape:window-y="-8"
     inkscape:window-maximized="1"
     inkscape:object-nodes="true"
     inkscape:snap-nodes="true"
     inkscape:deskcolor="#505050" />
  <metadata
     id="metadata5">
    <rdf:RDF>
      <cc:Work
         rdf:about="">
        <dc:format>image/svg+xml</dc:format>
        <dc:type
           rdf:resource="http://purl.org/dc/dcmitype/StillImage" />
      </cc:Work>
    </rdf:RDF>
  </metadata>
  <g
     inkscape:label="レイヤー 1"
     inkscape:groupmode="layer"
     id="layer1"
     transform="translate(112.33452,-299.2678)">
    <path
       style="fill:#ffffff;fill-opacity:1;stroke:none;stroke-width:0.51166773px;stroke-linecap:butt;stroke-linejoin:miter;stroke-opacity:1"
       d="m -102.80952,299.26786 h -9.525 v 476.25 h 9.525 z"
       id="path1079"
       inkscape:connector-curvature="0"
       sodipodi:nodetypes="ccccc" />
    <path
       style="fill:#ccddff;fill-opacity:1;stroke:#000000;stroke-width:0.47625;stroke-linecap:butt;stroke-linejoin:miter;stroke-opacity:1;stroke-miterlimit:4;stroke-dasharray:none"
       d="m 802.0685,775.51786 v -281.94 l -904.87802,274.32 v 7.62 z"
       id="path832"
       inkscape:connector-curvature="0"
       sodipodi:nodetypes="ccccc" />
    <path
       sodipodi:nodetypes="ccccc"
       inkscape:connector-curvature="0"
       id="path868"
       d="m 802.0685,306.88786 v -7.62006 l -904.87802,6e-5 v 453.39 z"
       style="fill:#ccddff;fill-opacity:1;stroke:#000000;stroke-width:0.47625;stroke-linecap:butt;stroke-linejoin:miter;stroke-opacity:1;stroke-miterlimit:4;stroke-dasharray:none" />
    <path
       style="opacity:1;fill:#ffffff;fill-opacity:1;fill-rule:evenodd;stroke:#000000;stroke-width:0.47625;stroke-linecap:butt;stroke-linejoin:round;stroke-miterlimit:4;stroke-dasharray:none;stroke-dashoffset:0;stroke-opacity:1"
       inkscape:transform-center-y="-1.680463e-05"
       d="m 71.166498,330.2575 6.091985,96.60179 21.272309,-55.85172 -9.5035,59.00516 35.002958,-48.44293 -24.451333,54.53491 46.348213,-37.73284 -37.73285,46.34821 54.53492,-24.45133 -48.44293,35.00296 59.00515,-9.5035 -55.85171,21.2723 96.60179,6.09199 -96.60179,6.09198 55.85171,21.27231 -59.00516,-9.5035 48.44294,35.00296 -54.53492,-24.45133 37.73285,46.34821 -46.348215,-37.73285 24.451335,54.53492 -35.00296,-48.44293 9.503496,59.00515 -21.272305,-55.85171 -6.091983,96.60179 -6.091985,-96.60179 -21.272308,55.85171 9.503499,-59.00516 -35.002959,48.44294 24.451334,-54.53492 -46.3482162,37.73285 37.7328502,-46.34822 -54.534918,24.45134 48.442935,-35.00296 -59.005156,9.5035 55.851713,-21.27231 -96.601789,-6.09198 96.601789,-6.09199 -55.851712,-21.27231 59.005156,9.5035 -48.442933,-35.00296 54.534917,24.45134 -37.7328482,-46.34822 46.3482142,37.73285 -24.451331,-54.53492 35.002957,48.44294 -9.503497,-59.00516 21.272306,55.85172 z"
       id="path831"
       inkscape:connector-curvature="0"
       sodipodi:nodetypes="ccccccccccccccccccccccccccccccccccccccccccccccccc" />
    <path
       sodipodi:nodetypes="ccccc"
       inkscape:connector-curvature="0"
       id="path820"
       d="m 802.0685,493.57786 v -93.345 l -904.87802,360.045 v 7.62 z"
       style="fill:#ffffff;fill-opacity:1;stroke:#000000;stroke-width:0.47625;stroke-linecap:butt;stroke-linejoin:miter;stroke-opacity:1;stroke-miterlimit:4;stroke-dasharray:none" />
    <path
       style="fill:#ffddcc;fill-opacity:1;stroke:#000000;stroke-width:0.47625;stroke-linecap:butt;stroke-linejoin:miter;stroke-opacity:1;stroke-miterlimit:4;stroke-dasharray:none"
       d="m 802.0685,400.23286 v -93.345 l -904.87802,445.77 v 7.62 z"
       id="path822"
       inkscape:connector-curvature="0"
       sodipodi:nodetypes="ccccc" />
    <path
       style="opacity:1;fill:none;fill-opacity:1;fill-rule:evenodd;stroke:#000000;stroke-width:0.47625;stroke-linecap:round;stroke-linejoin:round;stroke-miterlimit:4;stroke-dasharray:none;stroke-dashoffset:0;stroke-opacity:1"
       d="M 244.91973,473.13251 A 173.86462,173.86462 0 0 1 71.055107,646.99713 173.86462,173.86462 0 0 1 -102.80952,473.13251 173.86462,173.86462 0 0 1 71.055107,299.26788 173.86462,173.86462 0 0 1 244.91973,473.13251 Z"
       id="path830" />
    <path
       style="opacity:1;fill:none;fill-opacity:1;fill-rule:evenodd;stroke:#000000;stroke-width:0.47625;stroke-linecap:round;stroke-linejoin:round;stroke-miterlimit:4;stroke-dasharray:none;stroke-dashoffset:0;stroke-opacity:1"
       d="m 213.93011,473.13251 c 0,78.90768 -63.96732,142.875 -142.875006,142.875 -78.9076841,0 -142.875,-63.96732 -142.875,-142.875 0,-78.90769 63.9673159,-142.875 142.875,-142.875 78.907686,0 142.875006,63.96731 142.875006,142.875 z"
       id="circle818"
       inkscape:connector-curvature="0"
       sodipodi:nodetypes="sssss" />
    <path
       style="opacity:1;fill:none;fill-opacity:1;fill-rule:evenodd;stroke:#000000;stroke-width:0.47625;stroke-linecap:round;stroke-linejoin:round;stroke-miterlimit:4;stroke-dasharray:none;stroke-dashoffset:0;stroke-opacity:1"
       d="M 176.78261,473.13251 A 105.7275,105.7275 0 0 1 71.055104,578.86 105.7275,105.7275 0 0 1 -34.672397,473.13251 105.7275,105.7275 0 0 1 71.055104,367.40501 105.7275,105.7275 0 0 1 176.78261,473.13251 Z"
       id="circle820" />
    <path
       style="opacity:1;fill:none;fill-opacity:1;fill-rule:evenodd;stroke:#000000;stroke-width:0.47625;stroke-linecap:round;stroke-linejoin:round;stroke-miterlimit:4;stroke-dasharray:none;stroke-dashoffset:0;stroke-opacity:1"
       d="m 117.72761,473.13251 a 46.672501,46.672501 0 0 1 -46.672506,46.6725 46.672501,46.672501 0 0 1 -46.6725,-46.6725 46.672501,46.672501 0 0 1 46.6725,-46.6725 46.672501,46.672501 0 0 1 46.672506,46.6725 z"
       id="circle822" />
    <path
       sodipodi:nodetypes="cccc"
       inkscape:connector-curvature="0"
       id="path1"
       d="m 71.055105,476.94254 v -7.62007 m 3.81003,3.81003 h -7.62006"
       style="fill:none;fill-opacity:1;stroke:#000000;stroke-width:0.47625;stroke-linecap:butt;stroke-linejoin:miter;stroke-miterlimit:4;stroke-dasharray:none;stroke-opacity:1" />
  </g>
</svg>
