<?xml version="1.0" encoding="UTF-8" standalone="no"?>
<!-- Created with Inkscape (http://www.inkscape.org/) -->

<svg
   width="3636"
   height="1800"
   viewBox="0 0 962.02499 476.25001"
   version="1.1"
   id="svg8"
   inkscape:export-filename="C:\Users\厂永刄先生\Documents\GXI3CW2\,pjóŭ\Macédoine du nord.png"
   inkscape:export-xdpi="96"
   inkscape:export-ydpi="96"
   inkscape:version="1.3 (0e150ed6c4, 2023-07-21)"
   sodipodi:docname="mk_1992.svg"
   xmlns:inkscape="http://www.inkscape.org/namespaces/inkscape"
   xmlns:sodipodi="http://sodipodi.sourceforge.net/DTD/sodipodi-0.dtd"
   xmlns="http://www.w3.org/2000/svg"
   xmlns:svg="http://www.w3.org/2000/svg"
   xmlns:rdf="http://www.w3.org/1999/02/22-rdf-syntax-ns#"
   xmlns:cc="http://creativecommons.org/ns#"
   xmlns:dc="http://purl.org/dc/elements/1.1/">
  <defs
     id="defs2" />
  <sodipodi:namedview
     id="base"
     pagecolor="#ffffff"
     bordercolor="#666666"
     borderopacity="1.0"
     inkscape:pageopacity="0.0"
     inkscape:pageshadow="2"
     inkscape:zoom="0.24532452"
     inkscape:cx="2315.3006"
     inkscape:cy="866.1996"
     inkscape:document-units="px"
     inkscape:current-layer="g1364"
     showgrid="false"
     units="px"
     fit-margin-top="0"
     fit-margin-left="0"
     fit-margin-right="0"
     fit-margin-bottom="0"
     inkscape:showpageshadow="false"
     inkscape:snap-intersection-paths="true"
     inkscape:object-paths="false"
     inkscape:pagecheckerboard="true"
     inkscape:snap-smooth-nodes="true"
     inkscape:window-width="1920"
     inkscape:window-height="1009"
     inkscape:window-x="-8"
     inkscape:window-y="-8"
     inkscape:window-maximized="1"
     inkscape:object-nodes="true"
     inkscape:snap-nodes="true"
     showguides="false"
     inkscape:deskcolor="#505050" />
  <metadata
     id="metadata5">
    <rdf:RDF>
      <cc:Work
         rdf:about="">
        <dc:format>image/svg+xml</dc:format>
        <dc:type
           rdf:resource="http://purl.org/dc/dcmitype/StillImage" />
      </cc:Work>
    </rdf:RDF>
  </metadata>
  <g
     inkscape:label="レイヤー 1"
     inkscape:groupmode="layer"
     id="layer1"
     transform="translate(112.33452,-299.26786)">
    <g
       id="g1364"
       inkscape:export-xdpi="96"
       inkscape:export-ydpi="96">
      <path
         id="path5"
         d="m 849.69054,775.51786 -952.50006,0 v -476.25 h 952.50006 z"
         style="fill:#ce2028;fill-opacity:1;stroke:none;stroke-width:0.85428px;stroke-linecap:butt;stroke-linejoin:miter;stroke-opacity:1"
         inkscape:connector-curvature="0"
         sodipodi:nodetypes="ccccc" />
      <path
         sodipodi:nodetypes="ccccc"
         inkscape:connector-curvature="0"
         id="path1079"
         d="m -102.80952,299.26786 h -9.525 v 476.25 h 9.525 z"
         style="fill:#ffffff;fill-opacity:1;stroke:none;stroke-width:0.51166773px;stroke-linecap:butt;stroke-linejoin:miter;stroke-opacity:1" />
      <g
         id="g29"
         transform="translate(5e-5)">
        <path
           style="opacity:1;fill:#f9d616;fill-opacity:1;fill-rule:evenodd;stroke:none;stroke-width:35.1465;stroke-linecap:square;stroke-linejoin:round;stroke-miterlimit:4;stroke-dasharray:none;stroke-dashoffset:0;stroke-opacity:1"
           d="m 345.65926,537.39286 c 0,15.34316 12.43809,27.78125 27.78125,27.78125 15.34315,0 27.78125,-12.43809 27.78125,-27.78125 0,-15.34316 -12.4381,-27.78125 -27.78125,-27.78125 -15.34316,0 -27.78125,12.43809 -27.78125,27.78125 z"
           id="path883"
           inkscape:connector-curvature="0"
           sodipodi:nodetypes="zzzzz" />
        <path
           style="opacity:1;fill:#f9d616;fill-opacity:1;fill-rule:evenodd;stroke:none;stroke-width:15.0628;stroke-linecap:square;stroke-linejoin:round;stroke-miterlimit:4;stroke-dasharray:none;stroke-dashoffset:0;stroke-opacity:1"
           d="m 361.53425,489.76786 c 0,6.57564 5.33061,11.90625 11.90625,11.90625 6.57564,0 11.90625,-5.33061 11.90625,-11.90625 0,-6.57564 -11.90625,-111.125 -11.90625,-111.125 0,0 -11.90625,104.54936 -11.90625,111.125 z"
           id="path2"
           inkscape:connector-curvature="0"
           sodipodi:nodetypes="zzzcz" />
        <path
           style="opacity:1;fill:#f9d616;fill-opacity:1;fill-rule:evenodd;stroke:none;stroke-width:10.0419;stroke-linecap:square;stroke-linejoin:round;stroke-miterlimit:4;stroke-dasharray:none;stroke-dashoffset:0;stroke-opacity:1"
           d="m 391.92638,472.02233 c -1.6776,4.05006 0.24567,8.69325 4.29574,10.37084 4.05007,1.67759 8.69325,-0.24568 10.37084,-4.29574 1.6776,-4.05007 27.59853,-87.37043 27.59853,-87.37043 0,0 -40.58752,77.24526 -42.26511,81.29533 z"
           id="path7"
           inkscape:connector-curvature="0"
           sodipodi:nodetypes="zzzcz" />
        <path
           style="opacity:1;fill:#f9d616;fill-opacity:1;fill-rule:evenodd;stroke:none;stroke-width:15.0628;stroke-linecap:square;stroke-linejoin:round;stroke-miterlimit:4;stroke-dasharray:none;stroke-dashoffset:0;stroke-opacity:1"
           d="m 361.53417,585.01786 c 0,-6.57564 5.33061,-11.90625 11.90625,-11.90625 6.57564,0 11.90625,5.33061 11.90625,11.90625 0,6.57564 -11.90625,111.125 -11.90625,111.125 0,0 -11.90625,-104.54936 -11.90625,-111.125 z"
           id="path16"
           inkscape:connector-curvature="0"
           sodipodi:nodetypes="zzzcz" />
        <path
           style="opacity:1;fill:#f9d616;fill-opacity:1;fill-rule:evenodd;stroke:none;stroke-width:15.0628;stroke-linecap:square;stroke-linejoin:round;stroke-miterlimit:4;stroke-dasharray:none;stroke-dashoffset:0;stroke-opacity:1"
           d="m 421.06546,525.48665 c -6.57564,0 -11.90625,5.33061 -11.90625,11.90625 0,6.57564 5.33061,11.90625 11.90625,11.90625 6.57564,0 111.125,-11.90625 111.125,-11.90625 0,0 -104.54936,-11.90625 -111.125,-11.90625 z"
           id="path17"
           inkscape:connector-curvature="0"
           sodipodi:nodetypes="zzzcz" />
        <path
           style="opacity:1;fill:#f9d616;fill-opacity:1;fill-rule:evenodd;stroke:none;stroke-width:15.0628;stroke-linecap:square;stroke-linejoin:round;stroke-miterlimit:4;stroke-dasharray:none;stroke-dashoffset:0;stroke-opacity:1"
           d="m 325.81546,525.48657 c 6.57564,0 11.90625,5.33061 11.90625,11.90625 0,6.57564 -5.33061,11.90625 -11.90625,11.90625 -6.57564,0 -111.125,-11.90625 -111.125,-11.90625 0,0 104.54936,-11.90625 111.125,-11.90625 z"
           id="path18"
           inkscape:connector-curvature="0"
           sodipodi:nodetypes="zzzcz" />
        <path
           style="opacity:1;fill:#f9d616;fill-opacity:1;fill-rule:evenodd;stroke:none;stroke-width:15.0628;stroke-linecap:square;stroke-linejoin:round;stroke-miterlimit:4;stroke-dasharray:none;stroke-dashoffset:0;stroke-opacity:1"
           d="m 398.69746,495.29794 c -4.64968,4.64968 -4.64968,12.1883 0,16.83798 4.64968,4.64968 12.1883,4.64968 16.83798,0 4.64968,-4.64968 70.15825,-86.99623 70.15825,-86.99623 0,0 -82.34655,65.50857 -86.99623,70.15825 z"
           id="path19"
           inkscape:connector-curvature="0"
           sodipodi:nodetypes="zzzcz" />
        <path
           style="opacity:1;fill:#f9d616;fill-opacity:1;fill-rule:evenodd;stroke:none;stroke-width:15.0628;stroke-linecap:square;stroke-linejoin:round;stroke-miterlimit:4;stroke-dasharray:none;stroke-dashoffset:0;stroke-opacity:1"
           d="m 331.34548,562.6498 c 4.64968,-4.64968 12.1883,-4.64968 16.83798,0 4.64968,4.64968 4.64968,12.1883 0,16.83798 -4.64968,4.64968 -86.99623,70.15825 -86.99623,70.15825 0,0 65.50857,-82.34655 70.15825,-86.99623 z"
           id="path20"
           inkscape:connector-curvature="0"
           sodipodi:nodetypes="zzzcz" />
        <path
           style="opacity:1;fill:#f9d616;fill-opacity:1;fill-rule:evenodd;stroke:none;stroke-width:15.0628;stroke-linecap:square;stroke-linejoin:round;stroke-miterlimit:4;stroke-dasharray:none;stroke-dashoffset:0;stroke-opacity:1"
           d="m 415.53538,562.64986 c -4.64968,-4.64968 -12.1883,-4.64968 -16.83798,0 -4.64968,4.64968 -4.64968,12.1883 0,16.83798 4.64968,4.64968 86.99623,70.15825 86.99623,70.15825 0,0 -65.50857,-82.34655 -70.15825,-86.99623 z"
           id="path21"
           inkscape:connector-curvature="0"
           sodipodi:nodetypes="zzzcz" />
        <path
           style="opacity:1;fill:#f9d616;fill-opacity:1;fill-rule:evenodd;stroke:none;stroke-width:15.0628;stroke-linecap:square;stroke-linejoin:round;stroke-miterlimit:4;stroke-dasharray:none;stroke-dashoffset:0;stroke-opacity:1"
           d="m 348.18352,495.29788 c 4.64968,4.64968 4.64968,12.1883 0,16.83798 -4.64968,4.64968 -12.1883,4.64968 -16.83798,0 -4.64968,-4.64968 -70.15825,-86.99623 -70.15825,-86.99623 0,0 82.34655,65.50857 86.99623,70.15825 z"
           id="path22"
           inkscape:connector-curvature="0"
           sodipodi:nodetypes="zzzcz" />
        <path
           style="opacity:1;fill:#f9d616;fill-opacity:1;fill-rule:evenodd;stroke:none;stroke-width:10.0419;stroke-linecap:square;stroke-linejoin:round;stroke-miterlimit:4;stroke-dasharray:none;stroke-dashoffset:0;stroke-opacity:1"
           d="m 340.28796,596.68829 c 1.67759,-4.05006 6.32077,-5.97333 10.37084,-4.29574 4.05007,1.67759 5.97334,6.32078 4.29574,10.37084 -1.67759,4.05007 -42.26511,81.29533 -42.26511,81.29533 0,0 25.92093,-83.32036 27.59853,-87.37043 z"
           id="path23"
           inkscape:connector-curvature="0"
           sodipodi:nodetypes="zzzcz" />
        <path
           style="opacity:1;fill:#f9d616;fill-opacity:1;fill-rule:evenodd;stroke:none;stroke-width:10.0419;stroke-linecap:square;stroke-linejoin:round;stroke-miterlimit:4;stroke-dasharray:none;stroke-dashoffset:0;stroke-opacity:1"
           d="m 438.81099,555.87878 c -4.05006,-1.6776 -8.69325,0.24567 -10.37084,4.29574 -1.67759,4.05007 0.24568,8.69325 4.29574,10.37084 4.05007,1.6776 87.37043,27.59853 87.37043,27.59853 0,0 -77.24526,-40.58752 -81.29533,-42.26511 z"
           id="path24"
           inkscape:connector-curvature="0"
           sodipodi:nodetypes="zzzcz" />
        <path
           style="opacity:1;fill:#f9d616;fill-opacity:1;fill-rule:evenodd;stroke:none;stroke-width:10.0419;stroke-linecap:square;stroke-linejoin:round;stroke-miterlimit:4;stroke-dasharray:none;stroke-dashoffset:0;stroke-opacity:1"
           d="m 314.14503,504.24036 c 4.05006,1.67759 5.97333,6.32077 4.29574,10.37084 -1.67759,4.05007 -6.32078,5.97334 -10.37084,4.29574 -4.05007,-1.67759 -81.29533,-42.26511 -81.29533,-42.26511 0,0 83.32036,25.92093 87.37043,27.59853 z"
           id="path25"
           inkscape:connector-curvature="0"
           sodipodi:nodetypes="zzzcz" />
        <path
           style="opacity:1;fill:#f9d616;fill-opacity:1;fill-rule:evenodd;stroke:none;stroke-width:10.0419;stroke-linecap:square;stroke-linejoin:round;stroke-miterlimit:4;stroke-dasharray:none;stroke-dashoffset:0;stroke-opacity:1"
           d="m 340.28803,478.0974 c 1.67759,4.05006 6.32078,5.97334 10.37085,4.29574 4.05006,-1.6776 5.97333,-6.32078 4.29574,-10.37084 -1.67759,-4.05007 -42.26511,-81.29533 -42.26511,-81.29533 0,0 25.92093,83.32036 27.59852,87.37043 z"
           id="path26"
           inkscape:connector-curvature="0"
           sodipodi:nodetypes="zzzcz" />
        <path
           style="opacity:1;fill:#f9d616;fill-opacity:1;fill-rule:evenodd;stroke:none;stroke-width:10.0419;stroke-linecap:square;stroke-linejoin:round;stroke-miterlimit:4;stroke-dasharray:none;stroke-dashoffset:0;stroke-opacity:1"
           d="m 391.9263,602.76342 c -1.67759,-4.05006 0.24568,-8.69324 4.29574,-10.37084 4.05007,-1.6776 8.69326,0.24568 10.37085,4.29574 1.67759,4.05007 27.59852,87.37043 27.59852,87.37043 0,0 -40.58752,-77.24526 -42.26511,-81.29533 z"
           id="path27"
           inkscape:connector-curvature="0"
           sodipodi:nodetypes="zzzcz" />
        <path
           style="opacity:1;fill:#f9d616;fill-opacity:1;fill-rule:evenodd;stroke:none;stroke-width:10.0419;stroke-linecap:square;stroke-linejoin:round;stroke-miterlimit:4;stroke-dasharray:none;stroke-dashoffset:0;stroke-opacity:1"
           d="m 432.73592,504.24043 c -4.05006,1.67759 -5.97334,6.32078 -4.29574,10.37085 1.6776,4.05006 6.32078,5.97333 10.37084,4.29574 4.05007,-1.67759 81.29533,-42.26511 81.29533,-42.26511 0,0 -83.32036,25.92093 -87.37043,27.59852 z"
           id="path28"
           inkscape:connector-curvature="0"
           sodipodi:nodetypes="zzzcz" />
        <path
           style="opacity:1;fill:#f9d616;fill-opacity:1;fill-rule:evenodd;stroke:none;stroke-width:10.0419;stroke-linecap:square;stroke-linejoin:round;stroke-miterlimit:4;stroke-dasharray:none;stroke-dashoffset:0;stroke-opacity:1"
           d="m 308.0699,555.8787 c 4.05006,-1.67759 8.69324,0.24568 10.37084,4.29574 1.6776,4.05007 -0.24568,8.69326 -4.29574,10.37085 -4.05007,1.67759 -87.37043,27.59852 -87.37043,27.59852 0,0 77.24526,-40.58752 81.29533,-42.26511 z"
           id="path29"
           inkscape:connector-curvature="0"
           sodipodi:nodetypes="zzzcz" />
      </g>
    </g>
  </g>
</svg>
