<?xml version="1.0" encoding="UTF-8" standalone="no"?>
<!-- Created with Inkscape (http://www.inkscape.org/) -->

<svg
   xmlns:dc="http://purl.org/dc/elements/1.1/"
   xmlns:cc="http://creativecommons.org/ns#"
   xmlns:rdf="http://www.w3.org/1999/02/22-rdf-syntax-ns#"
   xmlns:svg="http://www.w3.org/2000/svg"
   xmlns="http://www.w3.org/2000/svg"
   xmlns:sodipodi="http://sodipodi.sourceforge.net/DTD/sodipodi-0.dtd"
   xmlns:inkscape="http://www.inkscape.org/namespaces/inkscape"
   width="3636"
   height="1800"
   viewBox="0 0 962.02499 476.25001"
   version="1.1"
   id="svg8"
   inkscape:export-filename="C:\Users\厂永刄先生\Documents\GXI3CW2\,pjóŭ\Macédoine du nord.png"
   inkscape:export-xdpi="96"
   inkscape:export-ydpi="96"
   inkscape:version="0.92.4 (5da689c313, 2019-01-14)"
   sodipodi:docname="MO3GXI3TEN2.svg">
  <defs
     id="defs2" />
  <sodipodi:namedview
     id="base"
     pagecolor="#ffffff"
     bordercolor="#666666"
     borderopacity="1.0"
     inkscape:pageopacity="0.0"
     inkscape:pageshadow="2"
     inkscape:zoom="0.24532452"
     inkscape:cx="1818.0001"
     inkscape:cy="900"
     inkscape:document-units="px"
     inkscape:current-layer="g1364"
     showgrid="false"
     units="px"
     fit-margin-top="0"
     fit-margin-left="0"
     fit-margin-right="0"
     fit-margin-bottom="0"
     inkscape:showpageshadow="false"
     inkscape:snap-intersection-paths="true"
     inkscape:object-paths="false"
     inkscape:pagecheckerboard="true"
     inkscape:snap-smooth-nodes="true"
     inkscape:window-width="1366"
     inkscape:window-height="745"
     inkscape:window-x="-8"
     inkscape:window-y="-8"
     inkscape:window-maximized="1"
     inkscape:object-nodes="true"
     inkscape:snap-nodes="true"
     showguides="false" />
  <metadata
     id="metadata5">
    <rdf:RDF>
      <cc:Work
         rdf:about="">
        <dc:format>image/svg+xml</dc:format>
        <dc:type
           rdf:resource="http://purl.org/dc/dcmitype/StillImage" />
        <dc:title />
      </cc:Work>
    </rdf:RDF>
  </metadata>
  <g
     inkscape:label="レイヤー 1"
     inkscape:groupmode="layer"
     id="layer1"
     transform="translate(112.33452,-299.26786)">
    <g
       id="g1364"
       inkscape:export-xdpi="96"
       inkscape:export-ydpi="96">
      <path
         sodipodi:nodetypes="ccccc"
         inkscape:connector-curvature="0"
         id="path1079"
         d="m -102.80952,299.26786 h -9.525 v 476.25 h 9.525 z"
         style="fill:#ffffff;fill-opacity:1;stroke:none;stroke-width:0.51166773px;stroke-linecap:butt;stroke-linejoin:miter;stroke-opacity:1" />
      <path
         style="fill:#fffc00;fill-opacity:1;stroke:none;stroke-width:2.79620051px;stroke-linecap:butt;stroke-linejoin:miter;stroke-opacity:1"
         d="M 1656 0 L 1803.6895 580.20508 C 1825.1716 578.04739 1846.8284 578.04737 1868.3105 580.20508 L 2016 0 L 1656 0 z "
         transform="matrix(0.26458333,0,0,0.26458333,-112.33452,299.26786)"
         id="path830" />
      <path
         style="fill:#fffc00;fill-opacity:1;stroke:none;stroke-width:3.22877431px;stroke-linecap:butt;stroke-linejoin:miter;stroke-opacity:1"
         d="M 3156 0 L 2095.6543 710.46484 C 2108.1268 727.50739 2118.7074 745.50043 2127.4023 764.15625 L 3636 0 L 3156 0 z "
         transform="matrix(0.26458333,0,0,0.26458333,-112.33452,299.26786)"
         id="path838" />
      <path
         style="fill:#fffc00;fill-opacity:1;stroke:none;stroke-width:0.73982805px;stroke-linecap:butt;stroke-linejoin:miter;stroke-opacity:1"
         d="m 849.6904,489.76757 -391.68099,38.66947 c 0.62667,5.95276 0.6267,11.9583 0,17.91106 l 391.68099,38.66947 z"
         id="path842"
         inkscape:connector-curvature="0" />
      <path
         sodipodi:nodetypes="zzzzzzzzzz"
         inkscape:connector-curvature="0"
         id="path825"
         d="m 305.40476,537.39286 c 0,37.57508 30.46063,68.03571 68.03571,68.03571 37.57508,0 68.03572,-30.46063 68.03572,-68.03571 0,-37.57509 -30.46064,-68.03572 -68.03572,-68.03572 -37.57508,0 -68.03571,30.46063 -68.03571,68.03572 z m 153.08036,-1e-5 c 0,46.96886 -38.07581,85.04465 -85.04466,85.04465 -46.96885,10e-6 -85.04463,-38.07579 -85.04463,-85.04464 0,-46.96886 38.07578,-85.04465 85.04463,-85.04465 46.96885,0 85.04466,38.07579 85.04466,85.04464 z"
         style="opacity:1;fill:#fb1c10;fill-opacity:1;fill-rule:evenodd;stroke:none;stroke-width:86.0730896;stroke-linecap:square;stroke-linejoin:round;stroke-miterlimit:4;stroke-dasharray:none;stroke-dashoffset:0;stroke-opacity:1" />
      <path
         style="fill:#fb1c10;fill-opacity:1;stroke:none;stroke-width:3.22877431px;stroke-linecap:butt;stroke-linejoin:miter;stroke-opacity:1"
         d="M 2016 0 L 1868.3164 580.17773 C 1961.5712 589.488 2043.0706 638.66867 2095.5625 710.41211 L 2095.6543 710.46484 L 3156 0 L 2016 0 z "
         transform="matrix(0.26458333,0,0,0.26458333,-112.33452,299.26786)"
         id="path856" />
      <path
         style="fill:#fb1c10;fill-opacity:1;stroke:none;stroke-width:0.85427988px;stroke-linecap:butt;stroke-linejoin:miter;stroke-opacity:1"
         d="m 849.69047,299.26786 -399.1498,202.18301 0.0119,0.0439 c 3.8858,8.33272 6.46554,17.39714 7.46466,26.93324 l 0.002,0.008 391.67117,-38.66844 z"
         id="path861"
         inkscape:connector-curvature="0" />
      <path
         id="path869"
         d="m 24.19048,299.26786 280.5498,187.97715 c -3.30002,4.50918 -6.09947,9.26984 -8.39999,14.20586 L -102.80952,299.26786 Z"
         style="fill:#fffc00;fill-opacity:1;stroke:none;stroke-width:0.85427988px;stroke-linecap:butt;stroke-linejoin:miter;stroke-opacity:1"
         inkscape:connector-curvature="0" />
      <path
         id="path871"
         d="m 325.81549,299.26791 39.07462,153.50536 c -24.67367,2.46334 -46.23705,15.47572 -60.12553,34.45784 l -0.0243,0.0139 -280.5498,-187.97715 z"
         style="fill:#fb1c10;fill-opacity:1;stroke:none;stroke-width:0.85427988px;stroke-linecap:butt;stroke-linejoin:miter;stroke-opacity:1"
         inkscape:connector-curvature="0" />
      <path
         id="path873"
         d="m -102.80952,299.26786 399.1498,202.183 -0.0119,0.0439 c -3.8858,8.33272 -6.46554,17.39714 -7.46466,26.93324 l -0.002,0.008 -391.67117,-38.66845 z"
         style="fill:#fb1c10;fill-opacity:1;stroke:none;stroke-width:0.85427988px;stroke-linecap:butt;stroke-linejoin:miter;stroke-opacity:1"
         inkscape:connector-curvature="0" />
      <path
         id="path875"
         d="m -102.80945,489.76755 391.68099,38.66947 c -0.62667,5.95275 -0.62669,11.9583 0,17.91105 l -391.68099,38.66948 z"
         style="fill:#fffc00;fill-opacity:1;stroke:none;stroke-width:0.73982805px;stroke-linecap:butt;stroke-linejoin:miter;stroke-opacity:1"
         inkscape:connector-curvature="0" />
      <path
         inkscape:connector-curvature="0"
         style="fill:#fb1c10;fill-opacity:1;stroke:none;stroke-width:0.85427988px;stroke-linecap:butt;stroke-linejoin:miter;stroke-opacity:1"
         d="m -102.80952,775.51786 399.1498,-202.183 -0.0119,-0.0439 c -3.8858,-8.33272 -6.46554,-17.39714 -7.46466,-26.93324 l -0.002,-0.008 -391.67117,38.66845 z"
         id="path877" />
      <path
         inkscape:connector-curvature="0"
         style="fill:#fffc00;fill-opacity:1;stroke:none;stroke-width:0.85427988px;stroke-linecap:butt;stroke-linejoin:miter;stroke-opacity:1"
         d="m 24.19048,775.51786 280.5498,-187.97715 c -3.30002,-4.50918 -6.09947,-9.26984 -8.39999,-14.20586 l -399.14981,202.18301 z"
         id="path879" />
      <path
         inkscape:connector-curvature="0"
         style="fill:#fb1c10;fill-opacity:1;stroke:none;stroke-width:0.85427988px;stroke-linecap:butt;stroke-linejoin:miter;stroke-opacity:1"
         d="m 325.81549,775.51781 39.07462,-153.50536 c -24.67367,-2.46334 -46.23705,-15.47572 -60.12553,-34.45784 l -0.0243,-0.0139 -280.5498,187.97715 z"
         id="path881" />
      <path
         style="opacity:1;fill:#fffc00;fill-opacity:1;fill-rule:evenodd;stroke:none;stroke-width:86.0730896;stroke-linecap:square;stroke-linejoin:round;stroke-miterlimit:4;stroke-dasharray:none;stroke-dashoffset:0;stroke-opacity:1"
         d="m 305.40476,537.39286 c 0,37.57508 30.46063,68.03571 68.03571,68.03571 37.57508,0 68.03572,-30.46063 68.03572,-68.03571 0,-37.57509 -30.46064,-68.03572 -68.03572,-68.03572 -37.57508,0 -68.03571,30.46063 -68.03571,68.03572 z"
         id="path883"
         inkscape:connector-curvature="0"
         sodipodi:nodetypes="zzzzz" />
      <path
         id="path885"
         d="m 325.81549,775.51781 39.07618,-153.51259 c 5.68381,0.57089 11.41384,0.57089 17.09764,0 l 39.07618,153.51259 z"
         style="fill:#fffc00;fill-opacity:1;stroke:none;stroke-width:0.73982805px;stroke-linecap:butt;stroke-linejoin:miter;stroke-opacity:1"
         inkscape:connector-curvature="0" />
      <path
         inkscape:connector-curvature="0"
         id="path887"
         d="m 849.69054,775.51757 -399.1498,-202.18301 0.0119,-0.0439 c 3.8858,-8.33272 6.46554,-17.39714 7.46466,-26.93324 l 0.002,-0.008 391.67117,38.66844 z"
         style="fill:#fb1c10;fill-opacity:1;stroke:none;stroke-width:0.85427988px;stroke-linecap:butt;stroke-linejoin:miter;stroke-opacity:1" />
      <path
         id="path889"
         d="M 421.06549,775.51781 381.99087,622.01245 c 24.67367,-2.46334 46.23705,-15.47572 60.12553,-34.45784 l 0.0243,-0.0139 280.5498,187.97715 z"
         style="fill:#fb1c10;fill-opacity:1;stroke:none;stroke-width:0.85427988px;stroke-linecap:butt;stroke-linejoin:miter;stroke-opacity:1"
         inkscape:connector-curvature="0" />
      <path
         id="path891"
         d="M 722.69054,775.51757 442.14074,587.54041 c 3.30002,-4.50917 6.09947,-9.26983 8.39999,-14.20585 l 399.14981,202.18301 z"
         style="fill:#fffc00;fill-opacity:1;stroke:none;stroke-width:0.85427988px;stroke-linecap:butt;stroke-linejoin:miter;stroke-opacity:1"
         inkscape:connector-curvature="0" />
    </g>
  </g>
</svg>
