<?xml version="1.0" encoding="UTF-8" standalone="no"?>
<!-- Created with Inkscape (http://www.inkscape.org/) -->

<svg
   width="1800"
   height="1800"
   viewBox="0 0 476.25 476.25001"
   version="1.1"
   id="svg8"
   inkscape:export-filename="C:\Users\厂永刄先生\Documents\GXI3CW2\,pjóŭ\Ghana.png"
   inkscape:export-xdpi="96"
   inkscape:export-ydpi="96"
   inkscape:version="1.3 (0e150ed6c4, 2023-07-21)"
   sodipodi:docname="ye_1947_roundel.svg"
   xmlns:inkscape="http://www.inkscape.org/namespaces/inkscape"
   xmlns:sodipodi="http://sodipodi.sourceforge.net/DTD/sodipodi-0.dtd"
   xmlns="http://www.w3.org/2000/svg"
   xmlns:svg="http://www.w3.org/2000/svg"
   xmlns:rdf="http://www.w3.org/1999/02/22-rdf-syntax-ns#"
   xmlns:cc="http://creativecommons.org/ns#"
   xmlns:dc="http://purl.org/dc/elements/1.1/">
  <defs
     id="defs2" />
  <sodipodi:namedview
     id="base"
     pagecolor="#ffffff"
     bordercolor="#666666"
     borderopacity="1.0"
     inkscape:pageopacity="0.0"
     inkscape:pageshadow="2"
     inkscape:zoom="0.30222223"
     inkscape:cx="1043.9338"
     inkscape:cy="1106.8014"
     inkscape:document-units="px"
     inkscape:current-layer="layer1"
     showgrid="false"
     units="px"
     fit-margin-top="0"
     fit-margin-left="0"
     fit-margin-right="0"
     fit-margin-bottom="0"
     inkscape:showpageshadow="false"
     inkscape:snap-intersection-paths="true"
     inkscape:object-paths="false"
     inkscape:pagecheckerboard="true"
     inkscape:snap-smooth-nodes="false"
     inkscape:window-width="1920"
     inkscape:window-height="1009"
     inkscape:window-x="-8"
     inkscape:window-y="-8"
     inkscape:window-maximized="1"
     inkscape:object-nodes="true"
     inkscape:snap-nodes="true"
     inkscape:deskcolor="#505050" />
  <metadata
     id="metadata5">
    <rdf:RDF>
      <cc:Work
         rdf:about="">
        <dc:format>image/svg+xml</dc:format>
        <dc:type
           rdf:resource="http://purl.org/dc/dcmitype/StillImage" />
      </cc:Work>
    </rdf:RDF>
  </metadata>
  <g
     inkscape:label="レイヤー 1"
     inkscape:groupmode="layer"
     id="layer1"
     transform="translate(-444.87799,-608.83038)">
    <path
       id="circle7"
       style="fill:#ff0000;fill-opacity:1;stroke-width:13.0235;stroke-linecap:round;stroke-linejoin:round;stroke-miterlimit:155;paint-order:stroke fill markers"
       d="m 921.12799,846.95538 c 0,131.5128 -106.6122,238.12502 -238.125,238.12502 -131.5128,0 -238.125,-106.61222 -238.125,-238.12502 0,-131.5128 106.6122,-238.125 238.125,-238.125 131.5128,0 238.125,106.6122 238.125,238.125 z"
       sodipodi:nodetypes="zzzzz" />
    <path
       id="circle8"
       style="fill:#ffffff;fill-opacity:1;stroke-width:8.68233;stroke-linecap:round;stroke-linejoin:round;stroke-miterlimit:155;paint-order:stroke fill markers"
       d="m 841.75299,846.95538 c 0,87.6752 -71.0748,158.75002 -158.75,158.75002 -87.6752,0 -158.75,-71.07482 -158.75,-158.75002 0,-87.6752 71.0748,-158.75 158.75,-158.75 87.6752,0 158.75,71.0748 158.75,158.75 z"
       sodipodi:nodetypes="zzzzz" />
    <path
       id="circle9"
       style="fill:#ff0000;fill-opacity:1;stroke-width:4.34116;stroke-linecap:round;stroke-linejoin:round;stroke-miterlimit:155;paint-order:stroke fill markers"
       d="m 762.37799,846.95538 c 0,43.8376 -35.5374,79.375 -79.375,79.375 -43.8376,0 -79.375,-35.5374 -79.375,-79.375 0,-43.8376 35.5374,-79.375 79.375,-79.375 43.8376,0 79.375,35.5374 79.375,79.375 z"
       sodipodi:nodetypes="zzzzz" />
    <path
       sodipodi:nodetypes="ccccccccccc"
       inkscape:connector-curvature="0"
       id="path17"
       d="m 695.52197,783.8197 -7.73717,5.62137 2.95534,9.09556 -7.73715,-5.62137 -7.73716,5.62137 2.95533,-9.09556 -7.73715,-5.62137 h 9.56365 l 2.95533,-9.09557 2.95532,9.09557 z"
       style="fill:#ffffff;fill-opacity:1;stroke:none;stroke-width:0.264585;stroke-linecap:butt;stroke-linejoin:miter;stroke-miterlimit:4;stroke-dasharray:none;stroke-opacity:1" />
    <path
       id="path31"
       style="fill:#ffffff;stroke:none;stroke-width:0.528524;stroke-linecap:square;stroke-linejoin:round;stroke-miterlimit:3.9;stroke-dasharray:none;stroke-opacity:1;paint-order:stroke fill markers"
       d="m 648.15712,839.64995 c -7.20626,2.12471 -9.92764,4.94463 -10.81087,9.86961 -0.16261,0.90676 -0.25128,1.77624 -0.29085,2.61817 -2.51648,-0.60491 -4.88447,-1.20853 -6.88025,-1.7905 -3.63147,-1.05893 -5.47191,-1.88497 -8.10036,-3.0824 -5.61573,-2.55836 -10.93989,2.02524 -10.48172,5.75023 1.04826,8.52254 10.8367,7.2893 11.39867,3.30909 4.75863,1.47978 9.72949,2.81721 14.89048,3.9855 0.84975,4.90249 1.29955,9.31554 -4.52981,15.11784 7.20626,-2.12472 9.92764,-4.94476 10.81086,-9.86973 0.24451,-1.36344 0.32858,-2.64603 0.31431,-3.86912 15.62637,2.57805 49.18736,7.76405 63.49676,7.58129 36.76674,-0.46957 46.46615,-17.15141 46.46615,-23.66177 -26.66024,20.04103 -74.78576,15.49041 -111.01184,7.95068 -0.68157,-4.43437 -0.61909,-8.58616 4.72847,-13.90889 z"
       sodipodi:nodetypes="cscssscccscsccc" />
    <path
       sodipodi:nodetypes="ccccccccccc"
       inkscape:connector-curvature="0"
       id="path18"
       d="m 734.15738,804.25813 -2.95532,9.09559 -9.56364,-10e-6 7.73715,5.62136 -2.95533,9.09558 7.73715,-5.62137 7.73715,5.62137 -2.95533,-9.09557 7.73715,-5.62137 -9.56364,10e-6 z"
       style="fill:#ffffff;fill-opacity:1;stroke:none;stroke-width:0.264585;stroke-linecap:butt;stroke-linejoin:miter;stroke-miterlimit:4;stroke-dasharray:none;stroke-opacity:1" />
    <path
       sodipodi:nodetypes="ccccccccccc"
       inkscape:connector-curvature="0"
       id="path20"
       d="m 635.7647,890.67474 9.56366,2e-5 2.95532,-9.09557 2.95532,9.09557 9.56366,0 -7.73715,5.62137 2.95533,9.09556 -7.73716,-5.62137 -7.73715,5.62137 2.95534,-9.09556 z"
       style="fill:#ffffff;fill-opacity:1;stroke:none;stroke-width:0.264585;stroke-linecap:butt;stroke-linejoin:miter;stroke-miterlimit:4;stroke-dasharray:none;stroke-opacity:1" />
    <path
       sodipodi:nodetypes="ccccccccccc"
       inkscape:connector-curvature="0"
       id="path22"
       d="m 709.98514,905.39169 2.95535,-9.09558 -7.73716,-5.62136 9.56365,10e-6 2.95533,-9.09558 2.95533,9.09557 9.56364,-10e-6 -7.73715,5.62138 2.95533,9.09557 -7.73715,-5.62138 z"
       style="fill:#ffffff;fill-opacity:1;stroke:none;stroke-width:0.264585;stroke-linecap:butt;stroke-linejoin:miter;stroke-miterlimit:4;stroke-dasharray:none;stroke-opacity:1" />
    <path
       sodipodi:nodetypes="ccccccccccc"
       inkscape:connector-curvature="0"
       id="path30"
       d="m 631.8486,804.25813 2.95532,9.09559 9.56364,-10e-6 -7.73715,5.62136 2.95533,9.09558 -7.73715,-5.62137 -7.73715,5.62137 2.95533,-9.09557 -7.73715,-5.62137 9.56364,10e-6 z"
       style="fill:#ffffff;fill-opacity:1;stroke:none;stroke-width:0.264585;stroke-linecap:butt;stroke-linejoin:miter;stroke-miterlimit:4;stroke-dasharray:none;stroke-opacity:1" />
  </g>
</svg>
