<?xml version="1.0" encoding="UTF-8" standalone="no"?>
<!-- Created with Inkscape (http://www.inkscape.org/) -->

<svg
   width="3336"
   height="1800"
   viewBox="0 0 882.64999 476.25001"
   version="1.1"
   id="svg8"
   inkscape:export-filename="C:\Users\厂永刄先生\Documents\GXI3CW2\JáÈŭcèŭ\Maqkàla\Maqkàla.png"
   inkscape:export-xdpi="96"
   inkscape:export-ydpi="96"
   inkscape:version="1.3 (0e150ed6c4, 2023-07-21)"
   sodipodi:docname="ye_1927.svg"
   xmlns:inkscape="http://www.inkscape.org/namespaces/inkscape"
   xmlns:sodipodi="http://sodipodi.sourceforge.net/DTD/sodipodi-0.dtd"
   xmlns="http://www.w3.org/2000/svg"
   xmlns:svg="http://www.w3.org/2000/svg"
   xmlns:rdf="http://www.w3.org/1999/02/22-rdf-syntax-ns#"
   xmlns:cc="http://creativecommons.org/ns#"
   xmlns:dc="http://purl.org/dc/elements/1.1/">
  <defs
     id="defs2" />
  <sodipodi:namedview
     id="base"
     pagecolor="#ffffff"
     bordercolor="#666666"
     borderopacity="1.0"
     inkscape:pageopacity="0.0"
     inkscape:pageshadow="2"
     inkscape:zoom="0.15111111"
     inkscape:cx="1750.3677"
     inkscape:cy="890.07354"
     inkscape:document-units="px"
     inkscape:current-layer="layer1"
     showgrid="false"
     units="px"
     fit-margin-top="0"
     fit-margin-left="0"
     fit-margin-right="0"
     fit-margin-bottom="0"
     inkscape:showpageshadow="false"
     inkscape:snap-intersection-paths="true"
     inkscape:object-paths="false"
     inkscape:pagecheckerboard="true"
     inkscape:snap-smooth-nodes="false"
     inkscape:window-width="1920"
     inkscape:window-height="1009"
     inkscape:window-x="-8"
     inkscape:window-y="-8"
     inkscape:window-maximized="1"
     inkscape:object-nodes="true"
     inkscape:deskcolor="#505050" />
  <metadata
     id="metadata5">
    <rdf:RDF>
      <cc:Work
         rdf:about="">
        <dc:format>image/svg+xml</dc:format>
        <dc:type
           rdf:resource="http://purl.org/dc/dcmitype/StillImage" />
      </cc:Work>
    </rdf:RDF>
  </metadata>
  <g
     inkscape:label="レイヤー 1"
     inkscape:groupmode="layer"
     id="layer1"
     transform="translate(112.33452,-299.26786)">
    <path
       style="fill:#ff0101;fill-opacity:1;stroke:none;stroke-width:1.8403px;stroke-linecap:butt;stroke-linejoin:miter;stroke-opacity:1"
       d="m -102.80952,299.26786 v 476.25 h 873.125 v -476.25 z"
       id="path849"
       inkscape:connector-curvature="0"
       sodipodi:nodetypes="ccccc" />
    <path
       style="fill:#ffffff;fill-opacity:1;stroke:none;stroke-width:0.511668px;stroke-linecap:butt;stroke-linejoin:miter;stroke-opacity:1"
       d="m -102.80952,299.26786 h -9.525 v 476.25 h 9.525 z"
       id="path819"
       inkscape:connector-curvature="0"
       sodipodi:nodetypes="ccccc" />
    <path
       sodipodi:nodetypes="ccccccccccc"
       inkscape:connector-curvature="0"
       id="path17"
       d="m 371.49803,472.21207 -23.32774,16.94857 8.91041,27.42338 -23.32772,-16.94859 -23.32772,16.94859 8.9104,-27.42338 -23.32772,-16.94857 h 28.83465 l 8.9104,-27.42338 8.91038,27.42338 z"
       style="fill:#ffffff;fill-opacity:1;stroke:none;stroke-width:0.797731;stroke-linecap:butt;stroke-linejoin:miter;stroke-miterlimit:4;stroke-dasharray:none;stroke-opacity:1" />
    <path
       sodipodi:nodetypes="ccccccccccc"
       inkscape:connector-curvature="0"
       id="path19"
       d="m -65.064476,366.37874 23.327732,16.94857 -8.910406,27.42338 23.327718,-16.94859 23.327717,16.94859 -8.9104,-27.42338 23.327723,-16.94857 h -28.834646 l -8.9104,-27.42338 -8.910383,27.42338 z"
       style="fill:#ffffff;fill-opacity:1;stroke:none;stroke-width:0.797731;stroke-linecap:butt;stroke-linejoin:miter;stroke-miterlimit:4;stroke-dasharray:none;stroke-opacity:1" />
    <path
       sodipodi:nodetypes="ccccccccccc"
       inkscape:connector-curvature="0"
       id="path24"
       d="m -65.064476,683.87874 23.327732,16.94857 -8.910406,27.42339 23.327718,-16.9486 23.327717,16.9486 -8.9104,-27.42339 23.327723,-16.94857 h -28.834646 l -8.9104,-27.42338 -8.910383,27.42338 z"
       style="fill:#ffffff;fill-opacity:1;stroke:none;stroke-width:0.797731;stroke-linecap:butt;stroke-linejoin:miter;stroke-miterlimit:4;stroke-dasharray:none;stroke-opacity:1" />
    <path
       id="path31"
       style="fill:#ffffff;stroke:none;stroke-width:2.05537;stroke-linecap:square;stroke-linejoin:round;stroke-miterlimit:3.9;stroke-dasharray:none;stroke-opacity:1;paint-order:stroke fill markers"
       d="m 198.24126,516.95225 c -28.02435,8.26278 -38.60749,19.22913 -42.04225,38.38182 -0.63238,3.52627 -0.97722,6.9076 -1.13111,10.18175 -9.78628,-2.35239 -18.99516,-4.69983 -26.75652,-6.96302 -14.12237,-4.11806 -21.27966,-7.33044 -31.501399,-11.98714 -21.838961,-9.94915 -42.544021,7.87596 -40.762248,22.36202 4.07659,33.14321 42.142726,28.34726 44.328177,12.8687 18.50579,5.75467 37.83689,10.95578 57.9074,15.49913 3.3046,19.06525 5.05383,36.2271 -17.61592,58.79161 28.02435,-8.26278 38.60749,-19.2296 42.04223,-38.38227 0.95089,-5.30226 1.27781,-10.29013 1.22233,-15.04657 60.76923,10.02572 191.28417,30.19351 246.93184,29.48279 142.98176,-1.82613 180.70169,-66.69992 180.70169,-92.01801 -103.67872,77.93736 -290.83351,60.2405 -431.71271,30.91931 -2.65053,-17.24478 -2.40757,-33.3906 18.38849,-54.09012 z"
       sodipodi:nodetypes="cscssscccscsccc" />
    <path
       sodipodi:nodetypes="ccccccccccc"
       inkscape:connector-curvature="0"
       id="path1"
       d="m 732.57044,366.37874 -23.32774,16.94857 8.91041,27.42338 -23.32772,-16.94859 -23.32771,16.94859 8.9104,-27.42338 -23.32773,-16.94857 H 685.915 l 8.9104,-27.42338 8.91038,27.42338 z"
       style="fill:#ffffff;fill-opacity:1;stroke:none;stroke-width:0.797731;stroke-linecap:butt;stroke-linejoin:miter;stroke-miterlimit:4;stroke-dasharray:none;stroke-opacity:1" />
    <path
       sodipodi:nodetypes="ccccccccccc"
       inkscape:connector-curvature="0"
       id="path2"
       d="m 732.57044,683.87874 -23.32774,16.94857 8.91041,27.42339 -23.32772,-16.9486 -23.32771,16.9486 8.9104,-27.42339 -23.32773,-16.94857 H 685.915 l 8.9104,-27.42338 8.91038,27.42338 z"
       style="fill:#ffffff;fill-opacity:1;stroke:none;stroke-width:0.797731;stroke-linecap:butt;stroke-linejoin:miter;stroke-miterlimit:4;stroke-dasharray:none;stroke-opacity:1" />
  </g>
</svg>
