<?xml version="1.0" encoding="UTF-8" standalone="no"?>
<!-- Created with Inkscape (http://www.inkscape.org/) -->

<svg
   width="3755.9995"
   height="1800"
   viewBox="0 0 993.77486 476.25001"
   version="1.1"
   id="svg8"
   inkscape:export-filename="C:\Users\厂永刄先生\Documents\GXI3CW2\JáÈŭcèŭ\Maqkàla\Maqkàla.png"
   inkscape:export-xdpi="96"
   inkscape:export-ydpi="96"
   inkscape:version="1.3 (0e150ed6c4, 2023-07-21)"
   sodipodi:docname="ru_1918-04 - コピー.svg"
   xmlns:inkscape="http://www.inkscape.org/namespaces/inkscape"
   xmlns:sodipodi="http://sodipodi.sourceforge.net/DTD/sodipodi-0.dtd"
   xmlns="http://www.w3.org/2000/svg"
   xmlns:svg="http://www.w3.org/2000/svg"
   xmlns:rdf="http://www.w3.org/1999/02/22-rdf-syntax-ns#"
   xmlns:cc="http://creativecommons.org/ns#"
   xmlns:dc="http://purl.org/dc/elements/1.1/">
  <defs
     id="defs2" />
  <sodipodi:namedview
     id="base"
     pagecolor="#ffffff"
     bordercolor="#666666"
     borderopacity="1.0"
     inkscape:pageopacity="0.0"
     inkscape:pageshadow="2"
     inkscape:zoom="0.17347064"
     inkscape:cx="1383.5194"
     inkscape:cy="856.05265"
     inkscape:document-units="px"
     inkscape:current-layer="layer1"
     showgrid="false"
     units="px"
     fit-margin-top="0"
     fit-margin-left="0"
     fit-margin-right="0"
     fit-margin-bottom="0"
     inkscape:showpageshadow="false"
     inkscape:snap-intersection-paths="false"
     inkscape:object-paths="false"
     inkscape:pagecheckerboard="true"
     inkscape:snap-smooth-nodes="false"
     inkscape:window-width="1920"
     inkscape:window-height="1009"
     inkscape:window-x="-8"
     inkscape:window-y="-8"
     inkscape:window-maximized="1"
     inkscape:object-nodes="true"
     showguides="false"
     inkscape:guide-bbox="true"
     inkscape:deskcolor="#505050" />
  <metadata
     id="metadata5">
    <rdf:RDF>
      <cc:Work
         rdf:about="">
        <dc:format>image/svg+xml</dc:format>
        <dc:type
           rdf:resource="http://purl.org/dc/dcmitype/StillImage" />
      </cc:Work>
    </rdf:RDF>
  </metadata>
  <g
     inkscape:label="レイヤー 1"
     inkscape:groupmode="layer"
     id="layer1"
     transform="translate(112.33452,-299.26786)">
    <path
       style="fill:#cf101a;fill-opacity:1;stroke:none;stroke-width:0.176852px;stroke-linecap:butt;stroke-linejoin:miter;stroke-opacity:1"
       d="m -102.80952,775.51786 v -476.25 h 984.24987 v 476.25 z"
       id="path55"
       inkscape:connector-curvature="0"
       sodipodi:nodetypes="ccccc" />
    <path
       style="fill:#ffffff;fill-opacity:1;stroke:none;stroke-width:0.511668px;stroke-linecap:butt;stroke-linejoin:miter;stroke-opacity:1"
       d="m -102.80952,299.26786 h -9.525 v 476.25 h 9.525 z"
       id="path819"
       inkscape:connector-curvature="0"
       sodipodi:nodetypes="ccccc" />
    <g
       id="g44"
       style="fill:#ffffff"
       transform="matrix(1.1999999,0,0,1.1999999,376.36685,547.54815)">
      <g
         id="g46"
         style="fill:#ffffff">
        <path
           style="fill:#ffffff;fill-opacity:1;stroke:none;stroke-width:0.00578952px;stroke-linecap:butt;stroke-linejoin:miter;stroke-opacity:1"
           d="M 24.019628,57.683103 H 50.477961 V -74.608561 H 24.019628 Z M -2.438705,-74.608561 H -28.897038 V 57.683103 l 26.458333,10e-7 z m 0,-26.458329 v -26.45834 h 26.458333 v 26.45834 H 76.936294 V 84.141436 H 24.019628 V 110.59977 H -2.438705 V 84.141436 H -55.355371 V -101.06689 Z"
           id="path20"
           inkscape:connector-curvature="0"
           sodipodi:nodetypes="ccccccccccccccccccccccc" />
        <path
           style="fill:#ffffff;fill-opacity:1;stroke:none;stroke-width:0.00578952px;stroke-linecap:butt;stroke-linejoin:miter;stroke-opacity:1"
           d="M -108.27203,84.14144 V 57.6831 h 26.458329 v 52.91668 l -105.833329,-10e-6 v -238.12501 l 105.833329,1e-5 v 52.916669 h -26.458329 l -1e-5,-26.458329 -52.91665,-1e-5 -1e-5,185.20834 z"
           id="path9-0"
           inkscape:connector-curvature="0"
           sodipodi:nodetypes="ccccccccccccc" />
        <path
           style="fill:#ffffff;fill-opacity:1;stroke:none;stroke-width:0.00578952px;stroke-linecap:butt;stroke-linejoin:miter;stroke-opacity:1"
           d="m -319.9387,-127.52525 105.83333,1e-5 2e-5,132.2916747 -79.375,-10e-6 -1e-5,105.8333353 h -26.45833 z m 26.45835,105.833334 52.91666,1.4e-5 -2e-5,-79.375008 h -52.91666 z"
           id="path33"
           inkscape:connector-curvature="0"
           sodipodi:nodetypes="cccccccccccc" />
        <path
           style="fill:#ffffff;fill-opacity:1;stroke:none;stroke-width:0.00578952px;stroke-linecap:butt;stroke-linejoin:miter;stroke-opacity:1"
           d="M 182.76963,84.14144 V 57.6831 h 26.45833 v 52.91668 l -105.83333,-10e-6 v -238.12501 l 105.83333,1e-5 v 52.916669 h -26.45833 l -1e-5,-26.458329 -52.91665,-1e-5 -1e-5,185.20834 z"
           id="path45"
           inkscape:connector-curvature="0"
           sodipodi:nodetypes="ccccccccccccc" />
        <path
           style="fill:#ffffff;fill-opacity:1;stroke:none;stroke-width:0.00578952px;stroke-linecap:butt;stroke-linejoin:miter;stroke-opacity:1"
           d="m 235.68626,-127.52525 105.83333,1e-5 2e-5,132.2916747 -79.375,-10e-6 -10e-6,105.8333353 h -26.45833 z m 26.45835,105.833334 52.91666,1.4e-5 -2e-5,-79.375008 h -52.91666 z"
           id="path46"
           inkscape:connector-curvature="0"
           sodipodi:nodetypes="cccccccccccc" />
      </g>
    </g>
  </g>
</svg>
