<?xml version="1.0" encoding="UTF-8" standalone="no"?>
<!-- Created with Inkscape (http://www.inkscape.org/) -->

<svg
   width="3300"
   height="1800"
   viewBox="0 0 873.125 476.25001"
   version="1.1"
   id="svg8"
   inkscape:export-filename="C:\Users\厂永刄先生\Documents\GXI3CW2\JáÈŭcèŭ\Èŭmen\Í\意軍.png"
   inkscape:export-xdpi="96"
   inkscape:export-ydpi="96"
   inkscape:version="1.3 (0e150ed6c4, 2023-07-21)"
   sodipodi:docname="me_2018_roundel-lv.svg"
   xmlns:inkscape="http://www.inkscape.org/namespaces/inkscape"
   xmlns:sodipodi="http://sodipodi.sourceforge.net/DTD/sodipodi-0.dtd"
   xmlns="http://www.w3.org/2000/svg"
   xmlns:svg="http://www.w3.org/2000/svg"
   xmlns:rdf="http://www.w3.org/1999/02/22-rdf-syntax-ns#"
   xmlns:cc="http://creativecommons.org/ns#"
   xmlns:dc="http://purl.org/dc/elements/1.1/">
  <defs
     id="defs2" />
  <sodipodi:namedview
     id="base"
     pagecolor="#ffffff"
     bordercolor="#666666"
     borderopacity="1.0"
     inkscape:pageopacity="0.0"
     inkscape:pageshadow="2"
     inkscape:zoom="0.21370339"
     inkscape:cx="1686.9176"
     inkscape:cy="376.69033"
     inkscape:document-units="px"
     inkscape:current-layer="layer1"
     showgrid="false"
     units="px"
     fit-margin-top="0"
     fit-margin-left="0"
     fit-margin-right="0"
     fit-margin-bottom="0"
     inkscape:showpageshadow="false"
     inkscape:snap-intersection-paths="false"
     inkscape:object-paths="false"
     inkscape:pagecheckerboard="true"
     inkscape:snap-smooth-nodes="false"
     inkscape:window-width="1920"
     inkscape:window-height="1009"
     inkscape:window-x="-8"
     inkscape:window-y="-8"
     inkscape:window-maximized="1"
     inkscape:object-nodes="true"
     inkscape:snap-nodes="true"
     inkscape:deskcolor="#505050" />
  <metadata
     id="metadata5">
    <rdf:RDF>
      <cc:Work
         rdf:about="">
        <dc:format>image/svg+xml</dc:format>
        <dc:type
           rdf:resource="http://purl.org/dc/dcmitype/StillImage" />
      </cc:Work>
    </rdf:RDF>
  </metadata>
  <g
     inkscape:label="レイヤー 1"
     inkscape:groupmode="layer"
     id="layer1"
     transform="translate(86.93454,-394.51785)">
    <g
       id="g9">
      <path
         id="path5"
         style="fill:#808080;stroke-width:0.246303;stroke-linejoin:round;stroke-miterlimit:5.2"
         d="M 667.12799,751.70536 786.1905,513.58036 H -86.93454 l 119.06251,238.125 z"
         sodipodi:nodetypes="ccccc" />
      <path
         id="path6"
         style="fill:#cccccc;fill-opacity:1;stroke-width:0.396585;stroke-linejoin:round;stroke-miterlimit:5.2"
         d="m 753.03515,553.26786 13.89062,-27.78125 H -67.66982 l 13.890629,27.78125 z"
         sodipodi:nodetypes="ccccc" />
      <path
         id="path7"
         style="fill:#cccccc;fill-opacity:1;stroke-width:0.396585;stroke-linejoin:round;stroke-miterlimit:5.2"
         d="m 659.7695,739.79911 13.89062,-27.78125 H 25.595831 l 13.890629,27.78125 z"
         sodipodi:nodetypes="ccccc" />
      <path
         sodipodi:nodetypes="zzzzz"
         inkscape:connector-curvature="0"
         id="path1"
         d="m 587.75298,632.64287 c 0,-131.51282 -106.61218,-238.12502 -238.12498,-238.12502 -131.51282,0 -238.12502,106.6122 -238.12502,238.12502 0,131.5128 106.6122,238.125 238.12502,238.125 131.51282,0 238.12498,-106.6122 238.12498,-238.125 z"
         style="fill:#808080;fill-opacity:1;fill-rule:evenodd;stroke:none;stroke-width:0.372884;stroke-linecap:round;stroke-linejoin:round;stroke-miterlimit:4;stroke-dasharray:none;stroke-dashoffset:0;stroke-opacity:0.501961" />
      <path
         sodipodi:nodetypes="zzzzzzzzzz"
         inkscape:connector-curvature="0"
         id="path2"
         d="m 151.19048,632.64285 c 0,109.59402 88.8435,198.43752 198.43752,198.43752 109.594,0 198.43748,-88.8435 198.43748,-198.43752 0,-109.594 -88.84346,-198.4375 -198.43748,-198.4375 -109.59402,0 -198.43752,88.8435 -198.43752,198.4375 z m 424.65625,0 c 0,124.93718 -101.28157,226.21877 -226.21873,226.21877 -124.93718,0 -226.21877,-101.28159 -226.21877,-226.21877 0,-124.93716 101.28159,-226.21875 226.21877,-226.21875 124.93718,0 226.21873,101.28159 226.21873,226.21875 z"
         style="fill:#cccccc;fill-opacity:1;fill-rule:evenodd;stroke:none;stroke-width:0.310736;stroke-linecap:round;stroke-linejoin:round;stroke-miterlimit:4;stroke-dasharray:none;stroke-dashoffset:0;stroke-opacity:0.501961" />
      <path
         style="fill:#cccccc;fill-opacity:1;stroke-width:0.844815;stroke-linejoin:round;stroke-miterlimit:5.2"
         d="m 510.22901,553.26786 c 0,0 -58.10474,31.75 -160.60103,31.75 -102.49629,0 -160.60104,-31.75 -160.60104,-31.75 v 158.75 c 0,0 58.10475,-31.75 160.60104,-31.75 102.49629,0 160.60103,31.75 160.60103,31.75 z"
         id="path8"
         sodipodi:nodetypes="czcczcc" />
      <path
         style="fill:#cccccc;fill-opacity:1;stroke-width:0.844815;stroke-linejoin:round;stroke-miterlimit:5.2"
         d="m 429.00297,793.2439 c 0,0 -31.75,-58.10474 -31.75,-160.60103 0,-102.4963 31.75,-160.60105 31.75,-160.60105 h -158.75 c 0,0 31.75,58.10475 31.75,160.60105 0,102.49628 -31.75,160.60103 -31.75,160.60103 z"
         id="path9"
         sodipodi:nodetypes="czcczcc" />
    </g>
  </g>
</svg>
