<?xml version="1.0" encoding="UTF-8" standalone="no"?>
<!-- Created with Inkscape (http://www.inkscape.org/) -->

<svg
   width="2736"
   height="1800"
   viewBox="0 0 723.9 476.25001"
   version="1.1"
   id="svg8"
   inkscape:export-filename="C:\Users\厂永刄先生\Documents\GXI3CW2\,pjóŭ\Ghana.png"
   inkscape:export-xdpi="96"
   inkscape:export-ydpi="96"
   inkscape:version="1.3 (0e150ed6c4, 2023-07-21)"
   sodipodi:docname="mz_1983.svg"
   xml:space="preserve"
   xmlns:inkscape="http://www.inkscape.org/namespaces/inkscape"
   xmlns:sodipodi="http://sodipodi.sourceforge.net/DTD/sodipodi-0.dtd"
   xmlns="http://www.w3.org/2000/svg"
   xmlns:svg="http://www.w3.org/2000/svg"
   xmlns:rdf="http://www.w3.org/1999/02/22-rdf-syntax-ns#"
   xmlns:cc="http://creativecommons.org/ns#"
   xmlns:dc="http://purl.org/dc/elements/1.1/"><defs
     id="defs2" /><sodipodi:namedview
     id="base"
     pagecolor="#ffffff"
     bordercolor="#666666"
     borderopacity="1.0"
     inkscape:pageopacity="0.0"
     inkscape:pageshadow="2"
     inkscape:zoom="0.22097087"
     inkscape:cx="672.03427"
     inkscape:cy="1043.1239"
     inkscape:document-units="px"
     inkscape:current-layer="layer1"
     showgrid="false"
     units="px"
     fit-margin-top="0"
     fit-margin-left="0"
     fit-margin-right="0"
     fit-margin-bottom="0"
     inkscape:showpageshadow="false"
     inkscape:snap-intersection-paths="true"
     inkscape:object-paths="false"
     inkscape:pagecheckerboard="true"
     inkscape:snap-smooth-nodes="false"
     inkscape:window-width="1920"
     inkscape:window-height="1009"
     inkscape:window-x="-8"
     inkscape:window-y="-8"
     inkscape:window-maximized="1"
     inkscape:object-nodes="true"
     inkscape:snap-nodes="true"
     inkscape:deskcolor="#505050" /><metadata
     id="metadata5"><rdf:RDF><cc:Work
         rdf:about=""><dc:format>image/svg+xml</dc:format><dc:type
           rdf:resource="http://purl.org/dc/dcmitype/StillImage" /></cc:Work></rdf:RDF></metadata><g
     inkscape:label="レイヤー 1"
     inkscape:groupmode="layer"
     id="layer1"
     transform="translate(-645.35822,-691.1236)"><path
       id="rect2"
       style="fill:#00a800;stroke-width:0.6371;stroke-linejoin:round;stroke-miterlimit:3.9;fill-opacity:1"
       d="m 654.88324,691.1236 h 714.37496 v 142.875 l -500.06249,0 z"
       sodipodi:nodetypes="ccccc" /><rect
       style="fill:#ffffff;fill-opacity:1;stroke-width:0.134312;stroke-linejoin:round;stroke-miterlimit:3.9"
       id="rect1"
       width="9.5250006"
       height="476.25"
       x="645.35822"
       y="691.1236" /><path
       id="path7"
       style="fill:#ff0000;stroke:none;stroke-width:0.396838;stroke-linejoin:round;stroke-miterlimit:3.9"
       inkscape:transform-center-y="4.9020473e-06"
       d="m 1012.0707,929.24861 -357.18747,238.12499 10e-6,-476.25 z"
       sodipodi:nodetypes="cccc" /><path
       id="path8"
       style="fill:#ffc000;stroke-width:0.254376;stroke-linejoin:round;stroke-miterlimit:3.9;fill-opacity:1"
       inkscape:transform-center-x="-3.9978683e-06"
       inkscape:transform-center-y="-26.326459"
       d="m 769.97692,833.9986 23.64263,72.76453 h 76.50915 l -61.89721,44.97094 23.64262,72.76453 -61.89719,-44.97095 -61.8972,44.97095 23.64263,-72.76453 -61.8972,-44.97094 h 76.50914 z"
       sodipodi:nodetypes="ccccccccccc" /><g
       id="g2"
       transform="translate(522.14943,298.04306)"
       style="fill:#fefefe;fill-opacity:1;stroke-width:0.9525;stroke-dasharray:none"><path
         style="fill:#fefefe;fill-opacity:1;stroke:#000000;stroke-width:0.9525;stroke-linecap:round;stroke-linejoin:round;stroke-dasharray:none"
         d="m 238.21193,662.13067 -0.0628,24.77446 c -0.005,1.84123 6.90415,2.2629 9.67836,2.2629 2.77421,0 9.68303,-0.42167 9.67836,-2.2629 l -0.0628,-24.77446"
         id="path3"
         sodipodi:nodetypes="cszsc" /><path
         style="fill:#fefefe;fill-opacity:1;stroke:#000000;stroke-width:0.9525;stroke-linecap:round;stroke-linejoin:round;stroke-dasharray:none"
         d="m 247.82749,619.84715 53.46052,-14.3247 2.96635,67.99688 -56.42687,15.11953"
         id="path2-2"
         sodipodi:nodetypes="cccc" /><path
         style="fill:#fefefe;fill-opacity:1;stroke:#000000;stroke-width:0.9525;stroke-linecap:round;stroke-linejoin:round;stroke-dasharray:none"
         d="m 247.82749,619.84715 -53.46052,-14.3247 -2.96635,67.99688 56.42687,15.11953"
         id="path4-7"
         sodipodi:nodetypes="cccc" /><path
         style="fill:#fefefe;fill-opacity:1;stroke:#000000;stroke-width:0.9525;stroke-linecap:round;stroke-linejoin:round;stroke-dasharray:none"
         d="m 199.33812,672.46099 h -4.23334 l 52.72271,14.0612 v -16.17274 z"
         id="path7-2"
         sodipodi:nodetypes="ccccc" /><path
         style="fill:#fefefe;fill-opacity:1;stroke:#000000;stroke-width:0.9525;stroke-linecap:round;stroke-linejoin:round;stroke-dasharray:none"
         d="m 204.37497,604.99305 -5.03685,67.46794 c 29.10156,7.79774 45.98431,-2.00245 48.48937,14.0612 v -67.68127 c 0,-14.61306 -22.2328,-8.16206 -43.45252,-13.84787 z"
         id="path8-8"
         sodipodi:nodetypes="ccccc" /><path
         style="fill:#fefefe;fill-opacity:1;stroke:#000000;stroke-width:0.9525;stroke-linecap:round;stroke-linejoin:round;stroke-dasharray:none"
         d="m 198.02497,605.52222 -2.92019,66.93877 c 1.18665,0.20218 3.49472,0.33091 4.23334,0 l 5.03685,-67.46794 c -1.78587,0.51845 -3.85154,0.76351 -6.35,0.52917 z"
         id="path9-6"
         sodipodi:nodetypes="ccccc" /><path
         style="fill:#fefefe;fill-opacity:1;stroke:#000000;stroke-width:0.9525;stroke-linecap:round;stroke-linejoin:round;stroke-dasharray:none"
         d="m 296.31686,672.46099 h 4.23334 l -52.72271,14.0612 v -16.17274 z"
         id="path10-2"
         sodipodi:nodetypes="ccccc" /><path
         style="fill:#fefefe;fill-opacity:1;stroke:#000000;stroke-width:0.9525;stroke-linecap:round;stroke-linejoin:round;stroke-dasharray:none"
         d="m 297.63001,605.52222 2.92019,66.93877 c -1.18665,0.20218 -3.49472,0.33091 -4.23334,0 l -5.03685,-67.46794 c 1.78587,0.51845 3.85154,0.76351 6.35,0.52917 z"
         id="path12-6"
         sodipodi:nodetypes="ccccc" /><path
         style="fill:#fefefe;fill-opacity:1;stroke:#000000;stroke-width:0.9525;stroke-linecap:round;stroke-linejoin:round;stroke-dasharray:none"
         d="m 291.28001,604.99305 5.03686,67.46794 c -29.10157,7.79774 -45.98431,-2.00245 -48.48938,14.0612 v -67.68127 c 0,-14.61306 22.2328,-8.16206 43.45252,-13.84787 z"
         id="path13"
         sodipodi:nodetypes="ccccc" /></g><g
       id="g7"
       transform="matrix(0.37745915,0,0,0.37745915,378.05704,569.89557)"><path
         style="fill:#000000;fill-opacity:1;stroke:none;stroke-width:1.32292;stroke-linejoin:round;stroke-miterlimit:3.9;stroke-dasharray:none;stroke-opacity:1"
         d="m 1057.4713,866.45672 -3.7418,3.7418 0.7485,0.7483 -9.7286,9.72858 -0.7485,-0.7483 -8.9801,8.98021 0.7482,0.7484 -9.7286,9.72858 -6.361,4.86431 6.361,-9.35444 22.4508,-22.45068 z m 6.8428,-10.51385 22.4506,-22.45066 3.7418,3.74179 -22.4505,22.45059 z m -114.6936,156.39523 4.85558,-2.5179 c 4.38043,3.6571 10.5192,4.1664 14.77936,1.3588 -5.25615,0.662 -9.65946,-1.2141 -11.52968,-3.0843 -2.81312,-2.8131 -0.95712,-4.1063 0.31206,-5.3755 l 9.44603,-9.44602 c 0.60111,-0.60111 1.90148,-1.09185 2.50259,-0.49074 l 8.79272,8.79276 c 0,0 0.99357,2.0594 0.3672,2.7314 l -15.76014,16.9075 c -1.37972,1.4802 -6.04567,-0.5457 -6.04567,-0.5457 -1.34452,-3.7047 -5.44298,-5.2865 -7.72005,-8.3303 z m 35.51773,-13.45957 -2.891,-6.83329 -6.21347,-6.2135 2.51899,-2.519 c 34.45055,20.58916 63.60555,24.76746 103.57225,19.15796 l -4.1908,-29.93417 c -29.9827,6.86209 -56.2325,3.09024 -79.02627,-13.17104 l 84.41437,-98.78282 23.1173,-23.11729 5.9869,5.98684 40.2186,-40.2186 1.1225,1.12253 2.7439,-2.74386 -1.1226,-1.12253 29.5601,-29.56003 c 8.7876,-8.78764 23.1989,-29.18579 23.1989,-29.18579 0,0 -20.3982,14.41137 -29.1858,23.19901 l -29.5601,29.56004 -1.1225,-1.12254 -2.7438,2.74379 1.1225,1.12253 -1.3721,1.37214 -2.6941,-2.69408 5.0888,-5.08885 -5.6875,-5.6875 -4.7894,4.78947 -15.2663,-15.26649 -5.987,5.98691 9.2796,21.85196 -19.7566,19.75655 -9.5618,4.67068 -11.352,-3.38234 -31.4053,31.4054 -48.1099,38.10055 -25.14487,25.14475 5.8372,5.83718 -79.62491,79.625 3e-5,23.9473 -20.10993,34.8314 -15.06446,4.0365 -42.65452,60.5136 46.69731,35.3223 48.49338,-125.7235 14.66776,5.6875 15.26647,34.4242 22.15129,-11.9736 -16.93859,-41.6837 c 0,0 4.27772,1.3175 5.52616,-0.037 l 16.72571,-18.1476 c 0.9678,-1.0501 -0.5839,-4.2443 -0.5839,-4.2443 l 2.4136,-2.8464 z"
         id="path2"
         sodipodi:nodetypes="ccccccccccccccccccccsssscssccccccccccccccccscsccccccccccccccccccccccccccccccssccc" /><path
         style="fill:#000000;fill-opacity:1;stroke:none;stroke-width:1.3221;stroke-linejoin:round;stroke-miterlimit:3.9;stroke-dasharray:none;stroke-opacity:1"
         d="m 935.58408,829.24086 1.86971,-1.86971 296.53991,296.53945 c 4.5621,4.5621 18.2486,-9.1244 13.6865,-13.6865 l -296.53992,-296.53945 1.86969,-1.86972 -31.41138,-31.41153 c -5.80866,-5.80866 -23.23465,11.61732 -17.42599,17.42598 l 2.24368,2.24367 c -8.30441,1.49244 -15.71273,4.77703 -22.89871,8.50641 -22.45859,29.05454 -43.13678,61.41041 -55.49451,96.06302 l 19.44102,17.19736 c 25.14118,-26.15002 58.37218,-53.25485 79.98336,-69.33051 3.86476,-11.15522 5.2101,-18.73329 4.76686,-26.63811 z"
         id="path4"
         sodipodi:nodetypes="ccssccssccccccc" /></g><path
       id="path9"
       style="fill:#ffc000;stroke-width:0.6371;stroke-linejoin:round;stroke-miterlimit:3.9;fill-opacity:1"
       d="m 869.19572,1024.4986 500.06248,0 v 142.875 H 654.88323 Z"
       sodipodi:nodetypes="ccccc" /><path
       id="path10"
       style="fill:#000000;stroke-width:0.6371;stroke-linejoin:round;stroke-miterlimit:3.9"
       d="m 904.91445,857.8111 464.34375,0 v 142.875 l -464.34373,0 107.15623,-71.43749 z"
       sodipodi:nodetypes="cccccc" /><path
       id="path11"
       style="fill:#ffffff;stroke-width:0.6371;stroke-linejoin:round;stroke-miterlimit:3.9"
       d="m 869.19572,1024.4986 h 500.06248 v -23.8125 H 904.91447 Z"
       sodipodi:nodetypes="ccccc" /><path
       id="path12"
       style="fill:#ffffff;stroke-width:0.6371;stroke-linejoin:round;stroke-miterlimit:3.9"
       d="M 904.91445,857.8111 H 1369.2582 V 833.9986 H 869.19571 Z"
       sodipodi:nodetypes="ccccc" /></g></svg>
