<?xml version="1.0" encoding="UTF-8" standalone="no"?>
<!-- Created with Inkscape (http://www.inkscape.org/) -->

<svg
   width="1800"
   height="1800"
   viewBox="0 0 476.25 476.25001"
   version="1.1"
   id="svg8"
   inkscape:export-filename="C:\Users\厂永刄先生\Documents\GXI3CW2\,pjóŭ\Ghana.png"
   inkscape:export-xdpi="96"
   inkscape:export-ydpi="96"
   inkscape:version="1.3 (0e150ed6c4, 2023-07-21)"
   sodipodi:docname="mz_1975_roundel.svg"
   xml:space="preserve"
   xmlns:inkscape="http://www.inkscape.org/namespaces/inkscape"
   xmlns:sodipodi="http://sodipodi.sourceforge.net/DTD/sodipodi-0.dtd"
   xmlns="http://www.w3.org/2000/svg"
   xmlns:svg="http://www.w3.org/2000/svg"
   xmlns:rdf="http://www.w3.org/1999/02/22-rdf-syntax-ns#"
   xmlns:cc="http://creativecommons.org/ns#"
   xmlns:dc="http://purl.org/dc/elements/1.1/"><defs
     id="defs2" /><sodipodi:namedview
     id="base"
     pagecolor="#ffffff"
     bordercolor="#666666"
     borderopacity="1.0"
     inkscape:pageopacity="0.0"
     inkscape:pageshadow="2"
     inkscape:zoom="0.44194175"
     inkscape:cx="709.36951"
     inkscape:cy="609.80888"
     inkscape:document-units="px"
     inkscape:current-layer="layer1"
     showgrid="false"
     units="px"
     fit-margin-top="0"
     fit-margin-left="0"
     fit-margin-right="0"
     fit-margin-bottom="0"
     inkscape:showpageshadow="false"
     inkscape:snap-intersection-paths="true"
     inkscape:object-paths="false"
     inkscape:pagecheckerboard="true"
     inkscape:snap-smooth-nodes="false"
     inkscape:window-width="1920"
     inkscape:window-height="1009"
     inkscape:window-x="-8"
     inkscape:window-y="-8"
     inkscape:window-maximized="1"
     inkscape:object-nodes="true"
     inkscape:snap-nodes="true"
     inkscape:deskcolor="#505050"
     showguides="true" /><metadata
     id="metadata5"><rdf:RDF><cc:Work
         rdf:about=""><dc:format>image/svg+xml</dc:format><dc:type
           rdf:resource="http://purl.org/dc/dcmitype/StillImage" /></cc:Work></rdf:RDF></metadata><g
     inkscape:label="レイヤー 1"
     inkscape:groupmode="layer"
     id="layer1"
     transform="translate(-929.38159,-697.14343)"><circle
       style="fill:#000000;fill-opacity:1;stroke:none;stroke-width:0.563217;stroke-linecap:round;stroke-linejoin:round;stroke-miterlimit:3.9"
       id="path1-1"
       cx="1167.5066"
       cy="-935.26843"
       r="238.125"
       transform="scale(1,-1)" /><path
       style="fill:#ff0000;stroke:none;stroke-width:0.9525;stroke-linecap:round;stroke-linejoin:round;stroke-miterlimit:3.9"
       d="m 1167.5066,697.14345 206.2223,357.18745 H 961.28435 Z"
       id="path4-0"
       sodipodi:nodetypes="cccc" /><g
       id="g5"
       transform="matrix(1.500003,0,0,1.500003,12.539149,-469.71964)"
       style="fill:#ff0000;fill-opacity:1;stroke:#ffc000;stroke-width:3.17499368;stroke-linejoin:round;stroke-dasharray:none;stroke-opacity:1"><path
         style="fill:#ff0000;fill-opacity:1;fill-rule:evenodd;stroke:#ffc000;stroke-width:3.17499368;stroke-linecap:round;stroke-linejoin:round;stroke-miterlimit:4;stroke-dasharray:none;stroke-dashoffset:0;stroke-opacity:1"
         d="m 836.01128,921.09378 3.42254,-1.11205 c -0.88134,-3.63963 -2.04734,-7.2044 -3.48723,-10.66137 l -3.34226,1.08575 c -1.3234,-3.09362 -2.87493,-6.08461 -4.64173,-8.94827 l 2.9499,-2.1429 c -1.97546,-3.18168 -4.19789,-6.20321 -6.64682,-9.0367 l -2.85588,2.0747 c -2.2077,-2.53798 -4.60095,-4.90845 -7.15994,-7.09183 l 2.1426,-2.94871 c -2.86086,-2.41693 -5.90724,-4.60534 -9.11103,-6.545 l -2.09699,2.88611 c -2.87537,-1.74432 -5.87634,-3.27268 -8.97814,-4.57246 l 1.11005,-3.41642 c -3.46027,-1.43253 -7.02775,-2.59095 -10.66953,-3.46459 l -1.11447,3.42946 c -3.27078,-0.7858 -6.59541,-1.32754 -9.94647,-1.62074 v -3.53997 c -3.73219,-0.31249 -7.48316,-0.33124 -11.21828,-0.0561 v 3.60886 c -3.3514,0.28632 -6.67689,0.82122 -9.94904,1.60023 l -1.11214,-3.42224 c -3.63995,0.88126 -7.20503,2.04716 -10.66231,3.48693 l 1.08586,3.34197 c -3.0939,1.32329 -6.08515,2.87468 -8.94906,4.64133 l -2.14308,-2.94964 c -3.18195,1.9752 -6.20374,4.19738 -9.03749,6.646 l 2.0749,2.85562 c -2.53824,2.20759 -4.90891,4.6007 -7.09247,7.15956 l -2.94897,-2.14241 c -2.41722,2.86052 -4.60589,5.90656 -6.54579,9.10999 l 2.88659,2.09705 c -1.74449,2.87511 -3.27297,5.87582 -4.57286,8.97736 l -3.41697,-1.11018 c -1.43259,3.46003 -2.59104,7.02729 -3.46462,10.66882 l 3.42972,1.11438 c -0.78583,3.27049 -1.32762,6.59485 -1.61444,9.95201 l -3.60279,0.006 c -0.27519,3.73479 -0.25642,7.48543 0.0561,11.21729 h 3.54033 c 0.29322,3.35077 0.83501,6.67511 1.62084,9.94561 l -3.42972,1.11437 c 0.87358,3.64153 2.03207,7.20877 3.46462,10.66882 l 3.41697,-1.11017 c 1.29989,3.10153 2.82837,6.10224 4.57286,8.97735 l -2.88659,2.09705 c 1.9399,3.20343 4.12857,6.24946 6.54579,9.11 l 2.94896,-2.14242 c 2.18357,2.55887 4.55424,4.95197 7.09248,7.15956 l -2.0749,2.85559 c 2.83375,2.4486 5.85553,4.67079 9.03749,6.64602 l 2.14308,-2.94966 c 2.86391,1.7667 5.85515,3.31803 8.94906,4.64139 l -1.08586,3.34197 c 3.45728,1.4397 7.02236,2.6057 10.66231,3.487 l 1.11214,-3.4223 c 3.27215,0.779 6.59765,1.3139 9.94904,1.6002 v 3.609 c 3.73512,0.2751 7.48609,0.2564 11.21828,-0.056 v -3.5401 c 3.35106,-0.2932 6.67569,-0.8349 9.94647,-1.6208 l 1.11447,3.4296 c 3.64178,-0.8737 7.20926,-2.0321 10.66953,-3.4647 l -1.11005,-3.41645 c 3.1018,-1.29978 6.10277,-2.82807 8.97814,-4.57245 l 2.09699,2.88612 c 3.20379,-1.93968 6.25017,-4.12803 9.11103,-6.54495 l -2.1426,-2.94873 c 2.55901,-2.18338 4.95225,-4.55384 7.15994,-7.09184 l 2.85588,2.07471 c 2.44893,-2.83348 4.67136,-5.85503 6.64682,-9.0367 l -2.9499,-2.1429 c 1.7668,-2.86365 3.31833,-5.85465 4.64172,-8.94828 l 3.34227,1.08576 c 1.43989,-3.45697 2.60589,-7.02173 3.48723,-10.66137 l -3.42254,-1.11206 c 0.77909,-3.27184 1.31402,-6.59705 1.60037,-9.94816 h 3.60918 c 0.2752,-3.7348 0.25644,-7.48543 -0.0561,-11.21729 l -3.54667,-0.006 c -0.29277,-3.35751 -0.8277,-6.68272 -1.60679,-9.95458 z"
         id="path1"
         inkscape:connector-curvature="0"
         sodipodi:nodetypes="sccccccccccccccccccccccccccccccccccccccccccccccccccccccccccccccccccccccccccccccccs" /><g
         id="g2"
         transform="matrix(0.84867856,0,0,0.84867856,559.65105,405.46649)"
         style="fill:#ff0000;fill-opacity:1;stroke:#ffc000;stroke-width:3.74110274;stroke-linejoin:round;stroke-dasharray:none;stroke-opacity:1"><path
           style="fill:#ff0000;fill-opacity:1;stroke:#ffc000;stroke-width:3.74110274;stroke-linecap:round;stroke-linejoin:round;stroke-dasharray:none;stroke-opacity:1"
           d="m 238.21193,662.13067 -0.0628,24.77446 c -0.005,1.84123 6.90415,2.2629 9.67836,2.2629 2.77421,0 9.68303,-0.42167 9.67836,-2.2629 l -0.0628,-24.77446"
           id="path3"
           sodipodi:nodetypes="cszsc" /><path
           style="fill:#ffc000;fill-opacity:1;stroke:#ffc000;stroke-width:3.74110274;stroke-linecap:round;stroke-linejoin:round;stroke-dasharray:none;stroke-opacity:1"
           d="m 247.82749,619.84715 53.46052,-14.3247 2.96635,67.99688 -56.42687,15.11953"
           id="path2-2"
           sodipodi:nodetypes="cccc" /><path
           style="fill:#ffc000;fill-opacity:1;stroke:#ffc000;stroke-width:3.74110274;stroke-linecap:round;stroke-linejoin:round;stroke-dasharray:none;stroke-opacity:1"
           d="m 247.82749,619.84715 -53.46052,-14.3247 -2.96635,67.99688 56.42687,15.11953"
           id="path4-7"
           sodipodi:nodetypes="cccc" /><path
           style="fill:#ff0000;fill-opacity:1;stroke:#ffc000;stroke-width:3.74110274;stroke-linecap:round;stroke-linejoin:round;stroke-dasharray:none;stroke-opacity:1"
           d="m 199.33812,672.46099 h -4.23334 l 52.72271,14.0612 v -16.17274 z"
           id="path7-2"
           sodipodi:nodetypes="ccccc" /><path
           style="fill:#ff0000;fill-opacity:1;stroke:#ffc000;stroke-width:3.74110274;stroke-linecap:round;stroke-linejoin:round;stroke-dasharray:none;stroke-opacity:1"
           d="m 204.37497,604.99305 -5.03685,67.46794 c 29.10156,7.79774 45.98431,-2.00245 48.48937,14.0612 v -67.68127 c 0,-14.61306 -22.2328,-8.16206 -43.45252,-13.84787 z"
           id="path8-8"
           sodipodi:nodetypes="ccccc" /><path
           style="fill:#ff0000;fill-opacity:1;stroke:#ffc000;stroke-width:3.74110274;stroke-linecap:round;stroke-linejoin:round;stroke-dasharray:none;stroke-opacity:1"
           d="m 198.02497,605.52222 -2.92019,66.93877 c 1.18665,0.20218 3.49472,0.33091 4.23334,0 l 5.03685,-67.46794 c -1.78587,0.51845 -3.85154,0.76351 -6.35,0.52917 z"
           id="path9-6"
           sodipodi:nodetypes="ccccc" /><path
           style="fill:#ff0000;fill-opacity:1;stroke:#ffc000;stroke-width:3.74110274;stroke-linecap:round;stroke-linejoin:round;stroke-dasharray:none;stroke-opacity:1"
           d="m 296.31686,672.46099 h 4.23334 l -52.72271,14.0612 v -16.17274 z"
           id="path10-2"
           sodipodi:nodetypes="ccccc" /><path
           style="fill:#ff0000;fill-opacity:1;stroke:#ffc000;stroke-width:3.74110274;stroke-linecap:round;stroke-linejoin:round;stroke-dasharray:none;stroke-opacity:1"
           d="m 297.63001,605.52222 2.92019,66.93877 c -1.18665,0.20218 -3.49472,0.33091 -4.23334,0 l -5.03685,-67.46794 c 1.78587,0.51845 3.85154,0.76351 6.35,0.52917 z"
           id="path12-6"
           sodipodi:nodetypes="ccccc" /><path
           style="fill:#ff0000;fill-opacity:1;stroke:#ffc000;stroke-width:3.74110274;stroke-linecap:round;stroke-linejoin:round;stroke-dasharray:none;stroke-opacity:1"
           d="m 291.28001,604.99305 5.03686,67.46794 c -29.10157,7.79774 -45.98431,-2.00245 -48.48938,14.0612 v -67.68127 c 0,-14.61306 22.2328,-8.16206 43.45252,-13.84787 z"
           id="path13"
           sodipodi:nodetypes="ccccc" /></g><g
         id="g7"
         transform="matrix(0.2830944,0,0,0.2830944,476.03697,661.85037)"
         style="fill:#ff0000;fill-opacity:1;stroke:#ffc000;stroke-width:11.21531787;stroke-linejoin:round;stroke-dasharray:none;stroke-opacity:1"><path
           style="fill:#ff0000;fill-opacity:1;stroke:#ffc000;stroke-width:11.21531787;stroke-linejoin:round;stroke-miterlimit:3.9;stroke-dasharray:none;stroke-opacity:1"
           d="m 1057.4713,866.45672 -3.7418,3.7418 0.7485,0.7483 -9.7286,9.72858 -0.7485,-0.7483 -8.9801,8.98021 0.7482,0.7484 -9.7286,9.72858 -6.361,4.86431 6.361,-9.35444 22.4508,-22.45068 z m 6.8428,-10.51385 22.4506,-22.45066 3.7418,3.74179 -22.4505,22.45059 z m -114.6936,156.39523 4.85558,-2.5179 c 4.38043,3.6571 10.5192,4.1664 14.77936,1.3588 -5.25615,0.662 -9.65946,-1.2141 -11.52968,-3.0843 -2.81312,-2.8131 -0.95712,-4.1063 0.31206,-5.3755 l 9.44603,-9.44602 c 0.60111,-0.60111 1.90148,-1.09185 2.50259,-0.49074 l 8.79272,8.79276 c 0,0 0.99357,2.0594 0.3672,2.7314 l -15.76014,16.9075 c -1.37972,1.4802 -6.04567,-0.5457 -6.04567,-0.5457 -1.34452,-3.7047 -5.44298,-5.2865 -7.72005,-8.3303 z m 35.51773,-13.45957 -2.891,-6.83329 -6.21347,-6.2135 2.51899,-2.519 c 34.45055,20.58916 63.60555,24.76746 103.57225,19.15796 l -4.1908,-29.93417 c -29.9827,6.86209 -56.2325,3.09024 -79.02627,-13.17104 l 84.41437,-98.78282 23.1173,-23.11729 5.9869,5.98684 40.2186,-40.2186 1.1225,1.12253 2.7439,-2.74386 -1.1226,-1.12253 29.5601,-29.56003 c 8.7876,-8.78764 23.1989,-29.18579 23.1989,-29.18579 0,0 -20.3982,14.41137 -29.1858,23.19901 l -29.5601,29.56004 -1.1225,-1.12254 -2.7438,2.74379 1.1225,1.12253 -1.3721,1.37214 -2.6941,-2.69408 5.0888,-5.08885 -5.6875,-5.6875 -4.7894,4.78947 -15.2663,-15.26649 -5.987,5.98691 9.2796,21.85196 -19.7566,19.75655 -9.5618,4.67068 -11.352,-3.38234 -31.4053,31.4054 -48.1099,38.10055 -25.14487,25.14475 5.8372,5.83718 -79.62491,79.625 3e-5,23.9473 -20.10993,34.8314 -15.06446,4.0365 -42.65452,60.5136 46.69731,35.3223 48.49338,-125.7235 14.66776,5.6875 15.26647,34.4242 22.15129,-11.9736 -16.93859,-41.6837 c 0,0 4.27772,1.3175 5.52616,-0.037 l 16.72571,-18.1476 c 0.9678,-1.0501 -0.5839,-4.2443 -0.5839,-4.2443 l 2.4136,-2.8464 z"
           id="path2"
           sodipodi:nodetypes="ccccccccccccccccccccsssscssccccccccccccccccscsccccccccccccccccccccccccccccccssccc" /><path
           style="fill:#ff0000;fill-opacity:1;stroke:#ffc000;stroke-width:11.21531787;stroke-linejoin:round;stroke-miterlimit:3.9;stroke-dasharray:none;stroke-opacity:1"
           d="m 935.58408,829.24086 1.86971,-1.86971 296.53991,296.53945 c 4.5621,4.5621 18.2486,-9.1244 13.6865,-13.6865 l -296.53992,-296.53945 1.86969,-1.86972 -31.41138,-31.41153 c -5.80866,-5.80866 -23.23465,11.61732 -17.42599,17.42598 l 2.24368,2.24367 c -8.30441,1.49244 -15.71273,4.77703 -22.89871,8.50641 -22.45859,29.05454 -43.13678,61.41041 -55.49451,96.06302 l 19.44102,17.19736 c 25.14118,-26.15002 58.37218,-53.25485 79.98336,-69.33051 3.86476,-11.15522 5.2101,-18.73329 4.76686,-26.63811 z"
           id="path4"
           sodipodi:nodetypes="ccssccssccccccc" /></g><path
         id="path5"
         style="fill:#ff0000;fill-opacity:1;stroke:#ffc000;stroke-width:3.17499368;stroke-linejoin:round;stroke-miterlimit:3.9;stroke-dasharray:none;stroke-opacity:1"
         inkscape:transform-center-x="-3.361868e-06"
         inkscape:transform-center-y="-3.2908077"
         d="m 807.75668,892.207 2.95533,9.09557 h 9.56365 l -7.73715,5.62137 2.95532,9.09556 -7.73715,-5.62137 -7.73715,5.62137 2.95533,-9.09556 -7.73715,-5.62137 h 9.56365 z"
         sodipodi:nodetypes="ccccccccccc" /></g></g></svg>
