<?xml version="1.0" encoding="UTF-8" standalone="no"?>
<!-- Created with Inkscape (http://www.inkscape.org/) -->

<svg
   width="2607.4287"
   height="1800.0002"
   viewBox="0 0 689.88218 476.25007"
   version="1.1"
   id="svg8"
   inkscape:export-filename="C:\Users\厂永刄先生\Documents\GXI3CW2\poM̕écèŭ\M̕é\11960年㋆㏣以來.png"
   inkscape:export-xdpi="96"
   inkscape:export-ydpi="96"
   inkscape:version="1.3 (0e150ed6c4, 2023-07-21)"
   sodipodi:docname="br_1889_000-001_jack.svg"
   xmlns:inkscape="http://www.inkscape.org/namespaces/inkscape"
   xmlns:sodipodi="http://sodipodi.sourceforge.net/DTD/sodipodi-0.dtd"
   xmlns="http://www.w3.org/2000/svg"
   xmlns:svg="http://www.w3.org/2000/svg"
   xmlns:rdf="http://www.w3.org/1999/02/22-rdf-syntax-ns#"
   xmlns:cc="http://creativecommons.org/ns#"
   xmlns:dc="http://purl.org/dc/elements/1.1/">
  <defs
     id="defs2" />
  <sodipodi:namedview
     id="base"
     pagecolor="#ffffff"
     bordercolor="#666666"
     borderopacity="1.0"
     inkscape:pageopacity="0.0"
     inkscape:pageshadow="2"
     inkscape:zoom="0.28063489"
     inkscape:cx="1617.7604"
     inkscape:cy="1373.671"
     inkscape:document-units="px"
     inkscape:current-layer="layer1"
     showgrid="false"
     units="px"
     fit-margin-top="0"
     fit-margin-left="0"
     fit-margin-right="0"
     fit-margin-bottom="0"
     inkscape:showpageshadow="false"
     inkscape:snap-intersection-paths="true"
     inkscape:object-paths="false"
     inkscape:pagecheckerboard="true"
     inkscape:snap-smooth-nodes="false"
     inkscape:window-width="1920"
     inkscape:window-height="1009"
     inkscape:window-x="-8"
     inkscape:window-y="-8"
     inkscape:window-maximized="1"
     inkscape:object-nodes="true"
     inkscape:snap-nodes="true"
     showguides="true"
     inkscape:guide-bbox="true"
     inkscape:deskcolor="#505050" />
  <metadata
     id="metadata5">
    <rdf:RDF>
      <cc:Work
         rdf:about="">
        <dc:format>image/svg+xml</dc:format>
        <dc:type
           rdf:resource="http://purl.org/dc/dcmitype/StillImage" />
      </cc:Work>
    </rdf:RDF>
  </metadata>
  <g
     inkscape:label="レイヤー 1"
     inkscape:groupmode="layer"
     id="layer1"
     transform="translate(112.33452,-299.2678)">
    <path
       sodipodi:nodetypes="ccccc"
       inkscape:connector-curvature="0"
       id="path25"
       d="m -102.80952,299.2678 v 476.25 l 680.35715,6e-5 V 299.2678 Z"
       style="fill:#000080;fill-opacity:1;stroke:none;stroke-width:2.27037px;stroke-linecap:butt;stroke-linejoin:miter;stroke-opacity:1" />
    <path
       style="fill:#ffffff;fill-opacity:1;stroke:none;stroke-width:0.511668px;stroke-linecap:butt;stroke-linejoin:miter;stroke-opacity:1"
       d="m -102.80952,299.26786 h -9.525 v 476.25 h 9.525 z"
       id="path1079"
       inkscape:connector-curvature="0"
       sodipodi:nodetypes="ccccc" />
    <path
       id="path29"
       style="fill:#ffffff;stroke-width:0.264583;stroke-miterlimit:5"
       inkscape:transform-center-x="8.0358092e-06"
       inkscape:transform-center-y="3.0483618e-06"
       transform="matrix(0.13394629,0,0,0.13394629,-125.58934,609.70338)"
       d="m 415.13013,-687.99442 33.26106,102.36708 107.63517,3e-5 -87.07868,63.26634 33.2611,102.36711 -87.07866,-63.26636 -87.07866,63.26636 33.2611,-102.36712 -87.07866,-63.26634 107.63514,-2e-5 z"
       sodipodi:nodetypes="ccccccccccc" />
    <path
       id="path50"
       style="fill:#ffffff;stroke-width:0.0354399;stroke-miterlimit:5"
       inkscape:transform-center-x="8.0358092e-06"
       inkscape:transform-center-y="3.0483618e-06"
       d="m -18.758657,517.54908 4.455195,13.71169 14.41733219,10e-6 -11.66386619,8.47429 4.455201,13.71169 -11.663863,-8.47429 -11.663864,8.47429 4.455201,-13.71169 -11.663863,-8.4743 h 14.417327 z"
       sodipodi:nodetypes="ccccccccccc" />
    <path
       id="path51"
       style="fill:#ffffff;stroke-width:0.0354399;stroke-miterlimit:5"
       inkscape:transform-center-x="8.0358092e-06"
       inkscape:transform-center-y="3.0483618e-06"
       d="m 32.466886,517.54908 4.455195,13.71169 14.417332,10e-6 -11.663866,8.47429 4.455201,13.71169 -11.663863,-8.47429 -11.663864,8.47429 4.455201,-13.71169 -11.663863,-8.4743 h 14.417327 z"
       sodipodi:nodetypes="ccccccccccc" />
    <path
       id="path52"
       style="fill:#ffffff;stroke-width:0.0354399;stroke-miterlimit:5"
       inkscape:transform-center-x="8.0358092e-06"
       inkscape:transform-center-y="3.0483618e-06"
       d="m 83.692428,517.54908 4.455195,13.71169 14.417327,10e-6 -11.663861,8.47429 4.455201,13.71169 -11.663863,-8.47429 -11.663864,8.47429 4.455201,-13.71169 -11.663863,-8.4743 h 14.417327 z"
       sodipodi:nodetypes="ccccccccccc" />
    <path
       id="path53"
       style="fill:#ffffff;stroke-width:0.0354399;stroke-miterlimit:5"
       inkscape:transform-center-x="8.0358092e-06"
       inkscape:transform-center-y="3.0483618e-06"
       d="m 134.91797,517.54908 4.4552,13.71169 14.41732,10e-6 -11.66386,8.47429 4.4552,13.71169 -11.66386,-8.47429 -11.66386,8.47429 4.4552,-13.71169 -11.66387,-8.4743 h 14.41733 z"
       sodipodi:nodetypes="ccccccccccc" />
    <path
       id="path54"
       style="fill:#ffffff;stroke-width:0.0354399;stroke-miterlimit:5"
       inkscape:transform-center-x="8.0358092e-06"
       inkscape:transform-center-y="3.0483618e-06"
       d="m 186.14351,517.54908 4.4552,13.71169 14.41732,10e-6 -11.66386,8.47429 4.4552,13.71169 -11.66386,-8.47429 -11.66386,8.47429 4.4552,-13.71169 -11.66387,-8.4743 h 14.41733 z"
       sodipodi:nodetypes="ccccccccccc" />
    <path
       id="path55"
       style="fill:#ffffff;stroke-width:0.0354399;stroke-miterlimit:5"
       inkscape:transform-center-x="8.0358092e-06"
       inkscape:transform-center-y="3.0483618e-06"
       d="m 237.36905,517.54908 4.4552,13.71169 14.41732,10e-6 -11.66386,8.47429 4.4552,13.71169 -11.66386,-8.47429 -11.66386,8.47429 4.4552,-13.71169 -11.66387,-8.4743 h 14.41733 z"
       sodipodi:nodetypes="ccccccccccc" />
    <path
       id="path58"
       style="fill:#ffffff;stroke-width:0.0354399;stroke-miterlimit:5"
       inkscape:transform-center-x="8.0358092e-06"
       inkscape:transform-center-y="3.0483618e-06"
       d="m 237.36906,466.07113 4.4552,13.71169 14.41732,10e-6 -11.66386,8.47429 4.4552,13.71169 -11.66386,-8.47429 -11.66386,8.47429 4.4552,-13.71169 -11.66387,-8.4743 h 14.41733 z"
       sodipodi:nodetypes="ccccccccccc" />
    <path
       id="path59"
       style="fill:#ffffff;stroke-width:0.0354399;stroke-miterlimit:5"
       inkscape:transform-center-x="8.0358092e-06"
       inkscape:transform-center-y="3.0483618e-06"
       d="m 237.36906,414.59318 4.4552,13.71169 14.41732,1e-5 -11.66386,8.47429 4.4552,13.71169 -11.66386,-8.47429 -11.66386,8.47429 4.4552,-13.71169 -11.66387,-8.4743 h 14.41733 z"
       sodipodi:nodetypes="ccccccccccc" />
    <path
       id="path60"
       style="fill:#ffffff;stroke-width:0.0354399;stroke-miterlimit:5"
       inkscape:transform-center-x="8.0358092e-06"
       inkscape:transform-center-y="3.0483618e-06"
       d="m 237.36906,363.11523 4.4552,13.71169 14.41732,1e-5 -11.66386,8.47429 4.4552,13.71169 -11.66386,-8.47429 -11.66386,8.47429 4.4552,-13.71169 -11.66387,-8.4743 h 14.41733 z"
       sodipodi:nodetypes="ccccccccccc" />
    <path
       id="path61"
       style="fill:#ffffff;stroke-width:0.0354399;stroke-miterlimit:5"
       inkscape:transform-center-x="8.0358092e-06"
       inkscape:transform-center-y="3.0483618e-06"
       d="m 237.36906,311.63728 4.4552,13.71169 14.41732,10e-6 -11.66386,8.47429 4.4552,13.71169 -11.66386,-8.47429 -11.66386,8.47429 4.4552,-13.71169 -11.66387,-8.4743 h 14.41733 z"
       sodipodi:nodetypes="ccccccccccc" />
    <path
       id="path62"
       style="fill:#ffffff;stroke-width:0.0354399;stroke-miterlimit:5"
       inkscape:transform-center-x="8.0358092e-06"
       inkscape:transform-center-y="3.0483618e-06"
       d="m 237.36906,569.02703 4.4552,13.71169 14.41732,1e-5 -11.66386,8.47429 4.4552,13.71169 -11.66386,-8.47429 -11.66386,8.47429 4.4552,-13.71169 -11.66387,-8.4743 h 14.41733 z"
       sodipodi:nodetypes="ccccccccccc" />
    <path
       id="path63"
       style="fill:#ffffff;stroke-width:0.0354399;stroke-miterlimit:5"
       inkscape:transform-center-x="8.0358092e-06"
       inkscape:transform-center-y="3.0483618e-06"
       d="m 237.36906,620.50498 4.4552,13.71169 14.41732,10e-6 -11.66386,8.47429 4.4552,13.71169 -11.66386,-8.47429 -11.66386,8.47429 4.4552,-13.71169 -11.66387,-8.4743 h 14.41733 z"
       sodipodi:nodetypes="ccccccccccc" />
    <path
       id="path64"
       style="fill:#ffffff;stroke-width:0.0354399;stroke-miterlimit:5"
       inkscape:transform-center-x="8.0358092e-06"
       inkscape:transform-center-y="3.0483618e-06"
       d="m 237.36906,671.98293 4.4552,13.71169 14.41732,10e-6 -11.66386,8.47429 4.4552,13.71169 -11.66386,-8.47429 -11.66386,8.47429 4.4552,-13.71169 -11.66387,-8.4743 h 14.41733 z"
       sodipodi:nodetypes="ccccccccccc" />
    <path
       id="path65"
       style="fill:#ffffff;stroke-width:0.0354399;stroke-miterlimit:5"
       inkscape:transform-center-x="8.0358092e-06"
       inkscape:transform-center-y="3.0483618e-06"
       d="m 237.36906,723.46088 4.4552,13.71169 14.41732,1e-5 -11.66386,8.47429 4.4552,13.71169 -11.66386,-8.47429 -11.66386,8.47429 4.4552,-13.71169 -11.66387,-8.4743 h 14.41733 z"
       sodipodi:nodetypes="ccccccccccc" />
    <path
       id="path66"
       style="fill:#ffffff;stroke-width:0.0354399;stroke-miterlimit:5"
       inkscape:transform-center-x="-8.8165269e-06"
       inkscape:transform-center-y="2.7831024e-06"
       d="m 544.72231,517.54908 -4.4552,13.71169 h -14.41733 l 11.66387,8.4743 -4.4552,13.71169 11.66386,-8.47429 11.66386,8.47429 -4.4552,-13.7117 11.66387,-8.47429 h -14.41733 z"
       sodipodi:nodetypes="ccccccccccc" />
    <path
       id="path67"
       style="fill:#ffffff;stroke-width:0.0354399;stroke-miterlimit:5"
       inkscape:transform-center-x="-6.1308093e-06"
       inkscape:transform-center-y="3.0483618e-06"
       d="m 493.49677,517.54908 -4.4552,13.71169 -14.41733,10e-6 11.66387,8.47429 -4.4552,13.71169 11.66386,-8.47429 11.66386,8.47429 -4.4552,-13.71169 11.66386,-8.4743 h -14.41732 z"
       sodipodi:nodetypes="ccccccccccc" />
    <path
       id="path68"
       style="fill:#ffffff;stroke-width:0.0354399;stroke-miterlimit:5"
       inkscape:transform-center-x="-9.0358093e-06"
       inkscape:transform-center-y="3.0483618e-06"
       d="m 442.27122,517.54908 -4.45519,13.71169 -14.41733,10e-6 11.66386,8.47429 -4.4552,13.71169 11.66387,-8.47429 11.66386,8.47429 -4.4552,-13.71169 11.66386,-8.4743 h -14.41733 z"
       sodipodi:nodetypes="ccccccccccc" />
    <path
       id="path69"
       style="fill:#ffffff;stroke-width:0.0354399;stroke-miterlimit:5"
       inkscape:transform-center-x="-8.5358093e-06"
       inkscape:transform-center-y="3.0483618e-06"
       d="m 391.04568,517.54908 -4.45519,13.71169 -14.41733,10e-6 11.66386,8.47429 -4.4552,13.71169 11.66386,-8.47429 11.66387,8.47429 -4.4552,-13.71169 11.66386,-8.4743 h -14.41733 z"
       sodipodi:nodetypes="ccccccccccc" />
    <path
       id="path70"
       style="fill:#ffffff;stroke-width:0.0354399;stroke-miterlimit:5"
       inkscape:transform-center-x="-8.0358092e-06"
       inkscape:transform-center-y="3.0483618e-06"
       d="m 339.82014,517.54908 -4.4552,13.71169 -14.41732,10e-6 11.66386,8.47429 -4.4552,13.71169 11.66386,-8.47429 11.66386,8.47429 -4.4552,-13.71169 11.66387,-8.4743 h -14.41733 z"
       sodipodi:nodetypes="ccccccccccc" />
    <path
       id="path71"
       style="fill:#ffffff;stroke-width:0.0354399;stroke-miterlimit:5"
       inkscape:transform-center-x="-8.0358092e-06"
       inkscape:transform-center-y="3.0483618e-06"
       d="m 288.5946,517.54908 -4.4552,13.71169 -14.41732,10e-6 11.66386,8.47429 -4.4552,13.71169 11.66386,-8.47429 11.66386,8.47429 -4.4552,-13.71169 11.66387,-8.4743 H 293.0498 Z"
       sodipodi:nodetypes="ccccccccccc" />
  </g>
</svg>
