<?xml version="1.0" encoding="UTF-8" standalone="no"?>
<!-- Created with Inkscape (http://www.inkscape.org/) -->

<svg
   width="2607.4285"
   height="1800"
   viewBox="0 0 689.88212 476.25001"
   version="1.1"
   id="svg8"
   inkscape:export-filename="C:\Users\厂永刄先生\Documents\GXI3CW2\JáÈŭcèŭ\Èŭmen\Í\意軍.png"
   inkscape:export-xdpi="96"
   inkscape:export-ydpi="96"
   inkscape:version="1.3 (0e150ed6c4, 2023-07-21)"
   sodipodi:docname="br_1968.svg"
   xmlns:inkscape="http://www.inkscape.org/namespaces/inkscape"
   xmlns:sodipodi="http://sodipodi.sourceforge.net/DTD/sodipodi-0.dtd"
   xmlns="http://www.w3.org/2000/svg"
   xmlns:svg="http://www.w3.org/2000/svg"
   xmlns:rdf="http://www.w3.org/1999/02/22-rdf-syntax-ns#"
   xmlns:cc="http://creativecommons.org/ns#"
   xmlns:dc="http://purl.org/dc/elements/1.1/">
  <defs
     id="defs2" />
  <sodipodi:namedview
     id="base"
     pagecolor="#ffffff"
     bordercolor="#666666"
     borderopacity="1.0"
     inkscape:pageopacity="0.0"
     inkscape:pageshadow="2"
     inkscape:zoom="0.90333335"
     inkscape:cx="1321.7712"
     inkscape:cy="900.55349"
     inkscape:document-units="px"
     inkscape:current-layer="layer1"
     showgrid="false"
     units="px"
     fit-margin-top="0"
     fit-margin-left="0"
     fit-margin-right="0"
     fit-margin-bottom="0"
     inkscape:showpageshadow="false"
     inkscape:snap-intersection-paths="true"
     inkscape:object-paths="false"
     inkscape:pagecheckerboard="true"
     inkscape:snap-smooth-nodes="false"
     inkscape:window-width="1920"
     inkscape:window-height="1009"
     inkscape:window-x="-8"
     inkscape:window-y="-8"
     inkscape:window-maximized="1"
     inkscape:object-nodes="true"
     inkscape:snap-nodes="true"
     inkscape:deskcolor="#505050" />
  <metadata
     id="metadata5">
    <rdf:RDF>
      <cc:Work
         rdf:about="">
        <dc:format>image/svg+xml</dc:format>
        <dc:type
           rdf:resource="http://purl.org/dc/dcmitype/StillImage" />
      </cc:Work>
    </rdf:RDF>
  </metadata>
  <g
     inkscape:label="レイヤー 1"
     inkscape:groupmode="layer"
     id="layer1"
     transform="translate(112.33452,-299.26786)">
    <path
       style="opacity:1;fill:#0000a8;fill-opacity:1;fill-rule:evenodd;stroke:none;stroke-width:0.31062198;stroke-linecap:round;stroke-linejoin:round;stroke-miterlimit:4;stroke-dasharray:none;stroke-dashoffset:0;stroke-opacity:1"
       d="m 356.43155,537.39287 c 0,65.7564 -53.3061,119.0625 -119.0625,119.0625 -65.7564,0 -119.0625,-53.3061 -119.0625,-119.0625 0,-65.7564 53.3061,-119.0625 119.0625,-119.0625 65.7564,0 119.0625,53.3061 119.0625,119.0625 z"
       id="path825"
       inkscape:connector-curvature="0"
       sodipodi:nodetypes="zzzzz" />
    <path
       style="fill:#00a800;fill-opacity:1;stroke:none;stroke-width:2.49668px;stroke-linecap:butt;stroke-linejoin:miter;stroke-opacity:1"
       d="m -102.80952,299.26786 h 680.35715 v 476.25 H -102.80952 Z M 237.36905,717.6875 519.71727,537.39286 237.36905,357.09822 -44.97916,537.39286 Z"
       id="path917"
       inkscape:connector-curvature="0"
       sodipodi:nodetypes="cccccccccc" />
    <path
       style="fill:#ffffff;fill-opacity:1;stroke:none;stroke-width:0.51166773px;stroke-linecap:butt;stroke-linejoin:miter;stroke-opacity:1"
       d="m -102.80952,299.26786 h -9.525 v 476.25 h 9.525 z"
       id="path1079"
       inkscape:connector-curvature="0"
       sodipodi:nodetypes="ccccc" />
    <path
       style="fill:#ffffff;fill-opacity:1;fill-rule:evenodd;stroke:none;stroke-width:0.087946;stroke-linecap:round;stroke-linejoin:round;stroke-miterlimit:4;stroke-dasharray:none;stroke-dashoffset:0;stroke-opacity:1"
       inkscape:transform-center-x="2.4461422e-06"
       inkscape:transform-center-y="-1.0614336e-05"
       d="m 139.09943,520.36012 2.99925,-2.17908 2.99924,2.17908 -1.14561,-3.52582 2.99924,-2.17909 h -3.70726 l -1.14562,-3.52582 -1.14561,3.52582 h -3.70727 l 2.99925,2.17908 z"
       id="path836-0-3-8"
       inkscape:connector-curvature="0"
       sodipodi:nodetypes="ccccccccccc" />
    <path
       style="fill:#ffffff;fill-opacity:1;fill-rule:evenodd;stroke:none;stroke-width:0.087946;stroke-linecap:round;stroke-linejoin:round;stroke-miterlimit:4;stroke-dasharray:none;stroke-dashoffset:0;stroke-opacity:1"
       inkscape:transform-center-x="2.4461422e-06"
       inkscape:transform-center-y="-1.0614336e-05"
       d="m 148.38389,572.64853 2.99925,-2.17908 2.99924,2.17908 -1.14561,-3.52582 2.99924,-2.17909 h -3.70726 l -1.14562,-3.52582 -1.14561,3.52582 h -3.70727 l 2.99925,2.17908 z"
       id="path836-0-3-8-6"
       inkscape:connector-curvature="0"
       sodipodi:nodetypes="ccccccccccc" />
    <path
       style="fill:#ffffff;fill-opacity:1;fill-rule:evenodd;stroke:none;stroke-width:0.087946;stroke-linecap:round;stroke-linejoin:round;stroke-miterlimit:4;stroke-dasharray:none;stroke-dashoffset:0;stroke-opacity:1"
       inkscape:transform-center-x="2.4461422e-06"
       inkscape:transform-center-y="-1.0614336e-05"
       d="m 317.35649,584.93223 2.99926,-2.17908 2.99923,2.17908 -1.14561,-3.52582 2.99925,-2.17909 h -3.70727 l -1.14561,-3.52582 -1.14561,3.52582 h -3.70727 l 2.99925,2.17908 z"
       id="path836-1"
       inkscape:connector-curvature="0"
       sodipodi:nodetypes="ccccccccccc" />
    <path
       sodipodi:nodetypes="ccccccccccc"
       inkscape:connector-curvature="0"
       id="path851-5-6-2-1"
       d="m 188.23425,547.71797 2.49942,-1.81593 2.49939,1.81593 -0.95468,-2.93823 2.49941,-1.81594 h -3.08944 l -0.95469,-2.93823 -0.95469,2.93823 h -3.08943 l 2.49941,1.81593 z"
       inkscape:transform-center-y="-7.7442362e-06"
       inkscape:transform-center-x="3.1396692e-06"
       style="fill:#ffffff;fill-opacity:1;fill-rule:evenodd;stroke:none;stroke-width:0.0732895;stroke-linecap:round;stroke-linejoin:round;stroke-miterlimit:4;stroke-dasharray:none;stroke-dashoffset:0;stroke-opacity:1" />
    <path
       sodipodi:nodetypes="ccccccccccc"
       inkscape:connector-curvature="0"
       id="path855"
       d="m 229.82755,578.5378 1.39967,-1.01692 1.39965,1.01692 -0.53462,-1.64541 1.39966,-1.01692 h -1.73008 l -0.53462,-1.6454 -0.53462,1.6454 h -1.73008 l 1.39966,1.01692 z"
       inkscape:transform-center-y="-4.3034243e-06"
       inkscape:transform-center-x="1.7915374e-06"
       style="opacity:1;fill:#ffffff;fill-opacity:1;fill-rule:evenodd;stroke:none;stroke-width:0.04104196;stroke-linecap:round;stroke-linejoin:round;stroke-miterlimit:4;stroke-dasharray:none;stroke-dashoffset:0;stroke-opacity:1" />
    <path
       style="opacity:1;fill:#ffffff;fill-opacity:1;fill-rule:evenodd;stroke:none;stroke-width:0.02931764;stroke-linecap:round;stroke-linejoin:round;stroke-miterlimit:4;stroke-dasharray:none;stroke-dashoffset:0;stroke-opacity:1"
       inkscape:transform-center-x="5.2529755e-05"
       inkscape:transform-center-y="2.3175921e-05"
       d="m 236.36922,633.23385 0.99983,-0.72642 0.99982,0.72642 -0.3819,-1.17537 0.99983,-0.72642 h -1.23585 l -0.3819,-1.17536 -0.3819,1.17536 h -1.23586 l 0.99983,0.72642 z"
       id="path857"
       inkscape:connector-curvature="0"
       sodipodi:nodetypes="ccccccccccc" />
    <path
       id="path861"
       d="m 169.33305,486.36601 c -13.87841,0 -27.52727,0.98024 -40.88381,2.87062 -2.58749,5.84373 -4.71915,11.93391 -6.34845,18.2268 15.34109,-2.68463 31.12228,-4.08864 47.23226,-4.08864 69.83566,0 133.5247,26.30846 181.7052,69.55027 1.90111,-6.08812 3.32695,-12.38591 4.23333,-18.85052 C 305.00202,511.8208 240.14102,486.36601 169.33305,486.36601 Z"
       style="fill:#ffffff;fill-opacity:1;fill-rule:evenodd;stroke:none;stroke-width:0.709993;stroke-linecap:round;stroke-linejoin:round;stroke-miterlimit:4;stroke-dasharray:none;stroke-dashoffset:0;stroke-opacity:1"
       inkscape:connector-curvature="0"
       sodipodi:nodetypes="sccsccs" />
    <g
       id="g6"
       style="fill:#00a800;fill-opacity:1">
      <path
         d="m 212.85253,493.50327 8.22782,1.39552 -0.19586,1.15477 -6.46721,-1.0969 -0.50924,3.00243 6.19706,1.05108 -0.19586,1.15476 -6.19706,-1.05109 -0.6233,3.67492 6.6241,1.12351 -0.19586,1.15476 -8.38471,-1.42213 z"
         style="font-style:normal;font-variant:normal;font-weight:normal;font-stretch:normal;font-size:3.52778px;line-height:1.25;font-family:sans-serif;-inkscape-font-specification:sans-serif;text-align:center;letter-spacing:0px;word-spacing:0px;text-anchor:middle;fill:#00a800;fill-opacity:1;stroke:none;stroke-width:1.19876"
         id="path919"
         inkscape:connector-curvature="0" />
      <path
         d="m 189.36537,489.91358 2.24003,0.19729 2.16523,7.85967 3.52054,-7.35889 2.24008,0.19729 -0.98492,11.18272 -1.46607,-0.12913 0.86485,-9.81949 -3.54073,7.41749 -1.51075,-0.13306 -2.18968,-7.9222 -0.86485,9.8195 -1.45865,-0.12848 z"
         style="font-style:normal;font-variant:normal;font-weight:normal;font-stretch:normal;font-size:3.52778px;line-height:1.25;font-family:sans-serif;-inkscape-font-specification:sans-serif;text-align:center;letter-spacing:0px;word-spacing:0px;text-anchor:middle;fill:#00a800;fill-opacity:1;stroke:none;stroke-width:1.15122"
         id="path916"
         inkscape:connector-curvature="0" />
      <path
         d="m 327.41894,537.49015 -0.77223,1.20091 q -0.72378,-0.93913 -1.45091,-1.63954 -0.72725,-0.70026 -1.50313,-1.19917 -1.3476,-0.86654 -2.3335,-0.94901 -0.97779,-0.0773 -1.44033,0.64203 -0.38808,0.6035 -0.10611,1.22426 0.29412,0.61984 1.52826,1.68068 l 0.89832,0.79324 q 1.67721,1.44917 2.1239,2.67547 0.45868,1.22557 -0.25472,2.33503 -0.8506,1.32281 -2.48206,1.23884 -1.62328,-0.0788 -3.91828,-1.55453 -0.86573,-0.55669 -1.75179,-1.33305 -0.87796,-0.77115 -1.73902,-1.73001 l 0.81534,-1.26796 q 0.73408,1.06659 1.56066,1.8997 0.82653,0.83311 1.75758,1.4318 1.41296,0.90858 2.44723,0.98773 1.03428,0.0791 1.52818,-0.68894 0.43119,-0.67057 0.11882,-1.40567 -0.30417,-0.72982 -1.44042,-1.72758 l -0.91057,-0.79212 q -1.66947,-1.46119 -2.11804,-2.5769 -0.44857,-1.1156 0.22176,-2.15804 0.77612,-1.207 2.35822,-1.17196 1.59032,0.0403 3.59129,1.32699 0.85759,0.55146 1.67341,1.23963 0.81579,0.68816 1.59781,1.51867 z"
         style="font-style:normal;font-variant:normal;font-weight:normal;font-stretch:normal;font-size:3.52778px;line-height:1.25;font-family:sans-serif;-inkscape-font-specification:sans-serif;text-align:center;letter-spacing:0px;word-spacing:0px;text-anchor:middle;fill:#00a800;fill-opacity:1;stroke:none;stroke-width:1.28854"
         id="path931"
         inkscape:connector-curvature="0" />
      <path
         d="m 281.09544,522.27216 1.13929,-2.67352 -2.37589,-1.01245 0.47162,-1.10673 3.81581,1.62607 -1.82114,4.27361 q -1.07817,0.19441 -2.2155,0.0485 -1.13441,-0.15278 -2.28623,-0.64391 -2.51992,-1.07383 -3.36587,-3.04137 -0.83588,-1.97116 0.20112,-4.40468 1.03985,-2.44019 3.03775,-3.19587 2.00797,-0.75931 4.52787,0.3145 1.05116,0.44792 1.89201,1.08981 0.84814,0.64497 1.44838,1.45224 l -0.61083,1.43346 q -0.53644,-0.97698 -1.30726,-1.68359 -0.77076,-0.70666 -1.7715,-1.13312 -1.97272,-0.84064 -3.40096,-0.24398 -1.42103,0.59976 -2.28189,2.6199 -0.85801,2.01347 -0.30634,3.45386 0.55884,1.44347 2.53156,2.28412 0.77035,0.32827 1.4263,0.46601 0.65869,0.1311 1.25188,0.0765 z"
         style="font-style:normal;font-variant:normal;font-weight:normal;font-stretch:normal;font-size:3.52778px;line-height:1.25;font-family:sans-serif;-inkscape-font-specification:sans-serif;text-align:center;letter-spacing:0px;word-spacing:0px;text-anchor:middle;fill:#00a800;fill-opacity:1;stroke:none;stroke-width:1.15678"
         id="path913"
         inkscape:connector-curvature="0" />
      <path
         inkscape:connector-curvature="0"
         id="path852"
         style="font-style:normal;font-variant:normal;font-weight:normal;font-stretch:normal;font-size:3.52778px;line-height:1.25;font-family:sans-serif;-inkscape-font-specification:sans-serif;text-align:center;letter-spacing:0px;word-spacing:0px;text-anchor:middle;fill:#00a800;fill-opacity:1;stroke:none;stroke-width:1.12366"
         d="m 134.58343,492.57187 q -1.61247,0.19807 -2.42037,1.49479 -0.80059,1.29579 -0.55053,3.33147 0.24917,2.02842 1.33958,3.09196 1.09773,1.06264 2.71019,0.86456 1.61246,-0.19807 2.40573,-1.493 0.80059,-1.29583 0.55142,-3.32425 -0.25006,-2.03568 -1.34047,-3.09918 -1.08309,-1.06443 -2.69555,-0.86635 z m -0.14491,-1.17969 q 2.30143,-0.2827 3.8658,1.06578 1.56348,1.34128 1.87628,3.88767 0.3119,2.53913 -0.87958,4.22615 -1.19237,1.67984 -3.4938,1.96254 -2.30875,0.28361 -3.87957,-1.0568 -1.56347,-1.34126 -1.87627,-3.88762 -0.3128,-2.54639 0.87957,-4.22619 1.19882,-1.68792 3.50757,-1.97153 z" />
      <path
         inkscape:connector-curvature="0"
         id="path854"
         style="font-style:normal;font-variant:normal;font-weight:normal;font-stretch:normal;font-size:3.52778px;line-height:1.25;font-family:sans-serif;-inkscape-font-specification:sans-serif;text-align:center;letter-spacing:0px;word-spacing:0px;text-anchor:middle;fill:#00a800;fill-opacity:1;stroke:none;stroke-width:1.12366"
         d="m 349.08645,554.26055 q -1.26095,-1.02436 -2.75545,-0.70715 -1.48878,0.32182 -2.78199,1.91371 -1.28861,1.58622 -1.29865,3.10938 -0.004,1.5278 1.25662,2.55216 1.26093,1.02435 2.74401,0.69785 1.4888,-0.32186 2.7774,-1.90807 1.29321,-1.5919 1.30323,-3.11502 0.0158,-1.5185 -1.24517,-2.54286 z m 0.74942,-0.9225 q 1.79971,1.46204 1.91306,3.52427 0.11792,2.0566 -1.49973,4.04786 -1.61305,1.98559 -3.65476,2.29711 -2.03717,0.3059 -3.83688,-1.15614 -1.80543,-1.46669 -1.92906,-3.52797 -0.11794,-2.05658 1.4997,-4.04782 1.61765,-1.99127 3.65479,-2.29714 2.04745,-0.30686 3.85288,1.15983 z" />
      <path
         d="m 236.23413,498.45274 -1.03268,4.08986 2.60713,0.6583 q 1.44727,0.36543 2.37196,0.0328 0.92474,-0.3326 1.17325,-1.31681 0.24666,-0.97689 -0.40934,-1.70862 -0.65592,-0.73177 -2.10319,-1.0972 z m -1.76778,-1.73369 4.68048,1.18181 q 2.57633,0.65052 3.68027,1.81334 1.11608,1.15815 0.71296,2.75469 -0.40682,1.61118 -1.93892,2.10062 -1.52179,0.49208 -4.09813,-0.15844 l -2.60713,-0.65829 -1.10447,4.37419 -2.07335,-0.52352 z"
         style="font-style:normal;font-variant:normal;font-weight:normal;font-stretch:normal;font-size:3.52778px;line-height:1.25;font-family:sans-serif;-inkscape-font-specification:sans-serif;text-align:center;letter-spacing:0px;word-spacing:0px;text-anchor:middle;fill:#00a800;fill-opacity:1;stroke:none;stroke-width:1.3704"
         id="path910"
         inkscape:connector-curvature="0" />
      <path
         d="m 160.81415,490.61189 0.15497,8.72832 1.98381,-0.0352 q 2.5123,-0.0447 3.65623,-1.11777 1.1521,-1.07332 1.1118,-3.34373 -0.04,-2.25535 -1.22939,-3.27954 -1.18131,-1.03188 -3.69362,-0.98727 z m -1.66451,-1.2188 3.37411,-0.0599 q 3.52861,-0.0626 5.2032,1.26878 1.67451,1.32394 1.72577,4.21078 0.0515,2.90194 -1.58292,4.29212 -1.63444,1.3902 -5.14676,1.45255 l -3.37413,0.0599 z"
         style="font-style:normal;font-variant:normal;font-weight:normal;font-stretch:normal;font-size:3.52778px;line-height:1.25;font-family:sans-serif;-inkscape-font-specification:sans-serif;text-align:center;letter-spacing:0px;word-spacing:0px;text-anchor:middle;fill:#00a800;fill-opacity:1;stroke:none;stroke-width:1.20106"
         id="path922"
         inkscape:connector-curvature="0" />
      <path
         inkscape:connector-curvature="0"
         id="path858"
         style="font-style:normal;font-variant:normal;font-weight:normal;font-stretch:normal;font-size:3.52778px;line-height:1.25;font-family:sans-serif;-inkscape-font-specification:sans-serif;text-align:center;letter-spacing:0px;word-spacing:0px;text-anchor:middle;fill:#00a800;fill-opacity:1;stroke:none;stroke-width:1.24766"
         d="m 150.8805,495.82582 q 0.58055,0.12523 1.15227,0.62792 0.58052,0.50211 1.18935,1.40924 l 2.00854,2.93478 -1.89949,0.13287 -1.87293,-2.75584 q -0.72646,-1.07979 -1.36493,-1.40448 -0.62967,-0.32527 -1.68012,-0.25178 l -1.92577,0.13471 0.33107,4.73298 -1.76819,0.12368 -0.78338,-11.19863 3.99162,-0.27923 q 2.24089,-0.15676 3.39998,0.5687 1.15909,0.72541 1.27242,2.34558 0.074,1.0576 -0.45496,1.79555 -0.52016,0.73739 -1.59548,1.08395 z m -4.75827,-4.3931 0.27809,3.97541 2.22341,-0.15554 q 1.27801,-0.0894 1.89062,-0.63726 0.62083,-0.55601 0.55209,-1.53858 -0.0688,-0.98263 -0.75986,-1.43173 -0.68293,-0.45722 -1.96093,-0.36783 z" />
      <path
         inkscape:connector-curvature="0"
         id="path860"
         style="font-style:normal;font-variant:normal;font-weight:normal;font-stretch:normal;font-size:3.52778px;line-height:1.25;font-family:sans-serif;-inkscape-font-specification:sans-serif;text-align:center;letter-spacing:0px;word-spacing:0px;text-anchor:middle;fill:#00a800;fill-opacity:1;stroke:none;stroke-width:1.28854"
         d="m 341.1573,547.20937 -0.84158,1.15336 q -0.66723,-0.98011 -1.35188,-1.72211 -0.68476,-0.74186 -1.42993,-1.28559 -1.29425,-0.94436 -2.27358,-1.08473 -0.97154,-0.13474 -1.47563,0.55613 -0.42293,0.57962 -0.17795,1.21589 0.25712,0.63607 1.42667,1.76774 l 0.85007,0.84474 q 1.58898,1.54539 1.9627,2.79586 0.38574,1.25045 -0.39176,2.31598 -0.927,1.27046 -2.55068,1.09058 -1.61583,-0.17423 -3.81997,-1.7825 -0.83145,-0.60669 -1.67028,-1.43386 -0.83104,-0.82149 -1.63417,-1.82939 l 0.88857,-1.21778 q 0.67003,1.10798 1.44614,1.9883 0.77604,0.88032 1.67024,1.53279 1.35702,0.99017 2.38483,1.13008 1.02782,0.13995 1.56609,-0.59779 0.46992,-0.64401 0.20142,-1.39623 -0.26069,-0.74646 -1.33623,-1.80938 l -0.86236,-0.84435 q -1.58054,-1.55693 -1.96266,-2.69712 -0.38211,-1.14008 0.34839,-2.14125 0.84584,-1.15921 2.42314,-1.03109 1.58519,0.13385 3.50694,1.53611 0.82363,0.60098 1.59753,1.336 0.77386,0.73497 1.50564,1.61008 z" />
      <path
         d="m 267.58655,507.91313 q -1.52507,-0.55989 -2.83583,0.225 -1.30386,0.78739 -2.01071,2.71272 -0.70433,1.91847 -0.2197,3.36251 0.49186,1.44646 2.01661,2.00647 1.52504,0.55989 2.82199,-0.23008 1.30387,-0.78744 2.00819,-2.70589 0.70684,-1.92534 0.2222,-3.36933 -0.47767,-1.4415 -2.00275,-2.0014 z m 0.40962,-1.11572 q 2.17667,0.79912 2.9529,2.71305 0.77873,1.90712 -0.10542,4.31546 -0.88167,2.40149 -2.71189,3.35852 -1.82776,0.95024 -4.00443,0.15111 -2.1836,-0.80166 -2.96925,-2.71135 -0.77873,-1.90709 0.10543,-4.31542 0.88417,-2.40836 2.71191,-3.35856 1.83717,-0.95448 4.02077,-0.15281 z"
         style="font-style:normal;font-variant:normal;font-weight:normal;font-stretch:normal;font-size:3.52778px;line-height:1.25;font-family:sans-serif;-inkscape-font-specification:sans-serif;text-align:center;letter-spacing:0px;word-spacing:0px;text-anchor:middle;fill:#00a800;fill-opacity:1;stroke:none;stroke-width:1.12366"
         id="path862"
         inkscape:connector-curvature="0" />
      <path
         d="m 253.86077,508.26657 q 0.49525,0.32778 0.84501,1.00398 0.35816,0.67884 0.59541,1.74528 l 0.80369,3.46427 -1.81774,-0.56703 -0.74245,-3.24827 q -0.28403,-1.27005 -0.7607,-1.80471 -0.46826,-0.53199 -1.47351,-0.84554 l -1.8429,-0.57488 -1.41285,4.5293 -1.69211,-0.52784 3.34292,-10.71669 3.81984,1.19153 q 2.14446,0.66893 2.96036,1.76624 0.81591,1.09726 0.33226,2.64771 -0.31571,1.0121 -1.0768,1.50715 -0.75271,0.49773 -1.88043,0.4295 z m -2.83481,-5.82275 -1.1867,3.80433 2.12773,0.66371 q 1.22299,0.38154 1.99292,0.094 0.78053,-0.29217 1.07384,-1.23246 0.29329,-0.94035 -0.18716,-1.61004 -0.46988,-0.67427 -1.69289,-1.05577 z"
         style="font-style:normal;font-variant:normal;font-weight:normal;font-stretch:normal;font-size:3.52778px;line-height:1.25;font-family:sans-serif;-inkscape-font-specification:sans-serif;text-align:center;letter-spacing:0px;word-spacing:0px;text-anchor:middle;fill:#00a800;fill-opacity:1;stroke:none;stroke-width:1.24766"
         id="path864"
         inkscape:connector-curvature="0" />
      <path
         inkscape:connector-curvature="0"
         id="path866"
         style="font-style:normal;font-variant:normal;font-weight:normal;font-stretch:normal;font-size:3.52778px;line-height:1.25;font-family:sans-serif;-inkscape-font-specification:sans-serif;text-align:center;letter-spacing:0px;word-spacing:0px;text-anchor:middle;fill:#00a800;fill-opacity:1;stroke:none;stroke-width:1.24766"
         d="m 295.06229,524.99767 q 0.43717,0.40197 0.67559,1.12497 0.24631,0.72694 0.3119,1.81748 l 0.24572,3.54778 -1.70519,-0.84737 -0.21941,-3.32481 q -0.0796,-1.29898 -0.46571,-1.90229 -0.37824,-0.59935 -1.32125,-1.06794 l -1.72878,-0.8591 -2.11137,4.24886 -1.58734,-0.78879 4.99567,-10.05315 3.58333,1.78062 q 2.01168,0.99967 2.64378,2.2122 0.6321,1.21249 -0.0906,2.66694 -0.47179,0.94942 -1.3016,1.31789 -0.82194,0.37243 -1.92468,0.12671 z m -1.87829,-6.1978 -1.77342,3.56878 1.99601,0.99186 q 1.14725,0.57015 1.95297,0.40794 0.81691,-0.16506 1.25523,-1.04712 0.43831,-0.88214 0.0698,-1.61938 -0.35734,-0.7401 -1.50461,-1.31022 z" />
      <path
         inkscape:connector-curvature="0"
         id="path868"
         style="font-style:normal;font-variant:normal;font-weight:normal;font-stretch:normal;font-size:3.52778px;line-height:1.25;font-family:sans-serif;-inkscape-font-specification:sans-serif;text-align:center;letter-spacing:0px;word-spacing:0px;text-anchor:middle;fill:#00a800;fill-opacity:1;stroke:none;stroke-width:1.37182"
         d="m 306.23844,524.06591 8.70841,4.9446 -0.63113,1.11157 -6.84498,-3.88656 -1.64099,2.8901 6.55907,3.7242 -0.63113,1.11154 -6.55906,-3.7242 -2.00852,3.53741 7.01105,3.98084 -0.63113,1.11155 -8.87449,-5.03889 z" />
      <path
         inkscape:connector-curvature="0"
         id="path870"
         style="font-style:normal;font-variant:normal;font-weight:normal;font-stretch:normal;font-size:3.52778px;line-height:1.25;font-family:sans-serif;-inkscape-font-specification:sans-serif;text-align:center;letter-spacing:0px;word-spacing:0px;text-anchor:middle;fill:#00a800;fill-opacity:1;stroke:none;stroke-width:1.37182"
         d="m 174.1613,489.25263 10.00824,0.3473 -0.0443,1.27748 -7.86667,-0.27299 -0.11526,3.32146 7.53807,0.26158 -0.0443,1.27746 -7.53806,-0.26158 -0.14107,4.06541 8.05752,0.27961 -0.0443,1.27746 -10.1991,-0.35393 z" />
    </g>
    <path
       sodipodi:nodetypes="ccccccccccc"
       inkscape:connector-curvature="0"
       id="path925"
       d="m 260.46614,608.7733 1.99951,-1.45272 1.99949,1.45272 -0.76374,-2.35055 1.99949,-1.45273 h -2.47151 l -0.76374,-2.35055 -0.76374,2.35055 h -2.47152 l 1.9995,1.45272 z"
       inkscape:transform-center-y="-8.231014e-06"
       style="opacity:1;fill:#ffffff;fill-opacity:1;fill-rule:evenodd;stroke:none;stroke-width:0.05863072;stroke-linecap:round;stroke-linejoin:round;stroke-miterlimit:4;stroke-dasharray:none;stroke-dashoffset:0;stroke-opacity:1" />
    <path
       style="opacity:1;fill:#ffffff;fill-opacity:1;fill-rule:evenodd;stroke:none;stroke-width:0.05863072;stroke-linecap:round;stroke-linejoin:round;stroke-miterlimit:4;stroke-dasharray:none;stroke-dashoffset:0;stroke-opacity:1"
       inkscape:transform-center-y="-8.231014e-06"
       d="m 281.26913,611.12386 1.99951,-1.45272 1.99949,1.45272 -0.76374,-2.35055 1.99949,-1.45273 h -2.47151 l -0.76374,-2.35055 -0.76374,2.35055 h -2.47152 l 1.9995,1.45272 z"
       id="path936"
       inkscape:connector-curvature="0"
       sodipodi:nodetypes="ccccccccccc" />
    <path
       sodipodi:nodetypes="ccccccccccc"
       inkscape:connector-curvature="0"
       id="path954"
       d="m 336.33687,584.20589 1.99951,-1.45272 1.99949,1.45272 -0.76374,-2.35055 1.99949,-1.45273 h -2.47151 l -0.76374,-2.35055 -0.76374,2.35055 h -2.47152 l 1.9995,1.45272 z"
       inkscape:transform-center-y="-8.231014e-06"
       style="opacity:1;fill:#ffffff;fill-opacity:1;fill-rule:evenodd;stroke:none;stroke-width:0.05863072;stroke-linecap:round;stroke-linejoin:round;stroke-miterlimit:4;stroke-dasharray:none;stroke-dashoffset:0;stroke-opacity:1" />
    <path
       style="opacity:1;fill:#ffffff;fill-opacity:1;fill-rule:evenodd;stroke:none;stroke-width:0.05863072;stroke-linecap:round;stroke-linejoin:round;stroke-miterlimit:4;stroke-dasharray:none;stroke-dashoffset:0;stroke-opacity:1"
       inkscape:transform-center-y="-8.231014e-06"
       d="m 307.08744,610.22599 1.99951,-1.45272 1.99949,1.45272 -0.76374,-2.35055 1.99949,-1.45273 h -2.47151 l -0.76374,-2.35055 -0.76374,2.35055 h -2.47152 l 1.9995,1.45272 z"
       id="path960"
       inkscape:connector-curvature="0"
       sodipodi:nodetypes="ccccccccccc" />
    <path
       sodipodi:nodetypes="ccccccccccc"
       inkscape:connector-curvature="0"
       id="path966"
       d="m 295.72974,609.96134 1.99951,-1.45272 1.99949,1.45272 -0.76374,-2.35055 1.99949,-1.45273 h -2.47151 l -0.76374,-2.35055 -0.76374,2.35055 h -2.47152 l 1.9995,1.45272 z"
       inkscape:transform-center-y="-8.231014e-06"
       style="opacity:1;fill:#ffffff;fill-opacity:1;fill-rule:evenodd;stroke:none;stroke-width:0.0586307;stroke-linecap:round;stroke-linejoin:round;stroke-miterlimit:4;stroke-dasharray:none;stroke-dashoffset:0;stroke-opacity:1" />
    <path
       style="opacity:1;fill:#ffffff;fill-opacity:1;fill-rule:evenodd;stroke:none;stroke-width:0.0586307;stroke-linecap:round;stroke-linejoin:round;stroke-miterlimit:4;stroke-dasharray:none;stroke-dashoffset:0;stroke-opacity:1"
       inkscape:transform-center-y="-8.231014e-06"
       d="m 295.72974,632.69355 1.99951,-1.45272 1.99949,1.45272 -0.76374,-2.35055 1.99949,-1.45273 h -2.47151 l -0.76374,-2.35055 -0.76374,2.35055 h -2.47152 l 1.9995,1.45272 z"
       id="path968"
       inkscape:connector-curvature="0"
       sodipodi:nodetypes="ccccccccccc" />
    <path
       sodipodi:nodetypes="zzzzzccccc"
       inkscape:connector-curvature="0"
       id="path859"
       d="m 118.30655,537.39287 c 0,65.7564 53.3061,119.0625 119.0625,119.0625 65.7564,0 119.0625,-53.3061 119.0625,-119.0625 0,-65.7564 -53.3061,-119.0625 -119.0625,-119.0625 -65.7564,0 -119.0625,53.3061 -119.0625,119.0625 z M -44.979165,537.39286 237.36906,717.68751 519.71727,537.39286 237.36906,357.09822 Z"
       style="opacity:1;fill:#ffc000;fill-opacity:1;fill-rule:evenodd;stroke:none;stroke-width:0.31062198;stroke-linecap:round;stroke-linejoin:round;stroke-miterlimit:4;stroke-dasharray:none;stroke-dashoffset:0;stroke-opacity:1" />
    <path
       style="opacity:1;fill:#ffffff;fill-opacity:1;fill-rule:evenodd;stroke:none;stroke-width:0.08794602;stroke-linecap:round;stroke-linejoin:round;stroke-miterlimit:4;stroke-dasharray:none;stroke-dashoffset:0;stroke-opacity:1"
       inkscape:transform-center-x="2.4461422e-06"
       inkscape:transform-center-y="-1.0614336e-05"
       d="m 235.42815,598.25995 2.99926,-2.17908 2.99923,2.17908 -1.14561,-3.52582 2.99925,-2.17909 h -3.70727 l -1.14561,-3.52582 -1.14561,3.52582 h -3.70727 l 2.99925,2.17908 z"
       id="path836-8"
       inkscape:connector-curvature="0"
       sodipodi:nodetypes="ccccccccccc" />
    <path
       sodipodi:nodetypes="ccccccccccc"
       inkscape:connector-curvature="0"
       id="path851-7"
       d="m 236.2712,562.06484 2.49942,-1.81593 2.4994,1.81593 -0.95469,-2.93823 2.49941,-1.81594 h -3.08944 l -0.95469,-2.93823 -0.95469,2.93823 h -3.08944 l 2.49941,1.81593 z"
       inkscape:transform-center-y="-7.7442362e-06"
       inkscape:transform-center-x="3.1396692e-06"
       style="opacity:1;fill:#ffffff;fill-opacity:1;fill-rule:evenodd;stroke:none;stroke-width:0.07328952;stroke-linecap:round;stroke-linejoin:round;stroke-miterlimit:4;stroke-dasharray:none;stroke-dashoffset:0;stroke-opacity:1" />
    <path
       style="opacity:1;fill:#ffffff;fill-opacity:1;fill-rule:evenodd;stroke:none;stroke-width:0.07328952;stroke-linecap:round;stroke-linejoin:round;stroke-miterlimit:4;stroke-dasharray:none;stroke-dashoffset:0;stroke-opacity:1"
       inkscape:transform-center-x="3.1396692e-06"
       inkscape:transform-center-y="-7.7442362e-06"
       d="m 246.85454,573.70652 2.49942,-1.81593 2.4994,1.81593 -0.95469,-2.93823 2.49941,-1.81594 h -3.08944 l -0.95469,-2.93823 -0.95469,2.93823 h -3.08944 l 2.49941,1.81593 z"
       id="path891"
       inkscape:connector-curvature="0"
       sodipodi:nodetypes="ccccccccccc" />
    <path
       style="opacity:1;fill:#ffffff;fill-opacity:1;fill-rule:evenodd;stroke:none;stroke-width:0.05863072;stroke-linecap:round;stroke-linejoin:round;stroke-miterlimit:4;stroke-dasharray:none;stroke-dashoffset:0;stroke-opacity:1"
       inkscape:transform-center-y="-8.231014e-06"
       d="m 221.3016,572.97468 1.99951,-1.45272 1.99949,1.45272 -0.76374,-2.35055 1.99949,-1.45273 h -2.47151 l -0.76374,-2.35055 -0.76374,2.35055 h -2.47152 l 1.9995,1.45272 z"
       id="path853-3"
       inkscape:connector-curvature="0"
       sodipodi:nodetypes="ccccccccccc" />
    <path
       sodipodi:nodetypes="ccccccccccc"
       inkscape:connector-curvature="0"
       id="path851-0-9"
       d="m 321.98444,595.97759 2.49942,-1.81593 2.4994,1.81593 -0.95469,-2.93823 2.49941,-1.81594 h -3.08944 l -0.95469,-2.93823 -0.95469,2.93823 h -3.08944 l 2.49941,1.81593 z"
       inkscape:transform-center-y="-7.7442362e-06"
       inkscape:transform-center-x="3.1396692e-06"
       style="fill:#ffffff;fill-opacity:1;fill-rule:evenodd;stroke:none;stroke-width:0.0732895;stroke-linecap:round;stroke-linejoin:round;stroke-miterlimit:4;stroke-dasharray:none;stroke-dashoffset:0;stroke-opacity:1" />
    <path
       sodipodi:nodetypes="ccccccccccc"
       inkscape:connector-curvature="0"
       id="path2"
       d="m 316.27953,606.46859 2.49942,-1.81593 2.4994,1.81593 -0.95469,-2.93823 2.49941,-1.81594 h -3.08944 l -0.95469,-2.93823 -0.95469,2.93823 h -3.08944 l 2.49941,1.81593 z"
       inkscape:transform-center-y="-7.7442362e-06"
       inkscape:transform-center-x="3.1396692e-06"
       style="fill:#ffffff;fill-opacity:1;fill-rule:evenodd;stroke:none;stroke-width:0.0732895;stroke-linecap:round;stroke-linejoin:round;stroke-miterlimit:4;stroke-dasharray:none;stroke-dashoffset:0;stroke-opacity:1" />
    <path
       sodipodi:nodetypes="ccccccccccc"
       inkscape:connector-curvature="0"
       id="path851-75-0"
       d="m 270.40674,623.04441 2.49942,-1.81593 2.4994,1.81593 -0.95469,-2.93823 2.49941,-1.81594 h -3.08944 l -0.95469,-2.93823 -0.95469,2.93823 h -3.08944 l 2.49941,1.81593 z"
       inkscape:transform-center-y="-7.7442362e-06"
       inkscape:transform-center-x="3.1396692e-06"
       style="fill:#ffffff;fill-opacity:1;fill-rule:evenodd;stroke:none;stroke-width:0.0732895;stroke-linecap:round;stroke-linejoin:round;stroke-miterlimit:4;stroke-dasharray:none;stroke-dashoffset:0;stroke-opacity:1" />
    <path
       sodipodi:nodetypes="ccccccccccc"
       inkscape:connector-curvature="0"
       id="path3"
       d="m 295.22983,620.41637 2.49942,-1.81593 2.4994,1.81593 -0.95469,-2.93823 2.49941,-1.81594 h -3.08944 l -0.95469,-2.93823 -0.95469,2.93823 h -3.08944 l 2.49941,1.81593 z"
       inkscape:transform-center-y="-7.7442362e-06"
       inkscape:transform-center-x="3.1396692e-06"
       style="fill:#ffffff;fill-opacity:1;fill-rule:evenodd;stroke:none;stroke-width:0.0732895;stroke-linecap:round;stroke-linejoin:round;stroke-miterlimit:4;stroke-dasharray:none;stroke-dashoffset:0;stroke-opacity:1" />
    <path
       style="opacity:1;fill:#ffffff;fill-opacity:1;fill-rule:evenodd;stroke:none;stroke-width:0.0586307;stroke-linecap:round;stroke-linejoin:round;stroke-miterlimit:4;stroke-dasharray:none;stroke-dashoffset:0;stroke-opacity:1"
       inkscape:transform-center-y="-8.231014e-06"
       d="m 263.17223,535.07106 1.99951,-1.45272 1.99949,1.45272 -0.76374,-2.35055 1.99949,-1.45273 h -2.47151 l -0.76374,-2.35055 -0.76374,2.35055 h -2.47152 l 1.9995,1.45272 z"
       id="path5"
       inkscape:connector-curvature="0"
       sodipodi:nodetypes="ccccccccccc" />
    <path
       style="fill:#ffffff;fill-opacity:1;fill-rule:evenodd;stroke:none;stroke-width:0.087946;stroke-linecap:round;stroke-linejoin:round;stroke-miterlimit:4;stroke-dasharray:none;stroke-dashoffset:0;stroke-opacity:1"
       inkscape:transform-center-x="2.4461422e-06"
       inkscape:transform-center-y="-1.0614336e-05"
       d="m 271.22092,500.89534 2.99926,-2.17908 2.99923,2.17908 -1.14561,-3.52582 2.99925,-2.17909 h -3.70727 l -1.14561,-3.52582 -1.14561,3.52582 h -3.70727 l 2.99925,2.17908 z"
       id="path836-9"
       inkscape:connector-curvature="0"
       sodipodi:nodetypes="ccccccccccc" />
    <path
       style="fill:#ffffff;fill-opacity:1;fill-rule:evenodd;stroke:none;stroke-width:0.087946;stroke-linecap:round;stroke-linejoin:round;stroke-miterlimit:4;stroke-dasharray:none;stroke-dashoffset:0;stroke-opacity:1"
       inkscape:transform-center-x="2.4461422e-06"
       inkscape:transform-center-y="-1.0614336e-05"
       d="m 185.23501,608.44942 2.99925,-2.17908 2.99924,2.17908 -1.14561,-3.52582 2.99924,-2.17909 h -3.70726 l -1.14562,-3.52582 -1.14561,3.52582 h -3.70727 l 2.99925,2.17908 z"
       id="path7"
       inkscape:connector-curvature="0"
       sodipodi:nodetypes="ccccccccccc" />
  </g>
</svg>
