<?xml version="1.0" encoding="UTF-8" standalone="no"?>
<!-- Created with Inkscape (http://www.inkscape.org/) -->

<svg
   width="476.25mm"
   height="476.25mm"
   viewBox="0 0 476.25 476.25"
   version="1.1"
   id="svg1"
   inkscape:version="1.3 (0e150ed6c4, 2023-07-21)"
   sodipodi:docname="pt_1919_roundel.svg"
   xmlns:inkscape="http://www.inkscape.org/namespaces/inkscape"
   xmlns:sodipodi="http://sodipodi.sourceforge.net/DTD/sodipodi-0.dtd"
   xmlns="http://www.w3.org/2000/svg"
   xmlns:svg="http://www.w3.org/2000/svg">
  <sodipodi:namedview
     id="namedview1"
     pagecolor="#505050"
     bordercolor="#eeeeee"
     borderopacity="1"
     inkscape:showpageshadow="0"
     inkscape:pageopacity="0"
     inkscape:pagecheckerboard="0"
     inkscape:deskcolor="#505050"
     inkscape:document-units="px"
     inkscape:zoom="0.36213173"
     inkscape:cx="898.84418"
     inkscape:cy="749.72717"
     inkscape:window-width="1920"
     inkscape:window-height="1009"
     inkscape:window-x="-8"
     inkscape:window-y="-8"
     inkscape:window-maximized="1"
     inkscape:current-layer="layer1" />
  <defs
     id="defs1" />
  <g
     inkscape:label="Layer 1"
     inkscape:groupmode="layer"
     id="layer1"
     transform="translate(-54.19809,-17.484085)">
    <path
       id="path3"
       style="fill:#ffffff;stroke-width:2.37835;stroke-linejoin:round;stroke-miterlimit:3.9"
       d="M 518.54184,255.60909 A 226.21875,226.21875 0 0 1 292.32309,481.82784 226.21875,226.21875 0 0 1 66.10434,255.60909 226.21875,226.21875 0 0 1 292.32309,29.390335 226.21875,226.21875 0 0 1 518.54184,255.60909 Z" />
    <path
       id="circle3"
       style="fill:#000000;fill-opacity:1;stroke-width:2.50352;stroke-linejoin:round;stroke-miterlimit:3.9"
       d="m 54.19809,255.60909 c 10e-7,131.51281 106.61219,238.125 238.125,238.125 131.51281,0 238.125,-106.61219 238.125,-238.125 0,-131.51281 -106.61219,-238.125005 -238.125,-238.125005 -131.51281,0 -238.125001,106.612195 -238.125,238.125005 z m 452.4375,0 c 0,118.36153 -95.95097,214.3125 -214.3125,214.3125 -118.36153,0 -214.312499,-95.95097 -214.3125,-214.3125 -10e-7,-118.36153 95.95097,-214.312505 214.3125,-214.312505 118.36153,0 214.3125,95.950975 214.3125,214.312505 z"
       sodipodi:nodetypes="zzzzzzzzzz" />
    <path
       style="fill:#ff0000;fill-opacity:1;stroke:none;stroke-width:2.47284;stroke-linecap:round;stroke-linejoin:round;stroke-miterlimit:4;stroke-dasharray:none;stroke-opacity:1"
       d="m 113.72938,165.55049 44.26756,61.0437 H 263.30822 V 121.28292 L 202.26449,77.015337 h 180.1143 l -61.04374,44.267583 v 105.31127 h 105.31274 l 44.269,-61.0437 v 180.11577 l -44.269,-61.04232 H 321.33505 v 105.3106 l 61.04374,44.26829 h -180.1143 l 61.04373,-44.26829 V 284.62394 H 157.99694 l -44.26756,61.04232 z M 306.82904,270.11503 H 426.64779 V 241.1002 H 306.82904 V 121.28292 H 277.81417 V 241.1002 H 157.99694 v 29.01483 h 119.81723 v 119.81951 h 29.01487 z"
       id="path2"
       inkscape:connector-curvature="0"
       sodipodi:nodetypes="cccccccccccccccccccccccccccccccccc" />
  </g>
</svg>
