<?xml version="1.0" encoding="UTF-8" standalone="no"?>
<!-- Created with Inkscape (http://www.inkscape.org/) -->

<svg
   width="1799.9999"
   height="1800"
   viewBox="0 0 476.24997 476.25001"
   version="1.1"
   id="svg8"
   inkscape:export-filename="C:\Users\厂永刄先生\Documents\GXI3CW2\JáÈŭcèŭ\Èŭmen\Í\意軍.png"
   inkscape:export-xdpi="96"
   inkscape:export-ydpi="96"
   inkscape:version="1.3 (0e150ed6c4, 2023-07-21)"
   sodipodi:docname="MO3LE3SI1JA2 - コピー.svg"
   xmlns:inkscape="http://www.inkscape.org/namespaces/inkscape"
   xmlns:sodipodi="http://sodipodi.sourceforge.net/DTD/sodipodi-0.dtd"
   xmlns="http://www.w3.org/2000/svg"
   xmlns:svg="http://www.w3.org/2000/svg"
   xmlns:rdf="http://www.w3.org/1999/02/22-rdf-syntax-ns#"
   xmlns:cc="http://creativecommons.org/ns#"
   xmlns:dc="http://purl.org/dc/elements/1.1/">
  <defs
     id="defs2" />
  <sodipodi:namedview
     id="base"
     pagecolor="#ffffff"
     bordercolor="#666666"
     borderopacity="1.0"
     inkscape:pageopacity="0.0"
     inkscape:pageshadow="2"
     inkscape:zoom="0.24532454"
     inkscape:cx="1659.0269"
     inkscape:cy="1632.5313"
     inkscape:document-units="px"
     inkscape:current-layer="layer1"
     showgrid="false"
     units="px"
     fit-margin-top="0"
     fit-margin-left="0"
     fit-margin-right="0"
     fit-margin-bottom="0"
     inkscape:showpageshadow="false"
     inkscape:snap-intersection-paths="false"
     inkscape:object-paths="false"
     inkscape:pagecheckerboard="true"
     inkscape:snap-smooth-nodes="true"
     inkscape:window-width="2880"
     inkscape:window-height="1514"
     inkscape:window-x="-11"
     inkscape:window-y="-11"
     inkscape:window-maximized="1"
     inkscape:object-nodes="true"
     inkscape:snap-nodes="true"
     inkscape:deskcolor="#505050" />
  <metadata
     id="metadata5">
    <rdf:RDF>
      <cc:Work
         rdf:about="">
        <dc:format>image/svg+xml</dc:format>
        <dc:type
           rdf:resource="http://purl.org/dc/dcmitype/StillImage" />
      </cc:Work>
    </rdf:RDF>
  </metadata>
  <g
     inkscape:label="レイヤー 1"
     inkscape:groupmode="layer"
     id="layer1"
     transform="translate(-58.77536,-299.2679)">
    <path
       style="opacity:1;fill:#00aaff;fill-opacity:1;fill-rule:evenodd;stroke:none;stroke-width:1.32334;stroke-linecap:butt;stroke-linejoin:miter;stroke-miterlimit:4;stroke-dasharray:none;stroke-dashoffset:0;stroke-opacity:1"
       d="m 58.77536,537.39291 c 0,-131.51276 106.61225,-238.12501 238.12499,-238.12501 131.51273,0 238.12498,106.61225 238.12498,238.12501 0,131.51275 -106.61225,238.12499 -238.12498,238.12499 -131.51274,0 -238.12499,-106.61224 -238.12499,-238.12499 z"
       id="path1"
       inkscape:connector-curvature="0"
       sodipodi:nodetypes="zzzzz" />
    <path
       style="opacity:1;fill:#0038a8;fill-opacity:1;fill-rule:evenodd;stroke:none;stroke-width:0.887677;stroke-linecap:butt;stroke-linejoin:miter;stroke-miterlimit:4;stroke-dasharray:none;stroke-dashoffset:0;stroke-opacity:1"
       d="m 137.16986,537.39291 c 0,-88.21669 71.51382,-159.73051 159.73049,-159.73051 88.21668,0 159.7305,71.51382 159.7305,159.73051 0,88.21668 -71.51382,159.73049 -159.7305,159.73049 -88.21667,0 -159.73049,-71.51381 -159.73049,-159.73049 z"
       id="path901"
       inkscape:connector-curvature="0"
       sodipodi:nodetypes="zzzzz" />
    <path
       style="opacity:1;fill:#ffc000;fill-opacity:1;fill-rule:evenodd;stroke:none;stroke-width:0.320795;stroke-linecap:butt;stroke-linejoin:miter;stroke-miterlimit:4;stroke-dasharray:none;stroke-dashoffset:0;stroke-opacity:1"
       inkscape:transform-center-x="9.3383564e-06"
       d="m 296.90035,386.26884 13.45131,92.18998 52.11896,-77.224 -27.88052,88.89663 80.46381,-46.96286 -63.6903,67.99619 92.87181,-7.40014 -86.8854,33.62825 86.8854,33.62828 -92.87181,-7.40014 63.69028,67.99619 -80.46379,-46.96286 27.88052,88.89662 -52.11896,-77.22401 -13.45132,92.19 -13.45131,-92.19 -52.11896,77.22401 27.88052,-88.89662 -80.46381,46.96284 63.6903,-67.99617 -92.87181,7.40014 86.8854,-33.62828 -86.8854,-33.62827 92.87181,7.40016 -63.69028,-67.99619 80.46379,46.96286 -27.88052,-88.89663 52.11896,77.224 z"
       id="path910"
       inkscape:connector-curvature="0"
       sodipodi:nodetypes="ccccccccccccccccccccccccccccc" />
  </g>
</svg>
