<?xml version="1.0" encoding="UTF-8" standalone="no"?>
<!-- Created with Inkscape (http://www.inkscape.org/) -->

<svg
   xmlns:dc="http://purl.org/dc/elements/1.1/"
   xmlns:cc="http://creativecommons.org/ns#"
   xmlns:rdf="http://www.w3.org/1999/02/22-rdf-syntax-ns#"
   xmlns:svg="http://www.w3.org/2000/svg"
   xmlns="http://www.w3.org/2000/svg"
   xmlns:sodipodi="http://sodipodi.sourceforge.net/DTD/sodipodi-0.dtd"
   xmlns:inkscape="http://www.inkscape.org/namespaces/inkscape"
   width="1800"
   height="1800"
   viewBox="0 0 476.25 476.25001"
   version="1.1"
   id="svg8"
   inkscape:export-filename="C:\Users\drk22\Documents\GXI3CW2\cercles\PH.png"
   inkscape:export-xdpi="96"
   inkscape:export-ydpi="96"
   inkscape:version="0.92.4 (5da689c313, 2019-01-14)"
   sodipodi:docname="ball.svg">
  <defs
     id="defs2" />
  <sodipodi:namedview
     id="base"
     pagecolor="#ffffff"
     bordercolor="#666666"
     borderopacity="1.0"
     inkscape:pageopacity="0.0"
     inkscape:pageshadow="2"
     inkscape:zoom="0.35355339"
     inkscape:cx="166.28115"
     inkscape:cy="943.88934"
     inkscape:document-units="px"
     inkscape:current-layer="layer1"
     showgrid="false"
     units="px"
     fit-margin-top="0"
     fit-margin-left="0"
     fit-margin-right="0"
     fit-margin-bottom="0"
     inkscape:showpageshadow="false"
     inkscape:snap-intersection-paths="true"
     inkscape:object-paths="false"
     inkscape:pagecheckerboard="true"
     inkscape:snap-smooth-nodes="true"
     inkscape:window-width="1920"
     inkscape:window-height="1051"
     inkscape:window-x="-9"
     inkscape:window-y="-9"
     inkscape:window-maximized="1"
     inkscape:object-nodes="true"
     inkscape:snap-nodes="true"
     showguides="false" />
  <metadata
     id="metadata5">
    <rdf:RDF>
      <cc:Work
         rdf:about="">
        <dc:format>image/svg+xml</dc:format>
        <dc:type
           rdf:resource="http://purl.org/dc/dcmitype/StillImage" />
        <dc:title />
      </cc:Work>
    </rdf:RDF>
  </metadata>
  <g
     inkscape:label="レイヤー 1"
     inkscape:groupmode="layer"
     id="layer1"
     transform="translate(817.18449,-299.26787)">
    <path
       sodipodi:nodetypes="ccccc"
       inkscape:connector-curvature="0"
       id="path837"
       d="m -698.14189,331.13627 c -71.16475,41.17577 -119.0426,118.12495 -119.0426,206.2566 0,88.13165 47.87785,165.08083 119.0426,206.2566 l 119.0824,-206.2566 z"
       style="opacity:1;fill:#ffffff;fill-opacity:1;stroke:none;stroke-width:1.62573028;stroke-linecap:round;stroke-linejoin:round;stroke-miterlimit:4;stroke-dasharray:none;stroke-dashoffset:0;stroke-opacity:0.25098039;paint-order:normal" />
    <g
       id="g1068"
       style="stroke:none;stroke-width:2.3812499;stroke-miterlimit:4;stroke-dasharray:none;stroke-opacity:1" />
    <path
       style="opacity:1;fill:#0038a8;fill-opacity:1;stroke:none;stroke-width:1.62573028;stroke-linecap:round;stroke-linejoin:round;stroke-miterlimit:4;stroke-dasharray:none;stroke-dashoffset:0;stroke-opacity:0.25098039;paint-order:normal"
       d="m -579.05949,537.39287 -119.0824,-206.2566 c 35.02951,-20.268 75.70125,-31.8684 119.0824,-31.8684 131.51281,0 238.125,106.61219 238.125,238.125 z"
       id="path823"
       inkscape:connector-curvature="0"
       sodipodi:nodetypes="ccscc" />
    <path
       sodipodi:nodetypes="ccscc"
       inkscape:connector-curvature="0"
       id="path835"
       d="m -579.05949,537.39287 -119.0824,206.2566 c 35.02951,20.268 75.70125,31.8684 119.0824,31.8684 131.51281,0 238.125,-106.61219 238.125,-238.125 z"
       style="opacity:1;fill:#ce1126;fill-opacity:1;stroke:none;stroke-width:1.62573028;stroke-linecap:round;stroke-linejoin:round;stroke-miterlimit:4;stroke-dasharray:none;stroke-dashoffset:0;stroke-opacity:0.25098039;paint-order:normal" />
    <path
       sodipodi:nodetypes="ccccccccccc"
       inkscape:connector-curvature="0"
       style="opacity:1;fill:#fcd116;fill-opacity:1;fill-rule:evenodd;stroke:none;stroke-width:0.00949718;stroke-linecap:round;stroke-linejoin:round;stroke-miterlimit:4;stroke-dasharray:none;stroke-dashoffset:0;stroke-opacity:1"
       inkscape:transform-center-x="7.6446397e-06"
       inkscape:transform-center-y="-2.3362293e-06"
       d="m -591.33955,537.39287 -15.50118,5.3882 -0.33436,16.40754 -9.91461,-13.07745 -15.70782,4.75222 9.3736,-13.47051 -9.3736,-13.47051 15.70782,4.75221 9.91461,-13.07744 0.33436,16.40753 z"
       id="path854" />
    <g
       id="g862"
       transform="matrix(0.86616944,0,0,0.86616944,69.290058,71.919576)">
      <path
         style="fill:#fcd116;fill-opacity:1;stroke:none;stroke-width:0.26458335px;stroke-linecap:butt;stroke-linejoin:miter;stroke-opacity:1"
         d="m -988.92163,466.2992 h 8.74621 l 62.34728,71.09388 -54.5519,-71.09388 h 7.04881 l 47.50339,71.09377 -16.68103,-83.86081 4.98427,-4.98426 11.69646,88.84518 -6.18429,-94.35735 6.18449,-6.1845 6.18447,6.18447 -6.18442,94.35715 11.69657,-88.845 4.98429,4.98429 -16.68091,83.86075 47.50327,-71.09371 h 7.04881 l -54.55203,71.09367 62.34742,-71.09367 8.7462,1e-5 1e-5,8.7462 -71.09358,62.34757 71.09358,-54.5522 v 7.04882 l -71.09372,47.50329 83.86075,-16.68094 4.98426,4.98427 -88.84487,11.69676 94.35704,-6.18459 6.18451,6.18453 -6.18447,6.18448 -94.35708,-6.18442 88.84491,11.69658 -4.98427,4.98428 -83.86094,-16.68074 71.09389,47.50309 v 7.04881 l -71.09389,-54.5519 71.09389,62.34729 v 8.7462 h -8.74621 l -62.34738,-71.0936 54.552,71.0936 h -7.04882 l -47.50323,-71.09372 16.68088,83.86076 -4.98426,4.98427 -11.69657,-88.84491 6.1844,94.35707 -6.1845,6.1845 -6.18453,-6.18453 6.18463,-94.35704 -11.69681,88.84486 -4.98424,-4.98424 16.681,-83.86074 -47.50335,71.09369 h -7.04883 l 54.55193,-71.09346 -62.34728,71.09346 h -8.7462 v -8.7462 l 71.09378,-62.34737 -71.09378,54.55198 v -7.04884 l 71.09378,-47.50315 -83.86086,16.68084 -4.9843,-4.98427 88.84486,-11.69645 -94.35696,6.18428 -6.1845,-6.18447 6.1845,-6.18449 94.35696,6.18468 -88.84476,-11.69687 4.9842,-4.98426 83.86066,16.68091 -71.09359,-47.50324 v -7.04883 l 71.09379,54.55218 -71.09379,-62.34757 z"
         id="path858"
         inkscape:connector-curvature="0"
         sodipodi:nodetypes="ccccccccccccccccccccccccccccccccccccccccccccccccccccccccccccccccccccccccccccccccc" />
      <path
         style="opacity:1;fill:#fcd116;fill-opacity:1;fill-rule:evenodd;stroke:none;stroke-width:0.10987769;stroke-linecap:round;stroke-linejoin:round;stroke-miterlimit:4;stroke-dasharray:none;stroke-dashoffset:0;stroke-opacity:1"
         d="m -867.55711,537.39288 a 50.270832,50.270832 0 0 1 -50.27083,50.27084 50.270832,50.270832 0 0 1 -50.27083,-50.27084 50.270832,50.270832 0 0 1 50.27083,-50.27083 50.270832,50.270832 0 0 1 50.27083,50.27083 z"
         id="path860"
         inkscape:connector-curvature="0" />
    </g>
    <path
       id="path880"
       d="m -705.87501,349.01213 -6.83893,14.91805 -16.36489,-1.22858 12.07457,11.11415 -6.22549,15.18427 14.30141,-8.04913 12.51734,10.61298 -3.23581,-16.08877 13.96162,-8.62509 -16.30125,-1.89427 z"
       inkscape:transform-center-y="0.64095767"
       inkscape:transform-center-x="-0.46568739"
       style="opacity:1;fill:#fcd116;fill-opacity:1;fill-rule:evenodd;stroke:none;stroke-width:0.00949718;stroke-linecap:round;stroke-linejoin:round;stroke-miterlimit:4;stroke-dasharray:none;stroke-dashoffset:0;stroke-opacity:1"
       inkscape:connector-curvature="0"
       sodipodi:nodetypes="ccccccccccc" />
    <path
       sodipodi:nodetypes="ccccccccccc"
       inkscape:connector-curvature="0"
       style="opacity:1;fill:#fcd116;fill-opacity:1;fill-rule:evenodd;stroke:none;stroke-width:0.00949718;stroke-linecap:round;stroke-linejoin:round;stroke-miterlimit:4;stroke-dasharray:none;stroke-dashoffset:0;stroke-opacity:1"
       inkscape:transform-center-x="-0.46568739"
       inkscape:transform-center-y="-0.64095767"
       d="m -705.87501,725.77361 -6.83893,-14.91805 -16.36489,1.22858 12.07457,-11.11415 -6.22549,-15.18427 14.30141,8.04913 12.51734,-10.61298 -3.23581,16.08877 13.96162,8.62509 -16.30125,1.89427 z"
       id="path884" />
  </g>
</svg>
