<?xml version="1.0" encoding="UTF-8" standalone="no"?>
<!-- Created with Inkscape (http://www.inkscape.org/) -->

<svg
   width="3636"
   height="1800"
   viewBox="0 0 962.025 476.25001"
   version="1.1"
   id="svg8"
   inkscape:export-filename="C:\Users\厂永刄先生\Documents\GXI3CW2\,pjóŭ\Philippines.png"
   inkscape:export-xdpi="96"
   inkscape:export-ydpi="96"
   inkscape:version="1.3 (0e150ed6c4, 2023-07-21)"
   sodipodi:docname="ph_1986.svg"
   xmlns:inkscape="http://www.inkscape.org/namespaces/inkscape"
   xmlns:sodipodi="http://sodipodi.sourceforge.net/DTD/sodipodi-0.dtd"
   xmlns="http://www.w3.org/2000/svg"
   xmlns:svg="http://www.w3.org/2000/svg"
   xmlns:rdf="http://www.w3.org/1999/02/22-rdf-syntax-ns#"
   xmlns:cc="http://creativecommons.org/ns#"
   xmlns:dc="http://purl.org/dc/elements/1.1/">
  <defs
     id="defs2" />
  <sodipodi:namedview
     id="base"
     pagecolor="#ffffff"
     bordercolor="#666666"
     borderopacity="1.0"
     inkscape:pageopacity="0.0"
     inkscape:pageshadow="2"
     inkscape:zoom="0.24532453"
     inkscape:cx="1818"
     inkscape:cy="898.80943"
     inkscape:document-units="px"
     inkscape:current-layer="layer1"
     showgrid="false"
     units="px"
     fit-margin-top="0"
     fit-margin-left="0"
     fit-margin-right="0"
     fit-margin-bottom="0"
     inkscape:showpageshadow="false"
     inkscape:snap-intersection-paths="false"
     inkscape:object-paths="false"
     inkscape:pagecheckerboard="true"
     inkscape:snap-smooth-nodes="true"
     inkscape:window-width="2880"
     inkscape:window-height="1514"
     inkscape:window-x="-11"
     inkscape:window-y="-11"
     inkscape:window-maximized="1"
     inkscape:object-nodes="true"
     inkscape:snap-nodes="true"
     showguides="false"
     inkscape:deskcolor="#505050" />
  <metadata
     id="metadata5">
    <rdf:RDF>
      <cc:Work
         rdf:about="">
        <dc:format>image/svg+xml</dc:format>
        <dc:type
           rdf:resource="http://purl.org/dc/dcmitype/StillImage" />
      </cc:Work>
    </rdf:RDF>
  </metadata>
  <g
     inkscape:label="レイヤー 1"
     inkscape:groupmode="layer"
     id="layer1"
     transform="translate(1064.8345,-299.26786)">
    <g
       id="g1068"
       style="stroke:none;stroke-width:2.3812499;stroke-miterlimit:4;stroke-dasharray:none;stroke-opacity:1" />
    <path
       sodipodi:nodetypes="ccccc"
       inkscape:connector-curvature="0"
       id="path1079"
       d="m -1064.8345,299.26786 h 9.525 v 476.25 h -9.525 z"
       style="fill:#ffffff;fill-opacity:1;stroke:none;stroke-width:0.51166773px;stroke-linecap:butt;stroke-linejoin:miter;stroke-opacity:1" />
    <path
       sodipodi:nodetypes="ccccc"
       inkscape:connector-curvature="0"
       id="path830"
       d="m -1055.3095,299.26786 412.44461,238.12502 h 540.0554 V 299.26786 Z"
       style="fill:#041e42;fill-opacity:1;stroke:none;stroke-width:0.132292;stroke-linecap:butt;stroke-linejoin:miter;stroke-miterlimit:5.33333;stroke-dasharray:none;stroke-opacity:1" />
    <path
       style="fill:#bf0d3e;fill-opacity:1;stroke:none;stroke-width:0.132292;stroke-linecap:butt;stroke-linejoin:miter;stroke-miterlimit:5.33333;stroke-dasharray:none;stroke-opacity:1"
       d="m -1055.3095,775.51786 412.44461,-238.12498 h 540.0554 v 238.12498 z"
       id="path817"
       inkscape:connector-curvature="0"
       sodipodi:nodetypes="ccccc" />
    <path
       style="opacity:1;fill:#ffffff;fill-opacity:1;fill-rule:evenodd;stroke:none;stroke-width:0.28486809;stroke-linecap:round;stroke-linejoin:round;stroke-miterlimit:4;stroke-dasharray:none;stroke-dashoffset:0;stroke-opacity:1"
       d="M -642.86489,537.39286 -1055.3095,299.26787 v 476.25001 z"
       id="path815"
       inkscape:connector-curvature="0"
       sodipodi:nodetypes="cccc" />
    <path
       id="path888"
       d="m -597.59545,-143.1324 64.64736,185.982995 196.85806,4.011823 -156.90359,118.955432 57.01739,188.46263 -161.61959,-112.4647 -161.61888,112.46469 57.0167,-188.46264 -156.90288,-118.955426 196.85737,-4.01182 z"
       inkscape:transform-center-y="2.5432499e-06"
       inkscape:transform-center-x="-1.0818216e-05"
       style="opacity:1;fill:#ffcd00;fill-opacity:1;fill-rule:evenodd;stroke:none;stroke-width:0.28486809;stroke-linecap:round;stroke-linejoin:round;stroke-miterlimit:4;stroke-dasharray:none;stroke-dashoffset:0;stroke-opacity:1"
       transform="matrix(0.08333333,-0.04811252,0.04811252,0.08333333,-974.81092,323.68817)"
       inkscape:connector-curvature="0"
       sodipodi:nodetypes="ccccccccccc" />
    <path
       id="path884"
       d="m -597.59533,-555.57703 161.61912,464.957908 492.144365,10.02909 -392.258195,297.388972 142.54272,471.1561 -404.04815,-281.16129 -404.04793,281.16127 142.54252,-471.15609 -392.25792,-297.388997 492.14411,-10.029064 z"
       inkscape:transform-center-y="-2.3362293e-06"
       inkscape:transform-center-x="7.6446397e-06"
       style="opacity:1;fill:#ffcd00;fill-opacity:1;fill-rule:evenodd;stroke:none;stroke-width:0.28486809;stroke-linecap:round;stroke-linejoin:round;stroke-miterlimit:4;stroke-dasharray:none;stroke-dashoffset:0;stroke-opacity:1"
       transform="matrix(0,0.03849002,-0.03849002,0,-711.87404,560.39433)"
       inkscape:connector-curvature="0"
       sodipodi:nodetypes="ccccccccccc" />
    <path
       sodipodi:nodetypes="ccccccccccc"
       inkscape:connector-curvature="0"
       style="opacity:1;fill:#ffcd00;fill-opacity:1;fill-rule:evenodd;stroke:none;stroke-width:0.02741144;stroke-linecap:round;stroke-linejoin:round;stroke-miterlimit:4;stroke-dasharray:none;stroke-dashoffset:0;stroke-opacity:1"
       inkscape:transform-center-x="-7.3951003e-06"
       inkscape:transform-center-y="1.0938759e-06"
       d="m -1031.497,734.27345 14.3354,-12.38824 16.5978,9.13702 -7.352,-17.46198 13.81886,-12.96197 -18.87926,1.59613 -8.0573,-17.14794 -4.316,18.44843 -18.7985,2.36396 16.2118,9.80562 z"
       id="path892" />
    <g
       id="g900"
       style="fill:#ffcd00;fill-opacity:1">
      <path
         sodipodi:nodetypes="ccccccccccccccccccccccccccccccccccccccccccccccccccccccccccccccccccccccccccccccccc"
         inkscape:connector-curvature="0"
         id="path896"
         d="m -988.92163,466.2992 h 8.74621 l 62.34728,71.09388 -54.5519,-71.09388 h 7.04881 l 47.50339,71.09377 -16.68103,-83.86081 4.98427,-4.98426 11.69646,88.84518 -6.18429,-94.35735 6.18449,-6.1845 6.18447,6.18447 -6.18442,94.35715 11.69657,-88.845 4.98429,4.98429 -16.68091,83.86075 47.50327,-71.09371 h 7.04881 l -54.55203,71.09367 62.34742,-71.09367 8.7462,1e-5 1e-5,8.7462 -71.09358,62.34757 71.09358,-54.5522 v 7.04882 l -71.09372,47.50329 83.86075,-16.68094 4.98426,4.98427 -88.84487,11.69676 94.35704,-6.18459 6.18451,6.18453 -6.18447,6.18448 -94.35708,-6.18442 88.84491,11.69658 -4.98427,4.98428 -83.86094,-16.68074 71.09389,47.50309 v 7.04881 l -71.09389,-54.5519 71.09389,62.34729 v 8.7462 h -8.74621 l -62.34738,-71.0936 54.552,71.0936 h -7.04882 l -47.50323,-71.09372 16.68088,83.86076 -4.98426,4.98427 -11.69657,-88.84491 6.1844,94.35707 -6.1845,6.1845 -6.18453,-6.18453 6.18463,-94.35704 -11.69681,88.84486 -4.98424,-4.98424 16.681,-83.86074 -47.50335,71.09369 h -7.04883 l 54.55193,-71.09346 -62.34728,71.09346 h -8.7462 v -8.7462 l 71.09378,-62.34737 -71.09378,54.55198 v -7.04884 l 71.09378,-47.50315 -83.86086,16.68084 -4.9843,-4.98427 88.84486,-11.69645 -94.35696,6.18428 -6.1845,-6.18447 6.1845,-6.18449 94.35696,6.18468 -88.84476,-11.69687 4.9842,-4.98426 83.86066,16.68091 -71.09359,-47.50324 v -7.04883 l 71.09379,54.55218 -71.09379,-62.34757 z"
         style="fill:#ffcd00;stroke:none;stroke-width:0.26458335px;stroke-linecap:butt;stroke-linejoin:miter;stroke-opacity:1;fill-opacity:1" />
      <path
         id="circle839"
         d="m -867.55711,537.39288 a 50.270832,50.270832 0 0 1 -50.27083,50.27084 50.270832,50.270832 0 0 1 -50.27083,-50.27084 50.270832,50.270832 0 0 1 50.27083,-50.27083 50.270832,50.270832 0 0 1 50.27083,50.27083 z"
         style="opacity:1;fill:#ffcd00;fill-opacity:1;fill-rule:evenodd;stroke:none;stroke-width:0.10987769;stroke-linecap:round;stroke-linejoin:round;stroke-miterlimit:4;stroke-dasharray:none;stroke-dashoffset:0;stroke-opacity:1" />
    </g>
  </g>
</svg>
