<?xml version="1.0" encoding="UTF-8" standalone="no"?>
<!-- Created with Inkscape (http://www.inkscape.org/) -->

<svg
   xmlns:dc="http://purl.org/dc/elements/1.1/"
   xmlns:cc="http://creativecommons.org/ns#"
   xmlns:rdf="http://www.w3.org/1999/02/22-rdf-syntax-ns#"
   xmlns:svg="http://www.w3.org/2000/svg"
   xmlns="http://www.w3.org/2000/svg"
   xmlns:sodipodi="http://sodipodi.sourceforge.net/DTD/sodipodi-0.dtd"
   xmlns:inkscape="http://www.inkscape.org/namespaces/inkscape"
   width="3636"
   height="1800"
   viewBox="0 0 962.025 476.25001"
   version="1.1"
   id="svg8"
   inkscape:export-filename="C:\Users\drk22\Documents\GXI3CW2\JáÈŭcèŭ\Fìlipìn\✞.png"
   inkscape:export-xdpi="96"
   inkscape:export-ydpi="96"
   inkscape:version="0.92.4 (5da689c313, 2019-01-14)"
   sodipodi:docname="✞.svg">
  <defs
     id="defs2" />
  <sodipodi:namedview
     id="base"
     pagecolor="#ffffff"
     bordercolor="#666666"
     borderopacity="1.0"
     inkscape:pageopacity="0.0"
     inkscape:pageshadow="2"
     inkscape:zoom="0.39840187"
     inkscape:cx="698.67632"
     inkscape:cy="912.66147"
     inkscape:document-units="px"
     inkscape:current-layer="layer1"
     showgrid="false"
     units="px"
     fit-margin-top="0"
     fit-margin-left="0"
     fit-margin-right="0"
     fit-margin-bottom="0"
     inkscape:showpageshadow="false"
     inkscape:snap-intersection-paths="true"
     inkscape:object-paths="false"
     inkscape:pagecheckerboard="true"
     inkscape:snap-smooth-nodes="true"
     inkscape:window-width="1920"
     inkscape:window-height="1051"
     inkscape:window-x="-9"
     inkscape:window-y="-9"
     inkscape:window-maximized="1"
     inkscape:object-nodes="true"
     inkscape:snap-nodes="true"
     showguides="false" />
  <metadata
     id="metadata5">
    <rdf:RDF>
      <cc:Work
         rdf:about="">
        <dc:format>image/svg+xml</dc:format>
        <dc:type
           rdf:resource="http://purl.org/dc/dcmitype/StillImage" />
        <dc:title />
      </cc:Work>
    </rdf:RDF>
  </metadata>
  <g
     inkscape:label="レイヤー 1"
     inkscape:groupmode="layer"
     id="layer1"
     transform="translate(1064.8345,-299.26786)">
    <g
       id="g1068"
       style="stroke:none;stroke-width:2.3812499;stroke-miterlimit:4;stroke-dasharray:none;stroke-opacity:1" />
    <path
       sodipodi:nodetypes="ccccc"
       inkscape:connector-curvature="0"
       id="path1079"
       d="m -1064.8345,299.26786 h 9.525 v 476.25 h -9.525 z"
       style="fill:#ffffff;fill-opacity:1;stroke:none;stroke-width:0.51166773px;stroke-linecap:butt;stroke-linejoin:miter;stroke-opacity:1" />
    <path
       sodipodi:nodetypes="ccccc"
       inkscape:connector-curvature="0"
       id="path830"
       d="m -1055.3095,299.26786 412.44461,238.12502 h 540.0554 V 299.26786 Z"
       style="fill:#0038a8;fill-opacity:1;stroke:none;stroke-width:0.13229166;stroke-linecap:butt;stroke-linejoin:miter;stroke-miterlimit:5.33333349;stroke-dasharray:none;stroke-opacity:1" />
    <path
       style="fill:#ce1126;fill-opacity:1;stroke:none;stroke-width:0.13229166;stroke-linecap:butt;stroke-linejoin:miter;stroke-miterlimit:5.33333349;stroke-dasharray:none;stroke-opacity:1"
       d="m -1055.3095,775.51786 412.44461,-238.12498 h 540.0554 v 238.12498 z"
       id="path817"
       inkscape:connector-curvature="0"
       sodipodi:nodetypes="ccccc" />
    <path
       style="opacity:1;fill:#ffffff;fill-opacity:1;fill-rule:evenodd;stroke:none;stroke-width:0.28486809;stroke-linecap:round;stroke-linejoin:round;stroke-miterlimit:4;stroke-dasharray:none;stroke-dashoffset:0;stroke-opacity:1"
       d="m -642.86489,537.39284 -412.44461,238.12502 v -476.25 z"
       id="path815"
       inkscape:connector-curvature="0"
       sodipodi:nodetypes="cccc" />
    <path
       id="path888"
       d="m -597.59545,-143.1324 64.64736,185.982995 196.85806,4.011823 -156.90359,118.955432 57.01739,188.46263 -161.61959,-112.4647 -161.61888,112.46469 57.0167,-188.46264 -156.90288,-118.955426 196.85737,-4.01182 z"
       inkscape:transform-center-y="2.5432499e-06"
       inkscape:transform-center-x="-1.0818216e-05"
       style="opacity:1;fill:#ffc000;fill-opacity:1;fill-rule:evenodd;stroke:#806000;stroke-width:0.28486809;stroke-linecap:round;stroke-linejoin:round;stroke-miterlimit:4;stroke-dasharray:none;stroke-dashoffset:0;stroke-opacity:1"
       transform="matrix(0.08333333,-0.04811252,0.04811252,0.08333333,-974.81092,323.68817)"
       inkscape:connector-curvature="0"
       sodipodi:nodetypes="ccccccccccc" />
    <path
       id="path884"
       d="m -597.59533,-555.57703 161.61912,464.957908 492.144365,10.02909 -392.258195,297.388972 142.54272,471.1561 -404.04815,-281.16129 -404.04793,281.16127 142.54252,-471.15609 -392.25792,-297.388997 492.14411,-10.029064 z"
       inkscape:transform-center-y="-2.3362293e-06"
       inkscape:transform-center-x="7.6446397e-06"
       style="opacity:1;fill:#ffc000;fill-opacity:1;fill-rule:evenodd;stroke:#806000;stroke-width:0.28486809;stroke-linecap:round;stroke-linejoin:round;stroke-miterlimit:4;stroke-dasharray:none;stroke-dashoffset:0;stroke-opacity:1"
       transform="matrix(0,0.03849002,-0.03849002,0,-711.87404,560.39433)"
       inkscape:connector-curvature="0"
       sodipodi:nodetypes="ccccccccccc" />
    <path
       style="fill:#fcd116;fill-opacity:1;stroke:#806000;stroke-width:0.26458335;stroke-linecap:butt;stroke-linejoin:round;stroke-miterlimit:4;stroke-dasharray:none;stroke-opacity:1"
       d="m -916.83975,431.74256 -0.98817,-0.98816 -0.98817,0.98816 2.39165,45.63593 -1.40349,1.40349 -1.4035,-1.4035 z m -2.87546,0.89915 -0.82593,0.8259 16.46009,103.92533 -4.18462,4.18462 z m -7.67509,108.93586 -4.18462,-4.18462 16.46021,-103.92534 -0.82591,-0.82592 z"
       id="path1078"
       inkscape:connector-curvature="0"
       sodipodi:nodetypes="ccccccccccccccccc" />
    <path
       sodipodi:nodetypes="ccccccccccccccccc"
       inkscape:connector-curvature="0"
       id="path1078-8"
       d="m -926.58038,440.87759 h -0.96812 l 0,0.96812 19.44113,17.50489 0,0.96812 -0.96812,0 z m -0.96812,1.849 0,0.80916 19.44113,14.12481 -1e-5,0.80916 z m 17.59213,17.59213 -0.80916,0 -14.12481,-19.44113 -0.80916,0 z"
       style="fill:#fcd116;fill-opacity:1;stroke:#806000;stroke-width:0.26458334;stroke-linecap:butt;stroke-linejoin:round;stroke-opacity:1;stroke-miterlimit:4;stroke-dasharray:none" />
    <path
       style="fill:#fcd116;fill-opacity:1;stroke:#806000;stroke-width:0.26458334;stroke-linecap:butt;stroke-linejoin:round;stroke-opacity:1;stroke-miterlimit:4;stroke-dasharray:none"
       d="m -936.68352,449.60999 -0.98816,0.98817 0.98816,0.98817 37.71118,-1.97634 0.98816,0.98817 -0.98816,0.98817 z m 0.89913,2.87547 0.82592,0.82591 34.26108,-5.42643 0.8259,0.82593 z m 35.91292,0 -0.82592,0.82591 -34.26108,-5.42643 -0.82592,0.82592 z"
       id="path1133"
       inkscape:connector-curvature="0"
       sodipodi:nodetypes="ccccccccccccccccc" />
    <path
       style="fill:#fcd116;fill-opacity:1;stroke:#806000;stroke-width:0.26458334;stroke-linecap:butt;stroke-linejoin:round;stroke-opacity:1;stroke-miterlimit:4;stroke-dasharray:none"
       d="m -909.07549,440.87759 h 0.96812 v 0.96812 l -19.44113,17.50489 v 0.96812 h 0.96812 z m 0.96812,1.849 v 0.80916 l -19.44113,14.12481 10e-6,0.80916 z m -17.59213,17.59213 h 0.80916 l 14.12481,-19.44113 h 0.80916 z"
       id="path1135"
       inkscape:connector-curvature="0"
       sodipodi:nodetypes="ccccccccccccccccc" />
    <path
       inkscape:connector-curvature="0"
       id="path1165"
       d="m -915.1821,450.59815 a 2.6458341,2.6458341 0 0 1 -2.64583,2.64584 2.6458341,2.6458341 0 0 1 -2.64584,-2.64584 2.6458341,2.6458341 0 0 1 2.64584,-2.64583 2.6458341,2.6458341 0 0 1 2.64583,2.64583 z"
       style="opacity:1;fill:#edc103;fill-opacity:1;fill-rule:evenodd;stroke:#806000;stroke-width:0.26458334;stroke-linecap:round;stroke-linejoin:round;stroke-miterlimit:4;stroke-dasharray:none;stroke-dashoffset:0;stroke-opacity:1" />
    <path
       style="fill:#edc103;stroke:#806000;stroke-width:0.26458334;stroke-linecap:butt;stroke-linejoin:round;stroke-opacity:1;fill-opacity:1;stroke-miterlimit:4;stroke-dasharray:none"
       d="m -931.57492,624.18758 c -0.64454,4.06943 4.62001,8.74016 8.74016,8.74017 l 10.01355,2e-5 c 4.12015,10e-6 9.38469,-4.67073 8.74016,-8.74016 l -8.15925,-51.51573 h -11.17531 z"
       id="path1173"
       inkscape:connector-curvature="0"
       sodipodi:nodetypes="ssssccs" />
    <path
       style="fill:#edc103;stroke:#806000;stroke-width:0.26458334;stroke-linecap:butt;stroke-linejoin:round;stroke-opacity:1;fill-opacity:1;stroke-miterlimit:4;stroke-dasharray:none"
       d="m -908.45115,647.00458 c 2.00329,0 4.37008,-1.9874 4.37008,-5.33662 0,-5.88115 -4.62001,-8.74018 -8.74016,-8.74019 l -10.01351,-2e-5 c -4.12015,-10e-6 -8.74016,2.85904 -8.74016,8.74019 0,3.34922 2.36679,5.33662 4.37008,5.33662 z"
       id="path1183"
       inkscape:connector-curvature="0"
       sodipodi:nodetypes="sssssss" />
    <path
       style="fill:#edc103;stroke:#806000;stroke-width:0.26458334;stroke-linecap:butt;stroke-linejoin:round;stroke-opacity:1;fill-opacity:1;stroke-miterlimit:4;stroke-dasharray:none"
       d="m -957.55827,671.43689 v -1.25535 c 0,-1.81826 1.58335,-4.03632 4.50351,-4.03632 10.26352,0 30.22002,-1.53082 30.22002,-13.80404 0,-3.34922 -2.36679,-5.33662 -4.37008,-5.33662 l 18.75367,2e-5 c -2.00329,0 -4.37008,1.9874 -4.37008,5.33662 0,12.27322 19.9565,13.80404 30.22002,13.80404 2.92016,0 4.50351,2.21806 4.50351,4.03632 v 1.25535 z"
       id="path1191"
       inkscape:connector-curvature="0"
       sodipodi:nodetypes="csssccssscc" />
    <path
       sodipodi:nodetypes="ccccccccccccccccc"
       inkscape:connector-curvature="0"
       id="path1081"
       d="m -865.7245,457.16064 -1.83261,-6.83938 -6.83936,1.8326 -86.86292,170.47804 -6.83938,1.83261 -1.83261,-6.83938 z m -14.89495,-3.33934 -5.71631,1.53169 -62.98434,164.07979 -5.71631,1.53168 z m -90.97937,157.58087 -1.53169,-5.71634 110.60514,-136.58589 -1.53169,-5.71634 z"
       style="fill:#fcd116;fill-opacity:1;stroke:#806000;stroke-width:0.26458334;stroke-linecap:butt;stroke-linejoin:round;stroke-opacity:1;stroke-miterlimit:4;stroke-dasharray:none" />
    <path
       style="fill:#fcd116;fill-opacity:1;stroke:#806000;stroke-width:0.26458334;stroke-linecap:butt;stroke-linejoin:round;stroke-opacity:1;stroke-miterlimit:4;stroke-dasharray:none"
       d="m -837.59569,485.28946 1.10765,-6.99348 -6.99345,-1.10765 -148.69288,120.40911 -6.99347,-1.10765 1.10765,-6.99348 z m -12.24897,-9.10896 -5.8451,-0.92575 -124.27634,124.27628 -5.8451,-0.92576 z m -147.20771,106.95263 0.92578,-5.84512 156.59731,-79.79025 0.92577,-5.84512 z"
       id="path1083"
       inkscape:connector-curvature="0"
       sodipodi:nodetypes="ccccccccccccccccc" />
    <path
       sodipodi:nodetypes="ccccccccccccccccc"
       inkscape:connector-curvature="0"
       id="path1085"
       d="m -823.33976,522.42745 3.8564,-5.93837 -5.93832,-3.85635 -184.81252,49.52034 -5.9383,-3.85638 3.8564,-5.93835 z m -7.48505,-13.30357 -4.96323,-3.22313 -164.07978,62.98428 -4.96318,-3.22313 z m -177.98249,37.83133 3.2231,-4.96326 175.51245,-9.19814 3.22316,-4.96324 z"
       style="fill:#fcd116;fill-opacity:1;stroke:#806000;stroke-width:0.26458334;stroke-linecap:butt;stroke-linejoin:round;stroke-opacity:1;stroke-miterlimit:4;stroke-dasharray:none" />
    <path
       style="fill:#fcd116;fill-opacity:1;stroke:#806000;stroke-width:0.26458334;stroke-linecap:butt;stroke-linejoin:round;stroke-opacity:1;stroke-miterlimit:4;stroke-dasharray:none"
       d="m -825.4217,562.15309 5.93834,-3.85646 -3.8564,-5.93826 -188.97634,-29.93093 -3.8564,-5.93831 5.9383,-3.85643 z m -1.42688,-15.19786 -3.22317,-4.96322 -175.51245,-9.19827 -3.2231,-4.96319 z m -177.98242,-37.83137 4.96314,-3.22322 164.0798,62.98444 4.96323,-3.22316 z"
       id="path1087"
       inkscape:connector-curvature="0"
       sodipodi:nodetypes="ccccccccccccccccc" />
    <path
       sodipodi:nodetypes="ccccccccccccccccc"
       inkscape:connector-curvature="0"
       id="path1089"
       d="m -843.48154,597.59746 6.99352,-1.10772 -1.1077,-6.9934 -160.46446,-104.20687 -1.1077,-6.99345 6.99352,-1.1077 z m 4.87802,-14.4643 -0.9258,-5.84512 -156.59728,-79.79038 -0.92575,-5.84503 z m -147.20766,-106.95267 5.84508,-0.92585 124.27628,124.27643 5.84512,-0.92579 z"
       style="fill:#fcd116;fill-opacity:1;stroke:#806000;stroke-width:0.26458334;stroke-linecap:butt;stroke-linejoin:round;stroke-opacity:1;stroke-miterlimit:4;stroke-dasharray:none" />
    <path
       style="fill:#fcd116;fill-opacity:1;stroke:#806000;stroke-width:0.26458334;stroke-linecap:butt;stroke-linejoin:round;stroke-opacity:1;stroke-miterlimit:4;stroke-dasharray:none"
       d="m -874.39654,622.63191 6.83945,1.83257 1.83254,-6.83934 -104.20683,-160.46447 1.83255,-6.83939 6.83944,1.83259 z m 10.33945,-11.22972 1.53166,-5.71634 -110.60505,-136.586 1.53168,-5.71625 z m -90.9793,-157.58088 5.7163,1.53162 62.98426,164.07985 5.71633,1.53168 z"
       id="path1091"
       inkscape:connector-curvature="0"
       sodipodi:nodetypes="ccccccccccccccccc" />
    <path
       style="opacity:1;fill:#edc103;fill-opacity:1;fill-rule:evenodd;stroke:#806000;stroke-width:0.26458334;stroke-linecap:round;stroke-linejoin:round;stroke-miterlimit:4;stroke-dasharray:none;stroke-dashoffset:0;stroke-opacity:1"
       d="m -867.55711,537.39288 a 50.270832,50.270832 0 0 1 -50.27083,50.27084 50.270832,50.270832 0 0 1 -50.27083,-50.27084 50.270832,50.270832 0 0 1 50.27083,-50.27083 50.270832,50.270832 0 0 1 50.27083,50.27083 z"
       id="circle839"
       inkscape:connector-curvature="0" />
    <path
       inkscape:connector-curvature="0"
       id="path1167"
       d="m -878.14044,537.39288 a 39.687502,39.687502 0 0 1 -39.6875,39.68751 39.687502,39.687502 0 0 1 -39.6875,-39.68751 39.687502,39.687502 0 0 1 39.6875,-39.6875 39.687502,39.687502 0 0 1 39.6875,39.6875 z"
       style="opacity:1;fill:#fcd116;fill-opacity:1;fill-rule:evenodd;stroke:#806000;stroke-width:0.26458334;stroke-linecap:round;stroke-linejoin:round;stroke-miterlimit:4;stroke-dasharray:none;stroke-dashoffset:0;stroke-opacity:1" />
    <path
       style="opacity:1;fill:#ffffff;fill-opacity:1;fill-rule:evenodd;stroke:#806000;stroke-width:0.26458335;stroke-linecap:round;stroke-linejoin:round;stroke-miterlimit:4;stroke-dasharray:none;stroke-dashoffset:0;stroke-opacity:1"
       d="m -882.10919,537.39289 a 35.718752,35.718752 0 0 0 -35.71875,-35.71876 35.718752,35.718752 0 0 0 -35.71875,35.71876 35.718752,35.718752 0 0 0 35.71875,35.71875 35.718752,35.718752 0 0 0 35.71875,-35.71875 z"
       id="path1169"
       inkscape:connector-curvature="0" />
    <path
       style="fill:#fcd116;fill-opacity:1;stroke:#806000;stroke-width:0.26458335px;stroke-linecap:butt;stroke-linejoin:miter;stroke-opacity:1"
       d="m -1018.2679,363.42589 17.7041,-19.66238 -7.352,17.46198 z"
       id="path1197"
       inkscape:connector-curvature="0"
       sodipodi:nodetypes="cccc" />
    <path
       sodipodi:nodetypes="cccc"
       inkscape:connector-curvature="0"
       id="path1199"
       d="m -1018.2679,363.42589 17.7041,-19.66238 -16.5978,9.13702 z"
       style="fill:#edc103;fill-opacity:1;stroke:#806000;stroke-width:0.26458335px;stroke-linecap:butt;stroke-linejoin:miter;stroke-opacity:1" />
    <path
       style="fill:#fcd116;fill-opacity:1;stroke:#806000;stroke-width:0.26458335px;stroke-linecap:butt;stroke-linejoin:miter;stroke-opacity:1"
       d="m -1018.2679,363.42589 -13.2291,-22.9136 14.3354,12.38824 z"
       id="path1201"
       inkscape:connector-curvature="0"
       sodipodi:nodetypes="cccc" />
    <path
       sodipodi:nodetypes="cccc"
       inkscape:connector-curvature="0"
       id="path1203"
       d="m -1018.2679,363.42589 -13.2291,-22.9136 3.5608,18.60897 z"
       style="fill:#edc103;fill-opacity:1;stroke:#806000;stroke-width:0.26458335px;stroke-linecap:butt;stroke-linejoin:miter;stroke-opacity:1" />
    <path
       style="fill:#fcd116;fill-opacity:1;stroke:#806000;stroke-width:0.26458335px;stroke-linecap:butt;stroke-linejoin:miter;stroke-opacity:1"
       d="m -1018.2679,363.42589 -25.8801,5.50099 16.2118,-9.80562 z"
       id="path1205"
       inkscape:connector-curvature="0"
       sodipodi:nodetypes="cccc" />
    <path
       sodipodi:nodetypes="cccc"
       inkscape:connector-curvature="0"
       id="path1207"
       d="m -1018.2679,363.42589 -25.8801,5.50099 18.7985,2.36396 z"
       style="fill:#edc103;fill-opacity:1;stroke:#806000;stroke-width:0.26458335px;stroke-linecap:butt;stroke-linejoin:miter;stroke-opacity:1" />
    <path
       style="fill:#fcd116;fill-opacity:1;stroke:#806000;stroke-width:0.26458335px;stroke-linecap:butt;stroke-linejoin:miter;stroke-opacity:1"
       d="m -1018.2679,363.42589 -2.7656,26.31338 -4.316,-18.44843 z"
       id="path1209"
       inkscape:connector-curvature="0"
       sodipodi:nodetypes="cccc" />
    <path
       sodipodi:nodetypes="cccc"
       inkscape:connector-curvature="0"
       id="path1211"
       d="m -1018.2679,363.42589 -2.7656,26.31338 8.0573,-17.14794 z"
       style="fill:#edc103;fill-opacity:1;stroke:#806000;stroke-width:0.26458335px;stroke-linecap:butt;stroke-linejoin:miter;stroke-opacity:1" />
    <path
       style="fill:#fcd116;fill-opacity:1;stroke:#806000;stroke-width:0.26458335px;stroke-linecap:butt;stroke-linejoin:miter;stroke-opacity:1"
       d="m -1018.2679,363.42589 24.17096,10.76157 -18.87926,-1.59613 z"
       id="path1213"
       inkscape:connector-curvature="0"
       sodipodi:nodetypes="cccc" />
    <path
       sodipodi:nodetypes="cccc"
       inkscape:connector-curvature="0"
       id="path1215"
       d="m -1018.2679,363.42589 24.17096,10.76157 -13.81886,-12.96197 z"
       style="fill:#edc103;fill-opacity:1;stroke:#806000;stroke-width:0.26458335px;stroke-linecap:butt;stroke-linejoin:miter;stroke-opacity:1" />
    <path
       sodipodi:nodetypes="ccccccccccc"
       inkscape:connector-curvature="0"
       style="opacity:1;fill:#ffc000;fill-opacity:1;fill-rule:evenodd;stroke:#806000;stroke-width:0.02741144;stroke-linecap:round;stroke-linejoin:round;stroke-miterlimit:4;stroke-dasharray:none;stroke-dashoffset:0;stroke-opacity:1"
       inkscape:transform-center-x="-7.3951003e-06"
       inkscape:transform-center-y="1.0938758e-06"
       d="m -1031.497,734.27343 14.3354,-12.38824 16.5978,9.13702 -7.352,-17.46198 13.81886,-12.96197 -18.87926,1.59613 -8.0573,-17.14794 -4.316,18.44843 -18.7985,2.36396 16.2118,9.80562 z"
       id="path1217" />
    <path
       sodipodi:nodetypes="cccc"
       inkscape:connector-curvature="0"
       id="path1219"
       d="m -1018.2679,711.35983 17.7041,19.66238 -7.352,-17.46198 z"
       style="fill:#edc103;fill-opacity:1;stroke:#806000;stroke-width:0.26458335px;stroke-linecap:butt;stroke-linejoin:miter;stroke-opacity:1" />
    <path
       style="fill:#fcd116;fill-opacity:1;stroke:#806000;stroke-width:0.26458335px;stroke-linecap:butt;stroke-linejoin:miter;stroke-opacity:1"
       d="m -1018.2679,711.35983 17.7041,19.66238 -16.5978,-9.13702 z"
       id="path1221"
       inkscape:connector-curvature="0"
       sodipodi:nodetypes="cccc" />
    <path
       sodipodi:nodetypes="cccc"
       inkscape:connector-curvature="0"
       id="path1223"
       d="m -1018.2679,711.35983 -13.2291,22.9136 14.3354,-12.38824 z"
       style="fill:#edc103;fill-opacity:1;stroke:#806000;stroke-width:0.26458335px;stroke-linecap:butt;stroke-linejoin:miter;stroke-opacity:1" />
    <path
       style="fill:#fcd116;fill-opacity:1;stroke:#806000;stroke-width:0.26458335px;stroke-linecap:butt;stroke-linejoin:miter;stroke-opacity:1"
       d="m -1018.2679,711.35983 -13.2291,22.9136 3.5608,-18.60897 z"
       id="path1225"
       inkscape:connector-curvature="0"
       sodipodi:nodetypes="cccc" />
    <path
       sodipodi:nodetypes="cccc"
       inkscape:connector-curvature="0"
       id="path1227"
       d="m -1018.2679,711.35983 -25.8801,-5.50099 16.2118,9.80562 z"
       style="fill:#edc103;fill-opacity:1;stroke:#806000;stroke-width:0.26458335px;stroke-linecap:butt;stroke-linejoin:miter;stroke-opacity:1" />
    <path
       style="fill:#fcd116;fill-opacity:1;stroke:#806000;stroke-width:0.26458335px;stroke-linecap:butt;stroke-linejoin:miter;stroke-opacity:1"
       d="m -1018.2679,711.35983 -25.8801,-5.50099 18.7985,-2.36396 z"
       id="path1229"
       inkscape:connector-curvature="0"
       sodipodi:nodetypes="cccc" />
    <path
       sodipodi:nodetypes="cccc"
       inkscape:connector-curvature="0"
       id="path1231"
       d="m -1018.2679,711.35983 -2.7656,-26.31338 -4.316,18.44843 z"
       style="fill:#f0b500;fill-opacity:1;stroke:#806000;stroke-width:0.26458335px;stroke-linecap:butt;stroke-linejoin:miter;stroke-opacity:1" />
    <path
       style="fill:#edc103;fill-opacity:1;stroke:#806000;stroke-width:0.26458335px;stroke-linecap:butt;stroke-linejoin:miter;stroke-opacity:1"
       d="m -1018.2679,711.35983 -2.7656,-26.31338 8.0573,17.14794 z"
       id="path1233"
       inkscape:connector-curvature="0"
       sodipodi:nodetypes="cccc" />
    <path
       sodipodi:nodetypes="cccc"
       inkscape:connector-curvature="0"
       id="path1235"
       d="m -1018.2679,711.35983 24.17096,-10.76157 -18.87926,1.59613 z"
       style="fill:#edc103;fill-opacity:1;stroke:#806000;stroke-width:0.26458335px;stroke-linecap:butt;stroke-linejoin:miter;stroke-opacity:1" />
    <path
       style="fill:#fcd116;fill-opacity:1;stroke:#806000;stroke-width:0.26458335px;stroke-linecap:butt;stroke-linejoin:miter;stroke-opacity:1"
       d="m -1018.2679,711.35983 24.17096,-10.76157 -13.81886,12.96197 z"
       id="path1237"
       inkscape:connector-curvature="0"
       sodipodi:nodetypes="cccc" />
    <path
       style="fill:#edc103;stroke:#806000;stroke-width:0.26458335px;stroke-linecap:butt;stroke-linejoin:miter;stroke-opacity:1;fill-opacity:1"
       d="m -690.48987,537.39288 -17.89624,-6.22074 -8.5621,6.22074 z"
       id="path1239"
       inkscape:connector-curvature="0"
       sodipodi:nodetypes="cccc" />
    <path
       sodipodi:nodetypes="cccc"
       inkscape:connector-curvature="0"
       id="path1243"
       d="m -708.77213,512.2295 0.38602,18.94264 -8.5621,6.22074 z"
       style="fill:#fcd116;fill-opacity:1;stroke:#806000;stroke-width:0.26458335px;stroke-linecap:butt;stroke-linejoin:miter;stroke-opacity:1" />
    <path
       style="fill:#edc103;fill-opacity:1;stroke:#806000;stroke-width:0.26458335px;stroke-linecap:butt;stroke-linejoin:miter;stroke-opacity:1"
       d="m -708.77213,512.2295 -11.44651,15.09802 3.27043,10.06536 z"
       id="path1245"
       inkscape:connector-curvature="0"
       sodipodi:nodetypes="cccc" />
    <path
       sodipodi:nodetypes="cccc"
       inkscape:connector-curvature="0"
       id="path1247"
       d="m -738.35344,521.84106 18.1348,5.48646 3.27043,10.06536 z"
       style="fill:#fcd116;fill-opacity:1;stroke:#806000;stroke-width:0.26458335px;stroke-linecap:butt;stroke-linejoin:miter;stroke-opacity:1" />
    <path
       style="fill:#edc103;fill-opacity:1;stroke:#806000;stroke-width:0.26458335px;stroke-linecap:butt;stroke-linejoin:miter;stroke-opacity:1"
       d="m -738.35344,521.84106 10.8219,15.55181 10.58333,10e-6 z"
       id="path1249"
       inkscape:connector-curvature="0"
       sodipodi:nodetypes="cccc" />
    <path
       sodipodi:nodetypes="cccc"
       inkscape:connector-curvature="0"
       id="path1251"
       d="m -738.35344,552.94469 10.8219,-15.55182 10.58333,10e-6 z"
       style="fill:#fcd116;fill-opacity:1;stroke:#806000;stroke-width:0.26458335px;stroke-linecap:butt;stroke-linejoin:miter;stroke-opacity:1" />
    <path
       style="fill:#edc103;fill-opacity:1;stroke:#806000;stroke-width:0.26458335px;stroke-linecap:butt;stroke-linejoin:miter;stroke-opacity:1"
       d="m -738.35344,552.94469 18.1348,-5.48647 3.27043,-10.06534 z"
       id="path1253"
       inkscape:connector-curvature="0"
       sodipodi:nodetypes="cccc" />
    <path
       sodipodi:nodetypes="cccc"
       inkscape:connector-curvature="0"
       id="path1255"
       d="m -708.77213,562.55624 -11.44651,-15.09802 3.27043,-10.06534 z"
       style="fill:#fcd116;fill-opacity:1;stroke:#806000;stroke-width:0.26458335px;stroke-linecap:butt;stroke-linejoin:miter;stroke-opacity:1" />
    <path
       style="fill:#edc103;fill-opacity:1;stroke:#806000;stroke-width:0.26458335px;stroke-linecap:butt;stroke-linejoin:miter;stroke-opacity:1"
       d="m -708.77213,562.55624 0.38602,-18.94264 -8.5621,-6.22072 z"
       id="path1257"
       inkscape:connector-curvature="0"
       sodipodi:nodetypes="cccc" />
    <path
       sodipodi:nodetypes="cccc"
       inkscape:connector-curvature="0"
       id="path1259"
       d="m -690.48987,537.39288 -17.89624,6.22072 -8.5621,-6.22072 z"
       style="fill:#fcd116;fill-opacity:1;stroke:#806000;stroke-width:0.26458335px;stroke-linecap:butt;stroke-linejoin:miter;stroke-opacity:1" />
    <path
       sodipodi:nodetypes="cszscszscszscszsc"
       style="opacity:1;fill:#e0e0e0;fill-opacity:1;fill-rule:evenodd;stroke:none;stroke-width:0.01959877;stroke-linecap:round;stroke-linejoin:round;stroke-miterlimit:4;stroke-dasharray:none;stroke-dashoffset:0;stroke-opacity:1"
       d="m -920.47377,540.03872 h -19.84375 c -1.46125,0 -2.64583,-1.18458 -2.64583,-2.64583 0,-1.46125 1.18457,-2.64584 2.64583,-2.64584 h 19.84375 V 514.9033 c 0,-1.46125 1.18458,-2.64583 2.64583,-2.64583 1.46125,0 2.64584,1.18457 2.64584,2.64583 l 0,19.84375 h 19.84375 c 1.46126,0 2.64583,1.18459 2.64583,2.64584 0,1.46125 -1.18458,2.64583 -2.64583,2.64583 h -19.84375 l 0,19.84375 c 0,1.46126 -1.18459,2.64583 -2.64584,2.64583 -1.46125,0 -2.64583,-1.18458 -2.64583,-2.64583 z"
       id="path1267"
       inkscape:connector-curvature="0" />
  </g>
</svg>
