<?xml version="1.0" encoding="UTF-8" standalone="no"?>
<!-- Created with Inkscape (http://www.inkscape.org/) -->

<svg
   xmlns:dc="http://purl.org/dc/elements/1.1/"
   xmlns:cc="http://creativecommons.org/ns#"
   xmlns:rdf="http://www.w3.org/1999/02/22-rdf-syntax-ns#"
   xmlns:svg="http://www.w3.org/2000/svg"
   xmlns="http://www.w3.org/2000/svg"
   xmlns:sodipodi="http://sodipodi.sourceforge.net/DTD/sodipodi-0.dtd"
   xmlns:inkscape="http://www.inkscape.org/namespaces/inkscape"
   width="3636"
   height="1800"
   viewBox="0 0 962.025 476.25001"
   version="1.1"
   id="svg8"
   inkscape:export-filename="C:\Users\厂永刄先生\Documents\GXI3CW2\JáÈŭcèŭ\Àfúĥŏ\1880.png"
   inkscape:export-xdpi="96"
   inkscape:export-ydpi="96"
   inkscape:version="0.92.4 (5da689c313, 2019-01-14)"
   sodipodi:docname="描き方.svg">
  <defs
     id="defs2" />
  <sodipodi:namedview
     id="base"
     pagecolor="#ffffff"
     bordercolor="#666666"
     borderopacity="1.0"
     inkscape:pageopacity="0.0"
     inkscape:pageshadow="2"
     inkscape:zoom="0.24174059"
     inkscape:cx="176"
     inkscape:cy="895.64649"
     inkscape:document-units="px"
     inkscape:current-layer="layer1"
     showgrid="false"
     units="px"
     fit-margin-top="0"
     fit-margin-left="0"
     fit-margin-right="0"
     fit-margin-bottom="0"
     inkscape:showpageshadow="false"
     inkscape:snap-intersection-paths="true"
     inkscape:object-paths="false"
     inkscape:pagecheckerboard="true"
     inkscape:snap-smooth-nodes="true"
     inkscape:window-width="1366"
     inkscape:window-height="745"
     inkscape:window-x="-8"
     inkscape:window-y="-8"
     inkscape:window-maximized="1"
     inkscape:object-nodes="true"
     inkscape:snap-nodes="true"
     showguides="false" />
  <metadata
     id="metadata5">
    <rdf:RDF>
      <cc:Work
         rdf:about="">
        <dc:format>image/svg+xml</dc:format>
        <dc:type
           rdf:resource="http://purl.org/dc/dcmitype/StillImage" />
        <dc:title />
      </cc:Work>
    </rdf:RDF>
  </metadata>
  <g
     inkscape:label="レイヤー 1"
     inkscape:groupmode="layer"
     id="layer1"
     transform="translate(1064.8345,-299.26786)">
    <g
       id="g1068"
       style="stroke:none;stroke-width:2.3812499;stroke-miterlimit:4;stroke-dasharray:none;stroke-opacity:1" />
    <path
       sodipodi:nodetypes="ccccc"
       inkscape:connector-curvature="0"
       id="path1079"
       d="m -1064.8345,299.26786 h 9.525 v 476.25 h -9.525 z"
       style="fill:#ffffff;fill-opacity:1;stroke:none;stroke-width:0.51166773px;stroke-linecap:butt;stroke-linejoin:miter;stroke-opacity:1" />
    <path
       sodipodi:nodetypes="ccccc"
       inkscape:connector-curvature="0"
       id="path830"
       d="m -1055.3095,299.26786 412.44461,238.12502 h 540.0554 V 299.26786 Z"
       style="fill:#93a7ac;fill-opacity:0.50196081;stroke:none;stroke-width:0.13229166;stroke-linecap:butt;stroke-linejoin:miter;stroke-miterlimit:5.33333349;stroke-dasharray:none;stroke-opacity:1" />
    <path
       style="fill:#ac9393;fill-opacity:0.50196081;stroke:none;stroke-width:0.13229166;stroke-linecap:butt;stroke-linejoin:miter;stroke-miterlimit:5.33333349;stroke-dasharray:none;stroke-opacity:1"
       d="m -1055.3095,775.51786 412.44461,-238.12498 h 540.0554 v 238.12498 z"
       id="path817"
       inkscape:connector-curvature="0"
       sodipodi:nodetypes="ccccc" />
    <path
       style="opacity:1;fill:#ffffff;fill-opacity:0.50196078;fill-rule:evenodd;stroke:none;stroke-width:0.28486809;stroke-linecap:round;stroke-linejoin:round;stroke-miterlimit:4;stroke-dasharray:none;stroke-dashoffset:0;stroke-opacity:1"
       d="m -642.86489,537.39286 -137.48154,-238.125 -274.96307,1e-5 -137.4815,238.12501 137.4815,238.125 274.96308,-10e-6 z"
       id="path815"
       inkscape:connector-curvature="0" />
    <path
       transform="matrix(0,0.09622504,-0.09622504,0,-704.26279,594.89652)"
       style="opacity:1;fill:#decd87;fill-opacity:0.50196078;fill-rule:evenodd;stroke:none;stroke-width:0.28486809;stroke-linecap:round;stroke-linejoin:round;stroke-miterlimit:4;stroke-dasharray:none;stroke-dashoffset:0;stroke-opacity:1"
       inkscape:transform-center-x="8.8081853e-06"
       inkscape:transform-center-y="3.0279788e-06"
       d="m -597.59545,-143.1324 84.96826,13.45765 76.65098,39.055628 60.83055,60.830562 39.05563,76.650978 13.45764,84.968262 -13.45765,84.96826 -39.05562,76.65098 -60.83057,60.83056 -76.65097,39.05562 -84.96827,13.45765 -84.96826,-13.45766 -76.65097,-39.05562 -60.83056,-60.83056 -39.05562,-76.65098 -13.45765,-84.96826 13.45765,-84.968266 39.05563,-76.650976 60.83056,-60.830559 76.65098,-39.055619 z"
       id="path819" />
    <path
       transform="matrix(0,0.03849002,-0.03849002,0,-711.87404,560.39433)"
       style="opacity:1;fill:#decd87;fill-opacity:0.50196078;fill-rule:evenodd;stroke:none;stroke-width:0.28486809;stroke-linecap:round;stroke-linejoin:round;stroke-miterlimit:4;stroke-dasharray:none;stroke-dashoffset:0;stroke-opacity:1"
       inkscape:transform-center-x="7.6446397e-06"
       inkscape:transform-center-y="-2.3362293e-06"
       d="m -597.59545,-143.1324 84.96826,13.45765 76.65098,39.055628 60.83055,60.830562 39.05563,76.650978 13.45764,84.968262 -13.45765,84.96826 -39.05562,76.65098 -60.83057,60.83056 -76.65097,39.05562 -84.96827,13.45765 -84.96826,-13.45766 -76.65097,-39.05562 -60.83056,-60.83056 -39.05562,-76.65098 -13.45765,-84.96826 13.45765,-84.968266 39.05563,-76.650976 60.83056,-60.830559 76.65098,-39.055619 z"
       id="path823" />
    <path
       style="opacity:1;fill:#decd87;fill-opacity:0.50196078;fill-rule:evenodd;stroke:none;stroke-width:0.21975535;stroke-linecap:round;stroke-linejoin:round;stroke-miterlimit:4;stroke-dasharray:none;stroke-dashoffset:0;stroke-opacity:1"
       d="M -817.28629,537.39288 A 100.54166,100.54166 0 0 1 -917.82794,637.93454 100.54166,100.54166 0 0 1 -1018.3696,537.39288 100.54166,100.54166 0 0 1 -917.82794,436.85123 100.54166,100.54166 0 0 1 -817.28629,537.39288 Z"
       id="path825" />
    <path
       transform="matrix(0.08333333,-0.04811252,0.04811252,0.08333333,-974.81092,323.68817)"
       style="opacity:1;fill:#decd87;fill-opacity:0.50196078;fill-rule:evenodd;stroke:none;stroke-width:0.28486809;stroke-linecap:round;stroke-linejoin:round;stroke-miterlimit:4;stroke-dasharray:none;stroke-dashoffset:0;stroke-opacity:1"
       inkscape:transform-center-x="-1.0818216e-05"
       inkscape:transform-center-y="2.5432499e-06"
       d="m -597.59545,-143.1324 84.96826,13.45765 76.65098,39.055628 60.83055,60.830562 39.05563,76.650978 13.45764,84.968262 -13.45765,84.96826 -39.05562,76.65098 -60.83057,60.83056 -76.65097,39.05562 -84.96827,13.45765 -84.96826,-13.45766 -76.65097,-39.05562 -60.83056,-60.83056 -39.05562,-76.65098 -13.45765,-84.96826 13.45765,-84.968266 39.05563,-76.650976 60.83056,-60.830559 76.65098,-39.055619 z"
       id="path831" />
    <path
       id="path888"
       d="m -597.59545,-143.1324 64.64736,185.982995 196.85806,4.011823 -156.90359,118.955432 57.01739,188.46263 -161.61959,-112.4647 -161.61888,112.46469 57.0167,-188.46264 -156.90288,-118.955426 196.85737,-4.01182 z"
       inkscape:transform-center-y="2.5432499e-06"
       inkscape:transform-center-x="-1.0818216e-05"
       style="opacity:1;fill:#decd87;fill-opacity:0.50196078;fill-rule:evenodd;stroke:none;stroke-width:0.28486809;stroke-linecap:round;stroke-linejoin:round;stroke-miterlimit:4;stroke-dasharray:none;stroke-dashoffset:0;stroke-opacity:1"
       transform="matrix(0.08333333,-0.04811252,0.04811252,0.08333333,-974.81092,323.68817)"
       inkscape:connector-curvature="0"
       sodipodi:nodetypes="ccccccccccc" />
    <path
       transform="matrix(0.03333334,-0.01924501,0.01924501,0.03333334,-1000.8851,347.5308)"
       style="opacity:1;fill:#decd87;fill-opacity:0.50196078;fill-rule:evenodd;stroke:none;stroke-width:0.28486809;stroke-linecap:round;stroke-linejoin:round;stroke-miterlimit:4;stroke-dasharray:none;stroke-dashoffset:0;stroke-opacity:1"
       inkscape:transform-center-x="2.8778064e-05"
       inkscape:transform-center-y="3.8915171e-06"
       d="m -597.59545,-143.1324 84.96826,13.45765 76.65098,39.055628 60.83055,60.830562 39.05563,76.650978 13.45764,84.968262 -13.45765,84.96826 -39.05562,76.65098 -60.83057,60.83056 -76.65097,39.05562 -84.96827,13.45765 -84.96826,-13.45766 -76.65097,-39.05562 -60.83056,-60.83056 -39.05562,-76.65098 -13.45765,-84.96826 13.45765,-84.968266 39.05563,-76.650976 60.83056,-60.830559 76.65098,-39.055619 z"
       id="path833"
       inkscape:connector-curvature="0"
       sodipodi:nodetypes="ccccccccccccccccccccc" />
    <path
       style="opacity:1;fill:#decd87;fill-opacity:0.50196078;fill-rule:evenodd;stroke:none;stroke-width:0.10987769;stroke-linecap:round;stroke-linejoin:round;stroke-miterlimit:4;stroke-dasharray:none;stroke-dashoffset:0;stroke-opacity:1"
       d="m -867.55711,537.39288 a 50.270832,50.270832 0 0 1 -50.27083,50.27084 50.270832,50.270832 0 0 1 -50.27083,-50.27084 50.270832,50.270832 0 0 1 50.27083,-50.27083 50.270832,50.270832 0 0 1 50.27083,50.27083 z"
       id="circle839" />
    <path
       style="fill:none;stroke:#000000;stroke-width:0.26458335px;stroke-linecap:butt;stroke-linejoin:miter;stroke-opacity:1"
       d="M -917.82794,436.85123 V 637.93454"
       id="path841"
       inkscape:connector-curvature="0" />
    <path
       inkscape:connector-curvature="0"
       id="path843"
       d="m -924.40368,437.0665 13.15148,200.65277"
       style="fill:none;stroke:#000000;stroke-width:0.26458335px;stroke-linecap:butt;stroke-linejoin:miter;stroke-opacity:1" />
    <path
       inkscape:connector-curvature="0"
       id="path845"
       d="m -930.95126,437.71138 26.24664,199.36301"
       style="fill:none;stroke:#000000;stroke-width:0.26458335px;stroke-linecap:butt;stroke-linejoin:miter;stroke-opacity:1" />
    <path
       style="fill:none;stroke:#000000;stroke-width:0.26458335px;stroke-linecap:butt;stroke-linejoin:miter;stroke-opacity:1"
       d="m -937.44264,438.78311 39.2294,197.21955"
       id="path847"
       inkscape:connector-curvature="0" />
    <path
       inkscape:connector-curvature="0"
       id="path849"
       d="m -943.85004,440.2771 52.0442,194.23157"
       style="fill:none;stroke:#000000;stroke-width:0.26458335px;stroke-linecap:butt;stroke-linejoin:miter;stroke-opacity:1" />
    <path
       style="fill:none;stroke:#000000;stroke-width:0.26458335px;stroke-linecap:butt;stroke-linejoin:miter;stroke-opacity:1"
       d="m -950.146,442.18697 64.63612,190.41183"
       id="path851"
       inkscape:connector-curvature="0" />
    <path
       style="fill:none;stroke:#000000;stroke-width:0.26458335px;stroke-linecap:butt;stroke-linejoin:miter;stroke-opacity:1"
       d="m -956.30357,444.50451 76.95126,185.77675"
       id="path853"
       inkscape:connector-curvature="0" />
    <path
       inkscape:connector-curvature="0"
       id="path855"
       d="m -962.29637,447.21981 88.93686,180.34615"
       style="fill:none;stroke:#000000;stroke-width:0.26458335px;stroke-linecap:butt;stroke-linejoin:miter;stroke-opacity:1" />
    <path
       inkscape:connector-curvature="0"
       id="path857"
       d="m -968.09877,450.32126 100.54166,174.14325"
       style="fill:none;stroke:#000000;stroke-width:0.26458335px;stroke-linecap:butt;stroke-linejoin:miter;stroke-opacity:1" />
    <path
       style="fill:none;stroke:#000000;stroke-width:0.26458335px;stroke-linecap:butt;stroke-linejoin:miter;stroke-opacity:1"
       d="m -973.68589,453.79556 111.7159,167.19465"
       id="path859"
       inkscape:connector-curvature="0" />
    <path
       style="fill:none;stroke:#000000;stroke-width:0.26458335px;stroke-linecap:butt;stroke-linejoin:miter;stroke-opacity:1"
       d="m -979.03382,457.62783 122.41176,159.53011"
       id="path861"
       inkscape:connector-curvature="0" />
    <path
       inkscape:connector-curvature="0"
       id="path863"
       d="m -984.11966,461.80166 132.58344,151.18245"
       style="fill:none;stroke:#000000;stroke-width:0.26458335px;stroke-linecap:butt;stroke-linejoin:miter;stroke-opacity:1" />
    <path
       style="fill:none;stroke:#000000;stroke-width:0.26458335px;stroke-linecap:butt;stroke-linejoin:miter;stroke-opacity:1"
       d="m -988.92163,466.2992 142.18738,142.18737"
       id="path865"
       inkscape:connector-curvature="0" />
    <path
       inkscape:connector-curvature="0"
       id="path867"
       d="M -993.41916,471.10117 -842.23672,603.6846"
       style="fill:none;stroke:#000000;stroke-width:0.26458335px;stroke-linecap:butt;stroke-linejoin:miter;stroke-opacity:1" />
    <path
       inkscape:connector-curvature="0"
       id="path869"
       d="m -997.593,476.18701 159.53012,122.41175"
       style="fill:none;stroke:#000000;stroke-width:0.26458335px;stroke-linecap:butt;stroke-linejoin:miter;stroke-opacity:1" />
    <path
       style="fill:none;stroke:#000000;stroke-width:0.26458335px;stroke-linecap:butt;stroke-linejoin:miter;stroke-opacity:1"
       d="m -1001.4253,481.53493 167.19469,111.71591"
       id="path871"
       inkscape:connector-curvature="0" />
    <path
       style="fill:none;stroke:#000000;stroke-width:0.26458335px;stroke-linecap:butt;stroke-linejoin:miter;stroke-opacity:1"
       d="M -1004.8996,487.12205 -830.75631,587.6637"
       id="path873"
       inkscape:connector-curvature="0" />
    <path
       inkscape:connector-curvature="0"
       id="path875"
       d="m -1008.001,492.92445 180.34612,88.93686"
       style="fill:none;stroke:#000000;stroke-width:0.26458335px;stroke-linecap:butt;stroke-linejoin:miter;stroke-opacity:1" />
    <path
       inkscape:connector-curvature="0"
       id="path877"
       d="m -1010.7163,498.91725 185.77673,76.95125"
       style="fill:none;stroke:#000000;stroke-width:0.26458335px;stroke-linecap:butt;stroke-linejoin:miter;stroke-opacity:1" />
    <path
       style="fill:none;stroke:#000000;stroke-width:0.26458335px;stroke-linecap:butt;stroke-linejoin:miter;stroke-opacity:1"
       d="m -1013.0339,505.07482 190.41188,64.63612"
       id="path879"
       inkscape:connector-curvature="0" />
    <path
       inkscape:connector-curvature="0"
       id="path881"
       d="m -1014.9437,511.37079 194.23154,52.04418"
       style="fill:none;stroke:#000000;stroke-width:0.26458335px;stroke-linecap:butt;stroke-linejoin:miter;stroke-opacity:1" />
    <path
       style="fill:none;stroke:#000000;stroke-width:0.26458335px;stroke-linecap:butt;stroke-linejoin:miter;stroke-opacity:1"
       d="m -1016.4377,517.77818 197.21953,39.2294"
       id="path883"
       inkscape:connector-curvature="0" />
    <path
       style="fill:none;stroke:#000000;stroke-width:0.26458335px;stroke-linecap:butt;stroke-linejoin:miter;stroke-opacity:1"
       d="m -1017.5094,524.26956 199.36296,26.24663"
       id="path885"
       inkscape:connector-curvature="0" />
    <path
       inkscape:connector-curvature="0"
       id="path887"
       d="m -1018.1544,530.81715 200.65285,13.15147"
       style="fill:none;stroke:#000000;stroke-width:0.26458335px;stroke-linecap:butt;stroke-linejoin:miter;stroke-opacity:1" />
    <path
       inkscape:connector-curvature="0"
       id="path889"
       d="m -1018.3696,537.39288 201.08331,-3e-5"
       style="fill:none;stroke:#000000;stroke-width:0.26458335px;stroke-linecap:butt;stroke-linejoin:miter;stroke-opacity:1" />
    <path
       style="fill:none;stroke:#000000;stroke-width:0.26458335px;stroke-linecap:butt;stroke-linejoin:miter;stroke-opacity:1"
       d="m -1018.1543,543.9686 200.65273,-13.15148"
       id="path891"
       inkscape:connector-curvature="0" />
    <path
       style="fill:none;stroke:#000000;stroke-width:0.26458335px;stroke-linecap:butt;stroke-linejoin:miter;stroke-opacity:1"
       d="m -1017.5094,550.51617 199.36296,-26.24663"
       id="path893"
       inkscape:connector-curvature="0" />
    <path
       inkscape:connector-curvature="0"
       id="path895"
       d="m -1016.4378,557.00758 197.21963,-39.22942"
       style="fill:none;stroke:#000000;stroke-width:0.26458335px;stroke-linecap:butt;stroke-linejoin:miter;stroke-opacity:1" />
    <path
       style="fill:none;stroke:#000000;stroke-width:0.26458335px;stroke-linecap:butt;stroke-linejoin:miter;stroke-opacity:1"
       d="m -1014.9437,563.41495 194.23154,-52.04419"
       id="path897"
       inkscape:connector-curvature="0" />
    <path
       inkscape:connector-curvature="0"
       id="path899"
       d="m -1013.0338,569.71091 190.41177,-64.6361"
       style="fill:none;stroke:#000000;stroke-width:0.26458335px;stroke-linecap:butt;stroke-linejoin:miter;stroke-opacity:1" />
    <path
       inkscape:connector-curvature="0"
       id="path901"
       d="m -1010.7163,575.86846 185.77672,-76.95123"
       style="fill:none;stroke:#000000;stroke-width:0.26458335px;stroke-linecap:butt;stroke-linejoin:miter;stroke-opacity:1" />
    <path
       style="fill:none;stroke:#000000;stroke-width:0.26458335px;stroke-linecap:butt;stroke-linejoin:miter;stroke-opacity:1"
       d="m -1008.0011,581.86134 180.34623,-88.93692"
       id="path903"
       inkscape:connector-curvature="0" />
    <path
       style="fill:none;stroke:#000000;stroke-width:0.26458335px;stroke-linecap:butt;stroke-linejoin:miter;stroke-opacity:1"
       d="M -1004.8996,587.66371 -830.75633,487.12203"
       id="path905"
       inkscape:connector-curvature="0" />
    <path
       inkscape:connector-curvature="0"
       id="path907"
       d="M -1001.4253,593.2508 -834.23064,481.53492"
       style="fill:none;stroke:#000000;stroke-width:0.26458335px;stroke-linecap:butt;stroke-linejoin:miter;stroke-opacity:1" />
    <path
       inkscape:connector-curvature="0"
       id="path909"
       d="M -997.59297,598.59871 -838.0629,476.18698"
       style="fill:none;stroke:#000000;stroke-width:0.26458335px;stroke-linecap:butt;stroke-linejoin:miter;stroke-opacity:1" />
    <path
       style="fill:none;stroke:#000000;stroke-width:0.26458335px;stroke-linecap:butt;stroke-linejoin:miter;stroke-opacity:1"
       d="m -993.41923,603.68464 151.1825,-132.58349"
       id="path911"
       inkscape:connector-curvature="0" />
    <path
       inkscape:connector-curvature="0"
       id="path913"
       d="M -988.92162,608.48653 -846.73427,466.29917"
       style="fill:none;stroke:#000000;stroke-width:0.26458335px;stroke-linecap:butt;stroke-linejoin:miter;stroke-opacity:1" />
    <path
       style="fill:none;stroke:#000000;stroke-width:0.26458335px;stroke-linecap:butt;stroke-linejoin:miter;stroke-opacity:1"
       d="M -984.11962,612.98404 -851.53624,461.80165"
       id="path915"
       inkscape:connector-curvature="0" />
    <path
       style="fill:none;stroke:#000000;stroke-width:0.26458335px;stroke-linecap:butt;stroke-linejoin:miter;stroke-opacity:1"
       d="M -979.03383,617.15789 -856.62209,457.62781"
       id="path917"
       inkscape:connector-curvature="0" />
    <path
       inkscape:connector-curvature="0"
       id="path919"
       d="M -973.68596,620.99027 -861.97,453.79553"
       style="fill:none;stroke:#000000;stroke-width:0.26458335px;stroke-linecap:butt;stroke-linejoin:miter;stroke-opacity:1" />
    <path
       inkscape:connector-curvature="0"
       id="path921"
       d="M -968.09881,624.46452 -867.55715,450.32123"
       style="fill:none;stroke:#000000;stroke-width:0.26458335px;stroke-linecap:butt;stroke-linejoin:miter;stroke-opacity:1" />
    <path
       style="fill:none;stroke:#000000;stroke-width:0.26458335px;stroke-linecap:butt;stroke-linejoin:miter;stroke-opacity:1"
       d="m -962.29643,627.56593 88.93688,-180.34612"
       id="path923"
       inkscape:connector-curvature="0" />
    <path
       style="fill:none;stroke:#000000;stroke-width:0.26458335px;stroke-linecap:butt;stroke-linejoin:miter;stroke-opacity:1"
       d="m -956.30358,630.28119 76.95123,-185.7767"
       id="path925"
       inkscape:connector-curvature="0" />
    <path
       inkscape:connector-curvature="0"
       id="path927"
       d="m -950.14605,632.59886 64.63614,-190.41192"
       style="fill:none;stroke:#000000;stroke-width:0.26458335px;stroke-linecap:butt;stroke-linejoin:miter;stroke-opacity:1" />
    <path
       style="fill:none;stroke:#000000;stroke-width:0.26458335px;stroke-linecap:butt;stroke-linejoin:miter;stroke-opacity:1"
       d="m -943.85006,634.50862 52.04418,-194.23154"
       id="path929"
       inkscape:connector-curvature="0" />
    <path
       inkscape:connector-curvature="0"
       id="path931"
       d="m -937.44265,636.00258 39.22938,-197.21949"
       style="fill:none;stroke:#000000;stroke-width:0.26458335px;stroke-linecap:butt;stroke-linejoin:miter;stroke-opacity:1" />
    <path
       inkscape:connector-curvature="0"
       id="path933"
       d="m -930.9513,637.07434 26.24663,-199.36297"
       style="fill:none;stroke:#000000;stroke-width:0.26458335px;stroke-linecap:butt;stroke-linejoin:miter;stroke-opacity:1" />
    <path
       style="fill:none;stroke:#000000;stroke-width:0.26458335px;stroke-linecap:butt;stroke-linejoin:miter;stroke-opacity:1"
       d="m -924.40372,637.71934 13.15149,-200.65287"
       id="path935"
       inkscape:connector-curvature="0" />
    <path
       style="fill:none;stroke:#000000;stroke-width:0.26458335px;stroke-linecap:butt;stroke-linejoin:miter;stroke-opacity:1"
       d="m -917.82794,436.85123 -100.54166,100.54166 100.54166,100.54165 100.54166,-100.54165 z"
       id="path937"
       inkscape:connector-curvature="0" />
    <path
       style="fill:none;stroke:#000000;stroke-width:0.26458335px;stroke-linecap:butt;stroke-linejoin:miter;stroke-opacity:1"
       d="m -988.92163,466.2992 142.18736,-2e-5 2e-5,142.18739 -142.18737,-3e-5 z"
       id="path941"
       inkscape:connector-curvature="0" />
    <path
       id="path884"
       d="m -597.59533,-555.57703 161.61912,464.957908 492.144365,10.02909 -392.258195,297.388972 142.54272,471.1561 -404.04815,-281.16129 -404.04793,281.16127 142.54252,-471.15609 -392.25792,-297.388997 492.14411,-10.029064 z"
       inkscape:transform-center-y="-2.3362293e-06"
       inkscape:transform-center-x="7.6446397e-06"
       style="opacity:1;fill:#decd87;fill-opacity:0.50196078;fill-rule:evenodd;stroke:none;stroke-width:0.28486809;stroke-linecap:round;stroke-linejoin:round;stroke-miterlimit:4;stroke-dasharray:none;stroke-dashoffset:0;stroke-opacity:1"
       transform="matrix(0,0.03849002,-0.03849002,0,-711.87404,560.39433)"
       inkscape:connector-curvature="0"
       sodipodi:nodetypes="ccccccccccc" />
    <path
       id="path890"
       d="m -1031.497,734.27345 7.7282,2.96656 8.2666,0.43324 7.9959,-2.1425 6.9425,-4.50852 5.20955,-6.43321 2.96657,-7.72817 0.43324,-8.26664 -2.1425,-7.99593 -4.50852,-6.9425 -6.43324,-5.20951 -7.7281,-2.96657 -8.2667,-0.43323 -7.9959,2.1425 -6.9425,4.50851 -5.2095,6.43321 -2.9666,7.72817 -0.4332,8.26665 2.1425,7.99592 4.5085,6.94251 z"
       inkscape:transform-center-x="-2.4136793e-05"
       style="opacity:1;fill:#decd87;fill-opacity:0.50196078;fill-rule:evenodd;stroke:none;stroke-width:0.02741144;stroke-linecap:round;stroke-linejoin:round;stroke-miterlimit:4;stroke-dasharray:none;stroke-dashoffset:0;stroke-opacity:1"
       inkscape:connector-curvature="0" />
    <path
       sodipodi:nodetypes="ccccccccccc"
       inkscape:connector-curvature="0"
       style="opacity:1;fill:#decd87;fill-opacity:0.50196078;fill-rule:evenodd;stroke:none;stroke-width:0.02741144;stroke-linecap:round;stroke-linejoin:round;stroke-miterlimit:4;stroke-dasharray:none;stroke-dashoffset:0;stroke-opacity:1"
       inkscape:transform-center-x="-7.3951003e-06"
       inkscape:transform-center-y="1.0938759e-06"
       d="m -1031.497,734.27345 14.3354,-12.38824 16.5978,9.13702 -7.352,-17.46198 13.81886,-12.96197 -18.87926,1.59613 -8.0573,-17.14794 -4.316,18.44843 -18.7985,2.36396 16.2118,9.80562 z"
       id="path892" />
    <path
       sodipodi:nodetypes="ccccccccccccccccccccc"
       inkscape:connector-curvature="0"
       id="path894"
       d="m -1023.5595,720.52529 3.0912,1.18663 3.3067,0.17329 3.1984,-0.857 2.777,-1.80341 2.0838,-2.57328 1.1866,-3.09127 0.1733,-3.30666 -0.857,-3.19837 -1.8034,-2.777 -2.5733,-2.08381 -3.0913,-1.18662 -3.3066,-0.1733 -3.1984,0.85701 -2.777,1.8034 -2.0838,2.57329 -1.1866,3.09126 -0.1733,3.30666 0.857,3.19837 1.8034,2.77701 z"
       inkscape:transform-center-y="-6.7052161e-06"
       inkscape:transform-center-x="8.9335308e-06"
       style="opacity:1;fill:#decd87;fill-opacity:0.50196078;fill-rule:evenodd;stroke:none;stroke-width:0.01096458;stroke-linecap:round;stroke-linejoin:round;stroke-miterlimit:4;stroke-dasharray:none;stroke-dashoffset:0;stroke-opacity:1" />
  </g>
</svg>
