<?xml version="1.0" encoding="UTF-8" standalone="no"?>
<!-- Created with Inkscape (http://www.inkscape.org/) -->

<svg
   xmlns:dc="http://purl.org/dc/elements/1.1/"
   xmlns:cc="http://creativecommons.org/ns#"
   xmlns:rdf="http://www.w3.org/1999/02/22-rdf-syntax-ns#"
   xmlns:svg="http://www.w3.org/2000/svg"
   xmlns="http://www.w3.org/2000/svg"
   xmlns:sodipodi="http://sodipodi.sourceforge.net/DTD/sodipodi-0.dtd"
   xmlns:inkscape="http://www.inkscape.org/namespaces/inkscape"
   width="3182.1826"
   height="1800"
   viewBox="0 0 841.95247 476.25001"
   version="1.1"
   id="svg8"
   inkscape:export-filename="C:\Users\厂永刄先生\Documents\GXI3CW2\JáÈŭcèŭ\Ìlaq\𬂛.png"
   inkscape:export-xdpi="96"
   inkscape:export-ydpi="96"
   inkscape:version="0.92.4 (5da689c313, 2019-01-14)"
   sodipodi:docname="𬂛.svg">
  <defs
     id="defs2" />
  <sodipodi:namedview
     id="base"
     pagecolor="#ffffff"
     bordercolor="#666666"
     borderopacity="1.0"
     inkscape:pageopacity="0.0"
     inkscape:pageshadow="2"
     inkscape:zoom="0.18222399"
     inkscape:cx="1530.2716"
     inkscape:cy="975.18263"
     inkscape:document-units="px"
     inkscape:current-layer="layer1"
     showgrid="false"
     units="px"
     fit-margin-top="0"
     fit-margin-left="0"
     fit-margin-right="0"
     fit-margin-bottom="0"
     inkscape:showpageshadow="false"
     inkscape:snap-intersection-paths="false"
     inkscape:object-paths="false"
     inkscape:pagecheckerboard="true"
     inkscape:snap-smooth-nodes="true"
     inkscape:window-width="1366"
     inkscape:window-height="745"
     inkscape:window-x="-8"
     inkscape:window-y="-8"
     inkscape:window-maximized="1"
     inkscape:object-nodes="true"
     inkscape:snap-nodes="true"
     inkscape:snap-others="false" />
  <metadata
     id="metadata5">
    <rdf:RDF>
      <cc:Work
         rdf:about="">
        <dc:format>image/svg+xml</dc:format>
        <dc:type
           rdf:resource="http://purl.org/dc/dcmitype/StillImage" />
        <dc:title />
      </cc:Work>
    </rdf:RDF>
  </metadata>
  <g
     inkscape:label="レイヤー 1"
     inkscape:groupmode="layer"
     id="layer1"
     transform="translate(173.00589,-299.26786)">
    <path
       sodipodi:nodetypes="ccccc"
       inkscape:connector-curvature="0"
       id="path1086"
       d="m 659.42162,775.51786 h -832.42751 v -158.75 h 832.42751 z"
       style="fill:#ff0000;fill-opacity:1;stroke:none;stroke-width:0;stroke-linecap:butt;stroke-linejoin:miter;stroke-miterlimit:4;stroke-dasharray:none;stroke-opacity:1" />
    <path
       style="fill:#17c000;fill-opacity:1;stroke:none;stroke-width:0;stroke-linecap:butt;stroke-linejoin:miter;stroke-miterlimit:4;stroke-dasharray:none;stroke-opacity:1"
       d="m 659.42162,458.01786 h -832.42751 v -158.75 h 832.42751 z"
       id="path991"
       inkscape:connector-curvature="0"
       sodipodi:nodetypes="ccccc" />
    <path
       style="fill:#ffffff;fill-opacity:1;stroke:none;stroke-width:0.51166773px;stroke-linecap:butt;stroke-linejoin:miter;stroke-opacity:1"
       d="m 668.94662,299.26786 h -9.525 v 476.25 h 9.525 z"
       id="path1079"
       inkscape:connector-curvature="0"
       sodipodi:nodetypes="ccccc" />
    <path
       sodipodi:nodetypes="ccccc"
       inkscape:connector-curvature="0"
       id="path1293"
       d="m 241.35799,611.4754 v 8.99143 l -33.29709,0.003 v -8.99144 z"
       style="fill:#ffffff;fill-opacity:1;stroke:none;stroke-width:0.26458332;stroke-linecap:butt;stroke-linejoin:miter;stroke-miterlimit:4;stroke-dasharray:none;stroke-opacity:1" />
    <path
       inkscape:connector-curvature="0"
       id="path1295"
       d="m 245.05769,611.4752 v 8.99144 l 33.29707,-0.003 v -8.99143 z"
       style="fill:#ffffff;fill-opacity:1;stroke:none;stroke-width:0.26458332;stroke-linecap:butt;stroke-linejoin:miter;stroke-miterlimit:4;stroke-dasharray:none;stroke-opacity:1"
       sodipodi:nodetypes="ccccc" />
    <path
       style="fill:#ffffff;fill-opacity:1;stroke:none;stroke-width:0.26458332;stroke-linecap:butt;stroke-linejoin:miter;stroke-miterlimit:4;stroke-dasharray:none;stroke-opacity:1"
       d="m 167.36446,611.4814 v 8.99143 l -33.29709,0.003 v -8.99144 z"
       id="path1305"
       inkscape:connector-curvature="0"
       sodipodi:nodetypes="ccccc" />
    <path
       style="fill:#ffffff;fill-opacity:1;stroke:none;stroke-width:0.26458332;stroke-linecap:butt;stroke-linejoin:miter;stroke-miterlimit:4;stroke-dasharray:none;stroke-opacity:1"
       d="m 171.06416,611.4812 v 8.99144 l 33.29707,-0.003 v -8.99143 z"
       id="path1307"
       inkscape:connector-curvature="0"
       sodipodi:nodetypes="ccccc" />
    <path
       sodipodi:nodetypes="ccccc"
       inkscape:connector-curvature="0"
       id="path1317"
       d="m 93.3709,611.48908 v 8.99143 l -33.29709,0.003 v -8.99144 z"
       style="fill:#ffffff;fill-opacity:1;stroke:none;stroke-width:0.26458332;stroke-linecap:butt;stroke-linejoin:miter;stroke-miterlimit:4;stroke-dasharray:none;stroke-opacity:1" />
    <path
       inkscape:connector-curvature="0"
       id="path1319"
       d="m 97.0706,611.48888 v 8.99144 l 33.29707,-0.003 v -8.99143 z"
       style="fill:#ffffff;fill-opacity:1;stroke:none;stroke-width:0.26458332;stroke-linecap:butt;stroke-linejoin:miter;stroke-miterlimit:4;stroke-dasharray:none;stroke-opacity:1"
       sodipodi:nodetypes="ccccc" />
    <path
       style="fill:#ffffff;fill-opacity:1;stroke:none;stroke-width:0.26458332;stroke-linecap:butt;stroke-linejoin:miter;stroke-miterlimit:4;stroke-dasharray:none;stroke-opacity:1"
       d="m 19.37734,611.49661 v 8.99143 l -33.29709,0.003 v -8.99144 z"
       id="path1329"
       inkscape:connector-curvature="0"
       sodipodi:nodetypes="ccccc" />
    <path
       style="fill:#ffffff;fill-opacity:1;stroke:none;stroke-width:0.26458332;stroke-linecap:butt;stroke-linejoin:miter;stroke-miterlimit:4;stroke-dasharray:none;stroke-opacity:1"
       d="m 23.07704,611.49641 v 8.99144 l 33.29707,-0.003 v -8.99143 z"
       id="path1331"
       inkscape:connector-curvature="0"
       sodipodi:nodetypes="ccccc" />
    <path
       sodipodi:nodetypes="ccccc"
       inkscape:connector-curvature="0"
       id="path1341"
       d="m -54.6162,611.50326 v 8.99143 l -33.29709,0.003 v -8.99144 z"
       style="fill:#ffffff;fill-opacity:1;stroke:none;stroke-width:0.26458332;stroke-linecap:butt;stroke-linejoin:miter;stroke-miterlimit:4;stroke-dasharray:none;stroke-opacity:1" />
    <path
       inkscape:connector-curvature="0"
       id="path1343"
       d="m -50.9165,611.50306 v 8.99144 l 33.29707,-0.003 v -8.99143 z"
       style="fill:#ffffff;fill-opacity:1;stroke:none;stroke-width:0.26458332;stroke-linecap:butt;stroke-linejoin:miter;stroke-miterlimit:4;stroke-dasharray:none;stroke-opacity:1"
       sodipodi:nodetypes="ccccc" />
    <path
       style="fill:#ffffff;fill-opacity:1;stroke:none;stroke-width:0.26458332;stroke-linecap:butt;stroke-linejoin:miter;stroke-miterlimit:4;stroke-dasharray:none;stroke-opacity:1"
       d="m -128.60976,611.51094 v 8.99143 l -33.29709,0.003 v -8.99144 z"
       id="path1353"
       inkscape:connector-curvature="0"
       sodipodi:nodetypes="ccccc" />
    <path
       style="fill:#ffffff;fill-opacity:1;stroke:none;stroke-width:0.26458332;stroke-linecap:butt;stroke-linejoin:miter;stroke-miterlimit:4;stroke-dasharray:none;stroke-opacity:1"
       d="m -124.91006,611.51074 v 8.99144 l 33.29707,-0.003 v -8.99143 z"
       id="path1355"
       inkscape:connector-curvature="0"
       sodipodi:nodetypes="ccccc" />
    <path
       sodipodi:nodetypes="ccccc"
       inkscape:connector-curvature="0"
       id="path1365"
       d="m 315.35155,611.46787 v 8.99143 l -33.29709,0.003 v -8.99144 z"
       style="fill:#ffffff;fill-opacity:1;stroke:none;stroke-width:0.26458332;stroke-linecap:butt;stroke-linejoin:miter;stroke-miterlimit:4;stroke-dasharray:none;stroke-opacity:1" />
    <path
       inkscape:connector-curvature="0"
       id="path1367"
       d="m 319.05125,611.46767 v 8.99144 l 33.29707,-0.003 v -8.99143 z"
       style="fill:#ffffff;fill-opacity:1;stroke:none;stroke-width:0.26458332;stroke-linecap:butt;stroke-linejoin:miter;stroke-miterlimit:4;stroke-dasharray:none;stroke-opacity:1"
       sodipodi:nodetypes="ccccc" />
    <path
       style="fill:#ffffff;fill-opacity:1;stroke:none;stroke-width:0.26458332;stroke-linecap:butt;stroke-linejoin:miter;stroke-miterlimit:4;stroke-dasharray:none;stroke-opacity:1"
       d="m 389.34511,611.46019 v 8.99143 l -33.29709,0.003 v -8.99144 z"
       id="path1377"
       inkscape:connector-curvature="0"
       sodipodi:nodetypes="ccccc" />
    <path
       style="fill:#ffffff;fill-opacity:1;stroke:none;stroke-width:0.26458332;stroke-linecap:butt;stroke-linejoin:miter;stroke-miterlimit:4;stroke-dasharray:none;stroke-opacity:1"
       d="m 393.04481,611.45999 v 8.99144 l 33.29707,-0.003 V 611.457 Z"
       id="path1379"
       inkscape:connector-curvature="0"
       sodipodi:nodetypes="ccccc" />
    <path
       sodipodi:nodetypes="ccccc"
       inkscape:connector-curvature="0"
       id="path1389"
       d="m 463.33867,611.45266 v 8.99143 l -33.29709,0.003 v -8.99144 z"
       style="fill:#ffffff;fill-opacity:1;stroke:none;stroke-width:0.26458332;stroke-linecap:butt;stroke-linejoin:miter;stroke-miterlimit:4;stroke-dasharray:none;stroke-opacity:1" />
    <path
       inkscape:connector-curvature="0"
       id="path1391"
       d="m 467.03837,611.45246 v 8.99144 l 33.29707,-0.003 v -8.99143 z"
       style="fill:#ffffff;fill-opacity:1;stroke:none;stroke-width:0.26458332;stroke-linecap:butt;stroke-linejoin:miter;stroke-miterlimit:4;stroke-dasharray:none;stroke-opacity:1"
       sodipodi:nodetypes="ccccc" />
    <path
       style="fill:#ffffff;fill-opacity:1;stroke:none;stroke-width:0.26458332;stroke-linecap:butt;stroke-linejoin:miter;stroke-miterlimit:4;stroke-dasharray:none;stroke-opacity:1"
       d="m 537.33223,611.44498 v 8.99143 l -33.29709,0.003 v -8.99144 z"
       id="path1401"
       inkscape:connector-curvature="0"
       sodipodi:nodetypes="ccccc" />
    <path
       style="fill:#ffffff;fill-opacity:1;stroke:none;stroke-width:0.26458332;stroke-linecap:butt;stroke-linejoin:miter;stroke-miterlimit:4;stroke-dasharray:none;stroke-opacity:1"
       d="m 541.03193,611.44478 v 8.99144 l 33.29707,-0.003 v -8.99143 z"
       id="path1403"
       inkscape:connector-curvature="0"
       sodipodi:nodetypes="ccccc" />
    <path
       sodipodi:nodetypes="ccccc"
       inkscape:connector-curvature="0"
       id="path1413"
       d="m 611.32579,611.43745 v 8.99143 l -33.29709,0.003 v -8.99144 z"
       style="fill:#ffffff;fill-opacity:1;stroke:none;stroke-width:0.26458332;stroke-linecap:butt;stroke-linejoin:miter;stroke-miterlimit:4;stroke-dasharray:none;stroke-opacity:1" />
    <path
       inkscape:connector-curvature="0"
       id="path1415"
       d="m 615.02549,611.43725 v 8.99144 l 33.29707,-0.003 v -8.99143 z"
       style="fill:#ffffff;fill-opacity:1;stroke:none;stroke-width:0.26458332;stroke-linecap:butt;stroke-linejoin:miter;stroke-miterlimit:4;stroke-dasharray:none;stroke-opacity:1"
       sodipodi:nodetypes="ccccc" />
    <path
       style="fill:#ffffff;fill-opacity:1;stroke:none;stroke-width:0.26458332;stroke-linecap:butt;stroke-linejoin:miter;stroke-miterlimit:4;stroke-dasharray:none;stroke-opacity:1"
       d="m 241.35799,463.31032 v -8.99143 l -33.29709,-0.003 v 8.99144 z"
       id="path993"
       inkscape:connector-curvature="0"
       sodipodi:nodetypes="ccccc" />
    <path
       style="fill:#ffffff;fill-opacity:1;stroke:none;stroke-width:0.26458332;stroke-linecap:butt;stroke-linejoin:miter;stroke-miterlimit:4;stroke-dasharray:none;stroke-opacity:1"
       d="m 245.05769,463.31052 v -8.99144 l 33.29707,0.003 v 8.99143 z"
       id="path995"
       inkscape:connector-curvature="0"
       sodipodi:nodetypes="ccccc" />
    <path
       sodipodi:nodetypes="ccccc"
       inkscape:connector-curvature="0"
       id="path1004"
       d="m 167.36446,463.30432 v -8.99143 l -33.29709,-0.003 v 8.99144 z"
       style="fill:#ffffff;fill-opacity:1;stroke:none;stroke-width:0.26458332;stroke-linecap:butt;stroke-linejoin:miter;stroke-miterlimit:4;stroke-dasharray:none;stroke-opacity:1" />
    <path
       inkscape:connector-curvature="0"
       id="path1006"
       d="m 171.06416,463.30452 v -8.99144 l 33.29707,0.003 v 8.99143 z"
       style="fill:#ffffff;fill-opacity:1;stroke:none;stroke-width:0.26458332;stroke-linecap:butt;stroke-linejoin:miter;stroke-miterlimit:4;stroke-dasharray:none;stroke-opacity:1"
       sodipodi:nodetypes="ccccc" />
    <path
       style="fill:#ffffff;fill-opacity:1;stroke:none;stroke-width:0.26458332;stroke-linecap:butt;stroke-linejoin:miter;stroke-miterlimit:4;stroke-dasharray:none;stroke-opacity:1"
       d="m 93.3709,463.29664 v -8.99143 l -33.29709,-0.003 v 8.99144 z"
       id="path1014"
       inkscape:connector-curvature="0"
       sodipodi:nodetypes="ccccc" />
    <path
       style="fill:#ffffff;fill-opacity:1;stroke:none;stroke-width:0.26458332;stroke-linecap:butt;stroke-linejoin:miter;stroke-miterlimit:4;stroke-dasharray:none;stroke-opacity:1"
       d="m 97.0706,463.29684 v -8.99144 l 33.29707,0.003 v 8.99143 z"
       id="path1016"
       inkscape:connector-curvature="0"
       sodipodi:nodetypes="ccccc" />
    <path
       sodipodi:nodetypes="ccccc"
       inkscape:connector-curvature="0"
       id="path1024"
       d="m 19.37734,463.28911 v -8.99143 l -33.29709,-0.003 v 8.99144 z"
       style="fill:#ffffff;fill-opacity:1;stroke:none;stroke-width:0.26458332;stroke-linecap:butt;stroke-linejoin:miter;stroke-miterlimit:4;stroke-dasharray:none;stroke-opacity:1" />
    <path
       inkscape:connector-curvature="0"
       id="path1026"
       d="m 23.07704,463.28931 v -8.99144 l 33.29707,0.003 v 8.99143 z"
       style="fill:#ffffff;fill-opacity:1;stroke:none;stroke-width:0.26458332;stroke-linecap:butt;stroke-linejoin:miter;stroke-miterlimit:4;stroke-dasharray:none;stroke-opacity:1"
       sodipodi:nodetypes="ccccc" />
    <path
       style="fill:#ffffff;fill-opacity:1;stroke:none;stroke-width:0.26458332;stroke-linecap:butt;stroke-linejoin:miter;stroke-miterlimit:4;stroke-dasharray:none;stroke-opacity:1"
       d="m -54.6162,463.28246 v -8.99143 l -33.29709,-0.003 v 8.99144 z"
       id="path1034"
       inkscape:connector-curvature="0"
       sodipodi:nodetypes="ccccc" />
    <path
       style="fill:#ffffff;fill-opacity:1;stroke:none;stroke-width:0.26458332;stroke-linecap:butt;stroke-linejoin:miter;stroke-miterlimit:4;stroke-dasharray:none;stroke-opacity:1"
       d="m -50.9165,463.28266 v -8.99144 l 33.29707,0.003 v 8.99143 z"
       id="path1036"
       inkscape:connector-curvature="0"
       sodipodi:nodetypes="ccccc" />
    <path
       sodipodi:nodetypes="ccccc"
       inkscape:connector-curvature="0"
       id="path1044"
       d="m -128.60976,463.27478 v -8.99143 l -33.29709,-0.003 v 8.99144 z"
       style="fill:#ffffff;fill-opacity:1;stroke:none;stroke-width:0.26458332;stroke-linecap:butt;stroke-linejoin:miter;stroke-miterlimit:4;stroke-dasharray:none;stroke-opacity:1" />
    <path
       inkscape:connector-curvature="0"
       id="path1046"
       d="m -124.91006,463.27498 v -8.99144 l 33.29707,0.003 v 8.99143 z"
       style="fill:#ffffff;fill-opacity:1;stroke:none;stroke-width:0.26458332;stroke-linecap:butt;stroke-linejoin:miter;stroke-miterlimit:4;stroke-dasharray:none;stroke-opacity:1"
       sodipodi:nodetypes="ccccc" />
    <path
       style="fill:#ffffff;fill-opacity:1;stroke:none;stroke-width:0.26458332;stroke-linecap:butt;stroke-linejoin:miter;stroke-miterlimit:4;stroke-dasharray:none;stroke-opacity:1"
       d="m 315.35155,463.31785 v -8.99143 l -33.29709,-0.003 v 8.99144 z"
       id="path1054"
       inkscape:connector-curvature="0"
       sodipodi:nodetypes="ccccc" />
    <path
       style="fill:#ffffff;fill-opacity:1;stroke:none;stroke-width:0.26458332;stroke-linecap:butt;stroke-linejoin:miter;stroke-miterlimit:4;stroke-dasharray:none;stroke-opacity:1"
       d="m 319.05125,463.31805 v -8.99144 l 33.29707,0.003 v 8.99143 z"
       id="path1056"
       inkscape:connector-curvature="0"
       sodipodi:nodetypes="ccccc" />
    <path
       sodipodi:nodetypes="ccccc"
       inkscape:connector-curvature="0"
       id="path1064"
       d="m 389.34511,463.32553 v -8.99143 l -33.29709,-0.003 v 8.99144 z"
       style="fill:#ffffff;fill-opacity:1;stroke:none;stroke-width:0.26458332;stroke-linecap:butt;stroke-linejoin:miter;stroke-miterlimit:4;stroke-dasharray:none;stroke-opacity:1" />
    <path
       inkscape:connector-curvature="0"
       id="path1066"
       d="m 393.04481,463.32573 v -8.99144 l 33.29707,0.003 v 8.99143 z"
       style="fill:#ffffff;fill-opacity:1;stroke:none;stroke-width:0.26458332;stroke-linecap:butt;stroke-linejoin:miter;stroke-miterlimit:4;stroke-dasharray:none;stroke-opacity:1"
       sodipodi:nodetypes="ccccc" />
    <path
       style="fill:#ffffff;fill-opacity:1;stroke:none;stroke-width:0.26458332;stroke-linecap:butt;stroke-linejoin:miter;stroke-miterlimit:4;stroke-dasharray:none;stroke-opacity:1"
       d="m 463.33867,463.33306 v -8.99143 l -33.29709,-0.003 v 8.99144 z"
       id="path1074"
       inkscape:connector-curvature="0"
       sodipodi:nodetypes="ccccc" />
    <path
       style="fill:#ffffff;fill-opacity:1;stroke:none;stroke-width:0.26458332;stroke-linecap:butt;stroke-linejoin:miter;stroke-miterlimit:4;stroke-dasharray:none;stroke-opacity:1"
       d="m 467.03837,463.33326 v -8.99144 l 33.29707,0.003 v 8.99143 z"
       id="path1076"
       inkscape:connector-curvature="0"
       sodipodi:nodetypes="ccccc" />
    <path
       sodipodi:nodetypes="ccccc"
       inkscape:connector-curvature="0"
       id="path1084"
       d="m 537.33223,463.34074 v -8.99143 l -33.29709,-0.003 v 8.99144 z"
       style="fill:#ffffff;fill-opacity:1;stroke:none;stroke-width:0.26458332;stroke-linecap:butt;stroke-linejoin:miter;stroke-miterlimit:4;stroke-dasharray:none;stroke-opacity:1" />
    <path
       inkscape:connector-curvature="0"
       id="path1087"
       d="m 541.03193,463.34094 v -8.99144 l 33.29707,0.003 v 8.99143 z"
       style="fill:#ffffff;fill-opacity:1;stroke:none;stroke-width:0.26458332;stroke-linecap:butt;stroke-linejoin:miter;stroke-miterlimit:4;stroke-dasharray:none;stroke-opacity:1"
       sodipodi:nodetypes="ccccc" />
    <path
       style="fill:#ffffff;fill-opacity:1;stroke:none;stroke-width:0.26458332;stroke-linecap:butt;stroke-linejoin:miter;stroke-miterlimit:4;stroke-dasharray:none;stroke-opacity:1"
       d="m 611.32579,463.34827 v -8.99143 l -33.29709,-0.003 v 8.99144 z"
       id="path1095"
       inkscape:connector-curvature="0"
       sodipodi:nodetypes="ccccc" />
    <path
       style="fill:#ffffff;fill-opacity:1;stroke:none;stroke-width:0.26458332;stroke-linecap:butt;stroke-linejoin:miter;stroke-miterlimit:4;stroke-dasharray:none;stroke-opacity:1"
       d="m 615.02549,463.34847 v -8.99144 l 33.29707,0.003 v 8.99143 z"
       id="path1097"
       inkscape:connector-curvature="0"
       sodipodi:nodetypes="ccccc" />
    <path
       inkscape:connector-curvature="0"
       id="path1103"
       d="m 589.12774,446.95441 3.69967,0.003 v 3.70001 l -3.69967,-0.003 z m -3.69968,3.69973 -7.39934,2e-5 -3e-5,-11.09966 7.39937,4.4e-4 -0.0953,-3.69684 h -7.3041 v -3.70277 l 11.09905,0.003 v 3.69977 3.69742 l 3.69967,3.1e-4 v -3.69773 h 3.69968 v 3.69773 l 3.69968,0.002 v -7.39863 h 3.69968 v 7.39863 h 3.69968 v -7.39863 h 3.69965 v 7.39863 h 3.69971 v -7.39621 h 3.69967 v 7.39621 l 14.79871,0.002 v 7.39971 h 3.69968 v -14.79899 l 3.69968,2e-4 v 14.79899 l 3.69967,3.7e-4 V 432.161 l 3.69965,-1.3e-4 3e-5,18.49877 -25.89774,-9.3e-4 v -7.40147 l -40.69646,-0.003 v 3.70014 h 3.69968 z m 44.39613,-7.3949 -3.69968,-6.8e-4 v 3.70039 l 3.69968,4.7e-4 z m -11.09903,7.40016 v -3.70198 h -14.79871 v 3.70152 z m -22.19807,-3.70198 h 3.69968 v 3.70101 l -3.69968,-0.001 z m 36.99678,-11.09643 -11.09903,-0.002 v -3.69776 h 11.09903 z"
       style="fill:#ffffff;fill-opacity:1;stroke:none;stroke-width:0.26458332;stroke-linecap:butt;stroke-linejoin:miter;stroke-miterlimit:4;stroke-dasharray:none;stroke-opacity:1"
       sodipodi:nodetypes="ccccccccccccccccccccccccccccccccccccccccccccccccccccccccccccccccccc" />
    <path
       sodipodi:nodetypes="ccccccccccccccccccccccccccccccccccccccccccccccccccccccccccccccccccc"
       style="fill:#ffffff;fill-opacity:1;stroke:none;stroke-width:0.26458332;stroke-linecap:butt;stroke-linejoin:miter;stroke-miterlimit:4;stroke-dasharray:none;stroke-opacity:1"
       d="m 219.15996,446.95441 3.69967,0.003 v 3.70001 l -3.69967,-0.003 z m -3.69968,3.69973 -7.39934,2e-5 -3e-5,-11.09966 7.39937,4.4e-4 -0.0953,-3.69684 h -7.3041 v -3.70277 l 11.09905,0.003 v 3.69977 3.69742 l 3.69967,3.1e-4 v -3.69773 h 3.69968 v 3.69773 l 3.69968,0.002 v -7.39863 h 3.69968 v 7.39863 h 3.69968 v -7.39863 h 3.69965 v 7.39863 h 3.69971 v -7.39621 h 3.69967 v 7.39621 l 14.79871,0.002 v 7.39971 h 3.69968 v -14.79899 l 3.69968,2e-4 v 14.79899 l 3.69967,3.7e-4 V 432.161 l 3.69965,-1.3e-4 3e-5,18.49877 -25.89774,-9.3e-4 v -7.40147 l -40.69646,-0.003 v 3.70014 h 3.69968 z m 44.39613,-7.3949 -3.69968,-6.8e-4 v 3.70039 l 3.69968,4.7e-4 z m -11.09903,7.40016 v -3.70198 h -14.79871 v 3.70152 z m -22.19807,-3.70198 h 3.69968 v 3.70101 l -3.69968,-0.001 z m 36.99678,-11.09643 -11.09903,-0.002 v -3.69776 h 11.09903 z"
       id="path935"
       inkscape:connector-curvature="0" />
    <path
       sodipodi:nodetypes="ccccccccccccccccccccccccccccccccccccccccccccccccccccccccccccccccccc"
       style="fill:#ffffff;fill-opacity:1;stroke:none;stroke-width:0.26458332;stroke-linecap:butt;stroke-linejoin:miter;stroke-miterlimit:4;stroke-dasharray:none;stroke-opacity:1"
       d="m 515.13419,446.95441 3.69967,0.003 v 3.70001 l -3.69967,-0.003 z m -3.69968,3.69973 -7.39934,2e-5 -3e-5,-11.09966 7.39937,4.4e-4 -0.0953,-3.69684 h -7.3041 v -3.70277 l 11.09905,0.003 v 3.69977 3.69742 l 3.69967,3.1e-4 v -3.69773 h 3.69968 v 3.69773 l 3.69968,0.002 v -7.39863 h 3.69968 v 7.39863 h 3.69968 v -7.39863 h 3.69965 v 7.39863 h 3.69971 v -7.39621 h 3.69967 v 7.39621 l 14.79871,0.002 v 7.39971 h 3.69968 v -14.79899 l 3.69968,2e-4 v 14.79899 l 3.69967,3.7e-4 V 432.161 l 3.69965,-1.3e-4 3e-5,18.49877 -25.89774,-9.3e-4 v -7.40147 l -40.69646,-0.003 v 3.70014 h 3.69968 z m 44.39613,-7.3949 -3.69968,-6.8e-4 v 3.70039 l 3.69968,4.7e-4 z m -11.09903,7.40016 v -3.70198 H 529.9329 v 3.70152 z m -22.19807,-3.70198 h 3.69968 v 3.70101 l -3.69968,-0.001 z m 36.99678,-11.09643 -11.09903,-0.002 v -3.69776 h 11.09903 z"
       id="path937"
       inkscape:connector-curvature="0" />
    <path
       inkscape:connector-curvature="0"
       id="path939"
       d="m 145.16641,446.95441 3.69967,0.003 v 3.70001 l -3.69967,-0.003 z m -3.69968,3.69973 -7.39934,2e-5 -3e-5,-11.09966 7.39937,4.4e-4 -0.0953,-3.69684 h -7.3041 v -3.70277 l 11.09905,0.003 v 3.69977 3.69742 l 3.69967,3.1e-4 v -3.69773 h 3.69968 v 3.69773 l 3.69968,0.002 v -7.39863 h 3.69968 v 7.39863 h 3.69968 v -7.39863 h 3.69965 v 7.39863 h 3.69971 v -7.39621 h 3.69967 v 7.39621 l 14.79871,0.002 v 7.39971 h 3.69968 v -14.79899 l 3.69968,2e-4 v 14.79899 l 3.69967,3.7e-4 V 432.161 l 3.69965,-1.3e-4 3e-5,18.49877 -25.89774,-9.3e-4 v -7.40147 l -40.69646,-0.003 v 3.70014 h 3.69968 z m 44.39613,-7.3949 -3.69968,-6.8e-4 v 3.70039 l 3.69968,4.7e-4 z m -11.09903,7.40016 v -3.70198 h -14.79871 v 3.70152 z m -22.19807,-3.70198 h 3.69968 v 3.70101 l -3.69968,-0.001 z m 36.99678,-11.09643 -11.09903,-0.002 v -3.69776 h 11.09903 z"
       style="fill:#ffffff;fill-opacity:1;stroke:none;stroke-width:0.26458332;stroke-linecap:butt;stroke-linejoin:miter;stroke-miterlimit:4;stroke-dasharray:none;stroke-opacity:1"
       sodipodi:nodetypes="ccccccccccccccccccccccccccccccccccccccccccccccccccccccccccccccccccc" />
    <path
       inkscape:connector-curvature="0"
       id="path941"
       d="m 441.14065,446.95441 3.69967,0.003 v 3.70001 l -3.69967,-0.003 z m -3.69968,3.69973 -7.39934,2e-5 -3e-5,-11.09966 7.39937,4.4e-4 -0.0953,-3.69684 h -7.3041 v -3.70277 l 11.09905,0.003 v 3.69977 3.69742 l 3.69967,3.1e-4 v -3.69773 h 3.69968 v 3.69773 l 3.69968,0.002 v -7.39863 h 3.69968 v 7.39863 h 3.69968 v -7.39863 h 3.69965 v 7.39863 h 3.69971 v -7.39621 h 3.69967 v 7.39621 l 14.79871,0.002 v 7.39971 h 3.69968 v -14.79899 l 3.69968,2e-4 v 14.79899 l 3.69967,3.7e-4 V 432.161 l 3.69965,-1.3e-4 3e-5,18.49877 -25.89774,-9.3e-4 v -7.40147 l -40.69646,-0.003 v 3.70014 h 3.69968 z m 44.39613,-7.3949 -3.69968,-6.8e-4 v 3.70039 l 3.69968,4.7e-4 z m -11.09903,7.40016 v -3.70198 h -14.79871 v 3.70152 z M 448.54,446.95742 h 3.69968 v 3.70101 l -3.69968,-0.001 z m 36.99678,-11.09643 -11.09903,-0.002 v -3.69776 h 11.09903 z"
       style="fill:#ffffff;fill-opacity:1;stroke:none;stroke-width:0.26458332;stroke-linecap:butt;stroke-linejoin:miter;stroke-miterlimit:4;stroke-dasharray:none;stroke-opacity:1"
       sodipodi:nodetypes="ccccccccccccccccccccccccccccccccccccccccccccccccccccccccccccccccccc" />
    <path
       sodipodi:nodetypes="ccccccccccccccccccccccccccccccccccccccccccccccccccccccccccccccccccc"
       style="fill:#ffffff;fill-opacity:1;stroke:none;stroke-width:0.26458332;stroke-linecap:butt;stroke-linejoin:miter;stroke-miterlimit:4;stroke-dasharray:none;stroke-opacity:1"
       d="m 71.172867,446.95441 3.69967,0.003 v 3.70001 l -3.69967,-0.003 z m -3.69968,3.69973 -7.39934,2e-5 -3e-5,-11.09966 7.39937,4.4e-4 -0.0953,-3.69684 h -7.3041 v -3.70277 l 11.09905,0.003 v 3.69977 3.69742 l 3.69967,3.1e-4 v -3.69773 h 3.69968 v 3.69773 l 3.69968,0.002 v -7.39863 h 3.69968 v 7.39863 h 3.69968 v -7.39863 h 3.69965 v 7.39863 h 3.69971 v -7.39621 h 3.699673 v 7.39621 l 14.79871,0.002 v 7.39971 h 3.69968 v -14.79899 l 3.69968,2e-4 v 14.79899 l 3.69967,3.7e-4 V 432.161 l 3.69965,-1.3e-4 3e-5,18.49877 -25.89774,-9.3e-4 v -7.40147 l -40.696463,-0.003 v 3.70014 h 3.69968 z m 44.396133,-7.3949 -3.69968,-6.8e-4 v 3.70039 l 3.69968,4.7e-4 z m -11.09903,7.40016 v -3.70198 H 85.971577 v 3.70152 z m -22.198073,-3.70198 h 3.69968 v 3.70101 l -3.69968,-0.001 z m 36.996783,-11.09643 -11.09903,-0.002 v -3.69776 H 115.569 Z"
       id="path943"
       inkscape:connector-curvature="0" />
    <path
       sodipodi:nodetypes="ccccccccccccccccccccccccccccccccccccccccccccccccccccccccccccccccccc"
       style="fill:#ffffff;fill-opacity:1;stroke:none;stroke-width:0.26458332;stroke-linecap:butt;stroke-linejoin:miter;stroke-miterlimit:4;stroke-dasharray:none;stroke-opacity:1"
       d="m 367.1471,446.95441 3.69967,0.003 v 3.70001 l -3.69967,-0.003 z m -3.69968,3.69973 -7.39934,2e-5 -3e-5,-11.09966 7.39937,4.4e-4 -0.0953,-3.69684 h -7.3041 v -3.70277 l 11.09905,0.003 v 3.69977 3.69742 l 3.69967,3.1e-4 v -3.69773 h 3.69968 v 3.69773 l 3.69968,0.002 v -7.39863 h 3.69968 v 7.39863 h 3.69968 v -7.39863 h 3.69965 v 7.39863 h 3.69971 v -7.39621 h 3.69967 v 7.39621 l 14.79871,0.002 v 7.39971 h 3.69968 v -14.79899 l 3.69968,2e-4 v 14.79899 l 3.69967,3.7e-4 V 432.161 l 3.69965,-1.3e-4 3e-5,18.49877 -25.89774,-9.3e-4 v -7.40147 l -40.69646,-0.003 v 3.70014 h 3.69968 z m 44.39613,-7.3949 -3.69968,-6.8e-4 v 3.70039 l 3.69968,4.7e-4 z m -11.09903,7.40016 v -3.70198 h -14.79871 v 3.70152 z m -22.19807,-3.70198 h 3.69968 v 3.70101 l -3.69968,-0.001 z m 36.99678,-11.09643 -11.09903,-0.002 v -3.69776 h 11.09903 z"
       id="path945"
       inkscape:connector-curvature="0" />
    <path
       inkscape:connector-curvature="0"
       id="path947"
       d="m -2.8206786,446.95441 3.69966998,0.003 v 3.70001 l -3.69966998,-0.003 z m -3.69968,3.69973 -7.3993404,2e-5 -3e-5,-11.09966 7.3993704,4.4e-4 -0.0953,-3.69684 h -7.3041004 v -3.70277 l 11.0990504,0.003 v 3.69977 3.69742 l 3.69966998,3.1e-4 V 435.8581 H 4.5786414 v 3.69773 l 3.69968,0.002 v -7.39863 h 3.6996796 v 7.39863 h 3.69968 v -7.39863 h 3.69965 v 7.39863 h 3.69971 v -7.39621 h 3.69967 v 7.39621 l 14.79871,0.002 v 7.39971 h 3.69968 v -14.79899 l 3.69968,2e-4 v 14.79899 l 3.69967,3.7e-4 V 432.161 l 3.69965,-1.3e-4 3e-5,18.49877 -25.89774,-9.3e-4 v -7.40147 l -40.69646,-0.003 v 3.70014 h 3.6996804 z m 44.3961296,-7.3949 -3.69968,-6.8e-4 v 3.70039 l 3.69968,4.7e-4 z m -11.09903,7.40016 v -3.70198 h -14.79871 v 3.70152 z M 4.5786714,446.95742 h 3.69968 v 3.70101 l -3.69968,-0.001 z m 36.9967796,-11.09643 -11.09903,-0.002 v -3.69776 h 11.09903 z"
       style="fill:#ffffff;fill-opacity:1;stroke:none;stroke-width:0.26458332;stroke-linecap:butt;stroke-linejoin:miter;stroke-miterlimit:4;stroke-dasharray:none;stroke-opacity:1"
       sodipodi:nodetypes="ccccccccccccccccccccccccccccccccccccccccccccccccccccccccccccccccccc" />
    <path
       inkscape:connector-curvature="0"
       id="path949"
       d="m 293.15352,446.95441 3.69967,0.003 v 3.70001 l -3.69967,-0.003 z m -3.69968,3.69973 -7.39934,2e-5 -3e-5,-11.09966 7.39937,4.4e-4 -0.0953,-3.69684 h -7.3041 v -3.70277 l 11.09905,0.003 v 3.69977 3.69742 l 3.69967,3.1e-4 v -3.69773 h 3.69968 v 3.69773 l 3.69968,0.002 v -7.39863 h 3.69968 v 7.39863 h 3.69968 v -7.39863 h 3.69965 v 7.39863 h 3.69971 v -7.39621 h 3.69967 v 7.39621 l 14.79871,0.002 v 7.39971 h 3.69968 v -14.79899 l 3.69968,2e-4 v 14.79899 l 3.69967,3.7e-4 V 432.161 l 3.69965,-1.3e-4 3e-5,18.49877 -25.89774,-9.3e-4 v -7.40147 l -40.69646,-0.003 v 3.70014 h 3.69968 z m 44.39613,-7.3949 -3.69968,-6.8e-4 v 3.70039 l 3.69968,4.7e-4 z m -11.09903,7.40016 v -3.70198 h -14.79871 v 3.70152 z m -22.19807,-3.70198 h 3.69968 v 3.70101 l -3.69968,-0.001 z m 36.99678,-11.09643 -11.09903,-0.002 v -3.69776 h 11.09903 z"
       style="fill:#ffffff;fill-opacity:1;stroke:none;stroke-width:0.26458332;stroke-linecap:butt;stroke-linejoin:miter;stroke-miterlimit:4;stroke-dasharray:none;stroke-opacity:1"
       sodipodi:nodetypes="ccccccccccccccccccccccccccccccccccccccccccccccccccccccccccccccccccc" />
    <path
       sodipodi:nodetypes="ccccccccccccccccccccccccccccccccccccccccccccccccccccccccccccccccccc"
       style="fill:#ffffff;fill-opacity:1;stroke:none;stroke-width:0.26458332;stroke-linecap:butt;stroke-linejoin:miter;stroke-miterlimit:4;stroke-dasharray:none;stroke-opacity:1"
       d="m -76.814224,446.95441 3.69967,0.003 v 3.70001 l -3.69967,-0.003 z m -3.69968,3.69973 -7.39934,2e-5 -3e-5,-11.09966 7.39937,4.4e-4 -0.0953,-3.69684 h -7.3041 v -3.70277 l 11.09905,0.003 v 3.69977 3.69742 l 3.69967,3.1e-4 v -3.69773 h 3.69968 v 3.69773 l 3.69968,0.002 v -7.39863 h 3.69968 v 7.39863 h 3.69968 v -7.39863 h 3.69965 v 7.39863 h 3.69971 v -7.39621 h 3.69967 v 7.39621 l 14.79871,0.002 v 7.39971 h 3.69968 v -14.79899 l 3.69968,2e-4 v 14.79899 l 3.69967,3.7e-4 V 432.161 l 3.69965,-1.3e-4 3e-5,18.49877 -25.89774,-9.3e-4 v -7.40147 l -40.69646,-0.003 v 3.70014 h 3.69968 z m 44.39613,-7.3949 -3.69968,-6.8e-4 v 3.70039 l 3.69968,4.7e-4 z m -11.09903,7.40016 v -3.70198 h -14.79871 v 3.70152 z m -22.19807,-3.70198 h 3.69968 v 3.70101 l -3.69968,-0.001 z m 36.99678,-11.09643 -11.09903,-0.002 v -3.69776 h 11.09903 z"
       id="path951"
       inkscape:connector-curvature="0" />
    <path
       inkscape:connector-curvature="0"
       id="path953"
       d="m -150.80777,446.95441 3.69967,0.003 v 3.70001 l -3.69967,-0.003 z m -3.69968,3.69973 -7.39934,2e-5 -3e-5,-11.09966 7.39937,4.4e-4 -0.0953,-3.69684 h -7.3041 v -3.70277 l 11.09905,0.003 v 3.69977 3.69742 l 3.69967,3.1e-4 v -3.69773 h 3.69968 v 3.69773 l 3.69968,0.002 v -7.39863 h 3.69968 v 7.39863 h 3.69968 v -7.39863 h 3.69965 v 7.39863 h 3.69971 v -7.39621 h 3.69967 v 7.39621 l 14.79871,0.002 v 7.39971 h 3.69968 v -14.79899 l 3.69968,2e-4 v 14.79899 l 3.69967,3.7e-4 V 432.161 l 3.69965,-1.3e-4 3e-5,18.49877 -25.89774,-9.3e-4 v -7.40147 l -40.69646,-0.003 v 3.70014 h 3.69968 z m 44.39613,-7.3949 -3.69968,-6.8e-4 v 3.70039 l 3.69968,4.7e-4 z m -11.09903,7.40016 v -3.70198 h -14.79871 v 3.70152 z m -22.19807,-3.70198 h 3.69968 v 3.70101 l -3.69968,-0.001 z m 36.99678,-11.09643 -11.09903,-0.002 v -3.69776 h 11.09903 z"
       style="fill:#ffffff;fill-opacity:1;stroke:none;stroke-width:0.26458332;stroke-linecap:butt;stroke-linejoin:miter;stroke-miterlimit:4;stroke-dasharray:none;stroke-opacity:1"
       sodipodi:nodetypes="ccccccccccccccccccccccccccccccccccccccccccccccccccccccccccccccccccc" />
    <path
       sodipodi:nodetypes="ccccc"
       inkscape:connector-curvature="0"
       id="path824"
       d="m -173.00589,616.76786 h 832.42751 v -158.75 h -832.42751 z"
       style="fill:#ffffff;fill-opacity:1;stroke:none;stroke-width:0;stroke-linecap:butt;stroke-linejoin:miter;stroke-miterlimit:4;stroke-dasharray:none;stroke-opacity:1" />
    <g
       id="g1111">
      <path
         sodipodi:nodetypes="ccccccccc"
         inkscape:connector-curvature="0"
         id="path1001"
         d="m 238.72047,588.88813 -2.32083,-57.29048 -0.002,-33.91353 c 2.72337,-1.30574 5.06264,-3.28184 6.80864,-5.71287 1.746,2.43103 4.08527,4.40713 6.80864,5.71287 l -0.002,33.91353 -2.32083,57.29048 -4.48581,6.17402 z"
         style="fill:#ff0000;fill-opacity:1;stroke:none;stroke-width:0.26458332;stroke-linecap:butt;stroke-linejoin:miter;stroke-miterlimit:4;stroke-dasharray:none;stroke-opacity:1" />
      <path
         sodipodi:nodetypes="csscssc"
         inkscape:connector-curvature="0"
         id="circle876"
         d="m 243.20628,479.72357 c 8.33005,7.97883 14.09007,18.26919 16.49627,29.55023 6.64443,31.15175 -13.24496,61.80867 -44.40447,68.41665 -0.93341,0.19866 -1.88045,0.3268 -2.8261,0.45511 5.51962,0.60146 11.10179,0.33504 16.53285,-0.81888 28.4108,-6.03643 46.54212,-33.97862 40.49094,-62.38626 -3.19855,-15.01428 -12.80644,-27.87746 -26.28949,-35.21685 z"
         style="opacity:1;fill:#ff0000;fill-opacity:1;fill-rule:evenodd;stroke:none;stroke-width:0.26458332;stroke-linecap:round;stroke-linejoin:round;stroke-miterlimit:4;stroke-dasharray:none;stroke-dashoffset:0;stroke-opacity:1" />
      <path
         style="fill:#ff0000;fill-opacity:1;stroke:none;stroke-width:0.26458332;stroke-linecap:butt;stroke-linejoin:miter;stroke-miterlimit:4;stroke-dasharray:none;stroke-opacity:1"
         d="m 209.29275,531.59965 c -1.30574,-2.72337 -3.28184,-5.06264 -5.71287,-6.80864 2.43103,-1.746 4.40713,-4.08527 5.71287,-6.80864 h 67.82706 c 1.30574,2.72337 3.28184,5.06264 5.71287,6.80864 -2.43103,1.746 -4.40713,4.08527 -5.71287,6.80864 z"
         id="path1075"
         inkscape:connector-curvature="0"
         sodipodi:nodetypes="ccccccc" />
      <path
         style="opacity:1;fill:#ff0000;fill-opacity:1;fill-rule:evenodd;stroke:none;stroke-width:0.26458332;stroke-linecap:round;stroke-linejoin:round;stroke-miterlimit:4;stroke-dasharray:none;stroke-dashoffset:0;stroke-opacity:1"
         d="m 243.20628,479.72357 c -8.33005,7.97883 -14.09007,18.26919 -16.49627,29.55023 -6.64443,31.15175 13.24496,61.80867 44.40447,68.41665 0.93341,0.19866 1.88045,0.3268 2.8261,0.45511 -5.51962,0.60146 -11.10179,0.33504 -16.53285,-0.81888 -28.4108,-6.03643 -46.54212,-33.97862 -40.49094,-62.38626 3.19855,-15.01428 12.80644,-27.87746 26.28949,-35.21685 z"
         id="path1080"
         inkscape:connector-curvature="0"
         sodipodi:nodetypes="csscssc" />
    </g>
    <path
       sodipodi:nodetypes="ccccccccccccccccccccccccccccccccccccccccccccccccccccccccccccccccccc"
       style="fill:#ffffff;fill-opacity:1;stroke:none;stroke-width:0.26458332;stroke-linecap:butt;stroke-linejoin:miter;stroke-miterlimit:4;stroke-dasharray:none;stroke-opacity:1"
       d="m 589.12774,638.92516 3.69967,0.003 v 3.70001 l -3.69967,-0.003 z m -3.69968,3.69973 -7.39934,2e-5 -3e-5,-11.09966 7.39937,4.4e-4 -0.0953,-3.69684 h -7.3041 v -3.70277 l 11.09905,0.003 v 3.69977 3.69742 l 3.69967,3.1e-4 v -3.69773 h 3.69968 v 3.69773 l 3.69968,0.002 v -7.39863 h 3.69968 v 7.39863 h 3.69968 v -7.39863 h 3.69965 v 7.39863 h 3.69971 v -7.39621 h 3.69967 v 7.39621 l 14.79871,0.002 v 7.39971 h 3.69968 V 624.1313 l 3.69968,2e-4 v 14.79899 l 3.69967,3.7e-4 v -14.79911 l 3.69965,-1.3e-4 3e-5,18.49877 -25.89774,-9.3e-4 v -7.40147 l -40.69646,-0.003 v 3.70014 h 3.69968 z m 44.39613,-7.3949 -3.69968,-6.8e-4 v 3.70039 l 3.69968,4.7e-4 z m -11.09903,7.40016 v -3.70198 h -14.79871 v 3.70152 z m -22.19807,-3.70198 h 3.69968 v 3.70101 l -3.69968,-10e-4 z m 36.99678,-11.09643 -11.09903,-0.002 v -3.69776 h 11.09903 z"
       id="path1043"
       inkscape:connector-curvature="0" />
    <path
       inkscape:connector-curvature="0"
       id="path1045"
       d="m 219.15996,638.92516 3.69967,0.003 v 3.70001 l -3.69967,-0.003 z m -3.69968,3.69973 -7.39934,2e-5 -3e-5,-11.09966 7.39937,4.4e-4 -0.0953,-3.69684 h -7.3041 v -3.70277 l 11.09905,0.003 v 3.69977 3.69742 l 3.69967,3.1e-4 v -3.69773 h 3.69968 v 3.69773 l 3.69968,0.002 v -7.39863 h 3.69968 v 7.39863 h 3.69968 v -7.39863 h 3.69965 v 7.39863 h 3.69971 v -7.39621 h 3.69967 v 7.39621 l 14.79871,0.002 v 7.39971 h 3.69968 V 624.1313 l 3.69968,2e-4 v 14.79899 l 3.69967,3.7e-4 v -14.79911 l 3.69965,-1.3e-4 3e-5,18.49877 -25.89774,-9.3e-4 v -7.40147 l -40.69646,-0.003 v 3.70014 h 3.69968 z m 44.39613,-7.3949 -3.69968,-6.8e-4 v 3.70039 l 3.69968,4.7e-4 z m -11.09903,7.40016 v -3.70198 h -14.79871 v 3.70152 z m -22.19807,-3.70198 h 3.69968 v 3.70101 l -3.69968,-10e-4 z m 36.99678,-11.09643 -11.09903,-0.002 v -3.69776 h 11.09903 z"
       style="fill:#ffffff;fill-opacity:1;stroke:none;stroke-width:0.26458332;stroke-linecap:butt;stroke-linejoin:miter;stroke-miterlimit:4;stroke-dasharray:none;stroke-opacity:1"
       sodipodi:nodetypes="ccccccccccccccccccccccccccccccccccccccccccccccccccccccccccccccccccc" />
    <path
       inkscape:connector-curvature="0"
       id="path1047"
       d="m 515.13419,638.92516 3.69967,0.003 v 3.70001 l -3.69967,-0.003 z m -3.69968,3.69973 -7.39934,2e-5 -3e-5,-11.09966 7.39937,4.4e-4 -0.0953,-3.69684 h -7.3041 v -3.70277 l 11.09905,0.003 v 3.69977 3.69742 l 3.69967,3.1e-4 v -3.69773 h 3.69968 v 3.69773 l 3.69968,0.002 v -7.39863 h 3.69968 v 7.39863 h 3.69968 v -7.39863 h 3.69965 v 7.39863 h 3.69971 v -7.39621 h 3.69967 v 7.39621 l 14.79871,0.002 v 7.39971 h 3.69968 V 624.1313 l 3.69968,2e-4 v 14.79899 l 3.69967,3.7e-4 v -14.79911 l 3.69965,-1.3e-4 3e-5,18.49877 -25.89774,-9.3e-4 v -7.40147 l -40.69646,-0.003 v 3.70014 h 3.69968 z m 44.39613,-7.3949 -3.69968,-6.8e-4 v 3.70039 l 3.69968,4.7e-4 z m -11.09903,7.40016 v -3.70198 H 529.9329 v 3.70152 z m -22.19807,-3.70198 h 3.69968 v 3.70101 l -3.69968,-10e-4 z m 36.99678,-11.09643 -11.09903,-0.002 v -3.69776 h 11.09903 z"
       style="fill:#ffffff;fill-opacity:1;stroke:none;stroke-width:0.26458332;stroke-linecap:butt;stroke-linejoin:miter;stroke-miterlimit:4;stroke-dasharray:none;stroke-opacity:1"
       sodipodi:nodetypes="ccccccccccccccccccccccccccccccccccccccccccccccccccccccccccccccccccc" />
    <path
       sodipodi:nodetypes="ccccccccccccccccccccccccccccccccccccccccccccccccccccccccccccccccccc"
       style="fill:#ffffff;fill-opacity:1;stroke:none;stroke-width:0.26458332;stroke-linecap:butt;stroke-linejoin:miter;stroke-miterlimit:4;stroke-dasharray:none;stroke-opacity:1"
       d="m 145.16641,638.92516 3.69967,0.003 v 3.70001 l -3.69967,-0.003 z m -3.69968,3.69973 -7.39934,2e-5 -3e-5,-11.09966 7.39937,4.4e-4 -0.0953,-3.69684 h -7.3041 v -3.70277 l 11.09905,0.003 v 3.69977 3.69742 l 3.69967,3.1e-4 v -3.69773 h 3.69968 v 3.69773 l 3.69968,0.002 v -7.39863 h 3.69968 v 7.39863 h 3.69968 v -7.39863 h 3.69965 v 7.39863 h 3.69971 v -7.39621 h 3.69967 v 7.39621 l 14.79871,0.002 v 7.39971 h 3.69968 V 624.1313 l 3.69968,2e-4 v 14.79899 l 3.69967,3.7e-4 v -14.79911 l 3.69965,-1.3e-4 3e-5,18.49877 -25.89774,-9.3e-4 v -7.40147 l -40.69646,-0.003 v 3.70014 h 3.69968 z m 44.39613,-7.3949 -3.69968,-6.8e-4 v 3.70039 l 3.69968,4.7e-4 z m -11.09903,7.40016 v -3.70198 h -14.79871 v 3.70152 z m -22.19807,-3.70198 h 3.69968 v 3.70101 l -3.69968,-10e-4 z m 36.99678,-11.09643 -11.09903,-0.002 v -3.69776 h 11.09903 z"
       id="path1049"
       inkscape:connector-curvature="0" />
    <path
       sodipodi:nodetypes="ccccccccccccccccccccccccccccccccccccccccccccccccccccccccccccccccccc"
       style="fill:#ffffff;fill-opacity:1;stroke:none;stroke-width:0.26458332;stroke-linecap:butt;stroke-linejoin:miter;stroke-miterlimit:4;stroke-dasharray:none;stroke-opacity:1"
       d="m 441.14065,638.92516 3.69967,0.003 v 3.70001 l -3.69967,-0.003 z m -3.69968,3.69973 -7.39934,2e-5 -3e-5,-11.09966 7.39937,4.4e-4 -0.0953,-3.69684 h -7.3041 v -3.70277 l 11.09905,0.003 v 3.69977 3.69742 l 3.69967,3.1e-4 v -3.69773 h 3.69968 v 3.69773 l 3.69968,0.002 v -7.39863 h 3.69968 v 7.39863 h 3.69968 v -7.39863 h 3.69965 v 7.39863 h 3.69971 v -7.39621 h 3.69967 v 7.39621 l 14.79871,0.002 v 7.39971 h 3.69968 V 624.1313 l 3.69968,2e-4 v 14.79899 l 3.69967,3.7e-4 v -14.79911 l 3.69965,-1.3e-4 3e-5,18.49877 -25.89774,-9.3e-4 v -7.40147 l -40.69646,-0.003 v 3.70014 h 3.69968 z m 44.39613,-7.3949 -3.69968,-6.8e-4 v 3.70039 l 3.69968,4.7e-4 z m -11.09903,7.40016 v -3.70198 h -14.79871 v 3.70152 z M 448.54,638.92817 h 3.69968 v 3.70101 l -3.69968,-10e-4 z m 36.99678,-11.09643 -11.09903,-0.002 v -3.69776 h 11.09903 z"
       id="path1051"
       inkscape:connector-curvature="0" />
    <path
       inkscape:connector-curvature="0"
       id="path1053"
       d="m 71.172867,638.92516 3.69967,0.003 v 3.70001 l -3.69967,-0.003 z m -3.69968,3.69973 -7.39934,2e-5 -3e-5,-11.09966 7.39937,4.4e-4 -0.0953,-3.69684 h -7.3041 v -3.70277 l 11.09905,0.003 v 3.69977 3.69742 l 3.69967,3.1e-4 v -3.69773 h 3.69968 v 3.69773 l 3.69968,0.002 v -7.39863 h 3.69968 v 7.39863 h 3.69968 v -7.39863 h 3.69965 v 7.39863 h 3.69971 v -7.39621 h 3.699673 v 7.39621 l 14.79871,0.002 v 7.39971 h 3.69968 V 624.1313 l 3.69968,2e-4 v 14.79899 l 3.69967,3.7e-4 v -14.79911 l 3.69965,-1.3e-4 3e-5,18.49877 -25.89774,-9.3e-4 v -7.40147 l -40.696463,-0.003 v 3.70014 h 3.69968 z m 44.396133,-7.3949 -3.69968,-6.8e-4 v 3.70039 l 3.69968,4.7e-4 z m -11.09903,7.40016 v -3.70198 H 85.971577 v 3.70152 z m -22.198073,-3.70198 h 3.69968 v 3.70101 l -3.69968,-10e-4 z m 36.996783,-11.09643 -11.09903,-0.002 v -3.69776 H 115.569 Z"
       style="fill:#ffffff;fill-opacity:1;stroke:none;stroke-width:0.26458332;stroke-linecap:butt;stroke-linejoin:miter;stroke-miterlimit:4;stroke-dasharray:none;stroke-opacity:1"
       sodipodi:nodetypes="ccccccccccccccccccccccccccccccccccccccccccccccccccccccccccccccccccc" />
    <path
       inkscape:connector-curvature="0"
       id="path1055"
       d="m 367.1471,638.92516 3.69967,0.003 v 3.70001 l -3.69967,-0.003 z m -3.69968,3.69973 -7.39934,2e-5 -3e-5,-11.09966 7.39937,4.4e-4 -0.0953,-3.69684 h -7.3041 v -3.70277 l 11.09905,0.003 v 3.69977 3.69742 l 3.69967,3.1e-4 v -3.69773 h 3.69968 v 3.69773 l 3.69968,0.002 v -7.39863 h 3.69968 v 7.39863 h 3.69968 v -7.39863 h 3.69965 v 7.39863 h 3.69971 v -7.39621 h 3.69967 v 7.39621 l 14.79871,0.002 v 7.39971 h 3.69968 V 624.1313 l 3.69968,2e-4 v 14.79899 l 3.69967,3.7e-4 v -14.79911 l 3.69965,-1.3e-4 3e-5,18.49877 -25.89774,-9.3e-4 v -7.40147 l -40.69646,-0.003 v 3.70014 h 3.69968 z m 44.39613,-7.3949 -3.69968,-6.8e-4 v 3.70039 l 3.69968,4.7e-4 z m -11.09903,7.40016 v -3.70198 h -14.79871 v 3.70152 z m -22.19807,-3.70198 h 3.69968 v 3.70101 l -3.69968,-10e-4 z m 36.99678,-11.09643 -11.09903,-0.002 v -3.69776 h 11.09903 z"
       style="fill:#ffffff;fill-opacity:1;stroke:none;stroke-width:0.26458332;stroke-linecap:butt;stroke-linejoin:miter;stroke-miterlimit:4;stroke-dasharray:none;stroke-opacity:1"
       sodipodi:nodetypes="ccccccccccccccccccccccccccccccccccccccccccccccccccccccccccccccccccc" />
    <path
       sodipodi:nodetypes="ccccccccccccccccccccccccccccccccccccccccccccccccccccccccccccccccccc"
       style="fill:#ffffff;fill-opacity:1;stroke:none;stroke-width:0.26458332;stroke-linecap:butt;stroke-linejoin:miter;stroke-miterlimit:4;stroke-dasharray:none;stroke-opacity:1"
       d="m -2.8206786,638.92516 3.69966998,0.003 v 3.70001 l -3.69966998,-0.003 z m -3.69968,3.69973 -7.3993404,2e-5 -3e-5,-11.09966 7.3993704,4.4e-4 -0.0953,-3.69684 h -7.3041004 v -3.70277 l 11.0990504,0.003 v 3.69977 3.69742 l 3.69966998,3.1e-4 v -3.69773 H 4.5786414 v 3.69773 l 3.69968,0.002 v -7.39863 h 3.6996796 v 7.39863 h 3.69968 v -7.39863 h 3.69965 v 7.39863 h 3.69971 v -7.39621 h 3.69967 v 7.39621 l 14.79871,0.002 v 7.39971 h 3.69968 V 624.1313 l 3.69968,2e-4 v 14.79899 l 3.69967,3.7e-4 v -14.79911 l 3.69965,-1.3e-4 3e-5,18.49877 -25.89774,-9.3e-4 v -7.40147 l -40.69646,-0.003 v 3.70014 h 3.6996804 z m 44.3961296,-7.3949 -3.69968,-6.8e-4 v 3.70039 l 3.69968,4.7e-4 z m -11.09903,7.40016 v -3.70198 h -14.79871 v 3.70152 z M 4.5786714,638.92817 h 3.69968 v 3.70101 l -3.69968,-10e-4 z m 36.9967796,-11.09643 -11.09903,-0.002 v -3.69776 h 11.09903 z"
       id="path1057"
       inkscape:connector-curvature="0" />
    <path
       sodipodi:nodetypes="ccccccccccccccccccccccccccccccccccccccccccccccccccccccccccccccccccc"
       style="fill:#ffffff;fill-opacity:1;stroke:none;stroke-width:0.26458332;stroke-linecap:butt;stroke-linejoin:miter;stroke-miterlimit:4;stroke-dasharray:none;stroke-opacity:1"
       d="m 293.15352,638.92516 3.69967,0.003 v 3.70001 l -3.69967,-0.003 z m -3.69968,3.69973 -7.39934,2e-5 -3e-5,-11.09966 7.39937,4.4e-4 -0.0953,-3.69684 h -7.3041 v -3.70277 l 11.09905,0.003 v 3.69977 3.69742 l 3.69967,3.1e-4 v -3.69773 h 3.69968 v 3.69773 l 3.69968,0.002 v -7.39863 h 3.69968 v 7.39863 h 3.69968 v -7.39863 h 3.69965 v 7.39863 h 3.69971 v -7.39621 h 3.69967 v 7.39621 l 14.79871,0.002 v 7.39971 h 3.69968 V 624.1313 l 3.69968,2e-4 v 14.79899 l 3.69967,3.7e-4 v -14.79911 l 3.69965,-1.3e-4 3e-5,18.49877 -25.89774,-9.3e-4 v -7.40147 l -40.69646,-0.003 v 3.70014 h 3.69968 z m 44.39613,-7.3949 -3.69968,-6.8e-4 v 3.70039 l 3.69968,4.7e-4 z m -11.09903,7.40016 v -3.70198 h -14.79871 v 3.70152 z m -22.19807,-3.70198 h 3.69968 v 3.70101 l -3.69968,-10e-4 z m 36.99678,-11.09643 -11.09903,-0.002 v -3.69776 h 11.09903 z"
       id="path1059"
       inkscape:connector-curvature="0" />
    <path
       inkscape:connector-curvature="0"
       id="path1061"
       d="m -76.814224,638.92516 3.69967,0.003 v 3.70001 l -3.69967,-0.003 z m -3.69968,3.69973 -7.39934,2e-5 -3e-5,-11.09966 7.39937,4.4e-4 -0.0953,-3.69684 h -7.3041 v -3.70277 l 11.09905,0.003 v 3.69977 3.69742 l 3.69967,3.1e-4 v -3.69773 h 3.69968 v 3.69773 l 3.69968,0.002 v -7.39863 h 3.69968 v 7.39863 h 3.69968 v -7.39863 h 3.69965 v 7.39863 h 3.69971 v -7.39621 h 3.69967 v 7.39621 l 14.79871,0.002 v 7.39971 h 3.69968 V 624.1313 l 3.69968,2e-4 v 14.79899 l 3.69967,3.7e-4 v -14.79911 l 3.69965,-1.3e-4 3e-5,18.49877 -25.89774,-9.3e-4 v -7.40147 l -40.69646,-0.003 v 3.70014 h 3.69968 z m 44.39613,-7.3949 -3.69968,-6.8e-4 v 3.70039 l 3.69968,4.7e-4 z m -11.09903,7.40016 v -3.70198 h -14.79871 v 3.70152 z m -22.19807,-3.70198 h 3.69968 v 3.70101 l -3.69968,-10e-4 z m 36.99678,-11.09643 -11.09903,-0.002 v -3.69776 h 11.09903 z"
       style="fill:#ffffff;fill-opacity:1;stroke:none;stroke-width:0.26458332;stroke-linecap:butt;stroke-linejoin:miter;stroke-miterlimit:4;stroke-dasharray:none;stroke-opacity:1"
       sodipodi:nodetypes="ccccccccccccccccccccccccccccccccccccccccccccccccccccccccccccccccccc" />
    <path
       sodipodi:nodetypes="ccccccccccccccccccccccccccccccccccccccccccccccccccccccccccccccccccc"
       style="fill:#ffffff;fill-opacity:1;stroke:none;stroke-width:0.26458332;stroke-linecap:butt;stroke-linejoin:miter;stroke-miterlimit:4;stroke-dasharray:none;stroke-opacity:1"
       d="m -150.80777,638.92516 3.69967,0.003 v 3.70001 l -3.69967,-0.003 z m -3.69968,3.69973 -7.39934,2e-5 -3e-5,-11.09966 7.39937,4.4e-4 -0.0953,-3.69684 h -7.3041 v -3.70277 l 11.09905,0.003 v 3.69977 3.69742 l 3.69967,3.1e-4 v -3.69773 h 3.69968 v 3.69773 l 3.69968,0.002 v -7.39863 h 3.69968 v 7.39863 h 3.69968 v -7.39863 h 3.69965 v 7.39863 h 3.69971 v -7.39621 h 3.69967 v 7.39621 l 14.79871,0.002 v 7.39971 h 3.69968 V 624.1313 l 3.69968,2e-4 v 14.79899 l 3.69967,3.7e-4 v -14.79911 l 3.69965,-1.3e-4 3e-5,18.49877 -25.89774,-9.3e-4 v -7.40147 l -40.69646,-0.003 v 3.70014 h 3.69968 z m 44.39613,-7.3949 -3.69968,-6.8e-4 v 3.70039 l 3.69968,4.7e-4 z m -11.09903,7.40016 v -3.70198 h -14.79871 v 3.70152 z m -22.19807,-3.70198 h 3.69968 v 3.70101 l -3.69968,-10e-4 z m 36.99678,-11.09643 -11.09903,-0.002 v -3.69776 h 11.09903 z"
       id="path1063"
       inkscape:connector-curvature="0" />
  </g>
</svg>
