<?xml version="1.0" encoding="UTF-8" standalone="no"?>
<!-- Created with Inkscape (http://www.inkscape.org/) -->

<svg
   xmlns:dc="http://purl.org/dc/elements/1.1/"
   xmlns:cc="http://creativecommons.org/ns#"
   xmlns:rdf="http://www.w3.org/1999/02/22-rdf-syntax-ns#"
   xmlns:svg="http://www.w3.org/2000/svg"
   xmlns="http://www.w3.org/2000/svg"
   xmlns:sodipodi="http://sodipodi.sourceforge.net/DTD/sodipodi-0.dtd"
   xmlns:inkscape="http://www.inkscape.org/namespaces/inkscape"
   width="2607.4287"
   height="1800"
   viewBox="0 0 689.88218 476.25001"
   version="1.1"
   id="svg8"
   inkscape:export-filename="C:\Users\厂永刄先生\Documents\GXI3CW2\JáÈŭcèŭ\N̂i\熊本県\県旗.png"
   inkscape:export-xdpi="96"
   inkscape:export-ydpi="96"
   inkscape:version="0.92.4 (5da689c313, 2019-01-14)"
   sodipodi:docname="青森県.svg">
  <defs
     id="defs2">
    <marker
       inkscape:isstock="true"
       style="overflow:visible"
       id="marker1498"
       refX="0"
       refY="0"
       orient="auto"
       inkscape:stockid="Arrow1Lend">
      <path
         transform="matrix(-0.8,0,0,-0.8,-10,0)"
         style="fill:#000000;fill-opacity:1;fill-rule:evenodd;stroke:#000000;stroke-width:1.00000003pt;stroke-opacity:1"
         d="M 0,0 5,-5 -12.5,0 5,5 Z"
         id="path1496"
         inkscape:connector-curvature="0" />
    </marker>
    <marker
       inkscape:isstock="true"
       style="overflow:visible"
       id="marker1458"
       refX="0"
       refY="0"
       orient="auto"
       inkscape:stockid="Arrow1Lstart">
      <path
         transform="matrix(0.8,0,0,0.8,10,0)"
         style="fill:#000000;fill-opacity:1;fill-rule:evenodd;stroke:#000000;stroke-width:1.00000003pt;stroke-opacity:1"
         d="M 0,0 5,-5 -12.5,0 5,5 Z"
         id="path1456"
         inkscape:connector-curvature="0" />
    </marker>
    <marker
       inkscape:stockid="Arrow1Lend"
       orient="auto"
       refY="0"
       refX="0"
       id="Arrow1Lend"
       style="overflow:visible"
       inkscape:isstock="true">
      <path
         id="path967"
         d="M 0,0 5,-5 -12.5,0 5,5 Z"
         style="fill:#000000;fill-opacity:1;fill-rule:evenodd;stroke:#000000;stroke-width:1.00000003pt;stroke-opacity:1"
         transform="matrix(-0.8,0,0,-0.8,-10,0)"
         inkscape:connector-curvature="0" />
    </marker>
    <marker
       inkscape:stockid="Arrow1Lstart"
       orient="auto"
       refY="0"
       refX="0"
       id="Arrow1Lstart"
       style="overflow:visible"
       inkscape:isstock="true">
      <path
         id="path964"
         d="M 0,0 5,-5 -12.5,0 5,5 Z"
         style="fill:#000000;fill-opacity:1;fill-rule:evenodd;stroke:#000000;stroke-width:1.00000003pt;stroke-opacity:1"
         transform="matrix(0.8,0,0,0.8,10,0)"
         inkscape:connector-curvature="0" />
    </marker>
  </defs>
  <sodipodi:namedview
     id="base"
     pagecolor="#ffffff"
     bordercolor="#666666"
     borderopacity="1.0"
     inkscape:pageopacity="0.0"
     inkscape:pageshadow="2"
     inkscape:zoom="0.239547"
     inkscape:cx="1462.3568"
     inkscape:cy="919.55"
     inkscape:document-units="px"
     inkscape:current-layer="layer1"
     showgrid="false"
     units="px"
     fit-margin-top="0"
     fit-margin-left="0"
     fit-margin-right="0"
     fit-margin-bottom="0"
     inkscape:showpageshadow="false"
     inkscape:snap-intersection-paths="false"
     inkscape:object-paths="false"
     inkscape:pagecheckerboard="true"
     inkscape:snap-smooth-nodes="false"
     inkscape:window-width="1177"
     inkscape:window-height="729"
     inkscape:window-x="178"
     inkscape:window-y="0"
     inkscape:window-maximized="0"
     inkscape:object-nodes="true"
     inkscape:snap-nodes="true"
     showguides="true" />
  <metadata
     id="metadata5">
    <rdf:RDF>
      <cc:Work
         rdf:about="">
        <dc:format>image/svg+xml</dc:format>
        <dc:type
           rdf:resource="http://purl.org/dc/dcmitype/StillImage" />
        <dc:title></dc:title>
      </cc:Work>
    </rdf:RDF>
  </metadata>
  <g
     inkscape:label="レイヤー 1"
     inkscape:groupmode="layer"
     id="layer1"
     transform="translate(112.33452,-299.26786)">
    <path
       style="fill:#ffffff;fill-opacity:1;stroke:none;stroke-width:0.51166773px;stroke-linecap:butt;stroke-linejoin:miter;stroke-opacity:1"
       d="m -102.80952,299.26786 h -9.525 v 476.25 h 9.525 z"
       id="path1079"
       inkscape:connector-curvature="0"
       sodipodi:nodetypes="ccccc" />
    <path
       style="fill:#ffffff;fill-opacity:1;stroke:none;stroke-width:0.26458335px;stroke-linecap:butt;stroke-linejoin:miter;stroke-opacity:1"
       d="m -102.80952,775.51786 0,-476.25 h 680.35716 v 476.25 z m 554.49109,-93.54912 c -57.03999,-57.03999 -73.2308,-102.09739 -88.44643,-161.58481 -3.23138,-12.63347 -1.97449,-26.23071 0,-39.12054 4.58862,-29.95535 27.21428,-86.74553 27.21428,-86.74553 0,0 -46.59363,24.14683 -71.4375,22.1116 -32.85199,-2.69126 -88.44643,-44.22321 -88.44643,-44.22321 v 147.97768 c 0,0 55.38989,-39.12054 68.03573,-39.12054 12.64584,0 20.4107,9.5294 20.4107,39.12054 0,27.78733 -5.2493,73.13839 -30.61608,73.13839 -14.96829,0 -27.21428,-35.71875 -27.21428,-35.71875 h -30.61607 c 0,11.30646 -9.70793,35.71875 -34.01785,35.71875 -24.30992,0 -27.2143,-112.25893 -27.2143,-112.25893 h -68.03571 c 0,62.02306 -25.17192,162.20977 -91.8482195,200.70535 z"
       id="path1141"
       inkscape:connector-curvature="0"
       sodipodi:nodetypes="ccccccsscscczsscczcccc" />
    <text
       xml:space="preserve"
       style="font-style:normal;font-variant:normal;font-weight:normal;font-stretch:normal;font-size:4.23333359px;line-height:1.25;font-family:'Noto Sans';-inkscape-font-specification:'Noto Sans';text-align:center;letter-spacing:0px;word-spacing:0px;text-anchor:middle;fill:#000000;fill-opacity:1;stroke:none;stroke-width:0.26458335"
       x="143.02208"
       y="317.31754"
       id="text1014"><tspan
         sodipodi:role="line"
         id="tspan1012"
         x="143.02208"
         y="321.16934"
         style="stroke-width:0.26458335" /></text>
    <path
       sodipodi:nodetypes="csscscczsscczcccc"
       inkscape:connector-curvature="0"
       id="path1208"
       d="m 451.68157,681.96874 c -57.03999,-57.03999 -73.2308,-102.09739 -88.44643,-161.58481 -3.23138,-12.63347 -1.97449,-26.23071 0,-39.12054 4.58862,-29.95535 27.21428,-86.74553 27.21428,-86.74553 0,0 -46.59363,24.14683 -71.4375,22.1116 -32.85199,-2.69126 -88.44643,-44.22321 -88.44643,-44.22321 v 147.97768 c 0,0 55.38989,-39.12054 68.03573,-39.12054 12.64584,0 20.4107,9.5294 20.4107,39.12054 0,27.78733 -5.2493,73.13839 -30.61608,73.13839 -14.96829,0 -27.21428,-35.71875 -27.21428,-35.71875 h -30.61607 c 0,11.30646 -9.70793,35.71875 -34.01785,35.71875 -24.30992,0 -27.2143,-112.25893 -27.2143,-112.25893 h -68.03571 c 0,62.02306 -25.17192,162.20977 -91.8482195,200.70535 z"
       style="fill:#005731;fill-opacity:1;stroke:none;stroke-width:0.26458335px;stroke-linecap:butt;stroke-linejoin:miter;stroke-opacity:1" />
  </g>
</svg>
