<?xml version="1.0" encoding="UTF-8" standalone="no"?>
<!-- Created with Inkscape (http://www.inkscape.org/) -->

<svg
   width="2900"
   height="2200"
   viewBox="0 0 767.29167 582.08335"
   version="1.1"
   id="svg8"
   inkscape:export-filename="C:\Users\厂永刄先生\Documents\GXI3CW2\JáÈŭcèŭ\Èŭmen\Í\意軍.png"
   inkscape:export-xdpi="96"
   inkscape:export-ydpi="96"
   inkscape:version="1.3 (0e150ed6c4, 2023-07-21)"
   sodipodi:docname="描き方.svg"
   xmlns:inkscape="http://www.inkscape.org/namespaces/inkscape"
   xmlns:sodipodi="http://sodipodi.sourceforge.net/DTD/sodipodi-0.dtd"
   xmlns="http://www.w3.org/2000/svg"
   xmlns:svg="http://www.w3.org/2000/svg"
   xmlns:rdf="http://www.w3.org/1999/02/22-rdf-syntax-ns#"
   xmlns:cc="http://creativecommons.org/ns#"
   xmlns:dc="http://purl.org/dc/elements/1.1/">
  <defs
     id="defs2" />
  <sodipodi:namedview
     id="base"
     pagecolor="#ffffff"
     bordercolor="#666666"
     borderopacity="1.0"
     inkscape:pageopacity="0.0"
     inkscape:pageshadow="2"
     inkscape:zoom="0.35213612"
     inkscape:cx="1060.6694"
     inkscape:cy="1816.0591"
     inkscape:document-units="px"
     inkscape:current-layer="layer1"
     showgrid="false"
     units="px"
     fit-margin-top="0"
     fit-margin-left="0"
     fit-margin-right="0"
     fit-margin-bottom="0"
     inkscape:showpageshadow="false"
     inkscape:snap-intersection-paths="false"
     inkscape:object-paths="false"
     inkscape:pagecheckerboard="true"
     inkscape:snap-smooth-nodes="true"
     inkscape:window-width="2880"
     inkscape:window-height="1514"
     inkscape:window-x="-11"
     inkscape:window-y="-11"
     inkscape:window-maximized="1"
     inkscape:object-nodes="true"
     inkscape:snap-nodes="true"
     inkscape:deskcolor="#505050" />
  <metadata
     id="metadata5">
    <rdf:RDF>
      <cc:Work
         rdf:about="">
        <dc:format>image/svg+xml</dc:format>
        <dc:type
           rdf:resource="http://purl.org/dc/dcmitype/StillImage" />
      </cc:Work>
    </rdf:RDF>
  </metadata>
  <g
     inkscape:label="レイヤー 1"
     inkscape:groupmode="layer"
     id="layer1"
     transform="translate(129.26785,-267.51786)">
    <path
       style="fill:#ffffff;fill-opacity:1;fill-rule:evenodd;stroke:none;stroke-width:0.223731;stroke-linecap:round;stroke-linejoin:round;stroke-miterlimit:4;stroke-dasharray:none;stroke-dashoffset:0;stroke-opacity:0.501961"
       d="M -129.26785,267.51786 V 849.60119 H 638.02381 V 267.51786 Z"
       id="path3"
       inkscape:connector-curvature="0"
       sodipodi:nodetypes="ccccc" />
    <path
       style="fill:#5b81ff;fill-opacity:1;fill-rule:evenodd;stroke:none;stroke-width:0.223731;stroke-linecap:round;stroke-linejoin:round;stroke-miterlimit:4;stroke-dasharray:none;stroke-dashoffset:0;stroke-opacity:0.501961"
       d="m -102.80952,299.26786 v 476.25 h 714.375 v -476.25 z"
       id="path814-6"
       inkscape:connector-curvature="0"
       sodipodi:nodetypes="ccccc" />
    <path
       style="fill:#6e90ff;fill-opacity:1;fill-rule:evenodd;stroke:none;stroke-width:0.0604516;stroke-linecap:round;stroke-linejoin:round;stroke-miterlimit:4;stroke-dasharray:none;stroke-dashoffset:0;stroke-opacity:0.501961"
       d="M -102.80952,630.97978 V 775.51786 H 69.03762 V 630.97978 Z"
       id="path11"
       inkscape:connector-curvature="0"
       sodipodi:nodetypes="ccccc" />
    <path
       style="fill:#6e90ff;fill-opacity:1;fill-rule:evenodd;stroke:none;stroke-width:0.0604516;stroke-linecap:round;stroke-linejoin:round;stroke-miterlimit:4;stroke-dasharray:none;stroke-dashoffset:0;stroke-opacity:0.501961"
       d="M 439.71834,630.97978 V 775.51786 H 611.56548 V 630.97978 Z"
       id="path10"
       inkscape:connector-curvature="0"
       sodipodi:nodetypes="ccccc" />
    <path
       style="fill:#ffffff;fill-opacity:1;fill-rule:evenodd;stroke:none;stroke-width:0.159808;stroke-linecap:round;stroke-linejoin:round;stroke-miterlimit:4;stroke-dasharray:none;stroke-dashoffset:0;stroke-opacity:0.501961"
       d="m 297.34486,625.48153 c 1.68611,-44.41108 23.71029,-83.61363 57.03043,-108.55555 1.3497,6.6161 2.0564,13.4591 2.0564,20.46687 0,55.6805 -44.59227,100.94399 -100.0125,102.03151 v 40.82799 c 77.96646,-1.09207 140.83379,-64.63351 140.83379,-142.8595 0,-28.63132 -8.42173,-55.29585 -22.92503,-77.65156 -68.94079,26.31086 -117.90871,93.05619 -117.90871,171.2386 0,1.45812 0.0188,2.91155 0.0527,4.3615 14.64419,-0.30639 28.49214,-3.81672 40.87292,-9.85986 z M 274.78864,542.02721 V 437.38346 c 24.5637,4.9865 45.92486,18.79296 60.62937,37.97288 11.37595,-7.63667 23.63447,-14.05824 36.58897,-19.08101 -25.77812,-37.31019 -68.84805,-61.75747 -117.62899,-61.75747 -48.78094,0 -91.85087,24.44728 -117.629,61.75747 12.95452,5.02277 25.21303,11.44434 36.58897,19.08101 14.70451,-19.17992 36.06568,-32.98638 60.62938,-37.97288 v 104.64375 c 10.13082,18.72505 17.16318,39.3678 20.41065,61.24072 3.24747,-21.87292 10.27983,-42.51567 20.41065,-61.24072 z m -140.36062,-82.2859 c -14.5033,22.35571 -22.92503,49.02024 -22.92503,77.65156 0,78.22599 62.86733,141.76743 140.83379,142.8595 v -40.82799 c -55.42023,-1.08752 -100.0125,-46.35101 -100.0125,-102.03151 0,-7.00777 0.7067,-13.85077 2.05639,-20.46687 33.32015,24.94192 55.34433,64.14447 57.03044,108.55555 12.38078,6.04314 26.22873,9.55347 40.87291,9.85986 0.0339,-1.44995 0.0527,-2.90338 0.0527,-4.3615 10e-6,-78.18241 -48.96791,-144.92774 -117.9087,-171.2386 z"
       id="path908"
       inkscape:connector-curvature="0"
       sodipodi:nodetypes="ccsccscscccccczcccccccsccscccsc" />
    <path
       style="opacity:1;fill:none;fill-opacity:0.501961;fill-rule:evenodd;stroke:#000000;stroke-width:0.264583;stroke-linecap:round;stroke-linejoin:round;stroke-miterlimit:4;stroke-dasharray:none;stroke-dashoffset:0;stroke-opacity:1"
       d="m 397.25298,537.39285 c 0,78.90769 -63.96731,142.87501 -142.87499,142.87501 -78.90769,0 -142.87501,-63.96732 -142.87501,-142.87501 0,-78.90768 63.96732,-142.875 142.87501,-142.875 78.90769,0 142.87499,63.96732 142.87499,142.875 z"
       id="path816"
       inkscape:connector-curvature="0"
       sodipodi:nodetypes="zzzzz" />
    <path
       style="opacity:1;fill:none;fill-opacity:0.501961;fill-rule:evenodd;stroke:#000000;stroke-width:0.264583;stroke-linecap:round;stroke-linejoin:round;stroke-miterlimit:4;stroke-dasharray:none;stroke-dashoffset:0;stroke-opacity:1"
       d="m -114.18661,630.97977 c 0,101.19181 82.032176,183.22398 183.223983,183.22398 101.191797,0 183.223937,-82.03217 183.223937,-183.22398 0,-101.19181 -82.03214,-183.22396 -183.223937,-183.22396 -101.19181,0 -183.223983,82.03215 -183.223983,183.22396 z m -4.08241,7e-4 c 0,103.39795 83.908698,187.30469 187.306649,187.30469 103.397941,0 187.306631,-83.90674 187.306631,-187.30469 0,-103.39795 -83.90869,-187.30664 -187.306631,-187.30664 -103.397954,0 -187.306649,83.90868 -187.306649,187.30664 z"
       id="path835"
       inkscape:connector-curvature="0"
       sodipodi:nodetypes="zzzzzzzzzz" />
    <path
       sodipodi:nodetypes="zzzzz"
       inkscape:connector-curvature="0"
       id="path843"
       d="m 211.44021,630.97977 c 0,78.64679 -63.7558,142.4026 -142.402583,142.4026 -78.646781,0 -142.402597,-63.75581 -142.402597,-142.4026 0,-78.64678 63.755816,-142.40259 142.402597,-142.40259 78.646793,0 142.402583,63.75581 142.402583,142.40259 z"
       style="opacity:1;fill:none;fill-opacity:0.501961;fill-rule:evenodd;stroke:#000000;stroke-width:0.264583;stroke-linecap:round;stroke-linejoin:round;stroke-miterlimit:4;stroke-dasharray:none;stroke-dashoffset:0;stroke-opacity:1" />
    <path
       sodipodi:nodetypes="cccc"
       inkscape:connector-curvature="0"
       id="path845"
       d="m 233.96727,426.26784 v 222.25001 h 40.82142 V 426.26784"
       style="fill:none;stroke:#000000;stroke-width:0.264583;stroke-linecap:butt;stroke-linejoin:miter;stroke-miterlimit:4;stroke-dasharray:none;stroke-opacity:1" />
    <path
       style="color:#000000;font-style:normal;font-variant:normal;font-weight:normal;font-stretch:normal;font-size:medium;line-height:normal;font-family:sans-serif;font-variant-ligatures:normal;font-variant-position:normal;font-variant-caps:normal;font-variant-numeric:normal;font-variant-alternates:normal;font-feature-settings:normal;text-indent:0;text-align:start;text-decoration:none;text-decoration-line:none;text-decoration-style:solid;text-decoration-color:#000000;letter-spacing:normal;word-spacing:normal;text-transform:none;writing-mode:lr-tb;direction:ltr;text-orientation:mixed;dominant-baseline:auto;baseline-shift:baseline;text-anchor:start;white-space:normal;shape-padding:0;clip-rule:nonzero;display:inline;overflow:visible;visibility:visible;opacity:1;isolation:auto;mix-blend-mode:normal;color-interpolation:sRGB;color-interpolation-filters:linearRGB;solid-color:#000000;solid-opacity:1;vector-effect:none;fill:none;fill-opacity:1;fill-rule:evenodd;stroke:#000000;stroke-width:0.264583;stroke-linecap:round;stroke-linejoin:round;stroke-miterlimit:4;stroke-dasharray:none;stroke-dashoffset:0;stroke-opacity:1;color-rendering:auto;image-rendering:auto;shape-rendering:auto;text-rendering:auto;enable-background:accumulate"
       d="m 156.40625,537.39258 c 0,54.15649 43.81617,97.97265 97.97266,97.97265 54.15649,0 97.9707,-43.81616 97.9707,-97.97265 0,-54.1565 -43.8142,-97.9707 -97.9707,-97.9707 -54.1565,-10e-6 -97.97266,43.81421 -97.97266,97.9707 z m -4.08184,2.7e-4 c 0,56.36263 45.69094,102.05358 102.05358,102.05358 56.36263,0 102.05356,-45.69095 102.05356,-102.05358 0,-56.36264 -45.69092,-102.05357 -102.05356,-102.05357 -56.36264,0 -102.05358,45.69093 -102.05358,102.05357 z"
       id="path846"
       inkscape:connector-curvature="0"
       sodipodi:nodetypes="zzzzzzzzzz" />
    <path
       sodipodi:nodetypes="ccccc"
       inkscape:connector-curvature="0"
       id="path851"
       d="m 252.33651,630.97977 v 77.39065 h 4.08295 v -77.38995 z"
       style="opacity:1;fill:none;fill-opacity:0.501961;fill-rule:evenodd;stroke:#000000;stroke-width:0.264583;stroke-linecap:round;stroke-linejoin:round;stroke-miterlimit:4;stroke-dasharray:none;stroke-dashoffset:0;stroke-opacity:1" />
    <path
       style="opacity:1;fill:none;fill-opacity:0.501961;fill-rule:evenodd;stroke:#000000;stroke-width:0.264583;stroke-linecap:round;stroke-linejoin:round;stroke-miterlimit:4;stroke-dasharray:none;stroke-dashoffset:0;stroke-opacity:1"
       d="m 622.94257,630.97977 c 0,101.19181 -82.03218,183.22398 -183.22398,183.22398 -101.1918,0 -183.22394,-82.03217 -183.22394,-183.22398 0,-101.19181 82.03214,-183.22396 183.22394,-183.22396 101.19181,0 183.22398,82.03215 183.22398,183.22396 z m 4.08241,7e-4 c 0,103.39795 -83.9087,187.30469 -187.30664,187.30469 -103.39795,0 -187.30664,-83.90674 -187.30664,-187.30469 0,-103.39795 83.90869,-187.30664 187.30664,-187.30664 103.39795,0 187.30664,83.90868 187.30664,187.30664 z"
       id="path1"
       inkscape:connector-curvature="0"
       sodipodi:nodetypes="zzzzzzzzzz" />
    <path
       sodipodi:nodetypes="zzzzz"
       inkscape:connector-curvature="0"
       id="path2"
       d="m 297.31575,630.97977 c 0,78.64679 63.7558,142.4026 142.40259,142.4026 78.64677,0 142.40259,-63.75581 142.40259,-142.4026 0,-78.64678 -63.75582,-142.40259 -142.40259,-142.40259 -78.6468,0 -142.40259,63.75581 -142.40259,142.40259 z"
       style="opacity:1;fill:none;fill-opacity:0.501961;fill-rule:evenodd;stroke:#000000;stroke-width:0.264583;stroke-linecap:round;stroke-linejoin:round;stroke-miterlimit:4;stroke-dasharray:none;stroke-dashoffset:0;stroke-opacity:1" />
    <path
       style="fill:#ffffff;fill-opacity:1;stroke:#000000;stroke-width:0.264583;stroke-linecap:round;stroke-linejoin:round;stroke-miterlimit:155"
       d="m 69.037615,627.52634 1e-5,6.90687"
       id="path4" />
    <path
       style="fill:#ffffff;fill-opacity:1;stroke:#000000;stroke-width:0.264583;stroke-linecap:round;stroke-linejoin:round;stroke-miterlimit:155"
       d="m 72.49105,630.97977 -6.90686,10e-6"
       id="path5" />
    <path
       style="fill:#ffffff;fill-opacity:1;stroke:#000000;stroke-width:0.264583;stroke-linecap:round;stroke-linejoin:round;stroke-miterlimit:155"
       d="m 439.71833,627.52606 1e-5,6.90687"
       id="path6" />
    <path
       style="fill:#ffffff;fill-opacity:1;stroke:#000000;stroke-width:0.264583;stroke-linecap:round;stroke-linejoin:round;stroke-miterlimit:155"
       d="m 443.17177,630.97949 -6.90686,10e-6"
       id="path7" />
    <path
       style="fill:#ffffff;fill-opacity:1;stroke:#000000;stroke-width:0.264583;stroke-linecap:round;stroke-linejoin:round;stroke-miterlimit:155"
       d="m 254.37797,533.93942 1e-5,6.90687"
       id="path8" />
    <path
       style="fill:#ffffff;fill-opacity:1;stroke:#000000;stroke-width:0.264583;stroke-linecap:round;stroke-linejoin:round;stroke-miterlimit:155"
       d="m 257.83141,537.39285 -6.90686,1e-5"
       id="path9" />
  </g>
</svg>
