<?xml version="1.0" encoding="UTF-8" standalone="no"?>
<!-- Created with Inkscape (http://www.inkscape.org/) -->

<svg
   xmlns:dc="http://purl.org/dc/elements/1.1/"
   xmlns:cc="http://creativecommons.org/ns#"
   xmlns:rdf="http://www.w3.org/1999/02/22-rdf-syntax-ns#"
   xmlns:svg="http://www.w3.org/2000/svg"
   xmlns="http://www.w3.org/2000/svg"
   xmlns:sodipodi="http://sodipodi.sourceforge.net/DTD/sodipodi-0.dtd"
   xmlns:inkscape="http://www.inkscape.org/namespaces/inkscape"
   width="2736"
   height="1800"
   viewBox="0 0 723.9 476.25001"
   version="1.1"
   id="svg8"
   inkscape:export-filename="C:\Users\厂永刄先生\Documents\GXI3CW2\JáÈŭcèŭ\N̂i\都道府県\沖縄県.png"
   inkscape:export-xdpi="96"
   inkscape:export-ydpi="96"
   inkscape:version="0.92.4 (5da689c313, 2019-01-14)"
   sodipodi:docname="茨城県.svg">
  <defs
     id="defs2" />
  <sodipodi:namedview
     id="base"
     pagecolor="#ffffff"
     bordercolor="#666666"
     borderopacity="1.0"
     inkscape:pageopacity="0.0"
     inkscape:pageshadow="2"
     inkscape:zoom="0.30222223"
     inkscape:cx="1368"
     inkscape:cy="900.00001"
     inkscape:document-units="px"
     inkscape:current-layer="layer1"
     showgrid="false"
     units="px"
     fit-margin-top="0"
     fit-margin-left="0"
     fit-margin-right="0"
     fit-margin-bottom="0"
     inkscape:showpageshadow="false"
     inkscape:snap-intersection-paths="false"
     inkscape:object-paths="false"
     inkscape:pagecheckerboard="true"
     inkscape:snap-smooth-nodes="false"
     inkscape:window-width="1366"
     inkscape:window-height="745"
     inkscape:window-x="-8"
     inkscape:window-y="-8"
     inkscape:window-maximized="1"
     inkscape:object-nodes="true"
     inkscape:snap-nodes="true"
     showguides="false" />
  <metadata
     id="metadata5">
    <rdf:RDF>
      <cc:Work
         rdf:about="">
        <dc:format>image/svg+xml</dc:format>
        <dc:type
           rdf:resource="http://purl.org/dc/dcmitype/StillImage" />
        <dc:title />
      </cc:Work>
    </rdf:RDF>
  </metadata>
  <g
     inkscape:label="レイヤー 1"
     inkscape:groupmode="layer"
     id="layer1"
     transform="translate(112.33452,-299.26786)">
    <path
       style="opacity:1;fill:#3b4aa8;fill-opacity:1;fill-rule:evenodd;stroke:none;stroke-width:0.08456222;stroke-linecap:round;stroke-linejoin:round;stroke-miterlimit:4;stroke-dasharray:none;stroke-dashoffset:0;stroke-opacity:0.50196078"
       d="m 611.56548,299.26786 v 476.25 h -714.375 v -476.25 z"
       id="path822"
       inkscape:connector-curvature="0"
       sodipodi:nodetypes="ccccc" />
    <path
       style="fill:#ffffff;fill-opacity:1;stroke:none;stroke-width:0.51166773px;stroke-linecap:butt;stroke-linejoin:miter;stroke-opacity:1"
       d="m -102.80952,299.26786 h -9.525 v 476.25 h 9.525 z"
       id="path1079"
       inkscape:connector-curvature="0"
       sodipodi:nodetypes="ccccc" />
    <path
       sodipodi:nodetypes="csssssssssscssssssssssc"
       inkscape:connector-curvature="0"
       id="path846"
       d="m 225.80298,465.14465 c 0,9.63925 7.67608,17.4534 17.14499,17.4534 9.46893,0 18.7325,-7.81415 18.7325,-17.4534 0,-12.85234 -10.23477,-23.27121 -22.85999,-23.27121 -18.93784,0 -35.8775,15.62831 -35.8775,34.90681 0,25.70464 20.46954,46.54239 45.71999,46.54239 31.56307,10e-6 51.32917,-26.04717 51.32917,-58.17799 0,-32.13082 -25.58693,-58.178 -57.15,-58.178 -75.75138,0 -131.33916,62.51321 -131.33916,139.62717 0,77.11397 61.40861,139.62717 137.15999,139.62717 82.06399,-10e-6 148.59001,-67.72267 148.59001,-151.26278 0,-81.62445 -63.50997,-148.14792 -142.96966,-151.15597 40.00388,14.34867 68.67466,42.05136 68.67466,87.68327 0,38.557 -32.29181,69.81362 -70.1675,69.81362 -38.98751,0 -68.58,-20.14412 -68.58,-58.70111 0,-32.13082 22.9411,-53.41549 54.50416,-53.4155 18.93785,0 34.29001,15.6283 34.29001,34.9068 0,19.2785 -11.11883,30.1443 -30.05668,30.1443 -12.62522,0 -22.85999,-10.41887 -22.85999,-23.2712 0,-9.63924 7.67608,-17.4534 17.145,-17.4534 9.46892,0 17.145,5.20944 17.145,11.63561 0,6.42616 -5.11739,11.6356 -11.43001,11.6356 -9.46891,0 -17.14499,-5.20944 -17.14499,-11.63558 z"
       style="opacity:1;fill:#ffffff;fill-opacity:1;fill-rule:evenodd;stroke:none;stroke-width:0.02270553;stroke-linecap:round;stroke-linejoin:round;stroke-miterlimit:4;stroke-dasharray:none;stroke-dashoffset:0;stroke-opacity:1" />
  </g>
</svg>
