<?xml version="1.0" encoding="UTF-8" standalone="no"?>
<!-- Created with Inkscape (http://www.inkscape.org/) -->

<svg
   width="2700"
   height="1800"
   viewBox="0 0 714.375 476.25001"
   version="1.1"
   id="svg8"
   inkscape:export-filename="C:\Users\厂永刄先生\Documents\GXI3CW2\JáÈŭcèŭ\N̂i\北海道\描き方.png"
   inkscape:export-xdpi="96"
   inkscape:export-ydpi="96"
   inkscape:version="1.3 (0e150ed6c4, 2023-07-21)"
   sodipodi:docname="jp_kg_const.svg"
   xmlns:inkscape="http://www.inkscape.org/namespaces/inkscape"
   xmlns:sodipodi="http://sodipodi.sourceforge.net/DTD/sodipodi-0.dtd"
   xmlns="http://www.w3.org/2000/svg"
   xmlns:svg="http://www.w3.org/2000/svg"
   xmlns:rdf="http://www.w3.org/1999/02/22-rdf-syntax-ns#"
   xmlns:cc="http://creativecommons.org/ns#"
   xmlns:dc="http://purl.org/dc/elements/1.1/">
  <defs
     id="defs2" />
  <sodipodi:namedview
     id="base"
     pagecolor="#ffffff"
     bordercolor="#666666"
     borderopacity="1.0"
     inkscape:pageopacity="0.0"
     inkscape:pageshadow="2"
     inkscape:zoom="1.0257762"
     inkscape:cx="2303.1339"
     inkscape:cy="1702.6131"
     inkscape:document-units="px"
     inkscape:current-layer="layer1"
     showgrid="false"
     units="px"
     fit-margin-top="0"
     fit-margin-left="0"
     fit-margin-right="0"
     fit-margin-bottom="0"
     inkscape:showpageshadow="false"
     inkscape:snap-intersection-paths="false"
     inkscape:object-paths="false"
     inkscape:pagecheckerboard="true"
     inkscape:snap-smooth-nodes="false"
     inkscape:window-width="1920"
     inkscape:window-height="1009"
     inkscape:window-x="-8"
     inkscape:window-y="-8"
     inkscape:window-maximized="1"
     inkscape:object-nodes="true"
     inkscape:snap-nodes="true"
     inkscape:deskcolor="#505050" />
  <metadata
     id="metadata5">
    <rdf:RDF>
      <cc:Work
         rdf:about="">
        <dc:format>image/svg+xml</dc:format>
        <dc:type
           rdf:resource="http://purl.org/dc/dcmitype/StillImage" />
      </cc:Work>
    </rdf:RDF>
  </metadata>
  <g
     inkscape:label="レイヤー 1"
     inkscape:groupmode="layer"
     id="layer1"
     transform="translate(102.80952,-299.26786)">
    <path
       style="opacity:1;fill:#d7edab;fill-opacity:1;fill-rule:evenodd;stroke:none;stroke-width:0.223731;stroke-linecap:round;stroke-linejoin:round;stroke-miterlimit:4;stroke-dasharray:none;stroke-dashoffset:0;stroke-opacity:0.501961"
       d="m -102.80952,299.26786 v 476.25 h 714.375 v -476.25 z"
       id="path814"
       inkscape:connector-curvature="0"
       sodipodi:nodetypes="ccccc" />
    <path
       sodipodi:nodetypes="ccccccccccccccc"
       inkscape:connector-curvature="0"
       id="path900"
       d="m 160.62091,670.71382 c 4.16502,-44.08451 16.91648,-85.66883 36.56159,-123.06484 29.15965,34.04771 48.8773,76.42123 55.09225,123.06484 h 63.94752 c -7.19526,-68.77759 -37.50469,-130.67465 -83.01871,-177.78915 6.68152,-8.25777 13.74754,-16.19144 21.17442,-23.77065 51.97343,53.0394 86.36961,123.36751 93.75706,201.5598 h 63.73927 C 402.63186,553.95069 342.85594,451.4112 254.37798,384.96381 c -25.92554,19.47021 -49.3853,42.04048 -69.83294,67.15818 -26.8805,-18.1062 -56.83435,-31.99928 -88.91706,-40.72775 v 66.4962 c 18.82515,6.65381 36.56315,15.60833 52.87739,26.52448 -28.65131,49.6506 -46.85732,106.08325 -51.62372,166.2989 z"
       style="fill:#ffffff;fill-opacity:1;fill-rule:evenodd;stroke:none;stroke-width:0.358272;stroke-linecap:butt;stroke-linejoin:bevel;stroke-miterlimit:4;stroke-dasharray:none;stroke-dashoffset:0;stroke-opacity:1" />
    <path
       style="opacity:1;fill:none;fill-opacity:1;fill-rule:evenodd;stroke:#000000;stroke-width:0.264583;stroke-linecap:round;stroke-linejoin:round;stroke-miterlimit:4;stroke-dasharray:none;stroke-dashoffset:0;stroke-opacity:1"
       d="m 611.56548,670.74286 h -714.375"
       id="path839"
       inkscape:connector-curvature="0"
       sodipodi:nodetypes="cc" />
    <path
       style="opacity:1;fill:none;fill-opacity:1;fill-rule:evenodd;stroke:#000000;stroke-width:0.264583;stroke-linecap:round;stroke-linejoin:round;stroke-miterlimit:4;stroke-dasharray:none;stroke-dashoffset:0;stroke-opacity:1"
       d="m 95.627978,775.51786 v -476.25"
       id="path863"
       inkscape:connector-curvature="0"
       sodipodi:nodetypes="cc" />
    <path
       style="opacity:1;fill:none;fill-opacity:0.559091;fill-rule:evenodd;stroke:#000000;stroke-width:0.264583;stroke-linecap:butt;stroke-linejoin:bevel;stroke-miterlimit:4;stroke-dasharray:none;stroke-dashoffset:0;stroke-opacity:1"
       d="m 413.12796,702.49286 c 0,219.18801 -177.68699,396.87504 -396.875001,396.87504 -219.188009,0 -396.874999,-177.68703 -396.874999,-396.87504 0,-219.18801 177.68699,-396.875 396.874999,-396.875 219.188011,0 396.875001,177.68699 396.875001,396.875 z m -63.5,0 c 2e-5,184.11794 -149.25706,333.37504 -333.375002,333.37504 -184.117948,0 -333.375018,-149.2571 -333.374998,-333.37504 0,-184.11793 149.25707,-333.375 333.374998,-333.375 184.117932,0 333.375002,149.25707 333.375002,333.375 z"
       id="path843"
       inkscape:connector-curvature="0"
       sodipodi:nodetypes="zzzzzssszs" />
    <path
       style="opacity:1;fill:none;fill-opacity:0.559091;fill-rule:evenodd;stroke:#000000;stroke-width:0.264583;stroke-linecap:butt;stroke-linejoin:bevel;stroke-miterlimit:4;stroke-dasharray:none;stroke-dashoffset:0;stroke-opacity:1"
       d="m -285.37204,702.49286 c -2e-5,166.5829 135.0421,301.62504 301.624998,301.62504 166.582902,0 301.625022,-135.04214 301.625002,-301.62504 0,-166.58289 -135.04211,-301.625 -301.625002,-301.625 -166.582888,0 -301.624998,135.04211 -301.624998,301.625 z m 539.75,0 c 0,131.51281 -106.6122,238.125 -238.125002,238.125 -131.512808,0 -238.124998,-106.61219 -238.124998,-238.125 0,-131.51281 106.61219,-238.125 238.124998,-238.125 131.512802,0 238.125002,106.61219 238.125002,238.125 z"
       id="circle851"
       inkscape:connector-curvature="0"
       sodipodi:nodetypes="ssszsssszs" />
    <path
       sodipodi:nodetypes="zzzzzssszs"
       inkscape:connector-curvature="0"
       id="path867"
       d="m 95.628,702.49286 c 0,219.18801 177.68699,396.87504 396.875,396.87504 219.18801,0 396.875,-177.68703 396.875,-396.87504 0,-219.18801 -177.68699,-396.875 -396.875,-396.875 -219.18801,0 -396.875,177.68699 -396.875,396.875 z m 63.5,0 c -2e-5,184.11794 149.25706,333.37504 333.375,333.37504 184.11795,0 333.37502,-149.2571 333.375,-333.37504 0,-184.11793 -149.25707,-333.375 -333.375,-333.375 -184.11793,0 -333.375,149.25707 -333.375,333.375 z"
       style="opacity:1;fill:none;fill-opacity:0.559091;fill-rule:evenodd;stroke:#000000;stroke-width:0.264583;stroke-linecap:butt;stroke-linejoin:bevel;stroke-miterlimit:4;stroke-dasharray:none;stroke-dashoffset:0;stroke-opacity:1" />
    <path
       style="fill:none;stroke:#000000;stroke-width:0.264583px;stroke-linecap:butt;stroke-linejoin:miter;stroke-opacity:1"
       d="m 492.503,717.04593 v -29.10612 m 14.55305,14.55306 h -29.1061"
       id="path2"
       inkscape:connector-curvature="0"
       sodipodi:nodetypes="cccc" />
    <path
       style="fill:none;stroke:#000000;stroke-width:0.264583px;stroke-linecap:butt;stroke-linejoin:miter;stroke-opacity:1"
       d="m 16.252959,717.04593 v -29.10612 m 14.55305,14.55306 h -29.1061"
       id="path1"
       inkscape:connector-curvature="0"
       sodipodi:nodetypes="cccc" />
  </g>
</svg>
