<?xml version="1.0" encoding="UTF-8" standalone="no"?>
<!-- Created with Inkscape (http://www.inkscape.org/) -->

<svg
   xmlns:dc="http://purl.org/dc/elements/1.1/"
   xmlns:cc="http://creativecommons.org/ns#"
   xmlns:rdf="http://www.w3.org/1999/02/22-rdf-syntax-ns#"
   xmlns:svg="http://www.w3.org/2000/svg"
   xmlns="http://www.w3.org/2000/svg"
   xmlns:sodipodi="http://sodipodi.sourceforge.net/DTD/sodipodi-0.dtd"
   xmlns:inkscape="http://www.inkscape.org/namespaces/inkscape"
   width="3636"
   height="1800.0002"
   viewBox="0 0 962.02499 476.25007"
   version="1.1"
   id="svg8"
   inkscape:export-filename="C:\Users\厂永刄先生\Documents\GXI3CW2\JáÈŭcèŭ\Àpùhocẁ\1989.png"
   inkscape:export-xdpi="96"
   inkscape:export-ydpi="96"
   inkscape:version="0.92.4 (5da689c313, 2019-01-14)"
   sodipodi:docname="1989.svg">
  <defs
     id="defs2" />
  <sodipodi:namedview
     id="base"
     pagecolor="#ffffff"
     bordercolor="#666666"
     borderopacity="1.0"
     inkscape:pageopacity="0.0"
     inkscape:pageshadow="2"
     inkscape:zoom="0.24532453"
     inkscape:cx="1818"
     inkscape:cy="900.00024"
     inkscape:document-units="px"
     inkscape:current-layer="layer1"
     showgrid="false"
     units="px"
     fit-margin-top="0"
     fit-margin-left="0"
     fit-margin-right="0"
     fit-margin-bottom="0"
     inkscape:showpageshadow="false"
     inkscape:snap-intersection-paths="false"
     inkscape:object-paths="false"
     inkscape:pagecheckerboard="true"
     inkscape:snap-smooth-nodes="true"
     inkscape:window-width="1366"
     inkscape:window-height="745"
     inkscape:window-x="-8"
     inkscape:window-y="-8"
     inkscape:window-maximized="1"
     inkscape:object-nodes="true"
     inkscape:snap-nodes="true" />
  <metadata
     id="metadata5">
    <rdf:RDF>
      <cc:Work
         rdf:about="">
        <dc:format>image/svg+xml</dc:format>
        <dc:type
           rdf:resource="http://purl.org/dc/dcmitype/StillImage" />
        <dc:title />
      </cc:Work>
    </rdf:RDF>
  </metadata>
  <g
     inkscape:label="レイヤー 1"
     inkscape:groupmode="layer"
     id="layer1"
     transform="translate(112.33452,-299.26786)">
    <path
       sodipodi:nodetypes="ccccc"
       inkscape:connector-curvature="0"
       id="path822"
       d="m 849.69048,299.26786 h -952.5 v 476.25 h 952.5 z"
       style="fill:#a00000;fill-opacity:1;stroke:none;stroke-width:1.54746151px;stroke-linecap:butt;stroke-linejoin:miter;stroke-opacity:1" />
    <path
       inkscape:connector-curvature="0"
       id="path878"
       style="font-style:normal;font-variant:normal;font-weight:normal;font-stretch:normal;font-size:50.79999924px;line-height:1.25;font-family:'Noto Serif';-inkscape-font-specification:'Noto Serif';text-align:center;letter-spacing:0px;word-spacing:0px;text-anchor:middle;fill:#ffc200;fill-opacity:1;stroke:none;stroke-width:0.26458332"
       d="m 58.099478,574.89128 q -5.0292,0 -8.4836,-2.3368 -3.4544,-2.3368 -5.2324,-6.5024 -1.727196,-4.2164 -1.727196,-9.8552 0,-5.4864 1.828796,-9.652 1.8796,-4.2164 5.4864,-6.5532 3.6068,-2.3876 8.9916,-2.3876 5.1816,0 7.7216,1.6256 2.54,1.6256 2.54,4.064 0,1.6256 -1.27,2.5908 -1.27,0.9652 -3.1496,0.9652 0,-1.5748 -0.5588,-3.048 -0.5588,-1.524 -1.8796,-2.4892 -1.27,-1.016 -3.5052,-1.016 -5.7404,0 -8.1788,4.1656 -2.3876,4.1148 -2.3876,11.7348 0,4.572 1.0668,8.0264 1.1176,3.4544 3.4036,5.3848 2.3368,1.9304 6.096,1.9304 3.7084,0 5.7912,-1.27 2.1336,-1.3208 3.4036,-3.048 0.4064,0.254 0.6604,0.762 0.3048,0.4572 0.3048,1.2192 0,1.27 -1.1684,2.5908 -1.1684,1.3208 -3.6068,2.2352 -2.3876,0.8636 -6.1468,0.8636 z" />
    <path
       inkscape:connector-curvature="0"
       id="path880"
       style="font-style:normal;font-variant:normal;font-weight:normal;font-stretch:normal;font-size:50.79999924px;line-height:1.25;font-family:'Noto Serif';-inkscape-font-specification:'Noto Serif';text-align:center;letter-spacing:0px;word-spacing:0px;text-anchor:middle;fill:#ffc200;fill-opacity:1;stroke:none;stroke-width:0.26458332"
       d="m 98.097309,567.45923 -1.0668,-1.84775 0.571924,-0.3302 q 1.495799,-0.8636 2.246857,-2.00113 0.72566,-1.18153 -0.468142,-3.24925 l -12.446,-21.5571 q -1.1176,-1.93574 -2.522252,-1.82867 -1.360658,0.0817 -2.812463,0.91987 l -0.571924,0.3302 -1.0668,-1.84775 12.802281,-7.3914 1.0668,1.84775 -0.571924,0.3302 q -1.495799,0.8636 -2.221457,2.04512 -0.751058,1.13753 0.442742,3.20525 l 5.1308,8.88681 14.298079,-8.255 -5.1308,-8.88681 q -1.1938,-2.06772 -2.55446,-1.98605 -1.38606,0.0377 -2.88185,0.90128 l -0.571928,0.3302 -1.0668,-1.84775 12.802278,-7.3914 1.0668,1.84775 -0.57192,0.3302 q -1.4958,0.8636 -2.22146,2.04512 -0.75106,1.13753 0.44274,3.20525 l 12.4714,21.6011 q 1.1176,1.93574 2.47826,1.85407 1.37925,-0.15106 2.83106,-0.98926 l 0.57192,-0.3302 1.0668,1.84775 -12.80228,7.3914 -1.0668,-1.84775 0.57193,-0.3302 q 1.49579,-0.8636 2.24685,-2.00113 0.72566,-1.18153 -0.46814,-3.24925 l -5.9436,-10.29462 -14.298079,8.255 5.943599,10.29462 q 1.1938,2.06772 2.57986,2.03005 1.36066,-0.0817 2.85646,-0.94527 l 0.57192,-0.3302 1.0668,1.84775 z" />
    <path
       inkscape:connector-curvature="0"
       id="path882"
       style="font-style:normal;font-variant:normal;font-weight:normal;font-stretch:normal;font-size:50.79999924px;line-height:1.25;font-family:'Noto Serif';-inkscape-font-specification:'Noto Serif';text-align:center;letter-spacing:0px;word-spacing:0px;text-anchor:middle;fill:#ffc200;fill-opacity:1;stroke:none;stroke-width:0.26458332"
       d="m 145.72225,534.22612 -1.84775,-1.0668 0.3302,-0.57193 q 0.8382,-1.4518 0.91987,-2.81246 0.10707,-1.40465 -1.82867,-2.52225 l -21.5571,-12.44601 q -2.06773,-1.1938 -3.20525,-0.44274 -1.18152,0.72568 -2.04513,2.22146 l -0.3302,0.57192 -1.84775,-1.06679 7.8994,-13.68217 1.84775,1.0668 -0.8382,1.45181 q -0.8382,1.4518 -0.94527,2.85646 -0.12566,1.33525 1.81008,2.45285 l 9.23875,5.334 1.0922,-1.89175 q 2.4638,-4.26742 5.03686,-6.18408 2.59845,-1.96065 5.26398,-2.00549 2.62154,-0.0702 5.1732,1.40296 3.87148,2.2352 4.76715,6.27185 0.89568,4.03664 -2.30472,9.5799 z m 13.71601,-23.75682 -1.84775,-1.06679 0.33019,-0.57193 q 0.8636,-1.4958 0.94528,-2.85645 0.0377,-1.38606 -2.03006,-2.57986 l -21.38113,-12.3444 q -2.06772,-1.1938 -3.20524,-0.44275 -1.18151,0.72568 -2.04513,2.22146 l -0.33019,0.57192 -1.84775,-1.0668 7.3914,-12.80228 1.84775,1.0668 -0.33021,0.57193 q -0.8636,1.4958 -0.90128,2.88186 -0.0817,1.36065 1.98606,2.55445 l 21.38113,12.3444 q 2.06772,1.1938 3.24924,0.46815 1.13751,-0.75108 2.00113,-2.24686 l 0.33021,-0.57192 1.84775,1.06679 z m -10.84932,13.91477 1.21919,-2.11171 q 2.159,-3.7395 1.46422,-6.1937 -0.69479,-2.45419 -3.90636,-4.30839 -3.6955,-2.13359 -6.2513,-1.26283 -2.57438,0.80136 -4.88578,4.80482 l -0.8382,1.45181 z" />
    <path
       inkscape:connector-curvature="0"
       id="path874"
       style="font-style:normal;font-variant:normal;font-weight:normal;font-stretch:normal;font-size:50.79999924px;line-height:1.25;font-family:'Noto Serif';-inkscape-font-specification:'Noto Serif';text-align:center;letter-spacing:0px;word-spacing:0px;text-anchor:middle;fill:#ffc200;fill-opacity:1;stroke:none;stroke-width:0.26458332"
       d="m -53.34849,500.43865 1.847751,-1.0668 0.4826,0.83589 q 0.7366,1.27583 1.752111,1.51075 1.040916,0.2789 3.60983,-0.1484 l 31.771289,-5.32091 1.9812,3.43154 -21.491942,25.66526 q -1.084418,1.27134 -1.187348,2.21065 -0.07754,0.98331 0.659063,2.25914 l 0.3302,0.57192 -1.847751,1.0668 -6.985,-12.09838 1.847751,-1.0668 0.5842,1.01187 q 1.524,2.63964 3.635718,1.42044 0.351952,-0.2032 0.6971,-0.51979 0.345149,-0.31659 0.727481,-0.77196 l 3.911339,-4.60457 -6.6802,-11.57044 -5.58458,0.99522 q -1.284459,0.21366 -2.120348,0.69626 -2.15571,1.2446 -0.47931,4.14821 l 0.5842,1.01186 -1.847751,1.0668 z m 18.327692,2.3821 5.7404,9.94266 6.124168,-7.17263 q 1.529339,-1.82151 2.914909,-3.38403 1.38557,-1.56253 2.766154,-2.82887 -1.761583,0.60643 -3.492791,0.9607 -1.731203,0.35426 -4.230724,0.80016 z" />
    <path
       inkscape:connector-curvature="0"
       id="path876"
       style="font-style:normal;font-variant:normal;font-weight:normal;font-stretch:normal;font-size:50.79999924px;line-height:1.25;font-family:'Noto Serif';-inkscape-font-specification:'Noto Serif';text-align:center;letter-spacing:0px;word-spacing:0px;text-anchor:middle;fill:#ffc200;fill-opacity:1;stroke:none;stroke-width:0.26458332"
       d="m 7.2943348,578.37732 q -3.2995568,-1.905 -4.8982909,-3.70791 -1.59873403,-1.80292 -1.91300993,-3.39217 -0.27028181,-1.56386 0.44091819,-2.7957 0.88900004,-1.53979 2.33947004,-1.81688 1.469064,-0.20769 3.1848336,0.78291 -0.8636,1.4958 -1.1348591,2.98163 -0.227265,1.51124 0.5541754,2.90094 0.7560405,1.4337 2.8237627,2.6275 1.4518052,0.8382 3.1898162,1.07908 1.712611,0.28487 3.618457,-0.37455 1.94984,-0.63403 3.955952,-2.58471 2.024705,-1.8813 4.056705,-5.40082 2.032,-3.51953 2.202148,-6.35423 0.239542,-2.8533 -0.765028,-5.07574 -0.960575,-2.19703 -2.554327,-3.70377 -1.524358,-1.52534 -2.976163,-2.36354 -1.143846,-0.6604 -2.187916,-1.08722 l -5.6134,9.7227 q -1.1176,1.93574 -0.366542,3.07327 0.820452,1.11893 2.272257,1.95713 l 0.571924,0.3302 -1.0668,1.84775 -12.8022808,-7.3914 1.0668,-1.84775 0.5719232,0.3302 q 1.4957991,0.8636 2.8564572,0.94527 1.3860582,0.0377 2.5798582,-2.03004 l 13.9700002,-24.19675 -12.9782569,-7.493 -13.97,24.19675 q -1.1938,2.06772 -0.4681418,3.24924 0.7510581,1.13753 2.2468572,2.00113 l 0.5719232,0.3302 -1.0668,1.84775 -12.8022797,-7.3914 1.0668,-1.84775 0.571923,0.3302 q 1.495799,0.8636 2.856458,0.94527 1.386057,0.0377 2.579857,-2.03004 l 12.446,-21.55711 q 1.1176,-1.93574 0.3225486,-3.09866 -0.7510582,-1.13753 -2.2028632,-1.97573 l -0.57192318,-0.3302 1.0668,-1.84776 30.22393978,17.4498 -1.0668,1.84776 -0.571924,-0.3302 q -1.495799,-0.8636 -2.881857,-0.90128 -1.360658,-0.0817 -2.554458,1.98605 l -5.4356,9.41474 q 1.736187,0.65043 4.067874,1.99663 2.067722,1.1938 3.949015,3.21851 1.950687,2.00611 3.060015,4.7583 1.134728,2.70819 0.861157,6.12843 -0.273571,3.42024 -2.584971,7.4237 -2.413,4.17944 -5.069058,6.34147 -2.612065,2.18742 -5.311628,2.79921 -2.699563,0.61178 -5.349662,0.0203 -2.6061053,-0.56609 -4.9817862,-1.93769 z" />
    <path
       style="fill:#ffffff;fill-opacity:1;stroke:none;stroke-width:0.51166773px;stroke-linecap:butt;stroke-linejoin:miter;stroke-opacity:1"
       d="m -102.80952,299.26786 h -9.525 v 476.25 h 9.525 z"
       id="path1079"
       inkscape:connector-curvature="0"
       sodipodi:nodetypes="ccccc" />
    <path
       style="fill:#ffc200;fill-opacity:1;stroke:none;stroke-width:2.82222128;stroke-linecap:butt;stroke-linejoin:miter;stroke-miterlimit:5.9000001;stroke-dasharray:none;stroke-opacity:1"
       d="m -0.94963615,457.53527 c 4.12823005,-1.01104 7.55210025,-4.51645 11.68031015,-5.5275 4.12823,-1.01104 12.5699,-0.48244 12.5699,-0.48244 0,0 -5.86673,-6.09284 -9.59343,-8.1364 -3.7266899,-2.04356 -8.6192501,-1.77224 -12.3459501,-3.81581 -3.7267,-2.04356 -9.59343,-8.13641 -9.59343,-8.13641 0,0 7.59679995,3.71886 11.79769,4.36458 4.2008902,0.64571 8.7056001,-1.2826 12.9064801,-0.63689 4.20089,0.64572 11.7977,4.36458 11.7977,4.36458 0,0 -3.08853,-7.87415 -5.74951,-11.1883 -2.66098,-3.31416 -7.28495,-4.93579 -9.94593,-8.24995 -2.6609799,-3.31415 -5.7494999,-11.1883 -5.7494999,-11.1883 0,0 5.5953799,6.34294 9.2293899,8.54712 3.63401,2.20418 8.53375,2.14652 12.16776,4.3507 3.63401,2.20417 9.2294,8.54712 9.2294,8.54712 0,0 0.15988,-8.4567 -1.03028,-12.53688 -1.19015,-4.08019 -4.84157,-7.34791 -6.03172,-11.4281 -1.19015,-4.0802 -1.03027,-12.53688 -1.03027,-12.53688 0,0 2.74212,8.00137 5.25601,11.42844 2.51388,3.42707 7.06272,5.24885 9.5766,8.67592 2.51389,3.42707 5.25601,11.42845 5.25601,11.42845 0,0 3.38395,-7.75178 3.84581,-11.97684 0.46187,-4.22505 -1.66111,-8.64136 -1.19924,-12.86642 0.46186,-4.22506 3.84581,-11.97684 3.84581,-11.97684 0,0 -0.52861,8.44168 0.48244,12.56989 1.01104,4.12823 4.51645,7.5521 5.52749,11.68031 1.01105,4.12823 0.48244,12.5699 0.48244,12.5699 0,0 6.09285,-5.86673 8.13641,-9.59343 2.04356,-3.72669 1.77224,-8.61926 3.81581,-12.34595 2.04356,-3.7267 8.13641,-9.59343 8.13641,-9.59343 0,0 -3.71886,7.5968 -4.36458,11.79769 -0.64572,4.20089 1.2826,8.7056 0.63688,12.90648 -0.64571,4.20089 -4.36457,11.7977 -4.36457,11.7977 0,0 7.87415,-3.08853 11.1883,-5.74951 3.31415,-2.66098 4.93579,-7.28495 8.24994,-9.94593 3.314152,-2.66098 11.188316,-5.74951 11.188316,-5.74951 0,0 -6.342954,5.59539 -8.547134,9.2294 -2.204172,3.63401 -2.146522,8.53375 -4.350692,12.16776 -2.20418,3.63401 -8.54713,9.2294 -8.54713,9.2294 0,0 8.4567,0.15988 12.536892,-1.03028 4.080194,-1.19015 7.347904,-4.84157 11.428094,-6.03172 4.08019,-1.19015 12.53689,-1.03027 12.53689,-1.03027 0,0 -8.00138,2.74212 -11.42845,5.25601 -3.42706,2.51388 -5.24885,7.06272 -8.67591,9.5766 -3.427074,2.51389 -11.428456,5.25601 -11.428456,5.25601 0,0 7.751782,3.38395 11.976846,3.84581 4.22505,0.46187 8.64136,-1.66111 12.86642,-1.19924 4.22506,0.46186 11.97735,3.84596 11.97735,3.84596 0,0 -8.44116,-0.52845 -12.56938,0.4826 -4.12823,1.01104 -7.5521,4.51645 -11.68031,5.52749 -4.128234,1.01105 -12.569906,0.48244 -12.569906,0.48244 0,0 5.86673,6.09285 9.593432,8.13641 3.726694,2.04356 8.619254,1.77224 12.345954,3.81581 3.7267,2.04356 9.59343,8.13641 9.59343,8.13641 0,0 -7.5968,-3.71886 -11.79769,-4.36458 -4.20089,-0.64572 -8.705604,1.2826 -12.906484,0.63688 -4.200892,-0.64571 -11.797702,-4.36457 -11.797702,-4.36457 0,0 3.08853,7.87415 5.74951,11.1883 2.66098,3.31415 7.284952,4.93579 9.945932,8.24994 2.660984,3.31415 5.749514,11.18831 5.749514,11.18831 0,0 -5.595394,-6.34295 -9.229404,-8.54713 -3.634012,-2.20417 -8.533752,-2.14652 -12.167762,-4.35069 -3.63401,-2.20418 -9.2294,-8.54712 -9.2294,-8.54712 0,0 -0.15988,8.45669 1.03028,12.53688 1.19015,4.08019 4.84157,7.3479 6.03172,11.4281 1.19015,4.08019 1.03027,12.53689 1.03027,12.53689 0,0 -2.74212,-8.00138 -5.25601,-11.42845 -2.51388,-3.42707 -7.06272,-5.24886 -9.5766,-8.67592 -2.51389,-3.42707 -5.25601,-11.42845 -5.25601,-11.42845 0,0 -3.38395,7.75178 -3.84581,11.97684 -0.46187,4.22505 1.66111,8.64137 1.19924,12.86643 -0.46186,4.22506 -3.84581,11.97684 -3.84581,11.97684 0,0 0.52861,-8.44168 -0.48244,-12.5699 -1.01104,-4.12822 -4.51645,-7.5521 -5.5275,-11.68032 -1.01104,-4.12822 -0.48244,-12.5699 -0.48244,-12.5699 0,0 -6.09284,5.86674 -8.1364,9.59343 -2.04356,3.7267 -1.77224,8.61927 -3.81581,12.34596 -2.04356,3.7267 -8.13641,9.59344 -8.13641,9.59344 0,0 3.71886,-7.59681 4.36458,-11.7977 0.64571,-4.20089 -1.2826,-8.7056 -0.63689,-12.90649 0.64572,-4.20088 4.36458,-11.79769 4.36458,-11.79769 0,0 -7.87415,3.08853 -11.1883,5.74951 -3.31416,2.66098 -4.93579,7.28495 -8.24994,9.94593 -3.31416,2.66097 -11.1883099,5.7495 -11.1883099,5.7495 0,0 6.3429499,-5.59538 8.5471199,-9.22939 2.20418,-3.63401 2.14653,-8.53375 4.3507,-12.16776 2.20417,-3.63401 8.54712,-9.2294 8.54712,-9.2294 0,0 -8.4567,-0.15988 -12.53688,1.03027 -4.08019,1.19016 -7.3479099,4.84158 -11.4281,6.03172 -4.08019005,1.19016 -12.53688,1.03027 -12.53688,1.03027 0,0 8.00137995,-2.74212 11.42844,-5.25601 3.4270701,-2.51389 5.2488501,-7.06272 8.67592,-9.5766 3.42707,-2.51389 11.42845,-5.25601 11.42845,-5.25601 0,0 -7.75178,-3.38395 -11.97684,-3.8458 -4.2250599,-0.46187 -8.64137,1.66111 -12.86642,1.19923 -4.2250601,-0.46186 -11.97735,-3.84596 -11.97735,-3.84596 0,0 8.4411599,0.52846 12.56937985,-0.48259 z m -0.40022995,2.57512 c 3.51263,0.38399 7.9481402,-1.89163 12.8665401,-1.19922 5.97529,0.8412 11.05787,3.3567 16.64778,5.79753 -5.27157,1.99188 -10.78252,3.25416 -15.24804,6.47981 -2.86442,2.0691 -4.6708399,6.63905 -8.6757801,9.57682 -0.69399,0.50907 -1.51583,0.98861 -2.37292,1.45253 0.67902,-0.10942 1.45155,-0.19879 1.94415,-0.34248 3.3921902,-0.98947 6.6192201,-4.78926 11.4282001,-6.03174 5.84237,-1.50948 11.5007,-1.13048 17.59916,-1.01462 -4.10803,3.85761 -8.71643,7.13275 -11.60763,11.82174 -1.85456,3.00776 -1.77464,7.92113 -4.35048,12.16791 -0.44635,0.73589 -1.02213,1.49343 -1.63644,2.25003 0.58546,-0.36095 1.26498,-0.73915 1.6651,-1.06041 2.75532,-2.21229 4.28259,-6.95776 8.25003,-9.94599 4.81999,-3.63035 10.19264,-5.44555 15.87123,-7.67228 -2.31909,5.13603 -5.32335,9.92543 -6.20007,15.3639 -0.56238,3.48852 1.39173,7.9973 0.63713,12.90655 -0.13076,0.85068 -0.37281,1.7709 -0.65082,2.705 0.40277,-0.55751 0.88584,-1.16697 1.13255,-1.61689 1.69899,-3.09831 1.29399,-8.06703 3.81588,-12.34606 3.06381,-5.19854 7.33285,-8.93159 11.72705,-13.16192 -0.17708,5.63255 -1.11984,11.20706 0.15139,16.56706 0.81543,3.43818 4.34623,6.85596 5.52775,11.68028 0.20474,0.83597 0.33327,1.77876 0.43388,2.74815 0.15876,-0.66921 0.37182,-1.41713 0.42758,-1.92722 0.38399,-3.51263 -1.89162,-7.94815 -1.19921,-12.86654 0.84119,-5.9753 3.35669,-11.05787 5.79752,-16.64778 1.99189,5.27156 3.25417,10.78252 6.47982,15.24804 2.06909,2.86441 6.63904,4.67084 9.57682,8.67578 0.50906,0.69399 0.9886,1.51583 1.45253,2.37292 -0.10943,-0.67902 -0.1988,-1.45155 -0.34249,-1.94415 -0.98946,-3.39219 -4.78926,-6.61923 -6.03174,-11.4282 -1.50948,-5.84236 -1.13048,-11.5007 -1.01462,-17.59916 3.85761,4.10803 7.13275,8.71643 11.82174,11.60764 3.00776,1.85456 7.92114,1.77463 12.167912,4.35048 0.73589,0.44635 1.49343,1.02211 2.25004,1.63644 -0.36095,-0.58547 -0.73915,-1.26498 -1.06041,-1.6651 -2.21228,-2.75532 -6.957762,-4.2826 -9.945992,-8.25003 -3.63035,-4.82 -5.44555,-10.19265 -7.67229,-15.87123 5.13604,2.31908 9.92544,5.32333 15.363922,6.20006 3.48851,0.56239 7.997294,-1.39172 12.906534,-0.63713 0.85069,0.13076 1.7709,0.3728 2.70501,0.65081 -0.55752,-0.40276 -1.16697,-0.88583 -1.6169,-1.13255 -3.0983,-1.69898 -8.06701,-1.29397 -12.346054,-3.81587 -5.198532,-3.06382 -8.931582,-7.33285 -13.161922,-11.72705 5.63255,0.17708 11.207062,1.11984 16.567076,-0.15139 3.43818,-0.81543 6.85594,-4.34623 11.68026,-5.52775 0.83598,-0.20474 1.77877,-0.33327 2.74765,-0.43404 -0.66972,-0.15891 -1.41764,-0.37197 -1.92774,-0.42773 -3.51263,-0.38399 -7.94813,1.89163 -12.86653,1.19922 -5.975306,-0.8412 -11.057876,-3.3567 -16.647786,-5.79753 5.27157,-1.99188 10.78252,-3.25416 15.248042,-6.47981 2.864414,-2.06909 4.670844,-6.63905 8.675784,-9.57682 0.69398,-0.50906 1.51583,-0.9886 2.37292,-1.45252 -0.67902,0.10942 -1.45155,0.19879 -1.94415,0.34248 -3.39219,0.98946 -6.61923,4.78926 -11.428214,6.03174 -5.842362,1.50948 -11.500692,1.13048 -17.599162,1.01462 4.10803,-3.85761 8.71644,-7.13275 11.60764,-11.82174 1.85456,-3.00776 1.77464,-7.92114 4.35048,-12.16791 0.446352,-0.73589 1.022122,-1.49343 1.636442,-2.25004 -0.58546,0.36095 -1.26498,0.73915 -1.665102,1.06041 -2.75532,2.21228 -4.28259,6.95776 -8.25003,9.94599 -4.82,3.63035 -10.19264,5.44555 -15.87123,7.67229 2.31908,-5.13604 5.32335,-9.92544 6.20007,-15.36392 0.56238,-3.48852 -1.39173,-7.9973 -0.63713,-12.90653 0.13076,-0.85069 0.3728,-1.7709 0.65081,-2.70501 -0.40276,0.55752 -0.88583,1.16697 -1.13255,1.61689 -1.69898,3.0983 -1.29398,8.06701 -3.81587,12.34605 -3.06381,5.19853 -7.33285,8.93158 -11.72705,13.16192 0.17708,-5.63254 1.11984,-11.20706 -0.15139,-16.56707 -0.81543,-3.43817 -4.34623,-6.85593 -5.52775,-11.68025 -0.20474,-0.83598 -0.33327,-1.77877 -0.43388,-2.74816 -0.15876,0.66921 -0.37183,1.41713 -0.42759,1.92723 -0.38398,3.51263 1.89163,7.94813 1.19922,12.86653 -0.8412,5.97529 -3.3567,11.05787 -5.79752,16.64778 -1.99189,-5.27157 -3.25417,-10.78252 -6.47981,-15.24804 -2.0691,-2.86441 -6.63905,-4.67084 -9.57683,-8.67578 -0.50906,-0.69398 -0.9886,-1.51583 -1.45252,-2.37292 0.10942,0.67902 0.19879,1.45155 0.34248,1.94415 0.98946,3.39219 4.78926,6.61923 6.03174,11.42821 1.50948,5.84236 1.13048,11.50069 1.01462,17.59916 -3.85761,-4.10803 -7.13275,-8.71644 -11.82174,-11.60764 -3.00776,-1.85456 -7.92113,-1.77464 -12.16791,-4.35048 -0.73589,-0.44635 -1.49343,-1.02212 -2.25004,-1.63644 0.36095,0.58546 0.73915,1.26497 1.06041,1.6651 2.21228,2.75531 6.95776,4.28259 9.94599,8.25002 3.63035,4.82 5.44555,10.19264 7.67229,15.87124 -5.13604,-2.31908 -9.92544,-5.32335 -15.36392,-6.20007 -3.48851,-0.56238 -7.9972899,1.39173 -12.90653,0.63713 -0.85069,-0.13076 -1.7709,-0.37281 -2.70501015,-0.65082 0.55752015,0.40277 1.16697005,0.88584 1.61690005,1.13255 3.0983002,1.69898 8.0670101,1.29399 12.3460501,3.81588 5.19853,3.06382 8.93158,7.33285 13.16192,11.72705 -5.63255,-0.17708 -11.20706,-1.11984 -16.56707,0.15139 -3.4381799,0.81543 -6.85594,4.34623 -11.68026005,5.52775 -0.83598005,0.20474 -1.77877005,0.33327 -2.74765005,0.43404 0.66972,0.15891 1.41764,0.37196 1.92773,0.42773 z"
       id="path850"
       inkscape:connector-curvature="0"
       sodipodi:nodetypes="zzczzczzczzczzczzczzczzczzczzczzczzczzczzczzczzczzczzczzczzczzczzczzczzczzczzczzczzczzczzczzczzczsscsscsscsscsscsscsscsscsscsscsscsscsscsscsscsscsscsscsscsscsscsscsscsscsscsscsscsscsscsscsscsscs" />
    <path
       style="opacity:1;fill:#ffc200;fill-opacity:1;fill-rule:evenodd;stroke:none;stroke-width:7.1412487;stroke-linecap:round;stroke-linejoin:round;stroke-miterlimit:5.9000001;stroke-dasharray:none;stroke-dashoffset:0;stroke-opacity:1"
       d="m 34.509231,458.01786 c 3e-6,11.83615 9.595101,21.43124 21.431249,21.43124 11.836148,0 21.431247,-9.59509 21.43125,-21.43124 3e-6,-11.83615 -9.595098,-21.43125 -21.43125,-21.43125 -11.836152,0 -21.431252,9.5951 -21.431249,21.43125 z m 45.243749,0 c 0,13.15128 -10.661219,23.8125 -23.8125,23.8125 -13.151281,0 -23.8125,-10.66122 -23.8125,-23.8125 0,-13.15128 10.661219,-23.8125 23.8125,-23.8125 13.151281,0 23.8125,10.66122 23.8125,23.8125 z"
       id="circle854"
       inkscape:connector-curvature="0"
       sodipodi:nodetypes="zzzzzzzzzz" />
    <path
       inkscape:connector-curvature="0"
       id="path868"
       style="font-style:normal;font-variant:normal;font-weight:normal;font-stretch:normal;font-size:50.79999924px;line-height:1.25;font-family:'Noto Serif';-inkscape-font-specification:'Noto Serif';text-align:center;letter-spacing:0px;word-spacing:0px;text-anchor:middle;fill:#ffc200;fill-opacity:1;stroke:none;stroke-width:0.26458332"
       d="m 58.09948,378.43164 q -5.0292,0 -8.4836,-2.3368 -3.4544,-2.3368 -5.2324,-6.5024 -1.7272,-4.2164 -1.7272,-9.8552 0,-5.4864 1.8288,-9.652 1.8796,-4.2164 5.4864,-6.5532 3.6068,-2.3876 8.9916,-2.3876 5.1816,0 7.7216,1.6256 2.54,1.6256 2.54,4.064 0,1.6256 -1.27,2.5908 -1.27,0.9652 -3.1496,0.9652 0,-1.5748 -0.5588,-3.048 -0.5588,-1.524 -1.8796,-2.4892 -1.27,-1.016 -3.5052,-1.016 -5.7404,0 -8.1788,4.1656 -2.3876,4.1148 -2.3876,11.7348 0,4.572 1.0668,8.0264 1.1176,3.4544 3.4036,5.3848 2.3368,1.9304 6.096,1.9304 3.7084,0 5.7912,-1.27 2.1336,-1.3208 3.4036,-3.048 0.4064,0.254 0.6604,0.762 0.3048,0.4572 0.3048,1.2192 0,1.27 -1.1684,2.5908 -1.1684,1.3208 -3.6068,2.2352 -2.3876,0.8636 -6.1468,0.8636 z" />
    <path
       inkscape:connector-curvature="0"
       id="path870"
       style="font-style:normal;font-variant:normal;font-weight:normal;font-stretch:normal;font-size:50.79999924px;line-height:1.25;font-family:'Noto Serif';-inkscape-font-specification:'Noto Serif';text-align:center;letter-spacing:0px;word-spacing:0px;text-anchor:middle;fill:#ffc200;fill-opacity:1;stroke:none;stroke-width:0.26458332"
       d="m 18.017119,388.01467 q -4.355415,2.5146 -8.5154127,2.21807 -4.1599982,-0.29652 -7.7825913,-3.01504 -3.6039991,-2.78791 -6.4233991,-7.67125 -2.7432,-4.75137 -3.2422127,-9.27328 -0.4804187,-4.59131 1.4747617,-8.41844 1.9297805,-3.87112 6.59315406,-6.56352 4.48739724,-2.5908 7.49990174,-2.45299 3.0125043,0.13781 4.2317043,2.24953 0.8128,1.40781 0.195548,2.8787 -0.617252,1.47088 -2.2450336,2.41068 -0.7874,-1.36381 -2.007935,-2.36024 -1.245935,-1.04042 -2.8723814,-1.21591 -1.6078522,-0.24488 -3.5435922,0.87272 -4.9713323,2.8702 -5.0002486,7.69691 -0.010322,4.75732 3.79967775,11.35644 2.28599995,3.95946 4.93707585,6.41766 2.69507,2.4328 5.6400042,2.96158 2.988928,0.50337 6.244491,-1.37623 3.211568,-1.8542 4.380326,-3.99545 1.187352,-2.21065 1.423604,-4.34145 0.478953,0.0168 0.952923,0.32972 0.492565,0.24354 0.873565,0.90345 0.635,1.09986 0.283536,2.8279 -0.351464,1.72805 -2.005981,3.73914 -1.635922,1.9417 -4.891485,3.8213 z" />
    <path
       inkscape:connector-curvature="0"
       id="path872"
       style="font-style:normal;font-variant:normal;font-weight:normal;font-stretch:normal;font-size:50.79999924px;line-height:1.25;font-family:'Noto Serif';-inkscape-font-specification:'Noto Serif';text-align:center;letter-spacing:0px;word-spacing:0px;text-anchor:middle;fill:#ffc200;fill-opacity:1;stroke:none;stroke-width:0.26458332"
       d="m 84.141147,382.40127 1.0668,-1.84775 0.571923,0.3302 q 1.495799,0.8636 2.856458,0.94527 1.386058,0.0377 2.579858,-2.03004 l 12.446004,-21.55711 q 1.1176,-1.93574 0.32254,-3.09867 -0.75105,-1.13753 -2.20286,-1.97573 l -0.57192,-0.3302 1.0668,-1.84775 12.36234,7.1374 q 5.54325,3.2004 6.7605,7.18807 1.21724,3.98767 -1.24656,8.2551 -1.4986,2.59565 -3.96324,4.22294 -2.42066,1.65269 -5.82911,1.5619 -3.40845,-0.0908 -7.76386,-2.60539 l -2.771631,-1.6002 -4.2926,7.43501 q -1.1176,1.93574 -0.366542,3.07326 0.820452,1.11894 2.272257,1.95714 l 1.451805,0.8382 -1.0668,1.84775 z m 16.877843,-9.31968 2.33169,1.3462 q 4.00346,2.3114 6.73523,1.54224 2.80116,-0.78776 5.21416,-4.9672 2.1336,-3.6955 1.60981,-6.34426 -0.4984,-2.69276 -4.23789,-4.85176 l -2.9916,-1.7272 z" />
  </g>
</svg>
