<?xml version="1.0" encoding="UTF-8" standalone="no"?>
<!-- Created with Inkscape (http://www.inkscape.org/) -->

<svg
   xmlns:dc="http://purl.org/dc/elements/1.1/"
   xmlns:cc="http://creativecommons.org/ns#"
   xmlns:rdf="http://www.w3.org/1999/02/22-rdf-syntax-ns#"
   xmlns:svg="http://www.w3.org/2000/svg"
   xmlns="http://www.w3.org/2000/svg"
   xmlns:sodipodi="http://sodipodi.sourceforge.net/DTD/sodipodi-0.dtd"
   xmlns:inkscape="http://www.inkscape.org/namespaces/inkscape"
   width="3456.0115"
   height="1800.0002"
   viewBox="0 0 914.40303 476.25007"
   version="1.1"
   id="svg8"
   inkscape:export-filename="C:\Users\厂永刄先生\Documents\GXI3CW2\poM̕écèŭ\M̕é\11960年㋆㏣以來.png"
   inkscape:export-xdpi="96"
   inkscape:export-ydpi="96"
   inkscape:version="0.92.4 (5da689c313, 2019-01-14)"
   sodipodi:docname="1818 - コピー.svg">
  <defs
     id="defs2" />
  <sodipodi:namedview
     id="base"
     pagecolor="#ffffff"
     bordercolor="#666666"
     borderopacity="1.0"
     inkscape:pageopacity="0.0"
     inkscape:pageshadow="2"
     inkscape:zoom="0.56126973"
     inkscape:cx="720.00249"
     inkscape:cy="1315.3848"
     inkscape:document-units="px"
     inkscape:current-layer="layer1"
     showgrid="false"
     units="px"
     fit-margin-top="0"
     fit-margin-left="0"
     fit-margin-right="0"
     fit-margin-bottom="0"
     inkscape:showpageshadow="false"
     inkscape:snap-intersection-paths="true"
     inkscape:object-paths="false"
     inkscape:pagecheckerboard="true"
     inkscape:snap-smooth-nodes="false"
     inkscape:window-width="1366"
     inkscape:window-height="745"
     inkscape:window-x="-8"
     inkscape:window-y="-8"
     inkscape:window-maximized="1"
     inkscape:object-nodes="true"
     inkscape:snap-nodes="true" />
  <metadata
     id="metadata5">
    <rdf:RDF>
      <cc:Work
         rdf:about="">
        <dc:format>image/svg+xml</dc:format>
        <dc:type
           rdf:resource="http://purl.org/dc/dcmitype/StillImage" />
        <dc:title />
      </cc:Work>
    </rdf:RDF>
  </metadata>
  <g
     inkscape:label="レイヤー 1"
     inkscape:groupmode="layer"
     id="layer1"
     transform="translate(112.33452,-299.2678)">
    <path
       sodipodi:nodetypes="ccccc"
       inkscape:connector-curvature="0"
       id="path868"
       d="M 259.1418,555.71014 V 299.26778 l -361.95132,8e-5 0,256.44228 z"
       style="fill:#0a3161;fill-opacity:1;stroke:none;stroke-width:2.69729114px;stroke-linecap:butt;stroke-linejoin:miter;stroke-opacity:1" />
    <path
       style="fill:#ffffff;fill-opacity:1;stroke:none;stroke-width:0.51166773px;stroke-linecap:butt;stroke-linejoin:miter;stroke-opacity:1"
       d="m -102.80952,299.26786 h -9.525 v 476.25 h 9.525 z"
       id="path1079"
       inkscape:connector-curvature="0"
       sodipodi:nodetypes="ccccc" />
    <path
       sodipodi:nodetypes="ccccc"
       inkscape:connector-curvature="0"
       id="path824"
       d="m -102.80952,738.88324 v 36.63462 H 802.0685 v -36.63462 z"
       style="fill:#b31942;fill-opacity:1;stroke:none;stroke-width:2.28030705px;stroke-linecap:butt;stroke-linejoin:miter;stroke-opacity:1" />
    <path
       style="fill:#ffffff;fill-opacity:1;stroke:none;stroke-width:2.28030705px;stroke-linecap:butt;stroke-linejoin:miter;stroke-opacity:1"
       d="m -102.80952,702.24862 v 36.63462 H 802.0685 v -36.63462 z"
       id="path828"
       inkscape:connector-curvature="0"
       sodipodi:nodetypes="ccccc" />
    <path
       style="fill:#b31942;fill-opacity:1;stroke:none;stroke-width:2.28030705px;stroke-linecap:butt;stroke-linejoin:miter;stroke-opacity:1"
       d="m -102.80952,665.614 v 36.63462 H 802.0685 V 665.614 Z"
       id="path830"
       inkscape:connector-curvature="0"
       sodipodi:nodetypes="ccccc" />
    <path
       sodipodi:nodetypes="ccccc"
       inkscape:connector-curvature="0"
       id="path832"
       d="M -102.80952,628.97938 V 665.614 H 802.0685 v -36.63462 z"
       style="fill:#ffffff;fill-opacity:1;stroke:none;stroke-width:2.28030705px;stroke-linecap:butt;stroke-linejoin:miter;stroke-opacity:1" />
    <path
       sodipodi:nodetypes="ccccc"
       inkscape:connector-curvature="0"
       id="path834"
       d="m -102.80952,592.34476 v 36.63462 H 802.0685 v -36.63462 z"
       style="fill:#b31942;fill-opacity:1;stroke:none;stroke-width:2.28030705px;stroke-linecap:butt;stroke-linejoin:miter;stroke-opacity:1" />
    <path
       style="fill:#ffffff;fill-opacity:1;stroke:none;stroke-width:2.28030705px;stroke-linecap:butt;stroke-linejoin:miter;stroke-opacity:1"
       d="m -102.80952,555.71014 v 36.63462 H 802.0685 v -36.63462 z"
       id="path836"
       inkscape:connector-curvature="0"
       sodipodi:nodetypes="ccccc" />
    <path
       style="fill:#b31942;fill-opacity:1;stroke:none;stroke-width:2.28030705px;stroke-linecap:butt;stroke-linejoin:miter;stroke-opacity:1"
       d="m 259.1418,519.07552 v 36.63462 h 542.9267 v -36.63462 z"
       id="path838"
       inkscape:connector-curvature="0"
       sodipodi:nodetypes="ccccc" />
    <path
       sodipodi:nodetypes="ccccc"
       inkscape:connector-curvature="0"
       id="path840"
       d="m 259.1418,482.4409 v 36.63462 H 802.0685 V 482.4409 Z"
       style="fill:#ffffff;fill-opacity:1;stroke:none;stroke-width:2.28030705px;stroke-linecap:butt;stroke-linejoin:miter;stroke-opacity:1" />
    <path
       sodipodi:nodetypes="ccccc"
       inkscape:connector-curvature="0"
       id="path842"
       d="M 259.1418,445.80628 V 482.4409 H 802.0685 V 445.80628 Z"
       style="fill:#b31942;fill-opacity:1;stroke:none;stroke-width:2.28030705px;stroke-linecap:butt;stroke-linejoin:miter;stroke-opacity:1" />
    <path
       sodipodi:nodetypes="ccccc"
       inkscape:connector-curvature="0"
       id="path844"
       d="m 259.1418,409.17166 v 36.63462 h 542.9267 v -36.63462 z"
       style="fill:#ffffff;fill-opacity:1;stroke:none;stroke-width:2.28030705px;stroke-linecap:butt;stroke-linejoin:miter;stroke-opacity:1" />
    <path
       sodipodi:nodetypes="ccccc"
       inkscape:connector-curvature="0"
       id="path846"
       d="m 259.1418,372.53704 v 36.63462 h 542.9267 v -36.63462 z"
       style="fill:#b31942;fill-opacity:1;stroke:none;stroke-width:2.28030705px;stroke-linecap:butt;stroke-linejoin:miter;stroke-opacity:1" />
    <path
       style="fill:#ffffff;fill-opacity:1;stroke:none;stroke-width:2.28030705px;stroke-linecap:butt;stroke-linejoin:miter;stroke-opacity:1"
       d="m 259.1418,335.90242 v 36.63462 h 542.9267 v -36.63462 z"
       id="path848"
       inkscape:connector-curvature="0"
       sodipodi:nodetypes="ccccc" />
    <path
       style="fill:#b31942;fill-opacity:1;stroke:none;stroke-width:2.28030705px;stroke-linecap:butt;stroke-linejoin:miter;stroke-opacity:1"
       d="m 259.1418,299.2678 v 36.63462 H 802.0685 V 299.2678 Z"
       id="path850"
       inkscape:connector-curvature="0"
       sodipodi:nodetypes="ccccc" />
    <path
       sodipodi:nodetypes="ccccccccccc"
       inkscape:connector-curvature="0"
       id="path1015"
       d="m 78.166139,334.78293 -7.314665,5.31441 2.793956,-8.5989 -7.314666,-5.3144 h 9.041419 l 2.793931,-8.5989 2.793965,8.5989 h 9.04141 l -7.314666,5.31441 2.793957,8.59889 z"
       style="fill:#ffffff;fill-opacity:1;stroke:none;stroke-width:0.22469057px;stroke-linecap:butt;stroke-linejoin:miter;stroke-opacity:1" />
    <path
       style="fill:#ffffff;fill-opacity:1;stroke:none;stroke-width:0.22469057px;stroke-linecap:butt;stroke-linejoin:miter;stroke-opacity:1"
       d="m 65.92312,372.46301 7.314665,5.31441 -2.793956,-8.59891 7.314666,-5.3144 h -9.041419 l -2.793931,-8.5989 -2.793965,8.5989 h -9.04141 l 7.314665,5.31441 -2.793956,8.5989 z"
       id="path1059"
       inkscape:connector-curvature="0"
       sodipodi:nodetypes="ccccccccccc" />
    <path
       sodipodi:nodetypes="ccccccccccc"
       inkscape:connector-curvature="0"
       id="path1061"
       d="m 53.680116,410.14308 7.314666,5.31441 -2.793956,-8.59891 7.314666,-5.3144 h -9.041419 l -2.793931,-8.5989 -2.793965,8.5989 h -9.04141 l 7.314665,5.31441 -2.793956,8.5989 z"
       style="fill:#ffffff;fill-opacity:1;stroke:none;stroke-width:0.22469057px;stroke-linecap:butt;stroke-linejoin:miter;stroke-opacity:1" />
    <path
       style="fill:#ffffff;fill-opacity:1;stroke:none;stroke-width:0.22469057px;stroke-linecap:butt;stroke-linejoin:miter;stroke-opacity:1"
       d="m -21.037509,406.85858 2.793947,8.5989 -7.314665,-5.31442 -7.314658,5.31442 2.793957,-8.5989 -7.314666,-5.31439 9.041419,-1e-5 2.793948,-8.5989 2.793947,8.59891 9.041419,-1e-5 z"
       id="path1063"
       inkscape:connector-curvature="0"
       sodipodi:nodetypes="ccccccccccc" />
    <path
       style="fill:#ffffff;fill-opacity:1;stroke:none;stroke-width:0.22469057px;stroke-linecap:butt;stroke-linejoin:miter;stroke-opacity:1"
       d="m 18.581661,406.85857 2.79395,8.5989 -7.314665,-5.31441 -7.3146542,5.31442 2.7939521,-8.5989 -7.3146642,-5.3144 9.0414193,-10e-6 2.793949,-8.59889 2.79395,8.5989 h 9.041417 z"
       id="path1065"
       inkscape:connector-curvature="0"
       sodipodi:nodetypes="ccccccccccc" />
    <path
       sodipodi:nodetypes="ccccccccccc"
       inkscape:connector-curvature="0"
       id="path1069"
       d="m 11.015064,430.14616 7.314661,-5.31442 H 9.2883012 l -2.7939419,-8.59889 -2.7939521,8.59889 -9.0414072,-1e-5 7.3146523,5.31442 -2.79394957,8.59889 7.31466157,-5.31442 7.3146577,5.31442 z"
       style="fill:#ffffff;fill-opacity:1;stroke:none;stroke-width:0.22469057px;stroke-linecap:butt;stroke-linejoin:miter;stroke-opacity:1" />
    <path
       style="fill:#ffffff;fill-opacity:1;stroke:none;stroke-width:0.22469057px;stroke-linecap:butt;stroke-linejoin:miter;stroke-opacity:1"
       d="m 43.067646,453.43374 7.314662,-5.31442 h -9.041425 l -2.793941,-8.5989 -2.793952,8.5989 -9.041409,-2e-5 7.314654,5.31442 -2.79395,8.5989 7.314662,-5.31442 7.314657,5.31442 z"
       id="path1071"
       inkscape:connector-curvature="0"
       sodipodi:nodetypes="ccccccccccc" />
    <path
       sodipodi:nodetypes="ccccccccccc"
       inkscape:connector-curvature="0"
       id="path1075"
       d="m 16.854881,523.47944 9.041427,1e-5 -7.314674,5.31441 2.793965,8.5989 -7.314657,-5.31441 -7.3146493,5.31442 2.7939478,-8.59891 -7.3146658,-5.3144 9.0414273,10e-6 2.79394,-8.59891 z"
       style="fill:#ffffff;fill-opacity:1;stroke:none;stroke-width:0.22469057px;stroke-linecap:butt;stroke-linejoin:miter;stroke-opacity:1" />
    <path
       sodipodi:nodetypes="ccccccccccc"
       inkscape:connector-curvature="0"
       id="path1077"
       d="m 29.097871,485.79937 9.041424,10e-6 -7.314662,5.31441 2.793961,8.5989 -7.314666,-5.31441 -7.314649,5.31442 2.793948,-8.59891 -7.314658,-5.31441 9.041419,1e-5 2.793957,-8.5989 z"
       style="fill:#ffffff;fill-opacity:1;stroke:none;stroke-width:0.22469057px;stroke-linecap:butt;stroke-linejoin:miter;stroke-opacity:1" />
    <path
       style="fill:#ffffff;fill-opacity:1;stroke:none;stroke-width:0.22469057px;stroke-linecap:butt;stroke-linejoin:miter;stroke-opacity:1"
       d="m 48.907485,500.1919 -2.793958,-8.59891 -2.793954,8.59891 -9.041413,-10e-6 7.314659,5.31441 -2.793965,8.59889 7.314666,-5.3144 7.314659,5.31441 -2.793959,-8.59891 7.314667,-5.3144 z"
       id="path1080"
       inkscape:connector-curvature="0"
       sodipodi:nodetypes="ccccccccccc" />
    <path
       sodipodi:nodetypes="ccccccccccc"
       inkscape:connector-curvature="0"
       id="path1082"
       d="m 80.960076,476.90433 -2.793959,-8.59889 -2.793954,8.5989 -9.041412,-10e-6 7.314658,5.31442 -2.793965,8.59888 7.314666,-5.31441 7.314659,5.31441 -2.793959,-8.5989 7.314667,-5.3144 z"
       style="fill:#ffffff;fill-opacity:1;stroke:none;stroke-width:0.22469057px;stroke-linecap:butt;stroke-linejoin:miter;stroke-opacity:1" />
    <path
       sodipodi:nodetypes="ccccccccccc"
       inkscape:connector-curvature="0"
       id="path1086"
       d="m 90.40916,372.46301 -7.314666,5.31441 2.793956,-8.59891 -7.314666,-5.3144 h 9.041419 l 2.793931,-8.5989 2.793965,8.5989 h 9.041411 l -7.314666,5.31441 2.793956,8.5989 z"
       style="fill:#ffffff;fill-opacity:1;stroke:none;stroke-width:0.22469057px;stroke-linecap:butt;stroke-linejoin:miter;stroke-opacity:1" />
    <path
       style="fill:#ffffff;fill-opacity:1;stroke:none;stroke-width:0.22469057px;stroke-linecap:butt;stroke-linejoin:miter;stroke-opacity:1"
       d="m 102.65216,410.14308 -7.314663,5.31441 2.793956,-8.59891 -7.314666,-5.3144 h 9.041419 l 2.793934,-8.5989 2.79396,8.5989 h 9.04141 l -7.31466,5.31441 2.79395,8.5989 z"
       id="path1088"
       inkscape:connector-curvature="0"
       sodipodi:nodetypes="ccccccccccc" />
    <path
       sodipodi:nodetypes="ccccccccccc"
       inkscape:connector-curvature="0"
       id="path1090"
       d="m 177.36979,406.85858 -2.79395,8.5989 7.31467,-5.31442 7.31465,5.31442 -2.79395,-8.5989 7.31466,-5.31439 -9.04142,-1e-5 -2.79394,-8.5989 -2.79395,8.59891 -9.04142,-1e-5 z"
       style="fill:#ffffff;fill-opacity:1;stroke:none;stroke-width:0.22469057px;stroke-linecap:butt;stroke-linejoin:miter;stroke-opacity:1" />
    <path
       sodipodi:nodetypes="ccccccccccc"
       inkscape:connector-curvature="0"
       id="path1092"
       d="m 137.75062,406.85857 -2.79395,8.5989 7.31466,-5.31441 7.31466,5.31442 -2.79395,-8.5989 7.31466,-5.3144 -9.04142,-10e-6 -2.79395,-8.59889 -2.79395,8.5989 h -9.04142 z"
       style="fill:#ffffff;fill-opacity:1;stroke:none;stroke-width:0.22469057px;stroke-linecap:butt;stroke-linejoin:miter;stroke-opacity:1" />
    <path
       style="fill:#ffffff;fill-opacity:1;stroke:none;stroke-width:0.22469057px;stroke-linecap:butt;stroke-linejoin:miter;stroke-opacity:1"
       d="m 145.31722,430.14616 -7.31467,-5.31442 h 9.04143 l 2.79394,-8.59889 2.79395,8.59889 9.04141,-1e-5 -7.31465,5.31442 2.79395,8.59889 -7.31467,-5.31442 -7.31465,5.31442 z"
       id="path1094"
       inkscape:connector-curvature="0"
       sodipodi:nodetypes="ccccccccccc" />
    <path
       sodipodi:nodetypes="ccccccccccc"
       inkscape:connector-curvature="0"
       id="path1096"
       d="m 113.26463,453.43374 -7.31466,-5.31442 h 9.04143 l 2.79394,-8.5989 2.79395,8.5989 9.04141,-2e-5 -7.31466,5.31442 2.79395,8.5989 -7.31466,-5.31442 -7.31466,5.31442 z"
       style="fill:#ffffff;fill-opacity:1;stroke:none;stroke-width:0.22469057px;stroke-linecap:butt;stroke-linejoin:miter;stroke-opacity:1" />
    <path
       style="fill:#ffffff;fill-opacity:1;stroke:none;stroke-width:0.22469057px;stroke-linecap:butt;stroke-linejoin:miter;stroke-opacity:1"
       d="m 139.4774,523.47944 -9.04143,1e-5 7.31468,5.31441 -2.79397,8.5989 7.31466,-5.31441 7.31465,5.31442 -2.79395,-8.59891 7.31466,-5.3144 -9.04142,10e-6 -2.79394,-8.59891 z"
       id="path1098"
       inkscape:connector-curvature="0"
       sodipodi:nodetypes="ccccccccccc" />
    <path
       style="fill:#ffffff;fill-opacity:1;stroke:none;stroke-width:0.22469057px;stroke-linecap:butt;stroke-linejoin:miter;stroke-opacity:1"
       d="m 127.23441,485.79937 -9.04143,10e-6 7.31467,5.31441 -2.79397,8.5989 7.31467,-5.31441 7.31465,5.31442 -2.79395,-8.59891 7.31466,-5.31441 -9.04142,1e-5 -2.79396,-8.5989 z"
       id="path1100"
       inkscape:connector-curvature="0"
       sodipodi:nodetypes="ccccccccccc" />
    <path
       sodipodi:nodetypes="ccccccccccc"
       inkscape:connector-curvature="0"
       id="path1102"
       d="m 107.42479,500.1919 2.79396,-8.59891 2.79396,8.59891 9.04141,-10e-6 -7.31466,5.31441 2.79397,8.59889 -7.31467,-5.3144 -7.31466,5.31441 2.79396,-8.59891 -7.314668,-5.3144 z"
       style="fill:#ffffff;fill-opacity:1;stroke:none;stroke-width:0.22469057px;stroke-linecap:butt;stroke-linejoin:miter;stroke-opacity:1" />
    <path
       style="fill:#ffffff;fill-opacity:1;stroke:none;stroke-width:0.26458332px;stroke-linecap:butt;stroke-linejoin:miter;stroke-opacity:1"
       d="m 95.337494,462.72611 -6.558886,-20.18612 17.171362,-12.47571 -21.224974,0 -6.558881,-20.18612 -6.55887,20.18612 -21.224941,0 17.171342,12.4757 -6.558867,20.18613 17.171355,-12.47571 z"
       id="path887"
       inkscape:connector-curvature="0"
       sodipodi:nodetypes="ccccccccccc" />
  </g>
</svg>
