<?xml version="1.0" encoding="UTF-8" standalone="no"?>
<!-- Created with Inkscape (http://www.inkscape.org/) -->

<svg
   xmlns:dc="http://purl.org/dc/elements/1.1/"
   xmlns:cc="http://creativecommons.org/ns#"
   xmlns:rdf="http://www.w3.org/1999/02/22-rdf-syntax-ns#"
   xmlns:svg="http://www.w3.org/2000/svg"
   xmlns="http://www.w3.org/2000/svg"
   xmlns:sodipodi="http://sodipodi.sourceforge.net/DTD/sodipodi-0.dtd"
   xmlns:inkscape="http://www.inkscape.org/namespaces/inkscape"
   width="3456.0115"
   height="1800.0002"
   viewBox="0 0 914.40303 476.25007"
   version="1.1"
   id="svg8"
   inkscape:export-filename="C:\Users\厂永刄先生\Documents\GXI3CW2\poM̕écèŭ\M̕é\1822.png"
   inkscape:export-xdpi="96"
   inkscape:export-ydpi="96"
   inkscape:version="0.92.4 (5da689c313, 2019-01-14)"
   sodipodi:docname="1822.svg">
  <defs
     id="defs2" />
  <sodipodi:namedview
     id="base"
     pagecolor="#ffffff"
     bordercolor="#666666"
     borderopacity="1.0"
     inkscape:pageopacity="0.0"
     inkscape:pageshadow="2"
     inkscape:zoom="0.56126977"
     inkscape:cx="720.00228"
     inkscape:cy="1315.3848"
     inkscape:document-units="px"
     inkscape:current-layer="layer1"
     showgrid="false"
     units="px"
     fit-margin-top="0"
     fit-margin-left="0"
     fit-margin-right="0"
     fit-margin-bottom="0"
     inkscape:showpageshadow="false"
     inkscape:snap-intersection-paths="true"
     inkscape:object-paths="false"
     inkscape:pagecheckerboard="true"
     inkscape:snap-smooth-nodes="false"
     inkscape:window-width="1366"
     inkscape:window-height="745"
     inkscape:window-x="-8"
     inkscape:window-y="-8"
     inkscape:window-maximized="1"
     inkscape:object-nodes="true"
     inkscape:snap-nodes="true" />
  <metadata
     id="metadata5">
    <rdf:RDF>
      <cc:Work
         rdf:about="">
        <dc:format>image/svg+xml</dc:format>
        <dc:type
           rdf:resource="http://purl.org/dc/dcmitype/StillImage" />
        <dc:title />
      </cc:Work>
    </rdf:RDF>
  </metadata>
  <g
     inkscape:label="レイヤー 1"
     inkscape:groupmode="layer"
     id="layer1"
     transform="translate(112.33452,-299.2678)">
    <path
       style="fill:#ffffff;fill-opacity:1;stroke:none;stroke-width:0.51166773px;stroke-linecap:butt;stroke-linejoin:miter;stroke-opacity:1"
       d="m -102.80952,299.26786 h -9.525 v 476.25 h 9.525 z"
       id="path1079"
       inkscape:connector-curvature="0"
       sodipodi:nodetypes="ccccc" />
    <path
       sodipodi:nodetypes="ccccc"
       inkscape:connector-curvature="0"
       id="path824"
       d="m -102.80952,738.88324 v 36.63462 H 802.0685 v -36.63462 z"
       style="fill:#b31942;fill-opacity:1;stroke:none;stroke-width:2.28030705px;stroke-linecap:butt;stroke-linejoin:miter;stroke-opacity:1" />
    <path
       style="fill:#ffffff;fill-opacity:1;stroke:none;stroke-width:2.28030705px;stroke-linecap:butt;stroke-linejoin:miter;stroke-opacity:1"
       d="m -102.80952,702.24862 v 36.63462 H 802.0685 v -36.63462 z"
       id="path828"
       inkscape:connector-curvature="0"
       sodipodi:nodetypes="ccccc" />
    <path
       style="fill:#b31942;fill-opacity:1;stroke:none;stroke-width:2.28030705px;stroke-linecap:butt;stroke-linejoin:miter;stroke-opacity:1"
       d="m -102.80952,665.614 v 36.63462 H 802.0685 V 665.614 Z"
       id="path830"
       inkscape:connector-curvature="0"
       sodipodi:nodetypes="ccccc" />
    <path
       sodipodi:nodetypes="ccccc"
       inkscape:connector-curvature="0"
       id="path832"
       d="M -102.80952,628.97938 V 665.614 H 802.0685 v -36.63462 z"
       style="fill:#ffffff;fill-opacity:1;stroke:none;stroke-width:2.28030705px;stroke-linecap:butt;stroke-linejoin:miter;stroke-opacity:1" />
    <path
       sodipodi:nodetypes="ccccc"
       inkscape:connector-curvature="0"
       id="path834"
       d="m -102.80952,592.34476 v 36.63462 H 802.0685 v -36.63462 z"
       style="fill:#b31942;fill-opacity:1;stroke:none;stroke-width:2.28030705px;stroke-linecap:butt;stroke-linejoin:miter;stroke-opacity:1" />
    <path
       style="fill:#ffffff;fill-opacity:1;stroke:none;stroke-width:2.28030705px;stroke-linecap:butt;stroke-linejoin:miter;stroke-opacity:1"
       d="m -102.80952,555.71014 v 36.63462 H 802.0685 v -36.63462 z"
       id="path836"
       inkscape:connector-curvature="0"
       sodipodi:nodetypes="ccccc" />
    <path
       style="fill:#b31942;fill-opacity:1;stroke:none;stroke-width:2.28030705px;stroke-linecap:butt;stroke-linejoin:miter;stroke-opacity:1"
       d="m 259.14169,519.07552 v 36.63462 H 802.0685 v -36.63462 z"
       id="path838"
       inkscape:connector-curvature="0"
       sodipodi:nodetypes="ccccc" />
    <path
       sodipodi:nodetypes="ccccc"
       inkscape:connector-curvature="0"
       id="path840"
       d="m 259.14169,482.4409 v 36.63462 H 802.0685 V 482.4409 Z"
       style="fill:#ffffff;fill-opacity:1;stroke:none;stroke-width:2.28030705px;stroke-linecap:butt;stroke-linejoin:miter;stroke-opacity:1" />
    <path
       sodipodi:nodetypes="ccccc"
       inkscape:connector-curvature="0"
       id="path842"
       d="M 259.14169,445.80628 V 482.4409 H 802.0685 v -36.63462 z"
       style="fill:#b31942;fill-opacity:1;stroke:none;stroke-width:2.28030705px;stroke-linecap:butt;stroke-linejoin:miter;stroke-opacity:1" />
    <path
       sodipodi:nodetypes="ccccc"
       inkscape:connector-curvature="0"
       id="path844"
       d="m 259.14169,409.17166 v 36.63462 H 802.0685 v -36.63462 z"
       style="fill:#ffffff;fill-opacity:1;stroke:none;stroke-width:2.28030705px;stroke-linecap:butt;stroke-linejoin:miter;stroke-opacity:1" />
    <path
       sodipodi:nodetypes="ccccc"
       inkscape:connector-curvature="0"
       id="path846"
       d="m 259.14169,372.53704 v 36.63462 H 802.0685 v -36.63462 z"
       style="fill:#b31942;fill-opacity:1;stroke:none;stroke-width:2.28030705px;stroke-linecap:butt;stroke-linejoin:miter;stroke-opacity:1" />
    <path
       style="fill:#ffffff;fill-opacity:1;stroke:none;stroke-width:2.28030705px;stroke-linecap:butt;stroke-linejoin:miter;stroke-opacity:1"
       d="m 259.14169,335.90242 v 36.63462 H 802.0685 v -36.63462 z"
       id="path848"
       inkscape:connector-curvature="0"
       sodipodi:nodetypes="ccccc" />
    <path
       style="fill:#b31942;fill-opacity:1;stroke:none;stroke-width:2.28030705px;stroke-linecap:butt;stroke-linejoin:miter;stroke-opacity:1"
       d="m 259.14169,299.2678 v 36.63462 H 802.0685 V 299.2678 Z"
       id="path850"
       inkscape:connector-curvature="0"
       sodipodi:nodetypes="ccccc" />
    <path
       sodipodi:nodetypes="ccccc"
       inkscape:connector-curvature="0"
       id="path868"
       d="m -102.80952,299.2678 v 256.44234 l 361.95121,-6e-5 V 299.2678 Z"
       style="fill:#0a3161;fill-opacity:1;stroke:none;stroke-width:2.27037477px;stroke-linecap:butt;stroke-linejoin:miter;stroke-opacity:1" />
    <path
       style="fill:#ffffff;fill-opacity:1;stroke:none;stroke-width:0.26458332px;stroke-linecap:butt;stroke-linejoin:miter;stroke-opacity:1"
       d="m 207.43438,498.8243 -8.61335,-6.25796 3.29001,10.1256 -8.61335,6.25795 h 10.64668 l 3.28998,10.12559 3.29002,-10.12559 h 10.64667 l -8.61335,-6.25796 3.29001,-10.12559 z"
       id="path929"
       inkscape:connector-curvature="0"
       sodipodi:nodetypes="ccccccccccc" />
    <path
       sodipodi:nodetypes="ccccccccccc"
       inkscape:connector-curvature="0"
       id="path912"
       d="m 155.72707,447.53586 -8.61335,-6.25796 3.29001,10.1256 -8.61335,6.25795 h 10.64668 l 3.28998,10.12559 3.29002,-10.12559 h 10.64667 l -8.61335,-6.25796 3.29001,-10.12559 z"
       style="fill:#ffffff;fill-opacity:1;stroke:none;stroke-width:0.26458332px;stroke-linecap:butt;stroke-linejoin:miter;stroke-opacity:1" />
    <path
       style="fill:#ffffff;fill-opacity:1;stroke:none;stroke-width:0.26458332px;stroke-linecap:butt;stroke-linejoin:miter;stroke-opacity:1"
       d="m 52.312431,407.44208 8.613349,6.25796 -3.29001,-10.1256 8.613349,-6.25795 H 55.60244 l -3.289979,-10.12559 -3.29002,10.12559 H 38.375769 l 8.613352,6.25796 -3.290011,10.12559 z"
       id="path914"
       inkscape:connector-curvature="0"
       sodipodi:nodetypes="ccccccccccc" />
    <path
       sodipodi:nodetypes="ccccccccccc"
       inkscape:connector-curvature="0"
       id="path916"
       d="m 104.01974,458.73052 8.61335,6.25796 -3.29001,-10.1256 8.61335,-6.25795 h -10.64668 l -3.28998,-10.12559 -3.29002,10.12559 H 90.083078 l 8.613352,6.25796 -3.290011,10.12559 z"
       style="fill:#ffffff;fill-opacity:1;stroke:none;stroke-width:0.26458332px;stroke-linecap:butt;stroke-linejoin:miter;stroke-opacity:1" />
    <path
       style="fill:#ffffff;fill-opacity:1;stroke:none;stroke-width:0.26458332px;stroke-linecap:butt;stroke-linejoin:miter;stroke-opacity:1"
       d="m 0.60513,396.24742 -8.61335,-6.25796 3.29001,10.1256 -8.61335,6.25795 H -2.68488 L 0.6051,416.4986 3.89512,406.37301 h 10.64667 l -8.61335,-6.25796 3.29001,-10.12559 z"
       id="path918"
       inkscape:connector-curvature="0"
       sodipodi:nodetypes="ccccccccccc" />
    <path
       sodipodi:nodetypes="ccccccccccc"
       inkscape:connector-curvature="0"
       id="path920"
       d="m -51.10221,344.95895 -8.61335,-6.25796 3.29001,10.1256 -8.61335,6.25795 h 10.64668 l 3.28998,10.12559 3.29002,-10.12559 h 10.64667 l -8.61335,-6.25796 3.29001,-10.12559 z"
       style="fill:#ffffff;fill-opacity:1;stroke:none;stroke-width:0.26458332px;stroke-linecap:butt;stroke-linejoin:miter;stroke-opacity:1" />
    <path
       style="fill:#ffffff;fill-opacity:1;stroke:none;stroke-width:0.26458332px;stroke-linecap:butt;stroke-linejoin:miter;stroke-opacity:1"
       d="m 0.60510045,356.15364 8.61334865,6.25796 -3.29001,-10.1256 8.6133499,-6.25795 H 3.8951095 L 0.60513045,335.90246 -2.6848895,346.02805 H -13.331561 l 8.6133515,6.25796 -3.290011,10.12559 z"
       id="path922"
       inkscape:connector-curvature="0"
       sodipodi:nodetypes="ccccccccccc" />
    <path
       sodipodi:nodetypes="ccccccccccc"
       inkscape:connector-curvature="0"
       id="path924"
       d="m 104.01974,498.8243 -8.61335,-6.25796 3.29001,10.1256 -8.613349,6.25795 h 10.646679 l 3.28998,10.12559 3.29002,-10.12559 h 10.64667 l -8.61335,-6.25796 3.29001,-10.12559 z"
       style="fill:#ffffff;fill-opacity:1;stroke:none;stroke-width:0.26458332px;stroke-linecap:butt;stroke-linejoin:miter;stroke-opacity:1" />
    <path
       style="fill:#ffffff;fill-opacity:1;stroke:none;stroke-width:0.26458332px;stroke-linecap:butt;stroke-linejoin:miter;stroke-opacity:1"
       d="m 104.01974,356.15364 8.61335,6.25796 -3.29001,-10.1256 8.61335,-6.25795 h -10.64668 l -3.28998,-10.12559 -3.29002,10.12559 H 90.083078 l 8.613352,6.25796 -3.290011,10.12559 z"
       id="path926"
       inkscape:connector-curvature="0"
       sodipodi:nodetypes="ccccccccccc" />
    <path
       sodipodi:nodetypes="ccccccccccc"
       inkscape:connector-curvature="0"
       id="path928"
       d="m 0.60513,498.8243 -8.61335,-6.25796 3.29001,10.1256 -8.61335,6.25795 h 10.64668 l 3.28998,10.12559 3.29002,-10.12559 h 10.64667 l -8.61335,-6.25796 3.29001,-10.12559 z"
       style="fill:#ffffff;fill-opacity:1;stroke:none;stroke-width:0.26458332px;stroke-linecap:butt;stroke-linejoin:miter;stroke-opacity:1" />
    <path
       style="fill:#ffffff;fill-opacity:1;stroke:none;stroke-width:0.26458332px;stroke-linecap:butt;stroke-linejoin:miter;stroke-opacity:1"
       d="m 207.43438,356.15364 8.61335,6.25796 -3.29001,-10.1256 8.61335,-6.25795 h -10.64668 l -3.28998,-10.12559 -3.29002,10.12559 h -10.64667 l 8.61335,6.25796 -3.29001,10.12559 z"
       id="path930"
       inkscape:connector-curvature="0"
       sodipodi:nodetypes="ccccccccccc" />
    <path
       sodipodi:nodetypes="ccccccccccc"
       inkscape:connector-curvature="0"
       id="path932"
       d="m -51.102213,407.44208 8.613349,6.25796 -3.29001,-10.1256 8.61335,-6.25795 h -10.64668 l -3.289979,-10.12559 -3.29002,10.12559 h -10.646671 l 8.613351,6.25796 -3.290011,10.12559 z"
       style="fill:#ffffff;fill-opacity:1;stroke:none;stroke-width:0.26458332px;stroke-linecap:butt;stroke-linejoin:miter;stroke-opacity:1" />
    <path
       sodipodi:nodetypes="ccccccccccc"
       inkscape:connector-curvature="0"
       id="path934"
       d="m 52.31243,447.53586 -8.61335,-6.25796 3.29001,10.1256 -8.61335,6.25795 h 10.64668 l 3.28998,10.12559 3.29002,-10.12559 h 10.646672 l -8.613352,-6.25796 3.290011,-10.12559 z"
       style="fill:#ffffff;fill-opacity:1;stroke:none;stroke-width:0.26458332px;stroke-linecap:butt;stroke-linejoin:miter;stroke-opacity:1" />
    <path
       style="fill:#ffffff;fill-opacity:1;stroke:none;stroke-width:0.26458332px;stroke-linecap:butt;stroke-linejoin:miter;stroke-opacity:1"
       d="m 155.72704,407.44208 8.61335,6.25796 -3.29001,-10.1256 8.61335,-6.25795 h -10.64668 l -3.28998,-10.12559 -3.29002,10.12559 h -10.64667 l 8.61335,6.25796 -3.29001,10.12559 z"
       id="path936"
       inkscape:connector-curvature="0"
       sodipodi:nodetypes="ccccccccccc" />
    <path
       sodipodi:nodetypes="ccccccccccc"
       inkscape:connector-curvature="0"
       id="path938"
       d="m -51.10221,447.53586 -8.61335,-6.25796 3.29001,10.1256 -8.61335,6.25795 h 10.64668 l 3.28998,10.12559 3.29002,-10.12559 h 10.64667 l -8.61335,-6.25796 3.29001,-10.12559 z"
       style="fill:#ffffff;fill-opacity:1;stroke:none;stroke-width:0.26458332px;stroke-linecap:butt;stroke-linejoin:miter;stroke-opacity:1" />
    <path
       style="fill:#ffffff;fill-opacity:1;stroke:none;stroke-width:0.26458332px;stroke-linecap:butt;stroke-linejoin:miter;stroke-opacity:1"
       d="m 0.60510045,458.73052 8.61334865,6.25796 -3.29001,-10.1256 8.6133499,-6.25795 H 3.8951095 L 0.60513045,438.47934 -2.6848895,448.60493 H -13.331561 l 8.6133515,6.25796 -3.290011,10.12559 z"
       id="path940"
       inkscape:connector-curvature="0"
       sodipodi:nodetypes="ccccccccccc" />
    <path
       sodipodi:nodetypes="ccccccccccc"
       inkscape:connector-curvature="0"
       id="path942"
       d="m 104.01974,396.24742 -8.61335,-6.25796 3.29001,10.1256 -8.613349,6.25795 h 10.646679 l 3.28998,10.12559 3.29002,-10.12559 h 10.64667 l -8.61335,-6.25796 3.29001,-10.12559 z"
       style="fill:#ffffff;fill-opacity:1;stroke:none;stroke-width:0.26458332px;stroke-linecap:butt;stroke-linejoin:miter;stroke-opacity:1" />
    <path
       style="fill:#ffffff;fill-opacity:1;stroke:none;stroke-width:0.26458332px;stroke-linecap:butt;stroke-linejoin:miter;stroke-opacity:1"
       d="m 207.43438,396.24742 -8.61335,-6.25796 3.29001,10.1256 -8.61335,6.25795 h 10.64668 l 3.28998,10.12559 3.29002,-10.12559 h 10.64667 l -8.61335,-6.25796 3.29001,-10.12559 z"
       id="path944"
       inkscape:connector-curvature="0"
       sodipodi:nodetypes="ccccccccccc" />
    <path
       style="fill:#ffffff;fill-opacity:1;stroke:none;stroke-width:0.26458332px;stroke-linecap:butt;stroke-linejoin:miter;stroke-opacity:1"
       d="m 207.43438,458.73052 8.61335,6.25796 -3.29001,-10.1256 8.61335,-6.25795 h -10.64668 l -3.28998,-10.12559 -3.29002,10.12559 h -10.64667 l 8.61335,6.25796 -3.29001,10.12559 z"
       id="path946"
       inkscape:connector-curvature="0"
       sodipodi:nodetypes="ccccccccccc" />
    <path
       style="fill:#ffffff;fill-opacity:1;stroke:none;stroke-width:0.26458332px;stroke-linecap:butt;stroke-linejoin:miter;stroke-opacity:1"
       d="m 52.31243,344.95895 -8.61335,-6.25796 3.29001,10.1256 -8.61335,6.25795 h 10.64668 l 3.28998,10.12559 3.29002,-10.12559 h 10.646672 l -8.613352,-6.25796 3.290011,-10.12559 z"
       id="path948"
       inkscape:connector-curvature="0"
       sodipodi:nodetypes="ccccccccccc" />
    <path
       sodipodi:nodetypes="ccccccccccc"
       inkscape:connector-curvature="0"
       id="path950"
       d="m 155.72704,510.01899 8.61335,6.25796 -3.29001,-10.1256 8.61335,-6.25795 h -10.64668 l -3.28998,-10.12559 -3.29002,10.12559 h -10.64667 l 8.61335,6.25796 -3.29001,10.12559 z"
       style="fill:#ffffff;fill-opacity:1;stroke:none;stroke-width:0.26458332px;stroke-linecap:butt;stroke-linejoin:miter;stroke-opacity:1" />
    <path
       sodipodi:nodetypes="ccccccccccc"
       inkscape:connector-curvature="0"
       id="path952"
       d="m 155.72707,344.95895 -8.61335,-6.25796 3.29001,10.1256 -8.61335,6.25795 h 10.64668 l 3.28998,10.12559 3.29002,-10.12559 h 10.64667 l -8.61335,-6.25796 3.29001,-10.12559 z"
       style="fill:#ffffff;fill-opacity:1;stroke:none;stroke-width:0.26458332px;stroke-linecap:butt;stroke-linejoin:miter;stroke-opacity:1" />
    <path
       style="fill:#ffffff;fill-opacity:1;stroke:none;stroke-width:0.26458332px;stroke-linecap:butt;stroke-linejoin:miter;stroke-opacity:1"
       d="m 52.312431,510.01899 8.613349,6.25796 -3.29001,-10.1256 8.613349,-6.25795 H 55.60244 l -3.289979,-10.12559 -3.29002,10.12559 H 38.375769 l 8.613352,6.25796 -3.290011,10.12559 z"
       id="path954"
       inkscape:connector-curvature="0"
       sodipodi:nodetypes="ccccccccccc" />
    <path
       sodipodi:nodetypes="ccccccccccc"
       inkscape:connector-curvature="0"
       id="path956"
       d="m -51.102213,510.01899 8.613349,6.25796 -3.29001,-10.1256 8.61335,-6.25795 h -10.64668 l -3.289979,-10.12559 -3.29002,10.12559 h -10.646671 l 8.613351,6.25796 -3.290011,10.12559 z"
       style="fill:#ffffff;fill-opacity:1;stroke:none;stroke-width:0.26458332px;stroke-linecap:butt;stroke-linejoin:miter;stroke-opacity:1" />
  </g>
</svg>
