<?xml version="1.0" encoding="UTF-8" standalone="no"?>
<!-- Created with Inkscape (http://www.inkscape.org/) -->

<svg
   xmlns:dc="http://purl.org/dc/elements/1.1/"
   xmlns:cc="http://creativecommons.org/ns#"
   xmlns:rdf="http://www.w3.org/1999/02/22-rdf-syntax-ns#"
   xmlns:svg="http://www.w3.org/2000/svg"
   xmlns="http://www.w3.org/2000/svg"
   xmlns:sodipodi="http://sodipodi.sourceforge.net/DTD/sodipodi-0.dtd"
   xmlns:inkscape="http://www.inkscape.org/namespaces/inkscape"
   width="3036"
   height="1800"
   viewBox="0 0 803.275 476.25001"
   version="1.1"
   id="svg8"
   inkscape:export-filename="C:\Users\厂永刄先生\Documents\GXI3CW2\poM̕écèŭ\M̕é\illinois提案.png"
   inkscape:export-xdpi="96"
   inkscape:export-ydpi="96"
   inkscape:version="0.92.4 (5da689c313, 2019-01-14)"
   sodipodi:docname="Illinois.svg">
  <defs
     id="defs2" />
  <sodipodi:namedview
     id="base"
     pagecolor="#ffffff"
     bordercolor="#666666"
     borderopacity="1.0"
     inkscape:pageopacity="0.0"
     inkscape:pageshadow="2"
     inkscape:zoom="0.21010634"
     inkscape:cx="1536"
     inkscape:cy="900.00001"
     inkscape:document-units="px"
     inkscape:current-layer="layer1"
     showgrid="false"
     units="px"
     fit-margin-top="0"
     fit-margin-left="0"
     fit-margin-right="0"
     fit-margin-bottom="0"
     inkscape:showpageshadow="false"
     inkscape:snap-intersection-paths="false"
     inkscape:object-paths="false"
     inkscape:pagecheckerboard="true"
     inkscape:snap-smooth-nodes="true"
     inkscape:window-width="1366"
     inkscape:window-height="745"
     inkscape:window-x="-8"
     inkscape:window-y="-8"
     inkscape:window-maximized="1"
     inkscape:object-nodes="true"
     inkscape:snap-nodes="true"
     showguides="true" />
  <metadata
     id="metadata5">
    <rdf:RDF>
      <cc:Work
         rdf:about="">
        <dc:format>image/svg+xml</dc:format>
        <dc:type
           rdf:resource="http://purl.org/dc/dcmitype/StillImage" />
        <dc:title />
      </cc:Work>
    </rdf:RDF>
  </metadata>
  <g
     inkscape:label="レイヤー 1"
     inkscape:groupmode="layer"
     id="layer1"
     transform="translate(112.33452,-299.26786)">
    <path
       style="fill:#ffffff;fill-opacity:1;stroke:none;stroke-width:0.5291667;stroke-linecap:butt;stroke-linejoin:miter;stroke-miterlimit:4;stroke-dasharray:none;stroke-opacity:1"
       d="m -102.80952,775.51786 h 793.75001 v -158.75 h -793.75001 z"
       id="path845"
       inkscape:connector-curvature="0"
       sodipodi:nodetypes="ccccc" />
    <path
       style="opacity:1;fill:#0a3161;fill-opacity:1;fill-rule:evenodd;stroke:none;stroke-width:0.26458334;stroke-linecap:round;stroke-linejoin:round;stroke-miterlimit:4;stroke-dasharray:none;stroke-dashoffset:0;stroke-opacity:1;paint-order:normal"
       inkscape:transform-center-x="1.2458737e-05"
       inkscape:transform-center-y="-6.1997884e-06"
       d="m -63.122028,727.89286 3.56416,10.96936 11.53386,-10e-6 -9.33108,6.77944 3.56415,10.96935 -9.33108,-6.77943 -9.3311,6.77943 3.56416,-10.96935 -9.33109,-6.77944 11.53386,10e-6 z"
       id="path1564"
       inkscape:connector-curvature="0"
       sodipodi:nodetypes="ccccccccccc" />
    <path
       sodipodi:nodetypes="ccccccccccc"
       inkscape:connector-curvature="0"
       id="path1566"
       d="m 16.252957,696.14286 3.56416,10.96936 11.53386,-10e-6 -9.33108,6.77944 3.56415,10.96935 -9.33108,-6.77943 -9.3311,6.77943 3.56416,-10.96935 -9.33109,-6.77944 11.53386,10e-6 z"
       inkscape:transform-center-y="-6.1997884e-06"
       inkscape:transform-center-x="1.2458737e-05"
       style="opacity:1;fill:#0a3161;fill-opacity:1;fill-rule:evenodd;stroke:none;stroke-width:0.26458334;stroke-linecap:round;stroke-linejoin:round;stroke-miterlimit:4;stroke-dasharray:none;stroke-dashoffset:0;stroke-opacity:1;paint-order:normal" />
    <path
       style="opacity:1;fill:#0a3161;fill-opacity:1;fill-rule:evenodd;stroke:none;stroke-width:0.26458334;stroke-linecap:round;stroke-linejoin:round;stroke-miterlimit:4;stroke-dasharray:none;stroke-dashoffset:0;stroke-opacity:1;paint-order:normal"
       inkscape:transform-center-x="1.2458737e-05"
       inkscape:transform-center-y="-6.1997884e-06"
       d="m 95.62795,664.39286 3.56416,10.96936 11.53386,-10e-6 -9.33108,6.77944 3.56415,10.96935 -9.33108,-6.77943 -9.3311,6.77943 3.56416,-10.96935 -9.33109,-6.77944 11.53386,10e-6 z"
       id="path1568"
       inkscape:connector-curvature="0"
       sodipodi:nodetypes="ccccccccccc" />
    <path
       sodipodi:nodetypes="ccccccccccc"
       inkscape:connector-curvature="0"
       id="path1570"
       d="m 175.00295,632.64286 3.56416,10.96936 11.53386,-10e-6 -9.33108,6.77944 3.56415,10.96935 -9.33108,-6.77943 -9.3311,6.77943 3.56416,-10.96935 -9.33109,-6.77944 11.53386,10e-6 z"
       inkscape:transform-center-y="-6.1997884e-06"
       inkscape:transform-center-x="1.2458737e-05"
       style="opacity:1;fill:#0a3161;fill-opacity:1;fill-rule:evenodd;stroke:none;stroke-width:0.26458334;stroke-linecap:round;stroke-linejoin:round;stroke-miterlimit:4;stroke-dasharray:none;stroke-dashoffset:0;stroke-opacity:1;paint-order:normal" />
    <path
       sodipodi:nodetypes="ccccc"
       inkscape:connector-curvature="0"
       id="path847"
       d="m -102.80952,458.01786 h 793.75001 v -158.75 h -793.75001 z"
       style="fill:#ffffff;fill-opacity:1;stroke:none;stroke-width:0.5291667;stroke-linecap:butt;stroke-linejoin:miter;stroke-miterlimit:4;stroke-dasharray:none;stroke-opacity:1" />
    <path
       sodipodi:nodetypes="ccccccccccc"
       inkscape:connector-curvature="0"
       id="path1532"
       d="m 16.252957,346.89286 3.56416,10.96936 11.53386,-10e-6 -9.33108,6.77944 3.56415,10.96935 -9.33108,-6.77943 -9.3311,6.77943 3.56416,-10.96935 -9.33109,-6.77944 11.53386,10e-6 z"
       inkscape:transform-center-y="-6.1997884e-06"
       inkscape:transform-center-x="1.2458737e-05"
       style="opacity:1;fill:#0a3161;fill-opacity:1;fill-rule:evenodd;stroke:none;stroke-width:0.26458334;stroke-linecap:round;stroke-linejoin:round;stroke-miterlimit:4;stroke-dasharray:none;stroke-dashoffset:0;stroke-opacity:1;paint-order:normal" />
    <path
       style="opacity:1;fill:#0a3161;fill-opacity:1;fill-rule:evenodd;stroke:none;stroke-width:0.26458334;stroke-linecap:round;stroke-linejoin:round;stroke-miterlimit:4;stroke-dasharray:none;stroke-dashoffset:0;stroke-opacity:1;paint-order:normal"
       inkscape:transform-center-x="1.2458737e-05"
       inkscape:transform-center-y="-6.1997884e-06"
       d="m 95.62795,378.64286 3.56416,10.96936 11.53386,-10e-6 -9.33108,6.77944 3.56415,10.96935 -9.33108,-6.77943 -9.3311,6.77943 3.56416,-10.96935 -9.33109,-6.77944 11.53386,10e-6 z"
       id="path1534"
       inkscape:connector-curvature="0"
       sodipodi:nodetypes="ccccccccccc" />
    <path
       style="opacity:1;fill:#0a3161;fill-opacity:1;fill-rule:evenodd;stroke:none;stroke-width:0.26458334;stroke-linecap:round;stroke-linejoin:round;stroke-miterlimit:4;stroke-dasharray:none;stroke-dashoffset:0;stroke-opacity:1;paint-order:normal"
       inkscape:transform-center-x="1.2458737e-05"
       inkscape:transform-center-y="-6.1997884e-06"
       d="m -63.122028,315.14286 3.56416,10.96936 11.53386,-10e-6 -9.33108,6.77944 3.56415,10.96935 -9.33108,-6.77943 -9.3311,6.77943 3.56416,-10.96935 -9.33109,-6.77944 11.53386,10e-6 z"
       id="path966"
       inkscape:connector-curvature="0"
       sodipodi:nodetypes="ccccccccccc" />
    <path
       sodipodi:nodetypes="ccccccccccc"
       inkscape:connector-curvature="0"
       id="path1536"
       d="m 175.00295,410.39286 3.56416,10.96936 11.53386,-10e-6 -9.33108,6.77944 3.56415,10.96935 -9.33108,-6.77943 -9.3311,6.77943 3.56416,-10.96935 -9.33109,-6.77944 11.53386,10e-6 z"
       inkscape:transform-center-y="-6.1997884e-06"
       inkscape:transform-center-x="1.2458737e-05"
       style="opacity:1;fill:#0a3161;fill-opacity:1;fill-rule:evenodd;stroke:none;stroke-width:0.26458334;stroke-linecap:round;stroke-linejoin:round;stroke-miterlimit:4;stroke-dasharray:none;stroke-dashoffset:0;stroke-opacity:1;paint-order:normal" />
    <path
       sodipodi:nodetypes="ccccc"
       inkscape:connector-curvature="0"
       id="path843"
       d="m -102.80952,458.01786 h 793.75001 v 158.75 h -793.75001 z"
       style="fill:#0a3161;fill-opacity:1;stroke:none;stroke-width:0.52916667;stroke-linecap:butt;stroke-linejoin:miter;stroke-opacity:1;stroke-miterlimit:4;stroke-dasharray:none" />
    <path
       style="opacity:1;fill:#ffffff;fill-opacity:1;fill-rule:evenodd;stroke:none;stroke-width:0.26458334;stroke-linecap:round;stroke-linejoin:round;stroke-miterlimit:4;stroke-dasharray:none;stroke-dashoffset:0;stroke-opacity:1;paint-order:normal"
       inkscape:transform-center-x="3.7876211e-05"
       inkscape:transform-center-y="-1.8099365e-05"
       d="m 55.94045,489.76788 10.69248,32.90807 h 34.60159 l -27.993276,20.3383 10.692476,32.90807 -27.99327,-20.33831 -27.993275,20.33831 10.692481,-32.90807 -27.993274,-20.3383 h 34.60159 z"
       id="path952"
       inkscape:connector-curvature="0"
       sodipodi:nodetypes="ccccccccccc" />
    <path
       style="fill:#ffffff;fill-opacity:1;stroke:none;stroke-width:0.5291667;stroke-linecap:butt;stroke-linejoin:miter;stroke-miterlimit:4;stroke-dasharray:none;stroke-opacity:1"
       d="m -112.33452,775.51786 h 9.525 v -476.25 h -9.525 z"
       id="path902"
       inkscape:connector-curvature="0"
       sodipodi:nodetypes="ccccc" />
    <path
       sodipodi:nodetypes="ccccccccccc"
       inkscape:connector-curvature="0"
       id="path904"
       d="m -63.122028,346.89286 3.56416,10.96936 11.53386,-10e-6 -9.33108,6.77944 3.56415,10.96935 -9.33108,-6.77943 -9.3311,6.77943 3.56416,-10.96935 -9.33109,-6.77944 11.53386,10e-6 z"
       inkscape:transform-center-y="-6.1997884e-06"
       inkscape:transform-center-x="1.2458737e-05"
       style="opacity:1;fill:#0a3161;fill-opacity:1;fill-rule:evenodd;stroke:none;stroke-width:0.26458335;stroke-linecap:round;stroke-linejoin:round;stroke-miterlimit:4;stroke-dasharray:none;stroke-dashoffset:0;stroke-opacity:1;paint-order:normal" />
    <path
       style="opacity:1;fill:#0a3161;fill-opacity:1;fill-rule:evenodd;stroke:none;stroke-width:0.26458335;stroke-linecap:round;stroke-linejoin:round;stroke-miterlimit:4;stroke-dasharray:none;stroke-dashoffset:0;stroke-opacity:1;paint-order:normal"
       inkscape:transform-center-x="1.2458737e-05"
       inkscape:transform-center-y="-6.1997884e-06"
       d="m 16.252957,378.64286 3.56416,10.96936 11.53386,-10e-6 -9.33108,6.77944 3.56415,10.96935 -9.33108,-6.77943 -9.3311,6.77943 3.56416,-10.96935 -9.33109,-6.77944 11.53386,10e-6 z"
       id="path906"
       inkscape:connector-curvature="0"
       sodipodi:nodetypes="ccccccccccc" />
    <path
       style="opacity:1;fill:#0a3161;fill-opacity:1;fill-rule:evenodd;stroke:none;stroke-width:0.26458335;stroke-linecap:round;stroke-linejoin:round;stroke-miterlimit:4;stroke-dasharray:none;stroke-dashoffset:0;stroke-opacity:1;paint-order:normal"
       inkscape:transform-center-x="1.2458737e-05"
       inkscape:transform-center-y="-6.1997884e-06"
       d="m -63.122028,378.64286 3.56416,10.96936 11.53386,-10e-6 -9.33108,6.77944 3.56415,10.96935 -9.33108,-6.77943 -9.3311,6.77943 3.56416,-10.96935 -9.33109,-6.77944 11.53386,10e-6 z"
       id="path908"
       inkscape:connector-curvature="0"
       sodipodi:nodetypes="ccccccccccc" />
    <path
       sodipodi:nodetypes="ccccccccccc"
       inkscape:connector-curvature="0"
       id="path910"
       d="m 95.62795,410.39286 3.56416,10.96936 11.53386,-10e-6 -9.33108,6.77944 3.56415,10.96935 -9.33108,-6.77943 -9.3311,6.77943 3.56416,-10.96935 -9.33109,-6.77944 11.53386,10e-6 z"
       inkscape:transform-center-y="-6.1997884e-06"
       inkscape:transform-center-x="1.2458737e-05"
       style="opacity:1;fill:#0a3161;fill-opacity:1;fill-rule:evenodd;stroke:none;stroke-width:0.26458335;stroke-linecap:round;stroke-linejoin:round;stroke-miterlimit:4;stroke-dasharray:none;stroke-dashoffset:0;stroke-opacity:1;paint-order:normal" />
    <path
       sodipodi:nodetypes="ccccccccccc"
       inkscape:connector-curvature="0"
       id="path912"
       d="m 16.252957,410.39286 3.56416,10.96936 11.53386,-10e-6 -9.33108,6.77944 3.56415,10.96935 -9.33108,-6.77943 -9.3311,6.77943 3.56416,-10.96935 -9.33109,-6.77944 11.53386,10e-6 z"
       inkscape:transform-center-y="-6.1997884e-06"
       inkscape:transform-center-x="1.2458737e-05"
       style="opacity:1;fill:#0a3161;fill-opacity:1;fill-rule:evenodd;stroke:none;stroke-width:0.26458335;stroke-linecap:round;stroke-linejoin:round;stroke-miterlimit:4;stroke-dasharray:none;stroke-dashoffset:0;stroke-opacity:1;paint-order:normal" />
    <path
       sodipodi:nodetypes="ccccccccccc"
       inkscape:connector-curvature="0"
       id="path914"
       d="m -63.122028,410.39286 3.56416,10.96936 11.53386,-10e-6 -9.33108,6.77944 3.56415,10.96935 -9.33108,-6.77943 -9.3311,6.77943 3.56416,-10.96935 -9.33109,-6.77944 11.53386,10e-6 z"
       inkscape:transform-center-y="-6.1997884e-06"
       inkscape:transform-center-x="1.2458737e-05"
       style="opacity:1;fill:#0a3161;fill-opacity:1;fill-rule:evenodd;stroke:none;stroke-width:0.26458335;stroke-linecap:round;stroke-linejoin:round;stroke-miterlimit:4;stroke-dasharray:none;stroke-dashoffset:0;stroke-opacity:1;paint-order:normal" />
    <path
       style="opacity:1;fill:#0a3161;fill-opacity:1;fill-rule:evenodd;stroke:none;stroke-width:0.26458335;stroke-linecap:round;stroke-linejoin:round;stroke-miterlimit:4;stroke-dasharray:none;stroke-dashoffset:0;stroke-opacity:1;paint-order:normal"
       inkscape:transform-center-x="1.2458737e-05"
       inkscape:transform-center-y="-6.1997884e-06"
       d="m 95.62795,632.64286 3.56416,10.96936 11.53386,-10e-6 -9.33108,6.77944 3.56415,10.96935 -9.33108,-6.77943 -9.3311,6.77943 3.56416,-10.96935 -9.33109,-6.77944 11.53386,10e-6 z"
       id="path916"
       inkscape:connector-curvature="0"
       sodipodi:nodetypes="ccccccccccc" />
    <path
       style="opacity:1;fill:#0a3161;fill-opacity:1;fill-rule:evenodd;stroke:none;stroke-width:0.26458335;stroke-linecap:round;stroke-linejoin:round;stroke-miterlimit:4;stroke-dasharray:none;stroke-dashoffset:0;stroke-opacity:1;paint-order:normal"
       inkscape:transform-center-x="1.2458737e-05"
       inkscape:transform-center-y="-6.1997884e-06"
       d="m 16.252957,632.64286 3.56416,10.96936 11.53386,-10e-6 -9.33108,6.77944 3.56415,10.96935 -9.33108,-6.77943 -9.3311,6.77943 3.56416,-10.96935 -9.33109,-6.77944 11.53386,10e-6 z"
       id="path918"
       inkscape:connector-curvature="0"
       sodipodi:nodetypes="ccccccccccc" />
    <path
       style="opacity:1;fill:#0a3161;fill-opacity:1;fill-rule:evenodd;stroke:none;stroke-width:0.26458335;stroke-linecap:round;stroke-linejoin:round;stroke-miterlimit:4;stroke-dasharray:none;stroke-dashoffset:0;stroke-opacity:1;paint-order:normal"
       inkscape:transform-center-x="1.2458737e-05"
       inkscape:transform-center-y="-6.1997884e-06"
       d="m -63.122028,632.64286 3.56416,10.96936 11.53386,-10e-6 -9.33108,6.77944 3.56415,10.96935 -9.33108,-6.77943 -9.3311,6.77943 3.56416,-10.96935 -9.33109,-6.77944 11.53386,10e-6 z"
       id="path920"
       inkscape:connector-curvature="0"
       sodipodi:nodetypes="ccccccccccc" />
    <path
       sodipodi:nodetypes="ccccccccccc"
       inkscape:connector-curvature="0"
       id="path922"
       d="m 16.252957,664.39286 3.56416,10.96936 11.53386,-10e-6 -9.33108,6.77944 3.56415,10.96935 -9.33108,-6.77943 -9.3311,6.77943 3.56416,-10.96935 -9.33109,-6.77944 11.53386,10e-6 z"
       inkscape:transform-center-y="-6.1997884e-06"
       inkscape:transform-center-x="1.2458737e-05"
       style="opacity:1;fill:#0a3161;fill-opacity:1;fill-rule:evenodd;stroke:none;stroke-width:0.26458335;stroke-linecap:round;stroke-linejoin:round;stroke-miterlimit:4;stroke-dasharray:none;stroke-dashoffset:0;stroke-opacity:1;paint-order:normal" />
    <path
       sodipodi:nodetypes="ccccccccccc"
       inkscape:connector-curvature="0"
       id="path924"
       d="m -63.122028,664.39286 3.56416,10.96936 11.53386,-10e-6 -9.33108,6.77944 3.56415,10.96935 -9.33108,-6.77943 -9.3311,6.77943 3.56416,-10.96935 -9.33109,-6.77944 11.53386,10e-6 z"
       inkscape:transform-center-y="-6.1997884e-06"
       inkscape:transform-center-x="1.2458737e-05"
       style="opacity:1;fill:#0a3161;fill-opacity:1;fill-rule:evenodd;stroke:none;stroke-width:0.26458335;stroke-linecap:round;stroke-linejoin:round;stroke-miterlimit:4;stroke-dasharray:none;stroke-dashoffset:0;stroke-opacity:1;paint-order:normal" />
    <path
       style="opacity:1;fill:#0a3161;fill-opacity:1;fill-rule:evenodd;stroke:none;stroke-width:0.26458335;stroke-linecap:round;stroke-linejoin:round;stroke-miterlimit:4;stroke-dasharray:none;stroke-dashoffset:0;stroke-opacity:1;paint-order:normal"
       inkscape:transform-center-x="1.2458737e-05"
       inkscape:transform-center-y="-6.1997884e-06"
       d="m -63.122028,696.14286 3.56416,10.96936 11.53386,-10e-6 -9.33108,6.77944 3.56415,10.96935 -9.33108,-6.77943 -9.3311,6.77943 3.56416,-10.96935 -9.33109,-6.77944 11.53386,10e-6 z"
       id="path926"
       inkscape:connector-curvature="0"
       sodipodi:nodetypes="ccccccccccc" />
  </g>
</svg>
