<?xml version="1.0" encoding="UTF-8" standalone="no"?>
<!-- Created with Inkscape (http://www.inkscape.org/) -->

<svg
   xmlns:dc="http://purl.org/dc/elements/1.1/"
   xmlns:cc="http://creativecommons.org/ns#"
   xmlns:rdf="http://www.w3.org/1999/02/22-rdf-syntax-ns#"
   xmlns:svg="http://www.w3.org/2000/svg"
   xmlns="http://www.w3.org/2000/svg"
   xmlns:sodipodi="http://sodipodi.sourceforge.net/DTD/sodipodi-0.dtd"
   xmlns:inkscape="http://www.inkscape.org/namespaces/inkscape"
   width="4653.2188"
   height="2423.9204"
   viewBox="0 0 1231.1641 641.32896"
   version="1.1"
   id="svg8"
   inkscape:export-filename="C:\Users\厂永刄先生\Documents\GXI3CW2\poM̕écèŭ\M̕é\illinois2 描き方提案.png"
   inkscape:export-xdpi="96"
   inkscape:export-ydpi="96"
   inkscape:version="0.92.4 (5da689c313, 2019-01-14)"
   sodipodi:docname="Illinois2 描き方.svg">
  <defs
     id="defs2" />
  <sodipodi:namedview
     id="base"
     pagecolor="#ffffff"
     bordercolor="#666666"
     borderopacity="1.0"
     inkscape:pageopacity="1"
     inkscape:pageshadow="2"
     inkscape:zoom="0.19649362"
     inkscape:cx="2289.7938"
     inkscape:cy="1211.9602"
     inkscape:document-units="px"
     inkscape:current-layer="layer1"
     showgrid="false"
     units="px"
     fit-margin-top="20"
     fit-margin-left="20"
     fit-margin-right="20"
     fit-margin-bottom="20"
     inkscape:showpageshadow="false"
     inkscape:snap-intersection-paths="false"
     inkscape:object-paths="false"
     inkscape:pagecheckerboard="false"
     inkscape:snap-smooth-nodes="true"
     inkscape:window-width="1366"
     inkscape:window-height="745"
     inkscape:window-x="-8"
     inkscape:window-y="-8"
     inkscape:window-maximized="1"
     inkscape:object-nodes="true"
     inkscape:snap-nodes="true"
     showguides="true" />
  <metadata
     id="metadata5">
    <rdf:RDF>
      <cc:Work
         rdf:about="">
        <dc:format>image/svg+xml</dc:format>
        <dc:type
           rdf:resource="http://purl.org/dc/dcmitype/StillImage" />
        <dc:title />
      </cc:Work>
    </rdf:RDF>
  </metadata>
  <g
     inkscape:label="レイヤー 1"
     inkscape:groupmode="layer"
     id="layer1"
     transform="translate(150.49984,-187.68018)">
    <path
       style="fill:#ffffff;fill-opacity:1;stroke:#000000;stroke-width:0.5291667;stroke-linecap:butt;stroke-linejoin:miter;stroke-miterlimit:4;stroke-dasharray:none;stroke-opacity:1"
       d="m -102.80952,775.51786 h 793.75001 v -158.75 h -793.75001 z"
       id="path845"
       inkscape:connector-curvature="0"
       sodipodi:nodetypes="ccccc" />
    <path
       style="opacity:1;fill:#b7c4c8;fill-opacity:1;fill-rule:evenodd;stroke:#000000;stroke-width:0.26458335;stroke-linecap:round;stroke-linejoin:round;stroke-miterlimit:4;stroke-dasharray:none;stroke-dashoffset:0;stroke-opacity:1;paint-order:normal"
       inkscape:transform-center-x="1.2458737e-05"
       inkscape:transform-center-y="-6.1997884e-06"
       d="m 95.62795,727.89286 3.56416,10.96936 11.53386,-10e-6 -9.33108,6.77944 3.56415,10.96935 -9.33108,-6.77943 -9.3311,6.77943 3.56416,-10.96935 -9.33109,-6.77944 11.53386,10e-6 z"
       id="path1564"
       inkscape:connector-curvature="0"
       sodipodi:nodetypes="ccccccccccc" />
    <path
       sodipodi:nodetypes="ccccccccccc"
       inkscape:connector-curvature="0"
       id="path1566"
       d="m 55.940449,696.14286 3.56416,10.96936 11.53386,-10e-6 -9.33108,6.77944 3.56415,10.96935 -9.33108,-6.77943 -9.3311,6.77943 3.56416,-10.96935 -9.33109,-6.77944 11.53386,10e-6 z"
       inkscape:transform-center-y="-6.1997884e-06"
       inkscape:transform-center-x="1.2458737e-05"
       style="opacity:1;fill:#b7c4c8;fill-opacity:1;fill-rule:evenodd;stroke:#000000;stroke-width:0.26458335;stroke-linecap:round;stroke-linejoin:round;stroke-miterlimit:4;stroke-dasharray:none;stroke-dashoffset:0;stroke-opacity:1;paint-order:normal" />
    <path
       style="opacity:1;fill:#b7c4c8;fill-opacity:1;fill-rule:evenodd;stroke:#000000;stroke-width:0.26458335;stroke-linecap:round;stroke-linejoin:round;stroke-miterlimit:4;stroke-dasharray:none;stroke-dashoffset:0;stroke-opacity:1;paint-order:normal"
       inkscape:transform-center-x="1.2458737e-05"
       inkscape:transform-center-y="-6.1997884e-06"
       d="m 95.62795,664.39286 3.56416,10.96936 11.53386,-10e-6 -9.33108,6.77944 3.56415,10.96935 -9.33108,-6.77943 -9.3311,6.77943 3.56416,-10.96935 -9.33109,-6.77944 11.53386,10e-6 z"
       id="path1568"
       inkscape:connector-curvature="0"
       sodipodi:nodetypes="ccccccccccc" />
    <path
       sodipodi:nodetypes="ccccccccccc"
       inkscape:connector-curvature="0"
       id="path1570"
       d="m 214.69045,632.64286 3.56416,10.96936 11.53386,-10e-6 -9.33108,6.77944 3.56415,10.96935 -9.33108,-6.77943 -9.3311,6.77943 3.56416,-10.96935 -9.33109,-6.77944 11.53386,10e-6 z"
       inkscape:transform-center-y="-6.1997884e-06"
       inkscape:transform-center-x="1.2458737e-05"
       style="opacity:1;fill:#b7c4c8;fill-opacity:1;fill-rule:evenodd;stroke:#000000;stroke-width:0.26458335;stroke-linecap:round;stroke-linejoin:round;stroke-miterlimit:4;stroke-dasharray:none;stroke-dashoffset:0;stroke-opacity:1;paint-order:normal" />
    <path
       sodipodi:nodetypes="ccccccccccc"
       inkscape:connector-curvature="0"
       id="path1572"
       d="m 135.31545,696.14286 3.56416,10.96936 11.53386,-10e-6 -9.33108,6.77944 3.56415,10.96935 -9.33108,-6.77943 -9.3311,6.77943 3.56416,-10.96935 -9.33109,-6.77944 11.53386,10e-6 z"
       inkscape:transform-center-y="-6.1997884e-06"
       inkscape:transform-center-x="1.2458737e-05"
       style="opacity:1;fill:#b7c4c8;fill-opacity:1;fill-rule:evenodd;stroke:#000000;stroke-width:0.26458335;stroke-linecap:round;stroke-linejoin:round;stroke-miterlimit:4;stroke-dasharray:none;stroke-dashoffset:0;stroke-opacity:1;paint-order:normal" />
    <path
       style="opacity:1;fill:#b7c4c8;fill-opacity:1;fill-rule:evenodd;stroke:#000000;stroke-width:0.26458335;stroke-linecap:round;stroke-linejoin:round;stroke-miterlimit:4;stroke-dasharray:none;stroke-dashoffset:0;stroke-opacity:1;paint-order:normal"
       inkscape:transform-center-x="1.2458737e-05"
       inkscape:transform-center-y="-6.1997884e-06"
       d="m 16.252957,664.39286 3.56416,10.96936 11.53386,-10e-6 -9.33108,6.77944 3.56415,10.96935 -9.33108,-6.77943 -9.3311,6.77943 3.56416,-10.96935 -9.33109,-6.77944 11.53386,10e-6 z"
       id="path1574"
       inkscape:connector-curvature="0"
       sodipodi:nodetypes="ccccccccccc" />
    <path
       style="opacity:1;fill:#b7c4c8;fill-opacity:1;fill-rule:evenodd;stroke:#000000;stroke-width:0.26458335;stroke-linecap:round;stroke-linejoin:round;stroke-miterlimit:4;stroke-dasharray:none;stroke-dashoffset:0;stroke-opacity:1;paint-order:normal"
       inkscape:transform-center-x="1.2458737e-05"
       inkscape:transform-center-y="-6.1997884e-06"
       d="m 175.00295,664.39286 3.56416,10.96936 11.53386,-10e-6 -9.33108,6.77944 3.56415,10.96935 -9.33108,-6.77943 -9.3311,6.77943 3.56416,-10.96935 -9.33109,-6.77944 11.53386,10e-6 z"
       id="path1576"
       inkscape:connector-curvature="0"
       sodipodi:nodetypes="ccccccccccc" />
    <path
       sodipodi:nodetypes="ccccccccccc"
       inkscape:connector-curvature="0"
       id="path1578"
       d="m 135.31545,632.64286 3.56416,10.96936 11.53386,-10e-6 -9.33108,6.77944 3.56415,10.96935 -9.33108,-6.77943 -9.3311,6.77943 3.56416,-10.96935 -9.33109,-6.77944 11.53386,10e-6 z"
       inkscape:transform-center-y="-6.1997884e-06"
       inkscape:transform-center-x="1.2458737e-05"
       style="opacity:1;fill:#b7c4c8;fill-opacity:1;fill-rule:evenodd;stroke:#000000;stroke-width:0.26458335;stroke-linecap:round;stroke-linejoin:round;stroke-miterlimit:4;stroke-dasharray:none;stroke-dashoffset:0;stroke-opacity:1;paint-order:normal" />
    <path
       sodipodi:nodetypes="ccccccccccc"
       inkscape:connector-curvature="0"
       id="path1580"
       d="m 55.940449,632.64286 3.56416,10.96936 11.53386,-10e-6 -9.33108,6.77944 3.56415,10.96935 -9.33108,-6.77943 -9.3311,6.77943 3.56416,-10.96935 -9.33109,-6.77944 11.53386,10e-6 z"
       inkscape:transform-center-y="-6.1997884e-06"
       inkscape:transform-center-x="1.2458737e-05"
       style="opacity:1;fill:#b7c4c8;fill-opacity:1;fill-rule:evenodd;stroke:#000000;stroke-width:0.26458335;stroke-linecap:round;stroke-linejoin:round;stroke-miterlimit:4;stroke-dasharray:none;stroke-dashoffset:0;stroke-opacity:1;paint-order:normal" />
    <path
       sodipodi:nodetypes="ccccccccccc"
       inkscape:connector-curvature="0"
       id="path1582"
       d="m -23.434535,632.64286 3.56416,10.96936 11.53386,-10e-6 -9.33108,6.77944 3.56415,10.96935 -9.33108,-6.77943 -9.3311,6.77943 3.56416,-10.96935 -9.33109,-6.77944 11.53386,10e-6 z"
       inkscape:transform-center-y="-6.1997884e-06"
       inkscape:transform-center-x="1.2458737e-05"
       style="opacity:1;fill:#b7c4c8;fill-opacity:1;fill-rule:evenodd;stroke:#000000;stroke-width:0.26458335;stroke-linecap:round;stroke-linejoin:round;stroke-miterlimit:4;stroke-dasharray:none;stroke-dashoffset:0;stroke-opacity:1;paint-order:normal" />
    <path
       sodipodi:nodetypes="ccccc"
       inkscape:connector-curvature="0"
       id="path847"
       d="m -102.80952,458.01786 h 793.75001 v -158.75 h -793.75001 z"
       style="fill:#ffffff;fill-opacity:1;stroke:#000000;stroke-width:0.5291667;stroke-linecap:butt;stroke-linejoin:miter;stroke-miterlimit:4;stroke-dasharray:none;stroke-opacity:1" />
    <path
       sodipodi:nodetypes="ccccccccccc"
       inkscape:connector-curvature="0"
       id="path1532"
       d="m 55.940449,346.89286 3.56416,10.96936 11.53386,-10e-6 -9.33108,6.77944 3.56415,10.96935 -9.33108,-6.77943 -9.3311,6.77943 3.56416,-10.96935 -9.33109,-6.77944 11.53386,10e-6 z"
       inkscape:transform-center-y="-6.1997884e-06"
       inkscape:transform-center-x="1.2458737e-05"
       style="opacity:1;fill:#b7c4c8;fill-opacity:1;fill-rule:evenodd;stroke:#000000;stroke-width:0.26458335;stroke-linecap:round;stroke-linejoin:round;stroke-miterlimit:4;stroke-dasharray:none;stroke-dashoffset:0;stroke-opacity:1;paint-order:normal" />
    <path
       style="opacity:1;fill:#b7c4c8;fill-opacity:1;fill-rule:evenodd;stroke:#000000;stroke-width:0.26458335;stroke-linecap:round;stroke-linejoin:round;stroke-miterlimit:4;stroke-dasharray:none;stroke-dashoffset:0;stroke-opacity:1;paint-order:normal"
       inkscape:transform-center-x="1.2458737e-05"
       inkscape:transform-center-y="-6.1997884e-06"
       d="m 95.62795,378.64286 3.56416,10.96936 11.53386,-10e-6 -9.33108,6.77944 3.56415,10.96935 -9.33108,-6.77943 -9.3311,6.77943 3.56416,-10.96935 -9.33109,-6.77944 11.53386,10e-6 z"
       id="path1534"
       inkscape:connector-curvature="0"
       sodipodi:nodetypes="ccccccccccc" />
    <path
       sodipodi:nodetypes="ccccccccccc"
       inkscape:connector-curvature="0"
       id="path1540"
       d="m 135.31545,346.89286 3.56416,10.96936 11.53386,-10e-6 -9.33108,6.77944 3.56415,10.96935 -9.33108,-6.77943 -9.3311,6.77943 3.56416,-10.96935 -9.33109,-6.77944 11.53386,10e-6 z"
       inkscape:transform-center-y="-6.1997884e-06"
       inkscape:transform-center-x="1.2458737e-05"
       style="opacity:1;fill:#b7c4c8;fill-opacity:1;fill-rule:evenodd;stroke:#000000;stroke-width:0.26458335;stroke-linecap:round;stroke-linejoin:round;stroke-miterlimit:4;stroke-dasharray:none;stroke-dashoffset:0;stroke-opacity:1;paint-order:normal" />
    <path
       style="opacity:1;fill:#b7c4c8;fill-opacity:1;fill-rule:evenodd;stroke:#000000;stroke-width:0.26458335;stroke-linecap:round;stroke-linejoin:round;stroke-miterlimit:4;stroke-dasharray:none;stroke-dashoffset:0;stroke-opacity:1;paint-order:normal"
       inkscape:transform-center-x="1.2458737e-05"
       inkscape:transform-center-y="-6.1997884e-06"
       d="m 16.252957,378.64286 3.56416,10.96936 11.53386,-10e-6 -9.33108,6.77944 3.56415,10.96935 -9.33108,-6.77943 -9.3311,6.77943 3.56416,-10.96935 -9.33109,-6.77944 11.53386,10e-6 z"
       id="path1542"
       inkscape:connector-curvature="0"
       sodipodi:nodetypes="ccccccccccc" />
    <path
       style="opacity:1;fill:#b7c4c8;fill-opacity:1;fill-rule:evenodd;stroke:#000000;stroke-width:0.26458335;stroke-linecap:round;stroke-linejoin:round;stroke-miterlimit:4;stroke-dasharray:none;stroke-dashoffset:0;stroke-opacity:1;paint-order:normal"
       inkscape:transform-center-x="1.2458737e-05"
       inkscape:transform-center-y="-6.1997884e-06"
       d="m 175.00295,378.64286 3.56416,10.96936 11.53386,-10e-6 -9.33108,6.77944 3.56415,10.96935 -9.33108,-6.77943 -9.3311,6.77943 3.56416,-10.96935 -9.33109,-6.77944 11.53386,10e-6 z"
       id="path1544"
       inkscape:connector-curvature="0"
       sodipodi:nodetypes="ccccccccccc" />
    <path
       sodipodi:nodetypes="ccccccccccc"
       inkscape:connector-curvature="0"
       id="path1546"
       d="m 135.31545,410.39286 3.56416,10.96936 11.53386,-10e-6 -9.33108,6.77944 3.56415,10.96935 -9.33108,-6.77943 -9.3311,6.77943 3.56416,-10.96935 -9.33109,-6.77944 11.53386,10e-6 z"
       inkscape:transform-center-y="-6.1997884e-06"
       inkscape:transform-center-x="1.2458737e-05"
       style="opacity:1;fill:#b7c4c8;fill-opacity:1;fill-rule:evenodd;stroke:#000000;stroke-width:0.26458335;stroke-linecap:round;stroke-linejoin:round;stroke-miterlimit:4;stroke-dasharray:none;stroke-dashoffset:0;stroke-opacity:1;paint-order:normal" />
    <path
       sodipodi:nodetypes="ccccccccccc"
       inkscape:connector-curvature="0"
       id="path1548"
       d="m 55.940449,410.39286 3.56416,10.96936 11.53386,-10e-6 -9.33108,6.77944 3.56415,10.96935 -9.33108,-6.77943 -9.3311,6.77943 3.56416,-10.96935 -9.33109,-6.77944 11.53386,10e-6 z"
       inkscape:transform-center-y="-6.1997884e-06"
       inkscape:transform-center-x="1.2458737e-05"
       style="opacity:1;fill:#b7c4c8;fill-opacity:1;fill-rule:evenodd;stroke:#000000;stroke-width:0.26458335;stroke-linecap:round;stroke-linejoin:round;stroke-miterlimit:4;stroke-dasharray:none;stroke-dashoffset:0;stroke-opacity:1;paint-order:normal" />
    <path
       sodipodi:nodetypes="ccccccccccc"
       inkscape:connector-curvature="0"
       id="path1550"
       d="m -23.434535,410.39286 3.56416,10.96936 11.53386,-10e-6 -9.33108,6.77944 3.56415,10.96935 -9.33108,-6.77943 -9.3311,6.77943 3.56416,-10.96935 -9.33109,-6.77944 11.53386,10e-6 z"
       inkscape:transform-center-y="-6.1997884e-06"
       inkscape:transform-center-x="1.2458737e-05"
       style="opacity:1;fill:#b7c4c8;fill-opacity:1;fill-rule:evenodd;stroke:#000000;stroke-width:0.26458335;stroke-linecap:round;stroke-linejoin:round;stroke-miterlimit:4;stroke-dasharray:none;stroke-dashoffset:0;stroke-opacity:1;paint-order:normal" />
    <path
       style="opacity:1;fill:#b7c4c8;fill-opacity:1;fill-rule:evenodd;stroke:#000000;stroke-width:0.26458335;stroke-linecap:round;stroke-linejoin:round;stroke-miterlimit:4;stroke-dasharray:none;stroke-dashoffset:0;stroke-opacity:1;paint-order:normal"
       inkscape:transform-center-x="1.2458737e-05"
       inkscape:transform-center-y="-6.1997884e-06"
       d="m 95.62795,315.14286 3.56416,10.96936 11.53386,-10e-6 -9.33108,6.77944 3.56415,10.96935 -9.33108,-6.77943 -9.3311,6.77943 3.56416,-10.96935 -9.33109,-6.77944 11.53386,10e-6 z"
       id="path966"
       inkscape:connector-curvature="0"
       sodipodi:nodetypes="ccccccccccc" />
    <path
       sodipodi:nodetypes="ccccccccccc"
       inkscape:connector-curvature="0"
       id="path1536"
       d="m 214.69045,410.39286 3.56416,10.96936 11.53386,-10e-6 -9.33108,6.77944 3.56415,10.96935 -9.33108,-6.77943 -9.3311,6.77943 3.56416,-10.96935 -9.33109,-6.77944 11.53386,10e-6 z"
       inkscape:transform-center-y="-6.1997884e-06"
       inkscape:transform-center-x="1.2458737e-05"
       style="opacity:1;fill:#b7c4c8;fill-opacity:1;fill-rule:evenodd;stroke:#000000;stroke-width:0.26458335;stroke-linecap:round;stroke-linejoin:round;stroke-miterlimit:4;stroke-dasharray:none;stroke-dashoffset:0;stroke-opacity:1;paint-order:normal" />
    <path
       sodipodi:nodetypes="ccccc"
       inkscape:connector-curvature="0"
       id="path843"
       d="m -102.80952,458.01786 h 793.75001 v 158.75 h -793.75001 z"
       style="fill:#b7c4c8;fill-opacity:1;stroke:#000000;stroke-width:0.5291667;stroke-linecap:butt;stroke-linejoin:miter;stroke-miterlimit:4;stroke-dasharray:none;stroke-opacity:1" />
    <path
       style="opacity:1;fill:none;fill-opacity:1;fill-rule:evenodd;stroke:#000000;stroke-width:0.5291667;stroke-linecap:butt;stroke-linejoin:round;stroke-miterlimit:4;stroke-dasharray:none;stroke-dashoffset:0;stroke-opacity:1;paint-order:normal"
       d="m 143.25295,537.39288 c 0,26.30256 -21.32244,47.625 -47.625,47.625 -26.302561,0 -47.625001,-21.32244 -47.625001,-47.625 0,-26.30256 21.32244,-47.625 47.625001,-47.625 26.30256,0 47.625,21.32244 47.625,47.625 z"
       id="circle1112"
       inkscape:connector-curvature="0"
       sodipodi:nodetypes="sssss" />
    <path
       style="opacity:1;fill:#ffffff;fill-opacity:1;fill-rule:evenodd;stroke:#000000;stroke-width:0.26458335;stroke-linecap:round;stroke-linejoin:round;stroke-miterlimit:4;stroke-dasharray:none;stroke-dashoffset:0;stroke-opacity:1;paint-order:normal"
       inkscape:transform-center-x="3.7876211e-05"
       inkscape:transform-center-y="-1.8099365e-05"
       d="m 95.627949,489.76788 10.692481,32.90807 h 34.60159 l -27.99328,20.3383 10.69248,32.90807 -27.993271,-20.33831 -27.993275,20.33831 10.692481,-32.90807 -27.993274,-20.3383 h 34.60159 z"
       id="path952"
       inkscape:connector-curvature="0"
       sodipodi:nodetypes="ccccccccccc" />
    <path
       style="opacity:1;fill:none;fill-opacity:1;fill-rule:evenodd;stroke:#000000;stroke-width:0.5291667;stroke-linecap:butt;stroke-linejoin:round;stroke-miterlimit:4;stroke-dasharray:none;stroke-dashoffset:0;stroke-opacity:1;paint-order:normal"
       d="m 111.50295,331.01786 c 0,8.76752 -7.10748,15.875 -15.875,15.875 -8.76752,0 -15.875,-7.10748 -15.875,-15.875 0,-8.76752 7.10748,-15.875 15.875,-15.875 8.76752,0 15.875,7.10748 15.875,15.875 z"
       id="path1110"
       inkscape:connector-curvature="0"
       sodipodi:nodetypes="sssss" />
    <path
       style="fill:#ffffff;fill-opacity:1;stroke:#000000;stroke-width:0.5291667;stroke-linecap:butt;stroke-linejoin:round;stroke-miterlimit:4;stroke-dasharray:none;stroke-opacity:1"
       d="m 294.06545,775.51786 v -476.25"
       id="path1022"
       inkscape:connector-curvature="0"
       sodipodi:nodetypes="cc" />
    <path
       style="fill:#ffffff;stroke:#000000;stroke-width:0.5291667;stroke-linecap:butt;stroke-linejoin:round;stroke-miterlimit:4;stroke-dasharray:none;stroke-opacity:1"
       d="m 452.81542,775.51786 v -476.25"
       id="path1024"
       inkscape:connector-curvature="0"
       sodipodi:nodetypes="cc" />
    <path
       inkscape:connector-curvature="0"
       id="path1026"
       d="m 135.31545,775.51786 v -476.25"
       style="fill:#ffffff;fill-opacity:1;stroke:#000000;stroke-width:0.5291667;stroke-linecap:butt;stroke-linejoin:round;stroke-miterlimit:4;stroke-dasharray:none;stroke-opacity:1"
       sodipodi:nodetypes="cc" />
    <path
       inkscape:connector-curvature="0"
       id="path1028"
       d="M 55.940449,775.51787 V 299.26786"
       style="fill:#ffffff;fill-opacity:1;stroke:#000000;stroke-width:0.5291667;stroke-linecap:butt;stroke-linejoin:round;stroke-miterlimit:4;stroke-dasharray:none;stroke-opacity:1"
       sodipodi:nodetypes="cc" />
    <path
       inkscape:connector-curvature="0"
       id="path1030"
       d="m 373.44045,775.51786 v -476.25"
       style="fill:#ffffff;stroke:#000000;stroke-width:0.5291667;stroke-linecap:butt;stroke-linejoin:round;stroke-miterlimit:4;stroke-dasharray:none;stroke-opacity:1"
       sodipodi:nodetypes="cc" />
    <path
       inkscape:connector-curvature="0"
       id="path1032"
       d="m 532.19042,775.51786 v -476.25"
       style="fill:#ffffff;stroke:#000000;stroke-width:0.5291667;stroke-linecap:butt;stroke-linejoin:round;stroke-miterlimit:4;stroke-dasharray:none;stroke-opacity:1"
       sodipodi:nodetypes="cc" />
    <path
       style="fill:#ffffff;fill-opacity:1;stroke:#000000;stroke-width:0.5291667;stroke-linecap:butt;stroke-linejoin:round;stroke-miterlimit:4;stroke-dasharray:none;stroke-opacity:1"
       d="m 214.69045,775.51786 v -476.25"
       id="path1034"
       inkscape:connector-curvature="0"
       sodipodi:nodetypes="cc" />
    <path
       style="fill:#ffffff;stroke:#000000;stroke-width:0.5291667;stroke-linecap:butt;stroke-linejoin:round;stroke-miterlimit:4;stroke-dasharray:none;stroke-opacity:1"
       d="m 611.56542,775.51786 v -476.25"
       id="path1036"
       inkscape:connector-curvature="0"
       sodipodi:nodetypes="cc" />
    <path
       style="fill:#ffffff;fill-opacity:1;stroke:#000000;stroke-width:0.5291667;stroke-linecap:butt;stroke-linejoin:round;stroke-miterlimit:4;stroke-dasharray:none;stroke-opacity:1"
       d="M -23.434535,775.51787 V 299.26786"
       id="path1038"
       inkscape:connector-curvature="0"
       sodipodi:nodetypes="cc" />
    <path
       inkscape:connector-curvature="0"
       id="path1058"
       d="M -63.122028,775.51787 V 299.26786"
       style="fill:#ffffff;fill-opacity:1;stroke:#000000;stroke-width:0.5291667;stroke-linecap:butt;stroke-linejoin:round;stroke-miterlimit:4;stroke-dasharray:none;stroke-opacity:1"
       sodipodi:nodetypes="cc" />
    <path
       inkscape:connector-curvature="0"
       id="path1062"
       d="m 333.75295,775.51786 v -476.25"
       style="fill:#ffffff;stroke:#000000;stroke-width:0.5291667;stroke-linecap:butt;stroke-linejoin:round;stroke-miterlimit:4;stroke-dasharray:none;stroke-opacity:1"
       sodipodi:nodetypes="cc" />
    <path
       inkscape:connector-curvature="0"
       id="path1064"
       d="m 492.50292,775.51786 v -476.25"
       style="fill:#ffffff;stroke:#000000;stroke-width:0.5291667;stroke-linecap:butt;stroke-linejoin:round;stroke-miterlimit:4;stroke-dasharray:none;stroke-opacity:1"
       sodipodi:nodetypes="cc" />
    <path
       style="fill:#ffffff;fill-opacity:1;stroke:#000000;stroke-width:0.5291667;stroke-linecap:butt;stroke-linejoin:round;stroke-miterlimit:4;stroke-dasharray:none;stroke-opacity:1"
       d="m 175.00295,775.51786 v -476.25"
       id="path1066"
       inkscape:connector-curvature="0"
       sodipodi:nodetypes="cc" />
    <path
       style="fill:#ffffff;fill-opacity:1;stroke:#000000;stroke-width:0.5291667;stroke-linecap:butt;stroke-linejoin:round;stroke-miterlimit:4;stroke-dasharray:none;stroke-opacity:1"
       d="M 95.62795,775.51787 V 299.26786"
       id="path1068"
       inkscape:connector-curvature="0"
       sodipodi:nodetypes="cc" />
    <path
       style="fill:#ffffff;stroke:#000000;stroke-width:0.5291667;stroke-linecap:butt;stroke-linejoin:round;stroke-miterlimit:4;stroke-dasharray:none;stroke-opacity:1"
       d="m 413.12795,775.51786 v -476.25"
       id="path1070"
       inkscape:connector-curvature="0"
       sodipodi:nodetypes="cc" />
    <path
       style="fill:#ffffff;stroke:#000000;stroke-width:0.5291667;stroke-linecap:butt;stroke-linejoin:round;stroke-miterlimit:4;stroke-dasharray:none;stroke-opacity:1"
       d="m 571.87792,775.51786 v -476.25"
       id="path1072"
       inkscape:connector-curvature="0"
       sodipodi:nodetypes="cc" />
    <path
       inkscape:connector-curvature="0"
       id="path1074"
       d="m 254.37795,775.51786 v -476.25"
       style="fill:#ffffff;fill-opacity:1;stroke:#000000;stroke-width:0.5291667;stroke-linecap:butt;stroke-linejoin:round;stroke-miterlimit:4;stroke-dasharray:none;stroke-opacity:1"
       sodipodi:nodetypes="cc" />
    <path
       inkscape:connector-curvature="0"
       id="path1076"
       d="m 651.25292,775.51786 v -476.25"
       style="fill:#ffffff;stroke:#000000;stroke-width:0.5291667;stroke-linecap:butt;stroke-linejoin:round;stroke-miterlimit:4;stroke-dasharray:none;stroke-opacity:1"
       sodipodi:nodetypes="cc" />
    <path
       inkscape:connector-curvature="0"
       id="path1078"
       d="M 16.252957,775.51787 V 299.26786"
       style="fill:#ffffff;fill-opacity:1;stroke:#000000;stroke-width:0.5291667;stroke-linecap:butt;stroke-linejoin:round;stroke-miterlimit:4;stroke-dasharray:none;stroke-opacity:1"
       sodipodi:nodetypes="cc" />
    <path
       sodipodi:nodetypes="cc"
       inkscape:connector-curvature="0"
       id="path1086"
       d="M 690.94049,648.51786 H -102.80952"
       style="fill:#ffffff;stroke:#000000;stroke-width:0.5291667;stroke-linecap:butt;stroke-linejoin:round;stroke-miterlimit:4;stroke-dasharray:none;stroke-opacity:1" />
    <path
       style="fill:#ffffff;stroke:#000000;stroke-width:0.5291667;stroke-linecap:butt;stroke-linejoin:round;stroke-miterlimit:4;stroke-dasharray:none;stroke-opacity:1"
       d="M 690.94049,680.26786 H -102.80952"
       id="path1088"
       inkscape:connector-curvature="0"
       sodipodi:nodetypes="cc" />
    <path
       style="fill:#ffffff;stroke:#000000;stroke-width:0.5291667;stroke-linecap:butt;stroke-linejoin:round;stroke-miterlimit:4;stroke-dasharray:none;stroke-opacity:1"
       d="M 690.94049,712.01786 H -102.80952"
       id="path1092"
       inkscape:connector-curvature="0"
       sodipodi:nodetypes="cc" />
    <path
       sodipodi:nodetypes="cc"
       inkscape:connector-curvature="0"
       id="path1094"
       d="M 690.94049,743.76786 H -102.80952"
       style="fill:#ffffff;stroke:#000000;stroke-width:0.5291667;stroke-linecap:butt;stroke-linejoin:round;stroke-miterlimit:4;stroke-dasharray:none;stroke-opacity:1" />
    <path
       style="fill:#ffffff;stroke:#000000;stroke-width:0.5291667;stroke-linecap:butt;stroke-linejoin:round;stroke-miterlimit:4;stroke-dasharray:none;stroke-opacity:1"
       d="M 690.94049,553.26786 H -102.80952"
       id="path1096"
       inkscape:connector-curvature="0"
       sodipodi:nodetypes="cc" />
    <path
       style="fill:#ffffff;stroke:#000000;stroke-width:0.5291667;stroke-linecap:butt;stroke-linejoin:round;stroke-miterlimit:4;stroke-dasharray:none;stroke-opacity:1"
       d="M 690.94049,299.26786 H -102.80952"
       id="path1100"
       inkscape:connector-curvature="0"
       sodipodi:nodetypes="cc" />
    <path
       sodipodi:nodetypes="cc"
       inkscape:connector-curvature="0"
       id="path1102"
       d="M 690.94049,331.01786 H -102.80952"
       style="fill:#ffffff;stroke:#000000;stroke-width:0.5291667;stroke-linecap:butt;stroke-linejoin:round;stroke-miterlimit:4;stroke-dasharray:none;stroke-opacity:1" />
    <path
       style="fill:#ffffff;stroke:#000000;stroke-width:0.5291667;stroke-linecap:butt;stroke-linejoin:round;stroke-miterlimit:4;stroke-dasharray:none;stroke-opacity:1"
       d="M 690.94049,362.76786 H -102.80952"
       id="path1104"
       inkscape:connector-curvature="0"
       sodipodi:nodetypes="cc" />
    <path
       sodipodi:nodetypes="cc"
       inkscape:connector-curvature="0"
       id="path1106"
       d="M 690.94049,394.51786 H -102.80952"
       style="fill:#ffffff;stroke:#000000;stroke-width:0.5291667;stroke-linecap:butt;stroke-linejoin:round;stroke-miterlimit:4;stroke-dasharray:none;stroke-opacity:1" />
    <path
       style="fill:#ffffff;stroke:#000000;stroke-width:0.5291667;stroke-linecap:butt;stroke-linejoin:round;stroke-miterlimit:4;stroke-dasharray:none;stroke-opacity:1"
       d="M 690.94049,426.26786 H -102.80952"
       id="path1108"
       inkscape:connector-curvature="0"
       sodipodi:nodetypes="cc" />
    <path
       sodipodi:nodetypes="cccc"
       style="fill:none;fill-opacity:1;stroke:#000000;stroke-width:0.5291667;stroke-linecap:butt;stroke-linejoin:round;stroke-miterlimit:4;stroke-dasharray:none;stroke-opacity:1"
       d="m -63.122028,780.80954 v 5.29166 l -39.687492,-10e-6 v -5.29166"
       id="path1125"
       inkscape:connector-curvature="0" />
    <path
       inkscape:connector-curvature="0"
       id="path1129"
       d="m 696.23216,775.51786 h 5.29166 v -476.25 h -5.29166"
       style="fill:none;fill-opacity:1;stroke:#000000;stroke-width:0.5291667;stroke-linecap:butt;stroke-linejoin:round;stroke-miterlimit:4;stroke-dasharray:none;stroke-opacity:1"
       sodipodi:nodetypes="cccc" />
    <g
       aria-label="A"
       style="font-style:normal;font-variant:normal;font-weight:normal;font-stretch:normal;font-size:44.28173065px;line-height:1.25;font-family:'Noto Sans';-inkscape-font-specification:'Noto Sans';text-align:center;letter-spacing:0px;word-spacing:0px;text-anchor:middle;fill:#000000;fill-opacity:1;stroke:none;stroke-width:1.66056502"
       id="text1135"
       transform="translate(-9.9777778e-6,-2e-5)">
      <path
         d="m 731.21362,553.26788 -3.80823,-9.78626 h -12.53173 l -3.76395,9.78626 h -4.02963 l 12.3546,-31.75 h 3.58682 l 12.31032,31.75 z m -5.00384,-13.3288 -3.54253,-9.56485 q -0.13285,-0.35426 -0.44282,-1.28417 -0.30997,-0.92992 -0.61995,-1.90412 -0.26569,-1.01848 -0.44281,-1.54986 -0.35426,1.37274 -0.75279,2.70119 -0.35426,1.28417 -0.61995,2.03696 l -3.58682,9.56485 z"
         style="stroke-width:1.66056502"
         id="path1520"
         inkscape:connector-curvature="0" />
    </g>
    <path
       sodipodi:nodetypes="cccc"
       style="fill:none;fill-opacity:1;stroke:#000000;stroke-width:0.5291667;stroke-linecap:butt;stroke-linejoin:round;stroke-miterlimit:4;stroke-dasharray:none;stroke-opacity:1"
       d="m 690.94049,293.97619 v -5.29166 h -793.75001 v 5.29166"
       id="path1137"
       inkscape:connector-curvature="0" />
    <path
       sodipodi:nodetypes="cccc"
       style="fill:none;fill-opacity:1;stroke:#000000;stroke-width:0.5291667;stroke-linecap:butt;stroke-linejoin:round;stroke-miterlimit:4;stroke-dasharray:none;stroke-opacity:1"
       d="m -108.10119,775.51786 h -5.29167 v -158.75 h 5.29167"
       id="path1143"
       inkscape:connector-curvature="0" />
    <path
       inkscape:connector-curvature="0"
       id="path1145"
       d="m -108.10119,458.01786 h -5.29167 v -31.75 h 5.29167"
       style="fill:none;fill-opacity:1;stroke:#000000;stroke-width:0.5291667;stroke-linecap:butt;stroke-linejoin:round;stroke-miterlimit:4;stroke-dasharray:none;stroke-opacity:1"
       sodipodi:nodetypes="cccc" />
    <path
       sodipodi:nodetypes="cccc"
       style="fill:none;fill-opacity:1;stroke:#000000;stroke-width:0.5291667;stroke-linecap:butt;stroke-linejoin:round;stroke-miterlimit:4;stroke-dasharray:none;stroke-opacity:1"
       d="m -108.10119,346.89286 h -5.29167 v -31.75 h 5.29167"
       id="path1147"
       inkscape:connector-curvature="0" />
    <path
       inkscape:connector-curvature="0"
       id="path1150"
       d="m -108.10119,585.01788 h -5.29167 v -95.25 h 5.29167"
       style="fill:none;fill-opacity:1;stroke:#000000;stroke-width:0.5291667;stroke-linecap:butt;stroke-linejoin:round;stroke-miterlimit:4;stroke-dasharray:none;stroke-opacity:1"
       sodipodi:nodetypes="cccc" />
    <g
       aria-label="B"
       style="font-style:normal;font-variant:normal;font-weight:normal;font-stretch:normal;font-size:44.28173065px;line-height:1.25;font-family:'Noto Sans';-inkscape-font-specification:'Noto Sans';text-align:center;letter-spacing:0px;word-spacing:0px;text-anchor:middle;fill:#000000;fill-opacity:1;stroke:none;stroke-width:1.66056502"
       id="text1135-7"
       transform="translate(-0.958275,-2.0022222e-5)">
      <path
         d="m 283.97547,251.51114 h 9.03347 q 5.88947,0 8.94491,1.77127 3.05544,1.77127 3.05544,6.0666 0,2.78975 -1.54986,4.64958 -1.54986,1.81555 -4.47245,2.34693 v 0.22141 q 1.99267,0.35425 3.58682,1.19561 1.63842,0.84135 2.56834,2.39121 0.92991,1.54986 0.92991,3.98535 0,4.29533 -2.96687,6.64226 -2.9226,2.34694 -8.015,2.34694 h -11.11471 z m 3.98536,13.46165 h 5.84518 q 4.02964,0 5.53522,-1.28417 1.54986,-1.32846 1.54986,-3.8968 0,-2.61262 -1.85983,-3.71966 -1.81555,-1.15133 -5.84519,-1.15133 h -5.22524 z m 0,3.32113 v 11.46896 h 6.37656 q 4.20677,0 5.84519,-1.63842 1.63843,-1.63842 1.63843,-4.29533 0,-2.47977 -1.72699,-3.98535 -1.68271,-1.54986 -6.0666,-1.54986 z"
         style="stroke-width:1.66056502"
         id="path1517"
         inkscape:connector-curvature="0" />
    </g>
    <g
       aria-label="C"
       style="font-style:normal;font-variant:normal;font-weight:normal;font-stretch:normal;font-size:44.28173065px;line-height:1.25;font-family:'Noto Sans';-inkscape-font-specification:'Noto Sans';text-align:center;letter-spacing:0px;word-spacing:0px;text-anchor:middle;fill:#000000;fill-opacity:1;stroke:none;stroke-width:1.66056502"
       id="text1173"
       transform="translate(-0.61060002,2.5e-5)">
      <path
         d="m -127.10629,683.3897 q -5.0924,0 -8.01499,3.40969 -2.9226,3.4097 -2.9226,9.34345 0,5.88947 2.70119,9.34344 2.74547,3.4097 8.19212,3.4097 2.03696,0 3.89679,-0.35426 1.85983,-0.35425 3.67538,-0.88563 v 3.45397 q -1.77127,0.66423 -3.67538,0.9742 -1.85983,0.30997 -4.47245,0.30997 -4.82671,0 -8.05928,-1.99267 -3.23257,-1.99268 -4.87099,-5.66807 -1.59414,-3.67538 -1.59414,-8.63493 0,-4.78243 1.72699,-8.41353 1.77126,-3.67539 5.18096,-5.71235 3.40969,-2.08124 8.28068,-2.08124 5.00384,0 8.7235,1.85984 l -1.59414,3.36541 q -1.4613,-0.66423 -3.27685,-1.19561 -1.77127,-0.53138 -3.89679,-0.53138 z"
         style="stroke-width:1.66056502"
         id="path1508"
         inkscape:connector-curvature="0" />
    </g>
    <g
       aria-label="D"
       style="font-style:normal;font-variant:normal;font-weight:normal;font-stretch:normal;font-size:44.28173065px;line-height:1.25;font-family:'Noto Sans';-inkscape-font-specification:'Noto Sans';text-align:center;letter-spacing:0px;word-spacing:0px;text-anchor:middle;fill:#000000;fill-opacity:1;stroke:none;stroke-width:1.66056502"
       id="text1177">
      <path
         d="m -70.16074,807.59892 q 0,8.01499 -4.383891,12.08891 -4.339609,4.02964 -12.133194,4.02964 h -8.812064 v -31.61716 h 9.74198 q 4.738145,0 8.236402,1.77127 3.542539,1.77127 5.446653,5.22525 1.904114,3.45397 1.904114,8.50209 z m -4.206764,0.13284 q 0,-6.33228 -3.144003,-9.25488 -3.099721,-2.96687 -8.812064,-2.96687 h -5.180963 v 24.79777 h 4.295328 q 12.841702,0 12.841702,-12.57602 z"
         style="stroke-width:1.66056502"
         id="path1523"
         inkscape:connector-curvature="0" />
    </g>
    <g
       aria-label="E"
       style="font-style:normal;font-variant:normal;font-weight:normal;font-stretch:normal;font-size:44.28173065px;line-height:1.25;font-family:'Noto Sans';-inkscape-font-specification:'Noto Sans';text-align:center;letter-spacing:0px;word-spacing:0px;text-anchor:middle;fill:#000000;fill-opacity:1;stroke:none;stroke-width:1.66056502"
       id="text1181"
       transform="translate(2.96308,-5.40348)">
      <path
         d="m -121.91219,463.35492 h -17.66841 v -31.61716 h 17.66841 v 3.49826 h -13.68305 v 9.87483 h 12.88598 v 3.45397 h -12.88598 v 11.29184 h 13.68305 z"
         style="stroke-width:1.66056502"
         id="path1514"
         inkscape:connector-curvature="0" />
    </g>
    <g
       aria-label="F"
       style="font-style:normal;font-variant:normal;font-weight:normal;font-stretch:normal;font-size:44.28173065px;line-height:1.25;font-family:'Noto Sans';-inkscape-font-specification:'Noto Sans';text-align:center;letter-spacing:0px;word-spacing:0px;text-anchor:middle;fill:#000000;fill-opacity:1;stroke:none;stroke-width:1.66056502"
       id="text1185"
       transform="translate(2.14145,5.29168)">
      <path
         d="m -134.77361,341.53476 h -3.98536 V 309.9176 h 17.66841 v 3.49826 h -13.68305 v 11.20328 h 12.8417 v 3.49826 h -12.8417 z"
         style="stroke-width:1.66056502"
         id="path1505"
         inkscape:connector-curvature="0" />
    </g>
    <g
       aria-label="G"
       style="font-style:normal;font-variant:normal;font-weight:normal;font-stretch:normal;font-size:44.28173065px;line-height:1.25;font-family:'Noto Sans';-inkscape-font-specification:'Noto Sans';text-align:center;letter-spacing:0px;word-spacing:0px;text-anchor:middle;fill:#000000;fill-opacity:1;stroke:none;stroke-width:1.66056502"
       id="text1189"
       transform="translate(-0.22797002,-1.5e-5)">
      <path
         d="m -129.65872,536.50726 h 10.93758 v 15.49861 q -2.56834,0.84135 -5.18096,1.23989 -2.61262,0.39853 -5.93375,0.39853 -4.91527,0 -8.28068,-1.94839 -3.36542,-1.99268 -5.13669,-5.62378 -1.72698,-3.67539 -1.72698,-8.67922 0,-4.91527 1.90411,-8.54637 1.9484,-3.67539 5.62378,-5.66807 3.67538,-2.03696 8.85635,-2.03696 2.6569,0 5.00383,0.4871 2.39122,0.4871 4.42818,1.37274 l -1.50558,3.45397 q -1.68271,-0.70851 -3.80823,-1.23989 -2.08124,-0.57566 -4.33961,-0.57566 -5.66806,0 -8.85635,3.45398 -3.144,3.40969 -3.144,9.29916 0,3.76395 1.19561,6.68654 1.23988,2.87831 3.85251,4.51674 2.61262,1.59414 6.86367,1.59414 2.08124,0 3.54253,-0.22141 1.4613,-0.22141 2.65691,-0.53138 v -9.38773 h -6.95223 z"
         style="stroke-width:1.66056502"
         id="path1511"
         inkscape:connector-curvature="0" />
    </g>
    <path
       sodipodi:nodetypes="cc"
       inkscape:connector-curvature="0"
       id="path1191"
       d="M 690.94049,489.76786 H -102.80952"
       style="fill:#ffffff;stroke:#000000;stroke-width:0.5291667;stroke-linecap:butt;stroke-linejoin:round;stroke-miterlimit:4;stroke-dasharray:none;stroke-opacity:1" />
    <path
       style="fill:#ffffff;stroke:#000000;stroke-width:0.5291667;stroke-linecap:butt;stroke-linejoin:round;stroke-miterlimit:4;stroke-dasharray:none;stroke-opacity:1"
       d="M 690.94049,521.51786 H -102.80952"
       id="path1193"
       inkscape:connector-curvature="0"
       sodipodi:nodetypes="cc" />
    <path
       style="fill:#ffffff;stroke:#000000;stroke-width:0.5291667;stroke-linecap:butt;stroke-linejoin:round;stroke-miterlimit:4;stroke-dasharray:none;stroke-opacity:1"
       d="M 690.94049,585.01786 H -102.80952"
       id="path1197"
       inkscape:connector-curvature="0"
       sodipodi:nodetypes="cc" />
    <text
       xml:space="preserve"
       style="font-style:normal;font-variant:normal;font-weight:normal;font-stretch:normal;font-size:44.28173065px;line-height:1;font-family:'Noto Sans';-inkscape-font-specification:'Noto Sans';text-align:start;letter-spacing:0px;word-spacing:0px;text-anchor:start;fill:#000000;fill-opacity:1;stroke:none;stroke-width:1.66056502"
       x="820.36279"
       y="376.44434"
       id="text1135-3"><tspan
         sodipodi:role="line"
         id="tspan1133-6"
         x="820.36279"
         y="376.44434"
         style="font-size:25.39999962px;line-height:1;text-align:start;text-anchor:start;stroke-width:1.66056502">measures:</tspan><tspan
         sodipodi:role="line"
         x="820.36279"
         y="420.72607"
         style="font-size:25.39999962px;line-height:1;text-align:start;text-anchor:start;stroke-width:1.66056502"
         id="tspan1233">A = flag's height</tspan><tspan
         sodipodi:role="line"
         x="820.36279"
         y="465.00781"
         style="font-size:25.39999962px;line-height:1;text-align:start;text-anchor:start;stroke-width:1.66056502"
         id="tspan1219">B = ⁵/₃ x A</tspan><tspan
         sodipodi:role="line"
         x="820.36279"
         y="509.28952"
         style="font-size:25.39999962px;line-height:1;text-align:start;text-anchor:start;stroke-width:1.66056502"
         id="tspan1221">C = ¹/₃ x A</tspan><tspan
         sodipodi:role="line"
         x="820.36279"
         y="553.57123"
         style="font-size:25.39999962px;line-height:1;text-align:start;text-anchor:start;stroke-width:1.66056502"
         id="tspan1223">D = ¹/₂₀ x B = ¹/₁₂ x A</tspan><tspan
         sodipodi:role="line"
         x="820.36279"
         y="597.85297"
         style="font-size:25.39999962px;line-height:1;text-align:start;text-anchor:start;stroke-width:1.66056502"
         id="tspan1227">E = ¹/₅ x C = ¹/₁₅ x A</tspan><tspan
         sodipodi:role="line"
         x="820.36279"
         y="642.1347"
         style="font-size:25.39999962px;line-height:1;text-align:start;text-anchor:start;stroke-width:1.66056502"
         id="tspan1229">F = E = ¹/₁₅ x A</tspan><tspan
         sodipodi:role="line"
         x="820.36279"
         y="686.41644"
         style="font-size:25.39999962px;line-height:1;text-align:start;text-anchor:start;stroke-width:1.66056502"
         id="tspan1235">G = ³/₅ x C = ¹/₅ x A</tspan><tspan
         sodipodi:role="line"
         x="820.36279"
         y="730.69818"
         style="font-size:25.39999962px;line-height:1;text-align:start;text-anchor:start;stroke-width:1.66056502"
         id="tspan1237">white: safe</tspan><tspan
         sodipodi:role="line"
         x="820.36279"
         y="774.97992"
         style="font-size:25.39999962px;line-height:1;text-align:start;text-anchor:start;stroke-width:1.66056502"
         id="tspan1241">blue: Old Glory blue</tspan></text>
    <text
       id="text1626"
       y="212.40285"
       x="597.55701"
       style="font-style:normal;font-variant:normal;font-weight:normal;font-stretch:normal;font-size:44.28173065px;line-height:1;font-family:'Noto Sans';-inkscape-font-specification:'Noto Sans';text-align:start;letter-spacing:0px;word-spacing:0px;text-anchor:start;fill:#000000;fill-opacity:1;stroke:none;stroke-width:1.66056502"
       xml:space="preserve"><tspan
         id="tspan1624"
         style="font-size:25.39999962px;line-height:1;text-align:center;text-anchor:middle;stroke-width:1.66056502"
         y="212.40285"
         x="597.55701"
         sodipodi:role="line">A proposal for the flag of the state of Illinois</tspan><tspan
         style="font-size:14.11111164px;line-height:1;text-align:center;text-anchor:middle;stroke-width:1.66056502"
         y="256.68457"
         x="597.55701"
         sodipodi:role="line"
         id="tspan1682">by Sébastien Gantois, freely based on the Illinois Centennial Flag</tspan></text>
    <path
       inkscape:connector-curvature="0"
       id="path1684"
       d="M -108.10119,346.89286 H 95.62795 m 0,-31.75 h -203.72914"
       style="fill:none;fill-opacity:1;stroke:#000000;stroke-width:0.52916667;stroke-linecap:round;stroke-linejoin:round;stroke-miterlimit:4;stroke-dasharray:0.52916667,1.5875;stroke-opacity:1;stroke-dashoffset:0"
       sodipodi:nodetypes="cccc" />
  </g>
</svg>
