<?xml version="1.0" encoding="UTF-8" standalone="no"?>
<!-- Created with Inkscape (http://www.inkscape.org/) -->

<svg
   xmlns:dc="http://purl.org/dc/elements/1.1/"
   xmlns:cc="http://creativecommons.org/ns#"
   xmlns:rdf="http://www.w3.org/1999/02/22-rdf-syntax-ns#"
   xmlns:svg="http://www.w3.org/2000/svg"
   xmlns="http://www.w3.org/2000/svg"
   xmlns:sodipodi="http://sodipodi.sourceforge.net/DTD/sodipodi-0.dtd"
   xmlns:inkscape="http://www.inkscape.org/namespaces/inkscape"
   width="1800.0013"
   height="1800.0082"
   viewBox="0 0 476.25036 476.25217"
   version="1.1"
   id="svg8"
   inkscape:export-filename="C:\Users\drk22\Documents\GXI3CW2\cercles\US.png"
   inkscape:export-xdpi="96"
   inkscape:export-ydpi="96"
   inkscape:version="0.92.4 (5da689c313, 2019-01-14)"
   sodipodi:docname="M'E2 - Copie.svg">
  <defs
     id="defs2" />
  <sodipodi:namedview
     id="base"
     pagecolor="#ffffff"
     bordercolor="#666666"
     borderopacity="1.0"
     inkscape:pageopacity="0.0"
     inkscape:pageshadow="2"
     inkscape:zoom="0.1767767"
     inkscape:cx="-910.74058"
     inkscape:cy="737.61846"
     inkscape:document-units="px"
     inkscape:current-layer="layer1"
     showgrid="false"
     units="px"
     fit-margin-top="0"
     fit-margin-left="0"
     fit-margin-right="0"
     fit-margin-bottom="0"
     inkscape:showpageshadow="false"
     inkscape:snap-intersection-paths="false"
     inkscape:object-paths="false"
     inkscape:pagecheckerboard="true"
     inkscape:snap-smooth-nodes="true"
     inkscape:window-width="1920"
     inkscape:window-height="1051"
     inkscape:window-x="-9"
     inkscape:window-y="-9"
     inkscape:window-maximized="1"
     inkscape:object-nodes="true"
     inkscape:snap-nodes="true"
     showguides="false" />
  <metadata
     id="metadata5">
    <rdf:RDF>
      <cc:Work
         rdf:about="">
        <dc:format>image/svg+xml</dc:format>
        <dc:type
           rdf:resource="http://purl.org/dc/dcmitype/StillImage" />
        <dc:title></dc:title>
      </cc:Work>
    </rdf:RDF>
  </metadata>
  <g
     inkscape:label="レイヤー 1"
     inkscape:groupmode="layer"
     id="layer1"
     transform="translate(-21.016693,-299.2657)">
    <path
       style="opacity:1;fill:#b31942;fill-opacity:1;stroke:none;stroke-width:4.57751226;stroke-linecap:round;stroke-linejoin:round;stroke-miterlimit:4;stroke-dasharray:none;stroke-opacity:1"
       d="m 926.38672,1661.5391 c 143.04238,90.094 308.34518,138.3378 477.61788,138.4609 169.2727,0.1231 334.1989,-48.1305 477.6179,-138.4609 z"
       transform="matrix(0.26458333,0,0,0.26458333,-112.33452,299.2678)"
       id="path880"
       inkscape:connector-curvature="0"
       sodipodi:nodetypes="czcc" />
    <path
       style="opacity:1;fill:#0a3161;fill-opacity:1;stroke:none;stroke-width:1.21113348;stroke-linecap:round;stroke-linejoin:round;stroke-miterlimit:4;stroke-dasharray:none;stroke-opacity:1"
       d="m 21.710801,555.71107 c -0.459935,-6.04578 -0.694108,-12.15467 -0.694108,-18.31825 0,-131.5128 106.612197,-238.125 238.124997,-238.125 v 256.44232 z"
       id="circle1090"
       inkscape:connector-curvature="0"
       sodipodi:nodetypes="csccc" />
    <path
       style="fill:#ffffff;fill-opacity:1;stroke:none;stroke-width:8.61848354px;stroke-linecap:butt;stroke-linejoin:miter;stroke-opacity:1"
       d="m 754.90625,1523.0762 c 51.27152,53.0055 108.86343,99.5084 171.48047,138.4629 h 955.23578 c 61.7876,-39.1125 121.1447,-85.6095 171.6819,-138.4629 z"
       transform="matrix(0.26458333,0,0,0.26458333,-112.33452,299.2678)"
       id="path828"
       inkscape:connector-curvature="0"
       sodipodi:nodetypes="ccccc" />
    <path
       style="fill:#b31942;fill-opacity:1;stroke:none;stroke-width:8.61848354px;stroke-linecap:butt;stroke-linejoin:miter;stroke-opacity:1"
       d="m 645.73242,1384.6152 c 31.77153,49.6158 68.33825,95.992 109.17383,138.461 H 2053.3044 c 40.8472,-42.4675 77.4251,-88.8437 109.2071,-138.461 z"
       transform="matrix(0.26458333,0,0,0.26458333,-112.33452,299.2678)"
       id="path830"
       inkscape:connector-curvature="0"
       sodipodi:nodetypes="ccccc" />
    <path
       style="fill:#ffffff;fill-opacity:1;stroke:none;stroke-width:8.61848354px;stroke-linecap:butt;stroke-linejoin:miter;stroke-opacity:1"
       d="m 574.13477,1246.1543 c 19.81662,48.1374 43.77233,94.4648 71.59765,138.4609 H 2162.5115 c 28.4065,-43.9358 52.9277,-90.2649 73.2851,-138.4609 z"
       transform="matrix(0.26458333,0,0,0.26458333,-112.33452,299.2678)"
       id="path832"
       inkscape:connector-curvature="0"
       sodipodi:nodetypes="ccccc" />
    <path
       style="fill:#b31942;fill-opacity:1;stroke:none;stroke-width:8.61848354px;stroke-linecap:butt;stroke-linejoin:miter;stroke-opacity:1"
       d="m 529.38281,1107.6934 c 11.15566,47.2859 26.12188,93.5908 44.75196,138.4609 H 2235.7966 c 18.4252,-44.888 33.1901,-91.1926 44.1504,-138.4609 z"
       transform="matrix(0.26458333,0,0,0.26458333,-112.33452,299.2678)"
       id="path834"
       inkscape:connector-curvature="0"
       sodipodi:nodetypes="ccccc" />
    <path
       style="fill:#ffffff;fill-opacity:1;stroke:none;stroke-width:0.26458332px;stroke-linecap:butt;stroke-linejoin:miter;stroke-opacity:1"
       d="m 239.91333,544.16051 8.61335,6.25796 -3.29001,-10.1256 8.61335,-6.25795 h -10.64668 l -3.28998,-10.12559 -3.29002,10.12559 h -10.64667 l 8.61335,6.25796 -3.29001,10.12559 z"
       id="path898"
       inkscape:connector-curvature="0"
       sodipodi:nodetypes="ccccccccccc" />
    <path
       sodipodi:nodetypes="ccccccccccc"
       inkscape:connector-curvature="0"
       id="path911"
       d="m 224.56739,517.72253 8.61335,6.25796 -3.29001,-10.1256 8.61335,-6.25795 H 227.8574 l -3.28998,-10.12559 -3.29002,10.12559 h -10.64667 l 8.61335,6.25796 -3.29001,10.12559 z"
       style="fill:#ffffff;fill-opacity:1;stroke:none;stroke-width:0.26458332px;stroke-linecap:butt;stroke-linejoin:miter;stroke-opacity:1" />
    <path
       sodipodi:nodetypes="ccccccccccc"
       inkscape:connector-curvature="0"
       id="path931"
       d="m 239.91333,332.65663 8.61335,6.25796 -3.29001,-10.1256 8.61335,-6.25795 h -10.64668 l -3.28998,-10.12559 -3.29002,10.12559 h -10.64667 l 8.61335,6.25796 -3.29001,10.12559 z"
       style="fill:#ffffff;fill-opacity:1;stroke:none;stroke-width:0.26458332px;stroke-linecap:butt;stroke-linejoin:miter;stroke-opacity:1" />
    <path
       style="fill:#ffffff;fill-opacity:1;stroke:none;stroke-width:0.26458332px;stroke-linecap:butt;stroke-linejoin:miter;stroke-opacity:1"
       d="m 239.91333,385.53258 8.61335,6.25796 -3.29001,-10.1256 8.61335,-6.25795 h -10.64668 l -3.28998,-10.12559 -3.29002,10.12559 h -10.64667 l 8.61335,6.25796 -3.29001,10.12559 z"
       id="path943"
       inkscape:connector-curvature="0"
       sodipodi:nodetypes="ccccccccccc" />
    <path
       sodipodi:nodetypes="ccccccccccc"
       inkscape:connector-curvature="0"
       id="path955"
       d="m 239.91333,438.40854 8.61335,6.25796 -3.29001,-10.1256 8.61335,-6.25795 h -10.64668 l -3.28998,-10.12559 -3.29002,10.12559 h -10.64667 l 8.61335,6.25796 -3.29001,10.12559 z"
       style="fill:#ffffff;fill-opacity:1;stroke:none;stroke-width:0.26458332px;stroke-linecap:butt;stroke-linejoin:miter;stroke-opacity:1" />
    <path
       style="fill:#ffffff;fill-opacity:1;stroke:none;stroke-width:0.26458332px;stroke-linecap:butt;stroke-linejoin:miter;stroke-opacity:1"
       d="m 239.91333,491.28454 8.61335,6.25796 -3.29001,-10.1256 8.61335,-6.25795 h -10.64668 l -3.28998,-10.12559 -3.29002,10.12559 h -10.64667 l 8.61335,6.25796 -3.29001,10.12559 z"
       id="path967"
       inkscape:connector-curvature="0"
       sodipodi:nodetypes="ccccccccccc" />
    <path
       style="fill:#ffffff;fill-opacity:1;stroke:none;stroke-width:0.26458332px;stroke-linecap:butt;stroke-linejoin:miter;stroke-opacity:1"
       d="m 224.56739,359.0946 8.61335,6.25796 -3.29001,-10.1256 8.61335,-6.25795 H 227.8574 l -3.28998,-10.12559 -3.29002,10.12559 h -10.64667 l 8.61335,6.25796 -3.29001,10.12559 z"
       id="path979"
       inkscape:connector-curvature="0"
       sodipodi:nodetypes="ccccccccccc" />
    <path
       sodipodi:nodetypes="ccccccccccc"
       inkscape:connector-curvature="0"
       id="path989"
       d="m 224.56739,411.97057 8.61335,6.25796 -3.29001,-10.1256 8.61335,-6.25795 H 227.8574 l -3.28998,-10.12559 -3.29002,10.12559 h -10.64667 l 8.61335,6.25796 -3.29001,10.12559 z"
       style="fill:#ffffff;fill-opacity:1;stroke:none;stroke-width:0.26458332px;stroke-linecap:butt;stroke-linejoin:miter;stroke-opacity:1" />
    <path
       style="fill:#ffffff;fill-opacity:1;stroke:none;stroke-width:0.26458332px;stroke-linecap:butt;stroke-linejoin:miter;stroke-opacity:1"
       d="m 224.56739,464.84654 8.61335,6.25796 -3.29001,-10.1256 8.61335,-6.25795 H 227.8574 l -3.28998,-10.12559 -3.29002,10.12559 h -10.64667 l 8.61335,6.25796 -3.29001,10.12559 z"
       id="path999"
       inkscape:connector-curvature="0"
       sodipodi:nodetypes="ccccccccccc" />
    <path
       sodipodi:nodetypes="ccccccccccc"
       inkscape:connector-curvature="0"
       id="path882"
       d="m 209.22148,544.1605 -8.61335,6.25796 3.29001,-10.1256 -8.61335,-6.25795 h 10.64668 l 3.28998,-10.12559 3.29002,10.12559 h 10.64667 l -8.61335,6.25796 3.29001,10.12559 z"
       style="fill:#ffffff;fill-opacity:1;stroke:none;stroke-width:0.26458332px;stroke-linecap:butt;stroke-linejoin:miter;stroke-opacity:1" />
    <path
       style="fill:#ffffff;fill-opacity:1;stroke:none;stroke-width:0.26458332px;stroke-linecap:butt;stroke-linejoin:miter;stroke-opacity:1"
       d="m 209.22148,332.65663 -8.61335,6.25796 3.29001,-10.1256 -8.61335,-6.25795 h 10.64668 l 3.28998,-10.12559 3.29002,10.12559 h 10.64667 l -8.61335,6.25796 3.29001,10.12559 z"
       id="path886"
       inkscape:connector-curvature="0"
       sodipodi:nodetypes="ccccccccccc" />
    <path
       sodipodi:nodetypes="ccccccccccc"
       inkscape:connector-curvature="0"
       id="path888"
       d="m 209.22148,385.5326 -8.61335,6.25796 3.29001,-10.1256 -8.61335,-6.25795 h 10.64668 l 3.28998,-10.12559 3.29002,10.12559 h 10.64667 l -8.61335,6.25796 3.29001,10.12559 z"
       style="fill:#ffffff;fill-opacity:1;stroke:none;stroke-width:0.26458332px;stroke-linecap:butt;stroke-linejoin:miter;stroke-opacity:1" />
    <path
       style="fill:#ffffff;fill-opacity:1;stroke:none;stroke-width:0.26458332px;stroke-linecap:butt;stroke-linejoin:miter;stroke-opacity:1"
       d="m 209.22148,438.40856 -8.61335,6.25796 3.29001,-10.1256 -8.61335,-6.25795 h 10.64668 l 3.28998,-10.12559 3.29002,10.12559 h 10.64667 l -8.61335,6.25796 3.29001,10.12559 z"
       id="path890"
       inkscape:connector-curvature="0"
       sodipodi:nodetypes="ccccccccccc" />
    <path
       sodipodi:nodetypes="ccccccccccc"
       inkscape:connector-curvature="0"
       id="path892"
       d="m 209.22148,491.28453 -8.61335,6.25796 3.29001,-10.1256 -8.61335,-6.25795 h 10.64668 l 3.28998,-10.12559 3.29002,10.12559 h 10.64667 l -8.61335,6.25796 3.29001,10.12559 z"
       style="fill:#ffffff;fill-opacity:1;stroke:none;stroke-width:0.26458332px;stroke-linecap:butt;stroke-linejoin:miter;stroke-opacity:1" />
    <path
       style="fill:#ffffff;fill-opacity:1;stroke:none;stroke-width:0.26458332px;stroke-linecap:butt;stroke-linejoin:miter;stroke-opacity:1"
       d="m 193.87552,517.72252 8.61335,6.25796 -3.29001,-10.1256 8.61335,-6.25795 h -10.64668 l -3.28998,-10.12559 -3.29002,10.12559 h -10.64667 l 8.61335,6.25796 -3.29001,10.12559 z"
       id="path901"
       inkscape:connector-curvature="0"
       sodipodi:nodetypes="ccccccccccc" />
    <path
       sodipodi:nodetypes="ccccccccccc"
       inkscape:connector-curvature="0"
       id="path905"
       d="m 193.87552,359.09459 8.61335,6.25796 -3.29001,-10.1256 8.61335,-6.25795 h -10.64668 l -3.28998,-10.12559 -3.29002,10.12559 h -10.64667 l 8.61335,6.25796 -3.29001,10.12559 z"
       style="fill:#ffffff;fill-opacity:1;stroke:none;stroke-width:0.26458332px;stroke-linecap:butt;stroke-linejoin:miter;stroke-opacity:1" />
    <path
       style="fill:#ffffff;fill-opacity:1;stroke:none;stroke-width:0.26458332px;stroke-linecap:butt;stroke-linejoin:miter;stroke-opacity:1"
       d="m 193.87552,411.97056 8.61335,6.25796 -3.29001,-10.1256 8.61335,-6.25795 h -10.64668 l -3.28998,-10.12559 -3.29002,10.12559 h -10.64667 l 8.61335,6.25796 -3.29001,10.12559 z"
       id="path907"
       inkscape:connector-curvature="0"
       sodipodi:nodetypes="ccccccccccc" />
    <path
       sodipodi:nodetypes="ccccccccccc"
       inkscape:connector-curvature="0"
       id="path909"
       d="m 193.87552,464.84653 8.61335,6.25796 -3.29001,-10.1256 8.61335,-6.25795 h -10.64668 l -3.28998,-10.12559 -3.29002,10.12559 h -10.64667 l 8.61335,6.25796 -3.29001,10.12559 z"
       style="fill:#ffffff;fill-opacity:1;stroke:none;stroke-width:0.26458332px;stroke-linecap:butt;stroke-linejoin:miter;stroke-opacity:1" />
    <path
       style="fill:#ffffff;fill-opacity:1;stroke:none;stroke-width:0.26458332px;stroke-linecap:butt;stroke-linejoin:miter;stroke-opacity:1"
       d="m 178.52961,544.16049 -8.61335,6.25796 3.29001,-10.1256 -8.61335,-6.25795 h 10.64668 l 3.28998,-10.12559 3.29002,10.12559 h 10.64667 l -8.61335,6.25796 3.29001,10.12559 z"
       id="path912"
       inkscape:connector-curvature="0"
       sodipodi:nodetypes="ccccccccccc" />
    <path
       style="fill:#ffffff;fill-opacity:1;stroke:none;stroke-width:0.26458332px;stroke-linecap:butt;stroke-linejoin:miter;stroke-opacity:1"
       d="m 178.52961,385.53256 -8.61335,6.25796 3.29001,-10.1256 -8.61335,-6.25795 h 10.64668 l 3.28998,-10.12559 3.29002,10.12559 h 10.64667 l -8.61335,6.25796 3.29001,10.12559 z"
       id="path914"
       inkscape:connector-curvature="0"
       sodipodi:nodetypes="ccccccccccc" />
    <path
       sodipodi:nodetypes="ccccccccccc"
       inkscape:connector-curvature="0"
       id="path916"
       d="m 178.52961,438.40856 -8.61335,6.25796 3.29001,-10.1256 -8.61335,-6.25795 h 10.64668 l 3.28998,-10.12559 3.29002,10.12559 h 10.64667 l -8.61335,6.25796 3.29001,10.12559 z"
       style="fill:#ffffff;fill-opacity:1;stroke:none;stroke-width:0.26458332px;stroke-linecap:butt;stroke-linejoin:miter;stroke-opacity:1" />
    <path
       style="fill:#ffffff;fill-opacity:1;stroke:none;stroke-width:0.26458332px;stroke-linecap:butt;stroke-linejoin:miter;stroke-opacity:1"
       d="m 178.52961,491.28453 -8.61335,6.25796 3.29001,-10.1256 -8.61335,-6.25795 h 10.64668 l 3.28998,-10.12559 3.29002,10.12559 h 10.64667 l -8.61335,6.25796 3.29001,10.12559 z"
       id="path918"
       inkscape:connector-curvature="0"
       sodipodi:nodetypes="ccccccccccc" />
    <path
       style="fill:#ffffff;fill-opacity:1;stroke:none;stroke-width:0.26458332px;stroke-linecap:butt;stroke-linejoin:miter;stroke-opacity:1"
       d="m 147.83774,544.16048 -8.61335,6.25796 3.29001,-10.1256 -8.61335,-6.25795 h 10.64668 l 3.28998,-10.12559 3.29002,10.12559 h 10.64667 l -8.61335,6.25796 3.29001,10.12559 z"
       id="path922"
       inkscape:connector-curvature="0"
       sodipodi:nodetypes="ccccccccccc" />
    <path
       style="fill:#ffffff;fill-opacity:1;stroke:none;stroke-width:0.26458332px;stroke-linecap:butt;stroke-linejoin:miter;stroke-opacity:1"
       d="m 147.83774,385.53256 -8.61335,6.25796 3.29001,-10.1256 -8.61335,-6.25795 h 10.64668 l 3.28998,-10.12559 3.29002,10.12559 h 10.64667 l -8.61335,6.25796 3.29001,10.12559 z"
       id="path924"
       inkscape:connector-curvature="0"
       sodipodi:nodetypes="ccccccccccc" />
    <path
       sodipodi:nodetypes="ccccccccccc"
       inkscape:connector-curvature="0"
       id="path926"
       d="m 147.83774,438.40851 -8.61335,6.25796 3.29001,-10.1256 -8.61335,-6.25795 h 10.64668 l 3.28998,-10.12559 3.29002,10.12559 h 10.64667 l -8.61335,6.25796 3.29001,10.12559 z"
       style="fill:#ffffff;fill-opacity:1;stroke:none;stroke-width:0.26458332px;stroke-linecap:butt;stroke-linejoin:miter;stroke-opacity:1" />
    <path
       style="fill:#ffffff;fill-opacity:1;stroke:none;stroke-width:0.26458332px;stroke-linecap:butt;stroke-linejoin:miter;stroke-opacity:1"
       d="m 147.83774,491.28451 -8.61335,6.25796 3.29001,-10.1256 -8.61335,-6.25795 h 10.64668 l 3.28998,-10.12559 3.29002,10.12559 h 10.64667 l -8.61335,6.25796 3.29001,10.12559 z"
       id="path928"
       inkscape:connector-curvature="0"
       sodipodi:nodetypes="ccccccccccc" />
    <path
       sodipodi:nodetypes="ccccccccccc"
       inkscape:connector-curvature="0"
       id="path930"
       d="m 132.49178,517.7225 8.61335,6.25796 -3.29001,-10.1256 8.61335,-6.25795 h -10.64668 l -3.28998,-10.12559 -3.29002,10.12559 h -10.64667 l 8.61335,6.25796 -3.29001,10.12559 z"
       style="fill:#ffffff;fill-opacity:1;stroke:none;stroke-width:0.26458332px;stroke-linecap:butt;stroke-linejoin:miter;stroke-opacity:1" />
    <path
       style="fill:#ffffff;fill-opacity:1;stroke:none;stroke-width:0.26458332px;stroke-linecap:butt;stroke-linejoin:miter;stroke-opacity:1"
       d="m 163.18364,359.09459 8.61335,6.25796 -3.29001,-10.1256 8.61335,-6.25795 h -10.64668 l -3.28998,-10.12559 -3.29002,10.12559 h -10.64667 l 8.61335,6.25796 -3.29001,10.12559 z"
       id="path932"
       inkscape:connector-curvature="0"
       sodipodi:nodetypes="ccccccccccc" />
    <path
       sodipodi:nodetypes="ccccccccccc"
       inkscape:connector-curvature="0"
       id="path934"
       d="m 132.49178,411.97054 8.61335,6.25796 -3.29001,-10.1256 8.61335,-6.25795 h -10.64668 l -3.28998,-10.12559 -3.29002,10.12559 h -10.64667 l 8.61335,6.25796 -3.29001,10.12559 z"
       style="fill:#ffffff;fill-opacity:1;stroke:none;stroke-width:0.26458332px;stroke-linecap:butt;stroke-linejoin:miter;stroke-opacity:1" />
    <path
       style="fill:#ffffff;fill-opacity:1;stroke:none;stroke-width:0.26458332px;stroke-linecap:butt;stroke-linejoin:miter;stroke-opacity:1"
       d="m 132.49178,464.84654 8.61335,6.25796 -3.29001,-10.1256 8.61335,-6.25795 h -10.64668 l -3.28998,-10.12559 -3.29002,10.12559 h -10.64667 l 8.61335,6.25796 -3.29001,10.12559 z"
       id="path936"
       inkscape:connector-curvature="0"
       sodipodi:nodetypes="ccccccccccc" />
    <path
       sodipodi:nodetypes="ccccccccccc"
       inkscape:connector-curvature="0"
       id="path938"
       d="m 117.14587,544.16047 -8.61335,6.25796 3.29001,-10.1256 -8.61336,-6.25795 h 10.64669 l 3.28998,-10.12559 3.29002,10.12559 h 10.64667 l -8.61335,6.25796 3.29001,10.12559 z"
       style="fill:#ffffff;fill-opacity:1;stroke:none;stroke-width:0.26458332px;stroke-linecap:butt;stroke-linejoin:miter;stroke-opacity:1" />
    <path
       sodipodi:nodetypes="ccccccccccc"
       inkscape:connector-curvature="0"
       id="path940"
       d="m 117.14587,385.53256 -8.61335,6.25796 3.29001,-10.1256 -8.61336,-6.25795 h 10.64669 l 3.28998,-10.12559 3.29002,10.12559 h 10.64667 l -8.61335,6.25796 3.29001,10.12559 z"
       style="fill:#ffffff;fill-opacity:1;stroke:none;stroke-width:0.26458332px;stroke-linecap:butt;stroke-linejoin:miter;stroke-opacity:1" />
    <path
       style="fill:#ffffff;fill-opacity:1;stroke:none;stroke-width:0.26458332px;stroke-linecap:butt;stroke-linejoin:miter;stroke-opacity:1"
       d="m 117.14587,438.40853 -8.61335,6.25796 3.29001,-10.1256 -8.61336,-6.25795 h 10.64669 l 3.28998,-10.12559 3.29002,10.12559 h 10.64667 l -8.61335,6.25796 3.29001,10.12559 z"
       id="path942"
       inkscape:connector-curvature="0"
       sodipodi:nodetypes="ccccccccccc" />
    <path
       sodipodi:nodetypes="ccccccccccc"
       inkscape:connector-curvature="0"
       id="path944"
       d="m 117.14587,491.28447 -8.61335,6.25796 3.29001,-10.1256 -8.61336,-6.25795 h 10.64669 l 3.28998,-10.12559 3.29002,10.12559 h 10.64667 l -8.61335,6.25796 3.29001,10.12559 z"
       style="fill:#ffffff;fill-opacity:1;stroke:none;stroke-width:0.26458332px;stroke-linecap:butt;stroke-linejoin:miter;stroke-opacity:1" />
    <path
       sodipodi:nodetypes="ccccccccccc"
       inkscape:connector-curvature="0"
       id="path946"
       d="m 163.18364,411.97056 8.61335,6.25796 -3.29001,-10.1256 8.61335,-6.25795 h -10.64668 l -3.28998,-10.12559 -3.29002,10.12559 h -10.64667 l 8.61335,6.25796 -3.29001,10.12559 z"
       style="fill:#ffffff;fill-opacity:1;stroke:none;stroke-width:0.26458332px;stroke-linecap:butt;stroke-linejoin:miter;stroke-opacity:1" />
    <path
       sodipodi:nodetypes="ccccccccccc"
       inkscape:connector-curvature="0"
       id="path948"
       d="m 163.18364,517.7225 8.61335,6.25796 -3.29001,-10.1256 8.61335,-6.25795 h -10.64668 l -3.28998,-10.12559 -3.29002,10.12559 h -10.64667 l 8.61335,6.25796 -3.29001,10.12559 z"
       style="fill:#ffffff;fill-opacity:1;stroke:none;stroke-width:0.26458332px;stroke-linecap:butt;stroke-linejoin:miter;stroke-opacity:1" />
    <path
       style="fill:#ffffff;fill-opacity:1;stroke:none;stroke-width:0.26458332px;stroke-linecap:butt;stroke-linejoin:miter;stroke-opacity:1"
       d="m 163.18364,464.84653 8.61335,6.25796 -3.29001,-10.1256 8.61335,-6.25795 h -10.64668 l -3.28998,-10.12559 -3.29002,10.12559 h -10.64667 l 8.61335,6.25796 -3.29001,10.12559 z"
       id="path950"
       inkscape:connector-curvature="0"
       sodipodi:nodetypes="ccccccccccc" />
    <path
       sodipodi:nodetypes="ccccccccccc"
       inkscape:connector-curvature="0"
       id="path954"
       d="m 86.453997,544.16046 -8.61335,6.25796 3.29001,-10.1256 -8.61335,-6.25795 h 10.64668 l 3.28998,-10.12559 3.29002,10.12559 h 10.646663 l -8.613343,6.25796 3.290009,10.12559 z"
       style="fill:#ffffff;fill-opacity:1;stroke:none;stroke-width:0.26458332px;stroke-linecap:butt;stroke-linejoin:miter;stroke-opacity:1" />
    <path
       style="fill:#ffffff;fill-opacity:1;stroke:none;stroke-width:0.26458332px;stroke-linecap:butt;stroke-linejoin:miter;stroke-opacity:1"
       d="m 55.762127,544.16045 -8.61335,6.25796 3.29001,-10.1256 -8.61335,-6.25795 h 10.64668 l 3.28998,-10.12559 3.29002,10.12559 h 10.64667 l -8.61335,6.25796 3.29001,10.12559 z"
       id="path956"
       inkscape:connector-curvature="0"
       sodipodi:nodetypes="ccccccccccc" />
    <path
       sodipodi:nodetypes="ccccccccccc"
       inkscape:connector-curvature="0"
       id="path958"
       d="m 86.453997,438.40853 -8.61335,6.25796 3.29001,-10.1256 -8.61335,-6.25795 h 10.64668 l 3.28998,-10.12559 3.29002,10.12559 h 10.646663 l -8.613343,6.25796 3.290006,10.12559 z"
       style="fill:#ffffff;fill-opacity:1;stroke:none;stroke-width:0.26458332px;stroke-linecap:butt;stroke-linejoin:miter;stroke-opacity:1" />
    <path
       style="fill:#ffffff;fill-opacity:1;stroke:none;stroke-width:0.26458332px;stroke-linecap:butt;stroke-linejoin:miter;stroke-opacity:1"
       d="m 86.453997,491.28447 -8.61335,6.25796 3.29001,-10.1256 -8.61335,-6.25795 h 10.64668 l 3.28998,-10.12559 3.29002,10.12559 h 10.646663 l -8.613343,6.25796 3.290006,10.12559 z"
       id="path960"
       inkscape:connector-curvature="0"
       sodipodi:nodetypes="ccccccccccc" />
    <path
       sodipodi:nodetypes="ccccccccccc"
       inkscape:connector-curvature="0"
       id="path962"
       d="m 55.762127,491.28447 -8.61335,6.25796 3.29001,-10.1256 -8.61335,-6.25795 h 10.64668 l 3.28998,-10.12559 3.29002,10.12559 h 10.64667 l -8.61335,6.25796 3.29001,10.12559 z"
       style="fill:#ffffff;fill-opacity:1;stroke:none;stroke-width:0.26458332px;stroke-linecap:butt;stroke-linejoin:miter;stroke-opacity:1" />
    <path
       style="fill:#ffffff;fill-opacity:1;stroke:none;stroke-width:0.26458332px;stroke-linecap:butt;stroke-linejoin:miter;stroke-opacity:1"
       d="m 71.108037,517.72248 8.61335,6.25796 -3.29001,-10.1256 8.61335,-6.25795 h -10.64668 l -3.28998,-10.12559 -3.29002,10.12559 h -10.64667 l 8.61335,6.25796 -3.29001,10.12559 z"
       id="path966"
       inkscape:connector-curvature="0"
       sodipodi:nodetypes="ccccccccccc" />
    <path
       sodipodi:nodetypes="ccccccccccc"
       inkscape:connector-curvature="0"
       id="path970"
       d="m 71.108037,464.84652 8.61335,6.25796 -3.29001,-10.1256 8.61335,-6.25795 h -10.64668 l -3.28998,-10.12559 -3.29002,10.12559 h -10.64667 l 8.61335,6.25796 -3.29001,10.12559 z"
       style="fill:#ffffff;fill-opacity:1;stroke:none;stroke-width:0.26458332px;stroke-linecap:butt;stroke-linejoin:miter;stroke-opacity:1" />
    <path
       style="fill:#ffffff;fill-opacity:1;stroke:none;stroke-width:0.26458332px;stroke-linecap:butt;stroke-linejoin:miter;stroke-opacity:1"
       d="m 101.79989,411.97054 8.61336,6.25796 -3.29001,-10.1256 8.61335,-6.25795 H 105.0899 l -3.28998,-10.12559 -3.290017,10.12559 H 87.863237 l 8.613346,6.25796 -3.290006,10.12559 z"
       id="path972"
       inkscape:connector-curvature="0"
       sodipodi:nodetypes="ccccccccccc" />
    <path
       style="fill:#ffffff;fill-opacity:1;stroke:none;stroke-width:0.26458332px;stroke-linecap:butt;stroke-linejoin:miter;stroke-opacity:1"
       d="m 101.79989,517.72249 8.61336,6.25796 -3.29001,-10.1256 8.61335,-6.25795 H 105.0899 l -3.28998,-10.12559 -3.290017,10.12559 H 87.863237 l 8.613346,6.25796 -3.290006,10.12559 z"
       id="path974"
       inkscape:connector-curvature="0"
       sodipodi:nodetypes="ccccccccccc" />
    <path
       sodipodi:nodetypes="ccccccccccc"
       inkscape:connector-curvature="0"
       id="path976"
       d="m 101.79989,464.84651 8.61336,6.25796 -3.29001,-10.1256 8.61335,-6.25795 H 105.0899 l -3.28998,-10.12559 -3.290017,10.12559 H 87.863237 l 8.613346,6.25796 -3.290006,10.12559 z"
       style="fill:#ffffff;fill-opacity:1;stroke:none;stroke-width:0.26458332px;stroke-linecap:butt;stroke-linejoin:miter;stroke-opacity:1" />
    <path
       style="fill:#ffffff;fill-opacity:1;stroke:none;stroke-width:0.26458332px;stroke-linecap:butt;stroke-linejoin:miter;stroke-opacity:1"
       d="m 132.49181,359.09459 -8.61335,6.25796 3.29001,-10.1256 -8.61336,-6.25795 h 10.64669 l 3.28998,-10.12559 3.29002,10.12559 h 10.64667 l -8.61335,6.25796 3.29001,10.12559 z"
       id="path1076"
       inkscape:connector-curvature="0"
       sodipodi:nodetypes="ccccccccccc" />
    <path
       sodipodi:nodetypes="ccccccccccc"
       inkscape:connector-curvature="0"
       id="path1080"
       d="m 40.416181,517.72247 8.61335,6.25796 -3.29001,-10.1256 8.61335,-6.25795 h -10.64668 l -3.28998,-10.12559 -3.29002,10.12559 h -10.64667 l 8.61335,6.25796 -3.29001,10.12559 z"
       style="fill:#ffffff;fill-opacity:1;stroke:none;stroke-width:0.26458332px;stroke-linecap:butt;stroke-linejoin:miter;stroke-opacity:1" />
    <path
       style="fill:#ffffff;fill-opacity:1;stroke:none;stroke-width:8.61848354px;stroke-linecap:butt;stroke-linejoin:miter;stroke-opacity:1"
       d="m 507.49609,969.23047 c 3.69227,46.65373 11.01787,92.94843 21.91016,138.46293 H 2279.947 c 11.0581,-45.5012 18.5483,-91.7961 22.4023,-138.46288 z"
       transform="matrix(0.26458333,0,0,0.26458333,-112.33452,299.2678)"
       id="path1088"
       inkscape:connector-curvature="0"
       sodipodi:nodetypes="ccccc" />
    <path
       style="opacity:1;fill:#b31942;fill-opacity:1;stroke:none;stroke-width:1.21113348;stroke-linecap:round;stroke-linejoin:round;stroke-miterlimit:4;stroke-dasharray:none;stroke-opacity:1"
       d="m 259.26431,555.71014 237.56442,9.3e-4 c 0.45994,-6.04578 0.43815,-11.87053 0.43815,-18.31825 0,-6.44772 0.0218,-12.27247 -0.43815,-18.31825 l -237.56442,9.3e-4 z"
       id="path1113"
       inkscape:connector-curvature="0"
       sodipodi:nodetypes="cczccc" />
    <path
       id="path1115"
       d="m 259.26431,372.53622 v -36.63498 h 126.92623 c 16.34796,10.34851 31.37375,22.65086 44.74506,36.63498 z"
       style="fill:#ffffff;fill-opacity:1;stroke:none;stroke-width:2.28030705px;stroke-linecap:butt;stroke-linejoin:miter;stroke-opacity:1"
       inkscape:connector-curvature="0"
       sodipodi:nodetypes="ccccc" />
    <path
       id="path1117"
       d="M 259.26431,409.17069 V 372.53622 H 430.9356 c 10.80748,11.23618 20.48538,23.50656 28.89438,36.63447 z"
       style="fill:#b31942;fill-opacity:1;stroke:none;stroke-width:2.28030705px;stroke-linecap:butt;stroke-linejoin:miter;stroke-opacity:1"
       inkscape:connector-curvature="0"
       sodipodi:nodetypes="ccccc" />
    <path
       id="path1119"
       d="m 259.26431,445.80514 v -36.63445 h 200.56567 c 7.51588,11.62468 14.00379,23.88259 19.39002,36.63445 z"
       style="fill:#ffffff;fill-opacity:1;stroke:none;stroke-width:2.28030705px;stroke-linecap:butt;stroke-linejoin:miter;stroke-opacity:1"
       inkscape:connector-curvature="0"
       sodipodi:nodetypes="ccccc" />
    <path
       id="path1121"
       d="M 259.26431,482.43958 V 445.80514 H 479.22 c 4.875,11.87662 8.78156,24.12803 11.68146,36.63444 z"
       style="fill:#b31942;fill-opacity:1;stroke:none;stroke-width:2.28030705px;stroke-linecap:butt;stroke-linejoin:miter;stroke-opacity:1"
       inkscape:connector-curvature="0"
       sodipodi:nodetypes="ccccc" />
    <path
       sodipodi:nodetypes="cccc"
       inkscape:connector-curvature="0"
       id="path1123"
       d="m 259.26431,335.9002 v -36.63444 c 44.78673,-0.0326 88.97995,12.73557 126.92623,36.63548 z"
       style="opacity:1;fill:#b31942;fill-opacity:1;stroke:none;stroke-width:1.21113348;stroke-linecap:round;stroke-linejoin:round;stroke-miterlimit:4;stroke-dasharray:none;stroke-opacity:1" />
    <path
       id="path1125"
       d="m 259.26431,519.07457 v -36.63499 h 231.63715 c 2.92578,12.03888 4.90755,24.28773 5.92727,36.63499 z"
       style="fill:#ffffff;fill-opacity:1;stroke:none;stroke-width:2.28030705px;stroke-linecap:butt;stroke-linejoin:miter;stroke-opacity:1"
       inkscape:connector-curvature="0"
       sodipodi:nodetypes="ccccc" />
  </g>
</svg>
