<?xml version="1.0" encoding="UTF-8" standalone="no"?>
<!-- Created with Inkscape (http://www.inkscape.org/) -->

<svg
   xmlns:dc="http://purl.org/dc/elements/1.1/"
   xmlns:cc="http://creativecommons.org/ns#"
   xmlns:rdf="http://www.w3.org/1999/02/22-rdf-syntax-ns#"
   xmlns:svg="http://www.w3.org/2000/svg"
   xmlns="http://www.w3.org/2000/svg"
   xmlns:sodipodi="http://sodipodi.sourceforge.net/DTD/sodipodi-0.dtd"
   xmlns:inkscape="http://www.inkscape.org/namespaces/inkscape"
   width="3456.0115"
   height="1800.0002"
   viewBox="0 0 914.40303 476.25007"
   version="1.1"
   id="svg8"
   inkscape:export-filename="C:\Users\厂永刄先生\Documents\GXI3CW2\poM̕écèŭ\M̕é\Catholic States.png"
   inkscape:export-xdpi="96"
   inkscape:export-ydpi="96"
   inkscape:version="0.92.4 (5da689c313, 2019-01-14)"
   sodipodi:docname="Minnesota提案 描き方.svg">
  <defs
     id="defs2" />
  <sodipodi:namedview
     id="base"
     pagecolor="#ffffff"
     bordercolor="#666666"
     borderopacity="1.0"
     inkscape:pageopacity="0.0"
     inkscape:pageshadow="2"
     inkscape:zoom="0.27115596"
     inkscape:cx="1816.4253"
     inkscape:cy="956.24067"
     inkscape:document-units="px"
     inkscape:current-layer="layer1"
     showgrid="false"
     units="px"
     fit-margin-top="0"
     fit-margin-left="0"
     fit-margin-right="0"
     fit-margin-bottom="0"
     inkscape:showpageshadow="false"
     inkscape:snap-intersection-paths="true"
     inkscape:object-paths="false"
     inkscape:pagecheckerboard="true"
     inkscape:snap-smooth-nodes="true"
     inkscape:window-width="1920"
     inkscape:window-height="1051"
     inkscape:window-x="-9"
     inkscape:window-y="-9"
     inkscape:window-maximized="1"
     inkscape:object-nodes="true"
     inkscape:snap-nodes="true" />
  <metadata
     id="metadata5">
    <rdf:RDF>
      <cc:Work
         rdf:about="">
        <dc:format>image/svg+xml</dc:format>
        <dc:type
           rdf:resource="http://purl.org/dc/dcmitype/StillImage" />
        <dc:title></dc:title>
      </cc:Work>
    </rdf:RDF>
  </metadata>
  <g
     inkscape:label="レイヤー 1"
     inkscape:groupmode="layer"
     id="layer1"
     transform="translate(112.33452,-299.2678)">
    <path
       sodipodi:nodetypes="szzzzzzzzzzzccccs"
       inkscape:connector-curvature="0"
       id="path887"
       d="m 613.47227,600.89286 c -38.9719,0 -20.71823,31.74996 -59.69014,31.74996 -38.97192,0 -20.71825,-31.74996 -59.69017,-31.74996 -38.9719,0 -20.71824,31.74996 -59.69014,31.74996 -38.9719,0 -20.71825,-31.74996 -59.69015,-31.74996 -38.97191,0 -20.71825,31.74996 -59.69015,31.74996 -38.9719,0 -20.71824,-31.74996 -59.69015,-31.74996 -38.97191,0 -20.71829,31.74996 -59.69019,31.74996 -38.9719,0 -20.7182,-31.74996 -59.69011,-31.74996 -38.971903,0 -20.71826,31.74996 -59.690176,31.74996 -38.971913,0 -20.71824,-31.74996 -59.690132,-31.74996 -38.971903,0 -20.7182301,31.74996 -59.690133,31.74996 -38.971903,0 -20.71824,-31.74996 -59.690149,-31.74996 V 299.26778 l 904.87802,2e-5 -158.75003,317.50004 c -5.17994,-7.93805 -10.35888,-15.87498 -29.8462,-15.87498 z"
       style="fill:#c7ddf9;fill-opacity:1;stroke:none;stroke-width:0.1401521px;stroke-linecap:butt;stroke-linejoin:miter;stroke-opacity:1" />
    <path
       style="fill:#e7f1fc;fill-opacity:1;stroke:none;stroke-width:0.1401521px;stroke-linecap:butt;stroke-linejoin:miter;stroke-opacity:1"
       d="m 613.47227,600.89286 c -38.9719,0 -20.71823,31.74996 -59.69014,31.74996 -38.97192,0 -20.71825,-31.74996 -59.69017,-31.74996 -38.9719,0 -20.71824,31.74996 -59.69014,31.74996 -38.9719,0 -20.71825,-31.74996 -59.69015,-31.74996 -38.97191,0 -20.71825,31.74996 -59.69015,31.74996 -38.9719,0 -20.71824,-31.74996 -59.69015,-31.74996 -38.97191,0 -20.71829,31.74996 -59.69019,31.74996 -38.9719,0 -20.7182,-31.74996 -59.69011,-31.74996 -38.971903,0 -20.71826,31.74996 -59.690176,31.74996 -38.971913,0 -20.71824,-31.74996 -59.690132,-31.74996 -38.971903,0 -20.7182301,31.74996 -59.690133,31.74996 -38.971903,0 -20.71824,-31.74996 -59.690149,-31.74996 v 174.625 H 802.0685 L 643.31847,616.76784 c -5.17994,-7.93805 -10.35888,-15.87498 -29.8462,-15.87498 z"
       id="path891"
       inkscape:connector-curvature="0"
       sodipodi:nodetypes="szzzzzzzzzzzccccs" />
    <path
       style="opacity:1;fill:#fff2c9;fill-opacity:1;stroke:none;stroke-width:0.26901653;stroke-linecap:butt;stroke-linejoin:round;stroke-miterlimit:4;stroke-dasharray:none;stroke-dashoffset:0;stroke-opacity:1;paint-order:stroke fill markers"
       inkscape:transform-center-x="3.329735e-06"
       inkscape:transform-center-y="1.6175058e-06"
       d="m 135.95107,378.64282 17.82079,54.84678 h 57.66931 l -46.65545,33.89717 17.82079,54.84678 -46.65545,-33.89718 -46.655451,33.89717 17.820801,-54.84677 -46.655456,-33.89717 h 57.669306 z"
       id="path897"
       inkscape:connector-curvature="0"
       sodipodi:nodetypes="ccccccccccc" />
    <path
       style="fill:none;stroke:#000000;stroke-width:0.26458332px;stroke-linecap:butt;stroke-linejoin:miter;stroke-opacity:1"
       d="m 812.65182,616.76784 h 10.58335 v 158.75002 l -10.58335,-1e-5"
       id="path906"
       inkscape:connector-curvature="0"
       sodipodi:nodetypes="cccc" />
    <path
       sodipodi:nodetypes="cccc"
       inkscape:connector-curvature="0"
       id="path908"
       d="m 812.65182,616.76784 h 10.58335 l 2e-5,-317.50003 -10.58335,-10e-6"
       style="fill:none;stroke:#000000;stroke-width:0.26458332px;stroke-linecap:butt;stroke-linejoin:miter;stroke-opacity:1" />
    <path
       sodipodi:nodetypes="cccc"
       inkscape:connector-curvature="0"
       id="path910"
       d="m 712.11009,616.76784 h 10.58335 v 15.87498 h -10.58335"
       style="fill:none;stroke:#000000;stroke-width:0.26458332px;stroke-linecap:butt;stroke-linejoin:miter;stroke-opacity:1" />
    <path
       style="fill:none;stroke:#000000;stroke-width:0.26458332px;stroke-linecap:butt;stroke-linejoin:miter;stroke-opacity:1"
       d="m 712.11009,600.89286 h 10.58335 v 15.87498 h -10.58335"
       id="path912"
       inkscape:connector-curvature="0"
       sodipodi:nodetypes="cccc" />
    <path
       sodipodi:nodetypes="cccc"
       inkscape:connector-curvature="0"
       id="path910-4"
       d="M 56.576067,288.68444 V 278.10108 H 215.32606 v 10.58336"
       style="fill:none;stroke:#000000;stroke-width:0.26458332px;stroke-linecap:butt;stroke-linejoin:miter;stroke-opacity:1" />
    <circle
       style="opacity:1;fill:none;fill-opacity:1;stroke:#000000;stroke-width:0.26458332;stroke-linecap:butt;stroke-linejoin:round;stroke-miterlimit:4;stroke-dasharray:2.11666654,2.11666654;stroke-dashoffset:0;stroke-opacity:1;paint-order:stroke fill markers"
       id="path933"
       cx="135.95107"
       cy="458.01782"
       r="79.375" />
    <path
       style="fill:none;stroke:#000000;stroke-width:0.26458332px;stroke-linecap:butt;stroke-linejoin:miter;stroke-opacity:1"
       d="m -113.39284,616.76781 h -10.58335 l -1e-5,-158.75001 10.58335,-1e-5"
       id="path935"
       inkscape:connector-curvature="0"
       sodipodi:nodetypes="cccc" />
    <path
       sodipodi:nodetypes="cccc"
       inkscape:connector-curvature="0"
       id="path937"
       d="m -113.39285,458.0178 h -10.58335 l -10e-6,-158.75001 10.58335,-10e-6"
       style="fill:none;stroke:#000000;stroke-width:0.26458332px;stroke-linecap:butt;stroke-linejoin:miter;stroke-opacity:1" />
    <path
       sodipodi:nodetypes="cccc"
       inkscape:connector-curvature="0"
       id="path941"
       d="m 135.95107,463.3095 -10e-6,-10.58335 m -5.29167,5.29168 10.58335,-1e-5"
       style="fill:none;stroke:#000000;stroke-width:0.26458332px;stroke-linecap:butt;stroke-linejoin:miter;stroke-opacity:1" />
    <path
       style="fill:none;stroke:#000000;stroke-width:0.26458332px;stroke-linecap:butt;stroke-linejoin:miter;stroke-opacity:1"
       d="m -102.80952,786.1012 v 10.5834 h 238.76058 v -10.5834"
       id="path943"
       inkscape:connector-curvature="0"
       sodipodi:nodetypes="cccc" />
    <path
       style="fill:none;stroke:#000000;stroke-width:0.26458332;stroke-linecap:butt;stroke-linejoin:miter;stroke-opacity:1;stroke-miterlimit:4;stroke-dasharray:2.11666654,2.11666654;stroke-dashoffset:0"
       d="m -43.119373,632.64282 2e-6,224.53075"
       id="path945"
       inkscape:connector-curvature="0"
       sodipodi:nodetypes="cc" />
    <path
       style="fill:none;stroke:#000000;stroke-width:0.26458332;stroke-linecap:butt;stroke-linejoin:miter;stroke-miterlimit:4;stroke-dasharray:2.11666654, 2.11666654;stroke-dashoffset:0;stroke-opacity:1"
       d="m 135.95107,463.3095 -10e-6,322.7917"
       id="path947"
       inkscape:connector-curvature="0"
       sodipodi:nodetypes="cc" />
    <path
       sodipodi:nodetypes="cccc"
       inkscape:connector-curvature="0"
       id="path949"
       d="m -102.80952,857.17357 v 10.5834 h 59.690149 v -10.5834"
       style="fill:none;stroke:#000000;stroke-width:0.26458332px;stroke-linecap:butt;stroke-linejoin:miter;stroke-opacity:1" />
    <path
       style="fill:none;stroke:#000000;stroke-width:0.26458332;stroke-linecap:butt;stroke-linejoin:miter;stroke-opacity:1;stroke-miterlimit:4;stroke-dasharray:2.11666654,2.11666654;stroke-dashoffset:0"
       d="M 712.11007,616.76782 H -102.80952"
       id="path951"
       inkscape:connector-curvature="0" />
    <path
       inkscape:connector-curvature="0"
       id="path953"
       d="M 712.11009,600.89286 H -102.8095"
       style="fill:none;stroke:#000000;stroke-width:0.26458332;stroke-linecap:butt;stroke-linejoin:miter;stroke-miterlimit:4;stroke-dasharray:2.11666654, 2.11666654;stroke-dashoffset:0;stroke-opacity:1" />
    <path
       style="fill:none;stroke:#000000;stroke-width:0.26458332;stroke-linecap:butt;stroke-linejoin:miter;stroke-miterlimit:4;stroke-dasharray:2.11666654, 2.11666654;stroke-dashoffset:0;stroke-opacity:1"
       d="M 712.11009,632.64282 H -102.8095"
       id="path955"
       inkscape:connector-curvature="0" />
    <path
       style="opacity:1;fill:none;fill-opacity:1;stroke:#000000;stroke-width:0.23642734;stroke-linecap:butt;stroke-linejoin:round;stroke-miterlimit:4;stroke-dasharray:none;stroke-dashoffset:0;stroke-opacity:1;paint-order:stroke fill markers"
       inkscape:transform-center-x="3.2623963e-05"
       inkscape:transform-center-y="1.3790077e-05"
       d="m 762.381,775.51787 c 0,-10.12517 4.46464,-20.90373 11.6242,-28.0633"
       id="path961"
       inkscape:connector-curvature="0"
       sodipodi:nodetypes="cc" />
    <path
       style="fill:none;stroke:#000000;stroke-width:0.26458332px;stroke-linecap:butt;stroke-linejoin:miter;stroke-opacity:1"
       d="m 768.71352,742.16288 33.35497,33.35498 -47.17103,-1e-5"
       id="path964"
       inkscape:connector-curvature="0"
       sodipodi:nodetypes="ccc" />
  </g>
</svg>
