<?xml version="1.0" encoding="UTF-8" standalone="no"?>
<!-- Created with Inkscape (http://www.inkscape.org/) -->

<svg
   width="3276"
   height="1800.0002"
   viewBox="0 0 866.77499 476.25007"
   version="1.1"
   id="svg8"
   inkscape:export-filename="C:\Users\厂永刄先生\Documents\GXI3CW2\poM̕écèŭ\M̕é\11960年㋆㏣以來.png"
   inkscape:export-xdpi="96"
   inkscape:export-ydpi="96"
   inkscape:version="1.3 (0e150ed6c4, 2023-07-21)"
   sodipodi:docname="cs_1861-05.svg"
   xmlns:inkscape="http://www.inkscape.org/namespaces/inkscape"
   xmlns:sodipodi="http://sodipodi.sourceforge.net/DTD/sodipodi-0.dtd"
   xmlns="http://www.w3.org/2000/svg"
   xmlns:svg="http://www.w3.org/2000/svg"
   xmlns:rdf="http://www.w3.org/1999/02/22-rdf-syntax-ns#"
   xmlns:cc="http://creativecommons.org/ns#"
   xmlns:dc="http://purl.org/dc/elements/1.1/">
  <defs
     id="defs2" />
  <sodipodi:namedview
     id="base"
     pagecolor="#ffffff"
     bordercolor="#666666"
     borderopacity="1.0"
     inkscape:pageopacity="0.0"
     inkscape:pageshadow="2"
     inkscape:zoom="0.258101"
     inkscape:cx="1268.8831"
     inkscape:cy="354.51238"
     inkscape:document-units="px"
     inkscape:current-layer="layer1"
     showgrid="false"
     units="px"
     fit-margin-top="0"
     fit-margin-left="0"
     fit-margin-right="0"
     fit-margin-bottom="0"
     inkscape:showpageshadow="false"
     inkscape:snap-intersection-paths="true"
     inkscape:object-paths="false"
     inkscape:pagecheckerboard="true"
     inkscape:snap-smooth-nodes="false"
     inkscape:window-width="1920"
     inkscape:window-height="1009"
     inkscape:window-x="-8"
     inkscape:window-y="-8"
     inkscape:window-maximized="1"
     inkscape:object-nodes="true"
     inkscape:snap-nodes="true"
     inkscape:deskcolor="#505050" />
  <metadata
     id="metadata5">
    <rdf:RDF>
      <cc:Work
         rdf:about="">
        <dc:format>image/svg+xml</dc:format>
        <dc:type
           rdf:resource="http://purl.org/dc/dcmitype/StillImage" />
      </cc:Work>
    </rdf:RDF>
  </metadata>
  <g
     inkscape:label="レイヤー 1"
     inkscape:groupmode="layer"
     id="layer1"
     transform="translate(112.33452,-299.26779)">
    <path
       style="fill:#ffffff;fill-opacity:1;stroke:none;stroke-width:0.511668px;stroke-linecap:butt;stroke-linejoin:miter;stroke-opacity:1"
       d="m -102.80952,299.26786 h -9.525 v 476.25 h 9.525 z"
       id="path1079"
       inkscape:connector-curvature="0"
       sodipodi:nodetypes="ccccc" />
    <path
       style="fill:#b31942;fill-opacity:1;stroke:none;stroke-width:4.74684px;stroke-linecap:butt;stroke-linejoin:miter;stroke-opacity:1"
       d="m 214.69048,299.2678 v 158.75 h 539.75 v -158.75 z"
       id="path850"
       inkscape:connector-curvature="0"
       sodipodi:nodetypes="ccccc" />
    <path
       style="fill:#b31942;fill-opacity:1;stroke:none;stroke-width:5.45789px;stroke-linecap:butt;stroke-linejoin:miter;stroke-opacity:1"
       d="m -102.80952,616.76786 v 158.75 h 857.25 v -158.75 z"
       id="path14"
       inkscape:connector-curvature="0"
       sodipodi:nodetypes="ccccc" />
    <path
       style="fill:#ffffff;fill-opacity:1;stroke:none;stroke-width:4.74684px;stroke-linecap:butt;stroke-linejoin:miter;stroke-opacity:1"
       d="m 214.69048,458.0178 v 158.75 h 539.75 v -158.75 z"
       id="path15"
       inkscape:connector-curvature="0"
       sodipodi:nodetypes="ccccc" />
    <g
       id="g190">
      <path
         sodipodi:nodetypes="ccccc"
         inkscape:connector-curvature="0"
         id="path868"
         d="M -102.80952,616.76778 V 299.26779 l 317.49999,7e-5 v 317.49992 z"
         style="fill:#0a3161;fill-opacity:1;stroke:none;stroke-width:2.36604px;stroke-linecap:butt;stroke-linejoin:miter;stroke-opacity:1" />
      <path
         sodipodi:nodetypes="ccccccccccc"
         inkscape:connector-curvature="0"
         id="path83"
         d="m 55.940456,353.82277 10.664145,7.74795 -4.073345,-12.53646 10.664145,-7.74793 h -13.1816 l -4.073308,-12.53644 -4.073357,12.53644 H 38.685549 l 10.664144,7.74795 -4.073344,12.53644 z"
         style="fill:#ffffff;fill-opacity:1;stroke:none;stroke-width:0.327579px;stroke-linecap:butt;stroke-linejoin:miter;stroke-opacity:1" />
      <path
         sodipodi:nodetypes="ccccccccccc"
         inkscape:connector-curvature="0"
         id="path183"
         d="m -11.034808,378.19979 13.1494949,-0.91951 -11.1786445,-6.98519 3.1889356,-12.79004 -10.097691,8.47297 -11.178604,-6.9852 4.937896,12.22178 -10.097681,8.47296 13.149494,-0.91951 4.937906,12.22177 z"
         style="fill:#ffffff;fill-opacity:1;stroke:none;stroke-width:0.327579px;stroke-linecap:butt;stroke-linejoin:miter;stroke-opacity:1" />
      <path
         sodipodi:nodetypes="ccccccccccc"
         inkscape:connector-curvature="0"
         id="path184"
         d="m -46.671594,439.92454 9.482048,-9.15672 -13.053332,1.83453 -5.778413,-11.84755 -2.28896,12.98134 -13.053307,1.8345 11.63865,6.1884 -2.288953,12.98134 9.482048,-9.15672 11.638658,6.18839 z"
         style="fill:#ffffff;fill-opacity:1;stroke:none;stroke-width:0.327579px;stroke-linecap:butt;stroke-linejoin:miter;stroke-opacity:1" />
      <path
         sodipodi:nodetypes="ccccccccccc"
         inkscape:connector-curvature="0"
         id="path185"
         d="m -34.295049,510.11532 1.377844,-13.10939 -8.820219,9.79585 -12.041979,-5.36146 6.590799,11.4156 -8.820219,9.79581 12.893554,-2.74059 6.590794,11.41559 1.377844,-13.1094 12.893555,-2.7406 z"
         style="fill:#ffffff;fill-opacity:1;stroke:none;stroke-width:0.327579px;stroke-linecap:butt;stroke-linejoin:miter;stroke-opacity:1" />
      <path
         sodipodi:nodetypes="ccccccccccc"
         inkscape:connector-curvature="0"
         id="path186"
         d="m 20.303691,555.92911 -7.371064,-10.92804 -0.460029,13.17358 -12.67097111,3.63332 12.38665111,4.50837 -0.460054,13.17356 8.115418,-10.38723 12.386641,4.50837 -7.371071,-10.92805 8.115413,-10.38724 z"
         style="fill:#ffffff;fill-opacity:1;stroke:none;stroke-width:0.327579px;stroke-linecap:butt;stroke-linejoin:miter;stroke-opacity:1" />
      <path
         sodipodi:nodetypes="ccccccccccc"
         inkscape:connector-curvature="0"
         id="path187"
         d="m 122.91579,378.19979 -13.14949,-0.91951 11.17864,-6.98519 -3.18893,-12.79004 10.09769,8.47297 11.1786,-6.9852 -4.9379,12.22178 10.09769,8.47296 -13.1495,-0.91951 -4.9379,12.22177 z"
         style="fill:#ffffff;fill-opacity:1;stroke:none;stroke-width:0.327579px;stroke-linecap:butt;stroke-linejoin:miter;stroke-opacity:1" />
      <path
         sodipodi:nodetypes="ccccccccccc"
         inkscape:connector-curvature="0"
         id="path188"
         d="m 158.55258,439.92454 -9.48205,-9.15672 13.05333,1.83453 5.77841,-11.84755 2.28896,12.98134 13.05331,1.8345 -11.63865,6.1884 2.28895,12.98134 -9.48204,-9.15672 -11.63866,6.18839 z"
         style="fill:#ffffff;fill-opacity:1;stroke:none;stroke-width:0.327579px;stroke-linecap:butt;stroke-linejoin:miter;stroke-opacity:1" />
      <path
         sodipodi:nodetypes="ccccccccccc"
         inkscape:connector-curvature="0"
         id="path189"
         d="m 146.17603,510.11532 -1.37784,-13.10939 8.82022,9.79585 12.04198,-5.36146 -6.5908,11.4156 8.82022,9.79581 -12.89356,-2.74059 -6.59079,11.41559 -1.37785,-13.1094 -12.89355,-2.7406 z"
         style="fill:#ffffff;fill-opacity:1;stroke:none;stroke-width:0.327579px;stroke-linecap:butt;stroke-linejoin:miter;stroke-opacity:1" />
      <path
         sodipodi:nodetypes="ccccccccccc"
         inkscape:connector-curvature="0"
         id="path190"
         d="m 91.577293,555.92911 7.371064,-10.92804 0.460029,13.17358 12.670974,3.63332 -12.386654,4.50837 0.460054,13.17356 -8.115418,-10.38723 -12.386641,4.50837 7.371071,-10.92805 -8.115413,-10.38724 z"
         style="fill:#ffffff;fill-opacity:1;stroke:none;stroke-width:0.327579px;stroke-linecap:butt;stroke-linejoin:miter;stroke-opacity:1" />
    </g>
  </g>
</svg>
