<?xml version="1.0" encoding="UTF-8" standalone="no"?>
<!-- Created with Inkscape (http://www.inkscape.org/) -->

<svg
   width="3276"
   height="1800.0002"
   viewBox="0 0 866.77499 476.25007"
   version="1.1"
   id="svg8"
   inkscape:export-filename="C:\Users\厂永刄先生\Documents\GXI3CW2\poM̕écèŭ\M̕é\11960年㋆㏣以來.png"
   inkscape:export-xdpi="96"
   inkscape:export-ydpi="96"
   inkscape:version="1.3 (0e150ed6c4, 2023-07-21)"
   sodipodi:docname="cs_1861.svg"
   xmlns:inkscape="http://www.inkscape.org/namespaces/inkscape"
   xmlns:sodipodi="http://sodipodi.sourceforge.net/DTD/sodipodi-0.dtd"
   xmlns="http://www.w3.org/2000/svg"
   xmlns:svg="http://www.w3.org/2000/svg"
   xmlns:rdf="http://www.w3.org/1999/02/22-rdf-syntax-ns#"
   xmlns:cc="http://creativecommons.org/ns#"
   xmlns:dc="http://purl.org/dc/elements/1.1/">
  <defs
     id="defs2" />
  <sodipodi:namedview
     id="base"
     pagecolor="#ffffff"
     bordercolor="#666666"
     borderopacity="1.0"
     inkscape:pageopacity="0.0"
     inkscape:pageshadow="2"
     inkscape:zoom="0.18250497"
     inkscape:cx="1767.0752"
     inkscape:cy="1060.2451"
     inkscape:document-units="px"
     inkscape:current-layer="layer1"
     showgrid="false"
     units="px"
     fit-margin-top="0"
     fit-margin-left="0"
     fit-margin-right="0"
     fit-margin-bottom="0"
     inkscape:showpageshadow="false"
     inkscape:snap-intersection-paths="true"
     inkscape:object-paths="false"
     inkscape:pagecheckerboard="true"
     inkscape:snap-smooth-nodes="false"
     inkscape:window-width="1920"
     inkscape:window-height="1009"
     inkscape:window-x="-8"
     inkscape:window-y="-8"
     inkscape:window-maximized="1"
     inkscape:object-nodes="true"
     inkscape:snap-nodes="true"
     inkscape:deskcolor="#505050" />
  <metadata
     id="metadata5">
    <rdf:RDF>
      <cc:Work
         rdf:about="">
        <dc:format>image/svg+xml</dc:format>
        <dc:type
           rdf:resource="http://purl.org/dc/dcmitype/StillImage" />
      </cc:Work>
    </rdf:RDF>
  </metadata>
  <g
     inkscape:label="レイヤー 1"
     inkscape:groupmode="layer"
     id="layer1"
     transform="translate(112.33452,-299.26779)">
    <path
       style="fill:#ffffff;fill-opacity:1;stroke:none;stroke-width:0.511668px;stroke-linecap:butt;stroke-linejoin:miter;stroke-opacity:1"
       d="m -102.80952,299.26786 h -9.525 v 476.25 h 9.525 z"
       id="path1079"
       inkscape:connector-curvature="0"
       sodipodi:nodetypes="ccccc" />
    <path
       style="fill:#b31942;fill-opacity:1;stroke:none;stroke-width:4.74684px;stroke-linecap:butt;stroke-linejoin:miter;stroke-opacity:1"
       d="m 214.69048,299.2678 v 158.75 h 539.75 v -158.75 z"
       id="path850"
       inkscape:connector-curvature="0"
       sodipodi:nodetypes="ccccc" />
    <path
       style="fill:#b31942;fill-opacity:1;stroke:none;stroke-width:5.45789px;stroke-linecap:butt;stroke-linejoin:miter;stroke-opacity:1"
       d="m -102.80952,616.76786 v 158.75 h 857.25 v -158.75 z"
       id="path14"
       inkscape:connector-curvature="0"
       sodipodi:nodetypes="ccccc" />
    <path
       style="fill:#ffffff;fill-opacity:1;stroke:none;stroke-width:4.74684px;stroke-linecap:butt;stroke-linejoin:miter;stroke-opacity:1"
       d="m 214.69048,458.0178 v 158.75 h 539.75 v -158.75 z"
       id="path15"
       inkscape:connector-curvature="0"
       sodipodi:nodetypes="ccccc" />
    <g
       id="g1"
       transform="matrix(1.2380949,0,0,1.2380949,24.478426,-71.254111)">
      <path
         sodipodi:nodetypes="ccccc"
         inkscape:connector-curvature="0"
         id="path868"
         d="M 153.63285,555.71014 V 299.26777 l -256.44237,6e-5 v 256.44231 z"
         style="fill:#0a3161;fill-opacity:1;stroke:none;stroke-width:1.91103px;stroke-linecap:butt;stroke-linejoin:miter;stroke-opacity:1" />
      <path
         sodipodi:nodetypes="ccccccccccc"
         inkscape:connector-curvature="0"
         id="path942"
         d="m 25.41165,343.33142 8.61335,6.25796 -3.29001,-10.1256 8.61335,-6.25795 H 28.70166 l -3.28998,-10.12559 -3.29002,10.12559 H 11.47499 l 8.61335,6.25796 -3.29001,10.12559 z"
         style="fill:#ffffff;fill-opacity:1;stroke:none;stroke-width:0.264583px;stroke-linecap:butt;stroke-linejoin:miter;stroke-opacity:1" />
      <path
         style="fill:#ffffff;fill-opacity:1;stroke:none;stroke-width:0.264583px;stroke-linecap:butt;stroke-linejoin:miter;stroke-opacity:1"
         d="m -13.698304,352.97117 10.5349619,1.53832 -7.6187599,-7.43683 4.718528,-9.54396 -9.427167,4.94776 -7.618729,-7.43684 1.792428,10.49472 -9.427158,4.94775 10.534962,1.53832 1.792437,10.49471 z"
         id="path946"
         inkscape:connector-curvature="0"
         sodipodi:nodetypes="ccccccccccc" />
      <path
         sodipodi:nodetypes="ccccccccccc"
         inkscape:connector-curvature="0"
         id="path948"
         d="m -43.848636,379.68204 10.043139,-3.53372 -10.202144,-3.04438 -0.257251,-10.64356 -6.048003,8.76204 -10.202121,-3.04439 6.464255,8.45963 -6.047999,8.76203 10.043138,-3.53372 6.464259,8.45961 z"
         style="fill:#ffffff;fill-opacity:1;stroke:none;stroke-width:0.264583px;stroke-linecap:butt;stroke-linejoin:miter;stroke-opacity:1" />
      <path
         style="fill:#ffffff;fill-opacity:1;stroke:none;stroke-width:0.264583px;stroke-linecap:butt;stroke-linejoin:miter;stroke-opacity:1"
         d="m -58.132266,417.3449 7.250556,-7.79623 -10.448343,2.04551 -5.174094,-9.30486 -1.283318,10.56905 -10.448328,2.04549 9.6552,4.48654 -1.283319,10.56904 7.250556,-7.79623 9.655194,4.48652 z"
         id="path950"
         inkscape:connector-curvature="0"
         sodipodi:nodetypes="ccccccccccc" />
      <path
         sodipodi:nodetypes="ccccccccccc"
         inkscape:connector-curvature="0"
         id="path952"
         d="m -53.276994,457.33164 2.79696,-10.27272 -8.300952,6.6668 -8.905617,-5.83453 3.775361,9.95482 -8.300949,6.66677 10.634254,-0.51436 3.775356,9.95481 2.796959,-10.27272 10.63424,-0.51438 z"
         style="fill:#ffffff;fill-opacity:1;stroke:none;stroke-width:0.264583px;stroke-linecap:butt;stroke-linejoin:miter;stroke-opacity:1" />
      <path
         style="fill:#ffffff;fill-opacity:1;stroke:none;stroke-width:0.264583px;stroke-linecap:butt;stroke-linejoin:miter;stroke-opacity:1"
         d="m -30.395097,490.48178 -2.297386,-10.39586 -4.251912,9.76081 -10.596973,-1.02758 7.969152,7.06006 -4.251923,9.76078 9.177129,-5.39743 7.969143,7.06005 -2.297387,-10.39585 9.177107,-5.39744 z"
         id="path954"
         inkscape:connector-curvature="0"
         sodipodi:nodetypes="ccccccccccc" />
      <path
         sodipodi:nodetypes="ccccccccccc"
         inkscape:connector-curvature="0"
         id="path956"
         d="m 5.2714604,509.20103 -6.8654313,-8.13743 0.77119344,10.61873 -9.86069354,4.01478 10.33730684,2.54792 0.7711698,10.61871 5.61763336,-9.04401 10.337295,2.54792 -6.865428,-8.13742 5.617609,-9.04401 z"
         style="fill:#ffffff;fill-opacity:1;stroke:none;stroke-width:0.264583px;stroke-linecap:butt;stroke-linejoin:miter;stroke-opacity:1" />
      <path
         sodipodi:nodetypes="ccccccccccc"
         inkscape:connector-curvature="0"
         id="path960"
         d="m 64.521634,352.97117 -10.534962,1.53832 7.61876,-7.43683 -4.718528,-9.54396 9.427167,4.94776 7.618729,-7.43684 -1.792428,10.49472 9.427158,4.94775 -10.534962,1.53832 -1.792437,10.49471 z"
         style="fill:#ffffff;fill-opacity:1;stroke:none;stroke-width:0.264583px;stroke-linecap:butt;stroke-linejoin:miter;stroke-opacity:1" />
      <path
         style="fill:#ffffff;fill-opacity:1;stroke:none;stroke-width:0.264583px;stroke-linecap:butt;stroke-linejoin:miter;stroke-opacity:1"
         d="m 94.671966,379.68204 -10.043139,-3.53372 10.202144,-3.04438 0.257251,-10.64356 6.047998,8.76204 10.20213,-3.04439 -6.46426,8.45963 6.048,8.76203 -10.04314,-3.53372 -6.464257,8.45961 z"
         id="path962"
         inkscape:connector-curvature="0"
         sodipodi:nodetypes="ccccccccccc" />
      <path
         sodipodi:nodetypes="ccccccccccc"
         inkscape:connector-curvature="0"
         id="path964"
         d="m 108.9556,417.3449 -7.25056,-7.79623 10.44834,2.04551 5.1741,-9.30486 1.28331,10.56905 10.44833,2.04549 -9.6552,4.48654 1.28332,10.56904 -7.25055,-7.79623 -9.6552,4.48652 z"
         style="fill:#ffffff;fill-opacity:1;stroke:none;stroke-width:0.264583px;stroke-linecap:butt;stroke-linejoin:miter;stroke-opacity:1" />
      <path
         style="fill:#ffffff;fill-opacity:1;stroke:none;stroke-width:0.264583px;stroke-linecap:butt;stroke-linejoin:miter;stroke-opacity:1"
         d="m 104.10032,457.33164 -2.79696,-10.27272 8.30096,6.6668 8.90561,-5.83453 -3.77536,9.95482 8.30095,6.66677 -10.63425,-0.51436 -3.77536,9.95481 -2.79696,-10.27272 -10.634238,-0.51438 z"
         id="path966"
         inkscape:connector-curvature="0"
         sodipodi:nodetypes="ccccccccccc" />
      <path
         sodipodi:nodetypes="ccccccccccc"
         inkscape:connector-curvature="0"
         id="path968"
         d="m 81.218427,490.48178 2.297386,-10.39586 4.251912,9.76081 10.596973,-1.02758 -7.969152,7.06006 4.251923,9.76078 -9.177129,-5.39743 -7.969143,7.06005 2.297387,-10.39585 -9.177107,-5.39744 z"
         style="fill:#ffffff;fill-opacity:1;stroke:none;stroke-width:0.264583px;stroke-linecap:butt;stroke-linejoin:miter;stroke-opacity:1" />
      <path
         style="fill:#ffffff;fill-opacity:1;stroke:none;stroke-width:0.264583px;stroke-linecap:butt;stroke-linejoin:miter;stroke-opacity:1"
         d="m 45.55187,509.20103 6.865431,-8.13743 -0.771194,10.61873 9.860694,4.01478 -10.337307,2.54792 -0.77117,10.61871 -5.617633,-9.04401 -10.337295,2.54792 6.865428,-8.13742 -5.617609,-9.04401 z"
         id="path970"
         inkscape:connector-curvature="0"
         sodipodi:nodetypes="ccccccccccc" />
    </g>
  </g>
</svg>
