<?xml version="1.0" encoding="UTF-8" standalone="no"?>
<!-- Created with Inkscape (http://www.inkscape.org/) -->

<svg
   width="2736"
   height="1800.0002"
   viewBox="0 0 723.89999 476.25007"
   version="1.1"
   id="svg8"
   inkscape:export-filename="C:\Users\厂永刄先生\Documents\GXI3CW2\poM̕écèŭ\M̕é\11960年㋆㏣以來.png"
   inkscape:export-xdpi="96"
   inkscape:export-ydpi="96"
   inkscape:version="1.3 (0e150ed6c4, 2023-07-21)"
   sodipodi:docname="cs_1865.svg"
   xmlns:inkscape="http://www.inkscape.org/namespaces/inkscape"
   xmlns:sodipodi="http://sodipodi.sourceforge.net/DTD/sodipodi-0.dtd"
   xmlns="http://www.w3.org/2000/svg"
   xmlns:svg="http://www.w3.org/2000/svg"
   xmlns:rdf="http://www.w3.org/1999/02/22-rdf-syntax-ns#"
   xmlns:cc="http://creativecommons.org/ns#"
   xmlns:dc="http://purl.org/dc/elements/1.1/">
  <defs
     id="defs2" />
  <sodipodi:namedview
     id="base"
     pagecolor="#ffffff"
     bordercolor="#666666"
     borderopacity="1.0"
     inkscape:pageopacity="0.0"
     inkscape:pageshadow="2"
     inkscape:zoom="0.18250497"
     inkscape:cx="2662.9412"
     inkscape:cy="950.65906"
     inkscape:document-units="px"
     inkscape:current-layer="layer1"
     showgrid="false"
     units="px"
     fit-margin-top="0"
     fit-margin-left="0"
     fit-margin-right="0"
     fit-margin-bottom="0"
     inkscape:showpageshadow="false"
     inkscape:snap-intersection-paths="true"
     inkscape:object-paths="false"
     inkscape:pagecheckerboard="true"
     inkscape:snap-smooth-nodes="false"
     inkscape:window-width="1920"
     inkscape:window-height="1009"
     inkscape:window-x="-8"
     inkscape:window-y="-8"
     inkscape:window-maximized="1"
     inkscape:object-nodes="true"
     inkscape:snap-nodes="true"
     inkscape:deskcolor="#505050" />
  <metadata
     id="metadata5">
    <rdf:RDF>
      <cc:Work
         rdf:about="">
        <dc:format>image/svg+xml</dc:format>
        <dc:type
           rdf:resource="http://purl.org/dc/dcmitype/StillImage" />
      </cc:Work>
    </rdf:RDF>
  </metadata>
  <g
     inkscape:label="レイヤー 1"
     inkscape:groupmode="layer"
     id="layer1"
     transform="translate(112.33452,-299.26779)">
    <path
       style="fill:#ffffff;fill-opacity:1;stroke:none;stroke-width:5.75312px;stroke-linecap:butt;stroke-linejoin:miter;stroke-opacity:1"
       d="m -102.80952,585.01785 v 190.50001 l 535.78125,0 v -476.25 l -218.28125,-6e-5 v 285.74999 z"
       id="path14"
       inkscape:connector-curvature="0"
       sodipodi:nodetypes="ccccccc" />
    <path
       style="fill:#ffffff;fill-opacity:1;stroke:none;stroke-width:0.511668px;stroke-linecap:butt;stroke-linejoin:miter;stroke-opacity:1"
       d="m -102.80952,299.26786 h -9.525 v 476.25 h 9.525 z"
       id="path1079"
       inkscape:connector-curvature="0"
       sodipodi:nodetypes="ccccc" />
    <path
       sodipodi:nodetypes="cccc"
       inkscape:connector-curvature="0"
       id="path868"
       d="m 147.33852,299.26779 -182.796011,6e-5 91.397966,82.25816 z"
       style="fill:#b31942;fill-opacity:1;stroke:none;stroke-width:2.24462px;stroke-linecap:butt;stroke-linejoin:miter;stroke-opacity:1" />
    <path
       sodipodi:nodetypes="ccccccccccccccccc"
       inkscape:connector-curvature="0"
       id="path2"
       d="M -57.90834,585.01778 55.940529,482.55387 169.78922,585.01766 l 44.90126,8e-5 -5e-5,-40.41127 -113.84862,-102.46374 113.84864,-102.46379 3e-5,-40.41114 -44.90131,-1e-5 L 55.940476,401.73159 -57.90814,299.26785 h -44.90138 l 3e-5,40.41108 113.84869,102.4638 -113.84862,102.46374 -1e-4,40.41132 z"
       style="fill:#0a3161;fill-opacity:1;stroke:none;stroke-width:1.00383px;stroke-linecap:butt;stroke-linejoin:miter;stroke-opacity:1" />
    <path
       sodipodi:nodetypes="ccccccc"
       inkscape:connector-curvature="0"
       id="path4"
       d="M 55.940476,401.73159 -57.90814,299.26785 h 22.450649 l 91.397966,82.25816 91.398045,-82.25822 h 22.45065 z"
       style="fill:#ffffff;fill-opacity:1;stroke:none;stroke-width:1.22944px;stroke-linecap:butt;stroke-linejoin:miter;stroke-opacity:1" />
    <path
       sodipodi:nodetypes="cccc"
       inkscape:connector-curvature="0"
       id="path6"
       d="m 214.69045,359.88447 3e-5,164.51647 -91.39808,-82.25825 z"
       style="fill:#b31942;fill-opacity:1;stroke:none;stroke-width:2.24462px;stroke-linecap:butt;stroke-linejoin:miter;stroke-opacity:1" />
    <path
       sodipodi:nodetypes="cccc"
       inkscape:connector-curvature="0"
       id="path7"
       d="m -35.457643,585.01778 182.796313,-4e-5 -91.398142,-82.25829 z"
       style="fill:#b31942;fill-opacity:1;stroke:none;stroke-width:2.24462px;stroke-linecap:butt;stroke-linejoin:miter;stroke-opacity:1" />
    <path
       sodipodi:nodetypes="ccccccc"
       inkscape:connector-curvature="0"
       id="path8"
       d="M 11.039199,442.14273 -102.80942,544.60647 v -20.20558 l 91.397969,-82.25815 -91.398039,-82.25823 v -20.20558 z"
       style="fill:#ffffff;fill-opacity:1;stroke:none;stroke-width:1.22944px;stroke-linecap:butt;stroke-linejoin:miter;stroke-opacity:1" />
    <path
       sodipodi:nodetypes="ccccccc"
       inkscape:connector-curvature="0"
       id="path9"
       d="M 55.940529,482.55387 -57.908087,585.0176 h 22.450649 l 91.397966,-82.25815 91.398042,82.25821 h 22.45065 z"
       style="fill:#ffffff;fill-opacity:1;stroke:none;stroke-width:1.22944px;stroke-linecap:butt;stroke-linejoin:miter;stroke-opacity:1" />
    <path
       sodipodi:nodetypes="ccccccc"
       inkscape:connector-curvature="0"
       id="path10"
       d="M 100.84181,442.14273 214.69043,544.60647 V 524.40089 L 123.29246,442.14274 214.6905,359.88451 V 339.67893 Z"
       style="fill:#ffffff;fill-opacity:1;stroke:none;stroke-width:1.22944px;stroke-linecap:butt;stroke-linejoin:miter;stroke-opacity:1" />
    <path
       sodipodi:nodetypes="cccc"
       inkscape:connector-curvature="0"
       id="path11"
       d="m -102.80945,359.88441 3e-5,164.51648 91.397969,-82.25815 z"
       style="fill:#b31942;fill-opacity:1;stroke:none;stroke-width:2.24462px;stroke-linecap:butt;stroke-linejoin:miter;stroke-opacity:1" />
    <path
       sodipodi:nodetypes="ccccccccccc"
       inkscape:connector-curvature="0"
       id="path942-1"
       d="m 55.940459,450.32875 12.59696,9.15222 -4.81162,-14.80862 12.59697,-9.1522 h -15.5707 l -4.81157,-14.8086 -4.81163,14.8086 h -15.57068 l 12.59696,9.15222 -4.81161,14.8086 z"
       style="fill:#ffffff;fill-opacity:1;stroke:none;stroke-width:0.38695px;stroke-linecap:butt;stroke-linejoin:miter;stroke-opacity:1" />
    <path
       sodipodi:nodetypes="ccccccccccc"
       inkscape:connector-curvature="0"
       id="path23-4"
       d="m -69.133501,337.76212 12.59696,9.15222 -4.81161,-14.80862 12.59696,-9.1522 h -15.57069 l -4.81158,-14.8086 -4.81163,14.8086 h -15.57068 l 12.59697,9.15223 -4.81162,14.80859 z"
       style="fill:#ffffff;fill-opacity:1;stroke:none;stroke-width:0.38695px;stroke-linecap:butt;stroke-linejoin:miter;stroke-opacity:1" />
    <path
       sodipodi:nodetypes="ccccccccccc"
       inkscape:connector-curvature="0"
       id="path34-7"
       d="m 181.01447,562.89539 -12.59697,9.15221 4.81161,-14.80862 -12.59696,-9.1522 h 15.57069 l 4.81158,-14.8086 4.81162,14.8086 h 15.57068 l -12.59696,9.15222 4.81161,14.8086 z"
       style="fill:#ffffff;fill-opacity:1;stroke:none;stroke-width:0.38695px;stroke-linecap:butt;stroke-linejoin:miter;stroke-opacity:1" />
    <path
       sodipodi:nodetypes="ccccccccccc"
       inkscape:connector-curvature="0"
       id="path1"
       d="m -27.442181,375.28433 12.59696,9.15222 -4.81161,-14.80862 12.5969602,-9.1522 H -22.630561 l -4.81158,-14.8086 -4.81163,14.8086 h -15.57068 l 12.59697,9.15223 -4.81162,14.80859 z"
       style="fill:#ffffff;fill-opacity:1;stroke:none;stroke-width:0.38695px;stroke-linecap:butt;stroke-linejoin:miter;stroke-opacity:1" />
    <path
       sodipodi:nodetypes="ccccccccccc"
       inkscape:connector-curvature="0"
       id="path3"
       d="m 14.249139,412.80654 12.59696,9.15222 -4.81161,-14.80862 12.59696,-9.1522 h -15.57069 l -4.81158,-14.8086 -4.8116297,14.8086 h -15.57068 l 12.59697,9.15223 -4.81162,14.80859 z"
       style="fill:#ffffff;fill-opacity:1;stroke:none;stroke-width:0.38695px;stroke-linecap:butt;stroke-linejoin:miter;stroke-opacity:1" />
    <path
       sodipodi:nodetypes="ccccccccccc"
       inkscape:connector-curvature="0"
       id="path5"
       d="m 97.63178,487.85096 12.59696,9.15222 -4.81162,-14.80862 12.59697,-9.1522 h -15.5707 l -4.81157,-14.8086 -4.81163,14.8086 H 77.24951 l 12.59696,9.15222 -4.81161,14.8086 z"
       style="fill:#ffffff;fill-opacity:1;stroke:none;stroke-width:0.38695px;stroke-linecap:butt;stroke-linejoin:miter;stroke-opacity:1" />
    <path
       sodipodi:nodetypes="ccccccccccc"
       inkscape:connector-curvature="0"
       id="path12"
       d="m 139.3231,525.37317 12.59696,9.15222 -4.81162,-14.80862 12.59697,-9.1522 h -15.5707 l -4.81157,-14.8086 -4.81163,14.8086 h -15.57068 l 12.59696,9.15222 -4.81161,14.8086 z"
       style="fill:#ffffff;fill-opacity:1;stroke:none;stroke-width:0.38695px;stroke-linecap:butt;stroke-linejoin:miter;stroke-opacity:1" />
    <path
       sodipodi:nodetypes="ccccccccccc"
       inkscape:connector-curvature="0"
       id="path13"
       d="m 181.01446,337.76212 -12.59696,9.15222 4.81161,-14.80862 -12.59696,-9.1522 h 15.57069 l 4.81158,-14.8086 4.81163,14.8086 h 15.57068 l -12.59697,9.15223 4.81162,14.80859 z"
       style="fill:#ffffff;fill-opacity:1;stroke:none;stroke-width:0.38695px;stroke-linecap:butt;stroke-linejoin:miter;stroke-opacity:1" />
    <path
       sodipodi:nodetypes="ccccccccccc"
       inkscape:connector-curvature="0"
       id="path15"
       d="m -69.13351,562.89539 12.59697,9.15221 -4.81161,-14.80862 12.59696,-9.1522 h -15.57069 l -4.81158,-14.8086 -4.81162,14.8086 h -15.57068 l 12.59696,9.15222 -4.81161,14.8086 z"
       style="fill:#ffffff;fill-opacity:1;stroke:none;stroke-width:0.38695px;stroke-linecap:butt;stroke-linejoin:miter;stroke-opacity:1" />
    <path
       sodipodi:nodetypes="ccccccccccc"
       inkscape:connector-curvature="0"
       id="path16"
       d="m 139.32314,375.28433 -12.59696,9.15222 4.81161,-14.80862 -12.59696,-9.1522 h 15.57069 l 4.81158,-14.8086 4.81163,14.8086 h 15.57068 l -12.59697,9.15223 4.81162,14.80859 z"
       style="fill:#ffffff;fill-opacity:1;stroke:none;stroke-width:0.38695px;stroke-linecap:butt;stroke-linejoin:miter;stroke-opacity:1" />
    <path
       sodipodi:nodetypes="ccccccccccc"
       inkscape:connector-curvature="0"
       id="path17"
       d="m 97.631821,412.80654 -12.59696,9.15222 4.81161,-14.80862 -12.59696,-9.1522 h 15.57069 l 4.81158,-14.8086 4.811629,14.8086 h 15.57068 l -12.59697,9.15223 4.81162,14.80859 z"
       style="fill:#ffffff;fill-opacity:1;stroke:none;stroke-width:0.38695px;stroke-linecap:butt;stroke-linejoin:miter;stroke-opacity:1" />
    <path
       sodipodi:nodetypes="ccccccccccc"
       inkscape:connector-curvature="0"
       id="path18"
       d="m 14.24918,487.85096 -12.59696,9.15222 4.81162,-14.80862 -12.59697,-9.1522 h 15.5707 l 4.81157,-14.8086 4.81163,14.8086 h 15.57068 l -12.59696,9.15222 4.81161,14.8086 z"
       style="fill:#ffffff;fill-opacity:1;stroke:none;stroke-width:0.38695px;stroke-linecap:butt;stroke-linejoin:miter;stroke-opacity:1" />
    <path
       sodipodi:nodetypes="ccccccccccc"
       inkscape:connector-curvature="0"
       id="path19"
       d="m -27.44214,525.37317 -12.59696,9.15222 4.81162,-14.80862 -12.59697,-9.1522 h 15.5707 l 4.81157,-14.8086 4.81163,14.8086 h 15.57068 l -12.59696,9.15222 4.81161,14.8086 z"
       style="fill:#ffffff;fill-opacity:1;stroke:none;stroke-width:0.38695px;stroke-linecap:butt;stroke-linejoin:miter;stroke-opacity:1" />
    <path
       style="fill:#b31942;fill-opacity:1;stroke:none;stroke-width:3.85931px;stroke-linecap:butt;stroke-linejoin:miter;stroke-opacity:1"
       d="m 611.56548,775.51786 v -476.25 l -178.59375,-6e-5 v 476.25006 z"
       id="path20"
       inkscape:connector-curvature="0"
       sodipodi:nodetypes="ccccc" />
  </g>
</svg>
