<?xml version="1.0" encoding="UTF-8" standalone="no"?>
<!-- Created with Inkscape (http://www.inkscape.org/) -->

<svg
   width="3276"
   height="1800.0002"
   viewBox="0 0 866.77499 476.25007"
   version="1.1"
   id="svg8"
   inkscape:export-filename="C:\Users\厂永刄先生\Documents\GXI3CW2\poM̕écèŭ\M̕é\11960年㋆㏣以來.png"
   inkscape:export-xdpi="96"
   inkscape:export-ydpi="96"
   inkscape:version="1.3 (0e150ed6c4, 2023-07-21)"
   sodipodi:docname="cs_1861-07.svg"
   xmlns:inkscape="http://www.inkscape.org/namespaces/inkscape"
   xmlns:sodipodi="http://sodipodi.sourceforge.net/DTD/sodipodi-0.dtd"
   xmlns="http://www.w3.org/2000/svg"
   xmlns:svg="http://www.w3.org/2000/svg"
   xmlns:rdf="http://www.w3.org/1999/02/22-rdf-syntax-ns#"
   xmlns:cc="http://creativecommons.org/ns#"
   xmlns:dc="http://purl.org/dc/elements/1.1/">
  <defs
     id="defs2" />
  <sodipodi:namedview
     id="base"
     pagecolor="#ffffff"
     bordercolor="#666666"
     borderopacity="1.0"
     inkscape:pageopacity="0.0"
     inkscape:pageshadow="2"
     inkscape:zoom="0.258101"
     inkscape:cx="1245.6364"
     inkscape:cy="354.51238"
     inkscape:document-units="px"
     inkscape:current-layer="layer1"
     showgrid="false"
     units="px"
     fit-margin-top="0"
     fit-margin-left="0"
     fit-margin-right="0"
     fit-margin-bottom="0"
     inkscape:showpageshadow="false"
     inkscape:snap-intersection-paths="true"
     inkscape:object-paths="false"
     inkscape:pagecheckerboard="true"
     inkscape:snap-smooth-nodes="false"
     inkscape:window-width="1920"
     inkscape:window-height="1009"
     inkscape:window-x="-8"
     inkscape:window-y="-8"
     inkscape:window-maximized="1"
     inkscape:object-nodes="true"
     inkscape:snap-nodes="true"
     inkscape:deskcolor="#505050" />
  <metadata
     id="metadata5">
    <rdf:RDF>
      <cc:Work
         rdf:about="">
        <dc:format>image/svg+xml</dc:format>
        <dc:type
           rdf:resource="http://purl.org/dc/dcmitype/StillImage" />
      </cc:Work>
    </rdf:RDF>
  </metadata>
  <g
     inkscape:label="レイヤー 1"
     inkscape:groupmode="layer"
     id="layer1"
     transform="translate(112.33452,-299.26779)">
    <path
       style="fill:#ffffff;fill-opacity:1;stroke:none;stroke-width:0.511668px;stroke-linecap:butt;stroke-linejoin:miter;stroke-opacity:1"
       d="m -102.80952,299.26786 h -9.525 v 476.25 h 9.525 z"
       id="path1079"
       inkscape:connector-curvature="0"
       sodipodi:nodetypes="ccccc" />
    <path
       style="fill:#b31942;fill-opacity:1;stroke:none;stroke-width:4.74684px;stroke-linecap:butt;stroke-linejoin:miter;stroke-opacity:1"
       d="m 214.69048,299.2678 v 158.75 h 539.75 v -158.75 z"
       id="path850"
       inkscape:connector-curvature="0"
       sodipodi:nodetypes="ccccc" />
    <path
       style="fill:#b31942;fill-opacity:1;stroke:none;stroke-width:5.45789px;stroke-linecap:butt;stroke-linejoin:miter;stroke-opacity:1"
       d="m -102.80952,616.76786 v 158.75 h 857.25 v -158.75 z"
       id="path14"
       inkscape:connector-curvature="0"
       sodipodi:nodetypes="ccccc" />
    <path
       style="fill:#ffffff;fill-opacity:1;stroke:none;stroke-width:4.74684px;stroke-linecap:butt;stroke-linejoin:miter;stroke-opacity:1"
       d="m 214.69048,458.0178 v 158.75 h 539.75 v -158.75 z"
       id="path15"
       inkscape:connector-curvature="0"
       sodipodi:nodetypes="ccccc" />
    <g
       id="g199">
      <path
         sodipodi:nodetypes="ccccc"
         inkscape:connector-curvature="0"
         id="path868"
         d="M -102.80952,616.76778 V 299.26779 l 317.49999,7e-5 v 317.49992 z"
         style="fill:#0a3161;fill-opacity:1;stroke:none;stroke-width:2.36604px;stroke-linecap:butt;stroke-linejoin:miter;stroke-opacity:1" />
      <path
         sodipodi:nodetypes="ccccccccccc"
         inkscape:connector-curvature="0"
         id="path83"
         d="m 55.940456,353.82277 10.664145,7.74795 -4.073345,-12.53646 10.664145,-7.74793 h -13.1816 l -4.073308,-12.53644 -4.073357,12.53644 H 38.685549 l 10.664144,7.74795 -4.073344,12.53644 z"
         style="fill:#ffffff;fill-opacity:1;stroke:none;stroke-width:0.327579px;stroke-linecap:butt;stroke-linejoin:miter;stroke-opacity:1" />
      <path
         sodipodi:nodetypes="ccccccccccc"
         inkscape:connector-curvature="0"
         id="path190"
         d="m -0.39120541,370.3631 13.16010441,0.75258 -10.2043984,-8.34417 4.7824609,-12.28342 -11.0891015,7.12646 -10.204356,-8.34418 3.350924,12.74856 -11.08909,7.12646 13.160103,0.75258 3.3509355,12.74855 z"
         style="fill:#ffffff;fill-opacity:1;stroke:none;stroke-width:0.327579px;stroke-linecap:butt;stroke-linejoin:miter;stroke-opacity:1" />
      <path
         sodipodi:nodetypes="ccccccccccc"
         inkscape:connector-curvature="0"
         id="path191"
         d="m -38.83825,414.73272 11.47789,-6.48172 -13.095677,-1.50271 -2.617595,-12.91908 -5.475948,11.99036 -13.095648,-1.50275 9.711327,8.91318 -5.475938,11.99034 11.477889,-6.48172 9.71133,8.91316 z"
         style="fill:#ffffff;fill-opacity:1;stroke:none;stroke-width:0.327579px;stroke-linecap:butt;stroke-linejoin:miter;stroke-opacity:1" />
      <path
         sodipodi:nodetypes="ccccccccccc"
         inkscape:connector-curvature="0"
         id="path192"
         d="m -47.194215,472.84482 6.151588,-11.65815 -11.829238,5.81584 -9.186598,-9.45309 1.875755,13.04746 -11.829236,5.81579 12.988507,2.24797 1.875753,13.04744 6.151587,-11.65815 12.988498,2.24794 z"
         style="fill:#ffffff;fill-opacity:1;stroke:none;stroke-width:0.327579px;stroke-linecap:butt;stroke-linejoin:miter;stroke-opacity:1" />
      <path
         sodipodi:nodetypes="ccccccccccc"
         inkscape:connector-curvature="0"
         id="path193"
         d="m -22.806183,526.24952 -1.127764,-13.13326 -6.807161,11.28793 -12.83897,-2.98585 8.631927,9.96215 -6.807187,11.28789 12.141996,-5.13095 8.631915,9.96214 -1.127765,-13.13327 12.1419729,-5.13096 z"
         style="fill:#ffffff;fill-opacity:1;stroke:none;stroke-width:0.327579px;stroke-linecap:butt;stroke-linejoin:miter;stroke-opacity:1" />
      <path
         sodipodi:nodetypes="ccccccccccc"
         inkscape:connector-curvature="0"
         id="path194"
         d="m 26.582948,557.99149 -8.049062,-10.43872 0.376105,13.17624 -12.4151227,4.42935 12.6475667,3.71399 0.376061,13.17622 7.440548,-10.88085 12.647551,3.71398 -8.049069,-10.43874 7.440523,-10.88085 z"
         style="fill:#ffffff;fill-opacity:1;stroke:none;stroke-width:0.327579px;stroke-linecap:butt;stroke-linejoin:miter;stroke-opacity:1" />
      <path
         sodipodi:nodetypes="ccccccccccc"
         inkscape:connector-curvature="0"
         id="path195"
         d="m 112.27215,370.3631 -13.160105,0.75258 10.204395,-8.34417 -4.78246,-12.28342 11.0891,7.12646 10.20436,-8.34418 -3.35092,12.74856 11.08909,7.12646 -13.16011,0.75258 -3.35093,12.74855 z"
         style="fill:#ffffff;fill-opacity:1;stroke:none;stroke-width:0.327579px;stroke-linecap:butt;stroke-linejoin:miter;stroke-opacity:1" />
      <path
         sodipodi:nodetypes="ccccccccccc"
         inkscape:connector-curvature="0"
         id="path196"
         d="m 150.71919,414.73272 -11.47789,-6.48172 13.09568,-1.50271 2.6176,-12.91908 5.47594,11.99036 13.09565,-1.50275 -9.71132,8.91318 5.47593,11.99034 -11.47789,-6.48172 -9.71133,8.91316 z"
         style="fill:#ffffff;fill-opacity:1;stroke:none;stroke-width:0.327579px;stroke-linecap:butt;stroke-linejoin:miter;stroke-opacity:1" />
      <path
         sodipodi:nodetypes="ccccccccccc"
         inkscape:connector-curvature="0"
         id="path197"
         d="m 159.07516,472.84482 -6.15159,-11.65815 11.82924,5.81584 9.1866,-9.45309 -1.87576,13.04746 11.82924,5.81579 -12.98851,2.24797 -1.87575,13.04744 -6.15159,-11.65815 -12.9885,2.24794 z"
         style="fill:#ffffff;fill-opacity:1;stroke:none;stroke-width:0.327579px;stroke-linecap:butt;stroke-linejoin:miter;stroke-opacity:1" />
      <path
         sodipodi:nodetypes="ccccccccccc"
         inkscape:connector-curvature="0"
         id="path198"
         d="m 134.68713,526.24952 1.12776,-13.13326 6.80716,11.28793 12.83897,-2.98585 -8.63192,9.96215 6.80718,11.28789 -12.14199,-5.13095 -8.63192,9.96214 1.12777,-13.13327 -12.14198,-5.13096 z"
         style="fill:#ffffff;fill-opacity:1;stroke:none;stroke-width:0.327579px;stroke-linecap:butt;stroke-linejoin:miter;stroke-opacity:1" />
      <path
         sodipodi:nodetypes="ccccccccccc"
         inkscape:connector-curvature="0"
         id="path199"
         d="m 85.297996,557.99149 8.049062,-10.43872 -0.376105,13.17624 12.415127,4.42935 -12.647571,3.71399 -0.376061,13.17622 -7.440548,-10.88085 -12.647551,3.71398 8.049069,-10.43874 -7.440523,-10.88085 z"
         style="fill:#ffffff;fill-opacity:1;stroke:none;stroke-width:0.327579px;stroke-linecap:butt;stroke-linejoin:miter;stroke-opacity:1" />
    </g>
  </g>
</svg>
