<?xml version="1.0" encoding="UTF-8" standalone="no"?>
<!-- Created with Inkscape (http://www.inkscape.org/) -->

<svg
   width="2736"
   height="1800"
   viewBox="0 0 723.89999 476.25001"
   version="1.1"
   id="svg8"
   inkscape:export-filename="C:\Users\厂永刄先生\Documents\GXI3CW2\JáÈŭcèŭ\Maqkàla\Maqkàla.png"
   inkscape:export-xdpi="96"
   inkscape:export-ydpi="96"
   inkscape:version="1.3 (0e150ed6c4, 2023-07-21)"
   sodipodi:docname="CZG - コピー.svg"
   xmlns:inkscape="http://www.inkscape.org/namespaces/inkscape"
   xmlns:sodipodi="http://sodipodi.sourceforge.net/DTD/sodipodi-0.dtd"
   xmlns="http://www.w3.org/2000/svg"
   xmlns:svg="http://www.w3.org/2000/svg"
   xmlns:rdf="http://www.w3.org/1999/02/22-rdf-syntax-ns#"
   xmlns:cc="http://creativecommons.org/ns#"
   xmlns:dc="http://purl.org/dc/elements/1.1/">
  <defs
     id="defs2" />
  <sodipodi:namedview
     id="base"
     pagecolor="#ffffff"
     bordercolor="#666666"
     borderopacity="1.0"
     inkscape:pageopacity="0.0"
     inkscape:pageshadow="2"
     inkscape:zoom="0.42740676"
     inkscape:cx="665.64226"
     inkscape:cy="787.30622"
     inkscape:document-units="px"
     inkscape:current-layer="layer1"
     showgrid="false"
     units="px"
     fit-margin-top="0"
     fit-margin-left="0"
     fit-margin-right="0"
     fit-margin-bottom="0"
     inkscape:showpageshadow="false"
     inkscape:snap-intersection-paths="true"
     inkscape:object-paths="false"
     inkscape:pagecheckerboard="true"
     inkscape:snap-smooth-nodes="true"
     inkscape:window-width="1920"
     inkscape:window-height="1051"
     inkscape:window-x="-9"
     inkscape:window-y="-9"
     inkscape:window-maximized="1"
     inkscape:object-nodes="true"
     inkscape:snap-nodes="true"
     inkscape:deskcolor="#505050" />
  <metadata
     id="metadata5">
    <rdf:RDF>
      <cc:Work
         rdf:about="">
        <dc:format>image/svg+xml</dc:format>
        <dc:type
           rdf:resource="http://purl.org/dc/dcmitype/StillImage" />
      </cc:Work>
    </rdf:RDF>
  </metadata>
  <g
     inkscape:label="レイヤー 1"
     inkscape:groupmode="layer"
     id="layer1"
     transform="translate(112.33452,-299.26786)">
    <path
       style="fill:#ffffff;fill-opacity:1;stroke:none;stroke-width:0.51166773px;stroke-linecap:butt;stroke-linejoin:miter;stroke-opacity:1"
       d="m -102.80952,299.26786 h -9.525 v 476.25 h 9.525 z"
       id="path1079"
       inkscape:connector-curvature="0"
       sodipodi:nodetypes="ccccc" />
    <path
       sodipodi:nodetypes="ccccc"
       inkscape:connector-curvature="0"
       id="path824"
       d="m -102.80952,775.51786 h 714.375 v -476.25 h -714.375 z"
       style="fill:#ee1c25;fill-opacity:1;stroke:none;stroke-width:2.02610254px;stroke-linecap:butt;stroke-linejoin:miter;stroke-opacity:1" />
    <path
       sodipodi:nodetypes="ccccccccccc"
       inkscape:connector-curvature="0"
       id="path1642"
       d="M -25.736936,476.1245 -9.6982198,426.7624 -51.688123,396.25495 H 0.21425442 l 16.03872158,-49.3621 16.038716,49.3621 H 84.194075 L 42.204163,426.7624 58.242882,476.1245 16.252973,445.61704 Z"
       style="fill:#ffff00;fill-opacity:1;stroke:none;stroke-width:0.26458332;stroke-linecap:butt;stroke-linejoin:miter;stroke-miterlimit:4;stroke-dasharray:none;stroke-opacity:1" />
    <path
       sodipodi:nodetypes="ccccccccccc"
       inkscape:connector-curvature="0"
       id="path1654"
       d="m 142.17201,352.86922 -1.53083,17.23293 -8.89079,-14.84153 -16.86254,3.86936 11.36773,-13.04193 -8.8908,-14.84155 15.91645,6.78118 11.36774,-13.04193 -1.53084,17.23293 15.91644,6.78118 z"
       style="fill:#ffff00;fill-opacity:1;stroke:none;stroke-width:0.26458332;stroke-linecap:butt;stroke-linejoin:miter;stroke-miterlimit:4;stroke-dasharray:none;stroke-opacity:1" />
    <path
       sodipodi:nodetypes="ccccccccccc"
       inkscape:connector-curvature="0"
       id="path1658"
       d="m 204.00338,405.6259 -12.06022,-12.40438 8.07049,-15.30312 -15.52409,7.63678 -12.06021,-12.40439 2.46581,17.12417 -15.52409,7.63678 17.04804,2.94655 2.46579,17.12417 8.07047,-15.30311 z"
       style="fill:#ffff00;fill-opacity:1;stroke:none;stroke-width:0.26458332;stroke-linecap:butt;stroke-linejoin:miter;stroke-miterlimit:4;stroke-dasharray:none;stroke-opacity:1" />
    <path
       sodipodi:nodetypes="ccccccccccc"
       inkscape:connector-curvature="0"
       id="path1660"
       d="m 191.68607,468.45411 5.9327,16.25178 -14.35222,-9.66081 -13.62304,10.66442 4.75288,-16.63513 -14.35221,-9.66081 17.28967,-0.62027 4.75291,-16.63512 5.93268,16.25177 17.2897,-0.62026 z"
       style="fill:#ffff00;fill-opacity:1;stroke:none;stroke-width:0.26458332;stroke-linecap:butt;stroke-linejoin:miter;stroke-miterlimit:4;stroke-dasharray:none;stroke-opacity:1" />
    <path
       sodipodi:nodetypes="ccccccccccc"
       inkscape:connector-curvature="0"
       id="path1666"
       d="m 143.71697,491.2992 -0.80287,17.28214 16.18823,6.10405 -16.68442,4.57692 -0.80286,17.28216 -9.50867,-14.45346 -16.68439,4.57692 10.80771,-13.50965 -9.50867,-14.45348 16.18822,6.10404 z"
       style="fill:#ffff00;fill-opacity:1;stroke:none;stroke-width:0.26458332px;stroke-linecap:butt;stroke-linejoin:miter;stroke-opacity:1" />
    <g
       id="g3"
       style="fill:#ee1c25;fill-opacity:1"
       transform="matrix(0.33333332,0,0,0.33333332,87.855148,152.39057)">
      <path
         inkscape:connector-curvature="0"
         id="path891"
         d="m -138.96669,866.51294 c 4.77701,4.5188 4.64968,12.1883 0,16.838 -4.64968,4.6497 -12.33531,4.7922 -16.83797,0 l -95.17625,-100.61545 -18.1131,18.11311 -19.84376,-19.84376 41.50205,-41.50205 28.44711,11.24039 -20.5935,20.59351 z"
         style="fill:#ee1c25;fill-opacity:1;fill-rule:evenodd;stroke:none;stroke-width:0.352777;stroke-linecap:round;stroke-linejoin:round;stroke-miterlimit:4;stroke-dasharray:none;stroke-dashoffset:0;stroke-opacity:1"
         sodipodi:nodetypes="szsccccccs" />
      <path
         style="fill:#ee1c25;fill-opacity:1;fill-rule:evenodd;stroke:none;stroke-width:0.352549;stroke-linecap:round;stroke-linejoin:round;stroke-miterlimit:4;stroke-dasharray:none;stroke-dashoffset:0;stroke-opacity:1"
         d="m -203.03607,866.93831 c 29.99237,0.016 54.30857,-24.314 54.30574,-54.30641 -1.7e-4,-1.93092 -0.10793,-3.84731 -0.31192,-5.74269 -5.05326,-46.9377 -37.76045,-69.73675 -65.72573,-78.74735 29.65531,17.66352 45.56174,52.62719 45.57462,76.16726 0.0128,23.42679 -18.99149,42.43099 -42.4182,42.41759 -16.65376,-0.01 -27.95605,-8.2049 -36.05742,-16.7475 -2.93508,-3.0949 -7.34001,-3.836 -10.54559,-1.0753 -3.20558,2.7608 -3.69467,7.2866 -0.76695,10.9205 l -31.57153,26.5991 c -5.02556,4.2341 -4.64667,12.1804 0,16.8271 4.64668,4.6467 12.63287,5.0589 16.82708,0 l 26.36752,-31.8031 c 9.94054,8.9259 22.27768,15.4791 44.32238,15.4908 z"
         id="circle2045"
         inkscape:connector-curvature="0"
         sodipodi:nodetypes="ssscssszcszscs" />
    </g>
  </g>
</svg>
