<?xml version="1.0" encoding="UTF-8" standalone="no"?>
<!-- Created with Inkscape (http://www.inkscape.org/) -->

<svg
   xmlns:dc="http://purl.org/dc/elements/1.1/"
   xmlns:cc="http://creativecommons.org/ns#"
   xmlns:rdf="http://www.w3.org/1999/02/22-rdf-syntax-ns#"
   xmlns:svg="http://www.w3.org/2000/svg"
   xmlns="http://www.w3.org/2000/svg"
   xmlns:sodipodi="http://sodipodi.sourceforge.net/DTD/sodipodi-0.dtd"
   xmlns:inkscape="http://www.inkscape.org/namespaces/inkscape"
   width="2736"
   height="1800"
   viewBox="0 0 723.89999 476.25001"
   version="1.1"
   id="svg8"
   inkscape:export-filename="C:\Users\厂永刄先生\Documents\GXI3CW2\JáÈŭcèŭ\Maqkàla\Maqkàla.png"
   inkscape:export-xdpi="96"
   inkscape:export-ydpi="96"
   inkscape:version="0.92.4 (5da689c313, 2019-01-14)"
   sodipodi:docname="CZG - コピー.svg">
  <defs
     id="defs2" />
  <sodipodi:namedview
     id="base"
     pagecolor="#ffffff"
     bordercolor="#666666"
     borderopacity="1.0"
     inkscape:pageopacity="0.0"
     inkscape:pageshadow="2"
     inkscape:zoom="0.42740676"
     inkscape:cx="1441.3892"
     inkscape:cy="800.9113"
     inkscape:document-units="px"
     inkscape:current-layer="layer1"
     showgrid="false"
     units="px"
     fit-margin-top="0"
     fit-margin-left="0"
     fit-margin-right="0"
     fit-margin-bottom="0"
     inkscape:showpageshadow="false"
     inkscape:snap-intersection-paths="true"
     inkscape:object-paths="false"
     inkscape:pagecheckerboard="true"
     inkscape:snap-smooth-nodes="true"
     inkscape:window-width="1920"
     inkscape:window-height="1051"
     inkscape:window-x="-9"
     inkscape:window-y="-9"
     inkscape:window-maximized="1"
     inkscape:object-nodes="true"
     inkscape:snap-nodes="true" />
  <metadata
     id="metadata5">
    <rdf:RDF>
      <cc:Work
         rdf:about="">
        <dc:format>image/svg+xml</dc:format>
        <dc:type
           rdf:resource="http://purl.org/dc/dcmitype/StillImage" />
        <dc:title></dc:title>
      </cc:Work>
    </rdf:RDF>
  </metadata>
  <g
     inkscape:label="レイヤー 1"
     inkscape:groupmode="layer"
     id="layer1"
     transform="translate(112.33452,-299.26786)">
    <path
       style="fill:#ffffff;fill-opacity:1;stroke:none;stroke-width:0.51166773px;stroke-linecap:butt;stroke-linejoin:miter;stroke-opacity:1"
       d="m -102.80952,299.26786 h -9.525 v 476.25 h 9.525 z"
       id="path1079"
       inkscape:connector-curvature="0"
       sodipodi:nodetypes="ccccc" />
    <path
       sodipodi:nodetypes="ccccc"
       inkscape:connector-curvature="0"
       id="path824"
       d="m -102.80952,775.51786 h 714.375 v -476.25 h -714.375 z"
       style="fill:#ee1c25;fill-opacity:1;stroke:none;stroke-width:2.02610254px;stroke-linecap:butt;stroke-linejoin:miter;stroke-opacity:1" />
    <path
       sodipodi:nodetypes="ccccccccccc"
       inkscape:connector-curvature="0"
       id="path1642"
       d="M -25.736936,476.1245 -9.6982198,426.7624 -51.688123,396.25495 H 0.21425442 l 16.03872158,-49.3621 16.038716,49.3621 H 84.194075 L 42.204163,426.7624 58.242882,476.1245 16.252973,445.61704 Z"
       style="fill:#ffff00;fill-opacity:1;stroke:none;stroke-width:0.26458332;stroke-linecap:butt;stroke-linejoin:miter;stroke-miterlimit:4;stroke-dasharray:none;stroke-opacity:1" />
    <path
       sodipodi:nodetypes="ccccccccccc"
       inkscape:connector-curvature="0"
       id="path1654"
       d="m 142.17201,352.86922 -1.53083,17.23293 -8.89079,-14.84153 -16.86254,3.86936 11.36773,-13.04193 -8.8908,-14.84155 15.91645,6.78118 11.36774,-13.04193 -1.53084,17.23293 15.91644,6.78118 z"
       style="fill:#ffff00;fill-opacity:1;stroke:none;stroke-width:0.26458332;stroke-linecap:butt;stroke-linejoin:miter;stroke-miterlimit:4;stroke-dasharray:none;stroke-opacity:1" />
    <path
       sodipodi:nodetypes="ccccccccccc"
       inkscape:connector-curvature="0"
       id="path1658"
       d="m 204.00338,405.6259 -12.06022,-12.40438 8.07049,-15.30312 -15.52409,7.63678 -12.06021,-12.40439 2.46581,17.12417 -15.52409,7.63678 17.04804,2.94655 2.46579,17.12417 8.07047,-15.30311 z"
       style="fill:#ffff00;fill-opacity:1;stroke:none;stroke-width:0.26458332;stroke-linecap:butt;stroke-linejoin:miter;stroke-miterlimit:4;stroke-dasharray:none;stroke-opacity:1" />
    <path
       sodipodi:nodetypes="ccccccccccc"
       inkscape:connector-curvature="0"
       id="path1660"
       d="m 191.68607,468.45411 5.9327,16.25178 -14.35222,-9.66081 -13.62304,10.66442 4.75288,-16.63513 -14.35221,-9.66081 17.28967,-0.62027 4.75291,-16.63512 5.93268,16.25177 17.2897,-0.62026 z"
       style="fill:#ffff00;fill-opacity:1;stroke:none;stroke-width:0.26458332;stroke-linecap:butt;stroke-linejoin:miter;stroke-miterlimit:4;stroke-dasharray:none;stroke-opacity:1" />
    <path
       sodipodi:nodetypes="ccccccccccc"
       inkscape:connector-curvature="0"
       id="path1666"
       d="m 143.71697,491.2992 -0.80287,17.28214 16.18823,6.10405 -16.68442,4.57692 -0.80286,17.28216 -9.50867,-14.45346 -16.68439,4.57692 10.80771,-13.50965 -9.50867,-14.45348 16.18822,6.10404 z"
       style="fill:#ffff00;fill-opacity:1;stroke:none;stroke-width:0.26458332px;stroke-linecap:butt;stroke-linejoin:miter;stroke-opacity:1" />
    <path
       style="opacity:1;fill:#ee1c25;fill-opacity:1;stroke:none;stroke-width:0.06479264;stroke-linecap:round;stroke-linejoin:miter;stroke-miterlimit:4;stroke-dasharray:none;stroke-dashoffset:0;stroke-opacity:1"
       d="m 17.208006,398.8408 c 7.86968,3.14208 13.43022,10.83454 13.43019,19.82552 -10e-6,2.57217 -0.69075,4.98274 -1.89608,7.05738 l -13.45271,-13.45271 5.11626,-5.11627 -3.19686,-3.19686 c -1.23866,1.08698 -2.82956,1.68889 -4.47753,1.6909 -0.68603,7.7e-4 -1.36809,-0.10411 -2.02306,-0.30818 l -10.12806983,10.12808 5.75580003,5.75579 3.8371998,-3.8372 13.45271,13.45272 c -2.07463,1.20533 -4.48523,1.89607 -7.05739,1.89608 -5.9807,1e-5 -11.3667098,-2.54312 -15.1382798,-6.60584 l -3.17248,3.17248 c 0.81340997,1.29093 1.75533997,2.49267 2.80728,3.58791 l -0.54080003,0.54081 c -0.19241,-0.0364 -0.38775,-0.0557 -0.58357,-0.0558 -1.76601997,-7.7e-4 -3.19766997,1.43164 -3.19766997,3.19765 0,1.76603 1.43165,3.19767 3.19766997,3.19767 1.76602003,0 3.19828003,-1.43164 3.19766003,-3.19767 -7e-5,-0.19598 -0.0192,-0.39152 -0.0556,-0.58408 l 0.69523,-0.69523 c 3.74085,2.81074 8.3905098,4.47698 13.4300598,4.47698 4.34449,0 8.3719,-1.35491 11.6852,-3.66359 l 3.66359,3.66359 5.11627,-5.11626 -3.66359,-3.66358 c 2.30869,-3.31329 3.66359,-7.34072 3.66359,-11.68521 0,-11.30253 -9.16234,-20.46528 -20.46506,-20.46505 z"
       id="path4732"
       inkscape:connector-curvature="0"
       sodipodi:nodetypes="csccccscccccsccccssssccsccccsc" />
  </g>
</svg>
