<?xml version="1.0" encoding="UTF-8" standalone="no"?>
<!-- Created with Inkscape (http://www.inkscape.org/) -->

<svg
   xmlns:dc="http://purl.org/dc/elements/1.1/"
   xmlns:cc="http://creativecommons.org/ns#"
   xmlns:rdf="http://www.w3.org/1999/02/22-rdf-syntax-ns#"
   xmlns:svg="http://www.w3.org/2000/svg"
   xmlns="http://www.w3.org/2000/svg"
   xmlns:sodipodi="http://sodipodi.sourceforge.net/DTD/sodipodi-0.dtd"
   xmlns:inkscape="http://www.inkscape.org/namespaces/inkscape"
   width="2736"
   height="1800"
   viewBox="0 0 723.89999 476.25001"
   version="1.1"
   id="svg8"
   inkscape:export-filename="C:\Users\drk22\Documents\GXI3CW2\JáÈŭcèŭ\Còq\goqfí.png"
   inkscape:export-xdpi="96"
   inkscape:export-ydpi="96"
   inkscape:version="0.92.4 (5da689c313, 2019-01-14)"
   sodipodi:docname="CZG 2.svg">
  <defs
     id="defs2" />
  <sodipodi:namedview
     id="base"
     pagecolor="#ffffff"
     bordercolor="#666666"
     borderopacity="1.0"
     inkscape:pageopacity="0.0"
     inkscape:pageshadow="2"
     inkscape:zoom="0.30222222"
     inkscape:cx="1071.4566"
     inkscape:cy="806.06614"
     inkscape:document-units="px"
     inkscape:current-layer="g1364"
     showgrid="false"
     units="px"
     fit-margin-top="0"
     fit-margin-left="0"
     fit-margin-right="0"
     fit-margin-bottom="0"
     inkscape:showpageshadow="false"
     inkscape:snap-intersection-paths="true"
     inkscape:object-paths="false"
     inkscape:pagecheckerboard="true"
     inkscape:snap-smooth-nodes="true"
     inkscape:window-width="1920"
     inkscape:window-height="1051"
     inkscape:window-x="-9"
     inkscape:window-y="-9"
     inkscape:window-maximized="1"
     inkscape:object-nodes="true"
     inkscape:snap-nodes="true" />
  <metadata
     id="metadata5">
    <rdf:RDF>
      <cc:Work
         rdf:about="">
        <dc:format>image/svg+xml</dc:format>
        <dc:type
           rdf:resource="http://purl.org/dc/dcmitype/StillImage" />
        <dc:title />
      </cc:Work>
    </rdf:RDF>
  </metadata>
  <g
     inkscape:label="レイヤー 1"
     inkscape:groupmode="layer"
     id="layer1"
     transform="translate(112.33452,-299.26786)">
    <g
       id="g1364"
       inkscape:export-xdpi="96"
       inkscape:export-ydpi="96">
      <path
         sodipodi:nodetypes="ccccc"
         inkscape:connector-curvature="0"
         id="path1079"
         d="m -102.80952,299.26786 h -9.525 v 476.25 h 9.525 z"
         style="fill:#ffffff;fill-opacity:1;stroke:none;stroke-width:0.51166773px;stroke-linecap:butt;stroke-linejoin:miter;stroke-opacity:1" />
      <path
         style="fill:#ee1c25;fill-opacity:1;stroke:none;stroke-width:2.02610254px;stroke-linecap:butt;stroke-linejoin:miter;stroke-opacity:1"
         d="m -102.80952,775.51786 h 714.375 v -476.25 h -714.375 z"
         id="path824"
         inkscape:connector-curvature="0"
         sodipodi:nodetypes="ccccc" />
      <path
         style="fill:#ffff00;fill-opacity:1;stroke:none;stroke-width:0.26458332;stroke-linecap:butt;stroke-linejoin:miter;stroke-miterlimit:4;stroke-dasharray:none;stroke-opacity:1"
         d="m 142.17201,352.86922 -1.53083,17.23293 -8.89079,-14.84153 -16.86254,3.86936 11.36773,-13.04193 -8.8908,-14.84155 15.91645,6.78118 11.36774,-13.04193 -1.53084,17.23293 15.91644,6.78118 z"
         id="path1654"
         inkscape:connector-curvature="0"
         sodipodi:nodetypes="ccccccccccc" />
      <path
         style="fill:#ffff00;fill-opacity:1;stroke:none;stroke-width:0.26458332;stroke-linecap:butt;stroke-linejoin:miter;stroke-miterlimit:4;stroke-dasharray:none;stroke-opacity:1"
         d="m 204.00338,405.6259 -12.06022,-12.40438 8.07049,-15.30312 -15.52409,7.63678 -12.06021,-12.40439 2.46581,17.12417 -15.52409,7.63678 17.04804,2.94655 2.46579,17.12417 8.07047,-15.30311 z"
         id="path1658"
         inkscape:connector-curvature="0"
         sodipodi:nodetypes="ccccccccccc" />
      <path
         style="fill:#ffff00;fill-opacity:1;stroke:none;stroke-width:0.26458332;stroke-linecap:butt;stroke-linejoin:miter;stroke-miterlimit:4;stroke-dasharray:none;stroke-opacity:1"
         d="m 191.68607,468.45411 5.9327,16.25178 -14.35222,-9.66081 -13.62304,10.66442 4.75288,-16.63513 -14.35221,-9.66081 17.28967,-0.62027 4.75291,-16.63512 5.93268,16.25177 17.2897,-0.62026 z"
         id="path1660"
         inkscape:connector-curvature="0"
         sodipodi:nodetypes="ccccccccccc" />
      <path
         style="fill:#ffff00;fill-opacity:1;stroke:none;stroke-width:0.26458332px;stroke-linecap:butt;stroke-linejoin:miter;stroke-opacity:1"
         d="m 143.71697,491.2992 -0.80287,17.28214 16.18823,6.10405 -16.68442,4.57692 -0.80286,17.28216 -9.50867,-14.45346 -16.68439,4.57692 10.80771,-13.50965 -9.50867,-14.45348 16.18822,6.10404 z"
         id="path1666"
         inkscape:connector-curvature="0"
         sodipodi:nodetypes="ccccccccccc" />
      <path
         style="opacity:1;fill:#ffff00;fill-opacity:1;stroke:none;stroke-width:0.22617204;stroke-linecap:round;stroke-linejoin:miter;stroke-miterlimit:4;stroke-dasharray:none;stroke-dashoffset:0;stroke-opacity:1"
         d="m 16.251533,346.89285 c 27.47074,10.96808 46.88096,37.82022 46.88087,69.20508 -4e-5,8.97867 -2.41122,17.39329 -6.61868,24.63525 L 9.5542728,393.77371 27.413653,375.91433 16.254323,364.75501 c -4.3238,3.79433 -9.8771702,5.89543 -15.62974022,5.90243 -2.39469998,0.003 -4.77558998,-0.3634 -7.06189998,-1.07575 l -35.3541158,35.35413 20.091796,20.0918 13.3945398,-13.39454 46.9594502,46.95947 c -7.24193,4.20746 -15.6566,6.61864 -24.63524,6.61866 -20.8768902,2e-5 -39.677854,-8.8773 -52.843285,-23.05905 l -11.074212,11.0742 c 2.839374,4.50625 6.127375,8.70118 9.799404,12.52434 l -1.88779,1.88781 c -0.671631,-0.1272 -1.353519,-0.19462 -2.037085,-0.19488 -6.164653,-0.003 -11.16211,4.99744 -11.16211,11.16211 0,6.1647 4.997457,11.16211 11.16211,11.16211 6.164651,0 11.164252,-4.99741 11.162109,-11.16211 -2.38e-4,-0.68416 -0.06695,-1.36667 -0.193941,-2.03895 l 2.426827,-2.42682 c 13.058228,9.81156 29.2888128,15.62791 46.880393,15.62788 15.16535,0 29.22386,-4.72955 40.7896,-12.78852 l 12.78853,12.78852 17.85937,-17.85938 -12.78852,-12.78852 c 8.05896,-11.56571 12.78852,-25.62428 12.78852,-40.7896 0,-39.45384 -31.98302,-71.43828 -71.4375,-71.4375 z"
         id="path4732"
         inkscape:connector-curvature="0"
         sodipodi:nodetypes="csccccscccccsccccssssccsccccsc" />
    </g>
  </g>
</svg>
