<?xml version="1.0" encoding="UTF-8" standalone="no"?>
<!-- Created with Inkscape (http://www.inkscape.org/) -->

<svg
   xmlns:dc="http://purl.org/dc/elements/1.1/"
   xmlns:cc="http://creativecommons.org/ns#"
   xmlns:rdf="http://www.w3.org/1999/02/22-rdf-syntax-ns#"
   xmlns:svg="http://www.w3.org/2000/svg"
   xmlns="http://www.w3.org/2000/svg"
   xmlns:sodipodi="http://sodipodi.sourceforge.net/DTD/sodipodi-0.dtd"
   xmlns:inkscape="http://www.inkscape.org/namespaces/inkscape"
   width="3036"
   height="1800"
   viewBox="0 0 803.27499 476.25001"
   version="1.1"
   id="svg8"
   inkscape:export-filename="C:\Users\drk22\Documents\GXI3CW2\JáÈŭcèŭ\Còq\proposition.png"
   inkscape:export-xdpi="96"
   inkscape:export-ydpi="96"
   inkscape:version="0.92.4 (5da689c313, 2019-01-14)"
   sodipodi:docname="提案.svg">
  <defs
     id="defs2" />
  <sodipodi:namedview
     id="base"
     pagecolor="#ffffff"
     bordercolor="#666666"
     borderopacity="1.0"
     inkscape:pageopacity="0.0"
     inkscape:pageshadow="2"
     inkscape:zoom="0.30222222"
     inkscape:cx="953.18462"
     inkscape:cy="530.97095"
     inkscape:document-units="px"
     inkscape:current-layer="layer1"
     showgrid="false"
     units="px"
     fit-margin-top="0"
     fit-margin-left="0"
     fit-margin-right="0"
     fit-margin-bottom="0"
     inkscape:showpageshadow="false"
     inkscape:snap-intersection-paths="true"
     inkscape:object-paths="false"
     inkscape:pagecheckerboard="true"
     inkscape:snap-smooth-nodes="false"
     inkscape:window-width="1920"
     inkscape:window-height="1051"
     inkscape:window-x="-9"
     inkscape:window-y="-9"
     inkscape:window-maximized="1"
     inkscape:object-nodes="true"
     inkscape:snap-center="true" />
  <metadata
     id="metadata5">
    <rdf:RDF>
      <cc:Work
         rdf:about="">
        <dc:format>image/svg+xml</dc:format>
        <dc:type
           rdf:resource="http://purl.org/dc/dcmitype/StillImage" />
        <dc:title />
      </cc:Work>
    </rdf:RDF>
  </metadata>
  <g
     inkscape:label="レイヤー 1"
     inkscape:groupmode="layer"
     id="layer1"
     transform="translate(112.33452,-299.26786)">
    <path
       style="fill:#ffffff;fill-opacity:1;stroke:none;stroke-width:0.51166773px;stroke-linecap:butt;stroke-linejoin:miter;stroke-opacity:1"
       d="m -102.80952,299.26786 h -9.525 v 476.25 h 9.525 z"
       id="path1079"
       inkscape:connector-curvature="0"
       sodipodi:nodetypes="ccccc" />
    <path
       sodipodi:nodetypes="cccc"
       inkscape:connector-curvature="0"
       id="path828"
       d="M -102.80952,719.97846 201.49981,537.39286 -102.80952,354.80726 Z"
       style="fill:#0026a0;fill-opacity:1;stroke:none;stroke-width:0.90610063px;stroke-linecap:butt;stroke-linejoin:miter;stroke-opacity:1" />
    <path
       style="fill:#f6e340;fill-opacity:1;stroke:none;stroke-width:0.64070988px;stroke-linecap:butt;stroke-linejoin:miter;stroke-opacity:1"
       d="m 307.25696,489.76786 h 383.68352 v -47.625 H 320.44839 L 82.323384,299.26786 h -92.566413 z"
       id="path830"
       inkscape:connector-curvature="0"
       sodipodi:nodetypes="ccccccc" />
    <path
       sodipodi:nodetypes="cccccccccccc"
       inkscape:connector-curvature="0"
       id="path832"
       d="m 307.25696,489.76786 -317.499989,-190.5 h -92.566491 v 55.5394 l 304.30933,182.5856 -304.30933,182.5856 v 55.5394 h 92.566491 l 317.499989,-190.5 383.68352,0 v -95.25 z"
       style="fill:#ff0000;fill-opacity:1;stroke:none;stroke-width:0.90610063px;stroke-linecap:butt;stroke-linejoin:miter;stroke-opacity:1" />
    <path
       sodipodi:nodetypes="ccccccccccccccccccccccccc"
       inkscape:connector-curvature="0"
       id="path825"
       d="m -32.102776,504.70794 -11.963509,-44.64843 32.684922,32.68491 11.963516,-44.64843 11.963509,44.64843 32.684933,-32.68491 -11.96353,44.64844 44.64846,-11.96351 -32.68493,32.68492 44.64844,11.96352 -44.64844,11.96351 32.68492,32.68492 -44.64845,-11.96352 11.96353,44.64844 -32.684936,-32.68492 -11.963511,44.64844 -11.963514,-44.64844 -32.684921,32.68492 11.963508,-44.64843 -44.648431,11.96351 32.68492,-32.68493 -44.648435,-11.96351 44.648438,-11.96351 -32.684923,-32.68493 z"
       style="fill:#ffffff;fill-opacity:1;stroke:none;stroke-width:0.26458332px;stroke-linecap:butt;stroke-linejoin:miter;stroke-opacity:1" />
    <path
       sodipodi:nodetypes="ssszsssszs"
       inkscape:connector-curvature="0"
       id="path827"
       d="m -44.066285,537.39286 c -3e-6,24.65865 19.989784,44.64844 44.6484355,44.64844 24.6586485,0 44.6484385,-19.98979 44.6484385,-44.64844 0,-24.65865 -19.98979,-44.64843 -44.6484385,-44.64843 -24.6586465,0 -44.6484335,19.98978 -44.6484355,44.64843 z m 95.250004,0 c 0,27.94648 -22.65509,50.60157 -50.6015685,50.60157 -27.9464755,0 -50.6015665,-22.6551 -50.6015605,-50.60157 0,-27.94647 22.655088,-50.60156 50.6015605,-50.60156 27.9464785,0 50.6015685,22.65509 50.6015685,50.60156 z"
       style="opacity:1;fill:#0026a0;fill-opacity:1;fill-rule:evenodd;stroke:none;stroke-width:0.22303717;stroke-linecap:square;stroke-linejoin:miter;stroke-miterlimit:4;stroke-dasharray:none;stroke-dashoffset:0;stroke-opacity:1" />
    <path
       sodipodi:nodetypes="ccccc"
       inkscape:connector-curvature="0"
       id="path841"
       d="M 82.323384,299.26786 H 690.94048 v 142.875 H 320.44839 Z"
       style="fill:#019dff;fill-opacity:1;stroke:none;stroke-width:0.90610063px;stroke-linecap:butt;stroke-linejoin:miter;stroke-opacity:1" />
    <path
       sodipodi:nodetypes="ccccccc"
       inkscape:connector-curvature="0"
       id="path859"
       d="m 307.25696,585.01786 h 383.68352 v 47.625 H 320.44839 l -238.125006,142.875 h -92.566413 z"
       style="fill:#ffffff;fill-opacity:1;stroke:none;stroke-width:0.64070988px;stroke-linecap:butt;stroke-linejoin:miter;stroke-opacity:1" />
    <path
       style="fill:#000000;fill-opacity:1;stroke:none;stroke-width:0.90610063px;stroke-linecap:butt;stroke-linejoin:miter;stroke-opacity:1"
       d="M 82.323384,775.51786 H 690.94048 v -142.875 H 320.44839 Z"
       id="path861"
       inkscape:connector-curvature="0"
       sodipodi:nodetypes="ccccc" />
  </g>
</svg>
