<?xml version="1.0" encoding="UTF-8" standalone="no"?>
<!-- Created with Inkscape (http://www.inkscape.org/) -->

<svg
   xmlns:dc="http://purl.org/dc/elements/1.1/"
   xmlns:cc="http://creativecommons.org/ns#"
   xmlns:rdf="http://www.w3.org/1999/02/22-rdf-syntax-ns#"
   xmlns:svg="http://www.w3.org/2000/svg"
   xmlns="http://www.w3.org/2000/svg"
   xmlns:sodipodi="http://sodipodi.sourceforge.net/DTD/sodipodi-0.dtd"
   xmlns:inkscape="http://www.inkscape.org/namespaces/inkscape"
   width="1504.7999"
   height="1504.7999"
   viewBox="0 0 398.14498 398.14499"
   version="1.1"
   id="svg8"
   inkscape:export-filename="C:\Users\厂永刄先生\Documents\GXI3CW2\JáÈŭcèŭ\N̂i\鳥取県\章ﾈｵﾝ.png"
   inkscape:export-xdpi="96"
   inkscape:export-ydpi="96"
   inkscape:version="0.92.4 (5da689c313, 2019-01-14)"
   sodipodi:docname="章ﾈｵﾝ.svg">
  <defs
     id="defs2">
    <filter
       inkscape:collect="always"
       style="color-interpolation-filters:sRGB"
       id="filter821"
       x="-0.017999999"
       width="1.036"
       y="-0.018000001"
       height="1.036">
      <feGaussianBlur
         inkscape:collect="always"
         stdDeviation="2.455664"
         id="feGaussianBlur823" />
    </filter>
    <filter
       inkscape:collect="always"
       style="color-interpolation-filters:sRGB"
       id="filter827"
       x="-0.047999997"
       width="1.096"
       y="-0.048"
       height="1.096">
      <feGaussianBlur
         inkscape:collect="always"
         stdDeviation="6.5484374"
         id="feGaussianBlur829" />
    </filter>
    <filter
       inkscape:collect="always"
       style="color-interpolation-filters:sRGB"
       id="filter837"
       x="-0.108"
       width="1.216"
       y="-0.108"
       height="1.216">
      <feGaussianBlur
         inkscape:collect="always"
         stdDeviation="14.733984"
         id="feGaussianBlur839" />
    </filter>
  </defs>
  <sodipodi:namedview
     id="base"
     pagecolor="#000000"
     bordercolor="#666666"
     borderopacity="1.0"
     inkscape:pageopacity="1"
     inkscape:pageshadow="2"
     inkscape:zoom="0.36150987"
     inkscape:cx="752.39998"
     inkscape:cy="752.4"
     inkscape:document-units="px"
     inkscape:current-layer="layer1"
     showgrid="false"
     units="px"
     fit-margin-top="0"
     fit-margin-left="0"
     fit-margin-right="0"
     fit-margin-bottom="0"
     inkscape:showpageshadow="false"
     inkscape:snap-intersection-paths="true"
     inkscape:object-paths="false"
     inkscape:pagecheckerboard="true"
     inkscape:snap-smooth-nodes="false"
     inkscape:window-width="1366"
     inkscape:window-height="745"
     inkscape:window-x="-8"
     inkscape:window-y="-8"
     inkscape:window-maximized="1"
     inkscape:object-nodes="true"
     inkscape:snap-nodes="true"
     showguides="true" />
  <metadata
     id="metadata5">
    <rdf:RDF>
      <cc:Work
         rdf:about="">
        <dc:format>image/svg+xml</dc:format>
        <dc:type
           rdf:resource="http://purl.org/dc/dcmitype/StillImage" />
        <dc:title />
      </cc:Work>
    </rdf:RDF>
  </metadata>
  <g
     inkscape:label="レイヤー 1"
     inkscape:groupmode="layer"
     id="layer1"
     transform="translate(-55.305475,-338.32038)">
    <path
       style="opacity:1;fill:none;fill-opacity:1;fill-rule:evenodd;stroke:#2056ff;stroke-width:10.58333345;stroke-linecap:round;stroke-linejoin:round;stroke-miterlimit:4;stroke-dasharray:none;stroke-dashoffset:0;stroke-opacity:1;filter:url(#filter837)"
       d="M 128.67611,406.42412 94.7903,537.40371 c -2.705629,10.45813 -4.123261,21.42946 -4.123261,32.73134 0,72.33203 58.636711,130.96875 130.968751,130.96875 M 352.60454,570.13505 c 0,-23.85538 -6.37923,-46.22048 -17.52295,-65.48438 h -74.07818 c 22.18862,13.3681 37.03082,37.69198 37.03082,65.48439 0,42.1937 -34.20474,76.39845 -76.39844,76.39845 -42.1937,0 -76.39845,-34.20475 -76.39845,-76.39844 m 272.85158,-130.96876 -196.45313,10e-6 c -15.30744,0 -30.00147,2.62652 -43.65625,7.45277 v -51.10903 c 0,-12.05534 -9.77278,-21.82812 -21.82813,-21.82812 -4.51675,0 -8.7293,1.34819 -12.19512,3.72174 l -42.3752,29.02044"
       id="path831"
       inkscape:connector-curvature="0"
       sodipodi:nodetypes="cssccccszccscsssc" />
    <path
       sodipodi:nodetypes="cssccccszccscsssc"
       inkscape:connector-curvature="0"
       id="path825"
       d="M 128.67611,406.42412 94.7903,537.40371 c -2.705629,10.45813 -4.123261,21.42946 -4.123261,32.73134 0,72.33203 58.636711,130.96875 130.968751,130.96875 M 352.60454,570.13505 c 0,-23.85538 -6.37923,-46.22048 -17.52295,-65.48438 h -74.07818 c 22.18862,13.3681 37.03082,37.69198 37.03082,65.48439 0,42.1937 -34.20474,76.39845 -76.39844,76.39845 -42.1937,0 -76.39845,-34.20475 -76.39845,-76.39844 m 272.85158,-130.96876 -196.45313,10e-6 c -15.30744,0 -30.00147,2.62652 -43.65625,7.45277 v -51.10903 c 0,-12.05534 -9.77278,-21.82812 -21.82813,-21.82812 -4.51675,0 -8.7293,1.34819 -12.19512,3.72174 l -42.3752,29.02044"
       style="opacity:1;fill:none;fill-opacity:1;fill-rule:evenodd;stroke:#2056ff;stroke-width:10.58333345;stroke-linecap:round;stroke-linejoin:round;stroke-miterlimit:4;stroke-dasharray:none;stroke-dashoffset:0;stroke-opacity:1;filter:url(#filter827)" />
    <path
       style="opacity:1;fill:none;fill-opacity:1;fill-rule:evenodd;stroke:#2056ff;stroke-width:10.58333345;stroke-linecap:round;stroke-linejoin:round;stroke-miterlimit:4;stroke-dasharray:none;stroke-dashoffset:0;stroke-opacity:1;filter:url(#filter821)"
       d="M 128.67611,406.42412 94.7903,537.40371 c -2.705629,10.45813 -4.123261,21.42946 -4.123261,32.73134 0,72.33203 58.636711,130.96875 130.968751,130.96875 M 352.60454,570.13505 c 0,-23.85538 -6.37923,-46.22048 -17.52295,-65.48438 h -74.07818 c 22.18862,13.3681 37.03082,37.69198 37.03082,65.48439 0,42.1937 -34.20474,76.39845 -76.39844,76.39845 -42.1937,0 -76.39845,-34.20475 -76.39845,-76.39844 m 272.85158,-130.96876 -196.45313,10e-6 c -15.30744,0 -30.00147,2.62652 -43.65625,7.45277 v -51.10903 c 0,-12.05534 -9.77278,-21.82812 -21.82813,-21.82812 -4.51675,0 -8.7293,1.34819 -12.19512,3.72174 l -42.3752,29.02044"
       id="path815"
       inkscape:connector-curvature="0"
       sodipodi:nodetypes="cssccccszccscsssc" />
    <path
       sodipodi:nodetypes="cssccccszccscsssc"
       inkscape:connector-curvature="0"
       id="path1054"
       d="M 128.67611,406.42412 94.7903,537.40371 c -2.705629,10.45813 -4.123261,21.42946 -4.123261,32.73134 0,72.33203 58.636711,130.96875 130.968751,130.96875 M 352.60454,570.13505 c 0,-23.85538 -6.37923,-46.22048 -17.52295,-65.48438 h -74.07818 c 22.18862,13.3681 37.03082,37.69198 37.03082,65.48439 0,42.1937 -34.20474,76.39845 -76.39844,76.39845 -42.1937,0 -76.39845,-34.20475 -76.39845,-76.39844 m 272.85158,-130.96876 -196.45313,10e-6 c -15.30744,0 -30.00147,2.62652 -43.65625,7.45277 v -51.10903 c 0,-12.05534 -9.77278,-21.82812 -21.82813,-21.82812 -4.51675,0 -8.7293,1.34819 -12.19512,3.72174 l -42.3752,29.02044"
       style="opacity:1;fill:none;fill-opacity:1;fill-rule:evenodd;stroke:#c0cfff;stroke-width:5.29166672;stroke-linecap:round;stroke-linejoin:round;stroke-miterlimit:4;stroke-dasharray:none;stroke-dashoffset:0;stroke-opacity:1" />
  </g>
</svg>
