<?xml version="1.0" encoding="UTF-8" standalone="no"?>
<!-- Created with Inkscape (http://www.inkscape.org/) -->

<svg
   xmlns:dc="http://purl.org/dc/elements/1.1/"
   xmlns:cc="http://creativecommons.org/ns#"
   xmlns:rdf="http://www.w3.org/1999/02/22-rdf-syntax-ns#"
   xmlns:svg="http://www.w3.org/2000/svg"
   xmlns="http://www.w3.org/2000/svg"
   xmlns:sodipodi="http://sodipodi.sourceforge.net/DTD/sodipodi-0.dtd"
   xmlns:inkscape="http://www.inkscape.org/namespaces/inkscape"
   width="3636"
   height="1800"
   viewBox="0 0 962.025 476.25001"
   version="1.1"
   id="svg8"
   inkscape:export-filename="C:\Users\厂永刄先生\Documents\GXI3CW2\JáÈŭcèŭ\Àfúĥŏ\1980.png"
   inkscape:export-xdpi="96"
   inkscape:export-ydpi="96"
   inkscape:version="0.92.4 (5da689c313, 2019-01-14)"
   sodipodi:docname="1980.svg">
  <defs
     id="defs2" />
  <sodipodi:namedview
     id="base"
     pagecolor="#ffffff"
     bordercolor="#666666"
     borderopacity="1.0"
     inkscape:pageopacity="0.0"
     inkscape:pageshadow="2"
     inkscape:zoom="0.17347065"
     inkscape:cx="1590.2663"
     inkscape:cy="878.32345"
     inkscape:document-units="px"
     inkscape:current-layer="layer1"
     showgrid="false"
     units="px"
     fit-margin-top="0"
     fit-margin-left="0"
     fit-margin-right="0"
     fit-margin-bottom="0"
     inkscape:showpageshadow="false"
     inkscape:snap-intersection-paths="true"
     inkscape:object-paths="false"
     inkscape:pagecheckerboard="true"
     inkscape:snap-smooth-nodes="true"
     inkscape:window-width="1366"
     inkscape:window-height="745"
     inkscape:window-x="-8"
     inkscape:window-y="-8"
     inkscape:window-maximized="1"
     inkscape:object-nodes="true"
     inkscape:snap-nodes="true"
     showguides="true"
     inkscape:guide-bbox="true" />
  <metadata
     id="metadata5">
    <rdf:RDF>
      <cc:Work
         rdf:about="">
        <dc:format>image/svg+xml</dc:format>
        <dc:type
           rdf:resource="http://purl.org/dc/dcmitype/StillImage" />
        <dc:title />
      </cc:Work>
    </rdf:RDF>
  </metadata>
  <g
     inkscape:label="レイヤー 1"
     inkscape:groupmode="layer"
     id="layer1"
     transform="translate(1064.8345,-299.26786)">
    <path
       sodipodi:nodetypes="ccccc"
       inkscape:connector-curvature="0"
       id="path882"
       d="m -1055.3095,299.26786 v 476.25 h 952.49998 v -476.25 z"
       style="fill:#ff0000;fill-opacity:1;stroke:none;stroke-width:0.26458335;stroke-linecap:butt;stroke-linejoin:miter;stroke-miterlimit:5.33333349;stroke-dasharray:none;stroke-opacity:1" />
    <g
       id="g1068"
       style="stroke:none;stroke-width:2.3812499;stroke-miterlimit:4;stroke-dasharray:none;stroke-opacity:1" />
    <path
       sodipodi:nodetypes="ccccc"
       inkscape:connector-curvature="0"
       id="path1079"
       d="m -1064.8345,299.26786 h 9.525 v 476.25 h -9.525 z"
       style="fill:#ffffff;fill-opacity:1;stroke:none;stroke-width:0.51166773px;stroke-linecap:butt;stroke-linejoin:miter;stroke-opacity:1" />
    <g
       id="g838"
       style="fill:#ffc000;fill-opacity:1"
       transform="translate(79.375011)">
      <path
         id="circle868"
         transform="matrix(0.26458334,0,0,0.26458334,-1064.8345,299.26786)"
         d="m 703.5625,347.40625 c -46.25654,19.49469 -89.88369,44.71738 -129.85938,75.07617 l 30.2793,52.44531 c -34.81595,27.0169 -66.19386,58.19404 -93.43359,92.83594 L 458.40625,537.6582 c -30.31204,40.0111 -55.4833,83.66786 -74.92383,129.94727 l 52.16992,30.12109 C 419.2247,738.61187 407.86287,781.35413 401.82031,825 H 341.2207 c -6.24525,49.80669 -6.21579,100.20064 0.0879,150 h 60.54493 c 6.01035,43.6459 17.37118,86.3881 33.79882,127.2734 l -52.16992,30.1211 c 19.44053,46.2794 44.61179,89.9362 74.92383,129.9473 l 52.14258,-30.1055 c 27.23973,34.6419 58.61764,65.8191 93.43359,92.836 l -30.2793,52.4453 c 39.97569,30.3588 83.60284,55.5815 129.85938,75.0762 l 30.1875,-52.2872 c 21.93071,8.8079 44.39841,16.1442 67.25,21.9981 V 1281.9512 C 643.69928,1226.3531 531,1076.3394 531,900 531,723.66065 643.69928,573.64688 801,518.04883 V 377.69531 c -22.85159,5.85386 -45.31929,13.19024 -67.25,21.99805 z m 464.832,0.0762 -30.1211,52.16992 c -21.9374,-8.81445 -44.4139,-16.1553 -67.2734,-22.0137 v 140.41016 c 157.3007,55.59805 270,205.61182 270,381.95117 0,176.3394 -112.6993,326.3531 -270,381.9512 v 140.4101 c 22.8598,-5.8584 45.3356,-13.1991 67.2734,-22.0136 l 30.1211,52.1699 c 46.2793,-19.4405 89.9362,-44.6119 129.9473,-74.9238 l -30.1055,-52.1426 c 34.6419,-27.2397 65.819,-58.6176 92.836,-93.4336 l 52.4453,30.2793 c 30.3588,-39.9756 55.5815,-83.6029 75.0762,-129.8594 l -52.2872,-30.1875 c 16.4179,-40.8788 27.7726,-83.613 33.8418,-127.25 h 60.6309 c 6.245,-49.80661 6.2158,-100.20072 -0.088,-150 h -60.5762 c -6.0369,-43.63691 -17.3907,-86.3712 -33.8086,-127.25 l 52.2872,-30.1875 c -19.4949,-46.2565 -44.7175,-89.88377 -75.0762,-129.85938 l -52.4453,30.2793 c -27.0169,-34.81599 -58.1941,-66.19389 -92.836,-93.43359 l 30.1055,-52.14258 c -40.011,-30.312 -83.6681,-55.48334 -129.9473,-74.92383 z"
         style="opacity:1;fill:#ffc000;fill-opacity:1;fill-rule:evenodd;stroke:none;stroke-width:1;stroke-linecap:round;stroke-linejoin:round;stroke-miterlimit:5.33333349;stroke-dasharray:none;stroke-dashoffset:0;stroke-opacity:1"
         inkscape:connector-curvature="0" />
      <path
         sodipodi:nodetypes="zzzzzzzzzz"
         inkscape:connector-curvature="0"
         id="path942"
         d="m -829.09078,684.0888 c 0,6.57564 5.33061,11.90625 11.90625,11.90625 6.57564,0 11.90625,-5.33061 11.90625,-11.90625 0,-6.57564 -5.33061,-11.90625 -11.90625,-11.90625 -6.57564,0 -11.90625,5.33061 -11.90625,11.90625 z m 19.84375,0 c 0,4.38376 -3.55374,7.9375 -7.9375,7.9375 -4.38376,0 -7.9375,-3.55374 -7.9375,-7.9375 0,-4.38376 3.55374,-7.9375 7.9375,-7.9375 4.38376,0 7.9375,3.55374 7.9375,7.9375 z"
         style="opacity:1;fill:#ffc000;fill-opacity:1;fill-rule:evenodd;stroke:none;stroke-width:0.02351852;stroke-linecap:round;stroke-linejoin:round;stroke-miterlimit:5.33333349;stroke-dasharray:none;stroke-dashoffset:0;stroke-opacity:1" />
      <path
         style="fill:#ffc000;fill-opacity:1;stroke:none;stroke-width:0.19254734px;stroke-linecap:butt;stroke-linejoin:miter;stroke-opacity:1"
         d="m -819.83036,501.97689 2.64583,-2.64584 v -5.29167 l -20.63747,-15.3458 v 5.29167 z m -21.16667,-16.40408 V 380.02412 h 4.7625 v 56.78637 c 0,11.52029 8.18082,21.12972 19.05,23.33604 10.86918,-2.20632 19.05,-11.81575 19.05,-23.33604 v -56.78637 h 4.7625 v 105.54869 l -23.8125,23.8125 z"
         id="path986"
         inkscape:connector-curvature="0"
         sodipodi:nodetypes="cccccccccscsccccc" />
      <path
         sodipodi:nodetypes="ccccccccccccc"
         inkscape:connector-curvature="0"
         id="path978"
         d="m -837.822,589.87091 20.63747,15.3458 v 5.29167 l -2.64583,2.64584 -17.99164,-17.99164 z m -3.17503,6.87923 23.8125,23.8125 23.8125,-23.8125 v -49.23878 l -23.8125,23.8125 -23.8125,-23.8125 z"
         style="fill:#ffc000;fill-opacity:1;stroke:none;stroke-width:0.19254734px;stroke-linecap:butt;stroke-linejoin:miter;stroke-opacity:1" />
      <path
         sodipodi:nodetypes="ccccccccccccc"
         inkscape:connector-curvature="0"
         id="path988"
         d="m -837.822,534.28224 20.63747,15.3458 v 5.29167 l -2.64583,2.64584 -17.99164,-17.99164 z m -3.17503,6.87923 23.8125,23.8125 23.8125,-23.8125 v -49.23878 l -23.8125,23.8125 -23.8125,-23.8125 z"
         style="fill:#ffc000;fill-opacity:1;stroke:none;stroke-width:0.19254734px;stroke-linecap:butt;stroke-linejoin:miter;stroke-opacity:1" />
      <path
         style="fill:#ffc000;fill-opacity:1;stroke:none;stroke-width:0.19254734px;stroke-linecap:butt;stroke-linejoin:miter;stroke-opacity:1"
         d="m -837.822,645.45957 20.63747,15.3458 v 5.29167 l -2.64583,2.64584 -17.99164,-17.99164 z m -3.17503,6.87923 23.8125,23.8125 23.8125,-23.8125 v -49.23878 l -23.8125,23.8125 -23.8125,-23.8125 z"
         id="path990"
         inkscape:connector-curvature="0"
         sodipodi:nodetypes="ccccccccccccc" />
      <path
         sodipodi:nodetypes="ccccccc"
         inkscape:connector-curvature="0"
         id="path998"
         d="m -809.24703,445.85915 -7.9375,7.9375 -7.9375,-7.9375 v -31.20799 l 7.9375,-7.9375 7.9375,7.9375 z"
         style="fill:#ffc000;fill-opacity:1;stroke:none;stroke-width:0.06418245px;stroke-linecap:butt;stroke-linejoin:miter;stroke-opacity:1" />
      <path
         id="path1020"
         transform="matrix(0.26458334,0,0,0.26458334,-1064.8345,299.26786)"
         d="m 981,305.2207 v 150.37891 c 7.34562,7.20386 13.45818,15.65285 18,25.01172 V 305.2207 Z"
         style="fill:#ffc000;fill-opacity:1;stroke:none;stroke-width:0.14511704px;stroke-linecap:butt;stroke-linejoin:miter;stroke-opacity:1"
         inkscape:connector-curvature="0" />
      <path
         id="path1026"
         transform="matrix(0.26458334,0,0,0.26458334,-1064.8345,299.26786)"
         d="m 873,305.2207 v 175.39063 c 4.54182,-9.35887 10.65438,-17.80786 18,-25.01172 V 305.2207 Z"
         style="fill:#ffc000;fill-opacity:1;stroke:none;stroke-width:0.14511704px;stroke-linecap:butt;stroke-linejoin:miter;stroke-opacity:1"
         inkscape:connector-curvature="0" />
      <path
         sodipodi:nodetypes="ccccc"
         inkscape:connector-curvature="0"
         id="path1028"
         d="m -819.56578,380.02412 h 4.7625 v 56.30991 h -4.7625 z"
         style="fill:#ffc000;fill-opacity:1;stroke:none;stroke-width:0.03839555px;stroke-linecap:butt;stroke-linejoin:miter;stroke-opacity:1" />
    </g>
  </g>
</svg>
