<?xml version="1.0" encoding="UTF-8" standalone="no"?>
<!-- Created with Inkscape (http://www.inkscape.org/) -->

<svg
   xmlns:dc="http://purl.org/dc/elements/1.1/"
   xmlns:cc="http://creativecommons.org/ns#"
   xmlns:rdf="http://www.w3.org/1999/02/22-rdf-syntax-ns#"
   xmlns:svg="http://www.w3.org/2000/svg"
   xmlns="http://www.w3.org/2000/svg"
   xmlns:sodipodi="http://sodipodi.sourceforge.net/DTD/sodipodi-0.dtd"
   xmlns:inkscape="http://www.inkscape.org/namespaces/inkscape"
   width="2736"
   height="1800"
   viewBox="0 0 723.9 476.25001"
   version="1.1"
   id="svg8"
   inkscape:export-filename="C:\Users\厂永刄先生\Documents\GXI3CW2\JáÈŭcèŭ\Àfúĥŏ\1901.png"
   inkscape:export-xdpi="96"
   inkscape:export-ydpi="96"
   inkscape:version="0.92.4 (5da689c313, 2019-01-14)"
   sodipodi:docname="1901.svg">
  <defs
     id="defs2" />
  <sodipodi:namedview
     id="base"
     pagecolor="#ffffff"
     bordercolor="#666666"
     borderopacity="1.0"
     inkscape:pageopacity="0.0"
     inkscape:pageshadow="2"
     inkscape:zoom="0.30222223"
     inkscape:cx="1368"
     inkscape:cy="900.00001"
     inkscape:document-units="px"
     inkscape:current-layer="layer1"
     showgrid="false"
     units="px"
     fit-margin-top="0"
     fit-margin-left="0"
     fit-margin-right="0"
     fit-margin-bottom="0"
     inkscape:showpageshadow="false"
     inkscape:snap-intersection-paths="true"
     inkscape:object-paths="false"
     inkscape:pagecheckerboard="true"
     inkscape:snap-smooth-nodes="true"
     inkscape:window-width="1366"
     inkscape:window-height="745"
     inkscape:window-x="-8"
     inkscape:window-y="-8"
     inkscape:window-maximized="1"
     inkscape:object-nodes="true"
     inkscape:snap-nodes="true"
     showguides="false" />
  <metadata
     id="metadata5">
    <rdf:RDF>
      <cc:Work
         rdf:about="">
        <dc:format>image/svg+xml</dc:format>
        <dc:type
           rdf:resource="http://purl.org/dc/dcmitype/StillImage" />
        <dc:title />
      </cc:Work>
    </rdf:RDF>
  </metadata>
  <g
     inkscape:label="レイヤー 1"
     inkscape:groupmode="layer"
     id="layer1"
     transform="translate(1064.8345,-299.26786)">
    <path
       sodipodi:nodetypes="ccccc"
       inkscape:connector-curvature="0"
       id="path830"
       d="m -340.9345,775.51786 v -476.25 l -714.375,0 v 476.25 z"
       style="fill:#000000;fill-opacity:1;stroke:none;stroke-width:0.06614583;stroke-linecap:butt;stroke-linejoin:miter;stroke-miterlimit:5.33333349;stroke-dasharray:none;stroke-opacity:1" />
    <g
       id="g1068"
       style="stroke:none;stroke-width:2.3812499;stroke-miterlimit:4;stroke-dasharray:none;stroke-opacity:1" />
    <path
       sodipodi:nodetypes="ccccc"
       inkscape:connector-curvature="0"
       id="path1079"
       d="m -1064.8345,299.26786 h 9.525 v 476.25 h -9.525 z"
       style="fill:#ffffff;fill-opacity:1;stroke:none;stroke-width:0.51166773px;stroke-linecap:butt;stroke-linejoin:miter;stroke-opacity:1" />
    <g
       transform="translate(0,-8.0431669)"
       id="g2032"
       style="fill:#ffffff">
      <g
         style="fill:#ffffff"
         transform="matrix(0.87469291,0,0,0.87469291,-87.479658,64.929091)"
         id="g1932">
        <path
           style="opacity:1;fill:#ffffff;fill-opacity:1;fill-rule:evenodd;stroke:none;stroke-width:0.02757344;stroke-linecap:round;stroke-linejoin:round;stroke-miterlimit:4;stroke-dasharray:none;stroke-dashoffset:0;stroke-opacity:1"
           d="m -698.12201,708.04913 a 11.90625,11.90625 0 0 1 -11.90625,-11.90625 11.90625,11.90625 0 0 1 11.90625,-11.90625 11.90625,11.90625 0 0 1 11.90625,11.90625 11.90625,11.90625 0 0 1 -11.90625,11.90625 z"
           id="path1870"
           inkscape:connector-curvature="0" />
        <g
           style="fill:#ffffff"
           id="g1900">
          <path
             inkscape:connector-curvature="0"
             id="path1872"
             d="m -586.65871,612.48482 c 0,0 14.47458,-26.66784 14.47458,-26.66784 3.39851,-8.41995 18.45025,11.38172 14.5653,19.58859 0,0 -18.71738,29.64264 -18.71738,29.64264 -5.59388,7.1522 -15.48184,-15.09167 -10.3225,-22.56339 0,0 0,0 0,0"
             style="fill:#ffffff;fill-opacity:1;stroke:none;stroke-width:0.02864199;stroke-linecap:butt;stroke-linejoin:miter;stroke-miterlimit:5.33333349;stroke-dasharray:none;stroke-opacity:1" />
          <path
             inkscape:connector-curvature="0"
             style="fill:#ffffff;fill-opacity:1;stroke:none;stroke-width:0.02864199;stroke-linecap:butt;stroke-linejoin:miter;stroke-miterlimit:5.33333349;stroke-dasharray:none;stroke-opacity:1"
             d="m -566.11674,567.77553 c 0,0 3.97994,-30.32185 3.97994,-30.32185 0.15296,-9.07866 20.24842,4.00505 19.56105,13.05895 0,0 -6.82862,34.32518 -6.82862,34.32518 -2.85644,8.61895 -18.84681,-8.23677 -16.71237,-17.06228 0,0 0,0 0,0"
             id="path1874" />
          <path
             inkscape:connector-curvature="0"
             id="path1876"
             d="m -562.9433,518.32871 c 0,0 -7.19798,-29.94509 -7.19798,-29.94509 -3.13839,-8.52033 19.30357,-3.18973 21.93722,5.49989 0,0 5.9222,34.48638 5.9222,34.48638 0.42954,9.06978 -19.46974,-1.03978 -20.66144,-10.04118 0,0 0,0 0,0"
             style="fill:#ffffff;fill-opacity:1;stroke:none;stroke-width:0.02864199;stroke-linecap:butt;stroke-linejoin:miter;stroke-miterlimit:5.33333349;stroke-dasharray:none;stroke-opacity:1" />
          <path
             inkscape:connector-curvature="0"
             style="fill:#ffffff;fill-opacity:1;stroke:none;stroke-width:0.02864199;stroke-linecap:butt;stroke-linejoin:miter;stroke-miterlimit:5.33333349;stroke-dasharray:none;stroke-opacity:1"
             d="m -577.82965,470.63275 c 0,0 -17.60651,-25.58593 -17.60651,-25.58593 -5.98277,-6.83022 16.09576,-9.18736 21.66733,-2.01777 0,0 17.89273,30.07887 17.89273,30.07887 3.6741,8.30341 -17.60573,5.49614 -21.95355,-2.47517 0,0 0,0 0,0"
             id="path1878" />
          <path
             inkscape:connector-curvature="0"
             style="fill:#ffffff;fill-opacity:1;stroke:none;stroke-width:0.02864199;stroke-linecap:butt;stroke-linejoin:miter;stroke-miterlimit:5.33333349;stroke-dasharray:none;stroke-opacity:1"
             d="m -666.02116,665.71986 c 0,0 28.17232,-9.97935 28.17232,-9.97935 8.17379,-3.95407 6.98619,22.75096 -1.40443,26.22125 0,0 -33.74771,9.49608 -33.74771,9.49608 -8.94723,1.54673 -1.86032,-23.66495 6.97982,-25.73798 0,0 0,0 0,0"
             id="path1880" />
          <path
             inkscape:connector-curvature="0"
             id="path1882"
             d="m -621.53955,646.54631 c 0,0 22.88305,-19.55607 22.88305,-19.55607 6.20841,-6.6258 13.90833,18.00976 7.31903,24.25688 0,0 -28.10124,20.96559 -28.10124,20.96559 -7.79482,4.65686 -9.6106,-20.56256 -2.10084,-25.6664 0,0 0,0 0,0"
             style="fill:#ffffff;fill-opacity:1;stroke:none;stroke-width:0.02864199;stroke-linecap:butt;stroke-linejoin:miter;stroke-miterlimit:5.33333349;stroke-dasharray:none;stroke-opacity:1" />
          <path
             inkscape:connector-curvature="0"
             style="fill:#ffffff;fill-opacity:1;stroke:none;stroke-width:0.02864199;stroke-linecap:butt;stroke-linejoin:miter;stroke-miterlimit:5.33333349;stroke-dasharray:none;stroke-opacity:1"
             d="m -549.5531,644.39112 c 0,0 21.79034,-41.40529 21.79034,-41.40529 3.16387,-8.5109 -21.18839,-3.52311 -25.07333,4.68376 0,0 -22.80039,34.80663 -22.80039,34.80663 -5.94153,6.86614 20.9466,9.40214 26.08338,1.9149 0,0 0,0 0,0"
             id="path1884" />
          <path
             inkscape:connector-curvature="0"
             id="path1886"
             d="m -522.09021,583.74168 c 0,0 5.46051,-46.19553 5.46051,-46.19553 -0.0987,-9.07941 -19.98233,4.31316 -20.66971,13.36706 0,0 -8.80477,40.66037 -8.80477,40.66037 -3.0658,8.54673 21.90887,1.00065 24.01397,-7.8319 0,0 0,0 0,0"
             style="fill:#ffffff;fill-opacity:1;stroke:none;stroke-width:0.02864199;stroke-linecap:butt;stroke-linejoin:miter;stroke-miterlimit:5.33333349;stroke-dasharray:none;stroke-opacity:1" />
          <path
             inkscape:connector-curvature="0"
             style="fill:#ffffff;fill-opacity:1;stroke:none;stroke-width:0.02864199;stroke-linecap:butt;stroke-linejoin:miter;stroke-miterlimit:5.33333349;stroke-dasharray:none;stroke-opacity:1"
             d="m -518.17362,518.18619 c 0,0 -11.47799,-45.40152 -11.47799,-45.40152 -3.37329,-8.43009 -16.12203,10.87441 -13.48839,19.56402 0,0 6.35482,41.12325 6.35482,41.12325 0.20543,9.07762 19.60612,-6.26045 18.61156,-15.28575 0,0 0,0 0,0"
             id="path1888" />
          <path
             inkscape:connector-curvature="0"
             id="path1890"
             d="m -537.98733,455.38962 c 0,0 -26.80753,-37.9951 -26.80753,-37.9951 -6.16975,-6.6618 -10.3673,15.21798 -4.79574,22.38758 0,0 20.67245,36.1034 20.67245,36.1034 3.47029,8.39064 15.10987,-12.43481 10.93082,-20.49588 0,0 0,0 0,0"
             style="fill:#ffffff;fill-opacity:1;stroke:none;stroke-width:0.02864199;stroke-linecap:butt;stroke-linejoin:miter;stroke-miterlimit:5.33333349;stroke-dasharray:none;stroke-opacity:1" />
          <path
             inkscape:connector-curvature="0"
             id="path1892"
             d="m -658.96433,718.40741 c 0,0 44.3868,-16.32471 44.3868,-16.32471 8.06107,-4.17906 -14.26273,-18.70141 -22.65336,-15.23112 0,0 -40.23435,10.60111 -40.23435,10.60111 -9.01284,1.1019 9.66725,23.05514 18.50091,20.95472 0,0 0,0 0,0"
             style="fill:#ffffff;fill-opacity:1;stroke:none;stroke-width:0.02864199;stroke-linecap:butt;stroke-linejoin:miter;stroke-miterlimit:5.33333349;stroke-dasharray:none;stroke-opacity:1" />
          <path
             inkscape:connector-curvature="0"
             style="fill:#ffffff;fill-opacity:1;stroke:none;stroke-width:0.02864199;stroke-linecap:butt;stroke-linejoin:miter;stroke-miterlimit:5.33333349;stroke-dasharray:none;stroke-opacity:1"
             d="m -597.25643,691.45413 c 0,0 35.3962,-30.99536 35.3962,-30.99536 6.0224,-6.79531 -19.24729,-11.61872 -25.83659,-5.37159 0,0 -33.75637,24.3178 -33.75637,24.3178 -8.01256,4.27135 16.70389,17.17772 24.19676,12.04915 0,0 0,0 0,0"
             id="path1894" />
          <path
             inkscape:connector-curvature="0"
             id="path1896"
             d="m -595.75,428.465 c -6.15576,-4.95709 -12.71476,-17.33794 -10.47895,-20.50833 2.23582,-3.17041 18.04473,1.19431 23.27519,7.11953 3.78032,4.28243 7.8836,13.20908 3.64287,17.03613 -4.24073,3.82705 -11.99005,-0.0646 -16.43911,-3.64733 0,0 0,0 0,0"
             style="fill:#ffffff;fill-opacity:1;stroke:none;stroke-width:0.02864199;stroke-linecap:butt;stroke-linejoin:miter;stroke-miterlimit:5.33333349;stroke-dasharray:none;stroke-opacity:1" />
          <path
             inkscape:connector-curvature="0"
             style="fill:#ffffff;fill-opacity:1;stroke:none;stroke-width:0.02310242;stroke-linecap:butt;stroke-linejoin:miter;stroke-miterlimit:5.33333349;stroke-dasharray:none;stroke-opacity:1"
             d="m -716.44602,737.55213 c 0,0 14.20136,-20.63743 14.20136,-20.63743 4.8256,-5.5092 -12.98276,-7.41046 -17.47677,-1.62751 0,0 -14.43212,24.26139 -14.43212,24.26139 -2.9635,6.69747 14.20063,4.43315 17.70753,-1.99645 0,0 0,0 0,0"
             id="path1898" />
        </g>
        <g
           style="fill:#ffffff"
           id="g1930">
          <path
             style="fill:#ffffff;fill-opacity:1;stroke:none;stroke-width:0.02864199;stroke-linecap:butt;stroke-linejoin:miter;stroke-miterlimit:5.33333349;stroke-dasharray:none;stroke-opacity:1"
             d="m -809.58524,612.48482 c 0,0 -14.47458,-26.66785 -14.47458,-26.66785 -3.39851,-8.41995 -18.45024,11.38172 -14.5653,19.5886 0,0 18.71738,29.64264 18.71738,29.64264 5.59388,7.15219 15.48184,-15.09167 10.3225,-22.56339 0,0 0,0 0,0"
             id="path1902"
             inkscape:connector-curvature="0" />
          <path
             id="path1904"
             d="m -830.12721,567.77553 c 0,0 -3.97994,-30.32185 -3.97994,-30.32185 -0.15296,-9.07867 -20.24842,4.00504 -19.56104,13.05894 0,0 6.82861,34.32518 6.82861,34.32518 2.85644,8.61895 18.84682,-8.23677 16.71237,-17.06227 0,0 0,0 0,0"
             style="fill:#ffffff;fill-opacity:1;stroke:none;stroke-width:0.02864199;stroke-linecap:butt;stroke-linejoin:miter;stroke-miterlimit:5.33333349;stroke-dasharray:none;stroke-opacity:1"
             inkscape:connector-curvature="0" />
          <path
             style="fill:#ffffff;fill-opacity:1;stroke:none;stroke-width:0.02864199;stroke-linecap:butt;stroke-linejoin:miter;stroke-miterlimit:5.33333349;stroke-dasharray:none;stroke-opacity:1"
             d="m -833.30064,518.32871 c 0,0 7.19798,-29.94509 7.19798,-29.94509 3.13839,-8.52034 -19.30358,-3.18973 -21.93723,5.49988 0,0 -5.92219,34.48639 -5.92219,34.48639 -0.42954,9.06978 19.46973,-1.03978 20.66144,-10.04118 0,0 0,0 0,0"
             id="path1906"
             inkscape:connector-curvature="0" />
          <path
             id="path1908"
             d="m -818.4143,470.63275 c 0,0 17.60651,-25.58593 17.60651,-25.58593 5.98277,-6.83022 -16.09575,-9.18737 -21.66732,-2.01777 0,0 -17.89273,30.07886 -17.89273,30.07886 -3.6741,8.30341 17.60572,5.49615 21.95354,-2.47516 0,0 0,0 0,0"
             style="fill:#ffffff;fill-opacity:1;stroke:none;stroke-width:0.02864199;stroke-linecap:butt;stroke-linejoin:miter;stroke-miterlimit:5.33333349;stroke-dasharray:none;stroke-opacity:1"
             inkscape:connector-curvature="0" />
          <path
             id="path1910"
             d="m -730.22278,665.71985 c 0,0 -28.17233,-9.97935 -28.17233,-9.97935 -8.17379,-3.95406 -6.98619,22.75096 1.40443,26.22126 0,0 33.74771,9.49607 33.74771,9.49607 8.94724,1.54674 1.86032,-23.66494 -6.97981,-25.73798 0,0 0,0 0,0"
             style="fill:#ffffff;fill-opacity:1;stroke:none;stroke-width:0.02864199;stroke-linecap:butt;stroke-linejoin:miter;stroke-miterlimit:5.33333349;stroke-dasharray:none;stroke-opacity:1"
             inkscape:connector-curvature="0" />
          <path
             style="fill:#ffffff;fill-opacity:1;stroke:none;stroke-width:0.02864199;stroke-linecap:butt;stroke-linejoin:miter;stroke-miterlimit:5.33333349;stroke-dasharray:none;stroke-opacity:1"
             d="m -774.70439,646.54631 c 0,0 -22.88306,-19.55607 -22.88306,-19.55607 -6.20841,-6.6258 -13.90832,18.00975 -7.31903,24.25688 0,0 28.10125,20.96559 28.10125,20.96559 7.79482,4.65685 9.61059,-20.56256 2.10084,-25.6664 0,0 0,0 0,0"
             id="path1912"
             inkscape:connector-curvature="0" />
          <path
             id="path1914"
             d="m -846.69084,644.39112 c 0,0 -21.79035,-41.4053 -21.79035,-41.4053 -3.16386,-8.51089 21.18839,-3.52311 25.07334,4.68377 0,0 22.80038,34.80663 22.80038,34.80663 5.94153,6.86613 -20.9466,9.40214 -26.08337,1.9149 0,0 0,0 0,0"
             style="fill:#ffffff;fill-opacity:1;stroke:none;stroke-width:0.02864199;stroke-linecap:butt;stroke-linejoin:miter;stroke-miterlimit:5.33333349;stroke-dasharray:none;stroke-opacity:1"
             inkscape:connector-curvature="0" />
          <path
             style="fill:#ffffff;fill-opacity:1;stroke:none;stroke-width:0.02864199;stroke-linecap:butt;stroke-linejoin:miter;stroke-miterlimit:5.33333349;stroke-dasharray:none;stroke-opacity:1"
             d="m -874.15373,583.74168 c 0,0 -5.46051,-46.19553 -5.46051,-46.19553 0.0987,-9.07942 19.98233,4.31315 20.6697,13.36705 0,0 8.80478,40.66038 8.80478,40.66038 3.06579,8.54672 -21.90887,1.00065 -24.01397,-7.8319 0,0 0,0 0,0"
             id="path1916"
             inkscape:connector-curvature="0" />
          <path
             id="path1918"
             d="m -878.07033,518.18619 c 0,0 11.47799,-45.40152 11.47799,-45.40152 3.37329,-8.4301 16.12204,10.8744 13.48839,19.56401 0,0 -6.35482,41.12325 -6.35482,41.12325 -0.20543,9.07763 -19.60611,-6.26044 -18.61156,-15.28574 0,0 0,0 0,0"
             style="fill:#ffffff;fill-opacity:1;stroke:none;stroke-width:0.02864199;stroke-linecap:butt;stroke-linejoin:miter;stroke-miterlimit:5.33333349;stroke-dasharray:none;stroke-opacity:1"
             inkscape:connector-curvature="0" />
          <path
             style="fill:#ffffff;fill-opacity:1;stroke:none;stroke-width:0.02864199;stroke-linecap:butt;stroke-linejoin:miter;stroke-miterlimit:5.33333349;stroke-dasharray:none;stroke-opacity:1"
             d="m -858.25661,455.38961 c 0,0 26.80753,-37.9951 26.80753,-37.9951 6.16974,-6.6618 10.3673,15.21799 4.79573,22.38759 0,0 -20.67245,36.1034 -20.67245,36.1034 -3.47029,8.39063 -15.10986,-12.43482 -10.93081,-20.49589 0,0 0,0 0,0"
             id="path1920"
             inkscape:connector-curvature="0" />
          <path
             style="fill:#ffffff;fill-opacity:1;stroke:none;stroke-width:0.02864199;stroke-linecap:butt;stroke-linejoin:miter;stroke-miterlimit:5.33333349;stroke-dasharray:none;stroke-opacity:1"
             d="m -737.27961,718.40741 c 0,0 -44.3868,-16.32472 -44.3868,-16.32472 -8.06108,-4.17905 14.26272,-18.7014 22.65335,-15.23112 0,0 40.23436,10.60112 40.23436,10.60112 9.01284,1.1019 -9.66726,23.05513 -18.50091,20.95472 0,0 0,0 0,0"
             id="path1922"
             inkscape:connector-curvature="0" />
          <path
             id="path1924"
             d="m -798.98751,691.45412 c 0,0 -35.39621,-30.99536 -35.39621,-30.99536 -6.0224,-6.7953 19.2473,-11.61871 25.8366,-5.37159 0,0 33.75636,24.31781 33.75636,24.31781 8.01257,4.27135 -16.70389,17.17772 -24.19675,12.04914 0,0 0,0 0,0"
             style="fill:#ffffff;fill-opacity:1;stroke:none;stroke-width:0.02864199;stroke-linecap:butt;stroke-linejoin:miter;stroke-miterlimit:5.33333349;stroke-dasharray:none;stroke-opacity:1"
             inkscape:connector-curvature="0" />
          <path
             style="fill:#ffffff;fill-opacity:1;stroke:none;stroke-width:0.02864199;stroke-linecap:butt;stroke-linejoin:miter;stroke-miterlimit:5.33333349;stroke-dasharray:none;stroke-opacity:1"
             d="m -800.49395,428.46499 c 6.15576,-4.95709 12.71477,-17.33793 10.47895,-20.50832 -2.23581,-3.17041 -18.04473,1.1943 -23.27519,7.11952 -3.78031,4.28244 -7.8836,13.20909 -3.64287,17.03613 4.24073,3.82706 11.99005,-0.0646 16.43911,-3.64733 0,0 0,0 0,0"
             id="path1926"
             inkscape:connector-curvature="0" />
          <path
             id="path1928"
             d="m -679.79797,737.55213 c 0,0 -14.20136,-20.63743 -14.20136,-20.63743 -4.8256,-5.5092 12.98276,-7.41046 17.47677,-1.62751 0,0 14.43212,24.26139 14.43212,24.26139 2.9635,6.69747 -14.20063,4.43315 -17.70753,-1.99645 0,0 0,0 0,0"
             style="fill:#ffffff;fill-opacity:1;stroke:none;stroke-width:0.02310242;stroke-linecap:butt;stroke-linejoin:miter;stroke-miterlimit:5.33333349;stroke-dasharray:none;stroke-opacity:1"
             inkscape:connector-curvature="0" />
        </g>
      </g>
      <g
         style="fill:#ffffff"
         transform="matrix(0.9122158,0,0,0.9122158,-61.284081,56.069098)"
         id="g1972">
        <g
           id="g1942"
           transform="rotate(-37.959796,-649.06714,570.95787)"
           style="fill:#ffffff;fill-opacity:1;stroke:none">
          <path
             sodipodi:nodetypes="sssss"
             inkscape:connector-curvature="0"
             id="path1934"
             d="m -761.49384,555.67761 c 0,2.19188 -1.77687,3.96875 -3.96875,3.96875 -2.19188,0 -3.96875,-1.77687 -3.96875,-3.96875 0,-2.19188 1.77687,-3.96875 3.96875,-3.96875 2.19188,0 3.96875,1.77687 3.96875,3.96875 z"
             style="opacity:1;fill:#ffffff;fill-opacity:1;fill-rule:evenodd;stroke:none;stroke-width:0.2156509;stroke-linecap:round;stroke-linejoin:round;stroke-miterlimit:4;stroke-dasharray:none;stroke-dashoffset:0;stroke-opacity:1" />
          <path
             sodipodi:nodetypes="cscc"
             inkscape:connector-curvature="0"
             id="path1936"
             d="m -747.22336,567.58386 c -6.57564,0 -11.90625,-5.33061 -11.90625,-11.90625 0,-6.57564 5.33061,-11.90625 11.90625,-11.90625 z"
             style="opacity:1;fill:#ffffff;fill-opacity:1;fill-rule:evenodd;stroke:none;stroke-width:0.64695269;stroke-linecap:round;stroke-linejoin:round;stroke-miterlimit:4;stroke-dasharray:none;stroke-dashoffset:0;stroke-opacity:1" />
          <path
             sodipodi:nodetypes="ccccc"
             inkscape:connector-curvature="0"
             id="path1938"
             d="m -736.92163,542.18386 h -7.9375 v 26.9875 h 7.9375 z"
             style="opacity:1;fill:#ffffff;fill-opacity:1;fill-rule:evenodd;stroke:none;stroke-width:0.64695269;stroke-linecap:round;stroke-linejoin:round;stroke-miterlimit:4;stroke-dasharray:none;stroke-dashoffset:0;stroke-opacity:1" />
          <path
             inkscape:connector-curvature="0"
             style="opacity:1;fill:#ffffff;fill-opacity:1;fill-rule:evenodd;stroke:none;stroke-width:2.44517541;stroke-linecap:round;stroke-linejoin:round;stroke-miterlimit:4;stroke-dasharray:none;stroke-dashoffset:0;stroke-opacity:1"
             d="m 1487.0137,972.52148 -95.9532,70.69142 66.8536,49.25 74.6171,-61.5977 z m -173.1348,127.55082 -60.4336,44.5234 55.3594,70.959 72.4844,-59.8359 z"
             transform="matrix(0.20860876,0.16274743,-0.16274743,0.20860876,-809.75702,101.00391)"
             id="path1940" />
        </g>
        <path
           style="fill:#ffffff;stroke:#000000;stroke-width:0.26458335px;stroke-linecap:butt;stroke-linejoin:miter;stroke-opacity:1"
           d="M -747.1138,566.5445 Z"
           id="path1944"
           inkscape:connector-curvature="0" />
        <g
           transform="rotate(37.959796,-772.99831,534.43612)"
           style="fill:#ffffff;fill-opacity:1;stroke:none"
           id="g1952">
          <path
             style="fill:#ffffff;fill-opacity:1;stroke:none;stroke-width:0.26458335px;stroke-linecap:butt;stroke-linejoin:miter;stroke-opacity:1"
             d="m -741.82213,566.5445 c 0,1.76389 -5.29167,1.76389 -5.29167,0 v -5.29166 c 0,-2.49452 2.79715,-5.29167 5.29167,-5.29167 h 21.16666 v 5.29167 l -21.16666,-10e-6 z"
             id="path1946"
             inkscape:connector-curvature="0"
             sodipodi:nodetypes="sssscccs" />
          <path
             sodipodi:nodetypes="csssccssscc"
             inkscape:connector-curvature="0"
             id="path1948"
             d="m -719.59712,553.31532 h -2.11667 c -1.76389,0 -1.76389,-5.29167 0,-5.29167 h 2.11666 c 2.49452,0 5.29167,2.79715 5.29167,5.29167 l -2e-5,10.58337 h 2.11667 c 1.76389,0 1.76389,5.29167 0,5.29167 h -2.11666 c -2.49452,0 -5.29167,-2.79715 -5.29167,-5.29167 z"
             style="fill:#ffffff;fill-opacity:1;stroke:none;stroke-width:0.26458335px;stroke-linecap:butt;stroke-linejoin:miter;stroke-opacity:1" />
          <path
             inkscape:connector-curvature="0"
             style="fill:#ffffff;fill-opacity:1;stroke:none;stroke-width:1px;stroke-linecap:butt;stroke-linejoin:miter;stroke-opacity:1"
             d="m 1231.0156,1091.8789 -12.3008,15.7695 36.3086,28.3262 16.7227,-12.3184 z m 122.3282,94.6856 -16.043,13.2441 c 7.4832,5.2986 17.1416,11.6735 27.916,18.4922 5.0899,-3.6614 10.3429,-7.4646 15.6894,-11.3555 -8.9463,-6.544 -18.1625,-13.3493 -27.5624,-20.3808 z m 53.2148,38.9648 c -4.7596,2.9885 -9.7006,6.0348 -14.7598,9.1152 43.945,26.3364 92.8038,52.4219 96.4395,47.7617 0,1e-4 -34.3627,-22.9211 -81.6797,-56.8769 z"
             transform="matrix(0.20860876,-0.16274743,0.16274743,0.20860876,-1147.7484,528.53034)"
             id="path1950" />
        </g>
        <g
           id="g1960"
           style="fill:#ffffff;fill-opacity:1;stroke:none"
           transform="matrix(-0.78844257,0.61510838,0.61510838,0.78844257,-1561.4466,588.54167)">
          <path
             sodipodi:nodetypes="sssscccs"
             inkscape:connector-curvature="0"
             id="path1954"
             d="m -741.82213,566.5445 c 0,1.76389 -5.29167,1.76389 -5.29167,0 v -5.29166 c 0,-2.49452 2.79715,-5.29167 5.29167,-5.29167 h 21.16666 v 5.29167 l -21.16666,-10e-6 z"
             style="fill:#ffffff;fill-opacity:1;stroke:none;stroke-width:0.26458335px;stroke-linecap:butt;stroke-linejoin:miter;stroke-opacity:1" />
          <path
             style="fill:#ffffff;fill-opacity:1;stroke:none;stroke-width:0.26458335px;stroke-linecap:butt;stroke-linejoin:miter;stroke-opacity:1"
             d="m -719.59712,553.31532 h -2.11667 c -1.76389,0 -1.76389,-5.29167 0,-5.29167 h 2.11666 c 2.49452,0 5.29167,2.79715 5.29167,5.29167 l -2e-5,10.58337 h 2.11667 c 1.76389,0 1.76389,5.29167 0,5.29167 h -2.11666 c -2.49452,0 -5.29167,-2.79715 -5.29167,-5.29167 z"
             id="path1956"
             inkscape:connector-curvature="0"
             sodipodi:nodetypes="csssccssscc" />
          <path
             inkscape:connector-curvature="0"
             style="fill:#ffffff;fill-opacity:1;stroke:none;stroke-width:1px;stroke-linecap:butt;stroke-linejoin:miter;stroke-opacity:1"
             d="m 1540.9844,1091.8789 -40.7305,31.7773 16.7227,12.3184 36.3086,-28.3262 z m -122.3282,94.6856 c -72.4965,54.2304 -134.8945,95.8418 -134.8945,95.8417 5.3877,6.9059 110.1229,-53.6981 150.9375,-82.5976 z"
             transform="matrix(-0.20860876,0.16274743,0.16274743,0.20860876,-569.48486,77.394478)"
             id="path1958" />
        </g>
        <g
           style="fill:#ffffff;fill-opacity:1;stroke:none"
           transform="matrix(-0.78844256,-0.61510838,-0.61510838,0.78844256,-907.72804,-278.45626)"
           id="g1970">
          <path
             style="opacity:1;fill:#ffffff;fill-opacity:1;fill-rule:evenodd;stroke:none;stroke-width:0.2156509;stroke-linecap:round;stroke-linejoin:round;stroke-miterlimit:4;stroke-dasharray:none;stroke-dashoffset:0;stroke-opacity:1"
             d="m -761.49384,555.67761 c 0,2.19188 -1.77687,3.96875 -3.96875,3.96875 -2.19188,0 -3.96875,-1.77687 -3.96875,-3.96875 0,-2.19188 1.77687,-3.96875 3.96875,-3.96875 2.19188,0 3.96875,1.77687 3.96875,3.96875 z"
             id="path1962"
             inkscape:connector-curvature="0"
             sodipodi:nodetypes="sssss" />
          <path
             style="opacity:1;fill:#ffffff;fill-opacity:1;fill-rule:evenodd;stroke:none;stroke-width:0.64695269;stroke-linecap:round;stroke-linejoin:round;stroke-miterlimit:4;stroke-dasharray:none;stroke-dashoffset:0;stroke-opacity:1"
             d="m -747.22336,567.58386 c -6.57564,0 -11.90625,-5.33061 -11.90625,-11.90625 0,-6.57564 5.33061,-11.90625 11.90625,-11.90625 z"
             id="path1964"
             inkscape:connector-curvature="0"
             sodipodi:nodetypes="cscc" />
          <path
             style="opacity:1;fill:#ffffff;fill-opacity:1;fill-rule:evenodd;stroke:none;stroke-width:0.64695269;stroke-linecap:round;stroke-linejoin:round;stroke-miterlimit:4;stroke-dasharray:none;stroke-dashoffset:0;stroke-opacity:1"
             d="m -736.92163,542.18386 h -7.9375 v 26.9875 h 7.9375 z"
             id="path1966"
             inkscape:connector-curvature="0"
             sodipodi:nodetypes="ccccc" />
          <path
             sodipodi:nodetypes="ccccc"
             inkscape:connector-curvature="0"
             id="path1968"
             d="m -657.82824,545.88803 -76.72916,-2.11667 v 23.8125 l 76.72916,-2.11667 z"
             style="opacity:1;fill:#ffffff;fill-opacity:1;fill-rule:evenodd;stroke:none;stroke-width:0.64695269;stroke-linecap:round;stroke-linejoin:round;stroke-miterlimit:4;stroke-dasharray:none;stroke-dashoffset:0;stroke-opacity:1" />
        </g>
      </g>
      <path
         sodipodi:nodetypes="csscc"
         inkscape:connector-curvature="0"
         id="path1974"
         d="m -769.08504,561.20536 c 0,0 0.0229,-15.875 10.58333,-15.875 h 120.75944 c 10.60544,0 10.58333,15.875 10.58333,15.875 z"
         style="fill:#ffffff;fill-opacity:1;stroke:none;stroke-width:0.26458335px;stroke-linecap:butt;stroke-linejoin:miter;stroke-opacity:1" />
      <path
         style="fill:#ffffff;fill-opacity:1;stroke:none;stroke-width:0.46302146px;stroke-linecap:butt;stroke-linejoin:miter;stroke-opacity:1"
         d="m -758.50171,543.74285 c 0,0 0.5296,-9.26042 9.26042,-9.26042 h 10.37798 c 8.73082,0 9.26044,9.26042 9.26044,9.26042 z"
         id="path1976"
         inkscape:connector-curvature="0"
         sodipodi:nodetypes="csscc" />
      <path
         sodipodi:nodetypes="ccccc"
         inkscape:connector-curvature="0"
         id="path1978"
         d="m -749.24129,493.73659 v 37.04166 h 10.37798 v -37.04166 z"
         style="fill:#ffffff;fill-opacity:1;stroke:none;stroke-width:0.26458335px;stroke-linecap:butt;stroke-linejoin:miter;stroke-opacity:1" />
      <path
         style="fill:#ffffff;fill-opacity:1;stroke:none;stroke-width:0.26458335px;stroke-linecap:butt;stroke-linejoin:miter;stroke-opacity:1"
         d="m -749.24129,492.67826 c -0.37419,0 -0.79381,-0.41956 -0.79381,-0.79375 0,-0.37419 0.41962,-0.79375 0.79381,-0.79375 h 10.37798 c 0.37417,0 0.79373,0.41958 0.79373,0.79375 0,0.37417 -0.41956,0.79375 -0.79373,0.79375 z"
         id="path1980"
         inkscape:connector-curvature="0"
         sodipodi:nodetypes="szsszss" />
      <path
         sodipodi:nodetypes="szsszss"
         inkscape:connector-curvature="0"
         id="path1982"
         d="m -749.24129,533.42409 c -0.37419,0 -0.79381,-0.41956 -0.79381,-0.79375 0,-0.37419 0.41962,-0.79375 0.79381,-0.79375 h 10.37798 c 0.37417,0 0.79373,0.41958 0.79373,0.79375 0,0.37417 -0.41956,0.79375 -0.79373,0.79375 z"
         style="fill:#ffffff;fill-opacity:1;stroke:none;stroke-width:0.26458335px;stroke-linecap:butt;stroke-linejoin:miter;stroke-opacity:1" />
      <path
         style="fill:#ffffff;fill-opacity:1;stroke:none;stroke-width:0.26458335px;stroke-linecap:butt;stroke-linejoin:miter;stroke-opacity:1"
         d="m -749.24129,452.99077 v 37.04166 h 10.37798 v -37.04166 z"
         id="path1984"
         inkscape:connector-curvature="0"
         sodipodi:nodetypes="ccccc" />
      <path
         sodipodi:nodetypes="csscc"
         inkscape:connector-curvature="0"
         id="path1986"
         d="m -637.74229,543.74285 c 0,0 -0.5296,-9.26042 -9.26042,-9.26042 h -10.37798 c -8.73082,0 -9.26044,9.26042 -9.26044,9.26042 z"
         style="fill:#ffffff;fill-opacity:1;stroke:none;stroke-width:0.46302146px;stroke-linecap:butt;stroke-linejoin:miter;stroke-opacity:1" />
      <path
         style="fill:#ffffff;fill-opacity:1;stroke:none;stroke-width:0.26458335px;stroke-linecap:butt;stroke-linejoin:miter;stroke-opacity:1"
         d="m -647.00271,493.73659 v 37.04166 h -10.37798 v -37.04166 z"
         id="path1988"
         inkscape:connector-curvature="0"
         sodipodi:nodetypes="ccccc" />
      <path
         sodipodi:nodetypes="szsszss"
         inkscape:connector-curvature="0"
         id="path1990"
         d="m -647.00271,492.67826 c 0.37419,0 0.79381,-0.41956 0.79381,-0.79375 0,-0.37419 -0.41962,-0.79375 -0.79381,-0.79375 h -10.37798 c -0.37417,0 -0.79373,0.41958 -0.79373,0.79375 0,0.37417 0.41956,0.79375 0.79373,0.79375 z"
         style="fill:#ffffff;fill-opacity:1;stroke:none;stroke-width:0.26458335px;stroke-linecap:butt;stroke-linejoin:miter;stroke-opacity:1" />
      <path
         style="fill:#ffffff;fill-opacity:1;stroke:none;stroke-width:0.26458335px;stroke-linecap:butt;stroke-linejoin:miter;stroke-opacity:1"
         d="m -647.00271,533.42409 c 0.37419,0 0.79381,-0.41956 0.79381,-0.79375 0,-0.37419 -0.41962,-0.79375 -0.79381,-0.79375 h -10.37798 c -0.37417,0 -0.79373,0.41958 -0.79373,0.79375 0,0.37417 0.41956,0.79375 0.79373,0.79375 z"
         id="path1992"
         inkscape:connector-curvature="0"
         sodipodi:nodetypes="szsszss" />
      <path
         sodipodi:nodetypes="ccccc"
         inkscape:connector-curvature="0"
         id="path1994"
         d="m -647.00271,452.99077 v 37.04166 h -10.37798 v -37.04166 z"
         style="fill:#ffffff;fill-opacity:1;stroke:none;stroke-width:0.26458335px;stroke-linecap:butt;stroke-linejoin:miter;stroke-opacity:1" />
      <path
         style="fill:#ffffff;fill-opacity:1;stroke:none;stroke-width:0.26458335px;stroke-linecap:butt;stroke-linejoin:miter;stroke-opacity:1"
         d="m -769.08504,435.52827 c 0,0 9.28332,15.875 19.84375,15.875 h 102.23858 c 10.60544,0 19.84377,-15.875 19.84377,-15.875 z"
         id="path1996"
         inkscape:connector-curvature="0"
         sodipodi:nodetypes="csscc" />
      <path
         sodipodi:nodetypes="csscc"
         inkscape:connector-curvature="0"
         id="path1998"
         d="m -758.50171,422.0345 c 0,0 0.5296,9.26042 9.26042,9.26042 h 10.37798 c 8.73082,0 9.26044,-9.26042 9.26044,-9.26042 z"
         style="fill:#ffffff;fill-opacity:1;stroke:none;stroke-width:0.46302146px;stroke-linecap:butt;stroke-linejoin:miter;stroke-opacity:1" />
      <path
         style="fill:#ffffff;fill-opacity:1;stroke:none;stroke-width:0.26458335px;stroke-linecap:butt;stroke-linejoin:miter;stroke-opacity:1"
         d="m -749.24129,432.35326 c -0.37419,0 -0.79381,0.41956 -0.79381,0.79375 0,0.37419 0.41962,0.79375 0.79381,0.79375 h 10.37798 c 0.37417,0 0.79373,-0.41958 0.79373,-0.79375 0,-0.37417 -0.41956,-0.79375 -0.79373,-0.79375 z"
         id="path2000"
         inkscape:connector-curvature="0"
         sodipodi:nodetypes="szsszss" />
      <path
         style="fill:#ffffff;fill-opacity:1;stroke:none;stroke-width:0.46302146px;stroke-linecap:butt;stroke-linejoin:miter;stroke-opacity:1"
         d="m -749.24129,420.97616 c -7.26448,0 5.18899,-21.16667 5.18899,-21.16667 0,0 12.45347,21.16667 5.18899,21.16667 z"
         id="path2002"
         inkscape:connector-curvature="0"
         sodipodi:nodetypes="scss" />
      <path
         style="fill:#ffffff;fill-opacity:1;stroke:none;stroke-width:0.46302146px;stroke-linecap:butt;stroke-linejoin:miter;stroke-opacity:1"
         d="m -637.74229,422.0345 c 0,0 -0.5296,9.26042 -9.26042,9.26042 h -10.37798 c -8.73082,0 -9.26044,-9.26042 -9.26044,-9.26042 z"
         id="path2004"
         inkscape:connector-curvature="0"
         sodipodi:nodetypes="csscc" />
      <path
         sodipodi:nodetypes="szsszss"
         inkscape:connector-curvature="0"
         id="path2006"
         d="m -647.00271,432.35326 c 0.37419,0 0.79381,0.41956 0.79381,0.79375 0,0.37419 -0.41962,0.79375 -0.79381,0.79375 h -10.37798 c -0.37417,0 -0.79373,-0.41958 -0.79373,-0.79375 0,-0.37417 0.41956,-0.79375 0.79373,-0.79375 z"
         style="fill:#ffffff;fill-opacity:1;stroke:none;stroke-width:0.26458335px;stroke-linecap:butt;stroke-linejoin:miter;stroke-opacity:1" />
      <path
         sodipodi:nodetypes="scss"
         inkscape:connector-curvature="0"
         id="path2008"
         d="m -647.00271,420.97616 c 7.26448,0 -5.18899,-21.16667 -5.18899,-21.16667 0,0 -12.45347,21.16667 -5.18899,21.16667 z"
         style="fill:#ffffff;fill-opacity:1;stroke:none;stroke-width:0.46302146px;stroke-linecap:butt;stroke-linejoin:miter;stroke-opacity:1" />
      <path
         sodipodi:nodetypes="zcczccz"
         inkscape:connector-curvature="0"
         id="path2010"
         transform="matrix(0.26458334,0,0,0.26458334,-1064.8345,299.26786)"
         d="m 1386,581 c -57.1243,0.0329 -111.3282,25.43911 -147.9824,69.28125 v 21.53125 c 33.6045,-48.58414 88.8837,-77.63627 147.9824,-77.60547 59.0987,0.0308 114.4385,29.18977 147.9824,77.87695 V 650.01562 C 1497.2775,606.27256 1443.1243,580.96708 1386,581 Z"
         style="opacity:1;fill:#ffffff;fill-opacity:1;fill-rule:evenodd;stroke:none;stroke-width:13.60720444;stroke-linecap:round;stroke-linejoin:round;stroke-miterlimit:4;stroke-dasharray:none;stroke-dashoffset:0;stroke-opacity:1" />
      <path
         sodipodi:nodetypes="cccccccc"
         inkscape:connector-curvature="0"
         id="path2012"
         transform="matrix(0.26458334,0,0,0.26458334,-1064.8345,299.26786)"
         d="m 1533.9824,581 v 44.41797 C 1515.0846,606.56731 1492.7663,591.49222 1468.2227,581 Z m -229.7129,0 c -24.7141,10.41998 -47.2033,25.47779 -66.2519,44.35938 V 581 Z"
         style="opacity:1;fill:#ffffff;fill-opacity:1;fill-rule:evenodd;stroke:none;stroke-width:14.78990364;stroke-linecap:round;stroke-linejoin:round;stroke-miterlimit:4;stroke-dasharray:none;stroke-dashoffset:0;stroke-opacity:1" />
      <path
         sodipodi:nodetypes="ccccc"
         inkscape:connector-curvature="0"
         id="path2014"
         d="m -785.22462,458.81159 -2.11667,3.70417 37.04167,26.45833 v -5.21608 z"
         style="fill:#ffffff;fill-opacity:1;stroke:none;stroke-width:0.26458335px;stroke-linecap:butt;stroke-linejoin:miter;stroke-opacity:1" />
      <path
         sodipodi:nodetypes="ccccccsscc"
         inkscape:connector-curvature="0"
         id="path2016"
         transform="matrix(0.26458334,0,0,0.26458334,-1064.8345,299.26786)"
         d="m 1048.793,623 v 94.18359 l 63.0371,45.02735 38.5,-66.68555 z m 0,119.875 v 111.76562 c 0,7.76712 5.4711,7.27783 6.873,4.84961 l 44.5078,-77.08984 z"
         style="fill:#ffffff;fill-opacity:1;stroke:none;stroke-width:1px;stroke-linecap:butt;stroke-linejoin:miter;stroke-opacity:1" />
      <path
         sodipodi:nodetypes="csssccccc"
         inkscape:connector-curvature="0"
         id="path2018"
         d="m -795.49855,487.78839 -7.42501,-5.445 c -0.16708,-0.12253 -0.46271,0.40142 -0.30839,0.53969 l 9.04918,8.10803 c 0.78165,0.70035 3.14849,-0.014 3.14849,-0.014 l 40.73466,31.33444 v -4.87927 l -44.1272,-31.51942 z"
         style="fill:#ffffff;fill-opacity:1;stroke:none;stroke-width:0.24750042px;stroke-linecap:butt;stroke-linejoin:miter;stroke-opacity:1" />
      <path
         sodipodi:nodetypes="cszscc"
         inkscape:connector-curvature="0"
         id="path2020"
         d="m -734.68921,391.60743 c 0,0 9.28332,42.33333 19.84375,42.33333 0,0 8.36328,-1.5875 16.72346,-1.5875 8.36018,0 16.72346,1.5875 16.72346,1.5875 10.60544,0 19.84377,-42.33333 19.84377,-42.33333 z"
         style="fill:#ffffff;fill-opacity:1;stroke:none;stroke-width:0.26458335px;stroke-linecap:butt;stroke-linejoin:miter;stroke-opacity:1" />
      <path
         style="fill:#ffffff;fill-opacity:1;stroke:none;stroke-width:0.26458335px;stroke-linecap:butt;stroke-linejoin:miter;stroke-opacity:1"
         d="m -611.01938,458.81159 2.11667,3.70417 -37.04167,26.45833 v -5.21608 z"
         id="path2022"
         inkscape:connector-curvature="0"
         sodipodi:nodetypes="ccccc" />
      <path
         style="fill:#ffffff;fill-opacity:1;stroke:none;stroke-width:0.26458335px;stroke-linecap:butt;stroke-linejoin:miter;stroke-opacity:1"
         d="m -608.90265,464.10328 v 24.91941 l -16.67857,11.91349 -10.18646,-17.64389 z m 0,31.71693 v 29.57132 c 0,2.05505 -1.44757,1.92559 -1.81849,1.28313 l -11.77602,-20.39669 z"
         id="path2024"
         inkscape:connector-curvature="0"
         sodipodi:nodetypes="ccccccsscc" />
      <path
         style="fill:#ffffff;fill-opacity:1;stroke:none;stroke-width:0.24750042px;stroke-linecap:butt;stroke-linejoin:miter;stroke-opacity:1"
         d="m -600.74545,487.78839 7.42501,-5.445 c 0.16708,-0.12253 0.46271,0.40142 0.30839,0.53969 l -9.04918,8.10803 c -0.78165,0.70035 -3.14849,-0.014 -3.14849,-0.014 l -40.73466,31.33444 v -4.87927 l 44.1272,-31.51942 z"
         id="path2026"
         inkscape:connector-curvature="0"
         sodipodi:nodetypes="csssccccc" />
      <path
         style="fill:#ffffff;fill-opacity:1;stroke:none;stroke-width:0.46302146px;stroke-linecap:butt;stroke-linejoin:miter;stroke-opacity:1"
         d="m -691.83589,542.17347 h 22.04619 v -21.23364 c 0,0 -0.62706,-8.25152 -6.66401,-8.25152 h -7.13065 c -6.171,0 -6.66403,8.25152 -6.66403,8.25152 z m -6.35,-30.97439 c 0,0 0.52962,-9.26042 9.26044,-9.26042 h 11.43631 c 8.73082,0 9.26042,9.26042 9.26042,9.26042 v 31.75002 c 0,0.37417 -0.41956,0.79375 -0.79373,0.79375 h -58.1991 c -0.37419,0 -0.79381,-0.41956 -0.79381,-0.79375 0,-0.37419 0.41962,-0.79375 0.79381,-0.79375 h 26.38983 z"
         id="path2028"
         inkscape:connector-curvature="0"
         sodipodi:nodetypes="cccsscccsscssszscc" />
      <path
         style="fill:#ffffff;fill-opacity:1;stroke:none;stroke-width:0.30943218px;stroke-linecap:butt;stroke-linejoin:miter;stroke-opacity:1"
         d="m -711.41506,541.09702 v -37.83544 c 0,-2.64583 7.9375,-2.64583 7.9375,0 v 7.9375 h 3.70417 l -2.11666,29.89794 z"
         id="path2030"
         inkscape:connector-curvature="0"
         sodipodi:nodetypes="csscccc" />
    </g>
  </g>
</svg>
