<?xml version="1.0" encoding="UTF-8" standalone="no"?>
<!-- Created with Inkscape (http://www.inkscape.org/) -->

<svg
   xmlns:dc="http://purl.org/dc/elements/1.1/"
   xmlns:cc="http://creativecommons.org/ns#"
   xmlns:rdf="http://www.w3.org/1999/02/22-rdf-syntax-ns#"
   xmlns:svg="http://www.w3.org/2000/svg"
   xmlns="http://www.w3.org/2000/svg"
   xmlns:sodipodi="http://sodipodi.sourceforge.net/DTD/sodipodi-0.dtd"
   xmlns:inkscape="http://www.inkscape.org/namespaces/inkscape"
   width="3636"
   height="1800"
   viewBox="0 0 962.025 476.25001"
   version="1.1"
   id="svg8"
   inkscape:export-filename="C:\Users\厂永刄先生\Documents\GXI3CW2\JáÈŭcèŭ\Èŭmen\Í\意軍.png"
   inkscape:export-xdpi="96"
   inkscape:export-ydpi="96"
   inkscape:version="0.92.4 (5da689c313, 2019-01-14)"
   sodipodi:docname="KA1-K'OQ1CXYN1.svg">
  <defs
     id="defs2" />
  <sodipodi:namedview
     id="base"
     pagecolor="#ffffff"
     bordercolor="#666666"
     borderopacity="1.0"
     inkscape:pageopacity="0.0"
     inkscape:pageshadow="2"
     inkscape:zoom="0.078738448"
     inkscape:cx="1818"
     inkscape:cy="900.00001"
     inkscape:document-units="px"
     inkscape:current-layer="layer1"
     showgrid="false"
     units="px"
     fit-margin-top="0"
     fit-margin-left="0"
     fit-margin-right="0"
     fit-margin-bottom="0"
     inkscape:showpageshadow="false"
     inkscape:snap-intersection-paths="false"
     inkscape:object-paths="false"
     inkscape:pagecheckerboard="true"
     inkscape:snap-smooth-nodes="false"
     inkscape:window-width="710"
     inkscape:window-height="437"
     inkscape:window-x="148"
     inkscape:window-y="304"
     inkscape:window-maximized="0"
     inkscape:object-nodes="true"
     inkscape:snap-nodes="true" />
  <metadata
     id="metadata5">
    <rdf:RDF>
      <cc:Work
         rdf:about="">
        <dc:format>image/svg+xml</dc:format>
        <dc:type
           rdf:resource="http://purl.org/dc/dcmitype/StillImage" />
        <dc:title />
      </cc:Work>
    </rdf:RDF>
  </metadata>
  <g
     inkscape:label="レイヤー 1"
     inkscape:groupmode="layer"
     id="layer1"
     transform="translate(112.33452,-299.26786)">
    <path
       style="fill:#ffffff;fill-opacity:1;stroke:none;stroke-width:1.27916932px;stroke-linecap:butt;stroke-linejoin:miter;stroke-opacity:1"
       d="M 254.37798,299.26786 H 16.252983 V 537.39287 H 254.37798 Z"
       id="path882"
       inkscape:connector-curvature="0"
       sodipodi:nodetypes="ccccc" />
    <path
       style="fill:#ffffff;fill-opacity:1;stroke:none;stroke-width:0.51166773px;stroke-linecap:butt;stroke-linejoin:miter;stroke-opacity:1"
       d="m -102.80952,299.26786 h -9.525 v 476.25 h 9.525 z"
       id="path1079"
       inkscape:connector-curvature="0"
       sodipodi:nodetypes="ccccc" />
    <path
       sodipodi:nodetypes="ccccccc"
       inkscape:connector-curvature="0"
       id="path884"
       d="M 849.69047,299.26786 H 373.44048 v 238.12501 h -476.25 v 238.12499 h 952.49999 z"
       style="fill:#5d8aa8;fill-opacity:1;stroke:none;stroke-width:2.55833864px;stroke-linecap:butt;stroke-linejoin:miter;stroke-opacity:1" />
    <circle
       r="178.59375"
       cy="537.39288"
       cx="611.56549"
       id="path834"
       style="opacity:1;fill:#343f62;fill-opacity:1;fill-rule:evenodd;stroke:none;stroke-width:1.04833388;stroke-linecap:round;stroke-linejoin:round;stroke-miterlimit:4;stroke-dasharray:none;stroke-dashoffset:0;stroke-opacity:1" />
    <path
       inkscape:connector-curvature="0"
       id="path832"
       d="M 373.44049,299.26786 H 849.69048"
       style="fill:none;stroke:#000000;stroke-width:0.26458335px;stroke-linecap:butt;stroke-linejoin:miter;stroke-opacity:1" />
    <path
       style="fill:#da291c;fill-opacity:1;stroke:none;stroke-width:1.27916932px;stroke-linecap:butt;stroke-linejoin:miter;stroke-opacity:1"
       d="m 373.44048,299.26786 h -119.0625 v 238.12501 h 119.0625 z"
       id="path818"
       inkscape:connector-curvature="0"
       sodipodi:nodetypes="ccccc" />
    <path
       sodipodi:nodetypes="ccccc"
       inkscape:connector-curvature="0"
       id="path880"
       d="M 16.252983,299.26786 H -102.80952 V 537.39287 H 16.252983 Z"
       style="fill:#da291c;fill-opacity:1;stroke:none;stroke-width:1.27916932px;stroke-linecap:butt;stroke-linejoin:miter;stroke-opacity:1" />
    <path
       style="fill:#da291c;fill-opacity:1;stroke:none;stroke-width:0.24804686;stroke-linecap:butt;stroke-linejoin:miter;stroke-miterlimit:4;stroke-dasharray:none;stroke-opacity:1"
       d="m 139.78033,519.0374 -2.24358,-42.80842 c -0.1287,-2.45559 3.10339,-5.31501 5.52499,-4.88802 l 42.60726,7.51285 -5.77825,-15.87526 c -0.4267,-1.17231 0.0314,-2.82121 1.00087,-3.60635 l 46.69731,-37.81722 -10.49785,-4.89521 c -1.29099,-0.602 -2.14426,-2.56415 -1.70408,-3.91889 l 9.22536,-28.39293 -26.8791,5.71326 c -1.33748,0.28428 -3.10433,-0.63543 -3.6386,-1.89408 l -5.20105,-12.25278 -20.99245,22.5115 c -1.40928,1.51125 -5.91779,-0.78592 -5.52351,-2.81435 l 10.14487,-52.19129 -16.23641,9.37419 c -1.35045,0.77969 -3.77749,0.0606 -4.48543,-1.32879 l -16.48519,-32.35399 -16.4852,32.35399 c -0.70794,1.38941 -3.13498,2.10848 -4.48543,1.32879 l -16.236406,-9.37419 10.144866,52.19129 c 0.39428,2.02843 -4.11423,4.3256 -5.52351,2.81435 l -20.992446,-22.5115 -5.20105,12.25278 c -0.534275,1.25865 -2.301125,2.17836 -3.6386,1.89408 l -26.879101,-5.71326 9.22536,28.39293 c 0.440175,1.35474 -0.413095,3.31689 -1.704085,3.91889 l -10.497845,4.89521 46.697311,37.81722 c 0.969505,0.78514 1.427565,2.43404 1.00087,3.60635 l -5.778255,15.87526 42.607261,-7.51285 c 2.4216,-0.42699 5.65369,2.43243 5.52499,4.88802 l -2.24358,42.80842 z"
       id="path823"
       inkscape:connector-curvature="0"
       sodipodi:nodetypes="csscsscsscsscsscsscsscsscsscsscsscsscc" />
    <circle
       style="opacity:1;fill:#ffffff;fill-opacity:1;fill-rule:evenodd;stroke:none;stroke-width:0.69888926;stroke-linecap:round;stroke-linejoin:round;stroke-miterlimit:4;stroke-dasharray:none;stroke-dashoffset:0;stroke-opacity:1"
       id="circle846"
       cx="611.56549"
       cy="537.39288"
       r="119.0625" />
    <path
       sodipodi:nodetypes="csscsscsscsscsscsscsscsscsscsscsscsscc"
       inkscape:connector-curvature="0"
       id="path838"
       d="m 616.03034,638.09992 -2.24358,-42.80842 c -0.1287,-2.45559 3.10339,-5.31501 5.52499,-4.88802 l 42.60726,7.51285 -5.77825,-15.87526 c -0.4267,-1.17231 0.0314,-2.82121 1.00087,-3.60635 l 46.69731,-37.81722 -10.49785,-4.89521 c -1.29099,-0.602 -2.14426,-2.56415 -1.70408,-3.91889 l 9.22536,-28.39293 -26.8791,5.71326 c -1.33748,0.28428 -3.10433,-0.63543 -3.6386,-1.89408 l -5.20105,-12.25278 -20.99245,22.5115 c -1.40928,1.51125 -5.91779,-0.78592 -5.52351,-2.81435 l 10.14487,-52.19129 -16.23641,9.37419 c -1.35045,0.77969 -3.77749,0.0606 -4.48543,-1.32879 l -16.48519,-32.35399 -16.4852,32.35399 c -0.70794,1.38941 -3.13498,2.10848 -4.48543,1.32879 l -16.23641,-9.37419 10.14487,52.19129 c 0.39428,2.02843 -4.11423,4.3256 -5.52351,2.81435 l -20.99245,-22.5115 -5.20105,12.25278 c -0.53427,1.25865 -2.30112,2.17836 -3.6386,1.89408 l -26.8791,-5.71326 9.22536,28.39293 c 0.44018,1.35474 -0.41309,3.31689 -1.70408,3.91889 l -10.49785,4.89521 46.69731,37.81722 c 0.96951,0.78514 1.42757,2.43404 1.00087,3.60635 l -5.77825,15.87526 42.60726,-7.51285 c 2.4216,-0.42699 5.65369,2.43243 5.52499,4.88802 l -2.24358,42.80842 z"
       style="fill:#da291c;fill-opacity:1;stroke:none;stroke-width:0.24804686;stroke-linecap:butt;stroke-linejoin:miter;stroke-miterlimit:4;stroke-dasharray:none;stroke-opacity:1" />
  </g>
</svg>
