<?xml version="1.0" encoding="UTF-8" standalone="no"?>
<!-- Created with Inkscape (http://www.inkscape.org/) -->

<svg
   xmlns:dc="http://purl.org/dc/elements/1.1/"
   xmlns:cc="http://creativecommons.org/ns#"
   xmlns:rdf="http://www.w3.org/1999/02/22-rdf-syntax-ns#"
   xmlns:svg="http://www.w3.org/2000/svg"
   xmlns="http://www.w3.org/2000/svg"
   xmlns:sodipodi="http://sodipodi.sourceforge.net/DTD/sodipodi-0.dtd"
   xmlns:inkscape="http://www.inkscape.org/namespaces/inkscape"
   width="2736"
   height="1800"
   viewBox="0 0 723.9 476.25001"
   version="1.1"
   id="svg8"
   inkscape:export-filename="C:\Users\drk22\Documents\GXI3CW2\poM̕écèŭ\Kànēdu\Canada Français.png"
   inkscape:export-xdpi="96"
   inkscape:export-ydpi="96"
   inkscape:version="0.92.4 (5da689c313, 2019-01-14)"
   sodipodi:docname="QC.svg">
  <defs
     id="defs2" />
  <sodipodi:namedview
     id="base"
     pagecolor="#ffffff"
     bordercolor="#666666"
     borderopacity="1.0"
     inkscape:pageopacity="0.0"
     inkscape:pageshadow="2"
     inkscape:zoom="0.30222223"
     inkscape:cx="697.96325"
     inkscape:cy="900.00001"
     inkscape:document-units="px"
     inkscape:current-layer="layer1"
     showgrid="false"
     units="px"
     fit-margin-top="0"
     fit-margin-left="0"
     fit-margin-right="0"
     fit-margin-bottom="0"
     inkscape:showpageshadow="false"
     inkscape:snap-intersection-paths="false"
     inkscape:object-paths="false"
     inkscape:pagecheckerboard="true"
     inkscape:snap-smooth-nodes="false"
     inkscape:window-width="1920"
     inkscape:window-height="1051"
     inkscape:window-x="-9"
     inkscape:window-y="-9"
     inkscape:window-maximized="1"
     inkscape:object-nodes="true"
     inkscape:snap-nodes="true" />
  <metadata
     id="metadata5">
    <rdf:RDF>
      <cc:Work
         rdf:about="">
        <dc:format>image/svg+xml</dc:format>
        <dc:type
           rdf:resource="http://purl.org/dc/dcmitype/StillImage" />
        <dc:title />
      </cc:Work>
    </rdf:RDF>
  </metadata>
  <g
     inkscape:label="レイヤー 1"
     inkscape:groupmode="layer"
     id="layer1"
     transform="translate(112.33452,-299.26786)">
    <path
       style="fill:#ffffff;fill-opacity:1;stroke:none;stroke-width:0.51166773px;stroke-linecap:butt;stroke-linejoin:miter;stroke-opacity:1"
       d="m -102.80952,299.26786 h -9.525 v 476.25 h 9.525 z"
       id="path1079"
       inkscape:connector-curvature="0"
       sodipodi:nodetypes="ccccc" />
    <path
       sodipodi:nodetypes="ccccccccccccc"
       inkscape:connector-curvature="0"
       id="path821"
       d="M 313.90923,477.86161 V 299.26786 h -119.0625 v 178.59375 h -297.65625 v 119.0625 h 297.65625 v 178.59375 h 119.0625 V 596.92411 h 297.65625 v -119.0625 z"
       style="fill:#ffffff;fill-opacity:1;stroke:none;stroke-width:2.55833864px;stroke-linecap:butt;stroke-linejoin:miter;stroke-opacity:1" />
    <path
       style="fill:#003399;fill-opacity:1;stroke:none;stroke-width:1.01127219px;stroke-linecap:butt;stroke-linejoin:miter;stroke-opacity:1"
       d="M 194.84673,477.86161 V 299.26786 H -102.80952 V 477.86161 Z M 31.156984,407.10262 v -6.40684 l 3.203572,-1.8e-4 C 32.714679,389.73232 24.101933,386.45743 18.820222,388.16438 14.345269,389.61061 8.1389663,396.6145 11.970257,406.8431 5.7348059,410.30723 -7.0212834,398.02366 -1.6951996,383.04958 1.6080493,373.76261 11.20935,368.71407 19.301105,370.33255 c 13.097796,2.61979 18.818445,19.3422 19.679513,30.36305 l 4.015952,1.8e-4 c -0.75715,-31.06166 -14.359531,-27.34801 -12.479857,-42.94622 1.301412,-10.79961 15.501896,-28.71607 15.501896,-28.71607 0,0 14.200484,17.91646 15.501896,28.71607 1.879674,15.59821 -11.722707,11.88456 -12.479857,42.94622 l 4.015947,-1.8e-4 c 0.861068,-11.02085 6.581714,-27.74326 19.679513,-30.36305 8.091752,-1.61848 17.693055,3.43006 20.996304,12.71703 5.326081,14.97408 -7.430008,27.25765 -13.665459,23.79352 3.831291,-10.2286 -2.375009,-17.23249 -6.849965,-18.67872 -5.281708,-1.70695 -13.894454,1.56794 -15.540332,12.53122 l 3.203578,1.8e-4 v 6.40684 H 49.119711 c 1.129834,10.24719 12.076039,15.50785 16.511138,6.88486 2.32799,7.34285 -1.537123,13.89358 -8.221205,13.57333 -1.360665,-0.0652 -2.616674,-0.46015 -3.768243,-1.1219 0.263562,1.58209 0.337507,3.14155 0.101285,4.70566 -1.316382,8.71623 -3.982321,5.93335 -7.724077,16.95142 -3.741756,-11.01807 -6.408211,-8.23519 -7.724593,-16.95142 -0.236222,-1.56411 -0.161761,-3.12357 0.101801,-4.70566 -1.151569,0.66175 -2.407578,1.0567 -3.768243,1.1219 -6.684082,0.32025 -10.549195,-6.23048 -8.221205,-13.57333 4.435099,8.62299 15.381304,3.36233 16.511138,-6.88486 z"
       id="path822"
       inkscape:connector-curvature="0"
       sodipodi:nodetypes="ccccccccscssccscsccsscscccccscscscsccc" />
    <path
       style="fill:#003399;fill-opacity:1;stroke:none;stroke-width:1.01127219px;stroke-linecap:butt;stroke-linejoin:miter;stroke-opacity:1"
       d="M 611.56548,477.86161 V 299.26786 H 313.90923 V 477.86161 Z M 447.87573,407.10262 v -6.40684 l 3.20357,-1.8e-4 c -1.64587,-10.96328 -10.25862,-14.23817 -15.54033,-12.53122 -4.47495,1.44623 -10.68125,8.45012 -6.84997,18.67872 -6.23545,3.46413 -18.99154,-8.81944 -13.66545,-23.79352 3.30325,-9.28697 12.90455,-14.33551 20.9963,-12.71703 13.0978,2.61979 18.81845,19.3422 19.67952,30.36305 l 4.01595,1.8e-4 c -0.75715,-31.06166 -14.35953,-27.34801 -12.47986,-42.94622 1.30141,-10.79961 15.5019,-28.71607 15.5019,-28.71607 0,0 14.20048,17.91646 15.5019,28.71607 1.87967,15.59821 -11.72271,11.88456 -12.47986,42.94622 l 4.01595,-1.8e-4 c 0.86106,-11.02085 6.58171,-27.74326 19.67951,-30.36305 8.09175,-1.61848 17.69305,3.43006 20.9963,12.71703 5.32608,14.97408 -7.43,27.25765 -13.66546,23.79352 3.83129,-10.2286 -2.375,-17.23249 -6.84996,-18.67872 -5.28171,-1.70695 -13.89445,1.56794 -15.54033,12.53122 l 3.20358,1.8e-4 v 6.40684 h -11.76053 c 1.12984,10.24719 12.07604,15.50785 16.51114,6.88486 2.32799,7.34285 -1.53712,13.89358 -8.2212,13.57333 -1.36067,-0.0652 -2.61668,-0.46015 -3.76825,-1.1219 0.26356,1.58209 0.33751,3.14155 0.10129,4.70566 -1.31638,8.71623 -3.98233,5.93335 -7.72408,16.95142 -3.74176,-11.01807 -6.40821,-8.23519 -7.7246,-16.95142 -0.23622,-1.56411 -0.16176,-3.12357 0.1018,-4.70566 -1.15156,0.66175 -2.40757,1.0567 -3.76824,1.1219 -6.68408,0.32025 -10.54919,-6.23048 -8.2212,-13.57333 4.4351,8.62299 15.3813,3.36233 16.51114,-6.88486 z"
       id="path822-9"
       inkscape:connector-curvature="0"
       sodipodi:nodetypes="ccccccccscssccscsccsscscccccscscscsccc" />
    <path
       sodipodi:nodetypes="ccccccccscssccscsccsscscccccscscscsccc"
       inkscape:connector-curvature="0"
       id="path894"
       d="M 611.56548,775.51786 V 596.92411 H 313.90923 V 775.51786 Z M 447.87573,704.75887 v -6.40684 l 3.20357,-1.8e-4 c -1.64587,-10.96328 -10.25862,-14.23817 -15.54033,-12.53122 -4.47495,1.44623 -10.68125,8.45012 -6.84997,18.67872 -6.23545,3.46413 -18.99154,-8.81944 -13.66545,-23.79352 3.30325,-9.28697 12.90455,-14.33551 20.9963,-12.71703 13.0978,2.61979 18.81845,19.3422 19.67952,30.36305 l 4.01595,1.8e-4 c -0.75715,-31.06166 -14.35953,-27.34801 -12.47986,-42.94622 1.30141,-10.79961 15.5019,-28.71607 15.5019,-28.71607 0,0 14.20048,17.91646 15.5019,28.71607 1.87967,15.59821 -11.72271,11.88456 -12.47986,42.94622 l 4.01595,-1.8e-4 c 0.86106,-11.02085 6.58171,-27.74326 19.67951,-30.36305 8.09175,-1.61848 17.69305,3.43006 20.9963,12.71703 5.32608,14.97408 -7.43,27.25765 -13.66546,23.79352 3.83129,-10.2286 -2.375,-17.23249 -6.84996,-18.67872 -5.28171,-1.70695 -13.89445,1.56794 -15.54033,12.53122 l 3.20358,1.8e-4 v 6.40684 h -11.76053 c 1.12984,10.24719 12.07604,15.50785 16.51114,6.88486 2.32799,7.34285 -1.53712,13.89358 -8.2212,13.57333 -1.36067,-0.0652 -2.61668,-0.46015 -3.76825,-1.1219 0.26356,1.58209 0.33751,3.14155 0.10129,4.70566 -1.31638,8.71623 -3.98233,5.93335 -7.72408,16.95142 -3.74176,-11.01807 -6.40821,-8.23519 -7.7246,-16.95142 -0.23622,-1.56411 -0.16176,-3.12357 0.1018,-4.70566 -1.15156,0.66175 -2.40757,1.0567 -3.76824,1.1219 -6.68408,0.32025 -10.54919,-6.23048 -8.2212,-13.57333 4.4351,8.62299 15.3813,3.36233 16.51114,-6.88486 z"
       style="fill:#003399;fill-opacity:1;stroke:none;stroke-width:1.01127219px;stroke-linecap:butt;stroke-linejoin:miter;stroke-opacity:1" />
    <path
       style="fill:#003399;fill-opacity:1;stroke:none;stroke-width:1.01127219px;stroke-linecap:butt;stroke-linejoin:miter;stroke-opacity:1"
       d="M 194.84673,775.51786 V 596.92411 H -102.80952 V 775.51786 Z M 31.15698,704.75887 v -6.40684 l 3.20357,-1.8e-4 c -1.64587,-10.96328 -10.25862,-14.23817 -15.54033,-12.53122 -4.47495,1.44623 -10.68125,8.45012 -6.84997,18.67872 -6.23545,3.46413 -18.99154,-8.81944 -13.66545,-23.79352 3.30325,-9.28697 12.90455,-14.33551 20.9963,-12.71703 13.0978,2.61979 18.81845,19.3422 19.67952,30.36305 l 4.01595,1.8e-4 c -0.75715,-31.06166 -14.35953,-27.34801 -12.47986,-42.94622 1.30141,-10.79961 15.5019,-28.71607 15.5019,-28.71607 0,0 14.20048,17.91646 15.5019,28.71607 1.87967,15.59821 -11.72271,11.88456 -12.47986,42.94622 l 4.01595,-1.8e-4 c 0.86106,-11.02085 6.58171,-27.74326 19.67951,-30.36305 8.09175,-1.61848 17.69305,3.43006 20.9963,12.71703 5.32608,14.97408 -7.43,27.25765 -13.66546,23.79352 3.83129,-10.2286 -2.375,-17.23249 -6.84996,-18.67872 -5.28171,-1.70695 -13.89445,1.56794 -15.54033,12.53122 l 3.20358,1.8e-4 v 6.40684 H 49.11971 c 1.12984,10.24719 12.07604,15.50785 16.51114,6.88486 2.32799,7.34285 -1.53712,13.89358 -8.2212,13.57333 -1.36067,-0.0652 -2.61668,-0.46015 -3.76825,-1.1219 0.26356,1.58209 0.33751,3.14155 0.10129,4.70566 -1.31638,8.71623 -3.98233,5.93335 -7.72408,16.95142 -3.74176,-11.01807 -6.40821,-8.23519 -7.7246,-16.95142 -0.23622,-1.56411 -0.16176,-3.12357 0.1018,-4.70566 -1.15156,0.66175 -2.40757,1.0567 -3.76824,1.1219 -6.68408,0.32025 -10.54919,-6.23048 -8.2212,-13.57333 4.4351,8.62299 15.3813,3.36233 16.51114,-6.88486 z"
       id="path896"
       inkscape:connector-curvature="0"
       sodipodi:nodetypes="ccccccccscssccscsccsscscccccscscscsccc" />
    <path
       sodipodi:nodetypes="cccscssccscsccsscscccccscscscsccc"
       inkscape:connector-curvature="0"
       id="path898"
       d="m 31.156984,407.10262 v -6.40684 l 3.203572,-1.8e-4 C 32.714679,389.73232 24.101933,386.45743 18.820222,388.16438 14.345269,389.61061 8.1389663,396.6145 11.970257,406.8431 5.7348059,410.30723 -7.0212834,398.02366 -1.6951996,383.04958 1.6080493,373.76261 11.20935,368.71407 19.301105,370.33255 c 13.097796,2.61979 18.818445,19.3422 19.679513,30.36305 l 4.015952,1.8e-4 c -0.75715,-31.06166 -14.359531,-27.34801 -12.479857,-42.94622 1.301412,-10.79961 15.501896,-28.71607 15.501896,-28.71607 0,0 14.200484,17.91646 15.501896,28.71607 1.879674,15.59821 -11.722707,11.88456 -12.479857,42.94622 l 4.015947,-1.8e-4 c 0.861068,-11.02085 6.581714,-27.74326 19.679513,-30.36305 8.091752,-1.61848 17.693055,3.43006 20.996304,12.71703 5.326081,14.97408 -7.430008,27.25765 -13.665459,23.79352 3.831291,-10.2286 -2.375009,-17.23249 -6.849965,-18.67872 -5.281708,-1.70695 -13.894454,1.56794 -15.540332,12.53122 l 3.203578,1.8e-4 v 6.40684 H 49.119711 c 1.129834,10.24719 12.076039,15.50785 16.511138,6.88486 2.32799,7.34285 -1.537123,13.89358 -8.221205,13.57333 -1.360665,-0.0652 -2.616674,-0.46015 -3.768243,-1.1219 0.263562,1.58209 0.337507,3.14155 0.101285,4.70566 -1.316382,8.71623 -3.982321,5.93335 -7.724077,16.95142 -3.741756,-11.01807 -6.408211,-8.23519 -7.724593,-16.95142 -0.236222,-1.56411 -0.161761,-3.12357 0.101801,-4.70566 -1.151569,0.66175 -2.407578,1.0567 -3.768243,1.1219 -6.684082,0.32025 -10.549195,-6.23048 -8.221205,-13.57333 4.435099,8.62299 15.381304,3.36233 16.511138,-6.88486 z"
       style="fill:#ffffff;fill-opacity:1;stroke:none;stroke-width:1.01127219px;stroke-linecap:butt;stroke-linejoin:miter;stroke-opacity:1" />
    <path
       sodipodi:nodetypes="cccscssccscsccsscscccccscscscsccc"
       inkscape:connector-curvature="0"
       id="path900"
       d="m 447.87573,407.10262 v -6.40684 l 3.20357,-1.8e-4 c -1.64587,-10.96328 -10.25862,-14.23817 -15.54033,-12.53122 -4.47495,1.44623 -10.68125,8.45012 -6.84997,18.67872 -6.23545,3.46413 -18.99154,-8.81944 -13.66545,-23.79352 3.30325,-9.28697 12.90455,-14.33551 20.9963,-12.71703 13.0978,2.61979 18.81845,19.3422 19.67952,30.36305 l 4.01595,1.8e-4 c -0.75715,-31.06166 -14.35953,-27.34801 -12.47986,-42.94622 1.30141,-10.79961 15.5019,-28.71607 15.5019,-28.71607 0,0 14.20048,17.91646 15.5019,28.71607 1.87967,15.59821 -11.72271,11.88456 -12.47986,42.94622 l 4.01595,-1.8e-4 c 0.86106,-11.02085 6.58171,-27.74326 19.67951,-30.36305 8.09175,-1.61848 17.69305,3.43006 20.9963,12.71703 5.32608,14.97408 -7.43,27.25765 -13.66546,23.79352 3.83129,-10.2286 -2.375,-17.23249 -6.84996,-18.67872 -5.28171,-1.70695 -13.89445,1.56794 -15.54033,12.53122 l 3.20358,1.8e-4 v 6.40684 h -11.76053 c 1.12984,10.24719 12.07604,15.50785 16.51114,6.88486 2.32799,7.34285 -1.53712,13.89358 -8.2212,13.57333 -1.36067,-0.0652 -2.61668,-0.46015 -3.76825,-1.1219 0.26356,1.58209 0.33751,3.14155 0.10129,4.70566 -1.31638,8.71623 -3.98233,5.93335 -7.72408,16.95142 -3.74176,-11.01807 -6.40821,-8.23519 -7.7246,-16.95142 -0.23622,-1.56411 -0.16176,-3.12357 0.1018,-4.70566 -1.15156,0.66175 -2.40757,1.0567 -3.76824,1.1219 -6.68408,0.32025 -10.54919,-6.23048 -8.2212,-13.57333 4.4351,8.62299 15.3813,3.36233 16.51114,-6.88486 z"
       style="fill:#ffffff;fill-opacity:1;stroke:none;stroke-width:1.01127219px;stroke-linecap:butt;stroke-linejoin:miter;stroke-opacity:1" />
    <path
       style="fill:#ffffff;fill-opacity:1;stroke:none;stroke-width:1.01127219px;stroke-linecap:butt;stroke-linejoin:miter;stroke-opacity:1"
       d="m 447.87573,704.75887 v -6.40684 l 3.20357,-1.8e-4 c -1.64587,-10.96328 -10.25862,-14.23817 -15.54033,-12.53122 -4.47495,1.44623 -10.68125,8.45012 -6.84997,18.67872 -6.23545,3.46413 -18.99154,-8.81944 -13.66545,-23.79352 3.30325,-9.28697 12.90455,-14.33551 20.9963,-12.71703 13.0978,2.61979 18.81845,19.3422 19.67952,30.36305 l 4.01595,1.8e-4 c -0.75715,-31.06166 -14.35953,-27.34801 -12.47986,-42.94622 1.30141,-10.79961 15.5019,-28.71607 15.5019,-28.71607 0,0 14.20048,17.91646 15.5019,28.71607 1.87967,15.59821 -11.72271,11.88456 -12.47986,42.94622 l 4.01595,-1.8e-4 c 0.86106,-11.02085 6.58171,-27.74326 19.67951,-30.36305 8.09175,-1.61848 17.69305,3.43006 20.9963,12.71703 5.32608,14.97408 -7.43,27.25765 -13.66546,23.79352 3.83129,-10.2286 -2.375,-17.23249 -6.84996,-18.67872 -5.28171,-1.70695 -13.89445,1.56794 -15.54033,12.53122 l 3.20358,1.8e-4 v 6.40684 h -11.76053 c 1.12984,10.24719 12.07604,15.50785 16.51114,6.88486 2.32799,7.34285 -1.53712,13.89358 -8.2212,13.57333 -1.36067,-0.0652 -2.61668,-0.46015 -3.76825,-1.1219 0.26356,1.58209 0.33751,3.14155 0.10129,4.70566 -1.31638,8.71623 -3.98233,5.93335 -7.72408,16.95142 -3.74176,-11.01807 -6.40821,-8.23519 -7.7246,-16.95142 -0.23622,-1.56411 -0.16176,-3.12357 0.1018,-4.70566 -1.15156,0.66175 -2.40757,1.0567 -3.76824,1.1219 -6.68408,0.32025 -10.54919,-6.23048 -8.2212,-13.57333 4.4351,8.62299 15.3813,3.36233 16.51114,-6.88486 z"
       id="path902"
       inkscape:connector-curvature="0"
       sodipodi:nodetypes="cccscssccscsccsscscccccscscscsccc" />
    <path
       sodipodi:nodetypes="cccscssccscsccsscscccccscscscsccc"
       inkscape:connector-curvature="0"
       id="path904"
       d="m 31.15698,704.75887 v -6.40684 l 3.20357,-1.8e-4 c -1.64587,-10.96328 -10.25862,-14.23817 -15.54033,-12.53122 -4.47495,1.44623 -10.68125,8.45012 -6.84997,18.67872 -6.23545,3.46413 -18.99154,-8.81944 -13.66545,-23.79352 3.30325,-9.28697 12.90455,-14.33551 20.9963,-12.71703 13.0978,2.61979 18.81845,19.3422 19.67952,30.36305 l 4.01595,1.8e-4 c -0.75715,-31.06166 -14.35953,-27.34801 -12.47986,-42.94622 1.30141,-10.79961 15.5019,-28.71607 15.5019,-28.71607 0,0 14.20048,17.91646 15.5019,28.71607 1.87967,15.59821 -11.72271,11.88456 -12.47986,42.94622 l 4.01595,-1.8e-4 c 0.86106,-11.02085 6.58171,-27.74326 19.67951,-30.36305 8.09175,-1.61848 17.69305,3.43006 20.9963,12.71703 5.32608,14.97408 -7.43,27.25765 -13.66546,23.79352 3.83129,-10.2286 -2.375,-17.23249 -6.84996,-18.67872 -5.28171,-1.70695 -13.89445,1.56794 -15.54033,12.53122 l 3.20358,1.8e-4 v 6.40684 H 49.11971 c 1.12984,10.24719 12.07604,15.50785 16.51114,6.88486 2.32799,7.34285 -1.53712,13.89358 -8.2212,13.57333 -1.36067,-0.0652 -2.61668,-0.46015 -3.76825,-1.1219 0.26356,1.58209 0.33751,3.14155 0.10129,4.70566 -1.31638,8.71623 -3.98233,5.93335 -7.72408,16.95142 -3.74176,-11.01807 -6.40821,-8.23519 -7.7246,-16.95142 -0.23622,-1.56411 -0.16176,-3.12357 0.1018,-4.70566 -1.15156,0.66175 -2.40757,1.0567 -3.76824,1.1219 -6.68408,0.32025 -10.54919,-6.23048 -8.2212,-13.57333 4.4351,8.62299 15.3813,3.36233 16.51114,-6.88486 z"
       style="fill:#ffffff;fill-opacity:1;stroke:none;stroke-width:1.01127219px;stroke-linecap:butt;stroke-linejoin:miter;stroke-opacity:1" />
  </g>
</svg>
