<?xml version="1.0" encoding="UTF-8" standalone="no"?>
<!-- Created with Inkscape (http://www.inkscape.org/) -->

<svg
   width="3636"
   height="1800"
   viewBox="0 0 962.02499 476.25001"
   version="1.1"
   id="svg8"
   inkscape:export-filename="C:\Users\厂永刄先生\Documents\GXI3CW2\JáÈŭcèŭ\Maqkàla\Maqkàla.png"
   inkscape:export-xdpi="96"
   inkscape:export-ydpi="96"
   inkscape:version="1.3 (0e150ed6c4, 2023-07-21)"
   sodipodi:docname="ck_1973.svg"
   xmlns:inkscape="http://www.inkscape.org/namespaces/inkscape"
   xmlns:sodipodi="http://sodipodi.sourceforge.net/DTD/sodipodi-0.dtd"
   xmlns="http://www.w3.org/2000/svg"
   xmlns:svg="http://www.w3.org/2000/svg"
   xmlns:rdf="http://www.w3.org/1999/02/22-rdf-syntax-ns#"
   xmlns:cc="http://creativecommons.org/ns#"
   xmlns:dc="http://purl.org/dc/elements/1.1/">
  <defs
     id="defs2" />
  <sodipodi:namedview
     id="base"
     pagecolor="#ffffff"
     bordercolor="#666666"
     borderopacity="1.0"
     inkscape:pageopacity="0.0"
     inkscape:pageshadow="2"
     inkscape:zoom="0.24532455"
     inkscape:cx="2193.0133"
     inkscape:cy="902.88559"
     inkscape:document-units="px"
     inkscape:current-layer="layer1"
     showgrid="false"
     units="px"
     fit-margin-top="0"
     fit-margin-left="0"
     fit-margin-right="0"
     fit-margin-bottom="0"
     inkscape:showpageshadow="false"
     inkscape:snap-intersection-paths="false"
     inkscape:object-paths="false"
     inkscape:pagecheckerboard="true"
     inkscape:snap-smooth-nodes="false"
     inkscape:window-width="1920"
     inkscape:window-height="1009"
     inkscape:window-x="-8"
     inkscape:window-y="-8"
     inkscape:window-maximized="1"
     inkscape:object-nodes="true"
     inkscape:deskcolor="#505050" />
  <metadata
     id="metadata5">
    <rdf:RDF>
      <cc:Work
         rdf:about="">
        <dc:format>image/svg+xml</dc:format>
        <dc:type
           rdf:resource="http://purl.org/dc/dcmitype/StillImage" />
      </cc:Work>
    </rdf:RDF>
  </metadata>
  <g
     inkscape:label="レイヤー 1"
     inkscape:groupmode="layer"
     id="layer1"
     transform="translate(112.33452,-299.26786)">
    <path
       style="fill:#ffffff;fill-opacity:1;stroke:none;stroke-width:0.51166773px;stroke-linecap:butt;stroke-linejoin:miter;stroke-opacity:1"
       d="m -102.80952,299.26786 h -9.525 v 476.25 h 9.525 z"
       id="path819"
       inkscape:connector-curvature="0"
       sodipodi:nodetypes="ccccc" />
    <g
       id="g1">
      <path
         sodipodi:nodetypes="ccccc"
         inkscape:connector-curvature="0"
         id="path868"
         d="m 373.44046,299.26786 h 476.24997 l -6e-5,476.25001 H 373.44046 Z"
         style="fill:#00a000;fill-opacity:1;stroke:none;stroke-width:0.132292;stroke-linecap:butt;stroke-linejoin:miter;stroke-miterlimit:4;stroke-dasharray:none;stroke-opacity:1" />
      <path
         sodipodi:nodetypes="ccccccccccc"
         inkscape:connector-curvature="0"
         id="path856"
         d="m 590.57046,391.66494 20.99494,-15.25374 20.995,15.25374 -8.0194,-24.68106 20.995,-15.25371 h -25.95125 l -8.0193,-24.68105 -8.01939,24.68105 h -25.9512 l 20.99495,15.2537 z"
         style="fill:#ffd800;fill-opacity:1;stroke:none;stroke-width:0.26458335px;stroke-linecap:butt;stroke-linejoin:miter;stroke-opacity:1" />
      <path
         style="fill:#ffd800;fill-opacity:1;stroke:none;stroke-width:0.26458335px;stroke-linecap:butt;stroke-linejoin:miter;stroke-opacity:1"
         d="m 651.65846,395.72436 25.38409,-5.39557 12.97563,22.47442 2.71261,-25.80906 25.38413,-5.39552 -23.70765,-10.55532 2.71269,-25.80901 -17.36476,19.28548 -23.7076,-10.5553 12.9756,22.47436 z"
         id="path860"
         inkscape:connector-curvature="0"
         sodipodi:nodetypes="ccccccccccc" />
      <path
         sodipodi:nodetypes="ccccccccccc"
         inkscape:connector-curvature="0"
         id="path894"
         d="m 705.81401,424.27955 25.3841,5.39554 2.71266,25.80907 12.97558,-22.47443 25.38411,5.3956 -17.36478,-19.28553 12.97564,-22.47436 -23.70761,10.55528 -17.36474,-19.2855 2.71265,25.80901 z"
         style="fill:#ffd800;fill-opacity:1;stroke:none;stroke-width:0.26458335px;stroke-linecap:butt;stroke-linejoin:miter;stroke-opacity:1" />
      <path
         style="fill:#ffd800;fill-opacity:1;stroke:none;stroke-width:0.26458335px;stroke-linecap:butt;stroke-linejoin:miter;stroke-opacity:1"
         d="m 743.67316,472.39307 20.99497,15.25371 -8.01936,24.68109 20.99495,-15.25377 20.99495,15.25378 -8.01937,-24.68111 20.99497,-15.25367 -25.9512,-3e-5 -8.01936,-24.68106 -8.01934,24.68104 z"
         id="path898"
         inkscape:connector-curvature="0"
         sodipodi:nodetypes="ccccccccccc" />
      <path
         sodipodi:nodetypes="ccccccccccc"
         inkscape:connector-curvature="0"
         id="path900"
         d="m 758.68966,531.74564 12.9756,22.47438 -17.36475,19.28553 25.38412,-5.39559 12.97557,22.47443 2.71264,-25.80908 25.38409,-5.3955 -23.70759,-10.55533 2.71264,-25.80904 -17.36471,19.28549 z"
         style="fill:#ffd800;fill-opacity:1;stroke:none;stroke-width:0.26458335px;stroke-linecap:butt;stroke-linejoin:miter;stroke-opacity:1" />
      <path
         style="fill:#ffd800;fill-opacity:1;stroke:none;stroke-width:0.26458335px;stroke-linecap:butt;stroke-linejoin:miter;stroke-opacity:1"
         d="m 748.26704,592.07466 2.71266,25.80903 -23.70763,10.55534 25.38413,5.39552 2.7126,25.80906 12.97562,-22.47444 25.38408,5.3956 -17.36473,-19.28551 12.9756,-22.4744 -23.70757,10.55531 z"
         id="path902"
         inkscape:connector-curvature="0"
         sodipodi:nodetypes="ccccccccccc" />
      <path
         sodipodi:nodetypes="ccccccccccc"
         inkscape:connector-curvature="0"
         id="path904"
         d="m 714.20747,642.94875 -8.01934,24.68106 -25.95123,10e-6 20.995,15.25371 -8.01941,24.68106 20.99501,-15.25376 20.9949,15.25376 -8.01933,-24.68106 20.99496,-15.25373 -25.95117,10e-6 z"
         style="fill:#ffd800;fill-opacity:1;stroke:none;stroke-width:0.26458335px;stroke-linecap:butt;stroke-linejoin:miter;stroke-opacity:1" />
      <path
         style="fill:#ffd800;fill-opacity:1;stroke:none;stroke-width:0.26458335px;stroke-linecap:butt;stroke-linejoin:miter;stroke-opacity:1"
         d="m 662.40018,675.57124 -17.36473,19.2855 -23.70763,-10.5553 12.97564,22.4744 -17.36479,19.28548 25.38415,-5.39557 12.97554,22.4744 2.71267,-25.80903 25.38411,-5.39556 -23.70759,-10.55528 z"
         id="path906"
         inkscape:connector-curvature="0"
         sodipodi:nodetypes="ccccccccccc" />
      <path
         sodipodi:nodetypes="ccccccccccc"
         inkscape:connector-curvature="0"
         id="path910"
         d="m 571.47239,395.72436 -25.38409,-5.39557 -12.97563,22.47442 -2.71261,-25.80906 -25.38413,-5.39552 23.70765,-10.55532 -2.71269,-25.80901 17.36476,19.28548 23.7076,-10.5553 -12.9756,22.47436 z"
         style="fill:#ffd800;fill-opacity:1;stroke:none;stroke-width:0.26458335px;stroke-linecap:butt;stroke-linejoin:miter;stroke-opacity:1" />
      <path
         style="fill:#ffd800;fill-opacity:1;stroke:none;stroke-width:0.26458335px;stroke-linecap:butt;stroke-linejoin:miter;stroke-opacity:1"
         d="m 517.31684,424.27955 -25.3841,5.39554 -2.71266,25.80907 -12.97558,-22.47443 -25.38411,5.3956 17.36478,-19.28553 -12.97564,-22.47436 23.70761,10.55528 17.36474,-19.2855 -2.71265,25.80901 z"
         id="path912"
         inkscape:connector-curvature="0"
         sodipodi:nodetypes="ccccccccccc" />
      <path
         sodipodi:nodetypes="ccccccccccc"
         inkscape:connector-curvature="0"
         id="path914"
         d="m 479.45769,472.39307 -20.99497,15.25371 8.01936,24.68109 -20.99495,-15.25377 -20.99495,15.25378 8.01937,-24.68111 -20.99497,-15.25367 25.9512,-3e-5 8.01936,-24.68106 8.01934,24.68104 z"
         style="fill:#ffd800;fill-opacity:1;stroke:none;stroke-width:0.26458335px;stroke-linecap:butt;stroke-linejoin:miter;stroke-opacity:1" />
      <path
         style="fill:#ffd800;fill-opacity:1;stroke:none;stroke-width:0.26458335px;stroke-linecap:butt;stroke-linejoin:miter;stroke-opacity:1"
         d="m 464.44119,531.74564 -12.9756,22.47438 17.36475,19.28553 -25.38412,-5.39559 -12.97557,22.47443 -2.71264,-25.80908 -25.38409,-5.3955 23.70759,-10.55533 -2.71264,-25.80904 17.36471,19.28549 z"
         id="path916"
         inkscape:connector-curvature="0"
         sodipodi:nodetypes="ccccccccccc" />
      <path
         sodipodi:nodetypes="ccccccccccc"
         inkscape:connector-curvature="0"
         id="path918"
         d="m 474.86381,592.07466 -2.71266,25.80903 23.70763,10.55534 -25.38413,5.39552 -2.7126,25.80906 -12.97562,-22.47444 -25.38408,5.3956 17.36473,-19.28551 -12.9756,-22.4744 23.70757,10.55531 z"
         style="fill:#ffd800;fill-opacity:1;stroke:none;stroke-width:0.26458335px;stroke-linecap:butt;stroke-linejoin:miter;stroke-opacity:1" />
      <path
         style="fill:#ffd800;fill-opacity:1;stroke:none;stroke-width:0.26458335px;stroke-linecap:butt;stroke-linejoin:miter;stroke-opacity:1"
         d="m 508.92338,642.94875 8.01934,24.68106 25.95123,10e-6 -20.995,15.25371 8.01941,24.68106 -20.99501,-15.25376 -20.9949,15.25376 8.01933,-24.68106 -20.99496,-15.25373 25.95117,10e-6 z"
         id="path920"
         inkscape:connector-curvature="0"
         sodipodi:nodetypes="ccccccccccc" />
      <path
         sodipodi:nodetypes="ccccccccccc"
         inkscape:connector-curvature="0"
         id="path922"
         d="m 560.73067,675.57124 17.36473,19.2855 23.70763,-10.5553 -12.97564,22.4744 17.36479,19.28548 -25.38415,-5.39557 -12.97554,22.4744 -2.71267,-25.80903 -25.38411,-5.39556 23.70759,-10.55528 z"
         style="fill:#ffd800;fill-opacity:1;stroke:none;stroke-width:0.26458335px;stroke-linecap:butt;stroke-linejoin:miter;stroke-opacity:1" />
    </g>
    <path
       sodipodi:nodetypes="ccccc"
       inkscape:connector-curvature="0"
       id="path1"
       d="m 373.44046,299.26786 h -476.24998 v 476.25 l 476.24998,10e-6 z"
       style="fill:#00a000;fill-opacity:1;stroke:none;stroke-width:0.132292;stroke-linecap:butt;stroke-linejoin:miter;stroke-miterlimit:4;stroke-dasharray:none;stroke-opacity:1" />
  </g>
</svg>
