<?xml version="1.0" encoding="UTF-8" standalone="no"?>
<!-- Created with Inkscape (http://www.inkscape.org/) -->

<svg
   xmlns:dc="http://purl.org/dc/elements/1.1/"
   xmlns:cc="http://creativecommons.org/ns#"
   xmlns:rdf="http://www.w3.org/1999/02/22-rdf-syntax-ns#"
   xmlns:svg="http://www.w3.org/2000/svg"
   xmlns="http://www.w3.org/2000/svg"
   xmlns:sodipodi="http://sodipodi.sourceforge.net/DTD/sodipodi-0.dtd"
   xmlns:inkscape="http://www.inkscape.org/namespaces/inkscape"
   width="2580.4661"
   height="1800"
   viewBox="0 0 682.74831 476.25001"
   version="1.1"
   id="svg8"
   inkscape:export-filename="C:\Users\厂永刄先生\Documents\GXI3CW2\JáÈŭcèŭ\Èŭmen\Í\意軍.png"
   inkscape:export-xdpi="96"
   inkscape:export-ydpi="96"
   inkscape:version="0.92.4 (5da689c313, 2019-01-14)"
   sodipodi:docname="三重県.svg">
  <defs
     id="defs2" />
  <sodipodi:namedview
     id="base"
     pagecolor="#ffffff"
     bordercolor="#666666"
     borderopacity="1.0"
     inkscape:pageopacity="0.0"
     inkscape:pageshadow="2"
     inkscape:zoom="0.30222222"
     inkscape:cx="1290.233"
     inkscape:cy="899.99995"
     inkscape:document-units="px"
     inkscape:current-layer="layer1"
     showgrid="false"
     units="px"
     fit-margin-top="0"
     fit-margin-left="0"
     fit-margin-right="0"
     fit-margin-bottom="0"
     inkscape:showpageshadow="false"
     inkscape:snap-intersection-paths="true"
     inkscape:object-paths="false"
     inkscape:pagecheckerboard="true"
     inkscape:snap-smooth-nodes="false"
     inkscape:window-width="1366"
     inkscape:window-height="745"
     inkscape:window-x="-8"
     inkscape:window-y="-8"
     inkscape:window-maximized="1"
     inkscape:object-nodes="true"
     inkscape:snap-nodes="true" />
  <metadata
     id="metadata5">
    <rdf:RDF>
      <cc:Work
         rdf:about="">
        <dc:format>image/svg+xml</dc:format>
        <dc:type
           rdf:resource="http://purl.org/dc/dcmitype/StillImage" />
        <dc:title></dc:title>
      </cc:Work>
    </rdf:RDF>
  </metadata>
  <g
     inkscape:label="レイヤー 1"
     inkscape:groupmode="layer"
     id="layer1"
     transform="translate(112.33452,-299.26785)">
    <path
       style="opacity:1;fill:#00aa00;fill-opacity:1;fill-rule:evenodd;stroke:none;stroke-width:0.217191;stroke-linecap:round;stroke-linejoin:round;stroke-miterlimit:4;stroke-dasharray:none;stroke-dashoffset:0;stroke-opacity:0.50196078"
       d="M -102.80952,299.26786 V 775.51787 H 570.41379 V 299.26786 Z"
       id="path814"
       inkscape:connector-curvature="0"
       sodipodi:nodetypes="ccccc" />
    <path
       style="fill:#ffffff;fill-opacity:1;stroke:none;stroke-width:0.51166773px;stroke-linecap:butt;stroke-linejoin:miter;stroke-opacity:1"
       d="m -102.80952,299.26786 h -9.525 v 476.25 h 9.525 z"
       id="path1079"
       inkscape:connector-curvature="0"
       sodipodi:nodetypes="ccccc" />
    <path
       style="opacity:1;fill:#f2f4f1;fill-opacity:1;fill-rule:evenodd;stroke:none;stroke-width:1;stroke-linecap:round;stroke-linejoin:round;stroke-miterlimit:4;stroke-dasharray:none;stroke-dashoffset:0;stroke-opacity:1;paint-order:normal"
       d="m 860.85547,1031.0684 c -2e-5,-75.28148 61.02673,-136.31005 136.30859,-136.31059 75.28184,-5.4e-4 136.31054,61.02831 136.31054,136.31059 0,75.2822 -61.0287,136.311 -136.31054,136.3105 -75.28184,-5e-4 -136.30857,-61.029 -136.30859,-136.3105 z m 506.41403,182.1777 41.5684,42.3047 -32.3857,45.4014 c -42.5652,59.6717 -98.4505,108.5096 -163.2979,142.54 h 253.3633 l 53.4121,-74.8809 58.8848,59.9278 162.8164,-228.2598 -58.8848,-59.9297 589.9101,-827.02733 -229.5332,52.99218 -471.4687,660.97465 -37.752,-38.42191 431.2168,-604.54492 -850.2441,196.29492 c 101.5661,26.46754 189.6113,86.38985 251.709,167.27539 l -29.2149,40.95898 -46.0243,-46.83594 c -74.8265,-76.14595 -178.9871,-123.375 -294.18074,-123.375 -227.77715,10e-6 -412.42578,184.65063 -412.42578,412.42778 0,227.7772 184.64863,412.4277 412.42578,412.4277 162.37844,0 302.83364,-93.8429 370.10544,-230.25 z"
       transform="matrix(0.26458334,0,0,0.26458334,-112.33452,299.26785)"
       id="circle835"
       inkscape:connector-curvature="0"
       sodipodi:nodetypes="zzszzccsccccccccccccccsszsc" />
  </g>
</svg>
