<?xml version="1.0" encoding="UTF-8" standalone="no"?>
<!-- Created with Inkscape (http://www.inkscape.org/) -->

<svg
   xmlns:dc="http://purl.org/dc/elements/1.1/"
   xmlns:cc="http://creativecommons.org/ns#"
   xmlns:rdf="http://www.w3.org/1999/02/22-rdf-syntax-ns#"
   xmlns:svg="http://www.w3.org/2000/svg"
   xmlns="http://www.w3.org/2000/svg"
   xmlns:sodipodi="http://sodipodi.sourceforge.net/DTD/sodipodi-0.dtd"
   xmlns:inkscape="http://www.inkscape.org/namespaces/inkscape"
   width="1867.0034"
   height="1309.2594"
   viewBox="0 0 493.97798 346.40822"
   version="1.1"
   id="svg8"
   inkscape:export-filename="C:\Users\厂永刄先生\Documents\GXI3CW2\JáÈŭcèŭ\N̂i\24-三重県\章ﾈｵﾝ.png"
   inkscape:export-xdpi="96"
   inkscape:export-ydpi="96"
   inkscape:version="0.92.4 (5da689c313, 2019-01-14)"
   sodipodi:docname="章ﾈｵﾝ.svg">
  <defs
     id="defs2">
    <filter
       inkscape:collect="always"
       style="color-interpolation-filters:sRGB"
       id="filter822"
       x="-0.025043502"
       width="1.050087"
       y="-0.037402544"
       height="1.0748051">
      <feGaussianBlur
         inkscape:collect="always"
         stdDeviation="17.613073"
         id="feGaussianBlur824" />
    </filter>
    <filter
       inkscape:collect="always"
       style="color-interpolation-filters:sRGB"
       id="filter840"
       x="-0.035060901"
       width="1.0701218"
       y="-0.05236356"
       height="1.1047271">
      <feGaussianBlur
         inkscape:collect="always"
         stdDeviation="24.658303"
         id="feGaussianBlur842" />
    </filter>
    <filter
       inkscape:collect="always"
       style="color-interpolation-filters:sRGB"
       id="filter846"
       x="-0.050087005"
       width="1.100174"
       y="-0.074805088"
       height="1.1496102">
      <feGaussianBlur
         inkscape:collect="always"
         stdDeviation="35.226147"
         id="feGaussianBlur848" />
    </filter>
  </defs>
  <sodipodi:namedview
     id="base"
     pagecolor="#000000"
     bordercolor="#666666"
     borderopacity="1.0"
     inkscape:pageopacity="1"
     inkscape:pageshadow="2"
     inkscape:zoom="0.3403601"
     inkscape:cx="933.50173"
     inkscape:cy="654.6296"
     inkscape:document-units="px"
     inkscape:current-layer="layer1"
     showgrid="false"
     units="px"
     fit-margin-top="5"
     fit-margin-left="5"
     fit-margin-right="5"
     fit-margin-bottom="5"
     inkscape:showpageshadow="false"
     inkscape:snap-intersection-paths="true"
     inkscape:object-paths="false"
     inkscape:pagecheckerboard="true"
     inkscape:snap-smooth-nodes="false"
     inkscape:window-width="1366"
     inkscape:window-height="745"
     inkscape:window-x="-8"
     inkscape:window-y="-8"
     inkscape:window-maximized="1"
     inkscape:object-nodes="true"
     inkscape:snap-nodes="true" />
  <metadata
     id="metadata5">
    <rdf:RDF>
      <cc:Work
         rdf:about="">
        <dc:format>image/svg+xml</dc:format>
        <dc:type
           rdf:resource="http://purl.org/dc/dcmitype/StillImage" />
        <dc:title></dc:title>
      </cc:Work>
    </rdf:RDF>
  </metadata>
  <g
     inkscape:label="レイヤー 1"
     inkscape:groupmode="layer"
     id="layer1"
     transform="translate(-18.685966,-358.47618)">
    <path
       sodipodi:nodetypes="cszcccccccccccccsszcccsc"
       inkscape:connector-curvature="0"
       id="path844"
       transform="matrix(0.26458334,0,0,0.26458334,-112.33452,299.26785)"
       d="m 997.16406,894.75781 c 75.28184,-5.4e-4 136.31054,61.02831 136.31054,136.31059 0,75.2822 -61.0287,136.311 -136.31054,136.3105 -75.28184,-5e-4 -136.30857,-61.029 -136.30859,-136.3105 m 659.07423,337.5429 58.8848,59.9278 m 162.8164,-228.2598 -58.8848,-59.9297 m 589.9101,-827.02733 -229.5332,52.99218 -471.4687,660.97465 -37.752,-38.42191 M 1965.1191,384.32227 1114.875,580.61719 c 101.5661,26.46754 189.6113,86.38985 251.709,167.27539 l -29.2149,40.95898 -46.0243,-46.83594 c -74.8265,-76.14595 -178.9871,-123.375 -294.18074,-123.375 -227.77715,10e-6 -412.42578,184.65063 -412.42578,412.42778 0,227.7772 184.64863,412.4277 412.42578,412.4277 m 370.10544,-230.25 41.5684,42.3047 -32.3857,45.4014 c -42.5652,59.6717 -98.4505,108.5096 -163.2979,142.54"
       style="opacity:1;fill:none;fill-opacity:1;fill-rule:evenodd;stroke:#20ff00;stroke-width:40;stroke-linecap:round;stroke-linejoin:round;stroke-miterlimit:4;stroke-dasharray:none;stroke-dashoffset:0;stroke-opacity:1;paint-order:normal;filter:url(#filter846)" />
    <path
       style="opacity:1;fill:none;fill-opacity:1;fill-rule:evenodd;stroke:#20ff00;stroke-width:40;stroke-linecap:round;stroke-linejoin:round;stroke-miterlimit:4;stroke-dasharray:none;stroke-dashoffset:0;stroke-opacity:1;paint-order:normal;filter:url(#filter840)"
       d="m 997.16406,894.75781 c 75.28184,-5.4e-4 136.31054,61.02831 136.31054,136.31059 0,75.2822 -61.0287,136.311 -136.31054,136.3105 -75.28184,-5e-4 -136.30857,-61.029 -136.30859,-136.3105 m 659.07423,337.5429 58.8848,59.9278 m 162.8164,-228.2598 -58.8848,-59.9297 m 589.9101,-827.02733 -229.5332,52.99218 -471.4687,660.97465 -37.752,-38.42191 M 1965.1191,384.32227 1114.875,580.61719 c 101.5661,26.46754 189.6113,86.38985 251.709,167.27539 l -29.2149,40.95898 -46.0243,-46.83594 c -74.8265,-76.14595 -178.9871,-123.375 -294.18074,-123.375 -227.77715,10e-6 -412.42578,184.65063 -412.42578,412.42778 0,227.7772 184.64863,412.4277 412.42578,412.4277 m 370.10544,-230.25 41.5684,42.3047 -32.3857,45.4014 c -42.5652,59.6717 -98.4505,108.5096 -163.2979,142.54"
       transform="matrix(0.26458334,0,0,0.26458334,-112.33452,299.26785)"
       id="path826"
       inkscape:connector-curvature="0"
       sodipodi:nodetypes="cszcccccccccccccsszcccsc" />
    <path
       sodipodi:nodetypes="cszcccccccccccccsszcccsc"
       inkscape:connector-curvature="0"
       id="path816"
       transform="matrix(0.26458334,0,0,0.26458334,-112.33452,299.26785)"
       d="m 997.16406,894.75781 c 75.28184,-5.4e-4 136.31054,61.02831 136.31054,136.31059 0,75.2822 -61.0287,136.311 -136.31054,136.3105 -75.28184,-5e-4 -136.30857,-61.029 -136.30859,-136.3105 m 659.07423,337.5429 58.8848,59.9278 m 162.8164,-228.2598 -58.8848,-59.9297 m 589.9101,-827.02733 -229.5332,52.99218 -471.4687,660.97465 -37.752,-38.42191 M 1965.1191,384.32227 1114.875,580.61719 c 101.5661,26.46754 189.6113,86.38985 251.709,167.27539 l -29.2149,40.95898 -46.0243,-46.83594 c -74.8265,-76.14595 -178.9871,-123.375 -294.18074,-123.375 -227.77715,10e-6 -412.42578,184.65063 -412.42578,412.42778 0,227.7772 184.64863,412.4277 412.42578,412.4277 m 370.10544,-230.25 41.5684,42.3047 -32.3857,45.4014 c -42.5652,59.6717 -98.4505,108.5096 -163.2979,142.54"
       style="opacity:1;fill:none;fill-opacity:1;fill-rule:evenodd;stroke:#20ff00;stroke-width:40;stroke-linecap:round;stroke-linejoin:round;stroke-miterlimit:4;stroke-dasharray:none;stroke-dashoffset:0;stroke-opacity:1;paint-order:normal;filter:url(#filter822)" />
    <path
       style="opacity:1;fill:none;fill-opacity:1;fill-rule:evenodd;stroke:#c8ffc0;stroke-width:20;stroke-linecap:round;stroke-linejoin:round;stroke-miterlimit:4;stroke-dasharray:none;stroke-dashoffset:0;stroke-opacity:1;paint-order:normal"
       d="m 997.16406,894.75781 c 75.28184,-5.4e-4 136.31054,61.02831 136.31054,136.31059 0,75.2822 -61.0287,136.311 -136.31054,136.3105 -75.28184,-5e-4 -136.30857,-61.029 -136.30859,-136.3105 m 659.07423,337.5429 58.8848,59.9278 m 162.8164,-228.2598 -58.8848,-59.9297 m 589.9101,-827.02733 -229.5332,52.99218 -471.4687,660.97465 -37.752,-38.42191 M 1965.1191,384.32227 1114.875,580.61719 c 101.5661,26.46754 189.6113,86.38985 251.709,167.27539 l -29.2149,40.95898 -46.0243,-46.83594 c -74.8265,-76.14595 -178.9871,-123.375 -294.18074,-123.375 -227.77715,10e-6 -412.42578,184.65063 -412.42578,412.42778 0,227.7772 184.64863,412.4277 412.42578,412.4277 m 370.10544,-230.25 41.5684,42.3047 -32.3857,45.4014 c -42.5652,59.6717 -98.4505,108.5096 -163.2979,142.54"
       transform="matrix(0.26458334,0,0,0.26458334,-112.33452,299.26785)"
       id="circle835"
       inkscape:connector-curvature="0"
       sodipodi:nodetypes="cszcccccccccccccsszcccsc" />
  </g>
</svg>
