<?xml version="1.0" encoding="UTF-8" standalone="no"?>
<!-- Created with Inkscape (http://www.inkscape.org/) -->

<svg
   width="2736"
   height="1800"
   viewBox="0 0 723.9 476.25001"
   version="1.1"
   id="svg8"
   inkscape:export-filename="C:\Users\厂永刄先生\Documents\GXI3CW2\,pjóŭ\Ghana.png"
   inkscape:export-xdpi="96"
   inkscape:export-ydpi="96"
   inkscape:version="1.3 (0e150ed6c4, 2023-07-21)"
   sodipodi:docname="uz_1992_air-force.svg"
   xmlns:inkscape="http://www.inkscape.org/namespaces/inkscape"
   xmlns:sodipodi="http://sodipodi.sourceforge.net/DTD/sodipodi-0.dtd"
   xmlns="http://www.w3.org/2000/svg"
   xmlns:svg="http://www.w3.org/2000/svg"
   xmlns:rdf="http://www.w3.org/1999/02/22-rdf-syntax-ns#"
   xmlns:cc="http://creativecommons.org/ns#"
   xmlns:dc="http://purl.org/dc/elements/1.1/">
  <defs
     id="defs2" />
  <sodipodi:namedview
     id="base"
     pagecolor="#ffffff"
     bordercolor="#666666"
     borderopacity="1.0"
     inkscape:pageopacity="0.0"
     inkscape:pageshadow="2"
     inkscape:zoom="0.30222223"
     inkscape:cx="1187.8676"
     inkscape:cy="1143.1985"
     inkscape:document-units="px"
     inkscape:current-layer="layer1"
     showgrid="false"
     units="px"
     fit-margin-top="0"
     fit-margin-left="0"
     fit-margin-right="0"
     fit-margin-bottom="0"
     inkscape:showpageshadow="false"
     inkscape:snap-intersection-paths="true"
     inkscape:object-paths="false"
     inkscape:pagecheckerboard="true"
     inkscape:snap-smooth-nodes="false"
     inkscape:window-width="1920"
     inkscape:window-height="1009"
     inkscape:window-x="-8"
     inkscape:window-y="-8"
     inkscape:window-maximized="1"
     inkscape:object-nodes="true"
     inkscape:snap-nodes="true"
     inkscape:deskcolor="#505050" />
  <metadata
     id="metadata5">
    <rdf:RDF>
      <cc:Work
         rdf:about="">
        <dc:format>image/svg+xml</dc:format>
        <dc:type
           rdf:resource="http://purl.org/dc/dcmitype/StillImage" />
      </cc:Work>
    </rdf:RDF>
  </metadata>
  <g
     inkscape:label="レイヤー 1"
     inkscape:groupmode="layer"
     id="layer1"
     transform="translate(585.6741,-468.33663)">
    <path
       style="fill:#ffc000;fill-opacity:1;stroke:none;stroke-width:2.28521px;stroke-linecap:butt;stroke-linejoin:miter;stroke-opacity:1"
       d="m -576.1491,627.08663 357.1875,79.375 -357.1875,79.375 z"
       id="path827"
       inkscape:connector-curvature="0"
       sodipodi:nodetypes="cccc" />
    <path
       style="fill:#ffffff;fill-opacity:1;stroke:none;stroke-width:0.457042px;stroke-linecap:butt;stroke-linejoin:miter;stroke-opacity:1"
       d="m -585.6741,468.33663 h 9.525 v 476.25 h -9.525 z"
       id="path4"
       inkscape:connector-curvature="0"
       sodipodi:nodetypes="ccccc" />
    <path
       style="fill:#009cff;fill-opacity:1;stroke:none;stroke-width:2.28521px;stroke-linecap:butt;stroke-linejoin:miter;stroke-opacity:1"
       d="m -576.1491,627.08663 357.1875,79.375 -357.1875,-238.125 z"
       id="path5"
       inkscape:connector-curvature="0"
       sodipodi:nodetypes="cccc" />
    <path
       style="fill:#009cff;fill-opacity:1;stroke:none;stroke-width:2.28521px;stroke-linecap:butt;stroke-linejoin:miter;stroke-opacity:1"
       d="m -576.1491,944.58663 357.1875,-238.125 -357.1875,79.375 z"
       id="path6"
       inkscape:connector-curvature="0"
       sodipodi:nodetypes="cccc" />
    <path
       style="fill:#ffc000;fill-opacity:1;stroke:none;stroke-width:2.28521px;stroke-linecap:butt;stroke-linejoin:miter;stroke-opacity:1"
       d="m 138.2259,627.08663 -357.1875,79.375 357.1875,79.375 z"
       id="path7"
       inkscape:connector-curvature="0"
       sodipodi:nodetypes="cccc" />
    <path
       style="fill:#009cff;fill-opacity:1;stroke:none;stroke-width:2.28521px;stroke-linecap:butt;stroke-linejoin:miter;stroke-opacity:1"
       d="m 138.2259,627.08663 -357.1875,79.375 357.1875,-238.125 z"
       id="path8"
       inkscape:connector-curvature="0"
       sodipodi:nodetypes="cccc" />
    <path
       style="fill:#009cff;fill-opacity:1;stroke:none;stroke-width:2.28521px;stroke-linecap:butt;stroke-linejoin:miter;stroke-opacity:1"
       d="m 138.2259,944.58663 -357.1875,-238.125 357.1875,79.375 z"
       id="path9"
       inkscape:connector-curvature="0"
       sodipodi:nodetypes="cccc" />
    <path
       style="fill:#009cff;fill-opacity:1;stroke:none;stroke-width:2.28521px;stroke-linecap:butt;stroke-linejoin:miter;stroke-opacity:1"
       d="m -338.0241,468.33663 119.0625,238.125 119.0625,-238.125 z"
       id="path10"
       inkscape:connector-curvature="0"
       sodipodi:nodetypes="cccc" />
    <path
       style="fill:#009cff;fill-opacity:1;stroke:none;stroke-width:2.28521px;stroke-linecap:butt;stroke-linejoin:miter;stroke-opacity:1"
       d="m -338.0241,944.58663 119.0625,-238.125 119.0625,238.125 z"
       id="path11"
       inkscape:connector-curvature="0"
       sodipodi:nodetypes="cccc" />
    <path
       style="fill:#ffc000;fill-opacity:1;stroke:none;stroke-width:2.28521px;stroke-linecap:butt;stroke-linejoin:miter;stroke-opacity:1"
       d="m -338.0241,468.33663 119.0625,238.125 -357.1875,-238.125 z"
       id="path12"
       inkscape:connector-curvature="0"
       sodipodi:nodetypes="cccc" />
    <path
       style="fill:#ffc000;fill-opacity:1;stroke:none;stroke-width:2.28521px;stroke-linecap:butt;stroke-linejoin:miter;stroke-opacity:1"
       d="m -338.0241,944.58663 119.0625,-238.125 -357.1875,238.125 z"
       id="path13"
       inkscape:connector-curvature="0"
       sodipodi:nodetypes="cccc" />
    <path
       style="fill:#ffc000;fill-opacity:1;stroke:none;stroke-width:2.28521px;stroke-linecap:butt;stroke-linejoin:miter;stroke-opacity:1"
       d="m 138.2259,468.33663 -357.1875,238.125 119.0625,-238.125 z"
       id="path14"
       inkscape:connector-curvature="0"
       sodipodi:nodetypes="cccc" />
    <path
       style="fill:#ffc000;fill-opacity:1;stroke:none;stroke-width:2.28521px;stroke-linecap:butt;stroke-linejoin:miter;stroke-opacity:1"
       d="m 138.2259,944.58663 -357.1875,-238.125 119.0625,238.125 z"
       id="path15"
       inkscape:connector-curvature="0"
       sodipodi:nodetypes="cccc" />
    <g
       id="g4"
       transform="matrix(0.39999999,0,0,0.39999999,-492.16279,367.67948)">
      <path
         id="path3"
         style="fill:#009cff;fill-opacity:1;stroke-width:13.0235;stroke-linecap:round;stroke-linejoin:round;stroke-miterlimit:155;paint-order:stroke fill markers"
         d="m 444.87799,846.95538 c 0,-131.51267 106.61233,-238.125 238.125,-238.125 131.51267,0 238.125,106.61233 238.125,238.125 0,131.51267 -106.61233,238.12502 -238.125,238.12502 -131.51267,0 -238.125,-106.61235 -238.125,-238.12502 z"
         sodipodi:nodetypes="szszs" />
      <path
         id="path1"
         style="fill:#ff0000;fill-opacity:1;stroke-width:9.02962;stroke-linecap:round;stroke-linejoin:round;stroke-miterlimit:155;paint-order:stroke fill markers"
         d="m 517.903,846.95537 c 0,91.1822 73.91779,165.10003 165.09999,165.10003 91.1822,0 165.09999,-73.91783 165.09999,-165.10003 0,-91.1822 -73.91779,-165.09999 -165.09999,-165.09999 -91.1822,0 -165.09999,73.91779 -165.09999,165.09999 z"
         sodipodi:nodetypes="zzzzz" />
      <path
         id="circle8"
         style="fill:#ffffff;fill-opacity:1;stroke-width:8.50868;stroke-linecap:round;stroke-linejoin:round;stroke-miterlimit:155;paint-order:stroke fill markers"
         d="m 527.42799,846.95538 c 0,85.9217 69.6533,155.57502 155.575,155.57502 85.9217,0 155.575,-69.65332 155.575,-155.57502 0,-85.9217 -69.6533,-155.575 -155.575,-155.575 -85.9217,0 -155.575,69.6533 -155.575,155.575 z"
         sodipodi:nodetypes="zzzzz" />
      <path
         id="path2"
         style="fill:#ff0000;fill-opacity:1;stroke-width:4.51481;stroke-linecap:round;stroke-linejoin:round;stroke-miterlimit:155;paint-order:stroke fill markers"
         d="m 600.45299,846.95539 c 0,45.59111 36.9589,82.55 82.55,82.55 45.59111,0 82.55,-36.95889 82.55,-82.55 0,-45.5911 -36.95889,-82.55 -82.55,-82.55 -45.5911,0 -82.55,36.9589 -82.55,82.55 z"
         sodipodi:nodetypes="zzzzz" />
      <path
         id="circle9"
         style="fill:#16c000;fill-opacity:1;stroke-width:3.99387;stroke-linecap:round;stroke-linejoin:round;stroke-miterlimit:155;paint-order:stroke fill markers"
         d="m 609.97799,846.95539 c 0,40.33059 32.69441,73.025 73.025,73.025 40.33059,0 73.025,-32.69441 73.025,-73.025 0,-40.33059 -32.69441,-73.025 -73.025,-73.025 -40.33059,0 -73.025,32.69441 -73.025,73.025 z"
         sodipodi:nodetypes="zzzzz" />
    </g>
  </g>
</svg>
