<?xml version="1.0" encoding="UTF-8" standalone="no"?>
<!-- Created with Inkscape (http://www.inkscape.org/) -->

<svg
   xmlns:dc="http://purl.org/dc/elements/1.1/"
   xmlns:cc="http://creativecommons.org/ns#"
   xmlns:rdf="http://www.w3.org/1999/02/22-rdf-syntax-ns#"
   xmlns:svg="http://www.w3.org/2000/svg"
   xmlns="http://www.w3.org/2000/svg"
   xmlns:sodipodi="http://sodipodi.sourceforge.net/DTD/sodipodi-0.dtd"
   xmlns:inkscape="http://www.inkscape.org/namespaces/inkscape"
   width="2736"
   height="1800"
   viewBox="0 0 723.89999 476.25001"
   version="1.1"
   id="svg8"
   inkscape:export-filename="C:\Users\厂永刄先生\Documents\GXI3CW2\Fìcèŭ\K̕ùmulu\𬂛.png"
   inkscape:export-xdpi="96"
   inkscape:export-ydpi="96"
   inkscape:version="0.92.4 (5da689c313, 2019-01-14)"
   sodipodi:docname="1996 - コピー.svg">
  <defs
     id="defs2" />
  <sodipodi:namedview
     id="base"
     pagecolor="#ffffff"
     bordercolor="#666666"
     borderopacity="1.0"
     inkscape:pageopacity="0.0"
     inkscape:pageshadow="2"
     inkscape:zoom="0.18751948"
     inkscape:cx="986.95808"
     inkscape:cy="1260.0729"
     inkscape:document-units="px"
     inkscape:current-layer="layer1"
     showgrid="false"
     units="px"
     fit-margin-top="0"
     fit-margin-left="0"
     fit-margin-right="0"
     fit-margin-bottom="0"
     inkscape:showpageshadow="false"
     inkscape:snap-intersection-paths="true"
     inkscape:object-paths="false"
     inkscape:pagecheckerboard="true"
     inkscape:snap-smooth-nodes="true"
     inkscape:window-width="1366"
     inkscape:window-height="745"
     inkscape:window-x="-8"
     inkscape:window-y="-8"
     inkscape:window-maximized="1"
     inkscape:object-nodes="true" />
  <metadata
     id="metadata5">
    <rdf:RDF>
      <cc:Work
         rdf:about="">
        <dc:format>image/svg+xml</dc:format>
        <dc:type
           rdf:resource="http://purl.org/dc/dcmitype/StillImage" />
        <dc:title />
      </cc:Work>
    </rdf:RDF>
  </metadata>
  <g
     inkscape:label="レイヤー 1"
     inkscape:groupmode="layer"
     id="layer1"
     transform="translate(112.33452,-299.26786)">
    <path
       style="fill:#ffffff;fill-opacity:1;stroke:none;stroke-width:0.51166773px;stroke-linecap:butt;stroke-linejoin:miter;stroke-opacity:1"
       d="m 602.04048,299.26786 h 9.525 v 476.25 h -9.525 z"
       id="path819"
       inkscape:connector-curvature="0"
       sodipodi:nodetypes="ccccc" />
    <path
       style="fill:#17c000;fill-opacity:1;stroke:none;stroke-width:2.79946303px;stroke-linecap:butt;stroke-linejoin:miter;stroke-opacity:1"
       d="m -112.33452,775.51786 v -476.25 h 714.375 v 476.25 z"
       id="path820"
       inkscape:connector-curvature="0"
       sodipodi:nodetypes="ccccc" />
    <path
       style="opacity:1;fill:#ffffff;fill-opacity:1;fill-rule:evenodd;stroke:none;stroke-width:0.22373059;stroke-linecap:round;stroke-linejoin:round;stroke-miterlimit:4;stroke-dasharray:none;stroke-dashoffset:0;stroke-opacity:0.50196078"
       d="m 244.85297,680.26786 c 78.9077,0 142.875,-63.96731 142.875,-142.87499 0,-78.90769 -63.9673,-142.875 -142.875,-142.875 -26.47405,0 -51.26632,7.20087 -72.52528,19.75022 13.96119,-5.07474 29.02905,-7.84397 44.74403,-7.84397 72.33206,0 130.96875,58.63669 130.96875,130.96875 0,72.33205 -58.63669,130.96874 -130.96875,130.96874 -15.71498,0 -30.78284,-2.76923 -44.74403,-7.84396 21.25896,12.54935 46.05123,19.75021 72.52528,19.75021 z"
       id="path829"
       inkscape:connector-curvature="0"
       sodipodi:nodetypes="szscszscs" />
    <path
       style="color:#000000;font-style:normal;font-variant:normal;font-weight:normal;font-stretch:normal;font-size:medium;line-height:normal;font-family:sans-serif;font-variant-ligatures:normal;font-variant-position:normal;font-variant-caps:normal;font-variant-numeric:normal;font-variant-alternates:normal;font-feature-settings:normal;text-indent:0;text-align:start;text-decoration:none;text-decoration-line:none;text-decoration-style:solid;text-decoration-color:#000000;letter-spacing:normal;word-spacing:normal;text-transform:none;writing-mode:lr-tb;direction:ltr;text-orientation:mixed;dominant-baseline:auto;baseline-shift:baseline;text-anchor:start;white-space:normal;shape-padding:0;clip-rule:nonzero;display:inline;overflow:visible;visibility:visible;opacity:1;isolation:auto;mix-blend-mode:normal;color-interpolation:sRGB;color-interpolation-filters:linearRGB;solid-color:#000000;solid-opacity:1;vector-effect:none;fill:#ffffff;fill-opacity:1;fill-rule:nonzero;stroke:none;stroke-width:45;stroke-linecap:butt;stroke-linejoin:miter;stroke-miterlimit:4;stroke-dasharray:none;stroke-dashoffset:0;stroke-opacity:1;color-rendering:auto;image-rendering:auto;shape-rendering:auto;text-rendering:auto;enable-background:accumulate"
       d="M 1048.5176 489.39453 L 1048.5176 544.14062 L 993.76953 544.14062 L 993.76953 598.88867 L 1048.5176 598.88867 L 1048.5176 653.63672 L 1103.2637 653.63672 L 1103.2637 598.88867 L 1158.0117 598.88867 L 1158.0117 544.14062 L 1103.2637 544.14062 L 1103.2637 489.39453 L 1048.5176 489.39453 z "
       transform="matrix(0.26458333,0,0,0.26458333,-112.33452,299.26786)"
       id="path887" />
    <path
       id="path894"
       d="m 165.08576,588.09124 v -14.48491 h -14.48543 v -14.48542 h 14.48543 v -14.48542 h 14.4849 v 14.48542 h 14.48541 v 14.48542 h -14.48541 v 14.48491 z"
       style="color:#000000;font-style:normal;font-variant:normal;font-weight:normal;font-stretch:normal;font-size:medium;line-height:normal;font-family:sans-serif;font-variant-ligatures:normal;font-variant-position:normal;font-variant-caps:normal;font-variant-numeric:normal;font-variant-alternates:normal;font-feature-settings:normal;text-indent:0;text-align:start;text-decoration:none;text-decoration-line:none;text-decoration-style:solid;text-decoration-color:#000000;letter-spacing:normal;word-spacing:normal;text-transform:none;writing-mode:lr-tb;direction:ltr;text-orientation:mixed;dominant-baseline:auto;baseline-shift:baseline;text-anchor:start;white-space:normal;shape-padding:0;clip-rule:nonzero;display:inline;overflow:visible;visibility:visible;opacity:1;isolation:auto;mix-blend-mode:normal;color-interpolation:sRGB;color-interpolation-filters:linearRGB;solid-color:#000000;solid-opacity:1;vector-effect:none;fill:#ffffff;fill-opacity:1;fill-rule:nonzero;stroke:none;stroke-width:11.90625;stroke-linecap:butt;stroke-linejoin:miter;stroke-miterlimit:4;stroke-dasharray:none;stroke-dashoffset:0;stroke-opacity:1;color-rendering:auto;image-rendering:auto;shape-rendering:auto;text-rendering:auto;enable-background:accumulate"
       inkscape:connector-curvature="0" />
    <path
       id="path896"
       d="m 165.08576,486.6945 v 14.4849 h -14.48543 v 14.48542 h 14.48543 v 14.48542 h 14.4849 v -14.48542 h 14.48541 V 501.1794 h -14.48541 v -14.4849 z"
       style="color:#000000;font-style:normal;font-variant:normal;font-weight:normal;font-stretch:normal;font-size:medium;line-height:normal;font-family:sans-serif;font-variant-ligatures:normal;font-variant-position:normal;font-variant-caps:normal;font-variant-numeric:normal;font-variant-alternates:normal;font-feature-settings:normal;text-indent:0;text-align:start;text-decoration:none;text-decoration-line:none;text-decoration-style:solid;text-decoration-color:#000000;letter-spacing:normal;word-spacing:normal;text-transform:none;writing-mode:lr-tb;direction:ltr;text-orientation:mixed;dominant-baseline:auto;baseline-shift:baseline;text-anchor:start;white-space:normal;shape-padding:0;clip-rule:nonzero;display:inline;overflow:visible;visibility:visible;opacity:1;isolation:auto;mix-blend-mode:normal;color-interpolation:sRGB;color-interpolation-filters:linearRGB;solid-color:#000000;solid-opacity:1;vector-effect:none;fill:#ffffff;fill-opacity:1;fill-rule:nonzero;stroke:none;stroke-width:11.90625;stroke-linecap:butt;stroke-linejoin:miter;stroke-miterlimit:4;stroke-dasharray:none;stroke-dashoffset:0;stroke-opacity:1;color-rendering:auto;image-rendering:auto;shape-rendering:auto;text-rendering:auto;enable-background:accumulate"
       inkscape:connector-curvature="0" />
    <path
       inkscape:connector-curvature="0"
       style="color:#000000;font-style:normal;font-variant:normal;font-weight:normal;font-stretch:normal;font-size:medium;line-height:normal;font-family:sans-serif;font-variant-ligatures:normal;font-variant-position:normal;font-variant-caps:normal;font-variant-numeric:normal;font-variant-alternates:normal;font-feature-settings:normal;text-indent:0;text-align:start;text-decoration:none;text-decoration-line:none;text-decoration-style:solid;text-decoration-color:#000000;letter-spacing:normal;word-spacing:normal;text-transform:none;writing-mode:lr-tb;direction:ltr;text-orientation:mixed;dominant-baseline:auto;baseline-shift:baseline;text-anchor:start;white-space:normal;shape-padding:0;clip-rule:nonzero;display:inline;overflow:visible;visibility:visible;opacity:1;isolation:auto;mix-blend-mode:normal;color-interpolation:sRGB;color-interpolation-filters:linearRGB;solid-color:#000000;solid-opacity:1;vector-effect:none;fill:#ffffff;fill-opacity:1;fill-rule:nonzero;stroke:none;stroke-width:11.90625;stroke-linecap:butt;stroke-linejoin:miter;stroke-miterlimit:4;stroke-dasharray:none;stroke-dashoffset:0;stroke-opacity:1;color-rendering:auto;image-rendering:auto;shape-rendering:auto;text-rendering:auto;enable-background:accumulate"
       d="m 165.08576,646.03224 v -14.48491 h -14.48543 v -14.48542 h 14.48543 v -14.48542 h 14.4849 v 14.48542 h 14.48541 v 14.48542 h -14.48541 v 14.48491 z"
       id="path898" />
    <g
       style="font-style:normal;font-variant:normal;font-weight:normal;font-stretch:normal;font-size:50.79999924px;line-height:1.25;font-family:Impact;-inkscape-font-specification:Impact;text-align:center;letter-spacing:0px;word-spacing:0px;text-anchor:middle;fill:#ffffff;fill-opacity:1;stroke:none;stroke-width:0.26458332"
       id="g985"
       transform="translate(381.95505,156.28784)">
      <path
         d="m 174.86337,201.39513 q 2.22208,-5.21932 2.79052,-0.25839 0,0 2.4288,25.99325 3.92741,35.03662 -0.93018,44.44173 -0.62012,1.18856 -1.13688,0.62012 -0.46509,-0.62012 -0.41341,-1.757 0.15503,-8.88835 -1.29191,-19.99878 -0.0517,-0.46509 -2.27377,-20.15381 l -2.27376,-19.17195 q -0.2067,-1.96371 0.46509,-3.56568 z"
         style="font-style:normal;font-variant:normal;font-weight:normal;font-stretch:normal;font-size:105.83333588px;font-family:Amiri;-inkscape-font-specification:Amiri;stroke-width:0.26458332;fill:#ffffff"
         id="path952"
         inkscape:connector-curvature="0" />
      <path
         inkscape:connector-curvature="0"
         d="m 149.99669,256.02745 q -3.15226,3.10058 -7.54475,3.25561 -2.79053,0.0517 -2.73886,-1.0852 0.0517,-1.13689 2.58383,-2.53215 17.1049,-9.50846 19.48201,-34.82992 1.24024,-13.07413 0.25838,-25.88989 -0.31005,-4.08244 0.36174,-5.21932 2.22209,-3.97908 2.6355,-4.65088 0.41341,-0.67179 1.03353,-0.51676 0.67179,0.10335 0.82682,0.72347 1.60197,6.14949 3.15226,7.95817 1.55029,1.757 0.15503,3.15226 l -2.94556,3.04891 q 0.41341,11.88558 -2.63549,27.49186 -3.56568,18.24178 -14.62444,29.09384 z"
         style="font-style:normal;font-variant:normal;font-weight:normal;font-stretch:normal;font-size:105.83333588px;font-family:Amiri;-inkscape-font-specification:Amiri;stroke-width:0.26458332;fill:#ffffff"
         id="path954" />
      <path
         d="m 137.2843,255.35565 c 10.16303,1.03353 16.70872,0.99908 19.63705,-0.10335 -0.72347,-6.85574 -5.70164,-16.74316 -14.93449,-29.66227 -6.64903,-9.33621 -11.60997,-15.55461 -14.88281,-18.6552 l -1.49862,2.73885 c -0.96463,0.62012 -1.8259,0.48232 -2.58382,-0.41341 l -7.28638,-7.85481 c -1.03353,-1.20579 -1.44694,-2.58383 -1.24023,-4.13412 l 1.39526,-9.25008 c 0.13781,-0.93017 0.46509,-1.41249 0.98185,-1.44694 1.44694,-0.10335 5.4088,3.73793 11.88558,11.52384 6.47678,7.75147 12.05784,15.17565 16.74317,22.27255 9.99077,15.15842 15.31344,27.45741 15.96801,36.89697 0.24116,3.99631 -0.80959,6.2873 -3.15226,6.87297 -6.54568,1.68809 -13.71148,1.91202 -21.49739,0.67179 -0.82683,-0.13781 -1.34359,-0.39619 -1.5503,-0.77515 -1.24023,-3.06613 -1.05075,-5.64995 0.56844,-7.75146 0.51677,-0.68902 0.99908,-0.99908 1.44694,-0.93018 z m 26.5927,-83.28174 c 1.30913,-0.34451 2.15318,0.0344 2.53214,1.13689 0.41341,1.10242 0.12058,1.98092 -0.8785,2.63549 -7.57921,4.99539 -19.89543,7.2347 -36.94865,6.71794 -0.62012,1.41248 -1.24023,2.48046 -1.86035,3.20394 -0.65457,0.68902 -1.18856,0.80959 -1.60197,0.36173 l -4.90926,-5.01261 c -0.96463,-0.89573 0.1378,-3.16949 3.30729,-6.82129 0.58566,-0.65457 1.56752,-0.86128 2.94556,-0.62012 12.54014,2.0326 25.01139,1.49861 37.41374,-1.60197 z"
         style="font-style:normal;font-variant:normal;font-weight:normal;font-stretch:normal;font-size:105.83333588px;font-family:Amiri;-inkscape-font-specification:Amiri;stroke-width:0.26458332;fill:#ffffff"
         id="path956"
         inkscape:connector-curvature="0"
         sodipodi:nodetypes="cccccccccccccccccccccccccccc" />
      <path
         d="m 186.62498,201.21941 c 1.99816,2.27376 3.34175,5.46047 4.03077,9.56014 0.68902,4.06521 0.60289,8.02707 -0.25838,11.88558 -0.82683,3.82405 -2.22209,6.30452 -4.1858,7.4414 -11.29992,6.58013 -25.42482,10.28361 -42.3747,11.11044 -16.91543,0.86127 -28.26702,-2.29099 -34.05479,-9.45679 -3.75515,-4.61643 -4.30637,-10.02523 -1.65364,-16.2264 1.10243,-2.58382 2.99723,-5.3399 5.68441,-8.26823 0.44786,-0.48231 0.89572,-0.65457 1.34359,-0.51676 0.44786,0.1378 0.70624,0.43063 0.77514,0.87849 0.10335,0.44787 0,0.84405 -0.31006,1.18856 -1.27469,1.41249 -2.29099,2.94556 -3.04891,4.59921 -0.72347,1.61919 -0.91295,3.03168 -0.56844,4.23746 2.48047,9.09505 12.72964,13.50478 30.7475,13.22917 18.05231,-0.27561 32.83177,-3.73793 44.3384,-10.38696 -0.24115,-2.65273 -1.92925,-6.0117 -5.06429,-10.07691 -0.20671,-0.27561 -0.13781,-1.22301 0.2067,-2.8422 0.37897,-1.61919 1.18857,-3.73793 2.4288,-6.3562 0.44786,-0.96463 1.10243,-0.96463 1.9637,0 z m -58.06366,43.21183 c 0.17226,-0.27561 0.46509,-0.34451 0.8785,-0.2067 2.79053,0.96462 5.28823,2.42879 7.49309,4.3925 0.31006,0.2756 0.36174,0.58566 0.15503,0.93017 l -5.0643,8.00985 c -0.2067,0.31006 -0.56844,0.25838 -1.0852,-0.15503 -0.48231,-0.41342 -2.94556,-1.96371 -7.38974,-4.65088 -0.2756,-0.17226 -0.32728,-0.37896 -0.15503,-0.62012 z"
         style="font-style:normal;font-variant:normal;font-weight:normal;font-stretch:normal;font-size:105.83333588px;font-family:Amiri;-inkscape-font-specification:Amiri;stroke-width:0.26458332;fill:#ffffff"
         id="path958"
         inkscape:connector-curvature="0"
         sodipodi:nodetypes="cccccccccccccccccccccccccccc" />
    </g>
    <g
       style="font-style:normal;font-variant:normal;font-weight:normal;font-stretch:normal;font-size:50.79999924px;line-height:1.25;font-family:Impact;-inkscape-font-specification:Impact;text-align:center;letter-spacing:0px;word-spacing:0px;text-anchor:middle;fill:#ffffff;fill-opacity:1;stroke:none;stroke-width:0.26458332"
       id="g992"
       transform="translate(611.57997,479.46294)">
      <path
         d="m -45.484924,196.10346 q 2.222086,-5.21932 2.790527,-0.25839 0,0 2.428793,25.99325 3.927409,35.03662 -0.930176,44.44173 -0.620117,1.18856 -1.136882,0.62012 -0.465088,-0.62012 -0.413411,-1.757 0.155029,-8.88835 -1.291911,-19.99878 -0.05168,-0.46509 -2.273763,-20.15381 l -2.273763,-19.17195 q -0.206706,-1.96371 0.465088,-3.56568 z"
         style="font-style:normal;font-variant:normal;font-weight:normal;font-stretch:normal;font-size:105.83333588px;font-family:Amiri;-inkscape-font-specification:Amiri;stroke-width:0.26458332;fill:#ffffff"
         id="path960"
         inkscape:connector-curvature="0" />
      <path
         inkscape:connector-curvature="0"
         d="m -70.351664,256.02745 q -3.152262,3.10058 -7.544759,3.25561 -2.790527,0.0517 -2.738851,-1.0852 0.05168,-1.13689 2.583822,-2.53215 17.104899,-9.50846 19.482015,-34.82992 1.240235,-13.07413 0.258382,-25.88989 -0.310058,-4.08244 0.361736,-5.21932 2.222086,-3.97908 2.635498,-4.65088 0.413411,-0.67179 1.033528,-0.51676 0.671794,0.10335 0.826823,0.72347 1.60197,6.14949 3.152263,7.95817 1.550293,1.757 0.155029,3.15226 l -2.945557,3.04891 q 0.413412,11.88558 -2.635498,27.49186 -3.565674,18.24178 -14.624431,29.09384 z"
         style="font-style:normal;font-variant:normal;font-weight:normal;font-stretch:normal;font-size:105.83333588px;font-family:Amiri;-inkscape-font-specification:Amiri;stroke-width:0.26458332;fill:#ffffff"
         id="path962" />
      <path
         inkscape:connector-curvature="0"
         d="m -83.064025,255.35565 q 15.244548,1.55029 19.637045,-0.10335 -1.085205,-10.28361 -14.934489,-29.66227 -9.973552,-14.00432 -14.882813,-18.6552 l -1.498617,2.73885 q -1.44694,0.93018 -2.583821,-0.41341 l -7.28638,-7.85481 q -1.55029,-1.80868 -1.24023,-4.13412 l 1.39526,-9.25008 q 0.20671,-1.39526 0.98185,-1.44694 2.17041,-0.15503 11.885584,11.52384 9.715169,11.6272 16.743164,22.27255 14.986166,22.73763 15.968018,36.89697 0.361735,5.99447 -3.152262,6.87297 -9.818523,2.53214 -21.497397,0.67179 -1.240234,-0.20671 -1.550293,-0.77515 -1.860351,-4.5992 0.568441,-7.75146 0.775147,-1.03353 1.44694,-0.93018 z"
         style="font-style:normal;font-variant:normal;font-weight:normal;font-stretch:normal;font-size:105.83333588px;font-family:Amiri;-inkscape-font-specification:Amiri;stroke-width:0.26458332;fill:#ffffff"
         id="path964" />
      <path
         d="m -64.993832,186.80785 c -0.03447,-0.86127 0.310039,-1.30914 1.033517,-1.34359 0.757927,-0.0345 1.188567,0.37895 1.29192,1.24024 0.551213,5.16764 0.01722,9.40511 -1.60197,12.7124 -1.619198,3.30729 -4.444176,5.28822 -8.474934,5.94279 -2.859425,0.48231 -5.27099,0.22393 -7.234697,-0.77515 -0.861271,-0.44786 -1.136877,-1.56751 -0.826817,-3.35896 l 1.601967,-8.06153 c 0.344507,-1.757 0.981847,-1.96371 1.91202,-0.62012 0.93018,1.34359 2.428796,2.13597 4.495847,2.37712 2.101511,0.20671 3.944637,-0.39618 5.529377,-1.80867 1.584747,-1.41249 2.34267,-3.514 2.27377,-6.30453 z m -3.989423,21.19767 c 0.172253,-0.27561 0.465086,-0.34451 0.8785,-0.2067 2.790524,0.96463 5.288216,2.42879 7.493074,4.3925 0.31006,0.27561 0.361736,0.58566 0.15503,0.93017 l -5.064287,8.00985 c -0.206707,0.31006 -0.568444,0.25838 -1.08521,-0.15503 -0.482312,-0.41341 -2.945553,-1.96371 -7.389724,-4.65088 -0.275607,-0.17225 -0.32728,-0.37896 -0.15502,-0.62012 z"
         style="font-style:normal;font-variant:normal;font-weight:normal;font-stretch:normal;font-size:105.83333588px;font-family:Amiri;-inkscape-font-specification:Amiri;stroke-width:0.26458332;fill:#ffffff"
         id="path966"
         inkscape:connector-curvature="0"
         sodipodi:nodetypes="ccccccccccscccccccccc" />
      <path
         d="m -74.192239,208.71866 c -0.482313,8.02707 -2.359889,14.72778 -5.632727,20.10213 -2.411565,3.85851 -6.063363,7.1658 -10.955394,9.92188 -4.960936,2.82497 -10.64535,4.20301 -17.05323,4.13411 -13.60813,-0.1378 -20.41219,-6.27007 -20.41219,-18.39681 0,-2.65272 0.91295,-6.51123 2.73885,-11.57552 1.51585,-4.30637 3.08337,-7.94094 4.70256,-10.90373 0.24115,-0.37896 0.56844,-0.56844 0.98185,-0.56844 0.41341,0 0.72347,0.17226 0.93018,0.51677 0.20671,0.34451 0.18947,0.75792 -0.0517,1.24023 -3.20394,6.75239 -4.82313,11.38604 -4.85758,13.90096 -0.10335,9.23285 5.63273,13.96986 17.20825,14.21102 12.85021,0.27561 21.876355,-3.49677 27.078444,-11.31714 0.275607,-0.41341 0.44786,-0.8785 0.51676,-1.39526 0.826827,-5.85667 -0.361729,-12.10952 -3.565667,-18.75855 -0.37896,-0.79237 -0.396193,-1.56752 -0.0517,-2.32544 l 3.203937,-6.82129 c 0.344513,-0.72347 0.723473,-0.84404 1.13688,-0.36173 3.135038,4.16857 4.49585,10.30084 4.082437,18.39681 z m -33.817051,1.50895 c 0.17225,-0.27561 0.46509,-0.34451 0.8785,-0.20671 2.79054,0.96463 5.28823,2.4288 7.493086,4.3925 0.31006,0.27561 0.361737,0.58567 0.15503,0.93017 l -5.064286,8.00985 c -0.20671,0.31006 -0.56844,0.25839 -1.0852,-0.15503 -0.48232,-0.41341 -2.94557,-1.9637 -7.38974,-4.65088 -0.27561,-0.17225 -0.32728,-0.37896 -0.15503,-0.62012 z"
         style="font-style:normal;font-variant:normal;font-weight:normal;font-stretch:normal;font-size:105.83333588px;font-family:Amiri;-inkscape-font-specification:Amiri;stroke-width:0.26458332;fill:#ffffff"
         id="path968"
         inkscape:connector-curvature="0"
         sodipodi:nodetypes="ccccsccsccccccccccccccccccccc" />
    </g>
    <g
       style="font-style:normal;font-variant:normal;font-weight:normal;font-stretch:normal;font-size:50.79999924px;line-height:1.25;font-family:Impact;-inkscape-font-specification:Impact;text-align:center;letter-spacing:0px;word-spacing:0px;text-anchor:middle;fill:#ffffff;fill-opacity:1;stroke:none;stroke-width:0.26458332"
       id="g999"
       transform="translate(247.31526,294.63402)">
      <path
         inkscape:connector-curvature="0"
         d="m -239.17855,180.42482 q 0.25838,-0.51676 0.77514,-0.51676 0.56844,-0.0517 0.82683,0.8785 0.31006,0.93017 2.32544,3.30729 2.01538,2.32544 3.97908,3.82406 1.18856,0.8785 -0.10335,2.94555 l -2.73885,4.18579 q 0.51676,5.01262 2.79053,20.56722 2.27376,15.55461 1.86035,21.54908 -0.77515,12.7124 -9.71517,15.24454 -2.53215,0.72348 -4.44418,0.56845 -2.89388,-0.25839 -4.28914,-5.42603 -1.39526,-5.16764 -0.46509,-7.95817 0.20671,-0.62012 0.72347,-0.62012 0.51677,-0.0517 0.82683,0.41341 2.42879,2.06706 6.61458,1.96371 4.23747,-0.10335 6.92464,-2.11874 0.31006,-3.35896 -3.97908,-29.40389 l -2.11874,-12.76408 q -0.46509,-3.35896 -1.18856,-6.25284 -0.72347,-2.89388 -0.93017,-3.87574 -0.20671,-1.03352 0.2067,-1.9637 z"
         style="font-style:normal;font-variant:normal;font-weight:normal;font-stretch:normal;font-size:105.83333588px;font-family:Amiri;-inkscape-font-specification:Amiri;fill:#ffffff;stroke-width:0.26458332"
         id="path970" />
      <path
         inkscape:connector-curvature="0"
         d="m -246.87834,239.38763 q 1.80867,2.17041 2.53214,6.45956 0.72347,4.28914 0.41342,8.52661 -0.31006,4.23747 -3.20394,11.05876 -4.03076,9.50846 -12.14396,14.4694 -4.1858,2.58382 -9.04338,2.89388 -4.80591,0.31006 -16.53646,-7.07967 -0.82682,-0.51677 -0.62012,-1.29191 0.20671,-0.72347 1.24024,-0.41342 14.98616,5.06429 27.49186,-5.4777 5.99447,-5.06429 9.56014,-12.29899 0.46509,-0.93017 0.15503,-2.68717 -0.31006,-1.757 -3.77238,-5.06429 -0.46509,-0.41342 -0.10335,-1.39527 l 2.48047,-7.49308 q 0.2067,-0.62012 0.72347,-0.62012 0.51676,-0.0517 0.82682,0.41341 z"
         style="font-style:normal;font-variant:normal;font-weight:normal;font-stretch:normal;font-size:105.83333588px;font-family:Amiri;-inkscape-font-specification:Amiri;fill:#ffffff;stroke-width:0.26458332"
         id="path972" />
      <path
         d="m -258.85691,204.10294 q 3.66903,-10.23193 8.68164,-10.12858 2.99724,0 5.63273,4.23747 2.6355,4.18579 3.35897,9.45679 0.72347,5.27099 -1.65364,14.62443 -2.32544,9.35343 -9.30176,17.25993 -6.92464,7.90649 -11.16211,8.37158 -4.18579,0.51676 -11.11043,-0.6718 -6.92465,-1.13688 -10.12859,-2.48046 -1.13688,-0.46509 -0.98185,-1.24024 0.15503,-0.77515 1.34359,-0.62012 8.3199,1.03353 15.70963,-0.67179 4.49585,-1.03353 12.91911,-8.47493 8.47494,-7.38973 10.07691,-12.40235 -0.51677,-4.34082 -1.29191,-4.80591 -3.97909,6.1495 -10.23194,2.99724 -6.20117,-3.15227 -1.86035,-15.45126 z m 9.56014,3.97909 q -3.04891,-4.96094 -6.56291,-0.46509 2.68718,2.99723 6.56291,0.46509 z"
         style="font-style:normal;font-variant:normal;font-weight:normal;font-stretch:normal;font-size:105.83333588px;font-family:Amiri;-inkscape-font-specification:Amiri;fill:#ffffff;stroke-width:0.26458332"
         id="path974"
         inkscape:connector-curvature="0" />
      <path
         d="m -258.67087,227.20232 -2.53214,5.68441 q -0.41341,0.8785 -1.18856,0.98185 -25.32145,3.35897 -35.45003,9.97356 -19.89543,13.02246 -15.55461,31.41927 2.37711,10.23193 15.29622,15.91634 6.97632,3.04891 22.11752,3.92741 15.14119,0.93017 28.11198,-0.25838 1.65364,-0.15503 2.11873,0.41341 0.46509,0.62011 -0.0517,1.34358 -0.46508,0.72347 -1.29191,0.98186 -6.40787,1.86035 -10.0769,4.08244 -5.42603,3.25561 -6.71794,3.35896 -31.10921,2.73885 -44.90682,-7.33805 -13.79761,-10.0769 -8.88835,-31.5743 4.90927,-21.4974 25.63152,-31.41927 -14.31438,-3.46232 -21.44572,0.72347 -0.62012,0.36173 -1.24024,0.25838 -0.56844,-0.15503 -0.56844,-0.72347 0.10335,-2.48047 1.08521,-5.21932 1.9637,-5.52938 10.18025,-5.99447 4.08244,-0.2067 13.02246,1.5503 8.94003,1.757 15.08952,1.65364 6.20118,-0.10335 15.24455,-1.65364 3.10059,-0.51677 2.01538,1.91202 z"
         style="font-style:normal;font-variant:normal;font-weight:normal;font-stretch:normal;font-size:105.83333588px;font-family:Amiri;-inkscape-font-specification:Amiri;fill:#ffffff;stroke-width:0.26458332"
         id="path976"
         inkscape:connector-curvature="0" />
      <path
         id="path979"
         style="font-style:normal;font-variant:normal;font-weight:normal;font-stretch:normal;font-size:105.83333588px;font-family:Amiri;-inkscape-font-specification:Amiri;fill:#ffffff;stroke-width:0.26458332"
         d="m -220.11,222.56181 q 2.22209,-5.21932 2.79053,-0.25839 0,0 2.42879,25.99325 3.92741,35.03662 -0.93017,44.44173 -0.62012,1.18856 -1.13689,0.62012 -0.46509,-0.62012 -0.41341,-1.757 0.15503,-8.88835 -1.29191,-19.99878 -0.0517,-0.46509 -2.27376,-20.15381 l -2.27377,-19.17195 q -0.20671,-1.96371 0.46509,-3.56568 z"
         inkscape:connector-curvature="0" />
    </g>
  </g>
</svg>
