<?xml version="1.0" encoding="UTF-8" standalone="no"?>
<!-- Created with Inkscape (http://www.inkscape.org/) -->

<svg
   width="2736"
   height="1800"
   viewBox="0 0 723.9 476.25001"
   version="1.1"
   id="svg8"
   inkscape:export-filename="C:\Users\厂永刄先生\Documents\GXI3CW2\JáÈŭcèŭ\Èŭmen\Í\意軍.png"
   inkscape:export-xdpi="96"
   inkscape:export-ydpi="96"
   inkscape:version="1.3 (0e150ed6c4, 2023-07-21)"
   sodipodi:docname="pe_1822.svg"
   xmlns:inkscape="http://www.inkscape.org/namespaces/inkscape"
   xmlns:sodipodi="http://sodipodi.sourceforge.net/DTD/sodipodi-0.dtd"
   xmlns="http://www.w3.org/2000/svg"
   xmlns:svg="http://www.w3.org/2000/svg"
   xmlns:rdf="http://www.w3.org/1999/02/22-rdf-syntax-ns#"
   xmlns:cc="http://creativecommons.org/ns#"
   xmlns:dc="http://purl.org/dc/elements/1.1/">
  <defs
     id="defs2" />
  <sodipodi:namedview
     id="base"
     pagecolor="#ffffff"
     bordercolor="#666666"
     borderopacity="1.0"
     inkscape:pageopacity="0.0"
     inkscape:pageshadow="2"
     inkscape:zoom="0.30222223"
     inkscape:cx="1116.7279"
     inkscape:cy="1159.7426"
     inkscape:document-units="px"
     inkscape:current-layer="layer1"
     showgrid="false"
     units="px"
     fit-margin-top="0"
     fit-margin-left="0"
     fit-margin-right="0"
     fit-margin-bottom="0"
     inkscape:showpageshadow="false"
     inkscape:snap-intersection-paths="true"
     inkscape:object-paths="false"
     inkscape:pagecheckerboard="true"
     inkscape:snap-smooth-nodes="false"
     inkscape:window-width="1920"
     inkscape:window-height="1009"
     inkscape:window-x="-8"
     inkscape:window-y="-8"
     inkscape:window-maximized="1"
     inkscape:object-nodes="true"
     inkscape:snap-nodes="true"
     inkscape:deskcolor="#505050" />
  <metadata
     id="metadata5">
    <rdf:RDF>
      <cc:Work
         rdf:about="">
        <dc:format>image/svg+xml</dc:format>
        <dc:type
           rdf:resource="http://purl.org/dc/dcmitype/StillImage" />
      </cc:Work>
    </rdf:RDF>
  </metadata>
  <g
     inkscape:label="レイヤー 1"
     inkscape:groupmode="layer"
     id="layer1"
     transform="translate(112.33452,-299.26786)">
    <path
       style="fill:#ffffff;fill-opacity:1;stroke:none;stroke-width:0.51166773px;stroke-linecap:butt;stroke-linejoin:miter;stroke-opacity:1"
       d="m -102.80952,299.26786 h -9.525 v 476.25 h 9.525 z"
       id="path1079"
       inkscape:connector-curvature="0"
       sodipodi:nodetypes="ccccc" />
    <path
       sodipodi:nodetypes="ccccc"
       inkscape:connector-curvature="0"
       id="path880"
       d="m 135.31548,299.26786 h -238.125 v 476.25 h 238.125 z"
       style="fill:#ff0000;fill-opacity:1;stroke:none;stroke-width:2.55833864px;stroke-linecap:butt;stroke-linejoin:miter;stroke-opacity:1" />
    <path
       style="fill:#ffffff;fill-opacity:1;stroke:none;stroke-width:2.55833864px;stroke-linecap:butt;stroke-linejoin:miter;stroke-opacity:1"
       d="m 373.44048,299.26786 h -238.125 v 476.25 h 238.125 z"
       id="path882"
       inkscape:connector-curvature="0"
       sodipodi:nodetypes="ccccc" />
    <path
       sodipodi:nodetypes="ccccc"
       inkscape:connector-curvature="0"
       id="path884"
       d="m 611.56548,299.26786 h -238.125 v 476.25 h 238.125 z"
       style="fill:#ff0000;fill-opacity:1;stroke:none;stroke-width:2.55833864px;stroke-linecap:butt;stroke-linejoin:miter;stroke-opacity:1" />
    <g
       id="g3"
       transform="matrix(1.6199999,0,0,1.6199999,-179.14558,-333.18352)"
       style="stroke:none">
      <path
         sodipodi:nodetypes="czczccczczccczczccczczccczczccczczccczczccczczccczczccczczccczczccczczccczczccczczccczczccczczccc"
         inkscape:connector-curvature="0"
         id="path867-8"
         d="m 270.20053,511.06192 c 1.1932,-9.06324 4.08912,-12.22112 4.95302,-18.78307 0.86389,-6.56197 5.3746,-14.30839 5.35802,-19.76087 1.8276,4.41221 -3.25554,12.86259 -2.40948,19.28903 0.84606,6.42644 -2.74511,10.63263 -2.81448,20.2668 l 17.63246,-35.79174 -12.84054,37.77662 c 4.57072,-7.91672 8.45468,-9.726 11.76397,-15.45786 3.30929,-5.73187 10.44106,-11.16246 12.51232,-16.20623 0,4.77573 -7.93002,10.63764 -9.60766,16.89867 -1.67764,6.26103 -6.60508,8.77276 -10.35601,17.64702 l 29.98718,-26.3196 -26.3196,29.98718 c 7.25239,-5.56496 11.53308,-5.75019 16.78395,-9.77932 5.25087,-4.02915 13.91797,-6.31714 17.76173,-10.18435 -1.82759,4.41222 -11.39724,6.79321 -15.34316,11.93564 -3.94593,5.14243 -9.45949,5.57732 -16.32093,12.34065 l 37.77661,-12.84055 -35.79173,17.63248 c 8.82996,-2.36598 12.85568,-0.89896 19.24874,-2.61198 6.39307,-1.71302 15.276,-0.5101 20.30708,-2.61198 -3.37695,3.37695 -13.12932,1.91457 -18.7428,5.15552 -5.61349,3.24095 -10.87378,1.53278 -19.80114,5.15552 l 39.81491,2.59337 -39.81491,2.59338 c 9.06324,1.1932 12.22112,4.08912 18.78307,4.95302 6.56197,0.86389 14.30839,5.3746 19.76088,5.35802 -4.41222,1.8276 -12.8626,-3.25554 -19.28904,-2.40948 -6.42644,0.84606 -10.63263,-2.74511 -20.2668,-2.81448 l 35.79174,17.63246 -37.77661,-12.84054 c 7.91672,4.57072 9.726,8.45468 15.45786,11.76397 5.73187,3.30929 11.16246,10.44106 16.20623,12.51232 -4.77574,0 -10.63763,-7.93002 -16.89867,-9.60766 -6.26103,-1.67764 -8.77276,-6.60508 -17.64701,-10.35601 l 26.31959,29.98718 -29.98719,-26.3196 c 5.56496,7.25239 5.75019,11.53308 9.77932,16.78395 4.02915,5.25086 6.31714,13.91797 10.18435,17.76172 -4.41221,-1.82759 -6.79321,-11.39724 -11.93564,-15.34316 -5.14243,-3.94593 -5.57732,-9.45948 -12.34064,-16.32093 l 12.84055,37.77661 -17.63248,-35.79173 c 2.36598,8.82996 0.89896,12.85568 2.61197,19.24874 1.71302,6.39307 0.51011,15.276 2.61198,20.30709 -3.37695,-3.37695 -1.91457,-13.12933 -5.15552,-18.7428 -3.24095,-5.61349 -1.53278,-10.87378 -5.15552,-19.80115 l -2.59337,39.81492 -2.59337,-39.81492 c -1.1932,9.06324 -4.08912,12.22113 -4.95302,18.78307 -0.86389,6.56197 -5.37459,14.30839 -5.35801,19.76087 -1.8276,-4.41221 3.25553,-12.86259 2.40947,-19.28903 -0.84606,-6.42644 2.74511,-10.63263 2.81448,-20.2668 l -17.63246,35.79174 12.84054,-37.77662 c -4.57072,7.91672 -8.45468,9.726 -11.76397,15.45786 -3.30929,5.73187 -10.44106,11.16246 -12.51232,16.20623 0,-4.77573 7.93002,-10.63764 9.60766,-16.89867 1.67764,-6.26103 6.60508,-8.77276 10.35601,-17.64702 l -29.98718,26.3196 26.31961,-29.98718 c -7.25239,5.56496 -11.53309,5.75019 -16.78395,9.77932 -5.25087,4.02915 -13.91797,6.31714 -17.76173,10.18435 1.82758,-4.41221 11.39724,-6.79321 15.34316,-11.93564 3.94593,-5.14243 9.45949,-5.57732 16.32093,-12.34065 l -37.77661,12.84055 35.79173,-17.63248 c -8.82996,2.36598 -12.85568,0.89896 -19.24874,2.61198 -6.39307,1.71302 -15.276,0.5101 -20.30707,2.61198 3.37693,-3.37695 13.12932,-1.91457 18.74279,-5.15552 5.6135,-3.24095 10.87379,-1.53278 19.80114,-5.15552 l -39.81491,-2.59337 39.81491,-2.59337 c -9.06324,-1.1932 -12.22112,-4.08912 -18.78307,-4.95302 -6.56197,-0.86389 -14.30839,-5.3746 -19.76087,-5.35802 4.4122,-1.8276 12.86259,3.25554 19.28902,2.40948 6.42645,-0.84606 10.63264,2.74511 20.2668,2.81448 l -35.79174,-17.63246 37.77662,12.84054 c -7.91672,-4.57072 -9.726,-8.45468 -15.45786,-11.76397 -5.73187,-3.30929 -11.16246,-10.44106 -16.20623,-12.51232 4.77573,0 10.63764,7.93002 16.89867,9.60766 6.26103,1.67764 8.77276,6.60508 17.64702,10.35601 l -26.3196,-29.98718 29.98718,26.3196 c -5.56496,-7.25239 -5.75019,-11.53308 -9.77932,-16.78395 -4.02915,-5.25087 -6.31714,-13.91797 -10.18435,-17.76173 4.41221,1.82759 6.79321,11.39724 11.93564,15.34316 5.14243,3.94593 5.57732,9.45949 12.34065,16.32093 l -12.84055,-37.77661 17.63248,35.79173 c -2.36598,-8.82996 -0.89896,-12.85568 -2.61198,-19.24874 -1.71302,-6.39307 -0.5101,-15.276 -2.61198,-20.30708 3.37695,3.37695 1.91457,13.12932 5.15552,18.7428 3.24095,5.61349 1.53278,10.87378 5.15552,19.80114 l 2.59337,-39.81491 z"
         style="color:#000000;font-style:normal;font-variant:normal;font-weight:normal;font-stretch:normal;font-size:medium;line-height:normal;font-family:sans-serif;font-variant-ligatures:normal;font-variant-position:normal;font-variant-caps:normal;font-variant-numeric:normal;font-variant-alternates:normal;font-feature-settings:normal;text-indent:0;text-align:start;text-decoration:none;text-decoration-line:none;text-decoration-style:solid;text-decoration-color:#000000;letter-spacing:normal;word-spacing:normal;text-transform:none;writing-mode:lr-tb;direction:ltr;text-orientation:mixed;dominant-baseline:auto;baseline-shift:baseline;text-anchor:start;white-space:normal;shape-padding:0;clip-rule:nonzero;display:inline;overflow:visible;visibility:visible;isolation:auto;mix-blend-mode:normal;color-interpolation:sRGB;color-interpolation-filters:linearRGB;solid-color:#000000;solid-opacity:1;fill:#ff0000;fill-opacity:1;fill-rule:evenodd;stroke:#a80000;stroke-width:0.587963;stroke-linecap:round;stroke-linejoin:round;stroke-miterlimit:18.9;stroke-dasharray:none;stroke-dashoffset:0;stroke-opacity:1;paint-order:normal;color-rendering:auto;image-rendering:auto;shape-rendering:auto;text-rendering:auto;enable-background:accumulate" />
      <path
         sodipodi:nodetypes="ssszsssszs"
         style="fill:#a80000;fill-opacity:1;fill-rule:evenodd;stroke:none;stroke-width:0.909638;stroke-linecap:round;stroke-linejoin:miter;stroke-miterlimit:4;stroke-dasharray:none;stroke-dashoffset:0;stroke-opacity:1"
         d="m 242.33944,537.39285 c 0,13.95498 11.31274,25.26772 25.26772,25.26772 13.95497,-10e-6 25.2677,-11.31275 25.2677,-25.26772 0,-13.95497 -11.31273,-25.2677 -25.2677,-25.26771 -13.95497,-10e-6 -25.26772,11.31274 -25.26772,25.26771 z m 51.72604,0 c 0,14.61253 -11.84579,26.45833 -26.45832,26.45834 -14.61254,0 -26.45834,-11.8458 -26.45834,-26.45834 0,-14.61254 11.84581,-26.45834 26.45834,-26.45833 14.61253,10e-6 26.45832,11.8458 26.45832,26.45833 z"
         id="path892"
         inkscape:connector-curvature="0" />
      <path
         inkscape:connector-curvature="0"
         id="path894"
         d="m 242.33944,537.39285 c 0,13.95498 11.31274,25.26772 25.26772,25.26772 13.95497,-10e-6 25.2677,-11.31275 25.2677,-25.26772 0,-13.95497 -11.31273,-25.2677 -25.2677,-25.26771 -13.95497,-10e-6 -25.26772,11.31274 -25.26772,25.26771 z"
         style="fill:#ff0000;fill-opacity:1;fill-rule:evenodd;stroke:none;stroke-width:0.909638;stroke-linecap:round;stroke-linejoin:miter;stroke-miterlimit:4;stroke-dasharray:none;stroke-dashoffset:0;stroke-opacity:1"
         sodipodi:nodetypes="ssszs" />
      <g
         id="g2"
         style="fill:#a80000;fill-opacity:1;stroke:none">
        <path
           style="fill:#a80000;fill-opacity:1;stroke:none;stroke-width:0.305474px;stroke-linecap:butt;stroke-linejoin:miter;stroke-opacity:1"
           d="m 253.43023,533.10255 c 2.85447,-2.35621 6.97239,-2.83075 9.82686,0 -1.22048,-2.54328 -6.52755,-4.19046 -9.82686,0 z"
           id="path896"
           inkscape:connector-curvature="0"
           sodipodi:nodetypes="ccc" />
        <path
           sodipodi:nodetypes="ccc"
           inkscape:connector-curvature="0"
           id="path900"
           d="m 253.43023,533.10255 c 2.85447,2.35622 6.97239,2.83076 9.82686,0 -1.22048,2.54329 -6.52755,4.19047 -9.82686,0 z"
           style="fill:#a80000;fill-opacity:1;stroke:none;stroke-width:0.305474px;stroke-linecap:butt;stroke-linejoin:miter;stroke-opacity:1" />
        <path
           inkscape:connector-curvature="0"
           id="path904"
           d="m 256.15051,533.10255 c 0,1.21124 0.9819,2.19314 2.19314,2.19314 1.21125,0 2.19316,-0.9819 2.19316,-2.19314 0,-1.21125 -0.98191,-2.19316 -2.19316,-2.19316 -1.21124,0 -2.19314,0.98191 -2.19314,2.19316 z"
           style="fill:#a80000;fill-opacity:1;fill-rule:evenodd;stroke:none;stroke-width:0.0789533;stroke-linecap:round;stroke-linejoin:miter;stroke-miterlimit:4;stroke-dasharray:none;stroke-dashoffset:0;stroke-opacity:1"
           sodipodi:nodetypes="ssszs" />
        <path
           style="fill:#a80000;fill-opacity:1;stroke:none;stroke-width:0.219315px;stroke-linecap:butt;stroke-linejoin:miter;stroke-opacity:1"
           d="m 264.63829,539.54735 c 0.95275,-0.34558 2.28452,-2.46622 1.40515,-6.94346 -1.03418,-5.26546 -7.60384,-9.64469 -14.31143,-2.84607 5.48571,-3.67618 14.39801,-1.51325 14.39047,3.87354 -0.003,2.48531 -0.77293,5.03952 -1.48419,5.91599 z"
           id="path908"
           inkscape:connector-curvature="0"
           sodipodi:nodetypes="cscsc" />
        <path
           sodipodi:nodetypes="ccc"
           inkscape:connector-curvature="0"
           id="path929"
           d="m 281.78408,533.10255 c -2.85447,-2.35621 -6.97239,-2.83075 -9.82686,0 1.22048,-2.54328 6.52755,-4.19046 9.82686,0 z"
           style="fill:#a80000;fill-opacity:1;stroke:none;stroke-width:0.305474px;stroke-linecap:butt;stroke-linejoin:miter;stroke-opacity:1" />
        <path
           style="fill:#a80000;fill-opacity:1;stroke:none;stroke-width:0.305474px;stroke-linecap:butt;stroke-linejoin:miter;stroke-opacity:1"
           d="m 281.78408,533.10255 c -2.85447,2.35622 -6.97239,2.83076 -9.82686,0 1.22048,2.54329 6.52755,4.19047 9.82686,0 z"
           id="path931"
           inkscape:connector-curvature="0"
           sodipodi:nodetypes="ccc" />
        <path
           sodipodi:nodetypes="ssszs"
           style="fill:#a80000;fill-opacity:1;fill-rule:evenodd;stroke:none;stroke-width:0.0789533;stroke-linecap:round;stroke-linejoin:miter;stroke-miterlimit:4;stroke-dasharray:none;stroke-dashoffset:0;stroke-opacity:1"
           d="m 279.0638,533.10255 c 0,1.21124 -0.9819,2.19314 -2.19314,2.19314 -1.21125,0 -2.19316,-0.9819 -2.19316,-2.19314 0,-1.21125 0.98191,-2.19316 2.19316,-2.19316 1.21124,0 2.19314,0.98191 2.19314,2.19316 z"
           id="path933"
           inkscape:connector-curvature="0" />
        <path
           sodipodi:nodetypes="cscsc"
           inkscape:connector-curvature="0"
           id="path935"
           d="m 270.57602,539.54735 c -0.95275,-0.34558 -2.28452,-2.46622 -1.40515,-6.94346 1.03418,-5.26546 7.60384,-9.64469 14.31143,-2.84607 -5.48571,-3.67618 -14.39801,-1.51325 -14.39047,3.87354 0.003,2.48531 0.77293,5.03952 1.48419,5.91599 z"
           style="fill:#a80000;fill-opacity:1;stroke:none;stroke-width:0.219315px;stroke-linecap:butt;stroke-linejoin:miter;stroke-opacity:1" />
        <path
           sodipodi:nodetypes="ccczccczc"
           inkscape:connector-curvature="0"
           id="path937"
           d="m 269.44145,542.22231 c 1.53175,2.22609 3.01199,-0.017 1.52897,-2.17228 0.84261,1.83546 -0.27446,3.39096 -1.52897,2.17228 -0.45226,0.96964 -1.14826,1.12399 -1.83429,1.12399 -0.68604,0 -1.38204,-0.15435 -1.8343,-1.12399 -1.25451,1.21868 -2.37158,-0.33682 -1.52897,-2.17228 -1.48302,2.15528 -0.002,4.39837 1.52897,2.17228 0,1.05877 0.91719,1.61402 1.8343,1.61402 0.9171,0 1.83429,-0.55525 1.83429,-1.61402 z"
           style="fill:#a80000;fill-opacity:1;stroke:none;stroke-width:0.142394px;stroke-linecap:butt;stroke-linejoin:miter;stroke-opacity:1" />
        <path
           style="fill:#a80000;fill-opacity:1;stroke:none;stroke-width:0.309873px;stroke-linecap:butt;stroke-linejoin:miter;stroke-opacity:1"
           d="m 267.60716,552.93857 c -1.49294,0 -3.00754,0.33587 -3.99174,2.44597 0,-2.30405 1.99596,-3.51237 3.99174,-3.51237 1.99576,0 3.99172,1.20832 3.99172,3.51237 -0.9842,-2.1101 -2.49881,-2.44597 -3.99172,-2.44597 z"
           id="path939"
           inkscape:connector-curvature="0"
           sodipodi:nodetypes="zczcz" />
        <path
           sodipodi:nodetypes="zzzczzzcz"
           style="fill:#a80000;fill-opacity:1;stroke:none;stroke-width:0.326633px;stroke-linecap:butt;stroke-linejoin:miter;stroke-opacity:1"
           d="m 271.77692,548.29959 c -1.2118,-0.0302 -2.75757,0.74959 -4.16976,0.74959 -1.4122,0 -2.95797,-0.7799 -4.16977,-0.74959 -1.2118,0.0303 -2.95797,0.686 -2.95797,0.686 0,0 1.7532,-0.39799 2.9519,-0.398 1.19871,-3e-5 2.7713,0.56292 4.17584,0.56292 1.40452,0 2.97711,-0.56295 4.17583,-0.56292 1.1987,10e-6 2.9519,0.398 2.9519,0.398 0,0 -1.74617,-0.65568 -2.95797,-0.686 z"
           id="path945"
           inkscape:connector-curvature="0" />
        <path
           inkscape:connector-curvature="0"
           id="path947"
           d="m 263.68096,546.94674 c -1.2368,0.26664 -3.20154,2.03885 -3.20154,2.03885 0,0 2.1281,-2.60753 3.50493,-2.87379 1.21074,-0.23413 3.3742,1.02307 3.62281,1.02307 0.24859,0 2.41205,-1.2572 3.62281,-1.02307 1.37682,0.26625 3.50492,2.87379 3.50492,2.87379 0,0 -1.96474,-1.77221 -3.20154,-2.03885 -1.29243,-0.27861 -3.58158,0.56293 -3.92619,0.56293 -0.34463,0 -2.63377,-0.84154 -3.9262,-0.56293 z"
           style="fill:#a80000;fill-opacity:1;stroke:none;stroke-width:0.326633px;stroke-linecap:butt;stroke-linejoin:miter;stroke-opacity:1"
           sodipodi:nodetypes="scszscszs" />
        <path
           inkscape:connector-curvature="0"
           id="path953"
           d="m 272.08029,549.3836 c 0.87633,-0.18065 2.6546,-0.39801 2.6546,-0.39801 0,0 -1.60954,0.44981 -2.41103,0.68601 -1.57667,0.46463 -1.58715,1.4382 -4.7167,1.4382 -3.12957,0 -3.14004,-0.97357 -4.71671,-1.4382 -0.80149,-0.2362 -2.41103,-0.68601 -2.41103,-0.68601 0,0 1.77827,0.21736 2.6546,0.39801 1.51023,0.31132 2.73442,1.17925 4.47314,1.17925 1.73871,0 2.9629,-0.86793 4.47313,-1.17925 z"
           style="fill:#a80000;fill-opacity:1;stroke:none;stroke-width:0.326633px;stroke-linecap:butt;stroke-linejoin:miter;stroke-opacity:1"
           sodipodi:nodetypes="acazacaza" />
      </g>
    </g>
  </g>
</svg>
