<?xml version="1.0" encoding="UTF-8" standalone="no"?>
<!-- Created with Inkscape (http://www.inkscape.org/) -->

<svg
   width="1892.6326"
   height="1800"
   viewBox="0 0 500.75903 476.25001"
   version="1.1"
   id="svg8"
   inkscape:export-filename="C:\Users\厂永刄先生\Documents\GXI3CW2\,pjóŭ\Australie.png"
   inkscape:export-xdpi="96"
   inkscape:export-ydpi="96"
   inkscape:version="1.3 (0e150ed6c4, 2023-07-21)"
   sodipodi:docname="za_1957_roundel.svg"
   xmlns:inkscape="http://www.inkscape.org/namespaces/inkscape"
   xmlns:sodipodi="http://sodipodi.sourceforge.net/DTD/sodipodi-0.dtd"
   xmlns="http://www.w3.org/2000/svg"
   xmlns:svg="http://www.w3.org/2000/svg"
   xmlns:rdf="http://www.w3.org/1999/02/22-rdf-syntax-ns#"
   xmlns:cc="http://creativecommons.org/ns#"
   xmlns:dc="http://purl.org/dc/elements/1.1/">
  <defs
     id="defs2" />
  <sodipodi:namedview
     id="base"
     pagecolor="#ffffff"
     bordercolor="#666666"
     borderopacity="1.0"
     inkscape:pageopacity="0.0"
     inkscape:pageshadow="2"
     inkscape:zoom="0.23336859"
     inkscape:cx="-175.68774"
     inkscape:cy="550.63109"
     inkscape:document-units="px"
     inkscape:current-layer="g863"
     showgrid="false"
     units="px"
     fit-margin-top="0"
     fit-margin-left="0"
     fit-margin-right="0"
     fit-margin-bottom="0"
     inkscape:showpageshadow="false"
     inkscape:snap-intersection-paths="false"
     inkscape:object-paths="false"
     inkscape:pagecheckerboard="true"
     inkscape:snap-smooth-nodes="true"
     inkscape:window-width="1920"
     inkscape:window-height="1009"
     inkscape:window-x="-8"
     inkscape:window-y="-8"
     inkscape:window-maximized="1"
     inkscape:object-nodes="true"
     inkscape:deskcolor="#505050" />
  <metadata
     id="metadata5">
    <rdf:RDF>
      <cc:Work
         rdf:about="">
        <dc:format>image/svg+xml</dc:format>
        <dc:type
           rdf:resource="http://purl.org/dc/dcmitype/StillImage" />
      </cc:Work>
    </rdf:RDF>
  </metadata>
  <g
     inkscape:label="レイヤー 1"
     inkscape:groupmode="layer"
     id="layer1"
     transform="translate(-332.38032,-537.39267)">
    <g
       id="g863"
       transform="matrix(0.49999994,0,0,0.49999994,-51.404766,149.63395)">
      <g
         id="path5"
         transform="matrix(2.4890776,0,0,2.4890776,-1142.9718,-1154.8059)">
        <path
           style="color:#000000;fill:#002b80;stroke-miterlimit:3.9;-inkscape-stroke:none"
           d="m 919.91295,848.45401 10.3193,25.48833 -57.1504,41.52236 -21.052,-17.69057 -78.38392,25.88498 48.19912,67.0143 27.4297,-1.93791 21.8297,67.1844 -23.3302,14.5549 0.3961,82.5465 78.6287,-25.1315 6.6332,-26.686 h 70.64145 l 6.6332,26.686 78.6287,25.1315 0.3961,-82.5465 -23.3302,-14.5549 21.8297,-67.1844 27.4297,1.93791 48.1991,-67.0143 -78.3839,-25.88498 -21.052,17.69057 -57.1504,-41.52236 10.3193,-25.48833 -48.84005,-66.54862 z"
           id="path7"
           sodipodi:nodetypes="cccccccccccccccccccccccccc" />
        <path
           style="color:#000000;fill:#ffffff;stroke-miterlimit:3.9;-inkscape-stroke:none"
           d="m 968.75391,775.51758 -53.13477,72.40039 10.00195,24.70312 -52.36914,38.04883 -20.40429,-17.14648 -85.27735,28.16211 52.4375,72.90625 26.58594,-1.87891 20.00391,61.56441 -22.61329,14.1075 0.43165,89.8047 85.54296,-27.3418 6.42774,-25.8653 h 64.73238 l 6.4297,25.8653 85.541,27.3418 0.4317,-89.8047 -22.6133,-14.1075 20.0039,-61.56441 26.5859,1.87891 52.4375,-72.90625 -85.2773,-28.16211 -20.4023,17.14648 -52.3711,-38.04883 10.0019,-24.70312 z m 0,12.77344 44.54489,60.69921 -10.6367,26.27344 61.9317,44.9961 21.6992,-18.23633 71.4922,23.60937 -43.961,61.12305 -28.2734,-1.99805 -23.6563,72.80469 24.0469,15.002 -0.3594,75.289 -71.7168,-22.9219 -6.8359,-27.5078 h -76.55274 l -6.83594,27.5078 -71.71679,22.9219 -0.35938,-75.289 24.04688,-15.002 -23.65625,-72.80469 -28.27344,1.99805 -43.96094,-61.12305 71.49219,-23.60937 21.69922,18.23633 61.93164,-44.9961 -10.63672,-26.27344 z"
           id="path8"
           sodipodi:nodetypes="cccccccccccccccccccccccccccccccccccccccccccccccccccc" />
      </g>
      <path
         id="path1-0"
         style="fill:#e5ac00;fill-opacity:1;stroke:none;stroke-width:0.706754;stroke-linejoin:round;stroke-miterlimit:3.9;stroke-opacity:1"
         d="m 1384.6353,1324.9083 c -13.6738,0.2741 -25.9484,10.1089 -39.6129,10.6891 -5.2071,0.2216 -15.3865,-2.7795 -15.3865,-2.7795 5.5284,9.8027 -4.3116,23.4974 0.3042,33.7616 7.0212,15.6122 22.5667,27.2531 38.1114,34.4229 4.3156,1.9905 9.6908,0.1668 14.1383,1.8442 16.857,6.3534 28.7941,21.9952 44.8728,30.1203 15.1555,7.6582 38.176,3.3234 47.9464,17.2117 1.179,1.6759 0,6.1468 0,6.1468 4.7165,3.1601 7.1578,0.7908 14.753,2.4585 -0.854,7.2895 -2.6417,18.841 -6.1471,26.4325 -7.1605,-4.7892 -13.5886,-12.8962 -15.9821,-19.6707 0,0 -6.6,1.8994 -9.8353,1.2296 -22.1264,-4.5806 -36.4341,-29.1108 -58.3965,-34.4234 -22.9386,-5.5484 -48.2289,11.3738 -70.681,4.1027 -20.5899,-6.668 -29.9954,-33.5762 -50.3086,-41.0461 -29.1744,-10.7292 -92.0559,-0.2688 -121.0532,-11.4682 -19.5758,-7.5606 -47.4664,-41.356 -47.4664,-41.356 0,0 -32.5001,-0.4359 -48.742,-0.9685 -8.5961,-0.2823 -18.1101,-5.0807 -25.7755,-1.1796 -1.1549,0.5877 -2.162,1.9487 -2.1422,3.2445 0.1388,9.1061 8.7707,16.4685 15.7381,22.3335 11.3726,9.5723 31.0057,7.4916 40.3006,19.0917 1.3753,1.7167 1.4574,6.4363 1.4574,6.4363 2.6719,4.1448 7.7316,5.2699 11.4133,8.4676 -2.2053,5.5663 -4.8937,11.567 -10.0584,17.3506 -2.7674,-4.7932 -6.4251,-10.5539 -5.6393,-19.3294 0,0 -5.1211,0.3106 -7.5226,-0.4249 -15.4712,-4.739 -29.2807,-14.4842 -41.6832,-24.8756 -11.4784,-9.6173 -28.3032,-19.0176 -29.4204,-33.9503 -0.2563,-3.4255 2.9644,-6.4036 5.5141,-8.705 10.5597,-9.5319 24.476,-15.2722 38.1936,-19.0396 15.4736,-4.2498 48.0091,-3.5409 48.0091,-3.5409 0,0 -2.1986,-36.2566 2.8356,-53.3326 5.2139,-17.6862 21.0888,-32.4218 27.4979,-47.9973 1.8745,-4.5558 -7.6609,-8.4735 -12.5431,-7.8158 -10.1962,1.3737 -18.3105,6.6931 -25.216,16.1712 -2.0156,2.7663 -5.6831,10.0059 -9.6585,9.5052 -2.152,-0.2712 -6.8269,-1.538 -7.525,-3.1477 1.5699,-1.9859 4.2705,-9.308 4.2705,-9.308 0,0 -7.1692,4.4514 -10.776,5.2152 -3.095,-0.494 -5.0218,-2.403 -5.0218,-5.8311 10.0639,-18.5301 18.6164,-36.4352 32.3907,-49.684 3.8068,-3.6618 9.8842,-7.1404 17.0366,-10.0359 0.9686,-3.2032 5.2818,-17.1388 9.2759,-24.1174 5.0587,-8.8386 12.5758,-19.7121 19.1138,-23.8339 1.3682,-0.8624 2.7487,0.5694 1.6805,2.0415 -4.0277,5.551 -6.458,12.601 -7.6832,17.9872 -0.3378,1.4853 1.0662,4.4344 2.4699,3.844 5.5303,-2.326 10.0569,-7.2237 13.1807,-12.3781 4.5706,-7.5413 10.3585,-15.516 13.4311,-22.8114 0.705,-1.6746 3.4642,-1.71 3.0477,0.4989 -1.6315,8.6507 -3.262,17.0656 -7.1469,24.8924 -3.8152,7.6868 -9.8424,13.4958 -17.5524,17.4112 -4.1306,2.098 -9.1238,2.9756 -12.7174,5.8997 -1.6737,1.362 -3.3643,4.02 -4.7029,6.4656 3.792,-1.0162 10.7673,-2.034 10.7673,-2.034 4.8088,-3.5553 20.2811,-8.5822 30.9224,-10.3737 10.0295,-1.6883 22.4792,-2.2587 31.9474,1.0866 -6.3972,5.8735 -22.0139,12.2579 -31.7303,16.0822 -2.1416,0.843 -5.1472,1.5315 -8.1654,2.0868 21.5708,31.7984 2.7116,73.6813 6.2661,107.2286 0.8025,7.5719 2.435,16.3927 8.2586,21.2985 24.0788,20.2831 74.9146,7.9745 111.0231,18.0755 12.4972,3.4959 23.7965,10.0348 32.3146,17.3449 0,0 15.0707,4.8918 22.8521,4.7786 15.732,-0.2295 30.1998,-12.0214 45.9004,-11.0038 12.3135,0.7983 34.9163,12.0929 34.9163,12.0929 2.2309,-2.4727 7.1568,-1.968 10.0412,-0.3032 5.1683,2.9826 8.0001,7.9806 9.6372,14.0912 -5.0543,1.0753 -9.464,0.5596 -14.4618,-0.1 -3.2005,-0.4228 -6.1961,-1.4259 -6.4933,-4.7157 0,0 -22.7636,-8.0966 -34.5827,-7.8596 z"
         sodipodi:nodetypes="sscsssssccccsssssssssssccccsssssssssssssscscsssssssssssssscsssssssscscscs" />
    </g>
  </g>
</svg>
