<?xml version="1.0" encoding="UTF-8" standalone="no"?>
<!-- Created with Inkscape (http://www.inkscape.org/) -->

<svg
   width="1892.6322"
   height="1800"
   viewBox="0 0 500.75894 476.25001"
   version="1.1"
   id="svg8"
   inkscape:export-filename="C:\Users\厂永刄先生\Documents\GXI3CW2\,pjóŭ\Australie.png"
   inkscape:export-xdpi="96"
   inkscape:export-ydpi="96"
   inkscape:version="1.3 (0e150ed6c4, 2023-07-21)"
   sodipodi:docname="za_1957_roundel.svg"
   xmlns:inkscape="http://www.inkscape.org/namespaces/inkscape"
   xmlns:sodipodi="http://sodipodi.sourceforge.net/DTD/sodipodi-0.dtd"
   xmlns="http://www.w3.org/2000/svg"
   xmlns:svg="http://www.w3.org/2000/svg"
   xmlns:rdf="http://www.w3.org/1999/02/22-rdf-syntax-ns#"
   xmlns:cc="http://creativecommons.org/ns#"
   xmlns:dc="http://purl.org/dc/elements/1.1/">
  <defs
     id="defs2" />
  <sodipodi:namedview
     id="base"
     pagecolor="#ffffff"
     bordercolor="#666666"
     borderopacity="1.0"
     inkscape:pageopacity="0.0"
     inkscape:pageshadow="2"
     inkscape:zoom="0.22583332"
     inkscape:cx="746.12552"
     inkscape:cy="1693.7271"
     inkscape:document-units="px"
     inkscape:current-layer="g863"
     showgrid="false"
     units="px"
     fit-margin-top="0"
     fit-margin-left="0"
     fit-margin-right="0"
     fit-margin-bottom="0"
     inkscape:showpageshadow="false"
     inkscape:snap-intersection-paths="false"
     inkscape:object-paths="false"
     inkscape:pagecheckerboard="true"
     inkscape:snap-smooth-nodes="true"
     inkscape:window-width="1920"
     inkscape:window-height="1009"
     inkscape:window-x="-8"
     inkscape:window-y="-8"
     inkscape:window-maximized="1"
     inkscape:object-nodes="true"
     inkscape:deskcolor="#505050" />
  <metadata
     id="metadata5">
    <rdf:RDF>
      <cc:Work
         rdf:about="">
        <dc:format>image/svg+xml</dc:format>
        <dc:type
           rdf:resource="http://purl.org/dc/dcmitype/StillImage" />
      </cc:Work>
    </rdf:RDF>
  </metadata>
  <g
     inkscape:label="レイヤー 1"
     inkscape:groupmode="layer"
     id="layer1"
     transform="translate(-1020.5197,-574.85441)">
    <g
       id="g863"
       transform="matrix(0.49999994,0,0,0.49999994,-51.404766,149.63395)">
      <g
         id="g22"
         transform="matrix(0.45868829,0,0,0.45868829,1160.4907,460.35368)">
        <path
           style="fill:#002b80;fill-opacity:1;stroke:#f6f6f6;stroke-width:6.77333;stroke-linejoin:round;stroke-miterlimit:3.9;stroke-dasharray:none;stroke-opacity:1"
           d="m 2774.9519,1653.6741 -94.8156,-105.3034 -501.4199,106.58 343.011,380.9525 138.6032,-29.4611 105.1001,323.4648 -129.4491,57.6345 -53.5836,509.8137 468.3035,-208.5021 14.8116,-140.9235 h 340.1113 l 14.8116,140.9235 468.3035,208.5021 -53.5836,-509.8137 -110.4411,-49.1716 71.61,-335.0059 153.0854,32.5393 343.011,-380.9525 -501.4198,-106.58 -94.8157,105.3034 -275.1559,-199.9124 70.8499,-122.7156 -256.3112,-443.94354 -256.3108,443.94354 70.8498,122.7156 z"
           id="path22"
           sodipodi:nodetypes="cccccccccccccccccccccccccc" />
        <path
           style="fill:#ffffff;stroke-width:1.905;stroke-linejoin:round;stroke-miterlimit:3.9"
           d="m 2777.5303,1629.1426 -90.8532,-100.9026 -542.8279,115.3816 371.3373,412.4122 132.8108,-28.2299 94.8993,292.0702 -124.0392,55.2259 -58.0086,551.9149 506.9768,-225.7204 14.1926,-135.0341 h 307.1011 l 14.1926,135.0341 506.9768,225.7204 -58.0086,-551.9149 -105.0312,-46.763 61.4092,-303.6113 147.293,31.3081 371.3373,-412.4122 -542.8279,-115.3816 -90.8532,100.9026 -248.45,-180.5094 67.889,-117.5871 -277.4778,-480.60509 -277.4774,480.60509 67.8888,117.5872 z m 296.7049,-170.2524 -73.8108,-127.8441 235.1443,-407.28199 235.1445,407.28199 -73.8108,127.8441 301.8617,219.3155 98.7781,-109.7043 460.0118,97.7784 -314.6846,349.4928 -158.8779,-33.7705 -81.8108,366.4006 115.851,51.5802 49.1587,467.7124 -429.6303,-191.2837 -15.4306,-146.8129 H 3049.008 l -15.4306,146.8129 -429.6303,191.2837 49.1587,-467.7124 134.859,-60.0431 -115.3009,-354.8595 -144.3957,30.6923 -314.6846,-349.4928 460.0118,-97.7784 98.7781,109.7043 z"
           id="path21"
           sodipodi:nodetypes="cccccccccccccccccccccccccccccccccccccccccccccccccccc" />
      </g>
      <path
         id="path1"
         style="fill:#e5ac00;fill-opacity:1;stroke:none;stroke-width:0.628544;stroke-linejoin:round;stroke-miterlimit:3.9;stroke-opacity:1"
         d="m 2748.0435,1397.3506 c -12.1607,0.2437 -23.0771,8.9903 -35.2294,9.5062 -4.6309,0.1966 -13.6838,-2.4719 -13.6838,-2.4719 4.9166,8.718 -3.8345,20.8971 0.2705,30.0254 6.2442,13.8847 20.0695,24.2375 33.894,30.6138 3.8381,1.7703 8.6185,0.1494 12.5737,1.6401 14.9917,5.6503 25.6079,19.5612 39.9072,26.7871 13.4785,6.8109 33.9514,2.9557 42.6406,15.3071 1.0486,1.4905 0,5.4667 0,5.4667 4.1947,2.8104 6.3658,0.7032 13.1204,2.1864 -0.7594,6.4828 -2.3492,16.756 -5.4667,23.5074 -6.3683,-4.2592 -12.0849,-11.4691 -14.2135,-17.4938 0,0 -5.8698,1.6891 -8.7471,1.0934 -19.6777,-4.0738 -32.4022,-25.8894 -51.9342,-30.614 -20.4002,-4.9345 -42.892,10.1152 -62.8595,3.6487 -18.3114,-5.9301 -26.6761,-29.8606 -44.7414,-36.5041 -25.946,-9.5417 -81.869,-0.2389 -107.6575,-10.1991 -17.4095,-6.7238 -42.2137,-36.7794 -42.2137,-36.7794 0,0 -28.9037,-0.3877 -43.3482,-0.8615 -7.6449,-0.2509 -16.1061,-4.5185 -22.9232,-1.0489 -1.0271,0.5225 -1.9228,1.733 -1.9052,2.8854 0.1235,8.0984 7.8002,14.6462 13.9966,19.862 10.1141,8.513 27.5746,6.6627 35.8409,16.9791 1.2231,1.5268 1.2961,5.7241 1.2961,5.7241 2.3762,3.6861 6.876,4.6867 10.1503,7.5306 -1.9612,4.9502 -4.3521,10.2869 -8.9453,15.4304 -2.4612,-4.2627 -5.7141,-9.386 -5.0153,-17.1904 0,0 -4.5544,0.2764 -6.6901,-0.3778 -13.7592,-4.2145 -26.0405,-12.8813 -37.0706,-22.1229 -10.2082,-8.5531 -25.1711,-16.913 -26.1647,-30.1934 -0.2279,-3.0462 2.6364,-5.6949 4.9039,-7.7416 9.3912,-8.4771 21.7675,-13.5822 33.9671,-16.9327 13.7613,-3.7795 42.6964,-3.149 42.6964,-3.149 0,0 -1.9553,-32.2445 2.5218,-47.4309 4.637,-15.729 18.7551,-28.834 24.455,-42.6859 1.6671,-4.0516 -6.8131,-7.5358 -11.1551,-6.9509 -9.0679,1.2217 -16.2842,5.9525 -22.4256,14.3817 -1.7925,2.4602 -5.0542,8.8987 -8.5897,8.4534 -1.9138,-0.2412 -6.0714,-1.3678 -6.6922,-2.7994 1.3961,-1.7661 3.7979,-8.278 3.7979,-8.278 0,0 -6.3759,3.9588 -9.5835,4.6381 -2.7526,-0.4393 -4.4661,-2.1371 -4.4661,-5.1858 8.9502,-16.4796 16.5563,-32.4033 28.8063,-44.186 3.3856,-3.2566 8.7904,-6.3502 15.1513,-8.9253 0.8615,-2.8487 4.6974,-15.2422 8.2495,-21.4486 4.4989,-7.8605 11.1841,-17.5307 16.9986,-21.1964 1.2168,-0.767 2.4446,0.5064 1.4946,1.8156 -3.582,4.9367 -5.7434,11.2065 -6.833,15.9967 -0.3004,1.3209 0.9482,3.9437 2.1966,3.4186 4.9183,-2.0686 8.944,-6.4243 11.7221,-11.0083 4.0648,-6.7068 9.2122,-13.799 11.9448,-20.2871 0.627,-1.4893 3.0809,-1.5208 2.7105,0.4437 -1.451,7.6934 -2.9011,15.1771 -6.3561,22.1378 -3.393,6.8362 -8.7532,12.0024 -15.61,15.4845 -3.6735,1.8658 -8.1142,2.6463 -11.3101,5.2468 -1.4885,1.2113 -2.992,3.5752 -4.1825,5.7501 3.3724,-0.9037 9.5758,-1.8089 9.5758,-1.8089 4.2767,-3.1619 18.0368,-7.6325 27.5005,-9.2257 8.9197,-1.5015 19.9917,-2.0088 28.4121,0.9663 -5.6893,5.2236 -19.5778,10.9015 -28.219,14.3026 -1.9046,0.7497 -4.5776,1.362 -7.2618,1.8558 19.1838,28.2796 2.4115,65.5278 5.5727,95.3627 0.7137,6.734 2.1655,14.5787 7.3447,18.9416 21.4142,18.0386 66.6245,7.0921 98.7373,16.0753 11.1142,3.109 21.1631,8.9243 28.7386,15.4255 0,0 13.403,4.3505 20.3233,4.2498 13.9912,-0.2041 26.8579,-10.6911 40.8211,-9.7861 10.9509,0.7099 31.0524,10.7547 31.0524,10.7547 1.9841,-2.1991 6.3648,-1.7502 8.9301,-0.2697 4.5963,2.6526 7.1147,7.0975 8.5708,12.5319 -4.4952,0.9564 -8.4169,0.4976 -12.8616,-0.089 -2.8462,-0.376 -5.5103,-1.2683 -5.7747,-4.1939 0,0 -20.2445,-7.2006 -30.7557,-6.9899 z"
         sodipodi:nodetypes="sscsssssccccsssssssssssccccsssssssssssssscscsssssssssssssscsssssssscscscs" />
    </g>
  </g>
</svg>
