<?xml version="1.0" encoding="UTF-8" standalone="no"?>
<!-- Created with Inkscape (http://www.inkscape.org/) -->

<svg
   width="2736"
   height="1800.0002"
   viewBox="0 0 723.89999 476.25007"
   version="1.1"
   id="svg8"
   inkscape:export-filename="C:\Users\厂永刄先生\Documents\GXI3CW2\,pjóŭ\Australie.png"
   inkscape:export-xdpi="96"
   inkscape:export-ydpi="96"
   inkscape:version="1.3 (0e150ed6c4, 2023-07-21)"
   sodipodi:docname="za_1958_air-force.svg"
   xmlns:inkscape="http://www.inkscape.org/namespaces/inkscape"
   xmlns:sodipodi="http://sodipodi.sourceforge.net/DTD/sodipodi-0.dtd"
   xmlns="http://www.w3.org/2000/svg"
   xmlns:svg="http://www.w3.org/2000/svg"
   xmlns:rdf="http://www.w3.org/1999/02/22-rdf-syntax-ns#"
   xmlns:cc="http://creativecommons.org/ns#"
   xmlns:dc="http://purl.org/dc/elements/1.1/">
  <defs
     id="defs2" />
  <sodipodi:namedview
     id="base"
     pagecolor="#ffffff"
     bordercolor="#666666"
     borderopacity="1.0"
     inkscape:pageopacity="0.0"
     inkscape:pageshadow="2"
     inkscape:zoom="0.32045721"
     inkscape:cx="1563.3913"
     inkscape:cy="1037.58"
     inkscape:document-units="px"
     inkscape:current-layer="g863"
     showgrid="false"
     units="px"
     fit-margin-top="0"
     fit-margin-left="0"
     fit-margin-right="0"
     fit-margin-bottom="0"
     inkscape:showpageshadow="false"
     inkscape:snap-intersection-paths="false"
     inkscape:object-paths="false"
     inkscape:pagecheckerboard="true"
     inkscape:snap-smooth-nodes="true"
     inkscape:window-width="1920"
     inkscape:window-height="1009"
     inkscape:window-x="-8"
     inkscape:window-y="-8"
     inkscape:window-maximized="1"
     inkscape:object-nodes="true"
     inkscape:deskcolor="#505050" />
  <metadata
     id="metadata5">
    <rdf:RDF>
      <cc:Work
         rdf:about="">
        <dc:format>image/svg+xml</dc:format>
        <dc:type
           rdf:resource="http://purl.org/dc/dcmitype/StillImage" />
      </cc:Work>
    </rdf:RDF>
  </metadata>
  <g
     inkscape:label="レイヤー 1"
     inkscape:groupmode="layer"
     id="layer1"
     transform="translate(112.33452,-299.26782)">
    <path
       style="fill:#ffffff;fill-opacity:1;stroke:none;stroke-width:0.511668px;stroke-linecap:butt;stroke-linejoin:miter;stroke-opacity:1"
       d="m -102.80952,299.26786 h -9.525 v 476.25 h 9.525 z"
       id="path819"
       inkscape:connector-curvature="0"
       sodipodi:nodetypes="ccccc" />
    <g
       id="g863"
       transform="matrix(0.49999994,0,0,0.49999994,-51.404766,149.63395)">
      <path
         style="fill:#7fb9ce;fill-opacity:1;stroke:none;stroke-width:0.229136;stroke-linecap:butt;stroke-linejoin:miter;stroke-miterlimit:4;stroke-dasharray:none;stroke-opacity:1"
         d="m 616.32802,299.26796 h 709.61258 l -10e-5,952.50014 H 616.32794 Z"
         id="path868"
         inkscape:connector-curvature="0"
         sodipodi:nodetypes="ccccc" />
      <path
         style="fill:#7fb9ce;fill-opacity:1;stroke:none;stroke-width:0.229136;stroke-linecap:butt;stroke-linejoin:miter;stroke-miterlimit:4;stroke-dasharray:none;stroke-opacity:1"
         d="m 616.32794,1251.7681 h -719.13746 l 2e-5,-471.48765 719.13746,3e-5 z"
         id="path1"
         inkscape:connector-curvature="0"
         sodipodi:nodetypes="ccccc" />
      <path
         sodipodi:nodetypes="ccccc"
         inkscape:connector-curvature="0"
         id="path884"
         d="m 606.80302,770.75542 v -157.1625 l -709.61254,-3e-5 v 157.16249 z"
         style="fill:#0038a8;fill-opacity:1;stroke:none;stroke-width:1.09672px;stroke-linecap:butt;stroke-linejoin:miter;stroke-opacity:1" />
      <path
         style="fill:#ec8013;fill-opacity:1;stroke:none;stroke-width:1.09672px;stroke-linecap:butt;stroke-linejoin:miter;stroke-opacity:1"
         d="m 606.80302,299.26789 v 157.16252 l -709.61254,-4e-5 V 299.26786 Z"
         id="path845"
         inkscape:connector-curvature="0"
         sodipodi:nodetypes="ccccc" />
      <path
         sodipodi:nodetypes="ccccc"
         inkscape:connector-curvature="0"
         id="path1-3"
         d="m -102.80952,613.59289 709.61254,3e-5 V 456.43041 l -709.61254,-4e-5 z"
         style="fill:#ffffff;fill-opacity:1;stroke:none;stroke-width:1.09672px;stroke-linecap:butt;stroke-linejoin:miter;stroke-opacity:1" />
      <g
         id="g2"
         transform="matrix(0.98999994,0,0,0.98999994,-118.89995,2.99278)">
        <path
           sodipodi:nodetypes="ccccc"
           inkscape:connector-curvature="0"
           id="path65"
           d="M 213.8967,577.08034 H 332.95922 V 497.70533 H 213.89671 Z"
           style="fill:none;fill-opacity:1;stroke:#000000;stroke-width:1.5875;stroke-linecap:butt;stroke-linejoin:miter;stroke-dasharray:none;stroke-opacity:1" />
        <path
           sodipodi:nodetypes="ccccc"
           inkscape:connector-curvature="0"
           id="path66"
           d="M 413.92169,577.08034 H 532.98422 V 497.70533 H 413.9217 Z"
           style="fill:none;fill-opacity:1;stroke:#000000;stroke-width:1.5875;stroke-linecap:butt;stroke-linejoin:miter;stroke-dasharray:none;stroke-opacity:1" />
        <path
           sodipodi:nodetypes="ccccc"
           inkscape:connector-curvature="0"
           id="path67"
           d="m 333.75297,477.86158 v 119.06251 h 79.375 v -119.0625 z"
           style="fill:none;fill-opacity:1;stroke:#000000;stroke-width:1.5875;stroke-linecap:butt;stroke-linejoin:miter;stroke-dasharray:none;stroke-opacity:1" />
        <g
           id="g47"
           transform="matrix(1.0000001,0,0,-1.0000001,-187.38426,734.10798)">
          <path
             sodipodi:nodetypes="ccccc"
             inkscape:connector-curvature="0"
             id="path20"
             d="m 401.2809,166.56748 25.37772,16.91848 h 4.77051 L 401.2809,163.38714 Z"
             style="fill:#ffffff;fill-opacity:1;stroke:none;stroke-width:0.369263px;stroke-linecap:butt;stroke-linejoin:miter;stroke-opacity:1" />
          <path
             sodipodi:nodetypes="cccc"
             inkscape:connector-curvature="0"
             id="path21"
             d="m 401.2809,166.56748 25.37772,16.91848 H 401.2809 Z"
             style="fill:#0038a8;fill-opacity:1;stroke:none;stroke-width:0.369263px;stroke-linecap:butt;stroke-linejoin:miter;stroke-opacity:1" />
          <path
             sodipodi:nodetypes="ccccccc"
             inkscape:connector-curvature="0"
             id="path22"
             d="M 452.87465,188.77762 H 401.2809 v -5.29166 h 46.30208 v -26.45834 h 5.29167 z"
             style="fill:#ffffff;fill-opacity:1;stroke:none;stroke-width:0.369263px;stroke-linecap:butt;stroke-linejoin:miter;stroke-opacity:1" />
          <path
             sodipodi:nodetypes="cccccc"
             inkscape:connector-curvature="0"
             id="path23"
             d="m 401.2809,157.02762 h 14.31034 l 31.99174,21.32783 v 5.13051 h -6.61457 z"
             style="fill:#ffffff;fill-opacity:1;stroke:none;stroke-width:0.369263px;stroke-linecap:butt;stroke-linejoin:miter;stroke-opacity:1" />
          <path
             sodipodi:nodetypes="ccccc"
             inkscape:connector-curvature="0"
             id="path24"
             d="m 401.2809,157.02762 39.68751,26.45834 h -9.53928 L 401.2809,163.38714 Z"
             style="fill:#c8102e;fill-opacity:1;stroke:none;stroke-width:0.369263px;stroke-linecap:butt;stroke-linejoin:miter;stroke-opacity:1" />
          <path
             sodipodi:nodetypes="cccc"
             inkscape:connector-curvature="0"
             id="path25"
             d="m 415.59124,157.02762 31.99174,21.32783 v -21.32783 z"
             style="fill:#0038a8;fill-opacity:1;stroke:none;stroke-width:0.369263px;stroke-linecap:butt;stroke-linejoin:miter;stroke-opacity:1" />
          <path
             sodipodi:nodetypes="ccccccccccccc"
             inkscape:connector-curvature="0"
             id="path26"
             d="m 520.3434,188.77762 v 15.875 h -51.59375 v 31.75 h -15.875 v -31.75 H 401.2809 v -15.875 h 51.59375 v -31.75 h 15.875 v 31.75 z"
             style="fill:#c8102e;fill-opacity:1;stroke:none;stroke-width:0.369263px;stroke-linecap:butt;stroke-linejoin:miter;stroke-opacity:1" />
          <path
             sodipodi:nodetypes="ccccc"
             inkscape:connector-curvature="0"
             id="path27"
             d="m 520.3434,226.86276 -25.37772,-16.91848 h -4.77051 l 30.14823,20.09882 z"
             style="fill:#ffffff;fill-opacity:1;stroke:none;stroke-width:0.369263px;stroke-linecap:butt;stroke-linejoin:miter;stroke-opacity:1" />
          <path
             sodipodi:nodetypes="cccc"
             inkscape:connector-curvature="0"
             id="path28"
             d="M 520.3434,226.86276 494.96568,209.94428 H 520.3434 Z"
             style="fill:#0038a8;fill-opacity:1;stroke:none;stroke-width:0.369263px;stroke-linecap:butt;stroke-linejoin:miter;stroke-opacity:1" />
          <path
             sodipodi:nodetypes="ccccccc"
             inkscape:connector-curvature="0"
             id="path29"
             d="m 468.74965,204.65262 h 51.59375 v 5.29166 h -46.30208 v 26.45834 h -5.29167 z"
             style="fill:#ffffff;fill-opacity:1;stroke:none;stroke-width:0.369263px;stroke-linecap:butt;stroke-linejoin:miter;stroke-opacity:1" />
          <path
             sodipodi:nodetypes="cccccc"
             inkscape:connector-curvature="0"
             id="path30"
             d="m 520.3434,236.40262 h -14.31034 l -31.99174,-21.32783 v -5.13051 h 6.61457 z"
             style="fill:#ffffff;fill-opacity:1;stroke:none;stroke-width:0.369263px;stroke-linecap:butt;stroke-linejoin:miter;stroke-opacity:1" />
          <path
             sodipodi:nodetypes="ccccc"
             inkscape:connector-curvature="0"
             id="path31"
             d="m 520.3434,236.40262 -39.68751,-26.45834 h 9.53928 l 30.14823,20.09882 z"
             style="fill:#c8102e;fill-opacity:1;stroke:none;stroke-width:0.369263px;stroke-linecap:butt;stroke-linejoin:miter;stroke-opacity:1" />
          <path
             sodipodi:nodetypes="cccc"
             inkscape:connector-curvature="0"
             id="path32"
             d="m 506.03306,236.40262 -31.99174,-21.32783 v 21.32783 z"
             style="fill:#0038a8;fill-opacity:1;stroke:none;stroke-width:0.369263px;stroke-linecap:butt;stroke-linejoin:miter;stroke-opacity:1" />
          <path
             sodipodi:nodetypes="cccc"
             inkscape:connector-curvature="0"
             id="path33"
             d="m 401.2809,226.86276 25.37772,-16.91848 H 401.2809 Z"
             style="fill:#0038a8;fill-opacity:1;stroke:none;stroke-width:0.369263px;stroke-linecap:butt;stroke-linejoin:miter;stroke-opacity:1" />
          <path
             sodipodi:nodetypes="ccccccc"
             inkscape:connector-curvature="0"
             id="path34"
             d="M 452.87465,204.65262 H 401.2809 v 5.29166 h 46.30208 v 26.45834 h 5.29167 z"
             style="fill:#ffffff;fill-opacity:1;stroke:none;stroke-width:0.369263px;stroke-linecap:butt;stroke-linejoin:miter;stroke-opacity:1" />
          <path
             sodipodi:nodetypes="cccc"
             inkscape:connector-curvature="0"
             id="path35"
             d="m 415.59124,236.40262 31.99174,-21.32783 v 21.32783 z"
             style="fill:#0038a8;fill-opacity:1;stroke:none;stroke-width:0.369263px;stroke-linecap:butt;stroke-linejoin:miter;stroke-opacity:1" />
          <path
             sodipodi:nodetypes="ccccc"
             inkscape:connector-curvature="0"
             id="path39"
             d="m 447.58353,211.89463 v 3.1798 l -31.99229,21.32819 h -4.76802 z"
             style="fill:#ffffff;fill-opacity:1;stroke:none;stroke-width:0.369263px;stroke-linecap:butt;stroke-linejoin:miter;stroke-opacity:1" />
          <path
             sodipodi:nodetypes="ccccc"
             inkscape:connector-curvature="0"
             id="path40"
             d="m 426.65862,209.94428 h 14.31034 l -39.68749,26.45833 v -9.54023 z"
             style="fill:#ffffff;fill-opacity:1;stroke:none;stroke-width:0.369263px;stroke-linecap:butt;stroke-linejoin:miter;stroke-opacity:1" />
          <path
             sodipodi:nodetypes="cccccc"
             inkscape:connector-curvature="0"
             id="path41"
             d="m 447.58298,211.895 v -1.95072 h -6.61402 l -39.68749,26.45833 9.54175,1e-5 z"
             style="fill:#c8102e;fill-opacity:1;stroke:none;stroke-width:0.369263px;stroke-linecap:butt;stroke-linejoin:miter;stroke-opacity:1" />
          <path
             sodipodi:nodetypes="cccc"
             inkscape:connector-curvature="0"
             id="path42"
             d="m 520.3434,166.56748 -25.37772,16.91848 h 25.37772 z"
             style="fill:#0038a8;fill-opacity:1;stroke:none;stroke-width:0.369263px;stroke-linecap:butt;stroke-linejoin:miter;stroke-opacity:1" />
          <path
             sodipodi:nodetypes="ccccccc"
             inkscape:connector-curvature="0"
             id="path43"
             d="m 468.74965,188.77762 h 51.59375 v -5.29166 h -46.30208 v -26.45834 h -5.29167 z"
             style="fill:#ffffff;fill-opacity:1;stroke:none;stroke-width:0.369263px;stroke-linecap:butt;stroke-linejoin:miter;stroke-opacity:1" />
          <path
             sodipodi:nodetypes="cccc"
             inkscape:connector-curvature="0"
             id="path44"
             d="m 506.03306,157.02762 -31.99174,21.32783 v -21.32783 z"
             style="fill:#0038a8;fill-opacity:1;stroke:none;stroke-width:0.369263px;stroke-linecap:butt;stroke-linejoin:miter;stroke-opacity:1" />
          <path
             sodipodi:nodetypes="ccccc"
             inkscape:connector-curvature="0"
             id="path45"
             d="m 474.04077,181.53561 v -3.1798 l 31.99229,-21.32819 h 4.76802 z"
             style="fill:#ffffff;fill-opacity:1;stroke:none;stroke-width:0.369263px;stroke-linecap:butt;stroke-linejoin:miter;stroke-opacity:1" />
          <path
             sodipodi:nodetypes="ccccc"
             inkscape:connector-curvature="0"
             id="path46"
             d="m 494.96568,183.48596 h -14.31034 l 39.68749,-26.45833 v 9.54023 z"
             style="fill:#ffffff;fill-opacity:1;stroke:none;stroke-width:0.369263px;stroke-linecap:butt;stroke-linejoin:miter;stroke-opacity:1" />
          <path
             sodipodi:nodetypes="cccccc"
             inkscape:connector-curvature="0"
             id="path47"
             d="m 474.04132,181.53524 v 1.95072 h 6.61402 l 39.68749,-26.45833 -9.54175,-10e-6 z"
             style="fill:#c8102e;fill-opacity:1;stroke:none;stroke-width:0.369263px;stroke-linecap:butt;stroke-linejoin:miter;stroke-opacity:1" />
        </g>
        <g
           id="g64"
           transform="translate(-6e-5,-119.06262)">
          <path
             sodipodi:nodetypes="ccccc"
             inkscape:connector-curvature="0"
             id="path2"
             d="m 333.75298,647.95074 h 11.33929 v -51.02663 h -11.33929 z"
             style="fill:#c8102e;fill-opacity:1;stroke:none;stroke-width:0.369263px;stroke-linecap:butt;stroke-linejoin:miter;stroke-opacity:1" />
          <path
             sodipodi:nodetypes="ccccc"
             inkscape:connector-curvature="0"
             id="path48"
             d="m 345.09227,647.95074 h 11.33929 v -51.02663 h -11.33929 z"
             style="fill:#ffffff;fill-opacity:1;stroke:none;stroke-width:0.369263px;stroke-linecap:butt;stroke-linejoin:miter;stroke-opacity:1" />
          <path
             sodipodi:nodetypes="ccccc"
             inkscape:connector-curvature="0"
             id="path49"
             d="m 356.43156,647.95074 h 11.33929 v -51.02663 h -11.33929 z"
             style="fill:#0038a8;fill-opacity:1;stroke:none;stroke-width:0.369263px;stroke-linecap:butt;stroke-linejoin:miter;stroke-opacity:1" />
          <path
             sodipodi:nodetypes="ccccc"
             inkscape:connector-curvature="0"
             id="path50"
             d="m 367.77085,715.98661 h 11.33929 v -119.0625 h -11.33929 z"
             style="fill:#ec8013;fill-opacity:1;stroke:none;stroke-width:0.369263px;stroke-linecap:butt;stroke-linejoin:miter;stroke-opacity:1" />
          <path
             sodipodi:nodetypes="ccccc"
             inkscape:connector-curvature="0"
             id="path51"
             d="m 379.11014,715.98661 h 11.33929 v -119.0625 h -11.33929 z"
             style="fill:#ffffff;fill-opacity:1;stroke:none;stroke-width:0.369263px;stroke-linecap:butt;stroke-linejoin:miter;stroke-opacity:1" />
          <path
             sodipodi:nodetypes="ccccc"
             inkscape:connector-curvature="0"
             id="path52"
             d="m 390.44943,715.98661 h 11.33929 v -119.0625 h -11.33929 z"
             style="fill:#ec8013;fill-opacity:1;stroke:none;stroke-width:0.369263px;stroke-linecap:butt;stroke-linejoin:miter;stroke-opacity:1" />
          <path
             sodipodi:nodetypes="ccccc"
             inkscape:connector-curvature="0"
             id="path53"
             d="m 401.78872,715.98661 h 11.33929 v -119.0625 h -11.33929 z"
             style="fill:#ffffff;fill-opacity:1;stroke:none;stroke-width:0.369263px;stroke-linecap:butt;stroke-linejoin:miter;stroke-opacity:1" />
          <path
             sodipodi:nodetypes="ccccc"
             inkscape:connector-curvature="0"
             id="path61"
             d="m 333.75298,647.95074 h 11.33929 v 68.03587 h -11.33929 z"
             style="fill:#ffffff;fill-opacity:1;stroke:none;stroke-width:0.369263px;stroke-linecap:butt;stroke-linejoin:miter;stroke-opacity:1" />
          <path
             sodipodi:nodetypes="ccccc"
             inkscape:connector-curvature="0"
             id="path62"
             d="m 345.09227,647.95074 h 11.33929 v 68.03587 h -11.33929 z"
             style="fill:#ec8013;fill-opacity:1;stroke:none;stroke-width:0.369263px;stroke-linecap:butt;stroke-linejoin:miter;stroke-opacity:1" />
          <path
             sodipodi:nodetypes="ccccc"
             inkscape:connector-curvature="0"
             id="path63"
             d="m 356.43156,647.95074 h 11.33929 v 68.03587 h -11.33929 z"
             style="fill:#ffffff;fill-opacity:1;stroke:none;stroke-width:0.369263px;stroke-linecap:butt;stroke-linejoin:miter;stroke-opacity:1" />
        </g>
        <g
           id="g65"
           transform="translate(0.79369,-119.06262)">
          <path
             sodipodi:nodetypes="ccccc"
             inkscape:connector-curvature="0"
             id="path3"
             d="m 444.87796,616.76786 v 26.45833 h 87.31249 v -26.45833 z"
             style="fill:#c8102e;fill-opacity:1;stroke:none;stroke-width:0.188019px;stroke-linecap:butt;stroke-linejoin:miter;stroke-opacity:1" />
          <path
             sodipodi:nodetypes="ccccc"
             inkscape:connector-curvature="0"
             id="path54"
             d="m 444.87796,643.22619 v 26.45833 h 87.31249 v -26.45833 z"
             style="fill:#ffffff;fill-opacity:1;stroke:none;stroke-width:0.188019px;stroke-linecap:butt;stroke-linejoin:miter;stroke-opacity:1" />
          <path
             sodipodi:nodetypes="ccccc"
             inkscape:connector-curvature="0"
             id="path55"
             d="m 444.87798,669.68452 v 26.45833 h 87.3125 v -26.45833 z"
             style="fill:#0038a8;fill-opacity:1;stroke:none;stroke-width:0.188019px;stroke-linecap:butt;stroke-linejoin:miter;stroke-opacity:1" />
          <path
             sodipodi:nodetypes="ccccc"
             inkscape:connector-curvature="0"
             id="path64"
             d="m 413.12798,696.14286 h 31.75 v -79.375 h -31.75 z"
             style="fill:#027e3f;fill-opacity:1;stroke:none;stroke-width:0.190686px;stroke-linecap:butt;stroke-linejoin:miter;stroke-opacity:1" />
        </g>
      </g>
      <path
         style="fill:#ffffff;fill-opacity:1;stroke:none;stroke-width:0.0324047;stroke-linecap:butt;stroke-linejoin:miter;stroke-miterlimit:4;stroke-dasharray:none;stroke-opacity:1"
         d="m 616.32802,780.28045 h -719.13754 l -8e-5,-9.525 H 606.80302 V 299.26804 l 9.525,-8e-5 z"
         id="path4"
         inkscape:connector-curvature="0"
         sodipodi:nodetypes="ccccccc" />
      <g
         id="path5">
        <path
           style="color:#000000;fill:#002b80;stroke-miterlimit:3.9;-inkscape-stroke:none"
           d="m 919.91295,848.45401 10.3193,25.48833 -57.1504,41.52236 -21.052,-17.69057 -78.38392,25.88498 48.19912,67.0143 27.4297,-1.93791 21.8297,67.1844 -23.3302,14.5549 0.3961,82.5465 78.6287,-25.1315 6.6332,-26.686 h 70.64145 l 6.6332,26.686 78.6287,25.1315 0.3961,-82.5465 -23.3302,-14.5549 21.8297,-67.1844 27.4297,1.93791 48.1991,-67.0143 -78.3839,-25.88498 -21.052,17.69057 -57.1504,-41.52236 10.3193,-25.48833 -48.84005,-66.54862 z"
           id="path7"
           sodipodi:nodetypes="cccccccccccccccccccccccccc" />
        <path
           style="color:#000000;fill:#ffffff;stroke-miterlimit:3.9;-inkscape-stroke:none"
           d="m 968.75391,775.51758 -53.13477,72.40039 10.00195,24.70312 -52.36914,38.04883 -20.40429,-17.14648 -85.27735,28.16211 52.4375,72.90625 26.58594,-1.87891 20.00391,61.56441 -22.61329,14.1075 0.43165,89.8047 85.54296,-27.3418 6.42774,-25.8653 h 64.73238 l 6.4297,25.8653 85.541,27.3418 0.4317,-89.8047 -22.6133,-14.1075 20.0039,-61.56441 26.5859,1.87891 52.4375,-72.90625 -85.2773,-28.16211 -20.4023,17.14648 -52.3711,-38.04883 10.0019,-24.70312 z m 0,12.77344 44.54489,60.69921 -10.6367,26.27344 61.9317,44.9961 21.6992,-18.23633 71.4922,23.60937 -43.961,61.12305 -28.2734,-1.99805 -23.6563,72.80469 24.0469,15.002 -0.3594,75.289 -71.7168,-22.9219 -6.8359,-27.5078 h -76.55274 l -6.83594,27.5078 -71.71679,22.9219 -0.35938,-75.289 24.04688,-15.002 -23.65625,-72.80469 -28.27344,1.99805 -43.96094,-61.12305 71.49219,-23.60937 21.69922,18.23633 61.93164,-44.9961 -10.63672,-26.27344 z"
           id="path8"
           sodipodi:nodetypes="cccccccccccccccccccccccccccccccccccccccccccccccccccc" />
      </g>
      <path
         id="path1-0"
         style="fill:#e5ac00;fill-opacity:1;stroke:none;stroke-width:0.283942;stroke-linejoin:round;stroke-miterlimit:3.9;stroke-opacity:1"
         d="m 1015.4794,996.2382 c -5.4935,0.11009 -10.4249,4.0613 -15.91468,4.2944 -2.09199,0.089 -6.1816,-1.11669 -6.1816,-1.11669 2.22106,3.93829 -1.73221,9.44019 0.1222,13.56389 2.82079,6.2723 9.06628,10.9491 15.31148,13.8296 1.7338,0.7997 3.8933,0.067 5.6801,0.7409 6.7724,2.5525 11.5682,8.8367 18.0279,12.101 6.0888,3.0767 15.3374,1.3352 19.2627,6.9149 0.4737,0.6733 0,2.4695 0,2.4695 1.8949,1.2696 2.8757,0.3177 5.9271,0.9877 -0.3431,2.9286 -1.0613,7.5695 -2.4696,10.6194 -2.8768,-1.9241 -5.4593,-5.1811 -6.4209,-7.9028 0,0 -2.6516,0.7631 -3.9514,0.494 -8.8894,-1.8403 -14.6376,-11.6954 -23.4611,-13.8298 -9.2157,-2.2291 -19.3762,4.5695 -28.39647,1.6483 -8.27209,-2.6789 -12.0508,-13.4894 -20.21172,-16.4905 -11.72099,-4.3105 -36.98395,-0.108 -48.63378,-4.6074 -7.86466,-3.0375 -19.06985,-16.615 -19.06985,-16.615 0,0 -13.05711,-0.1751 -19.58235,-0.3891 -3.45355,-0.1134 -7.27586,-2.0412 -10.35545,-0.4739 -0.46399,0.2361 -0.86862,0.7829 -0.86067,1.3035 0.0558,3.6584 3.52371,6.6163 6.3229,8.9726 4.569,3.8457 12.4567,3.0098 16.19097,7.6702 0.55253,0.6897 0.5855,2.5858 0.5855,2.5858 1.07344,1.6652 3.10621,2.1172 4.58536,3.4019 -0.88597,2.2363 -1.96605,4.6471 -4.041,6.9707 -1.11184,-1.9257 -2.58132,-4.2401 -2.26564,-7.7657 0,0 -2.05743,0.1248 -3.02222,-0.1707 -6.21566,-1.9039 -11.76368,-5.8191 -16.74648,-9.9939 -4.6115,-3.8638 -11.37093,-7.6404 -11.81978,-13.6397 -0.10295,-1.3762 1.19098,-2.5727 2.21531,-3.49729 4.24244,-3.82949 9.83337,-6.13569 15.34449,-7.64927 6.2166,-1.70737 19.2879,-1.42254 19.2879,-1.42254 0,0 -0.8833,-14.56631 1.13921,-21.42669 2.09474,-7.10551 8.47253,-13.02563 11.04743,-19.28316 0.75311,-1.8303 -3.07778,-3.40427 -5.03926,-3.14004 -4.09638,0.5519 -7.35631,2.68901 -10.13066,6.49687 -0.80976,1.11138 -2.28321,4.01994 -3.88036,3.81878 -0.86455,-0.10896 -2.74273,-0.6179 -3.02317,-1.26462 0.63068,-0.79782 1.71568,-3.73954 1.71568,-3.73954 0,0 -2.88028,1.78837 -4.3293,2.09524 -1.24347,-0.19846 -2.01754,-0.96543 -2.01754,-2.34267 4.04321,-7.44458 7.47923,-14.63804 13.01311,-19.96082 1.52943,-1.47115 3.97103,-2.86867 6.84454,-4.03196 0.38917,-1.28689 2.12202,-6.8856 3.72667,-9.68931 2.03236,-3.55094 5.05236,-7.91941 7.67904,-9.57538 0.54968,-0.34648 1.10434,0.22877 0.67518,0.82019 -1.61815,2.23014 -2.59456,5.06249 -3.08678,7.22644 -0.1357,0.59671 0.42835,1.78155 0.9923,1.54434 2.22182,-0.93448 4.04042,-2.90215 5.29541,-4.97295 1.83625,-3.02977 4.16157,-6.23364 5.39601,-9.16461 0.28324,-0.67278 1.39178,-0.68701 1.22445,0.20044 -0.65548,3.47546 -1.31055,6.85619 -2.87133,10.00065 -1.53278,3.08822 -3.95422,5.42203 -7.05175,6.99505 -1.65949,0.84287 -3.66555,1.19546 -5.10929,2.37022 -0.67242,0.5472 -1.35162,1.61508 -1.88942,2.59758 1.52346,-0.40824 4.32582,-0.81716 4.32582,-0.81716 1.93198,-1.42837 8.14804,-3.44795 12.42323,-4.16767 4.02943,-0.67829 9.03116,-0.90746 12.83503,0.43653 -2.57011,2.35973 -8.84418,4.9247 -12.7478,6.46113 -0.8604,0.33867 -2.06791,0.61528 -3.28049,0.83835 8.6662,12.77518 1.08939,29.60188 2.51745,43.07966 0.32241,3.04205 0.97825,6.58586 3.31793,8.55678 9.67377,8.14886 30.09731,3.20383 44.60412,7.26195 5.02079,1.40447 9.56034,4.03151 12.98253,6.96839 0,0 6.05475,1.96532 9.18096,1.91983 6.32043,-0.0922 12.13293,-4.82965 18.44073,-4.42082 4.947,0.32069 14.0278,4.85838 14.0278,4.85838 0.8963,-0.99343 2.8753,-0.79064 4.0341,-0.12183 2.0764,1.1983 3.2141,3.20626 3.8718,5.66123 -2.0306,0.432 -3.8022,0.2248 -5.8101,-0.04 -1.2858,-0.1699 -2.4893,-0.5729 -2.6087,-1.89457 0,0 -9.1454,-3.25284 -13.8938,-3.15766 z"
         sodipodi:nodetypes="sscsssssccccsssssssssssccccsssssssssssssscscsssssssssssssscsssssssscscscs" />
    </g>
  </g>
</svg>
