<?xml version="1.0" encoding="UTF-8" standalone="no"?>
<!-- Created with Inkscape (http://www.inkscape.org/) -->

<svg
   width="1800"
   height="1800"
   viewBox="0 0 476.25 476.25001"
   version="1.1"
   id="svg8"
   inkscape:export-filename="C:\Users\厂永刄先生\Documents\GXI3CW2\,pjóŭ\Australie.png"
   inkscape:export-xdpi="96"
   inkscape:export-ydpi="96"
   inkscape:version="1.3 (0e150ed6c4, 2023-07-21)"
   sodipodi:docname="za_1947_roundel.svg"
   xmlns:inkscape="http://www.inkscape.org/namespaces/inkscape"
   xmlns:sodipodi="http://sodipodi.sourceforge.net/DTD/sodipodi-0.dtd"
   xmlns="http://www.w3.org/2000/svg"
   xmlns:svg="http://www.w3.org/2000/svg"
   xmlns:rdf="http://www.w3.org/1999/02/22-rdf-syntax-ns#"
   xmlns:cc="http://creativecommons.org/ns#"
   xmlns:dc="http://purl.org/dc/elements/1.1/">
  <defs
     id="defs2" />
  <sodipodi:namedview
     id="base"
     pagecolor="#ffffff"
     bordercolor="#666666"
     borderopacity="1.0"
     inkscape:pageopacity="0.0"
     inkscape:pageshadow="2"
     inkscape:zoom="0.45166663"
     inkscape:cx="1101.4761"
     inkscape:cy="1243.1735"
     inkscape:document-units="px"
     inkscape:current-layer="g863"
     showgrid="false"
     units="px"
     fit-margin-top="0"
     fit-margin-left="0"
     fit-margin-right="0"
     fit-margin-bottom="0"
     inkscape:showpageshadow="false"
     inkscape:snap-intersection-paths="false"
     inkscape:object-paths="false"
     inkscape:pagecheckerboard="true"
     inkscape:snap-smooth-nodes="true"
     inkscape:window-width="1920"
     inkscape:window-height="1009"
     inkscape:window-x="-8"
     inkscape:window-y="-8"
     inkscape:window-maximized="1"
     inkscape:object-nodes="true"
     inkscape:deskcolor="#505050" />
  <metadata
     id="metadata5">
    <rdf:RDF>
      <cc:Work
         rdf:about="">
        <dc:format>image/svg+xml</dc:format>
        <dc:type
           rdf:resource="http://purl.org/dc/dcmitype/StillImage" />
      </cc:Work>
    </rdf:RDF>
  </metadata>
  <g
     inkscape:label="レイヤー 1"
     inkscape:groupmode="layer"
     id="layer1"
     transform="translate(-683.00288,-608.83035)">
    <g
       id="g863"
       transform="matrix(0.49999994,0,0,0.49999994,-51.404766,149.63395)">
      <circle
         style="fill:#0038a8;fill-opacity:1;stroke:none;stroke-width:1.32267;stroke-linejoin:bevel;stroke-miterlimit:155;paint-order:markers fill stroke"
         id="circle2"
         cx="-1945.0656"
         cy="-1394.6429"
         r="476.25006"
         transform="scale(-1)" />
      <circle
         style="fill:#ffffff;stroke:none;stroke-width:0.881784;stroke-linejoin:bevel;stroke-miterlimit:155;paint-order:markers fill stroke"
         id="circle3"
         cx="-1945.0656"
         cy="-1394.6429"
         r="317.5"
         transform="scale(-1)" />
      <path
         id="path1"
         style="fill:#ff8c0a;fill-opacity:1;stroke:none;stroke-width:0.931177;stroke-linejoin:round;stroke-miterlimit:3.9;stroke-opacity:1"
         d="m 2097.5992,1400.9575 c -18.0158,0.3611 -34.1883,13.3192 -52.1915,14.0834 -6.8607,0.2912 -20.2724,-3.6621 -20.2724,-3.6621 7.2838,12.9156 -5.6809,30.9585 0.4007,44.482 9.2505,20.5701 29.7325,35.9075 50.2133,45.3539 5.6861,2.6226 12.7681,0.2212 18.6276,2.4296 22.2101,8.3708 37.9379,28.9796 59.122,39.6846 19.9681,10.0905 50.2982,4.3789 63.1712,22.6773 1.5533,2.208 0,8.0987 0,8.0987 6.2144,4.1638 9.4309,1.0418 19.4375,3.2394 -1.1248,9.6039 -3.4803,24.8234 -8.0988,34.8257 -9.4343,-6.31 -17.9035,-16.9915 -21.057,-25.9167 0,0 -8.6958,2.5022 -12.9585,1.6197 -29.1524,-6.0352 -48.0035,-38.3546 -76.9396,-45.354 -30.2225,-7.3105 -63.5437,14.9854 -93.1253,5.4056 -27.1282,-8.7854 -39.5202,-44.2381 -66.2833,-54.0802 -38.4387,-14.1358 -121.2877,-0.3541 -159.4927,-15.1099 -25.7919,-9.9613 -62.5388,-54.4879 -62.5388,-54.4879 0,0 -42.8204,-0.5744 -64.2196,-1.2766 -11.3259,-0.3716 -23.8609,-6.6938 -33.9602,-1.5539 -1.5216,0.7743 -2.8486,2.5677 -2.8226,4.2749 0.183,11.9976 11.5558,21.698 20.7358,29.4251 14.9835,12.6121 40.8511,9.8706 53.0976,25.1542 1.8121,2.2618 1.9199,8.4802 1.9199,8.4802 3.5204,5.4609 10.1868,6.9434 15.0376,11.1563 -2.9056,7.3337 -6.4476,15.2401 -13.2524,22.8601 -3.6461,-6.3153 -8.4652,-13.9053 -7.4299,-25.4673 0,0 -6.7474,0.4092 -9.9114,-0.5599 -20.3838,-6.2436 -38.5783,-19.0833 -54.9193,-32.7746 -15.1233,-12.6711 -37.2906,-25.0561 -38.7626,-44.731 -0.3376,-4.5128 3.9059,-8.4367 7.2651,-11.469 13.9128,-12.5585 32.2482,-20.1217 50.3216,-25.0854 20.3869,-5.5992 63.254,-4.6651 63.254,-4.6651 0,0 -2.8968,-47.7697 3.736,-70.2681 6.8696,-23.3023 27.7854,-42.717 36.2296,-63.2383 2.4697,-6.0023 -10.0937,-11.1643 -16.526,-10.2977 -13.434,1.8098 -24.1248,8.8186 -33.2232,21.3063 -2.6555,3.6446 -7.4876,13.1831 -12.7253,12.5234 -2.8355,-0.3573 -8.9949,-2.0263 -9.9146,-4.1473 2.0684,-2.6164 5.6269,-12.2636 5.6269,-12.2636 0,0 -9.4461,5.8649 -14.198,6.8712 -4.0782,-0.6508 -6.6166,-3.1661 -6.6166,-7.6825 13.2596,-24.4143 24.528,-48.0049 42.676,-65.4608 5.0158,-4.8246 13.023,-9.4077 22.4464,-13.2226 1.2761,-4.2205 6.9593,-22.5812 12.2216,-31.7757 6.6649,-11.6451 16.5689,-25.9715 25.183,-31.4021 1.8028,-1.1363 3.6217,0.7502 2.2143,2.6898 -5.3067,7.3136 -8.5088,16.6022 -10.1232,23.6987 -0.445,1.9567 1.4048,5.8426 3.2545,5.0646 7.2862,-3.0646 13.2503,-9.5175 17.3661,-16.3087 6.0219,-9.9359 13.6475,-20.4427 17.6957,-30.0547 0.9291,-2.2065 4.5644,-2.253 4.0158,0.6573 -2.1497,11.3976 -4.298,22.4846 -9.4165,32.7967 -5.0267,10.1276 -12.9679,17.7812 -23.1259,22.94 -5.4423,2.764 -12.0212,3.9203 -16.7558,7.773 -2.2052,1.7947 -4.4326,5.2967 -6.1962,8.5187 4.9959,-1.3388 14.1864,-2.6798 14.1864,-2.6798 6.3357,-4.6844 26.721,-11.3077 40.7415,-13.6679 13.2142,-2.2244 29.6172,-2.9757 42.0919,1.4317 -8.4287,7.7386 -29.0041,16.1504 -41.8059,21.189 -2.8216,1.1105 -6.7817,2.0177 -10.7582,2.7493 28.4204,41.8956 3.5726,97.078 8.2559,141.278 1.0571,9.9764 3.2081,21.5982 10.881,28.0617 31.7247,26.7239 98.7026,10.5069 146.2773,23.8153 16.4656,4.606 31.3529,13.2212 42.5759,22.8527 0,0 19.8563,6.4452 30.1084,6.2958 20.7276,-0.3022 39.7895,-15.8385 60.4759,-14.4977 16.2234,1.0515 46.0033,15.9327 46.0033,15.9327 2.9396,-3.2579 9.4295,-2.5928 13.2299,-0.3995 6.8094,3.9298 10.5402,10.5148 12.6975,18.5658 -6.6595,1.4167 -12.4695,0.7372 -19.0542,-0.1331 -4.2167,-0.5573 -8.1633,-1.8792 -8.5551,-6.2132 0,0 -29.9919,-10.6677 -45.5641,-10.3555 z"
         sodipodi:nodetypes="sscsssssccccsssssssssssccccsssssssssssssscscsssssssssssssscsssssssscscscs" />
    </g>
  </g>
</svg>
