<?xml version="1.0" encoding="UTF-8" standalone="no"?>
<!-- Created with Inkscape (http://www.inkscape.org/) -->

<svg
   width="2736"
   height="1800.0002"
   viewBox="0 0 723.89999 476.25007"
   version="1.1"
   id="svg8"
   inkscape:export-filename="C:\Users\厂永刄先生\Documents\GXI3CW2\,pjóŭ\Australie.png"
   inkscape:export-xdpi="96"
   inkscape:export-ydpi="96"
   inkscape:version="1.3 (0e150ed6c4, 2023-07-21)"
   sodipodi:docname="za_1947_air-force.svg"
   xmlns:inkscape="http://www.inkscape.org/namespaces/inkscape"
   xmlns:sodipodi="http://sodipodi.sourceforge.net/DTD/sodipodi-0.dtd"
   xmlns="http://www.w3.org/2000/svg"
   xmlns:svg="http://www.w3.org/2000/svg"
   xmlns:rdf="http://www.w3.org/1999/02/22-rdf-syntax-ns#"
   xmlns:cc="http://creativecommons.org/ns#"
   xmlns:dc="http://purl.org/dc/elements/1.1/">
  <defs
     id="defs2" />
  <sodipodi:namedview
     id="base"
     pagecolor="#ffffff"
     bordercolor="#666666"
     borderopacity="1.0"
     inkscape:pageopacity="0.0"
     inkscape:pageshadow="2"
     inkscape:zoom="0.33003302"
     inkscape:cx="346.93498"
     inkscape:cy="680.23497"
     inkscape:document-units="px"
     inkscape:current-layer="g863"
     showgrid="false"
     units="px"
     fit-margin-top="0"
     fit-margin-left="0"
     fit-margin-right="0"
     fit-margin-bottom="0"
     inkscape:showpageshadow="false"
     inkscape:snap-intersection-paths="false"
     inkscape:object-paths="false"
     inkscape:pagecheckerboard="true"
     inkscape:snap-smooth-nodes="true"
     inkscape:window-width="1920"
     inkscape:window-height="1009"
     inkscape:window-x="-8"
     inkscape:window-y="-8"
     inkscape:window-maximized="1"
     inkscape:object-nodes="true"
     inkscape:deskcolor="#505050" />
  <metadata
     id="metadata5">
    <rdf:RDF>
      <cc:Work
         rdf:about="">
        <dc:format>image/svg+xml</dc:format>
        <dc:type
           rdf:resource="http://purl.org/dc/dcmitype/StillImage" />
      </cc:Work>
    </rdf:RDF>
  </metadata>
  <g
     inkscape:label="レイヤー 1"
     inkscape:groupmode="layer"
     id="layer1"
     transform="translate(112.33452,-299.26782)">
    <path
       style="fill:#ffffff;fill-opacity:1;stroke:none;stroke-width:0.511668px;stroke-linecap:butt;stroke-linejoin:miter;stroke-opacity:1"
       d="m -102.80952,299.26786 h -9.525 v 476.25 h 9.525 z"
       id="path819"
       inkscape:connector-curvature="0"
       sodipodi:nodetypes="ccccc" />
    <g
       id="g863"
       transform="matrix(0.49999994,0,0,0.49999994,-51.404766,149.63395)">
      <path
         style="fill:#7fb9ce;fill-opacity:1;stroke:none;stroke-width:0.229136;stroke-linecap:butt;stroke-linejoin:miter;stroke-miterlimit:4;stroke-dasharray:none;stroke-opacity:1"
         d="m 616.328,299.26786 h 709.6126 l -10e-5,952.50014 H 616.32792 Z"
         id="path868"
         inkscape:connector-curvature="0"
         sodipodi:nodetypes="ccccc" />
      <g
         id="g2"
         transform="translate(-447.6752,647.7001)">
        <circle
           style="fill:#0038a8;fill-opacity:1;stroke:none;stroke-width:0.661335;stroke-linejoin:bevel;stroke-miterlimit:155;paint-order:markers fill stroke"
           id="circle2"
           cx="-1416.4282"
           cy="-246.88034"
           r="238.12503"
           transform="scale(-1)" />
        <circle
           style="fill:#ffffff;stroke:none;stroke-width:0.440892;stroke-linejoin:bevel;stroke-miterlimit:155;paint-order:markers fill stroke"
           id="circle3"
           cx="-1416.4282"
           cy="-246.88034"
           r="158.75"
           transform="scale(-1)" />
        <path
           id="path1-2"
           style="fill:#ff8c0a;fill-opacity:1;stroke:none;stroke-width:0.465589;stroke-linejoin:round;stroke-miterlimit:3.9;stroke-opacity:1"
           d="m 1492.695,250.03761 c -9.0079,0.18055 -17.0941,6.6596 -26.0957,7.0417 -3.4304,0.1456 -10.1362,-1.83105 -10.1362,-1.83105 3.6419,6.4578 -2.8405,15.47925 0.2003,22.241 4.6253,10.28505 14.8663,17.95375 25.1067,22.67695 2.843,1.3113 6.384,0.1106 9.3137,1.2148 11.1051,4.1854 18.969,14.4898 29.561,19.8423 9.9841,5.04525 25.1491,2.18945 31.5856,11.33865 0.7767,1.104 0,4.04935 0,4.04935 3.1072,2.0819 4.7155,0.5209 9.7188,1.6197 -0.5624,4.80195 -1.7402,12.4117 -4.0494,17.41285 -4.7172,-3.155 -8.9518,-8.49575 -10.5285,-12.95835 0,0 -4.3479,1.2511 -6.4793,0.80985 -14.5762,-3.0176 -24.0017,-19.1773 -38.4698,-22.677 -15.1112,-3.65525 -31.7718,7.4927 -46.5626,2.7028 -13.5641,-4.3927 -19.7601,-22.11905 -33.1417,-27.0401 -19.2193,-7.0679 -60.6438,-0.17705 -79.7463,-7.55495 -12.896,-4.98065 -31.2694,-27.24395 -31.2694,-27.24395 0,0 -21.4102,-0.2872 -32.1098,-0.6383 -5.663,-0.1858 -11.9305,-3.3469 -16.9801,-0.77695 -0.7608,0.38715 -1.4243,1.28385 -1.4113,2.13745 0.091,5.9988 5.7779,10.849 10.3679,14.71255 7.4917,6.30605 20.4255,4.9353 26.5488,12.5771 0.906,1.1309 0.9599,4.2401 0.9599,4.2401 1.7602,2.73045 5.0934,3.4717 7.5188,5.57815 -1.4528,3.66685 -3.2238,7.62005 -6.6262,11.43005 -1.823,-3.15765 -4.2326,-6.95265 -3.7149,-12.73365 0,0 -3.3737,0.2046 -4.9557,-0.27995 -10.1919,-3.1218 -19.2892,-9.54165 -27.4597,-16.3873 -7.5616,-6.33555 -18.6453,-12.52805 -19.3813,-22.3655 -0.1688,-2.2564 1.953,-4.21835 3.6326,-5.7345 6.9564,-6.27925 16.1241,-10.06085 25.1608,-12.5427 10.1934,-2.7996 31.627,-2.33255 31.627,-2.33255 0,0 -1.4484,-23.88485 1.868,-35.13405 3.4348,-11.65115 13.8927,-21.3585 18.1148,-31.61915 1.2348,-3.00115 -5.0469,-5.58215 -8.263,-5.14885 -6.717,0.9049 -12.0624,4.4093 -16.6116,10.65315 -1.3278,1.8223 -3.7438,6.59155 -6.3627,6.2617 -1.4177,-0.17865 -4.4974,-1.01315 -4.9573,-2.07365 1.0342,-1.3082 2.8135,-6.1318 2.8135,-6.1318 0,0 -4.7231,2.93245 -7.099,3.4356 -2.0391,-0.3254 -3.3083,-1.58305 -3.3083,-3.84125 6.6298,-12.20715 12.264,-24.00245 21.338,-32.7304 2.5079,-2.4123 6.5115,-4.70385 11.2232,-6.6113 0.638,-2.11025 3.4796,-11.2906 6.1108,-15.88785 3.3324,-5.82255 8.2844,-12.98575 12.5915,-15.70105 0.9014,-0.56815 1.8108,0.3751 1.1071,1.3449 -2.6533,3.6568 -4.2544,8.3011 -5.0616,11.84935 -0.2225,0.97835 0.7024,2.9213 1.6273,2.5323 3.6431,-1.5323 6.6251,-4.75875 8.683,-8.15435 3.011,-4.96795 6.8238,-10.22135 8.8479,-15.027346 0.4645,-1.10325 2.2822,-1.1265 2.0079,0.32865 -1.0749,5.698796 -2.149,11.242296 -4.7083,16.398346 -2.5133,5.0638 -6.4839,8.8906 -11.5629,11.47 -2.7212,1.382 -6.0106,1.96015 -8.3779,3.8865 -1.1026,0.89735 -2.2163,2.64835 -3.0981,4.25935 2.4979,-0.6694 7.0932,-1.3399 7.0932,-1.3399 3.1678,-2.3422 13.3605,-5.65385 20.3707,-6.83395 6.6071,-1.1122 14.8086,-1.48785 21.046,0.71585 -4.2144,3.8693 -14.5021,8.0752 -20.903,10.5945 -1.4108,0.55525 -3.3908,1.00885 -5.3791,1.37465 14.2102,20.9478 1.7863,48.539 4.128,70.639 0.5285,4.9882 1.604,10.7991 5.4405,14.03085 15.8623,13.36195 49.3513,5.25345 73.1386,11.90765 8.2328,2.303 15.6765,6.6106 21.288,11.42635 0,0 9.9281,3.2226 15.0542,3.1479 10.3638,-0.1511 19.8947,-7.91925 30.2379,-7.24885 8.1117,0.52575 23.0017,7.96635 23.0017,7.96635 1.4698,-1.62895 4.7147,-1.2964 6.6149,-0.19975 3.4047,1.9649 5.2701,5.2574 6.3488,9.2829 -3.3298,0.70835 -6.2348,0.3686 -9.5271,-0.0666 -2.1084,-0.27865 -4.0817,-0.9396 -4.2776,-3.1066 0,0 -14.9959,-5.33385 -22.782,-5.17775 z"
           sodipodi:nodetypes="sscsssssccccsssssssssssccccsssssssssssssscscsssssssssssssscsssssssscscscs" />
      </g>
      <path
         style="fill:#7fb9ce;fill-opacity:1;stroke:none;stroke-width:0.229136;stroke-linecap:butt;stroke-linejoin:miter;stroke-miterlimit:4;stroke-dasharray:none;stroke-opacity:1"
         d="m 616.32792,1251.768 h -719.13746 l 2e-5,-471.48765 719.13746,3e-5 z"
         id="path1"
         inkscape:connector-curvature="0"
         sodipodi:nodetypes="ccccc" />
      <path
         sodipodi:nodetypes="ccccc"
         inkscape:connector-curvature="0"
         id="path884"
         d="m 606.803,770.75532 v -157.1625 l -709.61254,-3e-5 v 157.16249 z"
         style="fill:#0038a8;fill-opacity:1;stroke:none;stroke-width:1.09672px;stroke-linecap:butt;stroke-linejoin:miter;stroke-opacity:1" />
      <path
         style="fill:#ec8013;fill-opacity:1;stroke:none;stroke-width:1.09672px;stroke-linecap:butt;stroke-linejoin:miter;stroke-opacity:1"
         d="m 606.803,299.26779 v 157.16252 l -709.61254,-4e-5 V 299.26776 Z"
         id="path845"
         inkscape:connector-curvature="0"
         sodipodi:nodetypes="ccccc" />
      <path
         sodipodi:nodetypes="ccccc"
         inkscape:connector-curvature="0"
         id="path1-3"
         d="m -102.80954,613.59279 709.61254,3e-5 V 456.43031 l -709.61254,-4e-5 z"
         style="fill:#ffffff;fill-opacity:1;stroke:none;stroke-width:1.09672px;stroke-linecap:butt;stroke-linejoin:miter;stroke-opacity:1" />
      <g
         id="g1"
         transform="matrix(0.98999994,0,0,0.98999994,-118.89997,2.9926819)">
        <path
           sodipodi:nodetypes="ccccc"
           inkscape:connector-curvature="0"
           id="path65"
           d="M 213.8967,577.08034 H 332.95922 V 497.70533 H 213.89671 Z"
           style="fill:none;fill-opacity:1;stroke:#000000;stroke-width:1.5875;stroke-linecap:butt;stroke-linejoin:miter;stroke-dasharray:none;stroke-opacity:1" />
        <path
           sodipodi:nodetypes="ccccc"
           inkscape:connector-curvature="0"
           id="path66"
           d="M 413.92169,577.08034 H 532.98422 V 497.70533 H 413.9217 Z"
           style="fill:none;fill-opacity:1;stroke:#000000;stroke-width:1.5875;stroke-linecap:butt;stroke-linejoin:miter;stroke-dasharray:none;stroke-opacity:1" />
        <path
           sodipodi:nodetypes="ccccc"
           inkscape:connector-curvature="0"
           id="path67"
           d="m 333.75297,477.86158 v 119.06251 h 79.375 v -119.0625 z"
           style="fill:none;fill-opacity:1;stroke:#000000;stroke-width:1.5875;stroke-linecap:butt;stroke-linejoin:miter;stroke-dasharray:none;stroke-opacity:1" />
        <g
           id="g47"
           transform="matrix(1.0000001,0,0,-1.0000001,-187.38426,734.10798)">
          <path
             sodipodi:nodetypes="ccccc"
             inkscape:connector-curvature="0"
             id="path20"
             d="m 401.2809,166.56748 25.37772,16.91848 h 4.77051 L 401.2809,163.38714 Z"
             style="fill:#ffffff;fill-opacity:1;stroke:none;stroke-width:0.369263px;stroke-linecap:butt;stroke-linejoin:miter;stroke-opacity:1" />
          <path
             sodipodi:nodetypes="cccc"
             inkscape:connector-curvature="0"
             id="path21"
             d="m 401.2809,166.56748 25.37772,16.91848 H 401.2809 Z"
             style="fill:#0038a8;fill-opacity:1;stroke:none;stroke-width:0.369263px;stroke-linecap:butt;stroke-linejoin:miter;stroke-opacity:1" />
          <path
             sodipodi:nodetypes="ccccccc"
             inkscape:connector-curvature="0"
             id="path22"
             d="M 452.87465,188.77762 H 401.2809 v -5.29166 h 46.30208 v -26.45834 h 5.29167 z"
             style="fill:#ffffff;fill-opacity:1;stroke:none;stroke-width:0.369263px;stroke-linecap:butt;stroke-linejoin:miter;stroke-opacity:1" />
          <path
             sodipodi:nodetypes="cccccc"
             inkscape:connector-curvature="0"
             id="path23"
             d="m 401.2809,157.02762 h 14.31034 l 31.99174,21.32783 v 5.13051 h -6.61457 z"
             style="fill:#ffffff;fill-opacity:1;stroke:none;stroke-width:0.369263px;stroke-linecap:butt;stroke-linejoin:miter;stroke-opacity:1" />
          <path
             sodipodi:nodetypes="ccccc"
             inkscape:connector-curvature="0"
             id="path24"
             d="m 401.2809,157.02762 39.68751,26.45834 h -9.53928 L 401.2809,163.38714 Z"
             style="fill:#c8102e;fill-opacity:1;stroke:none;stroke-width:0.369263px;stroke-linecap:butt;stroke-linejoin:miter;stroke-opacity:1" />
          <path
             sodipodi:nodetypes="cccc"
             inkscape:connector-curvature="0"
             id="path25"
             d="m 415.59124,157.02762 31.99174,21.32783 v -21.32783 z"
             style="fill:#0038a8;fill-opacity:1;stroke:none;stroke-width:0.369263px;stroke-linecap:butt;stroke-linejoin:miter;stroke-opacity:1" />
          <path
             sodipodi:nodetypes="ccccccccccccc"
             inkscape:connector-curvature="0"
             id="path26"
             d="m 520.3434,188.77762 v 15.875 h -51.59375 v 31.75 h -15.875 v -31.75 H 401.2809 v -15.875 h 51.59375 v -31.75 h 15.875 v 31.75 z"
             style="fill:#c8102e;fill-opacity:1;stroke:none;stroke-width:0.369263px;stroke-linecap:butt;stroke-linejoin:miter;stroke-opacity:1" />
          <path
             sodipodi:nodetypes="ccccc"
             inkscape:connector-curvature="0"
             id="path27"
             d="m 520.3434,226.86276 -25.37772,-16.91848 h -4.77051 l 30.14823,20.09882 z"
             style="fill:#ffffff;fill-opacity:1;stroke:none;stroke-width:0.369263px;stroke-linecap:butt;stroke-linejoin:miter;stroke-opacity:1" />
          <path
             sodipodi:nodetypes="cccc"
             inkscape:connector-curvature="0"
             id="path28"
             d="M 520.3434,226.86276 494.96568,209.94428 H 520.3434 Z"
             style="fill:#0038a8;fill-opacity:1;stroke:none;stroke-width:0.369263px;stroke-linecap:butt;stroke-linejoin:miter;stroke-opacity:1" />
          <path
             sodipodi:nodetypes="ccccccc"
             inkscape:connector-curvature="0"
             id="path29"
             d="m 468.74965,204.65262 h 51.59375 v 5.29166 h -46.30208 v 26.45834 h -5.29167 z"
             style="fill:#ffffff;fill-opacity:1;stroke:none;stroke-width:0.369263px;stroke-linecap:butt;stroke-linejoin:miter;stroke-opacity:1" />
          <path
             sodipodi:nodetypes="cccccc"
             inkscape:connector-curvature="0"
             id="path30"
             d="m 520.3434,236.40262 h -14.31034 l -31.99174,-21.32783 v -5.13051 h 6.61457 z"
             style="fill:#ffffff;fill-opacity:1;stroke:none;stroke-width:0.369263px;stroke-linecap:butt;stroke-linejoin:miter;stroke-opacity:1" />
          <path
             sodipodi:nodetypes="ccccc"
             inkscape:connector-curvature="0"
             id="path31"
             d="m 520.3434,236.40262 -39.68751,-26.45834 h 9.53928 l 30.14823,20.09882 z"
             style="fill:#c8102e;fill-opacity:1;stroke:none;stroke-width:0.369263px;stroke-linecap:butt;stroke-linejoin:miter;stroke-opacity:1" />
          <path
             sodipodi:nodetypes="cccc"
             inkscape:connector-curvature="0"
             id="path32"
             d="m 506.03306,236.40262 -31.99174,-21.32783 v 21.32783 z"
             style="fill:#0038a8;fill-opacity:1;stroke:none;stroke-width:0.369263px;stroke-linecap:butt;stroke-linejoin:miter;stroke-opacity:1" />
          <path
             sodipodi:nodetypes="cccc"
             inkscape:connector-curvature="0"
             id="path33"
             d="m 401.2809,226.86276 25.37772,-16.91848 H 401.2809 Z"
             style="fill:#0038a8;fill-opacity:1;stroke:none;stroke-width:0.369263px;stroke-linecap:butt;stroke-linejoin:miter;stroke-opacity:1" />
          <path
             sodipodi:nodetypes="ccccccc"
             inkscape:connector-curvature="0"
             id="path34"
             d="M 452.87465,204.65262 H 401.2809 v 5.29166 h 46.30208 v 26.45834 h 5.29167 z"
             style="fill:#ffffff;fill-opacity:1;stroke:none;stroke-width:0.369263px;stroke-linecap:butt;stroke-linejoin:miter;stroke-opacity:1" />
          <path
             sodipodi:nodetypes="cccc"
             inkscape:connector-curvature="0"
             id="path35"
             d="m 415.59124,236.40262 31.99174,-21.32783 v 21.32783 z"
             style="fill:#0038a8;fill-opacity:1;stroke:none;stroke-width:0.369263px;stroke-linecap:butt;stroke-linejoin:miter;stroke-opacity:1" />
          <path
             sodipodi:nodetypes="ccccc"
             inkscape:connector-curvature="0"
             id="path39"
             d="m 447.58353,211.89463 v 3.1798 l -31.99229,21.32819 h -4.76802 z"
             style="fill:#ffffff;fill-opacity:1;stroke:none;stroke-width:0.369263px;stroke-linecap:butt;stroke-linejoin:miter;stroke-opacity:1" />
          <path
             sodipodi:nodetypes="ccccc"
             inkscape:connector-curvature="0"
             id="path40"
             d="m 426.65862,209.94428 h 14.31034 l -39.68749,26.45833 v -9.54023 z"
             style="fill:#ffffff;fill-opacity:1;stroke:none;stroke-width:0.369263px;stroke-linecap:butt;stroke-linejoin:miter;stroke-opacity:1" />
          <path
             sodipodi:nodetypes="cccccc"
             inkscape:connector-curvature="0"
             id="path41"
             d="m 447.58298,211.895 v -1.95072 h -6.61402 l -39.68749,26.45833 9.54175,1e-5 z"
             style="fill:#c8102e;fill-opacity:1;stroke:none;stroke-width:0.369263px;stroke-linecap:butt;stroke-linejoin:miter;stroke-opacity:1" />
          <path
             sodipodi:nodetypes="cccc"
             inkscape:connector-curvature="0"
             id="path42"
             d="m 520.3434,166.56748 -25.37772,16.91848 h 25.37772 z"
             style="fill:#0038a8;fill-opacity:1;stroke:none;stroke-width:0.369263px;stroke-linecap:butt;stroke-linejoin:miter;stroke-opacity:1" />
          <path
             sodipodi:nodetypes="ccccccc"
             inkscape:connector-curvature="0"
             id="path43"
             d="m 468.74965,188.77762 h 51.59375 v -5.29166 h -46.30208 v -26.45834 h -5.29167 z"
             style="fill:#ffffff;fill-opacity:1;stroke:none;stroke-width:0.369263px;stroke-linecap:butt;stroke-linejoin:miter;stroke-opacity:1" />
          <path
             sodipodi:nodetypes="cccc"
             inkscape:connector-curvature="0"
             id="path44"
             d="m 506.03306,157.02762 -31.99174,21.32783 v -21.32783 z"
             style="fill:#0038a8;fill-opacity:1;stroke:none;stroke-width:0.369263px;stroke-linecap:butt;stroke-linejoin:miter;stroke-opacity:1" />
          <path
             sodipodi:nodetypes="ccccc"
             inkscape:connector-curvature="0"
             id="path45"
             d="m 474.04077,181.53561 v -3.1798 l 31.99229,-21.32819 h 4.76802 z"
             style="fill:#ffffff;fill-opacity:1;stroke:none;stroke-width:0.369263px;stroke-linecap:butt;stroke-linejoin:miter;stroke-opacity:1" />
          <path
             sodipodi:nodetypes="ccccc"
             inkscape:connector-curvature="0"
             id="path46"
             d="m 494.96568,183.48596 h -14.31034 l 39.68749,-26.45833 v 9.54023 z"
             style="fill:#ffffff;fill-opacity:1;stroke:none;stroke-width:0.369263px;stroke-linecap:butt;stroke-linejoin:miter;stroke-opacity:1" />
          <path
             sodipodi:nodetypes="cccccc"
             inkscape:connector-curvature="0"
             id="path47"
             d="m 474.04132,181.53524 v 1.95072 h 6.61402 l 39.68749,-26.45833 -9.54175,-10e-6 z"
             style="fill:#c8102e;fill-opacity:1;stroke:none;stroke-width:0.369263px;stroke-linecap:butt;stroke-linejoin:miter;stroke-opacity:1" />
        </g>
        <g
           id="g64"
           transform="translate(-6e-5,-119.06262)">
          <path
             sodipodi:nodetypes="ccccc"
             inkscape:connector-curvature="0"
             id="path2"
             d="m 333.75298,647.95074 h 11.33929 v -51.02663 h -11.33929 z"
             style="fill:#c8102e;fill-opacity:1;stroke:none;stroke-width:0.369263px;stroke-linecap:butt;stroke-linejoin:miter;stroke-opacity:1" />
          <path
             sodipodi:nodetypes="ccccc"
             inkscape:connector-curvature="0"
             id="path48"
             d="m 345.09227,647.95074 h 11.33929 v -51.02663 h -11.33929 z"
             style="fill:#ffffff;fill-opacity:1;stroke:none;stroke-width:0.369263px;stroke-linecap:butt;stroke-linejoin:miter;stroke-opacity:1" />
          <path
             sodipodi:nodetypes="ccccc"
             inkscape:connector-curvature="0"
             id="path49"
             d="m 356.43156,647.95074 h 11.33929 v -51.02663 h -11.33929 z"
             style="fill:#0038a8;fill-opacity:1;stroke:none;stroke-width:0.369263px;stroke-linecap:butt;stroke-linejoin:miter;stroke-opacity:1" />
          <path
             sodipodi:nodetypes="ccccc"
             inkscape:connector-curvature="0"
             id="path50"
             d="m 367.77085,715.98661 h 11.33929 v -119.0625 h -11.33929 z"
             style="fill:#ec8013;fill-opacity:1;stroke:none;stroke-width:0.369263px;stroke-linecap:butt;stroke-linejoin:miter;stroke-opacity:1" />
          <path
             sodipodi:nodetypes="ccccc"
             inkscape:connector-curvature="0"
             id="path51"
             d="m 379.11014,715.98661 h 11.33929 v -119.0625 h -11.33929 z"
             style="fill:#ffffff;fill-opacity:1;stroke:none;stroke-width:0.369263px;stroke-linecap:butt;stroke-linejoin:miter;stroke-opacity:1" />
          <path
             sodipodi:nodetypes="ccccc"
             inkscape:connector-curvature="0"
             id="path52"
             d="m 390.44943,715.98661 h 11.33929 v -119.0625 h -11.33929 z"
             style="fill:#ec8013;fill-opacity:1;stroke:none;stroke-width:0.369263px;stroke-linecap:butt;stroke-linejoin:miter;stroke-opacity:1" />
          <path
             sodipodi:nodetypes="ccccc"
             inkscape:connector-curvature="0"
             id="path53"
             d="m 401.78872,715.98661 h 11.33929 v -119.0625 h -11.33929 z"
             style="fill:#ffffff;fill-opacity:1;stroke:none;stroke-width:0.369263px;stroke-linecap:butt;stroke-linejoin:miter;stroke-opacity:1" />
          <path
             sodipodi:nodetypes="ccccc"
             inkscape:connector-curvature="0"
             id="path61"
             d="m 333.75298,647.95074 h 11.33929 v 68.03587 h -11.33929 z"
             style="fill:#ffffff;fill-opacity:1;stroke:none;stroke-width:0.369263px;stroke-linecap:butt;stroke-linejoin:miter;stroke-opacity:1" />
          <path
             sodipodi:nodetypes="ccccc"
             inkscape:connector-curvature="0"
             id="path62"
             d="m 345.09227,647.95074 h 11.33929 v 68.03587 h -11.33929 z"
             style="fill:#ec8013;fill-opacity:1;stroke:none;stroke-width:0.369263px;stroke-linecap:butt;stroke-linejoin:miter;stroke-opacity:1" />
          <path
             sodipodi:nodetypes="ccccc"
             inkscape:connector-curvature="0"
             id="path63"
             d="m 356.43156,647.95074 h 11.33929 v 68.03587 h -11.33929 z"
             style="fill:#ffffff;fill-opacity:1;stroke:none;stroke-width:0.369263px;stroke-linecap:butt;stroke-linejoin:miter;stroke-opacity:1" />
        </g>
        <g
           id="g65"
           transform="translate(0.79369,-119.06262)">
          <path
             sodipodi:nodetypes="ccccc"
             inkscape:connector-curvature="0"
             id="path3"
             d="m 444.87796,616.76786 v 26.45833 h 87.31249 v -26.45833 z"
             style="fill:#c8102e;fill-opacity:1;stroke:none;stroke-width:0.188019px;stroke-linecap:butt;stroke-linejoin:miter;stroke-opacity:1" />
          <path
             sodipodi:nodetypes="ccccc"
             inkscape:connector-curvature="0"
             id="path54"
             d="m 444.87796,643.22619 v 26.45833 h 87.31249 v -26.45833 z"
             style="fill:#ffffff;fill-opacity:1;stroke:none;stroke-width:0.188019px;stroke-linecap:butt;stroke-linejoin:miter;stroke-opacity:1" />
          <path
             sodipodi:nodetypes="ccccc"
             inkscape:connector-curvature="0"
             id="path55"
             d="m 444.87798,669.68452 v 26.45833 h 87.3125 v -26.45833 z"
             style="fill:#0038a8;fill-opacity:1;stroke:none;stroke-width:0.188019px;stroke-linecap:butt;stroke-linejoin:miter;stroke-opacity:1" />
          <path
             sodipodi:nodetypes="ccccc"
             inkscape:connector-curvature="0"
             id="path64"
             d="m 413.12798,696.14286 h 31.75 v -79.375 h -31.75 z"
             style="fill:#027e3f;fill-opacity:1;stroke:none;stroke-width:0.190686px;stroke-linecap:butt;stroke-linejoin:miter;stroke-opacity:1" />
        </g>
      </g>
      <path
         style="fill:#ffffff;fill-opacity:1;stroke:none;stroke-width:0.0324047;stroke-linecap:butt;stroke-linejoin:miter;stroke-miterlimit:4;stroke-dasharray:none;stroke-opacity:1"
         d="m 616.328,780.28035 h -719.13754 l -8e-5,-9.525 H 606.803 V 299.26794 l 9.525,-8e-5 z"
         id="path4"
         inkscape:connector-curvature="0"
         sodipodi:nodetypes="ccccccc" />
    </g>
  </g>
</svg>
