<?xml version="1.0" encoding="UTF-8" standalone="no"?>
<!-- Created with Inkscape (http://www.inkscape.org/) -->

<svg
   width="3193.8845"
   height="1800"
   viewBox="0 0 845.0486 476.25001"
   version="1.1"
   id="svg8"
   inkscape:export-filename="C:\Users\厂永刄先生\Documents\GXI3CW2\JáÈŭcèŭ\Èŭmen\Fa\王国船.png"
   inkscape:export-xdpi="96"
   inkscape:export-ydpi="96"
   inkscape:version="1.3 (0e150ed6c4, 2023-07-21)"
   sodipodi:docname="mn_1924.svg"
   xmlns:inkscape="http://www.inkscape.org/namespaces/inkscape"
   xmlns:sodipodi="http://sodipodi.sourceforge.net/DTD/sodipodi-0.dtd"
   xmlns="http://www.w3.org/2000/svg"
   xmlns:svg="http://www.w3.org/2000/svg"
   xmlns:rdf="http://www.w3.org/1999/02/22-rdf-syntax-ns#"
   xmlns:cc="http://creativecommons.org/ns#"
   xmlns:dc="http://purl.org/dc/elements/1.1/">
  <defs
     id="defs2" />
  <sodipodi:namedview
     id="base"
     pagecolor="#ffffff"
     bordercolor="#666666"
     borderopacity="1.0"
     inkscape:pageopacity="0.0"
     inkscape:pageshadow="2"
     inkscape:zoom="0.24532453"
     inkscape:cx="2182.8229"
     inkscape:cy="662.3879"
     inkscape:document-units="px"
     inkscape:current-layer="layer1"
     showgrid="false"
     units="px"
     fit-margin-top="0"
     fit-margin-left="0"
     fit-margin-right="0"
     fit-margin-bottom="0"
     inkscape:showpageshadow="false"
     inkscape:snap-intersection-paths="true"
     inkscape:object-paths="false"
     inkscape:pagecheckerboard="true"
     inkscape:snap-smooth-nodes="true"
     inkscape:window-width="1920"
     inkscape:window-height="1009"
     inkscape:window-x="-8"
     inkscape:window-y="-8"
     inkscape:window-maximized="1"
     inkscape:object-nodes="true"
     inkscape:snap-nodes="true"
     showguides="true"
     inkscape:guide-bbox="true"
     inkscape:deskcolor="#505050" />
  <metadata
     id="metadata5">
    <rdf:RDF>
      <cc:Work
         rdf:about="">
        <dc:format>image/svg+xml</dc:format>
        <dc:type
           rdf:resource="http://purl.org/dc/dcmitype/StillImage" />
      </cc:Work>
    </rdf:RDF>
  </metadata>
  <g
     inkscape:label="レイヤー 1"
     inkscape:groupmode="layer"
     id="layer1"
     transform="translate(112.33452,-299.26786)">
    <path
       style="fill:#ffffff;fill-opacity:1;stroke:none;stroke-width:0.511668px;stroke-linecap:butt;stroke-linejoin:miter;stroke-opacity:1"
       d="m -102.80952,299.26786 h -9.525 v 476.25 h 9.525 z"
       id="path1079"
       inkscape:connector-curvature="0"
       sodipodi:nodetypes="ccccc" />
    <path
       style="fill:#da2032;fill-opacity:1;stroke:none;stroke-width:1.23579px;stroke-linecap:butt;stroke-linejoin:miter;stroke-opacity:1"
       d="m -102.80952,299.26786 v 476.25 h 555.625 v -476.25 z"
       id="path3843"
       inkscape:connector-curvature="0"
       sodipodi:nodetypes="ccccc" />
    <g
       id="g852"
       transform="translate(-198.268,-1.9923782)"
       style="fill:#f6c52e;fill-opacity:1">
      <g
         transform="matrix(0.8358923,0,0,0.8358923,326.68026,60.376088)"
         style="fill:#ffd400;fill-opacity:1"
         id="g4006">
        <path
           sodipodi:nodetypes="ccccc"
           inkscape:connector-curvature="0"
           id="path3851"
           d="M 108.85715,722.60119 V 516.22617 h 52.91667 v 206.37502 z"
           style="fill:#ffd400;fill-opacity:1;stroke:none;stroke-width:0.511668px;stroke-linecap:butt;stroke-linejoin:miter;stroke-opacity:1" />
        <path
           sodipodi:nodetypes="ccccc"
           inkscape:connector-curvature="0"
           id="path3855"
           d="M -49.892853,516.22617 V 722.60119 H 3.0238136 V 516.22617 Z"
           style="fill:#ffd400;fill-opacity:1;stroke:none;stroke-width:0.511668px;stroke-linecap:butt;stroke-linejoin:miter;stroke-opacity:1" />
        <path
           style="fill:#ffd400;fill-opacity:1;stroke:none;stroke-width:0.511668px;stroke-linecap:butt;stroke-linejoin:miter;stroke-opacity:1"
           d="m 98.273807,696.14286 h -84.66666 l 42.33333,26.45833 z"
           id="path3867"
           inkscape:connector-curvature="0"
           sodipodi:nodetypes="cccc" />
        <path
           sodipodi:nodetypes="ccccc"
           inkscape:connector-curvature="0"
           id="path3869"
           d="m 98.273811,553.26784 h -84.66666 v 13.22917 h 84.66666 z"
           style="fill:#ffd400;fill-opacity:1;stroke:none;stroke-width:0.511668px;stroke-linecap:butt;stroke-linejoin:miter;stroke-opacity:1" />
        <path
           sodipodi:nodetypes="cccc"
           inkscape:connector-curvature="0"
           id="path3881"
           d="m 13.607147,516.22617 h 84.66666 l -42.33333,26.45833 z"
           style="fill:#ffd400;fill-opacity:1;stroke:none;stroke-width:0.511668px;stroke-linecap:butt;stroke-linejoin:miter;stroke-opacity:1" />
        <path
           style="fill:#ffd400;fill-opacity:1;stroke:none;stroke-width:0.511668px;stroke-linecap:butt;stroke-linejoin:miter;stroke-opacity:1"
           d="m 98.273811,685.55952 h -84.66666 v -13.22916 h 84.66666 z"
           id="path3883"
           inkscape:connector-curvature="0"
           sodipodi:nodetypes="ccccc" />
        <g
           id="g3943"
           style="fill:#ffd400;fill-opacity:1">
          <path
             sodipodi:nodetypes="zzzzzscsssss"
             inkscape:connector-curvature="0"
             id="circle3907"
             d="m 51.707146,-641.90326 c 0,2.338 1.895329,4.23333 4.233333,4.23333 2.338004,0 4.233334,-1.89533 4.233334,-4.23333 0,-2.338 -1.89533,-4.23333 -4.233334,-4.23333 -2.338004,0 -4.233333,1.89533 -4.233333,4.23333 z m 46.566665,22.48956 c 3e-6,15.9349 -8.804232,29.81345 -21.816884,37.02773 2.907741,-4.11132 4.618967,-9.1249 4.618968,-14.53816 3e-6,-13.88191 -11.253508,-25.13542 -25.135416,-25.1354 -10.959401,2e-5 -19.84375,-8.88433 -19.84375,-19.84373 0,-10.9594 8.884349,-19.84375 19.84375,-19.84376 23.380053,-10e-6 42.333328,18.95327 42.333332,42.33332 z"
             style="opacity:1;fill:#ffd400;fill-opacity:1;fill-rule:evenodd;stroke:none;stroke-width:0.0285385;stroke-linecap:round;stroke-linejoin:round;stroke-miterlimit:4;stroke-dasharray:none;stroke-dashoffset:0;stroke-opacity:1"
             transform="scale(1,-1)" />
          <path
             style="opacity:1;fill:#ffd400;fill-opacity:1;fill-rule:evenodd;stroke:none;stroke-width:0.0285385;stroke-linecap:round;stroke-linejoin:round;stroke-miterlimit:4;stroke-dasharray:none;stroke-dashoffset:0;stroke-opacity:1"
             d="m 60.173812,596.9241 c 0,2.338 -1.895329,4.23333 -4.233333,4.23333 -2.338004,0 -4.233334,-1.89533 -4.233334,-4.23333 0,-2.338 1.89533,-4.23333 4.233334,-4.23333 2.338004,0 4.233333,1.89533 4.233333,4.23333 z m -46.566665,22.48956 c -3e-6,15.9349 8.804232,29.81345 21.816884,37.02773 -2.907741,-4.11132 -4.618967,-9.1249 -4.618968,-14.53816 -3e-6,-13.88191 11.253508,-25.13542 25.135416,-25.1354 10.959401,2e-5 19.84375,-8.88433 19.84375,-19.84373 0,-10.9594 -8.884349,-19.84375 -19.84375,-19.84376 -23.380053,-10e-6 -42.333328,18.95327 -42.333332,42.33332 z"
             id="path3915"
             inkscape:connector-curvature="0"
             sodipodi:nodetypes="zzzzzscsssss" />
        </g>
        <path
           style="opacity:1;fill:#ffd400;fill-opacity:1;fill-rule:evenodd;stroke:none;stroke-width:1.14687;stroke-linecap:round;stroke-linejoin:round;stroke-miterlimit:4;stroke-dasharray:none;stroke-dashoffset:0;stroke-opacity:1"
           d="m 796,619.99317 c -29.92283,57.88548 -90.33756,97.46191 -160,97.4619 -69.66244,-10e-6 -130.07717,-39.57642 -160,-97.46189 0,88.37238 71.63445,160.00683 160,160.00682 88.36555,0 160,-71.63445 160,-160.00683 z"
           transform="matrix(0.26458333,0,0,0.26458333,-112.33452,299.26786)"
           id="path3917"
           inkscape:connector-curvature="0"
           sodipodi:nodetypes="czczc" />
        <path
           style="opacity:1;fill:#ffd400;fill-opacity:1;fill-rule:evenodd;stroke:none;stroke-width:0.350389;stroke-linecap:round;stroke-linejoin:round;stroke-miterlimit:4;stroke-dasharray:none;stroke-dashoffset:0;stroke-opacity:1"
           d="m 91.659237,441.46951 c -2e-6,19.72693 -15.99183,35.71875 -35.718751,35.71875 -19.726918,0 -35.718749,-15.99183 -35.718749,-35.71875 0,-19.72692 15.991822,-35.71876 35.718749,-35.71876 19.726924,0 35.718754,15.99183 35.718751,35.71876 z"
           id="path3930"
           inkscape:connector-curvature="0"
           sodipodi:nodetypes="zzzzz" />
        <path
           sodipodi:nodetypes="szczzzssssssscsccszsccscssssssss"
           inkscape:connector-curvature="0"
           id="path3992"
           d="m 63.095084,364.50079 c 0,-8.41086 -7.292131,-9.02578 -7.292131,-15.48133 0,-6.45555 1.652685,-6.25117 1.652685,-6.25117 -3.562495,0 -5.610963,3.17817 -5.610963,6.25117 0,3.073 1.636101,3.2872 1.636101,7.22969 0,3.94249 -4.694899,3.7922 -4.694899,8.25164 0,4.45944 3.185868,6.14833 3.185869,9.49994 0,2.19188 -1.776871,3.96875 -3.968752,3.96875 -2.191881,0 -3.968749,-1.77687 -3.968747,-3.96875 2e-6,-1.86763 0.823704,-3.58455 2.204455,-4.63059 0.682321,-0.51691 1.182988,-1.28333 1.182988,-2.20331 0,-1.03446 -0.58516,-1.9476 -1.464966,-2.36796 -0.64606,-0.30867 -1.261221,-0.70115 -1.792779,-1.23271 -2.32483,-2.32482 -2.32482,-6.09413 -10e-6,-8.41901 -2.44339,1.35314 -4.098457,3.9565 -4.098457,6.94737 0,0.88868 0.141756,1.7445 0.417007,2.54026 0.02204,0.0637 0.0019,0.13622 -0.04629,0.17585 -2.648453,2.18465 -4.339452,5.48885 -4.339452,9.19013 0,10.95939 8.88434,19.84374 19.843739,19.84374 10.959399,0 19.843739,-8.88435 19.843739,-19.84374 0,-3.70128 -1.690999,-7.00548 -4.339452,-9.19013 -0.04819,-0.0396 -0.06833,-0.11215 -0.04629,-0.17585 0.275251,-0.79576 0.417007,-1.65158 0.417007,-2.54026 0,-2.99087 -1.655067,-5.59423 -4.098457,-6.94737 2.32481,2.32488 2.32482,6.09419 -1e-5,8.41901 -0.531558,0.53156 -1.146719,0.92404 -1.792779,1.23271 -0.879806,0.42036 -1.464966,1.3335 -1.464966,2.36796 0,0.91998 0.500667,1.6864 1.182988,2.20331 1.380751,1.04604 2.204453,2.76296 2.204455,4.63059 2e-6,2.19188 -1.776866,3.96875 -3.968747,3.96875 -2.191881,0 -3.968752,-1.77687 -3.968753,-3.96875 -10e-7,-3.35161 3.185867,-5.0405 3.185867,-9.49994 z"
           style="fill:#ffd400;fill-opacity:1;stroke:none;stroke-width:0.264583px;stroke-linecap:butt;stroke-linejoin:miter;stroke-opacity:1" />
      </g>
      <path
         inkscape:connector-curvature="0"
         id="path831"
         d="m 234.53432,675.76779 17.36336,24.39737 h 16.76455 l -14.9681,-24.39737 z m 28.73933,0 13.77128,24.39737 h 16.76372 l -11.37514,-24.39737 z m 28.73934,0 10.17833,24.39737 h 16.76459 l -7.7839,-24.39737 z m 28.73937,0 6.58539,24.39737 h 16.76458 l -4.19094,-24.39737 z m 28.73855,0 2.99409,24.39737 h 16.76453 l -0.59881,-24.39737 z m 28.73933,0 -0.59883,24.39737 h 16.76455 l 2.99409,-24.39737 z m 28.73933,0 -4.19094,24.39737 h 16.76458 l 6.58539,-24.39737 z m 28.73938,0 -7.7839,24.39737 h 16.76459 l 10.17833,-24.39737 z m 28.73849,0 -11.37513,24.39737 h 16.7637 l 13.7713,-24.39737 z m 28.73937,0 -14.96808,24.39737 h 16.76454 l 17.36337,-24.39737 z m -258.65249,31.27189 -19.84384,24.83794 h 21.89671 l 17.10694,-24.83794 z m 28.73933,0 -15.7381,24.83794 h 21.8967 l 13.00126,-24.83794 z m 28.73934,0 -11.63239,24.83794 h 21.89592 l 8.89549,-24.83794 z m 28.73937,0 -7.52748,24.83794 h 21.89675 l 4.78976,-24.83794 z m 28.73855,0 -3.42092,24.83794 h 21.8967 l 0.68403,-24.83794 z m 28.73933,0 0.68403,24.83794 h 21.8967 l -3.42092,-24.83794 z m 28.73933,0 4.78975,24.83794 h 21.89676 l -7.52748,-24.83794 z m 28.73938,0 8.89548,24.83794 h 21.89592 l -11.63238,-24.83794 z m 28.73849,0 13.00127,24.83794 h 21.8967 l -15.7381,-24.83794 z m 28.73937,0 17.10696,24.83794 h 21.89671 l -19.84384,-24.83794 z"
         style="fill:#159315;fill-opacity:1;stroke:none;stroke-width:0.415442px;stroke-linecap:butt;stroke-linejoin:miter;stroke-opacity:1"
         sodipodi:nodetypes="cccccccccccccccccccccccccccccccccccccccccccccccccccccccccccccccccccccccccccccccccccccccccccccccccccc" />
    </g>
    <path
       id="text1"
       style="font-size:69.3072px;line-height:1;font-family:BatangChe;-inkscape-font-specification:BatangChe;letter-spacing:0px;writing-mode:vertical-lr;text-orientation:sideways;fill:#ffffff;stroke-width:1.08292;stroke-linecap:round;stroke-linejoin:round;paint-order:stroke fill markers"
       d="m -20.01199,379.99627 c -1.872555,0 -3.543429,0.0792 -5.008479,0.27078 -1.467953,0.19196 -2.7116,0.50957 -3.722771,0.94775 -1.0194,0.44174 -1.798701,1.02244 -2.334741,1.72599 -0.546915,0.71783 -0.812353,1.59029 -0.812353,2.60553 0,1.64694 0.620534,2.92161 1.861385,3.82405 1.24085,0.90243 3.090909,1.37649 5.550049,1.42162 -2.45914,0.0451 -4.314523,0.50018 -5.550049,1.38751 -1.24622,0.89501 -1.861385,2.18814 -1.861385,3.85765 0,1.01524 0.270891,1.87255 0.812353,2.57193 0.541462,0.69939 1.323571,1.25423 2.334741,1.69241 1.019401,0.44174 2.256311,0.77829 3.722771,0.98133 1.466459,0.20305 3.135924,0.30438 5.008479,0.30438 v 4.67 l -17.86816,7.07295 v 0.77825 l 7.038847,1.48931 h 0.812354 l 10.016959,-7.03885 v 11.93571 c -0.266832,0.0245 -0.507903,0.0143 -0.778247,0.0439 -1.646986,0.18012 -3.283408,0.45988 -4.907194,0.84595 -1.602429,0.381 -3.152833,0.85498 -4.636409,1.45521 -1.472029,0.59555 -2.786281,1.331 -3.959448,2.16576 l 4.839497,2.30115 c 1.128046,-0.69939 2.176976,-1.33095 3.147095,-1.89498 0.97012,-0.56402 1.962872,-1.04911 2.978113,-1.45521 1.015241,-0.40609 2.107273,-0.73253 3.282487,-0.94723 1.171223,-0.21397 2.527108,-0.30489 4.061251,-0.30489 1.26341,0 2.528891,0.1247 3.789949,0.40618 1.265856,0.28256 2.4083624,0.77063 3.4183964,1.45521 1.020507,0.69167 1.843204,1.61021 2.470134,2.74092 0.636493,1.14796 0.947745,2.57226 0.947745,4.26434 0,2.70731 -0.732397,4.68087 -2.165759,5.95622 -1.431974,1.27412 -3.5307434,1.92857 -6.3282964,1.92857 v -5.27927 c 0,-0.47378 -0.07722,-0.85282 -0.203088,-1.15032 -0.122439,-0.2894 -0.270825,-0.51903 -0.473873,-0.67696 -0.203049,-0.15791 -0.43982,-0.25924 -0.710551,-0.30437 -0.27073,-0.0451 -0.564197,-0.0677 -0.88005,-0.0677 h -8.325073 c -2.571944,0 -4.455606,0.39479 -5.651334,1.18443 -1.195729,0.78962 -1.793689,2.03018 -1.793689,3.72225 0,1.01524 0.149092,1.84348 0.473873,2.47065 0.32955,0.63638 0.823502,1.12783 1.455208,1.4888 0.631705,0.36098 1.411164,0.58666 2.334741,0.71055 0.926551,0.12429 1.985473,0.20309 3.181201,0.20309 h 4.433321 v 4.90719 c -1.376215,0.33841 -2.819937,0.66548 -4.331518,0.98134 -1.48902,0.31585 -2.966862,0.65447 -4.433321,1.01544 -1.443899,0.36097 -2.831443,0.76679 -4.162537,1.21801 -1.308533,0.47378 -2.459305,1.02659 -3.451986,1.6583 -0.992681,0.63171 -1.782264,1.36511 -2.368848,2.19987 -0.586584,0.85731 -0.880049,1.86109 -0.880049,3.0117 0,0.76706 0.146991,1.4779 0.440283,2.13217 0.315852,0.67683 0.789395,1.26324 1.421102,1.75958 0.654267,0.49634 1.466425,0.8801 2.436543,1.15083 0.99268,0.27073 2.177056,0.40618 3.553271,0.40618 2.256093,0 4.0274,-0.43994 5.313371,-1.31982 1.308533,-0.85731 1.962671,-2.1661 1.962671,-3.92585 0,-0.65427 -0.1239,-1.28584 -0.37207,-1.89498 -0.225609,-0.58658 -0.530104,-1.12837 -0.913639,-1.62471 -0.383536,-0.49634 -0.812448,-0.92473 -1.286227,-1.28571 -0.473779,-0.36097 -0.947323,-0.64289 -1.421102,-0.84594 0.451219,-0.18049 1.048662,-0.38365 1.793172,-0.60926 0.767072,-0.20305 1.568201,-0.40622 2.402955,-0.60927 0.834753,-0.20305 1.635883,-0.39467 2.402954,-0.57516 0.767071,-0.15792 1.398634,-0.27079 1.894974,-0.33848 v 17.90227 c -1.082923,0.0902 -2.301419,0.39473 -3.655074,0.91364 -1.353654,0.5189 -2.704213,1.17135 -4.027144,1.99677 -1.316828,0.82161 -2.549044,1.78183 -3.688664,2.87632 -1.139149,1.09403 -2.018955,2.28985 -2.673222,3.55327 3.812795,0.29328 7.44778,0.847 10.89701,1.6924 3.454443,0.84668 6.787184,1.96006 10.016959,3.28249 2.500725,1.02392 4.9376964,2.24976 7.3096324,3.68866 2.388427,1.44891 4.782782,2.94432 7.174239,4.50102 1.060363,-0.56402 2.012556,-1.08516 2.876827,-1.52291 0.87313,-0.44224 1.725636,-0.84602 2.537829,-1.25212 0.812193,-0.4061 1.642437,-0.83256 2.50424,-1.25212 0.8529236,-0.41524 1.8054876,-0.87907 2.8427206,-1.42162 0.429229,-0.22452 0.77332,-0.46792 1.049031,-0.71055 0.288424,-0.25381 0.440284,-0.43979 0.440284,-0.57515 0,-0.45122 -0.130584,-0.76437 -0.406177,-0.91364 -0.26615,-0.14416 -0.699643,-0.20309 -1.286227,-0.20309 -0.180487,0 -0.532573,0.0321 -1.049031,0.13539 -0.499119,0.0998 -1.0491516,0.22516 -1.6582966,0.33796 -0.609145,0.1128 -1.219865,0.20365 -1.827279,0.30489 -0.611073,0.10185 -1.094234,0.16899 -1.455208,0.16899 -0.834754,0 -1.850824,-0.15522 -3.045809,-0.47388 -1.173918,-0.31305 -2.49298903,-0.73321 -3.959448,-1.25212 -1.46646,-0.5189 -3.068201,-1.11634 -4.805392,-1.79317 -1.73719,-0.67682 -3.563938,-1.38956 -5.4823524,-2.13217 -1.57853,-0.61104 -3.245923,-1.16096 -5.00848,-1.62419 -1.757009,-0.46177 -3.427082,-0.84584 -5.00848,-1.15083 -1.577205,-0.30418 -2.97685,-0.50768 -4.196126,-0.60927 -1.217406,-0.10143 -2.075596,-0.0677 -2.571936,0.0677 0.360975,-0.38353 0.958418,-0.82348 1.793172,-1.31982 0.834754,-0.49634 1.759783,-0.96988 2.775025,-1.4211 1.015241,-0.45122 2.049249,-0.84835 3.113505,-1.15083 1.079199,-0.30672 2.053101,-0.43977 2.910416,-0.43977 h 3.72277 v -27.61485 c 2.233531,-0.15793 4.2160484,-0.45057 5.9557094,-0.84595 1.734786,-0.39427 3.187233,-0.97777 4.365625,-1.75958 1.167995,-0.77491 2.060103,-1.77306 2.67373897,-3.0117 0.604661,-1.22052 0.913639,-2.74128 0.913639,-4.56871 0,-1.37622 -0.221764,-2.61892 -0.676961,-3.72277 -0.44724597,-1.08457 -1.06020797,-2.04156 -1.82727897,-2.87631 -0.767071,-0.83476 -1.678981,-1.56027 -2.741435,-2.16576 -1.035724,-0.59025 -2.15222,-1.07871 -3.350183,-1.45521 -1.170974,-0.36802 -2.4028204,-0.63096 -3.6886644,-0.81236 -0.546414,-0.0771 -1.082123,-0.073 -1.62419,-0.1173 V 401.5872 c 1.71463,-0.0902 3.40398,-0.3602 5.0761764,-0.77825 1.666887,-0.41672 3.153208,-1.0456 4.466911,-1.89498 1.303412,-0.84272 2.344175,-1.92577 3.147095,-3.24889 0.79898597,-1.31664 1.21852997,-2.91028 1.21852997,-4.80539 0,-1.39878 -0.300051,-2.7323 -0.913639,-3.99356 -0.60470897,-1.24301 -1.50057097,-2.34596 -2.67373897,-3.31608 -1.173167,-0.97011 -2.624832,-1.78123 -4.365625,-2.40295 -1.733646,-0.61916 -3.7166024,-1.15083 -5.9557094,-1.15083 z m 0,2.16627 v 6.46369 c -1.263411,0 -2.346525,-0.0333 -3.248897,-0.1018 -0.879941,-0.0668 -1.609562,-0.22408 -2.199866,-0.43977 -0.583032,-0.21303 -1.014978,-0.50754 -1.285709,-0.91364 -0.270731,-0.4061 -0.406177,-0.94788 -0.406177,-1.6247 0,-1.35366 0.573903,-2.25992 1.725993,-2.70733 1.171697,-0.45502 2.978078,-0.67645 5.414656,-0.67645 z m 6.159314,0.13539 c 1.398777,0.24818 2.632993,0.64527 3.688664,1.21802 1.0651274,0.57788 1.9397064,1.26378 2.6396324,2.03037 0.721411,0.79012 1.267069,1.63438 1.62419,2.53834 0.364834,0.92348 0.541569,1.85003 0.541569,2.77503 0,1.44389 -0.295255,2.64321 -0.845943,3.62096 -0.5549,0.98523 -1.229719,1.80484 -2.064473,2.43655 -0.834754,0.6317 -1.7520564,1.09506 -2.7414354,1.4211 -0.996085,0.32825 -1.939767,0.56415 -2.842204,0.67696 v -5.34696 c 0,-0.925 -0.287184,-1.61869 -0.84646,-2.09806 -0.546266,-0.46822 -1.263323,-0.73312 -2.165759,-0.77825 0.902436,-0.0451 1.619491,-0.31002 2.165759,-0.77825 0.559273,-0.47938 0.84646,-1.17358 0.84646,-2.09858 z m -6.159314,10.65982 v 6.46369 c -2.436578,0 -4.242962,-0.22194 -5.414656,-0.67696 -1.152093,-0.44741 -1.725993,-1.35367 -1.725993,-2.70733 0,-0.67683 0.135446,-1.2181 0.406177,-1.62419 0.270731,-0.4061 0.695404,-0.73207 1.285709,-0.94775 0.583032,-0.21303 1.319926,-0.33934 2.199866,-0.40618 0.902373,-0.0686 1.985486,-0.10128 3.248897,-0.10128 z m -2.673738,41.18508 h 2.673738 v 5.44825 h -2.673738 c -0.834754,0 -1.543678,-0.0547 -2.131653,-0.13539 -0.562791,-0.0773 -1.029348,-0.19821 -1.387512,-0.40618 -0.341293,-0.19817 -0.592284,-0.48258 -0.744658,-0.84594 -0.140955,-0.33613 -0.203088,-0.77836 -0.203088,-1.31982 0,-0.56403 0.06392,-1.02799 0.203088,-1.38751 0.131577,-0.3399 0.372138,-0.60879 0.710551,-0.81184 0.338414,-0.20305 0.788033,-0.3626 1.353923,-0.44028 0.584992,-0.0803 1.319473,-0.10129 2.199349,-0.10129 z m -8.697144,18.27434 c 0.406097,0.0902 0.857583,0.27084 1.353923,0.54157 0.49634,0.27073 0.958855,0.5978 1.387512,0.98133 0.451218,0.4061 0.823436,0.85706 1.116728,1.35341 0.293292,0.5189 0.439766,1.07172 0.439766,1.6583 0,0.47378 -0.135446,0.90268 -0.406177,1.28622 -0.270731,0.4061 -0.631403,0.74419 -1.082621,1.01493 -0.428657,0.29329 -0.925292,0.51903 -1.489315,0.67696 -0.564023,0.15793 -1.139409,0.23668 -1.725993,0.23668 -0.631705,0 -1.184,-0.0903 -1.657779,-0.27079 -0.451219,-0.15792 -0.823953,-0.3947 -1.117245,-0.71055 -0.293292,-0.29329 -0.507489,-0.64293 -0.642855,-1.04903 -0.135365,-0.40609 -0.203088,-0.83449 -0.203088,-1.28571 0,-0.45122 0.101843,-0.9027 0.304891,-1.35392 0.225609,-0.42866 0.518558,-0.83448 0.879533,-1.21802 0.360974,-0.38353 0.789886,-0.74472 1.286226,-1.08313 0.49634,-0.31586 1.015032,-0.5752 1.556494,-0.77825 z m 19.289779,54.72172 c -0.203048,0 -0.451365,0.0898 -0.744658,0.27027 -0.270731,0.20305 -0.519048,0.4288 -0.744657,0.67696 0,0.15793 0.134998,0.38408 0.406177,0.67696 0.292844,0.31627 0.633841,0.75449 1.015442,1.31982 0.22755,0.33711 0.417232,0.64291 0.575158,0.91364 0.157927,0.27073 0.297482,0.52825 0.406177,0.77825 0.116944,0.26897 0.182853,0.54322 0.236678,0.81235 0.05903,0.29515 0.101803,0.62036 0.101803,0.98134 0,0.5189 -0.287035,0.86641 -0.845944,1.08313 -0.546912,0.21207 -1.263322,0.33848 -2.165759,0.33848 h -5.076176 c -0.49634,0 -1.219975,0.0322 -2.166276,0.13488 -0.926418,0.10048 -1.951353,0.28237 -3.079398,0.50798 -1.128046,0.22561 -2.278818,0.49598 -3.451986,0.81184 -1.173167,0.31585 -2.244671,0.69961 -3.214791,1.15083 l 0.338481,1.21853 c 1.782312,0.29329 3.554558,0.54156 5.312854,0.77825 1.761276,0.2371 3.48591,0.40618 5.177978,0.47387 v 4.09484 c -1.872555,0.18049 -3.736035,0.46269 -5.583638,0.87953 -1.852449,0.41793 -3.621302,0.98147 -5.313371,1.6583 l 0.37207,1.18442 c 0.541462,0.15793 1.286414,0.31595 2.233973,0.47388 0.947558,0.15792 1.939665,0.29456 2.977596,0.40617 1.060235,0.114 2.075689,0.21414 3.045809,0.30438 0.970119,0.0902 1.7261,0.15795 2.267561,0.20309 v 4.83949 l -17.86816,7.07296 v 0.77824 l 7.038847,1.4888 h 0.812354 l 10.016959,-7.03884 v 11.77655 l -17.86816,7.07295 v 0.77825 l 7.038847,1.48931 h 0.812354 l 10.016959,-7.03936 v 11.70936 l -17.86816,7.07296 v 0.77824 l 7.038847,1.48932 h 0.812354 l 10.016959,-7.03937 v 11.84476 l -6.260599,3.0117 -8.020699,-3.0117 -0.642855,0.71055 3.959448,4.56871 -8.595858,4.12843 v 0.77825 l 7.039364,1.48932 h 0.811837 l 11.709362,-9.37411 v 13.97641 c -1.872555,0.18049 -3.736035,0.46321 -5.583638,0.88005 -1.852449,0.41793 -3.621302,0.98095 -5.313371,1.65778 l 0.37207,1.18494 c 0.541462,0.15793 1.286414,0.31543 2.233973,0.47335 0.947558,0.15793 1.939664,0.29458 2.977596,0.40618 1.060234,0.114 2.075688,0.21465 3.045808,0.30489 0.970119,0.0902 1.726101,0.15796 2.267561,0.20309 v 4.83898 c -1.872554,0.18049 -3.736035,0.46321 -5.583638,0.88005 -1.852449,0.41793 -3.621302,0.98147 -5.31337,1.6583 l 0.37207,1.18442 c 0.541462,0.15793 1.286414,0.31595 2.233973,0.47388 0.947558,0.15792 1.939663,0.29405 2.977596,0.40566 1.060234,0.114 2.075688,0.21464 3.045808,0.30489 0.970119,0.0902 1.726101,0.15795 2.267561,0.20308 v 4.83899 c -1.376215,0.33841 -2.820413,0.66372 -4.331518,0.98185 -1.4895,0.31358 -2.967515,0.65131 -4.433321,1.01492 -1.444556,0.35834 -2.836128,0.75372 -4.162537,1.21853 -1.313357,0.46024 -2.459305,1.02659 -3.451985,1.6583 -0.992681,0.63171 -1.787534,1.36092 -2.368848,2.19935 -0.591877,0.85366 -0.880049,1.86161 -0.880049,3.01222 0,0.76706 0.141925,1.47968 0.440283,2.13165 0.310804,0.67916 0.78516,1.2692 1.421102,1.7601 0.650077,0.50181 1.46562,0.88248 2.436543,1.15032 0.991884,0.27362 2.177056,0.40617 3.553271,0.40617 2.256093,0 4.018631,-0.4529 5.313371,-1.31981 1.299894,-0.87036 1.962671,-2.16611 1.962671,-3.92586 0,-0.65427 -0.129779,-1.28348 -0.37207,-1.89497 -0.231511,-0.58429 -0.530104,-1.12786 -0.913639,-1.6242 -0.383536,-0.49633 -0.812448,-0.92524 -1.286227,-1.28622 -0.473779,-0.36097 -0.947323,-0.6429 -1.421102,-0.84594 0.451219,-0.18049 1.044742,-0.39703 1.793172,-0.60927 0.763389,-0.21648 1.568201,-0.4057 2.402955,-0.60875 0.834753,-0.20304 1.633436,-0.40593 2.402954,-0.57567 0.764775,-0.1687 1.398634,-0.2708 1.894974,-0.33848 v 16.95452 c -1.872555,0.18048 -3.736034,0.46321 -5.583638,0.88005 -1.852448,0.41793 -3.621302,0.98147 -5.313371,1.65829 l 0.37207,1.18443 c 0.541462,0.15792 1.286414,0.31594 2.233973,0.47387 0.947558,0.15793 1.939664,0.29458 2.977596,0.40618 1.060234,0.114 2.075689,0.21412 3.045809,0.30437 0.970119,0.0902 1.7261,0.15796 2.267561,0.20309 v 5.51594 c -1.872555,0.18049 -3.736034,0.46321 -5.583638,0.88005 -1.852448,0.41793 -3.621302,0.98147 -5.313371,1.6583 l 0.37207,1.18442 c 0.541462,0.15793 1.286414,0.31595 2.233973,0.47387 0.947558,0.15793 1.939665,0.29457 2.977596,0.40618 1.060235,0.114 2.075689,0.21413 3.045809,0.30438 0.970119,0.0902 1.7261,0.15795 2.267561,0.20308 v 5.58364 c -1.872555,0.18049 -3.736035,0.46321 -5.583638,0.88005 -1.852449,0.41793 -3.621302,0.98147 -5.313371,1.6583 l 0.37207,1.18442 c 0.541462,0.15793 1.286414,0.31595 2.233973,0.47388 0.947558,0.15792 1.939665,0.29456 2.977596,0.40617 1.060235,0.114 2.075689,0.21414 3.045809,0.30438 0.970119,0.0902 1.7261,0.15795 2.267561,0.20308 v 3.82406 c -0.789632,0 -1.670101,0.0113 -2.639632,0.0677 -0.970837,0.0565 -1.942144,0.1696 -2.910416,0.33848 -0.97209,0.16955 -1.921018,0.40706 -2.842721,0.71055 -0.928404,0.30569 -1.753364,0.70284 -2.470133,1.18442 -0.727213,0.4886 -1.302391,1.07958 -1.725993,1.75958 -0.433736,0.69626 -0.643372,1.53413 -0.643372,2.50424 0,1.26342 0.279964,2.31454 0.84646,3.14762 0.584115,0.85899 1.35825,1.52523 2.301152,2.03036 0.952296,0.51016 2.032483,0.86914 3.248897,1.08314 1.220263,0.21468 2.470388,0.33797 3.75636,0.33797 h 6.294189 c 1.962799,0 2.944523,-0.95864 2.944523,-2.87632 v -7.98659 c 5.6627904,1.01524 8.4940554,3.36142 8.4940554,7.03885 0,0.76707 -0.200387,1.49574 -0.575158,2.19986 -0.369799,0.69477 -0.925333,1.34251 -1.692403,1.92909 -0.767072,0.58658 -1.73725,1.10527 -2.9104174,1.55649 -1.173168,0.45122 -2.562562,0.78921 -4.162537,1.04903 -1.03976,0.16885 -1.74254,0.32478 -2.098063,0.47387 -0.344395,0.14442 -0.507462,0.3947 -0.507462,0.71056 0,0.13536 0.214197,0.29338 0.642854,0.47387 0.428658,0.18048 1.049192,0.27078 1.861385,0.27078 2.143287,0 4.114524,-0.20466 5.9221204,-0.57516 1.824805,-0.37403 3.388057,-0.92715 4.704105,-1.65829 1.323715,-0.7354 2.368995,-1.62441 3.113505,-2.70733 0.74451097,-1.08293 1.11672797,-2.32399 1.11672797,-3.72277 0,-2.82011 -1.19411497,-5.01105 -3.58737797,-6.56497 -2.367093,-1.53693 -5.809151,-2.45918 -10.3213344,-2.77503 v -56.58311 l 6.4972784,-0.81184 -0.03359,1.31982 c -0.04707,1.8494 0.513217,3.19689 1.522905,4.06073 1.020837,0.87338 2.346091,1.31982 3.993038,1.31982 0.609145,0 1.21813397,-0.0677 1.82727797,-0.20309 0.609145,-0.13536 1.20710503,-0.42831 1.79368903,-0.87953 -0.81219303,-0.1128 -1.49809003,-0.28836 -2.06447303,-0.50798 -0.539168,-0.20907 -0.98140197,-0.48497 -1.31981597,-0.84594 -0.338414,-0.36098 -0.572578,-0.82413 -0.710551,-1.38752 -0.132761,-0.5421 -0.203088,-1.20714 -0.203088,-1.99677 0,-0.72196 -0.07875,-1.37609 -0.236679,-1.96267 -0.157926,-0.58659 -0.349549,-0.9924 -0.575158,-1.21802 l -10.4908334,1.52291 v -85.24648 h 3.282487 c 1.6243874,0 2.9299424,-0.28724 3.9253424,-0.84646 1.012546,-0.56885 1.522904,-1.3536 1.522904,-2.36885 0,-0.81219 -0.383246,-1.74825 -1.150317,-2.80861 -0.767071,-1.06037 -2.020746,-2.34478 -3.7563604,-3.85816 -1.041261,-0.90793 -0.225626,-0.15183 -2.064472,-1.79319 z m -29.916004,6.90346 c -0.406096,0 -0.710591,0.1239 -0.913639,0.37207 -0.180487,0.27073 -0.270785,0.5978 -0.270785,0.98133 0,0.15793 0.05669,0.30492 0.169499,0.44029 0.112804,0.13536 0.259279,0.27081 0.439766,0.40617 0.203049,0.15793 0.42879,0.32698 0.676962,0.50747 0.248168,0.18048 0.507965,0.39419 0.778247,0.64285 0.293742,0.27024 0.5346,0.54702 0.744657,0.81236 0.218741,0.27631 0.428261,0.5075 0.608749,0.71055 0.203047,0.2256 0.395187,0.4062 0.575675,0.54157 0.180487,0.13536 0.383139,0.20308 0.608748,0.20308 0.541463,0 1.150969,-0.37221 1.827796,-1.11672 0.406097,-0.45122 0.609265,-0.85755 0.609265,-1.21853 0,-0.33842 -0.104304,-0.65277 -0.304891,-0.94775 -0.182963,-0.26906 -0.428804,-0.53007 -0.744657,-0.77825 -0.293292,-0.2256 -0.620359,-0.42826 -0.981336,-0.60875 -0.360973,-0.18048 -0.698496,-0.3291 -1.014925,-0.44028 -0.518331,-0.18212 -0.992962,-0.31593 -1.421619,-0.40618 -0.406097,-0.0677 -0.868611,-0.10128 -1.387512,-0.10128 z m 10.626225,104.23136 c 0.406097,0.0902 0.857585,0.27084 1.353923,0.54157 0.496342,0.27074 0.959427,0.59716 1.387512,0.98134 0.451791,0.40545 0.823436,0.85757 1.116728,1.35392 0.293292,0.5189 0.439766,1.0712 0.439766,1.65778 0,0.47378 -0.14068,0.89905 -0.406177,1.28623 -0.276013,0.40252 -0.631403,0.74471 -1.082621,1.01544 -0.428657,0.29329 -0.925292,0.51852 -1.489315,0.67644 -0.564023,0.15793 -1.139409,0.2372 -1.725993,0.2372 -0.631705,0 -1.181649,-0.0966 -1.657779,-0.27079 -0.448954,-0.16425 -0.823953,-0.39469 -1.117245,-0.71055 -0.293292,-0.29329 -0.507489,-0.64345 -0.642855,-1.04955 -0.135365,-0.40609 -0.203088,-0.83449 -0.203088,-1.28571 0,-0.45122 0.101843,-0.90218 0.304891,-1.3534 0.225609,-0.42865 0.518556,-0.83499 0.879533,-1.21853 0.360972,-0.38353 0.784641,-0.75255 1.286226,-1.08314 0.49122,-0.32376 1.015032,-0.5752 1.556494,-0.77825 z m 11.370882,46.12587 v 8.83254 c -1.263411,0 -2.414183,-0.0226 -3.451985,-0.0677 -1.037802,-0.0451 -1.924912,-0.22401 -2.673222,-0.50746 -0.740841,-0.28063 -1.333726,-0.70907 -1.760099,-1.31982 -0.408387,-0.58499 -0.608749,-1.43286 -0.608749,-2.53835 0,-1.10548 0.208842,-1.96659 0.642855,-2.57193 0.423335,-0.59044 1.013779,-1.01856 1.759583,-1.28571 0.765795,-0.27431 1.669526,-0.42874 2.707328,-0.47387 1.037802,-0.0451 2.166,-0.0677 3.384289,-0.0677 z"
       sodipodi:nodetypes="sssssscsssssccccccccsssccssssssssscsssssssssssscccccscscccscscssccscccssscssscssssssssssssssssssscssssccsssssssssccsssssssssccsssssccssssssscsscsscccssssscsccssssssssscsccsccssccsscscccccssssssssssssccsccsccsssccccccccccccccccccccccccccccccsccsssccsccsssccssssssssssssssscsssccsccsssccsccsssccsccsssccsssssssssssscsssssssssssssscccsssscssssscccssssscssssssssssssssssssscsssssssssssssssccssssssscc" />
    <path
       id="text8"
       style="font-size:69.3072px;line-height:1;font-family:BatangChe;-inkscape-font-specification:BatangChe;letter-spacing:0px;writing-mode:vertical-lr;text-orientation:sideways;fill:#ffffff;stroke-width:1.08292;stroke-linecap:round;stroke-linejoin:round;paint-order:stroke fill markers"
       d="m 367.68321,378.64286 c -0.52573,0 -1.11309,0.53447 -1.4888,0.94775 0,0.15792 0.13499,0.38356 0.40618,0.67644 0.29284,0.31626 0.63333,0.75449 1.01492,1.31982 0.22755,0.33712 0.41723,0.64291 0.57516,0.91364 0.15793,0.27073 0.29749,0.52876 0.40618,0.77876 0.11693,0.26897 0.18335,0.5427 0.23719,0.81184 0.059,0.29515 0.10129,0.62036 0.10129,0.98133 0,0.5189 -0.28703,0.86642 -0.84595,1.08314 -0.54691,0.21207 -1.26332,0.33848 -2.16576,0.33848 h -5.07617 c -0.49634,0 -1.21946,0.0328 -2.16576,0.13539 -0.92642,0.10046 -1.95187,0.28186 -3.07992,0.50747 -1.12804,0.22561 -2.2783,0.4965 -3.45146,0.81235 -1.17317,0.31585 -2.24519,0.6991 -3.21531,1.15032 l 0.33848,1.21853 c 1.78231,0.29329 3.55508,0.54155 5.31337,0.77824 1.76128,0.23709 3.48539,0.40619 5.17746,0.47388 v 4.16253 h -4.63641 c -2.72987,0 -4.85395,0.51341 -6.36188,1.5565 -1.49268,1.03253 -2.23346,2.58336 -2.23346,4.63641 0,2.05304 0.74122,3.55854 2.23346,4.50101 1.50837,0.95265 3.63201,1.42111 6.36188,1.42111 h 4.63641 v 4.29793 c -1.87256,0.18048 -3.73603,0.4632 -5.58364,0.88004 -1.85244,0.41793 -3.6213,0.98148 -5.31337,1.6583 l 0.37259,1.18443 c 0.54146,0.15792 1.28589,0.31594 2.23345,0.47387 0.94756,0.15792 1.94018,0.29458 2.97812,0.40618 1.06023,0.114 2.07517,0.21412 3.04529,0.30437 0.97012,0.0902 1.72609,0.15795 2.26756,0.20309 v 3.21479 c -2.39146,0 -4.75072,0.45862 -7.07295,1.38751 -2.30277,0.92111 -4.47834,2.1771 -6.53139,3.75636 v 0.60927 l 5.41466,1.5906 c 1.87255,-1.71464 3.77367,-2.99188 5.71955,-3.79047 1.95726,-0.80327 3.83491,-1.18442 5.61723,-1.18442 0.94755,0 2.00755,0.12667 3.1812,0.37258 1.19525,0.25043 2.30356,0.6271 3.31659,1.15032 1.04004,0.53716 1.91169,1.21343 2.60553,2.03037 0.70497,0.83004 1.04954,1.81648 1.04954,2.94452 0,0.72195 -0.18276,1.34548 -0.50798,1.89498 -0.32924,0.5563 -0.74838,1.04363 -1.2857,1.4552 -0.5231,0.40068 -1.11846,0.74077 -1.79369,1.01545 -0.65588,0.2668 -1.31996,0.48492 -1.99678,0.64285 -0.67683,0.15791 -1.32087,0.24805 -1.92908,0.30437 -0.61029,0.0565 -1.12791,0.10946 -1.5565,0.10181 -0.83492,-0.0149 -1.62274,-0.10135 -2.36884,-0.20309 -0.74308,-0.10133 -1.44165,-0.21399 -2.09807,-0.33848 -0.65229,-0.12371 -1.28473,-0.23476 -1.89549,-0.33848 -0.58511,-0.0994 -1.15043,-0.13539 -1.69189,-0.13539 -0.94755,0 -1.78275,-7.6e-4 -2.50424,0.0336 -0.70004,0.0333 -1.33316,0.0999 -1.89497,0.20308 -0.54399,0.0999 -1.02989,0.22708 -1.45521,0.37259 -0.43222,0.14787 -0.83499,0.33852 -1.21853,0.54157 l 0.37259,1.18442 c 0.83475,0.4061 1.74747,0.74703 2.74092,1.01493 1.01448,0.27357 1.99815,0.48779 2.944,0.67696 0.9719,0.19438 1.88537,0.3384 2.74144,0.43977 0.8587,0.10168 1.55659,0.19206 2.09806,0.23719 v 3.28249 c -1.87256,0.18048 -3.73603,0.46321 -5.58364,0.88005 -1.85244,0.41793 -3.6213,0.98095 -5.31337,1.65778 l 0.37259,1.18494 c 0.54146,0.15792 1.28589,0.31543 2.23345,0.47335 0.94756,0.15793 1.94018,0.29457 2.97812,0.40618 1.06023,0.114 2.07517,0.21465 3.04529,0.30489 0.97012,0.0902 1.72609,0.15744 2.26756,0.20257 v 4.8395 h -4.63641 c -2.72987,0 -4.85395,0.51393 -6.36188,1.55701 -1.49268,1.03254 -2.23346,2.58286 -2.23346,4.6359 0,2.05304 0.74122,3.55854 2.23346,4.50101 1.50836,0.95266 3.63201,1.42162 6.36188,1.42162 h 4.63641 v 6.73396 c -0.72195,0.0677 -1.54822,0.22691 -2.47013,0.50798 -0.9282,0.28299 -1.88842,0.65621 -2.87683,1.11672 -0.99704,0.46453 -1.98872,1.02145 -2.97811,1.6583 -0.97344,0.62658 -1.87819,1.32493 -2.70733,2.09806 -0.8404,0.78362 -1.57528,1.63009 -2.19935,2.53783 -0.61683,0.89721 -1.03805,1.86159 -1.28623,2.87683 0.67684,-0.18049 1.53207,-0.38301 2.57194,-0.57516 1.03584,-0.19141 2.17547,-0.37215 3.41788,-0.54157 1.23939,-0.16901 2.52699,-0.29431 3.85816,-0.40617 1.35358,-0.11374 2.67348,-0.1695 3.95945,-0.1695 1.57926,0 3.08179,0.12458 4.50102,0.40617 1.42354,0.28245 2.75442,0.63617 3.99304,1.04904 1.26568,0.42189 2.43482,0.89541 3.51968,1.38751 1.10356,0.50059 2.12514,0.94963 3.04581,1.38751 0.92941,0.44204 1.76382,0.82549 2.50424,1.15083 0.74872,0.32898 1.41034,0.53603 1.99626,0.60927 0.85802,0.10725 1.41914,-0.13095 1.72599,-0.71055 0.30246,-0.57132 0.47387,-1.37618 0.47387,-2.43655 0,-1.38751 -0.14114,-1.59072 0,-4.16253 0.20305,-3.69999 1.57956,-5.87712 4.12895,-6.53139 v -0.77876 c -6.85852,0.54146 -10.28826,2.68498 -10.28826,6.4301 v 3.55327 c -0.85731,-0.45121 -1.86978,-0.91959 -3.04529,-1.38751 -1.14829,-0.45709 -2.41507,-0.86564 -3.79047,-1.25212 -1.35448,-0.3806 -2.78485,-0.70832 -4.29793,-0.94723 -1.48759,-0.23488 -2.97789,-0.33848 -4.46691,-0.33848 -0.60915,0 -1.25226,0.0111 -1.92908,0.0336 -0.67683,0.0225 -1.34261,0.0221 -1.99678,0.0336 -0.632,0.0111 -1.22917,0.0447 -1.79317,0.0677 -0.54148,0.0221 -0.99294,0.0341 -1.35392,0.0341 0.36098,-0.38354 0.93119,-0.84298 1.72599,-1.35392 0.78454,-0.50435 1.66951,-0.96988 2.63963,-1.4211 0.97012,-0.45122 1.9739,-0.83499 3.0117,-1.15084 1.0378,-0.31585 1.98541,-0.47335 2.84272,-0.47335 h 3.72277 v -35.90582 c 1.80488,-0.0677 3.47434,-0.25931 5.00848,-0.57516 1.53414,-0.31586 2.85137,-0.7831 3.95945,-1.38751 1.12547,-0.6139 2.00265,-1.38031 2.63964,-2.30167 0.62644,-0.9061 0.94722,-1.97394 0.94722,-3.21479 0,-1.19573 -0.31878,-2.3104 -0.94722,-3.35019 -0.61241,-1.01327 -1.46113,-1.92521 -2.57194,-2.70732 -1.10021,-0.77464 -2.43459,-1.41702 -3.99356,-1.92909 -1.5319,-0.50318 -3.21463,-0.82341 -5.04207,-0.98133 v -30.15268 h 3.28249 c 1.42134,0 2.59938,-0.23929 3.55327,-0.67696 0.96398,-0.4423 1.56809,-1.0492 1.79369,-1.86139 l 4.80539,-0.67644 -0.0336,1.31981 c -0.0471,1.84939 0.51322,3.19689 1.52291,4.06074 1.02083,0.87338 2.34608,1.31981 3.99304,1.31981 0.60914,0 1.21813,-0.0677 1.82728,-0.20309 0.60914,-0.13536 1.2071,-0.42832 1.79368,-0.87953 -0.81219,-0.11281 -1.49808,-0.28836 -2.06447,-0.50798 -0.53917,-0.20906 -0.9814,-0.48497 -1.31982,-0.84594 -0.33841,-0.36097 -0.57258,-0.82412 -0.71055,-1.38751 -0.13276,-0.5421 -0.20308,-1.20715 -0.20308,-1.99678 0,-0.72195 -0.0788,-1.37609 -0.23668,-1.96267 -0.15793,-0.58659 -0.34956,-0.99241 -0.57516,-1.21802 l -8.83305,1.38752 c -0.22562,-0.72196 -0.71619,-1.5612 -1.4888,-2.50424 -0.76155,-0.92955 -1.86143,-2.00773 -3.28249,-3.2489 -0.36125,-0.31552 -0.73319,-0.63189 -1.11673,-0.94775 -0.38353,-0.31585 -0.69957,-0.59777 -0.94774,-0.84594 z m -12.55531,18.91719 h 4.63641 v 8.46047 h -4.63641 c -1.28597,0 -2.26242,-0.35556 -2.91042,-1.08314 -0.63802,-0.71637 -0.94722,-1.70315 -0.94722,-2.94401 0,-1.37621 0.30871,-2.46475 0.94722,-3.24889 0.64751,-0.79519 1.62445,-1.18443 2.91042,-1.18443 z m -15.66829,37.12435 c -0.4061,0 -0.72305,0.11421 -0.91364,0.37207 -0.1934,0.26166 -0.27079,0.5978 -0.27079,0.98134 0,0.15792 0.0562,0.3044 0.16898,0.43976 0.11281,0.13536 0.26107,0.26913 0.44029,0.40618 0.20433,0.15626 0.42827,0.32749 0.67644,0.50798 0.24817,0.18049 0.50848,0.39419 0.77877,0.64285 0.29374,0.27025 0.53409,0.54703 0.74414,0.81236 0.21874,0.2763 0.42811,0.50809 0.60926,0.71055 0.20239,0.2262 0.39467,0.4062 0.57516,0.54157 0.18049,0.13536 0.38366,0.20257 0.60927,0.20257 0.54146,0 1.15185,-0.37095 1.82727,-1.11673 0.4075,-0.44995 0.60927,-0.85704 0.60927,-1.21801 0,-0.33841 -0.10378,-0.65276 -0.30437,-0.94775 -0.18296,-0.26906 -0.4276,-0.53163 -0.74466,-0.77824 -0.29208,-0.22718 -0.62036,-0.42878 -0.98134,-0.60927 -0.36097,-0.18049 -0.69901,-0.32859 -1.01544,-0.43977 -0.51833,-0.18212 -0.99068,-0.32474 -1.4211,-0.40617 -0.40452,-0.0765 -0.86861,-0.10129 -1.38751,-0.10129 z m -1.52291,8.96793 c -0.4061,0 -0.72305,0.11421 -0.91364,0.37207 -0.1934,0.26166 -0.27078,0.5978 -0.27078,0.98134 0,0.15792 0.0562,0.30491 0.16898,0.44028 0.1128,0.13536 0.26106,0.26861 0.44028,0.40566 0.20434,0.15625 0.42828,0.32748 0.67645,0.50798 0.24817,0.18048 0.50848,0.3942 0.77876,0.64285 0.29375,0.27025 0.53408,0.54702 0.74414,0.81236 0.21874,0.2763 0.42812,0.50808 0.60927,0.71055 0.20238,0.22619 0.39466,0.4062 0.57516,0.54157 0.18048,0.13536 0.38366,0.20308 0.60926,0.20308 0.54147,0 1.15186,-0.37145 1.82728,-1.11724 0.4075,-0.44995 0.60927,-0.85704 0.60927,-1.21801 0,-0.33842 -0.10379,-0.65277 -0.30438,-0.94775 -0.18297,-0.26906 -0.42758,-0.53164 -0.74466,-0.77825 -0.29208,-0.22717 -0.62036,-0.42878 -0.98133,-0.60926 -0.36097,-0.18049 -0.69901,-0.32859 -1.01544,-0.43977 -0.51834,-0.18212 -0.99069,-0.32474 -1.42111,-0.40617 -0.40453,-0.0765 -0.86861,-0.10129 -1.38751,-0.10129 z m 17.1912,9.84746 h 4.63641 v 8.46047 h -4.63641 c -1.28597,0 -2.26242,-0.35505 -2.91042,-1.08263 -0.63802,-0.71637 -0.94722,-1.70367 -0.94722,-2.94452 0,-1.37622 0.30871,-2.46476 0.94722,-3.2489 0.64751,-0.79519 1.62445,-1.18442 2.91042,-1.18442 z m 10.79572,61.11773 h 3.28249 c 0.81219,0 2.92189,-0.28192 3.92586,-0.84595 1.00397,-0.56403 1.52239,-1.45512 1.52239,-2.36884 0,-0.91372 -0.38325,-1.74877 -1.15032,-2.80913 -0.76707,-1.06036 -2.70728,-2.94393 -3.75636,-3.85765 -1.04908,-0.91372 -0.92496,-0.78982 -1.11673,-0.94775 -0.19177,-0.15793 -0.94774,-0.84595 -0.94774,-0.84595 -0.52567,0 -1.11303,0.53439 -1.4888,0.94775 0,0.15792 0.12416,0.37187 0.40618,0.67644 0.28202,0.30457 0.71035,0.8686 1.01492,1.31982 0.30457,0.45122 0.41723,0.64342 0.57516,0.91415 0.15793,0.27073 0.29337,0.51877 0.40618,0.77825 0.11281,0.25948 0.18075,0.53021 0.23719,0.81235 0.0564,0.28214 0.10129,0.5414 0.10129,0.98134 0,0.43994 -0.29304,0.86823 -0.84595,1.08262 -0.55291,0.21439 -1.71454,0.33848 -2.16576,0.33848 h -5.07617 c -0.24817,0 -1.2294,0.0338 -2.16576,0.13539 -0.93636,0.10156 -1.95187,0.28186 -3.07992,0.50747 -1.12805,0.22561 -2.27829,0.4965 -3.45146,0.81235 -1.17317,0.31585 -2.24519,0.69961 -3.21531,1.15083 l 0.33848,1.21802 c 1.78231,0.29329 3.55359,0.54135 5.31337,0.77824 1.75978,0.23689 3.48539,0.4062 5.17746,0.47388 v 4.36562 c -1.87256,0.1805 -3.73361,0.46267 -5.58364,0.88005 -1.85003,0.41738 -3.6213,0.98147 -5.31337,1.6583 l 0.37259,1.18442 c 0.54146,0.15793 1.28589,0.31543 2.23345,0.47336 0.94756,0.15793 1.92903,0.29337 2.97812,0.40618 1.04909,0.11281 2.07517,0.21466 3.04529,0.30489 0.97012,0.0902 1.72609,0.15795 2.26756,0.20308 v 4.97438 l -6.2606,3.01222 -8.02018,-3.01222 -0.64337,0.71055 3.95945,4.56871 -8.59535,4.12895 v 0.77825 l 7.03885,1.48879 h 0.81235 l 11.70885,-9.3741 v 13.97641 c -1.87256,0.18048 -3.73361,0.46266 -5.58364,0.88005 -1.85003,0.41739 -3.6213,0.98147 -5.31337,1.65829 l 0.37259,1.18443 c 0.54146,0.15792 1.28589,0.31594 2.23345,0.47387 0.94756,0.15793 1.92903,0.29337 2.97812,0.40618 1.04909,0.11281 2.07517,0.21415 3.04529,0.30437 0.97012,0.0902 1.72609,0.15796 2.26756,0.20309 v 4.8395 h -4.63641 c -1.36494,0 -4.86158,0.51868 -6.36188,1.55649 -1.5003,1.03781 -2.23346,2.58337 -2.23346,4.63641 0,2.05304 0.73316,3.55345 2.23346,4.50102 1.5003,0.94757 4.99694,1.4211 6.36188,1.4211 h 4.63641 v 4.39922 c -1.08292,0.0902 -2.30141,0.39525 -3.65507,0.91415 -1.35366,0.5189 -2.70675,1.17274 -4.02663,1.99626 -1.31988,0.82352 -2.54979,1.78257 -3.68918,2.87683 -1.13939,1.09426 -2.01896,2.28986 -2.67322,3.55327 3.81279,0.29329 7.44517,0.84585 10.89701,1.69189 3.45184,0.84604 7.15171,2.10931 10.01696,3.28248 2.86525,1.17317 4.92945,2.24528 7.30963,3.68918 2.38018,1.4439 4.78278,2.9438 7.17424,4.5005 1.06036,-0.56402 2.00812,-1.08291 2.87682,-1.5229 0.8687,-0.43999 1.72563,-0.84602 2.53783,-1.25212 0.8122,-0.4061 1.64688,-0.83472 2.50424,-1.25212 0.85736,-0.4174 2.10949,-1.03756 2.84272,-1.4211 0.73323,-0.38354 0.76696,-0.46233 1.04903,-0.71055 0.28207,-0.24822 0.44029,-0.28239 0.44029,-0.57568 0,-0.2933 -0.13531,-0.76692 -0.40618,-0.91364 -0.27087,-0.14672 -0.9027,-0.20309 -1.28623,-0.20309 -0.38354,0 -0.54124,0.0339 -1.04903,0.1354 -0.50779,0.10153 -1.04914,0.22568 -1.65829,0.33848 -0.60915,0.1128 -1.21804,0.20335 -1.82728,0.30489 -0.60924,0.10154 -0.85735,0.16898 -1.45521,0.16898 -0.59786,0 -1.86136,-0.15801 -3.04581,-0.47387 -1.18445,-0.31586 -2.49299,-0.73322 -3.95945,-1.25212 -1.46646,-0.5189 -3.0682,-1.11686 -4.80539,-1.79369 -1.73719,-0.67683 -3.73388,-1.45482 -5.48235,-2.13165 -1.74847,-0.67683 -3.2487,-1.1622 -5.00848,-1.62471 -1.75978,-0.46251 -3.42918,-0.84574 -5.00848,-1.15032 -1.5793,-0.30458 -2.97779,-0.50776 -4.19613,-0.60926 -1.21834,-0.1015 -2.07559,-0.0677 -2.57193,0.0677 0.36097,-0.38353 0.93632,-0.83472 1.72599,-1.31981 0.78967,-0.48509 1.65814,-0.94754 2.63963,-1.38752 0.98149,-0.43998 1.9962,-0.80085 3.04529,-1.11672 1.04909,-0.31587 2.47048,-0.4962 2.91042,-0.50747 0.43994,-0.0113 3.99355,0 3.99355,0 z m -10.79572,43.75701 h 4.63641 v 8.46046 h -4.63641 c -0.64299,0 -2.26741,-0.36116 -2.91042,-1.08314 -0.64301,-0.72198 -0.94722,-1.63546 -0.94722,-2.944 0,-1.30853 0.30421,-2.45924 0.94722,-3.2489 0.64301,-0.78966 2.26743,-1.18442 2.91042,-1.18442 z m 10.79572,94.34979 10.49084,1.75959 c 0.2256,-0.22562 0.41723,-0.63144 0.57516,-1.21802 0.15792,-0.58658 0.23719,-1.24072 0.23719,-1.96267 0,-0.78963 0.0646,-1.46749 0.20257,-2.03088 0.13277,-0.5421 0.37266,-0.99244 0.71107,-1.35341 0.33841,-0.36098 0.77836,-0.65444 1.31982,-0.88005 0.56402,-0.20304 1.25176,-0.36106 2.06395,-0.47387 -0.58658,-0.45122 -1.18402,-0.74416 -1.79317,-0.87953 -0.60914,-0.13536 -1.21865,-0.20309 -1.82779,-0.20309 -1.64695,0 -2.98335,0.42186 -3.99304,1.28571 -1.02083,0.87338 -1.56999,2.24544 -1.52291,4.09484 l 0.0336,1.31981 -6.49728,-1.04903 v -26.6671 h 3.28249 c 1.62439,0 2.93318,-0.28192 3.92586,-0.84595 1.01524,-0.56402 1.52239,-1.35361 1.52239,-2.36884 0,-0.8122 -0.38325,-1.74826 -1.15032,-2.80862 -0.76707,-1.06036 -2.01989,-2.34575 -3.75636,-3.85816 -0.36169,-0.31502 -0.73319,-0.63189 -1.11673,-0.94775 -0.38353,-0.31585 -0.69957,-0.59777 -0.94775,-0.84594 -0.52575,0 -1.1131,0.53448 -1.4888,0.94775 0,0.15792 0.13544,0.38366 0.40618,0.67696 0.29329,0.31585 0.63333,0.75448 1.01492,1.31981 0.22755,0.33712 0.41723,0.64292 0.57516,0.91364 0.15793,0.27074 0.29338,0.53008 0.40618,0.77825 0.11279,0.27073 0.18335,0.54322 0.23719,0.81235 0.0591,0.29516 0.10129,0.62037 0.10129,0.98134 0,0.5189 -0.28192,0.87957 -0.84595,1.08262 -0.54146,0.22561 -1.26332,0.33848 -2.16576,0.33848 h -5.07617 c -0.49634,0 -1.2182,0.0452 -2.16576,0.13539 -0.925,0.1128 -1.95187,0.28237 -3.07992,0.50798 -1.12804,0.22561 -2.2783,0.49599 -3.45146,0.81184 -1.17317,0.31585 -2.24519,0.69961 -3.21531,1.15083 l 0.33848,1.21802 c 1.78231,0.29329 3.55508,0.54207 5.31337,0.77876 1.76128,0.2371 3.48539,0.40568 5.17746,0.47336 v 3.1135 h -4.63641 c -2.72987,0 -4.85395,0.51393 -6.36188,1.55701 -1.49268,1.03254 -2.23346,2.58285 -2.23346,4.6359 0,2.05303 0.74122,3.55854 2.23346,4.50101 1.50836,0.95266 3.63201,1.42162 6.36188,1.42162 h 4.63641 v 4.33152 c -1.87256,0.18049 -3.73603,0.46321 -5.58364,0.88005 -1.85244,0.41793 -3.6213,0.98095 -5.31337,1.65778 l 0.37259,1.18442 c 0.54146,0.15793 1.28589,0.31595 2.23345,0.47388 0.94756,0.15792 1.94018,0.29457 2.97812,0.40617 1.06023,0.114 2.07517,0.21467 3.04529,0.30489 0.97012,0.0902 1.72609,0.15744 2.26756,0.20258 v 4.83949 h -4.63641 c -2.72987,0 -4.85395,0.51393 -6.36188,1.55701 -1.49268,1.03253 -2.23346,2.58286 -2.23346,4.6359 0,2.05304 0.74122,3.55854 2.23346,4.50101 1.50837,0.95265 3.63201,1.42162 6.36188,1.42162 h 4.63641 v 4.33152 c -5.07621,0.33841 -8.68603,1.30859 -10.82931,2.91042 l 0.88005,1.01492 c 0.925,-0.15792 1.83771,-0.28204 2.74092,-0.33848 0.9018,-0.0563 1.81643,-0.0677 2.74143,-0.0677 0.31585,0 0.83451,0.0233 1.55649,0.0677 0.74448,0.0458 1.57924,0.12439 2.50424,0.2372 0.925,0.1128 1.90673,0.24825 2.94453,0.40617 1.06036,0.18049 2.06189,0.41374 3.0117,0.67645 1.17098,0.32388 2.31239,0.67704 3.41788,1.08314 1.10548,0.40609 2.07354,0.81683 2.91042,1.21853 0.85521,0.4105 1.53545,0.78738 2.03036,1.15031 0.52035,0.38159 0.77877,0.71061 0.77877,0.98134 -0.2933,0.0451 -0.89132,0.0564 -1.79369,0.0677 -0.90265,0.0113 -2.00873,0.0558 -3.3166,0.13539 -1.28675,0.0783 -2.71885,0.23528 -4.29792,0.43976 -1.55689,0.20161 -3.16123,0.50855 -4.8054,0.94775 -1.6498,0.4407 -3.27318,1.03339 -4.87308,1.75958 -1.58121,0.71771 -3.71184,1.15736 -4.36563,2.77503 l -0.64285,1.5906 c 0.45121,-0.0452 0.94731,-0.0793 1.48879,-0.10129 0.564,-0.023 1.15044,-0.0341 1.75959,-0.0341 1.78231,0 3.57813,0.20664 5.38106,0.64337 1.82941,0.44315 3.60053,0.98627 5.31286,1.62419 1.73951,0.64805 3.38687,1.3488 4.9413,2.09806 1.58155,0.76233 3.03401,1.45533 4.36511,2.06447 0.72195,0.33842 1.33145,0.60931 1.82779,0.81236 0.5189,0.20304 0.87958,0.30437 1.08262,0.30437 0.31586,0 0.53005,-0.0903 0.64286,-0.27078 0.1128,-0.18049 0.1695,-0.34954 0.1695,-0.50746 0,-0.18049 -0.29347,-0.53065 -0.88005,-1.04955 -0.58659,-0.51891 -1.36238,-1.13103 -2.33474,-1.82728 -0.85509,-0.61228 -1.81136,-1.26033 -2.87683,-1.92908 -1.05531,-0.66238 -2.16115,-1.31698 -3.31659,-1.96267 -1.14584,-0.64032 -2.30792,-1.24978 -3.48558,-1.82728 -1.16875,-0.57313 -2.28982,-1.03808 -3.35018,-1.42162 1.0378,-0.33841 2.166,-0.60879 3.38429,-0.81184 1.21829,-0.18048 2.43627,-0.3159 3.65455,-0.40617 1.2183,-0.0903 2.40319,-0.14699 3.55379,-0.1695 1.15061,-0.0225 2.18799,-0.0336 3.11299,-0.0336 0.925,0.0226 1.68098,0.0452 2.26756,0.0677 0.60915,0.0451 0.98136,0.0677 1.11673,0.0677 0.56403,0 0.98139,-0.0903 1.25212,-0.27079 0.27073,-0.18048 0.40618,-0.41725 0.40618,-0.71055 0,-0.90244 -1.00703,-2.36635 -3.0794,-4.33152 -0.54517,-0.51697 -1.2556,-0.99884 -2.06448,-1.5229 -0.79298,-0.51376 -1.65625,-1.03084 -2.60604,-1.5229 -0.92279,-0.47807 -1.91488,-0.94186 -2.97759,-1.38752 -1.03548,-0.43424 -2.09828,-0.81242 -3.18121,-1.15083 z m -10.79572,-22.0648 h 4.63641 v 8.46047 h -4.63641 c -1.28597,0 -2.25615,-0.36067 -2.91042,-1.08263 -0.6317,-0.72194 -0.94722,-1.70367 -0.94722,-2.94452 0,-1.37622 0.30871,-2.46425 0.94722,-3.24838 0.64751,-0.79518 1.62445,-1.18494 2.91042,-1.18494 z m 4.63641,34.85679 h -4.63641 c -1.28597,0 -2.25615,-0.36068 -2.91042,-1.08262 -0.6317,-0.72196 -0.94722,-1.70368 -0.94722,-2.94453 0,-1.37622 0.30871,-2.46475 0.94722,-3.24889 0.64751,-0.79519 1.62445,-1.18443 2.91042,-1.18443 h 4.63641 z"
       sodipodi:nodetypes="scssssssssssssccsccsssssccsccsssccscccsssssssssssssssssssccsssccsccsssccsssssccssssscsssssssssssssccscssssssscssssccsssssssccssccsssscsssssccssscsscssssssssssssssssssssssssssssssssssssssssssssccssssscczzzzzzcczzzzzzzzzzzzcczcczcszzzcccccccccccczcszzzcszzzzzcszzzczzzczzzzzzzzzzzzzzzzzzzczzzzcczcczzzzzccsssssssssscccssssssccssssssssssssccsscsssssccsscsssscsssssccccssssssssscsssssscssssssssssssssscssssssssssssccscsssssscssssscc" />
    <path
       style="fill:#da2032;fill-opacity:1;stroke:none;stroke-width:0.170555px;stroke-linecap:butt;stroke-linejoin:miter;stroke-opacity:1"
       d="m 452.81548,299.26786 v 31.75 h 251.87314 l 27.49631,-15.875 -27.49631,-15.875 z"
       id="path10"
       inkscape:connector-curvature="0"
       sodipodi:nodetypes="cccccc" />
    <path
       style="fill:#da2032;fill-opacity:1;stroke:none;stroke-width:0.170555px;stroke-linecap:butt;stroke-linejoin:miter;stroke-opacity:1"
       d="m 452.81548,521.51786 v 31.75 h 251.87314 l 27.49631,-15.875 -27.49631,-15.875 z"
       id="path1"
       inkscape:connector-curvature="0"
       sodipodi:nodetypes="cccccc" />
    <path
       style="fill:#da2032;fill-opacity:1;stroke:none;stroke-width:0.170555px;stroke-linecap:butt;stroke-linejoin:miter;stroke-opacity:1"
       d="m 452.81548,743.76786 v 31.75 h 251.87314 l 27.49631,-15.875 -27.49631,-15.875 z"
       id="path2"
       inkscape:connector-curvature="0"
       sodipodi:nodetypes="cccccc" />
  </g>
</svg>
