<?xml version="1.0" encoding="UTF-8" standalone="no"?>
<!-- Created with Inkscape (http://www.inkscape.org/) -->

<svg
   width="2736"
   height="1800"
   viewBox="0 0 723.9 476.25001"
   version="1.1"
   id="svg8"
   inkscape:export-filename="C:\Users\厂永刄先生\Documents\GXI3CW2\JáÈŭcèŭ\Èŭmen\Í\意軍.png"
   inkscape:export-xdpi="96"
   inkscape:export-ydpi="96"
   inkscape:version="1.3 (0e150ed6c4, 2023-07-21)"
   sodipodi:docname="福井県.svg"
   xmlns:inkscape="http://www.inkscape.org/namespaces/inkscape"
   xmlns:sodipodi="http://sodipodi.sourceforge.net/DTD/sodipodi-0.dtd"
   xmlns="http://www.w3.org/2000/svg"
   xmlns:svg="http://www.w3.org/2000/svg"
   xmlns:rdf="http://www.w3.org/1999/02/22-rdf-syntax-ns#"
   xmlns:cc="http://creativecommons.org/ns#"
   xmlns:dc="http://purl.org/dc/elements/1.1/">
  <defs
     id="defs2" />
  <sodipodi:namedview
     id="base"
     pagecolor="#ffffff"
     bordercolor="#666666"
     borderopacity="1.0"
     inkscape:pageopacity="0.0"
     inkscape:pageshadow="2"
     inkscape:zoom="3.4192542"
     inkscape:cx="1406.1546"
     inkscape:cy="586.67764"
     inkscape:document-units="px"
     inkscape:current-layer="layer1"
     showgrid="false"
     units="px"
     fit-margin-top="0"
     fit-margin-left="0"
     fit-margin-right="0"
     fit-margin-bottom="0"
     inkscape:showpageshadow="false"
     inkscape:snap-intersection-paths="true"
     inkscape:object-paths="false"
     inkscape:pagecheckerboard="true"
     inkscape:snap-smooth-nodes="true"
     inkscape:window-width="1920"
     inkscape:window-height="1009"
     inkscape:window-x="-8"
     inkscape:window-y="-8"
     inkscape:window-maximized="1"
     inkscape:object-nodes="true"
     inkscape:snap-nodes="true"
     inkscape:deskcolor="#505050" />
  <metadata
     id="metadata5">
    <rdf:RDF>
      <cc:Work
         rdf:about="">
        <dc:format>image/svg+xml</dc:format>
        <dc:type
           rdf:resource="http://purl.org/dc/dcmitype/StillImage" />
      </cc:Work>
    </rdf:RDF>
  </metadata>
  <g
     inkscape:label="レイヤー 1"
     inkscape:groupmode="layer"
     id="layer1"
     transform="translate(112.33452,-299.26786)">
    <path
       style="fill:#ffffff;fill-opacity:1;stroke:none;stroke-width:0.51166773px;stroke-linecap:butt;stroke-linejoin:miter;stroke-opacity:1"
       d="m -102.80952,299.26786 h -9.525 v 476.25 h 9.525 z"
       id="path1079"
       inkscape:connector-curvature="0"
       sodipodi:nodetypes="ccccc" />
    <path
       style="opacity:1;fill:#001e80;fill-opacity:1;fill-rule:evenodd;stroke:none;stroke-width:0.22373059;stroke-linecap:round;stroke-linejoin:round;stroke-miterlimit:4;stroke-dasharray:none;stroke-dashoffset:0;stroke-opacity:0.50196078"
       d="m 397.25298,537.39285 c 0,78.90769 -63.96731,142.87501 -142.87499,142.87501 -78.90769,0 -142.87501,-63.96732 -142.87501,-142.87501 0,-78.90768 63.96732,-142.875 142.87501,-142.875 78.90769,0 142.87499,63.96732 142.87499,142.875 z m -500.0625,-238.12499 v 476.25 h 714.375 v -476.25 z"
       id="path814"
       inkscape:connector-curvature="0"
       sodipodi:nodetypes="zzzzzccccc" />
    <g
       id="g916">
      <path
         style="opacity:1;fill:#001e80;fill-opacity:1;fill-rule:evenodd;stroke:none;stroke-width:0.22373059;stroke-linecap:round;stroke-linejoin:round;stroke-miterlimit:4;stroke-dasharray:none;stroke-dashoffset:0;stroke-opacity:0.50196078"
         d="m 397.25298,537.39285 c 0,78.90769 -63.96731,142.87501 -142.87499,142.87501 -78.90769,0 -142.87501,-63.96732 -142.87501,-142.87501 0,-78.90768 63.96732,-142.875 142.87501,-142.875 78.90769,0 142.87499,63.96732 142.87499,142.875 z"
         id="path910"
         inkscape:connector-curvature="0"
         sodipodi:nodetypes="zzzzz" />
      <path
         style="opacity:1;fill:#ffffff;fill-opacity:1;fill-rule:evenodd;stroke:none;stroke-width:0.159808;stroke-linecap:round;stroke-linejoin:round;stroke-miterlimit:4;stroke-dasharray:none;stroke-dashoffset:0;stroke-opacity:0.501961"
         d="m 297.34486,625.48153 c 1.68611,-44.41108 23.71029,-83.61363 57.03043,-108.55555 1.3497,6.6161 2.0564,13.4591 2.0564,20.46687 0,55.6805 -44.59227,100.94399 -100.0125,102.03151 v 40.82799 c 77.96646,-1.09207 140.83379,-64.63351 140.83379,-142.8595 0,-28.63132 -8.42173,-55.29585 -22.92503,-77.65156 -68.94079,26.31086 -117.90871,93.05619 -117.90871,171.2386 0,1.45812 0.0188,2.91155 0.0527,4.3615 14.64419,-0.30639 28.49214,-3.81672 40.87292,-9.85986 z M 274.78864,542.02721 V 437.38346 c 24.5637,4.9865 45.92486,18.79296 60.62937,37.97288 11.37595,-7.63667 23.63447,-14.05824 36.58897,-19.08101 -25.77812,-37.31019 -68.84805,-61.75747 -117.62899,-61.75747 -48.78094,0 -91.85087,24.44728 -117.629,61.75747 12.95452,5.02277 25.21303,11.44434 36.58897,19.08101 14.70451,-19.17992 36.06568,-32.98638 60.62938,-37.97288 v 104.64375 c 10.13082,18.72505 17.16318,39.3678 20.41065,61.24072 3.24747,-21.87292 10.27983,-42.51567 20.41065,-61.24072 z m -22.45191,88.9527 c 0,-78.18241 -48.96792,-144.92774 -117.90871,-171.2386 -14.5033,22.35571 -22.92503,49.02024 -22.92503,77.65156 0,78.22599 62.86733,141.76743 140.83379,142.8595 v -40.82799 c -55.42023,-1.08752 -100.0125,-46.35101 -100.0125,-102.03151 0,-7.00777 0.7067,-13.85077 2.05639,-20.46687 33.32015,24.94192 55.34433,64.14447 57.03044,108.55555 12.38078,6.04314 26.22873,9.55347 40.87291,9.85986 0.0339,-1.44995 0.0527,-2.90338 0.0527,-4.3615 z"
         id="path908"
         inkscape:connector-curvature="0"
         sodipodi:nodetypes="ccsccscscccccczccccccscsccscccs" />
    </g>
  </g>
</svg>
