<?xml version="1.0" encoding="UTF-8" standalone="no"?>
<!-- Created with Inkscape (http://www.inkscape.org/) -->

<svg
   xmlns:dc="http://purl.org/dc/elements/1.1/"
   xmlns:cc="http://creativecommons.org/ns#"
   xmlns:rdf="http://www.w3.org/1999/02/22-rdf-syntax-ns#"
   xmlns:svg="http://www.w3.org/2000/svg"
   xmlns="http://www.w3.org/2000/svg"
   xmlns:sodipodi="http://sodipodi.sourceforge.net/DTD/sodipodi-0.dtd"
   xmlns:inkscape="http://www.inkscape.org/namespaces/inkscape"
   width="2736"
   height="1800"
   viewBox="0 0 723.9 476.25001"
   version="1.1"
   id="svg8"
   inkscape:export-filename="C:\Users\厂永刄先生\Documents\GXI3CW2\JáÈŭcèŭ\Èŭmen\Í\意軍.png"
   inkscape:export-xdpi="96"
   inkscape:export-ydpi="96"
   inkscape:version="0.92.4 (5da689c313, 2019-01-14)"
   sodipodi:docname="福井県.svg">
  <defs
     id="defs2" />
  <sodipodi:namedview
     id="base"
     pagecolor="#ffffff"
     bordercolor="#666666"
     borderopacity="1.0"
     inkscape:pageopacity="0.0"
     inkscape:pageshadow="2"
     inkscape:zoom="0.21370339"
     inkscape:cx="1386"
     inkscape:cy="900.00001"
     inkscape:document-units="px"
     inkscape:current-layer="layer1"
     showgrid="false"
     units="px"
     fit-margin-top="0"
     fit-margin-left="0"
     fit-margin-right="0"
     fit-margin-bottom="0"
     inkscape:showpageshadow="false"
     inkscape:snap-intersection-paths="true"
     inkscape:object-paths="false"
     inkscape:pagecheckerboard="true"
     inkscape:snap-smooth-nodes="true"
     inkscape:window-width="1366"
     inkscape:window-height="745"
     inkscape:window-x="-8"
     inkscape:window-y="-8"
     inkscape:window-maximized="1"
     inkscape:object-nodes="true"
     inkscape:snap-nodes="true" />
  <metadata
     id="metadata5">
    <rdf:RDF>
      <cc:Work
         rdf:about="">
        <dc:format>image/svg+xml</dc:format>
        <dc:type
           rdf:resource="http://purl.org/dc/dcmitype/StillImage" />
        <dc:title />
      </cc:Work>
    </rdf:RDF>
  </metadata>
  <g
     inkscape:label="レイヤー 1"
     inkscape:groupmode="layer"
     id="layer1"
     transform="translate(112.33452,-299.26786)">
    <path
       style="fill:#ffffff;fill-opacity:1;stroke:none;stroke-width:0.51166773px;stroke-linecap:butt;stroke-linejoin:miter;stroke-opacity:1"
       d="m -102.80952,299.26786 h -9.525 v 476.25 h 9.525 z"
       id="path1079"
       inkscape:connector-curvature="0"
       sodipodi:nodetypes="ccccc" />
    <path
       style="opacity:1;fill:#001e80;fill-opacity:1;fill-rule:evenodd;stroke:none;stroke-width:0.22373059;stroke-linecap:round;stroke-linejoin:round;stroke-miterlimit:4;stroke-dasharray:none;stroke-dashoffset:0;stroke-opacity:0.50196078"
       d="m 397.25298,537.39285 c 0,78.90769 -63.96731,142.87501 -142.87499,142.87501 -78.90769,0 -142.87501,-63.96732 -142.87501,-142.87501 0,-78.90768 63.96732,-142.875 142.87501,-142.875 78.90769,0 142.87499,63.96732 142.87499,142.875 z m -500.0625,-238.12499 v 476.25 h 714.375 v -476.25 z"
       id="path814"
       inkscape:connector-curvature="0"
       sodipodi:nodetypes="zzzzzccccc" />
    <g
       id="g916">
      <path
         style="opacity:1;fill:#001e80;fill-opacity:1;fill-rule:evenodd;stroke:none;stroke-width:0.22373059;stroke-linecap:round;stroke-linejoin:round;stroke-miterlimit:4;stroke-dasharray:none;stroke-dashoffset:0;stroke-opacity:0.50196078"
         d="m 397.25298,537.39285 c 0,78.90769 -63.96731,142.87501 -142.87499,142.87501 -78.90769,0 -142.87501,-63.96732 -142.87501,-142.87501 0,-78.90768 63.96732,-142.875 142.87501,-142.875 78.90769,0 142.87499,63.96732 142.87499,142.875 z"
         id="path910"
         inkscape:connector-curvature="0"
         sodipodi:nodetypes="zzzzz" />
      <path
         sodipodi:nodetypes="sccscccscs"
         inkscape:connector-curvature="0"
         id="path816-3"
         transform="matrix(0.26458334,0,0,0.26458334,-112.33452,299.26786)"
         d="m 846,900 c 0,295.6573 237.6088,535.8139 532.2852,539.9414 v -154.3105 c -209.4623,-4.1103 -378,-175.1849 -378,-385.6309 0,-26.48606 2.671,-52.34934 7.7722,-77.35508 125.9344,94.26867 209.1754,242.43578 215.5481,410.28868 46.7935,22.8402 99.1322,36.1076 154.4803,37.2656 0.1281,-5.4801 0.1992,-10.9734 0.1992,-16.4844 0,-295.49256 -185.0756,-547.75837 -445.63921,-647.20099 C 877.83016,691.00783 846,791.78714 846,900 Z"
         style="opacity:1;fill:#ffffff;fill-opacity:1;fill-rule:evenodd;stroke:none;stroke-width:0.60399705;stroke-linecap:round;stroke-linejoin:round;stroke-miterlimit:4;stroke-dasharray:none;stroke-dashoffset:0;stroke-opacity:0.50196078" />
      <path
         sodipodi:nodetypes="cccczcccccc"
         inkscape:connector-curvature="0"
         id="path845-8"
         transform="matrix(0.26458334,0,0,0.26458334,-112.33452,299.26786)"
         d="m 1308.8574,917.51562 v -395.5039 c -92.8392,18.84661 -173.5743,71.02849 -229.1504,143.51953 -42.9957,-28.863 -89.32707,-53.13349 -138.28903,-72.11719 C 1038.8471,452.39917 1201.6311,360 1386,360 c 184.3689,-10e-6 347.1529,92.39916 444.582,233.41404 -48.9619,18.9837 -95.2933,43.2542 -138.289,72.11721 -55.5761,-72.49104 -136.3112,-124.67293 -229.1504,-143.51955 v 395.50393 c -38.2897,70.77184 -64.8687,148.79167 -77.1426,231.46097 -12.2739,-82.6693 -38.8529,-160.68913 -77.1426,-231.46098 z"
         style="fill:#ffffff;stroke:none;stroke-width:1px;stroke-linecap:butt;stroke-linejoin:miter;stroke-opacity:1;fill-opacity:1" />
      <path
         style="opacity:1;fill:#ffffff;fill-opacity:1;fill-rule:evenodd;stroke:none;stroke-width:0.15980756;stroke-linecap:round;stroke-linejoin:round;stroke-miterlimit:4;stroke-dasharray:none;stroke-dashoffset:0;stroke-opacity:0.50196078"
         d="m 397.25298,537.39285 c 0,78.22599 -62.86733,141.76743 -140.83379,142.8595 v -40.82799 c 55.42023,-1.08752 100.0125,-46.35101 100.0125,-102.03151 0,-7.00777 -0.7067,-13.85077 -2.0564,-20.46687 -33.32014,24.94192 -55.34432,64.14447 -57.03043,108.55555 -12.38078,6.04314 -26.22873,9.55347 -40.87292,9.85986 -0.0339,-1.44995 -0.0527,-2.90338 -0.0527,-4.3615 0,-78.18241 48.96792,-144.92774 117.90871,-171.2386 14.5033,22.35571 22.92503,49.02024 22.92503,77.65156 z"
         id="path908"
         inkscape:connector-curvature="0"
         sodipodi:nodetypes="sccscccscs" />
    </g>
  </g>
</svg>
