<?xml version="1.0" encoding="UTF-8" standalone="no"?>
<!-- Created with Inkscape (http://www.inkscape.org/) -->

<svg
   xmlns:dc="http://purl.org/dc/elements/1.1/"
   xmlns:cc="http://creativecommons.org/ns#"
   xmlns:rdf="http://www.w3.org/1999/02/22-rdf-syntax-ns#"
   xmlns:svg="http://www.w3.org/2000/svg"
   xmlns="http://www.w3.org/2000/svg"
   xmlns:sodipodi="http://sodipodi.sourceforge.net/DTD/sodipodi-0.dtd"
   xmlns:inkscape="http://www.inkscape.org/namespaces/inkscape"
   width="1080"
   height="1080"
   viewBox="0 0 285.75 285.75001"
   version="1.1"
   id="svg8"
   inkscape:export-filename="C:\Users\厂永刄先生\Documents\GXI3CW2\JáÈŭcèŭ\N̂i\福井県\章.png"
   inkscape:export-xdpi="96"
   inkscape:export-ydpi="96"
   inkscape:version="0.92.4 (5da689c313, 2019-01-14)"
   sodipodi:docname="章.svg">
  <defs
     id="defs2" />
  <sodipodi:namedview
     id="base"
     pagecolor="#ffffff"
     bordercolor="#666666"
     borderopacity="1.0"
     inkscape:pageopacity="0.0"
     inkscape:pageshadow="2"
     inkscape:zoom="0.50373102"
     inkscape:cx="539.99999"
     inkscape:cy="540.02924"
     inkscape:document-units="px"
     inkscape:current-layer="layer1"
     showgrid="false"
     units="px"
     fit-margin-top="0"
     fit-margin-left="0"
     fit-margin-right="0"
     fit-margin-bottom="0"
     inkscape:showpageshadow="false"
     inkscape:snap-intersection-paths="true"
     inkscape:object-paths="false"
     inkscape:pagecheckerboard="true"
     inkscape:snap-smooth-nodes="true"
     inkscape:window-width="1366"
     inkscape:window-height="745"
     inkscape:window-x="-8"
     inkscape:window-y="-8"
     inkscape:window-maximized="1"
     inkscape:object-nodes="true"
     inkscape:snap-nodes="true" />
  <metadata
     id="metadata5">
    <rdf:RDF>
      <cc:Work
         rdf:about="">
        <dc:format>image/svg+xml</dc:format>
        <dc:type
           rdf:resource="http://purl.org/dc/dcmitype/StillImage" />
        <dc:title></dc:title>
      </cc:Work>
    </rdf:RDF>
  </metadata>
  <g
     inkscape:label="レイヤー 1"
     inkscape:groupmode="layer"
     id="layer1"
     transform="translate(-111.50298,-394.51785)">
    <path
       style="opacity:1;fill:#000000;fill-opacity:1;fill-rule:evenodd;stroke:none;stroke-width:0.15980756;stroke-linecap:round;stroke-linejoin:round;stroke-miterlimit:4;stroke-dasharray:none;stroke-dashoffset:0;stroke-opacity:0.50196078"
       d="M 211.41111,625.48155 C 209.725,581.07047 187.70082,541.86792 154.38067,516.926 c -1.34969,6.6161 -2.05639,13.4591 -2.05639,20.46687 0,55.6805 44.59227,100.94399 100.0125,102.03151 v 40.82799 C 174.37032,679.1603 111.50299,615.61886 111.50299,537.39287 l -1e-5,0 c 0,-28.63132 8.42173,-55.29585 22.92503,-77.65156 68.94079,26.31086 117.90871,93.05619 117.90871,171.2386 0,1.45812 -0.0188,2.91155 -0.0527,4.3615 -14.64418,-0.30639 -28.49213,-3.81672 -40.87291,-9.85986 z m 22.55623,-83.45434 V 437.38346 c -24.5637,4.9865 -45.92487,18.79296 -60.62938,37.97288 -11.37594,-7.63667 -23.63445,-14.05824 -36.58897,-19.08101 25.77813,-37.31019 68.84806,-61.75747 117.629,-61.75747 48.78094,0 91.85087,24.44728 117.62899,61.75747 -12.9545,5.02277 -25.21302,11.44434 -36.58897,19.08101 -14.70451,-19.17992 -36.06567,-32.98638 -60.62937,-37.97288 v 104.64375 c -10.13082,18.72505 -17.16318,39.3678 -20.41065,61.24072 -3.24747,-21.87292 -10.27983,-42.51567 -20.41065,-61.24072 z m 22.4519,88.95268 c 0,-78.18241 48.96792,-144.92774 117.90871,-171.2386 14.5033,22.35571 22.92503,49.02024 22.92503,77.65156 0,78.22599 -62.86733,141.76743 -140.83379,142.8595 v -40.82799 c 55.42023,-1.08752 100.0125,-46.35101 100.0125,-102.03151 0,-7.00777 -0.7067,-13.85077 -2.0564,-20.46687 -33.32014,24.94192 -55.34432,64.14447 -57.03043,108.55555 -12.38078,6.04314 -26.22873,9.55347 -40.87292,9.85986 -0.0339,-1.44995 -0.0527,-2.90338 -0.0527,-4.3615 z"
       id="path816-3"
       inkscape:connector-curvature="0"
       sodipodi:nodetypes="ccscccscscccccczccccccscsccscccs" />
  </g>
</svg>
