<?xml version="1.0" encoding="UTF-8" standalone="no"?>
<!-- Created with Inkscape (http://www.inkscape.org/) -->

<svg
   width="3376"
   height="1800"
   viewBox="0 0 893.23333 476.25001"
   version="1.1"
   id="svg8"
   inkscape:export-filename="C:\Users\厂永刄先生\Documents\GXI3CW2\,pjóŭ\Birmanie.png"
   inkscape:export-xdpi="96"
   inkscape:export-ydpi="96"
   inkscape:version="1.3 (0e150ed6c4, 2023-07-21)"
   sodipodi:docname="mm_2010_000-010.svg"
   xmlns:inkscape="http://www.inkscape.org/namespaces/inkscape"
   xmlns:sodipodi="http://sodipodi.sourceforge.net/DTD/sodipodi-0.dtd"
   xmlns="http://www.w3.org/2000/svg"
   xmlns:svg="http://www.w3.org/2000/svg"
   xmlns:rdf="http://www.w3.org/1999/02/22-rdf-syntax-ns#"
   xmlns:cc="http://creativecommons.org/ns#"
   xmlns:dc="http://purl.org/dc/elements/1.1/">
  <defs
     id="defs2" />
  <sodipodi:namedview
     id="base"
     pagecolor="#ffffff"
     bordercolor="#666666"
     borderopacity="1.0"
     inkscape:pageopacity="0.0"
     inkscape:pageshadow="2"
     inkscape:zoom="0.15111112"
     inkscape:cx="1796.6911"
     inkscape:cy="2240.0734"
     inkscape:document-units="px"
     inkscape:current-layer="layer1"
     showgrid="false"
     units="px"
     fit-margin-top="0"
     fit-margin-left="0"
     fit-margin-right="0"
     fit-margin-bottom="0"
     inkscape:showpageshadow="false"
     inkscape:snap-intersection-paths="true"
     inkscape:object-paths="false"
     inkscape:pagecheckerboard="true"
     inkscape:snap-smooth-nodes="false"
     inkscape:window-width="1920"
     inkscape:window-height="1009"
     inkscape:window-x="-8"
     inkscape:window-y="-8"
     inkscape:window-maximized="1"
     inkscape:object-nodes="true"
     inkscape:snap-nodes="true"
     inkscape:deskcolor="#505050" />
  <metadata
     id="metadata5">
    <rdf:RDF>
      <cc:Work
         rdf:about="">
        <dc:format>image/svg+xml</dc:format>
        <dc:type
           rdf:resource="http://purl.org/dc/dcmitype/StillImage" />
      </cc:Work>
    </rdf:RDF>
  </metadata>
  <g
     inkscape:label="レイヤー 1"
     inkscape:groupmode="layer"
     id="layer1"
     transform="translate(112.33452,-299.26786)">
    <path
       sodipodi:nodetypes="ccccc"
       inkscape:connector-curvature="0"
       id="path2"
       d="m 339.04466,537.39286 h -441.85418 v -238.125 h 441.85418 z"
       style="fill:#ee2737;fill-opacity:1;stroke:none;stroke-width:0.82141px;stroke-linecap:butt;stroke-linejoin:miter;stroke-opacity:1" />
    <path
       sodipodi:nodetypes="ccccccc"
       inkscape:connector-curvature="0"
       id="path884"
       d="m 780.89882,775.51786 h -883.70834 v -238.125 h 441.85418 v -238.125 h 441.85416 z"
       style="fill:#ffffff;fill-opacity:1;stroke:none;stroke-width:1.64282px;stroke-linecap:butt;stroke-linejoin:miter;stroke-opacity:1" />
    <path
       style="fill:#ffffff;fill-opacity:1;stroke:none;stroke-width:0.511668px;stroke-linecap:butt;stroke-linejoin:miter;stroke-opacity:1"
       d="m -102.80952,299.26786 h -9.525 v 476.25 h 9.525 z"
       id="path1079"
       inkscape:connector-curvature="0"
       sodipodi:nodetypes="ccccc" />
    <path
       style="fill:#ffffff;fill-opacity:1;stroke:none;stroke-width:0.112273px;stroke-linecap:butt;stroke-linejoin:miter;stroke-opacity:1"
       d="m 118.11762,460.22957 -51.581031,37.47579 19.7022,-60.6371 -51.581016,-37.4758 h 63.757641 l 19.702206,-60.6371 19.70215,60.6371 h 63.7576 l -51.58095,37.47579 19.70215,60.63711 z"
       id="path821"
       inkscape:connector-curvature="0"
       sodipodi:nodetypes="ccccccccccc" />
    <path
       id="path3"
       style="color:#000000;fill:#1239df;fill-opacity:1;stroke:none;stroke-width:0.528449;stroke-dasharray:none;stroke-opacity:1"
       d="m 662.80521,603.34119 c 0,7.32581 4.36731,13.68648 10.6237,16.61107 v 7.72651 H 636.3274 v 13.38669 l 37.10151,6.69437 v 45.8128 c 0,8.75692 -5.523,11.21228 -14.32063,11.21228 -20.72487,0 -36.80035,-18.84336 -36.80035,-39.0583 -3.17763,7.72743 -11.04127,15.67389 -8.82058,25.80697 0.87583,-1.72549 3.13154,-4.66351 5.33403,-4.70547 0,0 -0.61514,29.40126 28.2693,36.51413 18.62838,4.58729 28.76048,11.29376 34.03272,20.4256 5.27225,-9.13184 15.40434,-15.83831 34.03273,-20.4256 28.88444,-7.11287 28.2693,-36.51413 28.2693,-36.51413 2.20248,0.042 4.4582,2.97998 5.33403,4.70547 2.22068,-10.13308 -5.64295,-18.07954 -8.82058,-25.80697 0,20.21494 -16.07548,39.0583 -36.80035,39.0583 -8.79764,0 -14.32063,-2.45536 -14.32063,-11.21228 v -45.8128 l 37.10151,-6.69437 V 627.67877 H 688.8179 v -7.72651 c 6.25639,-2.92459 10.6237,-9.28526 10.6237,-16.61107 0,-10.06978 -8.24838,-18.32335 -18.3182,-18.32335 -10.06981,0 -18.31819,8.25357 -18.31819,18.32335 z m 28.29783,0 c 0,5.56197 -4.41769,9.97965 -9.97964,9.97965 -5.56194,0 -9.97963,-4.41768 -9.97963,-9.97965 0,-5.56196 4.41769,-9.98067 9.97963,-9.98067 5.56195,0 9.97964,4.41871 9.97964,9.98067 z"
       sodipodi:nodetypes="scccccsscccscscccsscccccszsszszs" />
  </g>
</svg>
