<?xml version="1.0" encoding="UTF-8" standalone="no"?>
<!-- Created with Inkscape (http://www.inkscape.org/) -->

<svg
   width="3376"
   height="1800"
   viewBox="0 0 893.23333 476.25001"
   version="1.1"
   id="svg8"
   inkscape:export-filename="C:\Users\厂永刄先生\Documents\GXI3CW2\,pjóŭ\Birmanie.png"
   inkscape:export-xdpi="96"
   inkscape:export-ydpi="96"
   inkscape:version="1.3 (0e150ed6c4, 2023-07-21)"
   sodipodi:docname="mm_2010_000-010.svg"
   xmlns:inkscape="http://www.inkscape.org/namespaces/inkscape"
   xmlns:sodipodi="http://sodipodi.sourceforge.net/DTD/sodipodi-0.dtd"
   xmlns="http://www.w3.org/2000/svg"
   xmlns:svg="http://www.w3.org/2000/svg"
   xmlns:rdf="http://www.w3.org/1999/02/22-rdf-syntax-ns#"
   xmlns:cc="http://creativecommons.org/ns#"
   xmlns:dc="http://purl.org/dc/elements/1.1/">
  <defs
     id="defs2" />
  <sodipodi:namedview
     id="base"
     pagecolor="#ffffff"
     bordercolor="#666666"
     borderopacity="1.0"
     inkscape:pageopacity="0.0"
     inkscape:pageshadow="2"
     inkscape:zoom="0.2137034"
     inkscape:cx="1490.3834"
     inkscape:cy="1490.3834"
     inkscape:document-units="px"
     inkscape:current-layer="layer1"
     showgrid="false"
     units="px"
     fit-margin-top="0"
     fit-margin-left="0"
     fit-margin-right="0"
     fit-margin-bottom="0"
     inkscape:showpageshadow="false"
     inkscape:snap-intersection-paths="true"
     inkscape:object-paths="false"
     inkscape:pagecheckerboard="true"
     inkscape:snap-smooth-nodes="false"
     inkscape:window-width="1920"
     inkscape:window-height="1009"
     inkscape:window-x="-8"
     inkscape:window-y="-8"
     inkscape:window-maximized="1"
     inkscape:object-nodes="true"
     inkscape:snap-nodes="true"
     inkscape:deskcolor="#505050" />
  <metadata
     id="metadata5">
    <rdf:RDF>
      <cc:Work
         rdf:about="">
        <dc:format>image/svg+xml</dc:format>
        <dc:type
           rdf:resource="http://purl.org/dc/dcmitype/StillImage" />
      </cc:Work>
    </rdf:RDF>
  </metadata>
  <g
     inkscape:label="レイヤー 1"
     inkscape:groupmode="layer"
     id="layer1"
     transform="translate(112.33452,-299.26786)">
    <path
       sodipodi:nodetypes="ccccc"
       inkscape:connector-curvature="0"
       id="path2"
       d="m 339.04466,537.39286 h -441.85418 v -238.125 h 441.85418 z"
       style="fill:#1239df;fill-opacity:1;stroke:none;stroke-width:0.82141px;stroke-linecap:butt;stroke-linejoin:miter;stroke-opacity:1" />
    <path
       sodipodi:nodetypes="ccccccc"
       inkscape:connector-curvature="0"
       id="path884"
       d="m 780.89882,775.51786 h -883.70834 v -238.125 h 441.85418 v -238.125 h 441.85416 z"
       style="fill:#ffffff;fill-opacity:1;stroke:none;stroke-width:1.64282px;stroke-linecap:butt;stroke-linejoin:miter;stroke-opacity:1" />
    <path
       style="fill:#ffffff;fill-opacity:1;stroke:none;stroke-width:0.511668px;stroke-linecap:butt;stroke-linejoin:miter;stroke-opacity:1"
       d="m -102.80952,299.26786 h -9.525 v 476.25 h 9.525 z"
       id="path1079"
       inkscape:connector-curvature="0"
       sodipodi:nodetypes="ccccc" />
    <path
       style="fill:#ffffff;fill-opacity:1;stroke:none;stroke-width:0.112273px;stroke-linecap:butt;stroke-linejoin:miter;stroke-opacity:1"
       d="m 118.11762,460.22957 -51.581031,37.47579 19.7022,-60.6371 -51.581016,-37.4758 h 63.757641 l 19.702206,-60.6371 19.70215,60.6371 h 63.7576 l -51.58095,37.47579 19.70215,60.63711 z"
       id="path821"
       inkscape:connector-curvature="0"
       sodipodi:nodetypes="ccccccccccc" />
    <g
       id="g5"
       transform="matrix(0.60189272,0,0,0.60189272,229.81728,287.54488)">
      <path
         id="path4"
         style="color:#000000;fill:#1239df;fill-opacity:1;stroke:none;stroke-width:0.528449;stroke-dasharray:none;stroke-opacity:1"
         d="m 743.8403,529.80848 c -5.18013,5.18013 -6.58965,12.76596 -4.23371,19.25789 l -5.46347,5.46347 -26.23473,-26.23473 -9.46582,9.46582 21.5011,30.96837 -97.3941,97.39409 c -6.19208,6.19208 -11.83363,4.02293 -18.05449,-2.19793 -14.6547,-14.6547 -12.69751,-39.34605 1.59661,-53.64017 -7.71104,3.21719 -18.89047,3.27576 -24.48538,12.01119 1.83941,-0.6008 5.51194,-1.08327 7.099,0.44446 0,0 -21.2248,20.35486 -5.82997,45.8088 9.92855,16.41596 12.35083,28.32263 9.62168,38.50785 10.18523,-2.72914 22.09189,-0.30686 38.50786,9.62169 25.45394,15.39483 45.8088,-5.82997 45.8088,-5.82997 1.52769,1.58709 1.04526,5.25959 0.44446,7.099 8.73543,-5.59491 8.794,-16.77434 12.01119,-24.48538 -14.29412,14.29412 -38.98547,16.25131 -53.64016,1.59661 -6.22088,-6.22087 -8.39002,-11.86241 -2.19794,-18.05449 l 97.3941,-97.3941 30.96836,21.5011 9.46582,-9.46582 -26.23473,-26.23473 5.46347,-5.46347 c 6.49193,2.35594 14.07776,0.94642 19.25789,-4.23371 7.12041,-7.12041 7.12408,-18.78905 0.004,-25.90949 -7.12043,-7.12043 -18.78907,-7.11676 -25.90948,0.004 z m 20.00958,20.00959 c -3.9329,3.93291 -10.18045,3.9329 -14.11334,10e-6 -3.93289,-3.93289 -3.9329,-10.18044 10e-6,-14.11334 3.9329,-3.9329 10.18118,-3.93362 14.11406,-7.4e-4 3.9329,3.93289 3.93217,10.18117 -7.3e-4,14.11407 z"
         sodipodi:nodetypes="scccccsscccscscccsscccccszsszszs" />
      <path
         id="path5"
         style="color:#000000;fill:#1239df;fill-opacity:1;stroke:none;stroke-width:0.528449;stroke-dasharray:none;stroke-opacity:1"
         d="m 640.27279,529.80848 c 5.18013,5.18013 6.58965,12.76596 4.23371,19.25789 l 5.46347,5.46347 26.23473,-26.23473 9.46582,9.46582 -21.5011,30.96837 97.3941,97.39409 c 6.19208,6.19208 11.83363,4.02293 18.05449,-2.19793 14.6547,-14.6547 12.69751,-39.34605 -1.59661,-53.64017 7.71104,3.21719 18.89047,3.27576 24.48538,12.01119 -1.83941,-0.6008 -5.51194,-1.08327 -7.099,0.44446 0,0 21.2248,20.35486 5.82997,45.8088 -9.92855,16.41596 -12.35083,28.32263 -9.62168,38.50785 -10.18523,-2.72914 -22.09189,-0.30686 -38.50786,9.62169 -25.45394,15.39483 -45.8088,-5.82997 -45.8088,-5.82997 -1.52769,1.58709 -1.04526,5.25959 -0.44446,7.099 -8.73543,-5.59491 -8.794,-16.77434 -12.01119,-24.48538 14.29412,14.29412 38.98547,16.25131 53.64016,1.59661 6.22088,-6.22087 8.39002,-11.86241 2.19794,-18.05449 l -97.3941,-97.3941 -30.96836,21.5011 -9.46582,-9.46582 26.23473,-26.23473 -5.46347,-5.46347 c -6.49193,2.35594 -14.07776,0.94642 -19.25789,-4.23371 -7.12041,-7.12041 -7.12408,-18.78905 -0.004,-25.90949 7.12043,-7.12043 18.78907,-7.11676 25.90948,0.004 z m -20.00958,20.00959 c 3.9329,3.93291 10.18045,3.9329 14.11334,10e-6 3.93289,-3.93289 3.9329,-10.18044 -10e-6,-14.11334 -3.9329,-3.9329 -10.18118,-3.93362 -14.11406,-7.4e-4 -3.9329,3.93289 -3.93217,10.18117 7.3e-4,14.11407 z"
         sodipodi:nodetypes="scccccsscccscscccsscccccszsszszs" />
    </g>
  </g>
</svg>
