<?xml version="1.0" encoding="UTF-8" standalone="no"?>
<!-- Created with Inkscape (http://www.inkscape.org/) -->

<svg
   width="3636"
   height="1800"
   viewBox="0 0 962.025 476.25001"
   version="1.1"
   id="svg8"
   inkscape:export-filename="C:\Users\厂永刄先生\Documents\GXI3CW2\,pjóŭ\Æthiopie.png"
   inkscape:export-xdpi="96"
   inkscape:export-ydpi="96"
   inkscape:version="1.3 (0e150ed6c4, 2023-07-21)"
   sodipodi:docname="eg_1881.svg"
   xmlns:inkscape="http://www.inkscape.org/namespaces/inkscape"
   xmlns:sodipodi="http://sodipodi.sourceforge.net/DTD/sodipodi-0.dtd"
   xmlns="http://www.w3.org/2000/svg"
   xmlns:svg="http://www.w3.org/2000/svg"
   xmlns:rdf="http://www.w3.org/1999/02/22-rdf-syntax-ns#"
   xmlns:cc="http://creativecommons.org/ns#"
   xmlns:dc="http://purl.org/dc/elements/1.1/">
  <defs
     id="defs2" />
  <sodipodi:namedview
     id="base"
     pagecolor="#ffffff"
     bordercolor="#666666"
     borderopacity="1.0"
     inkscape:pageopacity="0.0"
     inkscape:pageshadow="2"
     inkscape:zoom="0.34694128"
     inkscape:cx="1180.315"
     inkscape:cy="1099.6097"
     inkscape:document-units="px"
     inkscape:current-layer="layer1"
     showgrid="false"
     units="px"
     fit-margin-top="0"
     fit-margin-left="0"
     fit-margin-right="0"
     fit-margin-bottom="0"
     inkscape:showpageshadow="false"
     inkscape:snap-intersection-paths="false"
     inkscape:object-paths="false"
     inkscape:pagecheckerboard="true"
     inkscape:snap-smooth-nodes="true"
     inkscape:window-width="1920"
     inkscape:window-height="1009"
     inkscape:window-x="-8"
     inkscape:window-y="-8"
     inkscape:window-maximized="1"
     inkscape:object-nodes="true"
     inkscape:snap-nodes="true"
     inkscape:deskcolor="#505050" />
  <metadata
     id="metadata5">
    <rdf:RDF>
      <cc:Work
         rdf:about="">
        <dc:format>image/svg+xml</dc:format>
        <dc:type
           rdf:resource="http://purl.org/dc/dcmitype/StillImage" />
      </cc:Work>
    </rdf:RDF>
  </metadata>
  <g
     inkscape:label="レイヤー 1"
     inkscape:groupmode="layer"
     id="layer1"
     transform="translate(-6.7279798,-418.33036)">
    <path
       style="fill:#ffffff;fill-opacity:1;stroke:none;stroke-width:0.51166773px;stroke-linecap:butt;stroke-linejoin:miter;stroke-opacity:1"
       d="M 16.25298,418.33036 H 6.7279798 v 476.25 H 16.25298 Z"
       id="path1079"
       inkscape:connector-curvature="0"
       sodipodi:nodetypes="ccccc" />
    <path
       style="fill:#ff0000;fill-opacity:1;stroke:none;stroke-width:1.70555902px;stroke-linecap:butt;stroke-linejoin:miter;stroke-opacity:1"
       d="M 968.75299,894.58037 V 418.33036 H 16.25298 v 476.25001 z"
       id="path884"
       inkscape:connector-curvature="0"
       sodipodi:nodetypes="ccccc" />
    <path
       style="opacity:1;fill:#ffffff;fill-opacity:1;stroke:none;stroke-width:3.27099395;stroke-linecap:round;stroke-linejoin:round;stroke-miterlimit:4;stroke-dasharray:none;stroke-dashoffset:0;stroke-opacity:1;paint-order:markers stroke fill"
       d="m 576,120 c -198.8225,-0.0709 -360,161.17749 -360,360 0,198.82251 161.1775,360.05477 360,360 46.11468,-0.0127 91.78685,-8.99424 134.5332,-26.29492 C 526.41161,813.44728 377.27209,664.09094 377.27148,480 377.27087,295.90906 526.31326,146.63901 710.37305,146.29297 667.67653,129.01308 622.06069,120.01643 576,120 Z"
       transform="matrix(0.26458334,0,0,0.26458334,6.7279798,418.33036)"
       id="circle835"
       inkscape:connector-curvature="0"
       sodipodi:nodetypes="szsczcs" />
    <path
       style="opacity:1;fill:#ffffff;fill-opacity:1;stroke:none;stroke-width:0.78624302;stroke-linecap:round;stroke-linejoin:round;stroke-miterlimit:4;stroke-dasharray:none;stroke-dashoffset:0;stroke-opacity:1;paint-order:markers stroke fill"
       inkscape:transform-center-x="-3.3008145e-06"
       inkscape:transform-center-y="1.9864649e-06"
       d="m 194.84673,522.59147 34.99159,-25.42288 -13.36559,41.13509 34.99158,25.42287 h -43.25198 l -13.36561,41.13508 -13.36559,-41.13508 h -43.25199 l 34.9916,-25.42288 -13.3656,-41.13508 z"
       id="path870"
       inkscape:connector-curvature="0"
       sodipodi:nodetypes="ccccccccccc" />
    <path
       sodipodi:nodetypes="szsczcs"
       inkscape:connector-curvature="0"
       id="path877"
       d="m 159.12798,672.33038 c -52.60512,-0.0188 -95.250005,42.64488 -95.250005,95.25 0,52.60513 42.644885,95.2645 95.250005,95.25001 12.20117,-0.003 24.28527,-2.37973 35.59524,-6.9572 -48.7155,-0.0682 -88.17534,-39.58541 -88.1755,-88.29281 -1.6e-4,-48.70739 39.43397,-88.20176 88.13313,-88.29332 -11.29679,-4.57197 -23.36598,-6.95233 -35.55287,-6.95668 z"
       style="opacity:1;fill:#ffffff;fill-opacity:1;stroke:none;stroke-width:0.8654505;stroke-linecap:round;stroke-linejoin:round;stroke-miterlimit:4;stroke-dasharray:none;stroke-dashoffset:0;stroke-opacity:1;paint-order:markers stroke fill" />
    <path
       sodipodi:nodetypes="ccccccccccc"
       inkscape:connector-curvature="0"
       id="path879"
       d="m 194.84672,744.84149 34.99159,-25.42288 -13.36559,41.13509 34.99158,25.42287 h -43.25198 l -13.36561,41.13508 -13.36559,-41.13508 h -43.25199 l 34.9916,-25.42288 -13.3656,-41.13508 z"
       inkscape:transform-center-y="1.9864649e-06"
       inkscape:transform-center-x="-3.3008145e-06"
       style="opacity:1;fill:#ffffff;fill-opacity:1;stroke:none;stroke-width:0.78624302;stroke-linecap:round;stroke-linejoin:round;stroke-miterlimit:4;stroke-dasharray:none;stroke-dashoffset:0;stroke-opacity:1;paint-order:markers stroke fill" />
    <path
       style="opacity:1;fill:#ffffff;fill-opacity:1;stroke:none;stroke-width:0.8654505;stroke-linecap:round;stroke-linejoin:round;stroke-miterlimit:4;stroke-dasharray:none;stroke-dashoffset:0;stroke-opacity:1;paint-order:markers stroke fill"
       d="m 351.60215,561.20538 c -52.60512,-0.0188 -95.25001,42.64488 -95.25001,95.25 0,52.60513 42.64489,95.2645 95.25001,95.25001 12.20117,-0.003 24.28527,-2.37973 35.59524,-6.9572 -48.7155,-0.0682 -88.17534,-39.58541 -88.1755,-88.29281 -1.6e-4,-48.70739 39.43397,-88.20176 88.13313,-88.29332 -11.29679,-4.57197 -23.36598,-6.95233 -35.55287,-6.95668 z"
       id="path881"
       inkscape:connector-curvature="0"
       sodipodi:nodetypes="szsczcs" />
    <path
       style="opacity:1;fill:#ffffff;fill-opacity:1;stroke:none;stroke-width:0.78624302;stroke-linecap:round;stroke-linejoin:round;stroke-miterlimit:4;stroke-dasharray:none;stroke-dashoffset:0;stroke-opacity:1;paint-order:markers stroke fill"
       inkscape:transform-center-x="-3.3008145e-06"
       inkscape:transform-center-y="1.9864649e-06"
       d="m 387.32089,633.71649 34.99159,-25.42288 -13.36559,41.13509 34.99158,25.42287 h -43.25198 l -13.36561,41.13508 -13.36559,-41.13508 H 330.7033 l 34.9916,-25.42288 -13.3656,-41.13508 z"
       id="path883"
       inkscape:connector-curvature="0"
       sodipodi:nodetypes="ccccccccccc" />
  </g>
</svg>
