<?xml version="1.0" encoding="UTF-8" standalone="no"?>
<!-- Created with Inkscape (http://www.inkscape.org/) -->

<svg
   width="1800"
   height="3036"
   viewBox="0 0 476.24999 803.27502"
   version="1.1"
   id="svg8"
   inkscape:export-filename="C:\Users\厂永刄先生\Documents\GXI3CW2\JáÈŭcèŭ\Maqkàla\Maqkàla.png"
   inkscape:export-xdpi="96"
   inkscape:export-ydpi="96"
   inkscape:version="1.3 (0e150ed6c4, 2023-07-21)"
   sodipodi:docname="eg_1984_vert.svg"
   xmlns:inkscape="http://www.inkscape.org/namespaces/inkscape"
   xmlns:sodipodi="http://sodipodi.sourceforge.net/DTD/sodipodi-0.dtd"
   xmlns="http://www.w3.org/2000/svg"
   xmlns:svg="http://www.w3.org/2000/svg"
   xmlns:rdf="http://www.w3.org/1999/02/22-rdf-syntax-ns#"
   xmlns:cc="http://creativecommons.org/ns#"
   xmlns:dc="http://purl.org/dc/elements/1.1/">
  <defs
     id="defs2" />
  <sodipodi:namedview
     id="base"
     pagecolor="#ffffff"
     bordercolor="#666666"
     borderopacity="1.0"
     inkscape:pageopacity="0.0"
     inkscape:pageshadow="2"
     inkscape:zoom="0.15111111"
     inkscape:cx="747.79411"
     inkscape:cy="2193.75"
     inkscape:document-units="px"
     inkscape:current-layer="layer1"
     showgrid="false"
     units="px"
     fit-margin-top="0"
     fit-margin-left="0"
     fit-margin-right="0"
     fit-margin-bottom="0"
     inkscape:showpageshadow="false"
     inkscape:snap-intersection-paths="true"
     inkscape:object-paths="false"
     inkscape:pagecheckerboard="true"
     inkscape:snap-smooth-nodes="false"
     inkscape:window-width="1920"
     inkscape:window-height="1009"
     inkscape:window-x="-8"
     inkscape:window-y="-8"
     inkscape:window-maximized="1"
     inkscape:object-nodes="true"
     inkscape:deskcolor="#505050" />
  <metadata
     id="metadata5">
    <rdf:RDF>
      <cc:Work
         rdf:about="">
        <dc:format>image/svg+xml</dc:format>
        <dc:type
           rdf:resource="http://purl.org/dc/dcmitype/StillImage" />
      </cc:Work>
    </rdf:RDF>
  </metadata>
  <g
     inkscape:label="レイヤー 1"
     inkscape:groupmode="layer"
     id="layer1"
     transform="translate(-51.17798,-135.75536)">
    <path
       sodipodi:nodetypes="ccccc"
       inkscape:connector-curvature="0"
       id="path824"
       d="m 209.92798,939.03036 h 158.75 v -793.75 h -158.75 z"
       style="fill:#ffffff;fill-opacity:1;stroke:none;stroke-width:2.1357px;stroke-linecap:butt;stroke-linejoin:miter;stroke-opacity:1" />
    <path
       style="fill:#ff0000;fill-opacity:1;stroke:none;stroke-width:1.84957px;stroke-linecap:butt;stroke-linejoin:miter;stroke-opacity:1"
       d="m 209.92798,145.28036 h -158.75 v 793.75 h 158.75 z"
       id="path849"
       inkscape:connector-curvature="0"
       sodipodi:nodetypes="ccccc" />
    <path
       style="fill:#ffffff;fill-opacity:1;stroke:none;stroke-width:0.511668px;stroke-linecap:butt;stroke-linejoin:miter;stroke-opacity:1"
       d="m 51.17798,145.28036 v -9.525 h 476.25 v 9.525 z"
       id="path819"
       inkscape:connector-curvature="0"
       sodipodi:nodetypes="ccccc" />
    <path
       style="fill:#000000;fill-opacity:1;stroke:none;stroke-width:2.1357px;stroke-linecap:butt;stroke-linejoin:miter;stroke-opacity:1"
       d="m 368.67798,939.03036 h 158.75 v -793.75 h -158.75 z"
       id="path847"
       inkscape:connector-curvature="0"
       sodipodi:nodetypes="ccccc" />
    <g
       id="g130"
       style="stroke:#ffbf00;stroke-width:1.22131;stroke-dasharray:none;stroke-opacity:1"
       transform="matrix(0.51993406,0,0,0.51993406,209.71873,463.07998)">
      <path
         style="color:#000000;fill:#ffbf00;fill-opacity:1;stroke:none;stroke-width:1.22131;stroke-linecap:round;stroke-linejoin:round;stroke-miterlimit:5.2;stroke-dasharray:none;stroke-opacity:1"
         d="m 53.109155,314.52293 c -4.100817,-1.10596 -6.016423,-4.21284 -6.115427,-9.49262 -7.966082,-3.3403 -3.233491,-10.50149 -7.651211,-12.9428 5.046509,-0.0946 4.20771,-8.63724 12.811544,-7.869 2.554154,-4.62192 5.715279,-6.54179 9.845671,-5.53493 3.253976,0.79322 51.353948,13.1741 91.066498,13.1741 39.71255,0 87.81252,-12.38088 91.0665,-13.1741 4.13039,-1.00686 7.29152,0.91301 9.84567,5.53493 8.60384,-0.76824 7.76504,7.7744 12.81155,7.869 -4.41772,2.44131 0.31487,9.6025 -7.65122,12.9428 -0.099,5.27978 -2.01461,8.38666 -6.11542,9.49262 -3.87462,1.04496 -49.9079,11.87679 -99.95708,11.87679 -50.04918,0 -96.082454,-10.83183 -99.957075,-11.87679 z"
         id="path127" />
      <path
         style="color:#000000;fill:#fefefe;fill-opacity:1;stroke:none;stroke-width:1.22131;stroke-linecap:round;stroke-linejoin:round;stroke-miterlimit:5.2;stroke-dasharray:none;stroke-opacity:1"
         d="m 54.142658,310.69139 c -3.634452,-0.93781 -3.174278,-5.3304 -3.228511,-8.32032 l -2.384765,-1 c -3.365285,-1.25351 -2.702782,-4.94884 -3.412113,-7.85155 2.115296,-2.43417 3.075987,-5.5986 6.68359,-5.34765 l 2.576172,0.23047 c 1.034584,-2.72343 2.947692,-6.83986 6.683516,-5.86328 0.760287,0.19875 50.990973,13.28711 92.005863,13.28711 41.01489,0 91.24557,-13.08836 92.00586,-13.28711 3.73583,-0.97658 5.64893,3.13985 6.68352,5.86328 l 2.57617,-0.23047 c 3.6076,-0.25095 4.56829,2.91348 6.68359,5.34765 -0.70933,2.90271 -0.0468,6.59804 -3.41211,7.85155 l -2.38477,1 c -0.0542,2.98992 0.40594,7.38251 -3.22851,8.32032 -0.23685,0.0639 -47.01614,11.74023 -98.92375,11.74023 -51.90761,0 -98.686898,-11.67635 -98.923752,-11.74023 z"
         id="path128"
         sodipodi:nodetypes="scscscszscscscszs" />
      <path
         style="opacity:1;fill:#ffbf00;fill-opacity:1;stroke:none;stroke-width:1.22131;stroke-linecap:round;stroke-linejoin:round;stroke-miterlimit:5.2;stroke-dasharray:none;stroke-opacity:1"
         d="m 139.43754,202.57361 -13.67403,59.55711 7.24462,10.00205 9.91417,-7.36443 4.84461,-60.91436 1.0859,0.15031 -4.46656,60.94324 8.68016,8.78523 8.68016,-8.78523 -4.46656,-60.94324 1.0859,-0.15031 4.84461,60.91436 9.91417,7.36443 7.24462,-10.00205 -13.67403,-59.55711 z"
         id="path118"
         sodipodi:nodetypes="cccccccccccccccc" />
      <path
         style="opacity:1;fill:#ffbf00;fill-opacity:1;stroke:none;stroke-width:1.22131;stroke-linecap:round;stroke-linejoin:round;stroke-miterlimit:5.2;stroke-dasharray:none;stroke-opacity:1"
         d="m 109.62119,92.74955 -4.21149,95.07297 -16.678165,16.67817 5.37294,-121.292429 -1.51718,1e-6 -5.44326,122.879938 -16.67818,16.67817 6.80367,-153.590368 -1.51718,2e-6 -6.874,155.177876 -16.67818,16.67817 8.07931,-182.387528 -1.51718,10e-7 -8.14963,183.975037 -16.67818,16.67817 9.02441,-203.722946 -1.51718,10e-7 -9.09473,205.310455 -16.67818,16.67817 9.17214,-207.057877 c 0.23426,-5.288494 8.44948,-17.121532 16.60077,-20.222415 35.20651,-13.393121 38.3088,17.603428 111.624315,17.603428 73.31553,0 76.41781,-30.996547 111.62432,-17.603428 8.1513,3.100882 16.36651,14.933921 16.60078,20.222415 l 9.17214,207.057877 -16.67819,-16.67817 -9.09473,-205.310455 -1.51717,-10e-7 9.0244,203.722946 -16.67818,-16.67817 -8.14963,-183.975037 -1.51718,-10e-7 8.07931,182.387528 -16.67818,-16.67817 -6.874,-155.177876 -1.51718,-2e-6 6.80368,153.590368 -16.67819,-16.67817 -5.44326,-122.879938 -1.51718,-1e-6 5.37294,121.292429 -16.67817,-16.67817 -4.21149,-95.07297 z"
         id="path46"
         sodipodi:nodetypes="cccccccccccccccccccsszsscccccccccccccccccccc" />
      <g
         id="g116"
         style="stroke:#ffbf00;stroke-width:1.22131;stroke-dasharray:none;stroke-opacity:1"
         inkscape:transform-center-x="25.745173"
         inkscape:transform-center-y="-39.988195"
         transform="matrix(-0.99190544,0.12697874,0.12697874,0.99190544,-2.2161584,35.079531)">
        <path
           id="path105"
           style="opacity:1;fill:#ffbf00;fill-opacity:1;stroke:#ffbf00;stroke-width:1.22131;stroke-linecap:round;stroke-linejoin:round;stroke-miterlimit:5.2;stroke-dasharray:none;stroke-opacity:1"
           d="m -141.87339,271.83993 h -73.85144 l 1e-4,-10.58334 h 73.85144 z"
           sodipodi:nodetypes="ccccc" />
        <g
           id="g113"
           transform="rotate(10.448452,-169.19483,209.31887)"
           style="stroke:#ffbf00;stroke-width:1.22131;stroke-dasharray:none;stroke-opacity:1">
          <path
             style="opacity:1;fill:#ffffff;fill-opacity:1;stroke:#ffbf00;stroke-width:1.22131;stroke-linecap:round;stroke-linejoin:round;stroke-miterlimit:5.2;stroke-dasharray:none;stroke-opacity:1"
             d="m -192.6535,152.21465 -0.0917,114.20842 47.03933,-8.62232 0.0614,-76.42295 z"
             id="path106"
             sodipodi:nodetypes="ccccc" />
          <path
             style="opacity:1;fill:none;fill-opacity:1;stroke:#ffbf00;stroke-width:1.22131;stroke-linecap:round;stroke-linejoin:round;stroke-miterlimit:5.2;stroke-dasharray:none;stroke-opacity:1;paint-order:normal"
             d="m -192.7288,248.66556 c 1.12537,4.19992 3.40853,7.75853 5.87118,10.22118 2.46265,-2.46265 4.74581,-6.02126 5.87118,-10.22118 1.12537,4.19992 3.40853,7.75853 5.87118,10.22118 2.46265,-2.46265 4.74581,-6.02126 5.87118,-10.22118 1.12537,4.19992 3.40853,7.75853 5.87118,10.22118 2.46265,-2.46265 4.74581,-6.02126 5.87118,-10.22118 1.12537,4.19992 3.40853,7.75853 5.87118,10.22118 2.46265,-2.46265 4.74581,-6.02126 5.87118,-10.22118"
             id="path107"
             sodipodi:nodetypes="ccccccccc" />
          <path
             style="opacity:1;fill:none;fill-opacity:1;stroke:#ffbf00;stroke-width:1.22131;stroke-linecap:round;stroke-linejoin:round;stroke-miterlimit:5.2;stroke-dasharray:none;stroke-opacity:1;paint-order:normal"
             d="m -192.7288,245.99757 c 2.46265,-2.46265 4.74581,-6.02126 5.87118,-10.22118 1.12537,4.19992 3.40853,7.75853 5.87118,10.22118 2.46265,-2.46265 4.74581,-6.02126 5.87118,-10.22118 1.12537,4.19992 3.40853,7.75853 5.87118,10.22118 2.46265,-2.46265 4.74581,-6.02126 5.87118,-10.22118 1.12537,4.19992 3.40853,7.75853 5.87118,10.22118 2.46265,-2.46265 4.74581,-6.02126 5.87118,-10.22118 1.12537,4.19992 3.40853,7.75853 5.87118,10.22118"
             id="path108"
             sodipodi:nodetypes="ccccccccc" />
          <path
             style="opacity:1;fill:none;fill-opacity:1;stroke:#ffbf00;stroke-width:1.22131;stroke-linecap:round;stroke-linejoin:round;stroke-miterlimit:5.2;stroke-dasharray:none;stroke-opacity:1;paint-order:normal"
             d="m -192.7288,222.88728 c 1.12537,4.19992 3.40853,7.75853 5.87118,10.22118 2.46265,-2.46265 4.74581,-6.02126 5.87118,-10.22118 1.12537,4.19992 3.40853,7.75853 5.87118,10.22118 2.46265,-2.46265 4.74581,-6.02126 5.87118,-10.22118 1.12537,4.19992 3.40853,7.75853 5.87118,10.22118 2.46265,-2.46265 4.74581,-6.02126 5.87118,-10.22118 1.12537,4.19992 3.40853,7.75853 5.87118,10.22118 2.46265,-2.46265 4.74581,-6.02126 5.87118,-10.22118"
             id="path109"
             sodipodi:nodetypes="ccccccccc" />
          <path
             style="opacity:1;fill:none;fill-opacity:1;stroke:#ffbf00;stroke-width:1.22131;stroke-linecap:round;stroke-linejoin:round;stroke-miterlimit:5.2;stroke-dasharray:none;stroke-opacity:1;paint-order:normal"
             d="m -192.7288,220.21929 c 2.46265,-2.46265 4.74581,-6.02126 5.87118,-10.22118 1.12537,4.19992 3.40853,7.75853 5.87118,10.22118 2.46265,-2.46265 4.74581,-6.02126 5.87118,-10.22118 1.12537,4.19992 3.40853,7.75853 5.87118,10.22118 2.46265,-2.46265 4.74581,-6.02126 5.87118,-10.22118 1.12537,4.19992 3.40853,7.75853 5.87118,10.22118 2.46265,-2.46265 4.74581,-6.02126 5.87118,-10.22118 1.12537,4.19992 3.40853,7.75853 5.87118,10.22118"
             id="path110"
             sodipodi:nodetypes="ccccccccc" />
          <path
             style="opacity:1;fill:none;fill-opacity:1;stroke:#ffbf00;stroke-width:1.22131;stroke-linecap:round;stroke-linejoin:round;stroke-miterlimit:5.2;stroke-dasharray:none;stroke-opacity:1;paint-order:normal"
             d="m -192.7288,197.109 c 1.12537,4.19992 3.40853,7.75853 5.87118,10.22118 2.46265,-2.46265 4.74581,-6.02126 5.87118,-10.22118 1.12537,4.19992 3.40853,7.75853 5.87118,10.22118 2.46265,-2.46265 4.74581,-6.02126 5.87118,-10.22118 1.12537,4.19992 3.40853,7.75853 5.87118,10.22118 2.46265,-2.46265 4.74581,-6.02126 5.87118,-10.22118 1.12537,4.19992 3.40853,7.75853 5.87118,10.22118 2.46265,-2.46265 4.74581,-6.02126 5.87118,-10.22118"
             id="path111"
             sodipodi:nodetypes="ccccccccc" />
          <path
             style="opacity:1;fill:none;fill-opacity:1;stroke:#ffbf00;stroke-width:1.22131;stroke-linecap:round;stroke-linejoin:round;stroke-miterlimit:5.2;stroke-dasharray:none;stroke-opacity:1;paint-order:normal"
             d="m -192.7288,194.44101 c 2.46265,-2.46265 4.74581,-6.02126 5.87118,-10.22118 1.12537,4.19992 3.40853,7.75853 5.87118,10.22118 2.46265,-2.46265 4.74581,-6.02126 5.87118,-10.22118 1.12537,4.19992 3.40853,7.75853 5.87118,10.22118 2.46265,-2.46265 4.74581,-6.02126 5.87118,-10.22118 1.12537,4.19992 3.40853,7.75853 5.87118,10.22118 2.46265,-2.46265 4.74581,-6.02126 5.87118,-10.22118 1.12537,4.19992 3.40853,7.75853 5.87118,10.22118"
             id="path112"
             sodipodi:nodetypes="ccccccccc" />
          <path
             style="opacity:1;fill:none;fill-opacity:1;stroke:#ffbf00;stroke-width:1.22131;stroke-linecap:round;stroke-linejoin:round;stroke-miterlimit:5.2;stroke-dasharray:none;stroke-opacity:1;paint-order:normal"
             d="m -192.7288,171.33072 c 1.12537,4.19992 3.40853,7.75853 5.87118,10.22118 2.46265,-2.46265 4.74581,-6.02126 5.87118,-10.22118 1.12537,4.19992 3.40853,7.75853 5.87118,10.22118 2.46265,-2.46265 4.74581,-6.02126 5.87118,-10.22118 1.12537,4.19992 3.40853,7.75853 5.87118,10.22118 2.01352,-2.01352 3.90705,-4.75969 5.14586,-7.99002 m 1.96004,1.22197 c 1.21852,2.70271 2.88194,5.01353 4.63646,6.76805 0.74925,-0.74925 1.48189,-1.59995 2.17036,-2.53929"
             id="path113"
             sodipodi:nodetypes="cccccccccc" />
        </g>
        <path
           id="path114"
           style="opacity:1;fill:#ffffff;fill-opacity:1;stroke:#ffbf00;stroke-width:1.22131;stroke-linecap:round;stroke-linejoin:round;stroke-miterlimit:5.2;stroke-dasharray:none;stroke-opacity:1"
           d="m -210.43309,266.54826 c 0,5.54831 -7.37618,8.09542 -5.29164,15.875 -5.40351,-3.11971 -5.29167,-12.9525 -5.29167,-15.875 0,-2.92251 2.36916,-5.29167 5.29167,-5.29167 2.9225,0 5.29164,2.36916 5.29164,5.29167 z"
           sodipodi:nodetypes="scszs" />
        <path
           id="path115"
           style="opacity:1;fill:#ffffff;fill-opacity:1;stroke:#ffbf00;stroke-width:1.22131;stroke-linecap:round;stroke-linejoin:round;stroke-miterlimit:5.2;stroke-dasharray:none;stroke-opacity:1"
           d="m -147.16493,266.54826 c 0,5.54831 7.37618,8.09542 5.29164,15.875 5.40351,-3.11971 5.29167,-12.9525 5.29167,-15.875 0,-2.92251 -2.36916,-5.29167 -5.29167,-5.29167 -2.9225,0 -5.29164,2.36916 -5.29164,5.29167 z"
           sodipodi:nodetypes="scszs" />
        <path
           id="path116"
           style="opacity:1;fill:#ffffff;fill-opacity:1;stroke:#ffbf00;stroke-width:1.22131;stroke-linecap:round;stroke-linejoin:round;stroke-miterlimit:5.2;stroke-dasharray:none;stroke-opacity:1"
           d="m -173.50732,266.54826 c 0,5.54831 -7.37618,8.09542 -5.29164,15.875 -5.40351,-3.11971 -5.29167,-12.9525 -5.29167,-15.875 0,-2.92251 2.36916,-5.29167 5.29167,-5.29167 2.9225,0 5.29164,2.36916 5.29164,5.29167 z"
           sodipodi:nodetypes="scszs" />
      </g>
      <g
         id="g104"
         style="stroke:#ffbf00;stroke-width:1.22131;stroke-dasharray:none;stroke-opacity:1"
         inkscape:transform-center-x="-25.745169"
         inkscape:transform-center-y="-39.988195"
         transform="rotate(7.2950398,-120.83238,2435.5141)">
        <path
           id="path103"
           style="opacity:1;fill:#ffbf00;fill-opacity:1;stroke:#ffbf00;stroke-width:1.22131;stroke-linecap:round;stroke-linejoin:round;stroke-miterlimit:5.2;stroke-dasharray:none;stroke-opacity:1"
           d="m -141.87339,271.83993 h -73.85144 l 1e-4,-10.58334 h 73.85144 z"
           sodipodi:nodetypes="ccccc" />
        <g
           id="g92"
           transform="rotate(10.448452,-169.19483,209.31887)"
           style="stroke:#ffbf00;stroke-width:1.22131;stroke-dasharray:none;stroke-opacity:1">
          <path
             style="opacity:1;fill:#ffffff;fill-opacity:1;stroke:#ffbf00;stroke-width:1.22131;stroke-linecap:round;stroke-linejoin:round;stroke-miterlimit:5.2;stroke-dasharray:none;stroke-opacity:1"
             d="m -192.6535,152.21465 -0.0917,114.20842 47.03933,-8.62232 0.0614,-76.42295 z"
             id="path58"
             sodipodi:nodetypes="ccccc" />
          <path
             style="opacity:1;fill:none;fill-opacity:1;stroke:#ffbf00;stroke-width:1.22131;stroke-linecap:round;stroke-linejoin:round;stroke-miterlimit:5.2;stroke-dasharray:none;stroke-opacity:1;paint-order:normal"
             d="m -192.7288,248.66556 c 1.12537,4.19992 3.40853,7.75853 5.87118,10.22118 2.46265,-2.46265 4.74581,-6.02126 5.87118,-10.22118 1.12537,4.19992 3.40853,7.75853 5.87118,10.22118 2.46265,-2.46265 4.74581,-6.02126 5.87118,-10.22118 1.12537,4.19992 3.40853,7.75853 5.87118,10.22118 2.46265,-2.46265 4.74581,-6.02126 5.87118,-10.22118 1.12537,4.19992 3.40853,7.75853 5.87118,10.22118 2.46265,-2.46265 4.74581,-6.02126 5.87118,-10.22118"
             id="path81"
             sodipodi:nodetypes="ccccccccc" />
          <path
             style="opacity:1;fill:none;fill-opacity:1;stroke:#ffbf00;stroke-width:1.22131;stroke-linecap:round;stroke-linejoin:round;stroke-miterlimit:5.2;stroke-dasharray:none;stroke-opacity:1;paint-order:normal"
             d="m -192.7288,245.99757 c 2.46265,-2.46265 4.74581,-6.02126 5.87118,-10.22118 1.12537,4.19992 3.40853,7.75853 5.87118,10.22118 2.46265,-2.46265 4.74581,-6.02126 5.87118,-10.22118 1.12537,4.19992 3.40853,7.75853 5.87118,10.22118 2.46265,-2.46265 4.74581,-6.02126 5.87118,-10.22118 1.12537,4.19992 3.40853,7.75853 5.87118,10.22118 2.46265,-2.46265 4.74581,-6.02126 5.87118,-10.22118 1.12537,4.19992 3.40853,7.75853 5.87118,10.22118"
             id="path83"
             sodipodi:nodetypes="ccccccccc" />
          <path
             style="opacity:1;fill:none;fill-opacity:1;stroke:#ffbf00;stroke-width:1.22131;stroke-linecap:round;stroke-linejoin:round;stroke-miterlimit:5.2;stroke-dasharray:none;stroke-opacity:1;paint-order:normal"
             d="m -192.7288,222.88728 c 1.12537,4.19992 3.40853,7.75853 5.87118,10.22118 2.46265,-2.46265 4.74581,-6.02126 5.87118,-10.22118 1.12537,4.19992 3.40853,7.75853 5.87118,10.22118 2.46265,-2.46265 4.74581,-6.02126 5.87118,-10.22118 1.12537,4.19992 3.40853,7.75853 5.87118,10.22118 2.46265,-2.46265 4.74581,-6.02126 5.87118,-10.22118 1.12537,4.19992 3.40853,7.75853 5.87118,10.22118 2.46265,-2.46265 4.74581,-6.02126 5.87118,-10.22118"
             id="path86"
             sodipodi:nodetypes="ccccccccc" />
          <path
             style="opacity:1;fill:none;fill-opacity:1;stroke:#ffbf00;stroke-width:1.22131;stroke-linecap:round;stroke-linejoin:round;stroke-miterlimit:5.2;stroke-dasharray:none;stroke-opacity:1;paint-order:normal"
             d="m -192.7288,220.21929 c 2.46265,-2.46265 4.74581,-6.02126 5.87118,-10.22118 1.12537,4.19992 3.40853,7.75853 5.87118,10.22118 2.46265,-2.46265 4.74581,-6.02126 5.87118,-10.22118 1.12537,4.19992 3.40853,7.75853 5.87118,10.22118 2.46265,-2.46265 4.74581,-6.02126 5.87118,-10.22118 1.12537,4.19992 3.40853,7.75853 5.87118,10.22118 2.46265,-2.46265 4.74581,-6.02126 5.87118,-10.22118 1.12537,4.19992 3.40853,7.75853 5.87118,10.22118"
             id="path88"
             sodipodi:nodetypes="ccccccccc" />
          <path
             style="opacity:1;fill:none;fill-opacity:1;stroke:#ffbf00;stroke-width:1.22131;stroke-linecap:round;stroke-linejoin:round;stroke-miterlimit:5.2;stroke-dasharray:none;stroke-opacity:1;paint-order:normal"
             d="m -192.7288,197.109 c 1.12537,4.19992 3.40853,7.75853 5.87118,10.22118 2.46265,-2.46265 4.74581,-6.02126 5.87118,-10.22118 1.12537,4.19992 3.40853,7.75853 5.87118,10.22118 2.46265,-2.46265 4.74581,-6.02126 5.87118,-10.22118 1.12537,4.19992 3.40853,7.75853 5.87118,10.22118 2.46265,-2.46265 4.74581,-6.02126 5.87118,-10.22118 1.12537,4.19992 3.40853,7.75853 5.87118,10.22118 2.46265,-2.46265 4.74581,-6.02126 5.87118,-10.22118"
             id="path89"
             sodipodi:nodetypes="ccccccccc" />
          <path
             style="opacity:1;fill:none;fill-opacity:1;stroke:#ffbf00;stroke-width:1.22131;stroke-linecap:round;stroke-linejoin:round;stroke-miterlimit:5.2;stroke-dasharray:none;stroke-opacity:1;paint-order:normal"
             d="m -192.7288,194.44101 c 2.46265,-2.46265 4.74581,-6.02126 5.87118,-10.22118 1.12537,4.19992 3.40853,7.75853 5.87118,10.22118 2.46265,-2.46265 4.74581,-6.02126 5.87118,-10.22118 1.12537,4.19992 3.40853,7.75853 5.87118,10.22118 2.46265,-2.46265 4.74581,-6.02126 5.87118,-10.22118 1.12537,4.19992 3.40853,7.75853 5.87118,10.22118 2.46265,-2.46265 4.74581,-6.02126 5.87118,-10.22118 1.12537,4.19992 3.40853,7.75853 5.87118,10.22118"
             id="path91"
             sodipodi:nodetypes="ccccccccc" />
          <path
             style="opacity:1;fill:none;fill-opacity:1;stroke:#ffbf00;stroke-width:1.22131;stroke-linecap:round;stroke-linejoin:round;stroke-miterlimit:5.2;stroke-dasharray:none;stroke-opacity:1;paint-order:normal"
             d="m -192.7288,171.33072 c 1.12537,4.19992 3.40853,7.75853 5.87118,10.22118 2.46265,-2.46265 4.74581,-6.02126 5.87118,-10.22118 1.12537,4.19992 3.40853,7.75853 5.87118,10.22118 2.46265,-2.46265 4.74581,-6.02126 5.87118,-10.22118 1.12537,4.19992 3.40853,7.75853 5.87118,10.22118 2.01352,-2.01352 3.90705,-4.75969 5.14586,-7.99002 m 1.96004,1.22197 c 1.21852,2.70271 2.88194,5.01353 4.63646,6.76805 0.74925,-0.74925 1.48189,-1.59995 2.17036,-2.53929"
             id="path92"
             sodipodi:nodetypes="cccccccccc" />
        </g>
        <path
           id="path101"
           style="opacity:1;fill:#ffffff;fill-opacity:1;stroke:#ffbf00;stroke-width:1.22131;stroke-linecap:round;stroke-linejoin:round;stroke-miterlimit:5.2;stroke-dasharray:none;stroke-opacity:1"
           d="m -210.43309,266.54826 c 0,5.54831 -7.37618,8.09542 -5.29164,15.875 -5.40351,-3.11971 -5.29167,-12.9525 -5.29167,-15.875 0,-2.92251 2.36916,-5.29167 5.29167,-5.29167 2.9225,0 5.29164,2.36916 5.29164,5.29167 z"
           sodipodi:nodetypes="scszs" />
        <path
           id="path102"
           style="opacity:1;fill:#ffffff;fill-opacity:1;stroke:#ffbf00;stroke-width:1.22131;stroke-linecap:round;stroke-linejoin:round;stroke-miterlimit:5.2;stroke-dasharray:none;stroke-opacity:1"
           d="m -147.16493,266.54826 c 0,5.54831 7.37618,8.09542 5.29164,15.875 5.40351,-3.11971 5.29167,-12.9525 5.29167,-15.875 0,-2.92251 -2.36916,-5.29167 -5.29167,-5.29167 -2.9225,0 -5.29164,2.36916 -5.29164,5.29167 z"
           sodipodi:nodetypes="scszs" />
        <path
           id="path104"
           style="opacity:1;fill:#ffffff;fill-opacity:1;stroke:#ffbf00;stroke-width:1.22131;stroke-linecap:round;stroke-linejoin:round;stroke-miterlimit:5.2;stroke-dasharray:none;stroke-opacity:1"
           d="m -173.50732,266.54826 c 0,5.54831 -7.37618,8.09542 -5.29164,15.875 -5.40351,-3.11971 -5.29167,-12.9525 -5.29167,-15.875 0,-2.92251 2.36916,-5.29167 5.29167,-5.29167 2.9225,0 5.29164,2.36916 5.29164,5.29167 z"
           sodipodi:nodetypes="scszs" />
      </g>
      <path
         style="opacity:1;fill:#ffffff;fill-opacity:1;stroke:#ffbf00;stroke-width:1.22131;stroke-linecap:round;stroke-linejoin:round;stroke-miterlimit:5.2;stroke-dasharray:none;stroke-opacity:1"
         d="m 127.02458,97.904057 c -32.094499,0 -33.00691,-17.891955 -64.692182,-35.03312 -8.517236,-4.607672 -27.752441,-9.233204 -37.49107,7.634596 1.09205,-24.65266 22.564265,-31.345366 40.756003,-27.396146 22.540526,4.893294 43.202829,19.746084 58.504749,19.746084 h 57.92868 c 15.30192,0 35.96423,-14.85279 58.50475,-19.746084 18.19174,-3.94922 39.66395,2.743486 40.756,27.396146 -9.73862,-16.8678 -28.97383,-12.242268 -37.49107,-7.634596 -31.68527,17.141165 -32.59768,35.03312 -64.69218,35.03312 z"
         id="path3"
         sodipodi:nodetypes="sscsssscsss" />
      <path
         style="opacity:1;fill:#ffffff;stroke:#ffbf00;stroke-width:1.22131;stroke-linecap:round;stroke-linejoin:round;stroke-miterlimit:5.2;stroke-dasharray:none;stroke-opacity:1"
         d="m 104.22797,-3.4739756 c 0,-3.408096 3.18094,-6.2042976 12.11206,-5.1656101 11.30861,1.3151881 15.59441,19.7132057 15.59441,28.4963137 0,14.778116 -6.77527,38.354399 -15.50656,48.094619 l 15.50656,-4.39719 c 4.04168,-7.580729 5.84984,-14.580073 7.08794,-25.790816 -1.2381,11.210743 -3.04626,18.210087 -7.08794,25.790816 l 2.40681,4.39719 9.69857,-4.39719 c 2.03697,-5.808993 4.64483,-11.515694 4.64483,-23.232729 0,11.717035 -2.60786,17.423736 -4.64483,23.232729 l 9.0266,4.332389 9.0266,-4.332389 c -2.03697,-5.808993 -4.64483,-11.515694 -4.64483,-23.232729 0,11.717035 2.60786,17.423736 4.64483,23.232729 l 9.69858,4.39719 2.4068,-4.39719 c -4.04168,-7.580729 -5.84984,-14.580073 -7.08794,-25.790816 1.2381,11.210743 3.04626,18.210087 7.08794,25.790816 l 15.50656,4.39719 c -8.73129,-9.74022 -15.50656,-33.316503 -15.50656,-48.094619 0,-16.4491253 4.05253,-28.3426613 -7.57705,-35.057 -11.8223,-6.825611 -27.72961,-10.629577 -30.00032,-2.15517 -33.10968,-8.87171 -42.2295,4.045022 -32.39306,13.8814664 z"
         id="path31"
         sodipodi:nodetypes="csscccccccccccccccccsscc" />
      <path
         style="opacity:1;fill:#ffbf00;fill-opacity:1;stroke:#ffbf00;stroke-width:1.22131;stroke-linecap:round;stroke-linejoin:round;stroke-miterlimit:5.2;stroke-dasharray:none;stroke-opacity:1"
         d="m 131.05,-7.857287 c -9.64461,-9.644605 -30.90478,-6.823059 -26.82203,4.3833114 0,-3.408096 3.18094,-6.2042968 12.11206,-5.1656101 4.96969,0.5779733 8.58309,4.4550782 11.0725,9.36544856 z"
         id="path123"
         sodipodi:nodetypes="ccscc" />
      <path
         style="opacity:1;fill:#ffbf00;fill-opacity:1;stroke:#ffbf00;stroke-width:1.22131;stroke-linecap:round;stroke-linejoin:round;stroke-miterlimit:5.2;stroke-dasharray:none;stroke-opacity:1"
         d="m 174.59356,-3.0401315 c -0.67952,-5.0650996 -2.73675,-9.1374455 -7.97221,-12.1601405 -11.8223,-6.825607 -27.72961,-10.629577 -30.00032,-2.15517 -8.11165,-2.173509 -14.78339,-3.039239 -20.08923,-2.962882 16.21027,0 18.69137,9.346741 28.66208,12.2850371 9.53482,2.8098444 25.12785,-6.7737411 29.39968,4.9931554 z"
         id="path124"
         sodipodi:nodetypes="csccsc" />
      <circle
         style="opacity:1;fill:#ffffff;fill-opacity:1;stroke:#ffbf00;stroke-width:1.22131;stroke-linecap:round;stroke-linejoin:round;stroke-miterlimit:5.2;stroke-dasharray:none;stroke-opacity:1;paint-order:normal"
         id="path125"
         cx="147.11989"
         cy="-10.304922"
         r="2.671041" />
      <path
         style="opacity:1;fill:#ffffff;stroke:#ffbf00;stroke-width:1.22131;stroke-linecap:round;stroke-linejoin:round;stroke-miterlimit:5.2;stroke-dasharray:none;stroke-opacity:1"
         d="m 96.025579,88.254484 c 15.326341,0 44.146421,-6.039095 57.040841,-17.837579 12.89442,11.798484 41.7145,17.837579 57.04084,17.837579 0,63.748536 -20.29751,96.639296 -57.04084,119.668486 C 116.32309,184.89378 96.025579,152.00302 96.025579,88.254484 Z"
         id="path18"
         sodipodi:nodetypes="ccccc" />
      <path
         style="opacity:1;fill:#ffbf00;fill-opacity:1;stroke:none;stroke-width:1.22131;stroke-linecap:round;stroke-linejoin:round;stroke-miterlimit:5.2;stroke-dasharray:none;stroke-opacity:1"
         d="M 134.74122,194.31304 C 109.63575,171.96572 96.025579,140.45569 96.025579,88.254484 c 9.913921,0 25.473901,-2.526885 38.717361,-7.504951 z"
         id="path129"
         sodipodi:nodetypes="cccc" />
      <path
         style="opacity:1;fill:#ffbf00;fill-opacity:1;stroke:none;stroke-width:1.22131;stroke-linecap:round;stroke-linejoin:round;stroke-miterlimit:5.2;stroke-dasharray:none;stroke-opacity:1"
         d="m 171.06032,194.31211 c 25.10547,-22.34732 38.71564,-53.85735 38.71564,-106.058555 -9.91392,0 -25.4739,-2.526885 -38.71736,-7.504951 z"
         id="path130"
         sodipodi:nodetypes="cccc" />
      <path
         style="color:#000000;fill:#ffffff;stroke:#ffbf00;stroke-width:1.22131;stroke-linecap:round;stroke-linejoin:round;stroke-miterlimit:5.2;stroke-dasharray:none;stroke-opacity:1;paint-order:normal"
         d="m 212.16762,86.360531 c 0,65.427589 -20.54702,101.634359 -59.1012,123.893619 -38.55418,-22.25926 -59.101198,-58.46603 -59.101198,-123.893619 15.326338,0 46.754748,-6.127532 59.101198,-18.473986 12.34645,12.346454 43.77486,18.473986 59.1012,18.473986 z M 98.085937,90.148437 c 0.7822,60.879263 19.593793,94.206583 54.980473,115.443363 35.38668,-21.23678 54.19827,-54.5641 54.98047,-115.443363 -13.59353,-0.708181 -40.45407,-5.382159 -54.98047,-17.201171 -14.5264,11.819012 -41.38694,16.49299 -54.980473,17.201171 z"
         id="path50"
         sodipodi:nodetypes="cccccccccc" />
    </g>
  </g>
</svg>
