<?xml version="1.0" encoding="UTF-8" standalone="no"?>
<!-- Created with Inkscape (http://www.inkscape.org/) -->

<svg
   width="2736"
   height="1800"
   viewBox="0 0 723.89999 476.25001"
   version="1.1"
   id="svg8"
   inkscape:export-filename="C:\Users\厂永刄先生\Documents\GXI3CW2\JáÈŭcèŭ\Maqkàla\Maqkàla.png"
   inkscape:export-xdpi="96"
   inkscape:export-ydpi="96"
   inkscape:version="1.3 (0e150ed6c4, 2023-07-21)"
   sodipodi:docname="eg_1984.svg"
   xmlns:inkscape="http://www.inkscape.org/namespaces/inkscape"
   xmlns:sodipodi="http://sodipodi.sourceforge.net/DTD/sodipodi-0.dtd"
   xmlns="http://www.w3.org/2000/svg"
   xmlns:svg="http://www.w3.org/2000/svg"
   xmlns:rdf="http://www.w3.org/1999/02/22-rdf-syntax-ns#"
   xmlns:cc="http://creativecommons.org/ns#"
   xmlns:dc="http://purl.org/dc/elements/1.1/">
  <defs
     id="defs2" />
  <sodipodi:namedview
     id="base"
     pagecolor="#ffffff"
     bordercolor="#666666"
     borderopacity="1.0"
     inkscape:pageopacity="0.0"
     inkscape:pageshadow="2"
     inkscape:zoom="1.7096271"
     inkscape:cx="1274.547"
     inkscape:cy="1112.8158"
     inkscape:document-units="px"
     inkscape:current-layer="layer1"
     showgrid="false"
     units="px"
     fit-margin-top="0"
     fit-margin-left="0"
     fit-margin-right="0"
     fit-margin-bottom="0"
     inkscape:showpageshadow="false"
     inkscape:snap-intersection-paths="true"
     inkscape:object-paths="false"
     inkscape:pagecheckerboard="true"
     inkscape:snap-smooth-nodes="false"
     inkscape:window-width="1920"
     inkscape:window-height="1009"
     inkscape:window-x="-8"
     inkscape:window-y="-8"
     inkscape:window-maximized="1"
     inkscape:object-nodes="true"
     inkscape:deskcolor="#505050" />
  <metadata
     id="metadata5">
    <rdf:RDF>
      <cc:Work
         rdf:about="">
        <dc:format>image/svg+xml</dc:format>
        <dc:type
           rdf:resource="http://purl.org/dc/dcmitype/StillImage" />
      </cc:Work>
    </rdf:RDF>
  </metadata>
  <g
     inkscape:label="レイヤー 1"
     inkscape:groupmode="layer"
     id="layer1"
     transform="translate(112.33452,-299.26786)">
    <path
       sodipodi:nodetypes="ccccc"
       inkscape:connector-curvature="0"
       id="path824"
       d="m 611.56548,458.01786 v 158.75 h -714.375 v -158.75 z"
       style="fill:#ffffff;fill-opacity:1;stroke:none;stroke-width:2.02610254px;stroke-linecap:butt;stroke-linejoin:miter;stroke-opacity:1" />
    <path
       style="fill:#ff0000;fill-opacity:1;stroke:none;stroke-width:1.75465631px;stroke-linecap:butt;stroke-linejoin:miter;stroke-opacity:1"
       d="m -102.80952,458.01786 v -158.75 h 714.375 v 158.75 z"
       id="path849"
       inkscape:connector-curvature="0"
       sodipodi:nodetypes="ccccc" />
    <path
       style="fill:#ffffff;fill-opacity:1;stroke:none;stroke-width:0.51166773px;stroke-linecap:butt;stroke-linejoin:miter;stroke-opacity:1"
       d="m -102.80952,299.26786 h -9.525 v 476.25 h 9.525 z"
       id="path819"
       inkscape:connector-curvature="0"
       sodipodi:nodetypes="ccccc" />
    <path
       style="fill:#000000;fill-opacity:1;stroke:none;stroke-width:2.02610254px;stroke-linecap:butt;stroke-linejoin:miter;stroke-opacity:1"
       d="m 611.56548,616.76786 v 158.75 h -714.375 v -158.75 z"
       id="path847"
       inkscape:connector-curvature="0"
       sodipodi:nodetypes="ccccc" />
    <g
       id="g130"
       style="stroke:#ffbf00;stroke-width:1.54944;stroke-dasharray:none;stroke-opacity:1"
       transform="matrix(0.40982454,0,0,0.40982454,191.64776,475.0641)">
      <path
         style="color:#000000;fill:#ffbf00;fill-opacity:1;stroke:none;stroke-width:1.54944;stroke-linecap:round;stroke-linejoin:round;stroke-miterlimit:5.2;stroke-dasharray:none;stroke-opacity:1"
         d="m 53.109155,314.52293 c -4.100817,-1.10596 -6.016423,-4.21284 -6.115427,-9.49262 -7.966082,-3.3403 -3.233491,-10.50149 -7.651211,-12.9428 5.046509,-0.0946 4.20771,-8.63724 12.811544,-7.869 2.554154,-4.62192 5.715279,-6.54179 9.845671,-5.53493 3.253976,0.79322 51.353948,13.1741 91.066498,13.1741 39.71255,0 87.81252,-12.38088 91.0665,-13.1741 4.13039,-1.00686 7.29152,0.91301 9.84567,5.53493 8.60384,-0.76824 7.76504,7.7744 12.81155,7.869 -4.41772,2.44131 0.31487,9.6025 -7.65122,12.9428 -0.099,5.27978 -2.01461,8.38666 -6.11542,9.49262 -3.87462,1.04496 -49.9079,11.87679 -99.95708,11.87679 -50.04918,0 -96.082454,-10.83183 -99.957075,-11.87679 z"
         id="path127" />
      <path
         style="color:#000000;fill:#fefefe;fill-opacity:1;stroke:none;stroke-width:1.54944;stroke-linecap:round;stroke-linejoin:round;stroke-miterlimit:5.2;stroke-dasharray:none;stroke-opacity:1"
         d="m 54.142658,310.69139 c -3.634452,-0.93781 -3.174278,-5.3304 -3.228511,-8.32032 l -2.384765,-1 c -3.365285,-1.25351 -2.702782,-4.94884 -3.412113,-7.85155 2.115296,-2.43417 3.075987,-5.5986 6.68359,-5.34765 l 2.576172,0.23047 c 1.034584,-2.72343 2.947692,-6.83986 6.683516,-5.86328 0.760287,0.19875 50.990973,13.28711 92.005863,13.28711 41.01489,0 91.24557,-13.08836 92.00586,-13.28711 3.73583,-0.97658 5.64893,3.13985 6.68352,5.86328 l 2.57617,-0.23047 c 3.6076,-0.25095 4.56829,2.91348 6.68359,5.34765 -0.70933,2.90271 -0.0468,6.59804 -3.41211,7.85155 l -2.38477,1 c -0.0542,2.98992 0.40594,7.38251 -3.22851,8.32032 -0.23685,0.0639 -47.01614,11.74023 -98.92375,11.74023 -51.90761,0 -98.686898,-11.67635 -98.923752,-11.74023 z"
         id="path128"
         sodipodi:nodetypes="scscscszscscscszs" />
      <path
         style="opacity:1;fill:#ffbf00;fill-opacity:1;stroke:none;stroke-width:1.54944;stroke-linecap:round;stroke-linejoin:round;stroke-miterlimit:5.2;stroke-dasharray:none;stroke-opacity:1"
         d="m 139.43754,202.57361 -13.67403,59.55711 7.24462,10.00205 9.91417,-7.36443 4.84461,-60.91436 1.0859,0.15031 -4.46656,60.94324 8.68016,8.78523 8.68016,-8.78523 -4.46656,-60.94324 1.0859,-0.15031 4.84461,60.91436 9.91417,7.36443 7.24462,-10.00205 -13.67403,-59.55711 z"
         id="path118"
         sodipodi:nodetypes="cccccccccccccccc" />
      <path
         style="opacity:1;fill:#ffbf00;fill-opacity:1;stroke:none;stroke-width:1.54944;stroke-linecap:round;stroke-linejoin:round;stroke-miterlimit:5.2;stroke-dasharray:none;stroke-opacity:1"
         d="m 109.62119,92.74955 -4.21149,95.07297 -16.678165,16.67817 5.37294,-121.292429 -1.51718,1e-6 -5.44326,122.879938 -16.67818,16.67817 6.80367,-153.590368 -1.51718,2e-6 -6.874,155.177876 -16.67818,16.67817 8.07931,-182.387528 -1.51718,10e-7 -8.14963,183.975037 -16.67818,16.67817 9.02441,-203.722946 -1.51718,10e-7 -9.09473,205.310455 -16.67818,16.67817 9.17214,-207.057877 c 0.23426,-5.288494 8.44948,-17.121532 16.60077,-20.222415 35.20651,-13.393121 38.3088,17.603428 111.624315,17.603428 73.31553,0 76.41781,-30.996547 111.62432,-17.603428 8.1513,3.100882 16.36651,14.933921 16.60078,20.222415 l 9.17214,207.057877 -16.67819,-16.67817 -9.09473,-205.310455 -1.51717,-10e-7 9.0244,203.722946 -16.67818,-16.67817 -8.14963,-183.975037 -1.51718,-10e-7 8.07931,182.387528 -16.67818,-16.67817 -6.874,-155.177876 -1.51718,-2e-6 6.80368,153.590368 -16.67819,-16.67817 -5.44326,-122.879938 -1.51718,-1e-6 5.37294,121.292429 -16.67817,-16.67817 -4.21149,-95.07297 z"
         id="path46"
         sodipodi:nodetypes="cccccccccccccccccccsszsscccccccccccccccccccc" />
      <g
         id="g116"
         style="stroke:#ffbf00;stroke-width:1.54944;stroke-dasharray:none;stroke-opacity:1"
         inkscape:transform-center-x="25.745173"
         inkscape:transform-center-y="-39.988195"
         transform="matrix(-0.99190544,0.12697874,0.12697874,0.99190544,-2.2161584,35.079531)">
        <path
           id="path105"
           style="opacity:1;fill:#ffbf00;fill-opacity:1;stroke:#ffbf00;stroke-width:1.54944;stroke-linecap:round;stroke-linejoin:round;stroke-miterlimit:5.2;stroke-dasharray:none;stroke-opacity:1"
           d="m -141.87339,271.83993 h -73.85144 l 1e-4,-10.58334 h 73.85144 z"
           sodipodi:nodetypes="ccccc" />
        <g
           id="g113"
           transform="rotate(10.448452,-169.19483,209.31887)"
           style="stroke:#ffbf00;stroke-width:1.54944;stroke-dasharray:none;stroke-opacity:1">
          <path
             style="opacity:1;fill:#ffffff;fill-opacity:1;stroke:#ffbf00;stroke-width:1.54944;stroke-linecap:round;stroke-linejoin:round;stroke-miterlimit:5.2;stroke-dasharray:none;stroke-opacity:1"
             d="m -192.6535,152.21465 -0.0917,114.20842 47.03933,-8.62232 0.0614,-76.42295 z"
             id="path106"
             sodipodi:nodetypes="ccccc" />
          <path
             style="opacity:1;fill:none;fill-opacity:1;stroke:#ffbf00;stroke-width:1.54944;stroke-linecap:round;stroke-linejoin:round;stroke-miterlimit:5.2;stroke-dasharray:none;stroke-opacity:1;paint-order:normal"
             d="m -192.7288,248.66556 c 1.12537,4.19992 3.40853,7.75853 5.87118,10.22118 2.46265,-2.46265 4.74581,-6.02126 5.87118,-10.22118 1.12537,4.19992 3.40853,7.75853 5.87118,10.22118 2.46265,-2.46265 4.74581,-6.02126 5.87118,-10.22118 1.12537,4.19992 3.40853,7.75853 5.87118,10.22118 2.46265,-2.46265 4.74581,-6.02126 5.87118,-10.22118 1.12537,4.19992 3.40853,7.75853 5.87118,10.22118 2.46265,-2.46265 4.74581,-6.02126 5.87118,-10.22118"
             id="path107"
             sodipodi:nodetypes="ccccccccc" />
          <path
             style="opacity:1;fill:none;fill-opacity:1;stroke:#ffbf00;stroke-width:1.54944;stroke-linecap:round;stroke-linejoin:round;stroke-miterlimit:5.2;stroke-dasharray:none;stroke-opacity:1;paint-order:normal"
             d="m -192.7288,245.99757 c 2.46265,-2.46265 4.74581,-6.02126 5.87118,-10.22118 1.12537,4.19992 3.40853,7.75853 5.87118,10.22118 2.46265,-2.46265 4.74581,-6.02126 5.87118,-10.22118 1.12537,4.19992 3.40853,7.75853 5.87118,10.22118 2.46265,-2.46265 4.74581,-6.02126 5.87118,-10.22118 1.12537,4.19992 3.40853,7.75853 5.87118,10.22118 2.46265,-2.46265 4.74581,-6.02126 5.87118,-10.22118 1.12537,4.19992 3.40853,7.75853 5.87118,10.22118"
             id="path108"
             sodipodi:nodetypes="ccccccccc" />
          <path
             style="opacity:1;fill:none;fill-opacity:1;stroke:#ffbf00;stroke-width:1.54944;stroke-linecap:round;stroke-linejoin:round;stroke-miterlimit:5.2;stroke-dasharray:none;stroke-opacity:1;paint-order:normal"
             d="m -192.7288,222.88728 c 1.12537,4.19992 3.40853,7.75853 5.87118,10.22118 2.46265,-2.46265 4.74581,-6.02126 5.87118,-10.22118 1.12537,4.19992 3.40853,7.75853 5.87118,10.22118 2.46265,-2.46265 4.74581,-6.02126 5.87118,-10.22118 1.12537,4.19992 3.40853,7.75853 5.87118,10.22118 2.46265,-2.46265 4.74581,-6.02126 5.87118,-10.22118 1.12537,4.19992 3.40853,7.75853 5.87118,10.22118 2.46265,-2.46265 4.74581,-6.02126 5.87118,-10.22118"
             id="path109"
             sodipodi:nodetypes="ccccccccc" />
          <path
             style="opacity:1;fill:none;fill-opacity:1;stroke:#ffbf00;stroke-width:1.54944;stroke-linecap:round;stroke-linejoin:round;stroke-miterlimit:5.2;stroke-dasharray:none;stroke-opacity:1;paint-order:normal"
             d="m -192.7288,220.21929 c 2.46265,-2.46265 4.74581,-6.02126 5.87118,-10.22118 1.12537,4.19992 3.40853,7.75853 5.87118,10.22118 2.46265,-2.46265 4.74581,-6.02126 5.87118,-10.22118 1.12537,4.19992 3.40853,7.75853 5.87118,10.22118 2.46265,-2.46265 4.74581,-6.02126 5.87118,-10.22118 1.12537,4.19992 3.40853,7.75853 5.87118,10.22118 2.46265,-2.46265 4.74581,-6.02126 5.87118,-10.22118 1.12537,4.19992 3.40853,7.75853 5.87118,10.22118"
             id="path110"
             sodipodi:nodetypes="ccccccccc" />
          <path
             style="opacity:1;fill:none;fill-opacity:1;stroke:#ffbf00;stroke-width:1.54944;stroke-linecap:round;stroke-linejoin:round;stroke-miterlimit:5.2;stroke-dasharray:none;stroke-opacity:1;paint-order:normal"
             d="m -192.7288,197.109 c 1.12537,4.19992 3.40853,7.75853 5.87118,10.22118 2.46265,-2.46265 4.74581,-6.02126 5.87118,-10.22118 1.12537,4.19992 3.40853,7.75853 5.87118,10.22118 2.46265,-2.46265 4.74581,-6.02126 5.87118,-10.22118 1.12537,4.19992 3.40853,7.75853 5.87118,10.22118 2.46265,-2.46265 4.74581,-6.02126 5.87118,-10.22118 1.12537,4.19992 3.40853,7.75853 5.87118,10.22118 2.46265,-2.46265 4.74581,-6.02126 5.87118,-10.22118"
             id="path111"
             sodipodi:nodetypes="ccccccccc" />
          <path
             style="opacity:1;fill:none;fill-opacity:1;stroke:#ffbf00;stroke-width:1.54944;stroke-linecap:round;stroke-linejoin:round;stroke-miterlimit:5.2;stroke-dasharray:none;stroke-opacity:1;paint-order:normal"
             d="m -192.7288,194.44101 c 2.46265,-2.46265 4.74581,-6.02126 5.87118,-10.22118 1.12537,4.19992 3.40853,7.75853 5.87118,10.22118 2.46265,-2.46265 4.74581,-6.02126 5.87118,-10.22118 1.12537,4.19992 3.40853,7.75853 5.87118,10.22118 2.46265,-2.46265 4.74581,-6.02126 5.87118,-10.22118 1.12537,4.19992 3.40853,7.75853 5.87118,10.22118 2.46265,-2.46265 4.74581,-6.02126 5.87118,-10.22118 1.12537,4.19992 3.40853,7.75853 5.87118,10.22118"
             id="path112"
             sodipodi:nodetypes="ccccccccc" />
          <path
             style="opacity:1;fill:none;fill-opacity:1;stroke:#ffbf00;stroke-width:1.54944;stroke-linecap:round;stroke-linejoin:round;stroke-miterlimit:5.2;stroke-dasharray:none;stroke-opacity:1;paint-order:normal"
             d="m -192.7288,171.33072 c 1.12537,4.19992 3.40853,7.75853 5.87118,10.22118 2.46265,-2.46265 4.74581,-6.02126 5.87118,-10.22118 1.12537,4.19992 3.40853,7.75853 5.87118,10.22118 2.46265,-2.46265 4.74581,-6.02126 5.87118,-10.22118 1.12537,4.19992 3.40853,7.75853 5.87118,10.22118 2.01352,-2.01352 3.90705,-4.75969 5.14586,-7.99002 m 1.96004,1.22197 c 1.21852,2.70271 2.88194,5.01353 4.63646,6.76805 0.74925,-0.74925 1.48189,-1.59995 2.17036,-2.53929"
             id="path113"
             sodipodi:nodetypes="cccccccccc" />
        </g>
        <path
           id="path114"
           style="opacity:1;fill:#ffffff;fill-opacity:1;stroke:#ffbf00;stroke-width:1.54944;stroke-linecap:round;stroke-linejoin:round;stroke-miterlimit:5.2;stroke-dasharray:none;stroke-opacity:1"
           d="m -210.43309,266.54826 c 0,5.54831 -7.37618,8.09542 -5.29164,15.875 -5.40351,-3.11971 -5.29167,-12.9525 -5.29167,-15.875 0,-2.92251 2.36916,-5.29167 5.29167,-5.29167 2.9225,0 5.29164,2.36916 5.29164,5.29167 z"
           sodipodi:nodetypes="scszs" />
        <path
           id="path115"
           style="opacity:1;fill:#ffffff;fill-opacity:1;stroke:#ffbf00;stroke-width:1.54944;stroke-linecap:round;stroke-linejoin:round;stroke-miterlimit:5.2;stroke-dasharray:none;stroke-opacity:1"
           d="m -147.16493,266.54826 c 0,5.54831 7.37618,8.09542 5.29164,15.875 5.40351,-3.11971 5.29167,-12.9525 5.29167,-15.875 0,-2.92251 -2.36916,-5.29167 -5.29167,-5.29167 -2.9225,0 -5.29164,2.36916 -5.29164,5.29167 z"
           sodipodi:nodetypes="scszs" />
        <path
           id="path116"
           style="opacity:1;fill:#ffffff;fill-opacity:1;stroke:#ffbf00;stroke-width:1.54944;stroke-linecap:round;stroke-linejoin:round;stroke-miterlimit:5.2;stroke-dasharray:none;stroke-opacity:1"
           d="m -173.50732,266.54826 c 0,5.54831 -7.37618,8.09542 -5.29164,15.875 -5.40351,-3.11971 -5.29167,-12.9525 -5.29167,-15.875 0,-2.92251 2.36916,-5.29167 5.29167,-5.29167 2.9225,0 5.29164,2.36916 5.29164,5.29167 z"
           sodipodi:nodetypes="scszs" />
      </g>
      <g
         id="g104"
         style="stroke:#ffbf00;stroke-width:1.54944;stroke-dasharray:none;stroke-opacity:1"
         inkscape:transform-center-x="-25.745169"
         inkscape:transform-center-y="-39.988195"
         transform="rotate(7.2950398,-120.83238,2435.5141)">
        <path
           id="path103"
           style="opacity:1;fill:#ffbf00;fill-opacity:1;stroke:#ffbf00;stroke-width:1.54944;stroke-linecap:round;stroke-linejoin:round;stroke-miterlimit:5.2;stroke-dasharray:none;stroke-opacity:1"
           d="m -141.87339,271.83993 h -73.85144 l 1e-4,-10.58334 h 73.85144 z"
           sodipodi:nodetypes="ccccc" />
        <g
           id="g92"
           transform="rotate(10.448452,-169.19483,209.31887)"
           style="stroke:#ffbf00;stroke-width:1.54944;stroke-dasharray:none;stroke-opacity:1">
          <path
             style="opacity:1;fill:#ffffff;fill-opacity:1;stroke:#ffbf00;stroke-width:1.54944;stroke-linecap:round;stroke-linejoin:round;stroke-miterlimit:5.2;stroke-dasharray:none;stroke-opacity:1"
             d="m -192.6535,152.21465 -0.0917,114.20842 47.03933,-8.62232 0.0614,-76.42295 z"
             id="path58"
             sodipodi:nodetypes="ccccc" />
          <path
             style="opacity:1;fill:none;fill-opacity:1;stroke:#ffbf00;stroke-width:1.54944;stroke-linecap:round;stroke-linejoin:round;stroke-miterlimit:5.2;stroke-dasharray:none;stroke-opacity:1;paint-order:normal"
             d="m -192.7288,248.66556 c 1.12537,4.19992 3.40853,7.75853 5.87118,10.22118 2.46265,-2.46265 4.74581,-6.02126 5.87118,-10.22118 1.12537,4.19992 3.40853,7.75853 5.87118,10.22118 2.46265,-2.46265 4.74581,-6.02126 5.87118,-10.22118 1.12537,4.19992 3.40853,7.75853 5.87118,10.22118 2.46265,-2.46265 4.74581,-6.02126 5.87118,-10.22118 1.12537,4.19992 3.40853,7.75853 5.87118,10.22118 2.46265,-2.46265 4.74581,-6.02126 5.87118,-10.22118"
             id="path81"
             sodipodi:nodetypes="ccccccccc" />
          <path
             style="opacity:1;fill:none;fill-opacity:1;stroke:#ffbf00;stroke-width:1.54944;stroke-linecap:round;stroke-linejoin:round;stroke-miterlimit:5.2;stroke-dasharray:none;stroke-opacity:1;paint-order:normal"
             d="m -192.7288,245.99757 c 2.46265,-2.46265 4.74581,-6.02126 5.87118,-10.22118 1.12537,4.19992 3.40853,7.75853 5.87118,10.22118 2.46265,-2.46265 4.74581,-6.02126 5.87118,-10.22118 1.12537,4.19992 3.40853,7.75853 5.87118,10.22118 2.46265,-2.46265 4.74581,-6.02126 5.87118,-10.22118 1.12537,4.19992 3.40853,7.75853 5.87118,10.22118 2.46265,-2.46265 4.74581,-6.02126 5.87118,-10.22118 1.12537,4.19992 3.40853,7.75853 5.87118,10.22118"
             id="path83"
             sodipodi:nodetypes="ccccccccc" />
          <path
             style="opacity:1;fill:none;fill-opacity:1;stroke:#ffbf00;stroke-width:1.54944;stroke-linecap:round;stroke-linejoin:round;stroke-miterlimit:5.2;stroke-dasharray:none;stroke-opacity:1;paint-order:normal"
             d="m -192.7288,222.88728 c 1.12537,4.19992 3.40853,7.75853 5.87118,10.22118 2.46265,-2.46265 4.74581,-6.02126 5.87118,-10.22118 1.12537,4.19992 3.40853,7.75853 5.87118,10.22118 2.46265,-2.46265 4.74581,-6.02126 5.87118,-10.22118 1.12537,4.19992 3.40853,7.75853 5.87118,10.22118 2.46265,-2.46265 4.74581,-6.02126 5.87118,-10.22118 1.12537,4.19992 3.40853,7.75853 5.87118,10.22118 2.46265,-2.46265 4.74581,-6.02126 5.87118,-10.22118"
             id="path86"
             sodipodi:nodetypes="ccccccccc" />
          <path
             style="opacity:1;fill:none;fill-opacity:1;stroke:#ffbf00;stroke-width:1.54944;stroke-linecap:round;stroke-linejoin:round;stroke-miterlimit:5.2;stroke-dasharray:none;stroke-opacity:1;paint-order:normal"
             d="m -192.7288,220.21929 c 2.46265,-2.46265 4.74581,-6.02126 5.87118,-10.22118 1.12537,4.19992 3.40853,7.75853 5.87118,10.22118 2.46265,-2.46265 4.74581,-6.02126 5.87118,-10.22118 1.12537,4.19992 3.40853,7.75853 5.87118,10.22118 2.46265,-2.46265 4.74581,-6.02126 5.87118,-10.22118 1.12537,4.19992 3.40853,7.75853 5.87118,10.22118 2.46265,-2.46265 4.74581,-6.02126 5.87118,-10.22118 1.12537,4.19992 3.40853,7.75853 5.87118,10.22118"
             id="path88"
             sodipodi:nodetypes="ccccccccc" />
          <path
             style="opacity:1;fill:none;fill-opacity:1;stroke:#ffbf00;stroke-width:1.54944;stroke-linecap:round;stroke-linejoin:round;stroke-miterlimit:5.2;stroke-dasharray:none;stroke-opacity:1;paint-order:normal"
             d="m -192.7288,197.109 c 1.12537,4.19992 3.40853,7.75853 5.87118,10.22118 2.46265,-2.46265 4.74581,-6.02126 5.87118,-10.22118 1.12537,4.19992 3.40853,7.75853 5.87118,10.22118 2.46265,-2.46265 4.74581,-6.02126 5.87118,-10.22118 1.12537,4.19992 3.40853,7.75853 5.87118,10.22118 2.46265,-2.46265 4.74581,-6.02126 5.87118,-10.22118 1.12537,4.19992 3.40853,7.75853 5.87118,10.22118 2.46265,-2.46265 4.74581,-6.02126 5.87118,-10.22118"
             id="path89"
             sodipodi:nodetypes="ccccccccc" />
          <path
             style="opacity:1;fill:none;fill-opacity:1;stroke:#ffbf00;stroke-width:1.54944;stroke-linecap:round;stroke-linejoin:round;stroke-miterlimit:5.2;stroke-dasharray:none;stroke-opacity:1;paint-order:normal"
             d="m -192.7288,194.44101 c 2.46265,-2.46265 4.74581,-6.02126 5.87118,-10.22118 1.12537,4.19992 3.40853,7.75853 5.87118,10.22118 2.46265,-2.46265 4.74581,-6.02126 5.87118,-10.22118 1.12537,4.19992 3.40853,7.75853 5.87118,10.22118 2.46265,-2.46265 4.74581,-6.02126 5.87118,-10.22118 1.12537,4.19992 3.40853,7.75853 5.87118,10.22118 2.46265,-2.46265 4.74581,-6.02126 5.87118,-10.22118 1.12537,4.19992 3.40853,7.75853 5.87118,10.22118"
             id="path91"
             sodipodi:nodetypes="ccccccccc" />
          <path
             style="opacity:1;fill:none;fill-opacity:1;stroke:#ffbf00;stroke-width:1.54944;stroke-linecap:round;stroke-linejoin:round;stroke-miterlimit:5.2;stroke-dasharray:none;stroke-opacity:1;paint-order:normal"
             d="m -192.7288,171.33072 c 1.12537,4.19992 3.40853,7.75853 5.87118,10.22118 2.46265,-2.46265 4.74581,-6.02126 5.87118,-10.22118 1.12537,4.19992 3.40853,7.75853 5.87118,10.22118 2.46265,-2.46265 4.74581,-6.02126 5.87118,-10.22118 1.12537,4.19992 3.40853,7.75853 5.87118,10.22118 2.01352,-2.01352 3.90705,-4.75969 5.14586,-7.99002 m 1.96004,1.22197 c 1.21852,2.70271 2.88194,5.01353 4.63646,6.76805 0.74925,-0.74925 1.48189,-1.59995 2.17036,-2.53929"
             id="path92"
             sodipodi:nodetypes="cccccccccc" />
        </g>
        <path
           id="path101"
           style="opacity:1;fill:#ffffff;fill-opacity:1;stroke:#ffbf00;stroke-width:1.54944;stroke-linecap:round;stroke-linejoin:round;stroke-miterlimit:5.2;stroke-dasharray:none;stroke-opacity:1"
           d="m -210.43309,266.54826 c 0,5.54831 -7.37618,8.09542 -5.29164,15.875 -5.40351,-3.11971 -5.29167,-12.9525 -5.29167,-15.875 0,-2.92251 2.36916,-5.29167 5.29167,-5.29167 2.9225,0 5.29164,2.36916 5.29164,5.29167 z"
           sodipodi:nodetypes="scszs" />
        <path
           id="path102"
           style="opacity:1;fill:#ffffff;fill-opacity:1;stroke:#ffbf00;stroke-width:1.54944;stroke-linecap:round;stroke-linejoin:round;stroke-miterlimit:5.2;stroke-dasharray:none;stroke-opacity:1"
           d="m -147.16493,266.54826 c 0,5.54831 7.37618,8.09542 5.29164,15.875 5.40351,-3.11971 5.29167,-12.9525 5.29167,-15.875 0,-2.92251 -2.36916,-5.29167 -5.29167,-5.29167 -2.9225,0 -5.29164,2.36916 -5.29164,5.29167 z"
           sodipodi:nodetypes="scszs" />
        <path
           id="path104"
           style="opacity:1;fill:#ffffff;fill-opacity:1;stroke:#ffbf00;stroke-width:1.54944;stroke-linecap:round;stroke-linejoin:round;stroke-miterlimit:5.2;stroke-dasharray:none;stroke-opacity:1"
           d="m -173.50732,266.54826 c 0,5.54831 -7.37618,8.09542 -5.29164,15.875 -5.40351,-3.11971 -5.29167,-12.9525 -5.29167,-15.875 0,-2.92251 2.36916,-5.29167 5.29167,-5.29167 2.9225,0 5.29164,2.36916 5.29164,5.29167 z"
           sodipodi:nodetypes="scszs" />
      </g>
      <path
         style="opacity:1;fill:#ffffff;fill-opacity:1;stroke:#ffbf00;stroke-width:1.54944;stroke-linecap:round;stroke-linejoin:round;stroke-miterlimit:5.2;stroke-dasharray:none;stroke-opacity:1"
         d="m 127.02458,97.904057 c -32.094499,0 -33.00691,-17.891955 -64.692182,-35.03312 -8.517236,-4.607672 -27.752441,-9.233204 -37.49107,7.634596 1.09205,-24.65266 22.564265,-31.345366 40.756003,-27.396146 22.540526,4.893294 43.202829,19.746084 58.504749,19.746084 h 57.92868 c 15.30192,0 35.96423,-14.85279 58.50475,-19.746084 18.19174,-3.94922 39.66395,2.743486 40.756,27.396146 -9.73862,-16.8678 -28.97383,-12.242268 -37.49107,-7.634596 -31.68527,17.141165 -32.59768,35.03312 -64.69218,35.03312 z"
         id="path3"
         sodipodi:nodetypes="sscsssscsss" />
      <path
         style="opacity:1;fill:#ffffff;stroke:#ffbf00;stroke-width:1.54944;stroke-linecap:round;stroke-linejoin:round;stroke-miterlimit:5.2;stroke-dasharray:none;stroke-opacity:1"
         d="m 104.22797,-3.4739756 c 0,-3.408096 3.18094,-6.2042976 12.11206,-5.1656101 11.30861,1.3151881 15.59441,19.7132057 15.59441,28.4963137 0,14.778116 -6.77527,38.354399 -15.50656,48.094619 l 15.50656,-4.39719 c 4.04168,-7.580729 5.84984,-14.580073 7.08794,-25.790816 -1.2381,11.210743 -3.04626,18.210087 -7.08794,25.790816 l 2.40681,4.39719 9.69857,-4.39719 c 2.03697,-5.808993 4.64483,-11.515694 4.64483,-23.232729 0,11.717035 -2.60786,17.423736 -4.64483,23.232729 l 9.0266,4.332389 9.0266,-4.332389 c -2.03697,-5.808993 -4.64483,-11.515694 -4.64483,-23.232729 0,11.717035 2.60786,17.423736 4.64483,23.232729 l 9.69858,4.39719 2.4068,-4.39719 c -4.04168,-7.580729 -5.84984,-14.580073 -7.08794,-25.790816 1.2381,11.210743 3.04626,18.210087 7.08794,25.790816 l 15.50656,4.39719 c -8.73129,-9.74022 -15.50656,-33.316503 -15.50656,-48.094619 0,-16.4491253 4.05253,-28.3426613 -7.57705,-35.057 -11.8223,-6.825611 -27.72961,-10.629577 -30.00032,-2.15517 -33.10968,-8.87171 -42.2295,4.045022 -32.39306,13.8814664 z"
         id="path31"
         sodipodi:nodetypes="csscccccccccccccccccsscc" />
      <path
         style="opacity:1;fill:#ffbf00;fill-opacity:1;stroke:#ffbf00;stroke-width:1.54944;stroke-linecap:round;stroke-linejoin:round;stroke-miterlimit:5.2;stroke-dasharray:none;stroke-opacity:1"
         d="m 131.05,-7.857287 c -9.64461,-9.644605 -30.90478,-6.823059 -26.82203,4.3833114 0,-3.408096 3.18094,-6.2042968 12.11206,-5.1656101 4.96969,0.5779733 8.58309,4.4550782 11.0725,9.36544856 z"
         id="path123"
         sodipodi:nodetypes="ccscc" />
      <path
         style="opacity:1;fill:#ffbf00;fill-opacity:1;stroke:#ffbf00;stroke-width:1.54944;stroke-linecap:round;stroke-linejoin:round;stroke-miterlimit:5.2;stroke-dasharray:none;stroke-opacity:1"
         d="m 174.59356,-3.0401315 c -0.67952,-5.0650996 -2.73675,-9.1374455 -7.97221,-12.1601405 -11.8223,-6.825607 -27.72961,-10.629577 -30.00032,-2.15517 -8.11165,-2.173509 -14.78339,-3.039239 -20.08923,-2.962882 16.21027,0 18.69137,9.346741 28.66208,12.2850371 9.53482,2.8098444 25.12785,-6.7737411 29.39968,4.9931554 z"
         id="path124"
         sodipodi:nodetypes="csccsc" />
      <circle
         style="opacity:1;fill:#ffffff;fill-opacity:1;stroke:#ffbf00;stroke-width:1.54944;stroke-linecap:round;stroke-linejoin:round;stroke-miterlimit:5.2;stroke-dasharray:none;stroke-opacity:1;paint-order:normal"
         id="path125"
         cx="147.11989"
         cy="-10.304922"
         r="2.671041" />
      <path
         style="opacity:1;fill:#ffffff;stroke:#ffbf00;stroke-width:1.54944;stroke-linecap:round;stroke-linejoin:round;stroke-miterlimit:5.2;stroke-dasharray:none;stroke-opacity:1"
         d="m 96.025579,88.254484 c 15.326341,0 44.146421,-6.039095 57.040841,-17.837579 12.89442,11.798484 41.7145,17.837579 57.04084,17.837579 0,63.748536 -20.29751,96.639296 -57.04084,119.668486 C 116.32309,184.89378 96.025579,152.00302 96.025579,88.254484 Z"
         id="path18"
         sodipodi:nodetypes="ccccc" />
      <path
         style="opacity:1;fill:#ffbf00;fill-opacity:1;stroke:none;stroke-width:1.54944;stroke-linecap:round;stroke-linejoin:round;stroke-miterlimit:5.2;stroke-dasharray:none;stroke-opacity:1"
         d="M 134.74122,194.31304 C 109.63575,171.96572 96.025579,140.45569 96.025579,88.254484 c 9.913921,0 25.473901,-2.526885 38.717361,-7.504951 z"
         id="path129"
         sodipodi:nodetypes="cccc" />
      <path
         style="opacity:1;fill:#ffbf00;fill-opacity:1;stroke:none;stroke-width:1.54944;stroke-linecap:round;stroke-linejoin:round;stroke-miterlimit:5.2;stroke-dasharray:none;stroke-opacity:1"
         d="m 171.06032,194.31211 c 25.10547,-22.34732 38.71564,-53.85735 38.71564,-106.058555 -9.91392,0 -25.4739,-2.526885 -38.71736,-7.504951 z"
         id="path130"
         sodipodi:nodetypes="cccc" />
      <path
         style="color:#000000;fill:#ffffff;stroke:#ffbf00;stroke-width:1.54944;stroke-linecap:round;stroke-linejoin:round;stroke-miterlimit:5.2;stroke-dasharray:none;stroke-opacity:1;paint-order:normal"
         d="m 212.16762,86.360531 c 0,65.427589 -20.54702,101.634359 -59.1012,123.893619 -38.55418,-22.25926 -59.101198,-58.46603 -59.101198,-123.893619 15.326338,0 46.754748,-6.127532 59.101198,-18.473986 12.34645,12.346454 43.77486,18.473986 59.1012,18.473986 z M 98.085937,90.148437 c 0.7822,60.879263 19.593793,94.206583 54.980473,115.443363 35.38668,-21.23678 54.19827,-54.5641 54.98047,-115.443363 -13.59353,-0.708181 -40.45407,-5.382159 -54.98047,-17.201171 -14.5264,11.819012 -41.38694,16.49299 -54.980473,17.201171 z"
         id="path50"
         sodipodi:nodetypes="cccccccccc" />
      <path
         id="text4"
         style="font-size:27.5457px;line-height:1;font-family:Andalus;-inkscape-font-specification:Andalus;text-align:center;letter-spacing:0.968402px;word-spacing:0px;text-orientation:sideways;text-anchor:middle;fill:#ffbf00;fill-opacity:1;stroke:none;stroke-width:0.645602;stroke-linecap:square;stroke-linejoin:round;stroke-miterlimit:3.9;paint-order:fill markers stroke"
         d="m 64.545341,290.0409 c -1.207221,0.60735 -1.833972,1.0167 -1.880062,1.2269 -0.05762,0.26276 0.09051,0.51385 0.440068,0.75782 0.494349,0.34502 0.857104,0.7791 1.091975,1.29877 0.611018,-0.60957 0.940557,-1.02307 0.988577,-1.24203 0.05762,-0.26276 -0.0498,-0.58196 -0.312713,-0.96336 -0.266392,-0.38645 -0.372635,-0.74827 -0.327845,-1.0781 z m 3.035084,0.66578 c -1.207214,0.60734 -1.833962,1.01668 -1.880062,1.22689 -0.05762,0.26276 0.09051,0.51261 0.440068,0.75657 0.494346,0.34501 0.857104,0.78036 1.091974,1.30003 0.611019,-0.60957 0.940558,-1.02306 0.988578,-1.24203 0.05762,-0.26275 -0.0498,-0.58195 -0.312714,-0.96336 -0.266387,-0.38644 -0.372634,-0.74827 -0.327844,-1.0781 z m -2.326435,2.94681 -2.154947,1.28995 0.45646,1.68335 -2.661845,1.71614 c -0.564865,0.36418 -0.918379,0.85855 -1.056668,1.48917 -0.07298,0.33283 -0.07325,0.70657 0.01639,1.11846 0.0887,0.40759 0.122893,0.6974 0.08448,0.87257 -0.03649,0.16641 -0.283116,0.43402 -0.740172,0.80196 0,0 6.589369,1.46068 9.894599,2.14107 0.307048,0.0632 0.335919,0.0651 0.923009,0.18032 0.404746,0.0794 0.823969,0.50456 1.27355,1.26472 0.449204,0.75953 0.68269,1.40833 0.68469,1.95698 l 2.424789,-1.52574 c 0.41872,-0.26347 0.7211,-0.48394 0.910399,-0.65695 0,0 1.397097,0.27275 2.096944,0.40224 0.308562,0.0571 0.617877,0.11003 0.926791,0.16519 0.406051,0.0725 0.832396,0.4897 1.294986,1.24202 0.462214,0.7517 0.706075,1.3971 0.717475,1.94563 l 2.398308,-1.56609 c 0.483361,-0.31563 0.79913,-0.55384 0.946967,-0.71873 0.238935,-0.26704 0.397865,-0.62161 0.476635,-1.06297 0.06774,-0.37957 -0.01945,-0.98257 -0.263537,-1.80945 -0.187358,-0.6347 -0.375023,-1.26932 -0.562379,-1.90402 -0.244084,-0.82688 -0.3379,-1.39963 -0.28119,-1.7174 0.05199,-0.2913 0.174981,-0.62476 0.369456,-0.99993 -0.640236,0.42313 -1.296217,0.83006 -1.922934,1.28364 -0.535066,0.38725 -0.826909,0.88136 -0.923009,1.41982 -0.05514,0.30895 0.06217,0.9571 0.349281,1.94689 l 0.371977,1.28237 c 0.186565,0.64317 0.263523,1.05413 0.232013,1.23068 -0.03781,0.21185 -0.149427,0.40128 -0.334149,0.56869 -0.511726,-0.75624 -0.877703,-1.30866 -1.11341,-1.64679 -0.656301,-0.94148 -1.142391,-1.43315 -1.442516,-1.48665 -0.679774,-0.12118 -0.591274,-0.1042 -0.886441,-0.15888 -0.635789,-0.11777 -1.905281,-0.36441 -1.905281,-0.36441 -0.03413,-0.19859 -0.11302,-0.52011 -0.235796,-0.96462 l -0.528334,-1.91285 c -0.229536,-0.83104 -0.314358,-1.40568 -0.252188,-1.72244 0.05699,-0.29036 0.186214,-0.62059 0.387109,-0.99236 -0.647415,0.41206 -1.30995,0.80559 -1.944371,1.24833 -0.541645,0.378 -0.841624,0.86796 -0.946966,1.40469 -0.06044,0.30796 0.04473,0.95874 0.315235,1.95319 l 0.350542,1.28868 c 0.175779,0.64621 0.243856,1.05722 0.209316,1.2332 -0.04145,0.21117 -0.155404,0.39943 -0.342976,0.56364 -0.498652,-0.76492 -0.854544,-1.32358 -1.084409,-1.6657 -0.640017,-0.95258 -1.118172,-1.45299 -1.417297,-1.51187 0,0 -0.589483,-0.11497 -0.883919,-0.174 -0.634701,-0.12724 -1.902759,-0.38837 -1.902759,-0.38837 l -1.026406,-3.85974 c -0.352473,-1.32545 -0.488555,-2.16783 -0.409805,-2.52693 0.101797,-0.46421 0.308612,-0.94678 0.620382,-1.44756 l -1.07306,0.68722 z m 34.9104,16.44267 c 0.39101,0.0526 0.92975,-0.18684 1.61652,-0.71874 0.36359,-0.28159 1.09072,-0.84483 1.09072,-0.84483 l 0.39341,1.11215 c 0.21532,0.6087 0.62717,0.95627 1.23194,1.03397 0.53174,0.0683 3.11748,0.41095 4.67809,0.60147 1.24612,0.15213 3.74121,0.4325 3.74121,0.4325 0.65024,0.0752 1.2167,-0.1069 1.70101,-0.54724 -0.63061,-0.24457 -1.01752,-0.52869 -1.16007,-0.8524 -0.1004,-0.228 -0.11384,-0.65384 -0.0416,-1.27733 l 1.63922,-14.14902 c -1.53553,1.41077 -2.60593,2.0814 -3.21161,2.0112 0.81375,1.93574 1.18849,3.18385 1.12349,3.745 0,0 -0.6262,5.40692 -0.9394,8.11037 -0.0217,0.18705 -0.13,0.35721 -0.31775,0.51824 -0.18312,0.15706 -0.35659,0.22892 -0.52582,0.20932 -0.59221,-0.0686 -1.18483,-0.1337 -1.77666,-0.20553 -1.24121,-0.15065 -3.72104,-0.47286 -3.72104,-0.47286 -0.41807,-0.0531 -0.69741,-0.30109 -0.83726,-0.73639 l -0.26858,-0.836 c 0,0 1.593,-1.20601 2.38822,-1.81071 0.42371,-0.3222 0.90987,-0.64083 1.26977,-0.9684 0.43303,-0.39413 0.68047,-0.81409 0.74017,-1.25842 l 0.17527,-1.30634 c -0.3708,0.40252 -0.6979,0.58555 -0.98227,0.54725 0,0 -2.77321,-0.37335 -4.15984,-0.55985 -0.71093,-0.0956 -1.26172,0.007 -1.65562,0.3064 l -3.052736,2.31761 c 0,0 0.692667,0.0934 1.039016,0.13997 0.49765,0.0669 0.84814,0.18655 1.05162,0.3581 0.24345,0.20524 0.48459,0.63472 0.72126,1.29121 l 0.39594,1.09828 -0.45268,0.33288 c -0.45982,0.33813 -0.85151,0.48317 -1.17142,0.44007 0,0 -1.761549,-0.22268 -2.640404,-0.34801 -0.562421,-0.0802 -1.684617,-0.2585 -1.684617,-0.2585 0.01724,-0.0518 0.03591,-0.13954 0.05548,-0.26354 0.07409,-0.46943 -0.04947,-1.21011 -0.370717,-2.22303 -0.200084,-0.63089 -0.400126,-1.26179 -0.600207,-1.89268 -0.26063,-0.82181 -0.365566,-1.39224 -0.315236,-1.71109 0.04613,-0.29229 0.162376,-0.62724 0.349281,-1.00623 -0.631614,0.43589 -1.278968,0.85413 -1.896454,1.3202 -0.527187,0.39791 -0.808737,0.89846 -0.894007,1.43873 -0.04893,0.30999 0.07939,0.95702 0.387108,1.94059 0.132935,0.4249 0.26559,0.84989 0.398458,1.27481 0.295601,0.94535 0.436395,1.46236 0.422415,1.55096 -0.0685,0.43399 -0.501443,0.93297 -1.298769,1.49674 l -4.597389,3.2507 c -0.911211,0.6443 -1.737522,1.08662 -2.499184,1.25211 -0.376878,0.0819 -0.67311,0.0987 -0.876353,0.12105 0.225161,0.12631 0.491961,0.21338 0.801958,0.26228 1.266558,0.19991 2.370222,-0.0343 3.311229,-0.70234 l 6.07269,-4.31116 c 0,0 1.982979,0.31935 2.97708,0.4615 0.723875,0.10352 1.450497,0.18752 2.175128,0.28498 z m 21.28215,-14.53108 c -1.43049,1.44512 -2.48918,2.13428 -3.17631,2.06668 0.84726,1.92132 1.24311,3.16263 1.18781,3.72482 -0.12757,1.29695 -0.54884,5.58598 -0.8234,8.37895 -0.0983,0.99945 0.10039,1.71511 0.60021,2.14108 0.45623,0.38882 1.3104,0.64257 2.55971,0.76539 1.13331,0.11141 1.79614,0.059 1.9885,-0.15636 -0.58839,-0.24705 -1.05709,-0.40981 -1.37821,-0.55481 -0.8532,-0.38527 -1.42544,-0.83376 -1.75144,-1.27986 -0.40466,-0.55375 -0.56171,-1.3073 -0.46781,-2.26213 0.42037,-4.27458 1.26094,-12.82376 1.26094,-12.82376 z m 116.85891,0.66956 c -0.26293,0.0568 -0.61446,0.42622 -1.05414,1.10837 l -1.87502,2.90899 c 0.34395,-0.27617 0.69991,-0.45378 1.06801,-0.53338 0.56968,-0.12313 1.26443,0.14018 2.0049,0.87383 l 1.50556,1.49169 c 0,0 -3.27184,0.73644 -4.9164,1.06298 -0.62719,0.12453 -1.88763,0.34171 -1.88763,0.34171 l -2.63663,-3.39067 c -0.72374,-0.93072 -1.11762,-1.57299 -1.18402,-1.92545 -0.0883,-0.46703 -0.0871,-0.99208 0.004,-1.57492 l -3.92152,5.77511 c -0.31343,0.46158 -0.42846,0.92506 -0.34046,1.39208 0.0398,0.21148 0.16999,0.42023 0.34424,0.66073 l 0.33163,0.45772 c 0,0 -0.7868,0.17341 -1.18277,0.24714 -0.57321,0.10673 -1.72622,0.28245 -1.72622,0.28245 l -2.92034,-4.00474 c -0.70408,-0.96552 -1.08333,-1.61571 -1.13863,-1.95194 -0.077,-0.46895 -0.0629,-0.99435 0.0416,-1.57491 l -3.61638,5.03745 -0.38458,0.063 c -0.20373,0.0334 -0.33019,0.0682 -0.38333,0.0769 -0.69011,0.11362 -1.27181,0.46832 -1.7464,1.06423 -0.47454,0.59591 -0.6545,1.24284 -0.53968,1.94185 0.0712,0.43355 0.29816,0.76445 0.6809,0.99236 0,0 -0.83066,0.14155 -1.24707,0.20553 -0.55937,0.086 -1.68083,0.23958 -1.68083,0.23958 0.001,-0.0545 -0.007,-0.14299 -0.024,-0.26732 -0.0655,-0.47069 -0.39978,-1.14391 -1.00118,-2.02002 l -1.1235,-1.6367 c -0.48792,-0.7108 -0.75494,-1.22621 -0.79944,-1.54592 -0.0408,-0.29308 -0.0271,-0.64728 0.0416,-1.06423 -0.47769,0.60063 -0.97578,1.18909 -1.43116,1.81449 -0.38878,0.53394 -0.51295,1.09496 -0.43755,1.6367 0.0433,0.31084 0.35591,0.89181 0.93562,1.74388 l 0.75152,1.10459 c 0.55715,0.81891 0.84251,1.27175 0.85491,1.36055 0.0606,0.43517 -0.20782,1.03839 -0.807,1.80945 l -3.45497,4.44608 c -0.68477,0.8812 -1.3469,1.54576 -2.0276,1.92545 -0.33682,0.18787 -0.61525,0.29022 -0.80322,0.37072 0.25215,0.0554 0.53273,0.0609 0.84357,0.0177 1.26999,-0.17679 2.25829,-0.72146 2.96447,-1.63417 l 4.55704,-5.88986 c 0,0 1.98056,-0.26913 2.96826,-0.42115 4.33065,-0.66655 8.65264,-1.39042 12.96751,-2.15243 3.53516,-0.62431 7.06655,-1.27268 10.58559,-1.9822 2.08742,-0.42087 6.24418,-1.3492 6.24418,-1.3492 1.59761,1.06744 3.31674,1.40278 5.15725,1.00497 0.26293,-0.0568 0.46328,-0.15068 0.6002,-0.28119 -0.38159,-0.11014 -0.6945,-0.1307 -0.92048,-0.18662 -1.20322,-0.29775 -2.34129,-1.19106 -3.44363,-2.55845 l -3.76012,-4.66422 c -0.49075,-0.60875 -0.83492,-0.89211 -1.0365,-0.84861 z m -173.9089,3.59242 0.514464,1.98472 c -0.325988,-0.0623 -0.76403,-0.15773 -1.3139,-0.2875 l -0.358107,-1.31768 c -0.09047,-0.33289 -0.114247,-0.61333 -0.06431,-0.84105 0.02881,-0.13138 0.140063,-0.26461 0.33541,-0.39467 0.395865,-0.26355 0.640146,-0.4322 0.731347,-0.5132 -0.06146,0.28027 -0.0089,0.73664 0.155096,1.36938 z m 121.09189,-0.79818 c -0.96259,0.94853 -1.43295,1.52967 -1.41225,1.74388 0.0258,0.26776 0.24245,0.46352 0.65064,0.58634 0.57573,0.17873 1.05445,0.47906 1.43748,0.90157 0.39448,-0.76767 0.58135,-1.26225 0.55985,-1.48538 -0.0258,-0.26776 -0.22337,-0.54243 -0.59264,-0.82214 -0.37012,-0.28863 -0.58448,-0.59661 -0.64308,-0.92427 z m -3.09309,0.29885 c -0.96258,0.94853 -1.43295,1.52967 -1.41225,1.74388 0.0258,0.26776 0.24245,0.46225 0.65065,0.58507 0.57573,0.17874 1.05571,0.48033 1.43873,0.90284 0.39443,-0.76768 0.5801,-1.26352 0.5586,-1.48665 -0.0258,-0.26776 -0.22338,-0.54116 -0.59265,-0.82087 -0.37012,-0.28863 -0.58448,-0.59661 -0.64308,-0.92427 z m 46.14286,1.84097 c 0.0531,0.28198 0.27992,0.681 0.67838,1.19915 l 1.25086,1.62662 c -0.32437,0.0702 -0.76593,0.1526 -1.32273,0.2484 l -0.84483,-1.0718 c -0.21355,-0.27092 -0.34401,-0.5199 -0.38711,-0.749 -0.0249,-0.13218 0.0237,-0.29815 0.15257,-0.49428 0.26113,-0.39744 0.42056,-0.64888 0.47286,-0.75909 z m -44.35863,1.37821 -1.65561,1.88889 0.95075,1.46269 -2.00616,2.45 c -0.4258,0.52001 -0.61041,1.09873 -0.54851,1.74136 0.0327,0.33916 0.14638,0.69595 0.35811,1.06045 0.20951,0.36069 0.33082,0.62597 0.34802,0.80448 0.0163,0.16958 -0.1369,0.49939 -0.45898,0.98984 0,0 6.71642,-0.63345 10.06987,-0.99614 0.31177,-0.0337 0.34016,-0.0396 0.93436,-0.1097 0.40962,-0.0483 0.9394,0.22728 1.60013,0.8133 0.66018,0.58553 1.081,1.13266 1.25085,1.65436 l 1.84097,-2.19404 c 0.37107,-0.44223 0.60487,-0.76271 0.69857,-0.96336 0.15124,-0.32481 0.20129,-0.70977 0.14879,-1.15502 -0.0451,-0.38292 -0.3048,-0.93492 -0.778,-1.65561 -0.36317,-0.55312 -0.72629,-1.10628 -1.08946,-1.6594 -0.47319,-0.72069 -0.72885,-1.24047 -0.76665,-1.56105 -0.0346,-0.29386 -0.0131,-0.64881 0.0643,-1.06423 -0.49017,0.59048 -1.00057,1.16853 -1.469,1.78423 -0.39994,0.52567 -0.53569,1.08341 -0.47159,1.62661 0.0367,0.31168 0.33708,0.90018 0.89905,1.76406 l 0.72757,1.11845 c 0.36517,0.56136 0.55651,0.93279 0.57751,1.11089 0.0252,0.21372 -0.0268,0.4268 -0.1551,0.64056 -0.70889,-0.57553 -1.21855,-0.99805 -1.54213,-1.25337 -0.90092,-0.71088 -1.50917,-1.04041 -1.81197,-1.00497 0,0 -0.59588,0.0709 -0.89401,0.10465 -0.64196,0.0727 -1.92671,0.21058 -1.92671,0.21058 l -2.16252,-3.35914 c -0.74241,-1.15321 -1.12981,-1.91258 -1.16511,-2.27852 -0.0456,-0.47304 0.003,-0.99632 0.14627,-1.56861 l -0.81078,0.98353 z m 33.50193,0.51068 c 0.35392,-0.0581 0.70786,0.15121 1.05793,0.63047 l 1.56483,2.14234 -1.4463,0.23705 -1.09324,-1.5106 c -0.31739,-0.43855 -0.56291,-0.7116 -0.73513,-0.81961 0.28403,-0.42829 0.50149,-0.65495 0.65191,-0.67965 z m -114.24498,0.77422 c 0,0 0.98604,0.13292 1.47908,0.19922 0.27554,0.0371 0.37823,0.31301 0.30893,0.82844 -0.043,0.31992 -0.25493,0.6257 -0.63804,0.91797 l -0.37828,0.28875 z m 64.01668,0.52959 -4.68439,5.1749 c -0.37443,0.41363 -0.5519,0.85684 -0.5296,1.33155 0.0101,0.21497 0.10875,0.44025 0.24841,0.70235 l 0.26606,0.49933 c 0,0 -0.73594,0.13561 -1.10837,0.16266 -0.57222,0.0415 -1.72118,-10e-4 -1.72118,-10e-4 l -1.06046,-2.23439 c -0.27687,-0.58336 -0.55425,-0.87478 -0.83222,-0.87509 l -9.25404,-0.0101 -0.56364,-1.10332 -2.49162,2.44496 c 0.41225,0.19773 0.69748,0.46679 0.85996,0.80701 l 0.45646,0.95579 c 0,0 -1.47095,0.0306 -2.20538,-10e-4 -0.53613,-0.0233 -1.60392,-0.13871 -1.60392,-0.13871 0.0113,-0.0533 0.0213,-0.14192 0.0277,-0.26732 0.0245,-0.47459 -0.17738,-1.19807 -0.60399,-2.17133 -0.26566,-0.60608 -0.53123,-1.21221 -0.79691,-1.81828 -0.34615,-0.78963 -0.51059,-1.34584 -0.49429,-1.66822 0.0149,-0.29552 0.0951,-0.64111 0.24084,-1.03776 -0.58195,0.50027 -1.18169,0.98435 -1.7464,1.51313 -0.48215,0.45147 -0.71005,0.97947 -0.73765,1.52574 -0.0159,0.31343 0.18177,0.94194 0.59138,1.88763 l 0.53086,1.22563 c 0.39369,0.90894 0.58842,1.40838 0.58381,1.498 -0.0226,0.43879 -0.39907,0.98045 -1.13232,1.62535 l -4.22794,3.71851 c -0.83799,0.73702 -1.61303,1.26548 -2.35291,1.51061 -0.36609,0.12129 -0.65897,0.1693 -0.8587,0.2131 0.23726,0.10176 0.51248,0.16063 0.82591,0.17653 1.2806,0.0648 2.35296,-0.28515 3.21792,-1.0491 l 5.58219,-4.93028 c 0,0 1.96616,0.16969 2.95186,0.20427 5.60102,0.19651 11.21121,0.17788 16.81338,0.0177 3.26289,-0.0933 9.77607,-0.56995 9.77607,-0.56995 l -3.28475,-5.6881 c -0.58561,-1.01408 -0.88806,-1.7045 -0.90536,-2.07173 -0.0224,-0.47471 0.0523,-0.99391 0.22319,-1.55852 z m 47.43784,0.46277 c 0.45125,-0.0741 0.90702,0.19605 1.36055,0.8133 l 0.56238,0.76539 c 0,0 -0.72544,0.11947 -1.08819,0.17906 -0.34507,0.0567 -0.68961,0.005 -1.02388,-0.17275 -0.33277,-0.17657 -0.51626,-0.40537 -0.55986,-0.67082 -0.0843,-0.51319 0.16503,-0.81828 0.749,-0.91418 z m 24.86953,0.17779 c -0.84546,1.05425 -1.24592,1.68611 -1.20042,1.89645 0.0568,0.26293 0.29562,0.43034 0.71496,0.5069 0.59303,0.10827 1.10365,0.35257 1.5333,0.72756 0.30232,-0.80841 0.42936,-1.32176 0.38206,-1.54087 -0.0568,-0.26293 -0.28428,-0.51962 -0.68721,-0.76034 -0.39768,-0.23759 -0.64629,-0.51111 -0.74269,-0.8297 z m -55.07031,2.42731 c 0.0275,0.28561 0.21572,0.70539 0.56616,1.25716 0.36652,0.57709 1.09954,1.73127 1.09954,1.73127 -0.32938,0.0407 -0.77597,0.0833 -1.33912,0.12861 l -0.74522,-1.14367 c -0.18834,-0.28903 -0.29545,-0.54847 -0.31775,-0.78052 -0.0129,-0.13389 0.0507,-0.29417 0.1967,-0.4779 0.29589,-0.37232 0.47779,-0.60989 0.53969,-0.71495 z m -114.176898,0.15131 c -1.193518,0.63385 -1.810871,1.05608 -1.852321,1.26725 -0.05181,0.26397 0.1016,0.51154 0.45646,0.74773 0.50184,0.33402 0.873433,0.76045 1.119715,1.27482 0.597418,-0.62291 0.917667,-1.04476 0.960837,-1.26473 0.05181,-0.26397 -0.05552,-0.58793 -0.330367,-0.9684 -0.271263,-0.37551 -0.391824,-0.72593 -0.354324,-1.05667 z m 3.048954,0.59769 c -1.193518,0.63384 -1.810871,1.05733 -1.852321,1.2685 -0.05181,0.26397 0.101604,0.51029 0.45646,0.74648 0.501845,0.33402 0.873432,0.76171 1.119715,1.27607 0.597418,-0.62291 0.917667,-1.04475 0.960837,-1.26472 0.05181,-0.26397 -0.05552,-0.5892 -0.330367,-0.96966 -0.271265,-0.37551 -0.391824,-0.72593 -0.354324,-1.05667 z m 92.469804,0.59894 c 0.0135,0.28661 0.18137,0.71411 0.50438,1.28238 0.33785,0.59437 1.01379,1.78297 1.01379,1.78297 -0.33098,0.0246 -0.77946,0.0455 -1.34416,0.0631 l -0.68847,-1.17898 c -0.17394,-0.29787 -0.26893,-0.56152 -0.27993,-0.79439 -0.006,-0.13435 0.0658,-0.29145 0.22066,-0.46781 0.31375,-0.35739 0.50673,-0.58532 0.57373,-0.68722 z m -86.871228,0.1778 c -1.182444,0.65426 -1.793076,1.08818 -1.830886,1.30003 -0.04726,0.26481 0.110207,0.50885 0.46907,0.73891 0.507511,0.32535 0.887324,0.74584 1.142412,1.25589 0.586622,-0.63308 0.89875,-1.05917 0.93814,-1.27985 0.04726,-0.26482 -0.06541,-0.58892 -0.346759,-0.96462 -0.277675,-0.37079 -0.403787,-0.71903 -0.371977,-1.05036 z m 70.569788,2.17512 7.1281,0.008 0.56364,1.09072 -7.15584,-0.009 z m 46.80611,2.69967 c -0.94216,0.96881 -1.39962,1.56043 -1.37442,1.77415 0.0315,0.26715 0.25312,0.455 0.66325,0.5712 0.58001,0.16434 1.06446,0.45704 1.45639,0.87131 0.37805,-0.7759 0.55463,-1.27537 0.52833,-1.498 -0.0315,-0.26715 -0.23342,-0.54408 -0.61156,-0.82213 -0.37322,-0.27443 -0.59649,-0.57019 -0.66199,-0.89653 z m -3.08552,0.36315 c -0.94216,0.9688 -1.39963,1.56042 -1.37443,1.77415 0.0315,0.26715 0.25314,0.45625 0.66326,0.57246 0.58001,0.16435 1.06446,0.45579 1.45639,0.87005 0.37805,-0.77589 0.55463,-1.2741 0.52833,-1.49673 -0.0315,-0.26715 -0.23343,-0.54409 -0.61156,-0.82214 -0.37322,-0.27444 -0.59649,-0.57146 -0.66199,-0.89779 z"
         sodipodi:nodetypes="csscssccsscssccccsssscssscscssscsssssscssssscssscssscssssscssscssccccscsssscssccssssssscssscssscssscssscsssscsssssssscsscsscssssscssscsccsscscsscssscscssccsssscscsssscsssssssscsscssscscssssccscsssscscscccsccscccsccssscccccssscssscsssssscssssscssscsscccsscsscscssscccssscscsscccscscsssscsssssssscsscsscsscsscscsscssccsccscccssccsccccscsscccscsscsssccsccsccsccscssscssccsscsscscsss" />
    </g>
  </g>
</svg>
