<?xml version="1.0" encoding="UTF-8" standalone="no"?>
<!-- Created with Inkscape (http://www.inkscape.org/) -->

<svg
   width="2736"
   height="1800"
   viewBox="0 0 723.9 476.25001"
   version="1.1"
   id="svg8"
   inkscape:export-filename="C:\Users\厂永刄先生\Documents\GXI3CW2\,pjóŭ\Namibie.png"
   inkscape:export-xdpi="96"
   inkscape:export-ydpi="96"
   inkscape:version="1.3 (0e150ed6c4, 2023-07-21)"
   sodipodi:docname="na_1990_000-001_jack.svg"
   xmlns:inkscape="http://www.inkscape.org/namespaces/inkscape"
   xmlns:sodipodi="http://sodipodi.sourceforge.net/DTD/sodipodi-0.dtd"
   xmlns="http://www.w3.org/2000/svg"
   xmlns:svg="http://www.w3.org/2000/svg"
   xmlns:rdf="http://www.w3.org/1999/02/22-rdf-syntax-ns#"
   xmlns:cc="http://creativecommons.org/ns#"
   xmlns:dc="http://purl.org/dc/elements/1.1/">
  <defs
     id="defs2" />
  <sodipodi:namedview
     id="base"
     pagecolor="#ffffff"
     bordercolor="#666666"
     borderopacity="1.0"
     inkscape:pageopacity="0.0"
     inkscape:pageshadow="2"
     inkscape:zoom="0.30222222"
     inkscape:cx="1366.5441"
     inkscape:cy="898.34559"
     inkscape:document-units="px"
     inkscape:current-layer="layer1"
     showgrid="false"
     units="px"
     fit-margin-top="0"
     fit-margin-left="0"
     fit-margin-right="0"
     fit-margin-bottom="0"
     inkscape:showpageshadow="false"
     inkscape:snap-intersection-paths="false"
     inkscape:object-paths="false"
     inkscape:pagecheckerboard="true"
     inkscape:snap-smooth-nodes="true"
     inkscape:window-width="2880"
     inkscape:window-height="1514"
     inkscape:window-x="-11"
     inkscape:window-y="-11"
     inkscape:window-maximized="1"
     inkscape:object-nodes="true"
     inkscape:snap-nodes="true"
     inkscape:deskcolor="#505050" />
  <metadata
     id="metadata5">
    <rdf:RDF>
      <cc:Work
         rdf:about="">
        <dc:format>image/svg+xml</dc:format>
        <dc:type
           rdf:resource="http://purl.org/dc/dcmitype/StillImage" />
      </cc:Work>
    </rdf:RDF>
  </metadata>
  <g
     inkscape:label="レイヤー 1"
     inkscape:groupmode="layer"
     id="layer1"
     transform="translate(-6.7279798,-418.33036)">
    <path
       style="fill:#ffffff;fill-opacity:1;stroke:none;stroke-width:0.51166773px;stroke-linecap:butt;stroke-linejoin:miter;stroke-opacity:1"
       d="M 16.25298,418.33036 H 6.7279798 v 476.25 H 16.25298 Z"
       id="path1079"
       inkscape:connector-curvature="0"
       sodipodi:nodetypes="ccccc" />
    <path
       sodipodi:nodetypes="cccc"
       inkscape:connector-curvature="0"
       id="path831"
       d="m 373.44048,656.45536 1e-5,-190.42627 -285.639406,190.42627 z"
       style="fill:#009a44;fill-opacity:1;stroke:none;stroke-width:0.639585px;stroke-linecap:butt;stroke-linejoin:miter;stroke-opacity:1" />
    <path
       style="fill:#002f6c;fill-opacity:1;stroke:none;stroke-width:50.2708;stroke-linecap:butt;stroke-linejoin:miter;stroke-miterlimit:4;stroke-dasharray:none;stroke-opacity:1"
       d="M 301.89337,418.33036 16.25298,608.75728 V 418.33036 Z m -220.364426,41.95057 -13.682215,-11.36575 3.005385,17.52856 -17.532017,-3.00192 11.367017,13.67748 -16.684134,6.16627 16.682864,6.16153 -11.365747,13.68222 17.528552,-3.00539 -3.00192,17.53202 13.67748,-11.36702 6.16627,16.68414 6.16627,-16.68414 13.677481,11.36702 -3.00539,-17.52855 17.53202,3.00192 -11.36575,-13.68222 16.68287,-6.16153 -16.68414,-6.16627 11.36702,-13.67748 -17.52855,3.00538 3.00192,-17.53202 -13.682216,11.36575 -6.161535,-16.68286 z"
       id="path836"
       inkscape:connector-curvature="0"
       sodipodi:nodetypes="ccccccccccccccccccccccccccccc" />
    <path
       sodipodi:nodetypes="ccccc"
       inkscape:connector-curvature="0"
       id="path838"
       d="M 16.25298,620.68172 319.77968,418.33036 H 301.89337 L 16.25298,608.75728 Z"
       style="fill:#ffffff;fill-opacity:1;stroke:none;stroke-width:0.639585px;stroke-linecap:butt;stroke-linejoin:miter;stroke-opacity:1" />
    <path
       style="fill:#ffffff;fill-opacity:1;stroke:none;stroke-width:0.639585px;stroke-linecap:butt;stroke-linejoin:miter;stroke-opacity:1"
       d="M 69.913539,656.45536 373.44049,454.10455 v 11.92454 L 87.801084,656.45536 Z"
       id="path840"
       inkscape:connector-curvature="0"
       sodipodi:nodetypes="ccccc" />
    <path
       style="fill:#c8102e;fill-opacity:1;stroke:none;stroke-width:0.132292px;stroke-linecap:butt;stroke-linejoin:miter;stroke-opacity:1"
       d="m 373.44049,454.10455 -1e-5,-35.77419 h -53.6608 L 16.25298,620.68172 v 35.77364 h 53.660559 z"
       id="path827"
       inkscape:connector-curvature="0"
       sodipodi:nodetypes="ccccccc" />
    <path
       style="opacity:1;fill:#002f6c;fill-opacity:1;fill-rule:evenodd;stroke:none;stroke-width:41.8411;stroke-linecap:square;stroke-linejoin:round;stroke-miterlimit:4;stroke-dasharray:none;stroke-dashoffset:0;stroke-opacity:1"
       d="m 67.846729,483.28557 c 0,10.9594 8.88435,19.84375 19.84375,19.84375 10.9594,0 19.843751,-8.88435 19.843751,-19.84375 0,-10.9594 -8.884351,-19.84375 -19.843751,-19.84375 -10.9594,0 -19.84375,8.88435 -19.84375,19.84375 z m 43.656251,0 c 0,13.15128 -10.66122,23.8125 -23.812501,23.8125 -13.15128,0 -23.8125,-10.66122 -23.8125,-23.8125 0,-13.15128 10.66122,-23.8125 23.8125,-23.8125 13.151281,0 23.812501,10.66122 23.812501,23.8125 z"
       id="circle850"
       inkscape:connector-curvature="0"
       sodipodi:nodetypes="zzzzzzzzzz" />
    <path
       sodipodi:nodetypes="czccc"
       inkscape:connector-curvature="0"
       id="path861"
       d="m 93.852014,460.28093 c -1.966465,-0.52815 -4.031335,-0.80786 -6.161535,-0.80786 -2.1302,0 -4.195065,0.27971 -6.161535,0.80786 l 6.161535,-16.68286 z"
       style="opacity:1;fill:#ffcd00;fill-opacity:1;fill-rule:evenodd;stroke:none;stroke-width:63.8956;stroke-linecap:square;stroke-linejoin:round;stroke-miterlimit:4;stroke-dasharray:none;stroke-dashoffset:0;stroke-opacity:1" />
    <path
       style="opacity:1;fill:#ffcd00;fill-opacity:1;fill-rule:evenodd;stroke:none;stroke-width:63.8956;stroke-linecap:square;stroke-linejoin:round;stroke-miterlimit:4;stroke-dasharray:none;stroke-dashoffset:0;stroke-opacity:1"
       d="m 93.852014,506.2902 c -1.966465,0.52816 -4.031335,0.80787 -6.161535,0.80787 -2.1302,0 -4.195065,-0.27971 -6.161535,-0.80787 l 6.161535,16.68287 z"
       id="path866"
       inkscape:connector-curvature="0"
       sodipodi:nodetypes="czccc" />
    <path
       style="opacity:1;fill:#ffcd00;fill-opacity:1;fill-rule:evenodd;stroke:none;stroke-width:63.8956;stroke-linecap:square;stroke-linejoin:round;stroke-miterlimit:4;stroke-dasharray:none;stroke-dashoffset:0;stroke-opacity:1"
       d="m 110.69511,489.4471 c 0.52816,-1.96646 0.80787,-4.03133 0.80787,-6.16153 0,-2.1302 -0.27971,-4.19507 -0.80787,-6.16154 l 16.68287,6.16154 z"
       id="path868"
       inkscape:connector-curvature="0"
       sodipodi:nodetypes="czccc" />
    <path
       sodipodi:nodetypes="czccc"
       inkscape:connector-curvature="0"
       id="path870"
       d="m 64.685844,489.4471 c -0.528155,-1.96646 -0.807865,-4.03133 -0.807865,-6.16153 0,-2.1302 0.27971,-4.19507 0.807865,-6.16154 l -16.682864,6.16154 z"
       style="opacity:1;fill:#ffcd00;fill-opacity:1;fill-rule:evenodd;stroke:none;stroke-width:63.8956;stroke-linecap:square;stroke-linejoin:round;stroke-miterlimit:4;stroke-dasharray:none;stroke-dashoffset:0;stroke-opacity:1" />
    <path
       style="opacity:1;fill:#ffcd00;fill-opacity:1;fill-rule:evenodd;stroke:none;stroke-width:63.8956;stroke-linecap:square;stroke-linejoin:round;stroke-miterlimit:4;stroke-dasharray:none;stroke-dashoffset:0;stroke-opacity:1"
       d="m 104.52884,466.44374 c -1.43893,-1.44063 -3.08731,-2.7153 -4.932111,-3.7804 -1.844805,-1.0651 -3.77289,-1.8553 -5.73998,-2.38114 l 13.677481,-11.36702 z"
       id="path872"
       inkscape:connector-curvature="0"
       sodipodi:nodetypes="czccc" />
    <path
       sodipodi:nodetypes="czccc"
       inkscape:connector-curvature="0"
       id="path874"
       d="m 81.524209,506.28893 c -1.96709,-0.52583 -3.895175,-1.31603 -5.73998,-2.38113 -1.844805,-1.0651 -3.49318,-2.33977 -4.932115,-3.7804 l -3.005385,17.52855 z"
       style="opacity:1;fill:#ffcd00;fill-opacity:1;fill-rule:evenodd;stroke:none;stroke-width:63.8956;stroke-linecap:square;stroke-linejoin:round;stroke-miterlimit:4;stroke-dasharray:none;stroke-dashoffset:0;stroke-opacity:1" />
    <path
       sodipodi:nodetypes="czccc"
       inkscape:connector-curvature="0"
       id="path876"
       d="m 104.53231,500.12393 c 1.44063,-1.43893 2.7153,-3.08731 3.7804,-4.93211 1.0651,-1.84481 1.85529,-3.77289 2.38113,-5.73998 l 11.36702,13.67748 z"
       style="opacity:1;fill:#ffcd00;fill-opacity:1;fill-rule:evenodd;stroke:none;stroke-width:63.8956;stroke-linecap:square;stroke-linejoin:round;stroke-miterlimit:4;stroke-dasharray:none;stroke-dashoffset:0;stroke-opacity:1" />
    <path
       style="opacity:1;fill:#ffcd00;fill-opacity:1;fill-rule:evenodd;stroke:none;stroke-width:63.8956;stroke-linecap:square;stroke-linejoin:round;stroke-miterlimit:4;stroke-dasharray:none;stroke-dashoffset:0;stroke-opacity:1"
       d="m 64.687114,477.1193 c 0.525835,-1.96709 1.316035,-3.89518 2.381135,-5.73998 1.0651,-1.84481 2.33977,-3.49318 3.7804,-4.93212 l -17.528552,-3.00538 z"
       id="path878"
       inkscape:connector-curvature="0"
       sodipodi:nodetypes="czccc" />
    <path
       style="opacity:1;fill:#ffcd00;fill-opacity:1;fill-rule:evenodd;stroke:none;stroke-width:63.8956;stroke-linecap:square;stroke-linejoin:round;stroke-miterlimit:4;stroke-dasharray:none;stroke-dashoffset:0;stroke-opacity:1"
       d="m 81.524209,460.2822 c -1.96709,0.52584 -3.895175,1.31604 -5.73998,2.38114 -1.844805,1.0651 -3.49318,2.33977 -4.932115,3.7804 l -3.005385,-17.52856 z"
       id="path880"
       inkscape:connector-curvature="0"
       sodipodi:nodetypes="czccc" />
    <path
       sodipodi:nodetypes="czccc"
       inkscape:connector-curvature="0"
       id="path882"
       d="m 104.52884,500.1274 c -1.43893,1.44063 -3.08731,2.7153 -4.932111,3.7804 -1.844805,1.0651 -3.77289,1.85529 -5.73998,2.38113 l 13.677481,11.36702 z"
       style="opacity:1;fill:#ffcd00;fill-opacity:1;fill-rule:evenodd;stroke:none;stroke-width:63.8956;stroke-linecap:square;stroke-linejoin:round;stroke-miterlimit:4;stroke-dasharray:none;stroke-dashoffset:0;stroke-opacity:1" />
    <path
       sodipodi:nodetypes="czccc"
       inkscape:connector-curvature="0"
       id="path884"
       d="m 110.69384,477.1193 c -0.52583,-1.96709 -1.31603,-3.89518 -2.38113,-5.73998 -1.0651,-1.84481 -2.33977,-3.49318 -3.7804,-4.93212 l 17.52855,-3.00538 z"
       style="opacity:1;fill:#ffcd00;fill-opacity:1;fill-rule:evenodd;stroke:none;stroke-width:63.8956;stroke-linecap:square;stroke-linejoin:round;stroke-miterlimit:4;stroke-dasharray:none;stroke-dashoffset:0;stroke-opacity:1" />
    <path
       style="opacity:1;fill:#ffcd00;fill-opacity:1;fill-rule:evenodd;stroke:none;stroke-width:63.8956;stroke-linecap:square;stroke-linejoin:round;stroke-miterlimit:4;stroke-dasharray:none;stroke-dashoffset:0;stroke-opacity:1"
       d="m 70.848649,500.12393 c -1.44063,-1.43893 -2.7153,-3.08731 -3.7804,-4.93211 -1.0651,-1.84481 -1.855295,-3.77289 -2.381135,-5.73998 l -11.367017,13.67748 z"
       id="path886"
       inkscape:connector-curvature="0"
       sodipodi:nodetypes="czccc" />
    <path
       sodipodi:nodetypes="zzzzz"
       inkscape:connector-curvature="0"
       id="path841"
       d="m 67.846729,483.28557 c 0,10.9594 8.88435,19.84375 19.84375,19.84375 10.9594,0 19.843751,-8.88435 19.843751,-19.84375 0,-10.9594 -8.884351,-19.84375 -19.843751,-19.84375 -10.9594,0 -19.84375,8.88435 -19.84375,19.84375 z"
       style="opacity:1;fill:#ffcd00;fill-opacity:1;fill-rule:evenodd;stroke:none;stroke-width:41.8411;stroke-linecap:square;stroke-linejoin:round;stroke-miterlimit:4;stroke-dasharray:none;stroke-dashoffset:0;stroke-opacity:1" />
    <path
       sodipodi:nodetypes="ccccccc"
       inkscape:connector-curvature="0"
       id="path1"
       d="m 730.62798,894.58036 2e-5,-476.25 H 373.44048 l 0,238.125 H 16.25298 v 238.125 z"
       style="fill:#ffffff;fill-opacity:1;stroke:none;stroke-width:1.27917px;stroke-linecap:butt;stroke-linejoin:miter;stroke-opacity:1" />
  </g>
</svg>
