<?xml version="1.0" encoding="UTF-8" standalone="no"?>
<!-- Created with Inkscape (http://www.inkscape.org/) -->

<svg
   xmlns:dc="http://purl.org/dc/elements/1.1/"
   xmlns:cc="http://creativecommons.org/ns#"
   xmlns:rdf="http://www.w3.org/1999/02/22-rdf-syntax-ns#"
   xmlns:svg="http://www.w3.org/2000/svg"
   xmlns="http://www.w3.org/2000/svg"
   xmlns:sodipodi="http://sodipodi.sourceforge.net/DTD/sodipodi-0.dtd"
   xmlns:inkscape="http://www.inkscape.org/namespaces/inkscape"
   width="2736"
   height="1800"
   viewBox="0 0 723.9 476.25001"
   version="1.1"
   id="svg8"
   inkscape:export-filename="C:\Users\厂永刄先生\Documents\GXI3CW2\,pjóŭ\Namibie.png"
   inkscape:export-xdpi="96"
   inkscape:export-ydpi="96"
   inkscape:version="0.92.4 (5da689c313, 2019-01-14)"
   sodipodi:docname="NEMI3PI2JA2.svg">
  <defs
     id="defs2" />
  <sodipodi:namedview
     id="base"
     pagecolor="#ffffff"
     bordercolor="#666666"
     borderopacity="1.0"
     inkscape:pageopacity="0.0"
     inkscape:pageshadow="2"
     inkscape:zoom="0.30222222"
     inkscape:cx="1368"
     inkscape:cy="899.99999"
     inkscape:document-units="px"
     inkscape:current-layer="layer1"
     showgrid="false"
     units="px"
     fit-margin-top="0"
     fit-margin-left="0"
     fit-margin-right="0"
     fit-margin-bottom="0"
     inkscape:showpageshadow="false"
     inkscape:snap-intersection-paths="false"
     inkscape:object-paths="false"
     inkscape:pagecheckerboard="true"
     inkscape:snap-smooth-nodes="true"
     inkscape:window-width="1366"
     inkscape:window-height="745"
     inkscape:window-x="-8"
     inkscape:window-y="-8"
     inkscape:window-maximized="1"
     inkscape:object-nodes="true"
     inkscape:snap-nodes="true" />
  <metadata
     id="metadata5">
    <rdf:RDF>
      <cc:Work
         rdf:about="">
        <dc:format>image/svg+xml</dc:format>
        <dc:type
           rdf:resource="http://purl.org/dc/dcmitype/StillImage" />
        <dc:title />
      </cc:Work>
    </rdf:RDF>
  </metadata>
  <g
     inkscape:label="レイヤー 1"
     inkscape:groupmode="layer"
     id="layer1"
     transform="translate(-6.7279798,-418.33036)">
    <path
       style="fill:#ffffff;fill-opacity:1;stroke:none;stroke-width:0.51166773px;stroke-linecap:butt;stroke-linejoin:miter;stroke-opacity:1"
       d="M 16.25298,418.33036 H 6.7279798 v 476.25 H 16.25298 Z"
       id="path1079"
       inkscape:connector-curvature="0"
       sodipodi:nodetypes="ccccc" />
    <path
       sodipodi:nodetypes="cccc"
       inkscape:connector-curvature="0"
       id="path831"
       d="m 730.62798,894.58036 2e-5,-380.85253 -571.27881,380.85254 z"
       style="fill:#009a44;fill-opacity:1;stroke:none;stroke-width:1.27916932px;stroke-linecap:butt;stroke-linejoin:miter;stroke-opacity:1" />
    <path
       style="fill:#002f6c;fill-opacity:1;stroke:none;stroke-width:100.54166412;stroke-linecap:butt;stroke-linejoin:miter;stroke-miterlimit:4;stroke-dasharray:none;stroke-opacity:1"
       d="m 587.53376,418.33036 -571.28078,380.85385 0,-380.85385 z m -440.72885,83.90115 -27.36443,-22.7315 6.01077,35.05711 -35.064036,-6.00384 22.734036,27.35496 -33.36827,12.33254 33.36573,12.32307 -22.731496,27.36443 35.057106,-6.01077 -6.00384,35.06404 27.35496,-22.73404 12.33254,33.36827 12.33254,-33.36827 27.35496,22.73404 -6.01077,-35.05711 35.06404,6.00384 -22.7315,-27.36443 33.36573,-12.32307 -33.36827,-12.33254 22.73404,-27.35496 -35.05711,6.01077 6.00384,-35.06404 -27.36443,22.7315 -12.32307,-33.36573 z"
       id="path836"
       inkscape:connector-curvature="0"
       sodipodi:nodetypes="ccccccccccccccccccccccccccccc" />
    <path
       sodipodi:nodetypes="ccccc"
       inkscape:connector-curvature="0"
       id="path838"
       d="M 16.25298,823.03309 623.30638,418.33036 H 587.53376 L 16.25298,799.18421 Z"
       style="fill:#ffffff;fill-opacity:1;stroke:none;stroke-width:1.27916932px;stroke-linecap:butt;stroke-linejoin:miter;stroke-opacity:1" />
    <path
       style="fill:#ffffff;fill-opacity:1;stroke:none;stroke-width:1.27916932px;stroke-linecap:butt;stroke-linejoin:miter;stroke-opacity:1"
       d="m 123.5741,894.58037 607.0539,-404.70163 0,23.84909 -571.27881,380.85254 z"
       id="path840"
       inkscape:connector-curvature="0"
       sodipodi:nodetypes="ccccc" />
    <path
       style="fill:#c8102e;stroke:none;stroke-width:0.26458335px;stroke-linecap:butt;stroke-linejoin:miter;stroke-opacity:1;fill-opacity:1"
       d="m 730.628,489.87874 -2e-5,-71.54838 h -107.3216 l -607.0534,404.70273 0,71.54727 107.32112,10e-6 z"
       id="path827"
       inkscape:connector-curvature="0"
       sodipodi:nodetypes="ccccccc" />
    <path
       style="opacity:1;fill:#002f6c;fill-opacity:1;fill-rule:evenodd;stroke:none;stroke-width:83.68216705;stroke-linecap:square;stroke-linejoin:round;stroke-miterlimit:4;stroke-dasharray:none;stroke-dashoffset:0;stroke-opacity:1"
       d="m 119.44048,548.24078 c 0,21.9188 17.7687,39.6875 39.6875,39.6875 21.9188,0 39.6875,-17.7687 39.6875,-39.6875 0,-21.9188 -17.7687,-39.6875 -39.6875,-39.6875 -21.9188,0 -39.6875,17.7687 -39.6875,39.6875 z m 87.3125,0 c 0,26.30256 -21.32244,47.625 -47.625,47.625 -26.30256,0 -47.625,-21.32244 -47.625,-47.625 0,-26.30256 21.32244,-47.625 47.625,-47.625 26.30256,0 47.625,21.32244 47.625,47.625 z"
       id="circle850"
       inkscape:connector-curvature="0"
       sodipodi:nodetypes="zzzzzzzzzz" />
    <path
       sodipodi:nodetypes="czccc"
       inkscape:connector-curvature="0"
       id="path861"
       d="m 171.45105,502.23151 c -3.93293,-1.05631 -8.06267,-1.61573 -12.32307,-1.61573 -4.2604,0 -8.39013,0.55942 -12.32307,1.61573 l 12.32307,-33.36573 z"
       style="opacity:1;fill:#ffcd00;fill-opacity:1;fill-rule:evenodd;stroke:none;stroke-width:127.79129028;stroke-linecap:square;stroke-linejoin:round;stroke-miterlimit:4;stroke-dasharray:none;stroke-dashoffset:0;stroke-opacity:1" />
    <path
       style="opacity:1;fill:#ffcd00;fill-opacity:1;fill-rule:evenodd;stroke:none;stroke-width:127.79129028;stroke-linecap:square;stroke-linejoin:round;stroke-miterlimit:4;stroke-dasharray:none;stroke-dashoffset:0;stroke-opacity:1"
       d="m 171.45105,594.25005 c -3.93293,1.05631 -8.06267,1.61573 -12.32307,1.61573 -4.2604,0 -8.39013,-0.55942 -12.32307,-1.61573 l 12.32307,33.36573 z"
       id="path866"
       inkscape:connector-curvature="0"
       sodipodi:nodetypes="czccc" />
    <path
       style="opacity:1;fill:#ffcd00;fill-opacity:1;fill-rule:evenodd;stroke:none;stroke-width:127.79129028;stroke-linecap:square;stroke-linejoin:round;stroke-miterlimit:4;stroke-dasharray:none;stroke-dashoffset:0;stroke-opacity:1"
       d="m 205.13725,560.56385 c 1.05631,-3.93293 1.61573,-8.06267 1.61573,-12.32307 0,-4.2604 -0.55942,-8.39013 -1.61573,-12.32307 l 33.36573,12.32307 z"
       id="path868"
       inkscape:connector-curvature="0"
       sodipodi:nodetypes="czccc" />
    <path
       sodipodi:nodetypes="czccc"
       inkscape:connector-curvature="0"
       id="path870"
       d="m 113.11871,560.56385 c -1.05631,-3.93293 -1.61573,-8.06267 -1.61573,-12.32307 0,-4.2604 0.55942,-8.39013 1.61573,-12.32307 l -33.36573,12.32307 z"
       style="opacity:1;fill:#ffcd00;fill-opacity:1;fill-rule:evenodd;stroke:none;stroke-width:127.79129028;stroke-linecap:square;stroke-linejoin:round;stroke-miterlimit:4;stroke-dasharray:none;stroke-dashoffset:0;stroke-opacity:1" />
    <path
       style="opacity:1;fill:#ffcd00;fill-opacity:1;fill-rule:evenodd;stroke:none;stroke-width:127.79129028;stroke-linecap:square;stroke-linejoin:round;stroke-miterlimit:4;stroke-dasharray:none;stroke-dashoffset:0;stroke-opacity:1"
       d="m 192.80471,514.55712 c -2.87787,-2.88126 -6.17462,-5.4306 -9.86423,-7.5608 -3.68961,-2.1302 -7.54578,-3.71059 -11.47996,-4.76227 l 27.35496,-22.73404 z"
       id="path872"
       inkscape:connector-curvature="0"
       sodipodi:nodetypes="czccc" />
    <path
       sodipodi:nodetypes="czccc"
       inkscape:connector-curvature="0"
       id="path874"
       d="m 146.79544,594.24751 c -3.93418,-1.05167 -7.79035,-2.63207 -11.47996,-4.76227 -3.68961,-2.1302 -6.98636,-4.67954 -9.86423,-7.5608 l -6.01077,35.05711 z"
       style="opacity:1;fill:#ffcd00;fill-opacity:1;fill-rule:evenodd;stroke:none;stroke-width:127.79129028;stroke-linecap:square;stroke-linejoin:round;stroke-miterlimit:4;stroke-dasharray:none;stroke-dashoffset:0;stroke-opacity:1" />
    <path
       sodipodi:nodetypes="czccc"
       inkscape:connector-curvature="0"
       id="path876"
       d="m 192.81164,581.91751 c 2.88126,-2.87787 5.4306,-6.17462 7.5608,-9.86423 2.1302,-3.68961 3.71059,-7.54578 4.76227,-11.47996 l 22.73404,27.35496 z"
       style="opacity:1;fill:#ffcd00;fill-opacity:1;fill-rule:evenodd;stroke:none;stroke-width:127.79129028;stroke-linecap:square;stroke-linejoin:round;stroke-miterlimit:4;stroke-dasharray:none;stroke-dashoffset:0;stroke-opacity:1" />
    <path
       style="opacity:1;fill:#ffcd00;fill-opacity:1;fill-rule:evenodd;stroke:none;stroke-width:127.79129028;stroke-linecap:square;stroke-linejoin:round;stroke-miterlimit:4;stroke-dasharray:none;stroke-dashoffset:0;stroke-opacity:1"
       d="m 113.12125,535.90824 c 1.05167,-3.93418 2.63207,-7.79035 4.76227,-11.47996 2.1302,-3.68961 4.67954,-6.98636 7.5608,-9.86423 l -35.057106,-6.01077 z"
       id="path878"
       inkscape:connector-curvature="0"
       sodipodi:nodetypes="czccc" />
    <path
       style="opacity:1;fill:#ffcd00;fill-opacity:1;fill-rule:evenodd;stroke:none;stroke-width:127.79129028;stroke-linecap:square;stroke-linejoin:round;stroke-miterlimit:4;stroke-dasharray:none;stroke-dashoffset:0;stroke-opacity:1"
       d="m 146.79544,502.23405 c -3.93418,1.05167 -7.79035,2.63207 -11.47996,4.76227 -3.68961,2.1302 -6.98636,4.67954 -9.86423,7.5608 l -6.01077,-35.05711 z"
       id="path880"
       inkscape:connector-curvature="0"
       sodipodi:nodetypes="czccc" />
    <path
       sodipodi:nodetypes="czccc"
       inkscape:connector-curvature="0"
       id="path882"
       d="m 192.80471,581.92444 c -2.87787,2.88126 -6.17462,5.4306 -9.86423,7.5608 -3.68961,2.1302 -7.54578,3.71059 -11.47996,4.76227 l 27.35496,22.73404 z"
       style="opacity:1;fill:#ffcd00;fill-opacity:1;fill-rule:evenodd;stroke:none;stroke-width:127.79129028;stroke-linecap:square;stroke-linejoin:round;stroke-miterlimit:4;stroke-dasharray:none;stroke-dashoffset:0;stroke-opacity:1" />
    <path
       sodipodi:nodetypes="czccc"
       inkscape:connector-curvature="0"
       id="path884"
       d="m 205.13471,535.90824 c -1.05167,-3.93418 -2.63207,-7.79035 -4.76227,-11.47996 -2.1302,-3.68961 -4.67954,-6.98636 -7.5608,-9.86423 l 35.05711,-6.01077 z"
       style="opacity:1;fill:#ffcd00;fill-opacity:1;fill-rule:evenodd;stroke:none;stroke-width:127.79129028;stroke-linecap:square;stroke-linejoin:round;stroke-miterlimit:4;stroke-dasharray:none;stroke-dashoffset:0;stroke-opacity:1" />
    <path
       style="opacity:1;fill:#ffcd00;fill-opacity:1;fill-rule:evenodd;stroke:none;stroke-width:127.79129028;stroke-linecap:square;stroke-linejoin:round;stroke-miterlimit:4;stroke-dasharray:none;stroke-dashoffset:0;stroke-opacity:1"
       d="m 125.44432,581.91751 c -2.88126,-2.87787 -5.4306,-6.17462 -7.5608,-9.86423 -2.1302,-3.68961 -3.71059,-7.54578 -4.76227,-11.47996 l -22.734036,27.35496 z"
       id="path886"
       inkscape:connector-curvature="0"
       sodipodi:nodetypes="czccc" />
    <path
       sodipodi:nodetypes="zzzzz"
       inkscape:connector-curvature="0"
       id="path841"
       d="m 119.44048,548.24078 c 0,21.9188 17.7687,39.6875 39.6875,39.6875 21.9188,0 39.6875,-17.7687 39.6875,-39.6875 0,-21.9188 -17.7687,-39.6875 -39.6875,-39.6875 -21.9188,0 -39.6875,17.7687 -39.6875,39.6875 z"
       style="opacity:1;fill:#ffcd00;fill-opacity:1;fill-rule:evenodd;stroke:none;stroke-width:83.68216705;stroke-linecap:square;stroke-linejoin:round;stroke-miterlimit:4;stroke-dasharray:none;stroke-dashoffset:0;stroke-opacity:1" />
  </g>
</svg>
