<?xml version="1.0" encoding="UTF-8" standalone="no"?>
<!-- Created with Inkscape (http://www.inkscape.org/) -->

<svg
   xmlns:dc="http://purl.org/dc/elements/1.1/"
   xmlns:cc="http://creativecommons.org/ns#"
   xmlns:rdf="http://www.w3.org/1999/02/22-rdf-syntax-ns#"
   xmlns:svg="http://www.w3.org/2000/svg"
   xmlns="http://www.w3.org/2000/svg"
   xmlns:sodipodi="http://sodipodi.sourceforge.net/DTD/sodipodi-0.dtd"
   xmlns:inkscape="http://www.inkscape.org/namespaces/inkscape"
   width="1862.7999"
   height="1382.8"
   viewBox="0 0 492.86581 365.86585"
   version="1.1"
   id="svg8"
   inkscape:export-filename="C:\Users\厂永刄先生\Documents\GXI3CW2\JáÈŭcèŭ\N̂i\熊本県\章ﾈｵﾝ.png"
   inkscape:export-xdpi="96"
   inkscape:export-ydpi="96"
   inkscape:version="0.92.4 (5da689c313, 2019-01-14)"
   sodipodi:docname="章ﾈｵﾝ.svg">
  <defs
     id="defs2">
    <filter
       inkscape:collect="always"
       style="color-interpolation-filters:sRGB"
       id="filter826"
       x="-0.025714286"
       width="1.0514286"
       y="-0.035999998"
       height="1.072">
      <feGaussianBlur
         inkscape:collect="always"
         stdDeviation="4.7625"
         id="feGaussianBlur828" />
    </filter>
    <filter
       inkscape:collect="always"
       style="color-interpolation-filters:sRGB"
       id="filter832"
       x="-0.035999998"
       width="1.072"
       y="-0.0504"
       height="1.1008">
      <feGaussianBlur
         inkscape:collect="always"
         stdDeviation="6.6675"
         id="feGaussianBlur834" />
    </filter>
    <filter
       inkscape:collect="always"
       style="color-interpolation-filters:sRGB"
       id="filter838"
       x="-0.051428571"
       width="1.1028571"
       y="-0.071999997"
       height="1.1440001">
      <feGaussianBlur
         inkscape:collect="always"
         stdDeviation="9.525"
         id="feGaussianBlur840" />
    </filter>
  </defs>
  <sodipodi:namedview
     id="base"
     pagecolor="#000000"
     bordercolor="#666666"
     borderopacity="1.0"
     inkscape:pageopacity="1"
     inkscape:pageshadow="2"
     inkscape:zoom="0.39627038"
     inkscape:cx="931.39998"
     inkscape:cy="691.4"
     inkscape:document-units="px"
     inkscape:current-layer="layer1"
     showgrid="false"
     units="px"
     fit-margin-top="5"
     fit-margin-left="5"
     fit-margin-right="5"
     fit-margin-bottom="5"
     inkscape:showpageshadow="false"
     inkscape:snap-intersection-paths="true"
     inkscape:object-paths="false"
     inkscape:pagecheckerboard="true"
     inkscape:snap-smooth-nodes="true"
     inkscape:window-width="1366"
     inkscape:window-height="745"
     inkscape:window-x="-8"
     inkscape:window-y="-8"
     inkscape:window-maximized="1"
     inkscape:object-nodes="true"
     inkscape:snap-nodes="true" />
  <metadata
     id="metadata5">
    <rdf:RDF>
      <cc:Work
         rdf:about="">
        <dc:format>image/svg+xml</dc:format>
        <dc:type
           rdf:resource="http://purl.org/dc/dcmitype/StillImage" />
        <dc:title />
      </cc:Work>
    </rdf:RDF>
  </metadata>
  <g
     inkscape:label="レイヤー 1"
     inkscape:groupmode="layer"
     id="layer1"
     transform="translate(55.554938,-354.45994)">
    <path
       sodipodi:nodetypes="cscccccsscc"
       inkscape:connector-curvature="0"
       id="path836"
       d="m 413.12798,537.39287 c 0,-87.6752 -71.07478,-158.75001 -158.75,-158.75001 h -228.6 l -57.150001,222.25001 m 140.209461,0 C 100.44473,586.70403 95.627979,570.14955 95.627979,552.47006 m 95.250001,-95.25 c 52.60512,-8e-5 95.25,42.6448 95.25,95.24992 0,52.60513 -42.64488,95.25001 -95.25,95.25001 -34.92473,0 -65.45944,-18.79648 -82.03943,-46.82506 24.49742,56.06632 80.44265,95.24793 145.53943,95.24793"
       style="opacity:1;fill:none;fill-opacity:1;fill-rule:evenodd;stroke:#ff0000;stroke-width:10.58333302;stroke-linecap:round;stroke-linejoin:round;stroke-miterlimit:4;stroke-dasharray:none;stroke-dashoffset:0;stroke-opacity:1;filter:url(#filter838)" />
    <path
       style="opacity:1;fill:none;fill-opacity:1;fill-rule:evenodd;stroke:#ff0000;stroke-width:10.58333302;stroke-linecap:round;stroke-linejoin:round;stroke-miterlimit:4;stroke-dasharray:none;stroke-dashoffset:0;stroke-opacity:1;filter:url(#filter832)"
       d="m 413.12798,537.39287 c 0,-87.6752 -71.07478,-158.75001 -158.75,-158.75001 h -228.6 l -57.150001,222.25001 m 140.209461,0 C 100.44473,586.70403 95.627979,570.14955 95.627979,552.47006 m 95.250001,-95.25 c 52.60512,-8e-5 95.25,42.6448 95.25,95.24992 0,52.60513 -42.64488,95.25001 -95.25,95.25001 -34.92473,0 -65.45944,-18.79648 -82.03943,-46.82506 24.49742,56.06632 80.44265,95.24793 145.53943,95.24793"
       id="path830"
       inkscape:connector-curvature="0"
       sodipodi:nodetypes="cscccccsscc" />
    <path
       sodipodi:nodetypes="cscccccsscc"
       inkscape:connector-curvature="0"
       id="path824"
       d="m 413.12798,537.39287 c 0,-87.6752 -71.07478,-158.75001 -158.75,-158.75001 h -228.6 l -57.150001,222.25001 m 140.209461,0 C 100.44473,586.70403 95.627979,570.14955 95.627979,552.47006 m 95.250001,-95.25 c 52.60512,-8e-5 95.25,42.6448 95.25,95.24992 0,52.60513 -42.64488,95.25001 -95.25,95.25001 -34.92473,0 -65.45944,-18.79648 -82.03943,-46.82506 24.49742,56.06632 80.44265,95.24793 145.53943,95.24793"
       style="opacity:1;fill:none;fill-opacity:1;fill-rule:evenodd;stroke:#ff0000;stroke-width:10.58333302;stroke-linecap:round;stroke-linejoin:round;stroke-miterlimit:4;stroke-dasharray:none;stroke-dashoffset:0;stroke-opacity:1;filter:url(#filter826)" />
    <path
       style="opacity:1;fill:none;fill-opacity:1;fill-rule:evenodd;stroke:#ffc0c0;stroke-width:5.29166651;stroke-linecap:round;stroke-linejoin:round;stroke-miterlimit:4;stroke-dasharray:none;stroke-dashoffset:0;stroke-opacity:1"
       d="m 413.12798,537.39287 c 0,-87.6752 -71.07478,-158.75001 -158.75,-158.75001 h -228.6 l -57.150001,222.25001 m 140.209461,0 C 100.44473,586.70403 95.627979,570.14955 95.627979,552.47006 m 95.250001,-95.25 c 52.60512,-8e-5 95.25,42.6448 95.25,95.24992 0,52.60513 -42.64488,95.25001 -95.25,95.25001 -34.92473,0 -65.45944,-18.79648 -82.03943,-46.82506 24.49742,56.06632 80.44265,95.24793 145.53943,95.24793"
       id="path815-6"
       inkscape:connector-curvature="0"
       sodipodi:nodetypes="cscccccsscc" />
  </g>
</svg>
