<?xml version="1.0" encoding="UTF-8" standalone="no"?>
<!-- Created with Inkscape (http://www.inkscape.org/) -->

<svg
   xmlns:dc="http://purl.org/dc/elements/1.1/"
   xmlns:cc="http://creativecommons.org/ns#"
   xmlns:rdf="http://www.w3.org/1999/02/22-rdf-syntax-ns#"
   xmlns:svg="http://www.w3.org/2000/svg"
   xmlns="http://www.w3.org/2000/svg"
   xmlns:sodipodi="http://sodipodi.sourceforge.net/DTD/sodipodi-0.dtd"
   xmlns:inkscape="http://www.inkscape.org/namespaces/inkscape"
   width="1681.9335"
   height="1686.0309"
   viewBox="0 0 445.01156 446.09568"
   version="1.1"
   id="svg8"
   inkscape:export-filename="C:\Users\厂永刄先生\Documents\GXI3CW2\JáÈŭcèŭ\N̂i\長野県\章ﾈｵﾝ.png"
   inkscape:export-xdpi="96"
   inkscape:export-ydpi="96"
   inkscape:version="0.92.4 (5da689c313, 2019-01-14)"
   sodipodi:docname="章ﾈｵﾝ.svg">
  <defs
     id="defs2">
    <filter
       inkscape:collect="always"
       style="color-interpolation-filters:sRGB"
       id="filter819"
       x="-0.030041179"
       width="1.0600824"
       y="-0.029958934"
       height="1.0599179">
      <feGaussianBlur
         inkscape:collect="always"
         stdDeviation="18.682837"
         id="feGaussianBlur821" />
    </filter>
    <filter
       inkscape:collect="always"
       style="color-interpolation-filters:sRGB"
       id="filter827"
       x="-0.042057652"
       width="1.0841153"
       y="-0.041942507"
       height="1.083885">
      <feGaussianBlur
         inkscape:collect="always"
         stdDeviation="26.155971"
         id="feGaussianBlur829" />
    </filter>
    <filter
       inkscape:collect="always"
       style="color-interpolation-filters:sRGB"
       id="filter833"
       x="-0.060082357"
       width="1.1201648"
       y="-0.059917867"
       height="1.1198357">
      <feGaussianBlur
         inkscape:collect="always"
         stdDeviation="37.365673"
         id="feGaussianBlur835" />
    </filter>
  </defs>
  <sodipodi:namedview
     id="base"
     pagecolor="#000000"
     bordercolor="#666666"
     borderopacity="1.0"
     inkscape:pageopacity="1"
     inkscape:pageshadow="2"
     inkscape:zoom="0.30222222"
     inkscape:cx="1272.9666"
     inkscape:cy="843.01542"
     inkscape:document-units="px"
     inkscape:current-layer="layer1"
     showgrid="false"
     units="px"
     fit-margin-top="5"
     fit-margin-left="5"
     fit-margin-right="5"
     fit-margin-bottom="5"
     inkscape:showpageshadow="false"
     inkscape:snap-intersection-paths="true"
     inkscape:object-paths="false"
     inkscape:pagecheckerboard="true"
     inkscape:snap-smooth-nodes="true"
     inkscape:window-width="1366"
     inkscape:window-height="745"
     inkscape:window-x="-8"
     inkscape:window-y="-8"
     inkscape:window-maximized="1"
     inkscape:object-nodes="true"
     inkscape:snap-nodes="true" />
  <metadata
     id="metadata5">
    <rdf:RDF>
      <cc:Work
         rdf:about="">
        <dc:format>image/svg+xml</dc:format>
        <dc:type
           rdf:resource="http://purl.org/dc/dcmitype/StillImage" />
        <dc:title></dc:title>
      </cc:Work>
    </rdf:RDF>
  </metadata>
  <g
     inkscape:label="レイヤー 1"
     inkscape:groupmode="layer"
     id="layer1"
     transform="translate(-22.347228,-314.34501)">
    <path
       style="opacity:1;fill:none;fill-opacity:1;fill-rule:evenodd;stroke:#ff6200;stroke-width:40;stroke-linecap:round;stroke-linejoin:round;stroke-miterlimit:4;stroke-dasharray:none;stroke-dashoffset:0;stroke-opacity:1;paint-order:normal;filter:url(#filter833)"
       d="M 1232.2793,975.07613 H 189.71094 c 30.07185,302.56827 239.96584,552.21757 521.2871,640.57817 M 1682.2891,975.07613 H 1382.8945 C 1359.7109,1255.7881 1207.712,1499.9583 986.13672,1648.3378 M 1682.2891,824.92383 C 1646.2564,462.38075 1352.0496,175.81515 986.13672,151.66211 1207.712,300.04164 1359.7109,544.2118 1382.8945,824.92383 m -150.6152,0 C 1202.2065,522.35512 992.32061,272.70492 710.99805,184.3457 429.67678,272.70622 219.78279,522.35554 189.71094,824.92383"
       transform="matrix(0.26458334,0,0,0.26458334,-2.7970067,299.26786)"
       id="path831"
       inkscape:connector-curvature="0"
       sodipodi:nodetypes="cccccccccccc" />
    <path
       sodipodi:nodetypes="cccccccccccc"
       inkscape:connector-curvature="0"
       id="path825"
       transform="matrix(0.26458334,0,0,0.26458334,-2.7970067,299.26786)"
       d="M 1232.2793,975.07613 H 189.71094 c 30.07185,302.56827 239.96584,552.21757 521.2871,640.57817 M 1682.2891,975.07613 H 1382.8945 C 1359.7109,1255.7881 1207.712,1499.9583 986.13672,1648.3378 M 1682.2891,824.92383 C 1646.2564,462.38075 1352.0496,175.81515 986.13672,151.66211 1207.712,300.04164 1359.7109,544.2118 1382.8945,824.92383 m -150.6152,0 C 1202.2065,522.35512 992.32061,272.70492 710.99805,184.3457 429.67678,272.70622 219.78279,522.35554 189.71094,824.92383"
       style="opacity:1;fill:none;fill-opacity:1;fill-rule:evenodd;stroke:#ff6200;stroke-width:40;stroke-linecap:round;stroke-linejoin:round;stroke-miterlimit:4;stroke-dasharray:none;stroke-dashoffset:0;stroke-opacity:1;paint-order:normal;filter:url(#filter827)" />
    <path
       style="opacity:1;fill:none;fill-opacity:1;fill-rule:evenodd;stroke:#ff6200;stroke-width:40;stroke-linecap:round;stroke-linejoin:round;stroke-miterlimit:4;stroke-dasharray:none;stroke-dashoffset:0;stroke-opacity:1;paint-order:normal;filter:url(#filter819)"
       d="M 1232.2793,975.07613 H 189.71094 c 30.07185,302.56827 239.96584,552.21757 521.2871,640.57817 M 1682.2891,975.07613 H 1382.8945 C 1359.7109,1255.7881 1207.712,1499.9583 986.13672,1648.3378 M 1682.2891,824.92383 C 1646.2564,462.38075 1352.0496,175.81515 986.13672,151.66211 1207.712,300.04164 1359.7109,544.2118 1382.8945,824.92383 m -150.6152,0 C 1202.2065,522.35512 992.32061,272.70492 710.99805,184.3457 429.67678,272.70622 219.78279,522.35554 189.71094,824.92383"
       transform="matrix(0.26458334,0,0,0.26458334,-2.7970067,299.26786)"
       id="path817"
       inkscape:connector-curvature="0"
       sodipodi:nodetypes="cccccccccccc" />
    <path
       sodipodi:nodetypes="cccccccccccc"
       inkscape:connector-curvature="0"
       id="path847"
       transform="matrix(0.26458334,0,0,0.26458334,-2.7970067,299.26786)"
       d="M 1232.2793,975.07613 H 189.71094 c 30.07185,302.56827 239.96584,552.21757 521.2871,640.57817 M 1682.2891,975.07613 H 1382.8945 C 1359.7109,1255.7881 1207.712,1499.9583 986.13672,1648.3378 M 1682.2891,824.92383 C 1646.2564,462.38075 1352.0496,175.81515 986.13672,151.66211 1207.712,300.04164 1359.7109,544.2118 1382.8945,824.92383 m -150.6152,0 C 1202.2065,522.35512 992.32061,272.70492 710.99805,184.3457 429.67678,272.70622 219.78279,522.35554 189.71094,824.92383"
       style="opacity:1;fill:none;fill-opacity:1;fill-rule:evenodd;stroke:#ffd8c0;stroke-width:20;stroke-linecap:round;stroke-linejoin:round;stroke-miterlimit:4;stroke-dasharray:none;stroke-dashoffset:0;stroke-opacity:1;paint-order:normal" />
  </g>
</svg>
