<?xml version="1.0" encoding="UTF-8" standalone="no"?>
<!-- Created with Inkscape (http://www.inkscape.org/) -->

<svg
   xmlns:dc="http://purl.org/dc/elements/1.1/"
   xmlns:cc="http://creativecommons.org/ns#"
   xmlns:rdf="http://www.w3.org/1999/02/22-rdf-syntax-ns#"
   xmlns:svg="http://www.w3.org/2000/svg"
   xmlns="http://www.w3.org/2000/svg"
   xmlns:sodipodi="http://sodipodi.sourceforge.net/DTD/sodipodi-0.dtd"
   xmlns:inkscape="http://www.inkscape.org/namespaces/inkscape"
   width="2736"
   height="1800"
   viewBox="0 0 723.9 476.25001"
   version="1.1"
   id="svg8"
   inkscape:export-filename="C:\Users\厂永刄先生\Documents\GXI3CW2\JáÈŭcèŭ\Èŭmen\Í\意軍.png"
   inkscape:export-xdpi="96"
   inkscape:export-ydpi="96"
   inkscape:version="0.92.4 (5da689c313, 2019-01-14)"
   sodipodi:docname="長野.svg">
  <defs
     id="defs2" />
  <sodipodi:namedview
     id="base"
     pagecolor="#ffffff"
     bordercolor="#666666"
     borderopacity="1.0"
     inkscape:pageopacity="0.0"
     inkscape:pageshadow="2"
     inkscape:zoom="0.25273333"
     inkscape:cx="1350.7059"
     inkscape:cy="899.99997"
     inkscape:document-units="px"
     inkscape:current-layer="layer1"
     showgrid="false"
     units="px"
     fit-margin-top="0"
     fit-margin-left="0"
     fit-margin-right="0"
     fit-margin-bottom="0"
     inkscape:showpageshadow="false"
     inkscape:snap-intersection-paths="true"
     inkscape:object-paths="false"
     inkscape:pagecheckerboard="true"
     inkscape:snap-smooth-nodes="true"
     inkscape:window-width="1366"
     inkscape:window-height="745"
     inkscape:window-x="-8"
     inkscape:window-y="-8"
     inkscape:window-maximized="1"
     inkscape:object-nodes="true"
     inkscape:snap-nodes="true" />
  <metadata
     id="metadata5">
    <rdf:RDF>
      <cc:Work
         rdf:about="">
        <dc:format>image/svg+xml</dc:format>
        <dc:type
           rdf:resource="http://purl.org/dc/dcmitype/StillImage" />
        <dc:title></dc:title>
      </cc:Work>
    </rdf:RDF>
  </metadata>
  <g
     inkscape:label="レイヤー 1"
     inkscape:groupmode="layer"
     id="layer1"
     transform="translate(2.7970067,-299.26786)">
    <path
       style="fill:#ffffff;fill-opacity:1;stroke:none;stroke-width:0.51166773px;stroke-linecap:butt;stroke-linejoin:miter;stroke-opacity:1"
       d="m 6.7279933,299.26786 h -9.525 v 476.25 h 9.525 z"
       id="path1079"
       inkscape:connector-curvature="0"
       sodipodi:nodetypes="ccccc" />
    <path
       style="opacity:1;fill:#f4682f;fill-opacity:1;fill-rule:evenodd;stroke:none;stroke-width:51.22410583;stroke-linecap:round;stroke-linejoin:round;stroke-miterlimit:4;stroke-dasharray:none;stroke-dashoffset:0;stroke-opacity:1;paint-order:normal"
       d="m 189.71094,975.07613 c 30.07185,302.56827 239.96584,552.21757 521.2871,640.57817 281.32255,-88.3593 491.20846,-338.0095 521.28126,-640.57817 z m 1193.18356,0 c -23.1836,280.71197 -175.1825,524.88217 -396.75778,673.26167 365.91288,-24.153 660.11968,-310.7186 696.15238,-673.26167 z m 299.3946,-150.1523 C 1646.2564,462.38075 1352.0496,175.81515 986.13672,151.66211 1207.712,300.04164 1359.7109,544.2118 1382.8945,824.92383 Z m -450.0098,0 C 1202.2065,522.35512 992.32061,272.70492 710.99805,184.3457 429.67678,272.70622 219.78279,522.35554 189.71094,824.92383 Z M 35.999999,0 V 1800 H 2735.9999 V 0 Z"
       transform="matrix(0.26458334,0,0,0.26458334,-2.7970067,299.26786)"
       id="path815"
       inkscape:connector-curvature="0"
       sodipodi:nodetypes="ccccccccccccccccccccc" />
    <path
       sodipodi:nodetypes="cccccccccccccccc"
       inkscape:connector-curvature="0"
       id="path847"
       transform="matrix(0.26458334,0,0,0.26458334,-2.7970067,299.26786)"
       d="m 189.71094,975.07613 c 30.07185,302.56827 239.96584,552.21757 521.2871,640.57817 281.32255,-88.3593 491.20846,-338.0095 521.28126,-640.57817 z m 1193.18356,0 c -23.1836,280.71197 -175.1825,524.88217 -396.75778,673.26167 365.91288,-24.153 660.11968,-310.7186 696.15238,-673.26167 z m 299.3946,-150.1523 C 1646.2564,462.38075 1352.0496,175.81515 986.13672,151.66211 1207.712,300.04164 1359.7109,544.2118 1382.8945,824.92383 Z m -450.0098,0 C 1202.2065,522.35512 992.32061,272.70492 710.99805,184.3457 429.67678,272.70622 219.78279,522.35554 189.71094,824.92383 Z"
       style="opacity:1;fill:#ffffff;fill-opacity:1;fill-rule:evenodd;stroke:none;stroke-width:51.22410583;stroke-linecap:round;stroke-linejoin:round;stroke-miterlimit:4;stroke-dasharray:none;stroke-dashoffset:0;stroke-opacity:1;paint-order:normal" />
  </g>
</svg>
