<?xml version="1.0" encoding="UTF-8" standalone="no"?>
<!-- Created with Inkscape (http://www.inkscape.org/) -->

<svg
   xmlns:dc="http://purl.org/dc/elements/1.1/"
   xmlns:cc="http://creativecommons.org/ns#"
   xmlns:rdf="http://www.w3.org/1999/02/22-rdf-syntax-ns#"
   xmlns:svg="http://www.w3.org/2000/svg"
   xmlns="http://www.w3.org/2000/svg"
   xmlns:sodipodi="http://sodipodi.sourceforge.net/DTD/sodipodi-0.dtd"
   xmlns:inkscape="http://www.inkscape.org/namespaces/inkscape"
   width="1147.995"
   height="1025.3583"
   viewBox="0 0 303.74034 271.29271"
   version="1.1"
   id="svg8"
   inkscape:export-filename="C:\Users\厂永刄先生\Documents\GXI3CW2\JáÈŭcèŭ\N̂i\徳島県\章ﾈｵﾝ.png"
   inkscape:export-xdpi="96"
   inkscape:export-ydpi="96"
   inkscape:version="0.92.4 (5da689c313, 2019-01-14)"
   sodipodi:docname="章ﾈｵﾝ.svg">
  <defs
     id="defs2">
    <filter
       inkscape:collect="always"
       style="color-interpolation-filters:sRGB"
       id="filter822"
       x="-0.034032762"
       width="1.0680655"
       y="-0.026821721"
       height="1.0536433">
      <feGaussianBlur
         inkscape:collect="always"
         stdDeviation="6.8171875"
         id="feGaussianBlur824" />
    </filter>
    <filter
       inkscape:collect="always"
       style="color-interpolation-filters:sRGB"
       id="filter828"
       x="-0.047645867"
       width="1.0952917"
       y="-0.037550408"
       height="1.0751008">
      <feGaussianBlur
         inkscape:collect="always"
         stdDeviation="9.5440625"
         id="feGaussianBlur830" />
    </filter>
    <filter
       inkscape:collect="always"
       style="color-interpolation-filters:sRGB"
       id="filter850"
       x="-0.068065524"
       width="1.136131"
       y="-0.053643443"
       height="1.1072869">
      <feGaussianBlur
         inkscape:collect="always"
         stdDeviation="13.634375"
         id="feGaussianBlur852" />
    </filter>
    <filter
       inkscape:collect="always"
       style="color-interpolation-filters:sRGB"
       id="filter860"
       x="-0.028201168"
       width="1.0564023"
       y="-0.032043945"
       height="1.0640879">
      <feGaussianBlur
         inkscape:collect="always"
         stdDeviation="12.01648"
         id="feGaussianBlur862" />
    </filter>
    <filter
       inkscape:collect="always"
       style="color-interpolation-filters:sRGB"
       id="filter866"
       x="-0.039481636"
       width="1.0789633"
       y="-0.044861525"
       height="1.089723">
      <feGaussianBlur
         inkscape:collect="always"
         stdDeviation="16.823072"
         id="feGaussianBlur868" />
    </filter>
    <filter
       inkscape:collect="always"
       style="color-interpolation-filters:sRGB"
       id="filter872"
       x="-0.056402337"
       width="1.1128047"
       y="-0.06408789"
       height="1.1281759">
      <feGaussianBlur
         inkscape:collect="always"
         stdDeviation="24.032959"
         id="feGaussianBlur874" />
    </filter>
  </defs>
  <sodipodi:namedview
     id="base"
     pagecolor="#000000"
     bordercolor="#666666"
     borderopacity="1.0"
     inkscape:pageopacity="1"
     inkscape:pageshadow="2"
     inkscape:zoom="0.53195818"
     inkscape:cx="573.99748"
     inkscape:cy="512.67918"
     inkscape:document-units="px"
     inkscape:current-layer="layer1"
     showgrid="false"
     units="px"
     fit-margin-top="5"
     fit-margin-left="5"
     fit-margin-right="5"
     fit-margin-bottom="5"
     inkscape:showpageshadow="false"
     inkscape:snap-intersection-paths="true"
     inkscape:object-paths="false"
     inkscape:pagecheckerboard="true"
     inkscape:snap-smooth-nodes="true"
     inkscape:window-width="1366"
     inkscape:window-height="745"
     inkscape:window-x="-8"
     inkscape:window-y="-8"
     inkscape:window-maximized="1"
     inkscape:object-nodes="true"
     inkscape:snap-nodes="true"
     showguides="false" />
  <metadata
     id="metadata5">
    <rdf:RDF>
      <cc:Work
         rdf:about="">
        <dc:format>image/svg+xml</dc:format>
        <dc:type
           rdf:resource="http://purl.org/dc/dcmitype/StillImage" />
        <dc:title></dc:title>
      </cc:Work>
    </rdf:RDF>
  </metadata>
  <g
     inkscape:label="レイヤー 1"
     inkscape:groupmode="layer"
     id="layer1"
     transform="translate(-95.042128,-401.74652)">
    <path
       sodipodi:nodetypes="ccccsccccsc"
       inkscape:connector-curvature="0"
       id="path870"
       transform="matrix(0.26458334,0,0,0.26458334,-112.33452,299.26786)"
       d="m 1436.8574,1335.125 -177,-244.8906 C 1179.679,1064.1807 1121.7148,988.86593 1121.7148,900 m 747.3868,-450 h -547.3868 c -54.5995,0 -106.9257,9.7285 -155.3457,27.53906 L 1146.4648,450 H 846.46484 L 969.37891,620.05664 C 908.24684,696.89493 871.71484,794.17964 871.71484,900 c 0,248.5281 201.47176,450 449.99996,450"
       style="opacity:1;fill:none;fill-opacity:1;fill-rule:evenodd;stroke:#009eff;stroke-width:40;stroke-linecap:round;stroke-linejoin:round;stroke-miterlimit:4;stroke-dasharray:none;stroke-dashoffset:0;stroke-opacity:1;filter:url(#filter872)" />
    <path
       style="opacity:1;fill:none;fill-opacity:1;fill-rule:evenodd;stroke:#ffc300;stroke-width:40;stroke-linecap:round;stroke-linejoin:round;stroke-miterlimit:4;stroke-dasharray:none;stroke-dashoffset:0;stroke-opacity:1;filter:url(#filter850)"
       d="m 1771.7148,900 c 0,-56.35303 -10.3604,-110.28588 -29.2773,-160 h -301.1289 c 50.5143,37.68578 80.3714,96.97692 80.4062,160 0.061,110.4569 -89.5431,200 -200,200 -1.8395,0 -3.6723,-0.029 -5.5,-0.078 l 180.75,250.078 m 300,0 -122.914,-170.0586"
       transform="matrix(0.26458334,0,0,0.26458334,-112.33452,299.26786)"
       id="path832"
       inkscape:connector-curvature="0"
       sodipodi:nodetypes="cccsscccc" />
    <path
       style="opacity:1;fill:none;fill-opacity:1;fill-rule:evenodd;stroke:#009eff;stroke-width:40;stroke-linecap:round;stroke-linejoin:round;stroke-miterlimit:4;stroke-dasharray:none;stroke-dashoffset:0;stroke-opacity:1;filter:url(#filter866)"
       d="m 1436.8574,1335.125 -177,-244.8906 C 1179.679,1064.1807 1121.7148,988.86593 1121.7148,900 m 747.3868,-450 h -547.3868 c -54.5995,0 -106.9257,9.7285 -155.3457,27.53906 L 1146.4648,450 H 846.46484 L 969.37891,620.05664 C 908.24684,696.89493 871.71484,794.17964 871.71484,900 c 0,248.5281 201.47176,450 449.99996,450"
       transform="matrix(0.26458334,0,0,0.26458334,-112.33452,299.26786)"
       id="path864"
       inkscape:connector-curvature="0"
       sodipodi:nodetypes="ccccsccccsc" />
    <path
       sodipodi:nodetypes="cccsscccc"
       inkscape:connector-curvature="0"
       id="path826"
       transform="matrix(0.26458334,0,0,0.26458334,-112.33452,299.26786)"
       d="m 1771.7148,900 c 0,-56.35303 -10.3604,-110.28588 -29.2773,-160 h -301.1289 c 50.5143,37.68578 80.3714,96.97692 80.4062,160 0.061,110.4569 -89.5431,200 -200,200 -1.8395,0 -3.6723,-0.029 -5.5,-0.078 l 180.75,250.078 m 300,0 -122.914,-170.0586"
       style="opacity:1;fill:none;fill-opacity:1;fill-rule:evenodd;stroke:#ffc300;stroke-width:40;stroke-linecap:round;stroke-linejoin:round;stroke-miterlimit:4;stroke-dasharray:none;stroke-dashoffset:0;stroke-opacity:1;filter:url(#filter828)" />
    <path
       sodipodi:nodetypes="ccccsccccsc"
       inkscape:connector-curvature="0"
       id="path854"
       transform="matrix(0.26458334,0,0,0.26458334,-112.33452,299.26786)"
       d="m 1436.8574,1335.125 -177,-244.8906 C 1179.679,1064.1807 1121.7148,988.86593 1121.7148,900 m 747.3868,-450 h -547.3868 c -54.5995,0 -106.9257,9.7285 -155.3457,27.53906 L 1146.4648,450 H 846.46484 L 969.37891,620.05664 C 908.24684,696.89493 871.71484,794.17964 871.71484,900 c 0,248.5281 201.47176,450 449.99996,450"
       style="opacity:1;fill:none;fill-opacity:1;fill-rule:evenodd;stroke:#009eff;stroke-width:40;stroke-linecap:round;stroke-linejoin:round;stroke-miterlimit:4;stroke-dasharray:none;stroke-dashoffset:0;stroke-opacity:1;filter:url(#filter860)" />
    <path
       style="opacity:1;fill:none;fill-opacity:1;fill-rule:evenodd;stroke:#ffc300;stroke-width:40;stroke-linecap:round;stroke-linejoin:round;stroke-miterlimit:4;stroke-dasharray:none;stroke-dashoffset:0;stroke-opacity:1;filter:url(#filter822)"
       d="m 1771.7148,900 c 0,-56.35303 -10.3604,-110.28588 -29.2773,-160 h -301.1289 c 50.5143,37.68578 80.3714,96.97692 80.4062,160 0.061,110.4569 -89.5431,200 -200,200 -1.8395,0 -3.6723,-0.029 -5.5,-0.078 l 180.75,250.078 m 300,0 -122.914,-170.0586"
       transform="matrix(0.26458334,0,0,0.26458334,-112.33452,299.26786)"
       id="path820"
       inkscape:connector-curvature="0"
       sodipodi:nodetypes="cccsscccc" />
    <path
       style="opacity:1;fill:none;fill-opacity:1;fill-rule:evenodd;stroke:#c0e7ff;stroke-width:20;stroke-linecap:round;stroke-linejoin:round;stroke-miterlimit:4;stroke-dasharray:none;stroke-dashoffset:0;stroke-opacity:1"
       d="m 1436.8574,1335.125 -177,-244.8906 C 1179.679,1064.1807 1121.7148,988.86593 1121.7148,900 m 747.3868,-450 h -547.3868 c -54.5995,0 -106.9257,9.7285 -155.3457,27.53906 L 1146.4648,450 H 846.46484 L 969.37891,620.05664 C 908.24684,696.89493 871.71484,794.17964 871.71484,900 c 0,248.5281 201.47176,450 449.99996,450"
       transform="matrix(0.26458334,0,0,0.26458334,-112.33452,299.26786)"
       id="path815"
       inkscape:connector-curvature="0"
       sodipodi:nodetypes="ccccsccccsc" />
    <path
       sodipodi:nodetypes="cccsscccc"
       inkscape:connector-curvature="0"
       id="path818"
       transform="matrix(0.26458334,0,0,0.26458334,-112.33452,299.26786)"
       d="m 1771.7148,900 c 0,-56.35303 -10.3604,-110.28588 -29.2773,-160 h -301.1289 c 50.5143,37.68578 80.3714,96.97692 80.4062,160 0.061,110.4569 -89.5431,200 -200,200 -1.8395,0 -3.6723,-0.029 -5.5,-0.078 l 180.75,250.078 m 300,0 -122.914,-170.0586"
       style="opacity:1;fill:none;fill-opacity:1;fill-rule:evenodd;stroke:#fff0c0;stroke-width:20;stroke-linecap:round;stroke-linejoin:round;stroke-miterlimit:4;stroke-dasharray:none;stroke-dashoffset:0;stroke-opacity:1" />
  </g>
</svg>
