<?xml version="1.0" encoding="UTF-8" standalone="no"?>
<!-- Created with Inkscape (http://www.inkscape.org/) -->

<svg
   xmlns:dc="http://purl.org/dc/elements/1.1/"
   xmlns:cc="http://creativecommons.org/ns#"
   xmlns:rdf="http://www.w3.org/1999/02/22-rdf-syntax-ns#"
   xmlns:svg="http://www.w3.org/2000/svg"
   xmlns="http://www.w3.org/2000/svg"
   xmlns:sodipodi="http://sodipodi.sourceforge.net/DTD/sodipodi-0.dtd"
   xmlns:inkscape="http://www.inkscape.org/namespaces/inkscape"
   width="3636"
   height="1800"
   viewBox="0 0 962.02499 476.25001"
   version="1.1"
   id="svg8"
   inkscape:export-filename="C:\Users\厂永刄先生\Documents\GXI3CW2\JáÈŭcèŭ\Maqkàla\Maqkàla.png"
   inkscape:export-xdpi="96"
   inkscape:export-ydpi="96"
   inkscape:version="0.92.4 (5da689c313, 2019-01-14)"
   sodipodi:docname="1959.svg">
  <defs
     id="defs2" />
  <sodipodi:namedview
     id="base"
     pagecolor="#ffffff"
     bordercolor="#666666"
     borderopacity="1.0"
     inkscape:pageopacity="0.0"
     inkscape:pageshadow="2"
     inkscape:zoom="0.24532453"
     inkscape:cx="1818"
     inkscape:cy="900"
     inkscape:document-units="px"
     inkscape:current-layer="layer1"
     showgrid="false"
     units="px"
     fit-margin-top="0"
     fit-margin-left="0"
     fit-margin-right="0"
     fit-margin-bottom="0"
     inkscape:showpageshadow="false"
     inkscape:snap-intersection-paths="false"
     inkscape:object-paths="false"
     inkscape:pagecheckerboard="true"
     inkscape:snap-smooth-nodes="false"
     inkscape:window-width="1366"
     inkscape:window-height="745"
     inkscape:window-x="-8"
     inkscape:window-y="-8"
     inkscape:window-maximized="1"
     inkscape:object-nodes="true"
     showguides="false" />
  <metadata
     id="metadata5">
    <rdf:RDF>
      <cc:Work
         rdf:about="">
        <dc:format>image/svg+xml</dc:format>
        <dc:type
           rdf:resource="http://purl.org/dc/dcmitype/StillImage" />
        <dc:title />
      </cc:Work>
    </rdf:RDF>
  </metadata>
  <g
     inkscape:label="レイヤー 1"
     inkscape:groupmode="layer"
     id="layer1"
     transform="translate(112.33452,-299.26786)">
    <path
       sodipodi:nodetypes="zzzzzccccccccccccccccc"
       inkscape:connector-curvature="0"
       id="path850"
       d="m 432.97174,537.39288 c 0,-32.8782 -26.65305,-59.53125 -59.53125,-59.53125 -32.8782,0 -59.53125,26.65305 -59.53125,59.53125 0,32.8782 26.65305,59.53125 59.53125,59.53125 32.8782,0 59.53125,-26.65305 59.53125,-59.53125 z m -34.8726,-59.53125 59.53125,-24.65865 -24.65865,59.53125 59.53125,24.65865 -59.53125,24.65865 24.65865,59.53125 -59.53125,-24.65865 -24.65865,59.53125 -24.65865,-59.53125 -59.53125,24.65865 24.65865,-59.53125 -59.53125,-24.65865 59.53125,-24.65865 -24.65865,-59.53125 59.53125,24.65865 24.65865,-59.53125 z"
       inkscape:transform-center-y="-1.9641796e-05"
       inkscape:transform-center-x="-1.772758e-06"
       style="opacity:1;fill:#ff0000;fill-opacity:1;fill-rule:evenodd;stroke:none;stroke-width:1.93961596;stroke-linecap:round;stroke-linejoin:round;stroke-miterlimit:4;stroke-dasharray:none;stroke-dashoffset:0;stroke-opacity:1;paint-order:normal" />
    <path
       style="fill:#ffffff;fill-opacity:1;stroke:none;stroke-width:0.51166773px;stroke-linecap:butt;stroke-linejoin:miter;stroke-opacity:1"
       d="m -102.80952,299.26786 h -9.525 v 476.25 h 9.525 z"
       id="path819"
       inkscape:connector-curvature="0"
       sodipodi:nodetypes="ccccc" />
    <path
       style="fill:#000000;fill-opacity:1;stroke:none;stroke-width:1.35073507px;stroke-linecap:butt;stroke-linejoin:miter;stroke-opacity:1"
       d="m 214.69048,775.51786 v -476.25 h -317.5 l 0,476.25 z"
       id="path847"
       inkscape:connector-curvature="0"
       sodipodi:nodetypes="ccccc" />
    <path
       style="fill:#00a029;fill-opacity:1;stroke:none;stroke-width:1.35073507px;stroke-linecap:butt;stroke-linejoin:miter;stroke-opacity:1"
       d="m 849.6905,775.51786 v -476.25 h -317.5 v 476.25 z"
       id="path824"
       inkscape:connector-curvature="0"
       sodipodi:nodetypes="ccccc" />
    <path
       style="opacity:1;fill:#ffffff;fill-opacity:1;fill-rule:evenodd;stroke:none;stroke-width:2.38313627;stroke-linecap:round;stroke-linejoin:round;stroke-miterlimit:4;stroke-dasharray:none;stroke-dashoffset:0;stroke-opacity:1;paint-order:normal"
       d="m 373.44049,477.86163 c -32.8782,0 -59.53125,26.65305 -59.53125,59.53125 0,32.8782 26.65305,59.53125 59.53125,59.53125 v -19.84375 c -21.9188,0 -39.6875,-17.7687 -39.6875,-39.6875 0,-21.9188 17.7687,-39.6875 39.6875,-39.6875 z"
       id="path831"
       inkscape:connector-curvature="0"
       sodipodi:nodetypes="csccscc" />
    <path
       style="opacity:1;fill:#ffffff;fill-opacity:1;fill-rule:evenodd;stroke:none;stroke-width:1.93961596;stroke-linecap:round;stroke-linejoin:round;stroke-miterlimit:4;stroke-dasharray:none;stroke-dashoffset:0;stroke-opacity:1;paint-order:normal"
       inkscape:transform-center-x="-1.772758e-06"
       inkscape:transform-center-y="-1.9641796e-05"
       d="m 333.75299,537.39288 c 0,-21.9188 17.7687,-39.6875 39.6875,-39.6875 21.9188,0 39.6875,17.7687 39.6875,39.6875 0,21.9188 -17.7687,39.6875 -39.6875,39.6875 -21.9188,0 -39.6875,-17.7687 -39.6875,-39.6875 z m 99.21875,0 c 0,-32.8782 -26.65305,-59.53125 -59.53125,-59.53125 -32.8782,0 -59.53125,26.65305 -59.53125,59.53125 0,32.8782 26.65305,59.53125 59.53125,59.53125 32.8782,0 59.53125,-26.65305 59.53125,-59.53125 z"
       id="path841"
       inkscape:connector-curvature="0"
       sodipodi:nodetypes="zzzzzzzzzz" />
    <path
       sodipodi:nodetypes="cccccccccccccccccccccc"
       inkscape:connector-curvature="0"
       id="path848"
       d="m 214.69048,299.26786 v 476.25 H 532.1905 v -476.25 z m 183.40866,178.59377 59.53125,-24.65865 -24.65865,59.53125 59.53125,24.65865 -59.53125,24.65865 24.65865,59.53125 -59.53125,-24.65865 -24.65865,59.53125 -24.65865,-59.53125 -59.53125,24.65865 24.65865,-59.53125 -59.53125,-24.65865 59.53125,-24.65865 -24.65865,-59.53125 59.53125,24.65865 24.65865,-59.53125 z"
       inkscape:transform-center-y="-1.9641796e-05"
       inkscape:transform-center-x="-1.772758e-06"
       style="opacity:1;fill:#ffffff;fill-opacity:1;fill-rule:evenodd;stroke:none;stroke-width:1.93961596;stroke-linecap:round;stroke-linejoin:round;stroke-miterlimit:4;stroke-dasharray:none;stroke-dashoffset:0;stroke-opacity:1;paint-order:normal" />
    <path
       sodipodi:nodetypes="zzzzz"
       inkscape:connector-curvature="0"
       id="path852"
       d="m 333.75299,537.39288 c 0,-21.9188 17.7687,-39.6875 39.6875,-39.6875 21.9188,0 39.6875,17.7687 39.6875,39.6875 0,21.9188 -17.7687,39.6875 -39.6875,39.6875 -21.9188,0 -39.6875,-17.7687 -39.6875,-39.6875 z"
       inkscape:transform-center-y="-1.9641796e-05"
       inkscape:transform-center-x="-1.772758e-06"
       style="opacity:1;fill:#ffc000;fill-opacity:1;fill-rule:evenodd;stroke:none;stroke-width:1.93961596;stroke-linecap:round;stroke-linejoin:round;stroke-miterlimit:4;stroke-dasharray:none;stroke-dashoffset:0;stroke-opacity:1;paint-order:normal" />
  </g>
</svg>
