<?xml version="1.0" encoding="UTF-8" standalone="no"?>
<!-- Created with Inkscape (http://www.inkscape.org/) -->

<svg
   width="3636"
   height="1800"
   viewBox="0 0 962.02499 476.25001"
   version="1.1"
   id="svg8"
   inkscape:export-filename="C:\Users\厂永刄先生\Documents\GXI3CW2\JáÈŭcèŭ\Maqkàla\Maqkàla.png"
   inkscape:export-xdpi="96"
   inkscape:export-ydpi="96"
   inkscape:version="1.3 (0e150ed6c4, 2023-07-21)"
   sodipodi:docname="1959.svg"
   xmlns:inkscape="http://www.inkscape.org/namespaces/inkscape"
   xmlns:sodipodi="http://sodipodi.sourceforge.net/DTD/sodipodi-0.dtd"
   xmlns="http://www.w3.org/2000/svg"
   xmlns:svg="http://www.w3.org/2000/svg"
   xmlns:rdf="http://www.w3.org/1999/02/22-rdf-syntax-ns#"
   xmlns:cc="http://creativecommons.org/ns#"
   xmlns:dc="http://purl.org/dc/elements/1.1/">
  <defs
     id="defs2" />
  <sodipodi:namedview
     id="base"
     pagecolor="#ffffff"
     bordercolor="#666666"
     borderopacity="1.0"
     inkscape:pageopacity="0.0"
     inkscape:pageshadow="2"
     inkscape:zoom="0.17347064"
     inkscape:cx="1910.9862"
     inkscape:cy="1288.4025"
     inkscape:document-units="px"
     inkscape:current-layer="layer1"
     showgrid="false"
     units="px"
     fit-margin-top="0"
     fit-margin-left="0"
     fit-margin-right="0"
     fit-margin-bottom="0"
     inkscape:showpageshadow="false"
     inkscape:snap-intersection-paths="false"
     inkscape:object-paths="false"
     inkscape:pagecheckerboard="true"
     inkscape:snap-smooth-nodes="false"
     inkscape:window-width="1920"
     inkscape:window-height="1009"
     inkscape:window-x="-8"
     inkscape:window-y="-8"
     inkscape:window-maximized="1"
     inkscape:object-nodes="true"
     showguides="false"
     inkscape:deskcolor="#505050" />
  <metadata
     id="metadata5">
    <rdf:RDF>
      <cc:Work
         rdf:about="">
        <dc:format>image/svg+xml</dc:format>
        <dc:type
           rdf:resource="http://purl.org/dc/dcmitype/StillImage" />
      </cc:Work>
    </rdf:RDF>
  </metadata>
  <g
     inkscape:label="レイヤー 1"
     inkscape:groupmode="layer"
     id="layer1"
     transform="translate(112.33452,-299.26786)">
    <path
       sodipodi:nodetypes="zzzzzccccccccccccccccc"
       inkscape:connector-curvature="0"
       id="path850"
       d="m 304.38424,537.39288 c 0,-32.8782 26.65305,-59.53125 59.53125,-59.53125 32.8782,0 59.53125,26.65305 59.53125,59.53125 0,32.8782 -26.65305,59.53125 -59.53125,59.53125 -32.8782,0 -59.53125,-26.65305 -59.53125,-59.53125 z m 34.8726,-59.53125 -59.53125,-24.65865 24.65865,59.53125 -59.53125,24.65865 59.53125,24.65865 -24.65865,59.53125 59.53125,-24.65865 24.65865,59.53125 24.65865,-59.53125 59.53125,24.65865 -24.65865,-59.53125 59.53125,-24.65865 -59.53125,-24.65865 24.65865,-59.53125 -59.53125,24.65865 -24.65865,-59.53125 z"
       style="opacity:1;fill:#cd1125;fill-opacity:1;fill-rule:evenodd;stroke:none;stroke-width:1.93962;stroke-linecap:round;stroke-linejoin:round;stroke-miterlimit:4;stroke-dasharray:none;stroke-dashoffset:0;stroke-opacity:1;paint-order:normal" />
    <path
       style="fill:#ffffff;fill-opacity:1;stroke:none;stroke-width:0.511668px;stroke-linecap:butt;stroke-linejoin:miter;stroke-opacity:1"
       d="m 840.1655,299.26786 h 9.525 v 476.25 h -9.525 z"
       id="path819"
       inkscape:connector-curvature="0"
       sodipodi:nodetypes="ccccc" />
    <path
       style="fill:#000000;fill-opacity:1;stroke:none;stroke-width:1.35074px;stroke-linecap:butt;stroke-linejoin:miter;stroke-opacity:1"
       d="m 522.6655,775.51786 v -476.25 h 317.5 v 476.25 z"
       id="path847"
       inkscape:connector-curvature="0"
       sodipodi:nodetypes="ccccc" />
    <path
       style="fill:#017b3d;fill-opacity:1;stroke:none;stroke-width:1.35074px;stroke-linecap:butt;stroke-linejoin:miter;stroke-opacity:1"
       d="m -112.33452,775.51786 v -476.25 h 317.5 v 476.25 z"
       id="path824"
       inkscape:connector-curvature="0"
       sodipodi:nodetypes="ccccc" />
    <path
       style="opacity:1;fill:#ffffff;fill-opacity:1;fill-rule:evenodd;stroke:none;stroke-width:1.93962;stroke-linecap:round;stroke-linejoin:round;stroke-miterlimit:4;stroke-dasharray:none;stroke-dashoffset:0;stroke-opacity:1;paint-order:normal"
       d="m 403.60299,537.39288 c 0,-21.9188 -17.7687,-39.6875 -39.6875,-39.6875 -21.9188,0 -39.6875,17.7687 -39.6875,39.6875 0,21.9188 17.7687,39.6875 39.6875,39.6875 21.9188,0 39.6875,-17.7687 39.6875,-39.6875 z m -99.21875,0 c 0,-32.8782 26.65305,-59.53125 59.53125,-59.53125 32.8782,0 59.53125,26.65305 59.53125,59.53125 0,32.8782 -26.65305,59.53125 -59.53125,59.53125 -32.8782,0 -59.53125,-26.65305 -59.53125,-59.53125 z"
       id="path841"
       inkscape:connector-curvature="0"
       sodipodi:nodetypes="zzzzzzzzzz" />
    <path
       sodipodi:nodetypes="cccccccccccccccccccccc"
       inkscape:connector-curvature="0"
       id="path848"
       d="m 522.6655,299.26786 v 476.25 H 205.16548 v -476.25 z m -183.40866,178.59377 -59.53125,-24.65865 24.65865,59.53125 -59.53125,24.65865 59.53125,24.65865 -24.65865,59.53125 59.53125,-24.65865 24.65865,59.53125 24.65865,-59.53125 59.53125,24.65865 -24.65865,-59.53125 59.53125,-24.65865 -59.53125,-24.65865 24.65865,-59.53125 -59.53125,24.65865 -24.65865,-59.53125 z"
       style="opacity:1;fill:#ffffff;fill-opacity:1;fill-rule:evenodd;stroke:none;stroke-width:1.93962;stroke-linecap:round;stroke-linejoin:round;stroke-miterlimit:4;stroke-dasharray:none;stroke-dashoffset:0;stroke-opacity:1;paint-order:normal" />
    <path
       sodipodi:nodetypes="zzzzz"
       inkscape:connector-curvature="0"
       id="path852"
       d="m 403.60299,537.39288 c 0,-21.9188 -17.7687,-39.6875 -39.6875,-39.6875 -21.9188,0 -39.6875,17.7687 -39.6875,39.6875 0,21.9188 17.7687,39.6875 39.6875,39.6875 21.9188,0 39.6875,-17.7687 39.6875,-39.6875 z"
       style="opacity:1;fill:#ffd307;fill-opacity:1;fill-rule:evenodd;stroke:none;stroke-width:1.93962;stroke-linecap:round;stroke-linejoin:round;stroke-miterlimit:4;stroke-dasharray:none;stroke-dashoffset:0;stroke-opacity:1;paint-order:normal" />
  </g>
</svg>
