<?xml version="1.0" encoding="UTF-8" standalone="no"?>
<!-- Created with Inkscape (http://www.inkscape.org/) -->

<svg
   width="2736"
   height="1800"
   viewBox="0 0 723.89999 476.25001"
   version="1.1"
   id="svg8"
   inkscape:export-filename="C:\Users\厂永刄先生\Documents\GXI3CW2\JáÈŭcèŭ\Maqkàla\Maqkàla.png"
   inkscape:export-xdpi="96"
   inkscape:export-ydpi="96"
   inkscape:version="1.3 (0e150ed6c4, 2023-07-21)"
   sodipodi:docname="iq_1991.svg"
   xmlns:inkscape="http://www.inkscape.org/namespaces/inkscape"
   xmlns:sodipodi="http://sodipodi.sourceforge.net/DTD/sodipodi-0.dtd"
   xmlns="http://www.w3.org/2000/svg"
   xmlns:svg="http://www.w3.org/2000/svg"
   xmlns:rdf="http://www.w3.org/1999/02/22-rdf-syntax-ns#"
   xmlns:cc="http://creativecommons.org/ns#"
   xmlns:dc="http://purl.org/dc/elements/1.1/">
  <defs
     id="defs2" />
  <sodipodi:namedview
     id="base"
     pagecolor="#ffffff"
     bordercolor="#666666"
     borderopacity="1.0"
     inkscape:pageopacity="0.0"
     inkscape:pageshadow="2"
     inkscape:zoom="0.30222222"
     inkscape:cx="1406.25"
     inkscape:cy="1404.5956"
     inkscape:document-units="px"
     inkscape:current-layer="g8"
     showgrid="false"
     units="px"
     fit-margin-top="0"
     fit-margin-left="0"
     fit-margin-right="0"
     fit-margin-bottom="0"
     inkscape:showpageshadow="false"
     inkscape:snap-intersection-paths="true"
     inkscape:object-paths="false"
     inkscape:pagecheckerboard="true"
     inkscape:snap-smooth-nodes="false"
     inkscape:window-width="1920"
     inkscape:window-height="1009"
     inkscape:window-x="-8"
     inkscape:window-y="-8"
     inkscape:window-maximized="1"
     inkscape:object-nodes="true"
     inkscape:deskcolor="#505050" />
  <metadata
     id="metadata5">
    <rdf:RDF>
      <cc:Work
         rdf:about="">
        <dc:format>image/svg+xml</dc:format>
        <dc:type
           rdf:resource="http://purl.org/dc/dcmitype/StillImage" />
      </cc:Work>
    </rdf:RDF>
  </metadata>
  <g
     inkscape:label="レイヤー 1"
     inkscape:groupmode="layer"
     id="layer1"
     transform="translate(112.33452,-299.26786)">
    <path
       sodipodi:nodetypes="ccccc"
       inkscape:connector-curvature="0"
       id="path824"
       d="m -112.33452,458.01786 v 158.75 h 714.375 v -158.75 z"
       style="fill:#ffffff;fill-opacity:1;stroke:none;stroke-width:2.0261px;stroke-linecap:butt;stroke-linejoin:miter;stroke-opacity:1" />
    <path
       style="fill:#cd1125;fill-opacity:1;stroke:none;stroke-width:1.75466px;stroke-linecap:butt;stroke-linejoin:miter;stroke-opacity:1"
       d="m -112.33452,458.01786 v -158.75 h 714.375 v 158.75 z"
       id="path849"
       inkscape:connector-curvature="0"
       sodipodi:nodetypes="ccccc" />
    <path
       style="fill:#ffffff;fill-opacity:1;stroke:none;stroke-width:0.511668px;stroke-linecap:butt;stroke-linejoin:miter;stroke-opacity:1"
       d="m 602.04048,299.26786 h 9.525 v 476.25 h -9.525 z"
       id="path819"
       inkscape:connector-curvature="0"
       sodipodi:nodetypes="ccccc" />
    <path
       style="fill:#000000;fill-opacity:1;stroke:none;stroke-width:2.0261px;stroke-linecap:butt;stroke-linejoin:miter;stroke-opacity:1"
       d="m 602.04048,616.76786 v 158.75 h -714.375 v -158.75 z"
       id="path847"
       inkscape:connector-curvature="0"
       sodipodi:nodetypes="ccccc" />
    <g
       id="g3">
      <path
         sodipodi:nodetypes="ccccccccccc"
         inkscape:connector-curvature="0"
         id="path831"
         d="m 286.58289,528.02391 -25.7905,18.7379 9.8511,30.31855 -25.79049,-18.7379 -25.7905,18.7379 9.8511,-30.31855 -25.79052,-18.7379 h 31.87882 l 9.8511,-30.31855 9.85108,30.31855 z"
         style="fill:#017b3d;fill-opacity:1;stroke:none;stroke-width:0.881944;stroke-linecap:butt;stroke-linejoin:miter;stroke-miterlimit:4;stroke-dasharray:none;stroke-opacity:1" />
      <path
         style="fill:#017b3d;fill-opacity:1;stroke:none;stroke-width:0.881944;stroke-linecap:butt;stroke-linejoin:miter;stroke-miterlimit:4;stroke-dasharray:none;stroke-opacity:1"
         d="m 60.66583,528.02391 -25.79051,18.7379 9.8511,30.31855 -25.7905,-18.7379 -25.79049,18.7379 9.85109,-30.31855 -25.7905,-18.7379 H 9.08483 l 9.8511,-30.31855 9.85108,30.31855 z"
         id="path822"
         inkscape:connector-curvature="0"
         sodipodi:nodetypes="ccccccccccc" />
      <path
         style="fill:#017b3d;fill-opacity:1;stroke:none;stroke-width:0.881944;stroke-linecap:butt;stroke-linejoin:miter;stroke-miterlimit:4;stroke-dasharray:none;stroke-opacity:1"
         d="m 429.04014,528.02391 25.79051,18.7379 -9.85111,30.31855 25.7905,-18.7379 25.7905,18.7379 -9.8511,-30.31855 25.79051,-18.7379 h -31.87881 l -9.8511,-30.31855 -9.85108,30.31855 z"
         id="path2"
         inkscape:connector-curvature="0"
         sodipodi:nodetypes="ccccccccccc" />
      <g
         id="g9"
         transform="translate(-1.7416692,9.0302882)"
         style="stroke:#017b3d;stroke-opacity:1;stroke-width:7.93750003;stroke-dasharray:none;stroke-linecap:round">
        <path
           style="fill:none;stroke:#017b3d;stroke-width:7.93750003;stroke-linecap:round;stroke-linejoin:round;stroke-miterlimit:155;stroke-dasharray:none;stroke-opacity:1"
           d="m 406.73337,492.09988 c -31.73397,13.75937 15.17138,5.88526 -19.49987,18.26179 m 7.42853,12.07133 c 3.98488,24.51006 2.79051,38.69456 0,46.73779"
           id="path4"
           sodipodi:nodetypes="cccc" />
        <path
           style="fill:none;stroke:#017b3d;stroke-width:7.93750003;stroke-linecap:round;stroke-linejoin:round;stroke-miterlimit:155;stroke-dasharray:none;stroke-opacity:1"
           d="m 341.43808,498.1714 c 0.005,-5.10278 -1.43175,-8.60878 -4.17854,-12.99993 m -3.72806,28.36279 c 4.58608,4.96007 10.54877,1.77705 9.59519,-5.57139 5.5922,5.30847 12.11694,3.65668 10.21422,-2.47618 m 14.28587,13.28598 c 8.83088,28.63097 12.38633,49.93516 -2.47619,52.61869 -6.89458,1.24486 -14.39951,-5.53062 -15.47608,-9.28565 -3.06907,-10.70479 -4.02377,-35.595 -4.02377,-35.595 m 4.02377,35.595 c -1.85895,3.03922 -7.91379,6.38052 -11.29754,7.42852 -8.78192,2.71991 -7.43021,-21.34003 -16.40464,-19.34511 -6.17905,1.37354 -12.18646,9.54822 -8.51184,14.70228 3.71346,5.20854 19.34509,2.7857 19.34509,2.7857"
           id="path5"
           sodipodi:nodetypes="ccccccssccsssc" />
      </g>
      <g
         id="g8"
         transform="translate(5.2782225,10.471795)"
         style="stroke:#017b3d;stroke-opacity:1">
        <path
           style="fill:none;stroke:#017b3d;stroke-width:7.93750003;stroke-linecap:round;stroke-linejoin:round;stroke-miterlimit:155;stroke-dasharray:none;stroke-opacity:1"
           d="m 188.21105,492.09988 c -31.73397,13.75937 15.17138,5.88526 -19.49987,18.26179 m 7.42853,12.07133 c 3.98488,24.51006 2.79051,38.69456 0,46.73779"
           id="path7"
           sodipodi:nodetypes="cccc" />
        <path
           style="fill:none;stroke:#017b3d;stroke-width:7.93750003;stroke-linecap:round;stroke-linejoin:round;stroke-miterlimit:155;stroke-dasharray:none;stroke-opacity:1"
           d="m 166.23502,478.79044 c -16.75308,8.72445 -40.54623,32.78642 -36.90497,43.05142 m 9.04801,9.25775 c 3.85431,12.53492 -6.42009,28.49928 -20.11891,28.476 -15.37202,-0.0261 -26.199441,-33.73385 -35.285477,-24.14269 -3.307295,3.49116 6.440799,13.50062 5.654602,23.03442 -0.58307,7.07059 -7.573991,13.85522 -23.60686,5.7511 m 55.404385,5.8809 c -1.2217,0.62756 -3.17875,2.76314 -3.71426,4.95235"
           id="path8"
           sodipodi:nodetypes="cccsssccc" />
      </g>
    </g>
  </g>
</svg>
