<?xml version="1.0" encoding="UTF-8" standalone="no"?>
<!-- Created with Inkscape (http://www.inkscape.org/) -->

<svg
   width="2736"
   height="1800"
   viewBox="0 0 723.89999 476.25001"
   version="1.1"
   id="svg8"
   inkscape:export-filename="C:\Users\厂永刄先生\Documents\GXI3CW2\,pjóŭ\Iraq.png"
   inkscape:export-xdpi="96"
   inkscape:export-ydpi="96"
   inkscape:version="1.3 (0e150ed6c4, 2023-07-21)"
   sodipodi:docname="I1L'A1K'E.svg"
   xmlns:inkscape="http://www.inkscape.org/namespaces/inkscape"
   xmlns:sodipodi="http://sodipodi.sourceforge.net/DTD/sodipodi-0.dtd"
   xmlns="http://www.w3.org/2000/svg"
   xmlns:svg="http://www.w3.org/2000/svg"
   xmlns:rdf="http://www.w3.org/1999/02/22-rdf-syntax-ns#"
   xmlns:cc="http://creativecommons.org/ns#"
   xmlns:dc="http://purl.org/dc/elements/1.1/">
  <defs
     id="defs2" />
  <sodipodi:namedview
     id="base"
     pagecolor="#ffffff"
     bordercolor="#666666"
     borderopacity="1.0"
     inkscape:pageopacity="0.0"
     inkscape:pageshadow="2"
     inkscape:zoom="0.30222222"
     inkscape:cx="1366.5441"
     inkscape:cy="898.34559"
     inkscape:document-units="px"
     inkscape:current-layer="layer1"
     showgrid="false"
     units="px"
     fit-margin-top="0"
     fit-margin-left="0"
     fit-margin-right="0"
     fit-margin-bottom="0"
     inkscape:showpageshadow="false"
     inkscape:snap-intersection-paths="true"
     inkscape:object-paths="false"
     inkscape:pagecheckerboard="true"
     inkscape:snap-smooth-nodes="false"
     inkscape:window-width="1920"
     inkscape:window-height="1009"
     inkscape:window-x="-8"
     inkscape:window-y="-8"
     inkscape:window-maximized="1"
     inkscape:object-nodes="true"
     inkscape:deskcolor="#505050" />
  <metadata
     id="metadata5">
    <rdf:RDF>
      <cc:Work
         rdf:about="">
        <dc:format>image/svg+xml</dc:format>
        <dc:type
           rdf:resource="http://purl.org/dc/dcmitype/StillImage" />
      </cc:Work>
    </rdf:RDF>
  </metadata>
  <g
     inkscape:label="レイヤー 1"
     inkscape:groupmode="layer"
     id="layer1"
     transform="translate(102.80952,-299.26786)">
    <path
       sodipodi:nodetypes="ccccc"
       inkscape:connector-curvature="0"
       id="path824"
       d="m 611.56548,458.01786 v 158.75 h -714.375 v -158.75 z"
       style="fill:#ffffff;fill-opacity:1;stroke:none;stroke-width:2.02610254px;stroke-linecap:butt;stroke-linejoin:miter;stroke-opacity:1" />
    <path
       style="fill:#cd1125;fill-opacity:1;stroke:none;stroke-width:1.75465631px;stroke-linecap:butt;stroke-linejoin:miter;stroke-opacity:1"
       d="m -102.80952,458.01786 v -158.75 h 714.375 v 158.75 z"
       id="path849"
       inkscape:connector-curvature="0"
       sodipodi:nodetypes="ccccc" />
    <path
       style="fill:#ffffff;fill-opacity:1;stroke:none;stroke-width:0.51166773px;stroke-linecap:butt;stroke-linejoin:miter;stroke-opacity:1"
       d="m 621.09048,299.26786 h -9.525 v 476.25 h 9.525 z"
       id="path819"
       inkscape:connector-curvature="0"
       sodipodi:nodetypes="ccccc" />
    <path
       style="fill:#000000;fill-opacity:1;stroke:none;stroke-width:2.02610254px;stroke-linecap:butt;stroke-linejoin:miter;stroke-opacity:1"
       d="m 611.56548,616.76786 v 158.75 h -714.375 v -158.75 z"
       id="path847"
       inkscape:connector-curvature="0"
       sodipodi:nodetypes="ccccc" />
    <path
       style="opacity:1;fill:#017b3d;fill-opacity:1;fill-rule:evenodd;stroke:none;stroke-width:16.20258141;stroke-linecap:round;stroke-linejoin:round;stroke-miterlimit:4;stroke-dasharray:none;stroke-dashoffset:0;stroke-opacity:1"
       d="m 205.15799,473.25079 -79.375,79.375 h 95.25 v -33.19746 l 5.29166,-4.40955 5.29167,4.40955 v 43.78079 H 115.19965 v -30.42708 l -19.843745,16.53646 3.96875,3.30729 v 10.58333 h -7.706506 c -0.924771,-2.61752 -2.325153,-5.11714 -4.21473,-7.36907 l -12.161015,10.20456 c 5.635654,6.71632 4.759841,16.72939 -1.956469,22.36504 -6.71631,5.63565 -16.72939,4.75983 -22.365044,-1.95646 8.45348,10.07446 23.473357,11.38817 33.547822,2.93471 3.383587,-2.83917 5.777257,-6.41935 7.146335,-10.30378 h 15.647112 140.22916 v -67.02795 l -21.16667,-17.63871 -21.16666,17.63871 v 24.69462 h -41.04918 l 38.24263,-38.24314 5.1449,0.46767 z m -97.89583,105.83333 -11.22516,11.22516 11.22516,11.22566 11.22515,-11.22566 z m 150.81301,-84.66666 v 84.66666 h 30.42657 l 5.29166,-19.84375 -5.29166,3.96875 h -14.55157 v -48.94791 l 3.96875,-3.30729 z"
       id="path942"
       inkscape:connector-curvature="0" />
    <path
       inkscape:connector-curvature="0"
       id="path876"
       d="m 342.74132,563.20915 v -5.29167 c 0,-2.9225 -2.36916,-5.29166 -5.29166,-5.29166 -2.9225,0 -5.29167,2.36915 -5.29167,5.29166 v 5.29167 z m 79.37527,-68.79169 19.84375,16.53645 -3.96875,3.30729 v 48.94795 h 14.55181 l 5.29167,-3.96875 -5.29167,19.84375 h -30.42681 z m -10.5836,84.66667 -95.25,2e-5 v -21.16667 c 0,-11.69003 9.47665,-21.16666 21.16667,-21.16666 1.8271,0 3.60013,0.2315 5.29136,0.66676 l -2.3e-4,-1.98971 -3.96875,-3.30729 19.84375,-16.53645 v 47.62502 h 10.5836 V 514.2612 l -3.96875,-3.30729 19.84375,-16.53645 v 68.79169 h 10.5836 v -70.11461 l -3.96875,-3.30729 19.84375,-16.53645 z"
       style="color:#000000;font-style:normal;font-variant:normal;font-weight:normal;font-stretch:normal;font-size:medium;line-height:normal;font-family:sans-serif;font-variant-ligatures:normal;font-variant-position:normal;font-variant-caps:normal;font-variant-numeric:normal;font-variant-alternates:normal;font-feature-settings:normal;text-indent:0;text-align:start;text-decoration:none;text-decoration-line:none;text-decoration-style:solid;text-decoration-color:#000000;letter-spacing:normal;word-spacing:normal;text-transform:none;writing-mode:lr-tb;direction:ltr;text-orientation:mixed;dominant-baseline:auto;baseline-shift:baseline;text-anchor:start;white-space:normal;shape-padding:0;clip-rule:nonzero;display:inline;overflow:visible;visibility:visible;opacity:1;isolation:auto;mix-blend-mode:normal;color-interpolation:sRGB;color-interpolation-filters:linearRGB;solid-color:#000000;solid-opacity:1;vector-effect:none;fill:#017b3d;fill-opacity:1;fill-rule:nonzero;stroke:none;stroke-width:19.44312477;stroke-linecap:butt;stroke-linejoin:miter;stroke-miterlimit:4;stroke-dasharray:none;stroke-dashoffset:0;stroke-opacity:1;color-rendering:auto;image-rendering:auto;shape-rendering:auto;text-rendering:auto;enable-background:accumulate"
       sodipodi:nodetypes="cszscccccccccccccssccccccccccccccc" />
    <path
       sodipodi:nodetypes="scscscscs"
       inkscape:connector-curvature="0"
       style="color:#000000;font-style:normal;font-variant:normal;font-weight:normal;font-stretch:normal;font-size:medium;line-height:normal;font-family:sans-serif;font-variant-ligatures:normal;font-variant-position:normal;font-variant-caps:normal;font-variant-numeric:normal;font-variant-alternates:normal;font-feature-settings:normal;text-indent:0;text-align:start;text-decoration:none;text-decoration-line:none;text-decoration-style:solid;text-decoration-color:#000000;letter-spacing:normal;word-spacing:normal;text-transform:none;writing-mode:lr-tb;direction:ltr;text-orientation:mixed;dominant-baseline:auto;baseline-shift:baseline;text-anchor:start;white-space:normal;shape-padding:0;clip-rule:nonzero;display:inline;overflow:visible;visibility:visible;opacity:1;isolation:auto;mix-blend-mode:normal;color-interpolation:sRGB;color-interpolation-filters:linearRGB;solid-color:#000000;solid-opacity:1;vector-effect:none;fill:#017b3d;fill-opacity:1;fill-rule:nonzero;stroke:none;stroke-width:15.37114334;stroke-linecap:butt;stroke-linejoin:miter;stroke-miterlimit:4;stroke-dasharray:none;stroke-dashoffset:0;stroke-opacity:1;color-rendering:auto;image-rendering:auto;shape-rendering:auto;text-rendering:auto;enable-background:accumulate"
       d="m 382.42856,489.78725 c 3.65312,0 6.61458,-2.36916 6.61458,-5.29167 0,1.46125 -2.96146,2.64583 -6.61458,2.64583 -2.16398,0 -4.08488,-0.41598 -5.29167,-1.05859 -1.20679,0.64261 -3.12769,1.05859 -5.29167,1.05859 -3.65312,0 -6.61458,-1.18458 -6.61458,-2.64583 0,2.92251 2.96146,5.29167 6.61458,5.29167 2.16398,0 4.08488,-0.83196 5.29167,-2.11718 1.20679,1.28522 3.12769,2.11718 5.29167,2.11718 z"
       id="path834" />
    <path
       inkscape:connector-curvature="0"
       id="path842"
       d="m 367.47995,473.2508 v 2.38125 l 9.65694,9.65694 v -2.38125 z"
       style="fill:#017b3d;stroke:none;stroke-width:0.23337094px;stroke-linecap:butt;stroke-linejoin:miter;stroke-opacity:1;fill-opacity:1"
       sodipodi:nodetypes="ccccc" />
  </g>
</svg>
