<?xml version="1.0" encoding="UTF-8" standalone="no"?>
<!-- Created with Inkscape (http://www.inkscape.org/) -->

<svg
   width="2736"
   height="1800"
   viewBox="0 0 723.89999 476.25001"
   version="1.1"
   id="svg8"
   inkscape:export-filename="C:\Users\厂永刄先生\Documents\GXI3CW2\JáÈŭcèŭ\Maqkàla\Maqkàla.png"
   inkscape:export-xdpi="96"
   inkscape:export-ydpi="96"
   inkscape:version="1.3 (0e150ed6c4, 2023-07-21)"
   sodipodi:docname="1963.svg"
   xmlns:inkscape="http://www.inkscape.org/namespaces/inkscape"
   xmlns:sodipodi="http://sodipodi.sourceforge.net/DTD/sodipodi-0.dtd"
   xmlns="http://www.w3.org/2000/svg"
   xmlns:svg="http://www.w3.org/2000/svg"
   xmlns:rdf="http://www.w3.org/1999/02/22-rdf-syntax-ns#"
   xmlns:cc="http://creativecommons.org/ns#"
   xmlns:dc="http://purl.org/dc/elements/1.1/">
  <defs
     id="defs2" />
  <sodipodi:namedview
     id="base"
     pagecolor="#ffffff"
     bordercolor="#666666"
     borderopacity="1.0"
     inkscape:pageopacity="0.0"
     inkscape:pageshadow="2"
     inkscape:zoom="0.21370338"
     inkscape:cx="1368.7196"
     inkscape:cy="896.10188"
     inkscape:document-units="px"
     inkscape:current-layer="g3"
     showgrid="false"
     units="px"
     fit-margin-top="0"
     fit-margin-left="0"
     fit-margin-right="0"
     fit-margin-bottom="0"
     inkscape:showpageshadow="false"
     inkscape:snap-intersection-paths="true"
     inkscape:object-paths="false"
     inkscape:pagecheckerboard="true"
     inkscape:snap-smooth-nodes="false"
     inkscape:window-width="1920"
     inkscape:window-height="1009"
     inkscape:window-x="-8"
     inkscape:window-y="-8"
     inkscape:window-maximized="1"
     inkscape:object-nodes="true"
     inkscape:deskcolor="#505050" />
  <metadata
     id="metadata5">
    <rdf:RDF>
      <cc:Work
         rdf:about="">
        <dc:format>image/svg+xml</dc:format>
        <dc:type
           rdf:resource="http://purl.org/dc/dcmitype/StillImage" />
      </cc:Work>
    </rdf:RDF>
  </metadata>
  <g
     inkscape:label="レイヤー 1"
     inkscape:groupmode="layer"
     id="layer1"
     transform="translate(112.33452,-299.26786)">
    <path
       sodipodi:nodetypes="ccccc"
       inkscape:connector-curvature="0"
       id="path824"
       d="m -112.33452,458.01786 v 158.75 h 714.375 v -158.75 z"
       style="fill:#ffffff;fill-opacity:1;stroke:none;stroke-width:2.0261px;stroke-linecap:butt;stroke-linejoin:miter;stroke-opacity:1" />
    <path
       style="fill:#cd1125;fill-opacity:1;stroke:none;stroke-width:1.75466px;stroke-linecap:butt;stroke-linejoin:miter;stroke-opacity:1"
       d="m -112.33452,458.01786 v -158.75 h 714.375 v 158.75 z"
       id="path849"
       inkscape:connector-curvature="0"
       sodipodi:nodetypes="ccccc" />
    <path
       style="fill:#ffffff;fill-opacity:1;stroke:none;stroke-width:0.511668px;stroke-linecap:butt;stroke-linejoin:miter;stroke-opacity:1"
       d="m 602.04048,299.26786 h 9.525 v 476.25 h -9.525 z"
       id="path819"
       inkscape:connector-curvature="0"
       sodipodi:nodetypes="ccccc" />
    <path
       style="fill:#000000;fill-opacity:1;stroke:none;stroke-width:2.0261px;stroke-linecap:butt;stroke-linejoin:miter;stroke-opacity:1"
       d="m 602.04048,616.76786 v 158.75 h -714.375 v -158.75 z"
       id="path847"
       inkscape:connector-curvature="0"
       sodipodi:nodetypes="ccccc" />
    <g
       id="g3">
      <path
         sodipodi:nodetypes="ccccccccccc"
         inkscape:connector-curvature="0"
         id="path831"
         d="m 286.58289,528.02391 -25.7905,18.7379 9.8511,30.31855 -25.79049,-18.7379 -25.7905,18.7379 9.8511,-30.31855 -25.79052,-18.7379 h 31.87882 l 9.8511,-30.31855 9.85108,30.31855 z"
         style="fill:#017b3d;fill-opacity:1;stroke:none;stroke-width:0.881944;stroke-linecap:butt;stroke-linejoin:miter;stroke-miterlimit:4;stroke-dasharray:none;stroke-opacity:1" />
      <path
         style="fill:#017b3d;fill-opacity:1;stroke:none;stroke-width:0.881944;stroke-linecap:butt;stroke-linejoin:miter;stroke-miterlimit:4;stroke-dasharray:none;stroke-opacity:1"
         d="m 60.66583,528.02391 -25.79051,18.7379 9.8511,30.31855 -25.7905,-18.7379 -25.79049,18.7379 9.85109,-30.31855 -25.7905,-18.7379 H 9.08483 l 9.8511,-30.31855 9.85108,30.31855 z"
         id="path822"
         inkscape:connector-curvature="0"
         sodipodi:nodetypes="ccccccccccc" />
      <path
         style="fill:#017b3d;fill-opacity:1;fill-rule:evenodd;stroke:none;stroke-width:10.0253;stroke-linecap:round;stroke-linejoin:round;stroke-miterlimit:4;stroke-dasharray:none;stroke-dashoffset:0;stroke-opacity:1"
         d="m 148.19872,497.70536 -49.11279,49.11278 h 58.93534 v -20.54072 l 3.27418,-2.72838 3.27419,2.72838 V 553.3665 H 92.53755 v -18.82656 l -12.27819,10.23183 2.45564,2.04637 v 6.54836 h -4.76835 c -0.57219,-1.61957 -1.43867,-3.1662 -2.60784,-4.55956 l -7.52455,6.314 c 3.48703,4.15569 2.94513,10.35121 -1.21055,13.83823 -4.15567,3.48702 -10.3512,2.94512 -13.83823,-1.21054 5.23054,6.23351 14.52399,7.04636 20.7575,1.81583 2.09358,-1.75672 3.57464,-3.97193 4.42175,-6.3754 h 9.68155 86.76591 v -41.47312 l -13.09674,-10.91384 -13.09673,10.91384 v 15.27964 H 122.7998 l 23.66238,-23.66269 3.18337,0.28936 z m -60.57244,65.4837 -6.94549,6.94549 6.94549,6.94581 6.94549,-6.94581 z m 93.3146,-52.38696 v 52.38696 h 18.82624 l 3.27419,-12.27819 -3.27419,2.45563 h -9.00368 v -30.28621 l 2.45563,-2.04635 z"
         id="path942"
         inkscape:connector-curvature="0" />
      <g
         id="g2"
         transform="matrix(0.61874363,0,0,0.61874363,113.02954,204.88443)">
        <path
           inkscape:connector-curvature="0"
           id="path876"
           d="m 342.74132,563.20915 v -5.29167 c 0,-2.9225 -2.36916,-5.29166 -5.29166,-5.29166 -2.9225,0 -5.29167,2.36915 -5.29167,5.29166 v 5.29167 z m 79.37527,-68.79169 19.84375,16.53645 -3.96875,3.30729 v 48.94795 h 14.55181 l 5.29167,-3.96875 -5.29167,19.84375 h -30.42681 z m -10.5836,84.66667 -95.25,2e-5 v -21.16667 c 0,-11.69003 9.47665,-21.16666 21.16667,-21.16666 1.8271,0 3.60013,0.2315 5.29136,0.66676 l -2.3e-4,-1.98971 -3.96875,-3.30729 19.84375,-16.53645 v 47.62502 h 10.5836 V 514.2612 l -3.96875,-3.30729 19.84375,-16.53645 v 68.79169 h 10.5836 v -70.11461 l -3.96875,-3.30729 19.84375,-16.53645 z"
           style="color:#000000;font-style:normal;font-variant:normal;font-weight:normal;font-stretch:normal;font-size:medium;line-height:normal;font-family:sans-serif;font-variant-ligatures:normal;font-variant-position:normal;font-variant-caps:normal;font-variant-numeric:normal;font-variant-alternates:normal;font-feature-settings:normal;text-indent:0;text-align:start;text-decoration:none;text-decoration-line:none;text-decoration-style:solid;text-decoration-color:#000000;letter-spacing:normal;word-spacing:normal;text-transform:none;writing-mode:lr-tb;direction:ltr;text-orientation:mixed;dominant-baseline:auto;baseline-shift:baseline;text-anchor:start;white-space:normal;shape-padding:0;clip-rule:nonzero;display:inline;overflow:visible;visibility:visible;opacity:1;isolation:auto;mix-blend-mode:normal;color-interpolation:sRGB;color-interpolation-filters:linearRGB;solid-color:#000000;solid-opacity:1;vector-effect:none;fill:#017b3d;fill-opacity:1;fill-rule:nonzero;stroke:none;stroke-width:19.4431;stroke-linecap:butt;stroke-linejoin:miter;stroke-miterlimit:4;stroke-dasharray:none;stroke-dashoffset:0;stroke-opacity:1;color-rendering:auto;image-rendering:auto;shape-rendering:auto;text-rendering:auto;enable-background:accumulate"
           sodipodi:nodetypes="cszscccccccccccccssccccccccccccccc" />
        <path
           sodipodi:nodetypes="scscscscs"
           inkscape:connector-curvature="0"
           style="color:#000000;font-style:normal;font-variant:normal;font-weight:normal;font-stretch:normal;font-size:medium;line-height:normal;font-family:sans-serif;font-variant-ligatures:normal;font-variant-position:normal;font-variant-caps:normal;font-variant-numeric:normal;font-variant-alternates:normal;font-feature-settings:normal;text-indent:0;text-align:start;text-decoration:none;text-decoration-line:none;text-decoration-style:solid;text-decoration-color:#000000;letter-spacing:normal;word-spacing:normal;text-transform:none;writing-mode:lr-tb;direction:ltr;text-orientation:mixed;dominant-baseline:auto;baseline-shift:baseline;text-anchor:start;white-space:normal;shape-padding:0;clip-rule:nonzero;display:inline;overflow:visible;visibility:visible;opacity:1;isolation:auto;mix-blend-mode:normal;color-interpolation:sRGB;color-interpolation-filters:linearRGB;solid-color:#000000;solid-opacity:1;vector-effect:none;fill:#017b3d;fill-opacity:1;fill-rule:nonzero;stroke:none;stroke-width:15.3711;stroke-linecap:butt;stroke-linejoin:miter;stroke-miterlimit:4;stroke-dasharray:none;stroke-dashoffset:0;stroke-opacity:1;color-rendering:auto;image-rendering:auto;shape-rendering:auto;text-rendering:auto;enable-background:accumulate"
           d="m 382.42856,489.78725 c 3.65312,0 6.61458,-2.36916 6.61458,-5.29167 0,1.46125 -2.96146,2.64583 -6.61458,2.64583 -2.16398,0 -4.08488,-0.41598 -5.29167,-1.05859 -1.20679,0.64261 -3.12769,1.05859 -5.29167,1.05859 -3.65312,0 -6.61458,-1.18458 -6.61458,-2.64583 0,2.92251 2.96146,5.29167 6.61458,5.29167 2.16398,0 4.08488,-0.83196 5.29167,-2.11718 1.20679,1.28522 3.12769,2.11718 5.29167,2.11718 z"
           id="path834" />
        <path
           inkscape:connector-curvature="0"
           id="path842"
           d="m 367.47995,473.2508 v 2.38125 l 9.65694,9.65694 v -2.38125 z"
           style="fill:#017b3d;fill-opacity:1;stroke:none;stroke-width:0.233371px;stroke-linecap:butt;stroke-linejoin:miter;stroke-opacity:1"
           sodipodi:nodetypes="ccccc" />
      </g>
      <path
         style="fill:#017b3d;fill-opacity:1;stroke:none;stroke-width:0.881944;stroke-linecap:butt;stroke-linejoin:miter;stroke-miterlimit:4;stroke-dasharray:none;stroke-opacity:1"
         d="m 429.04014,528.02391 25.79051,18.7379 -9.85111,30.31855 25.7905,-18.7379 25.7905,18.7379 -9.8511,-30.31855 25.79051,-18.7379 h -31.87881 l -9.8511,-30.31855 -9.85108,30.31855 z"
         id="path2"
         inkscape:connector-curvature="0"
         sodipodi:nodetypes="ccccccccccc" />
    </g>
  </g>
</svg>
