<?xml version="1.0" encoding="UTF-8" standalone="no"?>
<!-- Created with Inkscape (http://www.inkscape.org/) -->

<svg
   width="3636"
   height="1800"
   viewBox="0 0 962.025 476.25001"
   version="1.1"
   id="svg8"
   inkscape:export-filename="C:\Users\厂永刄先生\Documents\GXI3CW2\JáÈŭcèŭ\Èŭmen\Í\意軍.png"
   inkscape:export-xdpi="96"
   inkscape:export-ydpi="96"
   inkscape:version="1.3 (0e150ed6c4, 2023-07-21)"
   sodipodi:docname="bn_1906.svg"
   xmlns:inkscape="http://www.inkscape.org/namespaces/inkscape"
   xmlns:sodipodi="http://sodipodi.sourceforge.net/DTD/sodipodi-0.dtd"
   xmlns="http://www.w3.org/2000/svg"
   xmlns:svg="http://www.w3.org/2000/svg"
   xmlns:rdf="http://www.w3.org/1999/02/22-rdf-syntax-ns#"
   xmlns:cc="http://creativecommons.org/ns#"
   xmlns:dc="http://purl.org/dc/elements/1.1/">
  <defs
     id="defs2" />
  <sodipodi:namedview
     id="base"
     pagecolor="#ffffff"
     bordercolor="#666666"
     borderopacity="1.0"
     inkscape:pageopacity="0.0"
     inkscape:pageshadow="2"
     inkscape:zoom="0.5"
     inkscape:cx="1681"
     inkscape:cy="273"
     inkscape:document-units="px"
     inkscape:current-layer="g832"
     showgrid="false"
     units="px"
     fit-margin-top="0"
     fit-margin-left="0"
     fit-margin-right="0"
     fit-margin-bottom="0"
     inkscape:showpageshadow="false"
     inkscape:snap-intersection-paths="false"
     inkscape:object-paths="false"
     inkscape:pagecheckerboard="true"
     inkscape:snap-smooth-nodes="false"
     inkscape:window-width="1920"
     inkscape:window-height="1009"
     inkscape:window-x="-8"
     inkscape:window-y="-8"
     inkscape:window-maximized="1"
     inkscape:object-nodes="true"
     inkscape:snap-nodes="true"
     showguides="true"
     inkscape:guide-bbox="true"
     inkscape:deskcolor="#505050" />
  <metadata
     id="metadata5">
    <rdf:RDF>
      <cc:Work
         rdf:about="">
        <dc:format>image/svg+xml</dc:format>
        <dc:type
           rdf:resource="http://purl.org/dc/dcmitype/StillImage" />
      </cc:Work>
    </rdf:RDF>
  </metadata>
  <g
     inkscape:label="レイヤー 1"
     inkscape:groupmode="layer"
     id="layer1"
     transform="translate(112.33452,-299.26786)">
    <g
       id="g832"
       style="fill:#da291c;fill-opacity:1">
      <path
         sodipodi:nodetypes="ccccc"
         inkscape:connector-curvature="0"
         id="path1079"
         d="m -102.80952,299.26786 h -9.525 v 476.25 h 9.525 z"
         style="fill:#ffffff;fill-opacity:1;stroke:none;stroke-width:0.51166773px;stroke-linecap:butt;stroke-linejoin:miter;stroke-opacity:1" />
      <path
         style="fill:#f7e017;fill-opacity:1;stroke:none;stroke-width:2.33543301px;stroke-linecap:butt;stroke-linejoin:miter;stroke-opacity:1"
         d="m -102.80952,299.26786 v 33.07292 L 849.69049,530.77827 V 299.26786 Z"
         id="path822"
         inkscape:connector-curvature="0"
         sodipodi:nodetypes="ccccc" />
      <path
         sodipodi:nodetypes="ccccc"
         inkscape:connector-curvature="0"
         id="path828"
         d="M 849.69049,775.51786 V 742.44494 L -102.80952,544.00745 v 231.51041 z"
         style="fill:#f7e017;fill-opacity:1;stroke:none;stroke-width:2.33543301px;stroke-linecap:butt;stroke-linejoin:miter;stroke-opacity:1" />
      <path
         style="fill:#000000;fill-opacity:1;stroke:none;stroke-width:1.52889979px;stroke-linecap:butt;stroke-linejoin:miter;stroke-opacity:1"
         d="M 849.69049,742.44494 V 643.22619 L -102.80952,444.7887 v 99.21875 z"
         id="path830"
         inkscape:connector-curvature="0"
         sodipodi:nodetypes="ccccc" />
      <path
         sodipodi:nodetypes="ccccc"
         inkscape:connector-curvature="0"
         id="path832"
         d="M 849.69049,643.22619 V 530.77827 L -102.80952,332.34078 V 444.7887 Z"
         style="fill:#ffffff;fill-opacity:1;stroke:none;stroke-width:1.52889979px;stroke-linecap:butt;stroke-linejoin:miter;stroke-opacity:1" />
      <path
         id="path1"
         style="fill:#ff0000;fill-opacity:1;stroke-width:0.95250001;stroke-linecap:round;stroke-miterlimit:155;stroke:#ffffff;stroke-dasharray:none;paint-order:normal;stroke-linejoin:round"
         d="m 440.55887,489.00098 c 7.99883,12.66991 12.25446,27.3451 12.25662,42.32869 0.006,43.8376 -35.5374,79.375 -79.375,79.375 -43.83761,1e-5 -79.39865,-35.5374 -79.37501,-79.375 0.008,-14.71983 4.15567,-29.14086 11.91142,-41.65172 -17.7109,17.76944 -27.7572,41.80879 -27.78642,66.8972 -0.0613,52.60509 42.64488,95.25002 95.25001,95.25001 52.60513,0 95.25189,-42.64488 95.25,-95.25001 -9.1e-4,-25.37251 -10.12855,-49.69531 -28.13162,-67.57417 z"
         sodipodi:nodetypes="cssscsssc" />
      <path
         id="path12"
         style="fill:#ff0000;fill-opacity:1;stroke:#ffffff;stroke-width:0.9525;stroke-linecap:round;stroke-linejoin:round;stroke-miterlimit:155;stroke-dasharray:none;stroke-opacity:1;paint-order:normal"
         d="m 387.56477,534.99555 c -4.77182,-12.42471 -5.3558,-22.84614 1.68379,-33.31366 -8.32981,0.85386 -7.00623,6.76014 -11.81829,7.17601 0,-5.37437 -2.00662,-7.57914 -3.98978,-11.01408 -1.98316,3.43494 -3.98978,5.63971 -3.98978,11.01408 -4.81206,-0.41587 -3.48848,-6.32215 -11.81829,-7.17601 7.03959,10.46752 6.45561,20.88895 1.68379,33.31366 -5.70775,14.8617 3.8834,24.84149 14.12428,24.84149 10.24088,0 19.83203,-9.97979 14.12428,-24.84149 z"
         sodipodi:nodetypes="scccccszs" />
      <path
         id="path10"
         style="fill:#ff0000;fill-opacity:1;stroke:#ffffff;stroke-width:0.9525;stroke-linecap:round;stroke-linejoin:round;stroke-miterlimit:155;stroke-dasharray:none;stroke-opacity:1;paint-order:normal"
         d="m 389.99692,574.90956 c -2.52675,-9.71193 -3.48491,-15.54969 1.96443,-24.98822 -8.42336,2.25703 -8.12877,9.75356 -14.53108,10.16943 0,-5.37437 -2.00662,-9.16664 -3.98978,-12.60158 -1.98316,3.43494 -3.98978,7.22721 -3.98978,12.60158 -6.40231,-0.41587 -6.10772,-7.9124 -14.53108,-10.16943 5.44934,9.43853 4.49118,15.27629 1.96443,24.98822 -4.12041,15.3776 3.40513,23.8125 16.55643,23.8125 13.1513,0 20.67684,-8.4349 16.55643,-23.8125 z"
         sodipodi:nodetypes="scccccscs" />
      <path
         id="path7"
         style="fill:#ff0000;fill-opacity:1;stroke:#ffffff;stroke-width:0.95250001;stroke-linecap:round;stroke-miterlimit:155;stroke-dasharray:none;stroke-opacity:1;paint-order:normal;stroke-linejoin:round"
         d="m 350.18923,582.5392 c -0.0191,10.87469 10.23488,15.66491 18.20866,16.18286 0,-5.13532 0.32726,-10.84206 5.0426,-15.5574 4.71534,4.71534 5.0426,10.42208 5.0426,15.5574 7.97378,-0.51795 18.22777,-5.30817 18.20866,-16.18286 10.3629,17.94906 -10.09996,25.4963 -23.25126,25.4963 -13.1513,0 -33.61416,-7.54724 -23.25126,-25.4963 z"
         sodipodi:nodetypes="ccccczc" />
    </g>
  </g>
</svg>
