<?xml version="1.0" encoding="UTF-8" standalone="no"?>
<!-- Created with Inkscape (http://www.inkscape.org/) -->

<svg
   width="2736"
   height="1800"
   viewBox="0 0 723.89999 476.25001"
   version="1.1"
   id="svg8"
   inkscape:export-filename="C:\Users\厂永刄先生\Documents\GXI3CW2\,pjóŭ\Perse.png"
   inkscape:export-xdpi="96"
   inkscape:export-ydpi="96"
   inkscape:version="1.3 (0e150ed6c4, 2023-07-21)"
   sodipodi:docname="gq_1979.svg"
   xmlns:inkscape="http://www.inkscape.org/namespaces/inkscape"
   xmlns:sodipodi="http://sodipodi.sourceforge.net/DTD/sodipodi-0.dtd"
   xmlns:xlink="http://www.w3.org/1999/xlink"
   xmlns="http://www.w3.org/2000/svg"
   xmlns:svg="http://www.w3.org/2000/svg"
   xmlns:rdf="http://www.w3.org/1999/02/22-rdf-syntax-ns#"
   xmlns:cc="http://creativecommons.org/ns#"
   xmlns:dc="http://purl.org/dc/elements/1.1/">
  <sodipodi:namedview
     id="base"
     pagecolor="#ffffff"
     bordercolor="#666666"
     borderopacity="1.0"
     inkscape:pageopacity="0.0"
     inkscape:pageshadow="2"
     inkscape:zoom="0.1767767"
     inkscape:cx="540.22957"
     inkscape:cy="104.6518"
     inkscape:document-units="px"
     inkscape:current-layer="layer1"
     showgrid="false"
     units="px"
     fit-margin-top="0"
     fit-margin-left="0"
     fit-margin-right="0"
     fit-margin-bottom="0"
     inkscape:showpageshadow="false"
     inkscape:snap-intersection-paths="false"
     inkscape:object-paths="false"
     inkscape:pagecheckerboard="true"
     inkscape:snap-smooth-nodes="true"
     inkscape:window-width="1920"
     inkscape:window-height="1009"
     inkscape:window-x="-8"
     inkscape:window-y="-8"
     inkscape:window-maximized="1"
     inkscape:object-nodes="true"
     inkscape:snap-nodes="true"
     inkscape:snap-others="false"
     inkscape:deskcolor="#505050" />
  <defs
     id="defs2">
    <linearGradient
       id="linearGradient1"
       inkscape:collect="always">
      <stop
         style="stop-color:#ffffff;stop-opacity:1;"
         offset="0"
         id="stop2" />
      <stop
         style="stop-color:#e5e5e5;stop-opacity:1;"
         offset="0.85714287"
         id="stop1" />
    </linearGradient>
    <radialGradient
       inkscape:collect="always"
       xlink:href="#linearGradient1"
       id="radialGradient2"
       cx="273.08161"
       cy="537.39286"
       fx="273.08161"
       fy="537.39286"
       r="39.925625"
       gradientTransform="matrix(-1,0,0,1.1290683,546.16322,-69.360383)"
       gradientUnits="userSpaceOnUse" />
  </defs>
  <metadata
     id="metadata5">
    <rdf:RDF>
      <cc:Work
         rdf:about="">
        <dc:format>image/svg+xml</dc:format>
        <dc:type
           rdf:resource="http://purl.org/dc/dcmitype/StillImage" />
      </cc:Work>
    </rdf:RDF>
  </metadata>
  <g
     inkscape:label="レイヤー 1"
     inkscape:groupmode="layer"
     id="layer1"
     transform="translate(173.00589,-299.26786)">
    <path
       sodipodi:nodetypes="ccccc"
       inkscape:connector-curvature="0"
       id="path1086"
       d="m -163.48089,775.51786 h 714.375 v -158.75 H -4.7308893 Z"
       style="fill:#ff0000;fill-opacity:1;stroke:none;stroke-width:0;stroke-linecap:butt;stroke-linejoin:miter;stroke-miterlimit:4;stroke-dasharray:none;stroke-opacity:1" />
    <path
       style="fill:#00a800;fill-opacity:1;stroke:none;stroke-width:0;stroke-linecap:butt;stroke-linejoin:miter;stroke-miterlimit:4;stroke-dasharray:none;stroke-opacity:1"
       d="M -4.7308893,458.01786 H 550.89411 v -158.75 h -714.375 z"
       id="path991"
       inkscape:connector-curvature="0"
       sodipodi:nodetypes="ccccc" />
    <path
       style="fill:#ffffff;fill-opacity:1;stroke:none;stroke-width:0.511668px;stroke-linecap:butt;stroke-linejoin:miter;stroke-opacity:1"
       d="m -173.00589,299.26786 h 9.525 v 476.25 h -9.525 z"
       id="path1079"
       inkscape:connector-curvature="0"
       sodipodi:nodetypes="ccccc" />
    <path
       sodipodi:nodetypes="cccccc"
       inkscape:connector-curvature="0"
       id="path824"
       d="M -4.7308893,458.01786 H 550.89411 v 158.75 H -4.7308893 l 79.3750003,-79.375 z"
       style="fill:#ffffff;fill-opacity:1;stroke:none;stroke-width:0;stroke-linecap:butt;stroke-linejoin:miter;stroke-miterlimit:4;stroke-dasharray:none;stroke-opacity:1" />
    <path
       style="fill:#0055ff;fill-opacity:1;stroke:none;stroke-width:0;stroke-linecap:butt;stroke-linejoin:miter;stroke-miterlimit:4;stroke-dasharray:none;stroke-opacity:1"
       d="M -163.48089,775.51786 74.644111,537.39286 -163.48089,299.26786 Z"
       id="path1"
       inkscape:connector-curvature="0"
       sodipodi:nodetypes="cccc" />
    <g
       style="fill:#002ec0;fill-opacity:1;stroke:#806000;stroke-width:1;stroke-linecap:round;stroke-linejoin:round;stroke-miterlimit:4;stroke-dasharray:none;stroke-opacity:1"
       id="g6"
       transform="matrix(0.26415116,0,0,0.26415116,99.184059,1875.015)" />
    <g
       id="g11"
       transform="translate(39.687497,2.6458364)"
       style="stroke:#000000;stroke-width:0.47625;stroke-linecap:round;stroke-linejoin:round;stroke-dasharray:none;stroke-opacity:1;paint-order:normal">
      <g
         id="g4"
         transform="translate(-79.37501,5.2916667)"
         style="stroke:#000000;stroke-width:0.47625;stroke-linecap:round;stroke-linejoin:round;stroke-dasharray:none;stroke-opacity:1;paint-order:normal">
        <path
           id="path8"
           style="fill:#ffc000;fill-opacity:1;stroke:#000000;stroke-width:0.47625;stroke-linecap:round;stroke-linejoin:round;stroke-miterlimit:15.4;stroke-dasharray:none;stroke-opacity:1;paint-order:normal"
           inkscape:transform-center-x="-3.219241e-06"
           d="m 263.06645,461.32012 2.78979,3.63571 4.54351,-0.59816 -1.75373,4.23387 2.78978,3.63572 -4.54351,0.59817 -1.75373,4.23388 -2.78979,-3.63572 -4.54351,0.59817 1.75373,-4.23389 -2.78978,-3.63571 4.54351,-0.59816 z"
           sodipodi:nodetypes="ccccccccccccc"
           inkscape:transform-center-y="-89.956022" />
        <path
           id="path18"
           style="fill:#ffc000;fill-opacity:1;stroke:#000000;stroke-width:0.47625;stroke-linecap:round;stroke-linejoin:round;stroke-miterlimit:15.4;stroke-dasharray:none;stroke-opacity:1;paint-order:normal"
           inkscape:transform-center-x="-3.219241e-06"
           d="m 243.71864,466.50435 3.63571,2.78978 4.23388,-1.75373 -0.59817,4.5435 3.63572,2.78979 -4.23388,1.75374 -0.59816,4.54351 -3.63572,-2.78978 -4.23388,1.75373 0.59816,-4.54352 -3.63571,-2.78978 4.23388,-1.75373 z"
           sodipodi:nodetypes="ccccccccccccc"
           inkscape:transform-center-y="-89.956022" />
        <path
           id="path20"
           style="fill:#ffc000;fill-opacity:1;stroke:#000000;stroke-width:0.47625;stroke-linecap:round;stroke-linejoin:round;stroke-miterlimit:15.4;stroke-dasharray:none;stroke-opacity:1;paint-order:normal"
           inkscape:transform-center-x="-3.219241e-06"
           d="m 226.37186,476.51952 4.23388,1.75373 3.63572,-2.78979 0.59815,4.54351 4.23389,1.75374 -3.63572,2.78978 0.59817,4.54351 -4.23388,-1.75373 -3.63572,2.78978 -0.59817,-4.54352 -4.23387,-1.75372 3.63571,-2.78978 z"
           sodipodi:nodetypes="ccccccccccccc"
           inkscape:transform-center-y="-89.956022" />
        <path
           id="path22"
           style="fill:#ffc000;fill-opacity:1;stroke:#000000;stroke-width:0.47625;stroke-linecap:round;stroke-linejoin:round;stroke-miterlimit:15.4;stroke-dasharray:none;stroke-opacity:1;paint-order:normal"
           inkscape:transform-center-x="-3.219241e-06"
           d="m 283.09679,461.32012 -2.78979,3.63571 -4.54351,-0.59816 1.75373,4.23387 -2.78978,3.63572 4.54351,0.59817 1.75373,4.23388 2.78978,-3.63572 4.54352,0.59817 -1.75373,-4.23389 2.78978,-3.63571 -4.54351,-0.59816 z"
           sodipodi:nodetypes="ccccccccccccc"
           inkscape:transform-center-y="-89.956022" />
        <path
           id="path24"
           style="fill:#ffc000;fill-opacity:1;stroke:#000000;stroke-width:0.47625;stroke-linecap:round;stroke-linejoin:round;stroke-miterlimit:15.4;stroke-dasharray:none;stroke-opacity:1;paint-order:normal"
           inkscape:transform-center-x="-3.219241e-06"
           d="m 302.4446,466.50435 -3.63572,2.78978 -4.23388,-1.75373 0.59817,4.54351 -3.63572,2.78979 4.23389,1.75373 0.59816,4.54351 3.63572,-2.78978 4.23388,1.75373 -0.59816,-4.54352 3.63571,-2.78977 -4.23388,-1.75374 z"
           sodipodi:nodetypes="ccccccccccccc"
           inkscape:transform-center-y="-89.956022" />
        <path
           id="path26"
           style="fill:#ffc000;fill-opacity:1;stroke:#000000;stroke-width:0.47625;stroke-linecap:round;stroke-linejoin:round;stroke-miterlimit:15.4;stroke-dasharray:none;stroke-opacity:1;paint-order:normal"
           inkscape:transform-center-x="-3.219241e-06"
           d="m 319.79138,476.51952 -4.23388,1.75373 -3.63572,-2.78978 -0.59816,4.5435 -4.23388,1.75374 3.63571,2.78978 -0.59816,4.54351 4.23388,-1.75373 3.63572,2.78979 0.59817,-4.54352 4.23387,-1.75372 -3.63572,-2.78979 z"
           sodipodi:nodetypes="ccccccccccccc"
           inkscape:transform-center-y="-89.956022" />
      </g>
      <g
         id="g5"
         transform="translate(-79.375,5.2916667)"
         style="stroke:#000000;stroke-width:0.47625;stroke-linecap:round;stroke-linejoin:round;stroke-dasharray:none;stroke-opacity:1;paint-order:normal">
        <path
           style="display:inline;fill:url(#radialGradient2);stroke:#000000;stroke-width:0.47625;stroke-linecap:round;stroke-linejoin:round;stroke-miterlimit:4;stroke-dasharray:none;stroke-opacity:1;paint-order:normal"
           d="m 312.76911,492.55223 v 61.7211 c 0,9.64165 -6.50793,15.56624 -15.28885,18.6702 -7.07859,2.50221 -16.18591,3.70641 -24.39865,9.28997 -8.21274,-5.58356 -17.32006,-6.78776 -24.39865,-9.28997 -8.78091,-3.10396 -15.28885,-9.02855 -15.28885,-18.6702 v -61.7211 z"
           id="path1297"
           inkscape:connector-curvature="0"
           sodipodi:nodetypes="csscsscc" />
        <path
           style="fill:#7e4d2a;fill-opacity:1;stroke:#000000;stroke-width:0.47625;stroke-linecap:round;stroke-linejoin:round;stroke-miterlimit:15.4;stroke-dasharray:none;stroke-opacity:1;paint-order:normal"
           d="m 275.25702,528.88675 v 34.1187 c 0,3.1796 7.52365,3.52288 7.52365,3.52288 0,0 -4.376,-0.23558 -4.46108,0.63578 -0.0385,0.39415 2.55059,2.66148 2.55059,2.66148 0,0 -4.06811,-2.76607 -5.10114,-2.66148 -0.53926,0.0546 -0.20477,1.61309 -0.20477,1.61309 -0.40669,-0.76819 -2.1811,-1.19016 -3.32735,-1.06419 -0.88685,0.0975 -3.76347,2.66148 -3.76347,2.66148 0,0 2.27707,-2.04709 1.21292,-2.66148 -1.39051,-0.80281 -8.84387,0.98419 -8.84387,0.98419 0,0 10.0637,-2.55083 10.0637,-4.92096 v -34.88949 c 0,-2.95261 -2.77613,-5.61808 -6.39837,-7.4314 l 0.90176,-1.52908 c 5.34298,3.68047 6.35159,4.50883 6.82207,-1.41146 l 2.43085,0.23524 c -1.01036,6.29097 1.56663,4.85809 5.05773,0.66652 l 0.86256,1.45067 c -3.04806,2.38913 -5.32578,5.61445 -5.32578,8.01951 z"
           id="path3"
           sodipodi:nodetypes="sscscscscscssccccccs" />
        <path
           style="fill:#00a800;fill-opacity:1;stroke:#000000;stroke-width:0.47625;stroke-linecap:round;stroke-linejoin:round;stroke-miterlimit:15.4;stroke-dasharray:none;stroke-opacity:1;paint-order:normal"
           d="m 269.91844,518.39718 c 1.93341,2.13288 0.68339,5.37286 -2.33908,3.43665 0.0866,2.4492 -2.95824,3.66003 -5.10117,1.10894 -1.77869,2.06032 -4.72457,1.02114 -5.65563,-1.33073 0.33268,2.35854 -3.77043,4.03573 -5.65565,0.88715 -1.32714,1.8494 -5.73435,0.2187 -4.43579,-2.32879 -2.85732,0.96808 -3.69825,-2.61125 -0.33269,-4.10311 -2.08475,-1.51091 0.64087,-6.11402 4.43579,-2.99416 -0.14787,-2.6615 3.86013,-4.16668 7.31906,-1.66342 -2.15364,-1.825 -1.44428,-6.7058 3.10507,-4.76848 -1.19385,-4.12083 2.24354,-7.11349 6.43189,-3.77043 -0.54774,-3.24269 4.85449,-5.44381 7.20818,-2.32879 2.77727,-3.29634 7.76724,-0.74376 7.42995,2.55058 2.33138,-3.28379 7.92289,-2.10181 8.20621,0.88717 3.86219,-1.73505 6.50409,2.647 4.3249,4.76847 3.78986,-0.38677 4.90494,3.98171 1.88521,5.65564 3.59552,0.71325 5.36335,5.9695 0.44358,6.4319 1.30769,2.87327 -4.44764,5.55427 -7.76264,2.66148 -2.02818,1.80791 -5.9941,1.54076 -7.20815,-1.44164 -0.0289,2.74435 -3.77294,2.9659 -4.49846,0.80759 -0.90036,0.54603 -3.27806,-1.79779 -1.99576,-3.21363 -1.2823,1.41584 -5.18797,0.97436 -5.80482,-1.25239 z"
           id="path4"
           sodipodi:nodetypes="cccccccccccccccccccccc" />
      </g>
      <g
         id="g10"
         style="stroke:#000000;stroke-width:1.67397;stroke-linecap:round;stroke-linejoin:round;stroke-dasharray:none;stroke-opacity:1;paint-order:normal"
         transform="matrix(0.28450364,0,0,0.28450364,240.20831,254.86819)">
        <path
           style="fill:#ffffff;fill-opacity:1;stroke:#000000;stroke-width:1.67397;stroke-linecap:round;stroke-linejoin:round;stroke-miterlimit:4;stroke-dasharray:none;stroke-opacity:1;paint-order:normal"
           d="m 17.898021,1155.7933 c 0,5.8858 -30.07961,5.9001 -39.74907,5.9001 -9.66947,0 -18.61693,0.014 -18.61693,5.9001 v -31.7241 c 0,-5.8858 8.94749,-5.9001 18.61693,-5.9001 9.66946,0 41.443978,1.2853 37.3717,-5.7681 5.468148,9.4711 -1.65404,15.2087 -17.49718,17.4475 7.1672081,4.138 10.3962739,14.1446 19.87455,14.1446 z"
           id="path17513-0"
           inkscape:connector-curvature="0"
           sodipodi:nodetypes="czcczccc" />
        <path
           style="fill:#ffffff;fill-opacity:1;stroke:#000000;stroke-width:1.67397;stroke-linecap:round;stroke-linejoin:round;stroke-miterlimit:4;stroke-dasharray:none;stroke-opacity:1;paint-order:normal"
           d="m -344.79505,1155.7933 c 0,5.8858 30.07961,5.9001 39.74907,5.9001 9.66947,0 18.61693,0.014 18.61693,5.9001 v -31.7241 c 0,-5.8858 -8.94749,-5.9001 -18.61693,-5.9001 -9.66946,0 -41.44398,1.2853 -37.3717,-5.7681 -5.46815,9.4711 1.65404,15.2087 17.49718,17.4475 -7.16721,4.138 -10.39627,14.1446 -19.87455,14.1446 z"
           id="path17513-0-0"
           inkscape:connector-curvature="0"
           sodipodi:nodetypes="czcczccc" />
        <path
           sodipodi:nodetypes="czcczcc"
           inkscape:connector-curvature="0"
           id="path17461-8"
           d="m -3.2340683,1147.6697 c 0,-5.8859 -8.9475207,-5.9002 -18.6169607,-5.9002 -9.66946,0 -18.61695,-0.014 -18.61695,-5.9001 v 31.7241 c 0,5.8858 8.94752,5.9001 18.61695,5.9001 9.66944,0 18.6169607,-0.514 18.6169607,5.3718 z"
           style="fill:#e0e0e0;fill-opacity:1;stroke:#000000;stroke-width:1.67397;stroke-linecap:round;stroke-linejoin:round;stroke-miterlimit:4;stroke-dasharray:none;stroke-opacity:1;paint-order:normal" />
        <g
           id="g9"
           style="stroke:#000000;stroke-width:1.67397;stroke-linecap:round;stroke-linejoin:round;stroke-dasharray:none;stroke-opacity:1;paint-order:normal">
          <path
             style="display:inline;fill:#ffffff;fill-opacity:1;stroke:#000000;stroke-width:1.67397;stroke-linecap:round;stroke-linejoin:round;stroke-miterlimit:4;stroke-dasharray:none;stroke-opacity:1;paint-order:normal"
             d="m -27.134043,1187.9355 c 8.289698,-0.9868 23.8999747,-2.6558 23.8999747,-8.5417 v -31.7241 c 0,5.8859 -15.6147147,7.5184 -23.8999747,8.5417 -7.491987,0.9253 -27.768626,2.1379 -41.916153,2.1378 -14.147487,0 -33.180054,1.0979 -41.916144,2.1378 -8.28969,0.9867 -23.89997,2.6558 -23.89997,8.5416 v 31.7241 c 0,-5.8859 15.61471,-7.5184 23.89997,-8.5417 7.49199,-0.9253 27.768657,-2.1378 41.916144,-2.1378 14.1475,0 33.180067,-1.0979 41.916153,-2.1377 z"
             id="path17521-1"
             inkscape:connector-curvature="0"
             sodipodi:nodetypes="sccszsccszs" />
          <path
             d="m -92.4533,1166.8426 2.6763,-0.12 v 10.23 c 0,1.66 -0.1652,2.89 -0.4956,3.72 -0.3304,0.82 -0.826,1.46 -1.4869,1.93 -0.6535,0.46 -1.4603,0.72 -2.4211,0.79 -1.2688,0.08 -2.2626,-0.3 -2.9814,-1.12 -0.7187,-0.83 -1.0818,-2.13 -1.0891,-3.89 l 2.5193,-0.52 c 0.0294,0.95 0.1504,1.61 0.3631,2 0.286,0.52 0.715,0.77 1.2871,0.73 0.5574,-0.04 0.9681,-0.26 1.2322,-0.66 0.264,-0.42 0.3961,-1.3 0.3961,-2.65 z m 5.5774,-0.24 2.6653,-0.12 v 8.76 c 0,1.36 0.033,2.24 0.0991,2.65 0.1175,0.71 0.3965,1.24 0.8371,1.62 0.4479,0.37 1.0353,0.53 1.7622,0.5 0.6168,-0.02 1.1198,-0.18 1.5093,-0.46 0.3894,-0.28 0.6539,-0.67 0.7936,-1.16 0.1469,-0.49 0.2204,-1.54 0.2204,-3.15 v -8.94 l 2.6784,-0.05 v 8.49 c 0,2.16 -0.1176,3.74 -0.3527,4.71 -0.2278,0.97 -0.7495,1.76 -1.5652,2.38 -0.8083,0.61 -1.8777,0.91 -3.2067,0.97 -1.3804,0.06 -2.4598,-0.14 -3.2381,-0.6 -0.7709,-0.47 -1.3327,-1.14 -1.6851,-2.02 -0.3451,-0.89 -0.5176,-2.54 -0.5176,-4.96 z m 12.7962,10.51 2.6122,-0.35 c 0.294,2.06 1.2565,3.07 2.8878,3.04 0.8083,-0.01 1.444,-0.23 1.9069,-0.66 0.463,-0.43 0.6944,-0.96 0.6944,-1.59 0,-0.36 -0.0808,-0.67 -0.2425,-0.93 -0.1616,-0.25 -0.4078,-0.46 -0.7385,-0.61 -0.3306,-0.17 -1.1316,-0.44 -2.4028,-0.8 -1.139,-0.33 -1.973,-0.69 -2.5021,-1.08 -0.529,-0.4 -0.9515,-0.92 -1.2675,-1.57 -0.3086,-0.65 -0.4629,-1.36 -0.4629,-2.12 0,-0.88 0.1984,-1.68 0.5952,-2.39 0.4041,-0.71 0.9589,-1.25 1.6643,-1.63 0.7054,-0.37 1.5761,-0.57 2.6122,-0.58 1.5579,-0.03 2.774,0.37 3.6485,1.2 0.8744,0.84 1.3373,2.04 1.3888,3.61 l -2.6785,0.19 c -0.1175,-0.87 -0.3711,-1.47 -0.7605,-1.81 -0.3895,-0.34 -0.9443,-0.5 -1.6644,-0.49 -0.7201,0.01 -1.2749,0.17 -1.6643,0.48 -0.3895,0.31 -0.5842,0.69 -0.5842,1.14 0,0.44 0.1764,0.8 0.5291,1.1 0.3527,0.29 1.1646,0.61 2.4359,0.95 1.3447,0.37 2.3147,0.76 2.9099,1.19 0.6025,0.41 1.0618,0.96 1.3778,1.64 0.3159,0.67 0.4739,1.49 0.4739,2.46 0,1.4 -0.4335,2.59 -1.3006,3.56 -0.8598,0.97 -2.2082,1.47 -4.0452,1.5 -3.2479,0.05 -5.0555,-1.76 -5.4229,-5.45 z m 16.0969,4.99 v -13.43 l -3.9349,0.06 v -2.73 l 10.5217,-0.34 v 2.74 l -3.9211,0.16 v 13.43 z m 8.3315,-0.35 v -16.16 l 2.6655,-0.11 v 16.16 z m 13.7824,-6.75 2.5822,0.8 c -0.4028,1.84 -1.0729,3.22 -2.0102,4.14 -0.9374,0.91 -2.0939,1.38 -3.4654,1.47 -1.7235,0.11 -3.1207,-0.47 -4.1915,-1.73 -1.2321,-1.46 -1.8482,-3.49 -1.8482,-6.1 0,-2.75 0.6197,-4.95 1.8592,-6.59 1.0782,-1.42 2.5267,-2.19 4.3456,-2.31 1.4815,-0.09 2.7217,0.35 3.7177,1.28 0.7104,0.66 1.2303,1.68 1.5599,3.07 l -2.6373,0.99 c -0.1687,-0.87 -0.5061,-1.51 -1.0121,-1.95 -0.4988,-0.43 -1.0892,-0.63 -1.7713,-0.59 -0.9754,0.07 -1.7712,0.54 -2.3873,1.43 -0.616,0.9 -0.9241,2.32 -0.9241,4.29 0,2.03 0.3007,3.46 0.9021,4.28 0.6014,0.82 1.3825,1.2 2.3433,1.14 0.7041,-0.04 1.3129,-0.35 1.8263,-0.93 0.5134,-0.59 0.8837,-1.48 1.1111,-2.69 z m 4.8715,5.54 v -16.16 l 2.6535,-0.27 v 16.16 z m 17.0918,-2.39 -2.8569,0.55 -1.1398,-3.47 -5.2386,0.74 -1.0829,3.81 -2.8221,0.35 5.1192,-16.8 2.8042,-0.4 z m -4.8465,-5.51 -1.7976,-5.72 -1.7817,6.23 z"
             style="font-weight:bold;font-stretch:condensed;font-size:22.5778px;line-height:1;font-family:Arial;-inkscape-font-specification:'Arial Bold Condensed';text-align:end;letter-spacing:0.0926042px;word-spacing:0px;text-orientation:sideways;text-anchor:end;stroke:none;stroke-width:1.67397;stroke-linecap:round;stroke-linejoin:round;stroke-miterlimit:15.4;stroke-dasharray:none;stroke-opacity:1;paint-order:normal"
             id="path1928" />
        </g>
        <path
           sodipodi:nodetypes="czcczcc"
           inkscape:connector-curvature="0"
           id="path17461"
           d="m -97.632399,1180.8289 c 0,-5.8859 -8.947521,-5.9002 -18.616961,-5.9002 -9.66946,0 -18.61695,-0.014 -18.61695,-5.9001 v 31.7241 c 0,5.8858 8.94752,5.9001 18.61695,5.9001 9.66944,0 18.616961,-0.514 18.616961,5.3718 z"
           style="fill:#e0e0e0;fill-opacity:1;stroke:#000000;stroke-width:1.67397;stroke-linecap:round;stroke-linejoin:round;stroke-miterlimit:4;stroke-dasharray:none;stroke-opacity:1;paint-order:normal" />
        <path
           sodipodi:nodetypes="czcczcc"
           inkscape:connector-curvature="0"
           id="path17461-8-0"
           d="m -323.66296,1147.6697 c 0,-5.8859 8.94752,-5.9002 18.61696,-5.9002 9.66946,0 18.61695,-0.014 18.61695,-5.9001 v 31.7241 c 0,5.8858 -8.94752,5.9001 -18.61695,5.9001 -9.66944,0 -18.61696,-0.514 -18.61696,5.3718 z"
           style="fill:#e0e0e0;fill-opacity:1;stroke:#000000;stroke-width:1.67397;stroke-linecap:round;stroke-linejoin:round;stroke-miterlimit:4;stroke-dasharray:none;stroke-opacity:1;paint-order:normal" />
        <path
           style="display:inline;fill:#ffffff;fill-opacity:1;stroke:#000000;stroke-width:1.67397;stroke-linecap:round;stroke-linejoin:round;stroke-miterlimit:4;stroke-dasharray:none;stroke-opacity:1;paint-order:normal"
           d="m -299.76299,1187.9355 c -8.28969,-0.9867 -23.89997,-2.6558 -23.89997,-8.5417 v -31.7241 c 0,5.8859 15.61472,7.5184 23.89997,8.5417 7.49199,0.9253 27.76863,2.1379 41.91616,2.1378 14.14748,0 33.18005,1.0979 41.91614,2.1378 8.2897,0.9867 23.89997,2.6558 23.89997,8.5416 v 31.7241 c 0,-5.8859 -15.61471,-7.5184 -23.89997,-8.5417 -7.49199,-0.9252 -27.76866,-2.1378 -41.91614,-2.1378 -14.1475,0 -33.18007,-1.0979 -41.91616,-2.1377 z"
           id="path17521-1-7"
           inkscape:connector-curvature="0"
           sodipodi:nodetypes="sccszsccszs" />
        <path
           sodipodi:nodetypes="czcczcc"
           inkscape:connector-curvature="0"
           id="path17461-1"
           d="m -229.26463,1180.8289 c 0,-5.8859 8.94752,-5.9002 18.61696,-5.9002 9.66946,0 18.61695,-0.014 18.61695,-5.9001 v 31.7241 c 0,5.8858 -8.94752,5.9001 -18.61695,5.9001 -9.66944,0 -18.61696,-0.514 -18.61696,5.3718 z"
           style="fill:#e0e0e0;fill-opacity:1;stroke:#000000;stroke-width:1.67397;stroke-linecap:round;stroke-linejoin:round;stroke-miterlimit:4;stroke-dasharray:none;stroke-opacity:1;paint-order:normal" />
        <path
           style="display:inline;fill:#ffffff;fill-opacity:1;stroke:#000000;stroke-width:1.67397;stroke-linecap:round;stroke-linejoin:round;stroke-miterlimit:4;stroke-dasharray:none;stroke-opacity:1;paint-order:normal"
           d="m -121.53237,1189.3706 c 8.28526,-1.0233 23.899982,-2.6558 23.899982,-8.5417 v 31.7241 c 0,5.8859 -15.610282,7.5549 -23.899982,8.5417 -8.73608,1.0398 -27.86316,2.1377 -41.91614,2.1377 -14.05301,0 -33.18006,-1.0979 -41.91615,-2.1377 -8.28969,-0.9868 -23.89997,-2.6558 -23.89997,-8.5417 v -31.7241 c 0,5.8859 15.61471,7.5184 23.89997,8.5417 7.49199,0.9253 27.67414,2.1379 41.91615,2.1379 14.242,0 34.42416,-1.2126 41.91614,-2.1379 z"
           id="path17521"
           inkscape:connector-curvature="0"
           sodipodi:nodetypes="sccszsccszs" />
        <path
           d="m -312.991,1162.9076 2.619,0.51 v 8.75 c 0,1.36 0.032,2.25 0.097,2.68 0.116,0.73 0.387,1.35 0.823,1.81 0.443,0.46 1.024,0.74 1.743,0.85 0.61,0.1 1.108,0.04 1.493,-0.17 0.385,-0.22 0.648,-0.58 0.787,-1.05 0.146,-0.47 0.218,-1.51 0.218,-3.12 v -8.94 l 2.659,0.33 v 8.49 c 0,2.17 -0.117,3.72 -0.351,4.66 -0.226,0.94 -0.743,1.65 -1.553,2.15 -0.802,0.5 -1.862,0.66 -3.176,0.45 -1.366,-0.21 -2.43,-0.64 -3.195,-1.28 -0.757,-0.65 -1.309,-1.45 -1.655,-2.42 -0.339,-0.97 -0.509,-2.66 -0.509,-5.08 z m 13.353,18.17 v -16.16 l 2.587,0.27 5.403,11.27 v -10.79 l 2.486,0.16 v 16.16 l -2.684,-0.18 -5.314,-11.01 v 10.54 z m 13.297,1.1 v -16.17 l 2.662,0.17 v 16.17 z m 5.296,-15.83 4.879,0.21 c 1.234,0.06 2.163,0.23 2.787,0.54 0.631,0.3 1.211,0.78 1.74,1.46 0.529,0.68 0.944,1.54 1.245,2.6 0.301,1.06 0.451,2.36 0.451,3.91 0,1.4 -0.158,2.61 -0.473,3.63 -0.316,1.02 -0.716,1.81 -1.201,2.4 -0.485,0.58 -1.072,1.01 -1.762,1.29 -0.683,0.27 -1.564,0.39 -2.644,0.34 l -5.022,-0.21 z m 2.665,2.85 v 10.71 l 2.005,0.08 c 0.859,0.04 1.479,-0.02 1.861,-0.16 0.389,-0.15 0.705,-0.38 0.947,-0.69 0.25,-0.32 0.456,-0.83 0.617,-1.53 0.162,-0.7 0.243,-1.62 0.243,-2.78 0,-1.19 -0.085,-2.14 -0.254,-2.84 -0.161,-0.7 -0.418,-1.25 -0.771,-1.66 -0.345,-0.42 -0.767,-0.69 -1.266,-0.84 -0.375,-0.11 -1.098,-0.19 -2.17,-0.23 z m 22.737,14.05 -2.91,-0.05 -1.157,-3.69 -5.291,-0.09 -1.091,3.65 -2.844,-0.05 5.159,-16.07 2.832,0.04 z m -4.927,-6.48 -1.819,-6.03 -1.796,5.97 z m 6.419,-9.66 4.883,0.09 c 1.235,0.02 2.164,0.18 2.789,0.47 0.632,0.28 1.211,0.78 1.74,1.46 0.529,0.68 0.944,1.54 1.245,2.6 0.301,1.06 0.451,2.36 0.451,3.91 0,1.4 -0.158,2.61 -0.473,3.63 -0.316,1.01 -0.716,1.81 -1.201,2.39 -0.485,0.59 -1.072,1 -1.762,1.3 -0.684,0.29 -1.565,0.42 -2.646,0.4 l -5.026,-0.09 z m 2.668,2.78 v 10.71 l 2.006,0.03 c 0.859,0.02 1.48,-0.05 1.862,-0.21 0.39,-0.15 0.706,-0.39 0.948,-0.71 0.25,-0.32 0.456,-0.83 0.617,-1.53 0.162,-0.7 0.243,-1.63 0.243,-2.78 0,-1.2 -0.085,-2.15 -0.254,-2.84 -0.161,-0.7 -0.418,-1.25 -0.771,-1.66 -0.345,-0.4 -0.768,-0.67 -1.267,-0.8 -0.375,-0.11 -1.099,-0.17 -2.172,-0.19 z"
           style="font-weight:bold;font-stretch:condensed;font-size:22.5778px;line-height:1;font-family:Arial;-inkscape-font-specification:'Arial Bold Condensed';text-align:center;letter-spacing:0.0926042px;word-spacing:0px;text-orientation:sideways;text-anchor:middle;stroke:none;stroke-width:1.67397;stroke-linecap:round;stroke-linejoin:round;stroke-miterlimit:15.4;stroke-dasharray:none;stroke-opacity:1;paint-order:normal"
           id="path1668" />
        <path
           d="m -184.284,1215.3958 v -16.16 l 5.233,0.2 c 1.982,0.08 3.275,0.21 3.877,0.4 0.925,0.27 1.7,0.83 2.325,1.66 0.624,0.81 0.937,1.87 0.937,3.15 0,0.99 -0.18,1.83 -0.54,2.5 -0.36,0.67 -0.82,1.2 -1.378,1.57 -0.551,0.36 -1.113,0.59 -1.685,0.69 -0.779,0.13 -1.906,0.16 -3.382,0.1 l -2.126,-0.08 v 6.1 z m 3.261,-13.3 v 4.59 l 1.784,0.07 c 1.285,0.05 2.145,-0.01 2.578,-0.16 0.433,-0.15 0.771,-0.4 1.013,-0.75 0.25,-0.35 0.375,-0.77 0.375,-1.24 0,-0.59 -0.173,-1.08 -0.518,-1.48 -0.345,-0.4 -0.782,-0.65 -1.311,-0.77 -0.389,-0.09 -1.171,-0.15 -2.346,-0.2 z m 24.778,13.76 -3.549,0.05 -1.411,-3.64 -6.459,-0.03 -1.334,3.65 -3.461,-0.06 6.294,-16.06 3.45,0.03 z m -6.007,-6.3 -2.227,-6 -2.182,5.97 z m 6.51798,6.29 v -2.94 l 8.483,-10.75 -7.524,0.25 v -2.73 l 11.82,-0.43 v 2.54 l -8.845,11.25 9.187,-0.36 v 2.72 z"
           style="font-weight:bold;font-size:22.5778px;line-height:1;font-family:Arial;-inkscape-font-specification:'Arial Bold';text-align:center;letter-spacing:0.0926042px;word-spacing:0px;text-orientation:sideways;text-anchor:middle;stroke:none;stroke-width:1.67397;stroke-linecap:round;stroke-linejoin:round;stroke-miterlimit:15.4;stroke-dasharray:none;stroke-opacity:1;paint-order:normal"
           id="path4119"
           sodipodi:nodetypes="cccccsscccccccccscssccccccccccccccccccccccccccc" />
      </g>
    </g>
  </g>
</svg>
