<?xml version="1.0" encoding="UTF-8" standalone="no"?>
<!-- Created with Inkscape (http://www.inkscape.org/) -->

<svg
   width="1800"
   height="1800"
   viewBox="0 0 476.25 476.25001"
   version="1.1"
   id="svg8"
   inkscape:export-filename="C:\Users\厂永刄先生\Documents\GXI3CW2\,pjóŭ\Ghana.png"
   inkscape:export-xdpi="96"
   inkscape:export-ydpi="96"
   inkscape:version="1.3 (0e150ed6c4, 2023-07-21)"
   sodipodi:docname="cl_1913_roundel.svg"
   xmlns:inkscape="http://www.inkscape.org/namespaces/inkscape"
   xmlns:sodipodi="http://sodipodi.sourceforge.net/DTD/sodipodi-0.dtd"
   xmlns="http://www.w3.org/2000/svg"
   xmlns:svg="http://www.w3.org/2000/svg"
   xmlns:rdf="http://www.w3.org/1999/02/22-rdf-syntax-ns#"
   xmlns:cc="http://creativecommons.org/ns#"
   xmlns:dc="http://purl.org/dc/elements/1.1/">
  <defs
     id="defs2" />
  <sodipodi:namedview
     id="base"
     pagecolor="#ffffff"
     bordercolor="#666666"
     borderopacity="1.0"
     inkscape:pageopacity="0.0"
     inkscape:pageshadow="2"
     inkscape:zoom="0.30222223"
     inkscape:cx="885.11027"
     inkscape:cy="1073.7132"
     inkscape:document-units="px"
     inkscape:current-layer="layer1"
     showgrid="false"
     units="px"
     fit-margin-top="0"
     fit-margin-left="0"
     fit-margin-right="0"
     fit-margin-bottom="0"
     inkscape:showpageshadow="false"
     inkscape:snap-intersection-paths="true"
     inkscape:object-paths="false"
     inkscape:pagecheckerboard="true"
     inkscape:snap-smooth-nodes="false"
     inkscape:window-width="1920"
     inkscape:window-height="1009"
     inkscape:window-x="-8"
     inkscape:window-y="-8"
     inkscape:window-maximized="1"
     inkscape:object-nodes="true"
     inkscape:snap-nodes="true"
     inkscape:deskcolor="#505050" />
  <metadata
     id="metadata5">
    <rdf:RDF>
      <cc:Work
         rdf:about="">
        <dc:format>image/svg+xml</dc:format>
        <dc:type
           rdf:resource="http://purl.org/dc/dcmitype/StillImage" />
      </cc:Work>
    </rdf:RDF>
  </metadata>
  <g
     inkscape:label="レイヤー 1"
     inkscape:groupmode="layer"
     id="layer1"
     transform="translate(-444.87799,-608.83038)">
    <path
       id="circle7"
       style="fill:#0000a8;fill-opacity:1;stroke-width:13.0235;stroke-linecap:round;stroke-linejoin:round;stroke-miterlimit:155;paint-order:stroke fill markers"
       d="m 921.12799,846.95538 c 0,131.5128 -106.6122,238.12502 -238.125,238.12502 -131.5128,0 -238.125,-106.61222 -238.125,-238.12502 0,-131.5128 106.6122,-238.125 238.125,-238.125 131.5128,0 238.125,106.6122 238.125,238.125 z"
       sodipodi:nodetypes="zzzzz" />
    <path
       id="path2"
       style="fill:#ffffff;fill-opacity:1;stroke-width:8.68233;stroke-linecap:round;stroke-linejoin:round;stroke-miterlimit:155;paint-order:stroke fill markers"
       d="m 841.75298,846.95539 c 0,87.67519 -71.0748,158.75001 -158.74999,158.75001 -87.6752,0 -158.75,-71.07482 -158.75,-158.75001 0,-87.6752 71.0748,-158.75 158.75,-158.75 87.67519,0 158.74999,71.0748 158.74999,158.75 z"
       sodipodi:nodetypes="zzzzz" />
    <path
       id="circle9"
       style="fill:#ff0000;fill-opacity:1;stroke-width:2.17058;stroke-linecap:round;stroke-linejoin:round;stroke-miterlimit:155;paint-order:stroke fill markers"
       d="m 762.37799,846.95538 c 0,43.83761 -35.5374,79.37501 -79.375,79.37501 -43.8376,0 -79.375,-35.5374 -79.375,-79.375 0,-43.8376 35.5374,-79.37501 79.375,-79.37501 43.8376,0 79.375,35.53741 79.375,79.375 z"
       sodipodi:nodetypes="zzzzz" />
    <path
       id="path1"
       style="fill:#ffffff;stroke-width:0.0140633;stroke-linecap:round;stroke-linejoin:round;stroke-miterlimit:3.9"
       inkscape:transform-center-x="-2.0902838e-06"
       inkscape:transform-center-y="-39.687498"
       d="m 683.00299,767.58038 17.82165,54.84679 h 57.66847 l -46.65411,33.89705 17.81945,54.8469 -46.65521,-33.89598 -46.65571,33.89598 17.81976,-54.8469 -46.65442,-33.89706 57.66866,1e-5 z"
       sodipodi:nodetypes="ccccccccccc" />
  </g>
</svg>
