<?xml version="1.0" encoding="UTF-8" standalone="no"?>
<!-- Created with Inkscape (http://www.inkscape.org/) -->

<svg
   width="1800"
   height="1800"
   viewBox="0 0 476.25 476.25001"
   version="1.1"
   id="svg8"
   inkscape:export-filename="C:\Users\厂永刄先生\Documents\GXI3CW2\,pjóŭ\Ghana.png"
   inkscape:export-xdpi="96"
   inkscape:export-ydpi="96"
   inkscape:version="1.3 (0e150ed6c4, 2023-07-21)"
   sodipodi:docname="cl_1953_000-001_roundel.svg"
   xmlns:inkscape="http://www.inkscape.org/namespaces/inkscape"
   xmlns:sodipodi="http://sodipodi.sourceforge.net/DTD/sodipodi-0.dtd"
   xmlns="http://www.w3.org/2000/svg"
   xmlns:svg="http://www.w3.org/2000/svg"
   xmlns:rdf="http://www.w3.org/1999/02/22-rdf-syntax-ns#"
   xmlns:cc="http://creativecommons.org/ns#"
   xmlns:dc="http://purl.org/dc/elements/1.1/">
  <defs
     id="defs2" />
  <sodipodi:namedview
     id="base"
     pagecolor="#ffffff"
     bordercolor="#666666"
     borderopacity="1.0"
     inkscape:pageopacity="0.0"
     inkscape:pageshadow="2"
     inkscape:zoom="0.30222223"
     inkscape:cx="554.22793"
     inkscape:cy="865.25733"
     inkscape:document-units="px"
     inkscape:current-layer="layer1"
     showgrid="false"
     units="px"
     fit-margin-top="0"
     fit-margin-left="0"
     fit-margin-right="0"
     fit-margin-bottom="0"
     inkscape:showpageshadow="false"
     inkscape:snap-intersection-paths="true"
     inkscape:object-paths="false"
     inkscape:pagecheckerboard="true"
     inkscape:snap-smooth-nodes="false"
     inkscape:window-width="1920"
     inkscape:window-height="1009"
     inkscape:window-x="-8"
     inkscape:window-y="-8"
     inkscape:window-maximized="1"
     inkscape:object-nodes="true"
     inkscape:snap-nodes="true"
     inkscape:deskcolor="#505050" />
  <metadata
     id="metadata5">
    <rdf:RDF>
      <cc:Work
         rdf:about="">
        <dc:format>image/svg+xml</dc:format>
        <dc:type
           rdf:resource="http://purl.org/dc/dcmitype/StillImage" />
      </cc:Work>
    </rdf:RDF>
  </metadata>
  <g
     inkscape:label="レイヤー 1"
     inkscape:groupmode="layer"
     id="layer1"
     transform="translate(-444.87799,-608.83038)">
    <path
       id="path216"
       style="color:#000000;fill:#000000;fill-opacity:1;stroke:none;stroke-width:0.847888;stroke-dasharray:none;stroke-opacity:1"
       d="m 666.98228,733.48062 c 0,8.92392 7.09644,16.01232 16.02072,16.01232 8.92427,0 16.02072,-7.0884 16.02072,-16.01232 0,-8.92439 -7.09645,-16.01436 -16.02072,-16.01436 -8.92428,0 -16.02072,7.08997 -16.02072,16.01436 z m 45.4207,0 c 0,11.7546 -7.01398,21.96023 -17.0557,26.65247 l 0.48931,12.3972 h 62.79836 v 21.4789 h -61.95057 l 8.10625,205.3754 c 0.46013,11.65751 12.68116,20.25851 29.55663,20.25851 61.09282,0 96.38804,-92.43394 100.15808,-113.2825 5.09856,12.39888 10.62456,34.60388 7.0614,50.86245 -1.40521,-2.76847 -5.02452,-7.48256 -8.55839,-7.54992 0,0 -21.07458,66.34707 -50.08571,84.06297 -41.87177,25.5695 -91.46024,36.6922 -99.91964,51.3443 -8.4594,-14.6521 -58.04787,-25.7748 -99.91964,-51.3443 -29.01113,-17.7159 -50.08571,-84.06297 -50.08571,-84.06297 -3.53387,0.0674 -7.15319,4.78145 -8.55839,7.54992 -3.56316,-16.25857 1.96284,-38.46357 7.0614,-50.86245 3.77003,20.84856 39.06526,113.2825 100.15808,113.2825 16.87547,0 29.09649,-8.601 29.55661,-20.25851 l 8.10626,-205.3754 -61.95056,-10e-6 v -21.4789 h 62.79835 l 0.48931,-12.39719 c -10.0417,-4.69225 -17.0557,-14.89787 -17.0557,-26.65248 0,-16.15727 13.24296,-29.40022 29.39999,-29.40022 16.15703,0 29.39999,13.24296 29.39998,29.40023 z"
       sodipodi:nodetypes="szszsscccccsscccscscccsscccccszs" />
    <path
       id="path1"
       style="fill:#000000;fill-opacity:1;stroke-width:0.447094;stroke-linecap:round;stroke-linejoin:round;stroke-miterlimit:155;paint-order:stroke fill markers"
       d="m 683.003,608.83038 8.55396,26.32645 h 27.68128 l -22.39462,16.27063 8.55399,26.32647 -22.39461,-16.27066 -22.39462,16.27065 8.55397,-26.32646 -22.39462,-16.27063 h 27.68126 z"
       sodipodi:nodetypes="ccccccccccc" />
  </g>
</svg>
