<?xml version="1.0" encoding="UTF-8" standalone="no"?>
<!-- Created with Inkscape (http://www.inkscape.org/) -->

<svg
   width="2736"
   height="1800"
   viewBox="0 0 723.9 476.25001"
   version="1.1"
   id="svg8"
   inkscape:export-filename="C:\Users\厂永刄先生\Documents\GXI3CW2\,pjóŭ\Gambie.png"
   inkscape:export-xdpi="96"
   inkscape:export-ydpi="96"
   inkscape:version="1.3 (0e150ed6c4, 2023-07-21)"
   sodipodi:docname="gm_1965_000-001.svg"
   xmlns:inkscape="http://www.inkscape.org/namespaces/inkscape"
   xmlns:sodipodi="http://sodipodi.sourceforge.net/DTD/sodipodi-0.dtd"
   xmlns="http://www.w3.org/2000/svg"
   xmlns:svg="http://www.w3.org/2000/svg"
   xmlns:rdf="http://www.w3.org/1999/02/22-rdf-syntax-ns#"
   xmlns:cc="http://creativecommons.org/ns#"
   xmlns:dc="http://purl.org/dc/elements/1.1/">
  <defs
     id="defs2" />
  <sodipodi:namedview
     id="base"
     pagecolor="#ffffff"
     bordercolor="#666666"
     borderopacity="1.0"
     inkscape:pageopacity="0.0"
     inkscape:pageshadow="2"
     inkscape:zoom="0.15111112"
     inkscape:cx="1366.5441"
     inkscape:cy="976.10292"
     inkscape:document-units="px"
     inkscape:current-layer="layer1"
     showgrid="false"
     units="px"
     fit-margin-top="0"
     fit-margin-left="0"
     fit-margin-right="0"
     fit-margin-bottom="0"
     inkscape:showpageshadow="false"
     inkscape:snap-intersection-paths="true"
     inkscape:object-paths="false"
     inkscape:pagecheckerboard="true"
     inkscape:snap-smooth-nodes="false"
     inkscape:window-width="1920"
     inkscape:window-height="1009"
     inkscape:window-x="-8"
     inkscape:window-y="-8"
     inkscape:window-maximized="1"
     inkscape:object-nodes="true"
     inkscape:snap-nodes="true"
     inkscape:deskcolor="#505050" />
  <metadata
     id="metadata5">
    <rdf:RDF>
      <cc:Work
         rdf:about="">
        <dc:format>image/svg+xml</dc:format>
        <dc:type
           rdf:resource="http://purl.org/dc/dcmitype/StillImage" />
      </cc:Work>
    </rdf:RDF>
  </metadata>
  <g
     inkscape:label="レイヤー 1"
     inkscape:groupmode="layer"
     id="layer1"
     transform="translate(-6.7279798,-418.33036)">
    <path
       sodipodi:nodetypes="ccccccc"
       inkscape:connector-curvature="0"
       id="path1"
       d="m 730.62798,418.33036 h -476.25 v 158.75 l -238.125,0 v 317.5 h 714.375 z"
       style="fill:#ffffff;fill-opacity:1;stroke:none;stroke-width:1.27917px;stroke-linecap:butt;stroke-linejoin:miter;stroke-opacity:1" />
    <path
       style="fill:#ffffff;fill-opacity:1;stroke:none;stroke-width:0.51166773px;stroke-linecap:butt;stroke-linejoin:miter;stroke-opacity:1"
       d="M 16.25298,418.33036 H 6.7279798 v 476.25 H 16.25298 Z"
       id="path1079"
       inkscape:connector-curvature="0"
       sodipodi:nodetypes="ccccc" />
    <path
       sodipodi:nodetypes="ccccc"
       inkscape:connector-curvature="0"
       id="path884"
       d="m 254.37798,471.24703 v -52.91667 h -238.125 v 52.91667 z"
       style="fill:#ff0000;fill-opacity:1;stroke:none;stroke-width:0.42639px;stroke-linecap:butt;stroke-linejoin:miter;stroke-opacity:1" />
    <path
       sodipodi:nodetypes="ccccc"
       inkscape:connector-curvature="0"
       id="path831"
       d="m 254.37798,577.08036 v -52.91667 h -238.125 v 52.91667 z"
       style="fill:#00a800;fill-opacity:1;stroke:none;stroke-width:0.42639px;stroke-linecap:butt;stroke-linejoin:miter;stroke-opacity:1" />
    <path
       style="fill:#0055ff;fill-opacity:1;stroke:none;stroke-width:0.42639px;stroke-linecap:butt;stroke-linejoin:miter;stroke-opacity:1"
       d="m 254.37798,515.34425 h -238.125 v -35.27778 h 238.125 z"
       id="path819"
       inkscape:connector-curvature="0"
       sodipodi:nodetypes="ccccc" />
    <path
       sodipodi:nodetypes="ccccc"
       inkscape:connector-curvature="0"
       id="path817"
       d="m 254.37798,471.24703 h -238.125 v 8.81944 h 238.125 z"
       style="fill:#ffffff;fill-opacity:1;stroke:none;stroke-width:0.42639px;stroke-linecap:butt;stroke-linejoin:miter;stroke-opacity:1" />
    <path
       style="fill:#ffffff;fill-opacity:1;stroke:none;stroke-width:0.42639px;stroke-linecap:butt;stroke-linejoin:miter;stroke-opacity:1"
       d="m 254.37798,515.34425 h -238.125 v 8.81944 h 238.125 z"
       id="path820"
       inkscape:connector-curvature="0"
       sodipodi:nodetypes="ccccc" />
    <path
       id="path2-5"
       style="color:#000000;fill:#0055ff;stroke:none;stroke-width:0.706582;stroke-dasharray:none;stroke-opacity:1;fill-opacity:1"
       d="m 492.50298,497.70536 c -13.46422,0 -24.49994,11.03575 -24.49994,24.49992 0,9.79584 5.845,18.30034 14.21309,22.21045 v 10.33102 h -80.03157 v 17.89918 l 80.03157,8.95096 V 738.0222 c 0,11.70876 -11.98225,22.65206 -32.50006,22.65206 -50.91064,0 -80.32338,-77.0283 -83.46512,-94.40196 -4.24876,10.33225 -8.85375,28.83649 -5.8845,42.38531 1.17106,-2.30714 4.18715,-6.23554 7.13208,-6.29163 0,0 17.56212,55.2892 41.73807,70.05248 34.89322,21.30791 76.2169,30.57683 83.26638,42.7869 7.04945,-12.21007 48.37314,-21.47899 83.26638,-42.7869 24.17593,-14.76328 41.73808,-70.05248 41.73808,-70.05248 2.94492,0.0561 5.96101,3.98449 7.13207,6.29163 2.96925,-13.54882 -1.63576,-32.05306 -5.88453,-42.38531 -3.14174,17.37366 -32.55445,94.40196 -83.46509,94.40196 -20.51781,0 -32.4987,-10.9433 -32.4987,-22.65206 V 581.59689 l 80.03018,-8.95096 v -17.89918 h -80.03018 v -10.33102 c 8.36534,-3.91043 14.20482,-12.4152 14.20482,-22.21045 0,-13.46417 -11.02881,-24.49992 -24.49303,-24.49992 z m 0,11.15489 c 7.43681,0 13.34364,5.90821 13.34364,13.34503 0,7.43684 -5.90683,13.34367 -13.34364,13.34367 -7.43684,0 -13.35056,-5.90683 -13.35056,-13.34367 0,-7.43682 5.91372,-13.34503 13.35056,-13.34503 z" />
  </g>
</svg>
