<?xml version="1.0" encoding="UTF-8" standalone="no"?>
<!-- Created with Inkscape (http://www.inkscape.org/) -->

<svg
   width="3036"
   height="1800"
   viewBox="0 0 803.275 476.25001"
   version="1.1"
   id="svg8"
   inkscape:export-filename="C:\Users\厂永刄先生\Documents\GXI3CW2\JáÈŭcèŭ\Àfúĥŏ\1880.png"
   inkscape:export-xdpi="96"
   inkscape:export-ydpi="96"
   inkscape:version="1.3 (0e150ed6c4, 2023-07-21)"
   sodipodi:docname="li_1937.svg"
   xmlns:inkscape="http://www.inkscape.org/namespaces/inkscape"
   xmlns:sodipodi="http://sodipodi.sourceforge.net/DTD/sodipodi-0.dtd"
   xmlns:xlink="http://www.w3.org/1999/xlink"
   xmlns="http://www.w3.org/2000/svg"
   xmlns:svg="http://www.w3.org/2000/svg"
   xmlns:rdf="http://www.w3.org/1999/02/22-rdf-syntax-ns#"
   xmlns:cc="http://creativecommons.org/ns#"
   xmlns:dc="http://purl.org/dc/elements/1.1/">
  <defs
     id="defs2">
    <linearGradient
       id="linearGradient1"
       inkscape:collect="always">
      <stop
         style="stop-color:#ffc000;stop-opacity:1;"
         offset="0.2937063"
         id="stop1" />
      <stop
         style="stop-color:#000000;stop-opacity:1;"
         offset="1"
         id="stop2" />
    </linearGradient>
    <linearGradient
       inkscape:collect="always"
       xlink:href="#linearGradient1"
       id="linearGradient2"
       x1="-371.38596"
       y1="-914.36249"
       x2="-371.38596"
       y2="-909.79004"
       gradientUnits="userSpaceOnUse"
       spreadMethod="reflect"
       gradientTransform="matrix(0.70555558,0,0,0.70555558,-634.52619,1053.4477)" />
  </defs>
  <sodipodi:namedview
     id="base"
     pagecolor="#ffffff"
     bordercolor="#666666"
     borderopacity="1.0"
     inkscape:pageopacity="0.0"
     inkscape:pageshadow="2"
     inkscape:zoom="0.29380764"
     inkscape:cx="1538.4215"
     inkscape:cy="1005.7601"
     inkscape:document-units="px"
     inkscape:current-layer="layer1"
     showgrid="false"
     units="px"
     fit-margin-top="0"
     fit-margin-left="0"
     fit-margin-right="0"
     fit-margin-bottom="0"
     inkscape:showpageshadow="false"
     inkscape:snap-intersection-paths="false"
     inkscape:object-paths="false"
     inkscape:pagecheckerboard="true"
     inkscape:snap-smooth-nodes="false"
     inkscape:window-width="1920"
     inkscape:window-height="1009"
     inkscape:window-x="-8"
     inkscape:window-y="-8"
     inkscape:window-maximized="1"
     inkscape:object-nodes="true"
     inkscape:snap-nodes="true"
     showguides="false"
     inkscape:deskcolor="#505050" />
  <metadata
     id="metadata5">
    <rdf:RDF>
      <cc:Work
         rdf:about="">
        <dc:format>image/svg+xml</dc:format>
        <dc:type
           rdf:resource="http://purl.org/dc/dcmitype/StillImage" />
      </cc:Work>
    </rdf:RDF>
  </metadata>
  <g
     inkscape:label="レイヤー 1"
     inkscape:groupmode="layer"
     id="layer1"
     transform="translate(1064.8345,-299.26786)">
    <path
       style="fill:#0000a8;fill-opacity:1;stroke:none;stroke-width:0.11093;stroke-linecap:butt;stroke-linejoin:miter;stroke-miterlimit:5.33333;stroke-dasharray:none;stroke-opacity:1"
       d="m -1055.3095,299.26786 v 238.125 h 793.75001 v -238.125 z"
       id="path815"
       inkscape:connector-curvature="0"
       sodipodi:nodetypes="ccccc" />
    <g
       id="g1068"
       style="stroke:none;stroke-width:2.3812499;stroke-miterlimit:4;stroke-dasharray:none;stroke-opacity:1" />
    <path
       sodipodi:nodetypes="ccccc"
       inkscape:connector-curvature="0"
       id="path1079"
       d="m -1064.8345,299.26786 h 9.525 v 476.25 h -9.525 z"
       style="fill:#ffffff;fill-opacity:1;stroke:none;stroke-width:0.51166773px;stroke-linecap:butt;stroke-linejoin:miter;stroke-opacity:1" />
    <g
       id="g142"
       transform="translate(0,1.5874573)">
      <path
         sodipodi:nodetypes="cszscc"
         inkscape:connector-curvature="0"
         id="path8976-3-0-6"
         d="m -959.52034,460.85407 c 1.02154,-16.13404 -24.60641,-57.03442 1.0777,-64.69478 23.71814,-7.074 34.07013,4.71161 61.88314,4.71161 27.81302,0 38.165,-11.78561 61.88314,-4.71161 25.68411,7.66036 0.0562,48.56074 1.07771,64.69478 z"
         style="fill:url(#linearGradient2);fill-opacity:1;stroke:#000000;stroke-width:0.47625;stroke-linecap:round;stroke-linejoin:round;stroke-miterlimit:4;stroke-dasharray:none;stroke-opacity:1" />
      <g
         id="g44629-1-3"
         style="fill:#ffc000;fill-opacity:1;stroke:#000000;stroke-width:0.675;stroke-linecap:round;stroke-linejoin:round;stroke-miterlimit:4;stroke-dasharray:none;stroke-opacity:1"
         transform="matrix(-0.70555558,0,0,0.70555558,-1158.5928,1053.4477)">
        <g
           style="fill:#ffc000;fill-opacity:1;stroke:#000000;stroke-width:1.40976;stroke-linecap:round;stroke-linejoin:round;stroke-miterlimit:4;stroke-dasharray:none;stroke-opacity:1"
           id="g8715-6-2-7-7"
           transform="matrix(0.4788046,0,0,0.4788046,-2221.0672,639.80166)">
          <g
             style="fill:#ffc000;fill-opacity:1;stroke:#000000;stroke-width:1.40976;stroke-linecap:round;stroke-linejoin:round;stroke-miterlimit:4;stroke-dasharray:none;stroke-opacity:1"
             transform="matrix(-1,0,0,1,7726.2475,0)"
             id="g8660-8-7-6-6">
            <path
               style="fill:#ffc000;fill-opacity:1;stroke:#000000;stroke-width:1.40976;stroke-linecap:round;stroke-linejoin:round;stroke-miterlimit:4;stroke-dasharray:none;stroke-opacity:1"
               d="m 3842.0434,-3272.8601 c -32.1433,9.9857 -72.8743,-15.3286 -113.5185,-15.2836 -40.6443,0.045 -58.7024,2.3053 -71.4491,25.5347 -27.9332,50.9048 29.4009,149.429 27.8692,172.2082 h -10.1935 c 1.6247,-22.7792 -59.1894,-123.3034 -29.5608,-174.2082 13.5204,-23.2294 32.6746,-27.4901 75.7858,-27.5347 43.1112,-0.045 86.3144,27.2693 120.4087,17.2836 8.535,-2.4998 11.5031,-11.9953 11.5031,-19.1672 0,7.1719 -2.7983,18.6674 -10.8449,21.1672 z"
               id="path8634-5-6-7-2"
               inkscape:connector-curvature="0"
               sodipodi:nodetypes="szsccszscs" />
            <path
               style="display:inline;opacity:1;fill:#ffc000;fill-opacity:1;fill-rule:nonzero;stroke:#000000;stroke-width:1.40976;stroke-linecap:round;stroke-linejoin:round;stroke-miterlimit:4;stroke-dasharray:none;stroke-dashoffset:0;stroke-opacity:1;paint-order:markers fill stroke"
               d="m 3637.0815,-3239.1214 c 1.5613,-0.017 2.4251,2.0894 2.4251,8.9998 0,6.9105 -0.8638,9.013 -2.4251,9 -4.9253,-0.041 -8.9179,-4.0535 -8.9179,-9 0,-4.9464 3.9926,-8.9591 8.9179,-8.9998 z"
               id="path8636-0-7-8-2"
               inkscape:connector-curvature="0"
               sodipodi:nodetypes="szszs" />
            <path
               sodipodi:nodetypes="szszs"
               inkscape:connector-curvature="0"
               id="path8638-8-8-2-7"
               d="m 3636.6072,-3214.9478 c 1.5385,-0.2661 2.7277,1.6753 3.8314,8.497 1.1037,6.8217 0.5868,9.0353 -0.9565,9.2718 -4.8687,0.7462 -9.4508,-2.5772 -10.2409,-7.4602 -0.79,-4.8828 2.5104,-9.4816 7.366,-10.3086 z"
               style="display:inline;opacity:1;fill:#ffc000;fill-opacity:1;fill-rule:nonzero;stroke:#000000;stroke-width:1.40976;stroke-linecap:round;stroke-linejoin:round;stroke-miterlimit:4;stroke-dasharray:none;stroke-dashoffset:0;stroke-opacity:1;paint-order:markers fill stroke" />
            <path
               sodipodi:nodetypes="szszs"
               inkscape:connector-curvature="0"
               id="path8640-8-4-9-4"
               d="m 3642.9395,-3262.6467 c 1.5062,0.4113 1.7599,2.6739 -0.133,9.3198 -1.893,6.6462 -3.2997,8.4317 -4.7977,7.9915 -4.7258,-1.3886 -7.4665,-6.3413 -6.1115,-11.0986 1.355,-4.7572 6.2941,-7.5227 11.0421,-6.2127 z"
               style="display:inline;opacity:1;fill:#ffc000;fill-opacity:1;fill-rule:nonzero;stroke:#000000;stroke-width:1.40976;stroke-linecap:round;stroke-linejoin:round;stroke-miterlimit:4;stroke-dasharray:none;stroke-dashoffset:0;stroke-opacity:1;paint-order:markers fill stroke" />
            <path
               style="display:inline;opacity:1;fill:#ffc000;fill-opacity:1;fill-rule:nonzero;stroke:#000000;stroke-width:1.40976;stroke-linecap:round;stroke-linejoin:round;stroke-miterlimit:4;stroke-dasharray:none;stroke-dashoffset:0;stroke-opacity:1;paint-order:markers fill stroke"
               d="m 3658.2156,-3281.5345 c 1.166,1.0384 0.3865,3.1776 -4.2655,8.2874 -4.6523,5.1099 -6.7065,6.0831 -7.8522,5.0225 -3.6146,-3.3462 -3.8655,-9.0011 -0.5354,-12.6588 3.33,-3.6575 8.9837,-3.9368 12.653,-0.6512 z"
               id="path8642-0-1-3-3"
               inkscape:connector-curvature="0"
               sodipodi:nodetypes="szszs" />
            <path
               sodipodi:nodetypes="szszs"
               inkscape:connector-curvature="0"
               id="path8644-0-2-9-1"
               d="m 3680.0197,-3290.3352 c 0.5182,1.4729 -1.1988,2.9682 -7.742,5.19 -6.5436,2.2219 -8.8123,2.0799 -9.302,0.5975 -1.5449,-4.6772 0.9709,-9.7478 5.6548,-11.3383 4.6837,-1.5903 9.7671,0.9002 11.3892,5.5507 z"
               style="display:inline;opacity:1;fill:#ffc000;fill-opacity:1;fill-rule:nonzero;stroke:#000000;stroke-width:1.40976;stroke-linecap:round;stroke-linejoin:round;stroke-miterlimit:4;stroke-dasharray:none;stroke-dashoffset:0;stroke-opacity:1;paint-order:markers fill stroke" />
            <path
               style="display:inline;opacity:1;fill:#ffc000;fill-opacity:1;fill-rule:nonzero;stroke:#000000;stroke-width:1.40976;stroke-linecap:round;stroke-linejoin:round;stroke-miterlimit:4;stroke-dasharray:none;stroke-dashoffset:0;stroke-opacity:1;paint-order:markers fill stroke"
               d="m 3703.8281,-3293.0439 c 0.115,1.5572 -1.9334,2.5514 -8.8299,2.9846 -6.8969,0.4331 -9.0495,-0.2973 -9.1345,-1.8562 -0.2679,-4.9184 3.4865,-9.1545 8.4234,-9.4647 4.9366,-0.31 9.1917,3.4233 9.541,8.3362 z"
               id="path8646-0-5-9-1"
               inkscape:connector-curvature="0"
               sodipodi:nodetypes="szszs" />
            <path
               sodipodi:nodetypes="szszs"
               inkscape:connector-curvature="0"
               id="path8648-5-9-7-7"
               d="m 3729.6508,-3292.4992 c 0.02,1.5613 -2.0858,2.4284 -8.9959,2.439 -6.9104,0.01 -9.0143,-0.8502 -9.0038,-2.4114 0.033,-4.9256 4.0398,-8.9241 8.9864,-8.9318 4.9464,-0.01 8.9652,3.979 9.0133,8.9041 z"
               style="display:inline;opacity:1;fill:#ffc000;fill-opacity:1;fill-rule:nonzero;stroke:#000000;stroke-width:1.40976;stroke-linecap:round;stroke-linejoin:round;stroke-miterlimit:4;stroke-dasharray:none;stroke-dashoffset:0;stroke-opacity:1;paint-order:markers fill stroke" />
            <path
               style="display:inline;opacity:1;fill:#ffc000;fill-opacity:1;fill-rule:nonzero;stroke:#000000;stroke-width:1.40976;stroke-linecap:round;stroke-linejoin:round;stroke-miterlimit:4;stroke-dasharray:none;stroke-dashoffset:0;stroke-opacity:1;paint-order:markers fill stroke"
               d="m 3755.0223,-3288.084 c -0.2296,1.5444 -2.4469,2.064 -9.27,0.9708 -6.8233,-1.094 -8.7628,-2.2791 -8.5031,-3.8186 0.8193,-4.8571 5.4134,-8.1643 10.2977,-7.3817 4.8845,0.7801 8.2146,5.3598 7.4754,10.2294 z"
               id="path8650-0-9-3-5"
               inkscape:connector-curvature="0"
               sodipodi:nodetypes="szszs" />
            <path
               sodipodi:nodetypes="szszs"
               inkscape:connector-curvature="0"
               id="path8652-7-5-6-4"
               d="m 3782.5478,-3281.2364 c -0.3802,1.5143 -2.6378,1.8137 -9.3205,0.056 -6.6829,-1.7589 -8.4966,-3.1287 -8.087,-4.6353 1.2923,-4.7531 6.189,-7.5932 10.9729,-6.3346 4.7842,1.256 7.6485,6.1406 6.4346,10.9141 z"
               style="display:inline;opacity:1;fill:#ffc000;fill-opacity:1;fill-rule:nonzero;stroke:#000000;stroke-width:1.40976;stroke-linecap:round;stroke-linejoin:round;stroke-miterlimit:4;stroke-dasharray:none;stroke-dashoffset:0;stroke-opacity:1;paint-order:markers fill stroke" />
            <path
               style="display:inline;opacity:1;fill:#ffc000;fill-opacity:1;fill-rule:nonzero;stroke:#000000;stroke-width:1.40976;stroke-linecap:round;stroke-linejoin:round;stroke-miterlimit:4;stroke-dasharray:none;stroke-dashoffset:0;stroke-opacity:1;paint-order:markers fill stroke"
               d="m 3808.5878,-3275.0176 c -0.2872,1.5346 -2.5224,1.9711 -9.2998,0.6239 -6.7776,-1.3484 -8.6714,-2.6051 -8.3544,-4.1339 1.0003,-4.8231 5.7148,-7.9562 10.5665,-6.9915 4.8518,0.9621 8.0085,5.663 7.0877,10.5017 z"
               id="path8654-8-2-7-4"
               inkscape:connector-curvature="0"
               sodipodi:nodetypes="szszs" />
            <path
               sodipodi:nodetypes="szszs"
               inkscape:connector-curvature="0"
               id="path8656-6-2-4-2"
               d="m 3837.4067,-3274.1832 c 0.074,1.5594 -1.9999,2.4997 -8.9053,2.7518 -6.9058,0.251 -9.0385,-0.5351 -9.0825,-2.0958 -0.139,-4.9237 3.7258,-9.0597 8.6693,-9.2398 4.9429,-0.1828 9.0986,3.6633 9.3185,8.584 z"
               style="display:inline;opacity:1;fill:#ffc000;fill-opacity:1;fill-rule:nonzero;stroke:#000000;stroke-width:1.40976;stroke-linecap:round;stroke-linejoin:round;stroke-miterlimit:4;stroke-dasharray:none;stroke-dashoffset:0;stroke-opacity:1;paint-order:markers fill stroke" />
            <path
               sodipodi:nodetypes="cssssssssccsssssssscc"
               inkscape:connector-curvature="0"
               id="path8658-9-0-5-4"
               d="m 3848.8887,-3294.0273 c 0,3.0657 -0.6582,7.3534 -2.0957,10.7949 -1.4376,3.4415 -3.4458,5.7792 -5.9356,6.5527 -14.7,4.5667 -32.2064,1.0802 -51.3672,-3.9629 -19.1607,-5.043 -39.8167,-11.5256 -60.9707,-11.5019 -20.3956,0.023 -35.3523,0.5229 -47.3672,4.2539 -12.0148,3.731 -20.8536,11.0923 -27.5839,23.3574 -15.0454,27.4184 -7.0188,65.6325 3.7265,99.7754 5.3726,17.0714 11.5484,33.178 16.2461,46.3418 4.6976,13.1637 7.67,23.9105 7.4121,27.7461 l 7.9824,0.5371 c 0.508,-7.554 -3.1105,-17.6637 -7.8593,-30.9707 -4.7488,-13.307 -10.8726,-29.2846 -16.1504,-46.0547 -10.5556,-33.5402 -17.2316,-70.041 -4.3438,-93.5273 6.0165,-10.9643 12.5814,-16.3468 22.9434,-19.5645 10.3619,-3.2177 24.7552,-3.8719 45.0039,-3.8945 19.4902,-0.022 39.5222,6.1319 58.9238,11.2383 19.4017,5.1065 38.3341,9.2842 55.7774,3.8652 5.5568,-1.7263 8.97,-6.3852 10.9433,-11.1094 1.9732,-4.7241 2.7149,-9.7708 2.7149,-13.8769 z"
               style="color:#000000;font-style:normal;font-variant:normal;font-weight:normal;font-stretch:normal;font-size:medium;line-height:normal;font-family:sans-serif;font-variant-ligatures:normal;font-variant-position:normal;font-variant-caps:normal;font-variant-numeric:normal;font-variant-alternates:normal;font-feature-settings:normal;text-indent:0;text-align:start;text-decoration:none;text-decoration-line:none;text-decoration-style:solid;text-decoration-color:#000000;letter-spacing:normal;word-spacing:normal;text-transform:none;writing-mode:lr-tb;direction:ltr;text-orientation:mixed;dominant-baseline:auto;baseline-shift:baseline;text-anchor:start;white-space:normal;shape-padding:0;clip-rule:nonzero;display:inline;overflow:visible;visibility:visible;opacity:1;isolation:auto;mix-blend-mode:normal;color-interpolation:sRGB;color-interpolation-filters:linearRGB;solid-color:#000000;solid-opacity:1;fill:#ffc000;fill-opacity:1;fill-rule:nonzero;stroke:#000000;stroke-width:1.40976;stroke-linecap:round;stroke-linejoin:round;stroke-miterlimit:4;stroke-dasharray:none;stroke-dashoffset:0;stroke-opacity:1;color-rendering:auto;image-rendering:auto;shape-rendering:auto;text-rendering:auto;enable-background:accumulate" />
          </g>
          <g
             style="fill:#ffc000;fill-opacity:1;stroke:#000000;stroke-width:1.40976;stroke-linecap:round;stroke-linejoin:round;stroke-miterlimit:4;stroke-dasharray:none;stroke-opacity:1"
             id="g8632-3-6-2-9">
            <path
               sodipodi:nodetypes="szsccszscs"
               inkscape:connector-curvature="0"
               id="path8336-6-1-2-3"
               d="m 3842.0434,-3272.8601 c -32.1433,9.9857 -72.8743,-15.3286 -113.5185,-15.2836 -40.6443,0.045 -58.7024,2.3053 -71.4491,25.5347 -27.9332,50.9048 29.4009,149.429 27.8692,172.2082 h -10.1935 c 1.6247,-22.7792 -59.1894,-123.3034 -29.5608,-174.2082 13.5204,-23.2294 32.6746,-27.4901 75.7858,-27.5347 43.1112,-0.045 86.3144,27.2693 120.4087,17.2836 8.535,-2.4998 11.5031,-11.9953 11.5031,-19.1672 0,7.1719 -2.7983,18.6674 -10.8449,21.1672 z"
               style="fill:#ffc000;fill-opacity:1;stroke:#000000;stroke-width:1.40976;stroke-linecap:round;stroke-linejoin:round;stroke-miterlimit:4;stroke-dasharray:none;stroke-opacity:1" />
            <path
               sodipodi:nodetypes="szszs"
               inkscape:connector-curvature="0"
               id="path8616-1-1-7-4-1"
               d="m 3637.0815,-3239.1214 c 1.5613,-0.017 2.4251,2.0894 2.4251,8.9998 0,6.9105 -0.8638,9.013 -2.4251,9 -4.9253,-0.041 -8.9179,-4.0535 -8.9179,-9 0,-4.9464 3.9926,-8.9591 8.9179,-8.9998 z"
               style="display:inline;opacity:1;fill:#ffc000;fill-opacity:1;fill-rule:nonzero;stroke:#000000;stroke-width:1.40976;stroke-linecap:round;stroke-linejoin:round;stroke-miterlimit:4;stroke-dasharray:none;stroke-dashoffset:0;stroke-opacity:1;paint-order:markers fill stroke" />
            <path
               style="display:inline;opacity:1;fill:#ffc000;fill-opacity:1;fill-rule:nonzero;stroke:#000000;stroke-width:1.40976;stroke-linecap:round;stroke-linejoin:round;stroke-miterlimit:4;stroke-dasharray:none;stroke-dashoffset:0;stroke-opacity:1;paint-order:markers fill stroke"
               d="m 3636.6072,-3214.9478 c 1.5385,-0.2661 2.7277,1.6753 3.8314,8.497 1.1037,6.8217 0.5868,9.0353 -0.9565,9.2718 -4.8687,0.7462 -9.4508,-2.5772 -10.2409,-7.4602 -0.79,-4.8828 2.5104,-9.4816 7.366,-10.3086 z"
               id="path8589-1-2-0-0"
               inkscape:connector-curvature="0"
               sodipodi:nodetypes="szszs" />
            <path
               style="display:inline;opacity:1;fill:#ffc000;fill-opacity:1;fill-rule:nonzero;stroke:#000000;stroke-width:1.40976;stroke-linecap:round;stroke-linejoin:round;stroke-miterlimit:4;stroke-dasharray:none;stroke-dashoffset:0;stroke-opacity:1;paint-order:markers fill stroke"
               d="m 3642.9395,-3262.6467 c 1.5062,0.4113 1.7599,2.6739 -0.133,9.3198 -1.893,6.6462 -3.2997,8.4317 -4.7977,7.9915 -4.7258,-1.3886 -7.4665,-6.3413 -6.1115,-11.0986 1.355,-4.7572 6.2941,-7.5227 11.0421,-6.2127 z"
               id="path8595-5-2-3-0"
               inkscape:connector-curvature="0"
               sodipodi:nodetypes="szszs" />
            <path
               sodipodi:nodetypes="szszs"
               inkscape:connector-curvature="0"
               id="path8599-7-1-1-7"
               d="m 3658.2156,-3281.5345 c 1.166,1.0384 0.3865,3.1776 -4.2655,8.2874 -4.6523,5.1099 -6.7065,6.0831 -7.8522,5.0225 -3.6146,-3.3462 -3.8655,-9.0011 -0.5354,-12.6588 3.33,-3.6575 8.9837,-3.9368 12.653,-0.6512 z"
               style="display:inline;opacity:1;fill:#ffc000;fill-opacity:1;fill-rule:nonzero;stroke:#000000;stroke-width:1.40976;stroke-linecap:round;stroke-linejoin:round;stroke-miterlimit:4;stroke-dasharray:none;stroke-dashoffset:0;stroke-opacity:1;paint-order:markers fill stroke" />
            <path
               style="display:inline;opacity:1;fill:#ffc000;fill-opacity:1;fill-rule:nonzero;stroke:#000000;stroke-width:1.40976;stroke-linecap:round;stroke-linejoin:round;stroke-miterlimit:4;stroke-dasharray:none;stroke-dashoffset:0;stroke-opacity:1;paint-order:markers fill stroke"
               d="m 3680.0197,-3290.3352 c 0.5182,1.4729 -1.1988,2.9682 -7.742,5.19 -6.5436,2.2219 -8.8123,2.0799 -9.302,0.5975 -1.5449,-4.6772 0.9709,-9.7478 5.6548,-11.3383 4.6837,-1.5903 9.7671,0.9002 11.3892,5.5507 z"
               id="path8602-0-3-4-9"
               inkscape:connector-curvature="0"
               sodipodi:nodetypes="szszs" />
            <path
               sodipodi:nodetypes="szszs"
               inkscape:connector-curvature="0"
               id="path8605-9-5-7-7"
               d="m 3703.8281,-3293.0439 c 0.115,1.5572 -1.9334,2.5514 -8.8299,2.9846 -6.8969,0.4331 -9.0495,-0.2973 -9.1345,-1.8562 -0.2679,-4.9184 3.4865,-9.1545 8.4234,-9.4647 4.9366,-0.31 9.1917,3.4233 9.541,8.3362 z"
               style="display:inline;opacity:1;fill:#ffc000;fill-opacity:1;fill-rule:nonzero;stroke:#000000;stroke-width:1.40976;stroke-linecap:round;stroke-linejoin:round;stroke-miterlimit:4;stroke-dasharray:none;stroke-dashoffset:0;stroke-opacity:1;paint-order:markers fill stroke" />
            <path
               style="display:inline;opacity:1;fill:#ffc000;fill-opacity:1;fill-rule:nonzero;stroke:#000000;stroke-width:1.40976;stroke-linecap:round;stroke-linejoin:round;stroke-miterlimit:4;stroke-dasharray:none;stroke-dashoffset:0;stroke-opacity:1;paint-order:markers fill stroke"
               d="m 3729.6508,-3292.4992 c 0.02,1.5613 -2.0858,2.4284 -8.9959,2.439 -6.9104,0.01 -9.0143,-0.8502 -9.0038,-2.4114 0.033,-4.9256 4.0398,-8.9241 8.9864,-8.9318 4.9464,-0.01 8.9652,3.979 9.0133,8.9041 z"
               id="path8608-5-5-6-1"
               inkscape:connector-curvature="0"
               sodipodi:nodetypes="szszs" />
            <path
               sodipodi:nodetypes="szszs"
               inkscape:connector-curvature="0"
               id="path8610-5-2-1-5"
               d="m 3755.0223,-3288.084 c -0.2296,1.5444 -2.4469,2.064 -9.27,0.9708 -6.8233,-1.094 -8.7628,-2.2791 -8.5031,-3.8186 0.8193,-4.8571 5.4134,-8.1643 10.2977,-7.3817 4.8845,0.7801 8.2146,5.3598 7.4754,10.2294 z"
               style="display:inline;opacity:1;fill:#ffc000;fill-opacity:1;fill-rule:nonzero;stroke:#000000;stroke-width:1.40976;stroke-linecap:round;stroke-linejoin:round;stroke-miterlimit:4;stroke-dasharray:none;stroke-dashoffset:0;stroke-opacity:1;paint-order:markers fill stroke" />
            <path
               style="display:inline;opacity:1;fill:#ffc000;fill-opacity:1;fill-rule:nonzero;stroke:#000000;stroke-width:1.40976;stroke-linecap:round;stroke-linejoin:round;stroke-miterlimit:4;stroke-dasharray:none;stroke-dashoffset:0;stroke-opacity:1;paint-order:markers fill stroke"
               d="m 3782.5478,-3281.2364 c -0.3802,1.5143 -2.6378,1.8137 -9.3205,0.056 -6.6829,-1.7589 -8.4966,-3.1287 -8.087,-4.6353 1.2923,-4.7531 6.189,-7.5932 10.9729,-6.3346 4.7842,1.256 7.6485,6.1406 6.4346,10.9141 z"
               id="path8612-4-3-2-8"
               inkscape:connector-curvature="0"
               sodipodi:nodetypes="szszs" />
            <path
               sodipodi:nodetypes="szszs"
               inkscape:connector-curvature="0"
               id="path8614-0-5-0-5"
               d="m 3808.5878,-3275.0176 c -0.2872,1.5346 -2.5224,1.9711 -9.2998,0.6239 -6.7776,-1.3484 -8.6714,-2.6051 -8.3544,-4.1339 1.0003,-4.8231 5.7148,-7.9562 10.5665,-6.9915 4.8518,0.9621 8.0085,5.663 7.0877,10.5017 z"
               style="display:inline;opacity:1;fill:#ffc000;fill-opacity:1;fill-rule:nonzero;stroke:#000000;stroke-width:1.40976;stroke-linecap:round;stroke-linejoin:round;stroke-miterlimit:4;stroke-dasharray:none;stroke-dashoffset:0;stroke-opacity:1;paint-order:markers fill stroke" />
            <path
               style="display:inline;opacity:1;fill:#ffc000;fill-opacity:1;fill-rule:nonzero;stroke:#000000;stroke-width:1.40976;stroke-linecap:round;stroke-linejoin:round;stroke-miterlimit:4;stroke-dasharray:none;stroke-dashoffset:0;stroke-opacity:1;paint-order:markers fill stroke"
               d="m 3837.4067,-3274.1832 c 0.074,1.5594 -1.9999,2.4997 -8.9053,2.7518 -6.9058,0.251 -9.0385,-0.5351 -9.0825,-2.0958 -0.139,-4.9237 3.7258,-9.0597 8.6693,-9.2398 4.9429,-0.1828 9.0986,3.6633 9.3185,8.584 z"
               id="path8617-3-5-3-1"
               inkscape:connector-curvature="0"
               sodipodi:nodetypes="szszs" />
            <path
               style="color:#000000;font-style:normal;font-variant:normal;font-weight:normal;font-stretch:normal;font-size:medium;line-height:normal;font-family:sans-serif;font-variant-ligatures:normal;font-variant-position:normal;font-variant-caps:normal;font-variant-numeric:normal;font-variant-alternates:normal;font-feature-settings:normal;text-indent:0;text-align:start;text-decoration:none;text-decoration-line:none;text-decoration-style:solid;text-decoration-color:#000000;letter-spacing:normal;word-spacing:normal;text-transform:none;writing-mode:lr-tb;direction:ltr;text-orientation:mixed;dominant-baseline:auto;baseline-shift:baseline;text-anchor:start;white-space:normal;shape-padding:0;clip-rule:nonzero;display:inline;overflow:visible;visibility:visible;opacity:1;isolation:auto;mix-blend-mode:normal;color-interpolation:sRGB;color-interpolation-filters:linearRGB;solid-color:#000000;solid-opacity:1;fill:#ffc000;fill-opacity:1;fill-rule:nonzero;stroke:#000000;stroke-width:1.40976;stroke-linecap:round;stroke-linejoin:round;stroke-miterlimit:4;stroke-dasharray:none;stroke-dashoffset:0;stroke-opacity:1;color-rendering:auto;image-rendering:auto;shape-rendering:auto;text-rendering:auto;enable-background:accumulate"
               d="m 3848.8887,-3294.0273 c 0,3.0657 -0.6582,7.3534 -2.0957,10.7949 -1.4376,3.4415 -3.4458,5.7792 -5.9356,6.5527 -14.7,4.5667 -32.2064,1.0802 -51.3672,-3.9629 -19.1607,-5.043 -39.8167,-11.5256 -60.9707,-11.5019 -20.3956,0.023 -35.3523,0.5229 -47.3672,4.2539 -12.0148,3.731 -20.8536,11.0923 -27.5839,23.3574 -15.0454,27.4184 -7.0188,65.6325 3.7265,99.7754 5.3726,17.0714 11.5484,33.178 16.2461,46.3418 4.6976,13.1637 7.67,23.9105 7.4121,27.7461 l 7.9824,0.5371 c 0.508,-7.554 -3.1105,-17.6637 -7.8593,-30.9707 -4.7488,-13.307 -10.8726,-29.2846 -16.1504,-46.0547 -10.5556,-33.5402 -17.2316,-70.041 -4.3438,-93.5273 6.0165,-10.9643 12.5814,-16.3468 22.9434,-19.5645 10.3619,-3.2177 24.7552,-3.8719 45.0039,-3.8945 19.4902,-0.022 39.5222,6.1319 58.9238,11.2383 19.4017,5.1065 38.3341,9.2842 55.7774,3.8652 5.5568,-1.7263 8.97,-6.3852 10.9433,-11.1094 1.9732,-4.7241 2.7149,-9.7708 2.7149,-13.8769 z"
               id="path8351-4-5-8-0"
               inkscape:connector-curvature="0"
               sodipodi:nodetypes="cssssssssccsssssssscc" />
          </g>
        </g>
        <g
           id="g43274-5-0"
           style="fill:#ffc000;fill-opacity:1;stroke:#000000;stroke-width:0.675;stroke-linecap:round;stroke-linejoin:round;stroke-miterlimit:4;stroke-dasharray:none;stroke-opacity:1">
          <path
             style="fill:#ffc000;fill-opacity:1;fill-rule:nonzero;stroke:#000000;stroke-width:0.675;stroke-linecap:round;stroke-linejoin:round;stroke-miterlimit:4;stroke-dasharray:none;stroke-dashoffset:0;stroke-opacity:1;paint-order:markers fill stroke"
             d="m -365.77641,-934.13483 c 1.76689,0 3.19923,-1.43235 3.19923,-3.19918 0,-1.76684 -1.43234,-3.19918 -3.19923,-3.19918 h -11.21868 c -1.76684,0 -3.19918,1.43234 -3.19918,3.19918 0,1.76683 1.43234,3.19918 3.19918,3.19918 z"
             id="path5339-6-4-6-0"
             inkscape:connector-curvature="0"
             sodipodi:nodetypes="sssssss" />
          <path
             style="fill:#ffc000;fill-opacity:1;stroke:#000000;stroke-width:0.675;stroke-linecap:round;stroke-linejoin:round;stroke-miterlimit:4;stroke-dasharray:none;stroke-opacity:1"
             d="m -372.99803,-937.26195 c 0,3.4293 -0.15571,7.96966 -0.60344,9.16494 -1.78857,4.77474 -4.05495,-4.45537 -6.31653,-4.43382 -2.26154,0.0211 -4.22397,-1.77187 -4.93327,9.33544 -1.55425,24.34051 3.5512,72.40689 3.46597,83.29893 h 19.99904 c -0.0852,-10.89204 5.02018,-58.95842 3.46598,-83.29893 -0.70935,-11.10731 -2.67173,-9.31414 -4.93327,-9.33544 -2.26159,-0.0215 -4.52796,9.20856 -6.31658,4.43382 -0.44773,-1.19528 -0.60344,-5.73564 -0.60344,-9.16494"
             id="path8345-9-2-0-9"
             inkscape:connector-curvature="0"
             sodipodi:nodetypes="cszsccszsc" />
          <path
             sodipodi:nodetypes="cszszsc"
             inkscape:connector-curvature="0"
             id="path8378-9-2-7-9"
             d="m -381.3853,-839.89646 c 0.0852,-10.89204 -5.02022,-58.95842 -3.46597,-83.29893 0.7093,-11.10731 2.31507,-9.0451 4.93327,-9.33544 2.6182,-0.29035 5.65832,1.23914 8.5322,1.23914 2.87388,0 5.914,-1.52949 8.5322,-1.23914 2.6182,0.29034 4.22397,-1.77187 4.93327,9.33544 1.55425,24.34051 -3.5512,72.40689 -3.46597,83.29893"
             style="fill:#ffc000;fill-opacity:1;stroke:#000000;stroke-width:0.675;stroke-linecap:round;stroke-linejoin:round;stroke-miterlimit:4;stroke-dasharray:none;stroke-opacity:1" />
          <path
             style="color:#000000;font-style:normal;font-variant:normal;font-weight:normal;font-stretch:normal;font-size:medium;line-height:normal;font-family:sans-serif;font-variant-ligatures:normal;font-variant-position:normal;font-variant-caps:normal;font-variant-numeric:normal;font-variant-alternates:normal;font-feature-settings:normal;text-indent:0;text-align:start;text-decoration:none;text-decoration-line:none;text-decoration-style:solid;text-decoration-color:#000000;letter-spacing:normal;word-spacing:normal;text-transform:none;writing-mode:lr-tb;direction:ltr;text-orientation:mixed;dominant-baseline:auto;baseline-shift:baseline;text-anchor:start;white-space:normal;shape-padding:0;clip-rule:nonzero;display:inline;overflow:visible;visibility:visible;opacity:1;isolation:auto;mix-blend-mode:normal;color-interpolation:sRGB;color-interpolation-filters:linearRGB;solid-color:#000000;solid-opacity:1;fill:#ffc000;fill-opacity:1;fill-rule:nonzero;stroke:#000000;stroke-width:0.675;stroke-linecap:round;stroke-linejoin:round;stroke-miterlimit:4;stroke-dasharray:none;stroke-dashoffset:0;stroke-opacity:1;color-rendering:auto;image-rendering:auto;shape-rendering:auto;text-rendering:auto;enable-background:accumulate"
             d="m -358.39133,-933.31272 c 1.58915,1.7382 2.0206,4.32274 2.38282,9.99505 0.79074,12.38337 -0.11008,30.49635 -1.18299,46.93965 -1.0729,16.44335 -2.32004,31.34202 -2.27992,36.46681 l -3.83044,0.0297 c -0.045,-5.7673 1.21837,-20.34838 2.28835,-36.74639 1.06994,-16.398 1.94558,-34.48877 1.18203,-46.44591 -0.34704,-5.43501 -1.32232,-7.40826 -1.45097,-7.57416 -1.26132,-1.62688 -2.33532,-1.82841 -3.50298,-2.02295 0.0596,-0.92141 0.71198,-1.79949 1.94911,-1.77541 0.30979,0.006 0.83504,-0.10763 1.63943,-0.0942 0.80439,0.0134 2.01098,0.35882 2.80556,1.22795 z"
             id="path8412-9-1-1-3"
             inkscape:connector-curvature="0"
             sodipodi:nodetypes="cssccssscsssc" />
          <path
             sodipodi:nodetypes="cssccssscsssc"
             inkscape:connector-curvature="0"
             id="path8356-5-0-8-9"
             d="m -384.38022,-933.31272 c -1.58916,1.7382 -2.02061,4.32274 -2.38282,9.99505 -0.79075,12.38337 0.11007,30.49635 1.18298,46.93965 1.07291,16.44335 2.32005,31.34202 2.27992,36.46681 l 3.83044,0.0297 c 0.045,-5.7673 -1.21837,-20.34838 -2.28835,-36.74639 -1.06994,-16.398 -1.94557,-34.48877 -1.18203,-46.44591 0.34704,-5.43501 1.32232,-7.40826 1.45097,-7.57416 1.26132,-1.62688 2.33533,-1.82841 3.50299,-2.02295 -0.0596,-0.92141 -0.71199,-1.79949 -1.94912,-1.77541 -0.30979,0.006 -0.83504,-0.10763 -1.63943,-0.0942 -0.80439,0.0134 -2.01098,0.35882 -2.80555,1.22795 z"
             style="color:#000000;font-style:normal;font-variant:normal;font-weight:normal;font-stretch:normal;font-size:medium;line-height:normal;font-family:sans-serif;font-variant-ligatures:normal;font-variant-position:normal;font-variant-caps:normal;font-variant-numeric:normal;font-variant-alternates:normal;font-feature-settings:normal;text-indent:0;text-align:start;text-decoration:none;text-decoration-line:none;text-decoration-style:solid;text-decoration-color:#000000;letter-spacing:normal;word-spacing:normal;text-transform:none;writing-mode:lr-tb;direction:ltr;text-orientation:mixed;dominant-baseline:auto;baseline-shift:baseline;text-anchor:start;white-space:normal;shape-padding:0;clip-rule:nonzero;display:inline;overflow:visible;visibility:visible;opacity:1;isolation:auto;mix-blend-mode:normal;color-interpolation:sRGB;color-interpolation-filters:linearRGB;solid-color:#000000;solid-opacity:1;fill:#ffc000;fill-opacity:1;fill-rule:nonzero;stroke:#000000;stroke-width:0.675;stroke-linecap:round;stroke-linejoin:round;stroke-miterlimit:4;stroke-dasharray:none;stroke-dashoffset:0;stroke-opacity:1;color-rendering:auto;image-rendering:auto;shape-rendering:auto;text-rendering:auto;enable-background:accumulate" />
          <g
             id="g136"
             style="stroke:#000000;stroke-width:0.675;stroke-dasharray:none;stroke-opacity:1">
            <path
               inkscape:connector-curvature="0"
               style="fill:#ffc000;fill-opacity:1;fill-rule:nonzero;stroke:#000000;stroke-width:0.675;stroke-linecap:round;stroke-linejoin:round;stroke-miterlimit:4;stroke-dasharray:none;stroke-dashoffset:0;stroke-opacity:1;paint-order:markers fill stroke"
               d="m -373.55333,-986.79121 v 9.65223 h -9.65224 v 4.33432 h 9.65224 v 19.30615 h 4.33425 v -19.30615 h 9.65311 v -4.33432 h -9.65311 v -9.65223 z"
               id="path5329-7-9-4-7-4"
               sodipodi:nodetypes="ccccccccccccc" />
            <path
               sodipodi:nodetypes="zzzzz"
               inkscape:connector-curvature="0"
               id="path5331-4-1-1-5-1"
               d="m -359.56592,-949.08173 c 0,6.52788 -5.29194,11.81983 -11.81983,11.81983 -6.52794,0 -11.81988,-5.29189 -11.81988,-11.81983 0,-6.52795 5.29194,-11.81989 11.81988,-11.81989 6.52789,0 11.81983,5.292 11.81983,11.81989 z"
               style="fill:#ffc000;fill-opacity:1;fill-rule:nonzero;stroke:#000000;stroke-width:0.675;stroke-linecap:round;stroke-linejoin:round;stroke-miterlimit:4;stroke-dasharray:none;stroke-dashoffset:0;stroke-opacity:1;paint-order:markers fill stroke" />
            <path
               style="opacity:1;fill:#ffc000;fill-opacity:1;fill-rule:nonzero;stroke:#000000;stroke-width:0.675;stroke-linecap:round;stroke-linejoin:round;stroke-miterlimit:4;stroke-dasharray:none;stroke-dashoffset:0;stroke-opacity:1;paint-order:markers fill stroke"
               d="m -365.77646,-934.13483 c 1.76688,0 3.19923,-1.43234 3.19923,-3.19918 0,-1.76684 -1.43235,-3.19918 -3.19923,-3.19918 h -11.21868 c -1.76684,0 -3.19918,1.43234 -3.19918,3.19918 0,1.76684 1.43234,3.19918 3.19918,3.19918 z"
               id="path8324-9-3-9-1"
               inkscape:connector-curvature="0"
               sodipodi:nodetypes="sssssss" />
          </g>
          <path
             style="display:inline;opacity:1;fill:#ffc000;fill-opacity:1;fill-rule:nonzero;stroke:#000000;stroke-width:0.675;stroke-linecap:round;stroke-linejoin:round;stroke-miterlimit:4;stroke-dasharray:none;stroke-dashoffset:0;stroke-opacity:1;paint-order:markers fill stroke"
             d="m -367.55532,-934.59371 c 0,2.11535 -1.71493,3.83029 -3.83029,3.83029 -2.1156,0 -3.83058,-1.71494 -3.83058,-3.83029 0,-2.1156 1.71498,-3.83058 3.83058,-3.83058 2.11536,0 3.83029,1.71498 3.83029,3.83058 z"
             id="path8482-7-9-3-9"
             inkscape:connector-curvature="0"
             sodipodi:nodetypes="zzzzz" />
          <path
             sodipodi:nodetypes="zzzzz"
             inkscape:connector-curvature="0"
             id="path8476-0-8-9-4"
             d="m -366.1189,-907.5413 c 0,2.90864 -2.35807,5.2667 -5.26671,5.2667 -2.90888,0 -5.26699,-2.35806 -5.26699,-5.2667 0,-2.90888 2.35811,-5.267 5.26699,-5.267 2.90864,0 5.26671,2.35812 5.26671,5.267 z"
             style="display:inline;opacity:1;fill:#ffc000;fill-opacity:1;fill-rule:nonzero;stroke:#000000;stroke-width:0.675;stroke-linecap:round;stroke-linejoin:round;stroke-miterlimit:4;stroke-dasharray:none;stroke-dashoffset:0;stroke-opacity:1;paint-order:markers fill stroke" />
          <path
             style="display:inline;opacity:1;fill:#ffc000;fill-opacity:1;fill-rule:nonzero;stroke:#000000;stroke-width:0.675;stroke-linecap:round;stroke-linejoin:round;stroke-miterlimit:4;stroke-dasharray:none;stroke-dashoffset:0;stroke-opacity:1;paint-order:markers fill stroke"
             d="m -366.35831,-896.5288 c 0,2.77645 -2.25086,5.02731 -5.0273,5.02731 -2.77668,0 -5.02759,-2.25086 -5.02759,-5.02731 0,-2.77668 2.25091,-5.02759 5.02759,-5.02759 2.77644,0 5.0273,2.25091 5.0273,5.02759 z"
             id="path8457-5-0-6-2"
             inkscape:connector-curvature="0"
             sodipodi:nodetypes="zzzzz" />
          <path
             sodipodi:nodetypes="zzzzz"
             inkscape:connector-curvature="0"
             id="path8480-8-7-9-9"
             d="m -366.83711,-928.60866 c 0,2.512 -2.0365,4.5485 -4.5485,4.5485 -2.51224,0 -4.54879,-2.0365 -4.54879,-4.5485 0,-2.51224 2.03655,-4.54878 4.54879,-4.54878 2.512,0 4.5485,2.03654 4.5485,4.54878 z"
             style="display:inline;opacity:1;fill:#ffc000;fill-opacity:1;fill-rule:nonzero;stroke:#000000;stroke-width:0.675;stroke-linecap:round;stroke-linejoin:round;stroke-miterlimit:4;stroke-dasharray:none;stroke-dashoffset:0;stroke-opacity:1;paint-order:markers fill stroke" />
          <path
             style="display:inline;opacity:1;fill:#ffc000;fill-opacity:1;fill-rule:nonzero;stroke:#000000;stroke-width:0.675;stroke-linecap:round;stroke-linejoin:round;stroke-miterlimit:4;stroke-dasharray:none;stroke-dashoffset:0;stroke-opacity:1;paint-order:markers fill stroke"
             d="m -366.1189,-918.79321 c 0,2.90864 -2.35807,5.26671 -5.26671,5.26671 -2.90888,0 -5.26699,-2.35807 -5.26699,-5.26671 0,-2.90888 2.35811,-5.26699 5.26699,-5.26699 2.90864,0 5.26671,2.35811 5.26671,5.26699 z"
             id="path8478-5-6-6-3"
             inkscape:connector-curvature="0"
             sodipodi:nodetypes="zzzzz" />
        </g>
      </g>
      <g
         id="g141"
         transform="translate(0,-1.5875)"
         style="fill:#ffc000;fill-opacity:1">
        <path
           sodipodi:nodetypes="cscccccccccscc"
           inkscape:connector-curvature="0"
           id="path2"
           d="m -831.57166,477.86165 v -16.43709 c 0,-7.23232 6.92687,-26.09492 12.85564,-31.54613 -16.66459,0 -22.75917,17.41244 -26.57094,24.01459 -2.01514,-7.52053 -2.07998,-19.51504 -10.25447,-24.54376 -4.32174,2.49514 -15.5798,8.87979 -21.34708,24.54376 -3.07771,-11.48616 -10.18801,-20.11375 -19.67096,-25.58874 -9.48295,5.47499 -16.59326,14.10258 -19.67096,25.58874 -5.76728,-15.66397 -17.02534,-22.04862 -21.34708,-24.54376 -8.1745,5.02872 -8.23934,17.02323 -10.25447,24.54376 -3.81177,-6.60215 -9.90636,-24.01459 -26.57094,-24.01459 5.92877,5.45121 12.85564,24.31381 12.85564,31.54613 v 16.43709 z"
           style="fill:#ffc000;fill-opacity:1;stroke:#000000;stroke-width:0.47625;stroke-linecap:round;stroke-linejoin:round;stroke-miterlimit:4;stroke-dasharray:none;stroke-opacity:1" />
        <path
           sodipodi:nodetypes="cscscscscsscscscscscccscsc"
           inkscape:connector-curvature="0"
           id="path7755"
           d="m -896.55948,445.98493 c 0,0 -1.37804,1.03227 -1.37804,3.3073 0,2.27499 1.37804,3.27984 1.37804,3.27984 0,0 1.37804,-1.00485 1.37805,-3.27984 0,-2.27503 -1.37805,-3.3073 -1.37805,-3.3073 z m -3.30729,5.23655 c -2.27501,0 -3.30729,1.37804 -3.30729,1.37804 0,0 1.03228,1.37803 3.30729,1.37803 2.27502,0 3.27983,-1.37803 3.27983,-1.37803 0,0 -1.00481,-1.37804 -3.27983,-1.37804 z m 6.61459,0 c -2.27501,0 -3.27983,1.37804 -3.27983,1.37804 0,0 1.00482,1.37803 3.27983,1.37803 2.27502,0 3.30729,-1.37803 3.30729,-1.37803 0,0 -1.03227,-1.37804 -3.30729,-1.37804 z m -3.3073,1.40549 c 0,0 -1.37804,1.00481 -1.37804,3.27984 0,3.04061 -3.33844,10.0397 -5.23654,11.93781 0,0 1.88696,0.0622 3.8978,-1.94866 0.25378,-0.25378 0.47444,-0.50569 0.66265,-0.75307 0.14415,2.61723 2.05413,3.80953 2.05413,3.80953 0,0 1.90999,-1.1923 2.05414,-3.80953 0.18821,0.24738 0.40886,0.49929 0.66265,0.75307 2.01084,2.01087 3.8978,1.94866 3.8978,1.94866 -1.89811,-1.89811 -5.23654,-8.8972 -5.23654,-11.93781 0,-2.27503 -1.37805,-3.27984 -1.37805,-3.27984 z"
           style="fill:#000000;fill-opacity:1;stroke:none;stroke-width:0.275696;stroke-linecap:round;stroke-linejoin:round;stroke-miterlimit:4;stroke-dasharray:none;stroke-opacity:1" />
        <path
           sodipodi:nodetypes="cscscscscsscscscscscccscsc"
           inkscape:connector-curvature="0"
           id="path136"
           d="m -934.32704,445.98493 c 0,0 -1.1593,1.03227 -0.85486,3.3073 0.30444,2.27499 1.73635,3.27984 1.73635,3.27984 0,0 1.16297,-1.00485 0.85853,-3.27984 -0.30444,-2.27503 -1.74002,-3.3073 -1.74002,-3.3073 z m -2.41309,5.23655 c -2.14194,0 -2.92944,1.37804 -2.92944,1.37804 0,0 1.15632,1.37803 3.29825,1.37803 2.14195,0 2.90359,-1.37803 2.90359,-1.37803 0,0 -1.13044,-1.37804 -3.2724,-1.37804 z m 6.22769,0 c -2.14194,0 -2.90358,1.37804 -2.90358,1.37804 0,0 1.13046,1.37803 3.2724,1.37803 2.14195,0 2.92944,-1.37803 2.92944,-1.37803 0,0 -1.1563,-1.37804 -3.29826,-1.37804 z m -2.92577,1.40549 c 0,0 -1.16297,1.00481 -0.85852,3.27984 0.40688,3.04061 -1.79968,10.0397 -3.33275,11.93781 0,0 1.78492,0.0622 3.40905,-1.94866 0.20497,-0.25378 0.37901,-0.50569 0.52311,-0.75307 0.48596,2.61723 2.44378,3.80953 2.44378,3.80953 0,0 1.63871,-1.1923 1.4242,-3.80953 0.2103,0.24738 0.45176,0.49929 0.72466,0.75307 2.16231,2.01087 3.93058,1.94866 3.93058,1.94866 -2.04109,-1.89811 -6.12086,-8.8972 -6.52775,-11.93781 -0.30444,-2.27503 -1.73636,-3.27984 -1.73636,-3.27984 z"
           style="fill:#000000;fill-opacity:1;stroke:none;stroke-width:0.267511;stroke-linecap:round;stroke-linejoin:round;stroke-miterlimit:4;stroke-dasharray:none;stroke-opacity:1" />
        <path
           sodipodi:nodetypes="csccscscsccscscsc"
           inkscape:connector-curvature="0"
           id="path137"
           d="m -963.16894,452.57207 c 0,0 0.53508,-1.02053 0.13039,-3.27984 -0.40393,-2.25513 -2.32721,-3.3073 -2.32721,-3.3073 0.80486,2.18947 1.50863,4.14895 2.19682,6.58714 z m 2.94145,-1.35059 c -2.14194,0 -2.90358,1.37804 -2.90358,1.37804 0,0 1.13046,1.37803 3.2724,1.37803 2.14195,0 2.92944,-1.37803 2.92944,-1.37803 0,0 -1.1563,-1.37804 -3.29826,-1.37804 z m -1.3198,17.73094 c 0,0 2.01854,-1.1923 1.80402,-3.80953 0.2103,0.24738 0.45176,0.49929 0.72467,0.75307 2.16231,2.01087 4.09942,1.94866 4.09942,1.94866 -2.04109,-1.89811 -6.12086,-8.8972 -6.52775,-11.93781 -0.30444,-2.27503 -1.70633,-3.27984 -1.70633,-3.27984 0.86072,3.54233 1.60597,6.03549 1.60597,8.79759 z"
           style="fill:#000000;fill-opacity:1;stroke:none;stroke-width:0.267511;stroke-linecap:round;stroke-linejoin:round;stroke-miterlimit:4;stroke-dasharray:none;stroke-opacity:1" />
        <path
           sodipodi:nodetypes="cscscscscsscscscscscccscsc"
           inkscape:connector-curvature="0"
           id="path138"
           d="m -858.79191,445.98493 c 0,0 1.1593,1.03227 0.85486,3.3073 -0.30444,2.27499 -1.73635,3.27984 -1.73635,3.27984 0,0 -1.16297,-1.00485 -0.85853,-3.27984 0.30444,-2.27503 1.74002,-3.3073 1.74002,-3.3073 z m 2.41309,5.23655 c 2.14194,0 2.92944,1.37804 2.92944,1.37804 0,0 -1.15632,1.37803 -3.29825,1.37803 -2.14195,0 -2.90359,-1.37803 -2.90359,-1.37803 0,0 1.13044,-1.37804 3.2724,-1.37804 z m -6.22769,0 c 2.14194,0 2.90358,1.37804 2.90358,1.37804 0,0 -1.13046,1.37803 -3.2724,1.37803 -2.14195,0 -2.92944,-1.37803 -2.92944,-1.37803 0,0 1.1563,-1.37804 3.29826,-1.37804 z m 2.92577,1.40549 c 0,0 1.16297,1.00481 0.85852,3.27984 -0.40688,3.04061 1.79968,10.0397 3.33275,11.93781 0,0 -1.78492,0.0622 -3.40905,-1.94866 -0.20497,-0.25378 -0.37901,-0.50569 -0.52311,-0.75307 -0.48596,2.61723 -2.44378,3.80953 -2.44378,3.80953 0,0 -1.63871,-1.1923 -1.42419,-3.80953 -0.21031,0.24738 -0.45176,0.49929 -0.72467,0.75307 -2.16231,2.01087 -3.93058,1.94866 -3.93058,1.94866 2.04109,-1.89811 6.12086,-8.8972 6.52775,-11.93781 0.30444,-2.27503 1.73636,-3.27984 1.73636,-3.27984 z"
           style="fill:#000000;fill-opacity:1;stroke:none;stroke-width:0.267511;stroke-linecap:round;stroke-linejoin:round;stroke-miterlimit:4;stroke-dasharray:none;stroke-opacity:1" />
        <path
           sodipodi:nodetypes="csccscscsccscscsc"
           inkscape:connector-curvature="0"
           id="path139"
           d="m -829.95001,452.57207 c 0,0 -0.53508,-1.02053 -0.13039,-3.27984 0.40393,-2.25513 2.32721,-3.3073 2.32721,-3.3073 -0.80486,2.18947 -1.50863,4.14895 -2.19682,6.58714 z m -2.94145,-1.35059 c 2.14194,0 2.90358,1.37804 2.90358,1.37804 0,0 -1.13046,1.37803 -3.2724,1.37803 -2.14195,0 -2.92944,-1.37803 -2.92944,-1.37803 0,0 1.1563,-1.37804 3.29826,-1.37804 z m 1.3198,17.73094 c 0,0 -2.01853,-1.1923 -1.80402,-3.80953 -0.2103,0.24738 -0.45176,0.49929 -0.72467,0.75307 -2.16231,2.01087 -4.09942,1.94866 -4.09942,1.94866 2.04109,-1.89811 6.12086,-8.8972 6.52775,-11.93781 0.30445,-2.27503 1.70633,-3.27984 1.70633,-3.27984 -0.86072,3.54233 -1.60597,6.03549 -1.60597,8.79759 z"
           style="fill:#000000;fill-opacity:1;stroke:none;stroke-width:0.267511;stroke-linecap:round;stroke-linejoin:round;stroke-miterlimit:4;stroke-dasharray:none;stroke-opacity:1" />
      </g>
    </g>
    <g
       style="display:inline;fill:#ff0000;fill-opacity:1;stroke:#000000;stroke-opacity:1"
       id="g10827"
       transform="matrix(0.26458334,0,0,0.26458334,-1746.0945,748.4582)" />
    <g
       style="display:inline;fill:#ff0000;fill-opacity:1;stroke:#000000;stroke-opacity:1"
       id="g5093"
       transform="matrix(0.26458334,0,0,-0.26458334,-1746.0945,549.34235)" />
    <path
       style="fill:#ff0000;fill-opacity:1;stroke:none;stroke-width:0.11093;stroke-linecap:butt;stroke-linejoin:miter;stroke-miterlimit:5.33333;stroke-dasharray:none;stroke-opacity:1"
       d="m -1055.3095,537.39286 v 238.125 h 793.75001 v -238.125 z"
       id="path91"
       inkscape:connector-curvature="0"
       sodipodi:nodetypes="ccccc" />
  </g>
</svg>
