<?xml version="1.0" encoding="UTF-8" standalone="no"?>
<!-- Created with Inkscape (http://www.inkscape.org/) -->

<svg
   xmlns:dc="http://purl.org/dc/elements/1.1/"
   xmlns:cc="http://creativecommons.org/ns#"
   xmlns:rdf="http://www.w3.org/1999/02/22-rdf-syntax-ns#"
   xmlns:svg="http://www.w3.org/2000/svg"
   xmlns="http://www.w3.org/2000/svg"
   xmlns:sodipodi="http://sodipodi.sourceforge.net/DTD/sodipodi-0.dtd"
   xmlns:inkscape="http://www.inkscape.org/namespaces/inkscape"
   width="1341.7775"
   height="1226.5157"
   viewBox="0 0 355.01195 324.51563"
   version="1.1"
   id="svg8"
   inkscape:export-filename="C:\Users\厂永刄先生\Documents\GXI3CW2\JáÈŭcèŭ\N̂i\香川県\章ﾈｵﾝ.png"
   inkscape:export-xdpi="96"
   inkscape:export-ydpi="96"
   inkscape:version="0.92.4 (5da689c313, 2019-01-14)"
   sodipodi:docname="章ﾈｵﾝ.svg">
  <defs
     id="defs2">
    <filter
       inkscape:collect="always"
       style="color-interpolation-filters:sRGB"
       id="filter817"
       x="-0.028553518"
       width="1.057107"
       y="-0.031600855"
       height="1.0632017">
      <feGaussianBlur
         inkscape:collect="always"
         stdDeviation="14.220386"
         id="feGaussianBlur819" />
    </filter>
    <filter
       inkscape:collect="always"
       style="color-interpolation-filters:sRGB"
       id="filter827"
       x="-0.039974924"
       width="1.0799499"
       y="-0.044241201"
       height="1.0884824">
      <feGaussianBlur
         inkscape:collect="always"
         stdDeviation="19.90854"
         id="feGaussianBlur829" />
    </filter>
    <filter
       inkscape:collect="always"
       style="color-interpolation-filters:sRGB"
       id="filter833"
       x="-0.057107035"
       width="1.1142141"
       y="-0.063201711"
       height="1.1264035">
      <feGaussianBlur
         inkscape:collect="always"
         stdDeviation="28.440771"
         id="feGaussianBlur835" />
    </filter>
  </defs>
  <sodipodi:namedview
     id="base"
     pagecolor="#000000"
     bordercolor="#666666"
     borderopacity="1.0"
     inkscape:pageopacity="1"
     inkscape:pageshadow="2"
     inkscape:zoom="0.44717875"
     inkscape:cx="670.88871"
     inkscape:cy="613.25788"
     inkscape:document-units="px"
     inkscape:current-layer="layer1"
     showgrid="false"
     units="px"
     fit-margin-top="5"
     fit-margin-left="5"
     fit-margin-right="5"
     fit-margin-bottom="5"
     inkscape:showpageshadow="false"
     inkscape:snap-intersection-paths="true"
     inkscape:object-paths="false"
     inkscape:pagecheckerboard="true"
     inkscape:snap-smooth-nodes="false"
     inkscape:window-width="1366"
     inkscape:window-height="745"
     inkscape:window-x="-8"
     inkscape:window-y="-8"
     inkscape:window-maximized="1"
     inkscape:object-nodes="true"
     inkscape:snap-nodes="true" />
  <metadata
     id="metadata5">
    <rdf:RDF>
      <cc:Work
         rdf:about="">
        <dc:format>image/svg+xml</dc:format>
        <dc:type
           rdf:resource="http://purl.org/dc/dcmitype/StillImage" />
        <dc:title />
      </cc:Work>
    </rdf:RDF>
  </metadata>
  <g
     inkscape:label="レイヤー 1"
     inkscape:groupmode="layer"
     id="layer1"
     transform="translate(-76.245178,-365.61006)">
    <path
       style="opacity:1;fill:none;fill-opacity:1;fill-rule:evenodd;stroke:#deff00;stroke-width:40;stroke-linecap:round;stroke-linejoin:round;stroke-miterlimit:4;stroke-dasharray:none;stroke-dashoffset:0;stroke-opacity:1;filter:url(#filter833)"
       d="m 1619.7422,1404 c -27.1947,-259.9468 -141.75,-493.88844 -313.7715,-671.95898 M 1386,642.19922 C 1582.435,842.66308 1712.4363,1108.4701 1740.3574,1404 m 240.9043,0 C 1946.3296,962.69054 1720.4049,575.13973 1386,324 1288.0137,397.5882 1199.3469,482.89314 1122.0645,577.82617 1020.4689,509.3933 907.25751,456.88403 786,423.89453 v 251.32422 c 71.15019,25.14826 138.19145,58.9921 199.85156,100.25 C 877.56314,963.12455 808.75304,1176.4133 790.73828,1404 M 1169.8281,938.87305 C 1280.0378,1067.5573 1354.5612,1227.7092 1378.0508,1404"
       transform="matrix(0.26458334,0,0,0.26458334,-112.33452,299.26786)"
       id="path831"
       inkscape:connector-curvature="0"
       sodipodi:nodetypes="ccccccccccccc" />
    <path
       sodipodi:nodetypes="ccccccccccccc"
       inkscape:connector-curvature="0"
       id="path821"
       transform="matrix(0.26458334,0,0,0.26458334,-112.33452,299.26786)"
       d="m 1619.7422,1404 c -27.1947,-259.9468 -141.75,-493.88844 -313.7715,-671.95898 M 1386,642.19922 C 1582.435,842.66308 1712.4363,1108.4701 1740.3574,1404 m 240.9043,0 C 1946.3296,962.69054 1720.4049,575.13973 1386,324 1288.0137,397.5882 1199.3469,482.89314 1122.0645,577.82617 1020.4689,509.3933 907.25751,456.88403 786,423.89453 v 251.32422 c 71.15019,25.14826 138.19145,58.9921 199.85156,100.25 C 877.56314,963.12455 808.75304,1176.4133 790.73828,1404 M 1169.8281,938.87305 C 1280.0378,1067.5573 1354.5612,1227.7092 1378.0508,1404"
       style="opacity:1;fill:none;fill-opacity:1;fill-rule:evenodd;stroke:#deff00;stroke-width:40;stroke-linecap:round;stroke-linejoin:round;stroke-miterlimit:4;stroke-dasharray:none;stroke-dashoffset:0;stroke-opacity:1;filter:url(#filter827)" />
    <path
       style="opacity:1;fill:none;fill-opacity:1;fill-rule:evenodd;stroke:#deff00;stroke-width:40;stroke-linecap:round;stroke-linejoin:round;stroke-miterlimit:4;stroke-dasharray:none;stroke-dashoffset:0;stroke-opacity:1;filter:url(#filter817)"
       d="m 1619.7422,1404 c -27.1947,-259.9468 -141.75,-493.88844 -313.7715,-671.95898 M 1386,642.19922 C 1582.435,842.66308 1712.4363,1108.4701 1740.3574,1404 m 240.9043,0 C 1946.3296,962.69054 1720.4049,575.13973 1386,324 1288.0137,397.5882 1199.3469,482.89314 1122.0645,577.82617 1020.4689,509.3933 907.25751,456.88403 786,423.89453 v 251.32422 c 71.15019,25.14826 138.19145,58.9921 199.85156,100.25 C 877.56314,963.12455 808.75304,1176.4133 790.73828,1404 M 1169.8281,938.87305 C 1280.0378,1067.5573 1354.5612,1227.7092 1378.0508,1404"
       transform="matrix(0.26458334,0,0,0.26458334,-112.33452,299.26786)"
       id="path815"
       inkscape:connector-curvature="0"
       sodipodi:nodetypes="ccccccccccccc" />
    <path
       sodipodi:nodetypes="ccccccccccccc"
       inkscape:connector-curvature="0"
       id="path900"
       transform="matrix(0.26458334,0,0,0.26458334,-112.33452,299.26786)"
       d="m 1619.7422,1404 c -27.1947,-259.9468 -141.75,-493.88844 -313.7715,-671.95898 M 1386,642.19922 C 1582.435,842.66308 1712.4363,1108.4701 1740.3574,1404 m 240.9043,0 C 1946.3296,962.69054 1720.4049,575.13973 1386,324 1288.0137,397.5882 1199.3469,482.89314 1122.0645,577.82617 1020.4689,509.3933 907.25751,456.88403 786,423.89453 v 251.32422 c 71.15019,25.14826 138.19145,58.9921 199.85156,100.25 C 877.56314,963.12455 808.75304,1176.4133 790.73828,1404 M 1169.8281,938.87305 C 1280.0378,1067.5573 1354.5612,1227.7092 1378.0508,1404"
       style="opacity:1;fill:none;fill-opacity:1;fill-rule:evenodd;stroke:#f8ffc0;stroke-width:20;stroke-linecap:round;stroke-linejoin:round;stroke-miterlimit:4;stroke-dasharray:none;stroke-dashoffset:0;stroke-opacity:1" />
  </g>
</svg>
