<?xml version="1.0" encoding="UTF-8" standalone="no"?>
<!-- Created with Inkscape (http://www.inkscape.org/) -->

<svg
   xmlns:dc="http://purl.org/dc/elements/1.1/"
   xmlns:cc="http://creativecommons.org/ns#"
   xmlns:rdf="http://www.w3.org/1999/02/22-rdf-syntax-ns#"
   xmlns:svg="http://www.w3.org/2000/svg"
   xmlns="http://www.w3.org/2000/svg"
   xmlns:sodipodi="http://sodipodi.sourceforge.net/DTD/sodipodi-0.dtd"
   xmlns:inkscape="http://www.inkscape.org/namespaces/inkscape"
   width="2736"
   height="1800"
   viewBox="0 0 723.89999 476.25001"
   version="1.1"
   id="svg8"
   inkscape:export-filename="C:\Users\厂永刄先生\Documents\GXI3CW2\JáÈŭcèŭ\Maqkàla\Maqkàla.png"
   inkscape:export-xdpi="96"
   inkscape:export-ydpi="96"
   inkscape:version="0.92.4 (5da689c313, 2019-01-14)"
   sodipodi:docname="1978.svg">
  <defs
     id="defs2" />
  <sodipodi:namedview
     id="base"
     pagecolor="#ffffff"
     bordercolor="#666666"
     borderopacity="1.0"
     inkscape:pageopacity="0.0"
     inkscape:pageshadow="2"
     inkscape:zoom="0.30222222"
     inkscape:cx="1368"
     inkscape:cy="900"
     inkscape:document-units="px"
     inkscape:current-layer="layer1"
     showgrid="false"
     units="px"
     fit-margin-top="0"
     fit-margin-left="0"
     fit-margin-right="0"
     fit-margin-bottom="0"
     inkscape:showpageshadow="false"
     inkscape:snap-intersection-paths="false"
     inkscape:object-paths="false"
     inkscape:pagecheckerboard="true"
     inkscape:snap-smooth-nodes="true"
     inkscape:window-width="1366"
     inkscape:window-height="745"
     inkscape:window-x="-8"
     inkscape:window-y="-8"
     inkscape:window-maximized="1"
     inkscape:object-nodes="true" />
  <metadata
     id="metadata5">
    <rdf:RDF>
      <cc:Work
         rdf:about="">
        <dc:format>image/svg+xml</dc:format>
        <dc:type
           rdf:resource="http://purl.org/dc/dcmitype/StillImage" />
        <dc:title />
      </cc:Work>
    </rdf:RDF>
  </metadata>
  <g
     inkscape:label="レイヤー 1"
     inkscape:groupmode="layer"
     id="layer1"
     transform="translate(112.33452,-299.26786)">
    <path
       style="fill:#17c000;fill-opacity:1;stroke:none;stroke-width:2.79946303px;stroke-linecap:butt;stroke-linejoin:miter;stroke-opacity:1"
       d="m -112.33452,299.26786 v 476.25 h 714.375 v -476.25 z"
       id="path820"
       inkscape:connector-curvature="0"
       sodipodi:nodetypes="ccccc" />
    <path
       style="opacity:1;fill:#ffffff;fill-opacity:1;fill-rule:evenodd;stroke:none;stroke-width:0.22373059;stroke-linecap:round;stroke-linejoin:round;stroke-miterlimit:4;stroke-dasharray:none;stroke-dashoffset:0;stroke-opacity:0.50196078"
       d="m 143.8251,436.36499 c 55.79616,-55.79617 146.2596,-55.79616 202.05575,0 55.79616,55.79616 55.79617,146.25959 0,202.05576 -18.71998,18.71998 -41.34255,31.15898 -65.24863,37.3176 13.46043,-6.28367 26.07316,-14.98011 37.18533,-26.09228 51.14649,-51.14649 51.14649,-134.07129 0,-185.21778 -51.14648,-51.14649 -134.07128,-51.14649 -185.21778,0 -11.11216,11.11217 -19.80861,23.7249 -26.09228,37.18533 6.15862,-23.90609 18.59762,-46.52865 37.31761,-65.24863 z"
       id="path829"
       inkscape:connector-curvature="0"
       sodipodi:nodetypes="szscszscs" />
    <path
       style="fill:#ffffff;fill-opacity:1;stroke:none;stroke-width:0.26458332px;stroke-linecap:butt;stroke-linejoin:miter;stroke-opacity:1"
       d="m 246.63802,599.90985 -17.12791,8.72711 3.00716,18.98645 -13.59279,-13.5928 -17.12791,8.72711 8.72711,-17.12791 -13.59279,-13.59278 18.98644,3.00715 8.72711,-17.12791 3.00715,18.98643 z"
       id="path861"
       inkscape:connector-curvature="0"
       sodipodi:nodetypes="ccccccccccc" />
    <path
       sodipodi:nodetypes="ccccccccccc"
       inkscape:connector-curvature="0"
       id="path865"
       d="m 288.94653,642.21834 -17.12791,8.72712 3.00716,18.98644 -13.59279,-13.59279 -17.12791,8.72711 8.72711,-17.12791 -13.59279,-13.59279 18.98644,3.00716 8.72711,-17.12792 3.00715,18.98644 z"
       style="fill:#ffffff;fill-opacity:1;stroke:none;stroke-width:0.26458332px;stroke-linecap:butt;stroke-linejoin:miter;stroke-opacity:1" />
    <path
       sodipodi:nodetypes="ccccccccccc"
       inkscape:connector-curvature="0"
       id="path867"
       d="m 204.32956,557.60137 -17.12791,8.72711 3.00716,18.98645 -13.59279,-13.59279 -17.12792,8.7271 8.72712,-17.1279 -13.59279,-13.59279 18.98644,3.00716 8.72711,-17.12792 3.00714,18.98643 z"
       style="fill:#ffffff;fill-opacity:1;stroke:none;stroke-width:0.26458332px;stroke-linecap:butt;stroke-linejoin:miter;stroke-opacity:1" />
    <path
       style="fill:#ffffff;fill-opacity:1;stroke:none;stroke-width:0.26458332px;stroke-linecap:butt;stroke-linejoin:miter;stroke-opacity:1"
       d="m 162.02106,515.29288 -17.12791,8.72711 3.00716,18.98644 -13.59279,-13.59279 -17.12791,8.72711 8.72711,-17.12791 -13.59278,-13.59279 18.98643,3.00716 8.72711,-17.12792 3.00715,18.98644 z"
       id="path869"
       inkscape:connector-curvature="0"
       sodipodi:nodetypes="ccccccccccc" />
    <path
       style="fill:#ffffff;fill-opacity:1;stroke:none;stroke-width:0.51166773px;stroke-linecap:butt;stroke-linejoin:miter;stroke-opacity:1"
       d="m 602.04048,299.26786 h 9.525 v 476.25 h -9.525 z"
       id="path819"
       inkscape:connector-curvature="0"
       sodipodi:nodetypes="ccccc" />
  </g>
</svg>
