<?xml version="1.0" encoding="UTF-8" standalone="no"?>
<!-- Created with Inkscape (http://www.inkscape.org/) -->

<svg
   xmlns:dc="http://purl.org/dc/elements/1.1/"
   xmlns:cc="http://creativecommons.org/ns#"
   xmlns:rdf="http://www.w3.org/1999/02/22-rdf-syntax-ns#"
   xmlns:svg="http://www.w3.org/2000/svg"
   xmlns="http://www.w3.org/2000/svg"
   xmlns:sodipodi="http://sodipodi.sourceforge.net/DTD/sodipodi-0.dtd"
   xmlns:inkscape="http://www.inkscape.org/namespaces/inkscape"
   width="2736"
   height="1800"
   viewBox="0 0 723.89999 476.25001"
   version="1.1"
   id="svg8"
   inkscape:export-filename="C:\Users\厂永刄先生\Documents\GXI3CW2\JáÈŭcèŭ\Maqkàla\Maqkàla.png"
   inkscape:export-xdpi="96"
   inkscape:export-ydpi="96"
   inkscape:version="0.92.4 (5da689c313, 2019-01-14)"
   sodipodi:docname="K'U1MULU - コピー.svg">
  <defs
     id="defs2" />
  <sodipodi:namedview
     id="base"
     pagecolor="#ffffff"
     bordercolor="#666666"
     borderopacity="1.0"
     inkscape:pageopacity="0.0"
     inkscape:pageshadow="2"
     inkscape:zoom="0.30222222"
     inkscape:cx="1368"
     inkscape:cy="900"
     inkscape:document-units="px"
     inkscape:current-layer="layer1"
     showgrid="false"
     units="px"
     fit-margin-top="0"
     fit-margin-left="0"
     fit-margin-right="0"
     fit-margin-bottom="0"
     inkscape:showpageshadow="false"
     inkscape:snap-intersection-paths="false"
     inkscape:object-paths="false"
     inkscape:pagecheckerboard="true"
     inkscape:snap-smooth-nodes="true"
     inkscape:window-width="1366"
     inkscape:window-height="745"
     inkscape:window-x="-8"
     inkscape:window-y="-8"
     inkscape:window-maximized="1"
     inkscape:object-nodes="true" />
  <metadata
     id="metadata5">
    <rdf:RDF>
      <cc:Work
         rdf:about="">
        <dc:format>image/svg+xml</dc:format>
        <dc:type
           rdf:resource="http://purl.org/dc/dcmitype/StillImage" />
        <dc:title></dc:title>
      </cc:Work>
    </rdf:RDF>
  </metadata>
  <g
     inkscape:label="レイヤー 1"
     inkscape:groupmode="layer"
     id="layer1"
     transform="translate(102.80952,-299.26786)">
    <path
       style="fill:#ffffff;fill-opacity:1;stroke:none;stroke-width:0.51166773px;stroke-linecap:butt;stroke-linejoin:miter;stroke-opacity:1"
       d="m 621.09048,299.26786 h -9.525 v 476.25 h 9.525 z"
       id="path819"
       inkscape:connector-curvature="0"
       sodipodi:nodetypes="ccccc" />
    <path
       style="fill:#e90d2c;fill-opacity:1;stroke:none;stroke-width:2.79946303px;stroke-linecap:butt;stroke-linejoin:miter;stroke-opacity:1"
       d="m 611.56548,299.26786 v 317.5 h -714.375 v -317.5 z"
       id="path820"
       inkscape:connector-curvature="0"
       sodipodi:nodetypes="ccccc" />
    <path
       style="opacity:1;fill:#ffffff;fill-opacity:1;fill-rule:evenodd;stroke:none;stroke-width:0.18644217;stroke-linecap:round;stroke-linejoin:round;stroke-miterlimit:4;stroke-dasharray:none;stroke-dashoffset:0;stroke-opacity:0.50196078"
       d="m 360.68809,381.76546 c 46.4968,-46.49681 121.883,-46.4968 168.3798,0 46.4968,46.4968 46.49681,121.88299 0,168.3798 -15.59999,15.59998 -34.45213,25.96582 -54.37386,31.098 11.21702,-5.23639 21.72763,-12.48343 30.98777,-21.74357 42.62208,-42.62207 42.62208,-111.72607 0,-154.34815 -42.62206,-42.62208 -111.72607,-42.62208 -154.34815,0 -9.26013,9.26014 -16.50717,19.77075 -21.74357,30.98778 5.13219,-19.92175 15.49802,-38.77388 31.09801,-54.37386 z"
       id="path829-0"
       inkscape:connector-curvature="0"
       sodipodi:nodetypes="szscszscs" />
    <path
       sodipodi:nodetypes="ccccccccccc"
       inkscape:connector-curvature="0"
       id="path874"
       d="m 389.22001,488.58659 -7.27259,-14.27326 -15.82204,2.50596 11.32733,-11.32732 -7.27259,-14.27326 14.27326,7.27259 11.32732,-11.32731 -2.50597,15.82201 14.27327,7.2726 -15.82203,2.50596 z"
       style="fill:#ffffff;fill-opacity:1;stroke:none;stroke-width:0.2204861px;stroke-linecap:butt;stroke-linejoin:miter;stroke-opacity:1" />
    <path
       style="fill:#ffffff;fill-opacity:1;stroke:none;stroke-width:0.2204861px;stroke-linecap:butt;stroke-linejoin:miter;stroke-opacity:1"
       d="m 380.92881,555.1309 -7.27259,-14.27325 -15.82203,2.50596 11.32732,-11.32733 -7.27259,-14.27325 14.27326,7.27258 11.32732,-11.32731 -2.50597,15.82202 14.27327,7.27259 -15.82203,2.50597 z"
       id="path880"
       inkscape:connector-curvature="0"
       sodipodi:nodetypes="ccccccccccc" />
    <path
       sodipodi:nodetypes="ccccccccccc"
       inkscape:connector-curvature="0"
       id="path884"
       d="m 455.76432,480.29539 -7.27259,-14.27325 -15.82204,2.50597 11.32733,-11.32734 -7.27259,-14.27325 14.27326,7.27259 11.32732,-11.32732 -2.50597,15.82202 14.27327,7.27259 -15.82204,2.50597 z"
       style="fill:#ffffff;fill-opacity:1;stroke:none;stroke-width:0.2204861px;stroke-linecap:butt;stroke-linejoin:miter;stroke-opacity:1" />
    <path
       style="fill:#ffffff;fill-opacity:1;stroke:none;stroke-width:0.2204861px;stroke-linecap:butt;stroke-linejoin:miter;stroke-opacity:1"
       d="m 447.47311,546.83968 -7.2726,-14.27326 -15.82203,2.50597 11.32732,-11.32733 -7.27259,-14.27326 14.27326,7.27259 11.32733,-11.32731 -2.50597,15.82202 14.27327,7.27259 -15.82204,2.50596 z"
       id="path888"
       inkscape:connector-curvature="0"
       sodipodi:nodetypes="ccccccccccc" />
    <path
       sodipodi:nodetypes="ccccc"
       inkscape:connector-curvature="0"
       id="path900"
       d="m 611.56548,616.76786 v 158.75 h -714.375 v -158.75 z"
       style="fill:#11b237;fill-opacity:1;stroke:none;stroke-width:1.61627078px;stroke-linecap:butt;stroke-linejoin:miter;stroke-opacity:1" />
  </g>
</svg>
