<?xml version="1.0" encoding="UTF-8" standalone="no"?>
<!-- Created with Inkscape (http://www.inkscape.org/) -->

<svg
   width="2436"
   height="1800"
   viewBox="0 0 644.52499 476.25001"
   version="1.1"
   id="svg8"
   inkscape:export-filename="C:\Users\厂永刄先生\Documents\GXI3CW2\JáÈŭcèŭ\Maqkàla\Maqkàla.png"
   inkscape:export-xdpi="96"
   inkscape:export-ydpi="96"
   inkscape:version="1.3 (0e150ed6c4, 2023-07-21)"
   sodipodi:docname="1996_(2).svg"
   xmlns:inkscape="http://www.inkscape.org/namespaces/inkscape"
   xmlns:sodipodi="http://sodipodi.sourceforge.net/DTD/sodipodi-0.dtd"
   xmlns="http://www.w3.org/2000/svg"
   xmlns:svg="http://www.w3.org/2000/svg"
   xmlns:rdf="http://www.w3.org/1999/02/22-rdf-syntax-ns#"
   xmlns:cc="http://creativecommons.org/ns#"
   xmlns:dc="http://purl.org/dc/elements/1.1/">
  <defs
     id="defs2" />
  <sodipodi:namedview
     id="base"
     pagecolor="#ffffff"
     bordercolor="#666666"
     borderopacity="1.0"
     inkscape:pageopacity="0.0"
     inkscape:pageshadow="2"
     inkscape:zoom="0.21370338"
     inkscape:cx="949.91478"
     inkscape:cy="-95.927355"
     inkscape:document-units="px"
     inkscape:current-layer="layer1"
     showgrid="false"
     units="px"
     fit-margin-top="0"
     fit-margin-left="0"
     fit-margin-right="0"
     fit-margin-bottom="0"
     inkscape:showpageshadow="false"
     inkscape:snap-intersection-paths="false"
     inkscape:object-paths="false"
     inkscape:pagecheckerboard="true"
     inkscape:snap-smooth-nodes="true"
     inkscape:window-width="2880"
     inkscape:window-height="1514"
     inkscape:window-x="-11"
     inkscape:window-y="-11"
     inkscape:window-maximized="1"
     inkscape:object-nodes="true"
     inkscape:deskcolor="#505050" />
  <metadata
     id="metadata5">
    <rdf:RDF>
      <cc:Work
         rdf:about="">
        <dc:format>image/svg+xml</dc:format>
        <dc:type
           rdf:resource="http://purl.org/dc/dcmitype/StillImage" />
      </cc:Work>
    </rdf:RDF>
  </metadata>
  <g
     inkscape:label="レイヤー 1"
     inkscape:groupmode="layer"
     id="layer1"
     transform="translate(112.33452,-299.26786)">
    <path
       style="fill:#00a800;fill-opacity:1;stroke:none;stroke-width:2.63936px;stroke-linecap:butt;stroke-linejoin:miter;stroke-opacity:1"
       d="m -102.80952,299.26786 v 476.25 h 635 v -476.25 z"
       id="path820-7"
       inkscape:connector-curvature="0"
       sodipodi:nodetypes="ccccc" />
    <g
       id="g8"
       transform="matrix(-1.2,0,0,1.2,771.23013,-107.47861)">
      <path
         style="fill:#ffffff;fill-opacity:1;fill-rule:evenodd;stroke:none;stroke-width:0.186442;stroke-linecap:round;stroke-linejoin:round;stroke-miterlimit:4;stroke-dasharray:none;stroke-dashoffset:0;stroke-opacity:0.501961"
         d="m 464.55895,656.45539 c -16.94615,0 -33.0654,-3.54052 -47.65837,-9.92192 60.27682,5e-5 109.14074,-48.86386 109.14074,-109.14058 0,-60.27672 -48.86392,-109.14063 -109.14074,-109.14058 14.59297,-6.3814 30.71222,-9.92192 47.65837,-9.92192 65.75641,0 119.0625,53.30609 119.0625,119.0625 0,65.75641 -53.30609,119.0625 -119.0625,119.0625 z"
         id="path4"
         inkscape:connector-curvature="0"
         sodipodi:nodetypes="sczcszs" />
      <path
         style="fill:#ffffff;fill-opacity:1;stroke:none;stroke-width:0.220486px;stroke-linecap:butt;stroke-linejoin:miter;stroke-opacity:1"
         d="m 397.97475,480.43904 4.95022,-15.23522 -12.95986,-9.41588 h 16.01926 l 4.95023,-15.23522 4.95021,15.23522 h 16.01925 l -12.95985,9.41588 4.95023,15.23522 -12.95984,-9.41588 z"
         id="path3"
         inkscape:connector-curvature="0"
         sodipodi:nodetypes="ccccccccccc" />
      <path
         style="fill:#ffffff;fill-opacity:1;stroke:none;stroke-width:0.220486px;stroke-linecap:butt;stroke-linejoin:miter;stroke-opacity:1"
         d="m 397.97475,530.30008 4.95022,-15.23522 -12.95986,-9.41588 h 16.01926 l 4.95023,-15.23522 4.95021,15.23522 h 16.01925 l -12.95985,9.41588 4.95023,15.23522 -12.95984,-9.41588 z"
         id="path6"
         inkscape:connector-curvature="0"
         sodipodi:nodetypes="ccccccccccc" />
      <path
         style="fill:#ffffff;fill-opacity:1;stroke:none;stroke-width:0.220486px;stroke-linecap:butt;stroke-linejoin:miter;stroke-opacity:1"
         d="m 397.97473,580.16109 4.95022,-15.23522 -12.95986,-9.41588 h 16.01926 l 4.95023,-15.23522 4.95021,15.23522 h 16.01925 l -12.95985,9.41588 4.95023,15.23522 -12.95984,-9.41588 z"
         id="path7"
         inkscape:connector-curvature="0"
         sodipodi:nodetypes="ccccccccccc" />
      <path
         style="fill:#ffffff;fill-opacity:1;stroke:none;stroke-width:0.220486px;stroke-linecap:butt;stroke-linejoin:miter;stroke-opacity:1"
         d="m 397.97475,630.02214 4.95022,-15.23522 -12.95986,-9.41588 h 16.01926 l 4.95023,-15.23522 4.95021,15.23522 h 16.01925 l -12.95985,9.41588 4.95023,15.23522 -12.95984,-9.41588 z"
         id="path8"
         inkscape:connector-curvature="0"
         sodipodi:nodetypes="ccccccccccc" />
    </g>
    <path
       style="fill:#ffffff;fill-opacity:1;stroke:none;stroke-width:0.511668px;stroke-linecap:butt;stroke-linejoin:miter;stroke-opacity:1"
       d="m -102.80952,299.26786 h -9.525 v 476.25 h 9.525 z"
       id="path819"
       inkscape:connector-curvature="0"
       sodipodi:nodetypes="ccccc" />
    <path
       style="font-size:176.389px;line-height:1.25;font-family:'Traditional Arabic';-inkscape-font-specification:'Traditional Arabic';text-align:center;letter-spacing:0px;word-spacing:0px;text-anchor:middle;fill:#ffffff;stroke-width:0.161057"
       d="M 13.09284,721.64093 H 0.45784685 q -3.30292355,0 -6.81555655,0.0524 -3.4602054,0.0524 -6.8679833,0.20971 -3.355352,0.10485 -6.448566,0.31456 -3.093214,0.15728 -5.662154,0.41942 -3.302924,0.36699 -5.609727,0.73398 -2.306804,0.36699 -3.77477,0.89127 -1.415539,0.52427 -2.097095,1.31068 -0.629128,0.73398 -0.629128,1.88739 0,0.26213 0.104855,0.5767 0.104855,0.31456 0.209709,0.68155 1.153402,0.83884 2.726223,1.7301 1.625248,0.83884 3.355351,1.62525 1.78253,0.78641 3.56506,1.41554 1.834958,0.57671 3.460206,0.9437 l -2.673796,10.95731 q -2.149521,-0.31456 -4.508752,-1.1534 -2.306804,-0.78641 -4.56118,-1.93981 -2.201949,-1.10098 -4.141762,-2.41166 -1.939812,-1.25826 -3.250496,-2.46409 -1.520393,-1.36311 -2.673795,-2.8835 -1.100974,-1.52039 -1.99224,-3.35535 -0.838837,-1.88739 -1.467965,-4.19419 -0.629129,-2.35923 -1.100975,-5.34759 h -20.813661 q -3.932052,0 -5.871864,-1.5204 -1.887385,-1.57282 -1.887385,-4.29904 0,-3.87962 0.99612,-7.18255 h 1.205829 q 1.048547,3.93205 5.5573,3.93205 h 19.293267 q 0,-10.1709 -2.883504,-16.35733 -2.883505,-6.18643 -9.594207,-8.28352 l 0.786411,-10.17091 q 9.12236,4.50875 12.89713,14.20782 2.464086,6.44856 2.883504,16.61947 0.419419,3.72234 0.786411,6.50099 0.419418,2.72622 1.100974,4.87574 0.681556,2.14953 1.78253,3.8272 1.100975,1.62525 2.935932,3.04079 0.157282,-2.35924 1.153402,-4.66603 1.048548,-2.30681 3.355351,-4.1942 2.359231,-1.93981 6.134001,-3.25049 3.827197,-1.36312 9.489352,-1.73011 4.508752,-0.26213 9.594207,-0.31456 5.1378803,-0.0524 9.8563424,-0.0524 -2.2019486,-1.67767 -5.5048727,-3.14564 -3.2504957,-1.52039 -7.0776937,-2.62137 -3.774769,-1.10098 -7.811676,-1.7301 -4.036906,-0.68156 -7.759249,-0.68156 -3.302923,0 -6.710701,0.68156 l 0.262136,-0.73398 q 1.363112,-3.77477 3.145642,-6.55342 1.78253,-2.83108 4.089334,-4.56119 2.621368,-1.99223 5.137881,-3.4602 2.56894,-1.46797 5.400017,-2.6738 2.831078,-1.25825 6.029147,-2.35922 3.250496,-1.15341 7.2349753,-2.41167 l -8.2310953,-5.03302 q 1.258257,-3.4602 2.77865,-6.50099 1.5728207,-3.04079 2.9359323,-4.82332 1.992239,0.36699 4.1417612,1.20583 2.1495215,0.78641 4.19418822,1.83496 2.09709448,1.04854 3.93205218,2.20195 1.8873849,1.1534 3.2504959,2.3068 1.4155386,1.10097 2.2543762,2.09709 0.838838,0.9437 0.838838,1.57282 0,2.62137 -1.0485469,5.50488 -1.0485472,2.8835 -2.8310773,5.34759 l -5.4524456,0.47184 q -3.669915,0.31457 -7.3398299,0.83884 -3.6174879,0.52428 -7.0776933,1.36312 -3.460205,0.83883 -6.658275,1.99223 -3.145641,1.1534 -5.871864,2.72623 0.943693,-0.15729 1.939813,-0.15729 3.407778,0 6.867983,1.15341 3.460206,1.10097 6.7631299,2.83107 3.3553506,1.7301 6.3961374,3.8272 3.09321399,2.09709 5.6621546,4.03691 2.9359321,2.20195 5.2951632,3.66991 2.3592311,1.41554 3.5650599,1.67768 h 5.033027 z"
       id="text823"
       aria-label="ﷴ" />
    <path
       style="font-size:176.389px;line-height:1.25;font-family:'Traditional Arabic';-inkscape-font-specification:'Traditional Arabic';text-align:center;letter-spacing:0px;word-spacing:0px;text-anchor:middle;fill:#ffffff;stroke-width:0.196058"
       d="m 488.31079,390.90036 q 0,2.4252 -0.57439,4.33982 -0.25528,0.8935 -0.63821,2.1061 -0.38292,1.14877 -0.82967,2.36137 -0.44674,1.2126 -0.89349,2.36137 -0.38293,1.08496 -0.70204,1.85081 l -1.02113,2.36137 q -3.0634,-0.12763 -5.74389,-0.57438 -2.68047,-0.51057 -5.23331,-1.40406 -2.04226,-0.70203 -3.38251,-1.91463 -1.34024,-1.27642 -2.48901,-3.12723 -1.40406,2.04227 -2.87195,3.51015 -1.46788,1.40407 -3.25487,2.48902 -0.76584,0.44675 -1.78698,0.8935 -1.02113,0.44674 -2.16991,0.82966 -1.14878,0.38293 -2.29756,0.63822 -1.14877,0.19146 -2.16991,0.19146 -2.04227,0 -4.02072,-0.44675 -1.91462,-0.51057 -3.63779,-1.78698 -1.65934,-1.2126 -2.68047,-3.25487 -1.02114,-2.04227 -1.72317,-3.9569 -2.61666,3.76544 -6.12681,6.25445 -3.57397,2.4252 -6.95648,2.4252 -3.57397,0 -6.44591,-0.25529 -2.87195,-0.3191 -4.91422,-0.76585 -2.04227,-0.51057 -3.12722,-1.2126 -1.08496,-0.70203 -1.08496,-1.5317 0,-1.34023 0.76585,-3.25487 0.76585,-1.91462 2.04227,-4.02072 1.34024,-2.10608 2.99959,-4.21218 1.65934,-2.10608 3.44633,-3.82925 0.70202,-0.70203 2.29755,-1.65935 1.59553,-0.95731 3.70161,-2.04227 2.1061,-1.14877 4.59511,-2.36137 2.55284,-1.21259 5.1695,-2.42519 -0.12764,-0.44675 -0.31911,-1.14878 -0.12764,-0.70203 -0.3191,-1.46788 -0.12765,-0.76585 -0.25528,-1.40406 -0.0638,-0.70204 -0.0638,-1.2126 0,-2.10609 1.46788,-4.85039 1.21259,-2.16991 3.25486,-4.59511 l 1.72317,10.46663 q 0.70203,3.9569 1.34024,7.59469 0.70203,3.57398 1.40406,7.02031 0.76585,3.51015 2.61666,5.36095 1.91462,1.78699 5.55241,1.78699 1.46788,0 2.80813,-0.44675 1.34024,-0.51056 2.23373,-1.14877 0.76585,-0.51057 1.78699,-1.46788 1.08495,-1.02114 2.36137,-2.93577 l -3.76543,-17.42311 q -0.25529,-1.02114 -0.38293,-1.85081 -0.12764,-0.82967 -0.25528,-1.46788 -0.25529,-1.27642 -0.38293,-2.16991 -0.0638,-0.89349 -0.0638,-1.40406 0,-2.16991 1.46788,-4.91421 0.63822,-1.08496 1.40406,-2.16991 0.82968,-1.14878 1.85081,-2.36138 l 1.27642,7.08412 3.9569,19.65685 q 0.51056,2.7443 1.46788,4.72275 1.02113,1.97845 2.23373,3.44633 0.63821,0.76585 1.72316,1.46788 1.08496,0.70203 2.36138,1.27642 1.34024,0.57439 2.7443,0.95732 1.46788,0.38292 2.7443,0.38292 0.89349,0 1.40406,-0.38292 0.51057,-0.38293 0.63821,-2.1061 l -5.04185,-23.4861 q -0.12764,-1.27642 -0.25529,-2.16991 -0.0638,-0.89349 -0.0638,-1.40406 0,-2.10609 1.46788,-4.91421 0.63822,-1.2126 1.40407,-2.29755 0.82967,-1.14878 1.72316,-2.23374 0.12764,0.82967 0.63821,3.38251 0.57439,2.48902 1.5317,6.82884 0.57439,2.61666 0.95731,4.46747 0.44676,1.8508 0.76586,3.31868 0.38293,1.46789 0.63821,2.68049 0.25528,1.21259 0.51057,2.55283 0.44674,2.29755 0.70203,3.89308 0.3191,1.59552 0.44674,2.80812 0.19146,1.14877 0.25529,2.04226 0.0638,0.8935 0.0638,1.65935 z m -49.46122,2.93576 -1.2126,-7.08412 q -2.87194,1.02113 -5.4886,2.04227 -2.55283,1.02113 -4.08454,1.91463 -1.34024,0.82967 -2.42519,2.48902 -1.02114,1.59552 -2.10609,3.3825 1.40406,0.57439 3.12722,0.8935 1.78698,0.3191 4.97804,0.3191 1.78698,0 3.70161,-1.02114 1.91462,-1.08495 3.51015,-2.93576 z m 69.50099,-3.0634 q 0,5.10568 -1.85081,9.89225 -0.95731,2.55283 -4.14835,8.10525 l -1.14878,-0.63821 q 0.19146,-1.85081 0.3191,-4.276 0.19146,-2.42519 0.19146,-3.25487 0,-6.63737 -1.08495,-18.50807 -1.02113,-11.93451 -2.48902,-24.89016 -0.89349,-7.84997 -1.97845,-16.01905 1.27642,-2.80812 2.87195,-6.06299 1.65934,-3.25487 3.12722,-6.12681 1.02113,7.27559 2.55284,19.91213 1.59552,12.63654 2.48901,22.78407 1.14878,12.63654 1.14878,19.08246 z m -47.92952,-64.84206 q 0,3.44632 -2.16991,8.2329 l -1.40406,-0.25529 q 0.25529,-2.36138 0.25529,-3.44633 0,-4.33982 -2.16992,-8.74346 1.2126,-2.42521 2.99958,-5.55243 2.48902,7.53087 2.48902,9.76461 z m 9.1264,13.33857 q 0,4.78657 -1.65934,7.84997 -1.85081,3.44633 -5.10568,3.44633 -1.14878,0 -2.1061,-0.38292 -0.95731,-0.38293 -2.16991,-1.2126 -1.34023,2.29755 -2.48901,3.44633 -2.04227,2.04227 -4.276,2.04227 -2.68048,0 -4.02072,-1.78698 -1.34024,-1.85081 -1.34024,-5.04186 0,-1.65934 0.44675,-3.25487 0.44674,-1.59552 1.27642,-3.63779 l 1.34023,-0.57439 q 0,0.51057 -0.12764,1.65934 -0.12764,1.14879 -0.12764,1.91464 0,1.40406 0.57439,2.55283 0.57439,1.08496 1.72316,1.08496 2.7443,0 4.40365,-3.57398 0.76585,-1.65934 1.91463,-6.44591 l 1.34024,-0.38292 q 0.51057,3.12722 0.82967,3.82925 0.76585,1.97845 2.55283,1.97845 2.4252,0 3.82926,-3.19105 1.14878,-2.55284 1.14878,-5.29714 l 1.34024,-0.38292 q 0.25528,1.2126 0.44674,2.7443 0.25529,1.46788 0.25529,2.61666 z"
       id="text827"
       aria-label="ﷲ" />
  </g>
</svg>
