<?xml version="1.0" encoding="UTF-8" standalone="no"?>
<!-- Created with Inkscape (http://www.inkscape.org/) -->

<svg
   xmlns:dc="http://purl.org/dc/elements/1.1/"
   xmlns:cc="http://creativecommons.org/ns#"
   xmlns:rdf="http://www.w3.org/1999/02/22-rdf-syntax-ns#"
   xmlns:svg="http://www.w3.org/2000/svg"
   xmlns="http://www.w3.org/2000/svg"
   xmlns:sodipodi="http://sodipodi.sourceforge.net/DTD/sodipodi-0.dtd"
   xmlns:inkscape="http://www.inkscape.org/namespaces/inkscape"
   width="2736"
   height="1800"
   viewBox="0 0 723.9 476.25001"
   version="1.1"
   id="svg8"
   inkscape:export-filename="C:\Users\厂永刄先生\Documents\GXI3CW2\JáÈŭcèŭ\N̂i\都道府県\大阪府.png"
   inkscape:export-xdpi="96"
   inkscape:export-ydpi="96"
   inkscape:version="0.92.4 (5da689c313, 2019-01-14)"
   sodipodi:docname="大阪府.svg">
  <defs
     id="defs2" />
  <sodipodi:namedview
     id="base"
     pagecolor="#ffffff"
     bordercolor="#666666"
     borderopacity="1.0"
     inkscape:pageopacity="0.0"
     inkscape:pageshadow="2"
     inkscape:zoom="0.30222223"
     inkscape:cx="1368"
     inkscape:cy="900.00001"
     inkscape:document-units="px"
     inkscape:current-layer="layer1"
     showgrid="false"
     units="px"
     fit-margin-top="0"
     fit-margin-left="0"
     fit-margin-right="0"
     fit-margin-bottom="0"
     inkscape:showpageshadow="false"
     inkscape:snap-intersection-paths="true"
     inkscape:object-paths="false"
     inkscape:pagecheckerboard="true"
     inkscape:snap-smooth-nodes="true"
     inkscape:window-width="1366"
     inkscape:window-height="745"
     inkscape:window-x="-8"
     inkscape:window-y="-8"
     inkscape:window-maximized="1"
     inkscape:object-nodes="true"
     inkscape:snap-nodes="true"
     showguides="true" />
  <metadata
     id="metadata5">
    <rdf:RDF>
      <cc:Work
         rdf:about="">
        <dc:format>image/svg+xml</dc:format>
        <dc:type
           rdf:resource="http://purl.org/dc/dcmitype/StillImage" />
        <dc:title />
      </cc:Work>
    </rdf:RDF>
  </metadata>
  <g
     inkscape:label="レイヤー 1"
     inkscape:groupmode="layer"
     id="layer1"
     transform="translate(112.33452,-299.26786)">
    <path
       style="opacity:1;fill:#204b92;fill-opacity:1;fill-rule:evenodd;stroke:none;stroke-width:0.08456222;stroke-linecap:round;stroke-linejoin:round;stroke-miterlimit:4;stroke-dasharray:none;stroke-dashoffset:0;stroke-opacity:0.50196078"
       d="m 611.56548,299.26786 v 476.25 h -714.375 v -476.25 z m -428.625,155.61776 c 0,26.43822 14.36019,49.52512 35.70978,61.87524 7.12076,4.11915 11.91522,11.81434 11.91522,20.632 0,13.15128 -10.66122,23.8125 -23.8125,23.8125 -13.15128,0 -23.8125,-10.66122 -23.8125,-23.8125 0,-39.45384 -31.98366,-71.4375 -71.4375,-71.4375 -39.45383,0 -71.4375,31.98366 -71.4375,71.4375 0,39.45383 31.98367,71.4375 71.4375,71.4375 13.02727,0 25.23648,-3.49328 35.75564,-9.57839 3.49027,-2.01904 7.54713,-3.16436 11.86936,-3.16436 13.15128,0 23.8125,10.66122 23.8125,23.81249 0,39.45384 31.98367,71.4375 71.4375,71.4375 39.45383,0 71.4375,-31.98366 71.4375,-71.4375 0,-13.15127 10.66122,-23.81249 23.8125,-23.81249 4.32223,0 8.37909,1.14532 11.86936,3.16436 10.51916,6.08511 22.72837,9.57839 35.75564,9.57839 39.45383,0 71.4375,-31.98367 71.4375,-71.4375 0,-39.45384 -31.98367,-71.4375 -71.4375,-71.4375 -39.45384,0 -71.4375,31.98366 -71.4375,71.4375 0,13.15128 -10.66122,23.8125 -23.8125,23.8125 -13.15128,0 -23.8125,-10.66122 -23.8125,-23.8125 0,-8.81766 4.79446,-16.51285 11.91522,-20.632 21.34959,-12.35012 35.70978,-35.43702 35.70978,-61.87524 0,-39.45384 -31.98367,-71.4375 -71.4375,-71.4375 -39.45383,0 -71.4375,31.98366 -71.4375,71.4375 z"
       id="path822"
       inkscape:connector-curvature="0"
       sodipodi:nodetypes="cccccssszszzsssszsssszzszssszs" />
    <path
       style="fill:#ffffff;fill-opacity:1;stroke:none;stroke-width:0.51166773px;stroke-linecap:butt;stroke-linejoin:miter;stroke-opacity:1"
       d="m -102.80952,299.26786 h -9.525 v 476.25 h 9.525 z"
       id="path1079"
       inkscape:connector-curvature="0"
       sodipodi:nodetypes="ccccc" />
    <path
       style="opacity:1;fill:#ffffff;fill-opacity:1;fill-rule:evenodd;stroke:none;stroke-width:0.26458335;stroke-linecap:butt;stroke-linejoin:bevel;stroke-miterlimit:4;stroke-dasharray:none;stroke-dashoffset:0;stroke-opacity:1"
       d="m 325.81548,619.9001 c 0,-13.15127 10.66122,-23.81249 23.8125,-23.81249 4.32223,0 8.37909,1.14532 11.86936,3.16436 10.51916,6.08511 22.72837,9.57839 35.75564,9.57839 39.45383,0 71.4375,-31.98367 71.4375,-71.4375 0,-39.45384 -31.98367,-71.4375 -71.4375,-71.4375 -39.45384,0 -71.4375,31.98366 -71.4375,71.4375 0,13.15128 -10.66122,23.8125 -23.8125,23.8125 -13.15128,0 -23.8125,-10.66122 -23.8125,-23.8125 0,-8.81766 4.79446,-16.51285 11.91522,-20.632 21.34959,-12.35012 35.70978,-35.43702 35.70978,-61.87524 0,-39.45384 -31.98367,-71.4375 -71.4375,-71.4375 -39.45383,0 -71.4375,31.98366 -71.4375,71.4375 0,26.43822 14.36019,49.52512 35.70978,61.87524 7.12076,4.11915 11.91522,11.81434 11.91522,20.632 0,13.15128 -10.66122,23.8125 -23.8125,23.8125 -13.15128,0 -23.8125,-10.66122 -23.8125,-23.8125 0,-39.45384 -31.98366,-71.4375 -71.4375,-71.4375 -39.45383,0 -71.4375,31.98366 -71.4375,71.4375 0,39.45383 31.98367,71.4375 71.4375,71.4375 13.02727,0 25.23648,-3.49328 35.75564,-9.57839 3.49027,-2.01904 7.54713,-3.16436 11.86936,-3.16436 13.15128,0 23.8125,10.66122 23.8125,23.81249 0,39.45384 31.98367,71.4375 71.4375,71.4375 39.45383,0 71.4375,-31.98366 71.4375,-71.4375 z m 71.4375,-58.69474 c -13.15128,0 -23.8125,-10.66122 -23.8125,-23.8125 0,-13.15128 10.66122,-23.8125 23.8125,-23.8125 13.15128,0 23.8125,10.66122 23.8125,23.8125 0,13.15128 -10.66122,23.8125 -23.8125,23.8125 z M 278.19048,454.88562 c 0,13.15128 -10.66122,23.8125 -23.8125,23.8125 -13.15128,0 -23.8125,-10.66122 -23.8125,-23.8125 0,-13.15128 10.66122,-23.8125 23.8125,-23.8125 13.15128,0 23.8125,10.66122 23.8125,23.8125 z m -166.6875,58.69474 c 13.15128,0 23.8125,10.66122 23.8125,23.8125 0,13.15128 -10.66122,23.8125 -23.8125,23.8125 -13.15128,0 -23.8125,-10.66122 -23.8125,-23.8125 0,-13.15128 10.66122,-23.8125 23.8125,-23.8125 z m 119.0625,106.31974 c 0,-13.15128 10.66122,-23.8125 23.8125,-23.8125 13.15128,0 23.8125,10.66122 23.8125,23.8125 0,13.15128 -10.66122,23.8125 -23.8125,23.8125 -13.15128,0 -23.8125,-10.66122 -23.8125,-23.8125 z"
       id="path1012"
       inkscape:connector-curvature="0"
       sodipodi:nodetypes="sssszzszssszssszszzsssszszzzzzzzzzzzzzzzzzzzz" />
    <path
       sodipodi:nodetypes="zzzzz"
       inkscape:connector-curvature="0"
       id="path1014"
       d="m 230.56548,619.9001 c 0,-13.15128 10.66122,-23.8125 23.8125,-23.8125 13.15128,0 23.8125,10.66122 23.8125,23.8125 0,13.15128 -10.66122,23.8125 -23.8125,23.8125 -13.15128,0 -23.8125,-10.66122 -23.8125,-23.8125 z"
       style="opacity:1;fill:#204b92;fill-opacity:1;fill-rule:evenodd;stroke:none;stroke-width:0.26458335;stroke-linecap:butt;stroke-linejoin:bevel;stroke-miterlimit:4;stroke-dasharray:none;stroke-dashoffset:0;stroke-opacity:1" />
    <path
       style="opacity:1;fill:#204b92;fill-opacity:1;fill-rule:evenodd;stroke:none;stroke-width:0.26458335;stroke-linecap:butt;stroke-linejoin:bevel;stroke-miterlimit:4;stroke-dasharray:none;stroke-dashoffset:0;stroke-opacity:1"
       d="m 278.19048,454.88562 c 0,13.15128 -10.66122,23.8125 -23.8125,23.8125 -13.15128,0 -23.8125,-10.66122 -23.8125,-23.8125 0,-13.15128 10.66122,-23.8125 23.8125,-23.8125 13.15128,0 23.8125,10.66122 23.8125,23.8125 z"
       id="path1016"
       inkscape:connector-curvature="0"
       sodipodi:nodetypes="zzzzz" />
    <path
       style="opacity:1;fill:#204b92;fill-opacity:1;fill-rule:evenodd;stroke:none;stroke-width:0.26458335;stroke-linecap:butt;stroke-linejoin:bevel;stroke-miterlimit:4;stroke-dasharray:none;stroke-dashoffset:0;stroke-opacity:1"
       d="m 397.25298,561.20536 c -13.15128,0 -23.8125,-10.66122 -23.8125,-23.8125 0,-13.15128 10.66122,-23.8125 23.8125,-23.8125 13.15128,0 23.8125,10.66122 23.8125,23.8125 0,13.15128 -10.66122,23.8125 -23.8125,23.8125 z"
       id="path1018"
       inkscape:connector-curvature="0"
       sodipodi:nodetypes="zzzzz" />
    <path
       style="opacity:1;fill:#204b92;fill-opacity:1;fill-rule:evenodd;stroke:none;stroke-width:0.26458335;stroke-linecap:butt;stroke-linejoin:bevel;stroke-miterlimit:4;stroke-dasharray:none;stroke-dashoffset:0;stroke-opacity:1"
       d="m 111.50298,513.58036 c 13.15128,0 23.8125,10.66122 23.8125,23.8125 0,13.15128 -10.66122,23.8125 -23.8125,23.8125 -13.15128,0 -23.8125,-10.66122 -23.8125,-23.8125 0,-13.15128 10.66122,-23.8125 23.8125,-23.8125 z"
       id="path1020"
       inkscape:connector-curvature="0"
       sodipodi:nodetypes="zzzzz" />
  </g>
</svg>
