<?xml version="1.0" encoding="UTF-8" standalone="no"?>
<!-- Created with Inkscape (http://www.inkscape.org/) -->

<svg
   width="3036"
   height="1800"
   viewBox="0 0 803.275 476.25001"
   version="1.1"
   id="svg8"
   inkscape:export-filename="C:\Users\厂永刄先生\Documents\GXI3CW2\,pjóŭ\Nicaragua.png"
   inkscape:export-xdpi="96"
   inkscape:export-ydpi="96"
   inkscape:version="1.3 (0e150ed6c4, 2023-07-21)"
   sodipodi:docname="ni_1908.svg"
   xmlns:inkscape="http://www.inkscape.org/namespaces/inkscape"
   xmlns:sodipodi="http://sodipodi.sourceforge.net/DTD/sodipodi-0.dtd"
   xmlns:xlink="http://www.w3.org/1999/xlink"
   xmlns="http://www.w3.org/2000/svg"
   xmlns:svg="http://www.w3.org/2000/svg"
   xmlns:rdf="http://www.w3.org/1999/02/22-rdf-syntax-ns#"
   xmlns:cc="http://creativecommons.org/ns#"
   xmlns:dc="http://purl.org/dc/elements/1.1/">
  <defs
     id="defs2">
    <linearGradient
       inkscape:collect="always"
       id="linearGradient3068">
      <stop
         style="stop-color:#ffc000;stop-opacity:1"
         offset="0"
         id="stop3064" />
      <stop
         style="stop-color:#ffc000;stop-opacity:0"
         offset="1"
         id="stop3066" />
    </linearGradient>
    <linearGradient
       inkscape:collect="always"
       id="linearGradient866">
      <stop
         style="stop-color:#8400ff;stop-opacity:1"
         offset="0"
         id="stop862" />
      <stop
         style="stop-color:#8400ff;stop-opacity:1"
         offset="0.88110477"
         id="stop904" />
      <stop
         style="stop-color:#003dff;stop-opacity:1"
         offset="0.89830214"
         id="stop890" />
      <stop
         id="stop896"
         offset="0.9166944"
         style="stop-color:#00fcff;stop-opacity:1" />
      <stop
         style="stop-color:#00ff42;stop-opacity:1"
         offset="0.93245518"
         id="stop888" />
      <stop
         id="stop898"
         offset="0.95503145"
         style="stop-color:#deff00;stop-opacity:1" />
      <stop
         id="stop892"
         offset="0.96976024"
         style="stop-color:#ffc000;stop-opacity:1" />
      <stop
         style="stop-color:#ff0000;stop-opacity:1"
         offset="1"
         id="stop864" />
    </linearGradient>
    <radialGradient
       inkscape:collect="always"
       xlink:href="#linearGradient866"
       id="radialGradient868"
       cx="294.06549"
       cy="539.57123"
       fx="294.06549"
       fy="539.57123"
       r="26.45833"
       gradientTransform="translate(0,0.52906471)"
       gradientUnits="userSpaceOnUse" />
    <radialGradient
       inkscape:collect="always"
       xlink:href="#linearGradient3068"
       id="radialGradient3072"
       gradientUnits="userSpaceOnUse"
       gradientTransform="matrix(3.7795275,0,0,3.7795275,424.57141,-1131.0914)"
       cx="294.06548"
       cy="526.87123"
       fx="294.06548"
       fy="526.87123"
       r="38.299545" />
    <radialGradient
       inkscape:collect="always"
       xlink:href="#linearGradient3068"
       id="radialGradient3074"
       gradientUnits="userSpaceOnUse"
       gradientTransform="matrix(3.7795275,0,0,3.7795275,424.57141,-1131.0914)"
       cx="294.06548"
       cy="526.87123"
       fx="294.06548"
       fy="526.87123"
       r="38.299545" />
    <radialGradient
       inkscape:collect="always"
       xlink:href="#linearGradient3068"
       id="radialGradient3076"
       gradientUnits="userSpaceOnUse"
       gradientTransform="matrix(3.7795275,0,0,3.7795275,424.57141,-1131.0914)"
       cx="294.06548"
       cy="526.87123"
       fx="294.06548"
       fy="526.87123"
       r="38.299545" />
    <radialGradient
       inkscape:collect="always"
       xlink:href="#linearGradient3068"
       id="radialGradient3082"
       gradientUnits="userSpaceOnUse"
       gradientTransform="matrix(3.7795275,0,0,3.7795275,424.57141,-1131.0914)"
       cx="294.06548"
       cy="526.87123"
       fx="294.06548"
       fy="526.87123"
       r="38.299545" />
    <radialGradient
       inkscape:collect="always"
       xlink:href="#linearGradient3068"
       id="radialGradient3106"
       gradientUnits="userSpaceOnUse"
       gradientTransform="matrix(-1,0,0,1,588.13098,-8.0457276e-5)"
       cx="294.06548"
       cy="526.87123"
       fx="294.06548"
       fy="526.87123"
       r="38.299545" />
    <radialGradient
       inkscape:collect="always"
       xlink:href="#linearGradient3068"
       id="radialGradient3108"
       gradientUnits="userSpaceOnUse"
       gradientTransform="matrix(-1,0,0,1,588.13098,-8.0457276e-5)"
       cx="294.06548"
       cy="526.87123"
       fx="294.06548"
       fy="526.87123"
       r="38.299545" />
  </defs>
  <sodipodi:namedview
     id="base"
     pagecolor="#ffffff"
     bordercolor="#666666"
     borderopacity="1.0"
     inkscape:pageopacity="0.0"
     inkscape:pageshadow="2"
     inkscape:zoom="0.83101348"
     inkscape:cx="1336.3201"
     inkscape:cy="909.13086"
     inkscape:document-units="px"
     inkscape:current-layer="layer1"
     showgrid="false"
     units="px"
     fit-margin-top="0"
     fit-margin-left="0"
     fit-margin-right="0"
     fit-margin-bottom="0"
     inkscape:showpageshadow="false"
     inkscape:snap-intersection-paths="false"
     inkscape:object-paths="false"
     inkscape:pagecheckerboard="true"
     inkscape:snap-smooth-nodes="true"
     inkscape:window-width="1920"
     inkscape:window-height="1009"
     inkscape:window-x="-8"
     inkscape:window-y="-8"
     inkscape:window-maximized="1"
     inkscape:object-nodes="true"
     inkscape:snap-nodes="true"
     inkscape:snap-midpoints="false"
     inkscape:deskcolor="#505050" />
  <metadata
     id="metadata5">
    <rdf:RDF>
      <cc:Work
         rdf:about="">
        <dc:format>image/svg+xml</dc:format>
        <dc:type
           rdf:resource="http://purl.org/dc/dcmitype/StillImage" />
      </cc:Work>
    </rdf:RDF>
  </metadata>
  <g
     inkscape:label="レイヤー 1"
     inkscape:groupmode="layer"
     id="layer1"
     transform="translate(112.33452,-299.26786)">
    <path
       style="fill:#ffffff;fill-opacity:1;stroke:none;stroke-width:0.51166773px;stroke-linecap:butt;stroke-linejoin:miter;stroke-opacity:1"
       d="m -102.80952,299.26786 h -9.525 v 476.25 h 9.525 z"
       id="path1079"
       inkscape:connector-curvature="0"
       sodipodi:nodetypes="ccccc" />
    <path
       sodipodi:nodetypes="ccccc"
       inkscape:connector-curvature="0"
       id="path884"
       d="m 690.94049,299.26786 h -793.75001 v 158.75 h 793.75001 z"
       style="fill:#0000ff;fill-opacity:1;stroke:none;stroke-width:2.33543301px;stroke-linecap:butt;stroke-linejoin:miter;stroke-opacity:1" />
    <path
       style="fill:#0000ff;fill-opacity:1;stroke:none;stroke-width:2.33543301px;stroke-linecap:butt;stroke-linejoin:miter;stroke-opacity:1"
       d="m 690.94049,775.51786 h -793.75001 v -158.75 h 793.75001 z"
       id="path823"
       inkscape:connector-curvature="0"
       sodipodi:nodetypes="ccccc" />
    <path
       sodipodi:nodetypes="ccccc"
       inkscape:connector-curvature="0"
       id="path825"
       d="m 690.94049,616.76786 h -793.75001 v -158.75 h 793.75001 z"
       style="fill:#ffffff;fill-opacity:1;stroke:none;stroke-width:2.33543301px;stroke-linecap:butt;stroke-linejoin:miter;stroke-opacity:1" />
    <path
       sodipodi:nodetypes="cccc"
       inkscape:connector-curvature="0"
       id="path838"
       d="m 337.37177,562.39566 -43.30628,-75.00879 -43.30628,75.00879 z"
       style="color:#000000;font-style:normal;font-variant:normal;font-weight:normal;font-stretch:normal;font-size:medium;line-height:normal;font-family:sans-serif;font-variant-ligatures:normal;font-variant-position:normal;font-variant-caps:normal;font-variant-numeric:normal;font-variant-alternates:normal;font-feature-settings:normal;text-indent:0;text-align:start;text-decoration:none;text-decoration-line:none;text-decoration-style:solid;text-decoration-color:#000000;letter-spacing:normal;word-spacing:normal;text-transform:none;writing-mode:lr-tb;direction:ltr;text-orientation:mixed;dominant-baseline:auto;baseline-shift:baseline;text-anchor:start;white-space:normal;shape-padding:0;clip-rule:nonzero;display:inline;overflow:visible;visibility:visible;opacity:1;isolation:auto;mix-blend-mode:normal;color-interpolation:sRGB;color-interpolation-filters:linearRGB;solid-color:#000000;solid-opacity:1;vector-effect:none;fill:#33bbff;fill-opacity:1;fill-rule:evenodd;stroke:none;stroke-width:4.76250029;stroke-linecap:round;stroke-linejoin:miter;stroke-miterlimit:4;stroke-dasharray:none;stroke-dashoffset:0;stroke-opacity:1;color-rendering:auto;image-rendering:auto;shape-rendering:auto;text-rendering:auto;enable-background:accumulate" />
    <g
       id="g3116">
      <path
         id="path3024"
         transform="matrix(0.26458334,0,0,0.26458334,-112.33452,299.26786)"
         d="M 1533.4141 715.47852 L 1520.002 738.70898 L 1536 860.23438 L 1551.998 738.70898 L 1538.5859 715.47852 L 1533.4141 715.47852 z M 1536 860.23438 L 1518.3242 994.49805 L 1553.6758 994.49805 L 1536 860.23438 z "
         style="fill:url(#radialGradient3072);fill-opacity:1;stroke:none;stroke-width:1px;stroke-linecap:butt;stroke-linejoin:miter;stroke-opacity:1" />
      <path
         id="path3036"
         transform="matrix(0.26458334,0,0,0.26458334,-112.33452,299.26786)"
         d="M 1476.293 814.41602 L 1466.4688 831.43164 L 1535.998 860.23047 L 1476.293 814.41602 z M 1535.998 860.23047 L 1651.832 949.11523 L 1662.6543 930.37109 L 1649.2402 907.13867 L 1535.998 860.23047 z "
         style="fill:url(#radialGradient3074);fill-opacity:1;stroke:none;stroke-width:1px;stroke-linecap:butt;stroke-linejoin:miter;stroke-opacity:1" />
      <path
         id="path3042"
         transform="matrix(0.26458334,0,0,0.26458334,-112.33452,299.26786)"
         d="M 1500.0078 773.33984 L 1486.834 796.1582 L 1536 860.23047 L 1500.0078 773.33984 z M 1536 860.23047 L 1591.6133 994.49805 L 1592.9551 994.49805 L 1624.8809 976.06445 L 1536 860.23047 z "
         style="fill:url(#radialGradient3076);fill-opacity:1;stroke:none;stroke-width:1px;stroke-linecap:butt;stroke-linejoin:miter;stroke-opacity:1" />
      <path
         id="path3052"
         transform="matrix(0.26458334,0,0,0.26458334,-112.33452,299.26786)"
         d="M 1455.9258 849.69141 L 1442.752 872.50977 L 1536 860.23438 L 1455.9258 849.69141 z M 1536 860.23438 L 1629.248 872.50977 L 1616.0742 849.69141 L 1536 860.23438 z "
         style="fill:url(#radialGradient3082);fill-opacity:1;stroke:none;stroke-width:1px;stroke-linecap:butt;stroke-linejoin:miter;stroke-opacity:1" />
      <path
         inkscape:connector-curvature="0"
         style="fill:url(#radialGradient3106);fill-opacity:1;stroke:none;stroke-width:0.26458335px;stroke-linecap:butt;stroke-linejoin:miter;stroke-opacity:1"
         d="m 309.86297,514.74877 2.59932,4.50205 -18.39627,7.61969 z m -15.79695,12.12174 -30.64775,23.51743 -2.8634,-4.95939 3.54915,-6.14691 z"
         id="path3102" />
      <path
         inkscape:connector-curvature="0"
         style="fill:url(#radialGradient3108);fill-opacity:1;stroke:none;stroke-width:0.26458335px;stroke-linecap:butt;stroke-linejoin:miter;stroke-opacity:1"
         d="m 303.58843,503.8807 3.48556,6.03736 -13.0085,16.95245 z m -9.52294,22.98981 -14.71435,35.52497 h -0.35502 l -8.44704,-4.87723 z"
         id="path3104" />
    </g>
    <g
       id="g1043"
       style="fill:#ffc000;fill-opacity:1">
      <path
         d="m 230.28269,544.4538 q -0.24885,0.0312 -0.41379,0.15569 -0.16495,0.12449 -0.23596,0.38616 -0.0494,0.18222 -0.0337,0.41497 0.0112,0.23332 0.0496,0.53994 l 0.0775,0.61769 1.78198,-0.22339 -0.0657,-0.52438 q -0.0513,-0.40883 -0.12579,-0.67933 -0.0746,-0.27051 -0.24013,-0.43932 -0.16005,-0.16049 -0.3345,-0.21986 -0.17945,-0.0633 -0.45941,-0.0282 z m 4.25678,-3.23735 0.26128,2.08416 -2.20015,2.10839 0.0986,0.78655 2.42634,-0.30417 0.21282,1.69754 -6.61689,0.82952 -0.35877,-2.86183 q -0.0735,-0.58658 -0.0598,-1.01711 0.0133,-0.43053 0.18968,-0.82722 0.1754,-0.40113 0.50361,-0.66344 0.32321,-0.26622 0.85647,-0.33307 0.73323,-0.0919 1.23829,0.19233 0.50449,0.27979 0.89023,0.87238 z"
         style="font-style:normal;font-variant:normal;font-weight:bold;font-stretch:normal;font-size:9.17222214px;line-height:1.25;font-family:Verdana;-inkscape-font-specification:'Verdana Bold';text-align:center;letter-spacing:2.64583325px;word-spacing:0px;text-anchor:middle;fill:#ffc000;fill-opacity:1;stroke:none;stroke-width:0.26458335"
         id="path896"
         inkscape:connector-curvature="0" />
      <path
         d="m 234.64358,532.97755 -0.15152,4.8211 -6.66539,-0.20947 0.15152,-4.82109 1.28921,0.0408 -0.0978,3.11111 1.15042,0.0365 0.0907,-2.88729 1.28919,0.0408 -0.0907,2.88729 1.64732,0.0517 0.0978,-3.11111 z"
         style="font-style:normal;font-variant:normal;font-weight:bold;font-stretch:normal;font-size:9.17222214px;line-height:1.25;font-family:Verdana;-inkscape-font-specification:'Verdana Bold';text-align:center;letter-spacing:2.64583325px;word-spacing:0px;text-anchor:middle;fill:#ffc000;fill-opacity:1;stroke:none;stroke-width:0.26458335"
         id="path898"
         inkscape:connector-curvature="0" />
      <path
         d="m 231.60297,522.65708 q 0.44031,0.0818 0.83435,0.31462 0.38963,0.2319 0.62261,0.57133 0.31459,0.46394 0.42265,0.98514 0.10888,0.51679 -0.0245,1.2345 l -0.19572,1.05235 2.13551,0.39716 -0.31446,1.6908 -6.55624,-1.21935 0.51755,-2.78278 q 0.11628,-0.62524 0.3058,-1.03187 0.18592,-0.41185 0.4631,-0.70196 0.33348,-0.34796 0.77705,-0.47956 0.4444,-0.13601 1.0124,-0.0303 z m -0.28547,1.75541 q -0.2774,-0.0515 -0.50339,0.0613 -0.23038,0.11204 -0.34649,0.29544 -0.15481,0.24453 -0.21029,0.49387 -0.0598,0.24852 -0.13769,0.66682 l -0.0541,0.29061 1.96379,0.36523 0.0901,-0.48435 q 0.0802,-0.43151 0.079,-0.71873 -4e-5,-0.29161 -0.12372,-0.51044 -0.1106,-0.18912 -0.29124,-0.2956 -0.18422,-0.1117 -0.46602,-0.16411 z"
         style="font-style:normal;font-variant:normal;font-weight:bold;font-stretch:normal;font-size:9.17222214px;line-height:1.25;font-family:Verdana;-inkscape-font-specification:'Verdana Bold';text-align:center;letter-spacing:2.64583325px;word-spacing:0px;text-anchor:middle;fill:#ffc000;fill-opacity:1;stroke:none;stroke-width:0.26458335"
         id="path900"
         inkscape:connector-curvature="0" />
      <path
         d="m 236.84041,513.44837 q 1.16186,0.42194 1.52384,1.3539 0.36198,0.93194 -0.13794,2.30848 -0.49992,1.37655 -1.37557,1.85904 -0.87413,0.47827 -2.03177,0.0578 l -4.00334,-1.45388 0.59012,-1.62491 3.91073,1.42025 q 0.65249,0.23696 1.07179,0.0795 0.41931,-0.15743 0.64251,-0.77203 0.22014,-0.60619 0.0138,-0.99563 -0.20487,-0.39364 -0.88262,-0.63978 l -3.91073,-1.42025 0.59011,-1.62491 z"
         style="font-style:normal;font-variant:normal;font-weight:bold;font-stretch:normal;font-size:9.17222214px;line-height:1.25;font-family:Verdana;-inkscape-font-specification:'Verdana Bold';text-align:center;letter-spacing:2.64583325px;word-spacing:0px;text-anchor:middle;fill:#ffc000;fill-opacity:1;stroke:none;stroke-width:0.26458335"
         id="path902"
         inkscape:connector-curvature="0" />
      <path
         d="m 241.95252,504.43757 q 0.42095,0.23824 0.6552,0.59724 0.23645,0.3551 0.28708,0.77486 0.0632,0.48858 -0.0615,0.9635 -0.12248,0.47103 -0.47983,1.10246 l -1.43383,2.53351 -5.80369,-3.28456 1.275,-2.25288 q 0.39706,-0.70158 0.62692,-0.99863 0.23207,-0.30093 0.57276,-0.53011 0.3551,-0.23645 0.73008,-0.23522 0.37327,-0.005 0.73577,0.20026 0.42095,0.23824 0.61872,0.6435 0.19388,0.40305 0.14376,0.90989 l 0.0312,0.0177 q 0.43509,-0.5051 0.97729,-0.63568 0.54439,-0.13446 1.12515,0.19422 z m -3.47069,0.56768 q -0.14421,-0.0817 -0.33034,-0.0892 -0.18392,-0.0114 -0.35776,0.13203 -0.15501,0.1284 -0.29788,0.37175 -0.14456,0.23725 -0.39383,0.6777 l -0.0794,0.14031 1.22779,0.69486 0.13235,-0.23387 q 0.20073,-0.35469 0.33022,-0.61076 0.12948,-0.25607 0.14483,-0.43779 0.0251,-0.25341 -0.08,-0.39519 -0.10892,-0.14398 -0.29601,-0.24986 z m 2.56936,0.97038 q -0.27673,-0.15662 -0.48661,-0.1313 -0.21157,0.0191 -0.43122,0.23454 -0.14993,0.14672 -0.32809,0.45244 -0.17817,0.30571 -0.36787,0.64091 l -0.1853,0.32741 1.44606,0.81838 0.0617,-0.10914 q 0.35735,-0.63143 0.50786,-0.90647 0.15052,-0.27505 0.18322,-0.56016 0.0349,-0.28901 -0.0764,-0.4652 -0.11297,-0.1823 -0.32345,-0.30141 z"
         style="font-style:normal;font-variant:normal;font-weight:bold;font-stretch:normal;font-size:9.17222214px;line-height:1.25;font-family:Verdana;-inkscape-font-specification:'Verdana Bold';text-align:center;letter-spacing:2.64583325px;word-spacing:0px;text-anchor:middle;fill:#ffc000;fill-opacity:1;stroke:none;stroke-width:0.26458335"
         id="path904"
         inkscape:connector-curvature="0" />
      <path
         d="m 248.96073,498.44142 -2.97593,3.77895 -5.23914,-4.12583 1.06401,-1.35113 4.2258,3.32782 1.91191,-2.42781 z"
         style="font-style:normal;font-variant:normal;font-weight:bold;font-stretch:normal;font-size:9.17222214px;line-height:1.25;font-family:Verdana;-inkscape-font-specification:'Verdana Bold';text-align:center;letter-spacing:2.64583325px;word-spacing:0px;text-anchor:middle;fill:#ffc000;fill-opacity:1;stroke:none;stroke-width:0.26458335"
         id="path906"
         inkscape:connector-curvature="0" />
      <path
         d="m 254.07275,493.25292 -2.80691,2.71533 -0.82208,-0.8498 0.78543,-0.75979 -2.99247,-3.09341 -0.78542,0.75978 -0.82207,-0.84979 2.80692,-2.71533 0.82207,0.8498 -0.78543,0.75979 2.99247,3.09341 0.78542,-0.75979 z"
         style="font-style:normal;font-variant:normal;font-weight:bold;font-stretch:normal;font-size:9.17222214px;line-height:1.25;font-family:Verdana;-inkscape-font-specification:'Verdana Bold';text-align:center;letter-spacing:2.64583325px;word-spacing:0px;text-anchor:middle;fill:#ffc000;fill-opacity:1;stroke:none;stroke-width:0.26458335"
         id="path908"
         inkscape:connector-curvature="0" />
      <path
         d="m 259.67641,488.95083 q -0.60196,0.43631 -1.24205,0.62923 -0.63647,0.19029 -1.25767,0.104 -0.62121,-0.0863 -1.20539,-0.4649 -0.58055,-0.38125 -1.07995,-1.07023 -0.46522,-0.64185 -0.65152,-1.30334 -0.18629,-0.66148 -0.0908,-1.30045 0.0916,-0.61395 0.46817,-1.18563 0.38024,-0.5743 0.9967,-1.02113 0.34088,-0.24706 0.64176,-0.4043 0.30188,-0.16349 0.57864,-0.27007 0.2929,-0.1072 0.5518,-0.16209 0.25989,-0.0611 0.46114,-0.0964 l 0.94884,1.30908 -0.15956,0.11564 q -0.1646,-0.0139 -0.40728,-0.02 -0.23903,-0.01 -0.51897,0.0166 -0.28355,0.0285 -0.57345,0.11696 -0.28991,0.0884 -0.55462,0.28031 -0.29373,0.2129 -0.4901,0.49905 -0.19902,0.28252 -0.26877,0.65943 -0.0642,0.36178 0.0487,0.7999 0.11653,0.43548 0.46873,0.9214 0.36796,0.50767 0.75646,0.74604 0.39212,0.23573 0.75162,0.27385 0.36576,0.0391 0.70082,-0.071 0.33242,-0.11372 0.59713,-0.30559 0.25385,-0.18398 0.44523,-0.43887 0.19502,-0.25751 0.31071,-0.54049 0.10152,-0.23396 0.16704,-0.46402 0.0656,-0.23006 0.10039,-0.38805 l 0.14505,-0.10514 0.9357,1.29095 q -0.13735,0.23785 -0.26447,0.45167 -0.12711,0.21382 -0.28813,0.41904 -0.20953,0.26801 -0.41269,0.47612 -0.20317,0.2081 -0.60931,0.50248 z"
         style="font-style:normal;font-variant:normal;font-weight:bold;font-stretch:normal;font-size:9.17222214px;line-height:1.25;font-family:Verdana;-inkscape-font-specification:'Verdana Bold';text-align:center;letter-spacing:2.64583325px;word-spacing:0px;text-anchor:middle;fill:#ffc000;fill-opacity:1;stroke:none;stroke-width:0.26458335"
         id="path910"
         inkscape:connector-curvature="0" />
      <path
         d="m 270.37313,482.65463 -1.58749,0.80076 -1.01899,-0.99586 -2.20728,1.1134 0.19525,1.41136 -1.5475,0.78059 -0.80405,-7.06345 1.76743,-0.89152 z m -3.52901,-1.09917 -1.80884,-1.76619 0.34531,2.50443 z"
         style="font-style:normal;font-variant:normal;font-weight:bold;font-stretch:normal;font-size:9.17222214px;line-height:1.25;font-family:Verdana;-inkscape-font-specification:'Verdana Bold';text-align:center;letter-spacing:2.64583325px;word-spacing:0px;text-anchor:middle;fill:#ffc000;fill-opacity:1;stroke:none;stroke-width:0.26458335"
         id="path912"
         inkscape:connector-curvature="0" />
      <path
         d="m 290.87584,474.52318 q 0.0955,0.92664 -0.2519,1.70535 -0.3479,0.77426 -0.95345,1.2329 -0.45528,0.3441 -1.02248,0.51965 -0.56722,0.17554 -1.3602,0.2573 l -2.33889,0.24115 -0.68394,-6.63351 2.40571,-0.24803 q 0.8108,-0.0836 1.41311,-0.006 0.60184,0.073 1.02851,0.28116 0.72925,0.34803 1.19478,1.02041 0.46953,0.66747 0.56875,1.62975 z m -1.77002,0.16899 q -0.0675,-0.65489 -0.35586,-1.09341 -0.28434,-0.44342 -0.82823,-0.65299 -0.27616,-0.10212 -0.55697,-0.11816 -0.2768,-0.021 -0.82923,0.0359 l -0.43214,0.0446 0.4281,4.15207 0.43214,-0.0446 q 0.61034,-0.063 0.88995,-0.14578 0.27914,-0.0873 0.53574,-0.26235 0.44022,-0.31553 0.61258,-0.78354 0.17191,-0.47246 0.10394,-1.1318 z"
         style="font-style:normal;font-variant:normal;font-weight:bold;font-stretch:normal;font-size:9.17222214px;line-height:1.25;font-family:Verdana;-inkscape-font-specification:'Verdana Bold';text-align:center;letter-spacing:2.64583325px;word-spacing:0px;text-anchor:middle;fill:#ffc000;fill-opacity:1;stroke:none;stroke-width:0.26458335"
         id="path914"
         inkscape:connector-curvature="0" />
      <path
         d="m 299.99996,478.10181 -4.81575,-0.27291 0.3773,-6.65799 4.81575,0.27291 -0.073,1.28778 -3.10766,-0.17611 -0.0652,1.14916 2.88409,0.16349 -0.073,1.28777 -2.88409,-0.16339 -0.0932,1.6455 3.10767,0.1761 z"
         style="font-style:normal;font-variant:normal;font-weight:bold;font-stretch:normal;font-size:9.17222214px;line-height:1.25;font-family:Verdana;-inkscape-font-specification:'Verdana Bold';text-align:center;letter-spacing:2.64583325px;word-spacing:0px;text-anchor:middle;fill:#ffc000;fill-opacity:1;stroke:none;stroke-width:0.26458335"
         id="path916"
         inkscape:connector-curvature="0" />
      <path
         d="m 320.77419,484.08702 -1.51707,-0.66667 -0.74989,-5.32913 -1.84144,4.1904 -1.44326,-0.63424 2.68288,-6.10519 1.88198,0.82703 0.68948,4.47584 1.53693,-3.49747 1.44327,0.63424 z"
         style="font-style:normal;font-variant:normal;font-weight:bold;font-stretch:normal;font-size:9.17222214px;line-height:1.25;font-family:Verdana;-inkscape-font-specification:'Verdana Bold';text-align:center;letter-spacing:2.64583325px;word-spacing:0px;text-anchor:middle;fill:#ffc000;fill-opacity:1;stroke:none;stroke-width:0.26458335"
         id="path918"
         inkscape:connector-curvature="0" />
      <path
         d="m 327.61466,488.16828 -3.29535,-2.09582 0.6345,-0.99768 0.9221,0.58645 2.30972,-3.6317 -0.92209,-0.58645 0.63452,-0.99767 3.29536,2.09581 -0.63452,0.99768 -0.92209,-0.58644 -2.30973,3.63169 0.92209,0.58645 z"
         style="font-style:normal;font-variant:normal;font-weight:bold;font-stretch:normal;font-size:9.17222214px;line-height:1.25;font-family:Verdana;-inkscape-font-specification:'Verdana Bold';text-align:center;letter-spacing:2.64583325px;word-spacing:0px;text-anchor:middle;fill:#ffc000;fill-opacity:1;stroke:none;stroke-width:0.26458335"
         id="path920"
         inkscape:connector-curvature="0" />
      <path
         d="m 333.10378,492.61554 q -0.56455,-0.48375 -0.90127,-1.06129 -0.33332,-0.57463 -0.39412,-1.19884 -0.0608,-0.62421 0.17129,-1.28053 0.23552,-0.6534 0.78921,-1.29956 0.5158,-0.60194 1.1157,-0.93722 0.59988,-0.33526 1.24352,-0.39121 0.61838,-0.054 1.26207,0.17907 0.64709,0.236 1.22522,0.73141 0.31969,0.27394 0.54269,0.5299 0.22933,0.25549 0.39743,0.49981 0.17249,0.25986 0.2862,0.49885 0.12002,0.2385 0.20117,0.426 l -1.05202,1.2277 -0.14964,-0.12822 q -0.0253,-0.16322 -0.0754,-0.40076 -0.0467,-0.23463 -0.13706,-0.50081 -0.0938,-0.26912 -0.24733,-0.53043 -0.15355,-0.26133 -0.4018,-0.47407 -0.27547,-0.23604 -0.5995,-0.36035 -0.32111,-0.12773 -0.70391,-0.10774 -0.36676,0.022 -0.76652,0.23377 -0.39635,0.21477 -0.78685,0.67048 -0.408,0.47612 -0.54929,0.90945 -0.1379,0.43624 -0.0912,0.79474 0.0472,0.36481 0.2323,0.66499 0.18804,0.29679 0.43629,0.50952 0.23806,0.20399 0.53052,0.33074 0.29585,0.12966 0.59801,0.17626 0.25115,0.0442 0.49015,0.0543 0.23902,0.01 0.40077,0.008 l 0.13602,0.11657 -1.03744,1.21069 q -0.2633,-0.0782 -0.50086,-0.15198 -0.23755,-0.0738 -0.47463,-0.18258 -0.30945,-0.14132 -0.55916,-0.29041 -0.24971,-0.1491 -0.6306,-0.47549 z"
         style="font-style:normal;font-variant:normal;font-weight:bold;font-stretch:normal;font-size:9.17222214px;line-height:1.25;font-family:Verdana;-inkscape-font-specification:'Verdana Bold';text-align:center;letter-spacing:2.64583325px;word-spacing:0px;text-anchor:middle;fill:#ffc000;fill-opacity:1;stroke:none;stroke-width:0.26458335"
         id="path922"
         inkscape:connector-curvature="0" />
      <path
         d="m 341.72267,501.54772 -1.14962,-1.35637 0.73011,-1.22352 -1.59847,-1.88592 -1.32663,0.51972 -1.12066,-1.3222 6.67987,-2.43269 1.27993,1.5101 z m 0.2439,-3.68817 1.29449,-2.17156 -2.35435,0.92112 z"
         style="font-style:normal;font-variant:normal;font-weight:bold;font-stretch:normal;font-size:9.17222214px;line-height:1.25;font-family:Verdana;-inkscape-font-specification:'Verdana Bold';text-align:center;letter-spacing:2.64583325px;word-spacing:0px;text-anchor:middle;fill:#ffc000;fill-opacity:1;stroke:none;stroke-width:0.26458335"
         id="path924"
         inkscape:connector-curvature="0" />
      <path
         d="m 349.67438,505.3623 q 0.21524,-0.12873 0.31612,-0.3091 0.10083,-0.18035 0.0605,-0.44847 -0.0281,-0.18667 -0.13617,-0.39344 -0.10416,-0.20907 -0.26277,-0.47428 l -0.31953,-0.53427 -1.5413,0.92181 0.27125,0.45356 q 0.21149,0.35362 0.3886,0.57123 0.17712,0.21762 0.39667,0.30549 0.21111,0.0825 0.3947,0.0666 0.18973,-0.0143 0.43188,-0.15914 z m -2.59351,4.67699 -1.07814,-1.80267 1.16534,-2.81566 -0.40689,-0.68033 -2.09864,1.25514 -0.87813,-1.46828 5.72319,-3.42289 1.48042,2.47532 q 0.30344,0.50735 0.46417,0.90698 0.16073,0.39963 0.15935,0.8336 9.5e-4,0.4378 -0.19394,0.81004 -0.18871,0.37379 -0.64994,0.64964 -0.63421,0.37931 -1.21095,0.32241 -0.57445,-0.053 -1.16609,-0.44022 z"
         style="font-style:normal;font-variant:normal;font-weight:bold;font-stretch:normal;font-size:9.17222214px;line-height:1.25;font-family:Verdana;-inkscape-font-specification:'Verdana Bold';text-align:center;letter-spacing:2.64583325px;word-spacing:0px;text-anchor:middle;fill:#ffc000;fill-opacity:1;stroke:none;stroke-width:0.26458335"
         id="path926"
         inkscape:connector-curvature="0" />
      <path
         d="m 350.76736,518.87886 -0.64935,-1.6552 1.08649,-0.92176 -0.90288,-2.30144 -1.42341,0.0629 -0.63299,-1.61351 7.10763,-0.14236 0.72295,1.84282 z m 1.42323,-3.41123 1.92707,-1.63641 -2.5257,0.11045 z"
         style="font-style:normal;font-variant:normal;font-weight:bold;font-stretch:normal;font-size:9.17222214px;line-height:1.25;font-family:Verdana;-inkscape-font-specification:'Verdana Bold';text-align:center;letter-spacing:2.64583325px;word-spacing:0px;text-anchor:middle;fill:#ffc000;fill-opacity:1;stroke:none;stroke-width:0.26458335"
         id="path928"
         inkscape:connector-curvature="0" />
      <path
         d="m 353.33483,528.06141 q -0.26253,-0.4027 -0.58458,-1.09035 -0.31766,-0.68858 -0.46781,-1.40756 -0.34792,-1.66594 0.35835,-2.79712 0.71064,-1.13208 2.30644,-1.46535 1.52126,-0.31771 2.64936,0.43954 1.13247,0.75632 1.48771,2.45732 0.13459,0.64446 0.13799,1.25225 0.008,0.60689 -0.18931,1.39382 l -1.53004,0.31953 -0.0394,-0.18852 q 0.0664,-0.14198 0.18358,-0.4135 0.12154,-0.27245 0.19414,-0.51638 0.0872,-0.28357 0.1166,-0.64658 0.0304,-0.35862 -0.0494,-0.74005 -0.0934,-0.44716 -0.3009,-0.78357 -0.20752,-0.33641 -0.53975,-0.56899 -0.32072,-0.22127 -0.76232,-0.29833 -0.43629,-0.0735 -0.96676,0.0372 -1.08286,0.22614 -1.53723,0.92038 -0.45437,0.69426 -0.21998,1.81657 0.0201,0.0964 0.0483,0.20952 0.0291,0.11745 0.0581,0.21207 l 1.28014,-0.26734 -0.27192,-1.30206 1.23192,-0.25728 0.62899,3.01184 z"
         style="font-style:normal;font-variant:normal;font-weight:bold;font-stretch:normal;font-size:9.17222214px;line-height:1.25;font-family:Verdana;-inkscape-font-specification:'Verdana Bold';text-align:center;letter-spacing:2.64583325px;word-spacing:0px;text-anchor:middle;fill:#ffc000;fill-opacity:1;stroke:none;stroke-width:0.26458335"
         id="path930"
         inkscape:connector-curvature="0" />
      <path
         d="m 356.07771,538.04985 q -1.23529,0.045 -1.92062,-0.6829 -0.68532,-0.72793 -0.73867,-2.19147 -0.0534,-1.46354 0.57717,-2.23943 0.63067,-0.77141 1.86149,-0.81628 l 4.25634,-0.15513 0.063,1.72759 -4.15788,0.15156 q -0.69373,0.0253 -1.02328,0.32861 -0.32954,0.30331 -0.30572,0.95675 0.0235,0.6445 0.36098,0.92798 0.33765,0.28796 1.05824,0.2617 l 4.15787,-0.15156 0.063,1.72761 z"
         style="font-style:normal;font-variant:normal;font-weight:bold;font-stretch:normal;font-size:9.17222214px;line-height:1.25;font-family:Verdana;-inkscape-font-specification:'Verdana Bold';text-align:center;letter-spacing:2.64583325px;word-spacing:0px;text-anchor:middle;fill:#ffc000;fill-opacity:1;stroke:none;stroke-width:0.26458335"
         id="path932"
         inkscape:connector-curvature="0" />
      <path
         d="m 352.65988,548.51084 0.22787,-1.76336 1.39607,-0.28471 0.31684,-2.45182 -1.27782,-0.63026 0.22214,-1.71894 6.29798,3.29761 -0.25372,1.96323 z m 2.88991,-2.30445 2.4769,-0.50632 -2.26683,-1.11934 z"
         style="font-style:normal;font-variant:normal;font-weight:bold;font-stretch:normal;font-size:9.17222214px;line-height:1.25;font-family:Verdana;-inkscape-font-specification:'Verdana Bold';text-align:center;letter-spacing:2.64583325px;word-spacing:0px;text-anchor:middle;fill:#ffc000;fill-opacity:1;stroke:none;stroke-width:0.26458335"
         id="path934"
         inkscape:connector-curvature="0" />
      <path
         d="m 351.93825,558.58622 0.55451,-1.58056 1.66085,0.58269 -0.5545,1.58056 z"
         style="font-style:normal;font-variant:normal;font-weight:bold;font-stretch:normal;font-size:9.17222214px;line-height:1.25;font-family:Verdana;-inkscape-font-specification:'Verdana Bold';text-align:center;letter-spacing:2.64583325px;word-spacing:0px;text-anchor:middle;fill:#ffc000;fill-opacity:1;stroke:none;stroke-width:0.26458335"
         id="path936"
         inkscape:connector-curvature="0" />
      <path
         d="m 239.24759,574.58262 -0.92167,-1.52049 0.91369,-1.09327 -1.28151,-2.11412 -1.39193,0.3043 -0.89845,-1.48217 6.97964,-1.35036 1.02614,1.69283 z m 0.82169,-3.60373 1.62033,-1.9406 -2.47002,0.53884 z"
         style="font-style:normal;font-variant:normal;font-weight:bold;font-stretch:normal;font-size:9.17222214px;line-height:1.25;font-family:Verdana;-inkscape-font-specification:'Verdana Bold';text-align:center;letter-spacing:2.64583325px;word-spacing:0px;text-anchor:middle;fill:#ffc000;fill-opacity:1;stroke:none;stroke-width:0.26458335"
         id="path864"
         inkscape:connector-curvature="0" />
      <path
         d="m 245.89009,582.85287 -1.10748,-1.30401 3.40341,-2.89047 -3.0088,0.93359 -0.76827,-0.90462 1.40846,-2.81791 -3.40341,2.89045 -1.04949,-1.23573 5.08291,-4.31685 1.29303,1.52249 -1.57878,3.30924 3.51832,-1.02551 1.29301,1.52248 z"
         style="font-style:normal;font-variant:normal;font-weight:bold;font-stretch:normal;font-size:9.17222214px;line-height:1.25;font-family:Verdana;-inkscape-font-specification:'Verdana Bold';text-align:center;letter-spacing:2.64583325px;word-spacing:0px;text-anchor:middle;fill:#ffc000;fill-opacity:1;stroke:none;stroke-width:0.26458335"
         id="path866"
         inkscape:connector-curvature="0" />
      <path
         d="m 252.65932,589.04071 -3.64363,-3.16067 4.36977,-5.03748 3.64364,3.16066 -0.84519,0.97436 -2.35129,-2.03963 -0.75421,0.86947 2.18212,1.89288 -0.84519,0.97434 -2.18212,-1.89287 -1.07998,1.24499 2.35128,2.03961 z"
         style="font-style:normal;font-variant:normal;font-weight:bold;font-stretch:normal;font-size:9.17222214px;line-height:1.25;font-family:Verdana;-inkscape-font-specification:'Verdana Bold';text-align:center;letter-spacing:2.64583325px;word-spacing:0px;text-anchor:middle;fill:#ffc000;fill-opacity:1;stroke:none;stroke-width:0.26458335"
         id="path868"
         inkscape:connector-curvature="0" />
      <path
         d="m 261.57886,589.65482 q 0.13606,-0.21069 0.14669,-0.41707 0.0107,-0.20637 -0.14416,-0.42896 -0.10787,-0.15495 -0.29622,-0.29257 -0.18593,-0.14138 -0.44553,-0.30902 l -0.52297,-0.3377 -0.97423,1.50872 0.44395,0.28668 q 0.34615,0.22351 0.60128,0.34028 0.25513,0.11677 0.4909,0.0984 0.22581,-0.0194 0.38342,-0.11493 0.16381,-0.0968 0.31687,-0.33384 z m -0.256,5.34182 -1.76456,-1.13943 -0.20103,-3.04065 -0.66594,-0.43002 -1.32651,2.05426 -1.43723,-0.92807 3.61753,-5.60219 2.42298,1.5646 q 0.49663,0.32069 0.81762,0.60793 0.32098,0.28724 0.51179,0.677 0.19456,0.39221 0.18456,0.81224 -0.004,0.4187 -0.29535,0.87019 -0.40088,0.6208 -0.94324,0.82501 -0.53862,0.20665 -1.24051,0.12126 z"
         style="font-style:normal;font-variant:normal;font-weight:bold;font-stretch:normal;font-size:9.17222214px;line-height:1.25;font-family:Verdana;-inkscape-font-specification:'Verdana Bold';text-align:center;letter-spacing:2.64583325px;word-spacing:0px;text-anchor:middle;fill:#ffc000;fill-opacity:1;stroke:none;stroke-width:0.26458335"
         id="path870"
         inkscape:connector-curvature="0" />
      <path
         d="m 267.63097,598.07641 -3.53179,-1.66682 0.50464,-1.06925 0.98825,0.4664 1.83695,-3.89226 -0.98825,-0.4664 0.50464,-1.06926 3.53178,1.66683 -0.50464,1.06925 -0.98825,-0.4664 -1.83695,3.89226 0.98826,0.4664 z"
         style="font-style:normal;font-variant:normal;font-weight:bold;font-stretch:normal;font-size:9.17222214px;line-height:1.25;font-family:Verdana;-inkscape-font-specification:'Verdana Bold';text-align:center;letter-spacing:2.64583325px;word-spacing:0px;text-anchor:middle;fill:#ffc000;fill-opacity:1;stroke:none;stroke-width:0.26458335"
         id="path872"
         inkscape:connector-curvature="0" />
      <path
         d="m 274.22278,600.64942 q -0.70757,-0.22818 -1.24122,-0.63086 -0.52939,-0.40131 -0.82656,-0.9536 -0.29716,-0.5523 -0.33654,-1.24733 -0.0351,-0.69366 0.22606,-1.50353 0.24331,-0.75445 0.66716,-1.29539 0.42386,-0.54093 0.99596,-0.84113 0.54953,-0.28865 1.2333,-0.32225 0.68802,-0.0322 1.41264,0.20146 0.40067,0.12921 0.70522,0.2792 0.31021,0.1471 0.55964,0.30753 0.25946,0.17308 0.45664,0.34962 0.20283,0.17364 0.35009,0.31524 l -0.49624,1.53875 -0.18754,-0.0605 q -0.0863,-0.14079 -0.22429,-0.34056 -0.13366,-0.1984 -0.31984,-0.40903 -0.19045,-0.212 -0.433,-0.39374 -0.24256,-0.18176 -0.55372,-0.2821 -0.34525,-0.11135 -0.69216,-0.10087 -0.34552,0.006 -0.6909,0.17247 -0.32983,0.16185 -0.61675,0.51166 -0.28267,0.35119 -0.46687,0.92236 -0.19244,0.59674 -0.15542,1.05102 0.0413,0.45566 0.2228,0.76831 0.1844,0.31828 0.4711,0.52368 0.28806,0.20113 0.59923,0.30149 0.29836,0.0962 0.61708,0.10018 0.32298,0.005 0.61969,-0.0684 0.24872,-0.0563 0.4731,-0.13919 0.22439,-0.0829 0.37247,-0.1481 l 0.1705,0.055 -0.48937,1.51743 q -0.27307,0.0296 -0.52069,0.0533 -0.24763,0.0237 -0.50832,0.0149 -0.34002,-0.0109 -0.62794,-0.052 -0.28792,-0.0411 -0.76531,-0.19506 z"
         style="font-style:normal;font-variant:normal;font-weight:bold;font-stretch:normal;font-size:9.17222214px;line-height:1.25;font-family:Verdana;-inkscape-font-specification:'Verdana Bold';text-align:center;letter-spacing:2.64583325px;word-spacing:0px;text-anchor:middle;fill:#ffc000;fill-opacity:1;stroke:none;stroke-width:0.26458335"
         id="path874"
         inkscape:connector-curvature="0" />
      <path
         d="m 286.40154,603.19073 -1.75331,-0.29536 -0.23095,-1.40597 -2.43785,-0.41068 -0.67883,1.2527 -1.70915,-0.28793 3.53683,-6.16681 1.95205,0.32884 z m -2.19187,-2.97619 -0.41091,-2.49451 -1.20549,2.2222 z"
         style="font-style:normal;font-variant:normal;font-weight:bold;font-stretch:normal;font-size:9.17222214px;line-height:1.25;font-family:Verdana;-inkscape-font-specification:'Verdana Bold';text-align:center;letter-spacing:2.64583325px;word-spacing:0px;text-anchor:middle;fill:#ffc000;fill-opacity:1;stroke:none;stroke-width:0.26458335"
         id="path876"
         inkscape:connector-curvature="0" />
      <path
         d="m 304.56417,602.84343 q -0.73514,0.11085 -1.39229,-0.012 -0.65272,-0.12351 -1.16478,-0.48563 -0.51206,-0.36212 -0.85689,-0.96686 -0.3404,-0.60541 -0.46728,-1.44684 -0.11821,-0.78386 0.0204,-1.45696 0.13855,-0.67311 0.51706,-1.1967 0.36345,-0.50321 0.96068,-0.83784 0.60165,-0.3353 1.35451,-0.44883 0.41627,-0.0628 0.75576,-0.0642 0.34325,-0.006 0.63803,0.0261 0.3094,0.0394 0.56457,0.10963 0.25894,0.0652 0.45386,0.12632 l 0.24107,1.59871 -0.19485,0.0294 q -0.14003,-0.0876 -0.35249,-0.20501 -0.20804,-0.1181 -0.46855,-0.22374 -0.26494,-0.10499 -0.56306,-0.15967 -0.29812,-0.0547 -0.62141,-0.006 -0.35871,0.0541 -0.66463,0.21799 -0.30659,0.15946 -0.54177,0.46215 -0.22321,0.29182 -0.32429,0.73282 -0.0967,0.44032 -0.007,1.03375 0.0935,0.62 0.32898,1.01024 0.23992,0.38957 0.54169,0.58864 0.30687,0.20284 0.65504,0.25904 0.3475,0.0517 0.67079,0.003 0.31,-0.0467 0.59711,-0.18516 0.29155,-0.13907 0.52437,-0.33723 0.19763,-0.16115 0.3616,-0.33534 0.16396,-0.17419 0.2675,-0.29851 l 0.17715,-0.0267 0.23773,1.57657 q -0.2313,0.1481 -0.44247,0.27959 -0.21117,0.13148 -0.44848,0.23974 -0.30926,0.14175 -0.58534,0.2332 -0.27608,0.0914 -0.77208,0.16626 z"
         style="font-style:normal;font-variant:normal;font-weight:bold;font-stretch:normal;font-size:9.17222214px;line-height:1.25;font-family:Verdana;-inkscape-font-specification:'Verdana Bold';text-align:center;letter-spacing:2.64583325px;word-spacing:0px;text-anchor:middle;fill:#ffc000;fill-opacity:1;stroke:none;stroke-width:0.26458335"
         id="path878"
         inkscape:connector-curvature="0" />
      <path
         d="m 315.32367,600.1004 -4.62478,1.37015 -1.89429,-6.39396 4.62479,-1.37016 0.36638,1.23672 -2.98442,0.88416 0.32695,1.1036 2.76972,-0.82056 0.36639,1.23671 -2.76971,0.82056 0.46816,1.58024 2.98443,-0.88416 z"
         style="font-style:normal;font-variant:normal;font-weight:bold;font-stretch:normal;font-size:9.17222214px;line-height:1.25;font-family:Verdana;-inkscape-font-specification:'Verdana Bold';text-align:center;letter-spacing:2.64583325px;word-spacing:0px;text-anchor:middle;fill:#ffc000;fill-opacity:1;stroke:none;stroke-width:0.26458335"
         id="path880"
         inkscape:connector-curvature="0" />
      <path
         d="m 324.66896,596.12751 -1.50262,0.69863 -4.49635,-2.95716 1.92971,4.15048 -1.42952,0.66464 -2.81149,-6.04704 1.86406,-0.86666 3.81581,2.43887 -1.61061,-3.46416 1.42952,-0.66463 z"
         style="font-style:normal;font-variant:normal;font-weight:bold;font-stretch:normal;font-size:9.17222214px;line-height:1.25;font-family:Verdana;-inkscape-font-specification:'Verdana Bold';text-align:center;letter-spacing:2.64583325px;word-spacing:0px;text-anchor:middle;fill:#ffc000;fill-opacity:1;stroke:none;stroke-width:0.26458335"
         id="path882"
         inkscape:connector-curvature="0" />
      <path
         d="m 329.85761,586.59455 -1.74022,1.14397 2.95464,4.49464 -1.43709,0.9447 -2.95464,-4.49464 -1.74024,1.14397 -0.70851,-1.07781 4.91753,-3.23265 z"
         style="font-style:normal;font-variant:normal;font-weight:bold;font-stretch:normal;font-size:9.17222214px;line-height:1.25;font-family:Verdana;-inkscape-font-specification:'Verdana Bold';text-align:center;letter-spacing:2.64583325px;word-spacing:0px;text-anchor:middle;fill:#ffc000;fill-opacity:1;stroke:none;stroke-width:0.26458335"
         id="path885"
         inkscape:connector-curvature="0" />
      <path
         d="m 335.4792,582.89681 q -0.16586,-0.18812 -0.3616,-0.25437 -0.19575,-0.0662 -0.45199,0.0224 -0.17841,0.0618 -0.36198,0.20569 -0.18654,0.14058 -0.41834,0.34495 l -0.46696,0.41169 1.18769,1.34712 0.39641,-0.34949 q 0.30907,-0.27249 0.49069,-0.48636 0.18163,-0.21386 0.22795,-0.44576 0.0426,-0.22261 -0.006,-0.40023 -0.0487,-0.18393 -0.23531,-0.39558 z m 5.07185,1.69616 -1.57556,1.38909 -2.98109,-0.63174 -0.59462,0.52424 1.61716,1.83424 -1.2833,1.13142 -4.41015,-5.00218 2.16347,-1.90741 q 0.44345,-0.39096 0.80701,-0.62194 0.36358,-0.23098 0.7905,-0.30885 0.43028,-0.0808 0.83184,0.0428 0.40196,0.1173 0.75737,0.52043 0.4887,0.55431 0.53806,1.13175 0.0527,0.57448 -0.21997,1.22686 z"
         style="font-style:normal;font-variant:normal;font-weight:bold;font-stretch:normal;font-size:9.17222214px;line-height:1.25;font-family:Verdana;-inkscape-font-specification:'Verdana Bold';text-align:center;letter-spacing:2.64583325px;word-spacing:0px;text-anchor:middle;fill:#ffc000;fill-opacity:1;stroke:none;stroke-width:0.26458335"
         id="path887"
         inkscape:connector-curvature="0" />
      <path
         d="m 346.86335,577.39197 -1.14663,1.35888 -1.32778,-0.51681 -1.59432,1.88943 0.7328,1.22192 -1.11776,1.32466 -3.50812,-6.1832 1.27662,-1.51291 z m -3.67747,0.3719 -2.35636,-0.91593 1.29927,2.16871 z"
         style="font-style:normal;font-variant:normal;font-weight:bold;font-stretch:normal;font-size:9.17222214px;line-height:1.25;font-family:Verdana;-inkscape-font-specification:'Verdana Bold';text-align:center;letter-spacing:2.64583325px;word-spacing:0px;text-anchor:middle;fill:#ffc000;fill-opacity:1;stroke:none;stroke-width:0.26458335"
         id="path889"
         inkscape:connector-curvature="0" />
      <path
         d="m 351.49425,570.34962 -2.56857,4.06683 -5.63826,-3.56106 0.91837,-1.45406 4.54772,2.87228 1.65019,-2.61276 z"
         style="font-style:normal;font-variant:normal;font-weight:bold;font-stretch:normal;font-size:9.17222214px;line-height:1.25;font-family:Verdana;-inkscape-font-specification:'Verdana Bold';text-align:center;letter-spacing:2.64583325px;word-spacing:0px;text-anchor:middle;fill:#ffc000;fill-opacity:1;stroke:none;stroke-width:0.26458335"
         id="path891"
         inkscape:connector-curvature="0" />
      <path
         inkscape:connector-curvature="0"
         id="path983"
         style="font-style:normal;font-variant:normal;font-weight:bold;font-stretch:normal;font-size:9.17222214px;line-height:1.25;font-family:Verdana;-inkscape-font-specification:'Verdana Bold';text-align:center;letter-spacing:2.64583325px;word-spacing:0px;text-anchor:middle;fill:#ffc000;fill-opacity:1;stroke:none;stroke-width:0.26458335"
         d="m 236.31951,558.92925 -0.56387,-1.57724 -1.65737,0.59253 0.56387,1.57724 z" />
    </g>
    <path
       inkscape:connector-curvature="0"
       id="path919"
       d="m 250.75921,562.39566 13.97278,-24.2244 c 0,0 2.71778,1.39997 4.1905,1.39997 1.47272,0 4.1905,-1.39997 4.1905,-1.39997 0,0 2.71778,1.39997 4.1905,1.39997 1.47272,0 4.1905,-1.39997 4.1905,-1.39997 0,0 2.71778,1.39997 4.1905,1.39997 1.47272,0 4.1905,-1.39997 4.1905,-1.39997 0,0 2.71778,1.39997 4.1905,1.39997 1.47272,0 4.1905,-1.39997 4.1905,-1.39997 0,0 2.71778,1.39997 4.1905,1.39997 1.47272,0 4.1905,-1.39997 4.1905,-1.39997 0,0 2.71778,1.39997 4.1905,1.39997 1.47272,0 4.1905,-1.39997 4.1905,-1.39997 0,0 2.71778,1.39997 4.1905,1.39997 1.47272,0 4.1905,-1.39997 4.1905,-1.39997 l 13.97278,24.2244 z"
       style="fill:#0000ff;fill-opacity:1;stroke:none;stroke-width:0.26458335px;stroke-linecap:butt;stroke-linejoin:miter;stroke-opacity:1"
       sodipodi:nodetypes="cczczczczczczczccc" />
    <path
       style="opacity:1;fill:url(#radialGradient868);fill-opacity:1;fill-rule:evenodd;stroke:none;stroke-width:0.44002283;stroke-linecap:round;stroke-linejoin:round;stroke-miterlimit:4;stroke-dasharray:none;stroke-dashoffset:0;stroke-opacity:1"
       d="m 320.52382,540.1004 c 0,-14.61253 -11.84579,-26.45834 -26.45833,-26.45834 -14.61254,0 -26.45833,11.84581 -26.45833,26.45834 h 3.30729 c 0,-12.78597 10.36507,-23.15104 23.15104,-23.15104 12.78597,0 23.15104,10.36507 23.15104,23.15104 z"
       id="path856"
       inkscape:connector-curvature="0"
       sodipodi:nodetypes="czcczcc" />
    <g
       id="g1016"
       style="stroke-width:0.50648122;stroke-miterlimit:4;stroke-dasharray:none"
       transform="matrix(1.085849,0,0,0.81428016,-25.245228,105.75016)">
      <path
         inkscape:connector-curvature="0"
         id="path961"
         d="m 278.36808,537.86735 c -1.01334,-2.54772 -1.86938,-5.26077 -3.21133,-7.29844 -0.24192,-0.36734 -1.06895,-1.05184 -1.72875,-1.05184 -0.65979,0 -1.48685,0.68451 -1.72875,1.05184 -3.42904,5.20672 -7.08385,14.82316 -11.50044,14.82316 v 1.05833 c 10.92794,4.40256 61.14556,2.93986 67.73336,0 v -1.05833 c -4.41659,0 -8.0714,-9.61644 -11.50044,-14.82316 -0.2419,-0.36733 -1.06896,-1.05184 -1.72875,-1.05184 -0.6598,0 -1.48683,0.6845 -1.72875,1.05184 -1.34195,2.03767 -2.19799,4.75072 -3.21133,7.29844"
         style="fill:#00a800;fill-opacity:1;stroke:none;stroke-width:0.50648122;stroke-linecap:butt;stroke-linejoin:miter;stroke-miterlimit:4;stroke-dasharray:none;stroke-opacity:1"
         sodipodi:nodetypes="cszsccccszsc" />
      <path
         inkscape:connector-curvature="0"
         id="path957"
         d="m 309.7629,537.86735 c 1.01334,-2.54772 1.86938,-5.26077 3.21133,-7.29844 0.24192,-0.36734 1.06895,-1.05184 1.72875,-1.05184 0.65979,0 1.48685,0.68451 1.72875,1.05184 3.42904,5.20672 7.08385,14.82316 11.50044,14.82316"
         style="fill:none;fill-opacity:1;stroke:#008000;stroke-width:0.50648122;stroke-linecap:round;stroke-linejoin:miter;stroke-miterlimit:4;stroke-dasharray:none;stroke-opacity:1"
         sodipodi:nodetypes="cszsc" />
      <g
         style="stroke:none;stroke-width:0.50648122;stroke-miterlimit:4;stroke-dasharray:none"
         id="g968">
        <path
           sodipodi:nodetypes="cszscc"
           style="fill:#00a800;fill-opacity:1;stroke:none;stroke-width:0.50648122;stroke-linecap:butt;stroke-linejoin:miter;stroke-miterlimit:4;stroke-dasharray:none;stroke-opacity:1"
           d="m 275.45531,537.86735 c 1.01334,-2.54772 1.86938,-5.26077 3.21133,-7.29844 0.24192,-0.36734 1.06895,-1.05184 1.72875,-1.05184 0.6598,0 1.48683,0.6845 1.72875,1.05184 1.34195,2.03767 2.19799,4.75072 3.21133,7.29844 -3.29339,3.8525 -6.58677,3.83737 -9.88016,0 z"
           id="path941"
           inkscape:connector-curvature="0" />
        <path
           inkscape:connector-curvature="0"
           id="path982"
           d="m 282.42266,537.86735 c 1.01334,-2.54772 1.86938,-5.26077 3.21133,-7.29844 0.24192,-0.36734 1.06895,-1.05184 1.72875,-1.05184 0.6598,0 1.48683,0.6845 1.72875,1.05184 1.34195,2.03767 2.19799,4.75072 3.21133,7.29844 -3.29339,3.8525 -6.58677,3.83737 -9.88016,0 z"
           style="fill:#00a800;fill-opacity:1;stroke:none;stroke-width:0.50648122;stroke-linecap:butt;stroke-linejoin:miter;stroke-miterlimit:4;stroke-dasharray:none;stroke-opacity:1"
           sodipodi:nodetypes="cszscc" />
        <path
           sodipodi:nodetypes="cszscc"
           style="fill:#00a800;fill-opacity:1;stroke:none;stroke-width:0.50648122;stroke-linecap:butt;stroke-linejoin:miter;stroke-miterlimit:4;stroke-dasharray:none;stroke-opacity:1"
           d="m 289.39001,537.86735 c 1.01334,-2.54772 1.86938,-5.26077 3.21133,-7.29844 0.24192,-0.36734 1.06895,-1.05184 1.72875,-1.05184 0.6598,0 1.48683,0.6845 1.72875,1.05184 1.34195,2.03767 2.19799,4.75072 3.21133,7.29844 -3.29339,3.8525 -6.58677,3.83737 -9.88016,0 z"
           id="path984"
           inkscape:connector-curvature="0" />
        <path
           inkscape:connector-curvature="0"
           id="path986"
           d="m 296.3574,537.86735 c 1.01334,-2.54772 1.86938,-5.26077 3.21133,-7.29844 0.24192,-0.36734 1.06895,-1.05184 1.72875,-1.05184 0.6598,0 1.48683,0.6845 1.72875,1.05184 1.34195,2.03767 2.19799,4.75072 3.21133,7.29844 -3.29339,3.8525 -6.58677,3.83737 -9.88016,0 z"
           style="fill:#00a800;fill-opacity:1;stroke:none;stroke-width:0.50648122;stroke-linecap:butt;stroke-linejoin:miter;stroke-miterlimit:4;stroke-dasharray:none;stroke-opacity:1"
           sodipodi:nodetypes="cszscc" />
        <path
           sodipodi:nodetypes="cszscc"
           style="fill:#00a800;fill-opacity:1;stroke:none;stroke-width:0.50648122;stroke-linecap:butt;stroke-linejoin:miter;stroke-miterlimit:4;stroke-dasharray:none;stroke-opacity:1"
           d="m 303.32476,537.86735 c 1.01334,-2.54772 1.86938,-5.26077 3.21133,-7.29844 0.24192,-0.36734 1.06895,-1.05184 1.72875,-1.05184 0.6598,0 1.48683,0.6845 1.72875,1.05184 1.34195,2.03767 2.19799,4.75072 3.21133,7.29844 -3.29339,3.8525 -6.58677,3.83737 -9.88016,0 z"
           id="path988"
           inkscape:connector-curvature="0" />
      </g>
      <g
         id="g980"
         style="fill:#00c032;fill-opacity:1;stroke:#0f8000;stroke-width:0.50648122;stroke-miterlimit:4;stroke-dasharray:none;stroke-opacity:1;stroke-linecap:round">
        <path
           inkscape:connector-curvature="0"
           id="path996"
           d="m 304.83954,533.94748 c 0.4994,-1.22226 1.03978,-2.3813 1.69655,-3.37857 0.24192,-0.36734 1.06895,-1.05184 1.72875,-1.05184 0.6598,0 1.48683,0.6845 1.72875,1.05184 1.34195,2.03767 2.19799,4.75072 3.21133,7.29844"
           style="fill:none;fill-opacity:1;stroke:#008000;stroke-width:0.50648122;stroke-linecap:round;stroke-linejoin:miter;stroke-miterlimit:4;stroke-dasharray:none;stroke-opacity:1"
           sodipodi:nodetypes="cszsc" />
        <path
           sodipodi:nodetypes="cszsc"
           style="fill:none;fill-opacity:1;stroke:#008000;stroke-width:0.50648122;stroke-linecap:round;stroke-linejoin:miter;stroke-miterlimit:4;stroke-dasharray:none;stroke-opacity:1"
           d="m 297.87218,533.94748 c 0.4994,-1.22226 1.03978,-2.3813 1.69655,-3.37857 0.24192,-0.36734 1.06895,-1.05184 1.72875,-1.05184 0.6598,0 1.48683,0.6845 1.72875,1.05184 1.34195,2.03767 2.19799,4.75072 3.21133,7.29844"
           id="path994"
           inkscape:connector-curvature="0" />
        <path
           inkscape:connector-curvature="0"
           id="path992"
           d="m 290.90479,533.94748 c 0.4994,-1.22226 1.03978,-2.3813 1.69655,-3.37857 0.24192,-0.36734 1.06895,-1.05184 1.72875,-1.05184 0.6598,0 1.48683,0.6845 1.72875,1.05184 1.34195,2.03767 2.19799,4.75072 3.21133,7.29844"
           style="fill:none;fill-opacity:1;stroke:#008000;stroke-width:0.50648122;stroke-linecap:round;stroke-linejoin:miter;stroke-miterlimit:4;stroke-dasharray:none;stroke-opacity:1"
           sodipodi:nodetypes="cszsc" />
        <path
           sodipodi:nodetypes="cszsc"
           style="fill:none;fill-opacity:1;stroke:#008000;stroke-width:0.50648122;stroke-linecap:round;stroke-linejoin:miter;stroke-miterlimit:4;stroke-dasharray:none;stroke-opacity:1"
           d="m 283.93744,533.94748 c 0.4994,-1.22226 1.03978,-2.3813 1.69655,-3.37857 0.24192,-0.36734 1.06895,-1.05184 1.72875,-1.05184 0.6598,0 1.48683,0.6845 1.72875,1.05184 1.34195,2.03767 2.19799,4.75072 3.21133,7.29844"
           id="path990"
           inkscape:connector-curvature="0" />
        <path
           inkscape:connector-curvature="0"
           id="path978"
           d="m 276.97009,533.94748 c 0.4994,-1.22226 1.03978,-2.3813 1.69655,-3.37857 0.24192,-0.36734 1.06895,-1.05184 1.72875,-1.05184 0.6598,0 1.48683,0.6845 1.72875,1.05184 1.34195,2.03767 2.19799,4.75072 3.21133,7.29844"
           style="fill:none;fill-opacity:1;stroke:#008000;stroke-width:0.50648122;stroke-linecap:round;stroke-linejoin:miter;stroke-miterlimit:4;stroke-dasharray:none;stroke-opacity:1"
           sodipodi:nodetypes="cszsc" />
      </g>
      <path
         sodipodi:nodetypes="cszsc"
         style="fill:none;fill-opacity:1;stroke:#008000;stroke-width:0.50648122;stroke-linecap:round;stroke-linejoin:miter;stroke-miterlimit:4;stroke-dasharray:none;stroke-opacity:1"
         d="m 278.36808,537.86735 c -1.01334,-2.54772 -1.86938,-5.26077 -3.21133,-7.29844 -0.24192,-0.36734 -1.06895,-1.05184 -1.72875,-1.05184 -0.65979,0 -1.48685,0.68451 -1.72875,1.05184 -3.42904,5.20672 -7.08385,14.82316 -11.50044,14.82316"
         id="path929"
         inkscape:connector-curvature="0" />
      <path
         sodipodi:nodetypes="cc"
         style="fill:none;fill-opacity:1;stroke:#008000;stroke-width:0.50648122;stroke-linecap:round;stroke-linejoin:miter;stroke-miterlimit:4;stroke-dasharray:none;stroke-opacity:1"
         d="m 260.19881,546.4504 c 10.92794,4.40256 61.14556,2.93986 67.73336,0"
         id="path1018"
         inkscape:connector-curvature="0" />
    </g>
    <path
       style="color:#000000;font-style:normal;font-variant:normal;font-weight:normal;font-stretch:normal;font-size:medium;line-height:normal;font-family:sans-serif;font-variant-ligatures:normal;font-variant-position:normal;font-variant-caps:normal;font-variant-numeric:normal;font-variant-alternates:normal;font-feature-settings:normal;text-indent:0;text-align:start;text-decoration:none;text-decoration-line:none;text-decoration-style:solid;text-decoration-color:#000000;letter-spacing:normal;word-spacing:normal;text-transform:none;writing-mode:lr-tb;direction:ltr;text-orientation:mixed;dominant-baseline:auto;baseline-shift:baseline;text-anchor:start;white-space:normal;shape-padding:0;clip-rule:nonzero;display:inline;overflow:visible;visibility:visible;opacity:1;isolation:auto;mix-blend-mode:normal;color-interpolation:sRGB;color-interpolation-filters:linearRGB;solid-color:#000000;solid-opacity:1;vector-effect:none;fill:#a87e00;fill-opacity:1;fill-rule:evenodd;stroke:none;stroke-width:4.76250029;stroke-linecap:round;stroke-linejoin:miter;stroke-miterlimit:4;stroke-dasharray:none;stroke-dashoffset:0;stroke-opacity:1;color-rendering:auto;image-rendering:auto;shape-rendering:auto;text-rendering:auto;enable-background:accumulate"
       d="m 252.82103,561.20538 41.24446,-71.4375 41.24446,71.4375 z m 86.61256,2.38056 -45.3681,-78.58008 -45.3681,78.58008 z"
       id="path832"
       inkscape:connector-curvature="0"
       sodipodi:nodetypes="cccccccc" />
    <path
       style="fill:#ff0000;fill-opacity:1;stroke:#a80000;stroke-width:0.238125;stroke-linecap:butt;stroke-linejoin:miter;stroke-opacity:1;stroke-miterlimit:4;stroke-dasharray:none"
       d="m 293.91996,530.67325 h 0.93773 c 0,0 0.038,-1.20127 0.42577,-1.58902 0.34843,-0.34842 1.42787,-0.3826 1.42787,-0.3826 0,0 0.002,-2.19314 -0.47464,-3.13714 -0.41036,-0.81233 -1.05152,-1.69506 -1.9306,-1.93061 -0.92088,-0.24675 -2.28595,-0.0854 -2.76263,0.74024 -0.0924,0.16006 0.0128,0.40488 0.1435,0.53557 0.32139,0.32138 1.31705,0.3529 1.31705,0.3529 0,0 -0.92245,0.71726 -1.20988,1.20988 -0.23503,0.40282 -0.37447,1.34809 -0.37447,1.34809 0,0 1.67294,0.66129 2.16482,1.35641 0.29525,0.41725 0.33548,1.49628 0.33548,1.49628 z"
       id="path3139"
       inkscape:connector-curvature="0"
       sodipodi:nodetypes="ccscsssscscsc" />
  </g>
</svg>
