<?xml version="1.0" encoding="UTF-8" standalone="no"?>
<!-- Created with Inkscape (http://www.inkscape.org/) -->

<svg
   width="2736"
   height="1800"
   viewBox="0 0 723.9 476.25001"
   version="1.1"
   id="svg8"
   inkscape:export-filename="C:\Users\厂永刄先生\Documents\GXI3CW2\JáÈŭcèŭ\Èŭmen\Í\意軍.png"
   inkscape:export-xdpi="96"
   inkscape:export-ydpi="96"
   inkscape:version="1.3 (0e150ed6c4, 2023-07-21)"
   sodipodi:docname="th_1680 - コピー.svg"
   xmlns:inkscape="http://www.inkscape.org/namespaces/inkscape"
   xmlns:sodipodi="http://sodipodi.sourceforge.net/DTD/sodipodi-0.dtd"
   xmlns="http://www.w3.org/2000/svg"
   xmlns:svg="http://www.w3.org/2000/svg"
   xmlns:rdf="http://www.w3.org/1999/02/22-rdf-syntax-ns#"
   xmlns:cc="http://creativecommons.org/ns#"
   xmlns:dc="http://purl.org/dc/elements/1.1/">
  <defs
     id="defs2" />
  <sodipodi:namedview
     id="base"
     pagecolor="#ffffff"
     bordercolor="#666666"
     borderopacity="1.0"
     inkscape:pageopacity="0.0"
     inkscape:pageshadow="2"
     inkscape:zoom="0.42740676"
     inkscape:cx="1603.8586"
     inkscape:cy="803.68406"
     inkscape:document-units="px"
     inkscape:current-layer="g832"
     showgrid="false"
     units="px"
     fit-margin-top="0"
     fit-margin-left="0"
     fit-margin-right="0"
     fit-margin-bottom="0"
     inkscape:showpageshadow="false"
     inkscape:snap-intersection-paths="false"
     inkscape:object-paths="false"
     inkscape:pagecheckerboard="true"
     inkscape:snap-smooth-nodes="false"
     inkscape:window-width="1920"
     inkscape:window-height="1009"
     inkscape:window-x="-8"
     inkscape:window-y="-8"
     inkscape:window-maximized="1"
     inkscape:object-nodes="true"
     inkscape:snap-nodes="true"
     showguides="true"
     inkscape:guide-bbox="true"
     inkscape:deskcolor="#505050" />
  <metadata
     id="metadata5">
    <rdf:RDF>
      <cc:Work
         rdf:about="">
        <dc:format>image/svg+xml</dc:format>
        <dc:type
           rdf:resource="http://purl.org/dc/dcmitype/StillImage" />
      </cc:Work>
    </rdf:RDF>
  </metadata>
  <g
     inkscape:label="レイヤー 1"
     inkscape:groupmode="layer"
     id="layer1"
     transform="translate(112.33452,-299.26786)">
    <g
       id="g832"
       style="fill:#da291c;fill-opacity:1">
      <path
         sodipodi:nodetypes="ccccc"
         inkscape:connector-curvature="0"
         id="path1079"
         d="m -102.80952,299.26786 h -9.525 v 476.25 h 9.525 z"
         style="fill:#ffffff;fill-opacity:1;stroke:none;stroke-width:0.51166773px;stroke-linecap:butt;stroke-linejoin:miter;stroke-opacity:1" />
      <path
         sodipodi:nodetypes="ccccc"
         inkscape:connector-curvature="0"
         id="path827"
         d="m -102.80952,299.26786 v 476.25 h 714.37501 v -476.25 z"
         style="fill:#a51931;fill-opacity:1;stroke:none;stroke-width:3.13331px;stroke-linecap:butt;stroke-linejoin:miter;stroke-opacity:1" />
      <g
         id="g70"
         style="stroke:#f4f5f8;stroke-opacity:1;stroke-width:4.76250005;stroke-dasharray:none;stroke-linejoin:round;stroke-linecap:round">
        <circle
           style="opacity:1;fill:none;stroke:#f4f5f8;stroke-width:4.76250005;stroke-miterlimit:4;stroke-dasharray:none;stroke-opacity:1;stroke-linejoin:round;stroke-linecap:round"
           id="circle2"
           cx="254.37799"
           cy="537.39288"
           r="107.15625" />
        <circle
           style="opacity:1;fill:none;stroke:#f4f5f8;stroke-width:4.76250005;stroke-miterlimit:4;stroke-dasharray:none;stroke-opacity:1;stroke-linejoin:round;stroke-linecap:round"
           id="circle1"
           cx="254.37799"
           cy="537.39288"
           r="79.375" />
        <path
           style="opacity:1;fill:none;stroke:#f4f5f8;stroke-width:4.76250005;stroke-miterlimit:5.2;stroke-dasharray:none;stroke-opacity:1;stroke-linejoin:round;stroke-linecap:round"
           d="m 226.02414,433.23335 c -4.21033,-17.16686 -25.27927,-29.78526 -35.64309,-31.79716 28.08629,-9.88015 53.4377,3.73236 69.88302,14.54752 1.73472,-8.37157 -0.0641,-22.92705 -3.19821,-27.63793 14.82807,4.79758 30.07097,23.82837 31.61858,46.27181 m 6.70047,3.77583 c 0,-23.64417 -16.97974,-59.75054 -57.41157,-59.75054 8.38914,5.29392 16.44715,15.54148 16.40465,25.79687 -21.61028,-13.00839 -50.04298,-21.19102 -86.74691,0 19.10967,0 46.59233,10.89599 52.12499,31.54414"
           id="path13"
           sodipodi:nodetypes="cccccccccc" />
        <circle
           style="opacity:1;fill:none;stroke:#f4f5f8;stroke-width:4.76250005;stroke-miterlimit:4;stroke-dasharray:none;stroke-opacity:1;stroke-linejoin:round;stroke-linecap:round"
           id="circle13"
           cx="254.37799"
           cy="537.39288"
           r="100.80625" />
        <circle
           style="opacity:1;fill:none;stroke:#f4f5f8;stroke-width:4.76250005;stroke-miterlimit:4;stroke-dasharray:none;stroke-opacity:1;stroke-linejoin:round;stroke-linecap:round"
           id="circle14"
           cx="254.37799"
           cy="537.39288"
           r="72.760414" />
        <circle
           style="opacity:1;fill:none;fill-opacity:1;stroke:#f4f5f8;stroke-width:4.76250005;stroke-miterlimit:4;stroke-dasharray:none;stroke-opacity:1;stroke-linejoin:round;stroke-linecap:round"
           id="circle18"
           cx="254.37799"
           cy="447.30225"
           r="4.3656249" />
        <circle
           style="opacity:1;fill:none;fill-opacity:1;stroke:#f4f5f8;stroke-width:4.76250005;stroke-miterlimit:4;stroke-dasharray:none;stroke-opacity:1;stroke-linejoin:round;stroke-linecap:round"
           id="circle20"
           cx="384.79779"
           cy="363.15317"
           r="4.3656249"
           transform="rotate(15)" />
        <circle
           style="opacity:1;fill:none;fill-opacity:1;stroke:#f4f5f8;stroke-width:4.76250005;stroke-miterlimit:4;stroke-dasharray:none;stroke-opacity:1;stroke-linejoin:round;stroke-linecap:round"
           id="circle21"
           cx="488.99426"
           cy="248.11626"
           r="4.3656249"
           transform="rotate(30)" />
        <circle
           style="opacity:1;fill:none;fill-opacity:1;stroke:#f4f5f8;stroke-width:4.76250005;stroke-miterlimit:4;stroke-dasharray:none;stroke-opacity:1;stroke-linejoin:round;stroke-linecap:round"
           id="circle22"
           cx="106.62275"
           cy="494.82889"
           r="4.3656249"
           transform="rotate(-15)" />
        <circle
           style="opacity:1;fill:none;fill-opacity:1;stroke:#f4f5f8;stroke-width:4.76250005;stroke-miterlimit:4;stroke-dasharray:none;stroke-opacity:1;stroke-linejoin:round;stroke-linecap:round"
           id="circle23"
           cx="537.39288"
           cy="-344.46863"
           r="4.3656249"
           transform="rotate(90)" />
        <circle
           style="opacity:1;fill:none;fill-opacity:1;stroke:#f4f5f8;stroke-width:4.76250005;stroke-miterlimit:4;stroke-dasharray:none;stroke-opacity:1;stroke-linejoin:round;stroke-linecap:round"
           id="circle24"
           cx="453.2438"
           cy="-474.8884"
           r="4.3656249"
           transform="rotate(105)" />
        <circle
           style="opacity:1;fill:none;fill-opacity:1;stroke:#f4f5f8;stroke-width:4.76250005;stroke-miterlimit:4;stroke-dasharray:none;stroke-opacity:1;stroke-linejoin:round;stroke-linecap:round"
           id="circle25"
           cx="338.20691"
           cy="-579.0849"
           r="4.3656249"
           transform="rotate(120)" />
        <circle
           style="opacity:1;fill:none;fill-opacity:1;stroke:#f4f5f8;stroke-width:4.76250005;stroke-miterlimit:4;stroke-dasharray:none;stroke-opacity:1;stroke-linejoin:round;stroke-linecap:round"
           id="circle26"
           cx="584.91949"
           cy="-196.71341"
           r="4.3656249"
           transform="rotate(75)" />
        <circle
           style="opacity:1;fill:none;fill-opacity:1;stroke:#f4f5f8;stroke-width:4.76250005;stroke-miterlimit:4;stroke-dasharray:none;stroke-opacity:1;stroke-linejoin:round;stroke-linecap:round"
           id="circle27"
           cx="-254.37799"
           cy="-627.48352"
           r="4.3656249"
           transform="scale(-1)" />
        <circle
           style="opacity:1;fill:none;fill-opacity:1;stroke:#f4f5f8;stroke-width:4.76250005;stroke-miterlimit:4;stroke-dasharray:none;stroke-opacity:1;stroke-linejoin:round;stroke-linecap:round"
           id="circle28"
           cx="-384.79776"
           cy="-543.33441"
           r="4.3656249"
           transform="rotate(-165)" />
        <circle
           style="opacity:1;fill:none;fill-opacity:1;stroke:#f4f5f8;stroke-width:4.76250005;stroke-miterlimit:4;stroke-dasharray:none;stroke-opacity:1;stroke-linejoin:round;stroke-linecap:round"
           id="circle29"
           cx="-488.99423"
           cy="-428.29755"
           r="4.3656249"
           transform="rotate(-150)" />
        <circle
           style="opacity:1;fill:none;fill-opacity:1;stroke:#f4f5f8;stroke-width:4.76250005;stroke-miterlimit:4;stroke-dasharray:none;stroke-opacity:1;stroke-linejoin:round;stroke-linecap:round"
           id="circle30"
           cx="-106.6228"
           cy="-675.01019"
           r="4.3656249"
           transform="rotate(165)" />
        <circle
           style="opacity:1;fill:none;fill-opacity:1;stroke:#f4f5f8;stroke-width:4.76250005;stroke-miterlimit:4;stroke-dasharray:none;stroke-opacity:1;stroke-linejoin:round;stroke-linecap:round"
           id="circle31"
           cx="-537.39288"
           cy="164.28735"
           r="4.3656249"
           transform="rotate(-90)" />
        <circle
           style="opacity:1;fill:none;fill-opacity:1;stroke:#f4f5f8;stroke-width:4.76250005;stroke-miterlimit:4;stroke-dasharray:none;stroke-opacity:1;stroke-linejoin:round;stroke-linecap:round"
           id="circle32"
           cx="-453.24377"
           cy="294.70715"
           r="4.3656249"
           transform="rotate(-75)" />
        <circle
           style="opacity:1;fill:none;fill-opacity:1;stroke:#f4f5f8;stroke-width:4.76250005;stroke-miterlimit:4;stroke-dasharray:none;stroke-opacity:1;stroke-linejoin:round;stroke-linecap:round"
           id="circle33"
           cx="-338.20688"
           cy="398.90359"
           r="4.3656249"
           transform="rotate(-60)" />
        <circle
           style="opacity:1;fill:none;fill-opacity:1;stroke:#f4f5f8;stroke-width:4.76250005;stroke-miterlimit:4;stroke-dasharray:none;stroke-opacity:1;stroke-linejoin:round;stroke-linecap:round"
           id="circle34"
           cx="-584.91956"
           cy="16.532099"
           r="4.3656249"
           transform="rotate(-105)" />
        <circle
           style="opacity:1;fill:none;stroke:#f4f5f8;stroke-width:4.76250005;stroke-miterlimit:4;stroke-dasharray:none;stroke-opacity:1;stroke-linejoin:round;stroke-linecap:round"
           id="circle35"
           cx="559.86658"
           cy="200.12175"
           r="79.375"
           transform="rotate(45)" />
        <circle
           style="opacity:1;fill:none;stroke:#f4f5f8;stroke-width:4.76250005;stroke-miterlimit:4;stroke-dasharray:none;stroke-opacity:1;stroke-linejoin:round;stroke-linecap:round"
           id="circle36"
           cx="559.86658"
           cy="200.12175"
           r="72.760414"
           transform="rotate(45)" />
        <circle
           style="opacity:1;fill:none;fill-opacity:1;stroke:#f4f5f8;stroke-width:4.76250005;stroke-miterlimit:4;stroke-dasharray:none;stroke-opacity:1;stroke-linejoin:round;stroke-linecap:round"
           id="circle37"
           cx="559.86658"
           cy="110.03111"
           r="4.3656249"
           transform="rotate(45)" />
        <circle
           style="opacity:1;fill:none;fill-opacity:1;stroke:#f4f5f8;stroke-width:4.76250005;stroke-miterlimit:4;stroke-dasharray:none;stroke-opacity:1;stroke-linejoin:round;stroke-linecap:round"
           id="circle38"
           cx="592.5849"
           cy="-41.69199"
           r="4.3656249"
           transform="rotate(60)" />
        <circle
           style="opacity:1;fill:none;fill-opacity:1;stroke:#f4f5f8;stroke-width:4.76250005;stroke-miterlimit:4;stroke-dasharray:none;stroke-opacity:1;stroke-linejoin:round;stroke-linecap:round"
           id="circle39"
           cx="488.99423"
           cy="248.11624"
           r="4.3656249"
           transform="rotate(30)" />
        <circle
           style="opacity:1;fill:none;fill-opacity:1;stroke:#f4f5f8;stroke-width:4.76250005;stroke-miterlimit:4;stroke-dasharray:none;stroke-opacity:1;stroke-linejoin:round;stroke-linecap:round"
           id="circle40"
           cx="200.12175"
           cy="-649.95721"
           r="4.3656249"
           transform="rotate(135)" />
        <circle
           style="opacity:1;fill:none;fill-opacity:1;stroke:#f4f5f8;stroke-width:4.76250005;stroke-miterlimit:4;stroke-dasharray:none;stroke-opacity:1;stroke-linejoin:round;stroke-linecap:round"
           id="circle41"
           cx="48.398647"
           cy="-682.67548"
           r="4.3656249"
           transform="rotate(150)" />
        <circle
           style="opacity:1;fill:none;fill-opacity:1;stroke:#f4f5f8;stroke-width:4.76250005;stroke-miterlimit:4;stroke-dasharray:none;stroke-opacity:1;stroke-linejoin:round;stroke-linecap:round"
           id="circle42"
           cx="338.20685"
           cy="-579.0849"
           r="4.3656249"
           transform="rotate(120)" />
        <circle
           style="opacity:1;fill:none;fill-opacity:1;stroke:#f4f5f8;stroke-width:4.76250005;stroke-miterlimit:4;stroke-dasharray:none;stroke-opacity:1;stroke-linejoin:round;stroke-linecap:round"
           id="circle43"
           cx="-559.86658"
           cy="-290.21237"
           r="4.3656249"
           transform="rotate(-135)" />
        <circle
           style="opacity:1;fill:none;fill-opacity:1;stroke:#f4f5f8;stroke-width:4.76250005;stroke-miterlimit:4;stroke-dasharray:none;stroke-opacity:1;stroke-linejoin:round;stroke-linecap:round"
           id="circle44"
           cx="-592.58484"
           cy="-138.48926"
           r="4.3656249"
           transform="rotate(-120)" />
        <circle
           style="opacity:1;fill:none;fill-opacity:1;stroke:#f4f5f8;stroke-width:4.76250005;stroke-miterlimit:4;stroke-dasharray:none;stroke-opacity:1;stroke-linejoin:round;stroke-linecap:round"
           id="circle45"
           cx="-488.99429"
           cy="-428.29755"
           r="4.3656249"
           transform="rotate(-150)" />
        <circle
           style="opacity:1;fill:none;fill-opacity:1;stroke:#f4f5f8;stroke-width:4.76250005;stroke-miterlimit:4;stroke-dasharray:none;stroke-opacity:1;stroke-linejoin:round;stroke-linecap:round"
           id="circle46"
           cx="-200.12175"
           cy="469.77591"
           r="4.3656249"
           transform="rotate(-45)" />
        <circle
           style="opacity:1;fill:none;fill-opacity:1;stroke:#f4f5f8;stroke-width:4.76250005;stroke-miterlimit:4;stroke-dasharray:none;stroke-opacity:1;stroke-linejoin:round;stroke-linecap:round"
           id="circle47"
           cx="-48.398617"
           cy="502.49426"
           r="4.3656249"
           transform="rotate(-30)" />
        <circle
           style="opacity:1;fill:none;fill-opacity:1;stroke:#f4f5f8;stroke-width:4.76250005;stroke-miterlimit:4;stroke-dasharray:none;stroke-opacity:1;stroke-linejoin:round;stroke-linecap:round"
           id="circle48"
           cx="-338.20691"
           cy="398.90359"
           r="4.3656249"
           transform="rotate(-60)" />
        <path
           style="opacity:1;fill:none;fill-opacity:1;stroke:#f4f5f8;stroke-width:4.76250005;stroke-miterlimit:5.2;stroke-dasharray:none;stroke-opacity:1;stroke-linejoin:round;stroke-linecap:round"
           d="m 219.46466,409.57577 c 0,0 9.43225,-3.04927 12.04333,0 2.98173,3.48213 -5.0984,10.10694 -2.11667,13.58907 2.11002,2.46413 7.15848,1.97477 9.73227,0 1.89805,-1.4563 -0.0399,-5.47607 1.85815,-6.93237 1.78554,-1.36998 4.90725,-1.28963 6.75166,0 2.10551,1.47219 0.54032,5.76688 2.64583,7.23907 2.22498,1.55572 8.14477,0 8.14477,0"
           id="path48"
           sodipodi:nodetypes="cssssssc" />
        <path
           style="opacity:1;fill:none;fill-opacity:1;stroke:#f4f5f8;stroke-width:4.76250005;stroke-miterlimit:5.2;stroke-dasharray:none;stroke-opacity:1;stroke-linejoin:round;stroke-linecap:round"
           d="m 266.23139,408.23639 c 0,0 5.16028,-1.59138 6.75166,0 3.57715,3.57715 -3.57716,11.59942 0,15.17658 1.67029,1.67029 7.08644,0 7.08644,0"
           id="path49"
           sodipodi:nodetypes="cssc" />
        <path
           style="opacity:1;fill:none;stroke:#f4f5f8;stroke-width:4.76250005;stroke-miterlimit:5.2;stroke-dasharray:none;stroke-opacity:1;stroke-linejoin:round;stroke-linecap:round"
           d="m 358.53756,509.03903 c 17.16686,-4.21033 29.78526,-25.27927 31.79716,-35.64309 9.88015,28.08629 -3.73236,53.4377 -14.54752,69.88302 8.37157,1.73472 22.92705,-0.0641 27.63793,-3.19821 -4.79758,14.82807 -23.82837,30.07097 -46.27181,31.61858 m -3.77583,6.70047 c 23.64417,0 59.75054,-16.97974 59.75054,-57.41157 -5.29392,8.38914 -15.54148,16.44715 -25.79687,16.40465 13.00839,-21.61028 21.19102,-50.04298 0,-86.74691 0,19.10967 -10.89599,46.59233 -31.54414,52.12499"
           id="path50"
           sodipodi:nodetypes="cccccccccc" />
        <path
           style="opacity:1;fill:none;fill-opacity:1;stroke:#f4f5f8;stroke-width:4.76250005;stroke-miterlimit:5.2;stroke-dasharray:none;stroke-opacity:1;stroke-linejoin:round;stroke-linecap:round"
           d="m 382.19514,502.47955 c 0,0 3.04927,9.43225 0,12.04333 -3.48213,2.98173 -10.10694,-5.0984 -13.58907,-2.11667 -2.46413,2.11002 -1.97477,7.15848 0,9.73227 1.4563,1.89805 5.47607,-0.0399 6.93237,1.85815 1.36998,1.78554 1.28963,4.90725 0,6.75166 -1.47219,2.10551 -5.76688,0.54032 -7.23907,2.64583 -1.55572,2.22498 0,8.14477 0,8.14477"
           id="path51"
           sodipodi:nodetypes="cssssssc" />
        <path
           style="opacity:1;fill:none;fill-opacity:1;stroke:#f4f5f8;stroke-width:4.76250005;stroke-miterlimit:5.2;stroke-dasharray:none;stroke-opacity:1;stroke-linejoin:round;stroke-linecap:round"
           d="m 383.53452,549.24628 c 0,0 1.59138,5.16028 0,6.75166 -3.57715,3.57715 -11.59942,-3.57716 -15.17658,0 -1.67029,1.67029 0,7.08644 0,7.08644"
           id="path52"
           sodipodi:nodetypes="cssc" />
        <path
           style="opacity:1;fill:none;stroke:#f4f5f8;stroke-width:4.76250005;stroke-miterlimit:5.2;stroke-dasharray:none;stroke-opacity:1;stroke-linejoin:round;stroke-linecap:round"
           d="m 282.73188,641.55245 c 4.21033,17.16686 25.27927,29.78526 35.64309,31.79716 -28.08629,9.88015 -53.4377,-3.73236 -69.88302,-14.54752 -1.73472,8.37157 0.0641,22.92705 3.19821,27.63793 -14.82807,-4.79758 -30.07097,-23.82837 -31.61858,-46.27181 m -6.70047,-3.77583 c 0,23.64417 16.97974,59.75054 57.41157,59.75054 -8.38914,-5.29392 -16.44715,-15.54148 -16.40465,-25.79687 21.61028,13.00839 50.04298,21.19102 86.74691,0 -19.10967,0 -46.59233,-10.89599 -52.12499,-31.54414"
           id="path53"
           sodipodi:nodetypes="cccccccccc" />
        <path
           style="opacity:1;fill:none;fill-opacity:1;stroke:#f4f5f8;stroke-width:4.76250005;stroke-miterlimit:5.2;stroke-dasharray:none;stroke-opacity:1;stroke-linejoin:round;stroke-linecap:round"
           d="m 289.29136,665.21003 c 0,0 -9.43225,3.04927 -12.04333,0 -2.98173,-3.48213 5.0984,-10.10694 2.11667,-13.58907 -2.11002,-2.46413 -7.15848,-1.97477 -9.73227,0 -1.89805,1.4563 0.0399,5.47607 -1.85815,6.93237 -1.78554,1.36998 -4.90725,1.28963 -6.75166,0 -2.10551,-1.47219 -0.54032,-5.76688 -2.64583,-7.23907 -2.22498,-1.55572 -8.14477,0 -8.14477,0"
           id="path54"
           sodipodi:nodetypes="cssssssc" />
        <path
           style="opacity:1;fill:none;fill-opacity:1;stroke:#f4f5f8;stroke-width:4.76250005;stroke-miterlimit:5.2;stroke-dasharray:none;stroke-opacity:1;stroke-linejoin:round;stroke-linecap:round"
           d="m 242.52463,666.54941 c 0,0 -5.16028,1.59138 -6.75166,0 -3.57715,-3.57715 3.57716,-11.59942 0,-15.17658 -1.67029,-1.67029 -7.08644,0 -7.08644,0"
           id="path55"
           sodipodi:nodetypes="cssc" />
        <path
           style="opacity:1;fill:none;stroke:#f4f5f8;stroke-width:4.76250005;stroke-miterlimit:5.2;stroke-dasharray:none;stroke-opacity:1;stroke-linejoin:round;stroke-linecap:round"
           d="m 150.21846,565.74677 c -17.16686,4.21033 -29.78526,25.27927 -31.79716,35.64309 -9.88015,-28.08629 3.73236,-53.4377 14.54752,-69.88302 -8.37157,-1.73472 -22.92705,0.0641 -27.63793,3.19821 4.79758,-14.82807 23.82837,-30.07097 46.27181,-31.61858 m 3.77583,-6.70047 c -23.64417,0 -59.750543,16.97974 -59.750543,57.41157 5.293923,-8.38914 15.541483,-16.44715 25.796873,-16.40465 -13.00839,21.61028 -21.19102,50.04298 0,86.74691 0,-19.10967 10.89599,-46.59233 31.54414,-52.12499"
           id="path56"
           sodipodi:nodetypes="cccccccccc" />
        <path
           style="opacity:1;fill:none;fill-opacity:1;stroke:#f4f5f8;stroke-width:4.76250005;stroke-miterlimit:5.2;stroke-dasharray:none;stroke-opacity:1;stroke-linejoin:round;stroke-linecap:round"
           d="m 126.56088,572.30625 c 0,0 -3.04927,-9.43225 0,-12.04333 3.48213,-2.98173 10.10694,5.0984 13.58907,2.11667 2.46413,-2.11002 1.97477,-7.15848 0,-9.73227 -1.4563,-1.89805 -5.47607,0.0399 -6.93237,-1.85815 -1.36998,-1.78554 -1.28963,-4.90725 0,-6.75166 1.47219,-2.10551 5.76688,-0.54032 7.23907,-2.64583 1.55572,-2.22498 0,-8.14477 0,-8.14477"
           id="path57"
           sodipodi:nodetypes="cssssssc" />
        <path
           style="opacity:1;fill:none;fill-opacity:1;stroke:#f4f5f8;stroke-width:4.76250005;stroke-miterlimit:5.2;stroke-dasharray:none;stroke-opacity:1;stroke-linejoin:round;stroke-linecap:round"
           d="m 125.2215,525.53952 c 0,0 -1.59138,-5.16028 0,-6.75166 3.57715,-3.57715 11.59942,3.57716 15.17658,0 1.67029,-1.67029 0,-7.08644 0,-7.08644"
           id="path58"
           sodipodi:nodetypes="cssc" />
        <path
           style="opacity:1;fill:none;stroke:#f4f5f8;stroke-width:4.76250005;stroke-miterlimit:5.2;stroke-dasharray:none;stroke-opacity:1;stroke-linejoin:round;stroke-linecap:round"
           d="m 307.98072,443.69176 c 9.16165,-15.11595 3.18622,-38.9365 -2.71948,-47.68745 26.84632,12.87368 35.14698,40.42533 39.1281,59.7014 7.14623,-4.69296 16.16655,-16.25719 17.2815,-21.80444 7.09262,13.87743 4.41418,38.11259 -10.3614,55.07682 m 2.06803,7.40787 c 16.71895,-16.71896 30.24352,-54.25651 1.6539,-82.84613 2.18865,9.67539 0.64041,22.61938 -6.6413,29.84098 -6.08246,-24.47909 -20.40142,-50.37004 -61.33933,-61.33932 13.51258,13.51257 25.24112,40.65038 14.55286,59.163"
           id="path59"
           sodipodi:nodetypes="cccccccccc" />
        <path
           style="opacity:1;fill:none;fill-opacity:1;stroke:#f4f5f8;stroke-width:4.76250005;stroke-miterlimit:5.2;stroke-dasharray:none;stroke-opacity:1;stroke-linejoin:round;stroke-linecap:round"
           d="m 320.0709,422.32508 c 0,0 8.82577,4.51344 8.51592,8.51592 -0.35383,4.57064 -10.7518,3.54157 -11.10563,8.11221 -0.2504,3.23441 3.66543,6.45818 6.88175,6.88175 2.37188,0.31237 3.84395,-3.90038 6.21584,-3.58801 2.23129,0.29384 4.38185,2.55804 4.77414,4.77414 0.44783,2.52982 -3.69573,4.45987 -3.24791,6.98968 0.47324,2.67336 5.75922,5.75922 5.75922,5.75922"
           id="path60"
           sodipodi:nodetypes="cssssssc" />
        <path
           style="opacity:1;fill:none;fill-opacity:1;stroke:#f4f5f8;stroke-width:4.76250005;stroke-miterlimit:5.2;stroke-dasharray:none;stroke-opacity:1;stroke-linejoin:round;stroke-linecap:round"
           d="m 354.08706,454.44706 c 0,0 4.77414,2.5236 4.77414,4.77415 0,5.05885 -10.73146,5.67259 -10.73146,10.73146 0,2.36215 5.01087,5.01087 5.01087,5.01087"
           id="path61"
           sodipodi:nodetypes="cssc" />
        <path
           style="opacity:1;fill:none;stroke:#f4f5f8;stroke-width:4.76250005;stroke-miterlimit:5.2;stroke-dasharray:none;stroke-opacity:1;stroke-linejoin:round;stroke-linecap:round"
           d="m 348.07915,590.99561 c 15.11595,9.16165 38.9365,3.18622 47.68745,-2.71948 -12.87368,26.84633 -40.42533,35.14698 -59.7014,39.12811 4.69296,7.14622 16.2572,16.16654 21.80444,17.28149 -13.87743,7.09263 -38.11259,4.41418 -55.07682,-10.3614 m -7.40786,2.06803 c 16.71895,16.71896 54.2565,30.24353 82.84612,1.6539 -9.67539,2.18866 -22.61938,0.64041 -29.84098,-6.6413 24.47909,-6.08245 50.37004,-20.40141 61.33933,-61.33933 -13.51258,13.51258 -40.65039,25.24113 -59.16301,14.55286"
           id="path62"
           sodipodi:nodetypes="cccccccccc" />
        <path
           style="opacity:1;fill:none;fill-opacity:1;stroke:#f4f5f8;stroke-width:4.76250005;stroke-miterlimit:5.2;stroke-dasharray:none;stroke-opacity:1;stroke-linejoin:round;stroke-linecap:round"
           d="m 369.44583,603.08579 c 0,0 -4.51344,8.82577 -8.51592,8.51593 -4.57063,-0.35384 -3.54157,-10.7518 -8.11221,-11.10564 -3.23441,-0.25039 -6.45818,3.66544 -6.88175,6.88175 -0.31237,2.37189 3.90038,3.84396 3.58801,6.21584 -0.29384,2.23129 -2.55804,4.38186 -4.77414,4.77414 -2.52982,0.44783 -4.45986,-3.69573 -6.98968,-3.24791 -2.67336,0.47324 -5.75922,5.75923 -5.75922,5.75923"
           id="path63"
           sodipodi:nodetypes="cssssssc" />
        <path
           style="opacity:1;fill:none;fill-opacity:1;stroke:#f4f5f8;stroke-width:4.76250005;stroke-miterlimit:5.2;stroke-dasharray:none;stroke-opacity:1;stroke-linejoin:round;stroke-linecap:round"
           d="m 337.32385,637.10195 c 0,0 -2.5236,4.77415 -4.77415,4.77415 -5.05885,0 -5.67259,-10.73147 -10.73146,-10.73147 -2.36215,0 -5.01087,5.01087 -5.01087,5.01087"
           id="path64"
           sodipodi:nodetypes="cssc" />
        <path
           style="opacity:1;fill:none;stroke:#f4f5f8;stroke-width:4.76250005;stroke-miterlimit:5.2;stroke-dasharray:none;stroke-opacity:1;stroke-linejoin:round;stroke-linecap:round"
           d="m 200.7753,631.09404 c -9.16165,15.11596 -3.18622,38.9365 2.71948,47.68746 -26.84633,-12.87369 -35.14698,-40.42534 -39.12811,-59.70141 -7.14622,4.69296 -16.16654,16.2572 -17.28149,21.80444 -7.09262,-13.87743 -4.41418,-38.11258 10.3614,-55.07682 m -2.06803,-7.40786 c -16.71895,16.71895 -30.24352,54.2565 -1.6539,82.84612 -2.18865,-9.67538 -0.64041,-22.61938 6.6413,-29.84098 6.08245,24.4791 20.40142,50.37004 61.33933,61.33933 -13.51258,-13.51258 -25.24113,-40.65038 -14.55286,-59.16301"
           id="path65"
           sodipodi:nodetypes="cccccccccc" />
        <path
           style="opacity:1;fill:none;fill-opacity:1;stroke:#f4f5f8;stroke-width:4.76250005;stroke-miterlimit:5.2;stroke-dasharray:none;stroke-opacity:1;stroke-linejoin:round;stroke-linecap:round"
           d="m 188.68512,652.46073 c 0,0 -8.82577,-4.51345 -8.51592,-8.51592 0.35383,-4.57064 10.75179,-3.54157 11.10563,-8.11221 0.25039,-3.23442 -3.66544,-6.45819 -6.88175,-6.88176 -2.37189,-0.31236 -3.84396,3.90038 -6.21584,3.58802 -2.23129,-0.29385 -4.38186,-2.55805 -4.77414,-4.77415 -0.44783,-2.52981 3.69573,-4.45986 3.24791,-6.98968 -0.47324,-2.67336 -5.75922,-5.75922 -5.75922,-5.75922"
           id="path66"
           sodipodi:nodetypes="cssssssc" />
        <path
           style="opacity:1;fill:none;fill-opacity:1;stroke:#f4f5f8;stroke-width:4.76250005;stroke-miterlimit:5.2;stroke-dasharray:none;stroke-opacity:1;stroke-linejoin:round;stroke-linecap:round"
           d="m 154.66896,620.33874 c 0,0 -4.77415,-2.52359 -4.77415,-4.77414 0,-5.05886 10.73147,-5.6726 10.73147,-10.73147 0,-2.36214 -5.01087,-5.01087 -5.01087,-5.01087"
           id="path67"
           sodipodi:nodetypes="cssc" />
        <path
           style="opacity:1;fill:none;stroke:#f4f5f8;stroke-width:4.76250005;stroke-miterlimit:5.2;stroke-dasharray:none;stroke-opacity:1;stroke-linejoin:round;stroke-linecap:round"
           d="m 160.67687,483.79019 c -15.11596,-9.16165 -38.9365,-3.18621 -47.68746,2.71948 12.87369,-26.84632 40.42534,-35.14698 59.70141,-39.1281 -4.69296,-7.14623 -16.2572,-16.16655 -21.80444,-17.28149 13.87743,-7.09263 38.11259,-4.41419 55.07682,10.36139 m 7.40786,-2.06803 c -16.71895,-16.71895 -54.2565,-30.24352 -82.84612,-1.6539 9.67538,-2.18865 22.61938,-0.64041 29.84098,6.6413 -24.4791,6.08246 -50.37004,20.40142 -61.339328,61.33933 13.512578,-13.51258 40.650378,-25.24112 59.163008,-14.55286"
           id="path68"
           sodipodi:nodetypes="cccccccccc" />
        <path
           style="opacity:1;fill:none;fill-opacity:1;stroke:#f4f5f8;stroke-width:4.76250005;stroke-miterlimit:5.2;stroke-dasharray:none;stroke-opacity:1;stroke-linejoin:round;stroke-linecap:round"
           d="m 139.31018,471.70001 c 0,0 4.51345,-8.82577 8.51592,-8.51592 4.57064,0.35384 3.54158,10.7518 8.11222,11.10563 3.23441,0.2504 6.45818,-3.66543 6.88175,-6.88175 0.31236,-2.37188 -3.90038,-3.84395 -3.58802,-6.21584 0.29385,-2.23129 2.55805,-4.38185 4.77415,-4.77414 2.52981,-0.44783 4.45986,3.69574 6.98968,3.24791 2.67336,-0.47324 5.75922,-5.75922 5.75922,-5.75922"
           id="path69"
           sodipodi:nodetypes="cssssssc" />
        <path
           style="opacity:1;fill:none;fill-opacity:1;stroke:#f4f5f8;stroke-width:4.76250005;stroke-miterlimit:5.2;stroke-dasharray:none;stroke-opacity:1;stroke-linejoin:round;stroke-linecap:round"
           d="m 171.43217,437.68385 c 0,0 2.52359,-4.77414 4.77414,-4.77414 5.05886,0 5.6726,10.73146 10.73147,10.73146 2.36214,0 5.01087,-5.01087 5.01087,-5.01087"
           id="path70"
           sodipodi:nodetypes="cssc" />
      </g>
    </g>
  </g>
</svg>
