<?xml version="1.0" encoding="UTF-8" standalone="no"?>
<!-- Created with Inkscape (http://www.inkscape.org/) -->

<svg
   width="1836"
   height="1800"
   viewBox="0 0 485.775 476.25001"
   version="1.1"
   id="svg8"
   inkscape:export-filename="C:\Users\厂永刄先生\Documents\GXI3CW2\,pjóŭ\Cameroun.png"
   inkscape:export-xdpi="96"
   inkscape:export-ydpi="96"
   inkscape:version="1.3 (0e150ed6c4, 2023-07-21)"
   sodipodi:docname="cy_1960_hos.svg"
   xml:space="preserve"
   xmlns:inkscape="http://www.inkscape.org/namespaces/inkscape"
   xmlns:sodipodi="http://sodipodi.sourceforge.net/DTD/sodipodi-0.dtd"
   xmlns="http://www.w3.org/2000/svg"
   xmlns:svg="http://www.w3.org/2000/svg"
   xmlns:rdf="http://www.w3.org/1999/02/22-rdf-syntax-ns#"
   xmlns:cc="http://creativecommons.org/ns#"
   xmlns:dc="http://purl.org/dc/elements/1.1/"><defs
     id="defs2" /><sodipodi:namedview
     id="base"
     pagecolor="#ffffff"
     bordercolor="#666666"
     borderopacity="1.0"
     inkscape:pageopacity="0.0"
     inkscape:pageshadow="2"
     inkscape:zoom="0.15111112"
     inkscape:cx="1062.1323"
     inkscape:cy="1657.7205"
     inkscape:document-units="px"
     inkscape:current-layer="layer1"
     showgrid="false"
     units="px"
     fit-margin-top="0"
     fit-margin-left="0"
     fit-margin-right="0"
     fit-margin-bottom="0"
     inkscape:showpageshadow="false"
     inkscape:snap-intersection-paths="true"
     inkscape:object-paths="false"
     inkscape:pagecheckerboard="true"
     inkscape:snap-smooth-nodes="false"
     inkscape:window-width="1920"
     inkscape:window-height="1009"
     inkscape:window-x="-8"
     inkscape:window-y="-8"
     inkscape:window-maximized="1"
     inkscape:object-nodes="true"
     inkscape:snap-nodes="true"
     inkscape:deskcolor="#505050" /><metadata
     id="metadata5"><rdf:RDF><cc:Work
         rdf:about=""><dc:format>image/svg+xml</dc:format><dc:type
           rdf:resource="http://purl.org/dc/dcmitype/StillImage" /></cc:Work></rdf:RDF></metadata><g
     inkscape:label="レイヤー 1"
     inkscape:groupmode="layer"
     id="layer1"
     transform="translate(-125.79047,-418.33036)"><path
       style="fill:#ffffff;fill-opacity:1;stroke:none;stroke-width:0.511668px;stroke-linecap:butt;stroke-linejoin:miter;stroke-opacity:1"
       d="m 135.31547,418.33036 h -9.525 v 476.25 h 9.525 z"
       id="path1079"
       inkscape:connector-curvature="0"
       sodipodi:nodetypes="ccccc" /><path
       sodipodi:nodetypes="ccccc"
       inkscape:connector-curvature="0"
       id="path831"
       d="m 135.31547,894.58036 v -476.25 h 476.25 v 476.25 z"
       style="fill:#ffffff;fill-opacity:1;stroke:none;stroke-width:1.04444px;stroke-linecap:butt;stroke-linejoin:miter;stroke-opacity:1" /><g
       id="g1"
       transform="translate(0,1.1219684e-5)"><g
         id="g65"
         transform="matrix(1.1872216,0,0,1.1872216,-69.9077,-17.43328)"
         style="fill:#00a800;fill-opacity:1"><g
           id="g52"
           transform="matrix(0.11518482,-0.19950596,0.19950596,0.11518482,264.20327,734.64231)"
           style="fill:#00a800;fill-opacity:1"><path
             style="fill:#00a800;fill-opacity:1;stroke-width:6.22461;stroke-linecap:round;stroke-linejoin:round;stroke-miterlimit:3.9"
             d="m 421.93853,296.47498 c -0.003,-44.89197 6.45823,-132.75024 6.45823,-132.75024 0,0 6.46165,87.85827 6.45823,132.75024 -10e-4,17.93807 -2.25809,33.75085 -6.45823,40.22997 -4.20014,-6.47912 -6.45723,-22.2919 -6.45823,-40.22997 z"
             id="path41"
             sodipodi:nodetypes="scscs" /><path
             style="fill:#00a800;fill-opacity:1;stroke-width:7.937;stroke-linecap:round;stroke-linejoin:round;stroke-miterlimit:3.9"
             d="m 372.51199,170.10777 c -14.17617,-14.17617 -23.64417,-32.66145 -20.70892,-43.61594 10.95449,-2.93525 29.43977,6.53275 43.61594,20.70892 14.17617,14.17617 23.64417,32.66145 20.70892,43.61594 -10.95449,2.93525 -29.43977,-6.53275 -43.61594,-20.70892 z"
             id="path42"
             sodipodi:nodetypes="zczcz" /><path
             style="fill:#00a800;fill-opacity:1;stroke-width:7.937;stroke-linecap:round;stroke-linejoin:round;stroke-miterlimit:3.9"
             d="m 484.28154,170.10777 c 14.17617,-14.17617 23.64417,-32.66145 20.70892,-43.61594 -10.95449,-2.93525 -29.43977,6.53275 -43.61594,20.70892 -14.17617,14.17617 -23.64417,32.66145 -20.70892,43.61594 10.95449,2.93525 29.43977,-6.53275 43.61594,-20.70892 z"
             id="path43"
             sodipodi:nodetypes="zczcz" /><path
             style="fill:#00a800;fill-opacity:1;stroke-width:7.937;stroke-linecap:round;stroke-linejoin:round;stroke-miterlimit:3.9"
             d="M 376.1118,109.59686 C 362.56748,94.815831 353.91481,75.935165 357.32509,65.119141 c 11.0721,-2.454625 29.1268,7.810674 42.67112,22.591702 13.54432,14.781027 22.19699,33.661697 18.78671,44.477727 -11.0721,2.45463 -29.1268,-7.81068 -42.67112,-22.59171 z"
             id="path44"
             sodipodi:nodetypes="zczcz"
             inkscape:transform-center-x="11.420987"
             inkscape:transform-center-y="4.1375793" /><path
             style="fill:#00a800;fill-opacity:1;stroke-width:7.937;stroke-linecap:round;stroke-linejoin:round;stroke-miterlimit:3.9"
             d="m 482.48834,114.24136 c 14.78103,-13.54432 25.04634,-31.599006 22.59171,-42.671098 -10.81603,-3.410281 -29.69671,5.242385 -44.47774,18.7867 -14.78103,13.544308 -25.04634,31.599008 -22.59171,42.671108 10.81603,3.41028 29.6967,-5.24239 44.47774,-18.78671 z"
             id="path45"
             sodipodi:nodetypes="zczcz"
             inkscape:transform-center-x="1.0767941"
             inkscape:transform-center-y="-12.099552" /><path
             style="fill:#00a800;fill-opacity:1;stroke-width:7.937;stroke-linecap:round;stroke-linejoin:round;stroke-miterlimit:3.9"
             d="m 483.14126,58.234721 c 15.35776,-12.886691 26.40083,-30.476428 24.4315,-41.645052 -10.65698,-3.878823 -29.89711,3.942044 -45.25487,16.828728 -15.35776,12.886685 -26.40083,30.476432 -24.4315,41.645061 10.65698,3.878827 29.89712,-3.942046 45.25487,-16.828737 z"
             id="path46"
             sodipodi:nodetypes="zczcz"
             inkscape:transform-center-x="0.89760654"
             inkscape:transform-center-y="-11.635713" /><path
             style="fill:#00a800;fill-opacity:1;stroke-width:7.937;stroke-linecap:round;stroke-linejoin:round;stroke-miterlimit:3.9"
             d="m 388.55176,-10.666977 c -12.20453,-15.905252 -19.17872,-35.468202 -14.83874,-45.945842 11.2439,-1.480288 28.33522,10.319519 40.53975,26.224766 12.20453,15.905247 19.17871,35.4682039 14.83873,45.945849 -11.2439,1.480291 -28.33522,-10.3195217 -40.53974,-26.224773 z"
             id="path47"
             sodipodi:nodetypes="zczcz"
             inkscape:transform-center-x="1.6000638"
             inkscape:transform-center-y="10.137368" /><path
             style="fill:#00a800;fill-opacity:1;stroke-width:7.937;stroke-linecap:round;stroke-linejoin:round;stroke-miterlimit:3.9"
             d="m 488.8723,2.5404731 c 15.90526,-12.2045288 27.70506,-29.2958361 26.22478,-40.5397301 -10.47765,-4.339983 -30.04061,2.634199 -45.94585,14.838723 -15.90526,12.204523 -27.70508,29.2958367 -26.22479,40.539736 10.47765,4.339986 30.04061,-2.634199 45.94586,-14.8387289 z"
             id="path48"
             sodipodi:nodetypes="zczcz"
             inkscape:transform-center-x="-9.3778215"
             inkscape:transform-center-y="-4.1692897" /><path
             style="fill:#00a800;fill-opacity:1;stroke-width:7.937;stroke-linecap:round;stroke-linejoin:round;stroke-miterlimit:3.9"
             d="M 382.3401,49.415762 C 369.4534,34.058002 361.63253,14.817883 365.51136,4.1609076 c 11.16862,-1.9693308 28.75837,9.0737334 41.64506,24.4314864 12.8867,15.357754 20.70757,34.597883 16.82874,45.254864 -11.16862,1.969334 -28.75837,-9.073736 -41.64506,-24.431496 z"
             id="path49"
             sodipodi:nodetypes="zczcz"
             inkscape:transform-center-x="11.240996"
             inkscape:transform-center-y="3.1361771" /><path
             style="fill:#00a800;fill-opacity:1;stroke-width:7.937;stroke-linecap:round;stroke-linejoin:round;stroke-miterlimit:3.9"
             d="m 403.38719,-75.271538 c -6.85686,-18.83908 -7.62557,-39.593782 -0.33576,-48.281412 11.16863,1.96931 23.92063,18.36246 30.77751,37.201533 6.85687,18.839077 7.62556,39.593778 0.33575,48.281428 -11.16862,-1.969326 -23.92062,-18.362466 -30.7775,-37.201549 z"
             id="path50"
             sodipodi:nodetypes="zczcz"
             inkscape:transform-center-x="11.645226"
             inkscape:transform-center-y="-0.23908907" /><path
             style="fill:#00a800;fill-opacity:1;stroke-width:7.937;stroke-linecap:round;stroke-linejoin:round;stroke-miterlimit:3.9"
             d="m 493.4491,-59.391194 c 12.88669,-15.357762 20.70756,-34.597883 16.82873,-45.254866 -11.16863,-1.96933 -28.75837,9.073752 -41.64506,24.431497 -12.8867,15.357754 -20.70757,34.597883 -16.82874,45.254865 11.16863,1.969333 28.75837,-9.073737 41.64507,-24.431496 z"
             id="path51"
             sodipodi:nodetypes="zczcz"
             inkscape:transform-center-x="2.2576268"
             inkscape:transform-center-y="-11.426795" /><path
             style="fill:#00a800;fill-opacity:1;stroke-width:7.937;stroke-linecap:round;stroke-linejoin:round;stroke-miterlimit:3.9"
             d="m 477.72861,-128.94366 c 4.3392,-19.57292 2.39229,-40.25041 -5.96911,-47.9122 -10.81604,3.41026 -21.3192,21.32764 -25.65842,40.90053 -4.3392,19.57291 -2.39231,40.250389 5.9691,47.912199 10.81604,-3.410273 21.31921,-21.327639 25.65843,-40.900529 z"
             id="path52"
             sodipodi:nodetypes="zczcz"
             inkscape:transform-center-x="7.7253794"
             inkscape:transform-center-y="-7.0790076" /></g><g
           id="g64"
           transform="matrix(-0.11518482,-0.19950596,-0.19950596,0.11518482,482.66349,734.64231)"
           style="fill:#00a800;fill-opacity:1"><path
             style="fill:#00a800;fill-opacity:1;stroke-width:6.22461;stroke-linecap:round;stroke-linejoin:round;stroke-miterlimit:3.9"
             d="m 421.93853,296.47498 c -0.003,-44.89197 6.45823,-132.75024 6.45823,-132.75024 0,0 6.46165,87.85827 6.45823,132.75024 -10e-4,17.93807 -2.25809,33.75085 -6.45823,40.22997 -4.20014,-6.47912 -6.45723,-22.2919 -6.45823,-40.22997 z"
             id="path53"
             sodipodi:nodetypes="scscs" /><path
             style="fill:#00a800;fill-opacity:1;stroke-width:7.937;stroke-linecap:round;stroke-linejoin:round;stroke-miterlimit:3.9"
             d="m 372.51199,170.10777 c -14.17617,-14.17617 -23.64417,-32.66145 -20.70892,-43.61594 10.95449,-2.93525 29.43977,6.53275 43.61594,20.70892 14.17617,14.17617 23.64417,32.66145 20.70892,43.61594 -10.95449,2.93525 -29.43977,-6.53275 -43.61594,-20.70892 z"
             id="path54"
             sodipodi:nodetypes="zczcz" /><path
             style="fill:#00a800;fill-opacity:1;stroke-width:7.937;stroke-linecap:round;stroke-linejoin:round;stroke-miterlimit:3.9"
             d="m 484.28154,170.10777 c 14.17617,-14.17617 23.64417,-32.66145 20.70892,-43.61594 -10.95449,-2.93525 -29.43977,6.53275 -43.61594,20.70892 -14.17617,14.17617 -23.64417,32.66145 -20.70892,43.61594 10.95449,2.93525 29.43977,-6.53275 43.61594,-20.70892 z"
             id="path55"
             sodipodi:nodetypes="zczcz" /><path
             style="fill:#00a800;fill-opacity:1;stroke-width:7.937;stroke-linecap:round;stroke-linejoin:round;stroke-miterlimit:3.9"
             d="M 376.1118,109.59686 C 362.56748,94.815831 353.91481,75.935165 357.32509,65.119141 c 11.0721,-2.454625 29.1268,7.810674 42.67112,22.591702 13.54432,14.781027 22.19699,33.661697 18.78671,44.477727 -11.0721,2.45463 -29.1268,-7.81068 -42.67112,-22.59171 z"
             id="path56"
             sodipodi:nodetypes="zczcz"
             inkscape:transform-center-x="11.420987"
             inkscape:transform-center-y="4.1375793" /><path
             style="fill:#00a800;fill-opacity:1;stroke-width:7.937;stroke-linecap:round;stroke-linejoin:round;stroke-miterlimit:3.9"
             d="m 482.48834,114.24136 c 14.78103,-13.54432 25.04634,-31.599006 22.59171,-42.671098 -10.81603,-3.410281 -29.69671,5.242385 -44.47774,18.7867 -14.78103,13.544308 -25.04634,31.599008 -22.59171,42.671108 10.81603,3.41028 29.6967,-5.24239 44.47774,-18.78671 z"
             id="path57"
             sodipodi:nodetypes="zczcz"
             inkscape:transform-center-x="1.0767941"
             inkscape:transform-center-y="-12.099552" /><path
             style="fill:#00a800;fill-opacity:1;stroke-width:7.937;stroke-linecap:round;stroke-linejoin:round;stroke-miterlimit:3.9"
             d="m 483.14126,58.234721 c 15.35776,-12.886691 26.40083,-30.476428 24.4315,-41.645052 -10.65698,-3.878823 -29.89711,3.942044 -45.25487,16.828728 -15.35776,12.886685 -26.40083,30.476432 -24.4315,41.645061 10.65698,3.878827 29.89712,-3.942046 45.25487,-16.828737 z"
             id="path58"
             sodipodi:nodetypes="zczcz"
             inkscape:transform-center-x="0.89760654"
             inkscape:transform-center-y="-11.635713" /><path
             style="fill:#00a800;fill-opacity:1;stroke-width:7.937;stroke-linecap:round;stroke-linejoin:round;stroke-miterlimit:3.9"
             d="m 388.55176,-10.666977 c -12.20453,-15.905252 -19.17872,-35.468202 -14.83874,-45.945842 11.2439,-1.480288 28.33522,10.319519 40.53975,26.224766 12.20453,15.905247 19.17871,35.4682039 14.83873,45.945849 -11.2439,1.480291 -28.33522,-10.3195217 -40.53974,-26.224773 z"
             id="path59"
             sodipodi:nodetypes="zczcz"
             inkscape:transform-center-x="1.6000638"
             inkscape:transform-center-y="10.137368" /><path
             style="fill:#00a800;fill-opacity:1;stroke-width:7.937;stroke-linecap:round;stroke-linejoin:round;stroke-miterlimit:3.9"
             d="m 488.8723,2.5404731 c 15.90526,-12.2045288 27.70506,-29.2958361 26.22478,-40.5397301 -10.47765,-4.339983 -30.04061,2.634199 -45.94585,14.838723 -15.90526,12.204523 -27.70508,29.2958367 -26.22479,40.539736 10.47765,4.339986 30.04061,-2.634199 45.94586,-14.8387289 z"
             id="path60"
             sodipodi:nodetypes="zczcz"
             inkscape:transform-center-x="-9.3778215"
             inkscape:transform-center-y="-4.1692897" /><path
             style="fill:#00a800;fill-opacity:1;stroke-width:7.937;stroke-linecap:round;stroke-linejoin:round;stroke-miterlimit:3.9"
             d="M 382.3401,49.415762 C 369.4534,34.058002 361.63253,14.817883 365.51136,4.1609076 c 11.16862,-1.9693308 28.75837,9.0737334 41.64506,24.4314864 12.8867,15.357754 20.70757,34.597883 16.82874,45.254864 -11.16862,1.969334 -28.75837,-9.073736 -41.64506,-24.431496 z"
             id="path61"
             sodipodi:nodetypes="zczcz"
             inkscape:transform-center-x="11.240996"
             inkscape:transform-center-y="3.1361771" /><path
             style="fill:#00a800;fill-opacity:1;stroke-width:7.937;stroke-linecap:round;stroke-linejoin:round;stroke-miterlimit:3.9"
             d="m 403.38719,-75.271538 c -6.85686,-18.83908 -7.62557,-39.593782 -0.33576,-48.281412 11.16863,1.96931 23.92063,18.36246 30.77751,37.201533 6.85687,18.839077 7.62556,39.593778 0.33575,48.281428 -11.16862,-1.969326 -23.92062,-18.362466 -30.7775,-37.201549 z"
             id="path62"
             sodipodi:nodetypes="zczcz"
             inkscape:transform-center-x="11.645226"
             inkscape:transform-center-y="-0.23908907" /><path
             style="fill:#00a800;fill-opacity:1;stroke-width:7.937;stroke-linecap:round;stroke-linejoin:round;stroke-miterlimit:3.9"
             d="m 493.4491,-59.391194 c 12.88669,-15.357762 20.70756,-34.597883 16.82873,-45.254866 -11.16863,-1.96933 -28.75837,9.073752 -41.64506,24.431497 -12.8867,15.357754 -20.70757,34.597883 -16.82874,45.254865 11.16863,1.969333 28.75837,-9.073737 41.64507,-24.431496 z"
             id="path63"
             sodipodi:nodetypes="zczcz"
             inkscape:transform-center-x="2.2576268"
             inkscape:transform-center-y="-11.426795" /><path
             style="fill:#00a800;fill-opacity:1;stroke-width:7.937;stroke-linecap:round;stroke-linejoin:round;stroke-miterlimit:3.9"
             d="m 477.72861,-128.94366 c 4.3392,-19.57292 2.39229,-40.25041 -5.96911,-47.9122 -10.81604,3.41026 -21.3192,21.32764 -25.65842,40.90053 -4.3392,19.57291 -2.39231,40.250389 5.9691,47.912199 10.81604,-3.410273 21.31921,-21.327639 25.65843,-40.900529 z"
             id="path64"
             sodipodi:nodetypes="zczcz"
             inkscape:transform-center-x="7.7253794"
             inkscape:transform-center-y="-7.0790076" /></g></g><path
         style="fill:#ff8000;fill-opacity:1;stroke:none;stroke-width:0.14488;stroke-linecap:round;stroke-linejoin:round;stroke-miterlimit:3.9;stroke-dasharray:none;stroke-opacity:1"
         d="m 543.68902,516.02184 c 0.16183,-0.23507 -0.16847,-0.61947 -0.0101,-0.85369 0.39122,-0.56217 1.25976,-0.58818 1.93657,-0.71492 0.87841,-0.16447 1.85479,0.29264 2.68144,-0.0447 0.21802,-0.089 0.29898,-0.38252 0.51075,-0.48535 0.39283,-0.19073 1.05091,-0.54767 1.29813,-0.18992 0.41488,0.6002 -0.65375,1.31071 -1.08535,1.89922 -0.20371,0.27781 -0.60662,0.42951 -0.70218,0.75967 -0.1295,0.44687 0.37491,0.92212 0.25527,1.37165 -0.11821,0.44411 -0.8801,0.59601 -0.89381,1.05512 -0.0111,0.37686 0.60561,0.53787 0.68104,0.90741 0.0765,0.37623 -0.0423,0.81271 -0.27662,1.11842 -0.1575,0.20569 -0.54953,0.1569 -0.68103,0.37984 -0.1433,0.24287 0.16122,0.61259 0,0.84409 -0.15951,0.22897 -0.60511,0.0839 -0.78748,0.29544 -0.22597,0.26217 0.0826,0.83045 -0.21278,1.0129 -0.26715,0.16516 -0.60057,-0.21632 -0.91496,-0.23212 -1.09622,-0.055 -2.50542,-0.30853 -3.25614,0.48534 -0.22889,0.24204 0.19717,0.81376 -0.0856,0.99182 -0.36363,0.2293 -0.78244,-0.4272 -1.21304,-0.44315 -0.51608,-0.0191 -1.06651,0.12855 -1.48965,0.42204 -0.4599,0.31897 -0.45124,1.19413 -0.98978,1.35055 -0.20614,0.0599 -0.39868,-0.3065 -0.60008,-0.23251 -0.22174,0.0815 -0.15548,0.46626 -0.33301,0.62119 -0.36232,0.31613 -0.88928,0.3794 -1.35432,0.50734 -0.90398,0.24869 -1.90353,0.14064 -2.76895,0.49985 -1.55269,0.64448 -3.10871,1.55375 -4.13072,2.87986 -0.15226,0.19753 -0.0645,0.54097 -0.25578,0.70131 -0.23765,0.19887 -0.65777,-0.005 -0.91798,0.16415 -0.32385,0.20978 -0.54811,0.58425 -0.6471,0.95497 -0.10432,0.39055 0.38367,0.92829 0.0906,1.20867 -0.19626,0.18754 -0.58074,-0.23144 -0.81265,-0.0896 -0.70097,0.42889 -0.89532,1.48205 -0.85766,2.29794 0.0121,0.25335 0.44388,0.45878 0.3311,0.68639 -0.0634,0.12782 -0.32244,-0.0137 -0.42133,0.0896 -0.32546,0.33968 0.12316,1.07168 -0.22577,1.3877 -0.31922,0.28923 -0.93439,-0.14847 -1.2941,0.0896 -0.18659,0.12347 -0.13544,0.44674 -0.30099,0.59687 -0.35396,0.32108 -0.9921,0.19403 -1.33931,0.52226 -0.35426,0.3349 -0.25638,0.98431 -0.60188,1.32803 -0.24883,0.24748 -0.62243,0.34296 -0.963,0.43272 -0.51619,0.13602 -1.08958,-0.0212 -1.59519,0.1492 -0.39273,0.13232 -0.81597,0.31938 -1.05342,0.65653 -0.13806,0.19596 0,0.51822 -0.15055,0.70133 -0.30945,0.36582 -1.05494,0.1518 -1.33921,0.53717 -0.15448,0.20937 0.14621,0.61661 -0.0604,0.77592 -0.20896,0.1612 -0.55053,-0.26066 -0.78254,-0.13429 -0.28579,0.15566 -0.16394,0.64991 -0.37622,0.8953 -0.35688,0.41263 -1.00619,0.47531 -1.40426,0.84906 -0.40018,0.37558 -0.51388,0.99999 -0.93631,1.35055 -0.25085,0.20806 -0.71658,0.12847 -0.89392,0.40095 -0.14611,0.2246 0.11863,0.56187 0,0.80188 -0.31599,0.63927 -1.05946,0.99155 -1.70253,1.30835 -0.34208,0.16855 -0.81155,0.0548 -1.1066,0.29542 -0.37249,0.30378 -0.24722,1.00772 -0.63844,1.28724 -0.47047,0.33613 -1.16268,0.0873 -1.72388,0.23214 -1.68905,0.43611 -3.351,1.05267 -4.87338,1.8992 -0.89231,0.4961 -1.55763,1.33547 -2.44742,1.8359 -1.53084,0.86099 -3.51242,0.8824 -4.89473,1.96253 -0.19173,0.1498 -0.24702,0.42583 -0.42566,0.59085 -0.94336,0.87186 -2.42083,1.06792 -3.29864,2.00473 -0.16847,0.17976 -0.16504,0.48115 -0.34046,0.65417 -0.6322,0.62329 -1.70133,0.63372 -2.38347,1.20284 -1.21374,1.0126 -1.80898,2.59211 -2.85173,3.77731 -1.47405,1.67541 -3.72893,2.72521 -4.78829,4.68472 -0.24591,0.45472 -0.54449,1.06489 -0.29817,1.51936 0.10543,0.19447 0.58919,0.0341 0.61709,0.25323 0.0403,0.31405 -0.58427,0.30956 -0.76603,0.56976 -0.2736,0.39158 -0.40602,0.89531 -0.40431,1.37165 0,0.36719 0.3604,0.69021 0.31912,1.05512 -0.0624,0.55405 -0.45124,1.04396 -0.82997,1.45605 -0.34329,0.37357 -0.75284,0.78245 -1.25563,0.86521 -0.25467,0.0419 -0.4879,-0.23674 -0.74478,-0.21103 -0.39777,0.0398 -0.66754,0.49897 -1.0641,0.54866 -0.40461,0.0507 -0.78395,-0.27367 -1.19179,-0.27432 -1.36811,-0.002 -2.67429,1.23906 -4.00091,0.90739 -0.43875,-0.10969 -0.62938,-0.6624 -1.0215,-0.8863 -0.44127,-0.25199 -0.93873,-0.51485 -1.44717,-0.48534 -0.46251,0.0269 -0.79815,0.51826 -1.25563,0.59086 -0.63038,0.10008 -1.29288,-0.43372 -1.90011,-0.23809 -2.1004,0.67685 -3.72439,2.60198 -4.82957,4.49818 -0.50743,0.8705 -0.0937,2.12799 -0.69755,2.93584 -0.26867,0.35966 -0.88053,0.33226 -1.17044,0.67527 -0.58255,0.68899 -0.36927,1.83086 -0.93641,2.53229 -0.35336,0.4369 -1.14375,0.42233 -1.42582,0.9074 -1.68894,2.90344 -0.9063,6.7212 -0.46795,10.04471 0.26243,1.9897 0.48165,4.24373 1.83013,5.73983 0.32596,0.36155 0.98827,0.25469 1.34072,0.59086 1.04265,0.99446 0.66713,3.13654 1.91541,3.86172 0.57007,0.3312 1.43901,-0.48272 1.97916,-0.1055 1.09542,0.76503 0.5458,2.63315 1.14899,3.81952 1.21787,2.39559 2.21812,5.92121 4.87349,6.43622 0.20291,0.0393 0.32747,-0.34739 0.53199,-0.31654 1.39077,0.20984 1.60718,2.3985 2.80934,3.12313 0.29404,0.17725 0.71356,0.0643 1.00015,0.25323 1.15564,0.76159 1.7115,2.16764 2.51126,3.29197 0.81195,1.14151 1.11636,2.77668 2.31973,3.50298 0.29243,0.17651 0.80006,-0.15334 1.0215,0.10552 0.2299,0.26867 -0.15105,0.71355 -0.0634,1.05512 0.31338,1.22808 2.25266,1.98271 2.02166,3.22865 -0.0957,0.51334 -1.15091,0.43806 -1.25553,0.94959 -0.0685,0.33348 0.21398,0.71552 0.51075,0.8863 0.14722,0.0848 0.39937,-0.12767 0.51065,0 0.25799,0.29568 -0.30855,0.7946 -0.17009,1.16064 0.1148,0.30358 0.42466,0.56635 0.74468,0.63307 0.23947,0.0499 0.48951,-0.33066 0.70239,-0.21102 0.33069,0.18595 0.3031,0.72119 0.27662,1.09731 -0.0252,0.35573 -0.0795,0.83912 -0.40431,0.99181 -0.3021,0.14196 -0.77137,-0.0202 -0.95776,-0.29543 -0.18257,-0.26967 0.29535,-0.7216 0.0856,-0.97071 -0.20109,-0.23836 -0.64458,-0.19805 -0.93631,-0.0843 -0.346,0.13479 -0.38084,0.74819 -0.74487,0.82299 -0.28287,0.0581 -0.5896,-0.15003 -0.78738,-0.35873 -0.22919,-0.24178 -0.14168,-0.67865 -0.36181,-0.92852 -0.4742,-0.53816 -1.19391,-0.86451 -1.89407,-1.034 -0.56533,-0.13684 -1.18494,0.19832 -1.74514,0.0422 -1.21051,-0.33735 -1.91441,-1.98204 -3.17084,-2.02583 -0.41247,-0.0143 -0.67721,0.5301 -1.08545,0.59086 -0.83098,0.12374 -1.64242,-0.65784 -2.46886,-0.50646 -0.20704,0.038 -0.32204,0.35379 -0.532,0.33765 -0.24551,-0.0189 -0.33866,-0.36572 -0.55335,-0.48536 -0.35597,-0.19839 -0.7621,-0.35439 -1.17044,-0.35874 -0.46483,-0.005 -0.9927,0.0744 -1.34062,0.37983 -0.29998,0.2632 -0.0755,1.02132 -0.46825,1.09733 -0.20674,0.04 -0.24048,-0.40145 -0.44691,-0.44314 -0.42727,-0.0862 -0.79432,0.36476 -1.21303,0.48535 -1.884,0.54258 -4.62274,-0.5094 -5.78865,1.05511 -0.25457,0.34173 0.27864,0.86117 0.14893,1.26614 -0.27964,0.87357 -1.12925,1.47483 -1.85137,2.04693 -0.77408,0.61324 -1.64352,1.16557 -2.59635,1.43496 -0.58053,0.16413 -1.237,0.27576 -1.80898,0.0843 -1.68431,-0.56344 -2.57278,-2.47285 -4.086,-3.39748 -1.32834,-0.81159 -2.79332,-1.42992 -4.29889,-1.83589 -0.55194,-0.14881 -1.16369,-0.0211 -1.70254,-0.21102 -0.37823,-0.13334 -0.62394,-0.57696 -1.0214,-0.63308 -0.38689,-0.0546 -0.73723,0.31438 -1.12794,0.31654 -0.78647,0.004 -1.51161,-0.7905 -2.27724,-0.61196 -0.33261,0.0775 -0.42827,0.62462 -0.76612,0.67527 -0.59323,0.089 -1.05886,-0.89184 -1.6387,-0.73858 -0.27007,0.0714 -0.23302,0.56489 -0.4894,0.67527 -0.76119,0.3276 -1.64091,-0.37366 -2.46866,-0.31654 -1.44555,0.0998 -2.8757,0.53971 -4.19245,1.13952 -0.93329,0.42514 -1.80374,1.01363 -2.55376,1.70929 -0.91194,0.84581 -1.82478,1.78757 -2.29848,2.93324 -0.39011,0.94372 -0.18549,2.03386 -0.36171,3.03873 -0.17834,1.01705 -0.67368,1.9857 -0.70228,3.01764 -0.0242,0.86351 0.47077,1.68985 0.4469,2.55336 -0.0282,1.03192 -0.80459,1.99033 -0.70228,3.01763 0.0393,0.39163 0.43734,0.68612 0.4894,1.07623 0.0644,0.48034 -0.0101,1.00431 -0.23402,1.43496 -0.35638,0.68522 -1.14043,1.05133 -1.66004,1.62488 -0.5026,0.55493 -0.99019,1.12896 -1.40457,1.75149 -0.50179,0.75386 -1.00156,1.53052 -1.29823,2.38457 -0.23433,0.67461 0.26495,1.75963 -0.36161,2.11023 -0.84326,0.47175 -1.75007,-0.88418 -2.70279,-1.05512 -1.22874,-0.22046 -2.54328,-0.27112 -3.74564,0.0633 -0.78365,0.218 -1.53921,0.64554 -2.10675,1.22393 -0.45174,0.46023 -0.4893,1.22356 -0.93641,1.6882 -1.27497,1.32488 -3.60728,1.41172 -4.72455,2.8699 -0.31247,0.40775 -0.0262,1.15268 -0.42566,1.47717 -1.16721,0.94794 -3.04104,0.0242 -4.51157,0.35874 -1.86959,0.42517 -3.93465,0.79862 -5.36288,2.06803 -0.57188,0.50817 -0.44248,1.57888 -1.0641,2.02582 -0.91395,0.65711 -2.31389,0.0847 -3.34133,0.54866 -0.963,0.4348 -1.73839,1.22578 -2.44742,2.00473 -0.22275,0.24477 -0.25578,0.67574 -0.55324,0.82298 -1.00439,0.49716 -2.27865,-0.48025 -3.36248,-0.18992 -0.55838,0.14958 -1.01234,0.57128 -1.44716,0.9496 -0.3741,0.32562 -0.50713,0.96075 -0.97891,1.11843 -1.57938,0.52793 -3.2368,-1.18261 -4.89473,-1.01291 -0.84689,0.0867 -1.80394,0.35785 -2.34098,1.01291 -0.41599,0.50739 0.0786,1.47493 -0.40431,1.92031 -0.97477,0.89915 -2.62807,0.47717 -3.95832,0.52756 -2.2295,0.0843 -4.46736,-0.11525 -6.68246,-0.37984 -2.13414,-0.25493 -4.23313,-1.57486 -6.34189,-1.16063 -0.53855,0.10578 -0.86783,0.69913 -1.38332,0.8863 -0.83289,0.30238 -1.78491,0.0999 -2.63885,0.33763 -2.61709,0.72884 -5.10771,1.92174 -7.44848,3.29196 -1.94513,1.13856 -3.88209,2.39815 -5.40558,4.05165 -0.98656,1.07065 -1.82187,2.32931 -2.31963,3.69291 -0.56312,1.54243 -0.88405,3.24665 -0.68104,4.87463 0.15115,1.21208 0.68285,2.39296 1.38322,3.39748 0.48829,0.70014 1.48895,0.97991 1.89407,1.73039 0.12879,0.23858 -0.0131,0.57006 0.12779,0.8019 0.21952,0.36156 0.94406,0.34467 1.0215,0.75968 0.0947,0.50663 -0.35467,1.10016 -0.82997,1.30834 -0.95595,0.41869 -2.13615,-0.11641 -3.08576,-0.54866 -0.35748,-0.16269 -0.55213,-0.58859 -0.91516,-0.73858 -1.17225,-0.48427 -2.53905,-0.62809 -3.78814,-0.40095 -0.57107,0.10385 -0.97789,0.70607 -1.5536,0.7808 -0.8484,0.11012 -1.67273,-0.69695 -2.51116,-0.52757 -0.59393,0.11998 -0.91073,1.21201 -1.48965,1.03401 -0.28952,-0.089 -0.388,-0.55142 -0.31922,-0.84408 0.11036,-0.47012 0.89824,-0.53801 1.0641,-0.99181 0.26051,-0.71282 -0.10705,-1.51868 -0.27673,-2.25795 -0.30421,-1.32523 -0.77388,-2.61491 -1.31947,-3.86173 -0.71115,-1.62538 -1.18182,-3.52478 -2.53251,-4.68471 -0.43935,-0.37733 -1.18645,-0.22884 -1.63869,-0.59087 -0.91265,-0.73067 -1.01738,-2.1583 -1.87272,-2.95433 -0.54157,-0.50406 -1.21505,-1.05512 -1.95792,-1.05512 -0.37138,0 -0.60812,0.50673 -0.979,0.52757 -0.64176,0.0361 -1.17769,-0.91898 -1.78763,-0.71748 -0.45587,0.15061 -0.28438,1.0877 -0.74488,1.22392 -0.58074,0.17181 -1.03862,-0.69677 -1.63859,-0.78078 -0.50582,-0.0708 -1.11083,-0.0615 -1.51101,0.25323 -0.1868,0.14694 -0.0785,0.52238 -0.27662,0.65417 -0.67731,0.4509 -1.64151,0.14722 -2.44742,0.0211 -0.48749,-0.0763 -0.91325,-0.51009 -1.40456,-0.46425 -0.89805,0.0838 -1.46891,1.18577 -2.36233,1.30834 -0.48396,0.0664 -0.94184,-0.40477 -1.42571,-0.33763 -0.25799,0.0358 -0.55768,0.15241 -0.68103,0.37984 -0.14149,0.26083 0.22788,0.63874 0.0634,0.88629 -0.40029,0.60432 -1.3378,0.6558 -2.06436,0.71748 -1.02482,0.087 -2.11732,-0.95061 -3.04325,-0.50646 -0.5031,0.2413 -0.33171,1.16754 -0.80873,1.45607 -0.6482,0.39209 -1.54484,0.26283 -2.27703,0.0633 -1.12532,-0.30664 -1.85147,-1.48986 -2.95816,-1.85701 -0.91124,-0.30228 -1.95923,0.0622 -2.87308,-0.23213 -1.08988,-0.35103 -1.85671,-1.39237 -2.93672,-1.77259 -0.89059,-0.31353 -1.93837,-0.0158 -2.80923,-0.37983 -1.65803,-0.69311 -2.55899,-2.69991 -4.25629,-3.29198 -0.47511,-0.16574 -1.04577,0.1704 -1.51101,-0.0211 -0.74125,-0.30516 -1.03127,-1.26468 -1.72378,-1.66708 -0.84246,-0.48953 -1.83345,-0.85829 -2.80923,-0.82299 -0.58316,0.0211 -1.07226,0.75235 -1.6385,0.61195 -0.75102,-0.18619 -0.85867,-1.35229 -1.53235,-1.73038 -0.41408,-0.23243 -0.93842,-0.34795 -1.40456,-0.25323 -0.49153,0.0999 -0.75707,0.76707 -1.25563,0.82299 -0.96361,0.1081 -2.01321,-0.35891 -2.72414,-1.01291 -0.54429,-0.50086 -0.46997,-1.43153 -0.93621,-2.00472 -0.7759,-0.95373 -1.79972,-1.78921 -2.95817,-2.21575 -0.72645,-0.26744 -1.64927,0.23742 -2.31973,-0.14771 -1.04527,-0.60048 -0.93862,-2.42533 -2.00051,-2.99654 -0.77307,-0.41593 -2.17049,0.71727 -2.63884,-0.0211 -0.42576,-0.67123 0.91345,-1.36675 1.0216,-2.15243 0.13715,-0.99684 6e-4,-2.10649 -0.51085,-2.97543 -0.27189,-0.46208 -1.01728,-0.53291 -1.25553,-1.01292 -0.69886,-1.40789 0.51699,-3.2728 -0.12779,-4.70581 -0.15125,-0.33625 -0.72041,-0.40204 -0.80862,-0.75968 -0.14984,-0.60718 0.6906,-1.15178 0.61709,-1.7726 -0.10483,-0.8857 -0.64801,-1.84874 -1.44716,-2.25796 -0.49223,-0.2521 -1.24174,0.44479 -1.65994,0.0843 -0.24189,-0.20847 0.18528,-0.77901 -0.0846,-0.94961 -0.28025,-0.17681 -0.64237,0.49072 -0.93641,0.33763 -0.29868,-0.15542 0.0443,-0.81718 -0.25538,-0.9707 -0.24923,-0.12774 -0.51025,0.33965 -0.78737,0.29543 -0.71205,-0.11363 -1.31867,-0.73228 -1.68119,-1.35055 -0.32889,-0.56084 -0.0735,-1.31897 -0.31932,-1.9203 -0.49545,-1.21361 -1.31625,-2.30868 -2.25579,-3.22866 -0.52364,-0.5127 -1.90021,-0.49759 -1.83022,-1.22394 0.0443,-0.46432 0.9204,-0.27068 1.29813,-0.54865 0.36393,-0.26784 0.71265,-0.61352 0.87256,-1.03402 0.30553,-0.80319 0.44147,-1.80204 0.0634,-2.57448 -0.17018,-0.34814 -0.74719,-0.35806 -0.93641,-0.69638 -0.24168,-0.43218 0.0403,-1.01206 -0.12769,-1.47716 -0.20683,-0.57111 -0.4325,-1.45377 -1.04285,-1.49826 -0.1451,-0.0106 -0.15356,0.29758 -0.29787,0.31652 -0.37269,0.049 -0.77509,-0.26496 -0.95766,-0.59086 -0.29968,-0.53496 -0.52635,-1.51648 0,-1.8359 0.30573,-0.18556 0.60038,0.5148 0.95766,0.48536 0.2729,-0.0224 0.54167,-0.2404 0.65979,-0.48536 0.15004,-0.31122 0.0896,-0.71505 -0.0423,-1.03402 -0.12809,-0.30845 -0.6322,-0.40852 -0.68104,-0.73858 -0.0977,-0.65678 0.87267,-1.12987 0.87257,-1.79369 -1e-4,-0.45304 -0.58235,-0.7711 -0.59584,-1.22394 -0.0111,-0.38779 0.43754,-0.68836 0.4469,-1.07622 0.0121,-0.52271 -0.0826,-1.20312 -0.5321,-1.47716 -0.14611,-0.0892 -0.35658,0.1381 -0.51075,0.0633 -0.7485,-0.36331 -0.53653,-1.752 -1.27678,-2.13134 -0.23402,-0.11986 -0.56462,0.20246 -0.78747,0.0633 -0.6042,-0.37735 -0.38951,-1.38208 -0.76613,-1.98362 -0.331,-0.52866 -1.16006,-0.76029 -1.27687,-1.37165 -0.0514,-0.26696 0.33462,-0.49043 0.29786,-0.75969 -0.0463,-0.33879 -0.53341,-0.49135 -0.61708,-0.82299 -0.10453,-0.41399 0.24782,-0.84305 0.19153,-1.26614 -0.0554,-0.41847 -0.41176,-0.7501 -0.51085,-1.16062 -0.14209,-0.58933 -0.22577,-1.22053 -0.10634,-1.8148 0.1017,-0.506 0.54821,-0.89392 0.68103,-1.39276 0.13977,-0.52478 -0.0101,-1.09456 0.10633,-1.62488 0.12297,-0.55906 0.33765,-1.1032 0.61719,-1.60377 0.21098,-0.37786 0.37793,-0.88699 0.78749,-1.03402 0.20542,-0.0738 0.45707,0.0269 0.63844,0.14772 0.57015,0.37992 0.66602,1.22864 1.19167,1.66708 0.25256,0.21062 0.74448,0.13027 0.89382,0.42204 0.12094,0.2362 -0.19032,0.5191 -0.14894,0.78079 0.0574,0.36383 0.28901,0.69222 0.532,0.97071 0.62011,0.71066 1.42611,1.2747 2.27713,1.68818 0.38328,0.18621 0.86854,0.11963 1.23438,0.33764 1.23872,0.73821 1.8113,2.27942 2.97942,3.12315 1.15665,0.83544 2.44862,1.70172 3.87323,1.83589 0.44529,0.0419 0.85091,-0.34693 1.29812,-0.33762 0.48237,0.0101 0.90157,0.4466 1.38333,0.42204 0.76189,-0.0389 1.35823,-0.74078 2.10685,-0.8863 0.49433,-0.096 1.02441,0.15032 1.51099,0.0211 1.57938,-0.41944 2.89976,-1.52516 4.21371,-2.49008 1.009,-0.74089 1.96253,-1.57318 2.78787,-2.51117 1.04658,-1.18929 1.89447,-2.54415 2.70279,-3.90393 1.01486,-1.7073 2.38428,-3.35799 2.68146,-5.31779 0.0383,-0.25386 -0.16163,-0.50518 -0.1277,-0.75968 0.0826,-0.62098 0.24259,-1.39225 0.78748,-1.7093 0.22708,-0.13215 0.53512,0.1381 0.78738,0.0633 0.74095,-0.21962 1.55884,-0.69573 1.83012,-1.41385 0.0916,-0.24157 -0.21843,-0.51107 -0.14893,-0.75968 0.1019,-0.36479 0.61246,-0.49756 0.76612,-0.8441 0.20936,-0.47221 -0.0725,-1.07387 0.14894,-1.54047 0.0987,-0.20695 0.26907,-0.41773 0.4895,-0.48535 0.22064,-0.0677 0.51418,-0.0317 0.68104,0.12661 0.1579,0.14983 0,0.47254 0.14893,0.63307 0.28175,0.30819 0.77236,0.39934 1.19189,0.40095 0.92644,0.004 1.93828,-0.26411 2.63895,-0.86519 0.17985,-0.15438 0.11842,-0.50634 0.31912,-0.63307 0.66442,-0.41958 1.60425,0.14947 2.36222,-0.0633 0.44952,-0.1262 0.94578,-0.31639 1.21303,-0.69637 0.18952,-0.26936 0.0101,-0.68575 0.17029,-0.97071 0.24027,-0.41572 0.62353,-0.93754 1.10669,-0.9285 0.44177,0.008 0.55365,0.7671 0.97891,0.8863 0.47258,0.13251 1.11878,0.0878 1.44716,-0.27433 0.17139,-0.18893 -0.13554,-0.60008 0.0634,-0.75968 0.81265,-0.65052 2.07432,0.55588 3.107,0.40094 0.18519,-0.0278 0.32748,-0.26998 0.51085,-0.23213 0.44752,0.0924 0.52435,0.77757 0.91507,1.01292 0.90136,0.54298 2.00987,0.77945 3.0645,0.78078 0.4319,5.5e-4 0.82453,-0.34004 1.25573,-0.31654 1.08918,0.0594 1.97826,1.03769 3.06441,1.13952 0.45859,0.043 0.93309,-0.39877 1.36207,-0.23211 0.39102,0.15194 0.43039,0.74156 0.76612,0.99181 1.63739,1.22058 4.10484,0.97242 5.72471,2.21574 0.49816,0.3824 0.58899,1.16315 1.10659,1.51937 0.7917,0.54489 1.91401,0.35678 2.78788,0.75968 0.62455,0.28792 1.02201,1.05656 1.70264,1.16064 0.69634,0.10647 1.42924,-0.23374 2.02166,-0.61199 0.27038,-0.17266 0.34651,-0.58348 0.63844,-0.71748 0.33482,-0.15368 0.76753,0.12306 1.10659,-0.0211 0.85293,-0.36259 1.10408,-1.60228 1.95791,-1.96252 0.47662,-0.20105 1.06934,0.16085 1.5536,-0.0211 1.06783,-0.40115 1.90102,-1.3176 2.59625,-2.21573 1.20367,-1.55478 1.88702,-3.45925 2.57511,-5.29668 0.88706,-2.36895 1.45955,-4.84865 1.97926,-7.32252 0.55586,-2.64606 1.31373,-5.31786 1.21303,-8.01888 -0.0483,-1.30454 -0.72615,-2.52218 -0.87256,-3.81951 -0.16163,-1.43307 0.95443,-3.23796 0,-4.32599 -0.23504,-0.26795 -0.78234,0.0716 -1.064,-0.14772 -0.49837,-0.38805 -0.61266,-1.12952 -0.70239,-1.75148 -0.0957,-0.66449 0.22457,-1.33429 0.19154,-2.00473 -0.0383,-0.77298 -0.51911,-1.50846 -0.44691,-2.27905 0.0373,-0.39929 0.41931,-0.71836 0.44691,-1.11842 0.0554,-0.79487 -1.21858,-1.84486 -0.5746,-2.32126 1.35069,-0.99911 2.77832,1.96346 4.36283,2.53228 0.73018,0.26219 1.63245,-0.0168 2.29828,0.37984 0.4597,0.27385 0.6043,0.88558 0.97891,1.26614 0.65546,0.66586 1.32199,1.40289 2.19204,1.7515 1.32078,0.5292 2.84881,0.59774 4.25629,0.37983 0.34238,-0.053 0.61216,-0.42741 0.95766,-0.40094 1.08937,0.0835 1.7686,1.31916 2.78788,1.70929 1.52782,0.58472 3.1936,0.92019 4.83089,0.8863 0.76391,-0.0158 1.60133,-0.0825 2.23453,-0.50645 0.65898,-0.44112 0.58407,-1.77924 1.36208,-1.94142 0.43935,-0.0916 0.72856,0.54088 1.14918,0.69639 0.72776,0.26903 1.55764,0.14809 2.29838,0.37982 0.8624,0.2698 1.58986,0.87608 2.44741,1.16064 1.11879,0.37123 2.316,0.94456 3.46893,0.69637 0.34248,-0.0737 0.52898,-0.47549 0.85122,-0.61197 0.29183,-0.12353 0.68919,0.0285 0.93631,-0.16882 0.2155,-0.17205 0.0775,-0.62574 0.31921,-0.75968 0.87741,-0.48669 2.12658,-0.0635 2.97941,0.46425 0.22043,0.13639 0.24339,0.47306 0.44691,0.63307 0.86824,0.68241 1.97997,1.15914 3.08595,1.22394 0.49122,0.0288 1.05343,-0.0607 1.42573,-0.37984 0.25729,-0.22048 0.0826,-0.81939 0.4044,-0.9285 0.82011,-0.27821 1.41433,1.1628 2.27713,1.24504 0.94235,0.0899 1.83214,-1.23384 2.70279,-0.8652 0.23927,0.1013 0.15026,0.52041 0.34047,0.69637 0.70994,0.65664 1.73275,1.11557 2.70269,1.07622 0.49132,-0.02 0.82775,-0.65126 1.31948,-0.65417 0.79633,-0.005 1.37466,0.85153 2.14945,1.03402 0.93871,0.22108 1.93535,-0.0639 2.89431,0.0422 0.54751,0.0606 1.15132,0.6291 1.61735,0.33763 0.20371,-0.12742 -0.0393,-0.57923 0.17019,-0.69637 0.83681,-0.46699 1.78913,0.77916 2.74538,0.86519 0.72645,0.0653 1.46297,-0.44903 2.17079,-0.27433 0.2865,0.0707 0.44127,0.42061 0.72353,0.50647 0.69866,0.21251 1.47264,0.0852 2.19194,-0.0422 0.87236,-0.15464 1.6255,-0.83696 2.51126,-0.86519 0.95645,-0.0305 1.81915,0.6269 2.76663,0.75968 0.6603,0.0926 1.35372,0.18234 2.00041,0.0211 0.69896,-0.17426 1.19229,-0.87099 1.89397,-1.03401 0.64297,-0.14937 1.33056,0.20692 1.97927,0.0843 1.19792,-0.22623 2.17714,-1.83719 3.34123,-1.47717 0.18236,0.0565 0.12608,0.40269 0.29797,0.48535 1.27285,0.61241 2.84921,-0.13532 4.2137,-0.50645 0.81476,-0.22162 1.48875,-0.86093 2.31963,-1.0129 0.27944,-0.0511 0.59886,0.17156 0.85132,0.0422 0.24651,-0.12633 0.22587,-0.53009 0.4469,-0.69638 0.44872,-0.33756 1.11163,-0.73125 1.61735,-0.48535 0.23181,0.11274 0.0806,0.55111 0.27662,0.71748 0.18187,0.1542 0.46342,0.16239 0.70228,0.14772 1.01879,-0.0626 1.91753,-1.28562 2.89433,-0.99181 0.24711,0.0743 0.23231,0.50792 0.46825,0.61196 0.30573,0.13483 0.70148,0.0652 1.00016,-0.0844 0.41287,-0.20674 0.53411,-0.77423 0.91516,-1.034 0.28669,-0.19543 0.63793,-0.42713 0.9789,-0.35875 0.15257,0.0306 0.18872,0.28315 0.34057,0.31654 0.88908,0.19545 1.78461,-0.43437 2.59625,-0.84409 1.09139,-0.55092 2.23202,-1.16946 2.97942,-2.13134 0.24128,-0.31043 0.12607,-0.84171 0.42566,-1.09732 0.47359,-0.40408 1.44726,0.0885 1.83022,-0.40094 0.13061,-0.16683 -0.16948,-0.48129 -0.0211,-0.63308 0.2022,-0.20732 0.62675,0.15415 0.87246,0 0.39162,-0.2455 0.21177,-0.98822 0.59594,-1.24503 0.30049,-0.2009 0.73733,0.0369 1.08535,-0.0633 0.85686,-0.24668 1.4811,-1.05092 2.34098,-1.28725 0.39675,-0.10904 0.86209,0.13223 1.23438,-0.0422 0.35899,-0.16824 0.41156,-0.75916 0.78737,-0.8863 1.02573,-0.34702 2.11672,0.74535 3.1922,0.61198 0.39676,-0.0493 0.68868,-0.45627 1.08534,-0.50646 0.72323,-0.0916 1.42058,0.38633 2.14945,0.40095 0.83158,0.0167 1.63718,-0.37402 2.46866,-0.35875 0.46886,0.009 0.91557,0.28556 1.38322,0.25323 1.49942,-0.10364 2.97075,-0.67774 4.27764,-1.41385 0.47238,-0.26606 0.71235,-0.90598 1.23438,-1.05512 0.45506,-0.13001 0.95111,0.34623 1.40457,0.21102 0.28377,-0.0845 0.38034,-0.493 0.65978,-0.59086 0.36162,-0.12671 0.77449,0.1453 1.14909,0.0633 0.35326,-0.0773 0.72917,-0.22828 0.95766,-0.50645 0.1587,-0.1933 0,-0.58007 0.21278,-0.71748 0.50662,-0.33185 1.22602,0.3793 1.80898,0.21102 0.4745,-0.13696 0.66633,-0.82484 1.14929,-0.9285 0.13614,-0.0293 0.27058,0.1444 0.40431,0.10551 0.45285,-0.13171 0.50954,-0.88715 0.95766,-1.03402 0.50068,-0.16408 1.02653,0.31222 1.5536,0.29544 0.59312,-0.0189 1.23519,-0.10867 1.72368,-0.44314 0.29314,-0.20076 0.37289,-0.60814 0.61719,-0.86521 0.28045,-0.29497 0.57853,-0.60818 0.95766,-0.75967 0.93822,-0.37487 2.07503,0.0784 3.02201,-0.27434 1.07457,-0.4003 1.66639,-1.76185 2.78778,-2.00472 0.24743,-0.0536 0.52224,0.26731 0.74488,0.14771 0.20161,-0.10825 0.0644,-0.50719 0.25538,-0.63307 0.3604,-0.23765 0.91939,0.22855 1.29823,0.0211 0.64649,-0.35397 0.42455,-1.73698 1.14919,-1.87812 0.23392,-0.0455 0.33674,0.40638 0.57459,0.42206 0.61467,0.0404 1.1506,-0.48775 1.61745,-0.8863 0.52142,-0.44525 0.58939,-1.45411 1.25563,-1.62488 0.29223,-0.0749 0.52998,0.32604 0.82987,0.35874 0.51719,0.0565 1.10427,-0.002 1.53225,-0.29544 0.23322,-0.15983 0.20794,-0.56629 0.44701,-0.71747 0.60822,-0.3848 1.468,-0.0181 2.14944,-0.25323 0.51125,-0.17648 0.98636,-0.47904 1.38332,-0.8441 0.81567,-0.7501 1.56256,-1.64888 1.95791,-2.67999 0.0755,-0.19823 -0.0433,-0.44973 0.0634,-0.63307 0.27109,-0.46232 0.99935,-0.49808 1.31937,-0.9285 0.28358,-0.38135 0.1433,-0.98474 0.44701,-1.35055 0.5167,-0.62245 1.61694,-0.55482 2.1281,-1.18173 0.31741,-0.38929 0.42656,-0.93475 0.44691,-1.43496 0.0111,-0.25919 -0.28025,-0.52437 -0.17019,-0.75969 0.13484,-0.28827 0.53865,-0.3729 0.85122,-0.44313 0.36695,-0.0825 0.78959,-0.12095 1.12794,0.0422 0.38478,0.18553 0.43311,0.81248 0.82997,0.97071 0.57571,0.22949 1.32622,0.13746 1.85148,-0.18992 0.27501,-0.1714 0.18589,-0.81865 0.51075,-0.82298 0.41508,-0.006 0.26675,1.0069 0.68103,1.034 0.46675,0.0306 0.45225,-1.12262 0.91506,-1.05512 0.27653,0.0404 0.0926,0.63181 0.34057,0.75969 0.5899,0.30432 1.38674,-0.0419 1.95791,-0.37984 0.70984,-0.41993 0.80953,-1.58952 1.57485,-1.8992 0.4888,-0.19784 1.08535,0.36504 1.57485,0.16881 0.30804,-0.12354 0.32375,-0.65327 0.63834,-0.75969 0.18569,-0.0628 0.38387,0.17249 0.5746,0.12663 0.53844,-0.12955 0.72473,-1.10003 1.27687,-1.05512 0.20553,0.0167 0.21691,0.37915 0.40442,0.46424 0.39343,0.17856 0.89492,0.15565 1.29822,0 0.87025,-0.3359 1.27738,-1.3795 2.06425,-1.87811 0.54399,-0.34466 1.34606,-0.27171 1.78773,-0.73858 0.50783,-0.53703 0.0403,-1.80061 0.72343,-2.08913 0.403,-0.17017 0.76301,0.63715 1.19179,0.54866 0.65918,-0.13603 1.06923,-0.88728 1.34072,-1.49826 0.302,-0.67957 -0.25971,-1.65741 0.23413,-2.21575 0.70228,-0.79401 2.20805,-0.17254 3.1072,-0.73858 0.3451,-0.21727 0.42002,-0.73379 0.76603,-0.94961 0.88132,-0.5496 2.03223,-0.94266 3.04326,-0.69636 0.25406,0.0619 0.33825,0.4613 0.59584,0.50645 0.53713,0.0941 1.18262,-0.15465 1.53225,-0.56976 0.20342,-0.24142 -0.0826,-0.73892 0.17028,-0.92851 0.23323,-0.17463 0.66362,0.287 0.87257,0.0844 0.20342,-0.19726 -0.25165,-0.6321 -0.0634,-0.84409 0.25789,-0.29108 0.88334,0.1995 1.17054,-0.0633 0.19455,-0.17814 -0.1153,-0.63706 0.10634,-0.78078 0.2162,-0.14012 0.50179,0.29738 0.74488,0.21102 0.34087,-0.1211 0.29575,-0.72115 0.61719,-0.8863 0.59836,-0.30738 1.41242,-0.26455 2.02165,0.0211 0.25951,0.12165 0.2872,0.54755 0.55335,0.65416 0.25135,0.10068 0.56402,0.0313 0.80872,-0.0844 0.25347,-0.11993 0.3592,-0.44082 0.59585,-0.59087 0.55405,-0.35129 1.19712,-0.61153 1.85157,-0.67528 0.40733,-0.0396 0.82171,0.30913 1.21303,0.18992 0.73401,-0.2236 1.44102,-0.8384 1.68109,-1.56158 0.11057,-0.33284 -0.33271,-0.71278 -0.19143,-1.03401 0.14783,-0.33627 0.56855,-0.63089 0.93631,-0.59085 0.32909,0.0358 0.56009,0.39995 0.70238,0.69637 0.0886,0.18517 -0.1007,0.48742 0.0634,0.61197 0.34843,0.26406 0.90308,-0.0226 1.29823,-0.21103 0.43915,-0.20935 0.66241,-0.73099 1.08545,-0.97071 0.22587,-0.12804 0.65404,0.0101 0.74478,-0.23211 0.0614,-0.16285 -0.33262,-0.27851 -0.27663,-0.44317 0.11702,-0.34463 0.82031,-0.091 1.02694,-0.39135 z"
         id="path1"
         sodipodi:nodetypes="ssssssssssssssssssssssssssssssssssssssssssssssssssssssssssssssssssssssssssssssssssssssssssssssssssssssssssssssssssssssssssssssssssssssssssssssssssssssssssssssssssssssssssssssssssssssssssssssssssssssssssssssssssssssssssssssssssssssssssssssssssssssssssssssssssssssssssssssssssssssssssssssssssssssssssssssssssssssssssssssssssssssssssssssssssssssssssssssssssssssssssssssssssssssssssssssssssssssssssssssssssssssssssssssssssssssssssssssssssssssssssssssssssssssssssssssssssssssssssssssssssssssssssssssssssssssscs" /></g></g></svg>
