<?xml version="1.0" encoding="UTF-8" standalone="no"?>
<!-- Created with Inkscape (http://www.inkscape.org/) -->

<svg
   width="1836"
   height="1800"
   viewBox="0 0 485.775 476.25001"
   version="1.1"
   id="svg8"
   inkscape:export-filename="C:\Users\厂永刄先生\Documents\GXI3CW2\,pjóŭ\Cameroun.png"
   inkscape:export-xdpi="96"
   inkscape:export-ydpi="96"
   inkscape:version="1.3 (0e150ed6c4, 2023-07-21)"
   sodipodi:docname="cy_2006_hos.svg"
   xml:space="preserve"
   xmlns:inkscape="http://www.inkscape.org/namespaces/inkscape"
   xmlns:sodipodi="http://sodipodi.sourceforge.net/DTD/sodipodi-0.dtd"
   xmlns="http://www.w3.org/2000/svg"
   xmlns:svg="http://www.w3.org/2000/svg"
   xmlns:rdf="http://www.w3.org/1999/02/22-rdf-syntax-ns#"
   xmlns:cc="http://creativecommons.org/ns#"
   xmlns:dc="http://purl.org/dc/elements/1.1/"><defs
     id="defs2" /><sodipodi:namedview
     id="base"
     pagecolor="#ffffff"
     bordercolor="#666666"
     borderopacity="1.0"
     inkscape:pageopacity="0.0"
     inkscape:pageshadow="2"
     inkscape:zoom="0.2137034"
     inkscape:cx="797.83476"
     inkscape:cy="498.35426"
     inkscape:document-units="px"
     inkscape:current-layer="layer1"
     showgrid="false"
     units="px"
     fit-margin-top="0"
     fit-margin-left="0"
     fit-margin-right="0"
     fit-margin-bottom="0"
     inkscape:showpageshadow="false"
     inkscape:snap-intersection-paths="true"
     inkscape:object-paths="false"
     inkscape:pagecheckerboard="true"
     inkscape:snap-smooth-nodes="false"
     inkscape:window-width="1920"
     inkscape:window-height="1009"
     inkscape:window-x="-8"
     inkscape:window-y="-8"
     inkscape:window-maximized="1"
     inkscape:object-nodes="true"
     inkscape:snap-nodes="true"
     inkscape:deskcolor="#505050" /><metadata
     id="metadata5"><rdf:RDF><cc:Work
         rdf:about=""><dc:format>image/svg+xml</dc:format><dc:type
           rdf:resource="http://purl.org/dc/dcmitype/StillImage" /></cc:Work></rdf:RDF></metadata><g
     inkscape:label="レイヤー 1"
     inkscape:groupmode="layer"
     id="layer1"
     transform="translate(-133.72784,-418.33036)"><path
       sodipodi:nodetypes="ccccc"
       inkscape:connector-curvature="0"
       id="path831"
       d="m 143.25284,894.58036 v -476.25 h 476.25001 v 476.25 z"
       style="fill:#ffffff;fill-opacity:1;stroke:none;stroke-width:1.04444px;stroke-linecap:butt;stroke-linejoin:miter;stroke-opacity:1" /><g
       id="g112"
       style="fill:#008000;fill-opacity:1;stroke:none;stroke-opacity:1"
       transform="matrix(1.3499997,0,0,1.3499997,-126.3386,-259.11251)"><g
         id="g54"
         transform="translate(-580.15802,21.74632)"
         style="fill:#008000;fill-opacity:1;stroke:none;stroke-opacity:1"><g
           id="g52"
           transform="matrix(0.07078696,-0.26418054,0.26418054,0.07078696,860.97859,860.89568)"
           style="fill:#008000;fill-opacity:1;stroke:none;stroke-opacity:1"><path
             style="fill:#008000;fill-opacity:1;stroke:none;stroke-width:7.937;stroke-linecap:round;stroke-linejoin:round;stroke-miterlimit:3.9;stroke-opacity:1"
             d="m 441.19935,128.24317 c 0,-22.8774 -9.96296,-44.889876 -12.80259,-55.48751 -2.83963,10.597634 -12.80259,32.61011 -12.80259,55.48751 0,19.34081 12.80259,31.61198 12.80259,31.61198 0,0 12.80259,-12.27117 12.80259,-31.61198 z"
             id="path2"
             sodipodi:nodetypes="scscs"
             inkscape:transform-center-x="0.36126755"
             inkscape:transform-center-y="8.0000143" /><path
             id="path6"
             style="fill:#008000;fill-opacity:1;stroke:none;stroke-width:0.525297;stroke-linecap:round;stroke-linejoin:round;stroke-miterlimit:3.9;stroke-opacity:1"
             d="m 410.77117,108.65498 a 8.8026152,8.8026152 0 0 1 -9.1782,8.41027 8.8026152,8.8026152 0 0 1 -8.41027,-9.1782 8.8026152,8.8026152 0 0 1 9.1782,-8.410291 8.8026152,8.8026152 0 0 1 8.41027,9.178221 z"
             inkscape:transform-center-x="4.3539789"
             inkscape:transform-center-y="13.809056" /><path
             id="path7"
             style="fill:#008000;fill-opacity:1;stroke:none;stroke-width:0.525297;stroke-linecap:round;stroke-linejoin:round;stroke-miterlimit:3.9;stroke-opacity:1"
             d="m 446.07274,110.19628 a 8.8026152,8.8026152 0 0 0 8.41026,9.1782 8.8026152,8.8026152 0 0 0 9.17821,-8.41028 8.8026152,8.8026152 0 0 0 -8.41027,-9.17821 8.8026152,8.8026152 0 0 0 -9.1782,8.41029 z" /><path
             style="fill:#008000;fill-opacity:1;stroke:none;stroke-width:7.937;stroke-linecap:round;stroke-linejoin:round;stroke-miterlimit:3.9;stroke-opacity:1"
             d="m 447.13005,28.395816 c 2.9861,-22.6816806 -4.01842,-45.806265 -5.45048,-56.683879 -4.19861,10.136324 -16.94954,30.6600518 -19.93564,53.341732 -2.52448,19.175347 8.56686,33.012605 8.56686,33.012605 0,0 14.29478,-10.495112 16.81926,-29.670458 z"
             id="path8"
             sodipodi:nodetypes="scscs"
             inkscape:transform-center-x="1.3238342"
             inkscape:transform-center-y="7.7104965" /><path
             style="fill:#008000;fill-opacity:1;stroke:none;stroke-width:7.937;stroke-linecap:round;stroke-linejoin:round;stroke-miterlimit:3.9;stroke-opacity:1"
             d="m 419.08235,60.714479 c -3.97263,-22.529835 -17.60667,-42.477841 -22.2434,-52.4213965 -0.95624,10.9297405 -6.9454,34.3378465 -2.97278,56.8676975 3.3585,19.046968 18.98802,31.733147 18.98802,31.733147 0,0 9.58664,-17.132467 6.22816,-36.179448 z"
             id="path9"
             sodipodi:nodetypes="scscs"
             inkscape:transform-center-x="18.859759"
             inkscape:transform-center-y="9.3911847" /><path
             id="path11"
             style="fill:#008000;fill-opacity:1;stroke:none;stroke-width:0.525297;stroke-linecap:round;stroke-linejoin:round;stroke-miterlimit:3.9;stroke-opacity:1"
             d="m 419.22602,6.9068377 a 8.8026152,8.8026152 0 0 1 -9.87629,7.5783403 8.8026152,8.8026152 0 0 1 -7.57833,-9.8762847 8.8026152,8.8026152 0 0 1 9.87628,-7.5783503 8.8026152,8.8026152 0 0 1 7.57834,9.8762947 z"
             inkscape:transform-center-x="5.5409488"
             inkscape:transform-center-y="13.377035" /><path
             id="path12"
             style="fill:#008000;fill-opacity:1;stroke:none;stroke-width:0.525297;stroke-linecap:round;stroke-linejoin:round;stroke-miterlimit:3.9;stroke-opacity:1"
             d="m 454.25892,11.519006 a 8.8026152,8.8026152 0 0 0 7.57833,9.876284 8.8026152,8.8026152 0 0 0 9.87628,-7.57834 8.8026152,8.8026152 0 0 0 -7.57835,-9.876296 8.8026152,8.8026152 0 0 0 -9.87626,7.578352 z" /><path
             style="fill:#008000;fill-opacity:1;stroke:none;stroke-width:7.937;stroke-linecap:round;stroke-linejoin:round;stroke-miterlimit:3.9;stroke-opacity:1"
             d="m 465.52417,-69.446586 c 5.92109,-22.097875 1.99493,-45.938894 1.99488,-56.910384 -5.48576,9.50158 -20.80648,28.185402 -26.72758,50.283277 -5.00578,18.681784 4.18458,33.848377 4.18458,33.848377 0,0 15.54235,-8.539483 20.54812,-27.22127 z"
             id="path14"
             sodipodi:nodetypes="scscs"
             inkscape:transform-center-x="2.2637486"
             inkscape:transform-center-y="7.2259359" /><path
             id="path17"
             style="fill:#008000;fill-opacity:1;stroke:none;stroke-width:0.525297;stroke-linecap:round;stroke-linejoin:round;stroke-miterlimit:3.9;stroke-opacity:1"
             d="m 440.66373,-94.393933 a 8.8026152,8.8026152 0 0 1 -10.78095,6.224397 8.8026152,8.8026152 0 0 1 -6.2244,-10.780965 8.8026152,8.8026152 0 0 1 10.78097,-6.224399 8.8026152,8.8026152 0 0 1 6.22438,10.780967 z"
             inkscape:transform-center-x="7.2395981"
             inkscape:transform-center-y="12.539353" /><path
             id="path18"
             style="fill:#008000;fill-opacity:1;stroke:none;stroke-width:0.525297;stroke-linecap:round;stroke-linejoin:round;stroke-miterlimit:3.9;stroke-opacity:1"
             d="m 474.7949,-85.248511 a 8.8026152,8.8026152 0 0 0 6.22439,10.780963 8.8026152,8.8026152 0 0 0 10.78097,-6.224394 8.8026152,8.8026152 0 0 0 -6.22438,-10.780971 8.8026152,8.8026152 0 0 0 -10.78098,6.224402 z" /><path
             style="fill:#008000;fill-opacity:1;stroke:none;stroke-width:7.937;stroke-linecap:round;stroke-linejoin:round;stroke-miterlimit:3.9;stroke-opacity:1"
             d="m 500.14443,-160.01775 c 10.5636,-20.29249 11.89051,-44.41818 14.26523,-55.1296 -7.41222,8.08904 -26.4137,23.01395 -36.97732,43.30645 -8.93059,17.15552 -3.24074,33.95176 -3.24074,33.95176 0,0 17.02223,-4.97308 25.95283,-22.12861 z"
             id="path20"
             sodipodi:nodetypes="scscs"
             inkscape:transform-center-x="8.7816009"
             inkscape:transform-center-y="-8.0433383" /><path
             style="fill:#008000;fill-opacity:1;stroke:none;stroke-width:7.937;stroke-linecap:round;stroke-linejoin:round;stroke-miterlimit:3.9;stroke-opacity:1"
             d="m 445.14093,62.99431 c 7.82455,-21.497717 24.71539,-38.775141 31.00835,-47.762472 -0.95621,10.929742 0.87719,35.022235 -6.94734,56.519968 -6.61495,18.174404 -24.20996,27.953812 -24.20996,27.953812 0,0 -6.46597,-18.536887 0.14895,-36.711308 z"
             id="path23"
             sodipodi:nodetypes="scscs"
             inkscape:transform-center-x="13.627282"
             inkscape:transform-center-y="-5.2579118" /><path
             style="fill:#008000;fill-opacity:1;stroke:none;stroke-width:7.937;stroke-linecap:round;stroke-linejoin:round;stroke-miterlimit:3.9;stroke-opacity:1"
             d="m 415.3177,162.27038 c -5.92112,-22.09786 -21.24186,-40.78167 -26.72758,-50.28327 -1e-5,10.97149 -3.92624,34.81251 1.99487,56.91039 5.00577,18.68178 21.6815,29.95748 21.6815,29.95748 0,0 8.05696,-17.9028 3.05121,-36.5846 z"
             id="path25"
             sodipodi:nodetypes="scscs" /><path
             style="fill:#008000;fill-opacity:1;stroke:none;stroke-width:7.937;stroke-linecap:round;stroke-linejoin:round;stroke-miterlimit:3.9;stroke-opacity:1"
             d="m 441.47582,162.27038 c 5.92112,-22.09786 21.24186,-40.78167 26.72758,-50.28327 1e-5,10.97149 3.92624,34.81251 -1.99487,56.91039 -5.00577,18.68178 -21.6815,29.95748 -21.6815,29.95748 0,0 -8.05696,-17.9028 -3.05121,-36.5846 z"
             id="path26"
             sodipodi:nodetypes="scscs" /><path
             style="fill:#008000;fill-opacity:1;stroke:none;stroke-width:7.937;stroke-linecap:round;stroke-linejoin:round;stroke-miterlimit:3.9;stroke-opacity:1"
             d="m 433.49799,-41.065379 c -0.99791,-22.855621 -11.91158,-44.412569 -15.21073,-54.876267 -2.37467,10.711419 -11.368,33.137521 -10.37009,55.993159 0.84364,19.322388 14.68358,33.9400996 14.68358,33.9400996 0,0 11.74086,-15.7345886 10.89724,-35.0569916 z"
             id="path28"
             sodipodi:nodetypes="scscs"
             inkscape:transform-center-x="19.824674"
             inkscape:transform-center-y="7.2516086" /><path
             style="fill:#008000;fill-opacity:1;stroke:none;stroke-width:7.937;stroke-linecap:round;stroke-linejoin:round;stroke-miterlimit:3.9;stroke-opacity:1"
             d="m 459.03607,-35.403723 c 10.56361,-20.292492 29.56511,-35.217411 36.97731,-43.306458 -2.37466,10.711425 -3.70162,34.837115 -14.26523,55.129623 -8.9306,17.1554962 -27.65157,24.55462806 -27.65157,24.55462806 0,0 -3.9911,-19.22228206 4.93949,-36.37779306 z"
             id="path29"
             sodipodi:nodetypes="scscs"
             inkscape:transform-center-x="12.760505"
             inkscape:transform-center-y="-6.836409" /><path
             style="fill:#008000;fill-opacity:1;stroke:none;stroke-width:7.937;stroke-linecap:round;stroke-linejoin:round;stroke-miterlimit:3.9;stroke-opacity:1"
             d="m 461.07524,-140.09288 c 1.99388,-22.79032 -6.01266,-45.58738 -7.91781,-56.39219 -3.75249,10.30984 -15.59605,31.3702 -17.58994,54.16055 -1.68566,19.26722 10.12787,35.56634 10.12787,35.56634 0,0 13.69421,-14.06748 15.37988,-33.3347 z"
             id="path31"
             sodipodi:nodetypes="scscs"
             inkscape:transform-center-x="20.534001"
             inkscape:transform-center-y="4.5500016" /><path
             style="fill:#008000;fill-opacity:1;stroke:none;stroke-width:7.937;stroke-linecap:round;stroke-linejoin:round;stroke-miterlimit:3.9;stroke-opacity:1"
             d="m 487.19172,-130.69184 c 13.9269,-18.14983 35.23141,-29.54844 43.93565,-36.22749 -4.19859,10.13636 -9.6948,33.66508 -23.62167,51.81495 -11.77394,15.344094 -31.49534,19.379958 -31.49534,19.379958 0,0 -0.59256,-19.623288 11.18136,-34.967418 z"
             id="path32"
             sodipodi:nodetypes="scscs"
             inkscape:transform-center-x="7.4486049"
             inkscape:transform-center-y="-9.8002564" /><path
             style="fill:#008000;fill-opacity:1;stroke:none;stroke-width:6.22461;stroke-linecap:round;stroke-linejoin:round;stroke-miterlimit:3.9;stroke-opacity:1"
             d="m 380.70427,290.78001 c 12.01385,-9.77602 20.44767,-17.88354 26.71363,-30.20559 24.2389,-47.66591 20.97886,-91.04527 20.97886,-91.04527 0,0 11.13202,57.05618 -3.69225,102.65026 -3.64584,11.21327 -12.62621,26.89175 -21.33596,34.33688 -2.63029,-9.0623 -10.39433,-15.91724 -22.66428,-15.73628 z"
             id="path33"
             sodipodi:nodetypes="cscscc" /></g></g><g
         id="g111"
         transform="matrix(-1,0,0,1,1332.3307,21.74632)"
         style="fill:#008000;fill-opacity:1;stroke:none;stroke-opacity:1"><g
           id="g110"
           transform="matrix(0.07078696,-0.26418054,0.26418054,0.07078696,860.97859,860.89568)"
           style="fill:#008000;fill-opacity:1;stroke:none;stroke-opacity:1"><path
             style="fill:#008000;fill-opacity:1;stroke:none;stroke-width:7.937;stroke-linecap:round;stroke-linejoin:round;stroke-miterlimit:3.9;stroke-opacity:1"
             d="m 441.19935,128.24317 c 0,-22.8774 -9.96296,-44.889876 -12.80259,-55.48751 -2.83963,10.597634 -12.80259,32.61011 -12.80259,55.48751 0,19.34081 12.80259,31.61198 12.80259,31.61198 0,0 12.80259,-12.27117 12.80259,-31.61198 z"
             id="path92"
             sodipodi:nodetypes="scscs"
             inkscape:transform-center-x="0.36126755"
             inkscape:transform-center-y="8.0000143" /><path
             id="path93"
             style="fill:#008000;fill-opacity:1;stroke:none;stroke-width:0.525297;stroke-linecap:round;stroke-linejoin:round;stroke-miterlimit:3.9;stroke-opacity:1"
             d="m 410.77117,108.65498 a 8.8026152,8.8026152 0 0 1 -9.1782,8.41027 8.8026152,8.8026152 0 0 1 -8.41027,-9.1782 8.8026152,8.8026152 0 0 1 9.1782,-8.410291 8.8026152,8.8026152 0 0 1 8.41027,9.178221 z"
             inkscape:transform-center-x="4.3539789"
             inkscape:transform-center-y="13.809056" /><path
             id="path94"
             style="fill:#008000;fill-opacity:1;stroke:none;stroke-width:0.525297;stroke-linecap:round;stroke-linejoin:round;stroke-miterlimit:3.9;stroke-opacity:1"
             d="m 446.07274,110.19628 a 8.8026152,8.8026152 0 0 0 8.41026,9.1782 8.8026152,8.8026152 0 0 0 9.17821,-8.41028 8.8026152,8.8026152 0 0 0 -8.41027,-9.17821 8.8026152,8.8026152 0 0 0 -9.1782,8.41029 z" /><path
             style="fill:#008000;fill-opacity:1;stroke:none;stroke-width:7.937;stroke-linecap:round;stroke-linejoin:round;stroke-miterlimit:3.9;stroke-opacity:1"
             d="m 447.13005,28.395816 c 2.9861,-22.6816806 -4.01842,-45.806265 -5.45048,-56.683879 -4.19861,10.136324 -16.94954,30.6600518 -19.93564,53.341732 -2.52448,19.175347 8.56686,33.012605 8.56686,33.012605 0,0 14.29478,-10.495112 16.81926,-29.670458 z"
             id="path95"
             sodipodi:nodetypes="scscs"
             inkscape:transform-center-x="1.3238342"
             inkscape:transform-center-y="7.7104965" /><path
             style="fill:#008000;fill-opacity:1;stroke:none;stroke-width:7.937;stroke-linecap:round;stroke-linejoin:round;stroke-miterlimit:3.9;stroke-opacity:1"
             d="m 419.08235,60.714479 c -3.97263,-22.529835 -17.60667,-42.477841 -22.2434,-52.4213965 -0.95624,10.9297405 -6.9454,34.3378465 -2.97278,56.8676975 3.3585,19.046968 18.98802,31.733147 18.98802,31.733147 0,0 9.58664,-17.132467 6.22816,-36.179448 z"
             id="path96"
             sodipodi:nodetypes="scscs"
             inkscape:transform-center-x="18.859759"
             inkscape:transform-center-y="9.3911847" /><path
             id="path97"
             style="fill:#008000;fill-opacity:1;stroke:none;stroke-width:0.525297;stroke-linecap:round;stroke-linejoin:round;stroke-miterlimit:3.9;stroke-opacity:1"
             d="m 419.22602,6.9068377 a 8.8026152,8.8026152 0 0 1 -9.87629,7.5783403 8.8026152,8.8026152 0 0 1 -7.57833,-9.8762847 8.8026152,8.8026152 0 0 1 9.87628,-7.5783503 8.8026152,8.8026152 0 0 1 7.57834,9.8762947 z"
             inkscape:transform-center-x="5.5409488"
             inkscape:transform-center-y="13.377035" /><path
             id="path98"
             style="fill:#008000;fill-opacity:1;stroke:none;stroke-width:0.525297;stroke-linecap:round;stroke-linejoin:round;stroke-miterlimit:3.9;stroke-opacity:1"
             d="m 454.25892,11.519006 a 8.8026152,8.8026152 0 0 0 7.57833,9.876284 8.8026152,8.8026152 0 0 0 9.87628,-7.57834 8.8026152,8.8026152 0 0 0 -7.57835,-9.876296 8.8026152,8.8026152 0 0 0 -9.87626,7.578352 z" /><path
             style="fill:#008000;fill-opacity:1;stroke:none;stroke-width:7.937;stroke-linecap:round;stroke-linejoin:round;stroke-miterlimit:3.9;stroke-opacity:1"
             d="m 465.52417,-69.446586 c 5.92109,-22.097875 1.99493,-45.938894 1.99488,-56.910384 -5.48576,9.50158 -20.80648,28.185402 -26.72758,50.283277 -5.00578,18.681784 4.18458,33.848377 4.18458,33.848377 0,0 15.54235,-8.539483 20.54812,-27.22127 z"
             id="path99"
             sodipodi:nodetypes="scscs"
             inkscape:transform-center-x="2.2637486"
             inkscape:transform-center-y="7.2259359" /><path
             id="path100"
             style="fill:#008000;fill-opacity:1;stroke:none;stroke-width:0.525297;stroke-linecap:round;stroke-linejoin:round;stroke-miterlimit:3.9;stroke-opacity:1"
             d="m 440.66373,-94.393933 a 8.8026152,8.8026152 0 0 1 -10.78095,6.224397 8.8026152,8.8026152 0 0 1 -6.2244,-10.780965 8.8026152,8.8026152 0 0 1 10.78097,-6.224399 8.8026152,8.8026152 0 0 1 6.22438,10.780967 z"
             inkscape:transform-center-x="7.2395981"
             inkscape:transform-center-y="12.539353" /><path
             id="path101"
             style="fill:#008000;fill-opacity:1;stroke:none;stroke-width:0.525297;stroke-linecap:round;stroke-linejoin:round;stroke-miterlimit:3.9;stroke-opacity:1"
             d="m 474.7949,-85.248511 a 8.8026152,8.8026152 0 0 0 6.22439,10.780963 8.8026152,8.8026152 0 0 0 10.78097,-6.224394 8.8026152,8.8026152 0 0 0 -6.22438,-10.780971 8.8026152,8.8026152 0 0 0 -10.78098,6.224402 z" /><path
             style="fill:#008000;fill-opacity:1;stroke:none;stroke-width:7.937;stroke-linecap:round;stroke-linejoin:round;stroke-miterlimit:3.9;stroke-opacity:1"
             d="m 500.14443,-160.01775 c 10.5636,-20.29249 11.89051,-44.41818 14.26523,-55.1296 -7.41222,8.08904 -26.4137,23.01395 -36.97732,43.30645 -8.93059,17.15552 -3.24074,33.95176 -3.24074,33.95176 0,0 17.02223,-4.97308 25.95283,-22.12861 z"
             id="path102"
             sodipodi:nodetypes="scscs"
             inkscape:transform-center-x="8.7816009"
             inkscape:transform-center-y="-8.0433383" /><path
             style="fill:#008000;fill-opacity:1;stroke:none;stroke-width:7.937;stroke-linecap:round;stroke-linejoin:round;stroke-miterlimit:3.9;stroke-opacity:1"
             d="m 445.14093,62.99431 c 7.82455,-21.497717 24.71539,-38.775141 31.00835,-47.762472 -0.95621,10.929742 0.87719,35.022235 -6.94734,56.519968 -6.61495,18.174404 -24.20996,27.953812 -24.20996,27.953812 0,0 -6.46597,-18.536887 0.14895,-36.711308 z"
             id="path103"
             sodipodi:nodetypes="scscs"
             inkscape:transform-center-x="13.627282"
             inkscape:transform-center-y="-5.2579118" /><path
             style="fill:#008000;fill-opacity:1;stroke:none;stroke-width:7.937;stroke-linecap:round;stroke-linejoin:round;stroke-miterlimit:3.9;stroke-opacity:1"
             d="m 415.3177,162.27038 c -5.92112,-22.09786 -21.24186,-40.78167 -26.72758,-50.28327 -1e-5,10.97149 -3.92624,34.81251 1.99487,56.91039 5.00577,18.68178 21.6815,29.95748 21.6815,29.95748 0,0 8.05696,-17.9028 3.05121,-36.5846 z"
             id="path104"
             sodipodi:nodetypes="scscs" /><path
             style="fill:#008000;fill-opacity:1;stroke:none;stroke-width:7.937;stroke-linecap:round;stroke-linejoin:round;stroke-miterlimit:3.9;stroke-opacity:1"
             d="m 441.47582,162.27038 c 5.92112,-22.09786 21.24186,-40.78167 26.72758,-50.28327 1e-5,10.97149 3.92624,34.81251 -1.99487,56.91039 -5.00577,18.68178 -21.6815,29.95748 -21.6815,29.95748 0,0 -8.05696,-17.9028 -3.05121,-36.5846 z"
             id="path105"
             sodipodi:nodetypes="scscs" /><path
             style="fill:#008000;fill-opacity:1;stroke:none;stroke-width:7.937;stroke-linecap:round;stroke-linejoin:round;stroke-miterlimit:3.9;stroke-opacity:1"
             d="m 433.49799,-41.065379 c -0.99791,-22.855621 -11.91158,-44.412569 -15.21073,-54.876267 -2.37467,10.711419 -11.368,33.137521 -10.37009,55.993159 0.84364,19.322388 14.68358,33.9400996 14.68358,33.9400996 0,0 11.74086,-15.7345886 10.89724,-35.0569916 z"
             id="path106"
             sodipodi:nodetypes="scscs"
             inkscape:transform-center-x="19.824674"
             inkscape:transform-center-y="7.2516086" /><path
             style="fill:#008000;fill-opacity:1;stroke:none;stroke-width:7.937;stroke-linecap:round;stroke-linejoin:round;stroke-miterlimit:3.9;stroke-opacity:1"
             d="m 459.03607,-35.403723 c 10.56361,-20.292492 29.56511,-35.217411 36.97731,-43.306458 -2.37466,10.711425 -3.70162,34.837115 -14.26523,55.129623 -8.9306,17.1554962 -27.65157,24.55462806 -27.65157,24.55462806 0,0 -3.9911,-19.22228206 4.93949,-36.37779306 z"
             id="path107"
             sodipodi:nodetypes="scscs"
             inkscape:transform-center-x="12.760505"
             inkscape:transform-center-y="-6.836409" /><path
             style="fill:#008000;fill-opacity:1;stroke:none;stroke-width:7.937;stroke-linecap:round;stroke-linejoin:round;stroke-miterlimit:3.9;stroke-opacity:1"
             d="m 461.07524,-140.09288 c 1.99388,-22.79032 -6.01266,-45.58738 -7.91781,-56.39219 -3.75249,10.30984 -15.59605,31.3702 -17.58994,54.16055 -1.68566,19.26722 10.12787,35.56634 10.12787,35.56634 0,0 13.69421,-14.06748 15.37988,-33.3347 z"
             id="path108"
             sodipodi:nodetypes="scscs"
             inkscape:transform-center-x="20.534001"
             inkscape:transform-center-y="4.5500016" /><path
             style="fill:#008000;fill-opacity:1;stroke:none;stroke-width:7.937;stroke-linecap:round;stroke-linejoin:round;stroke-miterlimit:3.9;stroke-opacity:1"
             d="m 487.19172,-130.69184 c 13.9269,-18.14983 35.23141,-29.54844 43.93565,-36.22749 -4.19859,10.13636 -9.6948,33.66508 -23.62167,51.81495 -11.77394,15.344094 -31.49534,19.379958 -31.49534,19.379958 0,0 -0.59256,-19.623288 11.18136,-34.967418 z"
             id="path109"
             sodipodi:nodetypes="scscs"
             inkscape:transform-center-x="7.4486049"
             inkscape:transform-center-y="-9.8002564" /><path
             style="fill:#008000;fill-opacity:1;stroke:none;stroke-width:6.22461;stroke-linecap:round;stroke-linejoin:round;stroke-miterlimit:3.9;stroke-opacity:1"
             d="m 380.70427,290.78001 c 12.01385,-9.77602 20.44767,-17.88354 26.71363,-30.20559 24.2389,-47.66591 20.97886,-91.04527 20.97886,-91.04527 0,0 11.13202,57.05618 -3.69225,102.65026 -3.64584,11.21327 -12.62621,26.89175 -21.33596,34.33688 -2.63029,-9.0623 -10.39433,-15.91724 -22.66428,-15.73628 z"
             id="path110"
             sodipodi:nodetypes="cscscc" /></g></g></g><path
       style="fill:#ffffff;fill-opacity:1;stroke:none;stroke-width:0.511668px;stroke-linecap:butt;stroke-linejoin:miter;stroke-opacity:1"
       d="m 143.25284,418.33036 h -9.525 v 476.25 h 9.525 z"
       id="path1079"
       inkscape:connector-curvature="0"
       sodipodi:nodetypes="ccccc" /><path
       style="fill:#ff8000;fill-opacity:1;stroke:none;stroke-width:0.175063;stroke-linecap:round;stroke-linejoin:round;stroke-miterlimit:3.9;stroke-dasharray:none;stroke-opacity:1"
       d="m 565.33376,491.39511 c 0.19556,-0.28405 -0.20356,-0.74853 -0.0123,-1.03154 0.47273,-0.67929 1.52221,-0.71073 2.34003,-0.86387 1.06141,-0.19873 2.2412,0.35361 3.24007,-0.0541 0.26345,-0.10755 0.36127,-0.46221 0.61716,-0.58646 0.47466,-0.23047 1.26985,-0.66177 1.56856,-0.22949 0.50132,0.72524 -0.78994,1.58377 -1.31146,2.29489 -0.24614,0.33569 -0.733,0.51899 -0.84846,0.91793 -0.15649,0.53998 0.45301,1.11423 0.30845,1.65742 -0.14284,0.53663 -1.06346,0.72017 -1.08002,1.27493 -0.0134,0.45538 0.73178,0.64992 0.82292,1.09645 0.0924,0.45462 -0.0511,0.98204 -0.33425,1.35143 -0.19031,0.24855 -0.66401,0.18959 -0.82291,0.45897 -0.17315,0.29347 0.19481,0.74022 0,1.01995 -0.19274,0.27667 -0.73117,0.10138 -0.95154,0.35698 -0.27304,0.31679 0.0998,1.00347 -0.2571,1.22393 -0.32282,0.19956 -0.72569,-0.26139 -1.10558,-0.28048 -1.3246,-0.0665 -3.02738,-0.37281 -3.9345,0.58646 -0.27658,0.29246 0.23824,0.98328 -0.10343,1.19844 -0.4394,0.27707 -0.94545,-0.5162 -1.46576,-0.53547 -0.6236,-0.023 -1.2887,0.15533 -1.8,0.50996 -0.55572,0.38542 -0.54524,1.4429 -1.19598,1.63191 -0.24909,0.0724 -0.48174,-0.37036 -0.7251,-0.28095 -0.26794,0.0985 -0.18787,0.5634 -0.40238,0.75061 -0.4378,0.38199 -1.07455,0.45844 -1.63647,0.61303 -1.09231,0.3005 -2.3001,0.16994 -3.34582,0.60399 -1.87617,0.77874 -3.75635,1.87744 -4.99129,3.47983 -0.18398,0.23868 -0.078,0.65367 -0.30906,0.84741 -0.28716,0.24031 -0.79481,-0.005 -1.10923,0.19836 -0.39132,0.25348 -0.6623,0.70596 -0.78191,1.15391 -0.12605,0.47192 0.4636,1.12169 0.10947,1.46048 -0.23714,0.22661 -0.70173,-0.27965 -0.98194,-0.10827 -0.84702,0.51824 -1.08185,1.79081 -1.03634,2.77668 0.0146,0.30613 0.53635,0.55436 0.40007,0.82938 -0.0766,0.15446 -0.38961,-0.0165 -0.50911,0.10827 -0.39326,0.41045 0.14883,1.29495 -0.27279,1.67681 -0.38573,0.34948 -1.12906,-0.1794 -1.56371,0.10827 -0.22546,0.14919 -0.16366,0.53981 -0.36369,0.72122 -0.42771,0.38796 -1.19879,0.23444 -1.61834,0.63106 -0.42806,0.40467 -0.3098,1.18937 -0.72727,1.6047 -0.30067,0.29904 -0.7521,0.41441 -1.16363,0.52286 -0.62372,0.16436 -1.31657,-0.0256 -1.92751,0.18029 -0.47455,0.15989 -0.98597,0.38592 -1.27289,0.79331 -0.16682,0.23679 0,0.62618 -0.18192,0.84743 -0.37391,0.44204 -1.27472,0.18343 -1.61821,0.64909 -0.18665,0.25298 0.17667,0.74507 -0.0729,0.93757 -0.25249,0.19478 -0.66523,-0.31496 -0.94556,-0.16227 -0.34535,0.18809 -0.1981,0.78531 -0.45461,1.08182 -0.43123,0.4986 -1.21581,0.57434 -1.69681,1.02595 -0.48356,0.45382 -0.62094,1.20832 -1.13138,1.63192 -0.30311,0.2514 -0.86587,0.15523 -1.08016,0.48448 -0.17654,0.27139 0.14336,0.67892 0,0.96893 -0.38181,0.77246 -1.28018,1.19813 -2.05721,1.58093 -0.41335,0.20366 -0.98063,0.0662 -1.33715,0.35697 -0.45009,0.36706 -0.29871,1.21765 -0.77144,1.5554 -0.56849,0.40616 -1.40491,0.10549 -2.08302,0.2805 -2.04094,0.52697 -4.04913,1.27198 -5.88867,2.29487 -1.07821,0.59946 -1.88214,1.6137 -2.9573,2.21837 -1.84976,1.04038 -4.24417,1.06624 -5.91446,2.3714 -0.23168,0.18101 -0.29849,0.51454 -0.51434,0.71395 -1.13989,1.05349 -2.92517,1.2904 -3.98585,2.42238 -0.20358,0.21721 -0.19943,0.58139 -0.41139,0.79045 -0.76391,0.75315 -2.05578,0.76574 -2.88003,1.45344 -1.46661,1.22355 -2.18585,3.13213 -3.44584,4.56425 -1.78114,2.02445 -4.50579,3.29295 -5.78586,5.6607 -0.29713,0.54945 -0.65791,1.28674 -0.36028,1.83589 0.12739,0.23498 0.71194,0.0413 0.74564,0.30598 0.0488,0.37948 -0.70598,0.37406 -0.92561,0.68846 -0.3306,0.47316 -0.49061,1.08184 -0.48854,1.65742 0,0.44368 0.43549,0.834 0.3856,1.27493 -0.0754,0.66947 -0.54525,1.26145 -1.00288,1.75939 -0.4148,0.4514 -0.90968,0.94546 -1.51722,1.04546 -0.30772,0.0507 -0.58955,-0.28606 -0.89995,-0.25499 -0.48063,0.0481 -0.8066,0.60292 -1.28578,0.66297 -0.4889,0.0613 -0.94727,-0.33069 -1.44007,-0.33147 -1.65314,-0.003 -3.23143,1.49719 -4.83444,1.09642 -0.53015,-0.13254 -0.76049,-0.8004 -1.2343,-1.07095 -0.53321,-0.30448 -1.13431,-0.6221 -1.74867,-0.58645 -0.55887,0.0325 -0.96443,0.62623 -1.51722,0.71395 -0.7617,0.12093 -1.56223,-0.52407 -2.29596,-0.28768 -2.53799,0.81785 -4.5003,3.14406 -5.83574,5.4353 -0.61314,1.05185 -0.11321,2.57131 -0.84287,3.54747 -0.32463,0.43459 -1.06396,0.40148 -1.41428,0.81595 -0.70392,0.83253 -0.4462,2.21228 -1.1315,3.05985 -0.42697,0.52792 -1.38202,0.51031 -1.72285,1.09645 -2.04081,3.50832 -1.09512,8.12145 -0.56545,12.13735 0.31711,2.40422 0.58199,5.12783 2.21141,6.93562 0.39387,0.43687 1.19416,0.30775 1.62003,0.71396 1.25987,1.20164 0.80612,3.78998 2.31446,4.66624 0.68883,0.4002 1.7388,-0.58328 2.39148,-0.12748 1.32363,0.92442 0.65951,3.18173 1.38837,4.61525 1.47159,2.89468 2.68023,7.1548 5.88879,7.7771 0.24519,0.0475 0.3957,-0.41976 0.64282,-0.38249 1.68052,0.25357 1.94202,2.8982 3.39462,3.77379 0.35531,0.21417 0.86223,0.0778 1.20852,0.30598 1.39639,0.92026 2.06806,2.61923 3.03443,3.9778 0.98111,1.37932 1.34894,3.35515 2.80301,4.23276 0.35336,0.21329 0.96673,-0.18529 1.23431,0.12751 0.27779,0.32464 -0.18252,0.8622 -0.0766,1.27493 0.37866,1.48394 2.72196,2.39578 2.44283,3.90129 -0.11564,0.62029 -1.39068,0.52932 -1.51709,1.14742 -0.0828,0.40295 0.25856,0.86458 0.61715,1.07095 0.17789,0.10246 0.48258,-0.15427 0.61704,0 0.31173,0.35727 -0.37284,0.96014 -0.20553,1.40243 0.13872,0.36683 0.51313,0.68435 0.89982,0.76497 0.28937,0.0602 0.5915,-0.39955 0.84873,-0.25499 0.39958,0.22469 0.36624,0.87143 0.33425,1.32592 -0.0304,0.42984 -0.0961,1.01393 -0.48855,1.19843 -0.36504,0.17154 -0.93207,-0.0244 -1.15729,-0.35697 -0.22061,-0.32585 0.35688,-0.87194 0.10343,-1.17295 -0.24298,-0.28801 -0.77887,-0.23931 -1.13137,-0.10185 -0.41809,0.16286 -0.46018,0.90405 -0.90006,0.99444 -0.3418,0.0703 -0.71243,-0.18128 -0.95141,-0.43346 -0.27694,-0.29215 -0.1712,-0.82004 -0.43719,-1.12196 -0.57299,-0.65028 -1.44264,-1.04462 -2.28867,-1.24942 -0.6831,-0.16535 -1.4318,0.23963 -2.1087,0.051 -1.4627,-0.40764 -2.31325,-2.39497 -3.83143,-2.44789 -0.49841,-0.0173 -0.8183,0.64054 -1.31159,0.71396 -1.0041,0.14952 -1.98459,-0.79489 -2.9832,-0.61198 -0.25018,0.0459 -0.38914,0.4275 -0.64284,0.40801 -0.29666,-0.0229 -0.40921,-0.44192 -0.66863,-0.58648 -0.43013,-0.23972 -0.92086,-0.42822 -1.41427,-0.43348 -0.56168,-0.005 -1.19952,0.0899 -1.61992,0.45896 -0.36248,0.31804 -0.0912,1.2341 -0.56581,1.32595 -0.24981,0.0483 -0.29058,-0.4851 -0.54001,-0.53547 -0.51629,-0.10415 -0.95981,0.44075 -1.46575,0.58647 -2.2765,0.65561 -5.58581,-0.61553 -6.99461,1.27492 -0.30762,0.41292 0.33669,1.04057 0.17995,1.52992 -0.3379,1.05556 -1.3645,1.78208 -2.23707,2.47337 -0.93534,0.741 -1.98592,1.4084 -3.13725,1.73391 -0.70147,0.19832 -1.49471,0.33321 -2.18586,0.10186 -2.0352,-0.68083 -3.10877,-2.98802 -4.93724,-4.10529 -1.60507,-0.98066 -3.37526,-1.72782 -5.19449,-2.21836 -0.66693,-0.17981 -1.40613,-0.0255 -2.05724,-0.25498 -0.45703,-0.16112 -0.75393,-0.69716 -1.23419,-0.76497 -0.46749,-0.066 -0.89082,0.37987 -1.36293,0.38248 -0.95031,0.004 -1.82653,-0.95519 -2.75166,-0.73945 -0.4019,0.0937 -0.51749,0.75475 -0.92573,0.81595 -0.71682,0.10754 -1.27946,-1.07764 -1.9801,-0.89245 -0.32633,0.0863 -0.28157,0.68258 -0.59136,0.81595 -0.91976,0.39585 -1.98275,-0.4515 -2.98296,-0.38248 -1.7467,0.12059 -3.4748,0.65214 -5.06587,1.37692 -1.12773,0.51371 -2.17952,1.2248 -3.0858,2.06539 -1.10192,1.02202 -2.20494,2.15998 -2.77733,3.54432 -0.47137,1.14033 -0.22412,2.45758 -0.43706,3.67181 -0.21549,1.22893 -0.81403,2.39939 -0.84859,3.64631 -0.0293,1.04341 0.56885,2.0419 0.54001,3.08531 -0.0341,1.2469 -0.97221,2.40498 -0.84859,3.6463 0.0475,0.47321 0.52846,0.82906 0.59136,1.30044 0.0778,0.58041 -0.0123,1.21354 -0.28278,1.73391 -0.43062,0.82797 -1.37802,1.27036 -2.00587,1.9634 -0.60731,0.67055 -1.19649,1.36416 -1.69719,2.11638 -0.60634,0.91092 -1.21023,1.84938 -1.5687,2.88136 -0.28315,0.81515 0.32015,2.12622 -0.43695,2.54986 -1.01894,0.57003 -2.11466,-1.06838 -3.26586,-1.27493 -1.48473,-0.26639 -3.07314,-0.32761 -4.52598,0.0765 -0.94692,0.26342 -1.85989,0.78003 -2.54567,1.47891 -0.54585,0.55611 -0.59123,1.47847 -1.13149,2.03991 -1.54059,1.6009 -4.3588,1.70583 -5.70883,3.46779 -0.37756,0.49271 -0.0317,1.39283 -0.51434,1.78493 -1.41037,1.14542 -3.67458,0.0293 -5.45148,0.43347 -2.25908,0.51374 -4.75436,0.965 -6.48014,2.49886 -0.69102,0.61405 -0.53467,1.90782 -1.28579,2.44787 -1.10435,0.79401 -2.79595,0.10234 -4.03743,0.66297 -1.16363,0.52538 -2.10056,1.48114 -2.9573,2.42237 -0.26917,0.29577 -0.30907,0.81652 -0.6685,0.99443 -1.21364,0.60074 -2.75337,-0.58029 -4.063,-0.22948 -0.6747,0.18074 -1.22324,0.6903 -1.74865,1.14743 -0.45204,0.39346 -0.61279,1.16092 -1.18285,1.35145 -1.90842,0.63791 -3.91114,-1.42899 -5.91446,-1.22395 -1.02333,0.10477 -2.17977,0.43241 -2.82868,1.22395 -0.50265,0.61309 0.095,1.7822 -0.48855,2.32037 -1.17784,1.08647 -3.17558,0.57658 -4.78297,0.63747 -2.69397,0.10185 -5.39805,-0.13927 -8.07463,-0.45898 -2.57876,-0.30804 -5.11504,-1.90296 -7.66312,-1.40242 -0.65074,0.12781 -1.04863,0.84478 -1.67151,1.07094 -1.00641,0.36537 -2.15677,0.12072 -3.18861,0.40797 -3.16231,0.88068 -6.17181,2.32209 -9.00024,3.97778 -2.35036,1.37576 -4.69086,2.89777 -6.53175,4.89575 -1.19209,1.2937 -2.20141,2.81458 -2.80288,4.46226 -0.68043,1.86377 -1.06823,3.92304 -0.82292,5.89018 0.18263,1.4646 0.82511,2.8915 1.67139,4.10529 0.59001,0.84599 1.79914,1.18405 2.28866,2.09088 0.15563,0.28828 -0.0157,0.68882 0.15442,0.96896 0.26525,0.43689 1.14074,0.41647 1.23432,0.91795 0.11442,0.61218 -0.42857,1.32936 -1.00289,1.58091 -1.1551,0.50592 -2.58117,-0.14067 -3.72863,-0.66296 -0.43195,-0.19659 -0.66715,-0.71122 -1.10582,-0.89245 -1.41646,-0.58517 -3.06801,-0.75895 -4.57733,-0.48449 -0.69004,0.12549 -1.18161,0.85317 -1.87727,0.94347 -1.02515,0.13306 -2.02121,-0.84215 -3.03431,-0.63747 -0.71766,0.14497 -1.10046,1.4645 -1.79999,1.24941 -0.34984,-0.10754 -0.46883,-0.66629 -0.38573,-1.01992 0.13336,-0.56807 1.08537,-0.65009 1.28579,-1.19843 0.31478,-0.86133 -0.12935,-1.83508 -0.33438,-2.72836 -0.36759,-1.60132 -0.9351,-3.15968 -1.59437,-4.66626 -0.85929,-1.964 -1.42802,-4.25911 -3.0601,-5.66068 -0.53089,-0.45595 -1.43363,-0.27652 -1.9801,-0.71398 -1.10277,-0.88288 -1.22933,-2.60795 -2.26286,-3.56981 -0.65439,-0.60907 -1.46818,-1.27493 -2.36582,-1.27493 -0.44875,0 -0.73481,0.61229 -1.18296,0.63747 -0.77545,0.0436 -1.42304,-1.11043 -2.16004,-0.86696 -0.55085,0.182 -0.34364,1.31431 -0.90007,1.47891 -0.70173,0.20761 -1.255,-0.84193 -1.97996,-0.94344 -0.61121,-0.0856 -1.34226,-0.0744 -1.82581,0.30599 -0.22571,0.17755 -0.0949,0.63121 -0.33425,0.79045 -0.81841,0.54484 -1.98349,0.17789 -2.95729,0.0255 -0.58906,-0.0922 -1.10352,-0.61635 -1.69718,-0.56096 -1.08515,0.10125 -1.77493,1.43279 -2.85449,1.58091 -0.58478,0.0802 -1.13805,-0.48911 -1.72272,-0.40798 -0.31175,0.0432 -0.67387,0.18417 -0.82291,0.45898 -0.17098,0.31517 0.27535,0.77181 0.0766,1.07093 -0.4837,0.73022 -1.61651,0.79242 -2.49444,0.86696 -1.23832,0.10512 -2.55843,-1.14866 -3.67727,-0.61198 -0.6079,0.29157 -0.4008,1.41078 -0.97721,1.75942 -0.78324,0.47378 -1.86667,0.31758 -2.75141,0.0764 -1.35976,-0.37052 -2.23719,-1.80025 -3.57444,-2.24389 -1.10108,-0.36525 -2.3674,0.0752 -3.47164,-0.28049 -1.31693,-0.42416 -2.24352,-1.68244 -3.54854,-2.14187 -1.07612,-0.37886 -2.34219,-0.0191 -3.39448,-0.45897 -2.00346,-0.83751 -3.09211,-3.26239 -5.14302,-3.97781 -0.57408,-0.20027 -1.26363,0.2059 -1.8258,-0.0255 -0.89567,-0.36873 -1.24611,-1.52816 -2.0829,-2.01439 -1.01797,-0.59151 -2.21541,-1.03709 -3.39448,-0.99444 -0.70465,0.0255 -1.29565,0.90909 -1.97985,0.73944 -0.90749,-0.22498 -1.03757,-1.63402 -1.8516,-2.09088 -0.50034,-0.28085 -1.13392,-0.42043 -1.69717,-0.30598 -0.59393,0.12071 -0.91479,0.92687 -1.51722,0.99444 -1.16437,0.13062 -2.43263,-0.43368 -3.29167,-1.22393 -0.65768,-0.6052 -0.56788,-1.72977 -1.13125,-2.42237 -0.93755,-1.15242 -2.17467,-2.16196 -3.57446,-2.67737 -0.87779,-0.32314 -1.99287,0.28689 -2.80301,-0.17847 -1.26303,-0.72558 -1.13417,-2.9306 -2.41727,-3.62082 -0.93413,-0.50258 -2.62269,0.8667 -3.18861,-0.0255 -0.51445,-0.81107 1.10376,-1.65149 1.23444,-2.60085 0.16572,-1.20451 7.2e-4,-2.54534 -0.61728,-3.59531 -0.32853,-0.55835 -1.22921,-0.64394 -1.5171,-1.22395 -0.84445,-1.7012 0.62469,-3.95463 -0.1544,-5.68618 -0.18277,-0.40631 -0.8705,-0.4858 -0.97709,-0.91795 -0.18105,-0.73367 0.83448,-1.39173 0.74565,-2.14189 -0.12667,-1.07022 -0.78301,-2.2339 -1.74865,-2.72836 -0.59477,-0.30463 -1.50044,0.53744 -2.00577,0.10185 -0.29227,-0.2519 0.22389,-0.94131 -0.10222,-1.14745 -0.33863,-0.21364 -0.77619,0.59295 -1.13148,0.40798 -0.36091,-0.1878 0.0535,-0.98743 -0.3086,-1.17293 -0.30115,-0.15436 -0.61655,0.41041 -0.9514,0.35697 -0.86039,-0.1373 -1.59339,-0.88484 -2.03143,-1.63191 -0.39742,-0.67768 -0.0888,-1.59375 -0.38585,-2.32036 -0.59868,-1.46645 -1.59048,-2.78965 -2.72575,-3.90129 -0.63273,-0.61952 -2.29608,-0.60126 -2.21151,-1.47893 0.0535,-0.56106 1.11215,-0.32707 1.56857,-0.66295 0.43975,-0.32364 0.86112,-0.74134 1.05434,-1.24944 0.36918,-0.97052 0.53344,-2.17747 0.0766,-3.11083 -0.20563,-0.42067 -0.90286,-0.43266 -1.13149,-0.84146 -0.29204,-0.52222 0.0488,-1.2229 -0.15429,-1.7849 -0.24993,-0.6901 -0.52261,-1.75664 -1.26012,-1.8104 -0.17533,-0.0128 -0.18555,0.35957 -0.35992,0.38246 -0.45034,0.0592 -0.93657,-0.32015 -1.15717,-0.71395 -0.36212,-0.64642 -0.63601,-1.83242 0,-2.21838 0.36942,-0.22422 0.72546,0.62205 1.15717,0.58647 0.32975,-0.027 0.65452,-0.29048 0.79724,-0.58647 0.1813,-0.37606 0.10827,-0.86403 -0.0512,-1.24944 -0.15477,-0.37271 -0.7639,-0.49363 -0.82292,-0.89245 -0.11805,-0.79362 1.05448,-1.36526 1.05436,-2.16738 -1.3e-4,-0.54742 -0.70368,-0.93174 -0.71997,-1.47893 -0.0133,-0.46858 0.52869,-0.83176 0.54,-1.30043 0.0146,-0.63161 -0.0998,-1.45377 -0.64295,-1.7849 -0.17656,-0.10779 -0.43087,0.16686 -0.61716,0.0765 -0.90444,-0.43899 -0.6483,-2.117 -1.54278,-2.57537 -0.28277,-0.14483 -0.68225,0.24464 -0.95152,0.0764 -0.73007,-0.45596 -0.47067,-1.67001 -0.92574,-2.39687 -0.39996,-0.6388 -1.40175,-0.91868 -1.54288,-1.65741 -0.0621,-0.32257 0.40432,-0.59259 0.35991,-0.91795 -0.0559,-0.40938 -0.64454,-0.59372 -0.74564,-0.99445 -0.12631,-0.50024 0.29945,-1.01868 0.23143,-1.52992 -0.0669,-0.50565 -0.49755,-0.90637 -0.61727,-1.40241 -0.1717,-0.71211 -0.27282,-1.47481 -0.1285,-2.19289 0.12289,-0.61141 0.66242,-1.08015 0.8229,-1.68292 0.1689,-0.63411 -0.0123,-1.32259 0.12849,-1.9634 0.14859,-0.67553 0.408,-1.33303 0.74577,-1.93788 0.25494,-0.45658 0.45667,-1.07178 0.95155,-1.24944 0.24822,-0.0892 0.55229,0.0325 0.77146,0.1785 0.68892,0.45907 0.80477,1.4846 1.43993,2.01438 0.30517,0.2545 0.89957,0.15741 1.08002,0.50997 0.14614,0.28541 -0.22996,0.62724 -0.17997,0.94345 0.0694,0.43963 0.34923,0.83644 0.64284,1.17294 0.74931,0.85872 1.72322,1.54027 2.75153,2.03989 0.46313,0.225 1.04949,0.14455 1.49155,0.40798 1.49679,0.892 2.18865,2.7543 3.60013,3.77381 1.39761,1.00948 2.95875,2.05624 4.68015,2.21836 0.53806,0.0507 1.02818,-0.41921 1.56856,-0.40796 0.58286,0.0122 1.08939,0.53964 1.67152,0.50997 0.92062,-0.0471 1.64119,-0.8951 2.54578,-1.07095 0.59731,-0.116 1.23782,0.18165 1.82577,0.0255 1.90843,-0.50682 3.50388,-1.8429 5.09158,-3.00884 1.21921,-0.89525 2.37138,-1.90093 3.36867,-3.03434 1.26462,-1.43705 2.28915,-3.07418 3.26587,-4.71724 1.22629,-2.06298 2.881,-4.05758 3.2401,-6.42567 0.0463,-0.30674 -0.19531,-0.61042 -0.15431,-0.91795 0.0998,-0.75034 0.29313,-1.68229 0.95154,-2.0654 0.27439,-0.15967 0.6466,0.16687 0.95142,0.0764 0.89531,-0.26537 1.8836,-0.84067 2.21139,-1.70839 0.11068,-0.29191 -0.26394,-0.61755 -0.17996,-0.91795 0.12313,-0.44079 0.74005,-0.60122 0.92573,-1.01996 0.25298,-0.57058 -0.0876,-1.2976 0.17997,-1.86141 0.11926,-0.25005 0.32513,-0.50475 0.59148,-0.58645 0.2666,-0.0818 0.6213,-0.0383 0.82292,0.15298 0.1908,0.18105 0,0.57098 0.17996,0.76496 0.34045,0.3724 0.93327,0.48254 1.4402,0.48448 1.11944,0.004 2.34209,-0.31913 3.18873,-1.04543 0.21732,-0.18654 0.14308,-0.61183 0.3856,-0.76497 0.80284,-0.50699 1.93847,0.18062 2.85435,-0.0765 0.54317,-0.1525 1.14282,-0.3823 1.46575,-0.84144 0.229,-0.32548 0.0123,-0.82862 0.20576,-1.17295 0.29033,-0.50232 0.75344,-1.13286 1.33725,-1.12193 0.53381,0.01 0.669,0.92691 1.18285,1.07094 0.57103,0.16012 1.35186,0.10609 1.74865,-0.33148 0.2071,-0.22829 -0.16378,-0.72509 0.0766,-0.91794 0.98196,-0.78606 2.50647,0.67168 3.75429,0.48446 0.22377,-0.0336 0.3957,-0.32623 0.61728,-0.28049 0.54076,0.11165 0.63358,0.93957 1.1057,1.22395 1.08915,0.65609 2.4286,0.94183 3.70294,0.94344 0.52188,6.7e-4 0.99631,-0.41088 1.51735,-0.38249 1.31609,0.0718 2.39039,1.25388 3.70282,1.37692 0.55414,0.0519 1.12749,-0.48184 1.64584,-0.28046 0.47248,0.18359 0.52005,0.89604 0.92573,1.19843 1.97851,1.47487 4.96,1.175 6.91735,2.67736 0.60195,0.46206 0.71169,1.40547 1.33712,1.8359 0.95664,0.65841 2.31277,0.43111 3.36869,0.91795 0.75467,0.3479 1.23494,1.27667 2.05736,1.40244 0.84141,0.12864 1.727,-0.28244 2.44284,-0.7395 0.32671,-0.20863 0.4187,-0.70504 0.77145,-0.86695 0.40457,-0.1857 0.92743,0.14869 1.33713,-0.0254 1.03062,-0.43813 1.3341,-1.93609 2.3658,-2.37138 0.57592,-0.24293 1.29212,0.19436 1.87727,-0.0255 1.2903,-0.48472 2.29707,-1.5921 3.13713,-2.67733 1.45444,-1.87869 2.28016,-4.17992 3.1116,-6.40016 1.07186,-2.86247 1.76363,-5.85878 2.3916,-8.84804 0.67167,-3.19732 1.58742,-6.42575 1.46575,-9.68947 -0.0584,-1.57632 -0.87743,-3.04765 -1.05434,-4.61525 -0.19531,-1.73163 1.15326,-3.91253 0,-5.22723 -0.28401,-0.32378 -0.94533,0.0865 -1.28567,-0.17849 -0.6022,-0.4689 -0.74029,-1.36484 -0.84872,-2.11638 -0.11564,-0.80292 0.27135,-1.61226 0.23144,-2.42238 -0.0463,-0.93402 -0.62726,-1.82272 -0.54002,-2.75385 0.045,-0.48248 0.50667,-0.86802 0.54002,-1.35142 0.067,-0.96048 -1.47245,-2.22921 -0.69431,-2.80486 1.63209,-1.20726 3.35714,2.37251 5.27175,3.05984 0.8823,0.31681 1.97254,-0.0203 2.77709,0.45897 0.55546,0.33091 0.73019,1.07008 1.18285,1.52992 0.79201,0.80458 1.5974,1.69516 2.64872,2.1164 1.59594,0.63945 3.4423,0.72227 5.14301,0.45895 0.41371,-0.0641 0.73969,-0.51645 1.15717,-0.48447 1.31633,0.1009 2.13706,1.59399 3.36869,2.0654 1.84612,0.70654 3.85893,1.11189 5.83733,1.07094 0.92305,-0.0191 1.93494,-0.0997 2.70005,-0.61196 0.79627,-0.53302 0.70576,-2.14991 1.64584,-2.34587 0.53089,-0.11069 0.88035,0.65355 1.3886,0.84147 0.87937,0.32507 1.88214,0.17893 2.77721,0.45894 1.04206,0.32601 1.92108,1.0586 2.95728,1.40245 1.35187,0.44856 2.7985,1.14134 4.19163,0.84144 0.41383,-0.0891 0.63918,-0.57455 1.02855,-0.73946 0.35263,-0.14927 0.83277,0.0344 1.13138,-0.20399 0.26039,-0.2079 0.0936,-0.75611 0.38571,-0.91795 1.0602,-0.58808 2.56962,-0.0768 3.60011,0.56097 0.26636,0.16481 0.29411,0.57161 0.54003,0.76496 1.04912,0.82457 2.39245,1.40062 3.72885,1.47892 0.59355,0.0348 1.2729,-0.0733 1.72275,-0.45897 0.31089,-0.26641 0.0998,-0.9901 0.48865,-1.12194 0.99097,-0.33616 1.70899,1.40505 2.75154,1.50443 1.13867,0.10863 2.21383,-1.49089 3.26587,-1.04545 0.28912,0.1224 0.18157,0.62883 0.4114,0.84144 0.85784,0.79344 2.09373,1.34799 3.26574,1.30043 0.59368,-0.0242 1.00021,-0.78693 1.59437,-0.79045 0.96224,-0.006 1.66105,1.02893 2.59726,1.24944 1.13427,0.26713 2.33854,-0.0771 3.49729,0.051 0.66158,0.0732 1.39118,0.76016 1.9543,0.40797 0.24615,-0.15397 -0.0475,-0.6999 0.20564,-0.84145 1.01115,-0.56428 2.16187,0.94148 3.31734,1.04543 0.87779,0.0789 1.76775,-0.54257 2.62304,-0.33148 0.34618,0.0855 0.5332,0.50824 0.87426,0.61199 0.84421,0.25678 1.77944,0.10295 2.64859,-0.051 1.0541,-0.18685 1.96415,-1.01132 3.03444,-1.04543 1.15572,-0.0368 2.19814,0.7575 3.34301,0.91794 0.79787,0.11189 1.63575,0.22033 2.41716,0.0255 0.84458,-0.21057 1.44068,-1.05244 2.28855,-1.24943 0.77692,-0.18048 1.60775,0.25003 2.39161,0.10187 1.4475,-0.27336 2.63071,-2.21994 4.03732,-1.78492 0.22036,0.0682 0.15235,0.48659 0.36005,0.58647 1.53803,0.74 3.44279,-0.16351 5.09156,-0.61196 0.98449,-0.26779 1.7989,-1.04029 2.80288,-1.22392 0.33766,-0.0618 0.72362,0.2073 1.02868,0.051 0.29787,-0.15266 0.27292,-0.64053 0.54,-0.84146 0.5422,-0.40789 1.34322,-0.8836 1.9543,-0.58647 0.28011,0.13623 0.0974,0.66593 0.33425,0.86695 0.21975,0.18633 0.55997,0.19623 0.84859,0.1785 1.23103,-0.0756 2.31701,-1.55345 3.49731,-1.19844 0.2986,0.0898 0.28072,0.61375 0.5658,0.73946 0.36943,0.16292 0.84763,0.0788 1.20853,-0.10198 0.49888,-0.24982 0.64538,-0.93554 1.10582,-1.24942 0.34641,-0.23615 0.77083,-0.51612 1.18284,-0.4335 0.18435,0.037 0.22803,0.34215 0.41152,0.38249 1.0743,0.23617 2.15639,-0.52486 3.13713,-1.01994 1.31876,-0.66569 2.69702,-1.4131 3.60012,-2.57536 0.29155,-0.37511 0.15234,-1.01708 0.51435,-1.32594 0.57226,-0.48825 1.74877,0.10694 2.21151,-0.48447 0.15783,-0.20158 -0.20479,-0.58156 -0.0254,-0.76496 0.24433,-0.25051 0.75733,0.18626 1.05422,0 0.47321,-0.29665 0.2559,-1.1941 0.7201,-1.50442 0.3631,-0.24275 0.89094,0.0446 1.31147,-0.0765 1.03537,-0.29807 1.78966,-1.26986 2.82868,-1.55542 0.4794,-0.13175 1.04169,0.15978 1.49154,-0.051 0.43378,-0.20329 0.49731,-0.91732 0.95141,-1.07095 1.23942,-0.41931 2.5577,0.90063 3.85724,0.73948 0.47941,-0.0596 0.83215,-0.55133 1.31145,-0.61197 0.8739,-0.11068 1.71653,0.46681 2.59726,0.48447 1.00482,0.0201 1.97825,-0.45193 2.98296,-0.43348 0.56654,0.0109 1.1063,0.34505 1.67139,0.30598 1.81179,-0.12523 3.58965,-0.81894 5.1688,-1.7084 0.57079,-0.32148 0.86077,-1.09472 1.49154,-1.27493 0.54987,-0.1571 1.14927,0.41835 1.6972,0.25498 0.34288,-0.1021 0.45958,-0.5957 0.79723,-0.71396 0.43696,-0.15311 0.93584,0.17558 1.38849,0.0765 0.42685,-0.0934 0.88108,-0.27583 1.15717,-0.61196 0.19176,-0.23357 0,-0.70092 0.2571,-0.86696 0.61217,-0.40098 1.48145,0.45832 2.18585,0.25498 0.57336,-0.16548 0.80516,-0.99667 1.38874,-1.12193 0.1645,-0.0354 0.32694,0.17448 0.48853,0.12749 0.5472,-0.15915 0.61569,-1.07198 1.15717,-1.24944 0.60499,-0.19826 1.2404,0.37727 1.87727,0.357 0.71669,-0.0229 1.49252,-0.13132 2.08278,-0.53547 0.35421,-0.24258 0.45058,-0.73483 0.74577,-1.04546 0.33888,-0.35643 0.69906,-0.73488 1.15717,-0.91793 1.13369,-0.45298 2.50733,0.0947 3.6516,-0.3315 1.29845,-0.48369 2.01355,-2.1289 3.36856,-2.42237 0.29899,-0.0648 0.63105,0.32299 0.90007,0.17848 0.24361,-0.1308 0.0778,-0.61285 0.30859,-0.76496 0.43548,-0.28716 1.11092,0.27616 1.56868,0.0254 0.78119,-0.42771 0.51301,-2.09885 1.38861,-2.26939 0.28265,-0.055 0.4069,0.49104 0.69429,0.50999 0.74273,0.0488 1.39031,-0.58936 1.95443,-1.07094 0.63004,-0.53802 0.71217,-1.75705 1.51721,-1.9634 0.35312,-0.0905 0.64039,0.39396 1.00277,0.43348 0.62493,0.0682 1.33432,-0.003 1.85146,-0.357 0.28181,-0.19312 0.25126,-0.68426 0.54014,-0.86693 0.73494,-0.46497 1.77383,-0.0219 2.59724,-0.30599 0.61776,-0.21325 1.19185,-0.57884 1.67152,-1.01995 0.98559,-0.90638 1.88808,-1.9924 2.3658,-3.23833 0.0912,-0.23953 -0.0523,-0.54343 0.0766,-0.76496 0.32758,-0.55864 1.20756,-0.60184 1.59424,-1.12194 0.34267,-0.46079 0.17316,-1.18989 0.54014,-1.63191 0.62435,-0.75213 1.9538,-0.6704 2.57145,-1.42793 0.38355,-0.47038 0.51543,-1.12948 0.54002,-1.7339 0.0134,-0.31319 -0.33864,-0.63361 -0.20565,-0.91796 0.16293,-0.34833 0.65087,-0.45059 1.02856,-0.53545 0.4434,-0.0997 0.95409,-0.14615 1.36292,0.051 0.46495,0.22418 0.52335,0.98175 1.00289,1.17294 0.69564,0.2773 1.60252,0.1661 2.23721,-0.22948 0.3323,-0.20711 0.22461,-0.98921 0.61714,-0.99444 0.50156,-0.007 0.32233,1.21667 0.82292,1.24942 0.56399,0.037 0.54647,-1.3565 1.1057,-1.27493 0.33414,0.0488 0.11188,0.76342 0.41151,0.91794 0.7128,0.36772 1.67565,-0.0507 2.36581,-0.45896 0.85772,-0.50742 0.97819,-1.92067 1.90295,-2.29487 0.59063,-0.23905 1.31146,0.44108 1.90294,0.20398 0.37222,-0.14928 0.3912,-0.78937 0.77132,-0.91796 0.22439,-0.0759 0.46385,0.20843 0.69431,0.15302 0.65062,-0.15655 0.87572,-1.32921 1.54289,-1.27495 0.24835,0.0202 0.26209,0.45814 0.48868,0.56096 0.47538,0.21576 1.08136,0.18808 1.56867,0 1.05156,-0.40588 1.54351,-1.6669 2.49431,-2.26938 0.65732,-0.41647 1.62649,-0.32832 2.16018,-0.89246 0.61362,-0.6489 0.0488,-2.17573 0.87413,-2.52436 0.48696,-0.20562 0.92198,0.76989 1.44008,0.66297 0.79652,-0.16437 1.29199,-1.07213 1.62005,-1.8104 0.36491,-0.82115 -0.31383,-2.00271 0.2829,-2.67736 0.84858,-0.95943 2.66806,-0.20849 3.75453,-0.89246 0.41699,-0.26253 0.50752,-0.88666 0.92562,-1.14744 1.06493,-0.6641 2.45561,-1.13905 3.67727,-0.84143 0.30699,0.0747 0.40872,0.5574 0.71997,0.61196 0.64904,0.1137 1.429,-0.18687 1.85147,-0.68846 0.2458,-0.29171 -0.0998,-0.89286 0.20576,-1.12195 0.28181,-0.21101 0.80187,0.34679 1.05435,0.10198 0.2458,-0.23835 -0.30407,-0.76378 -0.0766,-1.01994 0.31163,-0.35172 1.06737,0.24107 1.4144,-0.0764 0.23509,-0.21524 -0.13932,-0.76978 0.1285,-0.94344 0.26124,-0.16931 0.60633,0.35933 0.90006,0.25499 0.41189,-0.14634 0.35737,-0.8714 0.74578,-1.07095 0.72301,-0.37142 1.70667,-0.31967 2.44282,0.0255 0.31358,0.14699 0.34703,0.66162 0.66864,0.79044 0.3037,0.12166 0.68152,0.0378 0.9772,-0.10198 0.30627,-0.14492 0.43403,-0.53266 0.71998,-0.71397 0.66948,-0.42448 1.44652,-0.73893 2.23732,-0.81597 0.49219,-0.0479 0.99289,0.37354 1.46574,0.22949 0.88693,-0.27019 1.74123,-1.01307 2.03132,-1.88691 0.1336,-0.40218 -0.40203,-0.86127 -0.23132,-1.24943 0.17864,-0.40633 0.68701,-0.76232 1.13138,-0.71394 0.39765,0.0432 0.67677,0.48328 0.84871,0.84145 0.10706,0.22374 -0.12168,0.58896 0.0766,0.73946 0.42101,0.31907 1.09122,-0.0273 1.56868,-0.25499 0.53065,-0.25297 0.80042,-0.88329 1.3116,-1.17295 0.27292,-0.15471 0.7903,0.0123 0.89994,-0.28046 0.0742,-0.19677 -0.40192,-0.33654 -0.33427,-0.5355 0.1414,-0.41642 0.99122,-0.10996 1.24089,-0.47287 z"
       id="path3"
       sodipodi:nodetypes="ssssssssssssssssssssssssssssssssssssssssssssssssssssssssssssssssssssssssssssssssssssssssssssssssssssssssssssssssssssssssssssssssssssssssssssssssssssssssssssssssssssssssssssssssssssssssssssssssssssssssssssssssssssssssssssssssssssssssssssssssssssssssssssssssssssssssssssssssssssssssssssssssssssssssssssssssssssssssssssssssssssssssssssssssssssssssssssssssssssssssssssssssssssssssssssssssssssssssssssssssssssssssssssssssssssssssssssssssssssssssssssssssssssssssssssssssssssssssssssssssssssssssssssssssssssssscs" /></g></svg>
