<?xml version="1.0" encoding="UTF-8" standalone="no"?>
<!-- Created with Inkscape (http://www.inkscape.org/) -->

<svg
   width="2736"
   height="1800"
   viewBox="0 0 723.9 476.25001"
   version="1.1"
   id="svg8"
   inkscape:export-filename="C:\Users\厂永刄先生\Documents\GXI3CW2\,pjóŭ\Cameroun.png"
   inkscape:export-xdpi="96"
   inkscape:export-ydpi="96"
   inkscape:version="1.3 (0e150ed6c4, 2023-07-21)"
   sodipodi:docname="cy_2006.svg"
   xml:space="preserve"
   xmlns:inkscape="http://www.inkscape.org/namespaces/inkscape"
   xmlns:sodipodi="http://sodipodi.sourceforge.net/DTD/sodipodi-0.dtd"
   xmlns="http://www.w3.org/2000/svg"
   xmlns:svg="http://www.w3.org/2000/svg"
   xmlns:rdf="http://www.w3.org/1999/02/22-rdf-syntax-ns#"
   xmlns:cc="http://creativecommons.org/ns#"
   xmlns:dc="http://purl.org/dc/elements/1.1/"><defs
     id="defs2" /><sodipodi:namedview
     id="base"
     pagecolor="#ffffff"
     bordercolor="#666666"
     borderopacity="1.0"
     inkscape:pageopacity="0.0"
     inkscape:pageshadow="2"
     inkscape:zoom="0.2137034"
     inkscape:cx="1340.6432"
     inkscape:cy="498.35427"
     inkscape:document-units="px"
     inkscape:current-layer="layer1"
     showgrid="false"
     units="px"
     fit-margin-top="0"
     fit-margin-left="0"
     fit-margin-right="0"
     fit-margin-bottom="0"
     inkscape:showpageshadow="false"
     inkscape:snap-intersection-paths="true"
     inkscape:object-paths="false"
     inkscape:pagecheckerboard="true"
     inkscape:snap-smooth-nodes="false"
     inkscape:window-width="1920"
     inkscape:window-height="1009"
     inkscape:window-x="-8"
     inkscape:window-y="-8"
     inkscape:window-maximized="1"
     inkscape:object-nodes="true"
     inkscape:snap-nodes="true"
     inkscape:deskcolor="#505050" /><metadata
     id="metadata5"><rdf:RDF><cc:Work
         rdf:about=""><dc:format>image/svg+xml</dc:format><dc:type
           rdf:resource="http://purl.org/dc/dcmitype/StillImage" /></cc:Work></rdf:RDF></metadata><g
     inkscape:label="レイヤー 1"
     inkscape:groupmode="layer"
     id="layer1"
     transform="translate(9.6469888,-418.33036)"><path
       sodipodi:nodetypes="ccccc"
       inkscape:connector-curvature="0"
       id="path831"
       d="m -0.12198883,894.58036 v -476.25 H 714.253 v 476.25 z"
       style="fill:#ffffff;fill-opacity:1;stroke:none;stroke-width:1.27917px;stroke-linecap:butt;stroke-linejoin:miter;stroke-opacity:1" /><path
       style="fill:#ff8000;fill-opacity:1;stroke:none;stroke-width:0.195588;stroke-linecap:round;stroke-linejoin:round;stroke-miterlimit:3.9;stroke-dasharray:none;stroke-opacity:1"
       d="m 586.90097,481.15765 c 0.21848,-0.31735 -0.22743,-0.83629 -0.0137,-1.15248 0.52815,-0.75893 1.70068,-0.79405 2.61438,-0.96515 1.18585,-0.22203 2.50396,0.39507 3.61994,-0.0604 0.29433,-0.12015 0.40362,-0.5164 0.68951,-0.65521 0.53032,-0.25749 1.41873,-0.73936 1.75247,-0.2564 0.56009,0.81027 -0.88256,1.76946 -1.46522,2.56395 -0.275,0.37504 -0.81894,0.57984 -0.94794,1.02555 -0.17483,0.60328 0.50613,1.24486 0.34462,1.85173 -0.15959,0.59955 -1.18814,0.80461 -1.20665,1.42441 -0.015,0.50877 0.81758,0.72612 0.9194,1.225 0.10328,0.50792 -0.0571,1.09717 -0.37343,1.50987 -0.21263,0.27769 -0.74186,0.21182 -0.91939,0.51278 -0.19345,0.32788 0.21765,0.82701 0,1.13953 -0.21534,0.30911 -0.8169,0.11327 -1.0631,0.39884 -0.30506,0.35393 0.11151,1.12111 -0.28725,1.36742 -0.36066,0.22296 -0.81077,-0.29203 -1.2352,-0.31336 -1.47989,-0.0743 -3.38231,-0.41652 -4.39578,0.65521 -0.30901,0.32675 0.26617,1.09857 -0.11556,1.33895 -0.49091,0.30956 -1.0563,-0.57672 -1.63761,-0.59825 -0.69671,-0.0257 -1.43979,0.17354 -2.01103,0.56975 -0.62087,0.43061 -0.60917,1.61207 -1.3362,1.82324 -0.27829,0.0809 -0.53822,-0.41378 -0.81011,-0.31389 -0.29935,0.11003 -0.2099,0.62945 -0.44956,0.83861 -0.48913,0.42678 -1.20053,0.51219 -1.82833,0.6849 -1.22037,0.33574 -2.56977,0.18987 -3.73809,0.67481 -2.09613,0.87004 -4.19675,2.09755 -5.57647,3.88781 -0.20555,0.26666 -0.0871,0.7303 -0.3453,0.94676 -0.32083,0.26848 -0.88799,-0.006 -1.23928,0.22161 -0.43719,0.2832 -0.73994,0.78873 -0.87358,1.2892 -0.14083,0.52725 0.51796,1.2532 0.12231,1.63171 -0.26495,0.25318 -0.784,-0.31244 -1.09707,-0.12096 -0.94632,0.579 -1.20869,2.00076 -1.15784,3.10222 0.0163,0.34202 0.59923,0.61935 0.44698,0.92662 -0.0856,0.17256 -0.43529,-0.0185 -0.5688,0.12096 -0.43937,0.45857 0.16627,1.44677 -0.30478,1.8734 -0.43095,0.39046 -1.26143,-0.20043 -1.74704,0.12096 -0.25189,0.16669 -0.18284,0.6031 -0.40633,0.80578 -0.47785,0.43345 -1.33934,0.26193 -1.80807,0.70505 -0.47825,0.45211 -0.34612,1.32881 -0.81254,1.79283 -0.33592,0.3341 -0.84028,0.463 -1.30005,0.58417 -0.69685,0.18363 -1.47093,-0.0286 -2.1535,0.20142 -0.53019,0.17864 -1.10157,0.43117 -1.42212,0.88632 -0.18638,0.26455 0,0.6996 -0.20325,0.94679 -0.41775,0.49386 -1.42417,0.20493 -1.80793,0.72519 -0.20854,0.28264 0.19738,0.83242 -0.0815,1.04749 -0.28209,0.21762 -0.74322,-0.35189 -1.05642,-0.1813 -0.38583,0.21015 -0.22132,0.87739 -0.5079,1.20866 -0.48179,0.55705 -1.35836,0.64167 -1.89575,1.14623 -0.54025,0.50703 -0.69374,1.34999 -1.26403,1.82325 -0.33864,0.28088 -0.96738,0.17343 -1.20679,0.54128 -0.19724,0.30321 0.16016,0.75852 0,1.08253 -0.42658,0.86302 -1.43027,1.3386 -2.29841,1.76628 -0.46181,0.22754 -1.09559,0.074 -1.49391,0.39882 -0.50286,0.4101 -0.33374,1.36041 -0.86189,1.73776 -0.63514,0.45378 -1.56962,0.11786 -2.32724,0.31339 -2.28022,0.58875 -4.52385,1.42111 -6.57906,2.56392 -1.20462,0.66974 -2.10281,1.80289 -3.30402,2.47846 -2.06663,1.16235 -4.74176,1.19124 -6.60788,2.64942 -0.25884,0.20223 -0.33348,0.57487 -0.57464,0.79765 -1.27353,1.17701 -3.26812,1.44169 -4.45316,2.70639 -0.22744,0.24267 -0.22281,0.64955 -0.45962,0.88312 -0.85347,0.84145 -2.2968,0.85552 -3.21769,1.62384 -1.63855,1.36701 -2.44212,3.49935 -3.84983,5.09937 -1.98997,2.2618 -5.03406,3.67903 -6.4642,6.32437 -0.33197,0.61387 -0.73505,1.4376 -0.40252,2.05114 0.14232,0.26253 0.7954,0.0461 0.83306,0.34185 0.0545,0.42397 -0.78876,0.41791 -1.03413,0.76918 -0.36936,0.52863 -0.54813,1.20867 -0.54582,1.85173 0,0.4957 0.48654,0.93178 0.43081,1.42441 -0.0842,0.74796 -0.60918,1.40934 -1.12046,1.96566 -0.46344,0.50432 -1.01633,1.05631 -1.6951,1.16803 -0.3438,0.0566 -0.65867,-0.3196 -1.00546,-0.28488 -0.53698,0.0537 -0.90117,0.6736 -1.43653,0.74069 -0.54622,0.0685 -1.05833,-0.36946 -1.60891,-0.37033 -1.84695,-0.003 -3.61029,1.67273 -5.40123,1.22497 -0.59231,-0.14808 -0.84966,-0.89424 -1.37902,-1.19651 -0.59572,-0.34018 -1.26729,-0.69504 -1.95368,-0.65521 -0.62439,0.0363 -1.0775,0.69965 -1.6951,0.79766 -0.85101,0.13511 -1.74539,-0.58552 -2.56515,-0.32141 -2.83554,0.91374 -5.02792,3.51267 -6.51992,6.07254 -0.68503,1.17517 -0.12649,2.87278 -0.94169,3.96338 -0.3627,0.48554 -1.18871,0.44855 -1.5801,0.91161 -0.78644,0.93014 -0.49851,2.47166 -1.26415,3.4186 -0.47703,0.58981 -1.54406,0.57014 -1.92485,1.22499 -2.28007,3.91964 -1.22351,9.07362 -0.63174,13.56035 0.35429,2.6861 0.65023,5.72903 2.47068,7.74877 0.44005,0.48809 1.33416,0.34383 1.80997,0.79766 1.40757,1.34252 0.90062,4.23433 2.5858,5.21332 0.7696,0.44712 1.94267,-0.65167 2.67187,-0.14243 1.47881,1.0328 0.73683,3.55476 1.55114,5.15635 1.64412,3.23406 2.99446,7.99364 6.5792,8.6889 0.27394,0.0531 0.44209,-0.46897 0.71819,-0.42733 1.87754,0.28329 2.1697,3.23798 3.79261,4.21623 0.39696,0.23928 0.96331,0.0869 1.3502,0.34186 1.56011,1.02815 2.31053,2.92631 3.3902,4.44416 1.09613,1.54103 1.50709,3.74851 3.13163,4.72901 0.39479,0.2383 1.08008,-0.20701 1.37903,0.14246 0.31036,0.3627 -0.20392,0.96329 -0.0856,1.42441 0.42306,1.65791 3.04109,2.67666 2.72924,4.35868 -0.1292,0.69301 -1.55373,0.59138 -1.69496,1.28194 -0.0925,0.4502 0.28887,0.96595 0.6895,1.19651 0.19875,0.11448 0.53916,-0.17235 0.68939,0 0.34828,0.39916 -0.41655,1.07271 -0.22963,1.56686 0.15498,0.40983 0.57329,0.76458 1.00532,0.85465 0.32329,0.0673 0.66084,-0.44639 0.94823,-0.28488 0.44643,0.25103 0.40918,0.9736 0.37344,1.48137 -0.034,0.48024 -0.10733,1.13281 -0.54583,1.33894 -0.40783,0.19165 -1.04134,-0.0273 -1.29297,-0.39883 -0.24647,-0.36405 0.39872,-0.97416 0.11556,-1.31046 -0.27147,-0.32178 -0.87019,-0.26737 -1.26402,-0.1138 -0.4671,0.18196 -0.51413,1.01005 -1.00558,1.11103 -0.38187,0.0785 -0.79596,-0.20253 -1.06296,-0.48428 -0.3094,-0.3264 -0.19127,-0.91618 -0.48844,-1.2535 -0.64017,-0.72652 -1.61178,-1.16709 -2.557,-1.3959 -0.76319,-0.18474 -1.59966,0.26773 -2.35593,0.057 -1.63419,-0.45543 -2.58445,-2.67576 -4.28063,-2.73488 -0.55684,-0.0193 -0.91424,0.71564 -1.46536,0.79766 -1.12182,0.16705 -2.21727,-0.88808 -3.33296,-0.68372 -0.27951,0.0513 -0.43476,0.47762 -0.7182,0.45584 -0.33144,-0.0256 -0.45719,-0.49373 -0.74702,-0.65524 -0.48056,-0.26783 -1.02883,-0.47843 -1.58009,-0.4843 -0.62753,-0.006 -1.34015,0.10044 -1.80984,0.51277 -0.40497,0.35532 -0.10193,1.37878 -0.63214,1.4814 -0.2791,0.054 -0.32465,-0.54197 -0.60333,-0.59824 -0.57681,-0.11637 -1.07233,0.49242 -1.63759,0.65522 -2.5434,0.73248 -6.2407,-0.68769 -7.81467,1.4244 -0.34368,0.46133 0.37616,1.16257 0.20105,1.70929 -0.37752,1.17931 -1.52448,1.99101 -2.49935,2.76335 -1.045,0.82787 -2.21875,1.57352 -3.50507,1.93719 -0.78371,0.22158 -1.66995,0.37228 -2.44213,0.11381 -2.27381,-0.76065 -3.47324,-3.33834 -5.51609,-4.5866 -1.79325,-1.09564 -3.77098,-1.93039 -5.8035,-2.47845 -0.74512,-0.20089 -1.57098,-0.0285 -2.29843,-0.28487 -0.51061,-0.18001 -0.84232,-0.7789 -1.37889,-0.85466 -0.5223,-0.0737 -0.99526,0.42441 -1.52272,0.42733 -1.06173,0.005 -2.04067,-1.06718 -3.07427,-0.82615 -0.44902,0.10463 -0.57816,0.84324 -1.03426,0.91161 -0.80086,0.12015 -1.42947,-1.20398 -2.21225,-0.99708 -0.36459,0.0964 -0.31458,0.76261 -0.66069,0.91162 -1.0276,0.44226 -2.21522,-0.50444 -3.33269,-0.42733 -1.95149,0.13473 -3.88219,0.7286 -5.6598,1.53835 -1.25995,0.57394 -2.43505,1.3684 -3.44758,2.30754 -1.23112,1.14185 -2.46345,2.41322 -3.10295,3.95987 -0.52664,1.27402 -0.2504,2.74571 -0.4883,4.10229 -0.24076,1.37301 -0.90947,2.6807 -0.94808,4.07381 -0.0327,1.16574 0.63554,2.2813 0.60332,3.44704 -0.0381,1.39309 -1.0862,2.68694 -0.94808,4.0738 0.0531,0.52869 0.59041,0.92626 0.66069,1.4529 0.0869,0.64846 -0.0137,1.35582 -0.31593,1.9372 -0.48111,0.92504 -1.53958,1.4193 -2.24105,2.19359 -0.67851,0.74916 -1.33676,1.52409 -1.89617,2.36451 -0.67742,1.01771 -1.35211,2.0662 -1.75261,3.21917 -0.31635,0.91072 0.35768,2.3755 -0.48818,2.84881 -1.1384,0.63686 -2.36259,-1.19364 -3.64876,-1.42441 -1.6588,-0.29762 -3.43343,-0.36601 -5.05661,0.0855 -1.05793,0.2943 -2.07794,0.87148 -2.84412,1.6523 -0.60985,0.62131 -0.66055,1.6518 -1.26415,2.27907 -1.72121,1.78859 -4.86983,1.90582 -6.37814,3.87436 -0.42183,0.55047 -0.0354,1.55612 -0.57465,1.99419 -1.57572,1.27972 -4.10539,0.0327 -6.09061,0.4843 -2.52394,0.57397 -5.31177,1.07813 -7.23989,2.79183 -0.77203,0.68604 -0.59735,2.13149 -1.43653,2.73486 -1.23383,0.8871 -3.12375,0.11434 -4.51079,0.74069 -1.30005,0.58698 -2.34683,1.6548 -3.30402,2.70638 -0.30072,0.33044 -0.3453,0.91225 -0.74687,1.11102 -1.35593,0.67117 -3.07618,-0.64833 -4.53935,-0.25639 -0.75381,0.20193 -1.36666,0.77123 -1.95367,1.28196 -0.50503,0.43959 -0.68463,1.29702 -1.32153,1.50989 -2.13216,0.7127 -4.36968,-1.59653 -6.60788,-1.36744 -1.1433,0.11705 -2.43532,0.4831 -3.16032,1.36744 -0.56158,0.68497 0.10611,1.99115 -0.54582,2.59241 -1.31594,1.21386 -3.54789,0.64418 -5.34373,0.71221 -3.00982,0.1138 -6.03093,-0.15559 -9.02132,-0.51279 -2.88109,-0.34415 -5.71473,-2.12606 -8.56155,-1.56684 -0.72704,0.1428 -1.17157,0.94382 -1.86748,1.1965 -1.1244,0.40821 -2.40963,0.13487 -3.56245,0.4558 -3.53306,0.98393 -6.8954,2.59434 -10.05544,4.44414 -2.62592,1.53706 -5.24082,3.23751 -7.29754,5.46973 -1.33185,1.44538 -2.45951,3.14457 -3.13149,4.98543 -0.76021,2.08228 -1.19347,4.38298 -0.9194,6.58075 0.20404,1.63631 0.92184,3.2305 1.86734,4.5866 0.65919,0.94518 2.01008,1.32287 2.55699,2.33602 0.17387,0.32208 -0.0176,0.76958 0.17252,1.08256 0.29635,0.48811 1.27448,0.4653 1.37903,1.02557 0.12784,0.68395 -0.47881,1.48522 -1.12047,1.76626 -1.29052,0.56523 -2.88379,-0.15716 -4.16577,-0.74069 -0.4826,-0.21964 -0.74537,-0.7946 -1.23547,-0.99708 -1.58253,-0.65377 -3.42771,-0.84793 -5.11399,-0.54129 -0.77094,0.1402 -1.32014,0.9532 -2.09736,1.05408 -1.14534,0.14866 -2.25818,-0.94088 -3.39006,-0.71221 -0.8018,0.16197 -1.22948,1.6362 -2.01102,1.3959 -0.39086,-0.12015 -0.5238,-0.74441 -0.43095,-1.1395 0.14899,-0.63467 1.21262,-0.72631 1.43653,-1.33894 0.35169,-0.96231 -0.14451,-2.05022 -0.37358,-3.04823 -0.41068,-1.78906 -1.04473,-3.53013 -1.78129,-5.21334 -0.96004,-2.19426 -1.59545,-4.75845 -3.41888,-6.32435 -0.59313,-0.5094 -1.60171,-0.30894 -2.21224,-0.79768 -1.23207,-0.9864 -1.37346,-2.91371 -2.52817,-3.98834 -0.73111,-0.68048 -1.64031,-1.42441 -2.64319,-1.42441 -0.50136,0 -0.82096,0.68408 -1.32165,0.71221 -0.86637,0.0487 -1.58988,-1.24062 -2.41329,-0.9686 -0.61543,0.20333 -0.38392,1.4684 -1.00559,1.65229 -0.784,0.23195 -1.40214,-0.94063 -2.2121,-1.05405 -0.68286,-0.0956 -1.49962,-0.0831 -2.03986,0.34187 -0.25218,0.19837 -0.10598,0.70521 -0.37344,0.88312 -0.91437,0.60872 -2.21604,0.19875 -3.30401,0.0285 -0.65812,-0.103 -1.2329,-0.68861 -1.89616,-0.62673 -1.21237,0.11313 -1.98303,1.60078 -3.18915,1.76626 -0.65335,0.0896 -1.27148,-0.54645 -1.9247,-0.45581 -0.3483,0.0483 -0.75287,0.20576 -0.91939,0.51279 -0.19102,0.35212 0.30763,0.8623 0.0856,1.19649 -0.5404,0.81583 -1.80603,0.88533 -2.78689,0.9686 -1.3835,0.11745 -2.85838,-1.28333 -4.10839,-0.68372 -0.67918,0.32575 -0.4478,1.57618 -1.09178,1.96569 -0.87507,0.52933 -2.08553,0.35482 -3.07399,0.0854 -1.51918,-0.41396 -2.49948,-2.01131 -3.99352,-2.50696 -1.23017,-0.40808 -2.64495,0.084 -3.87866,-0.31338 -1.47133,-0.47389 -2.50655,-1.87969 -3.96457,-2.39299 -1.20229,-0.42327 -2.61679,-0.0213 -3.79245,-0.51278 -2.23835,-0.93569 -3.45464,-3.64487 -5.746,-4.44417 -0.64139,-0.22375 -1.41178,0.23004 -2.03986,-0.0285 -1.00068,-0.41196 -1.39221,-1.70732 -2.3271,-2.25056 -1.13732,-0.66086 -2.47515,-1.15868 -3.79246,-1.11103 -0.78726,0.0285 -1.44755,1.01567 -2.21197,0.82613 -1.01388,-0.25135 -1.15921,-1.82559 -2.06868,-2.33601 -0.559,-0.31378 -1.26686,-0.46973 -1.89615,-0.34186 -0.66356,0.13487 -1.02204,1.03554 -1.6951,1.11103 -1.30088,0.14594 -2.71784,-0.48452 -3.67759,-1.36742 -0.73479,-0.67616 -0.63446,-1.93257 -1.26388,-2.70637 -1.04747,-1.28754 -2.42963,-2.41544 -3.99353,-2.99127 -0.98071,-0.36103 -2.22652,0.32052 -3.13164,-0.1994 -1.41111,-0.81065 -1.26714,-3.27419 -2.70068,-4.04533 -1.04365,-0.5615 -2.93017,0.96832 -3.56244,-0.0285 -0.57477,-0.90616 1.23316,-1.84511 1.37916,-2.90578 0.18515,-1.34573 8.1e-4,-2.84376 -0.68965,-4.01683 -0.36704,-0.62381 -1.37332,-0.71943 -1.69496,-1.36744 -0.94346,-1.90065 0.69793,-4.41828 -0.17251,-6.35284 -0.20419,-0.45394 -0.97256,-0.54276 -1.09164,-1.02557 -0.20228,-0.81969 0.93231,-1.5549 0.83307,-2.39301 -0.14152,-1.19569 -0.87481,-2.4958 -1.95367,-3.04824 -0.6645,-0.34034 -1.67635,0.60046 -2.24092,0.1138 -0.32654,-0.28144 0.25013,-1.05167 -0.11421,-1.28198 -0.37833,-0.23869 -0.86719,0.66247 -1.26414,0.45581 -0.40322,-0.20982 0.0598,-1.1032 -0.34477,-1.31045 -0.33646,-0.17245 -0.68884,0.45853 -1.06295,0.39883 -0.96126,-0.1534 -1.7802,-0.98858 -2.2696,-1.82324 -0.44401,-0.75713 -0.0992,-1.78061 -0.43108,-2.5924 -0.66887,-1.63838 -1.77695,-3.11672 -3.04533,-4.35869 -0.70691,-0.69215 -2.56527,-0.67175 -2.47079,-1.65232 0.0598,-0.62684 1.24254,-0.36542 1.75248,-0.74068 0.4913,-0.36158 0.96207,-0.82825 1.17795,-1.39592 0.41246,-1.08431 0.59598,-2.43276 0.0856,-3.47555 -0.22974,-0.46999 -1.00871,-0.48338 -1.26415,-0.94011 -0.32627,-0.58345 0.0545,-1.36628 -0.17238,-1.99417 -0.27923,-0.771 -0.58388,-1.96259 -1.40785,-2.02265 -0.19589,-0.0143 -0.20731,0.40173 -0.40212,0.4273 -0.50314,0.0661 -1.04638,-0.35769 -1.29284,-0.79766 -0.40457,-0.7222 -0.71058,-2.04725 0,-2.47846 0.41273,-0.25051 0.81051,0.69498 1.29284,0.65523 0.36841,-0.0302 0.73125,-0.32454 0.89071,-0.65523 0.20255,-0.42015 0.12096,-0.96533 -0.0572,-1.39593 -0.17292,-0.41641 -0.85347,-0.5515 -0.9194,-0.99708 -0.1319,-0.88666 1.1781,-1.52533 1.17797,-2.42149 -1.4e-4,-0.6116 -0.78618,-1.04098 -0.80438,-1.65232 -0.0149,-0.52351 0.59067,-0.92928 0.60331,-1.45289 0.0163,-0.70566 -0.11151,-1.62422 -0.71833,-1.99417 -0.19726,-0.12042 -0.48139,0.18643 -0.68952,0.0855 -1.01048,-0.49046 -0.72431,-2.3652 -1.72365,-2.87731 -0.31593,-0.16181 -0.76224,0.27332 -1.06308,0.0854 -0.81567,-0.50942 -0.52585,-1.86581 -1.03428,-2.67789 -0.44685,-0.71369 -1.56609,-1.02638 -1.72377,-1.85172 -0.0694,-0.36039 0.45173,-0.66207 0.40211,-1.02558 -0.0625,-0.45737 -0.72011,-0.66332 -0.83306,-1.11104 -0.14112,-0.55888 0.33456,-1.13811 0.25856,-1.70929 -0.0748,-0.56493 -0.55588,-1.01263 -0.68964,-1.56683 -0.19183,-0.79559 -0.3048,-1.64771 -0.14356,-2.44998 0.13729,-0.6831 0.74008,-1.20679 0.91938,-1.88023 0.1887,-0.70845 -0.0137,-1.47765 0.14355,-2.19359 0.16601,-0.75473 0.45583,-1.48932 0.83321,-2.16508 0.28482,-0.51011 0.51021,-1.19744 1.06311,-1.39593 0.27732,-0.0996 0.61704,0.0363 0.8619,0.19943 0.76969,0.51289 0.89912,1.65866 1.60875,2.25055 0.34095,0.28434 1.00504,0.17586 1.20665,0.56976 0.16327,0.31887 -0.25693,0.70078 -0.20107,1.05406 0.0775,0.49117 0.39017,0.9345 0.7182,1.31046 0.83716,0.95939 1.92526,1.72085 3.07413,2.27904 0.51743,0.25138 1.17253,0.1615 1.66642,0.45582 1.67227,0.99658 2.44525,3.07721 4.02221,4.21625 1.56147,1.12784 3.30564,2.29732 5.22886,2.47845 0.60114,0.0566 1.14873,-0.46836 1.75246,-0.45579 0.65119,0.0136 1.21711,0.60291 1.86749,0.56976 1.02856,-0.0526 1.83361,-1.00005 2.84425,-1.19651 0.66734,-0.1296 1.38295,0.20294 2.03983,0.0285 2.13217,-0.56624 3.91468,-2.05896 5.68852,-3.3616 1.36215,-1.00021 2.64941,-2.1238 3.76362,-3.39009 1.41288,-1.60553 2.55753,-3.4346 3.64877,-5.2703 1.37006,-2.30485 3.21877,-4.53329 3.61997,-7.17902 0.0517,-0.34271 -0.21821,-0.68199 -0.1724,-1.02557 0.11151,-0.83832 0.32749,-1.87953 1.0631,-2.30755 0.30656,-0.1784 0.72241,0.18643 1.06296,0.0854 1.00028,-0.29649 2.10444,-0.93923 2.47066,-1.90869 0.12366,-0.32613 -0.29488,-0.68995 -0.20106,-1.02557 0.13757,-0.49247 0.82682,-0.67171 1.03427,-1.13954 0.28263,-0.63748 -0.0979,-1.44973 0.20106,-2.07964 0.13325,-0.27937 0.36325,-0.56393 0.66083,-0.65521 0.29786,-0.0914 0.69414,-0.0428 0.9194,0.17092 0.21317,0.20227 0,0.63792 0.20106,0.85464 0.38036,0.41606 1.04269,0.53911 1.60905,0.54128 1.25069,0.005 2.61668,-0.35654 3.56258,-1.168 0.2428,-0.20841 0.15986,-0.68356 0.43081,-0.85465 0.89697,-0.56643 2.16574,0.20179 3.189,-0.0855 0.60685,-0.17037 1.2768,-0.42712 1.63759,-0.94009 0.25585,-0.36364 0.0137,-0.92577 0.22989,-1.31046 0.32437,-0.56122 0.84177,-1.26568 1.49403,-1.25347 0.59639,0.0108 0.74743,1.03558 1.32153,1.1965 0.63798,0.17889 1.51035,0.11853 1.95366,-0.37035 0.23138,-0.25505 -0.18298,-0.8101 0.0856,-1.02556 1.09709,-0.87821 2.80034,0.75043 4.19445,0.54126 0.25001,-0.0375 0.4421,-0.36447 0.68966,-0.31337 0.60415,0.12474 0.70786,1.04972 1.23533,1.36745 1.21684,0.73301 2.71333,1.05225 4.13708,1.05404 0.58306,7.5e-4 1.11312,-0.45905 1.69524,-0.42733 1.47039,0.0802 2.67065,1.40089 4.13695,1.53835 0.6191,0.058 1.25967,-0.53833 1.8388,-0.31334 0.52787,0.20512 0.58102,1.0011 1.03426,1.33894 2.21047,1.64778 5.54152,1.31276 7.72835,2.99125 0.67252,0.51624 0.79513,1.57025 1.49389,2.05115 1.0688,0.7356 2.58392,0.48165 3.76364,1.02557 0.84315,0.38869 1.37972,1.42635 2.29856,1.56686 0.94006,0.14373 1.92948,-0.31555 2.72925,-0.82619 0.36501,-0.23309 0.46779,-0.7877 0.86189,-0.9686 0.45201,-0.20747 1.03617,0.16613 1.4939,-0.0284 1.15145,-0.48949 1.49051,-2.16308 2.64317,-2.6494 0.64344,-0.27141 1.44361,0.21715 2.09736,-0.0285 1.44158,-0.54155 2.56638,-1.77876 3.50494,-2.99123 1.62495,-2.09895 2.54748,-4.66998 3.4764,-7.15052 1.19753,-3.19807 1.9704,-6.54567 2.672,-9.8854 0.75041,-3.57218 1.77353,-7.17911 1.63759,-10.82548 -0.0652,-1.76113 -0.9803,-3.40495 -1.17795,-5.15634 -0.21821,-1.93465 1.28847,-4.37124 0,-5.84008 -0.31731,-0.36174 -1.05616,0.0967 -1.4364,-0.19942 -0.67281,-0.52387 -0.82709,-1.52485 -0.94823,-2.3645 -0.1292,-0.89706 0.30317,-1.80129 0.25858,-2.70639 -0.0517,-1.04352 -0.7008,-2.03642 -0.60333,-3.07671 0.0503,-0.53905 0.56607,-0.96979 0.60333,-1.50987 0.0748,-1.07308 -1.64509,-2.49056 -0.77571,-3.1337 1.82343,-1.3488 3.75073,2.65067 5.88981,3.41858 0.98574,0.35395 2.20381,-0.0227 3.10268,0.51278 0.62059,0.3697 0.8158,1.19554 1.32153,1.70929 0.88487,0.89891 1.78468,1.8939 2.95926,2.36453 1.78305,0.71442 3.84588,0.80695 5.74598,0.51276 0.46222,-0.0716 0.82642,-0.577 1.29284,-0.54127 1.47066,0.11273 2.38761,1.78087 3.76364,2.30755 2.06256,0.78937 4.31136,1.24225 6.52171,1.1965 1.03127,-0.0213 2.16179,-0.11137 3.01661,-0.68371 0.88962,-0.59551 0.7885,-2.40197 1.8388,-2.62091 0.59313,-0.12366 0.98356,0.73018 1.5514,0.94013 0.98247,0.36318 2.10281,0.19991 3.10281,0.51275 1.16424,0.36423 2.14631,1.18271 3.304,1.56687 1.51037,0.50115 3.1266,1.27515 4.68306,0.94009 0.46235,-0.0995 0.71412,-0.64191 1.14914,-0.82615 0.39397,-0.16677 0.93041,0.0384 1.26402,-0.22791 0.29092,-0.23227 0.10462,-0.84475 0.43094,-1.02557 1.1845,-0.65703 2.87088,-0.0858 4.02219,0.62674 0.29759,0.18413 0.32859,0.63863 0.60334,0.85464 1.17212,0.92125 2.67295,1.56484 4.16603,1.65232 0.66314,0.0389 1.42213,-0.0819 1.92473,-0.51278 0.34734,-0.29765 0.11151,-1.10618 0.54594,-1.25348 1.10715,-0.37558 1.90935,1.56978 3.07413,1.68081 1.27217,0.12136 2.47338,-1.66569 3.64877,-1.16802 0.32301,0.13675 0.20285,0.70255 0.45963,0.94009 0.95841,0.88647 2.3392,1.50603 3.64862,1.4529 0.66328,-0.027 1.11747,-0.8792 1.7813,-0.88313 1.07505,-0.007 1.85579,1.14957 2.90176,1.39593 1.26726,0.29845 2.61272,-0.0862 3.90732,0.057 0.73914,0.0818 1.55428,0.84928 2.18342,0.4558 0.27501,-0.17202 -0.0531,-0.78196 0.22975,-0.9401 1.1297,-0.63044 2.41533,1.05186 3.70627,1.168 0.98071,0.0881 1.97501,-0.60619 2.93057,-0.37035 0.38677,0.0955 0.59571,0.56783 0.97676,0.68374 0.94319,0.28689 1.98806,0.11502 2.95912,-0.057 1.17768,-0.20876 2.19442,-1.12989 3.3902,-1.168 1.29121,-0.0411 2.45585,0.84631 3.73495,1.02556 0.89141,0.12501 1.82752,0.24616 2.70055,0.0285 0.9436,-0.23525 1.60959,-1.17583 2.55686,-1.39591 0.86801,-0.20164 1.79625,0.27934 2.67201,0.11381 1.6172,-0.30541 2.93914,-2.48021 4.51066,-1.99418 0.24619,0.0762 0.17021,0.54363 0.40226,0.65522 1.71835,0.82676 3.84643,-0.18268 5.6885,-0.6837 1.09992,-0.29919 2.00981,-1.16226 3.13149,-1.36742 0.37725,-0.069 0.80846,0.23161 1.14929,0.057 0.33279,-0.17055 0.30492,-0.71562 0.60331,-0.94011 0.60577,-0.45571 1.5007,-0.98719 2.18343,-0.65523 0.31294,0.1522 0.10881,0.74401 0.37343,0.9686 0.24552,0.20817 0.62562,0.21923 0.94808,0.19942 1.37536,-0.0845 2.58866,-1.73558 3.90734,-1.33894 0.33361,0.10031 0.31363,0.6857 0.63214,0.82615 0.41274,0.18202 0.947,0.088 1.35022,-0.11394 0.55737,-0.2791 0.72104,-1.04522 1.23547,-1.3959 0.38702,-0.26384 0.8612,-0.57663 1.32151,-0.48432 0.20597,0.0413 0.25477,0.38226 0.45977,0.42733 1.20025,0.26386 2.40921,-0.58639 3.50493,-1.13952 1.47338,-0.74374 3.01322,-1.57877 4.02221,-2.8773 0.32573,-0.41909 0.1702,-1.13632 0.57465,-1.48139 0.63935,-0.5455 1.9538,0.11948 2.47079,-0.54127 0.17633,-0.22522 -0.2288,-0.64974 -0.0284,-0.85465 0.27297,-0.27988 0.84612,0.2081 1.17782,0 0.52869,-0.33143 0.2859,-1.3341 0.80452,-1.6808 0.40567,-0.27121 0.9954,0.0498 1.46523,-0.0855 1.15676,-0.33302 1.99948,-1.41874 3.16032,-1.73778 0.53561,-0.1472 1.16382,0.17851 1.66641,-0.057 0.48464,-0.22712 0.55561,-1.02487 1.06295,-1.19651 1.38474,-0.46847 2.85757,1.00622 4.30947,0.82618 0.53562,-0.0666 0.92972,-0.61597 1.46521,-0.68372 0.97636,-0.12366 1.91778,0.52154 2.90176,0.54127 1.12263,0.0225 2.21019,-0.50492 3.33269,-0.4843 0.63296,0.0122 1.23601,0.3855 1.86735,0.34185 2.0242,-0.13991 4.0105,-0.91495 5.7748,-1.90869 0.63771,-0.35918 0.96168,-1.22307 1.66641,-1.42441 0.61433,-0.17552 1.28401,0.4674 1.89618,0.28487 0.38308,-0.11407 0.51346,-0.66554 0.8907,-0.79766 0.48819,-0.17106 1.04556,0.19616 1.55127,0.0855 0.4769,-0.10435 0.98438,-0.30817 1.29284,-0.68371 0.21424,-0.26095 0,-0.78309 0.28725,-0.9686 0.68394,-0.44799 1.65513,0.51206 2.44212,0.28488 0.64058,-0.18489 0.89955,-1.11353 1.55155,-1.25347 0.18379,-0.0396 0.36528,0.19494 0.54581,0.14244 0.61136,-0.17781 0.68788,-1.19766 1.29284,-1.39593 0.67592,-0.22151 1.38582,0.4215 2.09736,0.39885 0.80072,-0.0256 1.66751,-0.14671 2.32697,-0.59824 0.39574,-0.27103 0.50341,-0.82099 0.83321,-1.16804 0.37861,-0.39821 0.78101,-0.82104 1.29284,-1.02555 1.2666,-0.50608 2.80129,0.10584 4.07971,-0.37036 1.45068,-0.5404 2.24963,-2.3785 3.7635,-2.70637 0.33404,-0.0724 0.70503,0.36086 1.00559,0.1994 0.27218,-0.14613 0.0869,-0.6847 0.34477,-0.85464 0.48654,-0.32083 1.24117,0.30854 1.7526,0.0284 0.87277,-0.47786 0.57315,-2.34492 1.55141,-2.53546 0.31579,-0.0615 0.4546,0.54861 0.77569,0.56978 0.82981,0.0545 1.55331,-0.65846 2.18357,-1.1965 0.70391,-0.60109 0.79567,-1.96305 1.69509,-2.19359 0.39452,-0.10112 0.71547,0.44015 1.12033,0.4843 0.6982,0.0762 1.49076,-0.003 2.06853,-0.39885 0.31485,-0.21576 0.28072,-0.76448 0.60347,-0.96857 0.8211,-0.51948 1.9818,-0.0245 2.90174,-0.34187 0.69019,-0.23825 1.33159,-0.6467 1.86749,-1.13953 1.10115,-1.01264 2.10945,-2.22599 2.64317,-3.61799 0.10192,-0.26761 -0.0584,-0.60714 0.0856,-0.85465 0.36598,-0.62413 1.34913,-0.6724 1.78115,-1.25347 0.38284,-0.51482 0.19346,-1.3294 0.60346,-1.82324 0.69755,-0.84031 2.18287,-0.749 2.87294,-1.59534 0.42851,-0.52553 0.57585,-1.26191 0.60333,-1.93719 0.015,-0.34991 -0.37834,-0.7079 -0.22976,-1.02558 0.18203,-0.38917 0.72718,-0.50342 1.14915,-0.59823 0.49538,-0.11138 1.06595,-0.16328 1.52271,0.057 0.51946,0.25047 0.58471,1.09685 1.12047,1.31046 0.7772,0.30981 1.7904,0.18557 2.4995,-0.25639 0.37126,-0.23139 0.25094,-1.10518 0.6895,-1.11102 0.56036,-0.008 0.36012,1.35931 0.9194,1.3959 0.63011,0.0413 0.61053,-1.51554 1.23533,-1.42441 0.37331,0.0545 0.125,0.85293 0.45976,1.02557 0.79637,0.41083 1.8721,-0.0566 2.64318,-0.51278 0.95828,-0.5669 1.09287,-2.14585 2.12605,-2.56392 0.65988,-0.26708 1.46522,0.4928 2.12604,0.2279 0.41586,-0.16678 0.43707,-0.88192 0.86176,-1.02559 0.25069,-0.0848 0.51823,0.23287 0.77571,0.17096 0.7269,-0.1749 0.97839,-1.48505 1.72378,-1.42442 0.27746,0.0226 0.29282,0.51185 0.54597,0.62673 0.53112,0.24105 1.20814,0.21012 1.75259,0 1.17484,-0.45347 1.72447,-1.86233 2.78674,-2.53545 0.73439,-0.4653 1.81718,-0.36681 2.41344,-0.99709 0.68556,-0.72498 0.0545,-2.43082 0.97662,-2.82032 0.54405,-0.22973 1.03007,0.86015 1.60892,0.74069 0.8899,-0.18364 1.44346,-1.19782 1.80998,-2.02265 0.4077,-0.91742 -0.35062,-2.23751 0.31607,-2.99126 0.94807,-1.07191 2.98087,-0.23293 4.19472,-0.99709 0.46588,-0.29331 0.56702,-0.99061 1.03414,-1.28197 1.18978,-0.74196 2.74351,-1.27259 4.1084,-0.94008 0.34298,0.0835 0.45663,0.62275 0.80438,0.68371 0.72513,0.12703 1.59653,-0.20878 2.06854,-0.76918 0.27461,-0.32591 -0.11151,-0.99754 0.22988,-1.25349 0.31485,-0.23574 0.89588,0.38745 1.17796,0.11394 0.27462,-0.2663 -0.33972,-0.85333 -0.0856,-1.13952 0.34816,-0.39295 1.19251,0.26933 1.58023,-0.0854 0.26265,-0.24048 -0.15566,-0.86003 0.14356,-1.05405 0.29187,-0.18916 0.67742,0.40146 1.00559,0.28488 0.46018,-0.16349 0.39926,-0.97356 0.83321,-1.19651 0.80778,-0.41496 1.90676,-0.35714 2.72922,0.0285 0.35034,0.16423 0.38772,0.73919 0.74703,0.88312 0.33931,0.13592 0.76142,0.0422 1.09177,-0.11394 0.34218,-0.16191 0.48492,-0.59511 0.80439,-0.79768 0.74797,-0.47424 1.61611,-0.82556 2.49963,-0.91163 0.54989,-0.0535 1.1093,0.41733 1.63758,0.25639 0.99092,-0.30186 1.94538,-1.13184 2.26948,-2.10813 0.14926,-0.44933 -0.44917,-0.96225 -0.25844,-1.39591 0.19958,-0.45397 0.76755,-0.8517 1.26402,-0.79765 0.44427,0.0483 0.75612,0.53994 0.94822,0.9401 0.11961,0.24998 -0.13595,0.65802 0.0856,0.82616 0.47037,0.35648 1.21916,-0.0305 1.7526,-0.28489 0.59286,-0.28262 0.89426,-0.98684 1.46537,-1.31046 0.30492,-0.17285 0.88295,0.0137 1.00545,-0.31334 0.0829,-0.21985 -0.44904,-0.376 -0.37346,-0.59829 0.15798,-0.46524 1.10743,-0.12285 1.38637,-0.52831 z"
       id="path1"
       sodipodi:nodetypes="ssssssssssssssssssssssssssssssssssssssssssssssssssssssssssssssssssssssssssssssssssssssssssssssssssssssssssssssssssssssssssssssssssssssssssssssssssssssssssssssssssssssssssssssssssssssssssssssssssssssssssssssssssssssssssssssssssssssssssssssssssssssssssssssssssssssssssssssssssssssssssssssssssssssssssssssssssssssssssssssssssssssssssssssssssssssssssssssssssssssssssssssssssssssssssssssssssssssssssssssssssssssssssssssssssssssssssssssssssssssssssssssssssssssssssssssssssssssssssssssssssssssssssssssssssssssscs" /><g
       id="g112"
       style="fill:#008000;fill-opacity:1;stroke:none;stroke-opacity:1"
       transform="matrix(1.3499997,0,0,1.3499997,-150.65094,-248.52917)"><g
         id="g54"
         transform="translate(-580.15802,21.74632)"
         style="fill:#008000;fill-opacity:1;stroke:none;stroke-opacity:1"><g
           id="g52"
           transform="matrix(0.07078696,-0.26418054,0.26418054,0.07078696,860.97859,860.89568)"
           style="fill:#008000;fill-opacity:1;stroke:none;stroke-opacity:1"><path
             style="fill:#008000;fill-opacity:1;stroke:none;stroke-width:7.937;stroke-linecap:round;stroke-linejoin:round;stroke-miterlimit:3.9;stroke-opacity:1"
             d="m 441.19935,128.24317 c 0,-22.8774 -9.96296,-44.889876 -12.80259,-55.48751 -2.83963,10.597634 -12.80259,32.61011 -12.80259,55.48751 0,19.34081 12.80259,31.61198 12.80259,31.61198 0,0 12.80259,-12.27117 12.80259,-31.61198 z"
             id="path2"
             sodipodi:nodetypes="scscs"
             inkscape:transform-center-x="0.36126755"
             inkscape:transform-center-y="8.0000143" /><path
             id="path6"
             style="fill:#008000;fill-opacity:1;stroke:none;stroke-width:0.525297;stroke-linecap:round;stroke-linejoin:round;stroke-miterlimit:3.9;stroke-opacity:1"
             d="m 410.77117,108.65498 a 8.8026152,8.8026152 0 0 1 -9.1782,8.41027 8.8026152,8.8026152 0 0 1 -8.41027,-9.1782 8.8026152,8.8026152 0 0 1 9.1782,-8.410291 8.8026152,8.8026152 0 0 1 8.41027,9.178221 z"
             inkscape:transform-center-x="4.3539789"
             inkscape:transform-center-y="13.809056" /><path
             id="path7"
             style="fill:#008000;fill-opacity:1;stroke:none;stroke-width:0.525297;stroke-linecap:round;stroke-linejoin:round;stroke-miterlimit:3.9;stroke-opacity:1"
             d="m 446.07274,110.19628 a 8.8026152,8.8026152 0 0 0 8.41026,9.1782 8.8026152,8.8026152 0 0 0 9.17821,-8.41028 8.8026152,8.8026152 0 0 0 -8.41027,-9.17821 8.8026152,8.8026152 0 0 0 -9.1782,8.41029 z" /><path
             style="fill:#008000;fill-opacity:1;stroke:none;stroke-width:7.937;stroke-linecap:round;stroke-linejoin:round;stroke-miterlimit:3.9;stroke-opacity:1"
             d="m 447.13005,28.395816 c 2.9861,-22.6816806 -4.01842,-45.806265 -5.45048,-56.683879 -4.19861,10.136324 -16.94954,30.6600518 -19.93564,53.341732 -2.52448,19.175347 8.56686,33.012605 8.56686,33.012605 0,0 14.29478,-10.495112 16.81926,-29.670458 z"
             id="path8"
             sodipodi:nodetypes="scscs"
             inkscape:transform-center-x="1.3238342"
             inkscape:transform-center-y="7.7104965" /><path
             style="fill:#008000;fill-opacity:1;stroke:none;stroke-width:7.937;stroke-linecap:round;stroke-linejoin:round;stroke-miterlimit:3.9;stroke-opacity:1"
             d="m 419.08235,60.714479 c -3.97263,-22.529835 -17.60667,-42.477841 -22.2434,-52.4213965 -0.95624,10.9297405 -6.9454,34.3378465 -2.97278,56.8676975 3.3585,19.046968 18.98802,31.733147 18.98802,31.733147 0,0 9.58664,-17.132467 6.22816,-36.179448 z"
             id="path9"
             sodipodi:nodetypes="scscs"
             inkscape:transform-center-x="18.859759"
             inkscape:transform-center-y="9.3911847" /><path
             id="path11"
             style="fill:#008000;fill-opacity:1;stroke:none;stroke-width:0.525297;stroke-linecap:round;stroke-linejoin:round;stroke-miterlimit:3.9;stroke-opacity:1"
             d="m 419.22602,6.9068377 a 8.8026152,8.8026152 0 0 1 -9.87629,7.5783403 8.8026152,8.8026152 0 0 1 -7.57833,-9.8762847 8.8026152,8.8026152 0 0 1 9.87628,-7.5783503 8.8026152,8.8026152 0 0 1 7.57834,9.8762947 z"
             inkscape:transform-center-x="5.5409488"
             inkscape:transform-center-y="13.377035" /><path
             id="path12"
             style="fill:#008000;fill-opacity:1;stroke:none;stroke-width:0.525297;stroke-linecap:round;stroke-linejoin:round;stroke-miterlimit:3.9;stroke-opacity:1"
             d="m 454.25892,11.519006 a 8.8026152,8.8026152 0 0 0 7.57833,9.876284 8.8026152,8.8026152 0 0 0 9.87628,-7.57834 8.8026152,8.8026152 0 0 0 -7.57835,-9.876296 8.8026152,8.8026152 0 0 0 -9.87626,7.578352 z" /><path
             style="fill:#008000;fill-opacity:1;stroke:none;stroke-width:7.937;stroke-linecap:round;stroke-linejoin:round;stroke-miterlimit:3.9;stroke-opacity:1"
             d="m 465.52417,-69.446586 c 5.92109,-22.097875 1.99493,-45.938894 1.99488,-56.910384 -5.48576,9.50158 -20.80648,28.185402 -26.72758,50.283277 -5.00578,18.681784 4.18458,33.848377 4.18458,33.848377 0,0 15.54235,-8.539483 20.54812,-27.22127 z"
             id="path14"
             sodipodi:nodetypes="scscs"
             inkscape:transform-center-x="2.2637486"
             inkscape:transform-center-y="7.2259359" /><path
             id="path17"
             style="fill:#008000;fill-opacity:1;stroke:none;stroke-width:0.525297;stroke-linecap:round;stroke-linejoin:round;stroke-miterlimit:3.9;stroke-opacity:1"
             d="m 440.66373,-94.393933 a 8.8026152,8.8026152 0 0 1 -10.78095,6.224397 8.8026152,8.8026152 0 0 1 -6.2244,-10.780965 8.8026152,8.8026152 0 0 1 10.78097,-6.224399 8.8026152,8.8026152 0 0 1 6.22438,10.780967 z"
             inkscape:transform-center-x="7.2395981"
             inkscape:transform-center-y="12.539353" /><path
             id="path18"
             style="fill:#008000;fill-opacity:1;stroke:none;stroke-width:0.525297;stroke-linecap:round;stroke-linejoin:round;stroke-miterlimit:3.9;stroke-opacity:1"
             d="m 474.7949,-85.248511 a 8.8026152,8.8026152 0 0 0 6.22439,10.780963 8.8026152,8.8026152 0 0 0 10.78097,-6.224394 8.8026152,8.8026152 0 0 0 -6.22438,-10.780971 8.8026152,8.8026152 0 0 0 -10.78098,6.224402 z" /><path
             style="fill:#008000;fill-opacity:1;stroke:none;stroke-width:7.937;stroke-linecap:round;stroke-linejoin:round;stroke-miterlimit:3.9;stroke-opacity:1"
             d="m 500.14443,-160.01775 c 10.5636,-20.29249 11.89051,-44.41818 14.26523,-55.1296 -7.41222,8.08904 -26.4137,23.01395 -36.97732,43.30645 -8.93059,17.15552 -3.24074,33.95176 -3.24074,33.95176 0,0 17.02223,-4.97308 25.95283,-22.12861 z"
             id="path20"
             sodipodi:nodetypes="scscs"
             inkscape:transform-center-x="8.7816009"
             inkscape:transform-center-y="-8.0433383" /><path
             style="fill:#008000;fill-opacity:1;stroke:none;stroke-width:7.937;stroke-linecap:round;stroke-linejoin:round;stroke-miterlimit:3.9;stroke-opacity:1"
             d="m 445.14093,62.99431 c 7.82455,-21.497717 24.71539,-38.775141 31.00835,-47.762472 -0.95621,10.929742 0.87719,35.022235 -6.94734,56.519968 -6.61495,18.174404 -24.20996,27.953812 -24.20996,27.953812 0,0 -6.46597,-18.536887 0.14895,-36.711308 z"
             id="path23"
             sodipodi:nodetypes="scscs"
             inkscape:transform-center-x="13.627282"
             inkscape:transform-center-y="-5.2579118" /><path
             style="fill:#008000;fill-opacity:1;stroke:none;stroke-width:7.937;stroke-linecap:round;stroke-linejoin:round;stroke-miterlimit:3.9;stroke-opacity:1"
             d="m 415.3177,162.27038 c -5.92112,-22.09786 -21.24186,-40.78167 -26.72758,-50.28327 -1e-5,10.97149 -3.92624,34.81251 1.99487,56.91039 5.00577,18.68178 21.6815,29.95748 21.6815,29.95748 0,0 8.05696,-17.9028 3.05121,-36.5846 z"
             id="path25"
             sodipodi:nodetypes="scscs" /><path
             style="fill:#008000;fill-opacity:1;stroke:none;stroke-width:7.937;stroke-linecap:round;stroke-linejoin:round;stroke-miterlimit:3.9;stroke-opacity:1"
             d="m 441.47582,162.27038 c 5.92112,-22.09786 21.24186,-40.78167 26.72758,-50.28327 1e-5,10.97149 3.92624,34.81251 -1.99487,56.91039 -5.00577,18.68178 -21.6815,29.95748 -21.6815,29.95748 0,0 -8.05696,-17.9028 -3.05121,-36.5846 z"
             id="path26"
             sodipodi:nodetypes="scscs" /><path
             style="fill:#008000;fill-opacity:1;stroke:none;stroke-width:7.937;stroke-linecap:round;stroke-linejoin:round;stroke-miterlimit:3.9;stroke-opacity:1"
             d="m 433.49799,-41.065379 c -0.99791,-22.855621 -11.91158,-44.412569 -15.21073,-54.876267 -2.37467,10.711419 -11.368,33.137521 -10.37009,55.993159 0.84364,19.322388 14.68358,33.9400996 14.68358,33.9400996 0,0 11.74086,-15.7345886 10.89724,-35.0569916 z"
             id="path28"
             sodipodi:nodetypes="scscs"
             inkscape:transform-center-x="19.824674"
             inkscape:transform-center-y="7.2516086" /><path
             style="fill:#008000;fill-opacity:1;stroke:none;stroke-width:7.937;stroke-linecap:round;stroke-linejoin:round;stroke-miterlimit:3.9;stroke-opacity:1"
             d="m 459.03607,-35.403723 c 10.56361,-20.292492 29.56511,-35.217411 36.97731,-43.306458 -2.37466,10.711425 -3.70162,34.837115 -14.26523,55.129623 -8.9306,17.1554962 -27.65157,24.55462806 -27.65157,24.55462806 0,0 -3.9911,-19.22228206 4.93949,-36.37779306 z"
             id="path29"
             sodipodi:nodetypes="scscs"
             inkscape:transform-center-x="12.760505"
             inkscape:transform-center-y="-6.836409" /><path
             style="fill:#008000;fill-opacity:1;stroke:none;stroke-width:7.937;stroke-linecap:round;stroke-linejoin:round;stroke-miterlimit:3.9;stroke-opacity:1"
             d="m 461.07524,-140.09288 c 1.99388,-22.79032 -6.01266,-45.58738 -7.91781,-56.39219 -3.75249,10.30984 -15.59605,31.3702 -17.58994,54.16055 -1.68566,19.26722 10.12787,35.56634 10.12787,35.56634 0,0 13.69421,-14.06748 15.37988,-33.3347 z"
             id="path31"
             sodipodi:nodetypes="scscs"
             inkscape:transform-center-x="20.534001"
             inkscape:transform-center-y="4.5500016" /><path
             style="fill:#008000;fill-opacity:1;stroke:none;stroke-width:7.937;stroke-linecap:round;stroke-linejoin:round;stroke-miterlimit:3.9;stroke-opacity:1"
             d="m 487.19172,-130.69184 c 13.9269,-18.14983 35.23141,-29.54844 43.93565,-36.22749 -4.19859,10.13636 -9.6948,33.66508 -23.62167,51.81495 -11.77394,15.344094 -31.49534,19.379958 -31.49534,19.379958 0,0 -0.59256,-19.623288 11.18136,-34.967418 z"
             id="path32"
             sodipodi:nodetypes="scscs"
             inkscape:transform-center-x="7.4486049"
             inkscape:transform-center-y="-9.8002564" /><path
             style="fill:#008000;fill-opacity:1;stroke:none;stroke-width:6.22461;stroke-linecap:round;stroke-linejoin:round;stroke-miterlimit:3.9;stroke-opacity:1"
             d="m 380.70427,290.78001 c 12.01385,-9.77602 20.44767,-17.88354 26.71363,-30.20559 24.2389,-47.66591 20.97886,-91.04527 20.97886,-91.04527 0,0 11.13202,57.05618 -3.69225,102.65026 -3.64584,11.21327 -12.62621,26.89175 -21.33596,34.33688 -2.63029,-9.0623 -10.39433,-15.91724 -22.66428,-15.73628 z"
             id="path33"
             sodipodi:nodetypes="cscscc" /></g></g><g
         id="g111"
         transform="matrix(-1,0,0,1,1332.3307,21.74632)"
         style="fill:#008000;fill-opacity:1;stroke:none;stroke-opacity:1"><g
           id="g110"
           transform="matrix(0.07078696,-0.26418054,0.26418054,0.07078696,860.97859,860.89568)"
           style="fill:#008000;fill-opacity:1;stroke:none;stroke-opacity:1"><path
             style="fill:#008000;fill-opacity:1;stroke:none;stroke-width:7.937;stroke-linecap:round;stroke-linejoin:round;stroke-miterlimit:3.9;stroke-opacity:1"
             d="m 441.19935,128.24317 c 0,-22.8774 -9.96296,-44.889876 -12.80259,-55.48751 -2.83963,10.597634 -12.80259,32.61011 -12.80259,55.48751 0,19.34081 12.80259,31.61198 12.80259,31.61198 0,0 12.80259,-12.27117 12.80259,-31.61198 z"
             id="path92"
             sodipodi:nodetypes="scscs"
             inkscape:transform-center-x="0.36126755"
             inkscape:transform-center-y="8.0000143" /><path
             id="path93"
             style="fill:#008000;fill-opacity:1;stroke:none;stroke-width:0.525297;stroke-linecap:round;stroke-linejoin:round;stroke-miterlimit:3.9;stroke-opacity:1"
             d="m 410.77117,108.65498 a 8.8026152,8.8026152 0 0 1 -9.1782,8.41027 8.8026152,8.8026152 0 0 1 -8.41027,-9.1782 8.8026152,8.8026152 0 0 1 9.1782,-8.410291 8.8026152,8.8026152 0 0 1 8.41027,9.178221 z"
             inkscape:transform-center-x="4.3539789"
             inkscape:transform-center-y="13.809056" /><path
             id="path94"
             style="fill:#008000;fill-opacity:1;stroke:none;stroke-width:0.525297;stroke-linecap:round;stroke-linejoin:round;stroke-miterlimit:3.9;stroke-opacity:1"
             d="m 446.07274,110.19628 a 8.8026152,8.8026152 0 0 0 8.41026,9.1782 8.8026152,8.8026152 0 0 0 9.17821,-8.41028 8.8026152,8.8026152 0 0 0 -8.41027,-9.17821 8.8026152,8.8026152 0 0 0 -9.1782,8.41029 z" /><path
             style="fill:#008000;fill-opacity:1;stroke:none;stroke-width:7.937;stroke-linecap:round;stroke-linejoin:round;stroke-miterlimit:3.9;stroke-opacity:1"
             d="m 447.13005,28.395816 c 2.9861,-22.6816806 -4.01842,-45.806265 -5.45048,-56.683879 -4.19861,10.136324 -16.94954,30.6600518 -19.93564,53.341732 -2.52448,19.175347 8.56686,33.012605 8.56686,33.012605 0,0 14.29478,-10.495112 16.81926,-29.670458 z"
             id="path95"
             sodipodi:nodetypes="scscs"
             inkscape:transform-center-x="1.3238342"
             inkscape:transform-center-y="7.7104965" /><path
             style="fill:#008000;fill-opacity:1;stroke:none;stroke-width:7.937;stroke-linecap:round;stroke-linejoin:round;stroke-miterlimit:3.9;stroke-opacity:1"
             d="m 419.08235,60.714479 c -3.97263,-22.529835 -17.60667,-42.477841 -22.2434,-52.4213965 -0.95624,10.9297405 -6.9454,34.3378465 -2.97278,56.8676975 3.3585,19.046968 18.98802,31.733147 18.98802,31.733147 0,0 9.58664,-17.132467 6.22816,-36.179448 z"
             id="path96"
             sodipodi:nodetypes="scscs"
             inkscape:transform-center-x="18.859759"
             inkscape:transform-center-y="9.3911847" /><path
             id="path97"
             style="fill:#008000;fill-opacity:1;stroke:none;stroke-width:0.525297;stroke-linecap:round;stroke-linejoin:round;stroke-miterlimit:3.9;stroke-opacity:1"
             d="m 419.22602,6.9068377 a 8.8026152,8.8026152 0 0 1 -9.87629,7.5783403 8.8026152,8.8026152 0 0 1 -7.57833,-9.8762847 8.8026152,8.8026152 0 0 1 9.87628,-7.5783503 8.8026152,8.8026152 0 0 1 7.57834,9.8762947 z"
             inkscape:transform-center-x="5.5409488"
             inkscape:transform-center-y="13.377035" /><path
             id="path98"
             style="fill:#008000;fill-opacity:1;stroke:none;stroke-width:0.525297;stroke-linecap:round;stroke-linejoin:round;stroke-miterlimit:3.9;stroke-opacity:1"
             d="m 454.25892,11.519006 a 8.8026152,8.8026152 0 0 0 7.57833,9.876284 8.8026152,8.8026152 0 0 0 9.87628,-7.57834 8.8026152,8.8026152 0 0 0 -7.57835,-9.876296 8.8026152,8.8026152 0 0 0 -9.87626,7.578352 z" /><path
             style="fill:#008000;fill-opacity:1;stroke:none;stroke-width:7.937;stroke-linecap:round;stroke-linejoin:round;stroke-miterlimit:3.9;stroke-opacity:1"
             d="m 465.52417,-69.446586 c 5.92109,-22.097875 1.99493,-45.938894 1.99488,-56.910384 -5.48576,9.50158 -20.80648,28.185402 -26.72758,50.283277 -5.00578,18.681784 4.18458,33.848377 4.18458,33.848377 0,0 15.54235,-8.539483 20.54812,-27.22127 z"
             id="path99"
             sodipodi:nodetypes="scscs"
             inkscape:transform-center-x="2.2637486"
             inkscape:transform-center-y="7.2259359" /><path
             id="path100"
             style="fill:#008000;fill-opacity:1;stroke:none;stroke-width:0.525297;stroke-linecap:round;stroke-linejoin:round;stroke-miterlimit:3.9;stroke-opacity:1"
             d="m 440.66373,-94.393933 a 8.8026152,8.8026152 0 0 1 -10.78095,6.224397 8.8026152,8.8026152 0 0 1 -6.2244,-10.780965 8.8026152,8.8026152 0 0 1 10.78097,-6.224399 8.8026152,8.8026152 0 0 1 6.22438,10.780967 z"
             inkscape:transform-center-x="7.2395981"
             inkscape:transform-center-y="12.539353" /><path
             id="path101"
             style="fill:#008000;fill-opacity:1;stroke:none;stroke-width:0.525297;stroke-linecap:round;stroke-linejoin:round;stroke-miterlimit:3.9;stroke-opacity:1"
             d="m 474.7949,-85.248511 a 8.8026152,8.8026152 0 0 0 6.22439,10.780963 8.8026152,8.8026152 0 0 0 10.78097,-6.224394 8.8026152,8.8026152 0 0 0 -6.22438,-10.780971 8.8026152,8.8026152 0 0 0 -10.78098,6.224402 z" /><path
             style="fill:#008000;fill-opacity:1;stroke:none;stroke-width:7.937;stroke-linecap:round;stroke-linejoin:round;stroke-miterlimit:3.9;stroke-opacity:1"
             d="m 500.14443,-160.01775 c 10.5636,-20.29249 11.89051,-44.41818 14.26523,-55.1296 -7.41222,8.08904 -26.4137,23.01395 -36.97732,43.30645 -8.93059,17.15552 -3.24074,33.95176 -3.24074,33.95176 0,0 17.02223,-4.97308 25.95283,-22.12861 z"
             id="path102"
             sodipodi:nodetypes="scscs"
             inkscape:transform-center-x="8.7816009"
             inkscape:transform-center-y="-8.0433383" /><path
             style="fill:#008000;fill-opacity:1;stroke:none;stroke-width:7.937;stroke-linecap:round;stroke-linejoin:round;stroke-miterlimit:3.9;stroke-opacity:1"
             d="m 445.14093,62.99431 c 7.82455,-21.497717 24.71539,-38.775141 31.00835,-47.762472 -0.95621,10.929742 0.87719,35.022235 -6.94734,56.519968 -6.61495,18.174404 -24.20996,27.953812 -24.20996,27.953812 0,0 -6.46597,-18.536887 0.14895,-36.711308 z"
             id="path103"
             sodipodi:nodetypes="scscs"
             inkscape:transform-center-x="13.627282"
             inkscape:transform-center-y="-5.2579118" /><path
             style="fill:#008000;fill-opacity:1;stroke:none;stroke-width:7.937;stroke-linecap:round;stroke-linejoin:round;stroke-miterlimit:3.9;stroke-opacity:1"
             d="m 415.3177,162.27038 c -5.92112,-22.09786 -21.24186,-40.78167 -26.72758,-50.28327 -1e-5,10.97149 -3.92624,34.81251 1.99487,56.91039 5.00577,18.68178 21.6815,29.95748 21.6815,29.95748 0,0 8.05696,-17.9028 3.05121,-36.5846 z"
             id="path104"
             sodipodi:nodetypes="scscs" /><path
             style="fill:#008000;fill-opacity:1;stroke:none;stroke-width:7.937;stroke-linecap:round;stroke-linejoin:round;stroke-miterlimit:3.9;stroke-opacity:1"
             d="m 441.47582,162.27038 c 5.92112,-22.09786 21.24186,-40.78167 26.72758,-50.28327 1e-5,10.97149 3.92624,34.81251 -1.99487,56.91039 -5.00577,18.68178 -21.6815,29.95748 -21.6815,29.95748 0,0 -8.05696,-17.9028 -3.05121,-36.5846 z"
             id="path105"
             sodipodi:nodetypes="scscs" /><path
             style="fill:#008000;fill-opacity:1;stroke:none;stroke-width:7.937;stroke-linecap:round;stroke-linejoin:round;stroke-miterlimit:3.9;stroke-opacity:1"
             d="m 433.49799,-41.065379 c -0.99791,-22.855621 -11.91158,-44.412569 -15.21073,-54.876267 -2.37467,10.711419 -11.368,33.137521 -10.37009,55.993159 0.84364,19.322388 14.68358,33.9400996 14.68358,33.9400996 0,0 11.74086,-15.7345886 10.89724,-35.0569916 z"
             id="path106"
             sodipodi:nodetypes="scscs"
             inkscape:transform-center-x="19.824674"
             inkscape:transform-center-y="7.2516086" /><path
             style="fill:#008000;fill-opacity:1;stroke:none;stroke-width:7.937;stroke-linecap:round;stroke-linejoin:round;stroke-miterlimit:3.9;stroke-opacity:1"
             d="m 459.03607,-35.403723 c 10.56361,-20.292492 29.56511,-35.217411 36.97731,-43.306458 -2.37466,10.711425 -3.70162,34.837115 -14.26523,55.129623 -8.9306,17.1554962 -27.65157,24.55462806 -27.65157,24.55462806 0,0 -3.9911,-19.22228206 4.93949,-36.37779306 z"
             id="path107"
             sodipodi:nodetypes="scscs"
             inkscape:transform-center-x="12.760505"
             inkscape:transform-center-y="-6.836409" /><path
             style="fill:#008000;fill-opacity:1;stroke:none;stroke-width:7.937;stroke-linecap:round;stroke-linejoin:round;stroke-miterlimit:3.9;stroke-opacity:1"
             d="m 461.07524,-140.09288 c 1.99388,-22.79032 -6.01266,-45.58738 -7.91781,-56.39219 -3.75249,10.30984 -15.59605,31.3702 -17.58994,54.16055 -1.68566,19.26722 10.12787,35.56634 10.12787,35.56634 0,0 13.69421,-14.06748 15.37988,-33.3347 z"
             id="path108"
             sodipodi:nodetypes="scscs"
             inkscape:transform-center-x="20.534001"
             inkscape:transform-center-y="4.5500016" /><path
             style="fill:#008000;fill-opacity:1;stroke:none;stroke-width:7.937;stroke-linecap:round;stroke-linejoin:round;stroke-miterlimit:3.9;stroke-opacity:1"
             d="m 487.19172,-130.69184 c 13.9269,-18.14983 35.23141,-29.54844 43.93565,-36.22749 -4.19859,10.13636 -9.6948,33.66508 -23.62167,51.81495 -11.77394,15.344094 -31.49534,19.379958 -31.49534,19.379958 0,0 -0.59256,-19.623288 11.18136,-34.967418 z"
             id="path109"
             sodipodi:nodetypes="scscs"
             inkscape:transform-center-x="7.4486049"
             inkscape:transform-center-y="-9.8002564" /><path
             style="fill:#008000;fill-opacity:1;stroke:none;stroke-width:6.22461;stroke-linecap:round;stroke-linejoin:round;stroke-miterlimit:3.9;stroke-opacity:1"
             d="m 380.70427,290.78001 c 12.01385,-9.77602 20.44767,-17.88354 26.71363,-30.20559 24.2389,-47.66591 20.97886,-91.04527 20.97886,-91.04527 0,0 11.13202,57.05618 -3.69225,102.65026 -3.64584,11.21327 -12.62621,26.89175 -21.33596,34.33688 -2.63029,-9.0623 -10.39433,-15.91724 -22.66428,-15.73628 z"
             id="path110"
             sodipodi:nodetypes="cscscc" /></g></g></g><path
       style="fill:#ffffff;fill-opacity:1;stroke:none;stroke-width:0.511668px;stroke-linecap:butt;stroke-linejoin:miter;stroke-opacity:1"
       d="M -0.12198883,418.33036 H -9.6469888 v 476.25 h 9.52499997 z"
       id="path1079"
       inkscape:connector-curvature="0"
       sodipodi:nodetypes="ccccc" /></g></svg>
