<?xml version="1.0" encoding="UTF-8" standalone="no"?>
<!-- Created with Inkscape (http://www.inkscape.org/) -->

<svg
   xmlns:dc="http://purl.org/dc/elements/1.1/"
   xmlns:cc="http://creativecommons.org/ns#"
   xmlns:rdf="http://www.w3.org/1999/02/22-rdf-syntax-ns#"
   xmlns:svg="http://www.w3.org/2000/svg"
   xmlns="http://www.w3.org/2000/svg"
   xmlns:sodipodi="http://sodipodi.sourceforge.net/DTD/sodipodi-0.dtd"
   xmlns:inkscape="http://www.inkscape.org/namespaces/inkscape"
   width="3636"
   height="1800"
   viewBox="0 0 962.025 476.25001"
   version="1.1"
   id="svg8"
   inkscape:export-filename="C:\Users\厂永刄先生\Documents\GXI3CW2\JáÈŭcèŭ\Èŭmen\Í\意軍.png"
   inkscape:export-xdpi="96"
   inkscape:export-ydpi="96"
   inkscape:version="0.92.4 (5da689c313, 2019-01-14)"
   sodipodi:docname="KA1.svg">
  <defs
     id="defs2" />
  <sodipodi:namedview
     id="base"
     pagecolor="#ffffff"
     bordercolor="#666666"
     borderopacity="1.0"
     inkscape:pageopacity="0.0"
     inkscape:pageshadow="2"
     inkscape:zoom="0.23540763"
     inkscape:cx="1627.8095"
     inkscape:cy="899.99999"
     inkscape:document-units="px"
     inkscape:current-layer="layer1"
     showgrid="false"
     units="px"
     fit-margin-top="0"
     fit-margin-left="0"
     fit-margin-right="0"
     fit-margin-bottom="0"
     inkscape:showpageshadow="false"
     inkscape:snap-intersection-paths="false"
     inkscape:object-paths="false"
     inkscape:pagecheckerboard="true"
     inkscape:snap-smooth-nodes="false"
     inkscape:window-width="1366"
     inkscape:window-height="745"
     inkscape:window-x="-8"
     inkscape:window-y="-8"
     inkscape:window-maximized="1"
     inkscape:object-nodes="true"
     inkscape:snap-nodes="true" />
  <metadata
     id="metadata5">
    <rdf:RDF>
      <cc:Work
         rdf:about="">
        <dc:format>image/svg+xml</dc:format>
        <dc:type
           rdf:resource="http://purl.org/dc/dcmitype/StillImage" />
        <dc:title />
      </cc:Work>
    </rdf:RDF>
  </metadata>
  <g
     inkscape:label="レイヤー 1"
     inkscape:groupmode="layer"
     id="layer1"
     transform="translate(112.33452,-299.26786)">
    <g
       id="g832"
       style="fill:#da291c;fill-opacity:1">
      <path
         sodipodi:nodetypes="ccccc"
         inkscape:connector-curvature="0"
         id="path1079"
         d="m -102.80952,299.26786 h -9.525 v 476.25 h 9.525 z"
         style="fill:#ffffff;fill-opacity:1;stroke:none;stroke-width:0.51166773px;stroke-linecap:butt;stroke-linejoin:miter;stroke-opacity:1" />
      <path
         style="fill:#da291c;fill-opacity:1;stroke:none;stroke-width:2.55833864px;stroke-linecap:butt;stroke-linejoin:miter;stroke-opacity:1"
         d="m 135.31548,299.26786 h -238.125 v 476.25 h 238.125 z"
         id="path880"
         inkscape:connector-curvature="0"
         sodipodi:nodetypes="ccccc" />
      <path
         sodipodi:nodetypes="ccccc"
         inkscape:connector-curvature="0"
         id="path882"
         d="M 611.56547,299.26786 H 135.31548 v 476.25 h 476.24999 z"
         style="fill:#ffffff;fill-opacity:1;stroke:none;stroke-width:2.55833864px;stroke-linecap:butt;stroke-linejoin:miter;stroke-opacity:1" />
      <path
         style="fill:#da291c;fill-opacity:1;stroke:none;stroke-width:2.55833864px;stroke-linecap:butt;stroke-linejoin:miter;stroke-opacity:1"
         d="m 849.69047,299.26786 h -238.125 v 476.25 h 238.125 z"
         id="path884"
         inkscape:connector-curvature="0"
         sodipodi:nodetypes="ccccc" />
      <path
         sodipodi:nodetypes="csscsscsscsscsscsscsscsscsscsscsscsscc"
         inkscape:connector-curvature="0"
         id="path823"
         d="M 382.37017,738.80692 377.883,653.19008 c -0.25739,-4.91118 6.20679,-10.63002 11.04999,-9.77603 l 85.21452,15.02569 -11.55651,-31.75051 c -0.85339,-2.34463 0.0627,-5.64242 2.00174,-7.2127 l 93.39462,-75.63445 -20.99569,-9.79042 c -2.58198,-1.204 -4.28852,-5.1283 -3.40817,-7.83777 l 18.45072,-56.78587 -53.7582,11.42652 c -2.67495,0.56857 -6.20865,-1.27085 -7.2772,-3.78816 l -10.4021,-24.50555 -41.9849,45.02299 c -2.81856,3.02251 -11.83558,-1.57184 -11.04702,-5.62869 l 20.28974,-104.38258 -32.47281,18.74837 c -2.7009,1.55938 -7.55498,0.12125 -8.97086,-2.65757 l -32.97039,-64.70799 -32.97039,64.70799 c -1.41588,2.77882 -6.26996,4.21695 -8.97086,2.65757 l -32.47281,-18.74837 20.28974,104.38258 c 0.78856,4.05685 -8.22846,8.6512 -11.04702,5.62869 l -41.9849,-45.02299 -10.4021,24.50555 c -1.06855,2.51731 -4.60225,4.35673 -7.2772,3.78816 l -53.7582,-11.42652 18.45072,56.78587 c 0.88035,2.70947 -0.82619,6.63377 -3.40817,7.83777 l -20.99569,9.79042 93.39462,75.63445 c 1.93901,1.57028 2.85513,4.86807 2.00174,7.2127 l -11.55651,31.75051 85.21452,-15.02569 c 4.8432,-0.85399 11.30738,4.86485 11.04999,9.77603 l -4.48717,85.61684 z"
         style="fill:#da291c;fill-opacity:1;stroke:none;stroke-width:0.49609372;stroke-linecap:butt;stroke-linejoin:miter;stroke-miterlimit:4;stroke-dasharray:none;stroke-opacity:1" />
    </g>
  </g>
</svg>
