<?xml version="1.0" encoding="UTF-8" standalone="no"?>
<!-- Created with Inkscape (http://www.inkscape.org/) -->

<svg
   width="2736"
   height="1799.998"
   viewBox="0 0 723.89999 476.24949"
   version="1.1"
   id="svg8"
   inkscape:export-filename="C:\Users\厂永刄先生\Documents\GXI3CW2\,pjóŭ\Burundi.png"
   inkscape:export-xdpi="96"
   inkscape:export-ydpi="96"
   inkscape:version="1.3 (0e150ed6c4, 2023-07-21)"
   sodipodi:docname="bi_1966.svg"
   xmlns:inkscape="http://www.inkscape.org/namespaces/inkscape"
   xmlns:sodipodi="http://sodipodi.sourceforge.net/DTD/sodipodi-0.dtd"
   xmlns="http://www.w3.org/2000/svg"
   xmlns:svg="http://www.w3.org/2000/svg"
   xmlns:rdf="http://www.w3.org/1999/02/22-rdf-syntax-ns#"
   xmlns:cc="http://creativecommons.org/ns#"
   xmlns:dc="http://purl.org/dc/elements/1.1/">
  <defs
     id="defs2" />
  <sodipodi:namedview
     id="base"
     pagecolor="#ffffff"
     bordercolor="#666666"
     borderopacity="1.0"
     inkscape:pageopacity="0.0"
     inkscape:pageshadow="2"
     inkscape:zoom="0.35355339"
     inkscape:cx="1313.8044"
     inkscape:cy="1096.0155"
     inkscape:document-units="px"
     inkscape:current-layer="layer1"
     showgrid="false"
     units="px"
     fit-margin-top="0"
     fit-margin-left="0"
     fit-margin-right="0"
     fit-margin-bottom="0"
     inkscape:showpageshadow="false"
     inkscape:snap-intersection-paths="false"
     inkscape:object-paths="false"
     inkscape:pagecheckerboard="true"
     inkscape:snap-smooth-nodes="true"
     inkscape:window-width="1920"
     inkscape:window-height="1009"
     inkscape:window-x="-8"
     inkscape:window-y="-8"
     inkscape:window-maximized="1"
     inkscape:object-nodes="true"
     inkscape:deskcolor="#505050" />
  <metadata
     id="metadata5">
    <rdf:RDF>
      <cc:Work
         rdf:about="">
        <dc:format>image/svg+xml</dc:format>
        <dc:type
           rdf:resource="http://purl.org/dc/dcmitype/StillImage" />
      </cc:Work>
    </rdf:RDF>
  </metadata>
  <g
     inkscape:label="レイヤー 1"
     inkscape:groupmode="layer"
     id="layer1"
     transform="translate(72.64702,-299.26786)">
    <path
       sodipodi:nodetypes="cccc"
       inkscape:connector-curvature="0"
       id="path872"
       d="M 594.01362,775.51735 294.06548,575.55177 -5.8826586,775.51735 Z"
       style="fill:#ff0000;fill-opacity:1;stroke:none;stroke-width:0.47625;stroke-linecap:butt;stroke-linejoin:miter;stroke-dasharray:0.9525, 1.905;stroke-dashoffset:0;stroke-opacity:1;paint-order:normal" />
    <path
       style="fill:#00a800;fill-opacity:1;stroke:none;stroke-width:1.8;stroke-linecap:butt;stroke-linejoin:miter;stroke-dasharray:3.6, 7.2;stroke-dashoffset:0;stroke-opacity:1;paint-order:normal"
       d="M 2886,144.22334 1752.336,900.00001 2886.0001,1655.7749 Z"
       transform="matrix(0.26458333,0,0,0.26458333,-112.33452,299.26786)"
       id="path836"
       inkscape:connector-curvature="0"
       sodipodi:nodetypes="cccc" />
    <path
       style="fill:#00a800;fill-opacity:1;stroke:none;stroke-width:0.47625;stroke-linecap:butt;stroke-linejoin:miter;stroke-dasharray:0.9525, 1.905;stroke-dashoffset:0;stroke-opacity:1;paint-order:normal"
       d="M -63.122,337.42695 236.8266,537.39286 -63.12203,737.3583 Z"
       id="path5"
       inkscape:connector-curvature="0"
       sodipodi:nodetypes="cccc" />
    <path
       sodipodi:nodetypes="cccc"
       inkscape:connector-curvature="0"
       id="path7"
       d="M 594.01362,299.26786 294.06548,499.23344 -5.8826586,299.26786 Z"
       style="fill:#ff0000;fill-opacity:1;stroke:none;stroke-width:0.47625;stroke-linecap:butt;stroke-linejoin:miter;stroke-dasharray:0.9525, 1.905;stroke-dashoffset:0;stroke-opacity:1;paint-order:normal" />
    <path
       id="path17"
       style="fill:#ffffff;fill-opacity:1;stroke:none;stroke-width:0.47625;stroke-linecap:butt;stroke-linejoin:miter;stroke-dasharray:none;stroke-dashoffset:0;stroke-opacity:1;paint-order:normal"
       d="M -5.8826196,299.26786 H -63.122009 l -1.1e-5,38.15891 299.94862,199.96557 -299.94862,199.96609 1.1e-5,38.15892 57.2393894,-10e-6 299.9480996,-199.96557 299.9481,199.96557 h 57.2394 V 737.35843 L 351.30436,537.39286 651.25298,337.42677 l -10e-6,-38.15891 h -57.23939 l -299.9481,199.96557 z"
       sodipodi:nodetypes="ccccccccccccccccc" />
    <path
       style="fill:#ffffff;fill-opacity:1;stroke:none;stroke-width:0.511668px;stroke-linecap:butt;stroke-linejoin:miter;stroke-opacity:1"
       d="m -72.64702,299.26786 h 9.525011 v 476.24949 h -9.525011 z"
       id="path819"
       inkscape:connector-curvature="0"
       sodipodi:nodetypes="ccccc" />
    <circle
       style="fill:#ffffff;fill-opacity:1;stroke:none;stroke-width:0.47625;stroke-linecap:butt;stroke-linejoin:round;stroke-miterlimit:5.2;stroke-dasharray:1.42875, 1.42875;stroke-dashoffset:0;stroke-opacity:1;paint-order:normal"
       id="circle1"
       cx="294.06549"
       cy="537.39258"
       r="134.9375" />
    <g
       id="g15"
       transform="matrix(1.4565981,0,0,1.4565981,-873.45077,-213.7786)">
      <path
         style="opacity:1;fill:#ff0000;stroke-width:63.5;stroke-linejoin:round;stroke-miterlimit:5.2"
         d="m 818.8801,463.03464 c -1.64018,-1.64018 -3.86273,-2.62996 -8.14954,1.65685 0.98809,-3.68761 1.96068,-4.70013 2.33614,-9.75986 0.0853,-1.14894 -0.39575,-2.94883 -0.21947,-4.19691 -1.0045,0.57995 -1.88549,0.47126 -2.68584,0.82869 -1.47691,0.65958 -2.02706,1.83369 -2.87041,2.67704 0,-7.37218 -5.01637,-11.99512 -5.75468,-14.75052 -0.73831,2.7554 -5.75468,7.37834 -5.75468,14.75052 -0.84335,-0.84335 -1.3935,-2.01746 -2.87041,-2.67704 -0.80035,-0.35743 -1.68134,-0.24874 -2.68584,-0.82869 0.17628,1.24808 -0.30477,3.04797 -0.21947,4.19691 0.37546,5.05973 1.34805,6.07225 2.33614,9.75986 -4.28681,-4.28681 -6.50936,-3.29703 -8.14954,-1.65685 7.69601,2.06214 3.42791,19.85405 17.3438,19.85405 13.91589,0 9.64779,-17.79191 17.3438,-19.85405 z"
         id="path8"
         sodipodi:nodetypes="ccscscccscscczc" />
      <path
         style="opacity:1;fill:#00a800;stroke-width:63.5;stroke-linejoin:round;stroke-miterlimit:5.2"
         d="m 798.89047,483.94702 v 89.95833 c 0,7.93836 -8.05339,14.55397 -16.93333,16.93334 2.94248,2.94248 16.39574,-0.50541 19.57916,-6.01927 3.18342,5.51386 16.63668,8.96175 19.57916,6.01927 -8.87994,-2.37937 -16.93333,-8.99498 -16.93333,-16.93334 v -89.95833 c 0,0 -1.29907,-1.05833 -2.64583,-1.05833 -1.34676,0 -2.64583,1.05833 -2.64583,1.05833 z"
         id="path1"
         sodipodi:nodetypes="cscccsczc" />
      <path
         style="opacity:1;fill:#00a800;fill-opacity:1;stroke-width:14.1404;stroke-linejoin:round;stroke-miterlimit:5.2"
         d="m 793.66338,479.92535 c 1.40146,0.896 3.14895,1.53144 5.48689,1.78406 0.73453,0.0794 2.01526,1.20467 2.38603,2.5884 -5.22443,0 -7.3545,-2.73264 -7.87292,-4.37246 z"
         id="path6"
         sodipodi:nodetypes="cscc" />
      <path
         style="opacity:1;fill:#00a800;fill-opacity:1;stroke-width:14.1404;stroke-linejoin:round;stroke-miterlimit:5.2"
         d="m 809.40922,479.92535 c -1.40146,0.896 -3.14895,1.53144 -5.48689,1.78406 -0.73453,0.0794 -2.01526,1.20467 -2.38603,2.5884 5.22443,0 7.3545,-2.73264 7.87292,-4.37246 z"
         id="path9"
         sodipodi:nodetypes="cscc" />
      <path
         style="opacity:1;fill:#00a800;fill-opacity:1;stroke-width:14.1404;stroke-linejoin:round;stroke-miterlimit:5.2"
         d="m 802.98689,482.81941 c 0,-1.44907 -1.07618,-1.49675 -1.45059,-2.89406 -0.37441,1.39731 -1.45059,1.44499 -1.45059,2.89406 0,0.73881 0.57306,1.4784 1.45059,1.4784 0.87753,0 1.45059,-0.73959 1.45059,-1.4784 z"
         id="path11"
         sodipodi:nodetypes="scszs" />
      <path
         style="opacity:1;fill:#00a800;fill-opacity:1;stroke-width:64.9678;stroke-linejoin:round;stroke-miterlimit:5.2"
         d="m 753.11976,540.84762 c 6.4518,-2.58039 23.87285,-2.41935 28.56012,5.96629 1.47282,2.63454 9.30269,6.25148 17.21059,6.25148 -8.09183,-20.91987 -33.04785,-27.48323 -45.77071,-12.21777 z"
         id="path12"
         sodipodi:nodetypes="cscc" />
      <path
         style="opacity:1;fill:#00a800;fill-opacity:1;stroke-width:64.9678;stroke-linejoin:round;stroke-miterlimit:5.2"
         d="m 734.34962,512.36931 c 12.79853,-5.7609 42.64299,-2.41935 47.33026,5.96629 1.47282,2.63454 9.30269,6.25148 17.21059,6.25148 -8.82969,-22.82745 -45.33621,-26.92196 -64.54085,-12.21777 z"
         id="path13"
         sodipodi:nodetypes="cscc" />
      <path
         style="opacity:1;fill:#00a800;fill-opacity:1;stroke-width:64.9678;stroke-linejoin:round;stroke-miterlimit:5.2"
         d="m 849.95284,540.84762 c -6.4518,-2.58039 -23.87285,-2.41935 -28.56012,5.96629 -1.47282,2.63454 -9.30269,6.25148 -17.21059,6.25148 8.09183,-20.91987 33.04785,-27.48323 45.77071,-12.21777 z"
         id="path14"
         sodipodi:nodetypes="cscc" />
      <path
         style="opacity:1;fill:#00a800;fill-opacity:1;stroke-width:64.9678;stroke-linejoin:round;stroke-miterlimit:5.2"
         d="m 868.72298,512.36931 c -12.79853,-5.7609 -42.64299,-2.41935 -47.33026,5.96629 -1.47282,2.63454 -9.30269,6.25148 -17.21059,6.25148 8.82969,-22.82745 45.33621,-26.92196 64.54085,-12.21777 z"
         id="path15"
         sodipodi:nodetypes="cscc" />
    </g>
  </g>
</svg>
