<?xml version="1.0" encoding="UTF-8" standalone="no"?>
<!-- Created with Inkscape (http://www.inkscape.org/) -->

<svg
   xmlns:dc="http://purl.org/dc/elements/1.1/"
   xmlns:cc="http://creativecommons.org/ns#"
   xmlns:rdf="http://www.w3.org/1999/02/22-rdf-syntax-ns#"
   xmlns:svg="http://www.w3.org/2000/svg"
   xmlns="http://www.w3.org/2000/svg"
   xmlns:sodipodi="http://sodipodi.sourceforge.net/DTD/sodipodi-0.dtd"
   xmlns:inkscape="http://www.inkscape.org/namespaces/inkscape"
   width="3036"
   height="1800"
   viewBox="0 0 803.27499 476.25001"
   version="1.1"
   id="svg8"
   inkscape:export-filename="C:\Users\厂永刄先生\Documents\GXI3CW2\,pjóŭ\Burundi.png"
   inkscape:export-xdpi="96"
   inkscape:export-ydpi="96"
   inkscape:version="0.92.4 (5da689c313, 2019-01-14)"
   sodipodi:docname="PU2LOQDI.svg">
  <defs
     id="defs2" />
  <sodipodi:namedview
     id="base"
     pagecolor="#ffffff"
     bordercolor="#666666"
     borderopacity="1.0"
     inkscape:pageopacity="0.0"
     inkscape:pageshadow="2"
     inkscape:zoom="0.29380765"
     inkscape:cx="1518"
     inkscape:cy="900"
     inkscape:document-units="px"
     inkscape:current-layer="layer1"
     showgrid="false"
     units="px"
     fit-margin-top="0"
     fit-margin-left="0"
     fit-margin-right="0"
     fit-margin-bottom="0"
     inkscape:showpageshadow="false"
     inkscape:snap-intersection-paths="false"
     inkscape:object-paths="false"
     inkscape:pagecheckerboard="true"
     inkscape:snap-smooth-nodes="true"
     inkscape:window-width="1366"
     inkscape:window-height="745"
     inkscape:window-x="-8"
     inkscape:window-y="-8"
     inkscape:window-maximized="1"
     inkscape:object-nodes="true" />
  <metadata
     id="metadata5">
    <rdf:RDF>
      <cc:Work
         rdf:about="">
        <dc:format>image/svg+xml</dc:format>
        <dc:type
           rdf:resource="http://purl.org/dc/dcmitype/StillImage" />
        <dc:title />
      </cc:Work>
    </rdf:RDF>
  </metadata>
  <g
     inkscape:label="レイヤー 1"
     inkscape:groupmode="layer"
     id="layer1"
     transform="translate(112.33452,-299.26786)">
    <path
       sodipodi:nodetypes="cczccccczccccczccccczcccc"
       inkscape:connector-curvature="0"
       id="path911"
       d="M -33.382991,299.26786 189.92521,433.25389 c 26.56846,-26.56851 66.5681,-43.13649 104.14167,-43.13634 37.57357,1.5e-4 77.5708,16.56767 104.13889,43.13618 L 621.51383,299.26787 h 69.42664 V 340.9232 L 434.6264,494.71174 c 4.35798,14.00585 6.71404,28.51715 6.7138,42.68267 -2.4e-4,14.16551 -2.35638,28.67399 -6.7143,42.67852 l 256.31457,153.78906 v 41.65528 H 621.51323 L 398.20517,641.53141 c -26.56809,26.56851 -66.56532,43.13603 -104.13889,43.13618 -37.57357,1.5e-4 -77.57321,-16.56783 -104.14167,-43.13634 l -223.308201,133.98603 -69.425929,5.8e-4 -3.5e-4,-41.65515 256.31457,-153.78906 c -4.35793,-14.00453 -6.71407,-28.51301 -6.7143,-42.67852 -2.4e-4,-14.16552 2.35582,-28.67682 6.7138,-42.68267 l -256.31407,-153.78854 3.5e-4,-41.65606 z"
       style="fill:#ffffff;fill-opacity:1;stroke:none;stroke-width:0.26458332px;stroke-linecap:butt;stroke-linejoin:miter;stroke-opacity:1" />
    <path
       style="fill:#ffffff;fill-opacity:1;stroke:none;stroke-width:0.51166773px;stroke-linecap:butt;stroke-linejoin:miter;stroke-opacity:1"
       d="m -102.80952,299.26786 h -9.525 v 476.25 h 9.525 z"
       id="path819"
       inkscape:connector-curvature="0"
       sodipodi:nodetypes="ccccc" />
    <path
       style="fill:#19a238;fill-opacity:1;stroke:none;stroke-width:6.9905014px;stroke-linecap:butt;stroke-linejoin:miter;stroke-opacity:1"
       d="m 3036,157.4375 -968.7461,581.24805 c 16.4711,52.9355 25.3759,107.78136 25.375,161.32031 -9e-4,53.53895 -8.906,108.37414 -25.3769,161.30464 l 968.748,581.25 z"
       transform="matrix(0.26458333,0,0,0.26458333,-112.33452,299.26786)"
       id="path836"
       inkscape:connector-curvature="0"
       sodipodi:nodetypes="cczccc" />
    <path
       style="fill:#d21632;fill-opacity:1;stroke:none;stroke-width:0.26458332px;stroke-linecap:butt;stroke-linejoin:miter;stroke-opacity:1"
       d="m 398.20577,433.25373 c -26.56809,-26.56851 -66.56532,-43.13603 -104.13889,-43.13618 -37.57357,-1.5e-4 -77.57321,16.56783 -104.14167,43.13634 l -223.308201,-133.98603 654.896821,1e-5 z"
       id="path865"
       inkscape:connector-curvature="0"
       sodipodi:nodetypes="czcccc" />
    <path
       sodipodi:nodetypes="cczccc"
       inkscape:connector-curvature="0"
       id="path870"
       d="M -102.80987,340.92392 153.5042,494.71246 c -4.35798,14.00585 -6.71404,28.51715 -6.7138,42.68267 2.3e-4,14.16551 2.35637,28.67399 6.7143,42.67852 l -256.31457,153.78906 z"
       style="fill:#19a238;fill-opacity:1;stroke:none;stroke-width:1.84957016px;stroke-linecap:butt;stroke-linejoin:miter;stroke-opacity:1" />
    <path
       sodipodi:nodetypes="czcccc"
       inkscape:connector-curvature="0"
       id="path872"
       d="m 398.20517,641.53141 c -26.56809,26.56851 -66.56532,43.13603 -104.13889,43.13618 -37.57357,1.5e-4 -77.57321,-16.56783 -104.14167,-43.13634 l -223.308201,133.98603 654.896821,-10e-6 z"
       style="fill:#d21632;fill-opacity:1;stroke:none;stroke-width:0.26458332px;stroke-linecap:butt;stroke-linejoin:miter;stroke-opacity:1" />
    <path
       sodipodi:nodetypes="ccccccccccccc"
       inkscape:connector-curvature="0"
       id="path899"
       d="m 294.06556,494.53036 -8.24888,-14.28749 h -16.49779 l 8.24891,-14.28751 -8.24891,-14.2875 h 16.49779 l 8.24888,-14.2875 8.2489,14.2875 h 16.4978 l -8.24891,14.2875 8.24891,14.28751 h -16.4978 z"
       style="fill:#d21632;fill-opacity:1;stroke:none;stroke-width:0.21166669px;stroke-linecap:butt;stroke-linejoin:miter;stroke-opacity:1" />
    <path
       style="fill:#19a238;fill-opacity:1;stroke:none;stroke-width:0.21166669px;stroke-linecap:butt;stroke-linejoin:miter;stroke-opacity:1"
       d="m 304.37668,448.09598 h 20.62224 l -10.31113,17.85938 10.31113,17.85938 h -20.62224 l -10.31113,17.85936 -10.3111,-17.85936 h -20.62223 l 10.31113,-17.85938 -10.31113,-17.85938 h 20.62223 l 10.3111,-17.85937 z m -10.31112,-10.71562 -8.24888,14.2875 h -16.49779 l 8.24891,14.2875 -8.24891,14.28751 h 16.49779 l 8.24888,14.28749 8.2489,-14.28749 h 16.4978 l -8.24891,-14.28751 8.24891,-14.2875 h -16.4978 z"
       id="path917"
       inkscape:connector-curvature="0"
       sodipodi:nodetypes="cccccccccccccccccccccccccc" />
    <path
       sodipodi:nodetypes="cccccccccccccccccccccccccc"
       inkscape:connector-curvature="0"
       id="path919"
       d="m 242.50998,555.25223 h 20.62224 l -10.31113,17.85938 10.31113,17.85938 h -20.62224 l -10.31113,17.85936 -10.3111,-17.85936 h -20.62223 l 10.31113,-17.85938 -10.31113,-17.85938 h 20.62223 l 10.3111,-17.85937 z m -10.31112,-10.71562 -8.24888,14.2875 h -16.49779 l 8.24891,14.2875 -8.24891,14.28751 h 16.49779 l 8.24888,14.28749 8.2489,-14.28749 h 16.4978 l -8.24891,-14.28751 8.24891,-14.2875 h -16.4978 z"
       style="fill:#19a238;fill-opacity:1;stroke:none;stroke-width:0.21166669px;stroke-linecap:butt;stroke-linejoin:miter;stroke-opacity:1" />
    <path
       style="fill:#19a238;fill-opacity:1;stroke:none;stroke-width:0.21166669px;stroke-linecap:butt;stroke-linejoin:miter;stroke-opacity:1"
       d="m 366.24338,555.25223 h 20.62224 l -10.31113,17.85938 10.31113,17.85938 h -20.62224 l -10.31113,17.85936 -10.3111,-17.85936 h -20.62223 l 10.31113,-17.85938 -10.31113,-17.85938 h 20.62223 l 10.3111,-17.85937 z m -10.31112,-10.71562 -8.24888,14.2875 h -16.49779 l 8.24891,14.2875 -8.24891,14.28751 h 16.49779 l 8.24888,14.28749 8.2489,-14.28749 h 16.4978 l -8.24891,-14.28751 8.24891,-14.2875 h -16.4978 z"
       id="path921"
       inkscape:connector-curvature="0"
       sodipodi:nodetypes="cccccccccccccccccccccccccc" />
    <path
       style="fill:#d21632;fill-opacity:1;stroke:none;stroke-width:0.21166669px;stroke-linecap:butt;stroke-linejoin:miter;stroke-opacity:1"
       d="m 232.19886,601.68661 -8.24888,-14.28749 h -16.49779 l 8.24891,-14.28751 -8.24891,-14.2875 h 16.49779 l 8.24888,-14.2875 8.2489,14.2875 h 16.4978 l -8.24891,14.2875 8.24891,14.28751 h -16.4978 z"
       id="path923"
       inkscape:connector-curvature="0"
       sodipodi:nodetypes="ccccccccccccc" />
    <path
       sodipodi:nodetypes="ccccccccccccc"
       inkscape:connector-curvature="0"
       id="path925"
       d="m 355.93226,601.68661 -8.24888,-14.28749 h -16.49779 l 8.24891,-14.28751 -8.24891,-14.2875 h 16.49779 l 8.24888,-14.2875 8.2489,14.2875 h 16.4978 l -8.24891,14.2875 8.24891,14.28751 h -16.4978 z"
       style="fill:#d21632;fill-opacity:1;stroke:none;stroke-width:0.21166669px;stroke-linecap:butt;stroke-linejoin:miter;stroke-opacity:1" />
  </g>
</svg>
