<?xml version="1.0" encoding="UTF-8" standalone="no"?>
<!-- Created with Inkscape (http://www.inkscape.org/) -->

<svg
   xmlns:dc="http://purl.org/dc/elements/1.1/"
   xmlns:cc="http://creativecommons.org/ns#"
   xmlns:rdf="http://www.w3.org/1999/02/22-rdf-syntax-ns#"
   xmlns:svg="http://www.w3.org/2000/svg"
   xmlns="http://www.w3.org/2000/svg"
   xmlns:sodipodi="http://sodipodi.sourceforge.net/DTD/sodipodi-0.dtd"
   xmlns:inkscape="http://www.inkscape.org/namespaces/inkscape"
   width="2736"
   height="1800"
   viewBox="0 0 723.9 476.25001"
   version="1.1"
   id="svg8"
   inkscape:export-filename="C:\Users\厂永刄先生\Documents\GXI3CW2\JáÈŭcèŭ\Èŭmen\Í\意軍.png"
   inkscape:export-xdpi="96"
   inkscape:export-ydpi="96"
   inkscape:version="0.92.4 (5da689c313, 2019-01-14)"
   sodipodi:docname="沖縄県.svg">
  <defs
     id="defs2" />
  <sodipodi:namedview
     id="base"
     pagecolor="#ffffff"
     bordercolor="#666666"
     borderopacity="1.0"
     inkscape:pageopacity="0.0"
     inkscape:pageshadow="2"
     inkscape:zoom="0.30222223"
     inkscape:cx="1368"
     inkscape:cy="900.00001"
     inkscape:document-units="px"
     inkscape:current-layer="layer1"
     showgrid="false"
     units="px"
     fit-margin-top="0"
     fit-margin-left="0"
     fit-margin-right="0"
     fit-margin-bottom="0"
     inkscape:showpageshadow="false"
     inkscape:snap-intersection-paths="false"
     inkscape:object-paths="false"
     inkscape:pagecheckerboard="true"
     inkscape:snap-smooth-nodes="true"
     inkscape:window-width="1366"
     inkscape:window-height="745"
     inkscape:window-x="-8"
     inkscape:window-y="-8"
     inkscape:window-maximized="1"
     inkscape:object-nodes="true"
     inkscape:snap-nodes="true" />
  <metadata
     id="metadata5">
    <rdf:RDF>
      <cc:Work
         rdf:about="">
        <dc:format>image/svg+xml</dc:format>
        <dc:type
           rdf:resource="http://purl.org/dc/dcmitype/StillImage" />
        <dc:title></dc:title>
      </cc:Work>
    </rdf:RDF>
  </metadata>
  <g
     inkscape:label="レイヤー 1"
     inkscape:groupmode="layer"
     id="layer1"
     transform="translate(112.33452,-299.26786)">
    <path
       sodipodi:nodetypes="ccccczzzzz"
       inkscape:connector-curvature="0"
       id="path821"
       d="m -102.80952,299.26786 v 476.25 h 714.375 v -476.25 z m 527.27677,238.12502 c 1e-5,93.93771 -76.15155,170.08927 -170.08926,170.08927 -93.93771,0 -170.089266,-76.15156 -170.089263,-170.08927 3e-6,-93.93771 76.151553,-170.08926 170.089263,-170.08926 93.93771,0 170.08926,76.15155 170.08926,170.08926 z"
       style="opacity:1;fill:#ffffff;fill-opacity:1;fill-rule:evenodd;stroke:none;stroke-width:0.08456222;stroke-linecap:round;stroke-linejoin:round;stroke-miterlimit:4;stroke-dasharray:none;stroke-dashoffset:0;stroke-opacity:0.50196078" />
    <path
       style="opacity:1;fill:#ffffff;fill-opacity:1;fill-rule:evenodd;stroke:none;stroke-width:0.95249999;stroke-linecap:butt;stroke-linejoin:miter;stroke-miterlimit:4;stroke-dasharray:none;stroke-dashoffset:0;stroke-opacity:1"
       d="m 177.8379,477.86151 c 0,-42.27192 34.26817,-76.54009 76.54009,-76.54009 42.27192,0 76.54009,34.26817 76.54009,76.54009 0,42.27192 -34.26817,76.54009 -76.54009,76.54009 -42.27192,0 -76.54009,-34.26817 -76.54009,-76.54009 z m -42.52238,25.51346 c 0,65.75639 53.30608,119.06247 119.06247,119.06247 65.75639,0 119.06247,-53.30608 119.06247,-119.06247 0,-65.75639 -53.30608,-119.06247 -119.06247,-119.06247 -65.75639,0 -119.06247,53.30608 -119.06247,119.06247 z"
       id="path903"
       inkscape:connector-curvature="0"
       sodipodi:nodetypes="zzzzzzzzzz" />
    <path
       style="fill:#ffffff;fill-opacity:1;stroke:none;stroke-width:0.51166773px;stroke-linecap:butt;stroke-linejoin:miter;stroke-opacity:1"
       d="m -102.80952,299.26786 h -9.525 v 476.25 h 9.525 z"
       id="path1079"
       inkscape:connector-curvature="0"
       sodipodi:nodetypes="ccccc" />
    <path
       sodipodi:nodetypes="zzzzzzzzzzzzzzz"
       inkscape:connector-curvature="0"
       id="path926"
       d="m 84.288727,537.39288 c -3e-6,93.93771 76.151553,170.08927 170.089263,170.08927 93.93771,0 170.08926,-76.15156 170.08926,-170.08927 0,-93.93771 -76.15155,-170.08926 -170.08926,-170.08926 -93.93771,0 -170.08926,76.15155 -170.089263,170.08926 z M 177.8379,477.86151 c 0,42.27192 34.26817,76.54009 76.54009,76.54009 42.27192,0 76.54009,-34.26817 76.54009,-76.54009 0,-42.27192 -34.26817,-76.54009 -76.54009,-76.54009 -42.27192,0 -76.54009,34.26817 -76.54009,76.54009 z m 195.60256,25.51346 c 0,65.75639 -53.30608,119.06247 -119.06247,119.06247 -65.75639,0 -119.06247,-53.30608 -119.06247,-119.06247 0,-65.75639 53.30608,-119.06247 119.06247,-119.06247 65.75639,0 119.06247,53.30608 119.06247,119.06247 z"
       style="opacity:1;fill:#ff0000;fill-opacity:1;fill-rule:nonzero;stroke:none;stroke-width:0.95249999;stroke-linecap:butt;stroke-linejoin:miter;stroke-miterlimit:4;stroke-dasharray:none;stroke-dashoffset:0;stroke-opacity:1" />
  </g>
</svg>
