<?xml version="1.0" encoding="UTF-8" standalone="no"?>
<!-- Created with Inkscape (http://www.inkscape.org/) -->

<svg
   xmlns:dc="http://purl.org/dc/elements/1.1/"
   xmlns:cc="http://creativecommons.org/ns#"
   xmlns:rdf="http://www.w3.org/1999/02/22-rdf-syntax-ns#"
   xmlns:svg="http://www.w3.org/2000/svg"
   xmlns="http://www.w3.org/2000/svg"
   xmlns:sodipodi="http://sodipodi.sourceforge.net/DTD/sodipodi-0.dtd"
   xmlns:inkscape="http://www.inkscape.org/namespaces/inkscape"
   width="1449.9998"
   height="1449.9998"
   viewBox="0 0 383.64577 383.64577"
   version="1.1"
   id="svg8"
   inkscape:export-filename="C:\Users\厂永刄先生\Documents\GXI3CW2\JáÈŭcèŭ\N̂i\47-沖縄県\章ﾈｵﾝ.png"
   inkscape:export-xdpi="96"
   inkscape:export-ydpi="96"
   inkscape:version="0.92.4 (5da689c313, 2019-01-14)"
   sodipodi:docname="章ﾈｵﾝ.svg">
  <defs
     id="defs2">
    <filter
       inkscape:collect="always"
       style="color-interpolation-filters:sRGB"
       id="filter820"
       x="-0.029999999"
       width="1.0599999"
       y="-0.029999999"
       height="1.0599999">
      <feGaussianBlur
         inkscape:collect="always"
         stdDeviation="4.2522316"
         id="feGaussianBlur822" />
    </filter>
    <filter
       inkscape:collect="always"
       style="color-interpolation-filters:sRGB"
       id="filter826"
       x="-0.041999999"
       width="1.084"
       y="-0.041999999"
       height="1.084">
      <feGaussianBlur
         inkscape:collect="always"
         stdDeviation="5.9531243"
         id="feGaussianBlur828" />
    </filter>
    <filter
       inkscape:collect="always"
       style="color-interpolation-filters:sRGB"
       id="filter832"
       x="-0.059999999"
       width="1.12"
       y="-0.059999999"
       height="1.12">
      <feGaussianBlur
         inkscape:collect="always"
         stdDeviation="8.5044632"
         id="feGaussianBlur834" />
    </filter>
  </defs>
  <sodipodi:namedview
     id="base"
     pagecolor="#000000"
     bordercolor="#666666"
     borderopacity="1.0"
     inkscape:pageopacity="1"
     inkscape:pageshadow="2"
     inkscape:zoom="0.42311117"
     inkscape:cx="724.9999"
     inkscape:cy="724.99991"
     inkscape:document-units="px"
     inkscape:current-layer="layer1"
     showgrid="false"
     units="px"
     fit-margin-top="5"
     fit-margin-left="5"
     fit-margin-right="5"
     fit-margin-bottom="5"
     inkscape:showpageshadow="false"
     inkscape:snap-intersection-paths="false"
     inkscape:object-paths="false"
     inkscape:pagecheckerboard="true"
     inkscape:snap-smooth-nodes="true"
     inkscape:window-width="1366"
     inkscape:window-height="745"
     inkscape:window-x="-8"
     inkscape:window-y="-8"
     inkscape:window-maximized="1"
     inkscape:object-nodes="true"
     inkscape:snap-nodes="true"
     showguides="false" />
  <metadata
     id="metadata5">
    <rdf:RDF>
      <cc:Work
         rdf:about="">
        <dc:format>image/svg+xml</dc:format>
        <dc:type
           rdf:resource="http://purl.org/dc/dcmitype/StillImage" />
        <dc:title></dc:title>
      </cc:Work>
    </rdf:RDF>
  </metadata>
  <g
     inkscape:label="レイヤー 1"
     inkscape:groupmode="layer"
     id="layer1"
     transform="translate(-62.555094,-345.56999)">
    <path
       sodipodi:nodetypes="czzcczzcczzc"
       inkscape:connector-curvature="0"
       id="path830"
       d="m 254.37799,554.40161 c -42.27192,0 -76.54009,-34.26817 -76.54009,-76.54009 0,-42.27193 34.26817,-76.5401 76.54009,-76.5401 42.27191,0 76.54008,34.26817 76.54008,76.5401 m -195.60255,25.51346 c 0,65.75639 53.30608,119.06246 119.06247,119.06246 65.75638,0 119.06245,-53.30607 119.06245,-119.06247 0,-65.75639 -53.30607,-119.06247 -119.06245,-119.06247 m 0,323.16965 c -93.93771,0 -170.089268,-76.15156 -170.089268,-170.08926 0,-93.93771 76.151558,-170.08927 170.089268,-170.08927 93.9377,0 170.08926,76.15155 170.08926,170.08927"
       style="opacity:1;fill:none;fill-opacity:1;fill-rule:evenodd;stroke:#ff0000;stroke-width:10.58333302;stroke-linecap:round;stroke-linejoin:round;stroke-miterlimit:4;stroke-dasharray:none;stroke-dashoffset:0;stroke-opacity:1;filter:url(#filter832)" />
    <path
       style="opacity:1;fill:none;fill-opacity:1;fill-rule:evenodd;stroke:#ff0000;stroke-width:10.58333302;stroke-linecap:round;stroke-linejoin:round;stroke-miterlimit:4;stroke-dasharray:none;stroke-dashoffset:0;stroke-opacity:1;filter:url(#filter826)"
       d="m 254.37799,554.40161 c -42.27192,0 -76.54009,-34.26817 -76.54009,-76.54009 0,-42.27193 34.26817,-76.5401 76.54009,-76.5401 42.27191,0 76.54008,34.26817 76.54008,76.5401 m -195.60255,25.51346 c 0,65.75639 53.30608,119.06246 119.06247,119.06246 65.75638,0 119.06245,-53.30607 119.06245,-119.06247 0,-65.75639 -53.30607,-119.06247 -119.06245,-119.06247 m 0,323.16965 c -93.93771,0 -170.089268,-76.15156 -170.089268,-170.08926 0,-93.93771 76.151558,-170.08927 170.089268,-170.08927 93.9377,0 170.08926,76.15155 170.08926,170.08927"
       id="path824"
       inkscape:connector-curvature="0"
       sodipodi:nodetypes="czzcczzcczzc" />
    <path
       sodipodi:nodetypes="czzcczzcczzc"
       inkscape:connector-curvature="0"
       id="path818"
       d="m 254.37799,554.40161 c -42.27192,0 -76.54009,-34.26817 -76.54009,-76.54009 0,-42.27193 34.26817,-76.5401 76.54009,-76.5401 42.27191,0 76.54008,34.26817 76.54008,76.5401 m -195.60255,25.51346 c 0,65.75639 53.30608,119.06246 119.06247,119.06246 65.75638,0 119.06245,-53.30607 119.06245,-119.06247 0,-65.75639 -53.30607,-119.06247 -119.06245,-119.06247 m 0,323.16965 c -93.93771,0 -170.089268,-76.15156 -170.089268,-170.08926 0,-93.93771 76.151558,-170.08927 170.089268,-170.08927 93.9377,0 170.08926,76.15155 170.08926,170.08927"
       style="opacity:1;fill:none;fill-opacity:1;fill-rule:evenodd;stroke:#ff0000;stroke-width:10.58333302;stroke-linecap:round;stroke-linejoin:round;stroke-miterlimit:4;stroke-dasharray:none;stroke-dashoffset:0;stroke-opacity:1;filter:url(#filter820)" />
    <path
       style="opacity:1;fill:none;fill-opacity:1;fill-rule:evenodd;stroke:#ffc0c0;stroke-width:5.29166651;stroke-linecap:round;stroke-linejoin:round;stroke-miterlimit:4;stroke-dasharray:none;stroke-dashoffset:0;stroke-opacity:1"
       d="m 254.37799,554.40161 c -42.27192,0 -76.54009,-34.26817 -76.54009,-76.54009 0,-42.27193 34.26817,-76.5401 76.54009,-76.5401 42.27191,0 76.54008,34.26817 76.54008,76.5401 m -195.60255,25.51346 c 0,65.75639 53.30608,119.06246 119.06247,119.06246 65.75638,0 119.06245,-53.30607 119.06245,-119.06247 0,-65.75639 -53.30607,-119.06247 -119.06245,-119.06247 m 0,323.16965 c -93.93771,0 -170.089268,-76.15156 -170.089268,-170.08926 0,-93.93771 76.151558,-170.08927 170.089268,-170.08927 93.9377,0 170.08926,76.15155 170.08926,170.08927"
       id="path903"
       inkscape:connector-curvature="0"
       sodipodi:nodetypes="czzcczzcczzc" />
  </g>
</svg>
