<?xml version="1.0" encoding="UTF-8" standalone="no"?>
<!-- Created with Inkscape (http://www.inkscape.org/) -->

<svg
   width="3636"
   height="1800"
   viewBox="0 0 962.02499 476.25001"
   version="1.1"
   id="svg8"
   inkscape:export-filename="C:\Users\厂永刄先生\Documents\GXI3CW2\,pjóŭ\Jordanie.png"
   inkscape:export-xdpi="96"
   inkscape:export-ydpi="96"
   inkscape:version="1.3 (0e150ed6c4, 2023-07-21)"
   sodipodi:docname="jo_1955_air-force.svg"
   xmlns:inkscape="http://www.inkscape.org/namespaces/inkscape"
   xmlns:sodipodi="http://sodipodi.sourceforge.net/DTD/sodipodi-0.dtd"
   xmlns="http://www.w3.org/2000/svg"
   xmlns:svg="http://www.w3.org/2000/svg"
   xmlns:rdf="http://www.w3.org/1999/02/22-rdf-syntax-ns#"
   xmlns:cc="http://creativecommons.org/ns#"
   xmlns:dc="http://purl.org/dc/elements/1.1/">
  <defs
     id="defs2" />
  <sodipodi:namedview
     id="base"
     pagecolor="#ffffff"
     bordercolor="#666666"
     borderopacity="1.0"
     inkscape:pageopacity="0.0"
     inkscape:pageshadow="2"
     inkscape:zoom="0.24532453"
     inkscape:cx="1915.8296"
     inkscape:cy="825.43723"
     inkscape:document-units="px"
     inkscape:current-layer="layer1"
     showgrid="false"
     units="px"
     fit-margin-top="0"
     fit-margin-left="0"
     fit-margin-right="0"
     fit-margin-bottom="0"
     inkscape:showpageshadow="false"
     inkscape:snap-intersection-paths="true"
     inkscape:object-paths="false"
     inkscape:pagecheckerboard="true"
     inkscape:snap-smooth-nodes="false"
     inkscape:window-width="1920"
     inkscape:window-height="1009"
     inkscape:window-x="-8"
     inkscape:window-y="-8"
     inkscape:window-maximized="1"
     inkscape:object-nodes="true"
     inkscape:deskcolor="#505050" />
  <metadata
     id="metadata5">
    <rdf:RDF>
      <cc:Work
         rdf:about="">
        <dc:format>image/svg+xml</dc:format>
        <dc:type
           rdf:resource="http://purl.org/dc/dcmitype/StillImage" />
      </cc:Work>
    </rdf:RDF>
  </metadata>
  <g
     inkscape:label="レイヤー 1"
     inkscape:groupmode="layer"
     id="layer1"
     transform="translate(112.33452,-299.26786)">
    <path
       sodipodi:nodetypes="cccccc"
       inkscape:connector-curvature="0"
       id="path824"
       d="m 373.44048,378.64286 v 79.375 H 55.940471 l 79.375009,-39.6875 -79.374994,-39.6875 z"
       style="fill:#ffffff;fill-opacity:1;stroke:none;stroke-width:1.16977px;stroke-linecap:butt;stroke-linejoin:miter;stroke-opacity:1" />
    <path
       style="fill:#00a800;fill-opacity:1;stroke:none;stroke-width:1.01305px;stroke-linecap:butt;stroke-linejoin:miter;stroke-opacity:1"
       d="m 55.940471,458.01786 -158.749991,79.375 h 476.25 v -79.375 z"
       id="path849"
       inkscape:connector-curvature="0"
       sodipodi:nodetypes="ccccc" />
    <path
       style="fill:#ffffff;fill-opacity:1;stroke:none;stroke-width:0.51166773px;stroke-linecap:butt;stroke-linejoin:miter;stroke-opacity:1"
       d="m -102.80952,299.26786 h -9.525 v 476.25 h 9.525 z"
       id="path819"
       inkscape:connector-curvature="0"
       sodipodi:nodetypes="ccccc" />
    <path
       style="fill:#000000;fill-opacity:1;stroke:none;stroke-width:1.16977px;stroke-linecap:butt;stroke-linejoin:miter;stroke-opacity:1"
       d="m 373.44048,378.64286 v -79.375 h -476.25 l 158.750006,79.375 z"
       id="path847"
       inkscape:connector-curvature="0"
       sodipodi:nodetypes="ccccc" />
    <path
       style="fill:#ff0000;fill-opacity:1;stroke:none;stroke-width:0.132292px;stroke-linecap:butt;stroke-linejoin:miter;stroke-opacity:1"
       d="m -102.80952,299.26786 v 238.125 l 238.125,-119.0625 z m 77.943345,116.96205 7.379898,5.88528 -9.202583,2.10042 2e-6,9.43925 -7.379899,-5.88527 -7.379896,5.88527 -10e-7,-9.43925 -9.202581,-2.10042 7.379897,-5.88528 -4.095533,-8.50446 9.202581,2.10043 4.095535,-8.50446 4.095532,8.50446 9.202583,-2.10043 z"
       id="path818"
       inkscape:connector-curvature="0"
       sodipodi:nodetypes="ccccccccccccccccccc" />
    <path
       style="fill:#00abff;fill-opacity:1;stroke:none;stroke-width:2.0261px;stroke-linecap:butt;stroke-linejoin:miter;stroke-opacity:1"
       d="m 373.44048,775.51786 h 476.25 v -476.25 h -476.25 z"
       id="path1"
       inkscape:connector-curvature="0"
       sodipodi:nodetypes="ccccc" />
    <g
       id="g5"
       transform="matrix(0.66666664,0,0,0.66666664,176.69128,209.82263)">
      <g
         id="g2"
         transform="translate(-30.691674,-355.60002)">
        <path
           id="circle7"
           style="fill:#ff0000;stroke-width:13.0235;stroke-linecap:round;stroke-linejoin:round;stroke-miterlimit:155;paint-order:stroke fill markers"
           d="m 444.87799,846.95538 c 0,131.5128 106.6122,238.12502 238.125,238.12502 131.5128,0 238.125,-106.61222 238.125,-238.12502 0,-131.5128 -106.6122,-238.125 -238.125,-238.125 -131.5128,0 -238.125,106.6122 -238.125,238.125 z"
           sodipodi:nodetypes="zzzzz" />
        <path
           id="circle8"
           style="fill:#ffffff;fill-opacity:1;stroke-width:8.68233;stroke-linecap:round;stroke-linejoin:round;stroke-miterlimit:155;paint-order:stroke fill markers"
           d="m 524.25299,846.95538 c 0,87.6752 71.0748,158.75002 158.75,158.75002 87.6752,0 158.75,-71.07482 158.75,-158.75002 0,-87.6752 -71.0748,-158.75 -158.75,-158.75 -87.6752,0 -158.75,71.0748 -158.75,158.75 z"
           sodipodi:nodetypes="zzzzz" />
        <path
           id="circle9"
           style="fill:#00a800;stroke-width:4.34116;stroke-linecap:round;stroke-linejoin:round;stroke-miterlimit:155;paint-order:stroke fill markers"
           d="m 603.62799,846.95538 c 0,43.8376 35.5374,79.375 79.375,79.375 43.8376,0 79.375,-35.5374 79.375,-79.375 0,-43.8376 -35.5374,-79.375 -79.375,-79.375 -43.8376,0 -79.375,35.5374 -79.375,79.375 z"
           sodipodi:nodetypes="zzzzz" />
      </g>
      <path
         id="path1-7"
         style="fill:#000000;stroke-width:13.0235;stroke-linecap:round;stroke-linejoin:round;stroke-miterlimit:155;paint-order:stroke fill markers"
         d="m 483.93152,322.97556 c -92.99359,92.99359 -92.9936,243.76603 -10e-6,336.75962 92.99359,92.9936 243.76603,92.9936 336.75962,0 92.99359,-92.99361 92.99359,-243.76603 0,-336.75962 z"
         sodipodi:nodetypes="czzcc" />
      <path
         id="path2-2"
         style="fill:#ffffff;fill-opacity:1;stroke-width:8.68233;stroke-linecap:round;stroke-linejoin:round;stroke-miterlimit:155;paint-order:stroke fill markers"
         d="m 493.56132,491.35536 c 0,87.6752 71.0748,158.75002 158.75,158.75002 87.6752,0 158.75,-71.07482 158.75,-158.75002 0,-87.6752 -71.0748,-158.75 -158.75,-158.75 -87.6752,0 -158.75,71.0748 -158.75,158.75 z"
         sodipodi:nodetypes="zzzzz" />
      <path
         id="path3"
         style="fill:#00a800;stroke-width:4.34116;stroke-linecap:round;stroke-linejoin:round;stroke-miterlimit:155;paint-order:stroke fill markers"
         d="m 572.93632,491.35536 c 0,43.8376 35.5374,79.375 79.375,79.375 43.8376,0 79.375,-35.5374 79.375,-79.375 0,-43.8376 -35.5374,-79.375 -79.375,-79.375 -43.8376,0 -79.375,35.5374 -79.375,79.375 z"
         sodipodi:nodetypes="zzzzz" />
      <path
         id="path4-0"
         style="fill:#ff0000;stroke-width:13.0235;stroke-linecap:round;stroke-linejoin:round;stroke-miterlimit:155;paint-order:stroke fill markers"
         d="m 652.31132,491.35536 168.3798,-168.3798 c -92.99359,-92.99359 -243.76601,-92.99359 -336.7596,0 z"
         sodipodi:nodetypes="cccc" />
      <path
         sodipodi:nodetypes="ccccccccccccccc"
         inkscape:connector-curvature="0"
         id="path832-3"
         d="m 684.52033,341.44979 25.82963,20.59846 -32.20902,7.35147 10e-6,33.03735 -25.82963,-20.59843 -25.82962,20.59843 v -33.03735 l -32.20902,-7.35147 25.82963,-20.59846 -14.33436,-29.76559 32.20901,7.3515 14.33437,-29.76559 14.33435,29.76559 32.20902,-7.3515 z"
         style="fill:#ffffff;fill-opacity:1;stroke:none;stroke-width:0.463022px;stroke-linecap:butt;stroke-linejoin:miter;stroke-opacity:1" />
    </g>
    <path
       style="fill:#00abff;fill-opacity:1;stroke:none;stroke-width:2.0261px;stroke-linecap:butt;stroke-linejoin:miter;stroke-opacity:1"
       d="m 373.44048,537.39286 h -476.25 v 238.125 h 476.25 z"
       id="path2"
       inkscape:connector-curvature="0"
       sodipodi:nodetypes="ccccc" />
    <path
       sodipodi:nodetypes="ccccccccccccccc"
       inkscape:connector-curvature="0"
       id="path832"
       d="m -24.866175,416.22991 7.379898,5.88528 -9.202583,2.10042 2e-6,9.43925 -7.379899,-5.88527 -7.379896,5.88527 -10e-7,-9.43925 -9.202581,-2.10042 7.379897,-5.88528 -4.095533,-8.50446 9.202581,2.10043 4.095535,-8.50446 4.095532,8.50446 9.202583,-2.10043 z"
       style="fill:#ffffff;fill-opacity:1;stroke:none;stroke-width:0.132292px;stroke-linecap:butt;stroke-linejoin:miter;stroke-opacity:1" />
  </g>
</svg>
