<?xml version="1.0" encoding="UTF-8" standalone="no"?>
<!-- Created with Inkscape (http://www.inkscape.org/) -->

<svg
   xmlns:dc="http://purl.org/dc/elements/1.1/"
   xmlns:cc="http://creativecommons.org/ns#"
   xmlns:rdf="http://www.w3.org/1999/02/22-rdf-syntax-ns#"
   xmlns:svg="http://www.w3.org/2000/svg"
   xmlns="http://www.w3.org/2000/svg"
   xmlns:sodipodi="http://sodipodi.sourceforge.net/DTD/sodipodi-0.dtd"
   xmlns:inkscape="http://www.inkscape.org/namespaces/inkscape"
   width="2760"
   height="1800"
   viewBox="0 0 730.24999 476.25001"
   version="1.1"
   id="svg8"
   inkscape:export-filename="C:\Users\厂永刄先生\Documents\GXI3CW2\JáÈŭcèŭ\T̕ú\bitmap.png"
   inkscape:export-xdpi="96"
   inkscape:export-ydpi="96"
   inkscape:version="0.92.4 (5da689c313, 2019-01-14)"
   sodipodi:docname="T'U2 - コピー.svg">
  <defs
     id="defs2" />
  <sodipodi:namedview
     id="base"
     pagecolor="#ffffff"
     bordercolor="#666666"
     borderopacity="1.0"
     inkscape:pageopacity="0.0"
     inkscape:pageshadow="2"
     inkscape:zoom="0.30222222"
     inkscape:cx="1380"
     inkscape:cy="900"
     inkscape:document-units="px"
     inkscape:current-layer="g1364"
     showgrid="false"
     units="px"
     fit-margin-top="0"
     fit-margin-left="0"
     fit-margin-right="0"
     fit-margin-bottom="0"
     inkscape:showpageshadow="false"
     inkscape:snap-intersection-paths="false"
     inkscape:object-paths="false"
     inkscape:pagecheckerboard="true"
     inkscape:snap-smooth-nodes="true"
     inkscape:window-width="1366"
     inkscape:window-height="745"
     inkscape:window-x="-8"
     inkscape:window-y="-8"
     inkscape:window-maximized="1"
     inkscape:object-nodes="true"
     inkscape:snap-nodes="true" />
  <metadata
     id="metadata5">
    <rdf:RDF>
      <cc:Work
         rdf:about="">
        <dc:format>image/svg+xml</dc:format>
        <dc:type
           rdf:resource="http://purl.org/dc/dcmitype/StillImage" />
        <dc:title />
      </cc:Work>
    </rdf:RDF>
  </metadata>
  <g
     inkscape:label="レイヤー 1"
     inkscape:groupmode="layer"
     id="layer1"
     transform="translate(118.68452,-299.26786)">
    <g
       id="g1364"
       inkscape:export-xdpi="96"
       inkscape:export-ydpi="96">
      <path
         sodipodi:nodetypes="ccccc"
         inkscape:connector-curvature="0"
         id="path1079"
         d="m -102.80952,299.26786 h -15.875 v 476.25 h 15.875 z"
         style="fill:#ffffff;fill-opacity:1;stroke:none;stroke-width:0.66056019px;stroke-linecap:butt;stroke-linejoin:miter;stroke-opacity:1" />
      <path
         style="fill:#e30a17;fill-opacity:1;stroke:none;stroke-width:2.02610254px;stroke-linecap:butt;stroke-linejoin:miter;stroke-opacity:1"
         d="m 611.56548,775.51786 h -714.375 v -476.25 h 714.375 z"
         id="path824"
         inkscape:connector-curvature="0"
         sodipodi:nodetypes="ccccc" />
      <path
         style="opacity:1;fill:#ffffff;fill-opacity:1;fill-rule:evenodd;stroke:none;stroke-width:93.29268646;stroke-linecap:square;stroke-linejoin:round;stroke-miterlimit:4;stroke-dasharray:none;stroke-dashoffset:0;stroke-opacity:1"
         d="m 960,450 c -248.52814,0 -450,201.47187 -450,450 0,248.5281 201.47186,450 450,450 160.862,0 302.0063,-84.407 381.5684,-211.3457 -68.2226,77.0478 -166.1574,121.3011 -269.0684,121.3457 -198.82249,0.086 -360,-161.1775 -360,-360 0,-198.82251 161.17752,-360.11318 360,-360 103.1204,0.0587 201.2161,44.55683 269.418,121.90234 C 1262.42,534.65414 1121.0968,450 960,450 Z"
         transform="matrix(0.26458333,0,0,0.26458333,-118.68452,299.26786)"
         id="circle824"
         inkscape:connector-curvature="0"
         sodipodi:nodetypes="ssscssscs" />
      <path
         style="fill:#ffffff;fill-opacity:1;stroke:none;stroke-width:0.26458332px;stroke-linecap:butt;stroke-linejoin:miter;stroke-opacity:1"
         d="m 258.34675,529.4172 -21.78994,-21.78994 29.76559,7.97566 -7.97567,-29.7656 21.78994,21.78994 7.97568,-29.76562 7.97568,29.76565 21.78997,-21.78997 -7.97568,29.76561 29.7656,-7.97567 -21.78995,21.78994 29.76563,7.97568 -29.76563,7.97568 21.78995,21.78995 -29.76562,-7.97568 7.97567,29.7656 -21.78994,-21.78995 -7.97568,29.76563 -7.97568,-29.7656 -21.78992,21.78992 7.97565,-29.7656 -29.76559,7.97568 21.78994,-21.78995 -29.76562,-7.97568 z"
         id="path851"
         inkscape:connector-curvature="0"
         sodipodi:nodetypes="ccccccccccccccccccccccccc" />
      <path
         sodipodi:nodetypes="ccccccccccccc"
         inkscape:connector-curvature="0"
         id="path855"
         d="m 113.52556,511.43785 v -15.875 h 43.61805 v -21.16666 h 15.875 v 21.16666 h 43.61806 v 15.875 h -43.61806 v 126.49668 h -15.875 V 511.43785 Z"
         style="fill:#ffffff;fill-opacity:1;stroke:none;stroke-width:0.26458332px;stroke-linecap:butt;stroke-linejoin:miter;stroke-opacity:1" />
    </g>
  </g>
</svg>
