<?xml version="1.0" encoding="UTF-8" standalone="no"?>
<!-- Created with Inkscape (http://www.inkscape.org/) -->

<svg
   width="1800"
   height="1800"
   viewBox="0 0 476.25 476.25001"
   version="1.1"
   id="svg8"
   inkscape:export-filename="C:\Users\厂永刄先生\Documents\GXI3CW2\,pjóŭ\Ghana.png"
   inkscape:export-xdpi="96"
   inkscape:export-ydpi="96"
   inkscape:version="1.3 (0e150ed6c4, 2023-07-21)"
   sodipodi:docname="it_1956_000-001_roundel.svg"
   xmlns:inkscape="http://www.inkscape.org/namespaces/inkscape"
   xmlns:sodipodi="http://sodipodi.sourceforge.net/DTD/sodipodi-0.dtd"
   xmlns="http://www.w3.org/2000/svg"
   xmlns:svg="http://www.w3.org/2000/svg"
   xmlns:rdf="http://www.w3.org/1999/02/22-rdf-syntax-ns#"
   xmlns:cc="http://creativecommons.org/ns#"
   xmlns:dc="http://purl.org/dc/elements/1.1/">
  <defs
     id="defs2" />
  <sodipodi:namedview
     id="base"
     pagecolor="#ffffff"
     bordercolor="#666666"
     borderopacity="1.0"
     inkscape:pageopacity="0.0"
     inkscape:pageshadow="2"
     inkscape:zoom="0.21370339"
     inkscape:cx="456.23984"
     inkscape:cy="671.49146"
     inkscape:document-units="px"
     inkscape:current-layer="layer1"
     showgrid="false"
     units="px"
     fit-margin-top="0"
     fit-margin-left="0"
     fit-margin-right="0"
     fit-margin-bottom="0"
     inkscape:showpageshadow="false"
     inkscape:snap-intersection-paths="true"
     inkscape:object-paths="false"
     inkscape:pagecheckerboard="true"
     inkscape:snap-smooth-nodes="false"
     inkscape:window-width="1920"
     inkscape:window-height="1009"
     inkscape:window-x="-8"
     inkscape:window-y="-8"
     inkscape:window-maximized="1"
     inkscape:object-nodes="true"
     inkscape:snap-nodes="true"
     inkscape:deskcolor="#505050" />
  <metadata
     id="metadata5">
    <rdf:RDF>
      <cc:Work
         rdf:about="">
        <dc:format>image/svg+xml</dc:format>
        <dc:type
           rdf:resource="http://purl.org/dc/dcmitype/StillImage" />
      </cc:Work>
    </rdf:RDF>
  </metadata>
  <g
     inkscape:label="レイヤー 1"
     inkscape:groupmode="layer"
     id="layer1"
     transform="translate(-444.87799,-608.83038)">
    <path
       id="circle7"
       style="fill:#ffffff;fill-opacity:1;stroke-width:13.0235;stroke-linecap:round;stroke-linejoin:round;stroke-miterlimit:155;paint-order:stroke fill markers"
       d="m 444.87799,846.95538 c 0,131.5128 106.6122,238.12502 238.125,238.12502 131.5128,0 238.125,-106.61222 238.125,-238.12502 0,-131.5128 -106.6122,-238.125 -238.125,-238.125 -131.5128,0 -238.125,106.6122 -238.125,238.125 z"
       sodipodi:nodetypes="zzzzz" />
    <path
       id="path216"
       style="color:#000000;fill:#808080;stroke:none;stroke-width:1.01276;stroke-dasharray:none;stroke-opacity:1;fill-opacity:1"
       d="m 683.00303,619.41373 c -19.29868,0 -35.11666,15.81798 -35.11666,35.11695 0,14.04021 8.37782,26.23028 20.3721,31.8349 v 14.80777 h -89.42939 v 25.65536 h 89.42939 v 237.03917 c 0,16.78252 -17.17449,32.4681 -46.58331,32.4681 -72.972,0 -115.1302,-110.40728 -119.6333,-135.30973 -6.08995,14.80978 -12.69045,41.33244 -8.43445,60.75238 1.67843,-3.30679 6.00151,-8.9375 10.22253,-9.01795 0,0 25.17248,79.24784 59.82461,100.40862 50.01357,30.5412 109.24419,43.8268 119.34848,61.3278 10.10414,-17.501 69.33477,-30.7866 119.34834,-61.3278 34.65226,-21.16078 59.8246,-100.40862 59.8246,-100.40862 4.22102,0.0803 8.5441,5.71116 10.22267,9.01795 4.25586,-19.41994 -2.34464,-45.9426 -8.43444,-60.75238 -4.50325,24.90245 -46.66144,135.30973 -119.63329,135.30973 -29.40884,0 -46.58146,-15.68558 -46.58146,-32.4681 V 726.82871 h 89.42739 v -25.65536 h -89.42739 v -14.80777 c 11.99026,-5.60504 20.3602,-17.79541 20.3602,-31.8349 0,-19.29897 -15.80794,-35.11695 -35.10662,-35.11695 z"
       sodipodi:nodetypes="sscccccsscccccccccsscccccss" />
  </g>
</svg>
