<?xml version="1.0" encoding="UTF-8" standalone="no"?>
<!-- Created with Inkscape (http://www.inkscape.org/) -->

<svg
   xmlns:dc="http://purl.org/dc/elements/1.1/"
   xmlns:cc="http://creativecommons.org/ns#"
   xmlns:rdf="http://www.w3.org/1999/02/22-rdf-syntax-ns#"
   xmlns:svg="http://www.w3.org/2000/svg"
   xmlns="http://www.w3.org/2000/svg"
   xmlns:sodipodi="http://sodipodi.sourceforge.net/DTD/sodipodi-0.dtd"
   xmlns:inkscape="http://www.inkscape.org/namespaces/inkscape"
   width="1800"
   height="1800"
   viewBox="0 0 476.25 476.25001"
   version="1.1"
   id="svg8"
   inkscape:export-filename="C:\Users\drk22\Documents\GXI3CW2\JáÈŭcèŭ\Ìn\GB.png"
   inkscape:export-xdpi="96"
   inkscape:export-ydpi="96"
   inkscape:version="0.92.4 (5da689c313, 2019-01-14)"
   sodipodi:docname="IN1 - Copie.svg">
  <defs
     id="defs2" />
  <sodipodi:namedview
     id="base"
     pagecolor="#ffffff"
     bordercolor="#666666"
     borderopacity="1.0"
     inkscape:pageopacity="0.0"
     inkscape:pageshadow="2"
     inkscape:zoom="0.34689356"
     inkscape:cx="1131.0659"
     inkscape:cy="810.79598"
     inkscape:document-units="px"
     inkscape:current-layer="layer1"
     showgrid="false"
     units="px"
     fit-margin-top="0"
     fit-margin-left="0"
     fit-margin-right="0"
     fit-margin-bottom="0"
     inkscape:showpageshadow="false"
     inkscape:snap-intersection-paths="false"
     inkscape:object-paths="false"
     inkscape:pagecheckerboard="true"
     inkscape:snap-smooth-nodes="false"
     inkscape:window-width="1920"
     inkscape:window-height="1051"
     inkscape:window-x="-9"
     inkscape:window-y="-9"
     inkscape:window-maximized="1"
     inkscape:object-nodes="true" />
  <metadata
     id="metadata5">
    <rdf:RDF>
      <cc:Work
         rdf:about="">
        <dc:format>image/svg+xml</dc:format>
        <dc:type
           rdf:resource="http://purl.org/dc/dcmitype/StillImage" />
        <dc:title></dc:title>
      </cc:Work>
    </rdf:RDF>
  </metadata>
  <g
     inkscape:label="レイヤー 1"
     inkscape:groupmode="layer"
     id="layer1"
     transform="translate(102.80952,-299.26786)">
    <path
       style="fill:#c8102e;fill-opacity:1;stroke:none;stroke-width:0.99999994;stroke-linecap:butt;stroke-linejoin:miter;stroke-miterlimit:4;stroke-dasharray:none;stroke-opacity:1"
       d="M 936,0 A 900,900 0 0 0 756,19.162109 V 720 H 54.246094 A 900,900 0 0 0 36,900 900,900 0 0 0 55.162109,1080 H 756 v 701.7539 A 900,900 0 0 0 936,1800 900,900 0 0 0 1116,1780.8379 V 1080 h 701.7539 A 900,900 0 0 0 1836,900 900,900 0 0 0 1816.8379,720 H 1116 V 18.246094 A 900,900 0 0 0 936,0 Z"
       transform="matrix(0.26458333,0,0,0.26458333,-112.33452,299.26786)"
       id="path899"
       inkscape:connector-curvature="0" />
    <path
       style="fill:#ffffff;fill-opacity:1;stroke:none;stroke-width:0.99999994;stroke-linecap:butt;stroke-linejoin:miter;stroke-miterlimit:4;stroke-dasharray:none;stroke-opacity:1"
       d="M 1116,18.246094 V 720 h 700.8379 A 900,900 0 0 0 1783.5156,600 H 1236 V 52.619141 A 900,900 0 0 0 1116,18.246094 Z"
       transform="matrix(0.26458333,0,0,0.26458333,-112.33452,299.26786)"
       id="path833"
       inkscape:connector-curvature="0" />
    <path
       style="fill:#ffffff;fill-opacity:1;stroke:none;stroke-width:0.99999994px;stroke-linecap:butt;stroke-linejoin:miter;stroke-opacity:1"
       d="M 1433.6797,150.76172 1236,348.44141 v 83.85351 l 246.1953,-246.19531 a 900,900 0 0 0 -48.5156,-35.33789 z"
       transform="matrix(0.26458333,0,0,0.26458333,-112.33452,299.26786)"
       id="path912"
       inkscape:connector-curvature="0" />
    <path
       style="fill:#012169;fill-opacity:1;stroke:none;stroke-width:0.99999994px;stroke-linecap:butt;stroke-linejoin:miter;stroke-opacity:1"
       d="M 1685.1953,402.36133 1487.5566,600 h 295.959 a 900,900 0 0 0 -98.3203,-197.63867 z"
       transform="matrix(0.26458333,0,0,0.26458333,-112.33452,299.26786)"
       id="path916"
       inkscape:connector-curvature="0" />
    <path
       style="fill:#012169;fill-opacity:1;stroke:none;stroke-width:0.99999994px;stroke-linecap:butt;stroke-linejoin:miter;stroke-opacity:1"
       d="M 1236,52.619141 V 348.44141 L 1433.6797,150.76172 A 900,900 0 0 0 1236,52.619141 Z"
       transform="matrix(0.26458333,0,0,0.26458333,-112.33452,299.26786)"
       id="path918"
       inkscape:connector-curvature="0" />
    <path
       style="fill:#c8102e;fill-opacity:1;stroke:none;stroke-width:0.99999994px;stroke-linecap:butt;stroke-linejoin:miter;stroke-opacity:1"
       d="M 1482.1953,186.09961 1236,432.29492 V 600 l 335.998,-335.99805 a 900,900 0 0 0 -89.8027,-77.90234 z"
       transform="matrix(0.26458333,0,0,0.26458333,-112.33452,299.26786)"
       id="path920"
       inkscape:connector-curvature="0" />
    <path
       style="fill:#ffffff;fill-opacity:1;stroke:none;stroke-width:0.26458332px;stroke-linecap:butt;stroke-linejoin:miter;stroke-opacity:1"
       d="m 303.58995,369.11838 c 11.17352,11.17834 21.20638,23.44135 29.95012,36.60759 l -52.2919,52.29189 h -66.55769 z"
       id="path914"
       inkscape:connector-curvature="0"
       sodipodi:nodetypes="ccccc" />
    <path
       id="path1106"
       d="M 368.61286,585.01786 H 182.94048 v 185.43003 a 238.125,238.125 0 0 0 31.75,-8.81653 v -144.8635 h 144.82785 a 238.125,238.125 0 0 0 9.09453,-31.75 z"
       style="fill:#ffffff;fill-opacity:1;stroke:none;stroke-width:0.26458332;stroke-linecap:butt;stroke-linejoin:miter;stroke-miterlimit:4;stroke-dasharray:none;stroke-opacity:1"
       inkscape:connector-curvature="0" />
    <path
       id="path1108"
       d="m 333.55144,669.07062 -52.30275,-52.30276 h -22.18625 l 65.13918,65.13917 a 238.125,238.125 0 0 0 9.34982,-12.83641 z"
       style="fill:#ffffff;fill-opacity:1;stroke:none;stroke-width:0.26458332px;stroke-linecap:butt;stroke-linejoin:miter;stroke-opacity:1"
       inkscape:connector-curvature="0" />
    <path
       id="path1110"
       d="m 266.98237,735.61745 -52.29189,-52.29191 v 78.30582 a 238.125,238.125 0 0 0 52.29189,-26.01391 z"
       style="fill:#012169;fill-opacity:1;stroke:none;stroke-width:0.26458332px;stroke-linecap:butt;stroke-linejoin:miter;stroke-opacity:1"
       inkscape:connector-curvature="0" />
    <path
       id="path1112"
       d="m 359.51833,616.76786 h -78.26964 l 52.30275,52.30276 a 238.125,238.125 0 0 0 25.96689,-52.30276 z"
       style="fill:#012169;fill-opacity:1;stroke:none;stroke-width:0.26458332px;stroke-linecap:butt;stroke-linejoin:miter;stroke-opacity:1"
       inkscape:connector-curvature="0" />
    <path
       id="path1114"
       d="m 324.20162,681.90703 -65.13918,-65.13917 h -44.37196 l 88.89948,88.89947 a 238.125,238.125 0 0 0 20.61166,-23.7603 z"
       style="fill:#c8102e;fill-opacity:1;stroke:none;stroke-width:0.26458332px;stroke-linecap:butt;stroke-linejoin:miter;stroke-opacity:1"
       inkscape:connector-curvature="0" />
    <path
       sodipodi:nodetypes="ccccc"
       inkscape:connector-curvature="0"
       id="path1116"
       d="m 303.58995,705.66734 c -11.17834,11.17352 -23.44135,21.20638 -36.60759,29.95012 l -52.29189,-52.2919 v -66.55769 z"
       style="fill:#ffffff;fill-opacity:1;stroke:none;stroke-width:0.26458332px;stroke-linecap:butt;stroke-linejoin:miter;stroke-opacity:1" />
    <path
       id="path1118"
       d="M 87.690477,770.69025 V 585.01786 h -185.43003 a 238.125,238.125 0 0 0 8.81653,31.75 h 144.8635 v 144.82785 a 238.125,238.125 0 0 0 31.75,9.09454 z"
       style="fill:#ffffff;fill-opacity:1;stroke:none;stroke-width:0.26458332;stroke-linecap:butt;stroke-linejoin:miter;stroke-miterlimit:4;stroke-dasharray:none;stroke-opacity:1"
       inkscape:connector-curvature="0" />
    <path
       id="path1120"
       d="M 3.6377275,735.62882 55.940477,683.32607 v -22.18624 l -65.1391695,65.13918 a 238.125,238.125 0 0 0 12.83642,9.34981 z"
       style="fill:#ffffff;fill-opacity:1;stroke:none;stroke-width:0.26458332px;stroke-linecap:butt;stroke-linejoin:miter;stroke-opacity:1"
       inkscape:connector-curvature="0" />
    <path
       id="path1122"
       d="m -62.909113,669.05976 52.29191,-52.2919 h -78.30582 a 238.125,238.125 0 0 0 26.01391,52.2919 z"
       style="fill:#012169;fill-opacity:1;stroke:none;stroke-width:0.26458332px;stroke-linecap:butt;stroke-linejoin:miter;stroke-opacity:1"
       inkscape:connector-curvature="0" />
    <path
       id="path1124"
       d="M 55.940477,761.59571 V 683.32607 L 3.6377275,735.62882 a 238.125,238.125 0 0 0 52.3027495,25.96689 z"
       style="fill:#012169;fill-opacity:1;stroke:none;stroke-width:0.26458332px;stroke-linecap:butt;stroke-linejoin:miter;stroke-opacity:1"
       inkscape:connector-curvature="0" />
    <path
       id="path1126"
       d="M -9.1986925,726.27901 55.940477,661.13983 v -44.37197 l -88.89947,88.89949 a 238.125,238.125 0 0 0 23.7603005,20.61166 z"
       style="fill:#c8102e;fill-opacity:1;stroke:none;stroke-width:0.26458332px;stroke-linecap:butt;stroke-linejoin:miter;stroke-opacity:1"
       inkscape:connector-curvature="0" />
    <path
       sodipodi:nodetypes="ccccc"
       inkscape:connector-curvature="0"
       id="path1128"
       d="m -32.958993,705.66734 c -11.17352,-11.17834 -21.20638,-23.44135 -29.95012,-36.60759 l 52.2919,-52.29189 h 66.55769 z"
       style="fill:#ffffff;fill-opacity:1;stroke:none;stroke-width:0.26458332px;stroke-linecap:butt;stroke-linejoin:miter;stroke-opacity:1" />
    <path
       inkscape:connector-curvature="0"
       style="fill:#ffffff;fill-opacity:1;stroke:none;stroke-width:0.26458332;stroke-linecap:butt;stroke-linejoin:miter;stroke-miterlimit:4;stroke-dasharray:none;stroke-opacity:1"
       d="M -97.981903,489.76786 H 87.690477 V 304.33783 a 238.125,238.125 0 0 0 -31.75,8.81653 v 144.8635 h -144.82785 a 238.125,238.125 0 0 0 -9.09453,31.75 z"
       id="path1130" />
    <path
       inkscape:connector-curvature="0"
       style="fill:#ffffff;fill-opacity:1;stroke:none;stroke-width:0.26458332px;stroke-linecap:butt;stroke-linejoin:miter;stroke-opacity:1"
       d="m -62.920483,405.7151 52.30275,52.30276 h 22.18625 l -65.13918,-65.13917 a 238.125,238.125 0 0 0 -9.34982,12.83641 z"
       id="path1132" />
    <path
       inkscape:connector-curvature="0"
       style="fill:#012169;fill-opacity:1;stroke:none;stroke-width:0.26458332px;stroke-linecap:butt;stroke-linejoin:miter;stroke-opacity:1"
       d="M 3.6485875,339.16827 55.940477,391.46018 V 313.15436 A 238.125,238.125 0 0 0 3.6485875,339.16827 Z"
       id="path1134" />
    <path
       inkscape:connector-curvature="0"
       style="fill:#012169;fill-opacity:1;stroke:none;stroke-width:0.26458332px;stroke-linecap:butt;stroke-linejoin:miter;stroke-opacity:1"
       d="m -88.887373,458.01786 h 78.26964 l -52.30275,-52.30276 a 238.125,238.125 0 0 0 -25.96689,52.30276 z"
       id="path1136" />
    <path
       inkscape:connector-curvature="0"
       style="fill:#c8102e;fill-opacity:1;stroke:none;stroke-width:0.26458332px;stroke-linecap:butt;stroke-linejoin:miter;stroke-opacity:1"
       d="m -53.570663,392.87869 65.13918,65.13917 h 44.37196 l -88.89948,-88.89947 a 238.125,238.125 0 0 0 -20.61166,23.7603 z"
       id="path1138" />
    <path
       style="fill:#ffffff;fill-opacity:1;stroke:none;stroke-width:0.26458332px;stroke-linecap:butt;stroke-linejoin:miter;stroke-opacity:1"
       d="M -32.958993,369.11838 C -21.780653,357.94486 -9.5176425,347.912 3.6485975,339.16826 l 52.2918895,52.2919 v 66.55769 z"
       id="path1140"
       inkscape:connector-curvature="0"
       sodipodi:nodetypes="ccccc" />
  </g>
</svg>
