<?xml version="1.0" encoding="UTF-8" standalone="no"?>
<!-- Created with Inkscape (http://www.inkscape.org/) -->

<svg
   width="2736"
   height="1800"
   viewBox="0 0 723.89999 476.25001"
   version="1.1"
   id="svg8"
   inkscape:export-filename="C:\Users\厂永刄先生\Documents\GXI3CW2\JáÈŭcèŭ\Maqkàla\Maqkàla.png"
   inkscape:export-xdpi="96"
   inkscape:export-ydpi="96"
   inkscape:version="1.3 (0e150ed6c4, 2023-07-21)"
   sodipodi:docname="sk_1992.svg"
   xmlns:inkscape="http://www.inkscape.org/namespaces/inkscape"
   xmlns:sodipodi="http://sodipodi.sourceforge.net/DTD/sodipodi-0.dtd"
   xmlns="http://www.w3.org/2000/svg"
   xmlns:svg="http://www.w3.org/2000/svg"
   xmlns:rdf="http://www.w3.org/1999/02/22-rdf-syntax-ns#"
   xmlns:cc="http://creativecommons.org/ns#"
   xmlns:dc="http://purl.org/dc/elements/1.1/">
  <defs
     id="defs2" />
  <sodipodi:namedview
     id="base"
     pagecolor="#ffffff"
     bordercolor="#666666"
     borderopacity="1.0"
     inkscape:pageopacity="0.0"
     inkscape:pageshadow="2"
     inkscape:zoom="0.35355339"
     inkscape:cx="1360.4734"
     inkscape:cy="1090.3587"
     inkscape:document-units="px"
     inkscape:current-layer="layer1"
     showgrid="false"
     units="px"
     fit-margin-top="0"
     fit-margin-left="0"
     fit-margin-right="0"
     fit-margin-bottom="0"
     inkscape:showpageshadow="false"
     inkscape:snap-intersection-paths="true"
     inkscape:object-paths="false"
     inkscape:pagecheckerboard="true"
     inkscape:snap-smooth-nodes="false"
     inkscape:window-width="1920"
     inkscape:window-height="1009"
     inkscape:window-x="-8"
     inkscape:window-y="-8"
     inkscape:window-maximized="1"
     inkscape:object-nodes="true"
     inkscape:deskcolor="#505050" />
  <metadata
     id="metadata5">
    <rdf:RDF>
      <cc:Work
         rdf:about="">
        <dc:format>image/svg+xml</dc:format>
        <dc:type
           rdf:resource="http://purl.org/dc/dcmitype/StillImage" />
      </cc:Work>
    </rdf:RDF>
  </metadata>
  <g
     inkscape:label="レイヤー 1"
     inkscape:groupmode="layer"
     id="layer1"
     transform="translate(112.33452,-299.26786)">
    <path
       sodipodi:nodetypes="ccccc"
       inkscape:connector-curvature="0"
       id="path824"
       d="m 611.56548,458.01786 v 158.75 h -714.375 v -158.75 z"
       style="fill:#254aa5;fill-opacity:1;stroke:none;stroke-width:2.02610254px;stroke-linecap:butt;stroke-linejoin:miter;stroke-opacity:1" />
    <path
       style="fill:#ffffff;fill-opacity:1;stroke:none;stroke-width:1.75465631px;stroke-linecap:butt;stroke-linejoin:miter;stroke-opacity:1"
       d="m -102.80952,458.01786 v -158.75 h 714.375 v 158.75 z"
       id="path849"
       inkscape:connector-curvature="0"
       sodipodi:nodetypes="ccccc" />
    <path
       style="fill:#ffffff;fill-opacity:1;stroke:none;stroke-width:0.51166773px;stroke-linecap:butt;stroke-linejoin:miter;stroke-opacity:1"
       d="m -102.80952,299.26786 h -9.525 v 476.25 h 9.525 z"
       id="path819"
       inkscape:connector-curvature="0"
       sodipodi:nodetypes="ccccc" />
    <path
       style="fill:#ed1c24;fill-opacity:1;stroke:none;stroke-width:2.02610254px;stroke-linecap:butt;stroke-linejoin:miter;stroke-opacity:1"
       d="m 611.56548,616.76786 v 158.75 h -714.375 v -158.75 z"
       id="path847"
       inkscape:connector-curvature="0"
       sodipodi:nodetypes="ccccc" />
    <g
       id="g8"
       transform="translate(-142.875)">
      <path
         style="color:#000000;fill:#ffffff;-inkscape-stroke:none;paint-order:stroke fill markers"
         d="m 351.56734,411.1875 c 3.11456,19.50673 5.2061,77.83742 5.20611,115.62109 0,91.11757 -88.58715,131.62631 -102.39454,137.38672 -13.80739,-5.76041 -102.39454,-46.26915 -102.39454,-137.38672 10e-6,-37.78367 2.09155,-96.11436 5.20611,-115.62109 z"
         id="path4"
         sodipodi:nodetypes="cscscc" />
      <path
         style="fill:#ed1c24;fill-opacity:1;stroke:none;stroke-width:11.9764;stroke-linecap:round;stroke-linejoin:miter;stroke-dasharray:none;stroke-opacity:1;paint-order:stroke fill markers"
         d="m 344.33631,418.33036 c 0,0 5.29167,18.52083 5.29167,108.47916 0,31.49568 -11.67573,56.82916 -26.85151,76.45466 H 263.6384 v -71.69215 c 25.03249,0 50.27083,3.175 50.27083,3.175 -1.66363,-6.20877 -1.88122,-17.85002 0,-24.87084 0,0 -25.23834,3.175 -50.27083,3.175 v -24.73492 c 21.36007,0.6063 39.6875,3.03909 39.6875,3.03909 -1.66363,-6.20876 -1.88122,-17.85002 0,-24.87083 0,0 -18.05111,2.39327 -39.19968,3.02255 0.88949,-18.84952 2.68718,-35.37717 2.68718,-35.37717 -7.02081,1.88122 -18.66207,1.66363 -24.87084,0 0,0 1.79769,16.52765 2.68718,35.37717 -21.14857,-0.62928 -39.19968,-3.02255 -39.19968,-3.02255 1.88122,7.02081 1.66363,18.66207 0,24.87083 0,0 18.32743,-2.43279 39.6875,-3.03909 v 24.73492 c -25.03249,0 -50.27083,-3.175 -50.27083,-3.175 1.88122,7.02082 1.66363,18.66207 0,24.87084 0,0 25.23834,-3.175 50.27083,-3.175 v 71.69215 h -59.13807 c -15.17578,-19.6255 -26.85151,-44.95898 -26.85151,-76.45466 0,-89.95833 5.29167,-108.47916 5.29167,-108.47916 z"
         id="path5"
         sodipodi:nodetypes="csccccccccccccccccccccccscc" />
      <path
         sodipodi:nodetypes="csczcsccc"
         inkscape:connector-curvature="0"
         id="path8-1"
         d="m 322.76072,603.28445 c -1.52167,-7.98194 -10.0335,-21.45502 -23.73999,-21.45502 -7.90021,0 -14.0699,4.47807 -18.1746,9.79888 -1.53694,-7.94596 -11.0451,-21.71547 -26.46815,-21.71547 -15.42305,0 -24.93121,13.76951 -26.46815,21.71547 -4.1047,-5.32081 -10.27439,-9.79888 -18.1746,-9.79888 -13.70649,0 -22.21832,13.47308 -23.73999,21.45502 28.16798,36.41476 68.38274,53.17091 68.38274,53.17091 0,0 40.21476,-16.75615 68.38274,-53.17091 z"
         style="fill:#254aa5;fill-opacity:1;stroke:none;stroke-width:14.2875;stroke-linecap:butt;stroke-linejoin:miter;stroke-dasharray:none;stroke-opacity:1;paint-order:stroke fill markers" />
    </g>
  </g>
</svg>
