<?xml version="1.0" encoding="UTF-8" standalone="no"?>
<!-- Created with Inkscape (http://www.inkscape.org/) -->

<svg
   width="1445.879"
   height="1800.0001"
   viewBox="0 0 382.55548 476.25004"
   version="1.1"
   id="svg8"
   inkscape:export-filename="C:\Users\厂永刄先生\Documents\GXI3CW2\JáÈŭcèŭ\Maqkàla\Maqkàla.png"
   inkscape:export-xdpi="96"
   inkscape:export-ydpi="96"
   inkscape:version="1.3 (0e150ed6c4, 2023-07-21)"
   sodipodi:docname="sk_1993_roundel-lv.svg"
   xmlns:inkscape="http://www.inkscape.org/namespaces/inkscape"
   xmlns:sodipodi="http://sodipodi.sourceforge.net/DTD/sodipodi-0.dtd"
   xmlns="http://www.w3.org/2000/svg"
   xmlns:svg="http://www.w3.org/2000/svg"
   xmlns:rdf="http://www.w3.org/1999/02/22-rdf-syntax-ns#"
   xmlns:cc="http://creativecommons.org/ns#"
   xmlns:dc="http://purl.org/dc/elements/1.1/">
  <defs
     id="defs2" />
  <sodipodi:namedview
     id="base"
     pagecolor="#ffffff"
     bordercolor="#666666"
     borderopacity="1.0"
     inkscape:pageopacity="0.0"
     inkscape:pageshadow="2"
     inkscape:zoom="0.35355339"
     inkscape:cx="964.49365"
     inkscape:cy="813.1728"
     inkscape:document-units="px"
     inkscape:current-layer="layer1"
     showgrid="false"
     units="px"
     fit-margin-top="0"
     fit-margin-left="0"
     fit-margin-right="0"
     fit-margin-bottom="0"
     inkscape:showpageshadow="false"
     inkscape:snap-intersection-paths="true"
     inkscape:object-paths="false"
     inkscape:pagecheckerboard="true"
     inkscape:snap-smooth-nodes="false"
     inkscape:window-width="1920"
     inkscape:window-height="1009"
     inkscape:window-x="-8"
     inkscape:window-y="-8"
     inkscape:window-maximized="1"
     inkscape:object-nodes="true"
     inkscape:deskcolor="#505050" />
  <metadata
     id="metadata5">
    <rdf:RDF>
      <cc:Work
         rdf:about="">
        <dc:format>image/svg+xml</dc:format>
        <dc:type
           rdf:resource="http://purl.org/dc/dcmitype/StillImage" />
      </cc:Work>
    </rdf:RDF>
  </metadata>
  <g
     inkscape:label="レイヤー 1"
     inkscape:groupmode="layer"
     id="layer1"
     transform="translate(-149.50428,-299.16822)">
    <g
       id="g14"
       style="stroke:#4d4d4d;stroke-width:9.72849;stroke-dasharray:none;stroke-opacity:1"
       transform="matrix(0.97908267,0,0,0.97908267,3.129301,6.2598727)">
      <path
         sodipodi:nodetypes="csccsc"
         inkscape:connector-curvature="0"
         id="path12"
         d="m 344.86641,780.28035 c -16.33313,-7.15479 -190.5,-87.47796 -190.5,-259.29168 0,-179.91666 10.58334,-216.95832 10.58334,-216.95832 h 359.83332 c 0,0 10.58334,37.04166 10.58334,216.95832 0,171.81791 -174.17537,252.14061 -190.5,259.29168 z"
         style="fill:none;fill-opacity:1;stroke:#4d4d4d;stroke-width:9.72849;stroke-linecap:butt;stroke-linejoin:miter;stroke-dasharray:none;stroke-opacity:1;paint-order:stroke fill markers" />
      <path
         style="fill:none;fill-opacity:1;stroke:#4d4d4d;stroke-width:4.86425;stroke-linecap:butt;stroke-linejoin:round;stroke-dasharray:none;stroke-opacity:1;paint-order:stroke fill markers"
         d="m 326.34557,610.74622 v -80.23253 c -50.06498,0 -100.54166,6.35 -100.54166,6.35 3.32726,-12.41754 3.76244,-35.70004 0,-49.74168 0,0 50.47668,6.35 100.54166,6.35 v -49.46984 c -42.72014,1.2126 -79.375,6.07818 -79.375,6.07818 3.32726,-12.41752 3.76244,-35.70004 0,-49.74166 0,0 36.10222,4.78654 78.39936,6.0451 -1.77898,-37.69904 -5.37436,-70.75434 -5.37436,-70.75434 14.04162,3.76244 37.32414,3.32726 49.74168,0 0,0 -3.59538,33.0553 -5.37436,70.75434 42.29714,-1.25856 78.39936,-6.0451 78.39936,-6.0451 -3.76244,14.04162 -3.32726,37.32414 0,49.74166 0,0 -36.65486,-4.86558 -79.375,-6.07818 v 49.46984 c 50.06498,0 100.54166,-6.35 100.54166,-6.35 -3.76244,14.04164 -3.32726,37.32414 0,49.74168 0,0 -50.47668,-6.35 -100.54166,-6.35 v 80.23253"
         id="path13"
         sodipodi:nodetypes="cccccccccccccccccccc" />
      <path
         sodipodi:nodetypes="csczcsc"
         inkscape:connector-curvature="0"
         id="path14"
         d="m 208.10093,673.93853 c 3.04334,-15.96388 20.067,-42.91004 47.47998,-42.91004 15.80042,0 28.1398,8.95614 36.3492,19.59776 3.07388,-15.89192 22.0902,-43.43094 52.9363,-43.43094 30.8461,0 49.86242,27.53902 52.9363,43.43094 8.2094,-10.64162 20.54878,-19.59776 36.3492,-19.59776 27.41298,0 44.43664,26.94616 47.47998,42.91004"
         style="fill:none;fill-opacity:1;stroke:#4d4d4d;stroke-width:4.86425;stroke-linecap:butt;stroke-linejoin:round;stroke-dasharray:none;stroke-opacity:1;paint-order:stroke fill markers" />
    </g>
  </g>
</svg>
