<?xml version="1.0" encoding="UTF-8" standalone="no"?>
<!-- Created with Inkscape (http://www.inkscape.org/) -->

<svg
   width="1800"
   height="1800"
   viewBox="0 0 476.25 476.25001"
   version="1.1"
   id="svg8"
   inkscape:export-filename="C:\Users\厂永刄先生\Documents\GXI3CW2\,pjóŭ\Australie.png"
   inkscape:export-xdpi="96"
   inkscape:export-ydpi="96"
   inkscape:version="1.3 (0e150ed6c4, 2023-07-21)"
   sodipodi:docname="ae_1976_roundel-lv.svg"
   xmlns:inkscape="http://www.inkscape.org/namespaces/inkscape"
   xmlns:sodipodi="http://sodipodi.sourceforge.net/DTD/sodipodi-0.dtd"
   xmlns="http://www.w3.org/2000/svg"
   xmlns:svg="http://www.w3.org/2000/svg"
   xmlns:rdf="http://www.w3.org/1999/02/22-rdf-syntax-ns#"
   xmlns:cc="http://creativecommons.org/ns#"
   xmlns:dc="http://purl.org/dc/elements/1.1/">
  <defs
     id="defs2" />
  <sodipodi:namedview
     id="base"
     pagecolor="#ffffff"
     bordercolor="#666666"
     borderopacity="1.0"
     inkscape:pageopacity="0.0"
     inkscape:pageshadow="2"
     inkscape:zoom="0.25"
     inkscape:cx="1230"
     inkscape:cy="1034"
     inkscape:document-units="px"
     inkscape:current-layer="g863"
     showgrid="false"
     units="px"
     fit-margin-top="0"
     fit-margin-left="0"
     fit-margin-right="0"
     fit-margin-bottom="0"
     inkscape:showpageshadow="false"
     inkscape:snap-intersection-paths="false"
     inkscape:object-paths="false"
     inkscape:pagecheckerboard="true"
     inkscape:snap-smooth-nodes="true"
     inkscape:window-width="1920"
     inkscape:window-height="1009"
     inkscape:window-x="-8"
     inkscape:window-y="-8"
     inkscape:window-maximized="1"
     inkscape:object-nodes="true"
     inkscape:deskcolor="#505050" />
  <metadata
     id="metadata5">
    <rdf:RDF>
      <cc:Work
         rdf:about="">
        <dc:format>image/svg+xml</dc:format>
        <dc:type
           rdf:resource="http://purl.org/dc/dcmitype/StillImage" />
      </cc:Work>
    </rdf:RDF>
  </metadata>
  <g
     inkscape:label="レイヤー 1"
     inkscape:groupmode="layer"
     id="layer1"
     transform="translate(-432.97167,-358.79912)">
    <g
       id="g863"
       transform="matrix(0.49999994,0,0,0.49999994,-51.404766,149.63395)">
      <path
         id="path3"
         style="fill:#8097ad;stroke-width:1.32267;stroke-linejoin:bevel;stroke-miterlimit:155;paint-order:markers fill stroke;fill-opacity:1"
         d="m 1325.9366,433.42052 c -205.0936,53.0532 -357.18361,239.80203 -357.18361,461.15992 0,262.45076 213.79931,476.25006 476.25001,476.25006 262.4508,0 476.2501,-213.7993 476.2501,-476.25006 0,-221.35789 -152.09,-408.10672 -357.1836,-461.15992 z"
         sodipodi:nodetypes="cszscc" />
      <path
         id="circle6"
         style="fill:#d3dae2;stroke-width:0.837691;stroke-linejoin:bevel;stroke-miterlimit:155;paint-order:markers fill stroke;fill-opacity:1"
         d="m 1746.6281,894.58044 a 301.62503,301.62503 0 0 1 -301.625,301.62506 301.62503,301.62503 0 0 1 -301.6251,-301.62506 301.62503,301.62503 0 0 1 301.6251,-301.62503 301.62503,301.62503 0 0 1 301.625,301.62503 z" />
      <path
         id="path6"
         style="fill:#4c6075;stroke-width:1.32267;stroke-linejoin:bevel;stroke-miterlimit:155;paint-order:markers fill stroke;fill-opacity:1"
         d="m 1564.0695,433.42052 c -38.0735,-9.84879 -77.9736,-15.09014 -119.0665,-15.09014 -41.0928,0 -80.9929,5.24135 -119.0664,15.09014 l 71.984,461.15992 h 94.1649 z"
         sodipodi:nodetypes="czcccc" />
      <path
         id="circle7-1"
         style="fill:#2f3c49;stroke-width:0.330667;stroke-linejoin:bevel;stroke-miterlimit:155;paint-order:markers fill stroke;fill-opacity:1"
         transform="scale(-1)"
         d="m -1325.9405,-894.58044 a 119.06252,119.06252 0 0 1 -119.0626,119.06252 119.06252,119.06252 0 0 1 -119.0625,-119.06252 119.06252,119.06252 0 0 1 119.0625,-119.06256 119.06252,119.06252 0 0 1 119.0626,119.06256 z" />
    </g>
  </g>
</svg>
