<?xml version="1.0" encoding="UTF-8" standalone="no"?>
<!-- Created with Inkscape (http://www.inkscape.org/) -->

<svg
   xmlns:dc="http://purl.org/dc/elements/1.1/"
   xmlns:cc="http://creativecommons.org/ns#"
   xmlns:rdf="http://www.w3.org/1999/02/22-rdf-syntax-ns#"
   xmlns:svg="http://www.w3.org/2000/svg"
   xmlns="http://www.w3.org/2000/svg"
   xmlns:xlink="http://www.w3.org/1999/xlink"
   xmlns:sodipodi="http://sodipodi.sourceforge.net/DTD/sodipodi-0.dtd"
   xmlns:inkscape="http://www.inkscape.org/namespaces/inkscape"
   width="3636"
   height="1800"
   viewBox="0 0 962.02499 476.25001"
   version="1.1"
   id="svg8"
   inkscape:export-filename="C:\Users\厂永刄先生\Documents\GXI3CW2\JáÈŭcèŭ\Maqkàla\Maqkàla.png"
   inkscape:export-xdpi="96"
   inkscape:export-ydpi="96"
   inkscape:version="0.92.4 (5da689c313, 2019-01-14)"
   sodipodi:docname="K'U1K'E.svg">
  <defs
     id="defs2">
    <linearGradient
       inkscape:collect="always"
       id="linearGradient2921">
      <stop
         style="stop-color:#f0b400;stop-opacity:0"
         offset="0"
         id="stop2917" />
      <stop
         id="stop2925"
         offset="0.22499999"
         style="stop-color:#f0b400;stop-opacity:0" />
      <stop
         style="stop-color:#f0b400;stop-opacity:0.50196081"
         offset="0.38"
         id="stop2927" />
      <stop
         style="stop-color:#f0b400;stop-opacity:0"
         offset="1"
         id="stop2919" />
    </linearGradient>
    <radialGradient
       inkscape:collect="always"
       xlink:href="#linearGradient2921"
       id="radialGradient2923"
       cx="-588.5845"
       cy="505.59018"
       fx="-588.5845"
       fy="505.59018"
       r="17.31952"
       gradientUnits="userSpaceOnUse"
       gradientTransform="matrix(1.5429611,0,0,1.5429611,319.57846,-274.51578)" />
  </defs>
  <sodipodi:namedview
     id="base"
     pagecolor="#ffffff"
     bordercolor="#666666"
     borderopacity="1.0"
     inkscape:pageopacity="0.0"
     inkscape:pageshadow="2"
     inkscape:zoom="0.25"
     inkscape:cx="2392.045"
     inkscape:cy="1213.4648"
     inkscape:document-units="px"
     inkscape:current-layer="layer1"
     showgrid="false"
     units="px"
     fit-margin-top="0"
     fit-margin-left="0"
     fit-margin-right="0"
     fit-margin-bottom="0"
     inkscape:showpageshadow="false"
     inkscape:snap-intersection-paths="true"
     inkscape:object-paths="false"
     inkscape:pagecheckerboard="true"
     inkscape:snap-smooth-nodes="false"
     inkscape:window-width="1920"
     inkscape:window-height="1051"
     inkscape:window-x="-9"
     inkscape:window-y="-9"
     inkscape:window-maximized="1"
     inkscape:object-nodes="true" />
  <metadata
     id="metadata5">
    <rdf:RDF>
      <cc:Work
         rdf:about="">
        <dc:format>image/svg+xml</dc:format>
        <dc:type
           rdf:resource="http://purl.org/dc/dcmitype/StillImage" />
        <dc:title></dc:title>
      </cc:Work>
    </rdf:RDF>
  </metadata>
  <g
     inkscape:label="レイヤー 1"
     inkscape:groupmode="layer"
     id="layer1"
     transform="translate(112.33452,-299.26786)">
    <path
       style="fill:#ffffff;fill-opacity:1;stroke:none;stroke-width:0.51166773px;stroke-linecap:butt;stroke-linejoin:miter;stroke-opacity:1"
       d="m -102.80952,299.26786 h -9.525 v 476.25 h 9.525 z"
       id="path819"
       inkscape:connector-curvature="0"
       sodipodi:nodetypes="ccccc" />
    <path
       sodipodi:nodetypes="cccc"
       inkscape:connector-curvature="0"
       id="path857"
       d="m -36.251564,299.26786 131.879515,65.93976 5e-6,-65.93976 z"
       style="fill:#133683;fill-opacity:1;stroke:none;stroke-width:0.13229164;stroke-linecap:butt;stroke-linejoin:miter;stroke-miterlimit:4;stroke-dasharray:none;stroke-opacity:1" />
    <path
       style="fill:#133683;fill-opacity:1;stroke:none;stroke-width:0.13229164;stroke-linecap:butt;stroke-linejoin:miter;stroke-miterlimit:4;stroke-dasharray:none;stroke-opacity:1"
       d="m -102.80952,332.54684 v 46.09601 h 92.192026 z"
       id="path861"
       inkscape:connector-curvature="0"
       sodipodi:nodetypes="cccc" />
    <path
       sodipodi:nodetypes="cccc"
       inkscape:connector-curvature="0"
       id="path863"
       d="m -102.80952,504.11386 v -46.09602 h 92.192026 z"
       style="fill:#133683;fill-opacity:1;stroke:none;stroke-width:0.13229164;stroke-linecap:butt;stroke-linejoin:miter;stroke-miterlimit:4;stroke-dasharray:none;stroke-opacity:1" />
    <path
       sodipodi:nodetypes="cccc"
       inkscape:connector-curvature="0"
       id="path869"
       d="M 95.627956,537.39283 H -36.251564 L 95.627951,471.45308 Z"
       style="fill:#133683;fill-opacity:1;stroke:none;stroke-width:0.13229164;stroke-linecap:butt;stroke-linejoin:miter;stroke-miterlimit:4;stroke-dasharray:none;stroke-opacity:1" />
    <path
       style="fill:#133683;fill-opacity:1;stroke:none;stroke-width:0.13229164;stroke-linecap:butt;stroke-linejoin:miter;stroke-miterlimit:4;stroke-dasharray:none;stroke-opacity:1"
       d="M 175.00295,537.39283 H 306.88252 L 175.00295,471.45308 Z"
       id="path879"
       inkscape:connector-curvature="0"
       sodipodi:nodetypes="cccc" />
    <path
       style="fill:#133683;fill-opacity:1;stroke:none;stroke-width:0.13229164;stroke-linecap:butt;stroke-linejoin:miter;stroke-miterlimit:4;stroke-dasharray:none;stroke-opacity:1"
       d="M 306.88246,299.26786 175.00295,365.20762 V 299.26786 Z"
       id="path889"
       inkscape:connector-curvature="0"
       sodipodi:nodetypes="cccc" />
    <path
       sodipodi:nodetypes="cccc"
       inkscape:connector-curvature="0"
       id="path891"
       d="m 373.44042,332.54684 -92.19203,46.09601 h 92.19203 z"
       style="fill:#133683;fill-opacity:1;stroke:none;stroke-width:0.13229164;stroke-linecap:butt;stroke-linejoin:miter;stroke-miterlimit:4;stroke-dasharray:none;stroke-opacity:1" />
    <path
       style="fill:#133683;fill-opacity:1;stroke:none;stroke-width:0.13229164;stroke-linecap:butt;stroke-linejoin:miter;stroke-miterlimit:4;stroke-dasharray:none;stroke-opacity:1"
       d="m 373.44042,458.01784 10e-6,46.09602 -92.19201,-46.09602 z"
       id="path893"
       inkscape:connector-curvature="0"
       sodipodi:nodetypes="cccc" />
    <path
       sodipodi:nodetypes="ccccc"
       inkscape:connector-curvature="0"
       id="path855"
       d="m 55.940461,458.01784 h -66.557955 l -92.192026,46.09602 v 33.27897 z"
       style="fill:#ffffff;fill-opacity:1;stroke:none;stroke-width:0.13229164;stroke-linecap:butt;stroke-linejoin:miter;stroke-miterlimit:4;stroke-dasharray:none;stroke-opacity:1" />
    <path
       style="fill:#ffffff;fill-opacity:1;stroke:none;stroke-width:0.13229164;stroke-linecap:butt;stroke-linejoin:miter;stroke-miterlimit:4;stroke-dasharray:none;stroke-opacity:1"
       d="m -102.80952,299.26786 h 66.557956 l 131.879515,65.93976 5e-6,13.43523 H 55.940461 Z"
       id="path847"
       inkscape:connector-curvature="0"
       sodipodi:nodetypes="cccccc" />
    <path
       sodipodi:nodetypes="ccccc"
       inkscape:connector-curvature="0"
       id="path859"
       d="m -102.80952,332.54684 v -11.09299 l 114.378011,57.189 h -22.185985 z"
       style="fill:#ffffff;fill-opacity:1;stroke:none;stroke-width:0.13229164;stroke-linecap:butt;stroke-linejoin:miter;stroke-miterlimit:4;stroke-dasharray:none;stroke-opacity:1" />
    <path
       style="fill:#ffffff;fill-opacity:1;stroke:none;stroke-width:0.13229164;stroke-linecap:butt;stroke-linejoin:miter;stroke-miterlimit:4;stroke-dasharray:none;stroke-opacity:1"
       d="m -58.437551,537.39283 h 22.185987 L 95.627951,471.45308 v -11.093 z"
       id="path867"
       inkscape:connector-curvature="0"
       sodipodi:nodetypes="ccccc" />
    <path
       sodipodi:nodetypes="cccccc"
       inkscape:connector-curvature="0"
       id="path875"
       d="M 373.44048,537.39283 H 306.88252 L 175.00295,471.45308 v -13.43524 h 39.68751 z"
       style="fill:#ffffff;fill-opacity:1;stroke:none;stroke-width:0.13229164;stroke-linecap:butt;stroke-linejoin:miter;stroke-miterlimit:4;stroke-dasharray:none;stroke-opacity:1" />
    <path
       style="fill:#ffffff;fill-opacity:1;stroke:none;stroke-width:0.13229164;stroke-linecap:butt;stroke-linejoin:miter;stroke-miterlimit:4;stroke-dasharray:none;stroke-opacity:1"
       d="m 373.44043,504.11386 v 11.09299 l -114.378,-57.18901 h 22.18599 z"
       id="path883"
       inkscape:connector-curvature="0"
       sodipodi:nodetypes="ccccc" />
    <path
       style="fill:#ffffff;fill-opacity:1;stroke:none;stroke-width:0.13229164;stroke-linecap:butt;stroke-linejoin:miter;stroke-miterlimit:4;stroke-dasharray:none;stroke-opacity:1"
       d="m 214.69044,378.64285 h 66.55795 l 92.19203,-46.09601 v -33.27898 z"
       id="path885"
       inkscape:connector-curvature="0"
       sodipodi:nodetypes="ccccc" />
    <path
       sodipodi:nodetypes="ccccc"
       inkscape:connector-curvature="0"
       id="path887"
       d="m 329.06845,299.26787 -22.18599,-1e-5 -131.87951,65.93976 v 11.093 z"
       style="fill:#ffffff;fill-opacity:1;stroke:none;stroke-width:0.13229164;stroke-linecap:butt;stroke-linejoin:miter;stroke-miterlimit:4;stroke-dasharray:none;stroke-opacity:1" />
    <path
       style="fill:#ffffff;fill-opacity:1;stroke:none;stroke-width:0.13229164;stroke-linecap:butt;stroke-linejoin:miter;stroke-miterlimit:4;stroke-dasharray:none;stroke-opacity:1"
       d="m 373.44042,394.51785 v -15.875 H 175.00295 v -79.37499 h -15.875 v 95.24999 z"
       id="path833"
       inkscape:connector-curvature="0"
       sodipodi:nodetypes="ccccccc" />
    <path
       sodipodi:nodetypes="ccccccc"
       inkscape:connector-curvature="0"
       id="path865"
       d="m -102.80952,442.14284 v 15.875 H 95.627956 v 79.37499 h 15.874994 v -95.24999 z"
       style="fill:#ffffff;fill-opacity:1;stroke:none;stroke-width:0.13229164;stroke-linecap:butt;stroke-linejoin:miter;stroke-miterlimit:4;stroke-dasharray:none;stroke-opacity:1" />
    <path
       style="fill:#ffffff;fill-opacity:1;stroke:none;stroke-width:0.13229164;stroke-linecap:butt;stroke-linejoin:miter;stroke-miterlimit:4;stroke-dasharray:none;stroke-opacity:1"
       d="m 373.44042,442.14284 v 15.875 H 175.00295 v 79.37499 h -15.875 v -95.24999 z"
       id="path871"
       inkscape:connector-curvature="0"
       sodipodi:nodetypes="ccccccc" />
    <path
       sodipodi:nodetypes="ccccccc"
       inkscape:connector-curvature="0"
       id="path873"
       d="m -102.80952,394.51785 v -15.875 H 95.627956 v -79.37499 h 15.874994 v 95.24999 z"
       style="fill:#ffffff;fill-opacity:1;stroke:none;stroke-width:0.13229164;stroke-linecap:butt;stroke-linejoin:miter;stroke-miterlimit:4;stroke-dasharray:none;stroke-opacity:1" />
    <path
       style="fill:#ff213b;fill-opacity:1;stroke:none;stroke-width:0.13229164;stroke-linecap:butt;stroke-linejoin:miter;stroke-miterlimit:4;stroke-dasharray:none;stroke-opacity:1"
       d="m 55.940461,458.01784 h 39.68749 v 2.34224 l -154.065502,77.03275 h -44.371969 z"
       id="path851"
       inkscape:connector-curvature="0"
       sodipodi:nodetypes="cccccc" />
    <path
       style="fill:#ff213b;fill-opacity:1;stroke:none;stroke-width:0.13229164;stroke-linecap:butt;stroke-linejoin:miter;stroke-miterlimit:4;stroke-dasharray:none;stroke-opacity:1"
       d="m -102.80952,299.26786 158.749981,79.37499 h -44.37197 l -114.378011,-57.189 z"
       id="path849"
       inkscape:connector-curvature="0"
       sodipodi:nodetypes="ccccc" />
    <path
       sodipodi:nodetypes="cccccc"
       inkscape:connector-curvature="0"
       id="path877"
       d="m 214.69044,378.64285 h -39.68749 v -2.34223 l 154.0655,-77.03275 44.37197,-1e-5 z"
       style="fill:#ff213b;fill-opacity:1;stroke:none;stroke-width:0.13229164;stroke-linecap:butt;stroke-linejoin:miter;stroke-miterlimit:4;stroke-dasharray:none;stroke-opacity:1" />
    <path
       sodipodi:nodetypes="ccccc"
       inkscape:connector-curvature="0"
       id="path881"
       d="M 373.44044,537.39283 214.69046,458.01784 h 44.37197 l 114.37801,57.18901 z"
       style="fill:#ff213b;fill-opacity:1;stroke:none;stroke-width:0.13229164;stroke-linecap:butt;stroke-linejoin:miter;stroke-miterlimit:4;stroke-dasharray:none;stroke-opacity:1" />
    <path
       style="fill:#ff213b;fill-opacity:1;stroke:none;stroke-width:0.13229164;stroke-linecap:butt;stroke-linejoin:miter;stroke-miterlimit:4;stroke-dasharray:none;stroke-opacity:1"
       d="M 373.44042,394.51785 H 159.12795 v -95.24999 h -47.625 v 95.24999 h -214.31247 v 47.62499 h 214.31247 v 95.24999 h 47.625 v -95.24999 h 214.31247 z"
       id="path899"
       inkscape:connector-curvature="0"
       sodipodi:nodetypes="ccccccccccccc" />
    <path
       style="fill:#20a8ff;fill-opacity:1;stroke:none;stroke-width:0.13229164;stroke-linecap:butt;stroke-linejoin:miter;stroke-miterlimit:4;stroke-dasharray:none;stroke-opacity:1"
       d="m -102.80952,537.39283 v 238.12504 h 476.25 V 537.39283 Z"
       id="path866"
       inkscape:connector-curvature="0"
       sodipodi:nodetypes="ccccc" />
    <path
       sodipodi:nodetypes="csscssccccccc"
       inkscape:connector-curvature="0"
       id="path868"
       d="m 506.18573,426.27956 v 163.88415 c 0,25.60086 17.28006,41.33205 40.59551,49.57381 18.79534,6.64394 42.97743,9.84138 64.78419,24.66701 21.80674,-14.82563 45.98883,-18.02307 64.78417,-24.66701 23.31542,-8.24176 40.59552,-23.97295 40.59552,-49.57381 V 426.27956 Z m 343.5047,-127.0117 -6e-5,476.25001 H 373.44042 l 5e-5,-476.25001 z"
       style="fill:#20a8ff;fill-opacity:1;stroke:none;stroke-width:0.13229164;stroke-linecap:butt;stroke-linejoin:miter;stroke-miterlimit:4;stroke-dasharray:none;stroke-opacity:1" />
    <g
       id="g870"
       transform="matrix(0.49999993,0,0,0.49999993,186.72019,149.63395)">
      <path
         style="fill:none;fill-opacity:1;stroke:#f0b400;stroke-width:9.52500153;stroke-linecap:round;stroke-linejoin:miter;stroke-miterlimit:4;stroke-dasharray:none;stroke-opacity:1"
         d="m 638.93117,553.2913 v 327.76835 c 0,51.20173 34.56012,82.6641 81.19104,99.14762 37.59068,13.28789 85.95487,19.68277 129.56838,49.33403 43.6135,-29.65126 91.97769,-36.04614 129.56837,-49.33403 46.63084,-16.48352 81.19104,-47.94589 81.19104,-99.14762 V 553.2913 Z"
         id="path864"
         inkscape:connector-curvature="0"
         sodipodi:nodetypes="csscsscc" />
      <path
         style="fill:#ff213b;fill-opacity:1;stroke:none;stroke-width:0.84706807;stroke-linecap:round;stroke-linejoin:round;stroke-miterlimit:4;stroke-dasharray:none;stroke-opacity:1"
         d="M 1060.45,664.40461 V 553.2913 H 638.93118 v 111.11331 z"
         id="path1211"
         inkscape:connector-curvature="0"
         sodipodi:nodetypes="ccccc" />
      <path
         sodipodi:nodetypes="cssccc"
         inkscape:connector-curvature="0"
         id="path1297"
         d="m 638.93117,858.85508 v 22.20457 c 0,51.20173 34.56012,82.6641 81.19104,99.14762 29.7474,10.51538 66.24156,16.71411 101.78912,33.53733 l -9.3e-4,-154.88952 z"
         style="fill:#ffffff;fill-opacity:1;stroke:none;stroke-width:0.84706807;stroke-linecap:round;stroke-linejoin:round;stroke-miterlimit:4;stroke-dasharray:none;stroke-opacity:1" />
      <g
         id="g1165"
         style="stroke:none;stroke-width:0.94026005;stroke-linejoin:round;stroke-miterlimit:4;stroke-dasharray:none;stroke-opacity:1"
         transform="matrix(0.56278765,0,0,0.56278765,330.74033,525.78017)">
        <g
           id="g1977"
           style="stroke:none;stroke-width:0.47012997;stroke-linejoin:round;stroke-miterlimit:4;stroke-dasharray:none;stroke-opacity:1"
           transform="matrix(1.9318519,-0.51763817,0.51763817,1.9318519,1489.863,-1109.9487)">
          <path
             style="opacity:1;fill:#e0e0e0;fill-opacity:1;fill-rule:evenodd;stroke:none;stroke-width:0.47012997;stroke-linecap:round;stroke-linejoin:round;stroke-miterlimit:4;stroke-dasharray:none;stroke-dashoffset:0;stroke-opacity:1"
             d="m -550.20278,552.14437 a 1.5874998,1.5874998 0 0 0 1.5875,-1.5875 1.5874998,1.5874998 0 0 0 -1.5875,-1.5875 1.5874998,1.5874998 0 0 0 -1.5875,1.5875 1.5874998,1.5874998 0 0 0 1.5875,1.5875 z"
             id="path2013"
             inkscape:connector-curvature="0" />
          <path
             inkscape:connector-curvature="0"
             id="path2009"
             d="m -550.20278,502.40271 a 1.5874998,1.5874998 0 0 0 1.5875,-1.5875 1.5874998,1.5874998 0 0 0 -1.5875,-1.5875 1.5874998,1.5874998 0 0 0 -1.5875,1.5875 1.5874998,1.5874998 0 0 0 1.5875,1.5875 z"
             style="opacity:1;fill:#e0e0e0;fill-opacity:1;fill-rule:evenodd;stroke:none;stroke-width:0.47012997;stroke-linecap:round;stroke-linejoin:round;stroke-miterlimit:4;stroke-dasharray:none;stroke-dashoffset:0;stroke-opacity:1" />
          <path
             style="opacity:1;fill:#e0e0e0;fill-opacity:1;fill-rule:evenodd;stroke:none;stroke-width:0.47012997;stroke-linecap:round;stroke-linejoin:round;stroke-miterlimit:4;stroke-dasharray:none;stroke-dashoffset:0;stroke-opacity:1"
             d="m -575.07361,527.27354 a 1.5874998,1.5874998 0 0 0 1.5875,-1.5875 1.5874998,1.5874998 0 0 0 -1.5875,-1.5875 1.5874998,1.5874998 0 0 0 -1.5875,1.5875 1.5874998,1.5874998 0 0 0 1.5875,1.5875 z"
             id="path2011"
             inkscape:connector-curvature="0" />
          <path
             style="fill:#f0b400;fill-opacity:1;stroke:none;stroke-width:0.47012997;stroke-linecap:butt;stroke-linejoin:round;stroke-miterlimit:4;stroke-dasharray:none;stroke-opacity:1"
             d="m -320.34604,529.65478 v 5.29166 h 10.58333 v 5.29167 h -5.29167 v 5.29167 h 5.29167 v 5.29166 h -15.875 v -5.29166 h 5.29167 v -5.29167 h -5.29167 v -5.29167 h -5.29167 v 5.29167 h -5.29167 v 5.29167 h 5.29167 v 5.29166 h -15.875 v -5.29166 h 5.29167 v -5.29167 h -5.29167 v -5.29167 h 10.58333 v -5.29166 z"
             id="path1879"
             inkscape:connector-curvature="0"
             sodipodi:nodetypes="ccccccccccccccccccccccccccccc" />
          <path
             sodipodi:nodetypes="ccccc"
             inkscape:connector-curvature="0"
             id="path1881"
             d="m -307.11688,521.71728 v 7.9375 h -216.9584 v -7.9375 z"
             style="fill:#f0b400;fill-opacity:1;stroke:none;stroke-width:0.47012997;stroke-linecap:butt;stroke-linejoin:round;stroke-miterlimit:4;stroke-dasharray:none;stroke-opacity:1" />
          <path
             sodipodi:nodetypes="szsszss"
             inkscape:connector-curvature="0"
             id="path1885"
             d="m -304.47104,521.71728 c 0,-0.74742 -0.59614,-1.32284 -1.32292,-1.32284 -0.72678,0 -1.32292,0.57542 -1.32292,1.32284 v 7.9375 c 0,0.74742 0.59614,1.32284 1.32292,1.32284 0.72678,0 1.32292,-0.57542 1.32292,-1.32284 z"
             style="fill:#e0e0e0;fill-opacity:1;stroke:none;stroke-width:0.47012997;stroke-linecap:butt;stroke-linejoin:round;stroke-miterlimit:4;stroke-dasharray:none;stroke-opacity:1" />
          <path
             style="fill:#f0b400;fill-opacity:1;stroke:none;stroke-width:0.47012997;stroke-linecap:butt;stroke-linejoin:round;stroke-miterlimit:4;stroke-dasharray:none;stroke-opacity:1"
             d="m -293.88771,525.68603 -10.58333,-3.96875 v 7.9375 z"
             id="path1893"
             inkscape:connector-curvature="0"
             sodipodi:nodetypes="cccc" />
          <path
             sodipodi:nodetypes="ccccc"
             inkscape:connector-curvature="0"
             id="path1895"
             d="m -309.76271,529.65477 -26.45834,-7.93749 h -10.58333 l 26.45834,7.93749 z"
             style="fill:#e0e0e0;fill-opacity:1;stroke:none;stroke-width:0.47012997;stroke-linecap:butt;stroke-linejoin:round;stroke-miterlimit:4;stroke-dasharray:none;stroke-opacity:1" />
          <path
             style="fill:#e0e0e0;fill-opacity:1;stroke:none;stroke-width:0.47012997;stroke-linecap:butt;stroke-linejoin:round;stroke-miterlimit:4;stroke-dasharray:none;stroke-opacity:1"
             d="m -320.34604,521.71728 -26.45834,7.9375 h 10.58333 l 26.45834,-7.9375 z"
             id="path1897"
             inkscape:connector-curvature="0"
             sodipodi:nodetypes="ccccc" />
          <path
             style="fill:#e0e0e0;fill-opacity:1;stroke:none;stroke-width:0.47012997;stroke-linecap:butt;stroke-linejoin:round;stroke-miterlimit:4;stroke-dasharray:none;stroke-opacity:1"
             d="m -294.1523,524.36319 c -0.72678,0 -1.32292,0.57542 -1.32292,1.32284 0,0.74742 0.59614,1.32284 1.32292,1.32284 0.72678,0 1.32292,-0.57542 1.32292,-1.32284 0,-0.74742 -0.59614,-1.32284 -1.32292,-1.32284 z"
             id="path1891"
             inkscape:connector-curvature="0"
             sodipodi:nodetypes="zzzzz" />
          <path
             sodipodi:nodetypes="zzzzzzzzzz"
             inkscape:connector-curvature="0"
             id="circle1909"
             d="m -566.07778,525.68604 c 0,8.76752 7.10748,15.875 15.875,15.875 8.76752,0 15.875,-7.10748 15.875,-15.875 0,-8.76752 -7.10748,-15.875 -15.875,-15.875 -8.76752,0 -15.875,7.10748 -15.875,15.875 z m 39.6875,0 c 0,13.15128 -10.66122,23.8125 -23.8125,23.8125 -13.15128,0 -23.8125,-10.66122 -23.8125,-23.8125 0,-13.15128 10.66122,-23.8125 23.8125,-23.8125 13.15128,0 23.8125,10.66122 23.8125,23.8125 z"
             style="opacity:1;fill:#f0b400;fill-opacity:1;fill-rule:evenodd;stroke:none;stroke-width:0.47012997;stroke-linecap:round;stroke-linejoin:round;stroke-miterlimit:4;stroke-dasharray:none;stroke-dashoffset:0;stroke-opacity:1" />
          <path
             sodipodi:nodetypes="cssccssccssccsscczzczzczzczzcz"
             inkscape:connector-curvature="0"
             id="path1953"
             d="m -556.75089,526.28103 c -3.28781,10e-6 -5.9531,2.6653 -5.95311,5.95311 -1e-5,3.28782 2.66529,5.95312 5.95311,5.95313 3.28783,10e-6 5.95314,-2.6653 5.95313,-5.95313 h 1.18996 c -10e-6,3.28783 2.6653,5.95314 5.95313,5.95313 3.28782,-10e-6 5.95312,-2.66531 5.95311,-5.95313 -10e-6,-3.28781 -2.6653,-5.9531 -5.95311,-5.95311 v -1.18998 c 3.28781,-10e-6 5.9531,-2.6653 5.95311,-5.95311 10e-6,-3.28782 -2.66529,-5.95312 -5.95311,-5.95313 -3.28783,-10e-6 -5.95314,2.6653 -5.95313,5.95313 h -1.18996 c 1e-5,-3.28783 -2.6653,-5.95314 -5.95313,-5.95313 -3.28782,10e-6 -5.95312,2.66531 -5.95311,5.95313 10e-6,3.28781 2.6653,5.9531 5.95311,5.95311 z m -6.54843,-7.14309 c -1e-5,-3.6166 2.93182,-6.54844 6.54843,-6.54845 3.61661,-10e-6 6.54846,2.40267 6.54811,6.01928 -3.5e-4,-3.61661 2.9315,-6.01929 6.54811,-6.01928 3.61661,1e-5 6.54844,2.93185 6.54843,6.54845 -1e-5,3.6166 -2.40267,6.54843 -6.01926,6.5481 3.61659,-3.3e-4 6.01925,2.9315 6.01926,6.5481 10e-6,3.6166 -2.93182,6.54844 -6.54843,6.54845 -3.61661,10e-6 -6.54846,-2.40267 -6.54811,-6.01928 3.5e-4,3.61661 -2.9315,6.01929 -6.54811,6.01928 -3.61661,-10e-6 -6.54844,-2.93185 -6.54843,-6.54845 10e-6,-3.6166 2.40267,-6.54843 6.01926,-6.5481 -3.61659,3.3e-4 -6.01925,-2.9315 -6.01926,-6.5481 z"
             style="opacity:1;fill:#e0e0e0;fill-opacity:1;fill-rule:evenodd;stroke:none;stroke-width:0.47012997;stroke-linecap:round;stroke-linejoin:round;stroke-miterlimit:4;stroke-dasharray:none;stroke-dashoffset:0;stroke-opacity:1" />
          <path
             style="opacity:1;fill:#f0b400;fill-opacity:1;fill-rule:evenodd;stroke:none;stroke-width:0.47012997;stroke-linecap:round;stroke-linejoin:round;stroke-miterlimit:4;stroke-dasharray:none;stroke-dashoffset:0;stroke-opacity:1"
             d="m -554.10506,525.68604 a 1.5874998,1.5874998 0 0 1 -1.5875,1.5875 1.5874998,1.5874998 0 0 1 -1.5875,-1.5875 1.5874998,1.5874998 0 0 1 1.5875,-1.5875 1.5874998,1.5874998 0 0 1 1.5875,1.5875 z"
             id="path1937"
             inkscape:connector-curvature="0" />
          <path
             inkscape:connector-curvature="0"
             id="path1955"
             d="m -546.3005,525.68604 a 1.5874998,1.5874998 0 0 0 1.5875,1.5875 1.5874998,1.5874998 0 0 0 1.5875,-1.5875 1.5874998,1.5874998 0 0 0 -1.5875,-1.5875 1.5874998,1.5874998 0 0 0 -1.5875,1.5875 z"
             style="opacity:1;fill:#f0b400;fill-opacity:1;fill-rule:evenodd;stroke:none;stroke-width:0.47012997;stroke-linecap:round;stroke-linejoin:round;stroke-miterlimit:4;stroke-dasharray:none;stroke-dashoffset:0;stroke-opacity:1" />
          <path
             inkscape:connector-curvature="0"
             id="path1957"
             d="m -550.20278,529.58832 a 1.5874998,1.5874998 0 0 1 1.5875,1.5875 1.5874998,1.5874998 0 0 1 -1.5875,1.5875 1.5874998,1.5874998 0 0 1 -1.5875,-1.5875 1.5874998,1.5874998 0 0 1 1.5875,-1.5875 z"
             style="opacity:1;fill:#f0b400;fill-opacity:1;fill-rule:evenodd;stroke:none;stroke-width:0.47012997;stroke-linecap:round;stroke-linejoin:round;stroke-miterlimit:4;stroke-dasharray:none;stroke-dashoffset:0;stroke-opacity:1" />
          <path
             style="opacity:1;fill:#f0b400;fill-opacity:1;fill-rule:evenodd;stroke:none;stroke-width:0.47012997;stroke-linecap:round;stroke-linejoin:round;stroke-miterlimit:4;stroke-dasharray:none;stroke-dashoffset:0;stroke-opacity:1"
             d="m -550.20278,521.78376 a 1.5874998,1.5874998 0 0 0 1.5875,-1.5875 1.5874998,1.5874998 0 0 0 -1.5875,-1.5875 1.5874998,1.5874998 0 0 0 -1.5875,1.5875 1.5874998,1.5874998 0 0 0 1.5875,1.5875 z"
             id="path1959"
             inkscape:connector-curvature="0" />
          <path
             style="fill:#e0e0e0;fill-opacity:1;stroke:none;stroke-width:0.47012997;stroke-linecap:butt;stroke-linejoin:round;stroke-miterlimit:4;stroke-dasharray:none;stroke-opacity:1"
             d="m -524.07528,521.71728 c 0,-0.74742 -0.59614,-1.32284 -1.32292,-1.32284 -0.72678,0 -1.32292,0.57542 -1.32292,1.32284 v 7.9375 c 0,0.74742 0.59614,1.32284 1.32292,1.32284 0.72678,0 1.32292,-0.57542 1.32292,-1.32284 z"
             id="path1899"
             inkscape:connector-curvature="0"
             sodipodi:nodetypes="szsszss" />
        </g>
        <g
           transform="matrix(-1.9318519,-0.51763817,-0.51763817,1.9318519,354.3504,-1109.9487)"
           style="stroke:none;stroke-width:0.47012997;stroke-linejoin:round;stroke-miterlimit:4;stroke-dasharray:none;stroke-opacity:1"
           id="g1127">
          <path
             inkscape:connector-curvature="0"
             id="path1093"
             d="m -550.20278,552.14437 a 1.5874998,1.5874998 0 0 0 1.5875,-1.5875 1.5874998,1.5874998 0 0 0 -1.5875,-1.5875 1.5874998,1.5874998 0 0 0 -1.5875,1.5875 1.5874998,1.5874998 0 0 0 1.5875,1.5875 z"
             style="opacity:1;fill:#f0b400;fill-opacity:1;fill-rule:evenodd;stroke:none;stroke-width:0.47012997;stroke-linecap:round;stroke-linejoin:round;stroke-miterlimit:4;stroke-dasharray:none;stroke-dashoffset:0;stroke-opacity:1" />
          <path
             style="opacity:1;fill:#f0b400;fill-opacity:1;fill-rule:evenodd;stroke:none;stroke-width:0.47012997;stroke-linecap:round;stroke-linejoin:round;stroke-miterlimit:4;stroke-dasharray:none;stroke-dashoffset:0;stroke-opacity:1"
             d="m -550.20278,502.40271 a 1.5874998,1.5874998 0 0 0 1.5875,-1.5875 1.5874998,1.5874998 0 0 0 -1.5875,-1.5875 1.5874998,1.5874998 0 0 0 -1.5875,1.5875 1.5874998,1.5874998 0 0 0 1.5875,1.5875 z"
             id="path1095"
             inkscape:connector-curvature="0" />
          <path
             inkscape:connector-curvature="0"
             id="path1097"
             d="m -575.07361,527.27354 a 1.5874998,1.5874998 0 0 0 1.5875,-1.5875 1.5874998,1.5874998 0 0 0 -1.5875,-1.5875 1.5874998,1.5874998 0 0 0 -1.5875,1.5875 1.5874998,1.5874998 0 0 0 1.5875,1.5875 z"
             style="opacity:1;fill:#f0b400;fill-opacity:1;fill-rule:evenodd;stroke:none;stroke-width:0.47012997;stroke-linecap:round;stroke-linejoin:round;stroke-miterlimit:4;stroke-dasharray:none;stroke-dashoffset:0;stroke-opacity:1" />
          <path
             sodipodi:nodetypes="ccccccccccccccccccccccccccccc"
             inkscape:connector-curvature="0"
             id="path1099"
             d="m -320.34604,529.65478 v 5.29166 h 10.58333 v 5.29167 h -5.29167 v 5.29167 h 5.29167 v 5.29166 h -15.875 v -5.29166 h 5.29167 v -5.29167 h -5.29167 v -5.29167 h -5.29167 v 5.29167 h -5.29167 v 5.29167 h 5.29167 v 5.29166 h -15.875 v -5.29166 h 5.29167 v -5.29167 h -5.29167 v -5.29167 h 10.58333 v -5.29166 z"
             style="fill:#e0e0e0;fill-opacity:1;stroke:none;stroke-width:0.47012997;stroke-linecap:butt;stroke-linejoin:round;stroke-miterlimit:4;stroke-dasharray:none;stroke-opacity:1" />
          <path
             style="fill:#e0e0e0;fill-opacity:1;stroke:none;stroke-width:0.47012997;stroke-linecap:butt;stroke-linejoin:round;stroke-miterlimit:4;stroke-dasharray:none;stroke-opacity:1"
             d="m -307.11688,521.71728 v 7.9375 h -216.9584 v -7.9375 z"
             id="path1101"
             inkscape:connector-curvature="0"
             sodipodi:nodetypes="ccccc" />
          <path
             style="fill:#f0b400;fill-opacity:1;stroke:none;stroke-width:0.47012997;stroke-linecap:butt;stroke-linejoin:round;stroke-miterlimit:4;stroke-dasharray:none;stroke-opacity:1"
             d="m -304.47104,521.71728 c 0,-0.74742 -0.59614,-1.32284 -1.32292,-1.32284 -0.72678,0 -1.32292,0.57542 -1.32292,1.32284 v 7.9375 c 0,0.74742 0.59614,1.32284 1.32292,1.32284 0.72678,0 1.32292,-0.57542 1.32292,-1.32284 z"
             id="path1103"
             inkscape:connector-curvature="0"
             sodipodi:nodetypes="szsszss" />
          <path
             sodipodi:nodetypes="cccc"
             inkscape:connector-curvature="0"
             id="path1105"
             d="m -293.88771,525.68603 -10.58333,-3.96875 v 7.9375 z"
             style="fill:#e0e0e0;fill-opacity:1;stroke:none;stroke-width:0.47012997;stroke-linecap:butt;stroke-linejoin:round;stroke-miterlimit:4;stroke-dasharray:none;stroke-opacity:1" />
          <path
             style="fill:#f0b400;fill-opacity:1;stroke:none;stroke-width:0.47012997;stroke-linecap:butt;stroke-linejoin:round;stroke-miterlimit:4;stroke-dasharray:none;stroke-opacity:1"
             d="m -309.76271,529.65477 -26.45834,-7.93749 h -10.58333 l 26.45834,7.93749 z"
             id="path1107"
             inkscape:connector-curvature="0"
             sodipodi:nodetypes="ccccc" />
          <path
             sodipodi:nodetypes="ccccc"
             inkscape:connector-curvature="0"
             id="path1109"
             d="m -320.34604,521.71728 -26.45834,7.9375 h 10.58333 l 26.45834,-7.9375 z"
             style="fill:#f0b400;fill-opacity:1;stroke:none;stroke-width:0.47012997;stroke-linecap:butt;stroke-linejoin:round;stroke-miterlimit:4;stroke-dasharray:none;stroke-opacity:1" />
          <path
             sodipodi:nodetypes="zzzzz"
             inkscape:connector-curvature="0"
             id="path1111"
             d="m -294.1523,524.36319 c -0.72678,0 -1.32292,0.57542 -1.32292,1.32284 0,0.74742 0.59614,1.32284 1.32292,1.32284 0.72678,0 1.32292,-0.57542 1.32292,-1.32284 0,-0.74742 -0.59614,-1.32284 -1.32292,-1.32284 z"
             style="fill:#f0b400;fill-opacity:1;stroke:none;stroke-width:0.47012997;stroke-linecap:butt;stroke-linejoin:round;stroke-miterlimit:4;stroke-dasharray:none;stroke-opacity:1" />
          <path
             style="opacity:1;fill:#e0e0e0;fill-opacity:1;fill-rule:evenodd;stroke:none;stroke-width:0.47012997;stroke-linecap:round;stroke-linejoin:round;stroke-miterlimit:4;stroke-dasharray:none;stroke-dashoffset:0;stroke-opacity:1"
             d="m -566.07778,525.68604 c 0,8.76752 7.10748,15.875 15.875,15.875 8.76752,0 15.875,-7.10748 15.875,-15.875 0,-8.76752 -7.10748,-15.875 -15.875,-15.875 -8.76752,0 -15.875,7.10748 -15.875,15.875 z m 39.6875,0 c 0,13.15128 -10.66122,23.8125 -23.8125,23.8125 -13.15128,0 -23.8125,-10.66122 -23.8125,-23.8125 0,-13.15128 10.66122,-23.8125 23.8125,-23.8125 13.15128,0 23.8125,10.66122 23.8125,23.8125 z"
             id="path1113"
             inkscape:connector-curvature="0"
             sodipodi:nodetypes="zzzzzzzzzz" />
          <path
             style="opacity:1;fill:#f0b400;fill-opacity:1;fill-rule:evenodd;stroke:none;stroke-width:0.47012997;stroke-linecap:round;stroke-linejoin:round;stroke-miterlimit:4;stroke-dasharray:none;stroke-dashoffset:0;stroke-opacity:1"
             d="m -556.75089,526.28103 c -3.28781,10e-6 -5.9531,2.6653 -5.95311,5.95311 -1e-5,3.28782 2.66529,5.95312 5.95311,5.95313 3.28783,10e-6 5.95314,-2.6653 5.95313,-5.95313 h 1.18996 c -10e-6,3.28783 2.6653,5.95314 5.95313,5.95313 3.28782,-10e-6 5.95312,-2.66531 5.95311,-5.95313 -10e-6,-3.28781 -2.6653,-5.9531 -5.95311,-5.95311 v -1.18998 c 3.28781,-10e-6 5.9531,-2.6653 5.95311,-5.95311 10e-6,-3.28782 -2.66529,-5.95312 -5.95311,-5.95313 -3.28783,-10e-6 -5.95314,2.6653 -5.95313,5.95313 h -1.18996 c 1e-5,-3.28783 -2.6653,-5.95314 -5.95313,-5.95313 -3.28782,10e-6 -5.95312,2.66531 -5.95311,5.95313 10e-6,3.28781 2.6653,5.9531 5.95311,5.95311 z m -6.54843,-7.14309 c -1e-5,-3.6166 2.93182,-6.54844 6.54843,-6.54845 3.61661,-10e-6 6.54846,2.40267 6.54811,6.01928 -3.5e-4,-3.61661 2.9315,-6.01929 6.54811,-6.01928 3.61661,1e-5 6.54844,2.93185 6.54843,6.54845 -1e-5,3.6166 -2.40267,6.54843 -6.01926,6.5481 3.61659,-3.3e-4 6.01925,2.9315 6.01926,6.5481 10e-6,3.6166 -2.93182,6.54844 -6.54843,6.54845 -3.61661,10e-6 -6.54846,-2.40267 -6.54811,-6.01928 3.5e-4,3.61661 -2.9315,6.01929 -6.54811,6.01928 -3.61661,-10e-6 -6.54844,-2.93185 -6.54843,-6.54845 10e-6,-3.6166 2.40267,-6.54843 6.01926,-6.5481 -3.61659,3.3e-4 -6.01925,-2.9315 -6.01926,-6.5481 z"
             id="path1115"
             inkscape:connector-curvature="0"
             sodipodi:nodetypes="cssccssccssccsscczzczzczzczzcz" />
          <path
             inkscape:connector-curvature="0"
             id="path1117"
             d="m -554.10506,525.68604 a 1.5874998,1.5874998 0 0 1 -1.5875,1.5875 1.5874998,1.5874998 0 0 1 -1.5875,-1.5875 1.5874998,1.5874998 0 0 1 1.5875,-1.5875 1.5874998,1.5874998 0 0 1 1.5875,1.5875 z"
             style="opacity:1;fill:#e0e0e0;fill-opacity:1;fill-rule:evenodd;stroke:none;stroke-width:0.47012997;stroke-linecap:round;stroke-linejoin:round;stroke-miterlimit:4;stroke-dasharray:none;stroke-dashoffset:0;stroke-opacity:1" />
          <path
             style="opacity:1;fill:#e0e0e0;fill-opacity:1;fill-rule:evenodd;stroke:none;stroke-width:0.47012997;stroke-linecap:round;stroke-linejoin:round;stroke-miterlimit:4;stroke-dasharray:none;stroke-dashoffset:0;stroke-opacity:1"
             d="m -546.3005,525.68604 a 1.5874998,1.5874998 0 0 0 1.5875,1.5875 1.5874998,1.5874998 0 0 0 1.5875,-1.5875 1.5874998,1.5874998 0 0 0 -1.5875,-1.5875 1.5874998,1.5874998 0 0 0 -1.5875,1.5875 z"
             id="path1119"
             inkscape:connector-curvature="0" />
          <path
             style="opacity:1;fill:#e0e0e0;fill-opacity:1;fill-rule:evenodd;stroke:none;stroke-width:0.47012997;stroke-linecap:round;stroke-linejoin:round;stroke-miterlimit:4;stroke-dasharray:none;stroke-dashoffset:0;stroke-opacity:1"
             d="m -550.20278,529.58832 a 1.5874998,1.5874998 0 0 1 1.5875,1.5875 1.5874998,1.5874998 0 0 1 -1.5875,1.5875 1.5874998,1.5874998 0 0 1 -1.5875,-1.5875 1.5874998,1.5874998 0 0 1 1.5875,-1.5875 z"
             id="path1121"
             inkscape:connector-curvature="0" />
          <path
             inkscape:connector-curvature="0"
             id="path1123"
             d="m -550.20278,521.78376 a 1.5874998,1.5874998 0 0 0 1.5875,-1.5875 1.5874998,1.5874998 0 0 0 -1.5875,-1.5875 1.5874998,1.5874998 0 0 0 -1.5875,1.5875 1.5874998,1.5874998 0 0 0 1.5875,1.5875 z"
             style="opacity:1;fill:#e0e0e0;fill-opacity:1;fill-rule:evenodd;stroke:none;stroke-width:0.47012997;stroke-linecap:round;stroke-linejoin:round;stroke-miterlimit:4;stroke-dasharray:none;stroke-dashoffset:0;stroke-opacity:1" />
          <path
             sodipodi:nodetypes="szsszss"
             inkscape:connector-curvature="0"
             id="path1125"
             d="m -524.07528,521.71728 c 0,-0.74742 -0.59614,-1.32284 -1.32292,-1.32284 -0.72678,0 -1.32292,0.57542 -1.32292,1.32284 v 7.9375 c 0,0.74742 0.59614,1.32284 1.32292,1.32284 0.72678,0 1.32292,-0.57542 1.32292,-1.32284 z"
             style="fill:#f0b400;fill-opacity:1;stroke:none;stroke-width:0.47012997;stroke-linecap:butt;stroke-linejoin:round;stroke-miterlimit:4;stroke-dasharray:none;stroke-opacity:1" />
        </g>
      </g>
      <path
         style="fill:#ffffff;fill-opacity:1;stroke:none;stroke-width:0.84706807;stroke-linecap:round;stroke-linejoin:round;stroke-miterlimit:4;stroke-dasharray:none;stroke-opacity:1"
         d="m 1060.4521,858.85508 v 22.20457 c 0,51.20173 -34.5601,82.6641 -81.191,99.14762 -29.7474,10.51538 -66.24156,16.71411 -101.78912,33.53733 l 9.3e-4,-154.88952 z"
         id="path1169"
         inkscape:connector-curvature="0"
         sodipodi:nodetypes="cssccc" />
      <path
         sodipodi:nodetypes="ccccc"
         inkscape:connector-curvature="0"
         id="path1171"
         d="M 877.47291,803.29257 V 664.40461 h 182.97919 l -0,138.88796 z"
         style="fill:#ffffff;fill-opacity:1;stroke:none;stroke-width:0.84706807;stroke-linecap:round;stroke-linejoin:round;stroke-miterlimit:4;stroke-dasharray:none;stroke-opacity:1" />
      <path
         style="fill:#ffffff;fill-opacity:1;stroke:none;stroke-width:0.84706807;stroke-linecap:round;stroke-linejoin:round;stroke-miterlimit:4;stroke-dasharray:none;stroke-opacity:1"
         d="M 638.93121,803.29257 V 664.40461 H 821.9104 v 138.88796 z"
         id="path1173"
         inkscape:connector-curvature="0"
         sodipodi:nodetypes="ccccc" />
      <g
         id="g2859"
         transform="matrix(2.0000003,0,0,2.0000003,-352.88732,-294.61661)"
         style="stroke:#f0b400;stroke-opacity:1">
        <path
           sodipodi:nodetypes="ccccc"
           inkscape:connector-curvature="0"
           id="path1975"
           d="m 560.18216,523.94663 v 16.87666 H 523.1258 v -16.87666 z"
           style="fill:#909090;fill-opacity:1;stroke:none;stroke-width:0.33880103;stroke-linecap:round;stroke-linejoin:round;stroke-miterlimit:4;stroke-dasharray:none;stroke-opacity:1" />
        <path
           style="fill:#909090;fill-opacity:1;stroke:none;stroke-width:0.33880103;stroke-linecap:round;stroke-linejoin:round;stroke-miterlimit:4;stroke-dasharray:none;stroke-opacity:1"
           d="m 523.1258,523.94664 -2.64688,-2.64689 h 42.35013 l -2.64689,2.64689 z"
           id="path2152"
           inkscape:connector-curvature="0"
           sodipodi:nodetypes="ccccc" />
        <path
           style="fill:#16c000;fill-opacity:1;stroke:#f0b400;stroke-width:0.33880103;stroke-linecap:round;stroke-linejoin:round;stroke-miterlimit:4;stroke-dasharray:none;stroke-opacity:1"
           d="m 554.88839,521.29975 v 15.64851 h -26.46882 v -15.64851 z"
           id="path4620"
           inkscape:connector-curvature="0"
           sodipodi:nodetypes="ccccc" />
        <path
           sodipodi:nodetypes="ccccccccccccc"
           inkscape:connector-curvature="0"
           id="path4622"
           d="m 540.33054,523.83021 v 2.64688 h -2.64688 v 2.64689 h 2.64688 v 5.29376 h 2.64688 v -5.29376 h 2.64689 v -2.64689 h -2.64689 v -2.64688 z"
           style="fill:#f0b400;fill-opacity:1;stroke:none;stroke-width:0.33880106;stroke-linecap:round;stroke-linejoin:round;stroke-miterlimit:4;stroke-dasharray:none;stroke-opacity:1" />
        <path
           style="fill:#909090;fill-opacity:1;stroke:none;stroke-width:0.33880103;stroke-linecap:round;stroke-linejoin:round;stroke-miterlimit:4;stroke-dasharray:none;stroke-opacity:1"
           d="m 566.95818,542.8561 v -2.03281 h -50.6084 v 2.03281 z"
           id="path2179"
           inkscape:connector-curvature="0"
           sodipodi:nodetypes="ccccc" />
        <path
           sodipodi:nodetypes="ccccc"
           inkscape:connector-curvature="0"
           id="path2181"
           d="m 570.34619,544.88891 v -2.03281 h -57.38442 v 2.03281 z"
           style="fill:#909090;fill-opacity:1;stroke:none;stroke-width:0.33880103;stroke-linecap:round;stroke-linejoin:round;stroke-miterlimit:4;stroke-dasharray:none;stroke-opacity:1" />
        <path
           style="fill:#909090;fill-opacity:1;stroke:none;stroke-width:0.33880103;stroke-linecap:round;stroke-linejoin:round;stroke-miterlimit:4;stroke-dasharray:none;stroke-opacity:1"
           d="m 573.7342,546.92171 v -2.0328 h -64.16044 v 2.0328 z"
           id="path2183"
           inkscape:connector-curvature="0"
           sodipodi:nodetypes="ccccc" />
        <g
           id="g2201"
           transform="matrix(0.59404988,0,0,0.59404988,891.30254,207.35826)"
           style="fill:#ff213b;fill-opacity:1;stroke:#f0b400;stroke-width:0.57032424;stroke-linejoin:round;stroke-miterlimit:4;stroke-dasharray:none;stroke-opacity:1">
          <path
             style="opacity:1;fill:url(#radialGradient2923);fill-opacity:1;fill-rule:evenodd;stroke:none;stroke-width:5.48606491;stroke-linecap:round;stroke-linejoin:round;stroke-miterlimit:4;stroke-dasharray:none;stroke-dashoffset:0;stroke-opacity:1"
             d="m -561.86116,505.59023 a 26.723348,26.723348 0 0 1 -26.7233,26.7233 26.723348,26.723348 0 0 1 -26.72339,-26.7233 26.723348,26.723348 0 0 1 26.72339,-26.72339 26.723348,26.723348 0 0 1 26.7233,26.72339 z"
             id="path2915"
             inkscape:connector-curvature="0" />
          <path
             style="fill:#f0b400;fill-opacity:1;stroke:none;stroke-width:0.57032424;stroke-linecap:butt;stroke-linejoin:round;stroke-miterlimit:4;stroke-dasharray:none;stroke-opacity:1"
             d="m -593.52339,528.47665 3.29259,-2.64583 h 3.29259 l 3.29259,2.64583 z"
             id="path2154"
             inkscape:connector-curvature="0"
             sodipodi:nodetypes="ccccc" />
          <path
             inkscape:connector-curvature="0"
             id="path2162"
             d="m -585.80638,505.59019 a 2.778125,2.778125 0 0 1 -2.77812,2.77812 2.778125,2.778125 0 0 1 -2.77813,-2.77812 2.778125,2.778125 0 0 1 2.77813,-2.77813 2.778125,2.778125 0 0 1 2.77812,2.77813 z"
             style="opacity:1;fill:#ffffff;fill-opacity:1;fill-rule:evenodd;stroke:#f0b400;stroke-width:0.57032424;stroke-linecap:round;stroke-linejoin:round;stroke-miterlimit:4;stroke-dasharray:none;stroke-dashoffset:0;stroke-opacity:1" />
          <path
             sodipodi:nodetypes="ssssccs"
             inkscape:connector-curvature="0"
             id="path2156"
             d="m -593.52339,513.13081 c 0,1.52467 1.76791,3.17499 3.29259,3.17499 h 3.29259 c 1.52468,0 3.29259,-1.65032 3.29259,-3.17499 v -4.7625 h -9.87777 z"
             style="fill:#f0b400;fill-opacity:1;stroke:none;stroke-width:0.57032424;stroke-linecap:butt;stroke-linejoin:round;stroke-miterlimit:4;stroke-dasharray:none;stroke-opacity:1" />
          <path
             sodipodi:nodetypes="ccccc"
             inkscape:connector-curvature="0"
             id="path2158"
             d="m -590.2308,516.3058 v 9.52502 h 3.29259 v -9.52502 z"
             style="fill:#f0b400;fill-opacity:1;stroke:none;stroke-width:0.57032424;stroke-linecap:butt;stroke-linejoin:round;stroke-miterlimit:4;stroke-dasharray:none;stroke-opacity:1" />
        </g>
        <path
           sodipodi:nodetypes="ccccc"
           inkscape:connector-curvature="0"
           id="path2840"
           d="m 577.12221,550.54201 v -3.6203 h -70.93646 v 3.6203 z"
           style="fill:#909090;fill-opacity:1;stroke:none;stroke-width:0.33880103;stroke-linecap:round;stroke-linejoin:round;stroke-miterlimit:4;stroke-dasharray:none;stroke-opacity:1" />
      </g>
      <path
         id="path850"
         d="M 821.9104,664.40461 V 803.29257 H 638.93117 v 55.56251 H 821.9104 v 154.90012 c 9.37255,4.4357 18.68022,9.5994 27.7802,15.7861 9.10066,-6.1872 18.40897,-11.3513 27.78231,-15.7872 V 858.85508 H 1060.4499 V 803.29257 H 877.47291 V 664.40461 Z"
         style="color:#000000;font-style:normal;font-variant:normal;font-weight:normal;font-stretch:normal;font-size:medium;line-height:normal;font-family:sans-serif;font-variant-ligatures:normal;font-variant-position:normal;font-variant-caps:normal;font-variant-numeric:normal;font-variant-alternates:normal;font-feature-settings:normal;text-indent:0;text-align:start;text-decoration:none;text-decoration-line:none;text-decoration-style:solid;text-decoration-color:#000000;letter-spacing:normal;word-spacing:normal;text-transform:none;writing-mode:lr-tb;direction:ltr;text-orientation:mixed;dominant-baseline:auto;baseline-shift:baseline;text-anchor:start;white-space:normal;shape-padding:0;clip-rule:nonzero;display:inline;overflow:visible;visibility:visible;opacity:1;isolation:auto;mix-blend-mode:normal;color-interpolation:sRGB;color-interpolation-filters:linearRGB;solid-color:#000000;solid-opacity:1;vector-effect:none;fill:#ff213b;fill-opacity:1;fill-rule:nonzero;stroke:none;stroke-width:55.56250763;stroke-linecap:butt;stroke-linejoin:miter;stroke-miterlimit:4;stroke-dasharray:none;stroke-dashoffset:0;stroke-opacity:1;color-rendering:auto;image-rendering:auto;shape-rendering:auto;text-rendering:auto;enable-background:accumulate"
         inkscape:connector-curvature="0"
         sodipodi:nodetypes="cccccccccccccc" />
    </g>
  </g>
</svg>
