<?xml version="1.0" encoding="UTF-8" standalone="no"?>
<!-- Created with Inkscape (http://www.inkscape.org/) -->

<svg
   width="255.99998"
   height="255.99998"
   viewBox="0 0 67.73333 67.73333"
   version="1.1"
   id="svg1"
   inkscape:version="1.3 (0e150ed6c4, 2023-07-21)"
   sodipodi:docname="favicon.svg"
   xmlns:inkscape="http://www.inkscape.org/namespaces/inkscape"
   xmlns:sodipodi="http://sodipodi.sourceforge.net/DTD/sodipodi-0.dtd"
   xmlns="http://www.w3.org/2000/svg"
   xmlns:svg="http://www.w3.org/2000/svg">
  <sodipodi:namedview
     id="namedview1"
     pagecolor="#505050"
     bordercolor="#eeeeee"
     borderopacity="1"
     inkscape:showpageshadow="0"
     inkscape:pageopacity="0"
     inkscape:pagecheckerboard="0"
     inkscape:deskcolor="#505050"
     inkscape:document-units="px"
     inkscape:zoom="2.0485264"
     inkscape:cx="167.68151"
     inkscape:cy="152.06052"
     inkscape:window-width="1920"
     inkscape:window-height="1009"
     inkscape:window-x="-8"
     inkscape:window-y="-8"
     inkscape:window-maximized="1"
     inkscape:current-layer="layer1" />
  <defs
     id="defs1" />
  <g
     inkscape:label="Layer 1"
     inkscape:groupmode="layer"
     id="layer1"
     transform="translate(-4.7490773,-26.302584)">
    <rect
       style="opacity:1;fill:#ffffff;stroke-width:0.769518;stroke-miterlimit:5.2;paint-order:stroke fill markers"
       id="rect1"
       width="67.73333"
       height="67.73333"
       x="4.7490773"
       y="-94.035912"
       rx="0.14919141"
       transform="scale(1,-1)" />
    <g
       id="g26">
      <path
         style="fill:none;stroke:#000000;stroke-width:4.23333;stroke-linecap:round;stroke-linejoin:round;stroke-miterlimit:5.2;stroke-dasharray:none;stroke-opacity:1;paint-order:stroke fill markers"
         d="m 25.238591,56.674666 c 3.826186,1.025223 6.78506,-3.759617 6.407214,-15.948616 -0.01987,-0.641008 -1.346135,-1.25987 -2.37217,-1.25987 h -9.879071 m -0.11854,-6.208809 c 0,14.477453 -6.583442,20.857967 -11.7315525,23.83023 M 7.5285667,33.257371 H 31.58487 M 20.975365,31.488773 18.138072,29.058347"
         id="path4"
         sodipodi:nodetypes="cssccccccc" />
      <path
         style="fill:none;stroke:#000000;stroke-width:4.23333;stroke-linecap:round;stroke-miterlimit:5.2;stroke-dasharray:none;stroke-opacity:1;paint-order:stroke fill markers"
         d="m 35.46056,36.528282 c 4.310157,-1.001032 9.317331,-4.231677 10.988254,-7.125801 m 23.254105,3.85489 H 42.56657"
         id="path6"
         sodipodi:nodetypes="cccc" />
      <path
         style="fill:none;stroke:#000000;stroke-width:4.23333;stroke-linecap:round;stroke-linejoin:round;stroke-miterlimit:5.2;stroke-dasharray:none;stroke-opacity:1;paint-order:stroke fill markers"
         d="m 62.010371,38.566024 c -4.186312,1.066425 -9.903467,2.139738 -14.877072,2.053948 0,5.337726 -1.157772,11.847775 -8.643127,13.754601 m 8.356257,-8.394612 H 64.665762 M 58.274675,57.037496 V 45.979961"
         id="path9"
         sodipodi:nodetypes="ccccccc" />
    </g>
    <g
       id="g27"
       transform="translate(0.03046736)">
      <path
         style="fill:none;stroke:#000000;stroke-width:4.23333;stroke-linecap:round;stroke-miterlimit:5.2;stroke-dasharray:none;stroke-opacity:1;paint-order:stroke fill markers"
         d="M 19.556718,63.250896 V 91.230045 M 7.4676307,85.78422 V 69.835604 c 0,-0.641316 1.346135,-1.25987 2.37217,-1.25987 H 29.273635 c 1.026035,0 2.3523,0.618862 2.37217,1.25987 0.377846,12.188999 -2.581028,16.973839 -6.407214,15.948616"
         id="path12"
         sodipodi:nodetypes="cccssssc" />
      <g
         id="g25">
        <path
           style="fill:none;stroke:#000000;stroke-width:4.23333;stroke-linecap:round;stroke-miterlimit:5.2;stroke-dasharray:none;stroke-opacity:1;paint-order:stroke fill markers"
           d="m 34.681807,91.230045 c 4.310157,-1.001032 9.317331,-4.231677 10.988254,-7.125801 m -1.624434,-5.232363 c -1.85393,0 -3.95967,-2.051773 -3.95967,-3.905703 v -7.809579 c 0,-1.85393 2.10574,-3.905703 3.95967,-3.905703 h 16.293472 c 1.85393,0 3.95967,2.051773 3.95967,3.905703 v 7.809579 c 0,1.85393 -2.10574,3.905703 -3.95967,3.905703 z m 14.669038,5.232363 c 1.670923,2.894124 6.678097,6.124769 10.988254,7.125801"
           id="path22"
           sodipodi:nodetypes="ccssssssssscc" />
      </g>
    </g>
  </g>
</svg>
