<?xml version="1.0" encoding="UTF-8" standalone="no"?>
<!-- Created with Inkscape (http://www.inkscape.org/) -->

<svg
   width="3036"
   height="1800"
   viewBox="0 0 803.27499 476.25001"
   version="1.1"
   id="svg8"
   inkscape:export-filename="C:\Users\厂永刄先生\Documents\GXI3CW2\JáÈŭcèŭ\Maqkàla\Maqkàla.png"
   inkscape:export-xdpi="96"
   inkscape:export-ydpi="96"
   inkscape:version="1.3 (0e150ed6c4, 2023-07-21)"
   sodipodi:docname="de_1933_000-001.svg"
   xmlns:inkscape="http://www.inkscape.org/namespaces/inkscape"
   xmlns:sodipodi="http://sodipodi.sourceforge.net/DTD/sodipodi-0.dtd"
   xmlns="http://www.w3.org/2000/svg"
   xmlns:svg="http://www.w3.org/2000/svg"
   xmlns:rdf="http://www.w3.org/1999/02/22-rdf-syntax-ns#"
   xmlns:cc="http://creativecommons.org/ns#"
   xmlns:dc="http://purl.org/dc/elements/1.1/">
  <defs
     id="defs2" />
  <sodipodi:namedview
     id="base"
     pagecolor="#ffffff"
     bordercolor="#666666"
     borderopacity="1.0"
     inkscape:pageopacity="0.0"
     inkscape:pageshadow="2"
     inkscape:zoom="0.20775337"
     inkscape:cx="1557.1348"
     inkscape:cy="1080.6082"
     inkscape:document-units="px"
     inkscape:current-layer="layer1"
     showgrid="false"
     units="px"
     fit-margin-top="0"
     fit-margin-left="0"
     fit-margin-right="0"
     fit-margin-bottom="0"
     inkscape:showpageshadow="false"
     inkscape:snap-intersection-paths="false"
     inkscape:object-paths="false"
     inkscape:pagecheckerboard="true"
     inkscape:snap-smooth-nodes="true"
     inkscape:window-width="1920"
     inkscape:window-height="1009"
     inkscape:window-x="-8"
     inkscape:window-y="-8"
     inkscape:window-maximized="1"
     inkscape:object-nodes="true"
     inkscape:deskcolor="#505050" />
  <metadata
     id="metadata5">
    <rdf:RDF>
      <cc:Work
         rdf:about="">
        <dc:format>image/svg+xml</dc:format>
        <dc:type
           rdf:resource="http://purl.org/dc/dcmitype/StillImage" />
      </cc:Work>
    </rdf:RDF>
  </metadata>
  <g
     inkscape:label="レイヤー 1"
     inkscape:groupmode="layer"
     id="layer1"
     transform="translate(112.33452,-299.26786)">
    <path
       sodipodi:nodetypes="ccccc"
       inkscape:connector-curvature="0"
       id="path824"
       d="m 690.94048,775.51786 v -158.75 h -793.75 v 158.75 z"
       style="fill:#ff0000;fill-opacity:1;stroke:none;stroke-width:1.92213px;stroke-linecap:butt;stroke-linejoin:miter;stroke-opacity:1" />
    <path
       style="fill:#000000;fill-opacity:1;stroke:none;stroke-width:1.75466px;stroke-linecap:butt;stroke-linejoin:miter;stroke-opacity:1"
       d="m -102.80952,458.01786 v -158.75 h 793.75 v 158.75 z"
       id="path849"
       inkscape:connector-curvature="0"
       sodipodi:nodetypes="ccccc" />
    <path
       style="color:#000000;fill:#ffffff;stroke-linecap:round;stroke-miterlimit:3.9;-inkscape-stroke:none;paint-order:stroke fill markers"
       d="m 169.10747,364.35547 c 71.00246,113.92993 71.05588,232.05858 0,346.07422 h 170.54102 c -71.00244,-113.92989 -71.05588,-232.05858 0,-346.07422 z"
       id="path10"
       sodipodi:nodetypes="ccccc" />
    <path
       style="fill:#ffffff;fill-opacity:1;stroke:none;stroke-width:1.92213px;stroke-linecap:butt;stroke-linejoin:miter;stroke-opacity:1"
       d="m 690.94048,616.76786 v -158.75 h -793.75 v 158.75 z"
       id="path847"
       inkscape:connector-curvature="0"
       sodipodi:nodetypes="ccccc" />
    <path
       style="color:#000000;fill:#000000;stroke-linecap:round;stroke-miterlimit:3.9;-inkscape-stroke:none;paint-order:stroke fill markers"
       d="m 175.54302,367.92773 c 29.20591,42.92615 42.48028,87.12308 48.07617,138.70704 -50.48581,-2.83056 -96.44147,-21.73521 -138.70703,-48.07813 v 157.67188 c 42.92337,-29.20885 87.12442,-42.4823 138.70703,-48.07813 -2.82826,50.48722 -21.73916,96.43977 -48.07617,138.70898 h 157.67187 c -29.20773,-42.92596 -42.48233,-87.12425 -48.07812,-138.70898 50.48582,2.83055 96.44147,21.73521 138.70703,48.07813 V 458.55664 c -42.92337,29.20884 -87.12443,42.4823 -138.70703,48.07813 2.83042,-50.48586 21.73523,-96.44146 48.07812,-138.70704 z"
       id="path9"
       sodipodi:nodetypes="ccccccccccccc" />
    <path
       style="fill:#ffffff;fill-opacity:1;stroke:none;stroke-width:0.511668px;stroke-linecap:butt;stroke-linejoin:miter;stroke-opacity:1"
       d="m -102.80952,299.26786 h -9.525 v 476.25 h 9.525 z"
       id="path819"
       inkscape:connector-curvature="0"
       sodipodi:nodetypes="ccccc" />
    <path
       style="color:#000000;fill:#ffffff;stroke-linecap:round;stroke-miterlimit:3.9;-inkscape-stroke:none"
       d="M 409.1602,590.09961 V 484.6875 c -50.16311,29.11843 -103.89603,35.90653 -139.89745,37.82129 1.91475,-36.00143 8.70285,-89.73435 37.82128,-139.89746 H 201.67192 c 28.97487,49.91578 35.88063,103.40919 37.8213,139.89746 -36.00143,-1.91476 -89.73435,-8.70286 -139.89746,-37.82129 v 105.41211 c 49.91578,-28.97487 103.40919,-35.88063 139.89746,-37.82129 -1.94067,36.48826 -8.84643,89.98167 -37.8213,139.89745 H 307.08403 C 277.9656,642.01266 271.1775,588.27974 269.26275,552.27832 c 36.48826,1.94066 89.98167,8.84642 139.89745,37.82129 z M 321.05864,700.11327 H 187.69732 c 27.81416,-42.59061 38.94185,-89.18869 43.27539,-139.31445 -50.12576,4.33354 -96.72384,15.46123 -139.31445,43.27539 V 470.71289 c 43.04556,26.82208 88.73276,39.96091 139.31445,43.27539 -4.33354,-50.12576 -15.46123,-96.72384 -43.27539,-139.31445 h 133.36132 c -26.82208,43.04556 -39.96091,88.73276 -43.27539,139.31445 50.58169,-3.31448 96.26889,-16.45331 139.31445,-43.27539 v 133.36132 c -42.59061,-27.81416 -89.18869,-38.94185 -139.31445,-43.27539 3.31448,50.58169 16.45331,96.26889 43.27539,139.31445 z"
       id="path14"
       sodipodi:nodetypes="cccccccccccccccccccccccccc" />
  </g>
</svg>
