<?xml version="1.0" encoding="UTF-8" standalone="no"?>
<!-- Created with Inkscape (http://www.inkscape.org/) -->

<svg
   width="3036"
   height="1800"
   viewBox="0 0 803.27499 476.25001"
   version="1.1"
   id="svg8"
   inkscape:export-filename="C:\Users\drk22\Documents\GXI3CW2\JáÈŭcèŭ\Èŭmen\Te\Reich.png"
   inkscape:export-xdpi="96"
   inkscape:export-ydpi="96"
   inkscape:version="1.3 (0e150ed6c4, 2023-07-21)"
   sodipodi:docname="de_1935_000-001.svg"
   xmlns:inkscape="http://www.inkscape.org/namespaces/inkscape"
   xmlns:sodipodi="http://sodipodi.sourceforge.net/DTD/sodipodi-0.dtd"
   xmlns="http://www.w3.org/2000/svg"
   xmlns:svg="http://www.w3.org/2000/svg"
   xmlns:rdf="http://www.w3.org/1999/02/22-rdf-syntax-ns#"
   xmlns:cc="http://creativecommons.org/ns#"
   xmlns:dc="http://purl.org/dc/elements/1.1/">
  <defs
     id="defs2" />
  <sodipodi:namedview
     id="base"
     pagecolor="#ffffff"
     bordercolor="#666666"
     borderopacity="1.0"
     inkscape:pageopacity="0.0"
     inkscape:pageshadow="2"
     inkscape:zoom="0.31937657"
     inkscape:cx="925.24007"
     inkscape:cy="1028.5664"
     inkscape:document-units="px"
     inkscape:current-layer="layer1"
     showgrid="false"
     units="px"
     fit-margin-top="0"
     fit-margin-left="0"
     fit-margin-right="0"
     fit-margin-bottom="0"
     inkscape:showpageshadow="false"
     inkscape:snap-intersection-paths="false"
     inkscape:object-paths="false"
     inkscape:pagecheckerboard="true"
     inkscape:snap-smooth-nodes="true"
     inkscape:window-width="1920"
     inkscape:window-height="1009"
     inkscape:window-x="-8"
     inkscape:window-y="-8"
     inkscape:window-maximized="1"
     inkscape:object-nodes="true"
     inkscape:deskcolor="#505050" />
  <metadata
     id="metadata5">
    <rdf:RDF>
      <cc:Work
         rdf:about="">
        <dc:format>image/svg+xml</dc:format>
        <dc:type
           rdf:resource="http://purl.org/dc/dcmitype/StillImage" />
      </cc:Work>
    </rdf:RDF>
  </metadata>
  <g
     inkscape:label="レイヤー 1"
     inkscape:groupmode="layer"
     id="layer1"
     transform="translate(112.33452,-299.26786)">
    <path
       style="fill:#ff0000;fill-opacity:1;stroke:none;stroke-width:1.85995px;stroke-linecap:butt;stroke-linejoin:miter;stroke-opacity:1"
       d="m 172.43654,299.26782 4e-5,195.87104 -275.24606,4e-5 -4e-5,-195.87104 z"
       id="path27"
       inkscape:connector-curvature="0"
       sodipodi:nodetypes="ccccc" />
    <path
       style="color:#000000;fill:#ffffff;stroke-width:0.344037;stroke-linecap:round;stroke-miterlimit:3.9;-inkscape-stroke:none;paint-order:stroke fill markers"
       d="m -16.024819,334.49715 c 9.616199,14.35371 16.396256,30.20845 19.558351,47.20828 -17.207293,-2.5228 -32.642533,-10.47979 -47.208956,-19.55835 v 70.11226 c 14.354356,-9.61568 30.208756,-16.39632 47.208956,-19.55836 -2.522495,17.20753 -10.48129,32.64171 -19.558351,47.20896 H 54.087439 C 44.471823,445.5555 37.690637,429.70123 34.528415,412.70098 c 17.207313,2.52282 32.64223,10.48037 47.208952,19.55836 v -70.11226 c -14.353034,9.61729 -30.208501,16.39699 -47.208281,19.55902 2.5228,-17.20732 10.48036,-32.64223 19.558353,-47.20895 z"
       id="path29"
       sodipodi:nodetypes="ccccccccccccc" />
    <path
       style="color:#000000;fill:#000000;stroke:none;stroke-width:0.344036;stroke-linecap:round;stroke-miterlimit:3.9;-inkscape-stroke:none"
       d="m 72.281805,415.33619 v -36.2656 c -17.257929,10.0178 -35.744005,12.35315 -48.1298,13.0119 0.658744,-12.3858 2.994097,-30.87187 13.011893,-48.1298 H 0.898307 c 9.968407,17.17284 12.344239,35.57651 13.0119,48.1298 -12.385798,-0.65875 -30.871873,-2.9941 -48.129804,-13.0119 v 36.2656 c 17.172841,-9.96841 35.576515,-12.34424 48.129804,-13.0119 -0.667661,12.55328 -3.043493,30.95696 -13.0119,48.1298 h 36.265591 c -10.017796,-17.25793 -12.353149,-35.74401 -13.011893,-48.1298 12.553286,0.66766 30.956961,3.04349 48.1298,13.0119 z M -8.090983,338.901 c 10.047893,14.76815 14.614758,29.9735 16.539947,47.72025 -17.36895,-0.97382 -33.179365,-7.4777 -47.720251,-16.54062 v 54.24485 C -24.50409,414.27657 -9.297325,409.71002 8.448964,407.78486 7.47594,425.15429 0.969905,440.96364 -8.090983,455.50578 H 46.153862 C 36.105343,440.73769 31.538399,425.53187 29.613244,407.78486 c 17.368954,0.97381 33.179365,7.4777 47.720251,16.54062 v -54.24485 c -14.767196,10.0489 -29.973965,14.61545 -47.720251,16.54062 0.973767,-17.36897 7.477708,-33.17936 16.540618,-47.72025 z m 50.062654,2.3209 c -9.227769,14.80923 -13.748003,30.52729 -14.888304,47.92922 17.401936,-1.1403 33.119991,-5.66053 47.929226,-14.8883 v 45.88113 c -14.652715,-9.56908 -30.684146,-13.39741 -47.929226,-14.8883 1.140301,17.40194 5.660535,33.11999 14.888304,47.92922 H -3.909462 c 9.56908,-14.65271 13.397409,-30.68414 14.888304,-47.92922 -17.24508,1.49089 -33.276512,5.31922 -47.929227,14.8883 v -45.88113 c 14.809235,9.22777 30.527291,13.748 47.929227,14.8883 C 9.487947,371.90604 5.659618,355.87461 -3.909462,341.2219 Z"
       id="path14-9"
       sodipodi:nodetypes="ccccccccccccccccccccccccccccccccccccccc" />
    <path
       style="fill:#ff0000;fill-opacity:1;stroke:none;stroke-width:1.84957px;stroke-linecap:butt;stroke-linejoin:miter;stroke-opacity:1"
       d="m 256.94444,299.26786 4e-5,195.87104 h 433.99604 l -4e-5,-195.87104 z"
       id="path849"
       inkscape:connector-curvature="0"
       sodipodi:nodetypes="ccccc" />
    <path
       style="fill:#ff0000;fill-opacity:1;stroke:none;stroke-width:1.84957px;stroke-linecap:butt;stroke-linejoin:miter;stroke-opacity:1"
       d="M 256.94444,579.64681 V 775.51786 H 690.94048 V 579.64681 Z"
       id="path26"
       inkscape:connector-curvature="0"
       sodipodi:nodetypes="ccccc" />
    <path
       style="fill:#ff0000;fill-opacity:1;stroke:none;stroke-width:1.84957px;stroke-linecap:butt;stroke-linejoin:miter;stroke-opacity:1"
       d="m 172.43653,579.64681 v 195.87105 l -275.24605,0 V 579.64681 Z"
       id="path28"
       inkscape:connector-curvature="0"
       sodipodi:nodetypes="ccccc" />
    <path
       style="fill:#ffffff;fill-opacity:1;stroke:none;stroke-width:0.51166773px;stroke-linecap:butt;stroke-linejoin:miter;stroke-opacity:1"
       d="m -102.80952,299.26786 h -9.525 v 476.25 h 9.525 z"
       id="path819"
       inkscape:connector-curvature="0"
       sodipodi:nodetypes="ccccc" />
    <path
       style="fill:#000000;fill-opacity:1;stroke:none;stroke-width:0.497439px;stroke-linecap:butt;stroke-linejoin:miter;stroke-opacity:1"
       d="m -102.80952,520.16848 v 34.44875 h 793.75 v -34.44875 z"
       id="path9"
       inkscape:connector-curvature="0"
       sodipodi:nodetypes="ccccc" />
    <path
       style="fill:#000000;fill-opacity:1;stroke:none;stroke-width:0.497439px;stroke-linecap:butt;stroke-linejoin:miter;stroke-opacity:1"
       d="m -102.80951,508.57973 h 793.75002 l 0,-7.72583 H -102.8095 Z"
       id="path13"
       inkscape:connector-curvature="0"
       sodipodi:nodetypes="ccccc" />
    <path
       style="fill:#ffffff;fill-opacity:1;stroke:none;stroke-width:0.497439px;stroke-linecap:butt;stroke-linejoin:miter;stroke-opacity:1"
       d="m -102.80949,495.1389 -1e-5,5.715 h 793.75002 v -5.715 z"
       id="path14"
       inkscape:connector-curvature="0"
       sodipodi:nodetypes="ccccc" />
    <path
       style="fill:#ffffff;fill-opacity:1;stroke:none;stroke-width:0.497439px;stroke-linecap:butt;stroke-linejoin:miter;stroke-opacity:1"
       d="m -102.80953,573.93181 -1e-5,5.715 h 793.75002 v -5.715 z"
       id="path15"
       inkscape:connector-curvature="0"
       sodipodi:nodetypes="ccccc" />
    <path
       style="fill:#000000;fill-opacity:1;stroke:none;stroke-width:0.497439px;stroke-linecap:butt;stroke-linejoin:miter;stroke-opacity:1"
       d="m -102.80953,573.93181 h 793.75002 v -7.72583 h -793.75001 z"
       id="path16"
       inkscape:connector-curvature="0"
       sodipodi:nodetypes="ccccc" />
    <path
       style="fill:#ffffff;fill-opacity:1;stroke:none;stroke-width:0.497439px;stroke-linecap:butt;stroke-linejoin:miter;stroke-opacity:1"
       d="m -102.80951,508.57973 h 793.75002 l -2e-5,11.58875 h -793.75001 z"
       id="path17"
       inkscape:connector-curvature="0"
       sodipodi:nodetypes="ccccc" />
    <path
       style="fill:#ffffff;fill-opacity:1;stroke:none;stroke-width:0.497439px;stroke-linecap:butt;stroke-linejoin:miter;stroke-opacity:1"
       d="M -102.80952,554.61723 H 690.9405 l -1e-5,11.58875 h -793.75001 z"
       id="path18"
       inkscape:connector-curvature="0"
       sodipodi:nodetypes="ccccc" />
    <path
       style="fill:#000000;fill-opacity:1;stroke:none;stroke-width:0.497439px;stroke-linecap:butt;stroke-linejoin:miter;stroke-opacity:1"
       d="m 231.91486,299.26784 h -34.44875 v 476.24998 h 34.44875 z"
       id="path19"
       inkscape:connector-curvature="0"
       sodipodi:nodetypes="ccccc" />
    <path
       style="fill:#000000;fill-opacity:1;stroke:none;stroke-width:0.497439px;stroke-linecap:butt;stroke-linejoin:miter;stroke-opacity:1"
       d="m 243.50361,299.26784 v 476.25 h 7.72583 V 299.26786 Z"
       id="path20"
       inkscape:connector-curvature="0"
       sodipodi:nodetypes="ccccc" />
    <path
       style="fill:#ffffff;fill-opacity:1;stroke:none;stroke-width:0.497439px;stroke-linecap:butt;stroke-linejoin:miter;stroke-opacity:1"
       d="m 256.94444,299.26786 h -5.71499 v 476.25 h 5.71499 z"
       id="path21"
       inkscape:connector-curvature="0"
       sodipodi:nodetypes="ccccc" />
    <path
       style="fill:#ffffff;fill-opacity:1;stroke:none;stroke-width:0.497439px;stroke-linecap:butt;stroke-linejoin:miter;stroke-opacity:1"
       d="m 178.15153,299.26783 -5.71499,-1e-5 v 476.25 h 5.71499 z"
       id="path22"
       inkscape:connector-curvature="0"
       sodipodi:nodetypes="ccccc" />
    <path
       style="fill:#000000;fill-opacity:1;stroke:none;stroke-width:0.497439px;stroke-linecap:butt;stroke-linejoin:miter;stroke-opacity:1"
       d="m 178.15153,299.26783 v 476.25 h 7.72583 v -476.25 z"
       id="path23"
       inkscape:connector-curvature="0"
       sodipodi:nodetypes="ccccc" />
    <path
       style="fill:#ffffff;fill-opacity:1;stroke:none;stroke-width:0.497439px;stroke-linecap:butt;stroke-linejoin:miter;stroke-opacity:1"
       d="m 243.50361,299.26784 v 476.25 l -11.58875,-10e-6 v -476.25 z"
       id="path24"
       inkscape:connector-curvature="0"
       sodipodi:nodetypes="ccccc" />
    <path
       style="fill:#ffffff;fill-opacity:1;stroke:none;stroke-width:0.497439px;stroke-linecap:butt;stroke-linejoin:miter;stroke-opacity:1"
       d="m 197.46611,299.26784 v 476.25 l -11.58875,-10e-6 V 299.26784 Z"
       id="path25"
       inkscape:connector-curvature="0"
       sodipodi:nodetypes="ccccc" />
    <path
       sodipodi:nodetypes="zzzzz"
       inkscape:connector-curvature="0"
       id="path7"
       d="m 357.56548,537.39287 c 0,78.90767 -63.96732,142.87499 -142.875,142.87499 -78.90768,0 -142.875,-63.96732 -142.875,-142.87499 0,-78.90769 63.96732,-142.87501 142.875,-142.87501 78.90768,0 142.875,63.96732 142.875,142.87501 z"
       style="fill:#ffffff;fill-opacity:1;stroke:none;stroke-width:1.47965px;stroke-linecap:butt;stroke-linejoin:miter;stroke-opacity:1" />
    <path
       sodipodi:nodetypes="zzzzz"
       inkscape:connector-curvature="0"
       id="path6"
       d="m 77.530479,537.39286 c 0,75.75139 61.408631,137.16 137.159991,137.16 75.75139,0 137.16001,-61.40861 137.16001,-137.15999 0,-75.75137 -61.40863,-137.16001 -137.16001,-137.16001 -75.75136,0 -137.159992,61.40864 -137.159991,137.16 z"
       style="fill:#000000;fill-opacity:1;stroke:none;stroke-width:1.42046px;stroke-linecap:butt;stroke-linejoin:miter;stroke-opacity:1" />
    <path
       sodipodi:nodetypes="zzzzz"
       inkscape:connector-curvature="0"
       id="path8"
       d="m 334.70548,537.39287 c 0,66.28245 -53.73254,120.01499 -120.01499,120.01499 -66.28245,0 -120.015009,-53.73254 -120.015009,-120.01499 0,-66.28245 53.732559,-120.01501 120.015009,-120.01501 66.28245,0 120.01499,53.73256 120.01499,120.01501 z"
       style="fill:#ffffff;fill-opacity:1;stroke:none;stroke-width:1.40328px;stroke-linecap:butt;stroke-linejoin:miter;stroke-opacity:1" />
    <path
       sodipodi:nodetypes="zzzzz"
       inkscape:connector-curvature="0"
       id="path835"
       d="m 328.99048,537.39286 c 0,63.12614 -51.17386,114.3 -114.3,114.3 -63.12614,0 -114.3,-51.17386 -114.3,-114.3 0,-63.12614 51.17386,-114.3 114.3,-114.3 63.12614,0 114.3,51.17386 114.3,114.3 z"
       style="fill:#000000;fill-opacity:1;stroke:none;stroke-width:1.10209px;stroke-linecap:butt;stroke-linejoin:miter;stroke-opacity:1" />
    <path
       sodipodi:nodetypes="zzzzz"
       inkscape:connector-curvature="0"
       id="path4"
       d="m 323.11673,537.39286 c 0,59.88216 -48.54408,108.42625 -108.42625,108.42625 -59.88216,0 -108.42625,-48.54409 -108.42625,-108.42625 0,-59.88216 48.54409,-108.42625 108.42625,-108.42625 59.88217,0 108.42625,48.54409 108.42625,108.42625 z"
       style="fill:#ffffff;fill-opacity:1;stroke:none;stroke-width:1.12289px;stroke-linecap:butt;stroke-linejoin:miter;stroke-opacity:1" />
    <path
       sodipodi:nodetypes="cccccccccccccccccccccccccccccccccccccccccccc"
       inkscape:connector-curvature="0"
       id="path832"
       d="m 239.16241,455.81979 -40.78654,40.78653 16.31461,16.31462 40.78654,-40.78655 65.25847,65.25848 -2.03932,2.03932 -63.21915,-63.21913 -40.78654,40.78654 -20.39327,-20.39328 42.82587,-42.82586 z m -106.04501,57.10115 40.78654,40.78653 16.31461,-16.3146 -40.78653,-40.78655 65.25846,-65.25846 2.03933,2.03932 -63.21914,63.21914 40.78654,40.78655 -20.39327,20.39326 -42.82587,-42.82586 z m 59.14048,108.08433 42.82587,-42.82586 -20.39327,-20.39328 -40.78654,40.78654 -63.21914,-63.21913 -2.03933,2.03933 65.25847,65.25845 40.78654,-40.78654 16.31461,16.31462 -40.78654,40.78654 z m 22.4326,22.43259 65.25847,-65.25845 -40.78654,-40.78654 16.31461,-16.31463 40.78654,40.78654 2.03932,-2.03932 -42.82586,-42.82586 -20.39327,20.39327 40.78653,40.78654 -63.21913,63.21913 z"
       style="fill:#000000;fill-opacity:1;stroke:none;stroke-width:0.433792px;stroke-linecap:butt;stroke-linejoin:miter;stroke-opacity:1" />
    <path
       sodipodi:nodetypes="ccccccccccccccccccccc"
       inkscape:connector-curvature="0"
       id="path2"
       d="m 112.72413,533.3142 61.17981,61.17981 40.78654,-40.78654 24.47193,24.47193 -44.8652,44.86518 16.31461,16.31463 61.17981,-61.17981 -40.78654,-40.78654 24.47193,-24.47193 44.86519,44.8652 16.31462,-16.31463 -61.17981,-61.1798 -40.78654,40.78654 -24.47193,-24.47192 44.8652,-44.8652 -16.31461,-16.31461 -61.17981,61.17981 40.78654,40.78654 -24.47193,24.47192 -44.86519,-44.86519 z"
       style="fill:#000000;fill-opacity:1;stroke:none;stroke-width:0.433792px;stroke-linecap:butt;stroke-linejoin:miter;stroke-opacity:1" />
  </g>
</svg>
