<?xml version="1.0" encoding="UTF-8" standalone="no"?>
<!-- Created with Inkscape (http://www.inkscape.org/) -->

<svg
   width="1800"
   height="1800"
   viewBox="0 0 476.24999 476.25001"
   version="1.1"
   id="svg8"
   inkscape:export-filename="C:\Users\厂永刄先生\Documents\GXI3CW2\JáÈŭcèŭ\Maqkàla\Maqkàla.png"
   inkscape:export-xdpi="96"
   inkscape:export-ydpi="96"
   inkscape:version="1.3 (0e150ed6c4, 2023-07-21)"
   sodipodi:docname="de_1956_roundel.svg"
   xmlns:inkscape="http://www.inkscape.org/namespaces/inkscape"
   xmlns:sodipodi="http://sodipodi.sourceforge.net/DTD/sodipodi-0.dtd"
   xmlns="http://www.w3.org/2000/svg"
   xmlns:svg="http://www.w3.org/2000/svg"
   xmlns:rdf="http://www.w3.org/1999/02/22-rdf-syntax-ns#"
   xmlns:cc="http://creativecommons.org/ns#"
   xmlns:dc="http://purl.org/dc/elements/1.1/">
  <defs
     id="defs2" />
  <sodipodi:namedview
     id="base"
     pagecolor="#ffffff"
     bordercolor="#666666"
     borderopacity="1.0"
     inkscape:pageopacity="0.0"
     inkscape:pageshadow="2"
     inkscape:zoom="0.29380763"
     inkscape:cx="896.84532"
     inkscape:cy="1152.1144"
     inkscape:document-units="px"
     inkscape:current-layer="layer1"
     showgrid="false"
     units="px"
     fit-margin-top="0"
     fit-margin-left="0"
     fit-margin-right="0"
     fit-margin-bottom="0"
     inkscape:showpageshadow="false"
     inkscape:snap-intersection-paths="false"
     inkscape:object-paths="false"
     inkscape:pagecheckerboard="true"
     inkscape:snap-smooth-nodes="true"
     inkscape:window-width="1920"
     inkscape:window-height="1009"
     inkscape:window-x="-8"
     inkscape:window-y="-8"
     inkscape:window-maximized="1"
     inkscape:object-nodes="true"
     inkscape:deskcolor="#505050" />
  <metadata
     id="metadata5">
    <rdf:RDF>
      <cc:Work
         rdf:about="">
        <dc:format>image/svg+xml</dc:format>
        <dc:type
           rdf:resource="http://purl.org/dc/dcmitype/StillImage" />
      </cc:Work>
    </rdf:RDF>
  </metadata>
  <g
     inkscape:label="レイヤー 1"
     inkscape:groupmode="layer"
     id="layer1"
     transform="translate(-84.91216,-316.84179)">
    <path
       id="path18"
       style="color:#000000;fill:#000000;stroke-linecap:round;stroke-miterlimit:15.4;-inkscape-stroke:none;paint-order:stroke fill markers"
       d="M 210.34688,793.09179 C 230.45514,737.82747 246.77074,682.47107 254.631,623.37295 195.75463,629.66411 140.13304,648.10562 84.91216,668.01777 V 441.91581 c 55.22088,19.91215 110.84247,38.35366 169.71884,44.64482 -7.86026,-59.09812 -24.17586,-114.45452 -44.28412,-169.71884 h 225.38056 c -20.10826,55.26432 -36.42386,110.62072 -44.28412,169.71884 58.87637,-6.29116 114.49796,-24.73267 169.71884,-44.64482 v 226.10196 c -55.22088,-19.91215 -110.84247,-38.35366 -169.71884,-44.64482 7.86026,59.09812 24.17586,114.45452 44.28412,169.71884 z"
       sodipodi:nodetypes="ccccccccccccc" />
    <path
       id="path10"
       style="color:#000000;fill:#ffffff;stroke-linecap:round;stroke-miterlimit:15.4;-inkscape-stroke:none;paint-order:stroke fill markers"
       d="m 84.91216,471.62304 c 72.29788,26.39752 132.50184,41.60578 200.43841,45.65716 -4.05138,-67.93657 -19.25964,-128.14053 -45.65716,-200.43841 h -25.09718 c 20.7458,56.74223 37.05791,113.55516 44.6009,174.28497 -60.50448,-5.87938 -117.60275,-24.62259 -174.28497,-45.01844 z"
       sodipodi:nodetypes="ccccccc" />
    <path
       id="path15"
       style="color:#000000;fill:#ffffff;stroke-linecap:round;stroke-miterlimit:15.4;-inkscape-stroke:none;paint-order:stroke fill markers"
       d="m 84.91216,638.31054 c 72.29788,-26.39752 132.50184,-41.60578 200.43841,-45.65716 -4.05138,67.93657 -19.25964,128.14053 -45.65716,200.43841 h -25.09718 c 20.7458,-56.74223 37.05791,-113.55516 44.6009,-174.28497 -60.50448,5.87938 -117.60275,24.62259 -174.28497,45.01844 z"
       sodipodi:nodetypes="ccccccc" />
    <path
       id="path16"
       style="color:#000000;fill:#ffffff;stroke-linecap:round;stroke-miterlimit:15.4;-inkscape-stroke:none;paint-order:stroke fill markers"
       d="m 561.16216,471.62304 c -72.29788,26.39752 -132.50184,41.60578 -200.43841,45.65716 4.05138,-67.93657 19.25964,-128.14053 45.65716,-200.43841 h 25.09718 c -20.7458,56.74223 -37.05791,113.55516 -44.6009,174.28497 60.50448,-5.87938 117.60275,-24.62259 174.28497,-45.01844 z"
       sodipodi:nodetypes="ccccccc" />
    <path
       id="path19"
       style="color:#000000;fill:#ffffff;stroke-linecap:round;stroke-miterlimit:15.4;-inkscape-stroke:none;paint-order:stroke fill markers"
       d="m 561.16216,638.31054 c -72.29788,-26.39752 -132.50184,-41.60578 -200.43841,-45.65716 4.05138,67.93657 19.25964,128.14053 45.65716,200.43841 h 25.09718 c -20.7458,-56.74223 -37.05791,-113.55516 -44.6009,-174.28497 60.50448,5.87938 117.60275,24.62259 174.28497,45.01844 z"
       sodipodi:nodetypes="ccccccc" />
  </g>
</svg>
