<?xml version="1.0" encoding="UTF-8" standalone="no"?>
<!-- Created with Inkscape (http://www.inkscape.org/) -->

<svg
   width="3036"
   height="1800"
   viewBox="0 0 803.27499 476.25001"
   version="1.1"
   id="svg8"
   inkscape:export-filename="C:\Users\drk22\Documents\GXI3CW2\JáÈŭcèŭ\Èŭmen\Te\Reich.png"
   inkscape:export-xdpi="96"
   inkscape:export-ydpi="96"
   inkscape:version="1.3 (0e150ed6c4, 2023-07-21)"
   sodipodi:docname="de_1938_000-001.svg"
   xmlns:inkscape="http://www.inkscape.org/namespaces/inkscape"
   xmlns:sodipodi="http://sodipodi.sourceforge.net/DTD/sodipodi-0.dtd"
   xmlns="http://www.w3.org/2000/svg"
   xmlns:svg="http://www.w3.org/2000/svg"
   xmlns:rdf="http://www.w3.org/1999/02/22-rdf-syntax-ns#"
   xmlns:cc="http://creativecommons.org/ns#"
   xmlns:dc="http://purl.org/dc/elements/1.1/">
  <defs
     id="defs2" />
  <sodipodi:namedview
     id="base"
     pagecolor="#ffffff"
     bordercolor="#666666"
     borderopacity="1.0"
     inkscape:pageopacity="0.0"
     inkscape:pageshadow="2"
     inkscape:zoom="0.63875313"
     inkscape:cx="642.6583"
     inkscape:cy="573.7741"
     inkscape:document-units="px"
     inkscape:current-layer="g28"
     showgrid="false"
     units="px"
     fit-margin-top="0"
     fit-margin-left="0"
     fit-margin-right="0"
     fit-margin-bottom="0"
     inkscape:showpageshadow="false"
     inkscape:snap-intersection-paths="false"
     inkscape:object-paths="false"
     inkscape:pagecheckerboard="true"
     inkscape:snap-smooth-nodes="true"
     inkscape:window-width="1920"
     inkscape:window-height="1009"
     inkscape:window-x="-8"
     inkscape:window-y="-8"
     inkscape:window-maximized="1"
     inkscape:object-nodes="true"
     inkscape:deskcolor="#505050" />
  <metadata
     id="metadata5">
    <rdf:RDF>
      <cc:Work
         rdf:about="">
        <dc:format>image/svg+xml</dc:format>
        <dc:type
           rdf:resource="http://purl.org/dc/dcmitype/StillImage" />
      </cc:Work>
    </rdf:RDF>
  </metadata>
  <g
     inkscape:label="レイヤー 1"
     inkscape:groupmode="layer"
     id="layer1"
     transform="translate(112.33452,-299.26786)">
    <path
       style="fill:#ff0000;fill-opacity:1;stroke:none;stroke-width:1.84957px;stroke-linecap:butt;stroke-linejoin:miter;stroke-opacity:1"
       d="m 256.94444,299.26786 4e-5,195.87104 h 433.99604 l -4e-5,-195.87104 z"
       id="path849"
       inkscape:connector-curvature="0"
       sodipodi:nodetypes="ccccc" />
    <path
       style="fill:#ff0000;fill-opacity:1;stroke:none;stroke-width:1.84957px;stroke-linecap:butt;stroke-linejoin:miter;stroke-opacity:1"
       d="M 256.94444,579.64681 V 775.51786 H 690.94048 V 579.64681 Z"
       id="path26"
       inkscape:connector-curvature="0"
       sodipodi:nodetypes="ccccc" />
    <path
       style="fill:#ff0000;fill-opacity:1;stroke:none;stroke-width:1.85995px;stroke-linecap:butt;stroke-linejoin:miter;stroke-opacity:1"
       d="m 172.43654,299.26782 4e-5,195.87104 -275.24606,4e-5 -4e-5,-195.87104 z"
       id="path27"
       inkscape:connector-curvature="0"
       sodipodi:nodetypes="ccccc" />
    <g
       id="g28"
       transform="matrix(0.34403669,0,0,0.34403669,13.530755,252.91811)">
      <path
         style="color:#000000;fill:#ffffff;stroke-linecap:round;stroke-miterlimit:3.9;-inkscape-stroke:none;paint-order:stroke fill markers"
         d="m -85.908203,237.12305 c 27.951085,41.72146 47.658452,87.8059 56.849609,137.21875 -50.015868,-7.33295 -94.880966,-30.46127 -137.220706,-56.84961 v 203.79297 c 41.72333,-27.94956 87.80679,-47.65863 137.220706,-56.84961 -7.332051,50.01653 -30.465618,94.87855 -56.849609,137.2207 H 117.88477 C 89.935378,559.93268 70.224729,513.8496 61.033203,464.43555 c 50.015927,7.33298 94.880087,30.46293 137.220707,56.84961 V 317.49219 c -41.7195,27.95427 -87.80606,47.6606 -137.218754,56.85156 7.332937,-50.01596 30.462913,-94.88009 56.849614,-137.2207 z"
         id="path29"
         sodipodi:nodetypes="ccccccccccccc" />
      <path
         style="color:#000000;fill:#000000;stroke:none;stroke-width:0.999999;stroke-linecap:round;stroke-miterlimit:3.9;-inkscape-stroke:none"
         d="M 170.76973,472.0952 V 366.68321 c -50.16305,29.11839 -103.895913,35.90648 -139.897291,37.82124 1.914747,-36.00139 8.70284,-89.73424 37.821236,-139.8973 H -36.718314 C -7.7434771,314.52288 -0.83772499,368.01622 1.1029428,404.50445 -34.898446,402.58969 -88.631304,395.8016 -138.79436,366.68321 V 472.0952 C -88.878634,443.12036 -35.385285,436.21461 1.1029428,434.27395 -0.83772499,470.76217 -7.7434771,524.25552 -36.718314,574.17124 H 68.693675 C 39.575279,524.00819 32.787186,470.27533 30.872439,434.27395 c 36.488218,1.94066 89.981571,8.84641 139.897291,37.82125 z M -62.847184,249.92357 c 29.205877,42.9261 42.480231,87.12298 48.076115,138.70688 -50.485752,-2.83056 -96.441361,-21.73518 -138.706871,-48.07807 v 157.6717 c 42.92332,-29.20882 87.12432,-42.48226 138.706871,-48.07808 -2.828257,50.48716 -21.739135,96.43966 -48.076115,138.70882 H 94.824505 C 65.616809,545.92891 52.342224,501.73067 46.74644,450.146 c 50.485763,2.83055 96.44136,21.73519 138.70687,48.07808 v -157.6717 c -42.92332,29.2088 -87.124329,42.48225 -138.70687,48.07807 2.830417,-50.4858 21.735206,-96.44135 48.078065,-138.70688 z m 145.515453,6.74609 C 55.84622,299.71517 42.707405,345.40232 39.392929,395.98395 89.974561,392.66948 135.66171,379.53066 178.70722,352.70861 V 486.06978 C 136.11666,458.25565 89.518631,447.12797 39.392929,442.79444 c 3.314476,50.58163 16.453291,96.26878 43.27534,139.31429 H -50.692898 C -22.87877,539.51817 -11.751092,492.92014 -7.4175574,442.79444 -57.54326,447.12797 -104.14129,458.25565 -146.73185,486.06978 V 352.70861 c 43.04551,26.82205 88.732661,39.96087 139.3142926,43.27534 C -11.751092,345.85825 -22.87877,299.26022 -50.692898,256.66966 Z"
         id="path14-9"
         sodipodi:nodetypes="ccccccccccccccccccccccccccccccccccccccc" />
    </g>
    <path
       style="fill:#ff0000;fill-opacity:1;stroke:none;stroke-width:1.84957px;stroke-linecap:butt;stroke-linejoin:miter;stroke-opacity:1"
       d="m 172.43653,579.64681 v 195.87105 l -275.24605,0 V 579.64681 Z"
       id="path28"
       inkscape:connector-curvature="0"
       sodipodi:nodetypes="ccccc" />
    <path
       style="fill:#ffffff;fill-opacity:1;stroke:none;stroke-width:0.51166773px;stroke-linecap:butt;stroke-linejoin:miter;stroke-opacity:1"
       d="m -102.80952,299.26786 h -9.525 v 476.25 h 9.525 z"
       id="path819"
       inkscape:connector-curvature="0"
       sodipodi:nodetypes="ccccc" />
    <path
       style="fill:#ffffff;fill-opacity:1;stroke:none;stroke-width:0.497439px;stroke-linecap:butt;stroke-linejoin:miter;stroke-opacity:1"
       d="m -102.80949,495.1389 -1e-5,5.715 h 793.75002 v -5.715 z"
       id="path14"
       inkscape:connector-curvature="0"
       sodipodi:nodetypes="ccccc" />
    <path
       style="fill:#ffffff;fill-opacity:1;stroke:none;stroke-width:0.497439px;stroke-linecap:butt;stroke-linejoin:miter;stroke-opacity:1"
       d="m -102.80953,573.93181 -1e-5,5.715 h 793.75002 v -5.715 z"
       id="path15"
       inkscape:connector-curvature="0"
       sodipodi:nodetypes="ccccc" />
    <path
       style="fill:#ffffff;fill-opacity:1;stroke:none;stroke-width:0.497439px;stroke-linecap:butt;stroke-linejoin:miter;stroke-opacity:1"
       d="m 256.94444,299.26786 h -5.71499 v 476.25 h 5.71499 z"
       id="path21"
       inkscape:connector-curvature="0"
       sodipodi:nodetypes="ccccc" />
    <path
       style="fill:#ffffff;fill-opacity:1;stroke:none;stroke-width:0.497439px;stroke-linecap:butt;stroke-linejoin:miter;stroke-opacity:1"
       d="m 178.15153,299.26783 -5.71499,-1e-5 v 476.25 h 5.71499 z"
       id="path22"
       inkscape:connector-curvature="0"
       sodipodi:nodetypes="ccccc" />
    <path
       sodipodi:nodetypes="zzzzz"
       inkscape:connector-curvature="0"
       id="path7"
       d="m 357.56548,537.39287 c 0,78.90767 -63.96732,142.87499 -142.875,142.87499 -78.90768,0 -142.875,-63.96732 -142.875,-142.87499 0,-78.90769 63.96732,-142.87501 142.875,-142.87501 78.90768,0 142.875,63.96732 142.875,142.87501 z"
       style="fill:#ffffff;fill-opacity:1;stroke:none;stroke-width:1.47965px;stroke-linecap:butt;stroke-linejoin:miter;stroke-opacity:1" />
    <path
       style="fill:#000000;fill-opacity:1;stroke:none;stroke-width:0.497439px;stroke-linecap:butt;stroke-linejoin:miter;stroke-opacity:1"
       d="m 243.50361,299.26784 v 476.25 h 7.72583 V 299.26786 Z"
       id="path20"
       inkscape:connector-curvature="0"
       sodipodi:nodetypes="ccccc" />
    <path
       style="fill:#000000;fill-opacity:1;stroke:none;stroke-width:0.497439px;stroke-linecap:butt;stroke-linejoin:miter;stroke-opacity:1"
       d="m -102.80953,573.93181 h 793.75002 v -7.72583 h -793.75001 z"
       id="path16"
       inkscape:connector-curvature="0"
       sodipodi:nodetypes="ccccc" />
    <path
       style="fill:#000000;fill-opacity:1;stroke:none;stroke-width:0.497439px;stroke-linecap:butt;stroke-linejoin:miter;stroke-opacity:1"
       d="m -102.80951,508.57973 h 793.75002 l 0,-7.72583 H -102.8095 Z"
       id="path13"
       inkscape:connector-curvature="0"
       sodipodi:nodetypes="ccccc" />
    <path
       style="fill:#000000;fill-opacity:1;stroke:none;stroke-width:0.497439px;stroke-linecap:butt;stroke-linejoin:miter;stroke-opacity:1"
       d="m 178.15153,299.26783 v 476.25 h 7.72583 v -476.25 z"
       id="path23"
       inkscape:connector-curvature="0"
       sodipodi:nodetypes="ccccc" />
    <path
       sodipodi:nodetypes="zzzzz"
       inkscape:connector-curvature="0"
       id="path6"
       d="m 77.530479,537.39286 c 0,75.75139 61.408631,137.16 137.159991,137.16 75.75139,0 137.16001,-61.40861 137.16001,-137.15999 0,-75.75137 -61.40863,-137.16001 -137.16001,-137.16001 -75.75136,0 -137.159992,61.40864 -137.159991,137.16 z"
       style="fill:#000000;fill-opacity:1;stroke:none;stroke-width:1.42046px;stroke-linecap:butt;stroke-linejoin:miter;stroke-opacity:1" />
    <path
       style="fill:#ffffff;fill-opacity:1;stroke:none;stroke-width:0.497439px;stroke-linecap:butt;stroke-linejoin:miter;stroke-opacity:1"
       d="M -102.80952,554.61723 H 690.9405 l -1e-5,11.58875 h -793.75001 z"
       id="path18"
       inkscape:connector-curvature="0"
       sodipodi:nodetypes="ccccc" />
    <path
       style="fill:#ffffff;fill-opacity:1;stroke:none;stroke-width:0.497439px;stroke-linecap:butt;stroke-linejoin:miter;stroke-opacity:1"
       d="m -102.80951,508.57973 h 793.75002 l -2e-5,11.58875 h -793.75001 z"
       id="path17"
       inkscape:connector-curvature="0"
       sodipodi:nodetypes="ccccc" />
    <path
       style="fill:#ffffff;fill-opacity:1;stroke:none;stroke-width:0.497439px;stroke-linecap:butt;stroke-linejoin:miter;stroke-opacity:1"
       d="m 243.50361,299.26784 v 476.25 l -11.58875,-10e-6 v -476.25 z"
       id="path24"
       inkscape:connector-curvature="0"
       sodipodi:nodetypes="ccccc" />
    <path
       style="fill:#ffffff;fill-opacity:1;stroke:none;stroke-width:0.497439px;stroke-linecap:butt;stroke-linejoin:miter;stroke-opacity:1"
       d="m 197.46611,299.26784 v 476.25 l -11.58875,-10e-6 V 299.26784 Z"
       id="path25"
       inkscape:connector-curvature="0"
       sodipodi:nodetypes="ccccc" />
    <path
       style="fill:#000000;fill-opacity:1;stroke:none;stroke-width:0.497439px;stroke-linecap:butt;stroke-linejoin:miter;stroke-opacity:1"
       d="m 231.91486,299.26784 h -34.44875 v 476.24998 h 34.44875 z"
       id="path19"
       inkscape:connector-curvature="0"
       sodipodi:nodetypes="ccccc" />
    <path
       style="fill:#000000;fill-opacity:1;stroke:none;stroke-width:0.497439px;stroke-linecap:butt;stroke-linejoin:miter;stroke-opacity:1"
       d="m -102.80952,520.16848 v 34.44875 h 793.75 v -34.44875 z"
       id="path9"
       inkscape:connector-curvature="0"
       sodipodi:nodetypes="ccccc" />
    <path
       sodipodi:nodetypes="zzzzz"
       inkscape:connector-curvature="0"
       id="path8"
       d="m 344.12464,537.39287 c 0,71.48451 -57.94964,129.43416 -129.43415,129.43416 -71.48451,0 -129.434175,-57.94965 -129.434175,-129.43416 0,-71.4845 57.949665,-129.43417 129.434175,-129.43417 71.48451,0 129.43415,57.94967 129.43415,129.43417 z"
       style="fill:#ffffff;fill-opacity:1;stroke:none;stroke-width:1.51341px;stroke-linecap:butt;stroke-linejoin:miter;stroke-opacity:1" />
    <path
       sodipodi:nodetypes="zzzzz"
       inkscape:connector-curvature="0"
       id="path835"
       d="m 336.39881,537.39286 c 0,67.21765 -54.49069,121.70834 -121.70834,121.70834 -67.21765,0 -121.708328,-54.49069 -121.708328,-121.70834 0,-67.21765 54.490678,-121.70833 121.708328,-121.70833 67.21765,0 121.70834,54.49068 121.70834,121.70833 z"
       style="fill:#000000;fill-opacity:1;stroke:none;stroke-width:1.17352px;stroke-linecap:butt;stroke-linejoin:miter;stroke-opacity:1" />
    <path
       sodipodi:nodetypes="zzzzz"
       inkscape:connector-curvature="0"
       id="path4"
       d="m 323.11673,537.39287 c 0,59.88216 -48.54408,108.42625 -108.42625,108.42625 -59.88216,0 -108.42625,-48.54409 -108.42625,-108.42625 0,-59.88216 48.54409,-108.42625 108.42625,-108.42625 59.88217,0 108.42625,48.54409 108.42625,108.42625 z"
       style="fill:#ffffff;fill-opacity:1;stroke:none;stroke-width:1.12289px;stroke-linecap:butt;stroke-linejoin:miter;stroke-opacity:1" />
    <path
       sodipodi:nodetypes="cccccccccccccccccccccccccccccccccccccccccccc"
       inkscape:connector-curvature="0"
       id="path832"
       d="m 239.16241,455.81979 -40.78654,40.78653 16.31461,16.31462 40.78654,-40.78655 65.25847,65.25848 -2.03932,2.03932 -63.21915,-63.21913 -40.78654,40.78654 -20.39327,-20.39328 42.82587,-42.82586 z m -106.04501,57.10115 40.78654,40.78653 16.31461,-16.3146 -40.78653,-40.78655 65.25846,-65.25846 2.03933,2.03932 -63.21914,63.21914 40.78654,40.78655 -20.39327,20.39326 -42.82587,-42.82586 z m 59.14048,108.08433 42.82587,-42.82586 -20.39327,-20.39328 -40.78654,40.78654 -63.21914,-63.21913 -2.03933,2.03933 65.25847,65.25845 40.78654,-40.78654 16.31461,16.31462 -40.78654,40.78654 z m 22.4326,22.43259 65.25847,-65.25845 -40.78654,-40.78654 16.31461,-16.31463 40.78654,40.78654 2.03932,-2.03932 -42.82586,-42.82586 -20.39327,20.39327 40.78653,40.78654 -63.21913,63.21913 z"
       style="fill:#000000;fill-opacity:1;stroke:none;stroke-width:0.433792px;stroke-linecap:butt;stroke-linejoin:miter;stroke-opacity:1" />
    <path
       sodipodi:nodetypes="ccccccccccccccccccccc"
       inkscape:connector-curvature="0"
       id="path2"
       d="m 112.72413,533.3142 61.17981,61.17981 40.78654,-40.78654 24.47193,24.47193 -44.8652,44.86518 16.31461,16.31463 61.17981,-61.17981 -40.78654,-40.78654 24.47193,-24.47193 44.86519,44.8652 16.31462,-16.31463 -61.17981,-61.1798 -40.78654,40.78654 -24.47193,-24.47192 44.8652,-44.8652 -16.31461,-16.31461 -61.17981,61.17981 40.78654,40.78654 -24.47193,24.47192 -44.86519,-44.86519 z"
       style="fill:#000000;fill-opacity:1;stroke:none;stroke-width:0.433792px;stroke-linecap:butt;stroke-linejoin:miter;stroke-opacity:1" />
  </g>
</svg>
