<?xml version="1.0" encoding="UTF-8" standalone="no"?>
<!-- Created with Inkscape (http://www.inkscape.org/) -->

<svg
   width="3036"
   height="1800"
   viewBox="0 0 803.27499 476.25001"
   version="1.1"
   id="svg8"
   inkscape:export-filename="C:\Users\drk22\Documents\GXI3CW2\JáÈŭcèŭ\Èŭmen\Te\Reich.png"
   inkscape:export-xdpi="96"
   inkscape:export-ydpi="96"
   inkscape:version="1.3 (0e150ed6c4, 2023-07-21)"
   sodipodi:docname="de_1935.svg"
   xmlns:inkscape="http://www.inkscape.org/namespaces/inkscape"
   xmlns:sodipodi="http://sodipodi.sourceforge.net/DTD/sodipodi-0.dtd"
   xmlns="http://www.w3.org/2000/svg"
   xmlns:svg="http://www.w3.org/2000/svg"
   xmlns:rdf="http://www.w3.org/1999/02/22-rdf-syntax-ns#"
   xmlns:cc="http://creativecommons.org/ns#"
   xmlns:dc="http://purl.org/dc/elements/1.1/">
  <defs
     id="defs2" />
  <sodipodi:namedview
     id="base"
     pagecolor="#ffffff"
     bordercolor="#666666"
     borderopacity="1.0"
     inkscape:pageopacity="0.0"
     inkscape:pageshadow="2"
     inkscape:zoom="0.45166667"
     inkscape:cx="1535.4243"
     inkscape:cy="899.99999"
     inkscape:document-units="px"
     inkscape:current-layer="layer1"
     showgrid="false"
     units="px"
     fit-margin-top="0"
     fit-margin-left="0"
     fit-margin-right="0"
     fit-margin-bottom="0"
     inkscape:showpageshadow="false"
     inkscape:snap-intersection-paths="false"
     inkscape:object-paths="false"
     inkscape:pagecheckerboard="true"
     inkscape:snap-smooth-nodes="true"
     inkscape:window-width="1920"
     inkscape:window-height="1009"
     inkscape:window-x="-8"
     inkscape:window-y="-8"
     inkscape:window-maximized="1"
     inkscape:object-nodes="true"
     inkscape:deskcolor="#505050" />
  <metadata
     id="metadata5">
    <rdf:RDF>
      <cc:Work
         rdf:about="">
        <dc:format>image/svg+xml</dc:format>
        <dc:type
           rdf:resource="http://purl.org/dc/dcmitype/StillImage" />
      </cc:Work>
    </rdf:RDF>
  </metadata>
  <g
     inkscape:label="レイヤー 1"
     inkscape:groupmode="layer"
     id="layer1"
     transform="translate(112.33452,-299.26786)">
    <path
       sodipodi:nodetypes="zzzzz"
       inkscape:connector-curvature="0"
       id="path835"
       d="m 432.97174,537.39288 c 0,98.6346 -79.95915,178.59375 -178.59375,178.59375 -98.6346,0 -178.593749,-79.95915 -178.593749,-178.59375 0,-98.6346 79.959149,-178.59375 178.593749,-178.59375 98.6346,0 178.59375,79.95915 178.59375,178.59375 z"
       style="fill:#ffffff;fill-opacity:1;stroke:none;stroke-width:1.84957016px;stroke-linecap:butt;stroke-linejoin:miter;stroke-opacity:1;" />
    <path
       style="fill:#ff0000;fill-opacity:1;stroke:none;stroke-width:1.84957016px;stroke-linecap:butt;stroke-linejoin:miter;stroke-opacity:1"
       d="m -102.80952,299.26786 v 476.25 h 793.75 v -476.25 z m 535.78126,238.12502 c 0,98.6346 -79.95915,178.59375 -178.59375,178.59375 -98.6346,0 -178.593749,-79.95915 -178.593749,-178.59375 0,-98.6346 79.959149,-178.59375 178.593749,-178.59375 98.6346,0 178.59375,79.95915 178.59375,178.59375 z"
       id="path849"
       inkscape:connector-curvature="0"
       sodipodi:nodetypes="ccccczzzzz" />
    <path
       style="fill:#ffffff;fill-opacity:1;stroke:none;stroke-width:0.51166773px;stroke-linecap:butt;stroke-linejoin:miter;stroke-opacity:1"
       d="m -102.80952,299.26786 h -9.525 v 476.25 h 9.525 z"
       id="path819"
       inkscape:connector-curvature="0"
       sodipodi:nodetypes="ccccc" />
    <path
       sodipodi:nodetypes="ccccccccccccccccccccc"
       inkscape:connector-curvature="0"
       id="path832"
       d="M 422.75779,537.39288 321.72991,436.365 l -67.35192,67.35192 -33.67596,-33.67596 67.35192,-67.35192 -33.67596,-33.67596 -101.02788,101.02788 67.35192,67.35192 -33.67596,33.67596 -67.35192,-67.35192 -33.675962,33.67596 101.027882,101.02788 67.35192,-67.35192 33.67596,33.67596 -67.35192,67.35192 33.67596,33.67596 101.02788,-101.02788 -67.35192,-67.35192 33.67596,-33.67596 67.35192,67.35192 z"
       style="fill:#000000;fill-opacity:1;stroke:none;stroke-width:0.71633542px;stroke-linecap:butt;stroke-linejoin:miter;stroke-opacity:1;" />
  </g>
</svg>
