<?xml version="1.0" encoding="UTF-8" standalone="no"?>
<!-- Created with Inkscape (http://www.inkscape.org/) -->

<svg
   width="2736"
   height="1800"
   viewBox="0 0 723.9 476.25001"
   version="1.1"
   id="svg8"
   inkscape:export-filename="C:\Users\厂永刄先生\Documents\GXI3CW2\JáÈŭcèŭ\Èŭmen\Í\意軍.png"
   inkscape:export-xdpi="96"
   inkscape:export-ydpi="96"
   inkscape:version="1.3 (0e150ed6c4, 2023-07-21)"
   sodipodi:docname="ge_1997_000-001.svg"
   xmlns:inkscape="http://www.inkscape.org/namespaces/inkscape"
   xmlns:sodipodi="http://sodipodi.sourceforge.net/DTD/sodipodi-0.dtd"
   xmlns="http://www.w3.org/2000/svg"
   xmlns:svg="http://www.w3.org/2000/svg"
   xmlns:rdf="http://www.w3.org/1999/02/22-rdf-syntax-ns#"
   xmlns:cc="http://creativecommons.org/ns#"
   xmlns:dc="http://purl.org/dc/elements/1.1/">
  <defs
     id="defs2" />
  <sodipodi:namedview
     id="base"
     pagecolor="#ffffff"
     bordercolor="#666666"
     borderopacity="1.0"
     inkscape:pageopacity="0.0"
     inkscape:pageshadow="2"
     inkscape:zoom="0.15111112"
     inkscape:cx="1604.7794"
     inkscape:cy="2048.1617"
     inkscape:document-units="px"
     inkscape:current-layer="layer1"
     showgrid="false"
     units="px"
     fit-margin-top="0"
     fit-margin-left="0"
     fit-margin-right="0"
     fit-margin-bottom="0"
     inkscape:showpageshadow="false"
     inkscape:snap-intersection-paths="false"
     inkscape:object-paths="false"
     inkscape:pagecheckerboard="true"
     inkscape:snap-smooth-nodes="false"
     inkscape:window-width="1920"
     inkscape:window-height="1009"
     inkscape:window-x="-8"
     inkscape:window-y="-8"
     inkscape:window-maximized="1"
     inkscape:object-nodes="true"
     inkscape:snap-nodes="true"
     showguides="true"
     inkscape:guide-bbox="true"
     inkscape:deskcolor="#505050" />
  <metadata
     id="metadata5">
    <rdf:RDF>
      <cc:Work
         rdf:about="">
        <dc:format>image/svg+xml</dc:format>
        <dc:type
           rdf:resource="http://purl.org/dc/dcmitype/StillImage" />
      </cc:Work>
    </rdf:RDF>
  </metadata>
  <g
     inkscape:label="レイヤー 1"
     inkscape:groupmode="layer"
     id="layer1"
     transform="translate(112.33452,-299.26786)">
    <path
       sodipodi:nodetypes="cccc"
       inkscape:connector-curvature="0"
       id="path3"
       d="M -102.80952,718.27983 525.7077,299.26786 h -628.51722 z"
       style="fill:#ffffff;fill-opacity:1;stroke:none;stroke-width:3.13331px;stroke-linecap:butt;stroke-linejoin:miter;stroke-opacity:1" />
    <path
       style="fill:#ffffff;fill-opacity:1;stroke:none;stroke-width:0.51166773px;stroke-linecap:butt;stroke-linejoin:miter;stroke-opacity:1"
       d="m -102.80952,299.26786 h -9.525 v 476.25 h 9.525 z"
       id="path1079"
       inkscape:connector-curvature="0"
       sodipodi:nodetypes="ccccc" />
    <path
       sodipodi:nodetypes="ccccccc"
       inkscape:connector-curvature="0"
       id="path19"
       d="m 611.5655,356.50589 v -57.23803 h -85.8578 l -628.51722,419.01197 v 57.23803 h 85.8578 z"
       style="fill:#3377ff;fill-opacity:1;stroke:none;stroke-width:3.13331px;stroke-linecap:butt;stroke-linejoin:miter;stroke-opacity:1" />
    <path
       sodipodi:nodetypes="cccc"
       inkscape:connector-curvature="0"
       id="path1"
       d="M -16.95172,775.51786 611.5655,356.50589 v 419.01197 z"
       style="fill:#ffffff;fill-opacity:1;stroke:none;stroke-width:3.13331px;stroke-linecap:butt;stroke-linejoin:miter;stroke-opacity:1" />
    <path
       id="path216"
       style="color:#000000;fill:#000000;stroke:none;stroke-width:0.35329;stroke-dasharray:none;stroke-opacity:1"
       d="m 492.50302,577.08036 c -6.7321,0 -12.25,5.5179 -12.25,12.2501 0,4.89775 2.92249,9.1501 7.10655,11.1052 v 5.1655 h -31.1963 v 8.94954 l 31.1963,4.47545 v 78.21263 c 0,5.85436 -5.99111,11.32608 -16.25,11.32608 -25.45534,0 -40.16169,-38.51417 -41.73254,-47.20107 -2.1244,5.1662 -4.4269,14.41829 -2.94225,21.19269 0.5855,-1.15353 2.09355,-3.11773 3.566,-3.1458 0,0 8.7811,27.6446 20.86905,35.02626 17.44659,10.65391 38.10843,15.28842 41.63319,21.39342 3.5247,-6.105 24.18655,-10.73951 41.63315,-21.39342 12.088,-7.38166 20.86906,-35.02626 20.86906,-35.02626 1.47244,0.028 2.9805,1.99227 3.566,3.1458 1.48464,-6.7744 -0.81786,-16.02649 -2.94223,-21.19269 -1.57087,8.6869 -16.27723,47.20107 -41.73253,47.20107 -10.25891,0 -16.24935,-5.47172 -16.24935,-11.32608 v -78.21263 l 31.19558,-4.47545 v -8.94954 h -31.19558 v -5.1655 c 4.18264,-1.95525 7.10239,-6.2077 7.10239,-11.1052 0,-6.7322 -5.5144,-12.2501 -12.24649,-12.2501 z m 0,5.57745 c 3.71839,0 6.67179,2.95415 6.67179,6.67265 0,3.7183 -2.9534,6.6718 -6.67179,6.6718 -3.71845,0 -6.67531,-2.9535 -6.67531,-6.6718 0,-3.7185 2.95686,-6.67265 6.67531,-6.67265 z"
       sodipodi:nodetypes="sscccccsscccccccccsscccccsssssss" />
    <g
       id="g200"
       transform="matrix(1,0,0,-1,-23.546622,450.85717)"
       style="fill:#ff8000;fill-opacity:1">
      <path
         id="path194"
         style="fill:#ff8000;fill-opacity:1;stroke:none;stroke-width:0.128283;stroke-linejoin:round;stroke-miterlimit:3.9"
         d="m 39.7996,-46.84822 c 17.24591,5.53572 28.91976,21.57494 28.91976,39.6875003 0,18.1125597 -11.67385,34.1517797 -28.91976,39.6874997 21.918803,0 39.6875,-17.7687 39.6875,-39.6874997 0,-21.9188003 -17.768697,-39.6875003 -39.6875,-39.6875003 z"
         sodipodi:nodetypes="czczc"
         inkscape:transform-center-x="-19.84375"
         inkscape:transform-center-y="-39.6875" />
      <path
         id="path195"
         style="fill:#ff8000;fill-opacity:1;stroke:none;stroke-width:0.128283;stroke-linejoin:round;stroke-miterlimit:3.9"
         d="M 39.7996,32.52678 C 26.663431,44.997011 23.104812,64.512943 30.963558,80.831796 38.822303,97.150648 56.299235,106.53639 74.239122,104.04118 54.490963,113.5514 30.77237,105.2519 21.26216,85.503743 11.751949,65.755586 20.051441,42.036992 39.7996,32.52678 Z"
         sodipodi:nodetypes="czczc"
         inkscape:transform-center-x="28.458197"
         inkscape:transform-center-y="-33.787486" />
      <path
         id="path196"
         style="fill:#ff8000;fill-opacity:1;stroke:none;stroke-width:0.128283;stroke-linejoin:round;stroke-miterlimit:3.9"
         d="m -22.258027,-16.963033 c 15.0806992,-10.031854 34.899188,-9.158449 49.060102,2.134618 C 40.962988,-3.5353481 46.224333,15.591952 39.7996,32.52678 53.465836,15.390038 50.652433,-9.580706 33.515693,-23.24694 c -17.13674,-13.666233 -42.1074839,-10.852835 -55.77372,6.283907 z"
         sodipodi:nodetypes="czczc"
         inkscape:transform-center-x="26.69872"
         inkscape:transform-center-y="-32.216954" />
      <path
         id="path197"
         style="fill:#ff8000;fill-opacity:1;stroke:none;stroke-width:0.128283;stroke-linejoin:round;stroke-miterlimit:3.9"
         d="M 39.7996,32.52678 C 41.358772,50.572128 54.39803,65.522483 72.056431,69.553082 89.71483,73.583682 107.94967,65.771763 117.18433,50.190147 112.30672,71.559357 91.029478,84.92843 69.660279,80.050829 48.291077,75.173223 34.921994,53.895984 39.7996,32.52678 Z"
         sodipodi:nodetypes="czczc"
         inkscape:transform-center-x="39.194286"
         inkscape:transform-center-y="6.6005773" />
      <path
         id="path198"
         style="fill:#ff8000;fill-opacity:1;stroke:none;stroke-width:0.128283;stroke-linejoin:round;stroke-miterlimit:3.9"
         d="M -37.585568,50.188221 C -36.025945,32.142913 -22.986315,17.192883 -5.3278138,13.162723 12.330687,9.1325636 30.565329,16.944937 39.7996,32.52678 34.922527,11.157454 13.645619,-2.2121554 -7.7237046,2.664917 -29.093027,7.54199 -42.46264,28.818895 -37.585568,50.188221 Z"
         sodipodi:nodetypes="czczc"
         inkscape:transform-center-x="39.194397"
         inkscape:transform-center-y="-6.6020249" />
      <path
         id="path199"
         style="fill:#ff8000;fill-opacity:1;stroke:none;stroke-width:0.128283;stroke-linejoin:round;stroke-miterlimit:3.9"
         d="M 39.7996,32.52678 C 54.880049,42.55901 74.69856,41.6861 88.859754,30.393385 103.02095,19.100674 108.28278,-0.02650049 101.85846,-16.961491 115.52427,0.17559993 112.71024,25.146272 95.573163,38.812078 78.436081,52.477883 53.465407,49.663863 39.7996,32.52678 Z"
         sodipodi:nodetypes="czczc"
         inkscape:transform-center-x="26.699645"
         inkscape:transform-center-y="32.216565" />
      <path
         id="path200"
         style="fill:#ff8000;fill-opacity:1;stroke:none;stroke-width:0.128283;stroke-linejoin:round;stroke-miterlimit:3.9"
         d="M 5.3582941,104.04033 C -7.7775629,91.569766 -11.335696,72.053746 -3.4765435,55.735089 4.3826089,39.416432 21.859775,30.031124 39.7996,32.52678 20.051677,23.016075 -3.6671222,31.31498 -13.177826,51.0629 c -9.510702,19.747919 -1.211802,43.46672 18.5361201,52.97743 z"
         sodipodi:nodetypes="czczc"
         inkscape:transform-center-x="28.458643"
         inkscape:transform-center-y="33.786845" />
    </g>
  </g>
</svg>
