<?xml version="1.0" encoding="UTF-8" standalone="no"?>
<!-- Created with Inkscape (http://www.inkscape.org/) -->

<svg
   width="1800"
   height="1800"
   viewBox="0 0 476.25 476.25001"
   version="1.1"
   id="svg8"
   inkscape:export-filename="C:\Users\厂永刄先生\Documents\GXI3CW2\JáÈŭcèŭ\Èŭmen\Í\意軍.png"
   inkscape:export-xdpi="96"
   inkscape:export-ydpi="96"
   inkscape:version="1.3 (0e150ed6c4, 2023-07-21)"
   sodipodi:docname="ge_2004_roundel-lv.svg"
   xmlns:inkscape="http://www.inkscape.org/namespaces/inkscape"
   xmlns:sodipodi="http://sodipodi.sourceforge.net/DTD/sodipodi-0.dtd"
   xmlns="http://www.w3.org/2000/svg"
   xmlns:svg="http://www.w3.org/2000/svg"
   xmlns:rdf="http://www.w3.org/1999/02/22-rdf-syntax-ns#"
   xmlns:cc="http://creativecommons.org/ns#"
   xmlns:dc="http://purl.org/dc/elements/1.1/">
  <defs
     id="defs2" />
  <sodipodi:namedview
     id="base"
     pagecolor="#ffffff"
     bordercolor="#666666"
     borderopacity="1.0"
     inkscape:pageopacity="0.0"
     inkscape:pageshadow="2"
     inkscape:zoom="0.42740678"
     inkscape:cx="1002.5578"
     inkscape:cy="887.91292"
     inkscape:document-units="px"
     inkscape:current-layer="layer1"
     showgrid="false"
     units="px"
     fit-margin-top="0"
     fit-margin-left="0"
     fit-margin-right="0"
     fit-margin-bottom="0"
     inkscape:showpageshadow="false"
     inkscape:snap-intersection-paths="false"
     inkscape:object-paths="false"
     inkscape:pagecheckerboard="true"
     inkscape:snap-smooth-nodes="false"
     inkscape:window-width="1920"
     inkscape:window-height="1009"
     inkscape:window-x="-8"
     inkscape:window-y="-8"
     inkscape:window-maximized="1"
     inkscape:object-nodes="true"
     inkscape:snap-nodes="true"
     showguides="true"
     inkscape:guide-bbox="true"
     inkscape:deskcolor="#505050" />
  <metadata
     id="metadata5">
    <rdf:RDF>
      <cc:Work
         rdf:about="">
        <dc:format>image/svg+xml</dc:format>
        <dc:type
           rdf:resource="http://purl.org/dc/dcmitype/StillImage" />
      </cc:Work>
    </rdf:RDF>
  </metadata>
  <g
     inkscape:label="レイヤー 1"
     inkscape:groupmode="layer"
     id="layer1"
     transform="translate(-16.252991,-299.26788)">
    <path
       id="path6"
       style="opacity:1;fill:#000000;fill-opacity:1;stroke-width:0.844815;stroke-linejoin:round;stroke-miterlimit:5.2"
       inkscape:transform-center-x="-4.0750152e-06"
       inkscape:transform-center-y="-1.2613594e-06"
       transform="matrix(0.18219041,0,0,0.18219041,-66.933546,862.32143)"
       d="m 1763.6029,-2945.244 264.3697,612.819 643.9529,-175.3939 -314.2893,588.7789 538.6265,394.1064 -656.282,121.3764 27.7032,666.83641 -504.0809,-437.42511 -504.0811,437.42508 27.7034,-666.83648 -656.28215,-121.3763 538.62655,-394.1064 -314.28937,-588.7789 643.95297,175.3938 z"
       sodipodi:nodetypes="ccccccccccccccc" />
    <path
       id="circle2"
       style="opacity:1;fill:#000000;stroke-width:0.796959;stroke-linejoin:round;stroke-miterlimit:5.2;fill-opacity:1"
       d="m 492.50299,537.39288 c 0,131.51281 -106.61219,238.125 -238.125,238.125 -131.51281,0 -238.124999,-106.61219 -238.124999,-238.125 0,-131.51281 106.612189,-238.125 238.124999,-238.125 131.51281,0 238.125,106.61219 238.125,238.125 z m -452.437499,0 c 0,118.36153 95.950969,214.3125 214.312499,214.3125 118.36153,0 214.3125,-95.95097 214.3125,-214.3125 0,-118.36153 -95.95097,-214.3125 -214.3125,-214.3125 -118.36153,0 -214.312499,95.95097 -214.312499,214.3125 z"
       sodipodi:nodetypes="ssszsssszs" />
  </g>
</svg>
