<?xml version="1.0" encoding="UTF-8" standalone="no"?>
<!-- Created with Inkscape (http://www.inkscape.org/) -->

<svg
   width="1800"
   height="1800"
   viewBox="0 0 476.25 476.25001"
   version="1.1"
   id="svg8"
   inkscape:export-filename="C:\Users\厂永刄先生\Documents\GXI3CW2\JáÈŭcèŭ\Èŭmen\Í\意軍.png"
   inkscape:export-xdpi="96"
   inkscape:export-ydpi="96"
   inkscape:version="1.3 (0e150ed6c4, 2023-07-21)"
   sodipodi:docname="ge_2021_roundel.svg"
   xmlns:inkscape="http://www.inkscape.org/namespaces/inkscape"
   xmlns:sodipodi="http://sodipodi.sourceforge.net/DTD/sodipodi-0.dtd"
   xmlns="http://www.w3.org/2000/svg"
   xmlns:svg="http://www.w3.org/2000/svg"
   xmlns:rdf="http://www.w3.org/1999/02/22-rdf-syntax-ns#"
   xmlns:cc="http://creativecommons.org/ns#"
   xmlns:dc="http://purl.org/dc/elements/1.1/">
  <defs
     id="defs2" />
  <sodipodi:namedview
     id="base"
     pagecolor="#ffffff"
     bordercolor="#666666"
     borderopacity="1.0"
     inkscape:pageopacity="0.0"
     inkscape:pageshadow="2"
     inkscape:zoom="0.42740678"
     inkscape:cx="1289.17"
     inkscape:cy="862.17631"
     inkscape:document-units="px"
     inkscape:current-layer="layer1"
     showgrid="false"
     units="px"
     fit-margin-top="0"
     fit-margin-left="0"
     fit-margin-right="0"
     fit-margin-bottom="0"
     inkscape:showpageshadow="false"
     inkscape:snap-intersection-paths="false"
     inkscape:object-paths="false"
     inkscape:pagecheckerboard="true"
     inkscape:snap-smooth-nodes="false"
     inkscape:window-width="1920"
     inkscape:window-height="1009"
     inkscape:window-x="-8"
     inkscape:window-y="-8"
     inkscape:window-maximized="1"
     inkscape:object-nodes="true"
     inkscape:snap-nodes="true"
     showguides="true"
     inkscape:guide-bbox="true"
     inkscape:deskcolor="#505050" />
  <metadata
     id="metadata5">
    <rdf:RDF>
      <cc:Work
         rdf:about="">
        <dc:format>image/svg+xml</dc:format>
        <dc:type
           rdf:resource="http://purl.org/dc/dcmitype/StillImage" />
      </cc:Work>
    </rdf:RDF>
  </metadata>
  <g
     inkscape:label="レイヤー 1"
     inkscape:groupmode="layer"
     id="layer1"
     transform="translate(-16.252991,-299.26788)">
    <path
       id="path8"
       style="opacity:1;fill:#ffffff;fill-opacity:1;stroke-width:0.841235;stroke-linejoin:round;stroke-miterlimit:5.2"
       d="m 28.159234,537.39287 c 0,124.93719 101.281576,226.21876 226.218746,226.21876 124.93719,0 226.21877,-101.28157 226.21877,-226.21876 0,-124.93716 -101.28158,-226.21875 -226.21876,-226.21875 -124.93717,0 -226.218757,101.28159 -226.218756,226.21875 z"
       sodipodi:nodetypes="ssszs" />
    <g
       id="g3">
      <path
         id="path2"
         style="opacity:1;fill:#e50000;fill-opacity:1;stroke-width:0.796959;stroke-linejoin:round;stroke-miterlimit:5.2"
         d="M 456.21218,625.67121 C 401.34735,580.43865 331.0366,553.26788 254.37799,553.26788 c -76.65861,0 -146.96936,27.17077 -201.83419,72.40333 12.193429,-26.92806 19.038115,-56.7951 19.038115,-88.27833 0,-31.48323 -6.844686,-61.35027 -19.038115,-88.27833 54.86483,45.23256 125.17558,72.40333 201.83419,72.40333 76.65861,0 146.96936,-27.17077 201.83419,-72.40333 -12.19343,26.92806 -19.03811,56.7951 -19.03811,88.27833 0,31.48323 6.84468,61.35027 19.03811,88.27833 z"
         sodipodi:nodetypes="czczczczc" />
      <path
         id="path3"
         style="opacity:1;fill:#e50000;fill-opacity:1;stroke-width:0.796959;stroke-linejoin:round;stroke-miterlimit:5.2"
         d="m 166.09966,739.22707 c 45.23256,-54.86483 72.40333,-125.17558 72.40333,-201.83419 0,-76.65861 -27.17077,-146.96936 -72.40333,-201.83419 26.92806,12.19343 56.7951,19.03811 88.27833,19.03811 31.48323,0 61.35027,-6.84468 88.27833,-19.03811 -45.23256,54.86483 -72.40333,125.17558 -72.40333,201.83419 0,76.65861 27.17077,146.96936 72.40333,201.83419 -26.92806,-12.19343 -56.7951,-19.03811 -88.27833,-19.03811 -31.48323,0 -61.35027,6.84468 -88.27833,19.03811 z"
         sodipodi:nodetypes="czczczczc" />
    </g>
    <path
       id="circle2"
       style="opacity:1;fill:#e50000;stroke-width:0.796959;stroke-linejoin:round;stroke-miterlimit:5.2;fill-opacity:1"
       d="m 492.50299,537.39288 c 0,131.51281 -106.61219,238.125 -238.125,238.125 -131.51281,0 -238.124999,-106.61219 -238.124999,-238.125 0,-131.51281 106.612189,-238.125 238.124999,-238.125 131.51281,0 238.125,106.61219 238.125,238.125 z m -452.437499,0 c 0,118.36153 95.950969,214.3125 214.312499,214.3125 118.36153,0 214.3125,-95.95097 214.3125,-214.3125 0,-118.36153 -95.95097,-214.3125 -214.3125,-214.3125 -118.36153,0 -214.312499,95.95097 -214.312499,214.3125 z"
       sodipodi:nodetypes="ssszsssszs" />
  </g>
</svg>
