<?xml version="1.0" encoding="UTF-8" standalone="no"?>
<!-- Created with Inkscape (http://www.inkscape.org/) -->

<svg
   width="2736"
   height="1800"
   viewBox="0 0 723.9 476.25001"
   version="1.1"
   id="svg8"
   inkscape:export-filename="C:\Users\厂永刄先生\Documents\GXI3CW2\,pjóŭ\Birmanie.png"
   inkscape:export-xdpi="96"
   inkscape:export-ydpi="96"
   inkscape:version="1.3 (0e150ed6c4, 2023-07-21)"
   sodipodi:docname="xw_1989.svg"
   xmlns:inkscape="http://www.inkscape.org/namespaces/inkscape"
   xmlns:sodipodi="http://sodipodi.sourceforge.net/DTD/sodipodi-0.dtd"
   xmlns="http://www.w3.org/2000/svg"
   xmlns:svg="http://www.w3.org/2000/svg"
   xmlns:rdf="http://www.w3.org/1999/02/22-rdf-syntax-ns#"
   xmlns:cc="http://creativecommons.org/ns#"
   xmlns:dc="http://purl.org/dc/elements/1.1/">
  <defs
     id="defs2" />
  <sodipodi:namedview
     id="base"
     pagecolor="#ffffff"
     bordercolor="#666666"
     borderopacity="1.0"
     inkscape:pageopacity="0.0"
     inkscape:pageshadow="2"
     inkscape:zoom="0.30222223"
     inkscape:cx="1252.3897"
     inkscape:cy="1067.0956"
     inkscape:document-units="px"
     inkscape:current-layer="layer1"
     showgrid="false"
     units="px"
     fit-margin-top="0"
     fit-margin-left="0"
     fit-margin-right="0"
     fit-margin-bottom="0"
     inkscape:showpageshadow="false"
     inkscape:snap-intersection-paths="true"
     inkscape:object-paths="false"
     inkscape:pagecheckerboard="true"
     inkscape:snap-smooth-nodes="false"
     inkscape:window-width="1920"
     inkscape:window-height="1009"
     inkscape:window-x="-8"
     inkscape:window-y="-8"
     inkscape:window-maximized="1"
     inkscape:object-nodes="true"
     inkscape:snap-nodes="true"
     inkscape:deskcolor="#505050" />
  <metadata
     id="metadata5">
    <rdf:RDF>
      <cc:Work
         rdf:about="">
        <dc:format>image/svg+xml</dc:format>
        <dc:type
           rdf:resource="http://purl.org/dc/dcmitype/StillImage" />
      </cc:Work>
    </rdf:RDF>
  </metadata>
  <g
     inkscape:label="レイヤー 1"
     inkscape:groupmode="layer"
     id="layer1"
     transform="translate(112.33452,-299.26786)">
    <path
       sodipodi:nodetypes="ccccc"
       inkscape:connector-curvature="0"
       id="path817"
       d="m 611.56548,299.26786 h -714.375 v 238.125 h 714.375 z"
       style="fill:#0055ff;fill-opacity:1;stroke:none;stroke-width:1.47706px;stroke-linecap:butt;stroke-linejoin:miter;stroke-opacity:1" />
    <path
       style="fill:#ffffff;fill-opacity:1;stroke:none;stroke-width:0.51166773px;stroke-linecap:butt;stroke-linejoin:miter;stroke-opacity:1"
       d="m -102.80952,299.26786 h -9.525 v 476.25 h 9.525 z"
       id="path1079"
       inkscape:connector-curvature="0"
       sodipodi:nodetypes="ccccc" />
    <path
       sodipodi:nodetypes="ccccc"
       inkscape:connector-curvature="0"
       id="path884"
       d="m 611.56548,537.39286 h -714.375 v 238.125 h 714.375 z"
       style="fill:#ff0000;fill-opacity:1;stroke:none;stroke-width:1.47706px;stroke-linecap:butt;stroke-linejoin:miter;stroke-opacity:1" />
    <g
       id="g17"
       style="fill:#ff0000;fill-opacity:1;stroke:none">
      <path
         id="path1"
         style="opacity:1;fill:#ff0000;fill-opacity:1;stroke:none;stroke-width:0.0134625;stroke-linejoin:round;stroke-miterlimit:155"
         d="m 294.06548,418.33036 a 39.687496,39.687496 0 0 1 -39.68749,39.68749 39.687496,39.687496 0 0 1 -39.68751,-39.68749 39.687496,39.687496 0 0 1 39.68751,-39.6875 39.687496,39.687496 0 0 1 39.68749,39.6875 z" />
      <path
         id="path10"
         style="opacity:1;fill:#ff0000;fill-opacity:1;stroke:none;stroke-width:0.00134625;stroke-linejoin:round;stroke-miterlimit:155"
         d="m 215.08936,384.6544 c -6.63851,-6.63851 -16.83797,-22.45065 -16.83797,-22.45065 0,0 15.81214,10.19946 22.45065,16.83797 1.54989,1.5499 1.54988,4.06278 -1e-5,5.61267 -1.54989,1.54989 -4.06277,1.5499 -5.61267,1e-5 z"
         sodipodi:nodetypes="scszs" />
      <path
         id="path11"
         style="opacity:1;fill:#ff0000;fill-opacity:1;stroke:none;stroke-width:0.00134625;stroke-linejoin:round;stroke-miterlimit:155"
         d="m 288.05394,457.61898 c 6.63851,6.63851 22.45065,16.83797 22.45065,16.83797 0,0 -10.19946,-15.81214 -16.83797,-22.45065 -1.5499,-1.54989 -4.06278,-1.54988 -5.61267,10e-6 -1.54989,1.54989 -1.5499,4.06277 -10e-6,5.61267 z"
         sodipodi:nodetypes="scszs" />
      <path
         id="path12"
         style="opacity:1;fill:#ff0000;fill-opacity:1;stroke:none;stroke-width:0.00134625;stroke-linejoin:round;stroke-miterlimit:155"
         d="m 220.70204,457.61898 c -6.63851,6.63851 -22.45065,16.83797 -22.45065,16.83797 0,0 10.19946,-15.81214 16.83797,-22.45065 1.5499,-1.54989 4.06278,-1.54988 5.61267,10e-6 1.54989,1.54989 1.5499,4.06277 1e-5,5.61267 z"
         sodipodi:nodetypes="scszs" />
      <path
         id="path13"
         style="opacity:1;fill:#ff0000;fill-opacity:1;stroke:none;stroke-width:0.00134625;stroke-linejoin:round;stroke-miterlimit:155"
         d="m 293.66662,384.6544 c 6.63851,-6.63851 16.83797,-22.45065 16.83797,-22.45065 0,0 -15.81214,10.19946 -22.45065,16.83797 -1.54989,1.5499 -1.54988,4.06278 10e-6,5.61267 1.54989,1.54989 4.06277,1.5499 5.61267,1e-5 z"
         sodipodi:nodetypes="scszs" />
      <path
         id="path14"
         style="opacity:1;fill:#ff0000;fill-opacity:1;stroke:none;stroke-width:0.00134625;stroke-linejoin:round;stroke-miterlimit:155"
         d="m 250.40923,366.7366 c 0,-9.38827 3.96876,-27.78125 3.96876,-27.78125 0,0 3.96876,18.39298 3.96876,27.78125 0,2.19188 -1.77688,3.96875 -3.96876,3.96875 -2.19188,0 -3.96876,-1.77687 -3.96876,-3.96875 z"
         sodipodi:nodetypes="scszs" />
      <path
         id="path15"
         style="opacity:1;fill:#ff0000;fill-opacity:1;stroke:none;stroke-width:0.00134625;stroke-linejoin:round;stroke-miterlimit:155"
         d="m 250.40923,469.9241 c 0,9.38827 3.96876,27.78125 3.96876,27.78125 0,0 3.96876,-18.39298 3.96876,-27.78125 0,-2.19188 -1.77688,-3.96875 -3.96876,-3.96875 -2.19188,0 -3.96876,1.77687 -3.96876,3.96875 z"
         sodipodi:nodetypes="scszs" />
      <path
         id="path16"
         style="opacity:1;fill:#ff0000;fill-opacity:1;stroke:none;stroke-width:0.00134625;stroke-linejoin:round;stroke-miterlimit:155"
         d="m 202.78424,422.29911 c -9.38827,0 -27.78125,-3.96876 -27.78125,-3.96876 0,0 18.39298,-3.96876 27.78125,-3.96876 2.19188,0 3.96875,1.77688 3.96875,3.96876 0,2.19188 -1.77687,3.96876 -3.96875,3.96876 z"
         sodipodi:nodetypes="scszs" />
      <path
         id="path17"
         style="opacity:1;fill:#ff0000;fill-opacity:1;stroke:none;stroke-width:0.00134625;stroke-linejoin:round;stroke-miterlimit:155"
         d="m 305.97174,422.29911 c 9.38827,0 27.78125,-3.96876 27.78125,-3.96876 0,0 -18.39298,-3.96876 -27.78125,-3.96876 -2.19188,0 -3.96875,1.77688 -3.96875,3.96876 0,2.19188 1.77687,3.96876 3.96875,3.96876 z"
         sodipodi:nodetypes="scszs" />
    </g>
    <g
       id="g22"
       transform="translate(0,-2.61414)">
      <g
         id="g24">
        <path
           style="opacity:1;fill:#00a800;fill-opacity:1;stroke:none;stroke-width:0.00840913;stroke-linejoin:round;stroke-miterlimit:155"
           d="m 95.62798,738.4445 h 158.75 c 0,0 -35.27778,-105.83333 -79.375,-105.83333 -44.09722,0 -79.375,105.83333 -79.375,105.83333 z"
           id="path21"
           sodipodi:nodetypes="ccac" />
        <path
           style="opacity:1;fill:#00a800;fill-opacity:1;stroke:none;stroke-width:0.00840913;stroke-linejoin:round;stroke-miterlimit:155"
           d="m 254.37798,738.4445 h 158.75 c 0,0 -35.27778,-105.83333 -79.375,-105.83333 -44.09722,0 -79.375,105.83333 -79.375,105.83333 z"
           id="path22"
           sodipodi:nodetypes="ccac" />
        <path
           style="opacity:1;fill:#00a800;fill-opacity:1;stroke:none;stroke-width:0.010299;stroke-linejoin:round;stroke-miterlimit:155"
           d="m 175.00298,738.4445 h 158.75 c 0,0 -35.27778,-158.75 -79.375,-158.75 -44.09722,0 -79.375,158.75 -79.375,158.75 z"
           id="path18"
           sodipodi:nodetypes="ccac" />
        <path
           id="path24"
           style="opacity:1;fill:none;fill-opacity:1;stroke:#ffffff;stroke-width:3.175;stroke-linecap:butt;stroke-linejoin:bevel;stroke-miterlimit:155;stroke-dasharray:none;stroke-opacity:1"
           d="m 305.72922,645.69699 c -30.1134,28.55965 -51.35286,92.2452 -51.35286,92.2452 0,0 -21.23946,-63.67587 -51.35286,-92.23552"
           sodipodi:nodetypes="ccc" />
      </g>
    </g>
  </g>
</svg>
