<?xml version="1.0" encoding="UTF-8" standalone="no"?>
<!-- Created with Inkscape (http://www.inkscape.org/) -->

<svg
   width="2736"
   height="1800"
   viewBox="0 0 723.89999 476.25001"
   version="1.1"
   id="svg8"
   inkscape:export-filename="C:\Users\厂永刄先生\Documents\GXI3CW2\,pjóŭ\Colombie.png"
   inkscape:export-xdpi="96"
   inkscape:export-ydpi="96"
   inkscape:version="1.3 (0e150ed6c4, 2023-07-21)"
   sodipodi:docname="co_1927_air-force.svg"
   xmlns:inkscape="http://www.inkscape.org/namespaces/inkscape"
   xmlns:sodipodi="http://sodipodi.sourceforge.net/DTD/sodipodi-0.dtd"
   xmlns="http://www.w3.org/2000/svg"
   xmlns:svg="http://www.w3.org/2000/svg"
   xmlns:rdf="http://www.w3.org/1999/02/22-rdf-syntax-ns#"
   xmlns:cc="http://creativecommons.org/ns#"
   xmlns:dc="http://purl.org/dc/elements/1.1/">
  <defs
     id="defs2" />
  <sodipodi:namedview
     id="base"
     pagecolor="#ffffff"
     bordercolor="#666666"
     borderopacity="1.0"
     inkscape:pageopacity="0.0"
     inkscape:pageshadow="2"
     inkscape:zoom="0.42740676"
     inkscape:cx="1855.3754"
     inkscape:cy="642.24534"
     inkscape:document-units="px"
     inkscape:current-layer="layer1"
     showgrid="false"
     units="px"
     fit-margin-top="0"
     fit-margin-left="0"
     fit-margin-right="0"
     fit-margin-bottom="0"
     inkscape:showpageshadow="false"
     inkscape:snap-intersection-paths="false"
     inkscape:object-paths="false"
     inkscape:pagecheckerboard="true"
     inkscape:snap-smooth-nodes="true"
     inkscape:window-width="1920"
     inkscape:window-height="1009"
     inkscape:window-x="-8"
     inkscape:window-y="-8"
     inkscape:window-maximized="1"
     inkscape:object-nodes="true"
     inkscape:deskcolor="#505050" />
  <metadata
     id="metadata5">
    <rdf:RDF>
      <cc:Work
         rdf:about="">
        <dc:format>image/svg+xml</dc:format>
        <dc:type
           rdf:resource="http://purl.org/dc/dcmitype/StillImage" />
      </cc:Work>
    </rdf:RDF>
  </metadata>
  <g
     inkscape:label="レイヤー 1"
     inkscape:groupmode="layer"
     id="layer1"
     transform="translate(112.33452,-299.26786)">
    <path
       sodipodi:nodetypes="ccccczzzzz"
       inkscape:connector-curvature="0"
       id="path820"
       d="m 611.56548,775.51786 v -476.25 h -357.1875 v 476.25 z M 313.90923,537.39285 c 0,-65.75639 53.3061,-119.06249 119.0625,-119.06249 65.7564,0 119.0625,53.3061 119.0625,119.06249 0,65.7564 -53.3061,119.06251 -119.0625,119.06251 -65.7564,0 -119.0625,-53.30611 -119.0625,-119.06251 z"
       style="fill:#57c7ff;fill-opacity:1;stroke:none;stroke-width:2.14901px;stroke-linecap:butt;stroke-linejoin:miter;stroke-opacity:1" />
    <path
       id="path3"
       style="fill:#ffc000;fill-opacity:1;stroke-width:6.51175;stroke-linecap:round;stroke-linejoin:round;stroke-miterlimit:155;paint-order:stroke fill markers"
       d="m 313.90923,537.39285 c 0,-65.75639 53.3061,-119.06249 119.0625,-119.06249 65.7564,0 119.0625,53.3061 119.0625,119.06249 H 498.4561 c 0,-36.16601 -29.31836,-65.48436 -65.48437,-65.48436 -36.16602,0 -65.48437,29.31835 -65.48437,65.48436 z"
       sodipodi:nodetypes="czcczcc" />
    <path
       id="path2-1"
       style="fill:#002aa8;fill-opacity:1;stroke-width:3.58146;stroke-linecap:round;stroke-linejoin:round;stroke-miterlimit:155;paint-order:stroke fill markers"
       d="m 367.48736,537.39286 c 0,-11.9318 3.20698,-23.10798 8.78242,-32.74219 h 113.40391 c 5.57544,9.63421 8.78241,20.81039 8.78241,32.74219 l -35.71874,-1e-5 -14.88282,-6.16467 6.16467,-14.88281 -14.88282,6.16467 -6.16466,-14.88281 -6.16465,14.88281 -14.88282,-6.16467 6.16466,14.88281 -14.88281,6.16467 z"
       sodipodi:nodetypes="cccccccccccccc" />
    <path
       id="path5"
       style="fill:#ffc000;fill-opacity:1;stroke-width:3.58146;stroke-linecap:round;stroke-linejoin:round;stroke-miterlimit:155;paint-order:stroke fill markers"
       d="m 367.48736,537.39285 c 0,36.16603 29.31835,65.48438 65.48437,65.48438 36.16601,0 65.48437,-29.31835 65.48437,-65.48438 h -35.71874 l -14.88282,6.16467 6.16467,14.88281 -14.88282,-6.16467 -6.16466,14.88282 -6.16466,-14.88282 -14.88281,6.16467 6.16466,-14.88281 -14.88281,-6.16467 z"
       sodipodi:nodetypes="czccccccccccc" />
    <path
       id="path7"
       style="fill:#ff0000;fill-opacity:1;stroke-width:3.58146;stroke-linecap:round;stroke-linejoin:round;stroke-miterlimit:155;paint-order:stroke fill markers"
       d="m 376.26978,504.65067 c 11.324,-19.56761 32.46778,-32.74219 56.70195,-32.74219 24.23418,0 45.37795,13.17458 56.70196,32.74219 z"
       sodipodi:nodetypes="cscc" />
    <path
       id="path10"
       style="fill:#ffffff;stroke-width:0.59012;stroke-linecap:round;stroke-miterlimit:15.4"
       inkscape:transform-center-x="-1.0237889e-06"
       d="m 432.97173,507.62723 6.16466,14.88281 14.88282,-6.16467 -6.16467,14.88281 14.88282,6.16467 -14.88282,6.16467 6.16467,14.88281 -14.88282,-6.16467 -6.16466,14.88282 -6.16466,-14.88282 -14.88281,6.16467 6.16466,-14.88281 -14.88281,-6.16467 14.88281,-6.16467 -6.16466,-14.88281 14.88282,6.16467 z"
       sodipodi:nodetypes="ccccccccccccccccc" />
    <path
       id="path11"
       style="fill:#ff0000;fill-opacity:1;stroke-width:3.58146;stroke-linecap:round;stroke-linejoin:round;stroke-miterlimit:155;paint-order:stroke fill markers"
       d="m 367.48736,537.39285 c 0,36.16603 29.31835,65.48438 65.48437,65.48438 v 53.57813 c -65.7564,0 -119.0625,-53.30611 -119.0625,-119.06251 z"
       sodipodi:nodetypes="ccccc" />
    <path
       id="path12"
       style="fill:#002aa8;fill-opacity:1;stroke-width:3.58146;stroke-linecap:round;stroke-linejoin:round;stroke-miterlimit:155;paint-order:stroke fill markers"
       d="m 432.97173,602.87723 c 36.16601,0 65.48437,-29.31835 65.48437,-65.48438 h 53.57813 c 0,65.7564 -53.3061,119.06251 -119.0625,119.06251 z"
       sodipodi:nodetypes="ccccc" />
    <path
       style="fill:#ffffff;fill-opacity:1;stroke:none;stroke-width:0.511668px;stroke-linecap:butt;stroke-linejoin:miter;stroke-opacity:1"
       d="m -102.80952,299.26786 h -9.525 v 476.25 h 9.525 z"
       id="path819"
       inkscape:connector-curvature="0"
       sodipodi:nodetypes="ccccc" />
    <path
       style="fill:#57c7ff;fill-opacity:1;stroke:none;stroke-width:1.31599px;stroke-linecap:butt;stroke-linejoin:miter;stroke-opacity:1"
       d="m -102.80952,775.51786 v -238.125 h 357.1875 v 238.125 z"
       id="path822"
       inkscape:connector-curvature="0"
       sodipodi:nodetypes="ccccc" />
    <path
       sodipodi:nodetypes="ccccc"
       inkscape:connector-curvature="0"
       id="path821"
       d="m -102.80952,477.86161 v -59.53125 h 357.1875 v 59.53125 z"
       style="fill:#002aa8;fill-opacity:1;stroke:none;stroke-width:0.657995px;stroke-linecap:butt;stroke-linejoin:miter;stroke-opacity:1" />
    <path
       sodipodi:nodetypes="ccccc"
       inkscape:connector-curvature="0"
       id="path1"
       d="m -102.80952,418.33036 v -119.0625 h 357.1875 v 119.0625 z"
       style="fill:#ffc000;fill-opacity:1;stroke:none;stroke-width:1.0745px;stroke-linecap:butt;stroke-linejoin:miter;stroke-opacity:1" />
    <path
       style="fill:#ff0000;fill-opacity:1;stroke:none;stroke-width:0.657995px;stroke-linecap:butt;stroke-linejoin:miter;stroke-opacity:1"
       d="m -102.80952,537.39286 v -59.53125 h 357.1875 v 59.53125 z"
       id="path2"
       inkscape:connector-curvature="0"
       sodipodi:nodetypes="ccccc" />
  </g>
</svg>
