<?xml version="1.0" encoding="UTF-8" standalone="no"?>
<!-- Created with Inkscape (http://www.inkscape.org/) -->

<svg
   width="1800"
   height="1800"
   viewBox="0 0 476.25 476.25001"
   version="1.1"
   id="svg8"
   inkscape:export-filename="C:\Users\厂永刄先生\Documents\GXI3CW2\,pjóŭ\Ghana.png"
   inkscape:export-xdpi="96"
   inkscape:export-ydpi="96"
   inkscape:version="1.3 (0e150ed6c4, 2023-07-21)"
   sodipodi:docname="co_1927_roundel.svg"
   xmlns:inkscape="http://www.inkscape.org/namespaces/inkscape"
   xmlns:sodipodi="http://sodipodi.sourceforge.net/DTD/sodipodi-0.dtd"
   xmlns="http://www.w3.org/2000/svg"
   xmlns:svg="http://www.w3.org/2000/svg"
   xmlns:rdf="http://www.w3.org/1999/02/22-rdf-syntax-ns#"
   xmlns:cc="http://creativecommons.org/ns#"
   xmlns:dc="http://purl.org/dc/elements/1.1/">
  <defs
     id="defs2" />
  <sodipodi:namedview
     id="base"
     pagecolor="#ffffff"
     bordercolor="#666666"
     borderopacity="1.0"
     inkscape:pageopacity="0.0"
     inkscape:pageshadow="2"
     inkscape:zoom="0.30222223"
     inkscape:cx="1014.1544"
     inkscape:cy="990.99262"
     inkscape:document-units="px"
     inkscape:current-layer="layer1"
     showgrid="false"
     units="px"
     fit-margin-top="0"
     fit-margin-left="0"
     fit-margin-right="0"
     fit-margin-bottom="0"
     inkscape:showpageshadow="false"
     inkscape:snap-intersection-paths="true"
     inkscape:object-paths="false"
     inkscape:pagecheckerboard="true"
     inkscape:snap-smooth-nodes="false"
     inkscape:window-width="1920"
     inkscape:window-height="1009"
     inkscape:window-x="-8"
     inkscape:window-y="-8"
     inkscape:window-maximized="1"
     inkscape:object-nodes="true"
     inkscape:snap-nodes="true"
     inkscape:deskcolor="#505050" />
  <metadata
     id="metadata5">
    <rdf:RDF>
      <cc:Work
         rdf:about="">
        <dc:format>image/svg+xml</dc:format>
        <dc:type
           rdf:resource="http://purl.org/dc/dcmitype/StillImage" />
      </cc:Work>
    </rdf:RDF>
  </metadata>
  <g
     inkscape:label="レイヤー 1"
     inkscape:groupmode="layer"
     id="layer1"
     transform="translate(-444.87799,-608.83038)">
    <path
       id="path3"
       style="fill:#ffc000;fill-opacity:1;stroke-width:13.0235;stroke-linecap:round;stroke-linejoin:round;stroke-miterlimit:155;paint-order:stroke fill markers"
       d="m 444.87799,846.95538 c 0,-131.5128 106.6122,-238.125 238.125,-238.125 131.5128,0 238.125,106.6122 238.125,238.125 H 813.97173 c 0,-72.33204 -58.63671,-130.96874 -130.96874,-130.96874 -72.33204,0 -130.96874,58.6367 -130.96874,130.96874 z"
       sodipodi:nodetypes="czcczcc" />
    <path
       id="path2"
       style="fill:#002aa8;fill-opacity:1;stroke-width:7.16292;stroke-linecap:round;stroke-linejoin:round;stroke-miterlimit:155;paint-order:stroke fill markers"
       d="m 552.03425,846.95539 c 0,-23.86361 6.41396,-46.21597 17.56482,-65.48438 h 226.80785 c 11.15087,19.26841 17.56482,41.62077 17.56482,65.48438 z" />
    <path
       id="path5"
       style="fill:#ffc000;fill-opacity:1;stroke-width:7.16292;stroke-linecap:round;stroke-linejoin:round;stroke-miterlimit:155;paint-order:stroke fill markers"
       d="m 552.03425,846.95538 c 0,72.33204 58.6367,130.96874 130.96874,130.96874 72.33203,0 130.96874,-58.6367 130.96874,-130.96874 z"
       sodipodi:nodetypes="czcc" />
    <path
       id="path7"
       style="fill:#ff0000;fill-opacity:1;stroke-width:7.16292;stroke-linecap:round;stroke-linejoin:round;stroke-miterlimit:155;paint-order:stroke fill markers"
       d="m 569.59907,781.47101 c 22.64803,-39.13522 64.93557,-65.48439 113.40392,-65.48439 48.46836,0 90.75591,26.34917 113.40393,65.48439 z"
       sodipodi:nodetypes="cscc" />
    <path
       id="path10"
       style="fill:#ffffff;stroke-width:1.18024;stroke-linecap:round;stroke-miterlimit:15.4"
       inkscape:transform-center-x="2.438422e-06"
       inkscape:transform-center-y="-1.7980071e-06"
       d="m 683.003,787.42412 12.32932,29.76562 29.76563,-12.32933 -12.32933,29.76562 29.76563,12.32933 -29.76563,12.32934 12.32933,29.76562 -29.76563,-12.32933 -12.32932,29.76563 -12.32933,-29.76563 -29.76563,12.32933 12.32933,-29.76562 -29.76563,-12.32934 29.76563,-12.32933 -12.32932,-29.76562 29.76563,12.32933 z"
       sodipodi:nodetypes="ccccccccccccccccc" />
    <path
       id="path11"
       style="fill:#ff0000;fill-opacity:1;stroke-width:7.16292;stroke-linecap:round;stroke-linejoin:round;stroke-miterlimit:155;paint-order:stroke fill markers"
       d="m 552.03425,846.95538 c 0,72.33204 58.6367,130.96874 130.96874,130.96874 l 0,107.15628 c -131.5128,0 -238.125,-106.61222 -238.125,-238.12502 z"
       sodipodi:nodetypes="ccccc" />
    <path
       id="path12"
       style="fill:#002aa8;fill-opacity:1;stroke-width:7.16292;stroke-linecap:round;stroke-linejoin:round;stroke-miterlimit:155;paint-order:stroke fill markers"
       d="m 683.00299,977.92412 c 72.33203,0 130.96874,-58.6367 130.96874,-130.96874 h 107.15626 c 0,131.5128 -106.6122,238.12502 -238.125,238.12502 z"
       sodipodi:nodetypes="ccccc" />
  </g>
</svg>
