<?xml version="1.0" encoding="UTF-8" standalone="no"?>
<!-- Created with Inkscape (http://www.inkscape.org/) -->

<svg
   width="2736"
   height="1800"
   viewBox="0 0 723.89999 476.25001"
   version="1.1"
   id="svg8"
   inkscape:export-filename="C:\Users\厂永刄先生\Documents\GXI3CW2\,pjóŭ\Colombie.png"
   inkscape:export-xdpi="96"
   inkscape:export-ydpi="96"
   inkscape:version="1.3 (0e150ed6c4, 2023-07-21)"
   sodipodi:docname="co_1861_000-100.svg"
   xmlns:inkscape="http://www.inkscape.org/namespaces/inkscape"
   xmlns:sodipodi="http://sodipodi.sourceforge.net/DTD/sodipodi-0.dtd"
   xmlns="http://www.w3.org/2000/svg"
   xmlns:svg="http://www.w3.org/2000/svg"
   xmlns:rdf="http://www.w3.org/1999/02/22-rdf-syntax-ns#"
   xmlns:cc="http://creativecommons.org/ns#"
   xmlns:dc="http://purl.org/dc/elements/1.1/">
  <defs
     id="defs2" />
  <sodipodi:namedview
     id="base"
     pagecolor="#ffffff"
     bordercolor="#666666"
     borderopacity="1.0"
     inkscape:pageopacity="0.0"
     inkscape:pageshadow="2"
     inkscape:zoom="0.30222222"
     inkscape:cx="1255.6985"
     inkscape:cy="1166.3603"
     inkscape:document-units="px"
     inkscape:current-layer="layer1"
     showgrid="false"
     units="px"
     fit-margin-top="0"
     fit-margin-left="0"
     fit-margin-right="0"
     fit-margin-bottom="0"
     inkscape:showpageshadow="false"
     inkscape:snap-intersection-paths="false"
     inkscape:object-paths="false"
     inkscape:pagecheckerboard="true"
     inkscape:snap-smooth-nodes="true"
     inkscape:window-width="1920"
     inkscape:window-height="1009"
     inkscape:window-x="-8"
     inkscape:window-y="-8"
     inkscape:window-maximized="1"
     inkscape:object-nodes="true"
     inkscape:deskcolor="#505050" />
  <metadata
     id="metadata5">
    <rdf:RDF>
      <cc:Work
         rdf:about="">
        <dc:format>image/svg+xml</dc:format>
        <dc:type
           rdf:resource="http://purl.org/dc/dcmitype/StillImage" />
      </cc:Work>
    </rdf:RDF>
  </metadata>
  <g
     inkscape:label="レイヤー 1"
     inkscape:groupmode="layer"
     id="layer1"
     transform="translate(112.33452,-299.26786)">
    <path
       sodipodi:nodetypes="ccccc"
       inkscape:connector-curvature="0"
       id="path820"
       d="m -102.80952,537.39286 v -238.125 h 714.375 v 238.125 z"
       style="fill:#ffc000;fill-opacity:1;stroke:none;stroke-width:2.149px;stroke-linecap:butt;stroke-linejoin:miter;stroke-opacity:1" />
    <path
       style="fill:#ffffff;fill-opacity:1;stroke:none;stroke-width:0.511668px;stroke-linecap:butt;stroke-linejoin:miter;stroke-opacity:1"
       d="m -102.80952,299.26786 h -9.525 v 476.25 h 9.525 z"
       id="path819"
       inkscape:connector-curvature="0"
       sodipodi:nodetypes="ccccc" />
    <path
       style="fill:#ff0000;fill-opacity:1;stroke:none;stroke-width:1.31599px;stroke-linecap:butt;stroke-linejoin:miter;stroke-opacity:1"
       d="m -102.80952,775.51786 v -119.0625 h 714.375 v 119.0625 z"
       id="path822"
       inkscape:connector-curvature="0"
       sodipodi:nodetypes="ccccc" />
    <path
       sodipodi:nodetypes="ccccc"
       inkscape:connector-curvature="0"
       id="path821"
       d="m 611.56548,537.39286 v 119.0625 h -714.375 v -119.0625 z"
       style="fill:#002aa8;fill-opacity:1;stroke:none;stroke-width:1.31599px;stroke-linecap:butt;stroke-linejoin:miter;stroke-opacity:1" />
    <g
       id="g11"
       transform="matrix(0.90909093,0,0,0.90909093,30.341161,48.853868)">
      <path
         id="path7"
         style="fill:#ff0000;fill-opacity:1;stroke-width:0.98023;stroke-linecap:square"
         inkscape:transform-center-x="-2.1642002e-06"
         inkscape:transform-center-y="3.3352288e-06"
         d="m 173.68008,537.39287 c 0,48.22137 32.57596,87.31252 72.76043,87.31252 40.18446,0 72.7604,-39.09114 72.7604,-87.31252 0,-48.22134 -32.57593,-87.31248 -72.7604,-87.31248 -40.18446,0 -72.76043,39.09114 -72.76043,87.31248 z"
         sodipodi:nodetypes="ssszs" />
      <path
         id="path2"
         style="fill:#002aa8;fill-opacity:1;stroke-width:0.914862;stroke-linecap:square"
         inkscape:transform-center-x="-2.4122369e-06"
         inkscape:transform-center-y="-4.6885464e-06"
         d="m 313.90924,537.39289 c 0,-45.29887 -30.2068,-82.02085 -67.46876,-82.02085 -37.26196,0 -67.46874,36.72198 -67.46874,82.02085 0,45.29884 30.20678,82.02082 67.46874,82.02082 37.26196,0 67.46876,-36.72198 67.46876,-82.02082 z"
         sodipodi:nodetypes="ssszs" />
      <path
         id="path3"
         style="fill:#ffffff;fill-opacity:1;stroke-width:0.447338;stroke-linecap:square"
         inkscape:transform-center-x="-1.829392e-06"
         inkscape:transform-center-y="2.2800052e-06"
         d="m 250.55026,527.471 9.92188,-4.10977 -4.10979,9.92187 9.92188,4.10978 -9.92188,4.10978 4.10979,9.92187 -9.92188,-4.10978 -4.10976,9.92188 -4.10979,-9.92187 -9.92187,4.10977 4.10977,-9.92188 -9.92187,-4.10977 9.92187,-4.10978 -4.10978,-9.92188 9.92188,4.10978 4.10976,-9.92187 z"
         sodipodi:nodetypes="ccccccccccccccccc" />
      <path
         id="path1"
         style="fill:#ffffff;fill-opacity:1;stroke-width:0.447338;stroke-linecap:square"
         inkscape:transform-center-x="-1.829392e-06"
         inkscape:transform-center-y="2.2800052e-06"
         d="m 205.5711,527.471 9.92188,-4.10977 -4.10979,9.92187 9.92188,4.10978 -9.92188,4.10978 4.10979,9.92187 -9.92188,-4.10978 -4.10976,9.92188 -4.10979,-9.92187 -9.92187,4.10977 4.10977,-9.92188 -9.92187,-4.10977 9.92187,-4.10978 -4.10978,-9.92188 9.92188,4.10978 4.10976,-9.92187 z"
         sodipodi:nodetypes="ccccccccccccccccc" />
      <path
         id="path4"
         style="fill:#ffffff;fill-opacity:1;stroke-width:0.447338;stroke-linecap:square"
         inkscape:transform-center-x="-1.829392e-06"
         inkscape:transform-center-y="2.2800052e-06"
         d="m 250.55026,587.00223 9.92188,-4.10977 -4.10979,9.92187 9.92188,4.10978 -9.92188,4.10978 4.10979,9.92187 -9.92188,-4.10978 -4.10976,9.92188 -4.10979,-9.92187 -9.92187,4.10977 4.10977,-9.92188 -9.92187,-4.10977 9.92187,-4.10978 -4.10978,-9.92188 9.92188,4.10978 4.10976,-9.92187 z"
         sodipodi:nodetypes="ccccccccccccccccc" />
      <path
         id="path5"
         style="fill:#ffffff;fill-opacity:1;stroke-width:0.447338;stroke-linecap:square"
         inkscape:transform-center-x="-1.829392e-06"
         inkscape:transform-center-y="2.2800052e-06"
         d="m 250.55026,467.93977 9.92188,-4.10977 -4.10979,9.92187 9.92188,4.10978 -9.92188,4.10978 4.10979,9.92187 -9.92188,-4.10978 -4.10976,9.92188 -4.10979,-9.92187 -9.92187,4.10977 4.10977,-9.92188 -9.92187,-4.10977 9.92187,-4.10978 -4.10978,-9.92188 9.92188,4.10978 4.10976,-9.92187 z"
         sodipodi:nodetypes="ccccccccccccccccc" />
      <path
         id="path6"
         style="fill:#ffffff;fill-opacity:1;stroke-width:0.447338;stroke-linecap:square"
         inkscape:transform-center-x="1.8293919e-06"
         inkscape:transform-center-y="2.2800052e-06"
         d="m 287.30986,527.471 -9.92188,-4.10977 4.10979,9.92187 -9.92188,4.10978 9.92188,4.10978 -4.10979,9.92187 9.92188,-4.10978 4.10976,9.92188 4.10979,-9.92187 9.92187,4.10977 -4.10977,-9.92188 9.92187,-4.10977 -9.92187,-4.10978 4.10978,-9.92188 -9.92188,4.10978 -4.10976,-9.92187 z"
         sodipodi:nodetypes="ccccccccccccccccc" />
      <path
         id="path8"
         style="fill:#ffffff;fill-opacity:1;stroke-width:0.447338;stroke-linecap:square"
         inkscape:transform-center-x="-1.829392e-06"
         inkscape:transform-center-y="2.2800052e-06"
         d="m 218.78279,489.35352 9.92188,-4.10977 -4.10979,9.92187 9.92188,4.10978 -9.92188,4.10978 4.10979,9.92187 -9.92188,-4.10978 -4.10976,9.92188 -4.10979,-9.92187 -9.92187,4.10977 4.10977,-9.92188 -9.92187,-4.10977 9.92187,-4.10978 -4.10978,-9.92188 9.92188,4.10978 4.10976,-9.92187 z"
         sodipodi:nodetypes="ccccccccccccccccc" />
      <path
         id="path9"
         style="fill:#ffffff;fill-opacity:1;stroke-width:0.447338;stroke-linecap:square"
         inkscape:transform-center-x="-2.9950818e-06"
         inkscape:transform-center-y="2.2800052e-06"
         d="m 274.09819,489.35352 -9.92188,-4.10977 4.10979,9.92187 -9.92188,4.10978 9.92188,4.10978 -4.10979,9.92187 9.92188,-4.10978 4.10976,9.92188 4.10979,-9.92187 9.92187,4.10977 -4.10977,-9.92188 9.92187,-4.10977 -9.92187,-4.10978 4.10978,-9.92188 -9.92188,4.10978 -4.10976,-9.92187 z"
         sodipodi:nodetypes="ccccccccccccccccc" />
      <path
         id="path10"
         style="fill:#ffffff;fill-opacity:1;stroke-width:0.447338;stroke-linecap:square"
         inkscape:transform-center-x="-1.829392e-06"
         inkscape:transform-center-y="-1.6570977e-06"
         d="m 218.78279,585.43224 9.92188,4.10977 -4.10979,-9.92187 9.92188,-4.10978 -9.92188,-4.10978 4.10979,-9.92187 -9.92188,4.10978 -4.10976,-9.92188 -4.10979,9.92187 -9.92187,-4.10977 4.10977,9.92188 -9.92187,4.10977 9.92187,4.10978 -4.10978,9.92188 9.92188,-4.10978 4.10976,9.92187 z"
         sodipodi:nodetypes="ccccccccccccccccc" />
      <path
         id="path11"
         style="fill:#ffffff;fill-opacity:1;stroke-width:0.447338;stroke-linecap:square"
         inkscape:transform-center-x="-2.9950818e-06"
         inkscape:transform-center-y="-1.6570977e-06"
         d="m 274.09819,585.43224 -9.92188,4.10977 4.10979,-9.92187 -9.92188,-4.10978 9.92188,-4.10978 -4.10979,-9.92187 9.92188,4.10978 4.10976,-9.92188 4.10979,9.92187 9.92187,-4.10977 -4.10977,9.92188 9.92187,4.10977 -9.92187,4.10978 4.10978,9.92188 -9.92188,-4.10978 -4.10976,9.92187 z"
         sodipodi:nodetypes="ccccccccccccccccc" />
    </g>
  </g>
</svg>
