<?xml version="1.0" encoding="UTF-8" standalone="no"?>
<!-- Created with Inkscape (http://www.inkscape.org/) -->

<svg
   width="1800"
   height="1800"
   viewBox="0 0 476.25 476.25001"
   version="1.1"
   id="svg8"
   inkscape:export-filename="C:\Users\厂永刄先生\Documents\GXI3CW2\,pjóŭ\Ghana.png"
   inkscape:export-xdpi="96"
   inkscape:export-ydpi="96"
   inkscape:version="1.3 (0e150ed6c4, 2023-07-21)"
   sodipodi:docname="co_1953_roundel-lv.svg"
   xmlns:inkscape="http://www.inkscape.org/namespaces/inkscape"
   xmlns:sodipodi="http://sodipodi.sourceforge.net/DTD/sodipodi-0.dtd"
   xmlns="http://www.w3.org/2000/svg"
   xmlns:svg="http://www.w3.org/2000/svg"
   xmlns:rdf="http://www.w3.org/1999/02/22-rdf-syntax-ns#"
   xmlns:cc="http://creativecommons.org/ns#"
   xmlns:dc="http://purl.org/dc/elements/1.1/">
  <defs
     id="defs2" />
  <sodipodi:namedview
     id="base"
     pagecolor="#ffffff"
     bordercolor="#666666"
     borderopacity="1.0"
     inkscape:pageopacity="0.0"
     inkscape:pageshadow="2"
     inkscape:zoom="0.21370339"
     inkscape:cx="1560.5742"
     inkscape:cy="783.79665"
     inkscape:document-units="px"
     inkscape:current-layer="layer1"
     showgrid="false"
     units="px"
     fit-margin-top="0"
     fit-margin-left="0"
     fit-margin-right="0"
     fit-margin-bottom="0"
     inkscape:showpageshadow="false"
     inkscape:snap-intersection-paths="true"
     inkscape:object-paths="false"
     inkscape:pagecheckerboard="true"
     inkscape:snap-smooth-nodes="false"
     inkscape:window-width="1920"
     inkscape:window-height="1009"
     inkscape:window-x="-8"
     inkscape:window-y="-8"
     inkscape:window-maximized="1"
     inkscape:object-nodes="true"
     inkscape:snap-nodes="true"
     inkscape:deskcolor="#505050" />
  <metadata
     id="metadata5">
    <rdf:RDF>
      <cc:Work
         rdf:about="">
        <dc:format>image/svg+xml</dc:format>
        <dc:type
           rdf:resource="http://purl.org/dc/dcmitype/StillImage" />
      </cc:Work>
    </rdf:RDF>
  </metadata>
  <g
     inkscape:label="レイヤー 1"
     inkscape:groupmode="layer"
     id="layer1"
     transform="translate(-450.51953,-126.03906)">
    <path
       id="path1"
       style="fill:#000000;stroke-width:0.0105475;stroke-linecap:round;stroke-linejoin:round;stroke-miterlimit:3.9"
       inkscape:transform-center-x="-2.0902838e-06"
       inkscape:transform-center-y="-39.687498"
       d="m 688.6449,304.63244 13.36623,41.13509 h 43.25135 l -34.99058,25.42279 13.36459,41.13517 -34.99141,-25.42198 -34.99178,25.42198 13.36482,-41.13517 -34.99081,-25.42279 h 43.25149 z"
       sodipodi:nodetypes="ccccccccccc" />
    <path
       style="color:#000000;fill:#000000;stroke-linecap:round;stroke-miterlimit:15.4;-inkscape-stroke:none"
       d="m 688.64453,126.03906 c -131.48447,0 -238.125,106.64053 -238.125,238.125 0,131.48448 106.64053,238.125 238.125,238.125 131.48448,0 238.125,-106.64052 238.125,-238.125 0,-131.48447 -106.64052,-238.125 -238.125,-238.125 z m 0,4.76172 c 128.91063,0 233.36328,104.45265 233.36328,233.36328 0,128.91063 -104.45265,233.36133 -233.36328,233.36133 -128.91063,0 -233.36133,-104.4507 -233.36133,-233.36133 0,-128.91063 104.4507,-233.36328 233.36133,-233.36328 z"
       id="path9" />
    <path
       style="color:#000000;fill:#000000;stroke-linecap:round;stroke-miterlimit:15.4;-inkscape-stroke:none"
       d="m 688.64453,204.22266 c -88.30447,0 -159.93945,71.63693 -159.93945,159.9414 0,88.30448 71.63498,159.93946 159.93945,159.93946 88.30447,0 159.94141,-71.63498 159.94141,-159.93946 0,-88.30447 -71.63694,-159.9414 -159.94141,-159.9414 z m 0,4.76367 c 85.73063,0 155.17774,69.4471 155.17774,155.17773 0,85.73063 -69.44711,155.17774 -155.17774,155.17774 -85.73063,0 -155.17773,-69.44711 -155.17773,-155.17774 0,-85.73063 69.4471,-155.17773 155.17773,-155.17773 z"
       id="circle9" />
    <path
       style="color:#000000;fill:#000000;stroke-linecap:round;stroke-miterlimit:15.4;-inkscape-stroke:none"
       d="M 724.7691,366.54492 H 924.38867 V 361.7832 H 731.32297 Z M 645.96804,361.7832 H 452.90039 v 4.76172 h 199.62153 z"
       id="path10"
       sodipodi:nodetypes="cccccccccc" />
    <path
       style="color:#000000;fill:#000000;stroke-linecap:round;stroke-miterlimit:15.4;-inkscape-stroke:none"
       d="m 691.02539,599.9082 v -78.18554 h -4.76172 v 78.18554 z"
       id="path11"
       sodipodi:nodetypes="ccccc" />
    <path
       style="color:#000000;fill:#000000;stroke-linecap:round;stroke-miterlimit:15.4;-inkscape-stroke:none"
       d="M 825.0957,283.00195 H 552.19531 v 4.76367 H 825.0957 Z"
       id="path13"
       sodipodi:nodetypes="ccccc" />
  </g>
</svg>
