<?xml version="1.0" encoding="UTF-8" standalone="no"?>
<!-- Created with Inkscape (http://www.inkscape.org/) -->

<svg
   width="2736"
   height="1800"
   viewBox="0 0 723.89999 476.25001"
   version="1.1"
   id="svg8"
   inkscape:export-filename="C:\Users\厂永刄先生\Documents\GXI3CW2\,pjóŭ\Colombie.png"
   inkscape:export-xdpi="96"
   inkscape:export-ydpi="96"
   inkscape:version="1.3 (0e150ed6c4, 2023-07-21)"
   sodipodi:docname="co_1953_air-force.svg"
   xmlns:inkscape="http://www.inkscape.org/namespaces/inkscape"
   xmlns:sodipodi="http://sodipodi.sourceforge.net/DTD/sodipodi-0.dtd"
   xmlns="http://www.w3.org/2000/svg"
   xmlns:svg="http://www.w3.org/2000/svg"
   xmlns:rdf="http://www.w3.org/1999/02/22-rdf-syntax-ns#"
   xmlns:cc="http://creativecommons.org/ns#"
   xmlns:dc="http://purl.org/dc/elements/1.1/">
  <defs
     id="defs2" />
  <sodipodi:namedview
     id="base"
     pagecolor="#ffffff"
     bordercolor="#666666"
     borderopacity="1.0"
     inkscape:pageopacity="0.0"
     inkscape:pageshadow="2"
     inkscape:zoom="0.42740676"
     inkscape:cx="1854.2056"
     inkscape:cy="642.24534"
     inkscape:document-units="px"
     inkscape:current-layer="layer1"
     showgrid="false"
     units="px"
     fit-margin-top="0"
     fit-margin-left="0"
     fit-margin-right="0"
     fit-margin-bottom="0"
     inkscape:showpageshadow="false"
     inkscape:snap-intersection-paths="false"
     inkscape:object-paths="false"
     inkscape:pagecheckerboard="true"
     inkscape:snap-smooth-nodes="true"
     inkscape:window-width="1920"
     inkscape:window-height="1009"
     inkscape:window-x="-8"
     inkscape:window-y="-8"
     inkscape:window-maximized="1"
     inkscape:object-nodes="true"
     inkscape:deskcolor="#505050" />
  <metadata
     id="metadata5">
    <rdf:RDF>
      <cc:Work
         rdf:about="">
        <dc:format>image/svg+xml</dc:format>
        <dc:type
           rdf:resource="http://purl.org/dc/dcmitype/StillImage" />
      </cc:Work>
    </rdf:RDF>
  </metadata>
  <g
     inkscape:label="レイヤー 1"
     inkscape:groupmode="layer"
     id="layer1"
     transform="translate(112.33452,-299.26786)">
    <path
       sodipodi:nodetypes="ccccczzzzz"
       inkscape:connector-curvature="0"
       id="path820"
       d="m 611.56548,775.51786 v -476.25 h -357.1875 v 476.25 z M 313.90923,537.39285 c 0,-65.75639 53.3061,-119.06249 119.0625,-119.06249 65.7564,0 119.0625,53.3061 119.0625,119.06249 0,65.7564 -53.3061,119.06251 -119.0625,119.06251 -65.7564,0 -119.0625,-53.30611 -119.0625,-119.06251 z"
       style="fill:#57c7ff;fill-opacity:1;stroke:none;stroke-width:2.14901px;stroke-linecap:butt;stroke-linejoin:miter;stroke-opacity:1" />
    <path
       style="fill:#ffffff;fill-opacity:1;stroke:none;stroke-width:0.511668px;stroke-linecap:butt;stroke-linejoin:miter;stroke-opacity:1"
       d="m -102.80952,299.26786 h -9.525 v 476.25 h 9.525 z"
       id="path819"
       inkscape:connector-curvature="0"
       sodipodi:nodetypes="ccccc" />
    <path
       style="fill:#57c7ff;fill-opacity:1;stroke:none;stroke-width:1.31599px;stroke-linecap:butt;stroke-linejoin:miter;stroke-opacity:1"
       d="m -102.80952,775.51786 v -238.125 h 357.1875 v 238.125 z"
       id="path822"
       inkscape:connector-curvature="0"
       sodipodi:nodetypes="ccccc" />
    <path
       sodipodi:nodetypes="ccccc"
       inkscape:connector-curvature="0"
       id="path821"
       d="m -102.80952,477.86161 v -59.53125 h 357.1875 v 59.53125 z"
       style="fill:#002aa8;fill-opacity:1;stroke:none;stroke-width:0.657995px;stroke-linecap:butt;stroke-linejoin:miter;stroke-opacity:1" />
    <path
       sodipodi:nodetypes="ccccc"
       inkscape:connector-curvature="0"
       id="path1"
       d="m -102.80952,418.33036 v -119.0625 h 357.1875 v 119.0625 z"
       style="fill:#ffc000;fill-opacity:1;stroke:none;stroke-width:1.0745px;stroke-linecap:butt;stroke-linejoin:miter;stroke-opacity:1" />
    <path
       style="fill:#ff0000;fill-opacity:1;stroke:none;stroke-width:0.657995px;stroke-linecap:butt;stroke-linejoin:miter;stroke-opacity:1"
       d="m -102.80952,537.39286 v -59.53125 h 357.1875 v 59.53125 z"
       id="path2"
       inkscape:connector-curvature="0"
       sodipodi:nodetypes="ccccc" />
    <path
       id="path4"
       style="fill:#002aa8;fill-opacity:1;stroke-width:6.51175;stroke-linecap:round;stroke-linejoin:round;stroke-miterlimit:155;paint-order:stroke fill markers"
       d="m 432.97173,656.45536 c -65.7564,0 -119.0625,-53.30611 -119.0625,-119.0625 l 39.6875,10e-6 c 0,43.83759 35.5374,79.37499 79.375,79.37499 z"
       sodipodi:nodetypes="ccccc" />
    <path
       id="path2-8"
       style="fill:#002aa8;fill-opacity:1;stroke-width:4.34117;stroke-linecap:round;stroke-linejoin:round;stroke-miterlimit:155;paint-order:stroke fill markers"
       d="m 353.59673,537.39287 c 0,-14.46279 3.88725,-28.00968 10.64534,-39.6875 h 137.45931 c 6.7581,11.67782 10.64534,25.22471 10.64534,39.6875 z" />
    <path
       id="path5"
       style="fill:#ffc000;fill-opacity:1;stroke-width:4.34117;stroke-linecap:round;stroke-linejoin:round;stroke-miterlimit:155;paint-order:stroke fill markers"
       d="m 353.59673,537.39287 c 0,43.83759 35.5374,79.37499 79.375,79.37499 43.83759,0 79.37499,-35.5374 79.37499,-79.37499 z"
       sodipodi:nodetypes="czcc" />
    <path
       id="path7"
       style="fill:#ff0000;fill-opacity:1;stroke-width:4.34117;stroke-linecap:round;stroke-linejoin:round;stroke-miterlimit:155;paint-order:stroke fill markers"
       d="m 364.24207,497.70537 c 13.72608,-23.71832 39.3549,-39.68751 68.72966,-39.68751 29.37475,0 55.00357,15.96919 68.72965,39.68751 z"
       sodipodi:nodetypes="cscc" />
    <path
       id="path1-9"
       style="fill:#ffffff;stroke-width:0.00527375;stroke-linecap:round;stroke-linejoin:round;stroke-miterlimit:3.9"
       inkscape:transform-center-x="1.8824899e-06"
       inkscape:transform-center-y="-19.843746"
       d="m 432.97173,507.62724 6.68311,20.56754 h 21.62567 l -17.49528,12.7114 6.68229,20.56758 -17.4957,-12.71099 -17.49589,12.71099 6.68241,-20.56758 -17.49541,-12.7114 h 21.62575 z"
       sodipodi:nodetypes="ccccccccccc" />
    <path
       id="path6"
       style="fill:#ffc000;fill-opacity:1;stroke-width:4.34117;stroke-linecap:round;stroke-linejoin:round;stroke-miterlimit:155;paint-order:stroke fill markers"
       d="m 512.34672,537.39287 c 0,-43.8376 -35.5374,-79.375 -79.37499,-79.375 -43.8376,0 -79.375,35.5374 -79.375,79.375 l -39.6875,-10e-6 c 0,-65.7564 53.3061,-119.0625 119.0625,-119.0625 65.75639,0 119.06249,53.3061 119.06249,119.0625 z"
       sodipodi:nodetypes="czcczcc" />
    <path
       id="path8"
       style="fill:#ff0000;fill-opacity:1;stroke-width:4.34117;stroke-linecap:round;stroke-linejoin:round;stroke-miterlimit:155;paint-order:stroke fill markers"
       d="m 432.97173,616.76786 c 43.83759,0 79.37499,-35.5374 79.37499,-79.37499 l 39.6875,-10e-6 c 0,65.75639 -53.3061,119.0625 -119.06249,119.0625 z"
       sodipodi:nodetypes="ccccc" />
  </g>
</svg>
