<?xml version="1.0" encoding="UTF-8" standalone="no"?>
<!-- Created with Inkscape (http://www.inkscape.org/) -->

<svg
   width="1800"
   height="1800"
   viewBox="0 0 476.25 476.25001"
   version="1.1"
   id="svg8"
   inkscape:export-filename="C:\Users\厂永刄先生\Documents\GXI3CW2\,pjóŭ\Ghana.png"
   inkscape:export-xdpi="96"
   inkscape:export-ydpi="96"
   inkscape:version="1.3 (0e150ed6c4, 2023-07-21)"
   sodipodi:docname="co_1953_roundel.svg"
   xmlns:inkscape="http://www.inkscape.org/namespaces/inkscape"
   xmlns:sodipodi="http://sodipodi.sourceforge.net/DTD/sodipodi-0.dtd"
   xmlns="http://www.w3.org/2000/svg"
   xmlns:svg="http://www.w3.org/2000/svg"
   xmlns:rdf="http://www.w3.org/1999/02/22-rdf-syntax-ns#"
   xmlns:cc="http://creativecommons.org/ns#"
   xmlns:dc="http://purl.org/dc/elements/1.1/">
  <defs
     id="defs2" />
  <sodipodi:namedview
     id="base"
     pagecolor="#ffffff"
     bordercolor="#666666"
     borderopacity="1.0"
     inkscape:pageopacity="0.0"
     inkscape:pageshadow="2"
     inkscape:zoom="0.30222223"
     inkscape:cx="928.12498"
     inkscape:cy="1070.4044"
     inkscape:document-units="px"
     inkscape:current-layer="layer1"
     showgrid="false"
     units="px"
     fit-margin-top="0"
     fit-margin-left="0"
     fit-margin-right="0"
     fit-margin-bottom="0"
     inkscape:showpageshadow="false"
     inkscape:snap-intersection-paths="true"
     inkscape:object-paths="false"
     inkscape:pagecheckerboard="true"
     inkscape:snap-smooth-nodes="false"
     inkscape:window-width="1920"
     inkscape:window-height="1009"
     inkscape:window-x="-8"
     inkscape:window-y="-8"
     inkscape:window-maximized="1"
     inkscape:object-nodes="true"
     inkscape:snap-nodes="true"
     inkscape:deskcolor="#505050" />
  <metadata
     id="metadata5">
    <rdf:RDF>
      <cc:Work
         rdf:about="">
        <dc:format>image/svg+xml</dc:format>
        <dc:type
           rdf:resource="http://purl.org/dc/dcmitype/StillImage" />
      </cc:Work>
    </rdf:RDF>
  </metadata>
  <g
     inkscape:label="レイヤー 1"
     inkscape:groupmode="layer"
     id="layer1"
     transform="translate(-444.87799,-608.83038)">
    <path
       id="path4"
       style="fill:#002aa8;fill-opacity:1;stroke-width:13.0235;stroke-linecap:round;stroke-linejoin:round;stroke-miterlimit:155;paint-order:stroke fill markers"
       d="m 683.00299,1085.0804 c -131.5128,0 -238.125,-106.61222 -238.125,-238.12502 l 79.375,2e-5 c 0,87.6752 71.0748,158.75 158.75,158.75 z"
       sodipodi:nodetypes="ccccc" />
    <path
       id="path2"
       style="fill:#002aa8;fill-opacity:1;stroke-width:8.68233;stroke-linecap:round;stroke-linejoin:round;stroke-miterlimit:155;paint-order:stroke fill markers"
       d="m 524.25299,846.95541 c 0,-28.92559 7.7745,-56.01936 21.29069,-79.375 H 820.4623 c 13.5162,23.35564 21.29069,50.44941 21.29069,79.375 z" />
    <path
       id="path5"
       style="fill:#ffc000;fill-opacity:1;stroke-width:8.68233;stroke-linecap:round;stroke-linejoin:round;stroke-miterlimit:155;paint-order:stroke fill markers"
       d="m 524.25299,846.9554 c 0,87.6752 71.0748,158.75 158.75,158.75 87.67519,0 158.74999,-71.0748 158.74999,-158.75 z"
       sodipodi:nodetypes="czcc" />
    <path
       id="path7"
       style="fill:#ff0000;fill-opacity:1;stroke-width:8.68233;stroke-linecap:round;stroke-linejoin:round;stroke-miterlimit:155;paint-order:stroke fill markers"
       d="m 545.54368,767.58041 c 27.45216,-47.43664 78.70979,-79.37502 137.45931,-79.37502 58.74952,0 110.00716,31.93838 137.45931,79.37502 z"
       sodipodi:nodetypes="cscc" />
    <path
       id="path1"
       style="fill:#ffffff;stroke-width:0.0105475;stroke-linecap:round;stroke-linejoin:round;stroke-miterlimit:3.9"
       inkscape:transform-center-x="-2.0902838e-06"
       inkscape:transform-center-y="-39.687498"
       d="m 683.00299,787.42414 13.36623,41.13509 h 43.25135 l -34.99058,25.42279 13.36459,41.13517 -34.99141,-25.42198 -34.99178,25.42198 13.36482,-41.13517 -34.99081,-25.42279 h 43.25149 z"
       sodipodi:nodetypes="ccccccccccc" />
    <path
       id="path6"
       style="fill:#ffc000;fill-opacity:1;stroke-width:8.68233;stroke-linecap:round;stroke-linejoin:round;stroke-miterlimit:155;paint-order:stroke fill markers"
       d="m 841.75298,846.95541 c 0,-87.6752 -71.0748,-158.75 -158.74999,-158.75 -87.6752,0 -158.75,71.0748 -158.75,158.75 l -79.375,-3e-5 c 0,-131.5128 106.6122,-238.125 238.125,-238.125 131.5128,0 238.125,106.6122 238.125,238.125 z"
       sodipodi:nodetypes="czcczcc" />
    <path
       id="path8"
       style="fill:#ff0000;fill-opacity:1;stroke-width:8.68233;stroke-linecap:round;stroke-linejoin:round;stroke-miterlimit:155;paint-order:stroke fill markers"
       d="m 683.00299,1005.7054 c 87.67519,0 158.74999,-71.0748 158.74999,-158.75 l 79.37501,-2e-5 c 0,131.5128 -106.6122,238.12502 -238.125,238.12502 z"
       sodipodi:nodetypes="ccccc" />
  </g>
</svg>
