<?xml version="1.0" encoding="UTF-8" standalone="no"?>
<!-- Created with Inkscape (http://www.inkscape.org/) -->

<svg
   width="2676"
   height="1800"
   viewBox="0 0 708.02499 476.25001"
   version="1.1"
   id="svg8"
   inkscape:export-filename="C:\Users\厂永刄先生\Documents\GXI3CW2\,pjóŭ\Colombie.png"
   inkscape:export-xdpi="96"
   inkscape:export-ydpi="96"
   inkscape:version="1.3 (0e150ed6c4, 2023-07-21)"
   sodipodi:docname="KU1LENPI2JA2 - Copie.svg"
   xmlns:inkscape="http://www.inkscape.org/namespaces/inkscape"
   xmlns:sodipodi="http://sodipodi.sourceforge.net/DTD/sodipodi-0.dtd"
   xmlns="http://www.w3.org/2000/svg"
   xmlns:svg="http://www.w3.org/2000/svg"
   xmlns:rdf="http://www.w3.org/1999/02/22-rdf-syntax-ns#"
   xmlns:cc="http://creativecommons.org/ns#"
   xmlns:dc="http://purl.org/dc/elements/1.1/">
  <defs
     id="defs2" />
  <sodipodi:namedview
     id="base"
     pagecolor="#ffffff"
     bordercolor="#666666"
     borderopacity="1.0"
     inkscape:pageopacity="0.0"
     inkscape:pageshadow="2"
     inkscape:zoom="0.30222222"
     inkscape:cx="459.92647"
     inkscape:cy="1184.5588"
     inkscape:document-units="px"
     inkscape:current-layer="layer1"
     showgrid="false"
     units="px"
     fit-margin-top="0"
     fit-margin-left="0"
     fit-margin-right="0"
     fit-margin-bottom="0"
     inkscape:showpageshadow="false"
     inkscape:snap-intersection-paths="false"
     inkscape:object-paths="false"
     inkscape:pagecheckerboard="true"
     inkscape:snap-smooth-nodes="true"
     inkscape:window-width="1920"
     inkscape:window-height="1009"
     inkscape:window-x="-8"
     inkscape:window-y="-8"
     inkscape:window-maximized="1"
     inkscape:object-nodes="true"
     inkscape:deskcolor="#505050" />
  <metadata
     id="metadata5">
    <rdf:RDF>
      <cc:Work
         rdf:about="">
        <dc:format>image/svg+xml</dc:format>
        <dc:type
           rdf:resource="http://purl.org/dc/dcmitype/StillImage" />
      </cc:Work>
    </rdf:RDF>
  </metadata>
  <g
     inkscape:label="レイヤー 1"
     inkscape:groupmode="layer"
     id="layer1"
     transform="translate(112.33452,-299.26786)">
    <path
       sodipodi:nodetypes="ccccczcc"
       inkscape:connector-curvature="0"
       id="path820"
       d="m 595.69048,537.39286 v -238.125 h -698.5 v 238.125 l 309.5625,2e-5 c 0,-32.8782 17.7687,-59.53125 39.6875,-59.53125 21.9188,0 39.6875,26.65305 39.6875,59.53125 z"
       style="fill:#ffcd00;fill-opacity:1;stroke:none;stroke-width:2.12499px;stroke-linecap:butt;stroke-linejoin:miter;stroke-opacity:1" />
    <path
       style="fill:#ffffff;fill-opacity:1;stroke:none;stroke-width:0.51166773px;stroke-linecap:butt;stroke-linejoin:miter;stroke-opacity:1"
       d="m -102.80952,299.26786 h -9.525 v 476.25 h 9.525 z"
       id="path819"
       inkscape:connector-curvature="0"
       sodipodi:nodetypes="ccccc" />
    <path
       style="fill:#c8102e;fill-opacity:1;stroke:none;stroke-width:1.30128789px;stroke-linecap:butt;stroke-linejoin:miter;stroke-opacity:1"
       d="m -102.80952,775.51786 v -119.0625 h 698.5 v 119.0625 z"
       id="path822"
       inkscape:connector-curvature="0"
       sodipodi:nodetypes="ccccc" />
    <path
       sodipodi:nodetypes="cccccscc"
       inkscape:connector-curvature="0"
       id="path821"
       d="m 595.69048,537.39286 v 119.0625 h -698.5 v -119.0625 l 309.5625,2e-5 c 0,32.8782 17.7687,59.53125 39.6875,59.53125 21.9188,0 39.6875,-26.65305 39.6875,-59.53125 z"
       style="fill:#003087;fill-opacity:1;stroke:none;stroke-width:1.30129px;stroke-linecap:butt;stroke-linejoin:miter;stroke-opacity:1" />
    <path
       id="ellipse1"
       style="fill:#c8102e;stroke-width:1.01539;stroke-linecap:square;fill-opacity:1"
       d="m 218.65923,537.39288 c 0,26.30256 12.43809,47.625 27.78125,47.625 15.34316,0 27.78125,-21.32244 27.78125,-47.625 0,-26.30256 -12.43809,-47.625 -27.78125,-47.625 -15.34316,0 -27.78125,21.32244 -27.78125,47.625 z m 67.46875,0 c 0,32.8782 -17.7687,59.53125 -39.6875,59.53125 -21.9188,0 -39.6875,-26.65305 -39.6875,-59.53125 0,-32.8782 17.7687,-59.53125 39.6875,-59.53125 21.9188,0 39.6875,26.65305 39.6875,59.53125 z"
       sodipodi:nodetypes="ssszsssszs" />
    <path
       id="path2"
       style="fill:#003087;stroke-width:0.447338;stroke-linecap:square;fill-opacity:1"
       inkscape:transform-center-x="-1.829392e-06"
       inkscape:transform-center-y="2.2800052e-06"
       d="m 250.55026,527.471 9.92188,-4.10977 -4.10979,9.92187 9.92188,4.10978 -9.92188,4.10978 4.10979,9.92187 -9.92188,-4.10978 -4.10976,9.92188 -4.10979,-9.92187 -9.92187,4.10977 4.10977,-9.92188 -9.92187,-4.10977 9.92187,-4.10978 -4.10978,-9.92188 9.92188,4.10978 4.10976,-9.92187 z m -31.89103,9.92188 c 0,26.30256 12.43809,47.625 27.78125,47.625 15.34316,0 27.78125,-21.32244 27.78125,-47.625 0,-26.30256 -12.43809,-47.625 -27.78125,-47.625 -15.34316,0 -27.78125,21.32244 -27.78125,47.625 z"
       sodipodi:nodetypes="cccccccccccccccccssszs" />
    <path
       id="path3"
       style="fill:#ffffff;fill-opacity:1;stroke-width:0.447338;stroke-linecap:square"
       inkscape:transform-center-x="-1.829392e-06"
       inkscape:transform-center-y="2.2800052e-06"
       d="m 250.55026,527.471 9.92188,-4.10977 -4.10979,9.92187 9.92188,4.10978 -9.92188,4.10978 4.10979,9.92187 -9.92188,-4.10978 -4.10976,9.92188 -4.10979,-9.92187 -9.92187,4.10977 4.10977,-9.92188 -9.92187,-4.10977 9.92187,-4.10978 -4.10978,-9.92188 9.92188,4.10978 4.10976,-9.92187 z"
       sodipodi:nodetypes="ccccccccccccccccc" />
  </g>
</svg>
