<?xml version="1.0" encoding="UTF-8" standalone="no"?>
<!-- Created with Inkscape (http://www.inkscape.org/) -->

<svg
   xmlns:dc="http://purl.org/dc/elements/1.1/"
   xmlns:cc="http://creativecommons.org/ns#"
   xmlns:rdf="http://www.w3.org/1999/02/22-rdf-syntax-ns#"
   xmlns:svg="http://www.w3.org/2000/svg"
   xmlns="http://www.w3.org/2000/svg"
   xmlns:sodipodi="http://sodipodi.sourceforge.net/DTD/sodipodi-0.dtd"
   xmlns:inkscape="http://www.inkscape.org/namespaces/inkscape"
   width="3636"
   height="1800"
   viewBox="0 0 962.025 476.25001"
   version="1.1"
   id="svg8"
   inkscape:export-filename="C:\Users\厂永刄先生\Documents\GXI3CW2\JáÈŭcèŭ\Èŭmen\Í\意軍.png"
   inkscape:export-xdpi="96"
   inkscape:export-ydpi="96"
   inkscape:version="0.92.4 (5da689c313, 2019-01-14)"
   sodipodi:docname="CIN1PO1PU2UXE3.svg">
  <defs
     id="defs2" />
  <sodipodi:namedview
     id="base"
     pagecolor="#ffffff"
     bordercolor="#666666"
     borderopacity="1.0"
     inkscape:pageopacity="0.0"
     inkscape:pageshadow="2"
     inkscape:zoom="0.20180041"
     inkscape:cx="1425.8955"
     inkscape:cy="900.00001"
     inkscape:document-units="px"
     inkscape:current-layer="layer1"
     showgrid="false"
     units="px"
     fit-margin-top="0"
     fit-margin-left="0"
     fit-margin-right="0"
     fit-margin-bottom="0"
     inkscape:showpageshadow="false"
     inkscape:snap-intersection-paths="true"
     inkscape:object-paths="false"
     inkscape:pagecheckerboard="true"
     inkscape:snap-smooth-nodes="false"
     inkscape:window-width="1366"
     inkscape:window-height="745"
     inkscape:window-x="-8"
     inkscape:window-y="-8"
     inkscape:window-maximized="1"
     inkscape:object-nodes="true"
     inkscape:snap-nodes="true" />
  <metadata
     id="metadata5">
    <rdf:RDF>
      <cc:Work
         rdf:about="">
        <dc:format>image/svg+xml</dc:format>
        <dc:type
           rdf:resource="http://purl.org/dc/dcmitype/StillImage" />
        <dc:title />
      </cc:Work>
    </rdf:RDF>
  </metadata>
  <g
     inkscape:label="レイヤー 1"
     inkscape:groupmode="layer"
     id="layer1"
     transform="translate(-6.7279798,-418.33036)">
    <path
       style="fill:#ffffff;fill-opacity:1;stroke:none;stroke-width:0.51166773px;stroke-linecap:butt;stroke-linejoin:miter;stroke-opacity:1"
       d="M 16.25298,418.33036 H 6.7279798 v 476.25 H 16.25298 Z"
       id="path1079"
       inkscape:connector-curvature="0"
       sodipodi:nodetypes="ccccc" />
    <path
       sodipodi:nodetypes="ccccc"
       inkscape:connector-curvature="0"
       id="path884"
       d="m 16.25298,894.58036 h 952.50001 v -68.03571 l -861.78796,-1e-5 z"
       style="fill:#18c000;fill-opacity:1;stroke:none;stroke-width:0.80901772px;stroke-linecap:butt;stroke-linejoin:miter;stroke-opacity:1" />
    <path
       style="fill:#18c000;fill-opacity:1;stroke:none;stroke-width:0.80901772px;stroke-linecap:butt;stroke-linejoin:miter;stroke-opacity:1"
       d="m 106.965,486.36608 861.78799,2e-5 V 418.33038 H 16.25298 Z"
       id="path817"
       inkscape:connector-curvature="0"
       sodipodi:nodetypes="ccccc" />
    <path
       sodipodi:nodetypes="ccccc"
       inkscape:connector-curvature="0"
       id="path819"
       d="m 106.965,486.36608 h 861.78799 v 68.03571 H 197.67703 Z"
       style="fill:#ffc000;fill-opacity:1;stroke:none;stroke-width:0.80901772px;stroke-linecap:butt;stroke-linejoin:miter;stroke-opacity:1" />
    <path
       style="fill:#ff0000;fill-opacity:1;stroke:none;stroke-width:0.80901772px;stroke-linecap:butt;stroke-linejoin:miter;stroke-opacity:1"
       d="m 197.67704,758.50894 771.07595,0 V 690.47323 H 288.38908 Z"
       id="path823"
       inkscape:connector-curvature="0"
       sodipodi:nodetypes="ccccc" />
    <path
       sodipodi:nodetypes="ccccc"
       inkscape:connector-curvature="0"
       id="path825"
       d="m 197.67703,554.40179 h 771.07596 v 68.03572 l -680.3639,10e-6 z"
       style="fill:#ff0000;fill-opacity:1;stroke:none;stroke-width:0.80901772px;stroke-linecap:butt;stroke-linejoin:miter;stroke-opacity:1" />
    <path
       style="fill:#000000;fill-opacity:1;stroke:none;stroke-width:0.80901772px;stroke-linecap:butt;stroke-linejoin:miter;stroke-opacity:1"
       d="m 288.38908,690.47323 h 680.36391 v -68.03571 h -680.3639 l 45.35601,34.01785 z"
       id="path827"
       inkscape:connector-curvature="0"
       sodipodi:nodetypes="cccccc" />
    <path
       sodipodi:nodetypes="ccccc"
       inkscape:connector-curvature="0"
       id="path829"
       d="m 106.96503,826.54464 861.78796,0 v -68.03571 l -771.07595,1e-5 z"
       style="fill:#ffc000;fill-opacity:1;stroke:none;stroke-width:0.80901772px;stroke-linecap:butt;stroke-linejoin:miter;stroke-opacity:1" />
    <path
       style="opacity:1;fill:#ffffff;fill-opacity:1;fill-rule:evenodd;stroke:none;stroke-width:0.16566186;stroke-linecap:round;stroke-linejoin:round;stroke-miterlimit:4;stroke-dasharray:none;stroke-dashoffset:0;stroke-opacity:1"
       inkscape:transform-center-x="2.4209948e-06"
       inkscape:transform-center-y="-9.8762341"
       d="m 158.53598,614.52767 h 75.14291 l -60.7919,44.1679 23.22044,71.46515 -60.79189,-44.1679 -60.791899,44.1679 23.220442,-71.46516 -60.791895,-44.1679 H 112.0951 l 23.22044,-71.46515 z M 16.25298,432.51115 V 880.39959 L 314.85417,656.45537 Z"
       id="path847"
       inkscape:connector-curvature="0"
       sodipodi:nodetypes="ccccccccccccccc" />
    <path
       sodipodi:nodetypes="ccccccccccc"
       inkscape:connector-curvature="0"
       id="path854"
       d="m 158.53598,614.52767 h 75.14291 l -60.7919,44.1679 23.22044,71.46515 -60.79189,-44.1679 -60.791899,44.1679 23.220442,-71.46516 -60.791895,-44.1679 H 112.0951 l 23.22044,-71.46515 z"
       inkscape:transform-center-y="-9.8762341"
       inkscape:transform-center-x="2.4209948e-06"
       style="opacity:1;fill:#ff0000;fill-opacity:1;fill-rule:evenodd;stroke:none;stroke-width:0.16566186;stroke-linecap:round;stroke-linejoin:round;stroke-miterlimit:4;stroke-dasharray:none;stroke-dashoffset:0;stroke-opacity:1" />
    <path
       style="fill:#000000;stroke:none;stroke-width:0.26458335px;stroke-linecap:butt;stroke-linejoin:miter;stroke-opacity:1;fill-opacity:1"
       d="m 16.25298,418.33038 v 14.18077 L 314.85417,656.45537 16.25298,880.39959 v 14.18077 L 333.7451,656.45537 Z"
       id="path841"
       inkscape:connector-curvature="0"
       sodipodi:nodetypes="ccccccc" />
    <g
       id="g866"
       style="fill:#ffc000;fill-opacity:1;stroke:#000000;stroke-width:2.3812499;stroke-linecap:round;stroke-linejoin:round;stroke-miterlimit:4;stroke-dasharray:none;stroke-opacity:1"
       transform="translate(259.39298,1.3959001)">
      <path
         sodipodi:nodetypes="ssscscsaacccccs"
         inkscape:connector-curvature="0"
         id="path826"
         d="m -149.35617,564.40705 c -4.2667,-3.61245 -10.5957,-4.96091 -16.1648,-4.47109 -5.56791,0.48971 -11.29971,3.1546 -15.13291,7.22254 -2.7155,2.88192 -4.47111,11.00578 -4.47111,11.00578 0,0 -7.9413,2.29773 -10.6618,5.15895 -2.2302,2.34553 -3.7833,8.9422 -3.7833,8.9422 0,0 10.0582,-2.3975 14.1012,0 8.42861,4.9982 12.42551,16.13995 14.10111,25.79479 2.63961,15.20913 -7.5809,30.31044 -7.2225,45.74276 0.3696,15.91423 9.63,46.77455 9.63,46.77455 h 95.61269 l 15.820791,-62.25142 8.942197,-1.71966 -84.606868,-47.46241 c 0,0 -6.4177,-26.4846 -16.1647,-34.73699 z"
         style="fill:#ffc000;fill-opacity:1;stroke:#000000;stroke-width:2.3812499;stroke-linecap:round;stroke-linejoin:round;stroke-miterlimit:4;stroke-dasharray:none;stroke-opacity:1" />
      <path
         sodipodi:nodetypes="cc"
         inkscape:connector-curvature="0"
         id="path830"
         d="M -65.437195,679.45182 H -176.63044"
         style="fill:#ffc000;fill-opacity:1;stroke:#000000;stroke-width:2.3812499;stroke-linecap:round;stroke-linejoin:round;stroke-miterlimit:4;stroke-dasharray:none;stroke-opacity:1" />
      <path
         style="fill:#ffc000;fill-opacity:1;stroke:#000000;stroke-width:2.3812499;stroke-linecap:round;stroke-linejoin:round;stroke-miterlimit:4;stroke-dasharray:none;stroke-opacity:1"
         d="m -69.392392,695.01467 -85.610418,10e-6"
         id="path832"
         inkscape:connector-curvature="0"
         sodipodi:nodetypes="cc" />
      <path
         id="path834"
         transform="matrix(0.26458334,0,0,0.26458334,6.7279798,418.33036)"
         d="m -563.51953,986.91602 c -14.90154,0 -23.11018,23.52738 -38.01172,23.52738 -5.75925,0 -10.51618,-3.5217 -15.04883,-7.834 l 4.85547,39.4043 c 3.11616,2.2307 6.44269,3.7226 10.19336,3.7226 14.90154,0 23.11018,-23.5293 38.01172,-23.5293 14.90154,0 23.11017,23.5293 38.01172,23.5293 14.90154,0 23.11213,-23.5293 38.01367,-23.5293 14.90154,0 23.11017,23.5293 38.01172,23.5293 14.90154,0 23.11017,-23.5293 38.01172,-23.5293 14.90154,0 23.11212,23.5293 38.01367,23.5293 14.90155,0 23.11017,-23.5293 38.01172,-23.5293 14.90155,0 23.11017,23.5293 38.01172,23.5293 3.99368,0 7.50496,-1.6978 10.79492,-4.1718 l 11.80859,-46.46489 c -7.05688,6.79409 -13.61412,15.34379 -22.60351,15.34379 -14.90155,0 -23.11017,-23.52738 -38.01172,-23.52738 -14.90155,0 -23.11017,23.52738 -38.01172,23.52738 -14.90155,0 -23.11213,-23.52738 -38.01367,-23.52738 -14.90155,0 -23.11018,23.52738 -38.01172,23.52738 -14.90155,0 -23.11018,-23.52738 -38.01172,-23.52738 -14.90154,0 -23.11213,23.52738 -38.01367,23.52738 -14.90155,0 -23.11018,-23.52738 -38.01172,-23.52738 z"
         style="fill:#ffc000;fill-opacity:1;stroke:#000000;stroke-width:9;stroke-linecap:round;stroke-linejoin:round;stroke-miterlimit:4;stroke-dasharray:none;stroke-opacity:1"
         inkscape:connector-curvature="0" />
      <path
         style="fill:#ffc000;fill-opacity:1;stroke:#000000;stroke-width:2.3812499;stroke-linecap:round;stroke-linejoin:round;stroke-miterlimit:4;stroke-dasharray:none;stroke-opacity:1"
         d="m -156.92035,679.45182 3.83508,31.12571"
         id="path855"
         inkscape:connector-curvature="0"
         sodipodi:nodetypes="cc" />
      <path
         inkscape:connector-curvature="0"
         id="path858"
         d="m -170.93169,623.28531 37.74022,-24.14127"
         style="fill:#ffc000;fill-opacity:1;stroke:#000000;stroke-width:2.3812499;stroke-linecap:round;stroke-linejoin:round;stroke-miterlimit:4;stroke-dasharray:none;stroke-opacity:1" />
    </g>
  </g>
</svg>
