<?xml version="1.0" encoding="UTF-8" standalone="no"?>
<!-- Created with Inkscape (http://www.inkscape.org/) -->

<svg
   width="2772"
   height="1872"
   viewBox="0 0 733.425 495.30001"
   version="1.1"
   id="svg8"
   inkscape:export-filename="C:\Users\厂永刄先生\Documents\GXI3CW2\JáÈŭcèŭ\Èŭmen\Í\意軍.png"
   inkscape:export-xdpi="96"
   inkscape:export-ydpi="96"
   inkscape:version="1.3 (0e150ed6c4, 2023-07-21)"
   sodipodi:docname="sg_1959_const.svg"
   xmlns:inkscape="http://www.inkscape.org/namespaces/inkscape"
   xmlns:sodipodi="http://sodipodi.sourceforge.net/DTD/sodipodi-0.dtd"
   xmlns="http://www.w3.org/2000/svg"
   xmlns:svg="http://www.w3.org/2000/svg"
   xmlns:rdf="http://www.w3.org/1999/02/22-rdf-syntax-ns#"
   xmlns:cc="http://creativecommons.org/ns#"
   xmlns:dc="http://purl.org/dc/elements/1.1/">
  <defs
     id="defs2" />
  <sodipodi:namedview
     id="base"
     pagecolor="#ffffff"
     bordercolor="#666666"
     borderopacity="1.0"
     inkscape:pageopacity="0.0"
     inkscape:pageshadow="2"
     inkscape:zoom="0.30222223"
     inkscape:cx="1070.4044"
     inkscape:cy="822.24263"
     inkscape:document-units="px"
     inkscape:current-layer="g832"
     showgrid="false"
     units="px"
     fit-margin-top="0"
     fit-margin-left="0"
     fit-margin-right="0"
     fit-margin-bottom="0"
     inkscape:showpageshadow="false"
     inkscape:snap-intersection-paths="true"
     inkscape:object-paths="false"
     inkscape:pagecheckerboard="true"
     inkscape:snap-smooth-nodes="false"
     inkscape:window-width="1920"
     inkscape:window-height="1009"
     inkscape:window-x="-8"
     inkscape:window-y="-8"
     inkscape:window-maximized="1"
     inkscape:object-nodes="true"
     inkscape:snap-nodes="true"
     inkscape:deskcolor="#505050"
     showguides="false" />
  <metadata
     id="metadata5">
    <rdf:RDF>
      <cc:Work
         rdf:about="">
        <dc:format>image/svg+xml</dc:format>
        <dc:type
           rdf:resource="http://purl.org/dc/dcmitype/StillImage" />
      </cc:Work>
    </rdf:RDF>
  </metadata>
  <g
     inkscape:label="レイヤー 1"
     inkscape:groupmode="layer"
     id="layer1"
     transform="translate(112.33452,-289.74286)">
    <g
       id="g832"
       style="fill:#da291c;fill-opacity:1">
      <path
         sodipodi:nodetypes="ccccc"
         inkscape:connector-curvature="0"
         id="path1079"
         d="M 621.09049,289.74286 H -112.33452 V 785.04287 H 621.09049 Z"
         style="fill:#ffffff;fill-opacity:1;stroke:none;stroke-width:0.511668px;stroke-linecap:butt;stroke-linejoin:miter;stroke-opacity:1" />
      <path
         sodipodi:nodetypes="ccccc"
         inkscape:connector-curvature="0"
         id="path882"
         d="m 611.56547,299.26786 h -714.37499 v 238.125 h 714.37499 z"
         style="fill:#ffcccc;fill-opacity:1;stroke:#000000;stroke-width:0.47625;stroke-linecap:butt;stroke-linejoin:miter;stroke-miterlimit:4;stroke-dasharray:none;stroke-opacity:1" />
      <path
         style="fill:none;fill-opacity:1;stroke:#000000;stroke-width:0.47625;stroke-linecap:butt;stroke-linejoin:miter;stroke-miterlimit:4;stroke-dasharray:none;stroke-opacity:1"
         d="m 611.56547,537.39286 h -714.37499 v 238.125 h 714.37499 z"
         id="path880"
         inkscape:connector-curvature="0"
         sodipodi:nodetypes="ccccc" />
      <path
         id="path832"
         d="M 110.57693,368.05952 A 22.820312,22.820312 0 0 1 87.756624,390.87984 22.820312,22.820312 0 0 1 64.936312,368.05952 22.820312,22.820312 0 0 1 87.756624,345.23921 22.820312,22.820312 0 0 1 110.57693,368.05952 Z"
         style="opacity:1;fill:none;fill-opacity:1;fill-rule:evenodd;stroke:#000000;stroke-width:0.47625;stroke-linecap:round;stroke-linejoin:round;stroke-miterlimit:4;stroke-dasharray:1.42875, 1.42875;stroke-dashoffset:0;stroke-opacity:1"
         inkscape:connector-curvature="0" />
      <path
         sodipodi:nodetypes="ccccccccccc"
         inkscape:connector-curvature="0"
         id="path839"
         d="m 79.466659,370.75308 -13.413443,-9.74544 h 16.579928 l 5.123476,-15.76843 5.12348,15.76844 16.57981,-3.3e-4 -13.413326,9.74577 5.123056,15.76877 -13.413017,-9.74577 -13.413019,9.74577 z"
         inkscape:transform-center-y="-2.1752648e-06"
         inkscape:transform-center-x="1.4608531e-05"
         style="opacity:1;fill:#ffffff;fill-opacity:1;fill-rule:evenodd;stroke:#000000;stroke-width:0.47625;stroke-linecap:round;stroke-linejoin:round;stroke-miterlimit:4;stroke-dasharray:none;stroke-dashoffset:0;stroke-opacity:1" />
      <path
         style="opacity:1;fill:#ffffff;fill-opacity:1;fill-rule:evenodd;stroke:#000000;stroke-width:0.47625;stroke-linecap:round;stroke-linejoin:round;stroke-miterlimit:4;stroke-dasharray:none;stroke-dashoffset:0;stroke-opacity:1"
         inkscape:transform-center-x="2.0724098"
         inkscape:transform-center-y="-1.5058671"
         d="m 130.44356,395.74394 5.12348,-15.76844 5.12348,15.76844 16.57991,10e-6 -13.41343,9.74543 5.12375,15.76824 -13.41372,-9.74523 -13.41388,9.74514 5.12393,-15.76815 -13.41363,-9.74493 z"
         id="path843"
         inkscape:connector-curvature="0"
         sodipodi:nodetypes="ccccccccccc" />
      <path
         sodipodi:nodetypes="ccccccccccc"
         inkscape:connector-curvature="0"
         id="path845"
         d="m 122.42857,451.94846 h 16.57992 l -13.41344,9.74544 5.12347,15.76843 -13.41343,-9.74542 -13.41317,9.74563 5.1232,-15.76865 -13.413294,-9.74594 16.579784,5.2e-4 5.12294,-15.76847 z"
         style="opacity:1;fill:#ffffff;fill-opacity:1;fill-rule:evenodd;stroke:#000000;stroke-width:0.47625;stroke-linecap:round;stroke-linejoin:round;stroke-miterlimit:4;stroke-dasharray:none;stroke-dashoffset:0;stroke-opacity:1" />
      <path
         sodipodi:nodetypes="ccccccccccc"
         inkscape:connector-curvature="0"
         id="path849"
         d="m 45.069685,395.74394 -5.12348,-15.76844 -5.12348,15.76844 -16.57991,10e-6 13.41343,9.74543 -5.12375,15.76824 13.41372,-9.74523 13.41388,9.74514 -5.12393,-15.76815 13.41363,-9.74493 z"
         inkscape:transform-center-y="-1.5058671"
         inkscape:transform-center-x="-2.0724095"
         style="opacity:1;fill:#ffffff;fill-opacity:1;fill-rule:evenodd;stroke:#000000;stroke-width:0.47625;stroke-linecap:round;stroke-linejoin:round;stroke-miterlimit:4;stroke-dasharray:none;stroke-dashoffset:0;stroke-opacity:1" />
      <path
         style="opacity:1;fill:#ffffff;fill-opacity:1;fill-rule:evenodd;stroke:#000000;stroke-width:0.47625;stroke-linecap:round;stroke-linejoin:round;stroke-miterlimit:4;stroke-dasharray:none;stroke-dashoffset:0;stroke-opacity:1"
         d="m 53.084675,451.94846 h -16.57992 l 13.41344,9.74544 -5.12347,15.76843 13.41343,-9.74542 13.41317,9.74563 -5.1232,-15.76865 13.413294,-9.74594 -16.579784,5.2e-4 -5.12294,-15.76847 z"
         id="path851"
         inkscape:connector-curvature="0"
         sodipodi:nodetypes="ccccccccccc" />
      <path
         id="path832-3"
         d="m 138.02746,418.33035 a 50.27084,50.27084 0 0 1 -50.270833,50.27085 50.27084,50.27084 0 0 1 -50.27084,-50.27085 50.27084,50.27084 0 0 1 50.27084,-50.27084 50.27084,50.27084 0 0 1 50.270833,50.27084 z"
         style="fill:none;fill-opacity:1;fill-rule:evenodd;stroke:#000000;stroke-width:0.47625;stroke-linecap:round;stroke-linejoin:round;stroke-miterlimit:4;stroke-dasharray:1.42874991, 1.42874991;stroke-dashoffset:0;stroke-opacity:1"
         inkscape:connector-curvature="0" />
      <path
         style="fill:none;fill-opacity:1;stroke:#000000;stroke-width:0.47625;stroke-linecap:round;stroke-linejoin:round;stroke-miterlimit:3.9;stroke-dasharray:1.42875, 1.42875;stroke-dashoffset:0;stroke-opacity:1"
         d="m 39.945979,402.79654 47.810599,15.53334"
         id="path1"
         sodipodi:nodetypes="cc" />
      <path
         style="fill:none;fill-opacity:1;stroke:#000000;stroke-width:0.47625;stroke-linecap:round;stroke-linejoin:round;stroke-miterlimit:3.9;stroke-dasharray:1.42875, 1.42875;stroke-dashoffset:0;stroke-opacity:1"
         d="m 58.210068,459.0017 29.54651,-40.67182"
         id="path3"
         sodipodi:nodetypes="cc" />
      <path
         style="fill:none;fill-opacity:1;stroke:#000000;stroke-width:0.47625;stroke-linecap:round;stroke-linejoin:round;stroke-miterlimit:3.9;stroke-dasharray:1.42875, 1.42875;stroke-dashoffset:0;stroke-opacity:1"
         d="M 117.3051,459.00031 87.756578,418.32988"
         id="path4"
         sodipodi:nodetypes="cc" />
      <path
         style="fill:none;fill-opacity:1;stroke:#000000;stroke-width:0.47625;stroke-linecap:round;stroke-linejoin:round;stroke-miterlimit:3.9;stroke-dasharray:1.42875, 1.42875;stroke-dashoffset:0;stroke-opacity:1"
         d="M 135.56703,402.79582 87.756578,418.32988"
         id="path5"
         sodipodi:nodetypes="cc" />
      <path
         style="fill:none;fill-opacity:1;fill-rule:evenodd;stroke:#000000;stroke-width:0.47625;stroke-linecap:round;stroke-linejoin:round;stroke-miterlimit:4;stroke-dasharray:1.42874998,1.42874998;stroke-dashoffset:0;stroke-opacity:1"
         d="m 87.756637,330.68712 a 87.643229,87.643229 0 0 1 87.643233,87.64323 87.643229,87.643229 0 0 1 -87.643233,87.64323 87.643229,87.643229 0 0 1 -19.843755,-2.3859 87.643229,87.643229 0 0 0 67.799488,-85.25733 87.643229,87.643229 0 0 0 -67.799488,-85.2749 87.643229,87.643229 0 0 1 19.843755,-2.36833 z"
         id="path6" />
      <path
         style="fill:#ffffff;fill-opacity:1;fill-rule:evenodd;stroke:#000000;stroke-width:0.47625;stroke-linecap:round;stroke-linejoin:round;stroke-miterlimit:4;stroke-dasharray:none;stroke-dashoffset:0;stroke-opacity:1"
         d="m 48.069127,330.68712 c -48.40401265,-0.0266 -87.643232,39.23921 -87.643231,87.64323 -1e-6,48.40402 39.23922139,87.67488 87.643231,87.64323 6.684019,-0.004 13.341789,-0.83652 19.843755,-2.3859 C 28.252083,494.3685 0.11747507,459.05184 0.113396,418.33035 c -0.004079,-40.72149 28.132298,-76.05422 67.799486,-85.2749 -6.50265,-1.54346 -13.160439,-2.36466 -19.843755,-2.36833 z"
         id="path819-8"
         sodipodi:nodetypes="sssczcs" />
      <path
         style="fill:none;fill-opacity:1;stroke:#000000;stroke-width:0.47625;stroke-linecap:round;stroke-linejoin:round;stroke-miterlimit:3.9;stroke-dasharray:none;stroke-dashoffset:0;stroke-opacity:1"
         d="m 45.423294,418.33035 h 5.291668 m -2.645834,-2.64583 v 5.29166"
         id="path8"
         sodipodi:nodetypes="cccc" />
      <path
         sodipodi:nodetypes="cccc"
         inkscape:connector-curvature="0"
         id="path9"
         d="m 87.756641,299.26786 v 238.125 m -39.687513,0 v -238.125"
         style="fill:none;fill-opacity:1;stroke:#000000;stroke-width:0.47625;stroke-linecap:butt;stroke-linejoin:miter;stroke-miterlimit:4;stroke-dasharray:1.42874998,1.42874998;stroke-opacity:1;stroke-dashoffset:0" />
      <path
         sodipodi:nodetypes="cc"
         inkscape:connector-curvature="0"
         id="path10"
         d="M -102.80952,418.32988 H 87.756578"
         style="fill:none;fill-opacity:1;stroke:#000000;stroke-width:0.47625;stroke-linecap:butt;stroke-linejoin:miter;stroke-miterlimit:4;stroke-dasharray:1.42875, 1.42875;stroke-dashoffset:0;stroke-opacity:1" />
    </g>
  </g>
</svg>
