<?xml version="1.0" encoding="UTF-8" standalone="no"?>
<!-- Created with Inkscape (http://www.inkscape.org/) -->

<svg
   xmlns:dc="http://purl.org/dc/elements/1.1/"
   xmlns:cc="http://creativecommons.org/ns#"
   xmlns:rdf="http://www.w3.org/1999/02/22-rdf-syntax-ns#"
   xmlns:svg="http://www.w3.org/2000/svg"
   xmlns="http://www.w3.org/2000/svg"
   xmlns:sodipodi="http://sodipodi.sourceforge.net/DTD/sodipodi-0.dtd"
   xmlns:inkscape="http://www.inkscape.org/namespaces/inkscape"
   width="1214.8838"
   height="1219.333"
   viewBox="0 0 321.438 322.6152"
   version="1.1"
   id="svg8"
   inkscape:export-filename="C:\Users\厂永刄先生\Documents\GXI3CW2\JáÈŭcèŭ\N̂i\広島県\章ﾈｵﾝ.png"
   inkscape:export-xdpi="96"
   inkscape:export-ydpi="96"
   inkscape:version="0.92.4 (5da689c313, 2019-01-14)"
   sodipodi:docname="章ﾈｵﾝ.svg">
  <defs
     id="defs2">
    <filter
       inkscape:collect="always"
       style="color-interpolation-filters:sRGB"
       id="filter818"
       x="-0.03006205"
       width="1.0601242"
       y="-0.029938204"
       height="1.0598764">
      <feGaussianBlur
         inkscape:collect="always"
         stdDeviation="3.5645177"
         id="feGaussianBlur820" />
    </filter>
    <filter
       inkscape:collect="always"
       style="color-interpolation-filters:sRGB"
       id="filter828"
       x="-0.042086869"
       width="1.0841737"
       y="-0.041913487"
       height="1.083827">
      <feGaussianBlur
         inkscape:collect="always"
         stdDeviation="4.9903248"
         id="feGaussianBlur830" />
    </filter>
    <filter
       inkscape:collect="always"
       style="color-interpolation-filters:sRGB"
       id="filter834"
       x="-0.060124099"
       width="1.1202482"
       y="-0.059876412"
       height="1.1197528">
      <feGaussianBlur
         inkscape:collect="always"
         stdDeviation="7.1290354"
         id="feGaussianBlur836" />
    </filter>
  </defs>
  <sodipodi:namedview
     id="base"
     pagecolor="#000000"
     bordercolor="#666666"
     borderopacity="1.0"
     inkscape:pageopacity="1"
     inkscape:pageshadow="2"
     inkscape:zoom="0.44983474"
     inkscape:cx="607.44193"
     inkscape:cy="609.66651"
     inkscape:document-units="px"
     inkscape:current-layer="layer1"
     showgrid="false"
     units="px"
     fit-margin-top="5"
     fit-margin-left="5"
     fit-margin-right="5"
     fit-margin-bottom="5"
     inkscape:showpageshadow="false"
     inkscape:snap-intersection-paths="false"
     inkscape:object-paths="false"
     inkscape:pagecheckerboard="true"
     inkscape:snap-smooth-nodes="true"
     inkscape:window-width="1366"
     inkscape:window-height="745"
     inkscape:window-x="-8"
     inkscape:window-y="-8"
     inkscape:window-maximized="1"
     inkscape:object-nodes="true"
     inkscape:snap-nodes="true" />
  <metadata
     id="metadata5">
    <rdf:RDF>
      <cc:Work
         rdf:about="">
        <dc:format>image/svg+xml</dc:format>
        <dc:type
           rdf:resource="http://purl.org/dc/dcmitype/StillImage" />
        <dc:title />
      </cc:Work>
    </rdf:RDF>
  </metadata>
  <g
     inkscape:label="レイヤー 1"
     inkscape:groupmode="layer"
     id="layer1"
     transform="translate(-93.070389,-376.08526)">
    <path
       sodipodi:nodetypes="cssccccscczsc"
       inkscape:connector-curvature="0"
       id="path832"
       d="m 220.79347,468.0679 c 0,40.65347 32.956,73.60946 73.60947,73.60946 40.65347,0 73.60947,-32.95599 73.60947,-73.60946 0,-7.37738 -1.09027,-14.4994 -3.15744,-21.27726 3.16672,10.54658 4.8953,21.79748 4.8953,33.45222 M 254.37799,595.61514 c -22.94223,0 -44.31996,-6.69729 -62.28612,-18.24228 21.92938,28.7028 56.51421,47.22038 95.42465,47.22038 47.95523,0 89.339,-28.12735 108.55929,-68.78341 M 254.37799,680.26787 c -78.9077,0 -142.87499,-63.96731 -142.875,-142.87501 0,-78.9077 63.96731,-142.87501 142.875,-142.875 7.89834,0 15.64621,0.64271 23.19599,1.87534"
       style="opacity:1;fill:none;fill-opacity:1;fill-rule:evenodd;stroke:#ff01ba;stroke-width:10.58333302;stroke-linecap:round;stroke-linejoin:round;stroke-miterlimit:4;stroke-dasharray:none;stroke-dashoffset:0;stroke-opacity:1;filter:url(#filter834)" />
    <path
       style="opacity:1;fill:none;fill-opacity:1;fill-rule:evenodd;stroke:#ff01ba;stroke-width:10.58333302;stroke-linecap:round;stroke-linejoin:round;stroke-miterlimit:4;stroke-dasharray:none;stroke-dashoffset:0;stroke-opacity:1;filter:url(#filter828)"
       d="m 220.79347,468.0679 c 0,40.65347 32.956,73.60946 73.60947,73.60946 40.65347,0 73.60947,-32.95599 73.60947,-73.60946 0,-7.37738 -1.09027,-14.4994 -3.15744,-21.27726 3.16672,10.54658 4.8953,21.79748 4.8953,33.45222 M 254.37799,595.61514 c -22.94223,0 -44.31996,-6.69729 -62.28612,-18.24228 21.92938,28.7028 56.51421,47.22038 95.42465,47.22038 47.95523,0 89.339,-28.12735 108.55929,-68.78341 M 254.37799,680.26787 c -78.9077,0 -142.87499,-63.96731 -142.875,-142.87501 0,-78.9077 63.96731,-142.87501 142.875,-142.875 7.89834,0 15.64621,0.64271 23.19599,1.87534"
       id="path822"
       inkscape:connector-curvature="0"
       sodipodi:nodetypes="cssccccscczsc" />
    <path
       sodipodi:nodetypes="cssccccscczsc"
       inkscape:connector-curvature="0"
       id="path816"
       d="m 220.79347,468.0679 c 0,40.65347 32.956,73.60946 73.60947,73.60946 40.65347,0 73.60947,-32.95599 73.60947,-73.60946 0,-7.37738 -1.09027,-14.4994 -3.15744,-21.27726 3.16672,10.54658 4.8953,21.79748 4.8953,33.45222 M 254.37799,595.61514 c -22.94223,0 -44.31996,-6.69729 -62.28612,-18.24228 21.92938,28.7028 56.51421,47.22038 95.42465,47.22038 47.95523,0 89.339,-28.12735 108.55929,-68.78341 M 254.37799,680.26787 c -78.9077,0 -142.87499,-63.96731 -142.875,-142.87501 0,-78.9077 63.96731,-142.87501 142.875,-142.875 7.89834,0 15.64621,0.64271 23.19599,1.87534"
       style="opacity:1;fill:none;fill-opacity:1;fill-rule:evenodd;stroke:#ff01ba;stroke-width:10.58333302;stroke-linecap:round;stroke-linejoin:round;stroke-miterlimit:4;stroke-dasharray:none;stroke-dashoffset:0;stroke-opacity:1;filter:url(#filter818)" />
    <path
       style="opacity:1;fill:none;fill-opacity:1;fill-rule:evenodd;stroke:#ffc1ed;stroke-width:5.29166651;stroke-linecap:round;stroke-linejoin:round;stroke-miterlimit:4;stroke-dasharray:none;stroke-dashoffset:0;stroke-opacity:1"
       d="m 220.79347,468.0679 c 0,40.65347 32.956,73.60946 73.60947,73.60946 40.65347,0 73.60947,-32.95599 73.60947,-73.60946 0,-7.37738 -1.09027,-14.4994 -3.15744,-21.27726 3.16672,10.54658 4.8953,21.79748 4.8953,33.45222 M 254.37799,595.61514 c -22.94223,0 -44.31996,-6.69729 -62.28612,-18.24228 21.92938,28.7028 56.51421,47.22038 95.42465,47.22038 47.95523,0 89.339,-28.12735 108.55929,-68.78341 M 254.37799,680.26787 c -78.9077,0 -142.87499,-63.96731 -142.875,-142.87501 0,-78.9077 63.96731,-142.87501 142.875,-142.875 7.89834,0 15.64621,0.64271 23.19599,1.87534"
       id="path887"
       inkscape:connector-curvature="0"
       sodipodi:nodetypes="cssccccscczsc" />
  </g>
</svg>
