<?xml version="1.0" encoding="UTF-8" standalone="no"?>
<!-- Created with Inkscape (http://www.inkscape.org/) -->

<svg
   xmlns:dc="http://purl.org/dc/elements/1.1/"
   xmlns:cc="http://creativecommons.org/ns#"
   xmlns:rdf="http://www.w3.org/1999/02/22-rdf-syntax-ns#"
   xmlns:svg="http://www.w3.org/2000/svg"
   xmlns="http://www.w3.org/2000/svg"
   xmlns:sodipodi="http://sodipodi.sourceforge.net/DTD/sodipodi-0.dtd"
   xmlns:inkscape="http://www.inkscape.org/namespaces/inkscape"
   width="3636"
   height="1800.0002"
   viewBox="0 0 962.02499 476.25007"
   version="1.1"
   id="svg8"
   inkscape:export-filename="C:\Users\厂永刄先生\Documents\GXI3CW2\JáÈŭcèŭ\Maqkàla\Maqkàla.png"
   inkscape:export-xdpi="96"
   inkscape:export-ydpi="96"
   inkscape:version="0.92.4 (5da689c313, 2019-01-14)"
   sodipodi:docname="1954 (2).svg">
  <defs
     id="defs2" />
  <sodipodi:namedview
     id="base"
     pagecolor="#ffffff"
     bordercolor="#666666"
     borderopacity="1.0"
     inkscape:pageopacity="0.0"
     inkscape:pageshadow="2"
     inkscape:zoom="0.24532453"
     inkscape:cx="1818"
     inkscape:cy="900.00024"
     inkscape:document-units="px"
     inkscape:current-layer="layer1"
     showgrid="false"
     units="px"
     fit-margin-top="0"
     fit-margin-left="0"
     fit-margin-right="0"
     fit-margin-bottom="0"
     inkscape:showpageshadow="false"
     inkscape:snap-intersection-paths="true"
     inkscape:object-paths="false"
     inkscape:pagecheckerboard="true"
     inkscape:snap-smooth-nodes="true"
     inkscape:window-width="1366"
     inkscape:window-height="745"
     inkscape:window-x="-8"
     inkscape:window-y="-8"
     inkscape:window-maximized="1"
     inkscape:object-nodes="true"
     inkscape:snap-nodes="true"
     showguides="true"
     inkscape:guide-bbox="true" />
  <metadata
     id="metadata5">
    <rdf:RDF>
      <cc:Work
         rdf:about="">
        <dc:format>image/svg+xml</dc:format>
        <dc:type
           rdf:resource="http://purl.org/dc/dcmitype/StillImage" />
        <dc:title />
      </cc:Work>
    </rdf:RDF>
  </metadata>
  <g
     inkscape:label="レイヤー 1"
     inkscape:groupmode="layer"
     id="layer1"
     transform="translate(112.33452,-299.26786)">
    <path
       style="fill:#ffffff;fill-opacity:1;stroke:none;stroke-width:0.51166773px;stroke-linecap:butt;stroke-linejoin:miter;stroke-opacity:1"
       d="m -102.80952,299.26786 h -9.525 v 476.25 h 9.525 z"
       id="path1079"
       inkscape:connector-curvature="0"
       sodipodi:nodetypes="ccccc" />
    <path
       style="fill:#aa0000;fill-opacity:1;stroke:none;stroke-width:0.36474019px;stroke-linecap:butt;stroke-linejoin:miter;stroke-opacity:1"
       d="M 849.69048,722.60119 H 3.0238 v 52.91667 h 846.66668 z"
       id="path824"
       inkscape:connector-curvature="0"
       sodipodi:nodetypes="ccccc" />
    <path
       sodipodi:nodetypes="ccccc"
       inkscape:connector-curvature="0"
       id="path935"
       d="m 849.69048,616.76786 -846.66668,0 v 105.83333 l 846.66668,0 z"
       style="fill:#0055d4;fill-opacity:1;stroke:none;stroke-width:0.5158205px;stroke-linecap:butt;stroke-linejoin:miter;stroke-opacity:1" />
    <path
       style="fill:#aa0000;fill-opacity:1;stroke:none;stroke-width:0.5158205px;stroke-linecap:butt;stroke-linejoin:miter;stroke-opacity:1"
       d="M 849.69048,299.26786 H 3.0238 v 317.5 h 846.66668 z"
       id="path937"
       inkscape:connector-curvature="0"
       sodipodi:nodetypes="ccccc" />
    <path
       style="fill:#aa0000;fill-opacity:1;stroke:none;stroke-width:0.36474016px;stroke-linecap:butt;stroke-linejoin:miter;stroke-opacity:1"
       d="m -102.80952,775.51786 v -476.25 H 3.0238 v 476.25 z"
       id="path880"
       inkscape:connector-curvature="0"
       sodipodi:nodetypes="ccccc" />
    <path
       style="fill:#ffc000;fill-opacity:1;stroke:none;stroke-width:0.26458332px;stroke-linecap:butt;stroke-linejoin:miter;stroke-opacity:1"
       d="m -55.84598,325.72618 c -3.65313,0 -6.61458,2.96145 -6.61458,6.61459 0,6.68943 10.58333,17.79926 10.58333,23.48177 0,5.66236 -4.59024,10.2526 -10.2526,10.2526 -5.66236,0 -10.2526,-4.59024 -10.2526,-10.2526 0,-3.28782 2.6653,-5.95313 5.95312,-5.95313 3.18508,0 5.78593,2.50123 5.94537,5.64669 -0.16135,-4.24144 -3.64882,-7.63106 -7.92974,-7.63106 -6.37535,0 -0.1398,-9.81686 -7.9375,-11.90625 4.15343,4.15344 0,11.75839 0,19.84375 0,5.20726 2.80003,9.75917 6.97528,12.23698 -4.17525,2.4778 -6.97528,7.02971 -6.97528,12.23698 0,8.08536 4.15344,15.69031 0,19.84375 7.7977,-2.0894 1.56215,-11.90625 7.9375,-11.90625 4.28092,0 7.76839,-3.38962 7.92974,-7.63106 -0.15944,3.14545 -2.76029,5.64668 -5.94537,5.64668 -3.28782,0 -5.95312,-2.6653 -5.95312,-5.95312 0,-5.66237 4.59024,-10.25261 10.2526,-10.25261 5.66236,0 10.2526,4.59024 10.2526,10.25261 0,18.67766 -24.47395,40.08995 -24.47395,60.1927 0,5.20765 2.80056,9.7593 6.97631,12.23698 -4.17575,2.47769 -6.97631,7.02934 -6.97631,12.23698 0,20.10275 24.47395,41.51505 24.47395,60.19271 0,5.66236 -4.59024,10.2526 -10.2526,10.2526 -5.66236,0 -10.2526,-4.59024 -10.2526,-10.2526 0,-3.28782 2.6653,-5.95312 5.95312,-5.95312 3.18508,0 5.78593,2.50123 5.94537,5.64668 -0.16135,-4.24144 -3.64882,-7.63106 -7.92974,-7.63106 -6.37535,0 -0.1398,-9.81686 -7.9375,-11.90625 4.15344,4.15344 0,11.75839 0,19.84375 0,5.20726 2.80003,9.75918 6.97528,12.23698 -4.17525,2.4778 -6.97528,7.02971 -6.97528,12.23698 0,8.08536 4.15344,15.69033 0,19.84376 7.7977,-2.08939 1.56215,-11.90626 7.9375,-11.90626 4.28092,0 7.76839,-3.38962 7.92974,-7.63106 -0.15944,3.14545 -2.76029,5.64668 -5.94537,5.64668 -3.28782,0 -5.95312,-2.6653 -5.95312,-5.95312 0,-5.66236 4.59024,-10.25261 10.2526,-10.25261 5.66236,0 10.2526,4.59025 10.2526,10.25261 0,18.67766 -24.47395,40.08997 -24.47395,60.19272 0,5.20763 2.80056,9.75929 6.97631,12.23698 -4.17575,2.47769 -6.97631,7.02934 -6.97631,12.23698 0,20.10275 24.47395,41.51505 24.47395,60.1927 0,5.66235 -4.59024,10.25261 -10.2526,10.25261 -5.66236,0 -10.2526,-4.59026 -10.2526,-10.25261 0,-3.28781 2.6653,-5.95312 5.95312,-5.95312 3.18508,0 5.78593,2.50124 5.94537,5.64668 -0.16135,-4.24143 -3.64882,-7.63106 -7.92974,-7.63106 -6.37535,0 -0.1398,-9.81686 -7.9375,-11.90625 4.15344,4.15343 0,11.75841 0,19.84375 0,5.20727 2.80003,9.75919 6.97528,12.23698 -4.17525,2.4778 -6.97528,7.02972 -6.97528,12.23698 0,8.08535 4.15343,15.69032 0,19.84375 7.7977,-2.08939 1.56215,-11.90625 7.9375,-11.90625 4.28092,0 7.76839,-3.38963 7.92974,-7.63106 -0.15944,3.14545 -2.76029,5.64669 -5.94537,5.64669 -3.28782,0 -5.95312,-2.66531 -5.95312,-5.95313 0,-5.66235 4.59024,-10.2526 10.2526,-10.2526 5.66236,0 10.2526,4.59025 10.2526,10.2526 0,5.68251 -10.58333,16.79234 -10.58333,23.48177 0,3.65313 2.96145,6.61459 6.61458,6.61459 2.61835,0 4.88117,-1.52149 5.95313,-3.72846 1.07196,2.20697 3.33478,3.72846 5.95312,3.72846 3.65314,0 6.61459,-2.96146 6.61459,-6.61459 0,-6.68943 -10.58334,-17.79926 -10.58334,-23.48177 0,-5.66235 4.59025,-10.2526 10.25261,-10.2526 5.66235,0 10.2526,4.59025 10.2526,10.2526 0,3.28782 -2.6653,5.95313 -5.95312,5.95313 -3.18508,0 -5.78593,-2.50124 -5.94538,-5.64669 0.16135,4.24143 3.64882,7.63106 7.92975,7.63106 6.37535,0 0.1398,9.81686 7.9375,11.90625 -4.15343,-4.15343 0,-11.7584 0,-19.84375 0,-5.20726 -2.80004,-9.75918 -6.97528,-12.23698 4.17524,-2.47779 6.97528,-7.02971 6.97528,-12.23698 0,-8.08534 -4.15344,-15.69032 0,-19.84375 -7.79771,2.08939 -1.56215,11.90625 -7.9375,11.90625 -4.28093,0 -7.7684,3.38963 -7.92975,7.63106 0.15945,-3.14544 2.7603,-5.64668 5.94538,-5.64668 3.28782,0 5.95312,2.66531 5.95312,5.95312 0,5.66235 -4.59025,10.25261 -10.2526,10.25261 -5.66236,0 -10.25261,-4.59026 -10.25261,-10.25261 0,-18.67765 24.47396,-40.08995 24.47396,-60.1927 0,-5.20764 -2.80056,-9.75929 -6.97632,-12.23698 4.17576,-2.47769 6.97632,-7.02935 6.97632,-12.23698 0,-20.10275 -24.47396,-41.51506 -24.47396,-60.19272 0,-5.66236 4.59025,-10.25261 10.25261,-10.25261 5.66235,0 10.2526,4.59025 10.2526,10.25261 0,3.28782 -2.6653,5.95312 -5.95312,5.95312 -3.18508,0 -5.78593,-2.50123 -5.94538,-5.64668 0.16135,4.24144 3.64882,7.63106 7.92975,7.63106 6.37535,0 0.13979,9.81687 7.9375,11.90626 -4.15344,-4.15343 0,-11.7584 0,-19.84376 0,-5.20727 -2.80004,-9.75918 -6.97528,-12.23698 4.17524,-2.4778 6.97528,-7.02972 6.97528,-12.23698 0,-8.08536 -4.15344,-15.69031 0,-19.84375 -7.79771,2.08939 -1.56215,11.90625 -7.9375,11.90625 -4.28093,0 -7.7684,3.38962 -7.92975,7.63106 0.15945,-3.14545 2.7603,-5.64668 5.94538,-5.64668 3.28782,0 5.95312,2.6653 5.95312,5.95312 0,5.66236 -4.59025,10.2526 -10.2526,10.2526 -5.66236,0 -10.25261,-4.59024 -10.25261,-10.2526 0,-18.67766 24.47396,-40.08996 24.47396,-60.19271 0,-5.20764 -2.80056,-9.75929 -6.97632,-12.23698 4.17576,-2.47768 6.97632,-7.02933 6.97632,-12.23698 0,-20.10275 -24.47396,-41.51504 -24.47396,-60.1927 0,-5.66237 4.59025,-10.25261 10.25261,-10.25261 5.66235,0 10.2526,4.59024 10.2526,10.25261 0,3.28782 -2.6653,5.95312 -5.95312,5.95312 -3.18508,0 -5.78593,-2.50123 -5.94538,-5.64668 0.16135,4.24144 3.64882,7.63106 7.92975,7.63106 6.37535,0 0.13979,9.81685 7.9375,11.90625 -4.15344,-4.15344 0,-11.75839 0,-19.84375 0,-5.20727 -2.80004,-9.75918 -6.97528,-12.23698 4.17524,-2.47781 6.97528,-7.02972 6.97528,-12.23698 0,-8.08536 -4.15343,-15.69031 0,-19.84375 -7.7977,2.08939 -1.56215,11.90625 -7.9375,11.90625 -4.28093,0 -7.7684,3.38962 -7.92975,7.63106 0.15945,-3.14546 2.7603,-5.64669 5.94538,-5.64669 3.28782,0 5.95312,2.66531 5.95312,5.95313 0,5.66236 -4.59025,10.2526 -10.2526,10.2526 -5.66236,0 -10.25261,-4.59024 -10.25261,-10.2526 0,-5.68251 10.58334,-16.79234 10.58334,-23.48177 0,-3.65314 -2.96145,-6.61459 -6.61459,-6.61459 -2.61834,0 -4.88116,1.52149 -5.95312,3.72846 -1.07196,-2.20697 -3.33478,-3.72846 -5.95313,-3.72846 z m 1.65365,2.31511 c 2.37453,0 4.29948,1.92494 4.29948,4.29948 0,-2.37454 1.92495,-4.29948 4.29948,-4.29948 2.37454,0 4.29948,1.92494 4.29948,4.29948 0,4.45879 -5.53482,10.66069 -8.59896,16.7106 -3.06414,-6.04991 -8.59896,-12.25181 -8.59896,-16.7106 0,-2.37454 1.92494,-4.29948 4.29948,-4.29948 z m 4.29948,35.02008 c 1.21946,2.05697 2.94072,3.7786 4.99763,4.99815 -2.05691,1.21954 -3.77817,2.94117 -4.99763,4.99814 -1.21946,-2.05697 -2.94072,-3.7786 -4.99763,-4.99814 2.05691,-1.21955 3.77817,-2.94118 4.99763,-4.99815 z m 0,27.87634 c 5.82681,16.86347 22.48958,34.13917 22.48958,49.55149 0,5.66236 -4.59025,10.25261 -10.2526,10.25261 -5.66236,0 -10.25261,-4.59025 -10.25261,-10.25261 0,-3.28782 2.66531,-5.95312 5.95313,-5.95312 3.18507,0 5.78593,2.50123 5.94537,5.64668 -0.16135,-4.24144 -3.64882,-7.63106 -7.92975,-7.63106 -1.05005,0 -2.05428,0.20015 -2.97346,0.57568 -1.49016,0.6088 -2.07101,-0.37147 -1.74098,-0.9431 4.16545,-7.21476 -1.23868,-6.17949 -1.23868,-11.53883 0,5.35934 -5.40413,4.32407 -1.23869,11.53883 0.33004,0.57163 -0.25133,1.5519 -1.74149,0.9431 -0.91918,-0.37553 -1.9229,-0.57568 -2.97295,-0.57568 -4.28093,0 -7.7684,3.38962 -7.92974,7.63106 0.15944,-3.14545 2.76029,-5.64668 5.94537,-5.64668 3.28782,0 5.95312,2.6653 5.95312,5.95312 0,5.66236 -4.59024,10.25261 -10.2526,10.25261 -5.66236,0 -10.2526,-4.59025 -10.2526,-10.25261 0,-15.41235 16.6628,-32.68799 22.48958,-49.55149 z m 0,56.7955 c 1.21788,2.05279 2.93543,3.77446 4.98781,4.99297 -2.05238,1.21851 -3.76993,2.94018 -4.98781,4.99298 -1.21788,-2.0528 -2.93543,-3.77447 -4.98781,-4.99298 2.05238,-1.21851 3.76993,-2.94018 4.98781,-4.99297 z m -12.23698,6.97735 c 5.66236,0 10.2526,4.59024 10.2526,10.2526 0,3.28782 -2.6653,5.95313 -5.95312,5.95313 -3.18508,0 -5.78593,-2.50123 -5.94537,-5.64669 0.16134,4.24144 3.64881,7.63106 7.92974,7.63106 1.05005,0 2.05377,-0.20014 2.97295,-0.57567 1.49016,-0.6088 2.07153,0.37146 1.74149,0.94309 -4.16544,7.21477 1.23869,6.17949 1.23869,11.53883 0,-5.35934 5.40413,-4.32406 1.23868,-11.53883 -0.33003,-0.57163 0.25082,-1.55189 1.74098,-0.94309 0.91918,0.37553 1.92341,0.57567 2.97346,0.57567 4.28093,0 7.7684,-3.38962 7.92975,-7.63106 -0.15944,3.14546 -2.7603,5.64669 -5.94537,5.64669 -3.28782,0 -5.95313,-2.66531 -5.95313,-5.95313 0,-5.66236 4.59025,-10.2526 10.25261,-10.2526 5.66235,0 10.2526,4.59024 10.2526,10.2526 0,15.41232 -16.66277,32.68803 -22.48958,49.5515 -5.82678,-16.86351 -22.48958,-34.13915 -22.48958,-49.5515 0,-5.66236 4.59024,-10.2526 10.2526,-10.2526 z m 12.23698,77.68415 c 1.21946,2.05696 2.94072,3.7786 4.99763,4.99814 -2.05691,1.21954 -3.77817,2.94118 -4.99763,4.99814 -1.21946,-2.05696 -2.94072,-3.7786 -4.99763,-4.99814 2.05691,-1.21954 3.77817,-2.94118 4.99763,-4.99814 z m 0,27.87633 c 5.82681,16.86348 22.48958,34.13918 22.48958,49.55151 0,5.66235 -4.59025,10.2526 -10.2526,10.2526 -5.66236,0 -10.25261,-4.59025 -10.25261,-10.2526 0,-3.28782 2.66531,-5.95313 5.95313,-5.95313 3.18507,0 5.78593,2.50124 5.94537,5.64669 -0.16135,-4.24143 -3.64882,-7.63106 -7.92975,-7.63106 -1.05005,0 -2.05428,0.20015 -2.97346,0.57568 -1.49016,0.6088 -2.07101,-0.37148 -1.74098,-0.94311 4.16545,-7.21476 -1.23868,-6.17948 -1.23868,-11.53882 0,5.35934 -5.40413,4.32406 -1.23869,11.53882 0.33004,0.57163 -0.25133,1.55191 -1.74149,0.94311 -0.91918,-0.37553 -1.9229,-0.57568 -2.97295,-0.57568 -4.28093,0 -7.7684,3.38963 -7.92974,7.63106 0.15944,-3.14545 2.76029,-5.64669 5.94537,-5.64669 3.28782,0 5.95312,2.66531 5.95312,5.95313 0,5.66235 -4.59024,10.2526 -10.2526,10.2526 -5.66236,0 -10.2526,-4.59025 -10.2526,-10.2526 0,-15.41235 16.6628,-32.688 22.48958,-49.55151 z m 0,56.79551 c 1.21788,2.05279 2.93543,3.77446 4.98781,4.99298 -2.05238,1.21851 -3.76993,2.94018 -4.98781,4.99298 -1.21788,-2.0528 -2.93543,-3.77447 -4.98781,-4.99298 2.05238,-1.21852 3.76993,-2.94019 4.98781,-4.99298 z m -12.23698,6.97735 c 5.66236,0 10.2526,4.59026 10.2526,10.25261 0,3.28781 -2.6653,5.95312 -5.95312,5.95312 -3.18508,0 -5.78593,-2.50124 -5.94537,-5.64668 0.16134,4.24143 3.64881,7.63106 7.92974,7.63106 1.05005,0 2.05377,-0.20016 2.97295,-0.57568 1.49016,-0.60881 2.07153,0.37147 1.74149,0.9431 -4.16544,7.21477 1.23869,6.17948 1.23869,11.53883 0,-5.35935 5.40413,-4.32406 1.23868,-11.53883 -0.33003,-0.57163 0.25082,-1.55191 1.74098,-0.9431 0.91918,0.37552 1.92341,0.57568 2.97346,0.57568 4.28093,0 7.7684,-3.38963 7.92975,-7.63106 -0.15944,3.14544 -2.7603,5.64668 -5.94537,5.64668 -3.28782,0 -5.95313,-2.66531 -5.95313,-5.95312 0,-5.66235 4.59025,-10.25261 10.25261,-10.25261 5.66235,0 10.2526,4.59026 10.2526,10.25261 0,15.41232 -16.66277,32.68802 -22.48958,49.55148 -5.82678,-16.86348 -22.48958,-34.13913 -22.48958,-49.55148 0,-5.66235 4.59024,-10.25261 10.2526,-10.25261 z m 12.23698,77.68416 c 1.21946,2.05695 2.94072,3.77859 4.99763,4.99813 -2.05691,1.21955 -3.77817,2.94119 -4.99763,4.99814 -1.21946,-2.05695 -2.94072,-3.77859 -4.99763,-4.99814 2.05691,-1.21954 3.77817,-2.94118 4.99763,-4.99813 z m 0,24.00628 c 3.06414,6.04991 8.59896,12.25182 8.59896,16.7106 0,2.37453 -1.92494,4.29948 -4.29948,4.29948 -2.37453,0 -4.29948,-1.92495 -4.29948,-4.29948 0,2.37453 -1.92495,4.29948 -4.29948,4.29948 -2.37454,0 -4.29948,-1.92495 -4.29948,-4.29948 0,-4.45878 5.53482,-10.66069 8.59896,-16.7106 z"
       id="path936"
       inkscape:connector-curvature="0"
       sodipodi:nodetypes="sssssscscscscscssssscssssscscscscscssssscssssscscscscscsssssscsssssscscscscscssssscssssscscscscscssssscssssscscscscscsssssscsscsscssccccccsssscssscssscssssccccccssscssscssscsssscssccccccsssscssscssscssssccccccssscscccccscsssscssccccccsscssc" />
    <g
       transform="matrix(0.69930075,0,0,0.69930075,112.29327,88.879473)"
       style="fill:#ffc000;fill-opacity:1"
       id="g1111">
      <g
         id="g1098"
         style="fill:#ffc000;fill-opacity:1">
        <circle
           r="95.25"
           cy="500.3512"
           cx="373.44049"
           id="circle1000"
           style="opacity:1;fill:#ffc000;fill-opacity:1;fill-rule:evenodd;stroke:none;stroke-width:0.74334693;stroke-linecap:round;stroke-linejoin:round;stroke-miterlimit:4;stroke-dasharray:none;stroke-dashoffset:0;stroke-opacity:1;paint-order:normal" />
        <path
           style="opacity:1;fill:#ffc000;fill-opacity:1;fill-rule:evenodd;stroke:none;stroke-width:0.03716735;stroke-linecap:round;stroke-linejoin:round;stroke-miterlimit:4;stroke-dasharray:none;stroke-dashoffset:0;stroke-opacity:1;paint-order:normal"
           d="m 378.20299,390.81369 c 0,-2.63026 -0.6246,-10.14959 -4.7625,-14.28749 -4.1379,4.1379 -4.7625,11.65723 -4.7625,14.28749 0,2.63026 2.13224,4.7625 4.7625,4.7625 2.63026,0 4.7625,-2.13224 4.7625,-4.7625 z"
           id="path1002"
           inkscape:connector-curvature="0"
           sodipodi:nodetypes="scszs" />
        <path
           sodipodi:nodetypes="scszs"
           inkscape:connector-curvature="0"
           id="path1004"
           d="m 378.20299,609.8887 c 0,2.63026 -0.6246,10.14959 -4.7625,14.28749 -4.1379,-4.1379 -4.7625,-11.65723 -4.7625,-14.28749 0,-2.63026 2.13224,-4.7625 4.7625,-4.7625 2.63026,0 4.7625,2.13224 4.7625,4.7625 z"
           style="opacity:1;fill:#ffc000;fill-opacity:1;fill-rule:evenodd;stroke:none;stroke-width:0.03716735;stroke-linecap:round;stroke-linejoin:round;stroke-miterlimit:4;stroke-dasharray:none;stroke-dashoffset:0;stroke-opacity:1;paint-order:normal" />
        <path
           sodipodi:nodetypes="scszs"
           inkscape:connector-curvature="0"
           id="path1006"
           d="m 263.90298,495.5887 c -2.63026,0 -10.14959,0.6246 -14.28749,4.7625 4.1379,4.1379 11.65724,4.76249 14.28749,4.76249 2.63026,0 4.7625,-2.13224 4.7625,-4.76249 0,-2.63027 -2.13224,-4.7625 -4.7625,-4.7625 z"
           style="opacity:1;fill:#ffc000;fill-opacity:1;fill-rule:evenodd;stroke:none;stroke-width:0.03716735;stroke-linecap:round;stroke-linejoin:round;stroke-miterlimit:4;stroke-dasharray:none;stroke-dashoffset:0;stroke-opacity:1;paint-order:normal" />
        <path
           style="opacity:1;fill:#ffc000;fill-opacity:1;fill-rule:evenodd;stroke:none;stroke-width:0.03716735;stroke-linecap:round;stroke-linejoin:round;stroke-miterlimit:4;stroke-dasharray:none;stroke-dashoffset:0;stroke-opacity:1;paint-order:normal"
           d="m 482.97799,495.5887 c 2.63026,0 10.14959,0.6246 14.28749,4.7625 -4.13789,4.1379 -11.65723,4.7625 -14.28749,4.7625 -2.63026,0 -4.7625,-2.13224 -4.7625,-4.7625 0,-2.63026 2.13224,-4.7625 4.7625,-4.7625 z"
           id="path1008"
           inkscape:connector-curvature="0"
           sodipodi:nodetypes="scszs" />
        <path
           sodipodi:nodetypes="scszs"
           inkscape:connector-curvature="0"
           id="path1010"
           d="m 299.35337,419.52888 c -1.85987,-1.85987 -7.6185,-6.73518 -13.47038,-6.73518 0,5.85187 4.87532,11.6105 6.73519,13.47037 1.85987,1.85988 4.87532,1.85988 6.73519,0 1.85988,-1.85987 1.85988,-4.87531 0,-6.73519 z"
           style="opacity:1;fill:#ffc000;fill-opacity:1;fill-rule:evenodd;stroke:none;stroke-width:0.03716735;stroke-linecap:round;stroke-linejoin:round;stroke-miterlimit:4;stroke-dasharray:none;stroke-dashoffset:0;stroke-opacity:1;paint-order:normal" />
        <path
           style="opacity:1;fill:#ffc000;fill-opacity:1;fill-rule:evenodd;stroke:none;stroke-width:0.03716735;stroke-linecap:round;stroke-linejoin:round;stroke-miterlimit:4;stroke-dasharray:none;stroke-dashoffset:0;stroke-opacity:1;paint-order:normal"
           d="m 454.2628,574.43831 c 1.85987,1.85987 6.73518,7.6185 6.73518,13.47038 -5.85187,0 -11.6105,-4.87532 -13.47037,-6.73519 -1.85988,-1.85987 -1.85988,-4.87532 0,-6.73519 1.85987,-1.85988 4.87531,-1.85988 6.73519,0 z"
           id="path1012"
           inkscape:connector-curvature="0"
           sodipodi:nodetypes="scszs" />
        <path
           style="opacity:1;fill:#ffc000;fill-opacity:1;fill-rule:evenodd;stroke:none;stroke-width:0.03716735;stroke-linecap:round;stroke-linejoin:round;stroke-miterlimit:4;stroke-dasharray:none;stroke-dashoffset:0;stroke-opacity:1;paint-order:normal"
           d="m 292.61818,574.43832 c -1.85987,1.85987 -6.73519,7.6185 -6.73519,13.47037 5.85188,0 11.61051,-4.87532 13.47037,-6.73519 1.85988,-1.85987 1.85988,-4.87532 10e-6,-6.73518 -1.85988,-1.85989 -4.87532,-1.85988 -6.73519,0 z"
           id="path1014"
           inkscape:connector-curvature="0"
           sodipodi:nodetypes="scszs" />
        <path
           sodipodi:nodetypes="scszs"
           inkscape:connector-curvature="0"
           id="path1016"
           d="m 447.52761,419.52889 c 1.85987,-1.85987 7.6185,-6.73519 13.47037,-6.73519 1e-5,5.85187 -4.87531,11.61051 -6.73518,13.47038 -1.85988,1.85988 -4.87532,1.85988 -6.73519,0 -1.85988,-1.85987 -1.85988,-4.87532 0,-6.73519 z"
           style="opacity:1;fill:#ffc000;fill-opacity:1;fill-rule:evenodd;stroke:none;stroke-width:0.03716735;stroke-linecap:round;stroke-linejoin:round;stroke-miterlimit:4;stroke-dasharray:none;stroke-dashoffset:0;stroke-opacity:1;paint-order:normal" />
        <path
           sodipodi:nodetypes="scszs"
           inkscape:connector-curvature="0"
           id="path1018"
           d="m 349.69032,393.31346 c -0.68076,-2.54063 -3.23023,-9.64209 -8.2981,-12.56803 -2.92593,5.06787 -1.58311,12.49265 -0.90234,15.03328 0.68076,2.54064 3.29221,4.04836 5.83284,3.3676 2.54064,-0.68076 4.04836,-3.29221 3.3676,-5.83285 z"
           style="opacity:1;fill:#ffc000;fill-opacity:1;fill-rule:evenodd;stroke:none;stroke-width:0.03716735;stroke-linecap:round;stroke-linejoin:round;stroke-miterlimit:4;stroke-dasharray:none;stroke-dashoffset:0;stroke-opacity:1;paint-order:normal" />
        <path
           style="opacity:1;fill:#ffc000;fill-opacity:1;fill-rule:evenodd;stroke:none;stroke-width:0.03716735;stroke-linecap:round;stroke-linejoin:round;stroke-miterlimit:4;stroke-dasharray:none;stroke-dashoffset:0;stroke-opacity:1;paint-order:normal"
           d="m 406.3911,604.92367 c 0.68077,2.54064 2.02359,9.96541 -0.90234,15.03328 -5.06788,-2.92593 -7.61734,-10.02739 -8.2981,-12.56803 -0.68076,-2.54063 0.82696,-5.15208 3.3676,-5.83284 2.54063,-0.68076 5.15208,0.82696 5.83284,3.36759 z"
           id="path1020"
           inkscape:connector-curvature="0"
           sodipodi:nodetypes="scszs" />
        <path
           style="opacity:1;fill:#ffc000;fill-opacity:1;fill-rule:evenodd;stroke:none;stroke-width:0.03716735;stroke-linecap:round;stroke-linejoin:round;stroke-miterlimit:4;stroke-dasharray:none;stroke-dashoffset:0;stroke-opacity:1;paint-order:normal"
           d="m 266.40276,524.10137 c -2.54064,0.68076 -9.6421,3.23022 -12.56803,8.2981 5.06787,2.92593 12.49265,1.58309 15.03327,0.90233 2.54064,-0.68076 4.04836,-3.29221 3.3676,-5.83283 -0.68076,-2.54065 -3.29221,-4.04836 -5.83284,-3.3676 z"
           id="path1022"
           inkscape:connector-curvature="0"
           sodipodi:nodetypes="scszs" />
        <path
           sodipodi:nodetypes="scszs"
           inkscape:connector-curvature="0"
           id="path1024"
           d="m 478.01297,467.40059 c 2.54063,-0.68077 9.96541,-2.02359 15.03328,0.90234 -2.92593,5.06787 -10.0274,7.61734 -12.56803,8.2981 -2.54064,0.68076 -5.15209,-0.82696 -5.83285,-3.3676 -0.68076,-2.54063 0.82696,-5.15208 3.3676,-5.83284 z"
           style="opacity:1;fill:#ffc000;fill-opacity:1;fill-rule:evenodd;stroke:none;stroke-width:0.03716735;stroke-linecap:round;stroke-linejoin:round;stroke-miterlimit:4;stroke-dasharray:none;stroke-dashoffset:0;stroke-opacity:1;paint-order:normal" />
        <path
           style="opacity:1;fill:#ffc000;fill-opacity:1;fill-rule:evenodd;stroke:none;stroke-width:0.03716735;stroke-linecap:round;stroke-linejoin:round;stroke-miterlimit:4;stroke-dasharray:none;stroke-dashoffset:0;stroke-opacity:1;paint-order:normal"
           d="m 280.95947,441.45799 c -2.27786,-1.31513 -9.1021,-4.53387 -14.75458,-3.01929 1.51458,5.65247 7.71422,9.95305 9.99208,11.26818 2.27787,1.31514 5.19057,0.53468 6.5057,-1.7432 1.31513,-2.27786 0.53468,-5.19056 -1.7432,-6.50569 z"
           id="path1026"
           inkscape:connector-curvature="0"
           sodipodi:nodetypes="scszs" />
        <path
           sodipodi:nodetypes="scszs"
           inkscape:connector-curvature="0"
           id="path1028"
           d="m 470.684,550.9955 c 2.27787,1.31513 8.4775,5.61571 9.99208,11.26819 -5.65247,1.51458 -12.47671,-1.70418 -14.75458,-3.0193 -2.27787,-1.31513 -3.05833,-4.22783 -1.74319,-6.5057 1.31512,-2.27787 4.22781,-3.05833 6.50569,-1.74319 z"
           style="opacity:1;fill:#ffc000;fill-opacity:1;fill-rule:evenodd;stroke:none;stroke-width:0.03716735;stroke-linecap:round;stroke-linejoin:round;stroke-miterlimit:4;stroke-dasharray:none;stroke-dashoffset:0;stroke-opacity:1;paint-order:normal" />
        <path
           sodipodi:nodetypes="scszs"
           inkscape:connector-curvature="0"
           id="path1030"
           d="m 314.54729,592.83221 c -1.31512,2.27787 -4.53388,9.10211 -3.0193,14.75458 5.65248,-1.51458 9.95306,-7.71422 11.26818,-9.99208 1.31514,-2.27787 0.53468,-5.19057 -1.74318,-6.50569 -2.27788,-1.31514 -5.19057,-0.53468 -6.5057,1.74319 z"
           style="opacity:1;fill:#ffc000;fill-opacity:1;fill-rule:evenodd;stroke:none;stroke-width:0.03716735;stroke-linecap:round;stroke-linejoin:round;stroke-miterlimit:4;stroke-dasharray:none;stroke-dashoffset:0;stroke-opacity:1;paint-order:normal" />
        <path
           style="opacity:1;fill:#ffc000;fill-opacity:1;fill-rule:evenodd;stroke:none;stroke-width:0.03716735;stroke-linecap:round;stroke-linejoin:round;stroke-miterlimit:4;stroke-dasharray:none;stroke-dashoffset:0;stroke-opacity:1;paint-order:normal"
           d="m 424.0848,403.10768 c 1.31513,-2.27786 5.61571,-8.4775 11.26818,-9.99208 1.51459,5.65247 -1.70416,12.47672 -3.01929,14.75458 -1.31513,2.27788 -4.22783,3.05833 -6.50569,1.7432 -2.27788,-1.31513 -3.05834,-4.22783 -1.7432,-6.5057 z"
           id="path1032"
           inkscape:connector-curvature="0"
           sodipodi:nodetypes="scszs" />
        <path
           style="opacity:1;fill:#ffc000;fill-opacity:1;fill-rule:evenodd;stroke:none;stroke-width:0.03716735;stroke-linecap:round;stroke-linejoin:round;stroke-miterlimit:4;stroke-dasharray:none;stroke-dashoffset:0;stroke-opacity:1;paint-order:normal"
           d="m 397.19066,393.31346 c 0.68076,-2.54063 3.23023,-9.64209 8.2981,-12.56803 2.92593,5.06787 1.58311,12.49265 0.90234,15.03328 -0.68076,2.54064 -3.29221,4.04836 -5.83284,3.3676 -2.54064,-0.68076 -4.04836,-3.29221 -3.3676,-5.83285 z"
           id="path1034"
           inkscape:connector-curvature="0"
           sodipodi:nodetypes="scszs" />
        <path
           sodipodi:nodetypes="scszs"
           inkscape:connector-curvature="0"
           id="path1036"
           d="m 340.48988,604.92367 c -0.68077,2.54064 -2.02359,9.96541 0.90234,15.03328 5.06788,-2.92593 7.61734,-10.02739 8.2981,-12.56803 0.68076,-2.54063 -0.82696,-5.15208 -3.3676,-5.83284 -2.54063,-0.68076 -5.15208,0.82696 -5.83284,3.36759 z"
           style="opacity:1;fill:#ffc000;fill-opacity:1;fill-rule:evenodd;stroke:none;stroke-width:0.03716735;stroke-linecap:round;stroke-linejoin:round;stroke-miterlimit:4;stroke-dasharray:none;stroke-dashoffset:0;stroke-opacity:1;paint-order:normal" />
        <path
           sodipodi:nodetypes="scszs"
           inkscape:connector-curvature="0"
           id="path1038"
           d="m 480.47822,524.10137 c 2.54064,0.68076 9.6421,3.23022 12.56803,8.2981 -5.06787,2.92593 -12.49265,1.58309 -15.03327,0.90233 -2.54064,-0.68076 -4.04836,-3.29221 -3.3676,-5.83283 0.68076,-2.54065 3.29221,-4.04836 5.83284,-3.3676 z"
           style="opacity:1;fill:#ffc000;fill-opacity:1;fill-rule:evenodd;stroke:none;stroke-width:0.03716735;stroke-linecap:round;stroke-linejoin:round;stroke-miterlimit:4;stroke-dasharray:none;stroke-dashoffset:0;stroke-opacity:1;paint-order:normal" />
        <path
           style="opacity:1;fill:#ffc000;fill-opacity:1;fill-rule:evenodd;stroke:none;stroke-width:0.03716735;stroke-linecap:round;stroke-linejoin:round;stroke-miterlimit:4;stroke-dasharray:none;stroke-dashoffset:0;stroke-opacity:1;paint-order:normal"
           d="m 268.86801,467.40059 c -2.54063,-0.68077 -9.96541,-2.02359 -15.03328,0.90234 2.92593,5.06787 10.0274,7.61734 12.56803,8.2981 2.54064,0.68076 5.15209,-0.82696 5.83285,-3.3676 0.68076,-2.54063 -0.82696,-5.15208 -3.3676,-5.83284 z"
           id="path1040"
           inkscape:connector-curvature="0"
           sodipodi:nodetypes="scszs" />
        <path
           sodipodi:nodetypes="scszs"
           inkscape:connector-curvature="0"
           id="path1042"
           d="m 465.92151,441.45799 c 2.27786,-1.31513 9.1021,-4.53387 14.75458,-3.01929 -1.51458,5.65247 -7.71422,9.95305 -9.99208,11.26818 -2.27787,1.31514 -5.19057,0.53468 -6.5057,-1.7432 -1.31513,-2.27786 -0.53468,-5.19056 1.7432,-6.50569 z"
           style="opacity:1;fill:#ffc000;fill-opacity:1;fill-rule:evenodd;stroke:none;stroke-width:0.03716735;stroke-linecap:round;stroke-linejoin:round;stroke-miterlimit:4;stroke-dasharray:none;stroke-dashoffset:0;stroke-opacity:1;paint-order:normal" />
        <path
           style="opacity:1;fill:#ffc000;fill-opacity:1;fill-rule:evenodd;stroke:none;stroke-width:0.03716735;stroke-linecap:round;stroke-linejoin:round;stroke-miterlimit:4;stroke-dasharray:none;stroke-dashoffset:0;stroke-opacity:1;paint-order:normal"
           d="m 276.19698,550.9955 c -2.27787,1.31513 -8.4775,5.61571 -9.99208,11.26819 5.65247,1.51458 12.47671,-1.70418 14.75458,-3.0193 2.27787,-1.31513 3.05833,-4.22783 1.74319,-6.5057 -1.31512,-2.27787 -4.22781,-3.05833 -6.50569,-1.74319 z"
           id="path1044"
           inkscape:connector-curvature="0"
           sodipodi:nodetypes="scszs" />
        <path
           style="opacity:1;fill:#ffc000;fill-opacity:1;fill-rule:evenodd;stroke:none;stroke-width:0.03716735;stroke-linecap:round;stroke-linejoin:round;stroke-miterlimit:4;stroke-dasharray:none;stroke-dashoffset:0;stroke-opacity:1;paint-order:normal"
           d="m 432.33369,592.83221 c 1.31512,2.27787 4.53388,9.10211 3.0193,14.75458 -5.65248,-1.51458 -9.95306,-7.71422 -11.26818,-9.99208 -1.31514,-2.27787 -0.53468,-5.19057 1.74318,-6.50569 2.27788,-1.31514 5.19057,-0.53468 6.5057,1.74319 z"
           id="path1046"
           inkscape:connector-curvature="0"
           sodipodi:nodetypes="scszs" />
        <path
           sodipodi:nodetypes="scszs"
           inkscape:connector-curvature="0"
           id="path1048"
           d="m 322.79618,403.10768 c -1.31513,-2.27786 -5.61571,-8.4775 -11.26818,-9.99208 -1.51459,5.65247 1.70416,12.47672 3.01929,14.75458 1.31513,2.27788 4.22783,3.05833 6.50569,1.7432 2.27788,-1.31513 3.05834,-4.22783 1.7432,-6.5057 z"
           style="opacity:1;fill:#ffc000;fill-opacity:1;fill-rule:evenodd;stroke:none;stroke-width:0.03716735;stroke-linecap:round;stroke-linejoin:round;stroke-miterlimit:4;stroke-dasharray:none;stroke-dashoffset:0;stroke-opacity:1;paint-order:normal" />
        <path
           sodipodi:nodetypes="scszs"
           inkscape:connector-curvature="0"
           id="path1050"
           d="m 392.45976,392.37243 c 0.34332,-2.60776 0.70553,-10.14429 -2.85686,-14.78689 -4.64261,3.5624 -6.24333,10.93587 -6.58665,13.54363 -0.34332,2.60776 1.49236,5.00007 4.10012,5.34339 2.60776,0.34331 5.00007,-1.49237 5.34339,-4.10013 z"
           style="opacity:1;fill:#ffc000;fill-opacity:1;fill-rule:evenodd;stroke:none;stroke-width:0.03716735;stroke-linecap:round;stroke-linejoin:round;stroke-miterlimit:4;stroke-dasharray:none;stroke-dashoffset:0;stroke-opacity:1;paint-order:normal" />
        <path
           style="opacity:1;fill:#ffc000;fill-opacity:1;fill-rule:evenodd;stroke:none;stroke-width:0.03716735;stroke-linecap:round;stroke-linejoin:round;stroke-miterlimit:4;stroke-dasharray:none;stroke-dashoffset:0;stroke-opacity:1;paint-order:normal"
           d="m 363.86473,609.57322 c -0.34332,2.60776 -1.94404,9.98124 -6.58665,13.54363 -3.56239,-4.6426 -3.20018,-12.17913 -2.85686,-14.78689 0.34332,-2.60776 2.73563,-4.44344 5.34339,-4.10012 2.60776,0.34331 4.44344,2.73563 4.10012,5.34338 z"
           id="path1052"
           inkscape:connector-curvature="0"
           sodipodi:nodetypes="scszs" />
        <path
           style="opacity:1;fill:#ffc000;fill-opacity:1;fill-rule:evenodd;stroke:none;stroke-width:0.03716735;stroke-linecap:round;stroke-linejoin:round;stroke-miterlimit:4;stroke-dasharray:none;stroke-dashoffset:0;stroke-opacity:1;paint-order:normal"
           d="m 265.46172,481.33193 c -2.60776,-0.34332 -10.14429,-0.70553 -14.78689,2.85686 3.56239,4.64261 10.93588,6.24333 13.54363,6.58664 2.60776,0.34332 5.00007,-1.49236 5.34338,-4.10011 0.34332,-2.60777 -1.49236,-5.00007 -4.10012,-5.34339 z"
           id="path1054"
           inkscape:connector-curvature="0"
           sodipodi:nodetypes="scszs" />
        <path
           sodipodi:nodetypes="scszs"
           inkscape:connector-curvature="0"
           id="path1056"
           d="m 482.66251,509.92696 c 2.60776,0.34332 9.98123,1.94404 13.54363,6.58665 -4.64259,3.56239 -12.17913,3.20018 -14.78689,2.85686 -2.60776,-0.34332 -4.44344,-2.73563 -4.10013,-5.34339 0.34332,-2.60776 2.73563,-4.44344 5.34339,-4.10012 z"
           style="opacity:1;fill:#ffc000;fill-opacity:1;fill-rule:evenodd;stroke:none;stroke-width:0.03716735;stroke-linecap:round;stroke-linejoin:round;stroke-miterlimit:4;stroke-dasharray:none;stroke-dashoffset:0;stroke-opacity:1;paint-order:normal" />
        <path
           style="opacity:1;fill:#ffc000;fill-opacity:1;fill-rule:evenodd;stroke:none;stroke-width:0.03716735;stroke-linecap:round;stroke-linejoin:round;stroke-miterlimit:4;stroke-dasharray:none;stroke-dashoffset:0;stroke-opacity:1;paint-order:normal"
           d="m 310.53662,410.55002 c -1.60119,-2.08672 -6.6742,-7.67198 -12.47602,-8.4358 -0.76382,5.80181 3.31814,12.14753 4.91934,14.23425 1.60119,2.08673 4.59084,2.48032 6.67757,0.87912 2.08673,-1.6012 2.48032,-4.59084 0.87911,-6.67757 z"
           id="path1058"
           inkscape:connector-curvature="0"
           sodipodi:nodetypes="scszs" />
        <path
           sodipodi:nodetypes="scszs"
           inkscape:connector-curvature="0"
           id="path1060"
           d="m 443.90104,584.35391 c 1.6012,2.08672 5.68315,8.43244 4.91933,14.23426 -5.80181,-0.76382 -10.87482,-6.34909 -12.47601,-8.43581 -1.60121,-2.08672 -1.20761,-5.07637 0.87912,-6.67757 2.08672,-1.6012 5.07636,-1.20761 6.67756,0.87912 z"
           style="opacity:1;fill:#ffc000;fill-opacity:1;fill-rule:evenodd;stroke:none;stroke-width:0.03716735;stroke-linecap:round;stroke-linejoin:round;stroke-miterlimit:4;stroke-dasharray:none;stroke-dashoffset:0;stroke-opacity:1;paint-order:normal" />
        <path
           sodipodi:nodetypes="scszs"
           inkscape:connector-curvature="0"
           id="path1062"
           d="m 283.63932,563.25507 c -2.08672,1.60119 -7.67199,6.6742 -8.43581,12.47601 5.80182,0.76382 12.14754,-3.31814 14.23425,-4.91934 2.08673,-1.60119 2.48032,-4.59084 0.87913,-6.67755 -1.60121,-2.08675 -4.59085,-2.48033 -6.67757,-0.87912 z"
           style="opacity:1;fill:#ffc000;fill-opacity:1;fill-rule:evenodd;stroke:none;stroke-width:0.03716735;stroke-linecap:round;stroke-linejoin:round;stroke-miterlimit:4;stroke-dasharray:none;stroke-dashoffset:0;stroke-opacity:1;paint-order:normal" />
        <path
           style="opacity:1;fill:#ffc000;fill-opacity:1;fill-rule:evenodd;stroke:none;stroke-width:0.03716735;stroke-linecap:round;stroke-linejoin:round;stroke-miterlimit:4;stroke-dasharray:none;stroke-dashoffset:0;stroke-opacity:1;paint-order:normal"
           d="m 457.44321,429.89065 c 2.08672,-1.6012 8.43244,-5.68316 14.23425,-4.91934 -0.76381,5.80181 -6.34908,10.87483 -8.4358,12.47602 -2.08673,1.60121 -5.07637,1.20762 -6.67757,-0.87911 -1.6012,-2.08673 -1.20761,-5.07638 0.87912,-6.67757 z"
           id="path1064"
           inkscape:connector-curvature="0"
           sodipodi:nodetypes="scszs" />
        <path
           style="opacity:1;fill:#ffc000;fill-opacity:1;fill-rule:evenodd;stroke:none;stroke-width:0.03716735;stroke-linecap:round;stroke-linejoin:round;stroke-miterlimit:4;stroke-dasharray:none;stroke-dashoffset:0;stroke-opacity:1;paint-order:normal"
           d="m 363.86473,391.12916 c -0.34331,-2.60775 -1.94405,-9.98123 -6.58665,-13.54362 -3.56239,4.6426 -3.20018,12.17913 -2.85685,14.78689 0.34331,2.60776 2.73562,4.44344 5.34337,4.10012 2.60777,-0.34331 4.44345,-2.73562 4.10013,-5.34339 z"
           id="path1066"
           inkscape:connector-curvature="0"
           sodipodi:nodetypes="scszs" />
        <path
           sodipodi:nodetypes="scszs"
           inkscape:connector-curvature="0"
           id="path1068"
           d="m 392.45976,608.32996 c 0.34332,2.60776 0.70553,10.14428 -2.85686,14.78689 -4.64261,-3.56239 -6.24334,-10.93587 -6.58665,-13.54363 -0.34332,-2.60775 1.49236,-5.00007 4.10013,-5.34338 2.60775,-0.34332 5.00006,1.49236 5.34338,4.10012 z"
           style="opacity:1;fill:#ffc000;fill-opacity:1;fill-rule:evenodd;stroke:none;stroke-width:0.03716735;stroke-linecap:round;stroke-linejoin:round;stroke-miterlimit:4;stroke-dasharray:none;stroke-dashoffset:0;stroke-opacity:1;paint-order:normal" />
        <path
           sodipodi:nodetypes="scszs"
           inkscape:connector-curvature="0"
           id="path1070"
           d="m 264.21846,509.92696 c -2.60776,0.34331 -9.98124,1.94404 -13.54363,6.58665 4.64261,3.56239 12.17914,3.20016 14.78689,2.85684 2.60776,-0.34331 4.44344,-2.73562 4.10012,-5.34336 -0.34331,-2.60778 -2.73563,-4.44345 -5.34338,-4.10013 z"
           style="opacity:1;fill:#ffc000;fill-opacity:1;fill-rule:evenodd;stroke:none;stroke-width:0.03716735;stroke-linecap:round;stroke-linejoin:round;stroke-miterlimit:4;stroke-dasharray:none;stroke-dashoffset:0;stroke-opacity:1;paint-order:normal" />
        <path
           style="opacity:1;fill:#ffc000;fill-opacity:1;fill-rule:evenodd;stroke:none;stroke-width:0.03716735;stroke-linecap:round;stroke-linejoin:round;stroke-miterlimit:4;stroke-dasharray:none;stroke-dashoffset:0;stroke-opacity:1;paint-order:normal"
           d="m 481.41925,481.33194 c 2.60776,-0.34333 10.14429,-0.70554 14.78689,2.85685 -3.56238,4.64261 -10.93587,6.24334 -13.54362,6.58665 -2.60777,0.34332 -5.00008,-1.49236 -5.34339,-4.10013 -0.34332,-2.60775 1.49236,-5.00006 4.10012,-5.34337 z"
           id="path1072"
           inkscape:connector-curvature="0"
           sodipodi:nodetypes="scszs" />
        <path
           sodipodi:nodetypes="scszs"
           inkscape:connector-curvature="0"
           id="path1074"
           d="m 289.43776,429.89063 c -2.08671,-1.60119 -8.43244,-5.68314 -14.23425,-4.91931 0.76382,5.8018 6.34909,10.8748 8.4358,12.476 2.08672,1.60121 5.07638,1.20761 6.67758,-0.87912 1.6012,-2.08671 1.20761,-5.07636 -0.87913,-6.67757 z"
           style="opacity:1;fill:#ffc000;fill-opacity:1;fill-rule:evenodd;stroke:none;stroke-width:0.03716735;stroke-linecap:round;stroke-linejoin:round;stroke-miterlimit:4;stroke-dasharray:none;stroke-dashoffset:0;stroke-opacity:1;paint-order:normal" />
        <path
           style="opacity:1;fill:#ffc000;fill-opacity:1;fill-rule:evenodd;stroke:none;stroke-width:0.03716735;stroke-linecap:round;stroke-linejoin:round;stroke-miterlimit:4;stroke-dasharray:none;stroke-dashoffset:0;stroke-opacity:1;paint-order:normal"
           d="m 463.24166,563.25506 c 2.08672,1.6012 7.67198,6.6742 8.4358,12.47601 -5.8018,0.76383 -12.14753,-3.31813 -14.23425,-4.91932 -2.08673,-1.60121 -2.48033,-4.59086 -0.87911,-6.67758 1.60119,-2.08672 4.59083,-2.48033 6.67756,-0.87911 z"
           id="path1076"
           inkscape:connector-curvature="0"
           sodipodi:nodetypes="scszs" />
        <path
           style="opacity:1;fill:#ffc000;fill-opacity:1;fill-rule:evenodd;stroke:none;stroke-width:0.03716735;stroke-linecap:round;stroke-linejoin:round;stroke-miterlimit:4;stroke-dasharray:none;stroke-dashoffset:0;stroke-opacity:1;paint-order:normal"
           d="m 302.97993,584.35392 c -1.60119,2.08672 -5.68315,8.43245 -4.91932,14.23425 5.80181,-0.76382 10.87481,-6.34909 12.476,-8.4358 1.60121,-2.08672 1.20761,-5.07638 -0.8791,-6.67756 -2.08673,-1.60122 -5.07637,-1.20762 -6.67758,0.87911 z"
           id="path1078"
           inkscape:connector-curvature="0"
           sodipodi:nodetypes="scszs" />
        <path
           sodipodi:nodetypes="scszs"
           inkscape:connector-curvature="0"
           id="path1080"
           d="m 436.34436,410.55002 c 1.6012,-2.08671 6.6742,-7.67198 12.476,-8.4358 0.76384,5.8018 -3.31812,12.14754 -4.91931,14.23425 -1.60121,2.08674 -4.59086,2.48033 -6.67757,0.87913 -2.08673,-1.6012 -2.48033,-4.59086 -0.87912,-6.67758 z"
           style="opacity:1;fill:#ffc000;fill-opacity:1;fill-rule:evenodd;stroke:none;stroke-width:0.03716735;stroke-linecap:round;stroke-linejoin:round;stroke-miterlimit:4;stroke-dasharray:none;stroke-dashoffset:0;stroke-opacity:1;paint-order:normal" />
        <path
           sodipodi:nodetypes="scszs"
           inkscape:connector-curvature="0"
           id="path1082"
           d="m 410.9587,397.3292 c 1.00656,-2.43003 4.46114,-9.13797 9.86757,-11.37739 2.23941,5.40643 -0.0611,12.59241 -1.06762,15.02245 -1.00655,2.43005 -3.79246,3.58401 -6.2225,2.57745 -2.43005,-1.00655 -3.584,-3.79246 -2.57745,-6.22251 z"
           style="opacity:1;fill:#ffc000;fill-opacity:1;fill-rule:evenodd;stroke:none;stroke-width:0.03716735;stroke-linecap:round;stroke-linejoin:round;stroke-miterlimit:4;stroke-dasharray:none;stroke-dashoffset:0;stroke-opacity:1;paint-order:normal" />
        <path
           style="opacity:1;fill:#ffc000;fill-opacity:1;fill-rule:evenodd;stroke:none;stroke-width:0.03716735;stroke-linecap:round;stroke-linejoin:round;stroke-miterlimit:4;stroke-dasharray:none;stroke-dashoffset:0;stroke-opacity:1;paint-order:normal"
           d="m 327.12233,599.72812 c -1.00657,2.43005 -3.30702,9.61602 -1.06762,15.02245 5.40644,-2.23941 8.86101,-8.94734 9.86757,-11.37739 1.00655,-2.43004 -0.1474,-5.21594 -2.57745,-6.2225 -2.43004,-1.00656 -5.21595,0.1474 -6.2225,2.57744 z"
           id="path1084"
           inkscape:connector-curvature="0"
           sodipodi:nodetypes="scszs" />
        <path
           style="opacity:1;fill:#ffc000;fill-opacity:1;fill-rule:evenodd;stroke:none;stroke-width:0.03716735;stroke-linecap:round;stroke-linejoin:round;stroke-miterlimit:4;stroke-dasharray:none;stroke-dashoffset:0;stroke-opacity:1;paint-order:normal"
           d="m 476.46248,537.86941 c 2.43004,1.00656 9.13798,4.46113 11.37739,9.86757 -5.40643,2.23941 -12.59241,-0.0611 -15.02244,-1.06763 -2.43005,-1.00655 -3.58401,-3.79246 -2.57745,-6.22249 1.00656,-2.43005 3.79246,-3.584 6.2225,-2.57745 z"
           id="path1086"
           inkscape:connector-curvature="0"
           sodipodi:nodetypes="scszs" />
        <path
           sodipodi:nodetypes="scszs"
           inkscape:connector-curvature="0"
           id="path1088"
           d="m 274.06356,454.03304 c -2.43004,-1.00656 -9.61602,-3.30702 -15.02245,-1.06762 2.23941,5.40643 8.94735,8.86101 11.37739,9.86757 2.43005,1.00656 5.21595,-0.1474 6.22251,-2.57745 1.00656,-2.43004 -0.1474,-5.21594 -2.57745,-6.2225 z"
           style="opacity:1;fill:#ffc000;fill-opacity:1;fill-rule:evenodd;stroke:none;stroke-width:0.03716735;stroke-linecap:round;stroke-linejoin:round;stroke-miterlimit:4;stroke-dasharray:none;stroke-dashoffset:0;stroke-opacity:1;paint-order:normal" />
        <path
           style="opacity:1;fill:#ffc000;fill-opacity:1;fill-rule:evenodd;stroke:none;stroke-width:0.03716735;stroke-linecap:round;stroke-linejoin:round;stroke-miterlimit:4;stroke-dasharray:none;stroke-dashoffset:0;stroke-opacity:1;paint-order:normal"
           d="m 472.81743,454.03303 c 2.43003,-1.00656 9.61602,-3.30702 15.02245,-1.0676 -2.23942,5.40642 -8.94736,8.86099 -11.37739,9.86755 -2.43004,1.00656 -5.21596,-0.1474 -6.22251,-2.57745 -1.00656,-2.43004 0.1474,-5.21595 2.57745,-6.2225 z"
           id="path1090"
           inkscape:connector-curvature="0"
           sodipodi:nodetypes="scszs" />
        <path
           sodipodi:nodetypes="scszs"
           inkscape:connector-curvature="0"
           id="path1092"
           d="m 270.4185,537.86941 c -2.43004,1.00655 -9.13797,4.46113 -11.37739,9.86756 5.40642,2.23942 12.59241,-0.0611 15.02245,-1.06761 2.43004,-1.00656 3.58401,-3.79247 2.57744,-6.22251 -1.00654,-2.43004 -3.79244,-3.58401 -6.2225,-2.57744 z"
           style="opacity:1;fill:#ffc000;fill-opacity:1;fill-rule:evenodd;stroke:none;stroke-width:0.03716735;stroke-linecap:round;stroke-linejoin:round;stroke-miterlimit:4;stroke-dasharray:none;stroke-dashoffset:0;stroke-opacity:1;paint-order:normal" />
        <path
           sodipodi:nodetypes="scszs"
           inkscape:connector-curvature="0"
           id="path1094"
           d="m 419.75866,599.72813 c 1.00654,2.43004 3.30702,9.61603 1.06761,15.02245 -5.40643,-2.23942 -8.86101,-8.94736 -9.86755,-11.37739 -1.00657,-2.43004 0.14739,-5.21595 2.57742,-6.2225 2.43006,-1.00657 5.21596,0.1474 6.22252,2.57744 z"
           style="opacity:1;fill:#ffc000;fill-opacity:1;fill-rule:evenodd;stroke:none;stroke-width:0.03716735;stroke-linecap:round;stroke-linejoin:round;stroke-miterlimit:4;stroke-dasharray:none;stroke-dashoffset:0;stroke-opacity:1;paint-order:normal" />
        <path
           style="opacity:1;fill:#ffc000;fill-opacity:1;fill-rule:evenodd;stroke:none;stroke-width:0.03716735;stroke-linecap:round;stroke-linejoin:round;stroke-miterlimit:4;stroke-dasharray:none;stroke-dashoffset:0;stroke-opacity:1;paint-order:normal"
           d="m 335.92227,397.3292 c -1.00655,-2.43003 -4.46113,-9.13797 -9.86755,-11.37739 -2.23942,5.40642 0.0611,12.59242 1.0676,15.02245 1.00656,2.43005 3.79247,3.58401 6.2225,2.57745 2.43006,-1.00655 3.58402,-3.79246 2.57745,-6.22251 z"
           id="path1096"
           inkscape:connector-curvature="0"
           sodipodi:nodetypes="scszs" />
      </g>
      <g
         style="fill:#ffc000;fill-opacity:1"
         id="g1109"
         transform="translate(5.0000001e-6)">
        <path
           sodipodi:nodetypes="csscscscsccscscscssscsccsccsccsccsccsccscc"
           style="fill:#ffc000;fill-opacity:1;stroke:none;stroke-width:0.28776264px;stroke-linecap:butt;stroke-linejoin:miter;stroke-opacity:1"
           d="m 242.28057,516.51361 c 0,0 0.5298,25.92077 6.73836,33.95875 7.05442,9.13308 7.84636,9.15669 10.83375,14.35368 2.89865,5.04262 6.7446,16.09291 6.7446,16.09291 0,0 9.8802,6.83955 14.09916,11.07119 4.11626,4.12864 10.76037,13.78833 10.76037,13.78833 0,0 11.25204,4.07395 16.40373,7.05541 5.06265,2.92993 14.04286,10.52293 14.04286,10.52293 0,0 11.86695,1.04315 17.59041,2.57999 5.67202,1.52303 16.36834,6.51923 16.36834,6.51923 l -1.27652,1.28529 c 0,0 -10.45334,-3.53034 -15.85491,-4.56396 -6.243,-1.19464 -18.97759,-1.86313 -18.97759,-1.86313 0,0 -9.66769,-7.80452 -15.12206,-10.69874 -5.62579,-2.98519 -17.88176,-6.72983 -17.88176,-6.72983 0,0 -8.46639,-9.74291 -13.49145,-13.7345 -6.63066,-5.26699 -21.68094,-13.24002 -21.68094,-13.24002 0,0 -0.68063,10.7428 -0.0422,15.27624 1.00526,7.13862 2.98045,14.38741 7.12886,20.19845 3.89028,5.44946 11.3252,7.44415 15.74292,12.47552 2.28554,2.60301 5.34665,8.91108 5.34665,8.91108 0,0 -14.20963,-1.88812 -20.49549,-5.04961 -2.63885,-1.32721 -6.83183,-5.64369 -6.83183,-5.64369 l 6.23775,-0.29703 c 0,0 -11.07185,-4.20908 -15.44587,-8.01998 -2.19559,-1.91293 -5.04962,-7.12886 -5.04962,-7.12886 l 6.5348,1.18814 c 0,0 -6.80706,-6.13327 -8.91109,-10.09923 -1.4856,-2.80026 -2.37628,-9.20811 -2.37628,-9.20811 l 4.1585,1.48518 c 0,0 -5.27524,-6.50172 -6.53479,-10.39627 -0.94647,-2.92651 -0.59408,-9.20812 -0.59408,-9.20812 l 5.34665,5.64369 c 0,0 -4.8759,-10.42424 -5.64368,-16.03995 -0.40326,-2.94951 0.59407,-8.91108 0.59407,-8.91108 l 4.75258,8.31701 c 0,0 -4.35749,-12.10115 -4.45554,-18.41624 -0.0675,-4.34925 2.67332,-12.77255 2.67332,-12.77255 l 3.2674,11.58441 c 0,0 -2.05306,-14.9473 0,-21.98067 0.92031,-3.1528 5.30065,-8.30586 5.30065,-8.30586 z"
           id="path1100"
           inkscape:connector-curvature="0" />
        <path
           inkscape:connector-curvature="0"
           id="path1103"
           d="m 379.06616,632.68299 c 17.72174,-3.13528 30.96637,-3.46368 48.06167,-5.36876 0,0 9.66769,-7.80452 15.12206,-10.69874 5.62579,-2.98519 17.88176,-6.72983 17.88176,-6.72983 0,0 8.46639,-9.74291 13.49145,-13.7345 6.63066,-5.26699 21.68094,-13.24002 21.68094,-13.24002 0,0 0.68063,10.7428 0.0422,15.27624 -1.00526,7.13862 -2.98045,14.38741 -7.12886,20.19845 -3.89028,5.44946 -11.3252,7.44415 -15.74292,12.47552 -2.28554,2.60301 -5.34665,8.91108 -5.34665,8.91108 0,0 14.20963,-1.88812 20.49549,-5.04961 2.63885,-1.32721 6.83183,-5.64369 6.83183,-5.64369 l -6.23775,-0.29703 c 0,0 11.07185,-4.20908 15.44587,-8.01998 2.19559,-1.91293 5.04962,-7.12886 5.04962,-7.12886 l -6.5348,1.18814 c 0,0 6.80706,-6.13327 8.91109,-10.09923 1.4856,-2.80026 2.37628,-9.20811 2.37628,-9.20811 l -4.1585,1.48518 c 0,0 5.27524,-6.50172 6.53479,-10.39627 0.94647,-2.92651 0.59408,-9.20812 0.59408,-9.20812 l -5.34665,5.64369 c 0,0 4.8759,-10.42424 5.64368,-16.03995 0.40326,-2.94951 -0.59407,-8.91108 -0.59407,-8.91108 l -4.75258,8.31701 c 0,0 4.35749,-12.10115 4.45554,-18.41624 0.0675,-4.34925 -2.67332,-12.77255 -2.67332,-12.77255 l -3.2674,11.58441 c 0,0 2.05306,-14.9473 0,-21.98067 -0.92031,-3.1528 -5.30065,-8.30586 -5.30065,-8.30586 h 3e-5 c 0,0 -0.5298,25.92077 -6.73836,33.95875 -7.05442,9.13308 -7.84636,9.15669 -10.83375,14.35368 -2.89865,5.04262 -6.7446,16.09291 -6.7446,16.09291 0,0 -9.8802,6.83955 -14.09916,11.07119 -4.11626,4.12864 -10.76037,13.78833 -10.76037,13.78833 0,0 -11.25204,4.07395 -16.40373,7.05541 -5.06265,2.92993 -14.04286,10.52293 -14.04286,10.52293 -12.00149,1.84693 -24.14787,3.49141 -36.20776,5.33077 -13.97722,2.13178 -27.65084,5.7632 -39.88843,11.47943 -2.32283,1.085 -4.34023,6.3496 -4.34023,6.3496 0,0 -3.39495,1.46184 -4.42061,2.89348 -1.06342,1.48434 -1.36637,5.30473 -1.36637,5.30473 3.2261,-3.02224 6.38884,-3.31467 9.88608,-3.77761 3.6598,-0.48446 7.75108,-0.29829 11.01786,1.12524 -1.95586,-4.69042 -8.0001,-2.40399 -9.47768,-5.80043 -0.69623,-1.60039 -0.76878,-3.92266 1.04487,-5.13051 1.57072,-1.04608 18.291,-6.75898 27.84087,-8.44852 z"
           style="fill:#ffc000;fill-opacity:1;stroke:none;stroke-width:0.28776264px;stroke-linecap:butt;stroke-linejoin:miter;stroke-opacity:1"
           sodipodi:nodetypes="scscscssscsccsccsccsccsccsccsccsscscscsscacacass" />
        <path
           sodipodi:nodetypes="scsccsccsccsccsccsccszsccsccsccsccsccsccscscs"
           inkscape:connector-curvature="0"
           id="path1105"
           d="m 406.80144,677.26389 c -0.70065,-1.11828 -0.92408,-3.84958 -0.92408,-3.84958 0,0 -2.15854,2.709 -3.61693,3.57156 -1.69111,1.0002 -5.6496,1.68055 -5.6496,1.68055 l 1.3479,-5.69772 c 0,0 -2.12836,2.28256 -3.48293,2.99776 -2.03002,1.07184 -6.65376,1.77651 -6.65376,1.77651 l 2.29526,-5.6094 c 0,0 -2.77271,2.75283 -4.53822,3.46221 -2.17132,0.87243 -6.97579,0.78742 -6.97579,0.78742 l 3.2952,-5.47804 c 0,0 -2.91912,2.73979 -4.75276,3.39318 -2.29032,0.81612 -7.27893,0.47085 -7.27893,0.47085 l 4.24995,-5.32035 c 0,0 -3.68603,2.37584 -5.77506,2.90333 -2.69446,0.68037 -8.33363,0.2404 -8.33363,0.2404 l 5.33678,-5.105 c 0,0 -4.02703,2.35395 -6.27058,2.82577 -2.63173,0.55346 -8.06759,-0.0712 -8.06759,-0.0712 4.34066,-2.41282 14.33742,-7.50831 19.01696,-14.60748 0,0 -1.75019,8.21894 4.60406,9.3177 9.54268,1.6501 20.56876,3.7142 34.54569,3.7142 13.97693,0 25.00301,-2.0641 34.54569,-3.7142 6.35425,-1.09876 4.60406,-9.3177 4.60406,-9.3177 4.67954,7.09917 14.6763,12.19466 19.01696,14.60748 0,0 -5.43586,0.62466 -8.06759,0.0712 -2.24355,-0.47182 -6.27058,-2.82577 -6.27058,-2.82577 l 5.33678,5.105 c 0,0 -5.63917,0.43997 -8.33363,-0.2404 -2.08903,-0.52749 -5.77506,-2.90333 -5.77506,-2.90333 l 4.24995,5.32035 c 0,0 -4.98861,0.34527 -7.27893,-0.47085 -1.83364,-0.65339 -4.75276,-3.39318 -4.75276,-3.39318 l 3.2952,5.47804 c 0,0 -4.80447,0.085 -6.97579,-0.78742 -1.76551,-0.70938 -4.53822,-3.46221 -4.53822,-3.46221 l 2.29526,5.6094 c 0,0 -4.62374,-0.70467 -6.65376,-1.77651 -1.35457,-0.7152 -3.48293,-2.99776 -3.48293,-2.99776 l 1.3479,5.69772 c 0,0 -3.95849,-0.68035 -5.6496,-1.68055 -1.45839,-0.86256 -3.61693,-3.57156 -3.61693,-3.57156 0,0 -0.22343,2.7313 -0.92408,3.84958 -0.54294,0.86657 -2.37194,1.94562 -2.37194,1.94562 0,0 -1.829,-1.07905 -2.37194,-1.94562 z"
           style="fill:#ffc000;fill-opacity:1;stroke:none;stroke-width:0.26458332px;stroke-linecap:butt;stroke-linejoin:miter;stroke-opacity:1" />
        <path
           sodipodi:nodetypes="caccaacaaac"
           inkscape:connector-curvature="0"
           id="path1107"
           d="m 355.81433,641.10742 c 0,0 -3.01157,0.36064 -4.02642,1.22421 -0.62726,0.53376 -0.99325,1.80308 -0.91828,2.14237 0.47876,-0.59975 0.74231,-1.21574 1.53145,-1.68496 0,0 0.0834,0.57663 0.30515,0.76682 0.23815,0.20424 0.62524,0.3331 0.95363,0.27542 0.38426,-0.0674 0.88297,-0.6733 0.88297,-0.6733 0,0 -0.56332,0.2995 -0.83716,0.21424 -0.1643,-0.0511 -0.25886,-0.22779 -0.29306,-0.37614 -0.0464,-0.20158 0.007,-0.43424 0.14093,-0.60447 0.50503,-0.64665 2.26079,-1.28419 2.26079,-1.28419 z"
           style="fill:#ffc000;fill-opacity:1;stroke:none;stroke-width:0.37731418px;stroke-linecap:butt;stroke-linejoin:miter;stroke-opacity:1" />
      </g>
    </g>
  </g>
</svg>
