<?xml version="1.0" encoding="UTF-8" standalone="no"?>
<!-- Created with Inkscape (http://www.inkscape.org/) -->

<svg
   width="3636"
   height="1800.0002"
   viewBox="0 0 962.02499 476.25007"
   version="1.1"
   id="svg8"
   inkscape:export-filename="C:\Users\厂永刄先生\Documents\GXI3CW2\,pjóŭ\Qazaqie.png"
   inkscape:export-xdpi="96"
   inkscape:export-ydpi="96"
   inkscape:version="1.3 (0e150ed6c4, 2023-07-21)"
   sodipodi:docname="kz_1992.svg"
   xmlns:inkscape="http://www.inkscape.org/namespaces/inkscape"
   xmlns:sodipodi="http://sodipodi.sourceforge.net/DTD/sodipodi-0.dtd"
   xmlns="http://www.w3.org/2000/svg"
   xmlns:svg="http://www.w3.org/2000/svg"
   xmlns:rdf="http://www.w3.org/1999/02/22-rdf-syntax-ns#"
   xmlns:cc="http://creativecommons.org/ns#"
   xmlns:dc="http://purl.org/dc/elements/1.1/">
  <defs
     id="defs2" />
  <sodipodi:namedview
     id="base"
     pagecolor="#ffffff"
     bordercolor="#666666"
     borderopacity="1.0"
     inkscape:pageopacity="0.0"
     inkscape:pageshadow="2"
     inkscape:zoom="0.17347064"
     inkscape:cx="2112.7495"
     inkscape:cy="809.93533"
     inkscape:document-units="px"
     inkscape:current-layer="layer1"
     showgrid="false"
     units="px"
     fit-margin-top="0"
     fit-margin-left="0"
     fit-margin-right="0"
     fit-margin-bottom="0"
     inkscape:showpageshadow="false"
     inkscape:snap-intersection-paths="true"
     inkscape:object-paths="false"
     inkscape:pagecheckerboard="true"
     inkscape:snap-smooth-nodes="true"
     inkscape:window-width="1920"
     inkscape:window-height="1009"
     inkscape:window-x="-8"
     inkscape:window-y="-8"
     inkscape:window-maximized="1"
     inkscape:object-nodes="true"
     inkscape:snap-nodes="true"
     inkscape:deskcolor="#505050" />
  <metadata
     id="metadata5">
    <rdf:RDF>
      <cc:Work
         rdf:about="">
        <dc:format>image/svg+xml</dc:format>
        <dc:type
           rdf:resource="http://purl.org/dc/dcmitype/StillImage" />
      </cc:Work>
    </rdf:RDF>
  </metadata>
  <g
     inkscape:label="レイヤー 1"
     inkscape:groupmode="layer"
     id="layer1"
     transform="translate(112.33452,-299.26786)">
    <path
       style="fill:#ffffff;fill-opacity:1;stroke:none;stroke-width:0.51166773px;stroke-linecap:butt;stroke-linejoin:miter;stroke-opacity:1"
       d="m -102.80952,299.26786 h -9.525 v 476.25 h 9.525 z"
       id="path1079"
       inkscape:connector-curvature="0"
       sodipodi:nodetypes="ccccc" />
    <path
       sodipodi:nodetypes="ccccc"
       inkscape:connector-curvature="0"
       id="path935"
       d="m 849.69048,299.26786 h -952.5 v 476.25 h 952.5 z"
       style="fill:#00abc2;fill-opacity:1;stroke:none;stroke-width:0.515821px;stroke-linecap:butt;stroke-linejoin:miter;stroke-opacity:1" />
    <g
       id="g1358"
       style="fill:#ffec2d;fill-opacity:1"
       transform="translate(39.687494)">
      <g
         style="fill:#ffec2d;fill-opacity:1"
         id="g1096">
        <circle
           style="opacity:1;fill:#ffec2d;fill-opacity:1;fill-rule:evenodd;stroke:none;stroke-width:0.743347;stroke-linecap:round;stroke-linejoin:round;stroke-miterlimit:4;stroke-dasharray:none;stroke-dashoffset:0;stroke-opacity:1;paint-order:normal"
           id="path939"
           cx="373.44049"
           cy="500.3512"
           r="95.25" />
        <path
           sodipodi:nodetypes="scszs"
           inkscape:connector-curvature="0"
           id="path949"
           d="m 378.20299,390.81369 c 0,-2.63026 -0.6246,-10.14959 -4.7625,-14.28749 -4.1379,4.1379 -4.7625,11.65723 -4.7625,14.28749 0,2.63026 2.13224,4.7625 4.7625,4.7625 2.63026,0 4.7625,-2.13224 4.7625,-4.7625 z"
           style="opacity:1;fill:#ffec2d;fill-opacity:1;fill-rule:evenodd;stroke:none;stroke-width:0.0371674;stroke-linecap:round;stroke-linejoin:round;stroke-miterlimit:4;stroke-dasharray:none;stroke-dashoffset:0;stroke-opacity:1;paint-order:normal" />
        <path
           style="opacity:1;fill:#ffec2d;fill-opacity:1;fill-rule:evenodd;stroke:none;stroke-width:0.0371674;stroke-linecap:round;stroke-linejoin:round;stroke-miterlimit:4;stroke-dasharray:none;stroke-dashoffset:0;stroke-opacity:1;paint-order:normal"
           d="m 378.20299,609.8887 c 0,2.63026 -0.6246,10.14959 -4.7625,14.28749 -4.1379,-4.1379 -4.7625,-11.65723 -4.7625,-14.28749 0,-2.63026 2.13224,-4.7625 4.7625,-4.7625 2.63026,0 4.7625,2.13224 4.7625,4.7625 z"
           id="path953"
           inkscape:connector-curvature="0"
           sodipodi:nodetypes="scszs" />
        <path
           style="opacity:1;fill:#ffec2d;fill-opacity:1;fill-rule:evenodd;stroke:none;stroke-width:0.0371674;stroke-linecap:round;stroke-linejoin:round;stroke-miterlimit:4;stroke-dasharray:none;stroke-dashoffset:0;stroke-opacity:1;paint-order:normal"
           d="m 263.90298,495.5887 c -2.63026,0 -10.14959,0.6246 -14.28749,4.7625 4.1379,4.1379 11.65723,4.76249 14.28749,4.76249 2.63026,0 4.7625,-2.13224 4.7625,-4.76249 0,-2.63027 -2.13224,-4.7625 -4.7625,-4.7625 z"
           id="path877"
           inkscape:connector-curvature="0"
           sodipodi:nodetypes="scszs" />
        <path
           sodipodi:nodetypes="scszs"
           inkscape:connector-curvature="0"
           id="path879"
           d="m 482.97799,495.5887 c 2.63026,0 10.14959,0.6246 14.28749,4.7625 -4.1379,4.1379 -11.65723,4.7625 -14.28749,4.7625 -2.63026,0 -4.7625,-2.13224 -4.7625,-4.7625 0,-2.63026 2.13224,-4.7625 4.7625,-4.7625 z"
           style="opacity:1;fill:#ffec2d;fill-opacity:1;fill-rule:evenodd;stroke:none;stroke-width:0.0371674;stroke-linecap:round;stroke-linejoin:round;stroke-miterlimit:4;stroke-dasharray:none;stroke-dashoffset:0;stroke-opacity:1;paint-order:normal" />
        <path
           style="opacity:1;fill:#ffec2d;fill-opacity:1;fill-rule:evenodd;stroke:none;stroke-width:0.0371674;stroke-linecap:round;stroke-linejoin:round;stroke-miterlimit:4;stroke-dasharray:none;stroke-dashoffset:0;stroke-opacity:1;paint-order:normal"
           d="m 299.35337,419.52888 c -1.85987,-1.85987 -7.6185,-6.73518 -13.47038,-6.73518 0,5.85187 4.87532,11.6105 6.73519,13.47037 1.85987,1.85988 4.87532,1.85988 6.73519,0 1.85988,-1.85987 1.85988,-4.87531 0,-6.73519 z"
           id="path881"
           inkscape:connector-curvature="0"
           sodipodi:nodetypes="scszs" />
        <path
           sodipodi:nodetypes="scszs"
           inkscape:connector-curvature="0"
           id="path883"
           d="m 454.2628,574.43831 c 1.85987,1.85987 6.73518,7.6185 6.73518,13.47038 -5.85187,0 -11.6105,-4.87532 -13.47037,-6.73519 -1.85988,-1.85987 -1.85988,-4.87532 0,-6.73519 1.85987,-1.85988 4.87531,-1.85988 6.73519,0 z"
           style="opacity:1;fill:#ffec2d;fill-opacity:1;fill-rule:evenodd;stroke:none;stroke-width:0.0371674;stroke-linecap:round;stroke-linejoin:round;stroke-miterlimit:4;stroke-dasharray:none;stroke-dashoffset:0;stroke-opacity:1;paint-order:normal" />
        <path
           sodipodi:nodetypes="scszs"
           inkscape:connector-curvature="0"
           id="path885"
           d="m 292.61818,574.43832 c -1.85987,1.85987 -6.73519,7.6185 -6.73519,13.47037 5.85188,0 11.6105,-4.87532 13.47037,-6.73519 1.85988,-1.85987 1.85988,-4.87532 10e-6,-6.73518 -1.85988,-1.85989 -4.87532,-1.85988 -6.73519,0 z"
           style="opacity:1;fill:#ffec2d;fill-opacity:1;fill-rule:evenodd;stroke:none;stroke-width:0.0371674;stroke-linecap:round;stroke-linejoin:round;stroke-miterlimit:4;stroke-dasharray:none;stroke-dashoffset:0;stroke-opacity:1;paint-order:normal" />
        <path
           style="opacity:1;fill:#ffec2d;fill-opacity:1;fill-rule:evenodd;stroke:none;stroke-width:0.0371674;stroke-linecap:round;stroke-linejoin:round;stroke-miterlimit:4;stroke-dasharray:none;stroke-dashoffset:0;stroke-opacity:1;paint-order:normal"
           d="m 447.52761,419.52889 c 1.85987,-1.85987 7.6185,-6.73519 13.47037,-6.73519 0,5.85188 -4.87531,11.61051 -6.73518,13.47038 -1.85988,1.85988 -4.87532,1.85988 -6.73519,0 -1.85988,-1.85987 -1.85988,-4.87532 0,-6.73519 z"
           id="path887"
           inkscape:connector-curvature="0"
           sodipodi:nodetypes="scszs" />
        <path
           style="opacity:1;fill:#ffec2d;fill-opacity:1;fill-rule:evenodd;stroke:none;stroke-width:0.0371674;stroke-linecap:round;stroke-linejoin:round;stroke-miterlimit:4;stroke-dasharray:none;stroke-dashoffset:0;stroke-opacity:1;paint-order:normal"
           d="m 419.75865,400.97427 c 1.00656,-2.43005 3.30703,-9.61602 1.06761,-15.02245 -5.40642,2.23941 -8.861,8.94734 -9.86756,11.37739 -1.00656,2.43004 0.1474,5.21595 2.57745,6.2225 2.43004,1.00656 5.21595,-0.1474 6.2225,-2.57744 z"
           id="path889"
           inkscape:connector-curvature="0"
           sodipodi:nodetypes="scszs" />
        <path
           sodipodi:nodetypes="scszs"
           inkscape:connector-curvature="0"
           id="path891"
           d="m 335.92228,603.37319 c -1.00656,2.43004 -4.46114,9.13797 -9.86756,11.37739 -2.23942,-5.40643 0.0611,-12.59241 1.0676,-15.02245 1.00656,-2.43005 3.79247,-3.58401 6.22251,-2.57745 2.43004,1.00656 3.584,3.79246 2.57745,6.22251 z"
           style="opacity:1;fill:#ffec2d;fill-opacity:1;fill-rule:evenodd;stroke:none;stroke-width:0.0371674;stroke-linecap:round;stroke-linejoin:round;stroke-miterlimit:4;stroke-dasharray:none;stroke-dashoffset:0;stroke-opacity:1;paint-order:normal" />
        <path
           sodipodi:nodetypes="scszs"
           inkscape:connector-curvature="0"
           id="path893"
           d="m 274.06355,454.03303 c -2.43004,-1.00655 -9.61602,-3.30702 -15.02245,-1.0676 2.23942,5.40642 8.94735,8.86099 11.3774,9.86755 2.43004,1.00656 5.21595,-0.1474 6.2225,-2.57744 1.00656,-2.43005 -0.1474,-5.21595 -2.57745,-6.22251 z"
           style="opacity:1;fill:#ffec2d;fill-opacity:1;fill-rule:evenodd;stroke:none;stroke-width:0.0371674;stroke-linecap:round;stroke-linejoin:round;stroke-miterlimit:4;stroke-dasharray:none;stroke-dashoffset:0;stroke-opacity:1;paint-order:normal" />
        <path
           style="opacity:1;fill:#ffec2d;fill-opacity:1;fill-rule:evenodd;stroke:none;stroke-width:0.0371674;stroke-linecap:round;stroke-linejoin:round;stroke-miterlimit:4;stroke-dasharray:none;stroke-dashoffset:0;stroke-opacity:1;paint-order:normal"
           d="m 476.46247,537.86941 c 2.43005,1.00656 9.13798,4.46114 11.37739,9.86756 -5.40643,2.23942 -12.5924,-0.0611 -15.02245,-1.06761 -2.43004,-1.00655 -3.584,-3.79246 -2.57744,-6.2225 1.00655,-2.43005 3.79246,-3.58401 6.2225,-2.57745 z"
           id="path895"
           inkscape:connector-curvature="0"
           sodipodi:nodetypes="scszs" />
        <path
           sodipodi:nodetypes="scszs"
           inkscape:connector-curvature="0"
           id="path897"
           d="m 335.92228,397.3292 c -1.00656,-2.43004 -4.46114,-9.13797 -9.86757,-11.37739 -2.23941,5.40643 0.0611,12.59241 1.06762,15.02245 1.00655,2.43005 3.79246,3.58401 6.2225,2.57745 2.43005,-1.00656 3.58401,-3.79246 2.57745,-6.22251 z"
           style="opacity:1;fill:#ffec2d;fill-opacity:1;fill-rule:evenodd;stroke:none;stroke-width:0.0371674;stroke-linecap:round;stroke-linejoin:round;stroke-miterlimit:4;stroke-dasharray:none;stroke-dashoffset:0;stroke-opacity:1;paint-order:normal" />
        <path
           style="opacity:1;fill:#ffec2d;fill-opacity:1;fill-rule:evenodd;stroke:none;stroke-width:0.0371674;stroke-linecap:round;stroke-linejoin:round;stroke-miterlimit:4;stroke-dasharray:none;stroke-dashoffset:0;stroke-opacity:1;paint-order:normal"
           d="m 419.75866,599.72813 c 1.00655,2.43003 3.30702,9.61601 1.0676,15.02245 -5.40642,-2.23942 -8.861,-8.94736 -9.86755,-11.3774 -1.00657,-2.43004 0.1474,-5.21595 2.57744,-6.2225 2.43004,-1.00656 5.21595,0.14739 6.22251,2.57745 z"
           id="path899"
           inkscape:connector-curvature="0"
           sodipodi:nodetypes="scszs" />
        <path
           style="opacity:1;fill:#ffec2d;fill-opacity:1;fill-rule:evenodd;stroke:none;stroke-width:0.0371674;stroke-linecap:round;stroke-linejoin:round;stroke-miterlimit:4;stroke-dasharray:none;stroke-dashoffset:0;stroke-opacity:1;paint-order:normal"
           d="m 270.4185,537.86942 c -2.43004,1.00655 -9.13798,4.46113 -11.3774,9.86755 5.40644,2.23942 12.59241,-0.0611 15.02245,-1.06762 2.43005,-1.00655 3.58401,-3.79246 2.57745,-6.22249 -1.00656,-2.43006 -3.79246,-3.58401 -6.2225,-2.57744 z"
           id="path901"
           inkscape:connector-curvature="0"
           sodipodi:nodetypes="scszs" />
        <path
           sodipodi:nodetypes="scszs"
           inkscape:connector-curvature="0"
           id="path903"
           d="m 472.81742,454.03304 c 2.43004,-1.00656 9.61602,-3.30703 15.02245,-1.06762 -2.23942,5.40643 -8.94735,8.86101 -11.37739,9.86757 -2.43005,1.00656 -5.21595,-0.1474 -6.22251,-2.57745 -1.00656,-2.43004 0.1474,-5.21595 2.57745,-6.2225 z"
           style="opacity:1;fill:#ffec2d;fill-opacity:1;fill-rule:evenodd;stroke:none;stroke-width:0.0371674;stroke-linecap:round;stroke-linejoin:round;stroke-miterlimit:4;stroke-dasharray:none;stroke-dashoffset:0;stroke-opacity:1;paint-order:normal" />
        <path
           style="opacity:1;fill:#ffec2d;fill-opacity:1;fill-rule:evenodd;stroke:none;stroke-width:0.0371674;stroke-linecap:round;stroke-linejoin:round;stroke-miterlimit:4;stroke-dasharray:none;stroke-dashoffset:0;stroke-opacity:1;paint-order:normal"
           d="m 399.48119,393.84754 c 0.51314,-2.57972 1.36749,-10.07642 -1.88364,-14.94208 -4.86566,3.25113 -6.9452,10.50413 -7.45834,13.08385 -0.51314,2.57972 1.16215,5.08697 3.74187,5.6001 2.57972,0.51314 5.08697,-1.16215 5.60011,-3.74187 z"
           id="path905"
           inkscape:connector-curvature="0"
           sodipodi:nodetypes="scszs" />
        <path
           sodipodi:nodetypes="scszs"
           inkscape:connector-curvature="0"
           id="path907"
           d="m 356.74177,608.71309 c -0.51314,2.57972 -2.59268,9.83271 -7.45834,13.08384 -3.25113,-4.86566 -2.39678,-12.36236 -1.88364,-14.94208 0.51314,-2.57972 3.02039,-4.25501 5.60011,-3.74187 2.57972,0.51314 4.25501,3.02039 3.74187,5.60011 z"
           style="opacity:1;fill:#ffec2d;fill-opacity:1;fill-rule:evenodd;stroke:none;stroke-width:0.0371674;stroke-linecap:round;stroke-linejoin:round;stroke-miterlimit:4;stroke-dasharray:none;stroke-dashoffset:0;stroke-opacity:1;paint-order:normal" />
        <path
           sodipodi:nodetypes="scszs"
           inkscape:connector-curvature="0"
           id="path909"
           d="m 266.93683,474.3105 c -2.57972,-0.51314 -10.07642,-1.36749 -14.94208,1.88364 3.25113,4.86566 10.50413,6.94519 13.08385,7.45833 2.57972,0.51314 5.08697,-1.16215 5.6001,-3.74186 0.51314,-2.57973 -1.16215,-5.08697 -3.74187,-5.60011 z"
           style="opacity:1;fill:#ffec2d;fill-opacity:1;fill-rule:evenodd;stroke:none;stroke-width:0.0371674;stroke-linecap:round;stroke-linejoin:round;stroke-miterlimit:4;stroke-dasharray:none;stroke-dashoffset:0;stroke-opacity:1;paint-order:normal" />
        <path
           style="opacity:1;fill:#ffec2d;fill-opacity:1;fill-rule:evenodd;stroke:none;stroke-width:0.0371674;stroke-linecap:round;stroke-linejoin:round;stroke-miterlimit:4;stroke-dasharray:none;stroke-dashoffset:0;stroke-opacity:1;paint-order:normal"
           d="m 481.80237,517.04992 c 2.57972,0.51314 9.83272,2.59268 13.08385,7.45834 -4.86566,3.25113 -12.36236,2.39678 -14.94208,1.88364 -2.57972,-0.51314 -4.25501,-3.02039 -3.74187,-5.60011 0.51313,-2.57972 3.02038,-4.25501 5.6001,-3.74187 z"
           id="path911"
           inkscape:connector-curvature="0"
           sodipodi:nodetypes="scszs" />
        <path
           sodipodi:nodetypes="scszs"
           inkscape:connector-curvature="0"
           id="path913"
           d="m 316.54458,406.62818 c -1.46129,-2.18698 -6.15814,-8.09206 -11.89758,-9.23371 -1.14164,5.73943 2.51655,12.33854 3.97784,14.52551 1.46129,2.18699 4.4188,2.77527 6.60577,1.31397 2.18699,-1.46128 2.77527,-4.41878 1.31397,-6.60577 z"
           style="opacity:1;fill:#ffec2d;fill-opacity:1;fill-rule:evenodd;stroke:none;stroke-width:0.0371674;stroke-linecap:round;stroke-linejoin:round;stroke-miterlimit:4;stroke-dasharray:none;stroke-dashoffset:0;stroke-opacity:1;paint-order:normal" />
        <path
           style="opacity:1;fill:#ffec2d;fill-opacity:1;fill-rule:evenodd;stroke:none;stroke-width:0.0371674;stroke-linecap:round;stroke-linejoin:round;stroke-miterlimit:4;stroke-dasharray:none;stroke-dashoffset:0;stroke-opacity:1;paint-order:normal"
           d="m 438.25614,588.7824 c 1.46129,2.18697 5.11947,8.78608 3.97783,14.52552 -5.73943,-1.14165 -10.43628,-7.04674 -11.89757,-9.23372 -1.4613,-2.18697 -0.87302,-5.14448 1.31397,-6.60577 2.18698,-1.4613 5.14447,-0.87302 6.60577,1.31397 z"
           id="path915"
           inkscape:connector-curvature="0"
           sodipodi:nodetypes="scszs" />
        <path
           style="opacity:1;fill:#ffec2d;fill-opacity:1;fill-rule:evenodd;stroke:none;stroke-width:0.0371674;stroke-linecap:round;stroke-linejoin:round;stroke-miterlimit:4;stroke-dasharray:none;stroke-dashoffset:0;stroke-opacity:1;paint-order:normal"
           d="m 279.71748,557.24711 c -2.18698,1.46129 -8.09207,6.15814 -9.23372,11.89757 5.73944,1.14164 12.33854,-2.51655 14.52551,-3.97784 2.18699,-1.46129 2.77527,-4.4188 1.31398,-6.60576 -1.46129,-2.187 -4.4188,-2.77527 -6.60577,-1.31397 z"
           id="path917"
           inkscape:connector-curvature="0"
           sodipodi:nodetypes="scszs" />
        <path
           sodipodi:nodetypes="scszs"
           inkscape:connector-curvature="0"
           id="path919"
           d="m 461.8717,435.53555 c 2.18697,-1.46129 8.78608,-5.11948 14.52551,-3.97784 -1.14165,5.73944 -7.04673,10.43629 -9.23371,11.89758 -2.18699,1.4613 -5.14449,0.87302 -6.60577,-1.31397 -1.4613,-2.18697 -0.87302,-5.14448 1.31397,-6.60577 z"
           style="opacity:1;fill:#ffec2d;fill-opacity:1;fill-rule:evenodd;stroke:none;stroke-width:0.0371674;stroke-linecap:round;stroke-linejoin:round;stroke-miterlimit:4;stroke-dasharray:none;stroke-dashoffset:0;stroke-opacity:1;paint-order:normal" />
        <path
           sodipodi:nodetypes="scszs"
           inkscape:connector-curvature="0"
           id="path921"
           d="m 438.25614,411.92 c 1.46129,-2.18699 5.11947,-8.78609 3.97783,-14.52552 -5.73943,1.14164 -10.43628,7.04672 -11.89758,9.23371 -1.4613,2.18698 -0.87301,5.14448 1.31398,6.60577 2.18697,1.4613 5.14448,0.87301 6.60577,-1.31396 z"
           style="opacity:1;fill:#ffec2d;fill-opacity:1;fill-rule:evenodd;stroke:none;stroke-width:0.0371674;stroke-linecap:round;stroke-linejoin:round;stroke-miterlimit:4;stroke-dasharray:none;stroke-dashoffset:0;stroke-opacity:1;paint-order:normal" />
        <path
           style="opacity:1;fill:#ffec2d;fill-opacity:1;fill-rule:evenodd;stroke:none;stroke-width:0.0371674;stroke-linecap:round;stroke-linejoin:round;stroke-miterlimit:4;stroke-dasharray:none;stroke-dashoffset:0;stroke-opacity:1;paint-order:normal"
           d="m 316.54459,594.07421 c -1.4613,2.18698 -6.15815,8.09206 -11.89758,9.23371 -1.14165,-5.73943 2.51658,-12.33853 3.97782,-14.52552 1.4613,-2.18698 4.41881,-2.77527 6.60578,-1.31397 2.18698,1.4613 2.77527,4.41879 1.31398,6.60578 z"
           id="path923"
           inkscape:connector-curvature="0"
           sodipodi:nodetypes="scszs" />
        <path
           style="opacity:1;fill:#ffec2d;fill-opacity:1;fill-rule:evenodd;stroke:none;stroke-width:0.0371674;stroke-linecap:round;stroke-linejoin:round;stroke-miterlimit:4;stroke-dasharray:none;stroke-dashoffset:0;stroke-opacity:1;paint-order:normal"
           d="m 285.00928,435.53554 c -2.18698,-1.46128 -8.78609,-5.11947 -14.52552,-3.97782 1.14165,5.73943 7.04673,10.43627 9.23372,11.89757 2.18698,1.4613 5.14448,0.87301 6.60577,-1.31397 1.4613,-2.18698 0.87301,-5.14448 -1.31397,-6.60578 z"
           id="path925"
           inkscape:connector-curvature="0"
           sodipodi:nodetypes="scszs" />
        <path
           sodipodi:nodetypes="scszs"
           inkscape:connector-curvature="0"
           id="path927"
           d="m 467.16349,557.2471 c 2.18699,1.4613 8.09207,6.15815 9.23371,11.89758 -5.73943,1.14164 -12.33852,-2.51658 -14.52552,-3.97783 -2.18697,-1.46129 -2.77526,-4.4188 -1.31396,-6.60577 1.46129,-2.18699 4.41879,-2.77528 6.60577,-1.31398 z"
           style="opacity:1;fill:#ffec2d;fill-opacity:1;fill-rule:evenodd;stroke:none;stroke-width:0.0371674;stroke-linecap:round;stroke-linejoin:round;stroke-miterlimit:4;stroke-dasharray:none;stroke-dashoffset:0;stroke-opacity:1;paint-order:normal" />
        <path
           style="opacity:1;fill:#ffec2d;fill-opacity:1;fill-rule:evenodd;stroke:none;stroke-width:0.0371674;stroke-linecap:round;stroke-linejoin:round;stroke-miterlimit:4;stroke-dasharray:none;stroke-dashoffset:0;stroke-opacity:1;paint-order:normal"
           d="m 356.74178,391.9893 c -0.51315,-2.57972 -2.59269,-9.83271 -7.45835,-13.08384 -3.25113,4.86566 -2.39673,12.36237 -1.88363,14.94208 0.51313,2.57972 3.02038,4.25501 5.6001,3.74187 2.57973,-0.51314 4.25502,-3.02038 3.74188,-5.60011 z"
           id="path929"
           inkscape:connector-curvature="0"
           sodipodi:nodetypes="scszs" />
        <path
           sodipodi:nodetypes="scszs"
           inkscape:connector-curvature="0"
           id="path931"
           d="m 399.48119,606.85486 c 0.51314,2.5797 1.36749,10.07641 -1.88365,14.94207 -4.86565,-3.25113 -6.94519,-10.50413 -7.45832,-13.08385 -0.51316,-2.57972 1.16214,-5.08697 3.74186,-5.6001 2.57972,-0.51314 5.08697,1.16214 5.60011,3.74188 z"
           style="opacity:1;fill:#ffec2d;fill-opacity:1;fill-rule:evenodd;stroke:none;stroke-width:0.0371674;stroke-linecap:round;stroke-linejoin:round;stroke-miterlimit:4;stroke-dasharray:none;stroke-dashoffset:0;stroke-opacity:1;paint-order:normal" />
        <path
           sodipodi:nodetypes="scszs"
           inkscape:connector-curvature="0"
           id="path933"
           d="m 265.0786,517.04993 c -2.57972,0.51313 -9.83272,2.59267 -13.08385,7.45832 4.86566,3.25114 12.36237,2.39673 14.94208,1.88363 2.57972,-0.51313 4.25501,-3.02038 3.74187,-5.60009 -0.51314,-2.57974 -3.02038,-4.25502 -5.6001,-3.74186 z"
           style="opacity:1;fill:#ffec2d;fill-opacity:1;fill-rule:evenodd;stroke:none;stroke-width:0.0371674;stroke-linecap:round;stroke-linejoin:round;stroke-miterlimit:4;stroke-dasharray:none;stroke-dashoffset:0;stroke-opacity:1;paint-order:normal" />
        <path
           style="opacity:1;fill:#ffec2d;fill-opacity:1;fill-rule:evenodd;stroke:none;stroke-width:0.0371674;stroke-linecap:round;stroke-linejoin:round;stroke-miterlimit:4;stroke-dasharray:none;stroke-dashoffset:0;stroke-opacity:1;paint-order:normal"
           d="m 479.94414,474.31051 c 2.57972,-0.51314 10.07642,-1.3675 14.94208,1.88363 -3.25113,4.86566 -10.50412,6.9452 -13.08384,7.45835 -2.57973,0.51314 -5.08697,-1.16215 -5.60011,-3.74188 -0.51314,-2.57972 1.16215,-5.08697 3.74187,-5.6001 z"
           id="path937"
           inkscape:connector-curvature="0"
           sodipodi:nodetypes="scszs" />
      </g>
      <g
         transform="translate(5.0000001e-6)"
         id="g1302"
         style="fill:#ffec2d;fill-opacity:1">
        <path
           inkscape:connector-curvature="0"
           id="path1102"
           d="m 242.28057,516.51361 c 0,0 0.5298,25.92077 6.73836,33.95875 7.05442,9.13308 7.84636,9.15669 10.83375,14.35368 2.89865,5.04262 6.7446,16.09291 6.7446,16.09291 0,0 9.8802,6.83955 14.09916,11.07119 4.11626,4.12864 10.76037,13.78833 10.76037,13.78833 0,0 11.25204,4.07395 16.40373,7.05541 5.06265,2.92993 14.04286,10.52293 14.04286,10.52293 0,0 11.86695,1.04315 17.59041,2.57999 5.67202,1.52303 16.36834,6.51923 16.36834,6.51923 l -1.27652,1.28529 c 0,0 -10.45334,-3.53034 -15.85491,-4.56396 -6.243,-1.19464 -18.97759,-1.86313 -18.97759,-1.86313 0,0 -9.66769,-7.80452 -15.12206,-10.69874 -5.62579,-2.98519 -17.88176,-6.72983 -17.88176,-6.72983 0,0 -8.46639,-9.74291 -13.49145,-13.7345 -6.63066,-5.26699 -21.68094,-13.24002 -21.68094,-13.24002 0,0 -0.68063,10.7428 -0.0422,15.27624 1.00526,7.13862 2.98045,14.38741 7.12886,20.19845 3.89028,5.44946 11.3252,7.44415 15.74292,12.47552 2.28554,2.60301 5.34665,8.91108 5.34665,8.91108 0,0 -14.20963,-1.88812 -20.49549,-5.04961 -2.63885,-1.32721 -6.83183,-5.64369 -6.83183,-5.64369 l 6.23775,-0.29703 c 0,0 -11.07185,-4.20908 -15.44587,-8.01998 -2.19559,-1.91293 -5.04962,-7.12886 -5.04962,-7.12886 l 6.5348,1.18814 c 0,0 -6.80706,-6.13327 -8.91109,-10.09923 -1.4856,-2.80026 -2.37628,-9.20811 -2.37628,-9.20811 l 4.1585,1.48518 c 0,0 -5.27524,-6.50172 -6.53479,-10.39627 -0.94647,-2.92651 -0.59408,-9.20812 -0.59408,-9.20812 l 5.34665,5.64369 c 0,0 -4.8759,-10.42424 -5.64368,-16.03995 -0.40326,-2.94951 0.59407,-8.91108 0.59407,-8.91108 l 4.75258,8.31701 c 0,0 -4.35749,-12.10115 -4.45554,-18.41624 -0.0675,-4.34925 2.67332,-12.77255 2.67332,-12.77255 l 3.2674,11.58441 c 0,0 -2.05306,-14.9473 0,-21.98067 0.92031,-3.1528 5.30065,-8.30586 5.30065,-8.30586 z"
           style="fill:#ffec2d;fill-opacity:1;stroke:none;stroke-width:0.287763px;stroke-linecap:butt;stroke-linejoin:miter;stroke-opacity:1"
           sodipodi:nodetypes="csscscscsccscscscssscsccsccsccsccsccsccscc" />
        <path
           sodipodi:nodetypes="scscscssscsccsccsccsccsccsccsccsscscscsscacacass"
           style="fill:#ffec2d;fill-opacity:1;stroke:none;stroke-width:0.287763px;stroke-linecap:butt;stroke-linejoin:miter;stroke-opacity:1"
           d="m 379.06616,632.68299 c 17.72174,-3.13528 30.96637,-3.46368 48.06167,-5.36876 0,0 9.66769,-7.80452 15.12206,-10.69874 5.62579,-2.98519 17.88176,-6.72983 17.88176,-6.72983 0,0 8.46639,-9.74291 13.49145,-13.7345 6.63066,-5.26699 21.68094,-13.24002 21.68094,-13.24002 0,0 0.68063,10.7428 0.0422,15.27624 -1.00526,7.13862 -2.98045,14.38741 -7.12886,20.19845 -3.89028,5.44946 -11.3252,7.44415 -15.74292,12.47552 -2.28554,2.60301 -5.34665,8.91108 -5.34665,8.91108 0,0 14.20963,-1.88812 20.49549,-5.04961 2.63885,-1.32721 6.83183,-5.64369 6.83183,-5.64369 l -6.23775,-0.29703 c 0,0 11.07185,-4.20908 15.44587,-8.01998 2.19559,-1.91293 5.04962,-7.12886 5.04962,-7.12886 l -6.5348,1.18814 c 0,0 6.80706,-6.13327 8.91109,-10.09923 1.4856,-2.80026 2.37628,-9.20811 2.37628,-9.20811 l -4.1585,1.48518 c 0,0 5.27524,-6.50172 6.53479,-10.39627 0.94647,-2.92651 0.59408,-9.20812 0.59408,-9.20812 l -5.34665,5.64369 c 0,0 4.8759,-10.42424 5.64368,-16.03995 0.40326,-2.94951 -0.59407,-8.91108 -0.59407,-8.91108 l -4.75258,8.31701 c 0,0 4.35749,-12.10115 4.45554,-18.41624 0.0675,-4.34925 -2.67332,-12.77255 -2.67332,-12.77255 l -3.2674,11.58441 c 0,0 2.05306,-14.9473 0,-21.98067 -0.92031,-3.1528 -5.30065,-8.30586 -5.30065,-8.30586 h 3e-5 c 0,0 -0.5298,25.92077 -6.73836,33.95875 -7.05442,9.13308 -7.84636,9.15669 -10.83375,14.35368 -2.89865,5.04262 -6.7446,16.09291 -6.7446,16.09291 0,0 -9.8802,6.83955 -14.09916,11.07119 -4.11626,4.12864 -10.76037,13.78833 -10.76037,13.78833 0,0 -11.25204,4.07395 -16.40373,7.05541 -5.06265,2.92993 -14.04286,10.52293 -14.04286,10.52293 -12.00149,1.84693 -24.14787,3.49141 -36.20776,5.33077 -13.97722,2.13178 -27.65084,5.7632 -39.88843,11.47943 -2.32283,1.085 -4.34023,6.3496 -4.34023,6.3496 0,0 -3.39495,1.46184 -4.42061,2.89348 -1.06342,1.48434 -1.36637,5.30473 -1.36637,5.30473 3.2261,-3.02224 6.38884,-3.31467 9.88608,-3.77761 3.6598,-0.48446 7.75108,-0.29829 11.01786,1.12524 -1.95586,-4.69042 -8.0001,-2.40399 -9.47768,-5.80043 -0.69623,-1.60039 -0.76878,-3.92266 1.04487,-5.13051 1.57072,-1.04608 18.291,-6.75898 27.84087,-8.44852 z"
           id="path1108"
           inkscape:connector-curvature="0" />
        <path
           style="fill:#ffec2d;fill-opacity:1;stroke:none;stroke-width:0.264583px;stroke-linecap:butt;stroke-linejoin:miter;stroke-opacity:1"
           d="m 406.80144,677.26389 c -0.70065,-1.11828 -0.92408,-3.84958 -0.92408,-3.84958 0,0 -2.15854,2.709 -3.61693,3.57156 -1.69111,1.0002 -5.6496,1.68055 -5.6496,1.68055 l 1.3479,-5.69772 c 0,0 -2.12836,2.28256 -3.48293,2.99776 -2.03002,1.07184 -6.65376,1.77651 -6.65376,1.77651 l 2.29526,-5.6094 c 0,0 -2.77271,2.75283 -4.53822,3.46221 -2.17132,0.87243 -6.97579,0.78742 -6.97579,0.78742 l 3.2952,-5.47804 c 0,0 -2.91912,2.73979 -4.75276,3.39318 -2.29032,0.81612 -7.27893,0.47085 -7.27893,0.47085 l 4.24995,-5.32035 c 0,0 -3.68603,2.37584 -5.77506,2.90333 -2.69446,0.68037 -8.33363,0.2404 -8.33363,0.2404 l 5.33678,-5.105 c 0,0 -4.02703,2.35395 -6.27058,2.82577 -2.63173,0.55346 -8.06759,-0.0712 -8.06759,-0.0712 4.34066,-2.41282 14.33742,-7.50831 19.01696,-14.60748 0,0 -1.75019,8.21894 4.60406,9.3177 9.54268,1.6501 20.56876,3.7142 34.54569,3.7142 13.97693,0 25.00301,-2.0641 34.54569,-3.7142 6.35425,-1.09876 4.60406,-9.3177 4.60406,-9.3177 4.67954,7.09917 14.6763,12.19466 19.01696,14.60748 0,0 -5.43586,0.62466 -8.06759,0.0712 -2.24355,-0.47182 -6.27058,-2.82577 -6.27058,-2.82577 l 5.33678,5.105 c 0,0 -5.63917,0.43997 -8.33363,-0.2404 -2.08903,-0.52749 -5.77506,-2.90333 -5.77506,-2.90333 l 4.24995,5.32035 c 0,0 -4.98861,0.34527 -7.27893,-0.47085 -1.83364,-0.65339 -4.75276,-3.39318 -4.75276,-3.39318 l 3.2952,5.47804 c 0,0 -4.80447,0.085 -6.97579,-0.78742 -1.76551,-0.70938 -4.53822,-3.46221 -4.53822,-3.46221 l 2.29526,5.6094 c 0,0 -4.62374,-0.70467 -6.65376,-1.77651 -1.35457,-0.7152 -3.48293,-2.99776 -3.48293,-2.99776 l 1.3479,5.69772 c 0,0 -3.95849,-0.68035 -5.6496,-1.68055 -1.45839,-0.86256 -3.61693,-3.57156 -3.61693,-3.57156 0,0 -0.22343,2.7313 -0.92408,3.84958 -0.54294,0.86657 -2.37194,1.94562 -2.37194,1.94562 0,0 -1.829,-1.07905 -2.37194,-1.94562 z"
           id="path1146"
           inkscape:connector-curvature="0"
           sodipodi:nodetypes="scsccsccsccsccsccsccszsccsccsccsccsccsccscscs" />
        <path
           style="fill:#ffec2d;fill-opacity:1;stroke:none;stroke-width:0.377314px;stroke-linecap:butt;stroke-linejoin:miter;stroke-opacity:1"
           d="m 355.81433,641.10742 c 0,0 -3.01157,0.36064 -4.02642,1.22421 -0.62726,0.53376 -0.99325,1.80308 -0.91828,2.14237 0.47876,-0.59975 0.74231,-1.21574 1.53145,-1.68496 0,0 0.0834,0.57663 0.30515,0.76682 0.23815,0.20424 0.62524,0.3331 0.95363,0.27542 0.38426,-0.0674 0.88297,-0.6733 0.88297,-0.6733 0,0 -0.56332,0.2995 -0.83716,0.21424 -0.1643,-0.0511 -0.25886,-0.22779 -0.29306,-0.37614 -0.0464,-0.20158 0.007,-0.43424 0.14093,-0.60447 0.50503,-0.64665 2.26079,-1.28419 2.26079,-1.28419 z"
           id="path906"
           inkscape:connector-curvature="0"
           sodipodi:nodetypes="caccaacaaac" />
      </g>
    </g>
    <path
       style="fill:#ffec2d;fill-opacity:1;stroke:none;stroke-width:0.99999994px;stroke-linecap:butt;stroke-linejoin:miter;stroke-opacity:1"
       d="m 213.5,100 c -13.80713,0 -25,11.19286 -25,25 0,25.28289 40,67.2728 40,88.75 0,21.40105 -17.34897,38.75 -38.75,38.75 -21.40103,0 -38.75,-17.34895 -38.75,-38.75 0,-12.42641 10.07359,-22.5 22.5,-22.5 12.03808,0 21.86808,9.45347 22.4707,21.3418 C 195.36088,196.56116 182.17989,183.75 166,183.75 c -24.0958,0 -0.52836,-37.10309 -30,-45 15.69803,15.69804 0,44.44116 0,75 0,19.681 10.58282,36.88508 26.36328,46.25 C 146.58282,269.36492 136,286.569 136,306.25 c 0,30.55884 15.69804,59.30196 0,75 29.47165,-7.89691 5.9042,-45 30,-45 16.17989,0 29.36088,-12.81116 29.9707,-28.8418 -0.60262,11.88833 -10.43262,21.3418 -22.4707,21.3418 -12.42641,0 -22.5,-10.07359 -22.5,-22.5 0,-21.40105 17.34897,-38.75 38.75,-38.75 21.40103,0 38.75,17.34895 38.75,38.75 0,70.59273 -92.5,151.5211 -92.5,227.5 0,19.68243 10.58481,36.88552 26.36719,46.25 C 146.58481,589.36448 136,606.56757 136,626.25 c 0,75.9789 92.5,156.90727 92.5,227.5 0,21.40105 -17.34897,38.75 -38.75,38.75 -21.40103,0 -38.75,-17.34895 -38.75,-38.75 0,-12.42641 10.07359,-22.5 22.5,-22.5 12.03808,0 21.86808,9.45347 22.4707,21.3418 C 195.36088,836.56116 182.17989,823.75 166,823.75 c -24.0958,0 -0.52835,-37.10309 -30,-45 15.69804,15.69804 0,44.44116 0,75 0,19.681 10.58282,36.88508 26.36328,46.25 C 146.58282,909.36492 136,926.569 136,946.25 c 0,30.55884 15.69804,59.302 0,75 29.47165,-7.8969 5.9042,-45 30,-45 16.17989,0 29.36088,-12.81116 29.9707,-28.8418 -0.60262,11.88833 -10.43262,21.3418 -22.4707,21.3418 -12.42641,0 -22.5,-10.07359 -22.5,-22.5 0,-21.40105 17.34897,-38.75 38.75,-38.75 21.40103,0 38.75,17.34895 38.75,38.75 0,70.5927 -92.5,151.5211 -92.5,227.5 0,19.6824 10.58481,36.8855 26.36719,46.25 C 146.58481,1229.3645 136,1246.5676 136,1266.25 c 0,75.9789 92.5,156.9073 92.5,227.5 0,21.401 -17.34897,38.75 -38.75,38.75 -21.40103,0 -38.75,-17.349 -38.75,-38.75 0,-12.4264 10.07359,-22.5 22.5,-22.5 12.03808,0 21.86808,9.4535 22.4707,21.3418 C 195.36088,1476.5612 182.17989,1463.75 166,1463.75 c -24.0958,0 -0.52835,-37.1031 -30,-45 15.69804,15.698 0,44.4412 0,75 0,19.681 10.58282,36.8851 26.36328,46.25 C 146.58282,1549.3649 136,1566.569 136,1586.25 c 0,30.5588 15.69803,59.302 0,75 29.47164,-7.8969 5.9042,-45 30,-45 16.17989,0 29.36088,-12.8112 29.9707,-28.8418 -0.60262,11.8883 -10.43262,21.3418 -22.4707,21.3418 -12.42641,0 -22.5,-10.0736 -22.5,-22.5 0,-21.401 17.34897,-38.75 38.75,-38.75 21.40103,0 38.75,17.349 38.75,38.75 0,21.4772 -40,63.4671 -40,88.75 0,13.8071 11.19287,25 25,25 9.8961,0 18.4485,-5.7505 22.5,-14.0918 4.0515,8.3413 12.6039,14.0918 22.5,14.0918 13.80713,0 25,-11.1929 25,-25 0,-25.2829 -40,-67.2728 -40,-88.75 0,-21.401 17.34897,-38.75 38.75,-38.75 21.40103,0 38.75,17.349 38.75,38.75 0,12.4264 -10.07359,22.5 -22.5,22.5 -12.03808,0 -21.86808,-9.4535 -22.4707,-21.3418 0.60982,16.0306 13.79081,28.8418 29.9707,28.8418 24.0958,0 0.52836,37.1031 30,45 -15.69803,-15.698 0,-44.4412 0,-75 0,-19.681 -10.58282,-36.8851 -26.36328,-46.25 C 325.41718,1530.6351 336,1513.431 336,1493.75 c 0,-30.5588 -15.69804,-59.302 0,-75 -29.47165,7.8969 -5.9042,45 -30,45 -16.17989,0 -29.36088,12.8112 -29.9707,28.8418 0.60262,-11.8883 10.43262,-21.3418 22.4707,-21.3418 12.42641,0 22.5,10.0736 22.5,22.5 0,21.401 -17.34897,38.75 -38.75,38.75 -21.40103,0 -38.75,-17.349 -38.75,-38.75 0,-70.5927 92.5,-151.5211 92.5,-227.5 0,-19.6824 -10.58481,-36.8855 -26.36719,-46.25 C 325.41519,1210.6355 336,1193.4324 336,1173.75 c 0,-75.9789 -92.5,-156.9073 -92.5,-227.5 0,-21.40105 17.34897,-38.75 38.75,-38.75 21.40103,0 38.75,17.34895 38.75,38.75 0,12.42641 -10.07359,22.5 -22.5,22.5 -12.03808,0 -21.86808,-9.45347 -22.4707,-21.3418 0.60982,16.03064 13.79081,28.8418 29.9707,28.8418 24.0958,0 0.52835,37.1031 30,45 -15.69804,-15.698 0,-44.44116 0,-75 C 336,926.569 325.41718,909.36492 309.63672,900 325.41718,890.63508 336,873.431 336,853.75 c 0,-30.55884 -15.69804,-59.30196 0,-75 -29.47165,7.89691 -5.9042,45 -30,45 -16.17989,0 -29.36088,12.81116 -29.9707,28.8418 0.60262,-11.88833 10.43262,-21.3418 22.4707,-21.3418 12.42641,0 22.5,10.07359 22.5,22.5 0,21.40105 -17.34897,38.75 -38.75,38.75 -21.40103,0 -38.75,-17.34895 -38.75,-38.75 0,-70.59273 92.5,-151.5211 92.5,-227.5 C 336,606.56757 325.41519,589.36448 309.63281,580 325.41519,570.63552 336,553.43243 336,533.75 c 0,-75.9789 -92.5,-156.90727 -92.5,-227.5 0,-21.40105 17.34897,-38.75 38.75,-38.75 21.40103,0 38.75,17.34895 38.75,38.75 0,12.42641 -10.07359,22.5 -22.5,22.5 -12.03808,0 -21.86808,-9.45347 -22.4707,-21.3418 0.60982,16.03064 13.79081,28.8418 29.9707,28.8418 24.0958,0 0.52835,37.10309 30,45 -15.69804,-15.69804 0,-44.44116 0,-75 C 336,286.569 325.41718,269.36492 309.63672,260 325.41718,250.63508 336,233.431 336,213.75 c 0,-30.55884 -15.69803,-59.30196 0,-75 -29.47164,7.89691 -5.9042,45 -30,45 -16.17989,0 -29.36088,12.81116 -29.9707,28.8418 0.60262,-11.88833 10.43262,-21.3418 22.4707,-21.3418 12.42641,0 22.5,10.07359 22.5,22.5 0,21.40105 -17.34897,38.75 -38.75,38.75 -21.40103,0 -38.75,-17.34895 -38.75,-38.75 0,-21.4772 40,-63.46711 40,-88.75 0,-13.80714 -11.19287,-25 -25,-25 -9.8961,0 -18.4485,5.75051 -22.5,14.0918 C 231.9485,105.75051 223.3961,100 213.5,100 Z m 6.25,8.75 c 8.97461,0 16.25,7.27536 16.25,16.25 0,-8.97464 7.27539,-16.25 16.25,-16.25 8.97464,0 16.25,7.27536 16.25,16.25 0,16.85212 -20.91901,40.2924 -32.5,63.1582 C 224.41901,165.2924 203.5,141.85212 203.5,125 c 0,-8.97464 7.27536,-16.25 16.25,-16.25 z M 236,241.10938 C 240.60897,248.88374 247.11453,255.39071 254.88867,260 247.11453,264.60929 240.60897,271.11626 236,278.89062 231.39103,271.11626 224.88547,264.60929 217.11133,260 224.88547,255.39071 231.39103,248.88374 236,241.10938 Z m 0,105.35937 c 22.02261,63.73595 85,129.02996 85,187.28125 0,21.40105 -17.34897,38.75 -38.75,38.75 -21.40103,0 -38.75,-17.34895 -38.75,-38.75 0,-12.42641 10.07359,-22.5 22.5,-22.5 12.03808,0 21.86808,9.45347 22.4707,21.3418 C 287.86088,516.56116 274.67989,503.75 258.5,503.75 c -3.96869,0 -7.76422,0.75646 -11.23828,2.17578 -5.6321,2.30098 -7.82744,-1.40396 -6.58008,-3.56445 C 256.42507,475.09291 236,479.00577 236,458.75 c 0,20.25577 -20.42507,16.34291 -4.68164,43.61133 1.24736,2.16049 -0.94993,5.86543 -6.58203,3.56445 C 221.26226,504.50646 217.46869,503.75 213.5,503.75 c -16.17989,0 -29.36088,12.81116 -29.9707,28.8418 C 184.13192,520.70347 193.96192,511.25 206,511.25 c 12.42641,0 22.5,10.07359 22.5,22.5 0,21.40105 -17.34897,38.75 -38.75,38.75 -21.40103,0 -38.75,-17.34895 -38.75,-38.75 0,-58.25141 62.97752,-123.54517 85,-187.28125 z m 0,214.66016 C 240.60301,568.88751 247.09454,575.3946 254.85156,580 247.09454,584.6054 240.60301,591.11249 236,598.87109 231.39699,591.11249 224.90546,584.6054 217.14844,580 224.90546,575.3946 231.39699,568.88751 236,561.12891 Z M 189.75,587.5 c 21.40103,0 38.75,17.34895 38.75,38.75 0,12.42641 -10.07359,22.5 -22.5,22.5 -12.03808,0 -21.86808,-9.45347 -22.4707,-21.3418 0.60982,16.03064 13.79081,28.8418 29.9707,28.8418 3.96869,0 7.76226,-0.75646 11.23633,-2.17578 5.6321,-2.30098 7.82939,1.40396 6.58203,3.56445 C 215.57493,684.90709 236,680.99423 236,701.25 c 0,-20.25577 20.42507,-16.34291 4.68164,-43.61133 -1.24736,-2.16049 0.94798,-5.86543 6.58008,-3.56445 3.47406,1.41932 7.26959,2.17578 11.23828,2.17578 16.17989,0 29.36088,-12.81116 29.9707,-28.8418 C 287.86808,639.29653 278.03808,648.75 266,648.75 c -12.42641,0 -22.5,-10.07359 -22.5,-22.5 0,-21.40105 17.34897,-38.75 38.75,-38.75 21.40103,0 38.75,17.34895 38.75,38.75 0,58.25129 -62.97739,123.5453 -85,187.28125 C 213.97752,749.79517 151,684.50141 151,626.25 151,604.84895 168.34897,587.5 189.75,587.5 Z M 236,881.10938 C 240.60897,888.88374 247.11453,895.39071 254.88867,900 247.11453,904.60929 240.60897,911.11626 236,918.89062 231.39103,911.11626 224.88547,904.60929 217.11133,900 224.88547,895.39071 231.39103,888.88374 236,881.10938 Z m 0,105.35937 c 22.02261,63.73595 85,129.02995 85,187.28125 0,21.401 -17.34897,38.75 -38.75,38.75 -21.40103,0 -38.75,-17.349 -38.75,-38.75 0,-12.4264 10.07359,-22.5 22.5,-22.5 12.03808,0 21.86808,9.4535 22.4707,21.3418 -0.60982,-16.0306 -13.79081,-28.8418 -29.9707,-28.8418 -3.96869,0 -7.76423,0.7565 -11.23828,2.1758 -5.63211,2.301 -7.82745,-1.404 -6.58008,-3.5645 C 256.42506,1115.0929 236,1119.0058 236,1098.75 c 0,20.2558 -20.42506,16.3429 -4.68164,43.6113 1.24737,2.1605 -0.94992,5.8655 -6.58203,3.5645 -3.47406,-1.4193 -7.26764,-2.1758 -11.23633,-2.1758 -16.17989,0 -29.36088,12.8112 -29.9707,28.8418 0.60262,-11.8883 10.43262,-21.3418 22.4707,-21.3418 12.42641,0 22.5,10.0736 22.5,22.5 0,21.401 -17.34897,38.75 -38.75,38.75 -21.40103,0 -38.75,-17.349 -38.75,-38.75 0,-58.2514 62.97752,-123.5452 85,-187.28125 z m 0,214.66015 c 4.60301,7.7586 11.09454,14.2657 18.85156,18.8711 -7.75702,4.6054 -14.24855,11.1125 -18.85156,18.8711 -4.60301,-7.7586 -11.09454,-14.2657 -18.85156,-18.8711 7.75702,-4.6054 14.24855,-11.1125 18.85156,-18.8711 z M 189.75,1227.5 c 21.40103,0 38.75,17.349 38.75,38.75 0,12.4264 -10.07359,22.5 -22.5,22.5 -12.03808,0 -21.86808,-9.4535 -22.4707,-21.3418 0.60982,16.0306 13.79081,28.8418 29.9707,28.8418 3.96869,0 7.76226,-0.7565 11.23633,-2.1758 5.6321,-2.301 7.8294,1.404 6.58203,3.5645 -15.74342,27.2684 4.68164,23.3555 4.68164,43.6113 0,-20.2558 20.42506,-16.3429 4.68164,-43.6113 -1.24737,-2.1605 0.94798,-5.8655 6.58008,-3.5645 3.47406,1.4193 7.26959,2.1758 11.23828,2.1758 16.17989,0 29.36088,-12.8112 29.9707,-28.8418 -0.60262,11.8883 -10.43262,21.3418 -22.4707,21.3418 -12.42641,0 -22.5,-10.0736 -22.5,-22.5 0,-21.401 17.34897,-38.75 38.75,-38.75 21.40103,0 38.75,17.349 38.75,38.75 0,58.2513 -62.97739,123.5453 -85,187.2812 -22.02248,-63.736 -85,-129.0298 -85,-187.2812 0,-21.401 17.34897,-38.75 38.75,-38.75 z M 236,1521.1094 c 4.60897,7.7743 11.11453,14.2813 18.88867,18.8906 -7.77414,4.6093 -14.2797,11.1163 -18.88867,18.8906 -4.60897,-7.7743 -11.11453,-14.2813 -18.88867,-18.8906 7.77414,-4.6093 14.2797,-11.1163 18.88867,-18.8906 z m 0,90.7324 c 11.58099,22.8658 32.5,46.3061 32.5,63.1582 0,8.9746 -7.27536,16.25 -16.25,16.25 -8.97461,0 -16.25,-7.2754 -16.25,-16.25 0,8.9746 -7.27539,16.25 -16.25,16.25 -8.97464,0 -16.25,-7.2754 -16.25,-16.25 0,-16.8521 20.91901,-40.2924 32.5,-63.1582 z"
       transform="matrix(0.26458333,0,0,0.26458333,-112.33452,299.26786)"
       id="path936"
       inkscape:connector-curvature="0"
       sodipodi:nodetypes="sssssscscscscscssssscssssscscscscscssssscssssscscscscscsssssscsssssscscscscscssssscssssscscscscscssssscssssscscscscscsssssscsscsscssccccccsssscssscssscssssccccccssscssscssscsssscssccccccsssscssscssscssssccccccssscscccccscsssscssccccccsscssc" />
  </g>
</svg>
