<?xml version="1.0" encoding="UTF-8" standalone="no"?>
<!-- Created with Inkscape (http://www.inkscape.org/) -->

<svg
   width="3636"
   height="1800"
   viewBox="0 0 962.02499 476.25001"
   version="1.1"
   id="svg8"
   inkscape:export-filename="C:\Users\厂永刄先生\Documents\GXI3CW2\,pjóŭ\Soudan.png"
   inkscape:export-xdpi="96"
   inkscape:export-ydpi="96"
   inkscape:version="1.3 (0e150ed6c4, 2023-07-21)"
   sodipodi:docname="sd_1956_air-force.svg"
   xmlns:inkscape="http://www.inkscape.org/namespaces/inkscape"
   xmlns:sodipodi="http://sodipodi.sourceforge.net/DTD/sodipodi-0.dtd"
   xmlns="http://www.w3.org/2000/svg"
   xmlns:svg="http://www.w3.org/2000/svg"
   xmlns:rdf="http://www.w3.org/1999/02/22-rdf-syntax-ns#"
   xmlns:cc="http://creativecommons.org/ns#"
   xmlns:dc="http://purl.org/dc/elements/1.1/">
  <defs
     id="defs2" />
  <sodipodi:namedview
     id="base"
     pagecolor="#ffffff"
     bordercolor="#666666"
     borderopacity="1.0"
     inkscape:pageopacity="0.0"
     inkscape:pageshadow="2"
     inkscape:zoom="0.24532453"
     inkscape:cx="1934.1727"
     inkscape:cy="1184.1458"
     inkscape:document-units="px"
     inkscape:current-layer="layer1"
     showgrid="false"
     units="px"
     fit-margin-top="0"
     fit-margin-left="0"
     fit-margin-right="0"
     fit-margin-bottom="0"
     inkscape:showpageshadow="false"
     inkscape:snap-intersection-paths="false"
     inkscape:object-paths="false"
     inkscape:pagecheckerboard="true"
     inkscape:snap-smooth-nodes="false"
     inkscape:window-width="1920"
     inkscape:window-height="1009"
     inkscape:window-x="-8"
     inkscape:window-y="-8"
     inkscape:window-maximized="1"
     inkscape:object-nodes="true"
     inkscape:deskcolor="#505050" />
  <metadata
     id="metadata5">
    <rdf:RDF>
      <cc:Work
         rdf:about="">
        <dc:format>image/svg+xml</dc:format>
        <dc:type
           rdf:resource="http://purl.org/dc/dcmitype/StillImage" />
      </cc:Work>
    </rdf:RDF>
  </metadata>
  <g
     inkscape:label="レイヤー 1"
     inkscape:groupmode="layer"
     id="layer1"
     transform="translate(112.33452,-299.26786)">
    <path
       style="fill:#57c8ff;fill-opacity:1;stroke:none;stroke-width:2.0261px;stroke-linecap:butt;stroke-linejoin:miter;stroke-opacity:1"
       d="m -102.80952,775.51786 v -238.125 h 476.25 v 238.125 z"
       id="path2"
       inkscape:connector-curvature="0"
       sodipodi:nodetypes="ccccc" />
    <path
       sodipodi:nodetypes="ccccc"
       inkscape:connector-curvature="0"
       id="path824"
       d="m 373.44048,378.64286 v 79.375 l -476.25,0 1e-5,-79.375 z"
       style="fill:#ffbf00;fill-opacity:1;stroke:none;stroke-width:1.16977px;stroke-linecap:butt;stroke-linejoin:miter;stroke-opacity:1" />
    <path
       style="fill:#ffffff;fill-opacity:1;stroke:none;stroke-width:0.51166773px;stroke-linecap:butt;stroke-linejoin:miter;stroke-opacity:1"
       d="m -102.80952,299.26786 h -9.525 v 476.25 h 9.525 z"
       id="path819"
       inkscape:connector-curvature="0"
       sodipodi:nodetypes="ccccc" />
    <path
       style="fill:#0000a8;fill-opacity:1;stroke:none;stroke-width:1.16977px;stroke-linecap:butt;stroke-linejoin:miter;stroke-opacity:1"
       d="m 373.44048,378.64286 v -79.375 h -476.25 l 1e-5,79.375 z"
       id="path847"
       inkscape:connector-curvature="0"
       sodipodi:nodetypes="ccccc" />
    <path
       style="fill:#00a800;fill-opacity:1;stroke:none;stroke-width:1.01305px;stroke-linecap:butt;stroke-linejoin:miter;stroke-opacity:1"
       d="m -102.80952,458.01786 0,79.375 h 476.25 v -79.375 z"
       id="path1"
       inkscape:connector-curvature="0"
       sodipodi:nodetypes="ccccc" />
    <path
       style="fill:#57c8ff;fill-opacity:1;stroke:none;stroke-width:2.0261px;stroke-linecap:butt;stroke-linejoin:miter;stroke-opacity:1"
       d="m 849.69048,775.51786 v -476.25 h -476.25 v 476.25 z"
       id="path1-9"
       inkscape:connector-curvature="0"
       sodipodi:nodetypes="ccccc" />
    <g
       id="g2"
       transform="matrix(0,-0.66666664,0.66666664,0,46.928579,992.72818)">
      <path
         id="circle7"
         style="fill:#0000a8;stroke-width:13.0235;stroke-linecap:round;stroke-linejoin:round;stroke-miterlimit:155;paint-order:stroke fill markers;fill-opacity:1"
         d="m 444.87799,846.95538 c 0,131.5128 106.6122,238.12502 238.125,238.12502 131.5128,0 238.125,-106.61222 238.125,-238.12502 0,-131.5128 -106.6122,-238.125 -238.125,-238.125 -131.5128,0 -238.125,106.6122 -238.125,238.125 z"
         sodipodi:nodetypes="zzzzz" />
      <path
         id="circle8"
         style="fill:#ffffff;fill-opacity:1;stroke-width:8.68233;stroke-linecap:round;stroke-linejoin:round;stroke-miterlimit:155;paint-order:stroke fill markers"
         d="m 524.25299,846.95538 c 0,87.6752 71.0748,158.75002 158.75,158.75002 87.6752,0 158.75,-71.07482 158.75,-158.75002 0,-87.6752 -71.0748,-158.75 -158.75,-158.75 -87.6752,0 -158.75,71.0748 -158.75,158.75 z"
         sodipodi:nodetypes="zzzzz" />
      <path
         id="circle9"
         style="fill:#00a800;stroke-width:4.34116;stroke-linecap:round;stroke-linejoin:round;stroke-miterlimit:155;paint-order:stroke fill markers"
         d="m 603.62799,846.95538 c 0,43.8376 35.5374,79.375 79.375,79.375 43.8376,0 79.375,-35.5374 79.375,-79.375 0,-43.8376 -35.5374,-79.375 -79.375,-79.375 -43.8376,0 -79.375,35.5374 -79.375,79.375 z"
         sodipodi:nodetypes="zzzzz" />
    </g>
    <path
       id="path2-2"
       style="fill:#ffbf00;fill-opacity:1;stroke-width:5.78822;stroke-linecap:round;stroke-linejoin:round;stroke-miterlimit:155;paint-order:stroke fill markers"
       d="m 611.56548,643.22619 c 58.45013,0 105.83334,-47.38319 105.83334,-105.83333 0,-58.45013 -47.38321,-105.83333 -105.83334,-105.83333 -58.45013,0 -105.83333,47.3832 -105.83333,105.83333 0,58.45014 47.3832,105.83333 105.83333,105.83333 z"
       sodipodi:nodetypes="zzzzz" />
    <path
       id="path3"
       style="fill:#00a800;stroke-width:2.89411;stroke-linecap:round;stroke-linejoin:round;stroke-miterlimit:155;paint-order:stroke fill markers;fill-opacity:1"
       d="m 611.56548,590.30953 c 29.22506,0 52.91666,-23.6916 52.91666,-52.91667 0,-29.22506 -23.6916,-52.91666 -52.91666,-52.91666 -29.22507,0 -52.91667,23.6916 -52.91667,52.91666 0,29.22507 23.6916,52.91667 52.91667,52.91667 z"
       sodipodi:nodetypes="zzzzz" />
  </g>
</svg>
